<?xml version="1.0" encoding="UTF-8" standalone="no"?>
<!DOCTYPE svg PUBLIC "-//W3C//DTD SVG 1.1//EN"
 "http://www.w3.org/Graphics/SVG/1.1/DTD/svg11.dtd">
<!-- Generated by graphviz version 2.26.3 (20100126.1600)
 -->
<!-- Title: Urho3D::ShaderVariation Pages: 1 -->
<!--zoomable 1031 -->
<svg id="main" version="1.1" xmlns="http://www.w3.org/2000/svg" xmlns:xlink="http://www.w3.org/1999/xlink" xml:space="preserve" onload="init(evt)">
        <defs>
                <circle id="rim" cx="0" cy="0" r="7"/>
                <circle id="rim2" cx="0" cy="0" r="3.5"/>
                <g id="zoomPlus">
                        <use xlink:href="#rim" fill="#404040">
                                <set attributeName="fill" to="#808080" begin="zoomplus.mouseover" end="zoomplus.mouseout"/>
                        </use>
                        <path d="M-4,0h8M0,-4v8" fill="none" stroke="white" stroke-width="1.5" pointer-events="none"/>
                </g>
                <g id="zoomMin">
                        <use xlink:href="#rim" fill="#404040">
                                <set attributeName="fill" to="#808080" begin="zoomminus.mouseover" end="zoomminus.mouseout"/>
                        </use>
                        <path d="M-4,0h8" fill="none" stroke="white" stroke-width="1.5" pointer-events="none"/>
                </g>
                <g id="dirArrow">
                        <path fill="none" stroke="white" stroke-width="1.5" d="M0,-3.0v7 M-2.5,-0.5L0,-3.0L2.5,-0.5"/>
                </g>
               <g id="resetDef">
                       <use xlink:href="#rim2" fill="#404040">
                               <set attributeName="fill" to="#808080" begin="reset.mouseover" end="reset.mouseout"/>
                       </use>
               </g>
        </defs>

<script type="text/javascript">
var viewWidth = 2462;
var viewHeight = 1031;
var sectionId = 'dynsection-1';
</script>
<script xlink:href="svgpan.js"/>
<svg id="graph" class="graph">
<g id="viewport">
<title>Urho3D::ShaderVariation</title>
<!-- Node1 -->
<g id="node1" class="node"><title>Node1</title>
<polygon fill="#bfbfbf" stroke="black" points="1403,-66.5 1403,-87.5 1539,-87.5 1539,-66.5 1403,-66.5"/>
<text text-anchor="middle" x="1471" y="-74.5" font-family="FreeSans" font-size="10.00">Urho3D::ShaderVariation</text>
</g>
<!-- Node6 -->
<g id="node10" class="node"><title>Node6</title>
<a xlink:href="class_urho3_d_1_1_graphics.html" target="_top" xlink:title="Graphics subsystem. Manages the application window, rendering state and GPU resources.">
<polygon fill="none" stroke="red" points="1704.5,-512.5 1704.5,-533.5 1805.5,-533.5 1805.5,-512.5 1704.5,-512.5"/>
<text text-anchor="middle" x="1755" y="-520.5" font-family="FreeSans" font-size="10.00">Urho3D::Graphics</text>
</a>
</g>
<!-- Node1&#45;&gt;Node6 -->
<g id="edge82" class="edge"><title>Node1&#45;&gt;Node6</title>
<path fill="none" stroke="#9a32cd" stroke-dasharray="5,2" d="M1549.1,-79.5193C1595.77,-85.3556 1652.34,-100.843 1686,-140 1736.21,-198.407 1751.72,-456.577 1754.51,-512.353"/>
<polygon fill="#9a32cd" stroke="#9a32cd" points="1549.33,-76.0231 1539,-78.3849 1548.55,-82.9793 1549.33,-76.0231"/>
<text text-anchor="middle" x="1632" y="-157" font-family="FreeSans" font-size="10.00"> pixelShader_</text>
<text text-anchor="middle" x="1632" y="-144" font-family="FreeSans" font-size="10.00">vertexShader_</text>
</g>
<!-- Node2 -->
<g id="node2" class="node"><title>Node2</title>
<a xlink:href="class_urho3_d_1_1_ref_counted.html" target="_top" xlink:title="Base class for intrusively reference&#45;counted objects. These are noncopyable and non&#45;assignable.">
<polygon fill="none" stroke="black" points="188,-486.5 188,-507.5 302,-507.5 302,-486.5 188,-486.5"/>
<text text-anchor="middle" x="245" y="-494.5" font-family="FreeSans" font-size="10.00">Urho3D::RefCounted</text>
</a>
</g>
<!-- Node2&#45;&gt;Node1 -->
<g id="edge2" class="edge"><title>Node2&#45;&gt;Node1</title>
<path fill="none" stroke="midnightblue" d="M259.492,-478.597C296.509,-433.851 399.649,-323 513,-323 513,-323 513,-323 1211,-323 1336.96,-323 1276.1,-165.188 1382,-97 1388.39,-92.8848 1395.51,-89.6096 1402.87,-87.0042"/>
<polygon fill="midnightblue" stroke="midnightblue" points="256.761,-476.408 253.174,-486.377 262.195,-480.821 256.761,-476.408"/>
</g>
<!-- Node7 -->
<g id="node12" class="node"><title>Node7</title>
<a xlink:href="class_urho3_d_1_1_object.html" target="_top" xlink:title="Base class for objects with type identification, subsystem access and event sending/receiving capabil...">
<polygon fill="none" stroke="red" points="340,-486.5 340,-507.5 430,-507.5 430,-486.5 340,-486.5"/>
<text text-anchor="middle" x="385" y="-494.5" font-family="FreeSans" font-size="10.00">Urho3D::Object</text>
</a>
</g>
<!-- Node2&#45;&gt;Node7 -->
<g id="edge14" class="edge"><title>Node2&#45;&gt;Node7</title>
<path fill="none" stroke="midnightblue" d="M312.423,-497C321.76,-497 331.158,-497 339.952,-497"/>
<polygon fill="midnightblue" stroke="midnightblue" points="312.347,-493.5 302.347,-497 312.347,-500.5 312.347,-493.5"/>
</g>
<!-- Node14 -->
<g id="node30" class="node"><title>Node14</title>
<a xlink:href="class_urho3_d_1_1_render_surface.html" target="_top" xlink:title="Color or depth&#45;stencil surface that can be rendered into.">
<polygon fill="none" stroke="red" points="448.5,-924.5 448.5,-945.5 577.5,-945.5 577.5,-924.5 448.5,-924.5"/>
<text text-anchor="middle" x="513" y="-932.5" font-family="FreeSans" font-size="10.00">Urho3D::RenderSurface</text>
</a>
</g>
<!-- Node2&#45;&gt;Node14 -->
<g id="edge36" class="edge"><title>Node2&#45;&gt;Node14</title>
<path fill="none" stroke="midnightblue" d="M250.548,-517.204C263.202,-561.867 296.497,-671.787 340,-757 379.011,-833.413 378.353,-866.899 448,-917 452.087,-919.94 456.636,-922.401 461.374,-924.459"/>
<polygon fill="midnightblue" stroke="midnightblue" points="253.909,-516.225 247.845,-507.537 247.168,-518.11 253.909,-516.225"/>
</g>
<!-- Node21 -->
<g id="node48" class="node"><title>Node21</title>
<a xlink:href="class_urho3_d_1_1_shader_program.html" target="_top" xlink:title="Linked shader program on the GPU.">
<polygon fill="none" stroke="red" points="2318.5,-751.5 2318.5,-772.5 2453.5,-772.5 2453.5,-751.5 2318.5,-751.5"/>
<text text-anchor="middle" x="2386" y="-759.5" font-family="FreeSans" font-size="10.00">Urho3D::ShaderProgram</text>
</a>
</g>
<!-- Node2&#45;&gt;Node21 -->
<g id="edge58" class="edge"><title>Node2&#45;&gt;Node21</title>
<path fill="none" stroke="midnightblue" d="M245.946,-517.531C250.967,-614.62 278.42,-1023 385,-1023 385,-1023 385,-1023 2224,-1023 2344,-1023 2378.2,-821.384 2384.73,-772.555"/>
<polygon fill="midnightblue" stroke="midnightblue" points="249.44,-517.322 245.452,-507.507 242.449,-517.667 249.44,-517.322"/>
</g>
<!-- Node3 -->
<g id="node4" class="node"><title>Node3</title>
<a xlink:href="struct_urho3_d_1_1_ref_count.html" target="_top" xlink:title="Reference count structure.">
<polygon fill="none" stroke="black" points="0,-350.5 0,-371.5 102,-371.5 102,-350.5 0,-350.5"/>
<text text-anchor="middle" x="51" y="-358.5" font-family="FreeSans" font-size="10.00">Urho3D::RefCount</text>
</a>
</g>
<!-- Node3&#45;&gt;Node2 -->
<g id="edge4" class="edge"><title>Node3&#45;&gt;Node2</title>
<path fill="none" stroke="#9a32cd" stroke-dasharray="5,2" d="M74.6486,-377.578C115.037,-405.892 196.199,-462.789 229.848,-486.378"/>
<polygon fill="#9a32cd" stroke="#9a32cd" points="76.4203,-374.546 66.2229,-371.672 72.4021,-380.278 76.4203,-374.546"/>
<text text-anchor="middle" x="145" y="-445" font-family="FreeSans" font-size="10.00"> refCount_</text>
</g>
<!-- Node5 -->
<g id="node8" class="node"><title>Node5</title>
<a xlink:href="class_urho3_d_1_1_weak_ptr.html" target="_top" xlink:title="Urho3D::WeakPtr\&lt; Urho3D\l::Graphics \&gt;">
<polygon fill="none" stroke="black" points="1864,-123 1864,-157 2010,-157 2010,-123 1864,-123"/>
<text text-anchor="start" x="1872" y="-144" font-family="FreeSans" font-size="10.00">Urho3D::WeakPtr&lt; Urho3D</text>
<text text-anchor="middle" x="1937" y="-131" font-family="FreeSans" font-size="10.00">::Graphics &gt;</text>
</a>
</g>
<!-- Node3&#45;&gt;Node5 -->
<g id="edge84" class="edge"><title>Node3&#45;&gt;Node5</title>
<path fill="none" stroke="#9a32cd" stroke-dasharray="5,2" d="M53.3258,-340.226C62.5748,-268.847 103.431,-38 245,-38 245,-38 245,-38 1333,-38 1534.53,-38 1768.66,-93.8906 1876.7,-122.927"/>
<polygon fill="#9a32cd" stroke="#9a32cd" points="49.8394,-339.903 52.1022,-350.253 56.7878,-340.751 49.8394,-339.903"/>
<text text-anchor="middle" x="965" y="-42" font-family="FreeSans" font-size="10.00"> refCount_</text>
</g>
<!-- Node23 -->
<g id="node56" class="node"><title>Node23</title>
<a xlink:href="class_urho3_d_1_1_weak_ptr.html" target="_top" xlink:title="Urho3D::WeakPtr\&lt; Urho3D\l::Shader \&gt;">
<polygon fill="none" stroke="black" points="1138,-427 1138,-461 1284,-461 1284,-427 1138,-427"/>
<text text-anchor="start" x="1146" y="-448" font-family="FreeSans" font-size="10.00">Urho3D::WeakPtr&lt; Urho3D</text>
<text text-anchor="middle" x="1211" y="-435" font-family="FreeSans" font-size="10.00">::Shader &gt;</text>
</a>
</g>
<!-- Node3&#45;&gt;Node23 -->
<g id="edge78" class="edge"><title>Node3&#45;&gt;Node23</title>
<path fill="none" stroke="#9a32cd" stroke-dasharray="5,2" d="M112.515,-365.402C309.637,-379.506 925.1,-423.543 1137.81,-438.763"/>
<polygon fill="#9a32cd" stroke="#9a32cd" points="112.565,-361.896 102.341,-364.674 112.065,-368.878 112.565,-361.896"/>
<text text-anchor="middle" x="513" y="-402" font-family="FreeSans" font-size="10.00"> refCount_</text>
</g>
<!-- Node4 -->
<g id="node6" class="node"><title>Node4</title>
<a xlink:href="class_urho3_d_1_1_g_p_u_object.html" target="_top" xlink:title="Base class for GPU resources.">
<polygon fill="none" stroke="black" points="2168.5,-129.5 2168.5,-150.5 2279.5,-150.5 2279.5,-129.5 2168.5,-129.5"/>
<text text-anchor="middle" x="2224" y="-137.5" font-family="FreeSans" font-size="10.00">Urho3D::GPUObject</text>
</a>
</g>
<!-- Node4&#45;&gt;Node1 -->
<g id="edge6" class="edge"><title>Node4&#45;&gt;Node1</title>
<path fill="none" stroke="midnightblue" d="M2183.74,-126.224C2112.18,-103.077 1957.77,-59.1592 1824,-62 1724.96,-64.1033 1610.39,-69.5226 1539.3,-73.2369"/>
<polygon fill="midnightblue" stroke="midnightblue" points="2182.68,-129.561 2193.27,-129.345 2184.86,-122.908 2182.68,-129.561"/>
</g>
<!-- Node17 -->
<g id="node37" class="node"><title>Node17</title>
<a xlink:href="class_urho3_d_1_1_constant_buffer.html" target="_top" xlink:title="Hardware constant buffer.">
<polygon fill="none" stroke="red" points="2320.5,-129.5 2320.5,-150.5 2451.5,-150.5 2451.5,-129.5 2320.5,-129.5"/>
<text text-anchor="middle" x="2386" y="-137.5" font-family="FreeSans" font-size="10.00">Urho3D::ConstantBuffer</text>
</a>
</g>
<!-- Node4&#45;&gt;Node17 -->
<g id="edge46" class="edge"><title>Node4&#45;&gt;Node17</title>
<path fill="none" stroke="midnightblue" d="M2290.04,-140C2300.05,-140 2310.38,-140 2320.38,-140"/>
<polygon fill="midnightblue" stroke="midnightblue" points="2289.75,-136.5 2279.75,-140 2289.75,-143.5 2289.75,-136.5"/>
</g>
<!-- Node4&#45;&gt;Node21 -->
<g id="edge60" class="edge"><title>Node4&#45;&gt;Node21</title>
<path fill="none" stroke="midnightblue" d="M2229.31,-160.385C2254.82,-258.345 2364.38,-678.972 2383.23,-751.37"/>
<polygon fill="midnightblue" stroke="midnightblue" points="2232.65,-159.33 2226.74,-150.535 2225.88,-161.094 2232.65,-159.33"/>
</g>
<!-- Node5&#45;&gt;Node4 -->
<g id="edge8" class="edge"><title>Node5&#45;&gt;Node4</title>
<path fill="none" stroke="#9a32cd" stroke-dasharray="5,2" d="M2020.44,-140C2067.96,-140 2126.19,-140 2168.18,-140"/>
<polygon fill="#9a32cd" stroke="#9a32cd" points="2020.16,-136.5 2010.16,-140 2020.16,-143.5 2020.16,-136.5"/>
<text text-anchor="middle" x="2089" y="-144" font-family="FreeSans" font-size="10.00"> graphics_</text>
</g>
<!-- Node6&#45;&gt;Node5 -->
<g id="edge10" class="edge"><title>Node6&#45;&gt;Node5</title>
<path fill="none" stroke="#9a32cd" stroke-dasharray="5,2" d="M1764.35,-503.321C1796.01,-436.693 1898.86,-220.255 1928.77,-157.315"/>
<polygon fill="#9a32cd" stroke="#9a32cd" points="1761.19,-501.822 1760.06,-512.357 1767.51,-504.827 1761.19,-501.822"/>
<text text-anchor="middle" x="1835" y="-381" font-family="FreeSans" font-size="10.00"> ptr_</text>
</g>
<!-- Node7&#45;&gt;Node6 -->
<g id="edge12" class="edge"><title>Node7&#45;&gt;Node6</title>
<path fill="none" stroke="midnightblue" d="M440.277,-497C504.065,-497 612.115,-497 705,-497 705,-497 705,-497 1471,-497 1552.94,-497 1647.63,-507.866 1704.34,-515.549"/>
<polygon fill="midnightblue" stroke="midnightblue" points="440.045,-493.5 430.045,-497 440.045,-500.5 440.045,-493.5"/>
</g>
<!-- Node12 -->
<g id="node24" class="node"><title>Node12</title>
<a xlink:href="class_urho3_d_1_1_resource.html" target="_top" xlink:title="Base class for resources.">
<polygon fill="none" stroke="red" points="653.5,-648.5 653.5,-669.5 756.5,-669.5 756.5,-648.5 653.5,-648.5"/>
<text text-anchor="middle" x="705" y="-656.5" font-family="FreeSans" font-size="10.00">Urho3D::Resource</text>
</a>
</g>
<!-- Node7&#45;&gt;Node12 -->
<g id="edge28" class="edge"><title>Node7&#45;&gt;Node12</title>
<path fill="none" stroke="midnightblue" d="M404.47,-514.239C439.89,-544.6 518.395,-607.38 596,-639 613.995,-646.332 634.758,-650.992 653.303,-653.947"/>
<polygon fill="midnightblue" stroke="midnightblue" points="406.654,-511.5 396.805,-507.595 402.069,-516.79 406.654,-511.5"/>
</g>
<!-- Node7&#45;&gt;Node17 -->
<g id="edge44" class="edge"><title>Node7&#45;&gt;Node17</title>
<path fill="none" stroke="midnightblue" d="M411.793,-481.027C554.927,-395.957 1226.84,-0 1333,-0 1333,-0 1333,-0 2224,-0 2303.18,-0 2362.75,-96.9186 2380.53,-129.477"/>
<polygon fill="midnightblue" stroke="midnightblue" points="409.583,-478.269 402.778,-486.39 413.162,-484.285 409.583,-478.269"/>
</g>
<!-- Node8 -->
<g id="node15" class="node"><title>Node8</title>
<a xlink:href="class_urho3_d_1_1_int_rect.html" target="_top" xlink:title="Two&#45;dimensional bounding rectangle with integer values.">
<polygon fill="none" stroke="black" points="1425,-695.5 1425,-716.5 1517,-716.5 1517,-695.5 1425,-695.5"/>
<text text-anchor="middle" x="1471" y="-703.5" font-family="FreeSans" font-size="10.00">Urho3D::IntRect</text>
</a>
</g>
<!-- Node8&#45;&gt;Node6 -->
<g id="edge16" class="edge"><title>Node8&#45;&gt;Node6</title>
<path fill="none" stroke="#9a32cd" stroke-dasharray="5,2" d="M1527.32,-706.888C1574.25,-704.83 1640.54,-695.099 1686,-660 1729,-626.798 1747.28,-559.515 1752.94,-533.552"/>
<polygon fill="#9a32cd" stroke="#9a32cd" points="1527.19,-703.39 1517.31,-707.224 1527.43,-710.387 1527.19,-703.39"/>
<text text-anchor="middle" x="1632" y="-718" font-family="FreeSans" font-size="10.00"> viewport_</text>
<text text-anchor="middle" x="1632" y="-705" font-family="FreeSans" font-size="10.00">scissorRect_</text>
</g>
<!-- Node8&#45;&gt;Node8 -->
<g id="edge18" class="edge"><title>Node8&#45;&gt;Node8</title>
<path fill="none" stroke="#9a32cd" stroke-dasharray="5,2" d="M1445.43,-726.055C1447.11,-731.164 1455.63,-735 1471,-735 1494.99,-735 1502.3,-725.653 1492.93,-716.708"/>
<polygon fill="#9a32cd" stroke="#9a32cd" points="1448.71,-727.296 1449.07,-716.708 1442.18,-724.756 1448.71,-727.296"/>
<text text-anchor="middle" x="1471" y="-739" font-family="FreeSans" font-size="10.00"> ZERO</text>
</g>
<!-- Node9 -->
<g id="node18" class="node"><title>Node9</title>
<a xlink:href="class_urho3_d_1_1_vector.html" target="_top" xlink:title="Urho3D::Vector\&lt; Urho3D\l::ScratchBuffer \&gt;">
<polygon fill="none" stroke="red" points="1402,-643 1402,-677 1540,-677 1540,-643 1402,-643"/>
<text text-anchor="start" x="1410" y="-664" font-family="FreeSans" font-size="10.00">Urho3D::Vector&lt; Urho3D</text>
<text text-anchor="middle" x="1471" y="-651" font-family="FreeSans" font-size="10.00">::ScratchBuffer &gt;</text>
</a>
</g>
<!-- Node9&#45;&gt;Node6 -->
<g id="edge20" class="edge"><title>Node9&#45;&gt;Node6</title>
<path fill="none" stroke="#9a32cd" stroke-dasharray="5,2" d="M1550.1,-650.084C1592.8,-642.019 1645.02,-627.591 1686,-602 1714.58,-584.157 1737.88,-550.846 1748.62,-533.742"/>
<polygon fill="#9a32cd" stroke="#9a32cd" points="1549.24,-646.682 1540.02,-651.903 1550.48,-653.571 1549.24,-646.682"/>
<text text-anchor="middle" x="1632" y="-647" font-family="FreeSans" font-size="10.00"> scratchBuffers_</text>
</g>
<!-- Node10 -->
<g id="node20" class="node"><title>Node10</title>
<a xlink:href="class_urho3_d_1_1_p_o_d_vector.html" target="_top" xlink:title="Urho3D::PODVector\&lt;\l Urho3D::ConstantBuffer * \&gt;">
<polygon fill="none" stroke="red" points="1394,-591 1394,-625 1548,-625 1548,-591 1394,-591"/>
<text text-anchor="start" x="1402" y="-612" font-family="FreeSans" font-size="10.00">Urho3D::PODVector&lt;</text>
<text text-anchor="middle" x="1471" y="-599" font-family="FreeSans" font-size="10.00"> Urho3D::ConstantBuffer * &gt;</text>
</a>
</g>
<!-- Node10&#45;&gt;Node6 -->
<g id="edge22" class="edge"><title>Node10&#45;&gt;Node6</title>
<path fill="none" stroke="#9a32cd" stroke-dasharray="5,2" d="M1557.91,-591.311C1597.54,-582.604 1644.72,-570.681 1686,-556 1703.39,-549.815 1722.24,-540.618 1735.83,-533.503"/>
<polygon fill="#9a32cd" stroke="#9a32cd" points="1557.04,-587.919 1548,-593.455 1558.52,-594.76 1557.04,-587.919"/>
<text text-anchor="middle" x="1632" y="-589" font-family="FreeSans" font-size="10.00"> dirtyConstantBuffers_</text>
</g>
<!-- Node11 -->
<g id="node22" class="node"><title>Node11</title>
<a xlink:href="class_urho3_d_1_1_image.html" target="_top" xlink:title="Image resource.">
<polygon fill="none" stroke="red" points="1030.5,-758.5 1030.5,-779.5 1119.5,-779.5 1119.5,-758.5 1030.5,-758.5"/>
<text text-anchor="middle" x="1075" y="-766.5" font-family="FreeSans" font-size="10.00">Urho3D::Image</text>
</a>
</g>
<!-- Node11&#45;&gt;Node6 -->
<g id="edge24" class="edge"><title>Node11&#45;&gt;Node6</title>
<path fill="none" stroke="#9a32cd" stroke-dasharray="5,2" d="M1130,-773.824C1264.5,-784.368 1604.93,-803.114 1686,-731 1716.99,-703.438 1745.23,-571.984 1752.94,-533.567"/>
<polygon fill="#9a32cd" stroke="#9a32cd" points="1130.17,-770.326 1119.92,-773.018 1129.61,-777.303 1130.17,-770.326"/>
<text text-anchor="middle" x="1333" y="-788" font-family="FreeSans" font-size="10.00"> windowIcon_</text>
</g>
<!-- Node12&#45;&gt;Node11 -->
<g id="edge26" class="edge"><title>Node12&#45;&gt;Node11</title>
<path fill="none" stroke="midnightblue" d="M764.943,-671.736C780.953,-675.413 798.195,-679.623 814,-684 898.964,-707.528 997.431,-741.44 1045.51,-758.441"/>
<polygon fill="midnightblue" stroke="midnightblue" points="765.684,-668.315 755.158,-669.519 764.137,-675.142 765.684,-668.315"/>
</g>
<!-- Node24 -->
<g id="node58" class="node"><title>Node24</title>
<a xlink:href="class_urho3_d_1_1_shader.html" target="_top" xlink:title="Shader resource consisting of several shader variations.">
<polygon fill="none" stroke="black" points="918,-619.5 918,-640.5 1012,-640.5 1012,-619.5 918,-619.5"/>
<text text-anchor="middle" x="965" y="-627.5" font-family="FreeSans" font-size="10.00">Urho3D::Shader</text>
</a>
</g>
<!-- Node12&#45;&gt;Node24 -->
<g id="edge72" class="edge"><title>Node12&#45;&gt;Node24</title>
<path fill="none" stroke="midnightblue" d="M766.777,-653.227C805.157,-649.501 855.492,-644.362 900,-639 905.768,-638.305 911.818,-637.53 917.808,-636.734"/>
<polygon fill="midnightblue" stroke="midnightblue" points="766.404,-649.747 756.786,-654.192 767.076,-656.715 766.404,-649.747"/>
</g>
<!-- Node13 -->
<g id="node27" class="node"><title>Node13</title>
<a xlink:href="class_urho3_d_1_1_string.html" target="_top" xlink:title="String class.">
<polygon fill="none" stroke="black" points="341,-695.5 341,-716.5 429,-716.5 429,-695.5 341,-695.5"/>
<text text-anchor="middle" x="385" y="-703.5" font-family="FreeSans" font-size="10.00">Urho3D::String</text>
</a>
</g>
<!-- Node13&#45;&gt;Node1 -->
<g id="edge88" class="edge"><title>Node13&#45;&gt;Node1</title>
<path fill="none" stroke="#9a32cd" stroke-dasharray="5,2" d="M404.807,-688.936C416.916,-678.85 432.926,-666.114 448,-656 510.625,-613.98 526.674,-602.689 596,-573 637.031,-555.428 1336.15,-371.882 1364,-337 1397.37,-295.204 1347.04,-137.479 1382,-97 1387.59,-90.5275 1394.78,-85.8957 1402.65,-82.616"/>
<polygon fill="#9a32cd" stroke="#9a32cd" points="402.494,-686.308 397.107,-695.431 407.007,-691.659 402.494,-686.308"/>
<text text-anchor="middle" x="965" y="-509" font-family="FreeSans" font-size="10.00"> defines_</text>
<text text-anchor="middle" x="965" y="-496" font-family="FreeSans" font-size="10.00">name_</text>
<text text-anchor="middle" x="965" y="-483" font-family="FreeSans" font-size="10.00">compilerOutput_</text>
</g>
<!-- Node13&#45;&gt;Node6 -->
<g id="edge80" class="edge"><title>Node13&#45;&gt;Node6</title>
<path fill="none" stroke="#9a32cd" stroke-dasharray="5,2" d="M439.196,-718.816C588.425,-753.36 1018.4,-847.891 1382,-879 1460.82,-885.744 1481.65,-889.973 1560,-879 1617.68,-870.922 1646.2,-885.517 1686,-843 1729.79,-796.221 1749.97,-583.561 1754.16,-533.552"/>
<polygon fill="#9a32cd" stroke="#9a32cd" points="439.891,-715.384 429.359,-716.531 438.308,-722.203 439.891,-715.384"/>
<text text-anchor="middle" x="1075" y="-917" font-family="FreeSans" font-size="10.00"> lastShaderName_</text>
<text text-anchor="middle" x="1075" y="-904" font-family="FreeSans" font-size="10.00">windowTitle_</text>
<text text-anchor="middle" x="1075" y="-891" font-family="FreeSans" font-size="10.00">apiName_</text>
<text text-anchor="middle" x="1075" y="-878" font-family="FreeSans" font-size="10.00">shaderPath_</text>
<text text-anchor="middle" x="1075" y="-865" font-family="FreeSans" font-size="10.00">orientations_</text>
<text text-anchor="middle" x="1075" y="-852" font-family="FreeSans" font-size="10.00">shaderExtension_</text>
</g>
<!-- Node13&#45;&gt;Node12 -->
<g id="edge30" class="edge"><title>Node13&#45;&gt;Node12</title>
<path fill="none" stroke="#9a32cd" stroke-dasharray="5,2" d="M414.188,-691.134C424.604,-686.468 436.588,-681.808 448,-679 517.531,-661.89 600.539,-658.355 653.017,-658.11"/>
<polygon fill="#9a32cd" stroke="#9a32cd" points="412.705,-687.963 405.125,-695.366 415.667,-694.306 412.705,-687.963"/>
<text text-anchor="middle" x="513" y="-683" font-family="FreeSans" font-size="10.00"> name_</text>
</g>
<!-- Node13&#45;&gt;Node13 -->
<g id="edge32" class="edge"><title>Node13&#45;&gt;Node13</title>
<path fill="none" stroke="#9a32cd" stroke-dasharray="5,2" d="M373.279,-726.793C374.314,-731.529 378.221,-735 385,-735 396.125,-735 399.515,-725.653 395.169,-716.708"/>
<polygon fill="#9a32cd" stroke="#9a32cd" points="376.77,-727.124 374.831,-716.708 369.851,-726.059 376.77,-727.124"/>
<text text-anchor="middle" x="385" y="-739" font-family="FreeSans" font-size="10.00"> EMPTY</text>
</g>
<!-- Node13&#45;&gt;Node21 -->
<g id="edge62" class="edge"><title>Node13&#45;&gt;Node21</title>
<path fill="none" stroke="#9a32cd" stroke-dasharray="5,2" d="M407.243,-722.63C418.974,-730.929 433.838,-740.722 448,-748 763.481,-910.125 856.3,-982 1211,-982 1211,-982 1211,-982 2224,-982 2329.3,-982 2373.8,-816.557 2383.76,-772.611"/>
<polygon fill="#9a32cd" stroke="#9a32cd" points="409.102,-719.656 398.945,-716.641 405.006,-725.332 409.102,-719.656"/>
<text text-anchor="middle" x="1471" y="-986" font-family="FreeSans" font-size="10.00"> linkerOutput_</text>
</g>
<!-- Node13&#45;&gt;Node24 -->
<g id="edge76" class="edge"><title>Node13&#45;&gt;Node24</title>
<path fill="none" stroke="#9a32cd" stroke-dasharray="5,2" d="M439.228,-706.022C521.002,-705.282 680.514,-700.828 814,-679 853.047,-672.615 862.454,-668.48 900,-656 913.61,-651.476 928.483,-645.599 940.563,-640.577"/>
<polygon fill="#9a32cd" stroke="#9a32cd" points="439.144,-702.522 429.171,-706.097 439.197,-709.522 439.144,-702.522"/>
<text text-anchor="middle" x="705" y="-717" font-family="FreeSans" font-size="10.00"> vsSourceCode_</text>
<text text-anchor="middle" x="705" y="-704" font-family="FreeSans" font-size="10.00">psSourceCode_</text>
</g>
<!-- Node14&#45;&gt;Node6 -->
<g id="edge34" class="edge"><title>Node14&#45;&gt;Node6</title>
<path fill="none" stroke="#9a32cd" stroke-dasharray="5,2" d="M587.941,-938.93C833.492,-951.075 1602.87,-983.08 1686,-912 1745.56,-861.074 1753.77,-591.144 1754.84,-533.739"/>
<polygon fill="#9a32cd" stroke="#9a32cd" points="587.85,-935.421 577.688,-938.419 587.502,-942.412 587.85,-935.421"/>
<text text-anchor="middle" x="1075" y="-973" font-family="FreeSans" font-size="10.00"> depthStencil_</text>
<text text-anchor="middle" x="1075" y="-960" font-family="FreeSans" font-size="10.00">renderTargets_</text>
</g>
<!-- Node15 -->
<g id="node33" class="node"><title>Node15</title>
<a xlink:href="class_urho3_d_1_1_hash_map.html" target="_top" xlink:title="Urho3D::HashMap\&lt; unsigned,\l Urho3D::SharedPtr\&lt; Urho3D\l::ConstantBuffer \&gt; \&gt;">
<polygon fill="none" stroke="red" points="1390,-525.5 1390,-572.5 1552,-572.5 1552,-525.5 1390,-525.5"/>
<text text-anchor="start" x="1398" y="-559.5" font-family="FreeSans" font-size="10.00">Urho3D::HashMap&lt; unsigned,</text>
<text text-anchor="start" x="1398" y="-546.5" font-family="FreeSans" font-size="10.00"> Urho3D::SharedPtr&lt; Urho3D</text>
<text text-anchor="middle" x="1471" y="-533.5" font-family="FreeSans" font-size="10.00">::ConstantBuffer &gt; &gt;</text>
</a>
</g>
<!-- Node15&#45;&gt;Node6 -->
<g id="edge38" class="edge"><title>Node15&#45;&gt;Node6</title>
<path fill="none" stroke="#9a32cd" stroke-dasharray="5,2" d="M1562.21,-540.649C1609.28,-536.341 1664.91,-531.248 1704.29,-527.643"/>
<polygon fill="#9a32cd" stroke="#9a32cd" points="1561.64,-537.187 1552,-541.584 1562.28,-544.158 1561.64,-537.187"/>
<text text-anchor="middle" x="1632" y="-543" font-family="FreeSans" font-size="10.00"> constantBuffers_</text>
</g>
<!-- Node16 -->
<g id="node35" class="node"><title>Node16</title>
<a xlink:href="class_urho3_d_1_1_hash_map.html" target="_top" xlink:title="Urho3D::HashMap\&lt; int,\l Urho3D::SharedPtr\&lt; Urho3D\l::Texture2D \&gt; \&gt;">
<polygon fill="none" stroke="red" points="1392,-372.5 1392,-419.5 1550,-419.5 1550,-372.5 1392,-372.5"/>
<text text-anchor="start" x="1400" y="-406.5" font-family="FreeSans" font-size="10.00">Urho3D::HashMap&lt; int,</text>
<text text-anchor="start" x="1400" y="-393.5" font-family="FreeSans" font-size="10.00"> Urho3D::SharedPtr&lt; Urho3D</text>
<text text-anchor="middle" x="1471" y="-380.5" font-family="FreeSans" font-size="10.00">::Texture2D &gt; &gt;</text>
</a>
</g>
<!-- Node16&#45;&gt;Node6 -->
<g id="edge40" class="edge"><title>Node16&#45;&gt;Node6</title>
<path fill="none" stroke="#9a32cd" stroke-dasharray="5,2" d="M1560.29,-394.463C1601.13,-397.435 1648.64,-406.352 1686,-429 1719.41,-449.253 1741.66,-492.396 1750.59,-512.403"/>
<polygon fill="#9a32cd" stroke="#9a32cd" points="1560.25,-390.955 1550.05,-393.831 1559.82,-397.941 1560.25,-390.955"/>
<text text-anchor="middle" x="1632" y="-433" font-family="FreeSans" font-size="10.00"> depthTextures_</text>
</g>
<!-- Node17&#45;&gt;Node6 -->
<g id="edge42" class="edge"><title>Node17&#45;&gt;Node6</title>
<path fill="none" stroke="#9a32cd" stroke-dasharray="5,2" d="M2359.78,-155.915C2254.06,-220.087 1860.54,-458.938 1772.54,-512.357"/>
<polygon fill="#9a32cd" stroke="#9a32cd" points="2361.82,-158.773 2368.55,-150.592 2358.19,-152.789 2361.82,-158.773"/>
<text text-anchor="middle" x="2089" y="-359" font-family="FreeSans" font-size="10.00"> currentConstantBuffers_</text>
</g>
<!-- Node18 -->
<g id="node41" class="node"><title>Node18</title>
<a xlink:href="class_urho3_d_1_1_hash_map.html" target="_top" xlink:title="Urho3D::HashMap\&lt; Urho3D\l::String, TextureUnit \&gt;">
<polygon fill="none" stroke="red" points="1395,-320 1395,-354 1547,-354 1547,-320 1395,-320"/>
<text text-anchor="start" x="1403" y="-341" font-family="FreeSans" font-size="10.00">Urho3D::HashMap&lt; Urho3D</text>
<text text-anchor="middle" x="1471" y="-328" font-family="FreeSans" font-size="10.00">::String, TextureUnit &gt;</text>
</a>
</g>
<!-- Node18&#45;&gt;Node6 -->
<g id="edge48" class="edge"><title>Node18&#45;&gt;Node6</title>
<path fill="none" stroke="#9a32cd" stroke-dasharray="5,2" d="M1557.14,-336.247C1599.73,-339.953 1649.66,-350.885 1686,-379 1730.95,-413.773 1748.16,-485.195 1753.23,-512.272"/>
<polygon fill="#9a32cd" stroke="#9a32cd" points="1557.28,-332.747 1547.05,-335.489 1556.76,-339.728 1557.28,-332.747"/>
<text text-anchor="middle" x="1632" y="-383" font-family="FreeSans" font-size="10.00"> textureUnits_</text>
</g>
<!-- Node19 -->
<g id="node43" class="node"><title>Node19</title>
<a xlink:href="class_urho3_d_1_1_hash_map.html" target="_top" xlink:title="Urho3D::HashMap\&lt; Pair\l\&lt; ShaderVariation *,\l ShaderVariation * \&gt;,\l SharedPtr\&lt; ShaderProgram \&gt; \&gt;">
<polygon fill="none" stroke="red" points="1382.5,-242 1382.5,-302 1559.5,-302 1559.5,-242 1382.5,-242"/>
<text text-anchor="start" x="1390.5" y="-289" font-family="FreeSans" font-size="10.00">Urho3D::HashMap&lt; Pair</text>
<text text-anchor="start" x="1390.5" y="-276" font-family="FreeSans" font-size="10.00">&lt; ShaderVariation *,</text>
<text text-anchor="start" x="1390.5" y="-263" font-family="FreeSans" font-size="10.00"> ShaderVariation * &gt;,</text>
<text text-anchor="middle" x="1471" y="-250" font-family="FreeSans" font-size="10.00"> SharedPtr&lt; ShaderProgram &gt; &gt;</text>
</a>
</g>
<!-- Node19&#45;&gt;Node6 -->
<g id="edge50" class="edge"><title>Node19&#45;&gt;Node6</title>
<path fill="none" stroke="#9a32cd" stroke-dasharray="5,2" d="M1569.81,-274.577C1610.11,-280.4 1654.53,-293.593 1686,-322 1715.71,-348.824 1744.63,-474.596 1752.75,-512.294"/>
<polygon fill="#9a32cd" stroke="#9a32cd" points="1570.03,-271.076 1559.66,-273.251 1569.12,-278.017 1570.03,-271.076"/>
<text text-anchor="middle" x="1632" y="-326" font-family="FreeSans" font-size="10.00"> shaderPrograms_</text>
</g>
<!-- Node20 -->
<g id="node45" class="node"><title>Node20</title>
<a xlink:href="class_urho3_d_1_1_vector2.html" target="_top" xlink:title="Two&#45;dimensional vector.">
<polygon fill="none" stroke="black" points="1423,-106.5 1423,-127.5 1519,-127.5 1519,-106.5 1423,-106.5"/>
<text text-anchor="middle" x="1471" y="-114.5" font-family="FreeSans" font-size="10.00">Urho3D::Vector2</text>
</a>
</g>
<!-- Node20&#45;&gt;Node6 -->
<g id="edge52" class="edge"><title>Node20&#45;&gt;Node6</title>
<path fill="none" stroke="#9a32cd" stroke-dasharray="5,2" d="M1507.91,-131.566C1556.28,-152.572 1640.3,-196.01 1686,-260 1716.39,-302.542 1745.85,-468.356 1753.23,-512.276"/>
<polygon fill="#9a32cd" stroke="#9a32cd" points="1509.02,-128.234 1498.45,-127.545 1506.28,-134.677 1509.02,-128.234"/>
<text text-anchor="middle" x="1632" y="-264" font-family="FreeSans" font-size="10.00"> pixelUVOffset</text>
</g>
<!-- Node20&#45;&gt;Node20 -->
<g id="edge54" class="edge"><title>Node20&#45;&gt;Node20</title>
<path fill="none" stroke="#9a32cd" stroke-dasharray="5,2" d="M1445.43,-137.055C1447.11,-142.164 1455.63,-146 1471,-146 1494.99,-146 1502.3,-136.653 1492.93,-127.708"/>
<polygon fill="#9a32cd" stroke="#9a32cd" points="1448.71,-138.296 1449.07,-127.708 1442.18,-135.756 1448.71,-138.296"/>
<text text-anchor="middle" x="1471" y="-215" font-family="FreeSans" font-size="10.00"> ONE</text>
<text text-anchor="middle" x="1471" y="-202" font-family="FreeSans" font-size="10.00">DOWN</text>
<text text-anchor="middle" x="1471" y="-189" font-family="FreeSans" font-size="10.00">RIGHT</text>
<text text-anchor="middle" x="1471" y="-176" font-family="FreeSans" font-size="10.00">LEFT</text>
<text text-anchor="middle" x="1471" y="-163" font-family="FreeSans" font-size="10.00">ZERO</text>
<text text-anchor="middle" x="1471" y="-150" font-family="FreeSans" font-size="10.00">UP</text>
</g>
<!-- Node21&#45;&gt;Node6 -->
<g id="edge56" class="edge"><title>Node21&#45;&gt;Node6</title>
<path fill="none" stroke="#9a32cd" stroke-dasharray="5,2" d="M2348.55,-747.815C2233.09,-704.084 1884.32,-571.982 1782.93,-533.578"/>
<polygon fill="#9a32cd" stroke="#9a32cd" points="2347.45,-751.14 2358.04,-751.409 2349.93,-744.594 2347.45,-751.14"/>
<text text-anchor="middle" x="2089" y="-676" font-family="FreeSans" font-size="10.00"> shaderProgram_</text>
</g>
<!-- Node22 -->
<g id="node53" class="node"><title>Node22</title>
<a xlink:href="class_urho3_d_1_1_vector4.html" target="_top" xlink:title="Four&#45;dimensional vector.">
<polygon fill="none" stroke="black" points="1423,-804.5 1423,-825.5 1519,-825.5 1519,-804.5 1423,-804.5"/>
<text text-anchor="middle" x="1471" y="-812.5" font-family="FreeSans" font-size="10.00">Urho3D::Vector4</text>
</a>
</g>
<!-- Node22&#45;&gt;Node6 -->
<g id="edge64" class="edge"><title>Node22&#45;&gt;Node6</title>
<path fill="none" stroke="#9a32cd" stroke-dasharray="5,2" d="M1529.21,-824.739C1577,-829.251 1643.51,-827.031 1686,-790 1726.15,-755.006 1748.63,-579.148 1753.83,-533.722"/>
<polygon fill="#9a32cd" stroke="#9a32cd" points="1529.32,-821.231 1519.01,-823.648 1528.58,-828.192 1529.32,-821.231"/>
<text text-anchor="middle" x="1632" y="-830" font-family="FreeSans" font-size="10.00"> clipPlane_</text>
</g>
<!-- Node22&#45;&gt;Node22 -->
<g id="edge66" class="edge"><title>Node22&#45;&gt;Node22</title>
<path fill="none" stroke="#9a32cd" stroke-dasharray="5,2" d="M1445.43,-835.055C1447.11,-840.164 1455.63,-844 1471,-844 1494.99,-844 1502.3,-834.653 1492.93,-825.708"/>
<polygon fill="#9a32cd" stroke="#9a32cd" points="1448.71,-836.296 1449.07,-825.708 1442.18,-833.756 1448.71,-836.296"/>
<text text-anchor="middle" x="1471" y="-861" font-family="FreeSans" font-size="10.00"> ONE</text>
<text text-anchor="middle" x="1471" y="-848" font-family="FreeSans" font-size="10.00">ZERO</text>
</g>
<!-- Node23&#45;&gt;Node1 -->
<g id="edge86" class="edge"><title>Node23&#45;&gt;Node1</title>
<path fill="none" stroke="#9a32cd" stroke-dasharray="5,2" d="M1294.06,-429.259C1320.58,-420.327 1347.34,-405.993 1364,-383 1401.37,-331.437 1340.67,-145.447 1382,-97 1387.55,-90.494 1394.72,-85.8429 1402.58,-82.5535"/>
<polygon fill="#9a32cd" stroke="#9a32cd" points="1292.82,-425.981 1284.33,-432.312 1294.92,-432.66 1292.82,-425.981"/>
<text text-anchor="middle" x="1333" y="-429" font-family="FreeSans" font-size="10.00"> owner_</text>
</g>
<!-- Node23&#45;&gt;Node6 -->
<g id="edge68" class="edge"><title>Node23&#45;&gt;Node6</title>
<path fill="none" stroke="#9a32cd" stroke-dasharray="5,2" d="M1294.29,-446.231C1410.63,-450.132 1615.44,-460.078 1686,-483 1706.41,-489.631 1727.4,-502.896 1740.79,-512.331"/>
<polygon fill="#9a32cd" stroke="#9a32cd" points="1294.12,-442.723 1284.01,-445.894 1293.89,-449.719 1294.12,-442.723"/>
<text text-anchor="middle" x="1471" y="-466" font-family="FreeSans" font-size="10.00"> lastShader_</text>
</g>
<!-- Node24&#45;&gt;Node23 -->
<g id="edge70" class="edge"><title>Node24&#45;&gt;Node23</title>
<path fill="none" stroke="#9a32cd" stroke-dasharray="5,2" d="M987.142,-613.258C1033.72,-578.043 1141.39,-496.632 1188.38,-461.103"/>
<polygon fill="#9a32cd" stroke="#9a32cd" points="984.797,-610.644 978.931,-619.467 989.018,-616.228 984.797,-610.644"/>
<text text-anchor="middle" x="1075" y="-584" font-family="FreeSans" font-size="10.00"> ptr_</text>
</g>
<!-- Node25 -->
<g id="node61" class="node"><title>Node25</title>
<a xlink:href="class_urho3_d_1_1_hash_map.html" target="_top" xlink:title="Urho3D::HashMap\&lt; Urho3D\l::StringHash, Urho3D::\lSharedPtr\&lt; Urho3D::ShaderVariation \&gt; \&gt;">
<polygon fill="none" stroke="red" points="596,-582.5 596,-629.5 814,-629.5 814,-582.5 596,-582.5"/>
<text text-anchor="start" x="604" y="-616.5" font-family="FreeSans" font-size="10.00">Urho3D::HashMap&lt; Urho3D</text>
<text text-anchor="start" x="604" y="-603.5" font-family="FreeSans" font-size="10.00">::StringHash, Urho3D::</text>
<text text-anchor="middle" x="705" y="-590.5" font-family="FreeSans" font-size="10.00">SharedPtr&lt; Urho3D::ShaderVariation &gt; &gt;</text>
</a>
</g>
<!-- Node25&#45;&gt;Node24 -->
<g id="edge74" class="edge"><title>Node25&#45;&gt;Node24</title>
<path fill="none" stroke="#9a32cd" stroke-dasharray="5,2" d="M824.474,-606.132C849.518,-607.321 875.697,-609.43 900,-613 910.04,-614.475 920.763,-616.911 930.546,-619.484"/>
<polygon fill="#9a32cd" stroke="#9a32cd" points="824.336,-602.623 814.195,-605.691 824.036,-609.616 824.336,-602.623"/>
<text text-anchor="middle" x="866" y="-630" font-family="FreeSans" font-size="10.00"> vsVariations_</text>
<text text-anchor="middle" x="866" y="-617" font-family="FreeSans" font-size="10.00">psVariations_</text>
</g>
</g>
</svg>
        <g id="navigator" transform="translate(0 0)" fill="#404254">
                <rect fill="#f2f5e9" fill-opacity="0.5" stroke="#606060" stroke-width=".5" x="0" y="0" width="60" height="60"/>
                <use id="zoomplus" xlink:href="#zoomPlus" x="17" y="9" onmousedown="handleZoom(evt,'in')"/>
                <use id="zoomminus" xlink:href="#zoomMin" x="42" y="9" onmousedown="handleZoom(evt,'out')"/>
                <use id="reset" xlink:href="#resetDef" x="30" y="36" onmousedown="handleReset()"/>
                <g id="arrowUp" xlink:href="#dirArrow" transform="translate(30 24)" onmousedown="handlePan(0,-1)">
                  <use xlink:href="#rim" fill="#404040">
                        <set attributeName="fill" to="#808080" begin="arrowUp.mouseover" end="arrowUp.mouseout"/>
                  </use>
                  <path fill="none" stroke="white" stroke-width="1.5" d="M0,-3.0v7 M-2.5,-0.5L0,-3.0L2.5,-0.5"/>
                </g>
                <g id="arrowRight" xlink:href="#dirArrow" transform="rotate(90) translate(36 -43)" onmousedown="handlePan(1,0)">
                  <use xlink:href="#rim" fill="#404040">
                        <set attributeName="fill" to="#808080" begin="arrowRight.mouseover" end="arrowRight.mouseout"/>
                  </use>
                  <path fill="none" stroke="white" stroke-width="1.5" d="M0,-3.0v7 M-2.5,-0.5L0,-3.0L2.5,-0.5"/>
                </g>
                <g id="arrowDown" xlink:href="#dirArrow" transform="rotate(180) translate(-30 -48)" onmousedown="handlePan(0,1)">
                  <use xlink:href="#rim" fill="#404040">
                        <set attributeName="fill" to="#808080" begin="arrowDown.mouseover" end="arrowDown.mouseout"/>
                  </use>
                  <path fill="none" stroke="white" stroke-width="1.5" d="M0,-3.0v7 M-2.5,-0.5L0,-3.0L2.5,-0.5"/>
                </g>
                <g id="arrowLeft" xlink:href="#dirArrow" transform="rotate(270) translate(-36 17)" onmousedown="handlePan(-1,0)">
                  <use xlink:href="#rim" fill="#404040">
                        <set attributeName="fill" to="#808080" begin="arrowLeft.mouseover" end="arrowLeft.mouseout"/>
                  </use>
                  <path fill="none" stroke="white" stroke-width="1.5" d="M0,-3.0v7 M-2.5,-0.5L0,-3.0L2.5,-0.5"/>
                </g>
        </g>
        <svg viewBox="0 0 15 15" width="100%" height="30px" preserveAspectRatio="xMaxYMin meet">
         <g id="arrow_out" transform="scale(0.3 0.3)">
          <a xlink:href="class_urho3_d_1_1_shader_variation__coll__graph_org.svg" target="_base">
           <rect id="button" ry="5" rx="5" y="6" x="6" height="38" width="38"
                fill="#f2f5e9" fill-opacity="0.5" stroke="#606060" stroke-width="1.0"/>
           <path id="arrow"
             d="M 11.500037,31.436501 C 11.940474,20.09759 22.043105,11.32322 32.158766,21.979434 L 37.068811,17.246167 C 37.068811,17.246167 37.088388,32 37.088388,32 L 22.160133,31.978069 C 22.160133,31.978069 26.997745,27.140456 26.997745,27.140456 C 18.528582,18.264221 13.291696,25.230495 11.500037,31.436501 z"
             style="fill:#404040;"/>
          </a>
         </g>
        </svg>
</svg>
