<?xml version="1.0" encoding="UTF-8" standalone="no"?>
<!DOCTYPE svg PUBLIC "-//W3C//DTD SVG 1.1//EN"
 "http://www.w3.org/Graphics/SVG/1.1/DTD/svg11.dtd">
<!-- Generated by graphviz version 2.26.3 (20100126.1600)
 -->
<!-- Title: Urho3D::FileSystem::GetProgramDir Pages: 1 -->
<!--zoomable 556 -->
<svg id="main" version="1.1" xmlns="http://www.w3.org/2000/svg" xmlns:xlink="http://www.w3.org/1999/xlink" xml:space="preserve" onload="init(evt)">
        <defs>
                <circle id="rim" cx="0" cy="0" r="7"/>
                <circle id="rim2" cx="0" cy="0" r="3.5"/>
                <g id="zoomPlus">
                        <use xlink:href="#rim" fill="#404040">
                                <set attributeName="fill" to="#808080" begin="zoomplus.mouseover" end="zoomplus.mouseout"/>
                        </use>
                        <path d="M-4,0h8M0,-4v8" fill="none" stroke="white" stroke-width="1.5" pointer-events="none"/>
                </g>
                <g id="zoomMin">
                        <use xlink:href="#rim" fill="#404040">
                                <set attributeName="fill" to="#808080" begin="zoomminus.mouseover" end="zoomminus.mouseout"/>
                        </use>
                        <path d="M-4,0h8" fill="none" stroke="white" stroke-width="1.5" pointer-events="none"/>
                </g>
                <g id="dirArrow">
                        <path fill="none" stroke="white" stroke-width="1.5" d="M0,-3.0v7 M-2.5,-0.5L0,-3.0L2.5,-0.5"/>
                </g>
               <g id="resetDef">
                       <use xlink:href="#rim2" fill="#404040">
                               <set attributeName="fill" to="#808080" begin="reset.mouseover" end="reset.mouseout"/>
                       </use>
               </g>
        </defs>

<script type="text/javascript">
var viewWidth = 922;
var viewHeight = 556;
var sectionId = 'dynsection-3';
</script>
<script xlink:href="svgpan.js"/>
<svg id="graph" class="graph">
<g id="viewport">
<title>Urho3D::FileSystem::GetProgramDir</title>
<!-- Node1 -->
<g id="node1" class="node"><title>Node1</title>
<polygon fill="#bfbfbf" stroke="black" points="0.5,-152.952 0.5,-186.952 111.5,-186.952 111.5,-152.952 0.5,-152.952"/>
<text text-anchor="start" x="8.5" y="-173.952" font-family="FreeSans" font-size="10.00">Urho3D::FileSystem</text>
<text text-anchor="middle" x="56" y="-160.952" font-family="FreeSans" font-size="10.00">::GetProgramDir</text>
</g>
<!-- Node2 -->
<g id="node3" class="node"><title>Node2</title>
<a xlink:href="class_urho3_d_1_1_resource_cache.html#acaf617b205d693cd493febfc01c330a8" target="_top" xlink:title="Remove unsupported constructs from the resource name to prevent ambiguity, and normalize absolute fil...">
<polygon fill="none" stroke="black" points="148,-152.952 148,-186.952 284,-186.952 284,-152.952 148,-152.952"/>
<text text-anchor="start" x="156" y="-173.952" font-family="FreeSans" font-size="10.00">Urho3D::ResourceCache</text>
<text text-anchor="middle" x="216" y="-160.952" font-family="FreeSans" font-size="10.00">::SanitateResourceName</text>
</a>
</g>
<!-- Node1&#45;&gt;Node2 -->
<g id="edge2" class="edge"><title>Node1&#45;&gt;Node2</title>
<path fill="none" stroke="midnightblue" d="M121.57,-169.952C130.253,-169.952 139.17,-169.952 147.894,-169.952"/>
<polygon fill="midnightblue" stroke="midnightblue" points="121.511,-166.452 111.511,-169.952 121.511,-173.452 121.511,-166.452"/>
</g>
<!-- Node3 -->
<g id="node5" class="node"><title>Node3</title>
<a xlink:href="class_urho3_d_1_1_resource_cache.html#a7a8fddc0e1561115c557850f6751f76b" target="_top" xlink:title="Open and return a file from the resource load paths or from inside a package file. If not found, use a fallback search with absolute path. Return null if fails. Can be called from outside the main thread.">
<polygon fill="none" stroke="black" points="326.5,-331.952 326.5,-365.952 459.5,-365.952 459.5,-331.952 326.5,-331.952"/>
<text text-anchor="start" x="334.5" y="-352.952" font-family="FreeSans" font-size="10.00">Urho3D::ResourceCache</text>
<text text-anchor="middle" x="393" y="-339.952" font-family="FreeSans" font-size="10.00">::GetFile</text>
</a>
</g>
<!-- Node2&#45;&gt;Node3 -->
<g id="edge4" class="edge"><title>Node2&#45;&gt;Node3</title>
<path fill="none" stroke="midnightblue" d="M240.238,-194.464C276.645,-231.283 344.534,-299.939 376.08,-331.841"/>
<polygon fill="midnightblue" stroke="midnightblue" points="242.492,-191.765 232.972,-187.115 237.514,-196.687 242.492,-191.765"/>
</g>
<!-- Node9 -->
<g id="node17" class="node"><title>Node9</title>
<a xlink:href="class_urho3_d_1_1_resource_cache.html#aa1657db0fcf2a1578bcb4bd5a00146ca" target="_top" xlink:title="Return a resource by type and name. Load if not loaded yet. Return null if not found or if fails...">
<polygon fill="none" stroke="red" points="535.5,-227.952 535.5,-261.952 668.5,-261.952 668.5,-227.952 535.5,-227.952"/>
<text text-anchor="start" x="543.5" y="-248.952" font-family="FreeSans" font-size="10.00">Urho3D::ResourceCache</text>
<text text-anchor="middle" x="602" y="-235.952" font-family="FreeSans" font-size="10.00">::GetResource</text>
</a>
</g>
<!-- Node2&#45;&gt;Node9 -->
<g id="edge46" class="edge"><title>Node2&#45;&gt;Node9</title>
<path fill="none" stroke="midnightblue" d="M293.996,-188.377C302.755,-190.319 311.56,-192.216 320,-193.952 393.464,-209.063 478.195,-224.062 535.448,-233.841"/>
<polygon fill="midnightblue" stroke="midnightblue" points="294.671,-184.941 284.148,-186.17 293.141,-191.772 294.671,-184.941"/>
</g>
<!-- Node18 -->
<g id="node36" class="node"><title>Node18</title>
<a xlink:href="class_urho3_d_1_1_resource_cache.html#a722ee073d9964dc6fae99041013d930b" target="_top" xlink:title="Load a resource without storing it in the resource cache. Return null if not found or if fails...">
<polygon fill="none" stroke="red" points="535.5,-175.952 535.5,-209.952 668.5,-209.952 668.5,-175.952 535.5,-175.952"/>
<text text-anchor="start" x="543.5" y="-196.952" font-family="FreeSans" font-size="10.00">Urho3D::ResourceCache</text>
<text text-anchor="middle" x="602" y="-183.952" font-family="FreeSans" font-size="10.00">::GetTempResource</text>
</a>
</g>
<!-- Node2&#45;&gt;Node18 -->
<g id="edge54" class="edge"><title>Node2&#45;&gt;Node18</title>
<path fill="none" stroke="midnightblue" d="M294.324,-174.619C365.122,-178.838 468.223,-184.981 535.206,-188.972"/>
<polygon fill="midnightblue" stroke="midnightblue" points="294.311,-171.112 284.121,-174.011 293.895,-178.1 294.311,-171.112"/>
</g>
<!-- Node20 -->
<g id="node40" class="node"><title>Node20</title>
<a xlink:href="class_urho3_d_1_1_resource_cache.html#ab4377ead37f45a842d478e8f7b2edb8b" target="_top" xlink:title="Return an already loaded resource of specific type &amp; name, or null if not found. Will not load if doe...">
<polygon fill="none" stroke="black" points="326.5,-130.952 326.5,-164.952 459.5,-164.952 459.5,-130.952 326.5,-130.952"/>
<text text-anchor="start" x="334.5" y="-151.952" font-family="FreeSans" font-size="10.00">Urho3D::ResourceCache</text>
<text text-anchor="middle" x="393" y="-138.952" font-family="FreeSans" font-size="10.00">::GetExistingResource</text>
</a>
</g>
<!-- Node2&#45;&gt;Node20 -->
<g id="edge40" class="edge"><title>Node2&#45;&gt;Node20</title>
<path fill="none" stroke="midnightblue" d="M294.33,-160.216C305.002,-158.89 315.873,-157.539 326.313,-156.241"/>
<polygon fill="midnightblue" stroke="midnightblue" points="293.672,-156.771 284.18,-161.478 294.535,-163.718 293.672,-156.771"/>
</g>
<!-- Node22 -->
<g id="node46" class="node"><title>Node22</title>
<a xlink:href="class_urho3_d_1_1_resource_cache.html#a0950ea474a10169ba383c15ca1d8ff56" target="_top" xlink:title="Background load a resource. An event will be sent when complete. Return true if successfully stored t...">
<polygon fill="none" stroke="red" points="320,-40.9522 320,-74.9522 466,-74.9522 466,-40.9522 320,-40.9522"/>
<text text-anchor="start" x="328" y="-61.9522" font-family="FreeSans" font-size="10.00">Urho3D::ResourceCache</text>
<text text-anchor="middle" x="393" y="-48.9522" font-family="FreeSans" font-size="10.00">::BackgroundLoadResource</text>
</a>
</g>
<!-- Node2&#45;&gt;Node22 -->
<g id="edge48" class="edge"><title>Node2&#45;&gt;Node22</title>
<path fill="none" stroke="midnightblue" d="M242.406,-146.242C262.639,-128.878 291.787,-105.545 320,-88.9522 328.664,-83.8566 338.323,-79.1464 347.704,-75.0161"/>
<polygon fill="midnightblue" stroke="midnightblue" points="240.097,-143.612 234.842,-152.812 244.687,-148.896 240.097,-143.612"/>
</g>
<!-- Node23 -->
<g id="node48" class="node"><title>Node23</title>
<a xlink:href="class_urho3_d_1_1_scene.html#ac16db4ab55b6efb9c21465cbe9783165" target="_top" xlink:title="Preload resources from a binary scene or object prefab file.">
<polygon fill="none" stroke="red" points="512,-46.4522 512,-67.4522 692,-67.4522 692,-46.4522 512,-46.4522"/>
<text text-anchor="middle" x="602" y="-54.4522" font-family="FreeSans" font-size="10.00">Urho3D::Scene::PreloadResources</text>
</a>
</g>
<!-- Node2&#45;&gt;Node23 -->
<g id="edge60" class="edge"><title>Node2&#45;&gt;Node23</title>
<path fill="none" stroke="midnightblue" d="M258.189,-148.405C276.819,-139.436 299.177,-129.401 320,-121.952 383.133,-99.3695 401.479,-102.197 466,-83.9522 482.099,-79.3997 485.701,-76.7272 502,-72.9522 510.65,-70.9488 519.779,-69.1131 528.86,-67.4571"/>
<polygon fill="midnightblue" stroke="midnightblue" points="256.545,-145.313 249.091,-152.842 259.614,-151.605 256.545,-145.313"/>
</g>
<!-- Node24 -->
<g id="node50" class="node"><title>Node24</title>
<a xlink:href="class_urho3_d_1_1_scene.html#a14fbb19b50ac6d7351a52a999bdb6077" target="_top" xlink:title="Preload resources from an XML scene or object prefab file.">
<polygon fill="none" stroke="red" points="502,-4.45221 502,-25.4522 702,-25.4522 702,-4.45221 502,-4.45221"/>
<text text-anchor="middle" x="602" y="-12.4522" font-family="FreeSans" font-size="10.00">Urho3D::Scene::PreloadResourcesXML</text>
</a>
</g>
<!-- Node2&#45;&gt;Node24 -->
<g id="edge62" class="edge"><title>Node2&#45;&gt;Node24</title>
<path fill="none" stroke="midnightblue" d="M227.507,-143.118C243.148,-110.379 274.485,-56.3813 320,-31.9522 388.389,4.7541 479.987,2.57552 539.966,-4.43993"/>
<polygon fill="midnightblue" stroke="midnightblue" points="224.172,-141.993 223.159,-152.539 230.527,-144.927 224.172,-141.993"/>
</g>
<!-- Node25 -->
<g id="node53" class="node"><title>Node25</title>
<a xlink:href="class_urho3_d_1_1_resource_cache.html#a94659e6c04c0bb9791019913b7866252" target="_top" xlink:title="Return whether a file exists by name.">
<polygon fill="none" stroke="red" points="326.5,-448.952 326.5,-482.952 459.5,-482.952 459.5,-448.952 326.5,-448.952"/>
<text text-anchor="start" x="334.5" y="-469.952" font-family="FreeSans" font-size="10.00">Urho3D::ResourceCache</text>
<text text-anchor="middle" x="393" y="-456.952" font-family="FreeSans" font-size="10.00">::Exists</text>
</a>
</g>
<!-- Node2&#45;&gt;Node25 -->
<g id="edge56" class="edge"><title>Node2&#45;&gt;Node25</title>
<path fill="none" stroke="midnightblue" d="M227.291,-196.393C244.831,-236.384 280.719,-314.043 320,-374.952 337.563,-402.186 361.688,-430.925 377.312,-448.649"/>
<polygon fill="midnightblue" stroke="midnightblue" points="230.435,-194.845 223.236,-187.071 224.015,-197.637 230.435,-194.845"/>
</g>
<!-- Node4 -->
<g id="node7" class="node"><title>Node4</title>
<a xlink:href="class_urho3_d_1_1_script_file.html#a907ea2dc2ef7b59cc6e5990ebc4d1a3a" target="_top" xlink:title="Add a script section, checking for includes recursively. Return true if successful.">
<polygon fill="none" stroke="red" points="549.5,-513.952 549.5,-547.952 654.5,-547.952 654.5,-513.952 549.5,-513.952"/>
<text text-anchor="start" x="557.5" y="-534.952" font-family="FreeSans" font-size="10.00">Urho3D::ScriptFile</text>
<text text-anchor="middle" x="602" y="-521.952" font-family="FreeSans" font-size="10.00">::AddScriptSection</text>
</a>
</g>
<!-- Node3&#45;&gt;Node4 -->
<g id="edge6" class="edge"><title>Node3&#45;&gt;Node4</title>
<path fill="none" stroke="midnightblue" d="M414.776,-373.715C429.962,-391.534 450.245,-416.47 466,-439.952 484.399,-467.376 475.905,-484.713 502,-504.952 515.537,-515.451 532.89,-521.735 549.329,-525.488"/>
<polygon fill="midnightblue" stroke="midnightblue" points="417.366,-371.359 408.192,-366.059 412.059,-375.923 417.366,-371.359"/>
</g>
<!-- Node5 -->
<g id="node9" class="node"><title>Node5</title>
<a xlink:href="class_urho3_d_1_1_shader.html#ad16e87dcdc5140bd769ef6aff6b0846d" target="_top" xlink:title="Process source code and include files. Return true if successful.">
<polygon fill="none" stroke="red" points="516.5,-422.452 516.5,-443.452 687.5,-443.452 687.5,-422.452 516.5,-422.452"/>
<text text-anchor="middle" x="602" y="-430.452" font-family="FreeSans" font-size="10.00">Urho3D::Shader::ProcessSource</text>
</a>
</g>
<!-- Node3&#45;&gt;Node5 -->
<g id="edge8" class="edge"><title>Node3&#45;&gt;Node5</title>
<path fill="none" stroke="midnightblue" d="M428.646,-371.208C449.426,-383.417 476.491,-398.042 502,-407.952 517.013,-413.785 533.829,-418.606 549.326,-422.406"/>
<polygon fill="midnightblue" stroke="midnightblue" points="430.241,-368.084 419.859,-365.969 426.657,-374.096 430.241,-368.084"/>
</g>
<!-- Node6 -->
<g id="node11" class="node"><title>Node6</title>
<a xlink:href="class_urho3_d_1_1_static_model.html#abacb48c866a3bf2f6ec386cb59461803" target="_top" xlink:title="Apply default materials from a material list file. If filename is empty (default), the model&#39;s resource name with extension .txt will be used.">
<polygon fill="none" stroke="black" points="768,-423.952 768,-457.952 884,-457.952 884,-423.952 768,-423.952"/>
<text text-anchor="start" x="776" y="-444.952" font-family="FreeSans" font-size="10.00">Urho3D::StaticModel</text>
<text text-anchor="middle" x="826" y="-431.952" font-family="FreeSans" font-size="10.00">::ApplyMaterialList</text>
</a>
</g>
<!-- Node3&#45;&gt;Node6 -->
<g id="edge10" class="edge"><title>Node3&#45;&gt;Node6</title>
<path fill="none" stroke="midnightblue" d="M469.644,-367.707C480.489,-370.222 491.513,-372.707 502,-374.952 590.473,-393.898 613.414,-394.541 702,-412.952 723.5,-417.421 747.019,-422.646 767.74,-427.364"/>
<polygon fill="midnightblue" stroke="midnightblue" points="470.291,-364.264 459.756,-365.393 468.696,-371.079 470.291,-364.264"/>
</g>
<!-- Node7 -->
<g id="node13" class="node"><title>Node7</title>
<a xlink:href="class_urho3_d_1_1_background_loader.html#a2dc53c2ec3012a81ff2e98017f433a87" target="_top" xlink:title="Resource background loading loop.">
<polygon fill="none" stroke="black" points="527.5,-331.952 527.5,-365.952 676.5,-365.952 676.5,-331.952 527.5,-331.952"/>
<text text-anchor="start" x="535.5" y="-352.952" font-family="FreeSans" font-size="10.00">Urho3D::BackgroundLoader</text>
<text text-anchor="middle" x="602" y="-339.952" font-family="FreeSans" font-size="10.00">::ThreadFunction</text>
</a>
</g>
<!-- Node3&#45;&gt;Node7 -->
<g id="edge12" class="edge"><title>Node3&#45;&gt;Node7</title>
<path fill="none" stroke="midnightblue" d="M469.947,-348.952C488.651,-348.952 508.623,-348.952 527.224,-348.952"/>
<polygon fill="midnightblue" stroke="midnightblue" points="469.704,-345.452 459.704,-348.952 469.704,-352.452 469.704,-345.452"/>
</g>
<!-- Node8 -->
<g id="node15" class="node"><title>Node8</title>
<a xlink:href="class_urho3_d_1_1_resource_cache.html#a95d38fca7d46be128efaa865acad0ec3" target="_top" xlink:title="Reload a resource. Return true on success. The resource will not be removed from the cache in case of...">
<polygon fill="none" stroke="red" points="535.5,-279.952 535.5,-313.952 668.5,-313.952 668.5,-279.952 535.5,-279.952"/>
<text text-anchor="start" x="543.5" y="-300.952" font-family="FreeSans" font-size="10.00">Urho3D::ResourceCache</text>
<text text-anchor="middle" x="602" y="-287.952" font-family="FreeSans" font-size="10.00">::ReloadResource</text>
</a>
</g>
<!-- Node3&#45;&gt;Node8 -->
<g id="edge14" class="edge"><title>Node3&#45;&gt;Node8</title>
<path fill="none" stroke="midnightblue" d="M469.468,-329.927C491.016,-324.565 514.28,-318.777 535.213,-313.569"/>
<polygon fill="midnightblue" stroke="midnightblue" points="468.563,-326.545 459.704,-332.356 470.253,-333.338 468.563,-326.545"/>
</g>
<!-- Node3&#45;&gt;Node9 -->
<g id="edge16" class="edge"><title>Node3&#45;&gt;Node9</title>
<path fill="none" stroke="midnightblue" d="M419.952,-325.346C441,-308.028 471.672,-285.146 502,-270.952 512.479,-266.048 524.026,-261.964 535.437,-258.599"/>
<polygon fill="midnightblue" stroke="midnightblue" points="417.525,-322.813 412.102,-331.915 422.018,-328.182 417.525,-322.813"/>
</g>
<!-- Node3&#45;&gt;Node18 -->
<g id="edge36" class="edge"><title>Node3&#45;&gt;Node18</title>
<path fill="none" stroke="midnightblue" d="M407.774,-323.099C426.076,-293.435 460.034,-245.48 502,-218.952 512.083,-212.578 523.676,-207.761 535.313,-204.123"/>
<polygon fill="midnightblue" stroke="midnightblue" points="404.77,-321.303 402.605,-331.674 410.765,-324.916 404.77,-321.303"/>
</g>
<!-- Node19 -->
<g id="node38" class="node"><title>Node19</title>
<a xlink:href="class_urho3_d_1_1_font_face_bitmap.html#a82613ac08041954ace848d20ae29cd2b" target="_top" xlink:title="Load font face.">
<polygon fill="none" stroke="black" points="533.5,-461.952 533.5,-495.952 670.5,-495.952 670.5,-461.952 533.5,-461.952"/>
<text text-anchor="start" x="541.5" y="-482.952" font-family="FreeSans" font-size="10.00">Urho3D::FontFaceBitmap</text>
<text text-anchor="middle" x="602" y="-469.952" font-family="FreeSans" font-size="10.00">::Load</text>
</a>
</g>
<!-- Node3&#45;&gt;Node19 -->
<g id="edge38" class="edge"><title>Node3&#45;&gt;Node19</title>
<path fill="none" stroke="midnightblue" d="M412.692,-374.016C432.699,-397.795 465.82,-432.803 502,-452.952 511.716,-458.364 522.592,-462.679 533.495,-466.112"/>
<polygon fill="midnightblue" stroke="midnightblue" points="415.241,-371.605 406.179,-366.116 409.84,-376.058 415.241,-371.605"/>
</g>
<!-- Node9&#45;&gt;Node6 -->
<g id="edge32" class="edge"><title>Node9&#45;&gt;Node6</title>
<path fill="none" stroke="midnightblue" d="M678.076,-255.236C686.967,-259.042 695.254,-264.142 702,-270.952 748.428,-317.818 692.349,-367.328 738,-414.952 746.047,-423.347 756.661,-429.069 767.723,-432.959"/>
<polygon fill="midnightblue" stroke="midnightblue" points="679.224,-251.929 668.632,-251.719 676.782,-258.489 679.224,-251.929"/>
</g>
<!-- Node10 -->
<g id="node19" class="node"><title>Node10</title>
<a xlink:href="class_urho3_d_1_1_script_instance.html#a41479323a4b184adb0cc5f869874ed0f" target="_top" xlink:title="Set script file attribute.">
<polygon fill="none" stroke="red" points="762,-71.9522 762,-105.952 890,-105.952 890,-71.9522 762,-71.9522"/>
<text text-anchor="start" x="770" y="-92.9522" font-family="FreeSans" font-size="10.00">Urho3D::ScriptInstance</text>
<text text-anchor="middle" x="826" y="-79.9522" font-family="FreeSans" font-size="10.00">::SetScriptFileAttr</text>
</a>
</g>
<!-- Node9&#45;&gt;Node10 -->
<g id="edge18" class="edge"><title>Node9&#45;&gt;Node10</title>
<path fill="none" stroke="midnightblue" d="M678.177,-233.825C686.911,-230.141 695.131,-225.3 702,-218.952 737.924,-185.756 702.628,-148.735 738,-114.952 744.797,-108.461 753.135,-103.58 761.943,-99.913"/>
<polygon fill="midnightblue" stroke="midnightblue" points="676.704,-230.637 668.536,-237.385 679.129,-237.204 676.704,-230.637"/>
</g>
<!-- Node11 -->
<g id="node21" class="node"><title>Node11</title>
<a xlink:href="class_urho3_d_1_1_sound_source.html#a1118ae914cf066d769551dac6df4c0d6" target="_top" xlink:title="Set sound attribute.">
<polygon fill="none" stroke="red" points="764,-371.952 764,-405.952 888,-405.952 888,-371.952 764,-371.952"/>
<text text-anchor="start" x="772" y="-392.952" font-family="FreeSans" font-size="10.00">Urho3D::SoundSource</text>
<text text-anchor="middle" x="826" y="-379.952" font-family="FreeSans" font-size="10.00">::SetSoundAttr</text>
</a>
</g>
<!-- Node9&#45;&gt;Node11 -->
<g id="edge20" class="edge"><title>Node9&#45;&gt;Node11</title>
<path fill="none" stroke="midnightblue" d="M678.125,-256.419C686.829,-260.05 695.055,-264.786 702,-270.952 734.833,-300.105 705.651,-333.263 738,-362.952 745.394,-369.738 754.479,-374.759 763.973,-378.472"/>
<polygon fill="midnightblue" stroke="midnightblue" points="679.123,-253.057 668.529,-252.897 676.71,-259.628 679.123,-253.057"/>
</g>
<!-- Node12 -->
<g id="node23" class="node"><title>Node12</title>
<a xlink:href="class_urho3_d_1_1_engine.html#ae686bb22644561e57a4aaef3f8665c0e" target="_top" xlink:title="Initialize engine using parameters given and show the application window. Return true if successful...">
<polygon fill="none" stroke="black" points="758,-332.452 758,-353.452 894,-353.452 894,-332.452 758,-332.452"/>
<text text-anchor="middle" x="826" y="-340.452" font-family="FreeSans" font-size="10.00">Urho3D::Engine::Initialize</text>
</a>
</g>
<!-- Node9&#45;&gt;Node12 -->
<g id="edge22" class="edge"><title>Node9&#45;&gt;Node12</title>
<path fill="none" stroke="midnightblue" d="M678.256,-258.577C686.67,-261.852 694.788,-265.914 702,-270.952 725.043,-287.051 714.711,-307.212 738,-322.952 743.971,-326.988 750.638,-330.219 757.557,-332.805"/>
<polygon fill="midnightblue" stroke="midnightblue" points="679.259,-255.219 668.665,-255.203 676.937,-261.823 679.259,-255.219"/>
</g>
<!-- Node13 -->
<g id="node25" class="node"><title>Node13</title>
<a xlink:href="class_urho3_d_1_1_animated_model.html#a4bcb1159367b1b112ba751b0b5747f59" target="_top" xlink:title="Set model attribute.">
<polygon fill="none" stroke="red" points="759,-279.952 759,-313.952 893,-313.952 893,-279.952 759,-279.952"/>
<text text-anchor="start" x="767" y="-300.952" font-family="FreeSans" font-size="10.00">Urho3D::AnimatedModel</text>
<text text-anchor="middle" x="826" y="-287.952" font-family="FreeSans" font-size="10.00">::SetModelAttr</text>
</a>
</g>
<!-- Node9&#45;&gt;Node13 -->
<g id="edge24" class="edge"><title>Node9&#45;&gt;Node13</title>
<path fill="none" stroke="midnightblue" d="M678.455,-262.701C704.569,-268.763 733.559,-275.493 758.882,-281.371"/>
<polygon fill="midnightblue" stroke="midnightblue" points="679.133,-259.265 668.601,-260.413 677.55,-266.084 679.133,-259.265"/>
</g>
<!-- Node14 -->
<g id="node27" class="node"><title>Node14</title>
<a xlink:href="class_urho3_d_1_1_animated_model.html#a707f22c736d77f2b7aab9d09a0da4da7" target="_top" xlink:title="Set animation states attribute.">
<polygon fill="none" stroke="red" points="757.5,-227.952 757.5,-261.952 894.5,-261.952 894.5,-227.952 757.5,-227.952"/>
<text text-anchor="start" x="765.5" y="-248.952" font-family="FreeSans" font-size="10.00">Urho3D::AnimatedModel</text>
<text text-anchor="middle" x="826" y="-235.952" font-family="FreeSans" font-size="10.00">::SetAnimationStatesAttr</text>
</a>
</g>
<!-- Node9&#45;&gt;Node14 -->
<g id="edge26" class="edge"><title>Node9&#45;&gt;Node14</title>
<path fill="none" stroke="midnightblue" d="M678.613,-244.952C704.152,-244.952 732.428,-244.952 757.326,-244.952"/>
<polygon fill="midnightblue" stroke="midnightblue" points="678.601,-241.452 668.601,-244.952 678.601,-248.452 678.601,-241.452"/>
</g>
<!-- Node15 -->
<g id="node29" class="node"><title>Node15</title>
<a xlink:href="class_urho3_d_1_1_animation_controller.html#a81023d409dc7bd2cc4df6904e118f4d2" target="_top" xlink:title="Set node animation states attribute.">
<polygon fill="none" stroke="red" points="744.5,-175.952 744.5,-209.952 907.5,-209.952 907.5,-175.952 744.5,-175.952"/>
<text text-anchor="start" x="752.5" y="-196.952" font-family="FreeSans" font-size="10.00">Urho3D::AnimationController</text>
<text text-anchor="middle" x="826" y="-183.952" font-family="FreeSans" font-size="10.00">::SetNodeAnimationStatesAttr</text>
</a>
</g>
<!-- Node9&#45;&gt;Node15 -->
<g id="edge28" class="edge"><title>Node9&#45;&gt;Node15</title>
<path fill="none" stroke="midnightblue" d="M678.371,-227.223C702.375,-221.651 728.816,-215.513 752.609,-209.989"/>
<polygon fill="midnightblue" stroke="midnightblue" points="677.55,-223.821 668.601,-229.491 679.133,-230.639 677.55,-223.821"/>
</g>
<!-- Node16 -->
<g id="node31" class="node"><title>Node16</title>
<a xlink:href="class_urho3_d_1_1_billboard_set.html#afd2c335de74fcd42cd3e6679e5968e4a" target="_top" xlink:title="Set material attribute.">
<polygon fill="none" stroke="red" points="767.5,-123.952 767.5,-157.952 884.5,-157.952 884.5,-123.952 767.5,-123.952"/>
<text text-anchor="start" x="775.5" y="-144.952" font-family="FreeSans" font-size="10.00">Urho3D::BillboardSet</text>
<text text-anchor="middle" x="826" y="-131.952" font-family="FreeSans" font-size="10.00">::SetMaterialAttr</text>
</a>
</g>
<!-- Node9&#45;&gt;Node16 -->
<g id="edge30" class="edge"><title>Node9&#45;&gt;Node16</title>
<path fill="none" stroke="midnightblue" d="M678.256,-231.328C686.67,-228.053 694.788,-223.991 702,-218.952 725.043,-202.854 715.225,-183.428 738,-166.952 746.648,-160.696 756.797,-155.934 767.069,-152.312"/>
<polygon fill="midnightblue" stroke="midnightblue" points="676.937,-228.082 668.665,-234.701 679.259,-234.685 676.937,-228.082"/>
</g>
<!-- Node17 -->
<g id="node34" class="node"><title>Node17</title>
<a xlink:href="class_urho3_d_1_1_view.html#a8853d06cedaef03a07c2f4a9af1ca827" target="_top" xlink:title="Get a named texture from the rendertarget list or from the resource cache, to be either used as a ren...">
<polygon fill="none" stroke="red" points="738.5,-32.4522 738.5,-53.4522 913.5,-53.4522 913.5,-32.4522 738.5,-32.4522"/>
<text text-anchor="middle" x="826" y="-40.4522" font-family="FreeSans" font-size="10.00">Urho3D::View::FindNamedTexture</text>
</a>
</g>
<!-- Node9&#45;&gt;Node17 -->
<g id="edge34" class="edge"><title>Node9&#45;&gt;Node17</title>
<path fill="none" stroke="midnightblue" d="M678.008,-234.863C686.95,-231.03 695.269,-225.871 702,-218.952 751.616,-167.949 687.602,-113.183 738,-62.9522 741.773,-59.1918 746.096,-56.0774 750.756,-53.5039"/>
<polygon fill="midnightblue" stroke="midnightblue" points="676.657,-231.631 668.503,-238.396 679.096,-238.192 676.657,-231.631"/>
</g>
<!-- Node20&#45;&gt;Node17 -->
<g id="edge42" class="edge"><title>Node20&#45;&gt;Node17</title>
<path fill="none" stroke="midnightblue" d="M455.185,-127.882C470.41,-123.313 486.722,-118.705 502,-114.952 589.867,-93.3686 615.028,-101.898 702,-76.9522 718.502,-72.219 721.585,-67.9793 738,-62.9522 749.385,-59.4654 761.766,-56.2862 773.549,-53.5393"/>
<polygon fill="midnightblue" stroke="midnightblue" points="453.907,-124.612 445.358,-130.87 455.943,-131.31 453.907,-124.612"/>
</g>
<!-- Node21 -->
<g id="node43" class="node"><title>Node21</title>
<a xlink:href="class_urho3_d_1_1_resource_cache.html#a2678be870a85f95eba12a03ce21b5556" target="_top" xlink:title="Template version of returning an existing resource by name.">
<polygon fill="none" stroke="black" points="535.5,-123.952 535.5,-157.952 668.5,-157.952 668.5,-123.952 535.5,-123.952"/>
<text text-anchor="start" x="543.5" y="-144.952" font-family="FreeSans" font-size="10.00">Urho3D::ResourceCache</text>
<text text-anchor="middle" x="602" y="-131.952" font-family="FreeSans" font-size="10.00">::GetExistingResource</text>
</a>
</g>
<!-- Node20&#45;&gt;Node21 -->
<g id="edge44" class="edge"><title>Node20&#45;&gt;Node21</title>
<path fill="none" stroke="midnightblue" d="M469.76,-145.381C491.225,-144.662 514.375,-143.887 535.213,-143.189"/>
<polygon fill="midnightblue" stroke="midnightblue" points="469.581,-141.885 459.704,-145.718 469.815,-148.881 469.581,-141.885"/>
</g>
<!-- Node22&#45;&gt;Node23 -->
<g id="edge50" class="edge"><title>Node22&#45;&gt;Node23</title>
<path fill="none" stroke="midnightblue" d="M476.225,-57.554C487.874,-57.4983 499.891,-57.4408 511.664,-57.3844"/>
<polygon fill="midnightblue" stroke="midnightblue" points="476.081,-54.0546 466.098,-57.6025 476.115,-61.0545 476.081,-54.0546"/>
</g>
<!-- Node22&#45;&gt;Node24 -->
<g id="edge52" class="edge"><title>Node22&#45;&gt;Node24</title>
<path fill="none" stroke="midnightblue" d="M476.069,-40.8614C501.378,-35.6543 528.44,-30.0866 550.965,-25.4523"/>
<polygon fill="midnightblue" stroke="midnightblue" points="475.188,-37.4694 466.098,-42.9129 476.598,-44.3258 475.188,-37.4694"/>
</g>
<!-- Node25&#45;&gt;Node4 -->
<g id="edge58" class="edge"><title>Node25&#45;&gt;Node4</title>
<path fill="none" stroke="midnightblue" d="M447.206,-486.423C464.596,-492.7 484.012,-499.408 502,-504.952 517.257,-509.655 533.992,-514.23 549.333,-518.198"/>
<polygon fill="midnightblue" stroke="midnightblue" points="448.369,-483.121 437.775,-482.99 445.974,-489.699 448.369,-483.121"/>
</g>
</g>
</svg>
        <g id="navigator" transform="translate(0 0)" fill="#404254">
                <rect fill="#f2f5e9" fill-opacity="0.5" stroke="#606060" stroke-width=".5" x="0" y="0" width="60" height="60"/>
                <use id="zoomplus" xlink:href="#zoomPlus" x="17" y="9" onmousedown="handleZoom(evt,'in')"/>
                <use id="zoomminus" xlink:href="#zoomMin" x="42" y="9" onmousedown="handleZoom(evt,'out')"/>
                <use id="reset" xlink:href="#resetDef" x="30" y="36" onmousedown="handleReset()"/>
                <g id="arrowUp" xlink:href="#dirArrow" transform="translate(30 24)" onmousedown="handlePan(0,-1)">
                  <use xlink:href="#rim" fill="#404040">
                        <set attributeName="fill" to="#808080" begin="arrowUp.mouseover" end="arrowUp.mouseout"/>
                  </use>
                  <path fill="none" stroke="white" stroke-width="1.5" d="M0,-3.0v7 M-2.5,-0.5L0,-3.0L2.5,-0.5"/>
                </g>
                <g id="arrowRight" xlink:href="#dirArrow" transform="rotate(90) translate(36 -43)" onmousedown="handlePan(1,0)">
                  <use xlink:href="#rim" fill="#404040">
                        <set attributeName="fill" to="#808080" begin="arrowRight.mouseover" end="arrowRight.mouseout"/>
                  </use>
                  <path fill="none" stroke="white" stroke-width="1.5" d="M0,-3.0v7 M-2.5,-0.5L0,-3.0L2.5,-0.5"/>
                </g>
                <g id="arrowDown" xlink:href="#dirArrow" transform="rotate(180) translate(-30 -48)" onmousedown="handlePan(0,1)">
                  <use xlink:href="#rim" fill="#404040">
                        <set attributeName="fill" to="#808080" begin="arrowDown.mouseover" end="arrowDown.mouseout"/>
                  </use>
                  <path fill="none" stroke="white" stroke-width="1.5" d="M0,-3.0v7 M-2.5,-0.5L0,-3.0L2.5,-0.5"/>
                </g>
                <g id="arrowLeft" xlink:href="#dirArrow" transform="rotate(270) translate(-36 17)" onmousedown="handlePan(-1,0)">
                  <use xlink:href="#rim" fill="#404040">
                        <set attributeName="fill" to="#808080" begin="arrowLeft.mouseover" end="arrowLeft.mouseout"/>
                  </use>
                  <path fill="none" stroke="white" stroke-width="1.5" d="M0,-3.0v7 M-2.5,-0.5L0,-3.0L2.5,-0.5"/>
                </g>
        </g>
        <svg viewBox="0 0 15 15" width="100%" height="30px" preserveAspectRatio="xMaxYMin meet">
         <g id="arrow_out" transform="scale(0.3 0.3)">
          <a xlink:href="class_urho3_d_1_1_file_system_a5d93365af462341ea8029827581854a6_icgraph_org.svg" target="_base">
           <rect id="button" ry="5" rx="5" y="6" x="6" height="38" width="38"
                fill="#f2f5e9" fill-opacity="0.5" stroke="#606060" stroke-width="1.0"/>
           <path id="arrow"
             d="M 11.500037,31.436501 C 11.940474,20.09759 22.043105,11.32322 32.158766,21.979434 L 37.068811,17.246167 C 37.068811,17.246167 37.088388,32 37.088388,32 L 22.160133,31.978069 C 22.160133,31.978069 26.997745,27.140456 26.997745,27.140456 C 18.528582,18.264221 13.291696,25.230495 11.500037,31.436501 z"
             style="fill:#404040;"/>
          </a>
         </g>
        </svg>
</svg>
