<?xml version="1.0" encoding="UTF-8" standalone="no"?>
<!DOCTYPE svg PUBLIC "-//W3C//DTD SVG 1.1//EN"
 "http://www.w3.org/Graphics/SVG/1.1/DTD/svg11.dtd">
<!-- Generated by graphviz version 2.26.3 (20100126.1600)
 -->
<!-- Title: Urho3D::CrowdManager Pages: 1 -->
<!--zoomable 1100 -->
<svg id="main" version="1.1" xmlns="http://www.w3.org/2000/svg" xmlns:xlink="http://www.w3.org/1999/xlink" xml:space="preserve" onload="init(evt)">
        <defs>
                <circle id="rim" cx="0" cy="0" r="7"/>
                <circle id="rim2" cx="0" cy="0" r="3.5"/>
                <g id="zoomPlus">
                        <use xlink:href="#rim" fill="#404040">
                                <set attributeName="fill" to="#808080" begin="zoomplus.mouseover" end="zoomplus.mouseout"/>
                        </use>
                        <path d="M-4,0h8M0,-4v8" fill="none" stroke="white" stroke-width="1.5" pointer-events="none"/>
                </g>
                <g id="zoomMin">
                        <use xlink:href="#rim" fill="#404040">
                                <set attributeName="fill" to="#808080" begin="zoomminus.mouseover" end="zoomminus.mouseout"/>
                        </use>
                        <path d="M-4,0h8" fill="none" stroke="white" stroke-width="1.5" pointer-events="none"/>
                </g>
                <g id="dirArrow">
                        <path fill="none" stroke="white" stroke-width="1.5" d="M0,-3.0v7 M-2.5,-0.5L0,-3.0L2.5,-0.5"/>
                </g>
               <g id="resetDef">
                       <use xlink:href="#rim2" fill="#404040">
                               <set attributeName="fill" to="#808080" begin="reset.mouseover" end="reset.mouseout"/>
                       </use>
               </g>
        </defs>

<script type="text/javascript">
var viewWidth = 1654;
var viewHeight = 1100;
var sectionId = 'dynsection-1';
</script>
<script xlink:href="svgpan.js"/>
<svg id="graph" class="graph">
<g id="viewport">
<title>Urho3D::CrowdManager</title>
<!-- Node1 -->
<g id="node1" class="node"><title>Node1</title>
<polygon fill="#bfbfbf" stroke="black" points="1514.5,-531.029 1514.5,-552.029 1645.5,-552.029 1645.5,-531.029 1514.5,-531.029"/>
<text text-anchor="middle" x="1580" y="-539.029" font-family="FreeSans" font-size="10.00">Urho3D::CrowdManager</text>
</g>
<!-- Node2 -->
<g id="node2" class="node"><title>Node2</title>
<a xlink:href="class_urho3_d_1_1_component.html" target="_top" xlink:title="Base class for components. Components can be created to scene nodes.">
<polygon fill="none" stroke="black" points="986,-531.029 986,-552.029 1102,-552.029 1102,-531.029 986,-531.029"/>
<text text-anchor="middle" x="1044" y="-539.029" font-family="FreeSans" font-size="10.00">Urho3D::Component</text>
</a>
</g>
<!-- Node2&#45;&gt;Node1 -->
<g id="edge2" class="edge"><title>Node2&#45;&gt;Node1</title>
<path fill="none" stroke="midnightblue" d="M1112.17,-541.529C1215.83,-541.529 1411.82,-541.529 1514.11,-541.529"/>
<polygon fill="midnightblue" stroke="midnightblue" points="1112.13,-538.029 1102.13,-541.529 1112.13,-545.029 1112.13,-538.029"/>
</g>
<!-- Node22 -->
<g id="node59" class="node"><title>Node22</title>
<a xlink:href="class_urho3_d_1_1_navigation_mesh.html" target="_top" xlink:title="Navigation mesh component. Collects the navigation geometry from child nodes with the Navigable compo...">
<polygon fill="none" stroke="black" points="1258,-298.029 1258,-319.029 1394,-319.029 1394,-298.029 1258,-298.029"/>
<text text-anchor="middle" x="1326" y="-306.029" font-family="FreeSans" font-size="10.00">Urho3D::NavigationMesh</text>
</a>
</g>
<!-- Node2&#45;&gt;Node22 -->
<g id="edge78" class="edge"><title>Node2&#45;&gt;Node22</title>
<path fill="none" stroke="midnightblue" d="M1064.87,-524.288C1120,-478.735 1268.37,-356.149 1313.07,-319.208"/>
<polygon fill="midnightblue" stroke="midnightblue" points="1062.33,-521.844 1056.85,-530.912 1066.79,-527.241 1062.33,-521.844"/>
</g>
<!-- Node3 -->
<g id="node4" class="node"><title>Node3</title>
<a xlink:href="class_urho3_d_1_1_animatable.html" target="_top" xlink:title="Base class for animatable object, an animatable object can be set animation on it&#39;s attributes...">
<polygon fill="none" stroke="black" points="425,-943.029 425,-964.029 539,-964.029 539,-943.029 425,-943.029"/>
<text text-anchor="middle" x="482" y="-951.029" font-family="FreeSans" font-size="10.00">Urho3D::Animatable</text>
</a>
</g>
<!-- Node3&#45;&gt;Node2 -->
<g id="edge4" class="edge"><title>Node3&#45;&gt;Node2</title>
<path fill="none" stroke="midnightblue" d="M524.706,-939.718C574.906,-922.37 659.537,-889.584 724,-846.529 864.727,-752.538 1000.43,-594.186 1035.36,-552.075"/>
<polygon fill="midnightblue" stroke="midnightblue" points="523.476,-936.439 515.141,-942.98 525.736,-943.065 523.476,-936.439"/>
</g>
<!-- Node8 -->
<g id="node14" class="node"><title>Node8</title>
<a xlink:href="class_urho3_d_1_1_node.html" target="_top" xlink:title="Scene node that may contain components and child nodes.">
<polygon fill="none" stroke="red" points="742.5,-531.029 742.5,-552.029 827.5,-552.029 827.5,-531.029 742.5,-531.029"/>
<text text-anchor="middle" x="785" y="-539.029" font-family="FreeSans" font-size="10.00">Urho3D::Node</text>
</a>
</g>
<!-- Node3&#45;&gt;Node8 -->
<g id="edge16" class="edge"><title>Node3&#45;&gt;Node8</title>
<path fill="none" stroke="midnightblue" d="M510.983,-937.662C533.026,-924.523 563.037,-904.215 584,-880.529 595.072,-868.018 588.685,-857.62 602,-847.529 646.337,-813.927 684.852,-859.055 724,-819.529 762.77,-780.385 780.283,-598.49 784.153,-552.245"/>
<polygon fill="midnightblue" stroke="midnightblue" points="508.959,-934.79 502.073,-942.843 512.477,-940.841 508.959,-934.79"/>
</g>
<!-- Node4 -->
<g id="node6" class="node"><title>Node4</title>
<a xlink:href="class_urho3_d_1_1_serializable.html" target="_top" xlink:title="Base class for objects with automatic serialization through attributes.">
<polygon fill="none" stroke="red" points="44,-1070.03 44,-1091.03 158,-1091.03 158,-1070.03 44,-1070.03"/>
<text text-anchor="middle" x="101" y="-1078.03" font-family="FreeSans" font-size="10.00">Urho3D::Serializable</text>
</a>
</g>
<!-- Node4&#45;&gt;Node3 -->
<g id="edge6" class="edge"><title>Node4&#45;&gt;Node3</title>
<path fill="none" stroke="midnightblue" d="M165.829,-1068.01C177.867,-1065.59 190.326,-1063.03 202,-1060.53 273.363,-1045.22 294.156,-1050.44 362,-1023.53 402.354,-1007.52 445.287,-979.417 467.221,-964.141"/>
<polygon fill="midnightblue" stroke="midnightblue" points="164.965,-1064.61 155.842,-1070 166.333,-1071.48 164.965,-1064.61"/>
</g>
<!-- Node5 -->
<g id="node8" class="node"><title>Node5</title>
<a xlink:href="class_urho3_d_1_1_hash_map.html" target="_top" xlink:title="Urho3D::HashMap\&lt; Urho3D\l::String, Urho3D::SharedPtr\l\&lt; Urho3D::AttributeAnimationInfo \&gt; \&gt;">
<polygon fill="none" stroke="red" points="0.5,-1004.03 0.5,-1051.03 201.5,-1051.03 201.5,-1004.03 0.5,-1004.03"/>
<text text-anchor="start" x="8.5" y="-1038.03" font-family="FreeSans" font-size="10.00">Urho3D::HashMap&lt; Urho3D</text>
<text text-anchor="start" x="8.5" y="-1025.03" font-family="FreeSans" font-size="10.00">::String, Urho3D::SharedPtr</text>
<text text-anchor="middle" x="101" y="-1012.03" font-family="FreeSans" font-size="10.00">&lt; Urho3D::AttributeAnimationInfo &gt; &gt;</text>
</a>
</g>
<!-- Node5&#45;&gt;Node3 -->
<g id="edge8" class="edge"><title>Node5&#45;&gt;Node3</title>
<path fill="none" stroke="#9a32cd" stroke-dasharray="5,2" d="M211.686,-1008.69C258.193,-1000.49 312.812,-990.487 362,-980.529 387.011,-975.466 414.82,-969.246 437.364,-964.053"/>
<polygon fill="#9a32cd" stroke="#9a32cd" points="210.828,-1005.28 201.584,-1010.46 212.039,-1012.18 210.828,-1005.28"/>
<text text-anchor="middle" x="291" y="-1010.53" font-family="FreeSans" font-size="10.00"> attributeAnimationInfos_</text>
</g>
<!-- Node6 -->
<g id="node10" class="node"><title>Node6</title>
<a xlink:href="class_urho3_d_1_1_shared_ptr.html" target="_top" xlink:title="Urho3D::SharedPtr\&lt;\l Urho3D::ObjectAnimation \&gt;">
<polygon fill="none" stroke="red" points="24.5,-951.529 24.5,-985.529 177.5,-985.529 177.5,-951.529 24.5,-951.529"/>
<text text-anchor="start" x="32.5" y="-972.529" font-family="FreeSans" font-size="10.00">Urho3D::SharedPtr&lt;</text>
<text text-anchor="middle" x="101" y="-959.529" font-family="FreeSans" font-size="10.00"> Urho3D::ObjectAnimation &gt;</text>
</a>
</g>
<!-- Node6&#45;&gt;Node3 -->
<g id="edge10" class="edge"><title>Node6&#45;&gt;Node3</title>
<path fill="none" stroke="#9a32cd" stroke-dasharray="5,2" d="M187.689,-965.116C260.297,-962.258 361.871,-958.259 424.716,-955.784"/>
<polygon fill="#9a32cd" stroke="#9a32cd" points="187.497,-961.621 177.643,-965.512 187.773,-968.615 187.497,-961.621"/>
<text text-anchor="middle" x="291" y="-967.529" font-family="FreeSans" font-size="10.00"> objectAnimation_</text>
</g>
<!-- Node7 -->
<g id="node12" class="node"><title>Node7</title>
<a xlink:href="class_urho3_d_1_1_hash_set.html" target="_top" xlink:title="Urho3D::HashSet\&lt; const\l Urho3D::AttributeInfo * \&gt;">
<polygon fill="none" stroke="red" points="30.5,-899.529 30.5,-933.529 171.5,-933.529 171.5,-899.529 30.5,-899.529"/>
<text text-anchor="start" x="38.5" y="-920.529" font-family="FreeSans" font-size="10.00">Urho3D::HashSet&lt; const</text>
<text text-anchor="middle" x="101" y="-907.529" font-family="FreeSans" font-size="10.00"> Urho3D::AttributeInfo * &gt;</text>
</a>
</g>
<!-- Node7&#45;&gt;Node3 -->
<g id="edge12" class="edge"><title>Node7&#45;&gt;Node3</title>
<path fill="none" stroke="#9a32cd" stroke-dasharray="5,2" d="M181.736,-923.613C233.318,-928.223 301.619,-934.483 362,-940.529 382.538,-942.586 405.037,-944.984 424.947,-947.157"/>
<polygon fill="#9a32cd" stroke="#9a32cd" points="181.921,-920.116 171.649,-922.713 181.299,-927.088 181.921,-920.116"/>
<text text-anchor="middle" x="291" y="-944.529" font-family="FreeSans" font-size="10.00"> animatedNetworkAttributes_</text>
</g>
<!-- Node8&#45;&gt;Node2 -->
<g id="edge14" class="edge"><title>Node8&#45;&gt;Node2</title>
<path fill="none" stroke="#9a32cd" stroke-dasharray="5,2" d="M838.013,-541.529C880.943,-541.529 941.353,-541.529 985.653,-541.529"/>
<polygon fill="#9a32cd" stroke="#9a32cd" points="837.769,-538.029 827.769,-541.529 837.769,-545.029 837.769,-538.029"/>
<text text-anchor="middle" x="907" y="-545.529" font-family="FreeSans" font-size="10.00"> node_</text>
</g>
<!-- Node8&#45;&gt;Node8 -->
<g id="edge54" class="edge"><title>Node8&#45;&gt;Node8</title>
<path fill="none" stroke="#9a32cd" stroke-dasharray="5,2" d="M762.517,-561.956C764.251,-566.878 771.746,-570.529 785,-570.529 806.207,-570.529 812.669,-561.182 804.385,-552.237"/>
<polygon fill="#9a32cd" stroke="#9a32cd" points="765.912,-562.828 765.615,-552.237 759.243,-560.701 765.912,-562.828"/>
<text text-anchor="middle" x="785" y="-574.529" font-family="FreeSans" font-size="10.00"> parent_</text>
</g>
<!-- Node11 -->
<g id="node21" class="node"><title>Node11</title>
<a xlink:href="class_urho3_d_1_1_scene.html" target="_top" xlink:title="Root scene node, represents the whole scene.">
<polygon fill="none" stroke="red" points="999.5,-432.029 999.5,-453.029 1088.5,-453.029 1088.5,-432.029 999.5,-432.029"/>
<text text-anchor="middle" x="1044" y="-440.029" font-family="FreeSans" font-size="10.00">Urho3D::Scene</text>
</a>
</g>
<!-- Node8&#45;&gt;Node11 -->
<g id="edge24" class="edge"><title>Node8&#45;&gt;Node11</title>
<path fill="none" stroke="midnightblue" d="M837.665,-530.167C874.942,-521.197 925.633,-507.099 968,-488.529 990.46,-478.685 1014.34,-463.324 1029.21,-453.097"/>
<polygon fill="midnightblue" stroke="midnightblue" points="836.453,-526.857 827.525,-532.56 838.061,-533.669 836.453,-526.857"/>
</g>
<!-- Node9 -->
<g id="node17" class="node"><title>Node9</title>
<a xlink:href="class_urho3_d_1_1_p_o_d_vector.html" target="_top" xlink:title="Urho3D::PODVector\&lt;\l Urho3D::Node * \&gt;">
<polygon fill="none" stroke="black" points="422.5,-785.529 422.5,-819.529 541.5,-819.529 541.5,-785.529 422.5,-785.529"/>
<text text-anchor="start" x="430.5" y="-806.529" font-family="FreeSans" font-size="10.00">Urho3D::PODVector&lt;</text>
<text text-anchor="middle" x="482" y="-793.529" font-family="FreeSans" font-size="10.00"> Urho3D::Node * &gt;</text>
</a>
</g>
<!-- Node9&#45;&gt;Node8 -->
<g id="edge18" class="edge"><title>Node9&#45;&gt;Node8</title>
<path fill="none" stroke="#9a32cd" stroke-dasharray="5,2" d="M551.299,-787.437C562.39,-784.29 573.624,-780.654 584,-776.529 592.504,-773.149 593.494,-769.906 602,-766.529 653.997,-745.884 683.352,-773.969 724,-735.529 751.704,-709.329 776.084,-589.23 783.027,-552.339"/>
<polygon fill="#9a32cd" stroke="#9a32cd" points="550.342,-784.07 541.614,-790.077 552.183,-790.824 550.342,-784.07"/>
<text text-anchor="middle" x="663" y="-770.529" font-family="FreeSans" font-size="10.00"> dependencyNodes_</text>
</g>
<!-- Node10 -->
<g id="node19" class="node"><title>Node10</title>
<a xlink:href="class_urho3_d_1_1_vector_base.html" target="_top" xlink:title="Vector base class.">
<polygon fill="none" stroke="black" points="44,-792.029 44,-813.029 158,-813.029 158,-792.029 44,-792.029"/>
<text text-anchor="middle" x="101" y="-800.029" font-family="FreeSans" font-size="10.00">Urho3D::VectorBase</text>
</a>
</g>
<!-- Node10&#45;&gt;Node9 -->
<g id="edge20" class="edge"><title>Node10&#45;&gt;Node9</title>
<path fill="none" stroke="midnightblue" d="M168.356,-802.529C240.371,-802.529 353.472,-802.529 422.37,-802.529"/>
<polygon fill="midnightblue" stroke="midnightblue" points="168.04,-799.029 158.04,-802.529 168.04,-806.029 168.04,-799.029"/>
</g>
<!-- Node15 -->
<g id="node32" class="node"><title>Node15</title>
<a xlink:href="class_urho3_d_1_1_vector.html" target="_top" xlink:title="Urho3D::Vector\&lt; Urho3D\l::WeakPtr\&lt; Urho3D::Component \&gt; \&gt;">
<polygon fill="none" stroke="black" points="385,-733.529 385,-767.529 579,-767.529 579,-733.529 385,-733.529"/>
<text text-anchor="start" x="393" y="-754.529" font-family="FreeSans" font-size="10.00">Urho3D::Vector&lt; Urho3D</text>
<text text-anchor="middle" x="482" y="-741.529" font-family="FreeSans" font-size="10.00">::WeakPtr&lt; Urho3D::Component &gt; &gt;</text>
</a>
</g>
<!-- Node10&#45;&gt;Node15 -->
<g id="edge38" class="edge"><title>Node10&#45;&gt;Node15</title>
<path fill="none" stroke="midnightblue" d="M168.173,-793.361C228.278,-785.158 317.109,-773.034 384.936,-763.777"/>
<polygon fill="midnightblue" stroke="midnightblue" points="167.474,-789.924 158.04,-794.744 168.421,-796.86 167.474,-789.924"/>
</g>
<!-- Node17 -->
<g id="node37" class="node"><title>Node17</title>
<a xlink:href="class_urho3_d_1_1_vector.html" target="_top" xlink:title="Urho3D::Vector\&lt; Urho3D\l::SharedPtr\&lt; Urho3D::Component \&gt; \&gt;">
<polygon fill="none" stroke="black" points="380.5,-610.529 380.5,-644.529 583.5,-644.529 583.5,-610.529 380.5,-610.529"/>
<text text-anchor="start" x="388.5" y="-631.529" font-family="FreeSans" font-size="10.00">Urho3D::Vector&lt; Urho3D</text>
<text text-anchor="middle" x="482" y="-618.529" font-family="FreeSans" font-size="10.00">::SharedPtr&lt; Urho3D::Component &gt; &gt;</text>
</a>
</g>
<!-- Node10&#45;&gt;Node17 -->
<g id="edge44" class="edge"><title>Node10&#45;&gt;Node17</title>
<path fill="none" stroke="midnightblue" d="M126.024,-786.485C173.705,-756.533 281.609,-691.697 380,-653.529 388.434,-650.257 397.419,-647.279 406.428,-644.603"/>
<polygon fill="midnightblue" stroke="midnightblue" points="123.894,-783.691 117.311,-791.992 127.634,-789.608 123.894,-783.691"/>
</g>
<!-- Node20 -->
<g id="node49" class="node"><title>Node20</title>
<a xlink:href="class_urho3_d_1_1_vector.html" target="_top" xlink:title="Urho3D::Vector\&lt; Urho3D\l::SharedPtr\&lt; Urho3D::Node \&gt; \&gt;">
<polygon fill="none" stroke="black" points="395.5,-837.529 395.5,-871.529 568.5,-871.529 568.5,-837.529 395.5,-837.529"/>
<text text-anchor="start" x="403.5" y="-858.529" font-family="FreeSans" font-size="10.00">Urho3D::Vector&lt; Urho3D</text>
<text text-anchor="middle" x="482" y="-845.529" font-family="FreeSans" font-size="10.00">::SharedPtr&lt; Urho3D::Node &gt; &gt;</text>
</a>
</g>
<!-- Node10&#45;&gt;Node20 -->
<g id="edge62" class="edge"><title>Node10&#45;&gt;Node20</title>
<path fill="none" stroke="midnightblue" d="M168.289,-811.713C231.479,-820.337 326.347,-833.285 395.209,-842.684"/>
<polygon fill="midnightblue" stroke="midnightblue" points="168.421,-808.199 158.04,-810.314 167.474,-815.134 168.421,-808.199"/>
</g>
<!-- Node25 -->
<g id="node70" class="node"><title>Node25</title>
<a xlink:href="class_urho3_d_1_1_p_o_d_vector.html" target="_top" xlink:title="Urho3D::PODVector\&lt;\l unsigned \&gt;">
<polygon fill="none" stroke="black" points="1120.5,-804.529 1120.5,-838.529 1239.5,-838.529 1239.5,-804.529 1120.5,-804.529"/>
<text text-anchor="start" x="1128.5" y="-825.529" font-family="FreeSans" font-size="10.00">Urho3D::PODVector&lt;</text>
<text text-anchor="middle" x="1180" y="-812.529" font-family="FreeSans" font-size="10.00"> unsigned &gt;</text>
</a>
</g>
<!-- Node10&#45;&gt;Node25 -->
<g id="edge94" class="edge"><title>Node10&#45;&gt;Node25</title>
<path fill="none" stroke="midnightblue" d="M134.358,-817.024C199.737,-844.074 349.882,-899.529 482,-899.529 482,-899.529 482,-899.529 907,-899.529 994.987,-899.529 1093,-861.607 1144.28,-838.646"/>
<polygon fill="midnightblue" stroke="midnightblue" points="135.55,-813.729 124.974,-813.094 132.846,-820.185 135.55,-813.729"/>
</g>
<!-- Node11&#45;&gt;Node8 -->
<g id="edge22" class="edge"><title>Node11&#45;&gt;Node8</title>
<path fill="none" stroke="#9a32cd" stroke-dasharray="5,2" d="M989.06,-442.253C947.506,-444.203 890.244,-451.648 846,-475.529 821.423,-488.795 801.392,-515.777 791.566,-530.809"/>
<polygon fill="#9a32cd" stroke="#9a32cd" points="989.407,-445.743 999.269,-441.869 989.144,-438.748 989.407,-445.743"/>
<text text-anchor="middle" x="907" y="-479.529" font-family="FreeSans" font-size="10.00"> scene_</text>
</g>
<!-- Node12 -->
<g id="node24" class="node"><title>Node12</title>
<a xlink:href="class_urho3_d_1_1_hash_map.html" target="_top" xlink:title="Urho3D::HashMap\&lt; StringHash,\l Variant \&gt;">
<polygon fill="none" stroke="red" points="15,-336.529 15,-370.529 187,-370.529 187,-336.529 15,-336.529"/>
<text text-anchor="start" x="23" y="-357.529" font-family="FreeSans" font-size="10.00">Urho3D::HashMap&lt; StringHash,</text>
<text text-anchor="middle" x="101" y="-344.529" font-family="FreeSans" font-size="10.00"> Variant &gt;</text>
</a>
</g>
<!-- Node12&#45;&gt;Node8 -->
<g id="edge50" class="edge"><title>Node12&#45;&gt;Node8</title>
<path fill="none" stroke="#9a32cd" stroke-dasharray="5,2" d="M197.358,-364.983C246.965,-371.899 308.174,-382.017 362,-395.529 441.118,-415.39 675.075,-500.912 756.599,-531.005"/>
<polygon fill="#9a32cd" stroke="#9a32cd" points="197.659,-361.492 187.276,-363.6 196.707,-368.427 197.659,-361.492"/>
<text text-anchor="middle" x="482" y="-469.529" font-family="FreeSans" font-size="10.00"> vars_</text>
</g>
<!-- Node12&#45;&gt;Node11 -->
<g id="edge26" class="edge"><title>Node12&#45;&gt;Node11</title>
<path fill="none" stroke="#9a32cd" stroke-dasharray="5,2" d="M179.364,-333.137C187.152,-330.258 194.823,-327.059 202,-323.529 210.855,-319.174 210.61,-313.565 220,-310.529 271.44,-293.896 687.398,-297.494 828,-334.529 908.681,-355.781 994.449,-409.253 1028.64,-432.011"/>
<polygon fill="#9a32cd" stroke="#9a32cd" points="178.105,-329.869 169.833,-336.489 180.427,-336.473 178.105,-329.869"/>
<text text-anchor="middle" x="663" y="-320.529" font-family="FreeSans" font-size="10.00"> smoothingData_</text>
</g>
<!-- Node21 -->
<g id="node52" class="node"><title>Node21</title>
<a xlink:href="class_urho3_d_1_1_connection.html" target="_top" xlink:title="Connection to a remote network host.">
<polygon fill="none" stroke="red" points="425.5,-335.029 425.5,-356.029 538.5,-356.029 538.5,-335.029 425.5,-335.029"/>
<text text-anchor="middle" x="482" y="-343.029" font-family="FreeSans" font-size="10.00">Urho3D::Connection</text>
</a>
</g>
<!-- Node12&#45;&gt;Node21 -->
<g id="edge72" class="edge"><title>Node12&#45;&gt;Node21</title>
<path fill="none" stroke="#9a32cd" stroke-dasharray="5,2" d="M197.891,-351.495C269.842,-349.984 365.501,-347.975 425.41,-346.717"/>
<polygon fill="#9a32cd" stroke="#9a32cd" points="197.379,-348.004 187.455,-351.714 197.526,-355.003 197.379,-348.004"/>
<text text-anchor="middle" x="291" y="-354.529" font-family="FreeSans" font-size="10.00"> identity_</text>
</g>
<!-- Node13 -->
<g id="node26" class="node"><title>Node13</title>
<a xlink:href="class_urho3_d_1_1_string.html" target="_top" xlink:title="String class.">
<polygon fill="none" stroke="black" points="57,-482.029 57,-503.029 145,-503.029 145,-482.029 57,-482.029"/>
<text text-anchor="middle" x="101" y="-490.029" font-family="FreeSans" font-size="10.00">Urho3D::String</text>
</a>
</g>
<!-- Node13&#45;&gt;Node8 -->
<g id="edge52" class="edge"><title>Node13&#45;&gt;Node8</title>
<path fill="none" stroke="#9a32cd" stroke-dasharray="5,2" d="M138.631,-506.489C161.749,-514.334 192.172,-523.365 220,-527.529 260.002,-533.514 543.572,-530.302 584,-531.529 638.654,-533.188 701.603,-536.556 742.28,-538.923"/>
<polygon fill="#9a32cd" stroke="#9a32cd" points="139.475,-503.077 128.88,-503.103 137.179,-509.689 139.475,-503.077"/>
<text text-anchor="middle" x="482" y="-535.529" font-family="FreeSans" font-size="10.00"> name_</text>
</g>
<!-- Node13&#45;&gt;Node11 -->
<g id="edge28" class="edge"><title>Node13&#45;&gt;Node11</title>
<path fill="none" stroke="#9a32cd" stroke-dasharray="5,2" d="M155.005,-502.398C221.856,-513.312 330.722,-526.419 362,-502.529 386.163,-484.074 356.56,-455.894 380,-436.529 439.006,-387.781 647.512,-416.784 724,-419.529 822.384,-423.06 937.456,-432.679 999.272,-438.296"/>
<polygon fill="#9a32cd" stroke="#9a32cd" points="155.497,-498.932 145.058,-500.74 154.346,-505.837 155.497,-498.932"/>
<text text-anchor="middle" x="663" y="-423.529" font-family="FreeSans" font-size="10.00"> fileName_</text>
</g>
<!-- Node13&#45;&gt;Node13 -->
<g id="edge30" class="edge"><title>Node13&#45;&gt;Node13</title>
<path fill="none" stroke="#9a32cd" stroke-dasharray="5,2" d="M65.5287,-511.828C66.986,-517.31 78.8098,-521.529 101,-521.529 134.027,-521.529 144.09,-512.182 131.189,-503.237"/>
<polygon fill="#9a32cd" stroke="#9a32cd" points="68.5545,-513.589 70.8109,-503.237 62.5916,-509.922 68.5545,-513.589"/>
<text text-anchor="middle" x="101" y="-525.529" font-family="FreeSans" font-size="10.00"> EMPTY</text>
</g>
<!-- Node13&#45;&gt;Node21 -->
<g id="edge74" class="edge"><title>Node13&#45;&gt;Node21</title>
<path fill="none" stroke="#9a32cd" stroke-dasharray="5,2" d="M122.541,-475.731C145.54,-458.502 183.609,-431.965 220,-415.529 287.322,-385.122 308.561,-389.324 380,-370.529 398.867,-365.565 419.781,-360.384 437.736,-356.033"/>
<polygon fill="#9a32cd" stroke="#9a32cd" points="120.346,-473.003 114.499,-481.838 124.58,-478.578 120.346,-473.003"/>
<text text-anchor="middle" x="291" y="-432.529" font-family="FreeSans" font-size="10.00"> sceneFileName_</text>
<text text-anchor="middle" x="291" y="-419.529" font-family="FreeSans" font-size="10.00">address_</text>
</g>
<!-- Node13&#45;&gt;Node22 -->
<g id="edge90" class="edge"><title>Node13&#45;&gt;Node22</title>
<path fill="none" stroke="#9a32cd" stroke-dasharray="5,2" d="M155.045,-496.691C222.211,-500.658 331.697,-502.785 362,-477.529 388.001,-455.859 354.467,-425.749 380,-403.529 413.152,-374.678 1046.03,-328.071 1257.7,-313.228"/>
<polygon fill="#9a32cd" stroke="#9a32cd" points="155.25,-493.197 145.052,-496.069 154.815,-500.184 155.25,-493.197"/>
<text text-anchor="middle" x="785" y="-357.529" font-family="FreeSans" font-size="10.00"> meshName_</text>
</g>
<!-- Node14 -->
<g id="node29" class="node"><title>Node14</title>
<a xlink:href="class_urho3_d_1_1_quaternion.html" target="_top" xlink:title="Rotation represented as a four&#45;dimensional normalized vector.">
<polygon fill="none" stroke="black" points="44.5,-554.029 44.5,-575.029 157.5,-575.029 157.5,-554.029 44.5,-554.029"/>
<text text-anchor="middle" x="101" y="-562.029" font-family="FreeSans" font-size="10.00">Urho3D::Quaternion</text>
</a>
</g>
<!-- Node14&#45;&gt;Node8 -->
<g id="edge32" class="edge"><title>Node14&#45;&gt;Node8</title>
<path fill="none" stroke="#9a32cd" stroke-dasharray="5,2" d="M167.694,-562.286C307.314,-557.592 626.977,-546.843 742.423,-542.961"/>
<polygon fill="#9a32cd" stroke="#9a32cd" points="167.433,-558.793 157.557,-562.627 167.669,-565.789 167.433,-558.793"/>
<text text-anchor="middle" x="482" y="-571.529" font-family="FreeSans" font-size="10.00"> worldRotation_</text>
<text text-anchor="middle" x="482" y="-558.529" font-family="FreeSans" font-size="10.00">rotation_</text>
</g>
<!-- Node14&#45;&gt;Node14 -->
<g id="edge34" class="edge"><title>Node14&#45;&gt;Node14</title>
<path fill="none" stroke="#9a32cd" stroke-dasharray="5,2" d="M65.5287,-583.828C66.986,-589.31 78.8098,-593.529 101,-593.529 134.027,-593.529 144.09,-584.182 131.189,-575.237"/>
<polygon fill="#9a32cd" stroke="#9a32cd" points="68.5545,-585.589 70.8109,-575.237 62.5916,-581.922 68.5545,-585.589"/>
<text text-anchor="middle" x="101" y="-597.529" font-family="FreeSans" font-size="10.00"> IDENTITY</text>
</g>
<!-- Node14&#45;&gt;Node21 -->
<g id="edge66" class="edge"><title>Node14&#45;&gt;Node21</title>
<path fill="none" stroke="#9a32cd" stroke-dasharray="5,2" d="M167.429,-554.308C179.17,-551.495 191.113,-547.957 202,-543.529 319.471,-495.754 435.3,-390.409 470.897,-356.368"/>
<polygon fill="#9a32cd" stroke="#9a32cd" points="166.632,-550.899 157.641,-556.504 168.165,-557.729 166.632,-550.899"/>
<text text-anchor="middle" x="291" y="-535.529" font-family="FreeSans" font-size="10.00"> rotation_</text>
</g>
<!-- Node15&#45;&gt;Node8 -->
<g id="edge36" class="edge"><title>Node15&#45;&gt;Node8</title>
<path fill="none" stroke="#9a32cd" stroke-dasharray="5,2" d="M561.321,-730.925C569.006,-728.841 576.667,-726.691 584,-724.529 646.955,-705.966 675.377,-721.617 724,-677.529 762.915,-642.243 778.47,-577.402 783.243,-552.066"/>
<polygon fill="#9a32cd" stroke="#9a32cd" points="560.353,-727.561 551.597,-733.525 562.162,-734.323 560.353,-727.561"/>
<text text-anchor="middle" x="663" y="-722.529" font-family="FreeSans" font-size="10.00"> listeners_</text>
</g>
<!-- Node16 -->
<g id="node35" class="node"><title>Node16</title>
<a xlink:href="class_urho3_d_1_1_vector_buffer.html" target="_top" xlink:title="Dynamically sized buffer that can be read and written to as a stream.">
<polygon fill="none" stroke="red" points="41.5,-293.029 41.5,-314.029 160.5,-314.029 160.5,-293.029 41.5,-293.029"/>
<text text-anchor="middle" x="101" y="-301.029" font-family="FreeSans" font-size="10.00">Urho3D::VectorBuffer</text>
</a>
</g>
<!-- Node16&#45;&gt;Node8 -->
<g id="edge40" class="edge"><title>Node16&#45;&gt;Node8</title>
<path fill="none" stroke="#9a32cd" stroke-dasharray="5,2" d="M170.662,-293.364C266.173,-281.979 442.095,-270.199 584,-312.529 619.213,-323.033 700.076,-372.637 724,-400.529 759.077,-441.423 776.778,-505.571 782.685,-530.813"/>
<polygon fill="#9a32cd" stroke="#9a32cd" points="170.047,-289.913 160.547,-294.605 170.899,-296.861 170.047,-289.913"/>
<text text-anchor="middle" x="482" y="-316.529" font-family="FreeSans" font-size="10.00"> attrBuffer_</text>
</g>
<!-- Node16&#45;&gt;Node21 -->
<g id="edge68" class="edge"><title>Node16&#45;&gt;Node21</title>
<path fill="none" stroke="#9a32cd" stroke-dasharray="5,2" d="M170.869,-310.35C223.456,-315.582 297.292,-323.139 362,-330.529 382.651,-332.888 405.276,-335.665 425.26,-338.185"/>
<polygon fill="#9a32cd" stroke="#9a32cd" points="170.941,-306.84 160.644,-309.335 170.249,-313.805 170.941,-306.84"/>
<text text-anchor="middle" x="291" y="-334.529" font-family="FreeSans" font-size="10.00"> msg_</text>
</g>
<!-- Node17&#45;&gt;Node8 -->
<g id="edge42" class="edge"><title>Node17&#45;&gt;Node8</title>
<path fill="none" stroke="#9a32cd" stroke-dasharray="5,2" d="M572.807,-608.499C582.657,-606.468 592.536,-604.446 602,-602.529 656.162,-591.56 672.473,-598.499 724,-578.529 741.093,-571.905 758.81,-560.573 770.717,-552.191"/>
<polygon fill="#9a32cd" stroke="#9a32cd" points="572.069,-605.078 562.984,-610.529 573.486,-611.933 572.069,-605.078"/>
<text text-anchor="middle" x="663" y="-606.529" font-family="FreeSans" font-size="10.00"> components_</text>
</g>
<!-- Node18 -->
<g id="node40" class="node"><title>Node18</title>
<a xlink:href="class_urho3_d_1_1_vector3.html" target="_top" xlink:title="Three&#45;dimensional vector.">
<polygon fill="none" stroke="black" points="53,-126.029 53,-147.029 149,-147.029 149,-126.029 53,-126.029"/>
<text text-anchor="middle" x="101" y="-134.029" font-family="FreeSans" font-size="10.00">Urho3D::Vector3</text>
</a>
</g>
<!-- Node18&#45;&gt;Node8 -->
<g id="edge46" class="edge"><title>Node18&#45;&gt;Node8</title>
<path fill="none" stroke="#9a32cd" stroke-dasharray="5,2" d="M159.402,-146.212C306.693,-171.147 684.414,-238.475 724,-279.529 753.525,-310.15 732.722,-332.016 742,-373.529 755.396,-433.468 774.748,-504.561 782.056,-530.969"/>
<polygon fill="#9a32cd" stroke="#9a32cd" points="159.647,-142.704 149.204,-144.491 158.482,-149.606 159.647,-142.704"/>
<text text-anchor="middle" x="482" y="-245.529" font-family="FreeSans" font-size="10.00"> scale_</text>
<text text-anchor="middle" x="482" y="-232.529" font-family="FreeSans" font-size="10.00">position_</text>
</g>
<!-- Node18&#45;&gt;Node18 -->
<g id="edge48" class="edge"><title>Node18&#45;&gt;Node18</title>
<path fill="none" stroke="#9a32cd" stroke-dasharray="5,2" d="M65.5287,-155.828C66.986,-161.31 78.8098,-165.529 101,-165.529 134.027,-165.529 144.09,-156.182 131.189,-147.237"/>
<polygon fill="#9a32cd" stroke="#9a32cd" points="68.5545,-157.589 70.8109,-147.237 62.5916,-153.922 68.5545,-157.589"/>
<text text-anchor="middle" x="101" y="-260.529" font-family="FreeSans" font-size="10.00"> ONE</text>
<text text-anchor="middle" x="101" y="-247.529" font-family="FreeSans" font-size="10.00">DOWN</text>
<text text-anchor="middle" x="101" y="-234.529" font-family="FreeSans" font-size="10.00">BACK</text>
<text text-anchor="middle" x="101" y="-221.529" font-family="FreeSans" font-size="10.00">RIGHT</text>
<text text-anchor="middle" x="101" y="-208.529" font-family="FreeSans" font-size="10.00">LEFT</text>
<text text-anchor="middle" x="101" y="-195.529" font-family="FreeSans" font-size="10.00">ZERO</text>
<text text-anchor="middle" x="101" y="-182.529" font-family="FreeSans" font-size="10.00">FORWARD</text>
<text text-anchor="middle" x="101" y="-169.529" font-family="FreeSans" font-size="10.00">UP</text>
</g>
<!-- Node18&#45;&gt;Node21 -->
<g id="edge70" class="edge"><title>Node18&#45;&gt;Node21</title>
<path fill="none" stroke="#9a32cd" stroke-dasharray="5,2" d="M125.786,-152.45C149.646,-167.604 186.885,-190.809 220,-209.529 307.666,-259.088 415.115,-312.694 460.327,-334.935"/>
<polygon fill="#9a32cd" stroke="#9a32cd" points="127.648,-149.486 117.334,-147.062 123.885,-155.389 127.648,-149.486"/>
<text text-anchor="middle" x="291" y="-288.529" font-family="FreeSans" font-size="10.00"> position_</text>
</g>
<!-- Node18&#45;&gt;Node22 -->
<g id="edge80" class="edge"><title>Node18&#45;&gt;Node22</title>
<path fill="none" stroke="#9a32cd" stroke-dasharray="5,2" d="M159.309,-125.071C233.834,-111.447 366.983,-90.5291 482,-90.5291 482,-90.5291 482,-90.5291 1044,-90.5291 1181.38,-90.5291 1292.56,-254.468 1319.67,-298.014"/>
<polygon fill="#9a32cd" stroke="#9a32cd" points="158.387,-121.682 149.19,-126.942 159.66,-128.565 158.387,-121.682"/>
<text text-anchor="middle" x="785" y="-94.5291" font-family="FreeSans" font-size="10.00"> padding_</text>
</g>
<!-- Node23 -->
<g id="node63" class="node"><title>Node23</title>
<a xlink:title="Temporary data for finding a path.">
<polygon fill="none" stroke="#bfbfbf" points="602,-36.0291 602,-57.0291 724,-57.0291 724,-36.0291 602,-36.0291"/>
<text text-anchor="middle" x="663" y="-44.0291" font-family="FreeSans" font-size="10.00">Urho3D::FindPathData</text>
</a>
</g>
<!-- Node18&#45;&gt;Node23 -->
<g id="edge84" class="edge"><title>Node18&#45;&gt;Node23</title>
<path fill="none" stroke="#9a32cd" stroke-dasharray="5,2" d="M121.304,-119.503C143.801,-101.79 181.95,-75.0622 220,-63.5291 351.478,-23.6776 514.983,-31.1352 601.931,-39.3028"/>
<polygon fill="#9a32cd" stroke="#9a32cd" points="119.076,-116.803 113.481,-125.8 123.465,-122.256 119.076,-116.803"/>
<text text-anchor="middle" x="291" y="-67.5291" font-family="FreeSans" font-size="10.00"> pathPoints_</text>
</g>
<!-- Node24 -->
<g id="node66" class="node"><title>Node24</title>
<a xlink:href="class_urho3_d_1_1_bounding_box.html" target="_top" xlink:title="Three&#45;dimensional axis&#45;aligned bounding box.">
<polygon fill="none" stroke="black" points="846,-196.029 846,-217.029 968,-217.029 968,-196.029 846,-196.029"/>
<text text-anchor="middle" x="907" y="-204.029" font-family="FreeSans" font-size="10.00">Urho3D::BoundingBox</text>
</a>
</g>
<!-- Node18&#45;&gt;Node24 -->
<g id="edge88" class="edge"><title>Node18&#45;&gt;Node24</title>
<path fill="none" stroke="#9a32cd" stroke-dasharray="5,2" d="M159.208,-137.05C250.1,-138.316 431.166,-142.657 584,-157.529 677.709,-166.648 785.701,-184.544 850.051,-196"/>
<polygon fill="#9a32cd" stroke="#9a32cd" points="159.153,-133.549 149.108,-136.917 159.061,-140.549 159.153,-133.549"/>
<text text-anchor="middle" x="482" y="-174.529" font-family="FreeSans" font-size="10.00"> max_</text>
<text text-anchor="middle" x="482" y="-161.529" font-family="FreeSans" font-size="10.00">min_</text>
</g>
<!-- Node19 -->
<g id="node46" class="node"><title>Node19</title>
<a xlink:href="class_urho3_d_1_1_string_hash.html" target="_top" xlink:title="32&#45;bit hash value for a string.">
<polygon fill="none" stroke="black" points="425.5,-663.029 425.5,-684.029 538.5,-684.029 538.5,-663.029 425.5,-663.029"/>
<text text-anchor="middle" x="482" y="-671.029" font-family="FreeSans" font-size="10.00">Urho3D::StringHash</text>
</a>
</g>
<!-- Node19&#45;&gt;Node8 -->
<g id="edge56" class="edge"><title>Node19&#45;&gt;Node8</title>
<path fill="none" stroke="#9a32cd" stroke-dasharray="5,2" d="M548.523,-669.528C599.959,-663.751 671.084,-649.687 724,-615.529 749.598,-599.005 769.77,-568.291 779.193,-552.118"/>
<polygon fill="#9a32cd" stroke="#9a32cd" points="548.09,-666.054 538.509,-670.577 548.819,-673.016 548.09,-666.054"/>
<text text-anchor="middle" x="663" y="-664.529" font-family="FreeSans" font-size="10.00"> nameHash_</text>
</g>
<!-- Node19&#45;&gt;Node19 -->
<g id="edge58" class="edge"><title>Node19&#45;&gt;Node19</title>
<path fill="none" stroke="#9a32cd" stroke-dasharray="5,2" d="M448.508,-693.208C450.302,-698.504 461.467,-702.529 482,-702.529 513.289,-702.529 522.822,-693.182 510.6,-684.237"/>
<polygon fill="#9a32cd" stroke="#9a32cd" points="451.685,-694.692 453.4,-684.237 445.539,-691.341 451.685,-694.692"/>
<text text-anchor="middle" x="482" y="-706.529" font-family="FreeSans" font-size="10.00"> ZERO</text>
</g>
<!-- Node20&#45;&gt;Node8 -->
<g id="edge60" class="edge"><title>Node20&#45;&gt;Node8</title>
<path fill="none" stroke="#9a32cd" stroke-dasharray="5,2" d="M576.268,-833.009C578.923,-831.608 581.508,-830.117 584,-828.529 594.654,-821.74 591.239,-813.148 602,-806.529 649.303,-777.434 684.087,-818.142 724,-779.529 757.799,-746.831 778.629,-593.891 783.756,-552.104"/>
<polygon fill="#9a32cd" stroke="#9a32cd" points="574.52,-829.964 567,-837.428 577.533,-836.283 574.52,-829.964"/>
<text text-anchor="middle" x="663" y="-810.529" font-family="FreeSans" font-size="10.00"> children_</text>
</g>
<!-- Node21&#45;&gt;Node8 -->
<g id="edge64" class="edge"><title>Node21&#45;&gt;Node8</title>
<path fill="none" stroke="#9a32cd" stroke-dasharray="5,2" d="M499.731,-363.295C521.734,-384.245 561.345,-418.492 602,-436.529 652.436,-458.906 677.215,-430.277 724,-459.529 752.284,-477.213 771.923,-513.147 780.361,-530.989"/>
<polygon fill="#9a32cd" stroke="#9a32cd" points="502.066,-360.684 492.451,-356.233 497.192,-365.708 502.066,-360.684"/>
<text text-anchor="middle" x="663" y="-463.529" font-family="FreeSans" font-size="10.00"> owner_</text>
</g>
<!-- Node22&#45;&gt;Node1 -->
<g id="edge76" class="edge"><title>Node22&#45;&gt;Node1</title>
<path fill="none" stroke="#9a32cd" stroke-dasharray="5,2" d="M1345.1,-326.053C1395,-371.827 1528.17,-493.985 1568.36,-530.85"/>
<polygon fill="#9a32cd" stroke="#9a32cd" points="1347.31,-323.327 1337.57,-319.146 1342.58,-328.485 1347.31,-323.327"/>
<text text-anchor="middle" x="1454" y="-462.529" font-family="FreeSans" font-size="10.00"> navigationMesh_</text>
</g>
<!-- Node23&#45;&gt;Node22 -->
<g id="edge82" class="edge"><title>Node23&#45;&gt;Node22</title>
<path fill="none" stroke="#9a32cd" stroke-dasharray="5,2" d="M709.317,-33.4617C815.085,-6.61226 1077.73,42.7512 1240,-76.5291 1278.16,-104.579 1314.39,-256.426 1323.7,-298.001"/>
<polygon fill="#9a32cd" stroke="#9a32cd" points="708.383,-30.088 699.58,-35.9833 710.138,-36.8645 708.383,-30.088"/>
<text text-anchor="middle" x="907" y="-11.5291" font-family="FreeSans" font-size="10.00"> pathData_</text>
</g>
<!-- Node24&#45;&gt;Node22 -->
<g id="edge86" class="edge"><title>Node24&#45;&gt;Node22</title>
<path fill="none" stroke="#9a32cd" stroke-dasharray="5,2" d="M960.09,-219.453C1043.92,-239.86 1205.35,-279.158 1282.66,-297.978"/>
<polygon fill="#9a32cd" stroke="#9a32cd" points="960.806,-216.025 950.262,-217.061 959.151,-222.827 960.806,-216.025"/>
<text text-anchor="middle" x="1044" y="-257.529" font-family="FreeSans" font-size="10.00"> boundingBox_</text>
</g>
<!-- Node25&#45;&gt;Node1 -->
<g id="edge92" class="edge"><title>Node25&#45;&gt;Node1</title>
<path fill="none" stroke="#9a32cd" stroke-dasharray="5,2" d="M1212.85,-798.534C1294.81,-741.161 1505.94,-593.369 1564.65,-552.273"/>
<polygon fill="#9a32cd" stroke="#9a32cd" points="1210.6,-795.833 1204.42,-804.435 1214.62,-801.568 1210.6,-795.833"/>
<text text-anchor="middle" x="1326" y="-769.529" font-family="FreeSans" font-size="10.00"> numAreas_</text>
</g>
</g>
</svg>
        <g id="navigator" transform="translate(0 0)" fill="#404254">
                <rect fill="#f2f5e9" fill-opacity="0.5" stroke="#606060" stroke-width=".5" x="0" y="0" width="60" height="60"/>
                <use id="zoomplus" xlink:href="#zoomPlus" x="17" y="9" onmousedown="handleZoom(evt,'in')"/>
                <use id="zoomminus" xlink:href="#zoomMin" x="42" y="9" onmousedown="handleZoom(evt,'out')"/>
                <use id="reset" xlink:href="#resetDef" x="30" y="36" onmousedown="handleReset()"/>
                <g id="arrowUp" xlink:href="#dirArrow" transform="translate(30 24)" onmousedown="handlePan(0,-1)">
                  <use xlink:href="#rim" fill="#404040">
                        <set attributeName="fill" to="#808080" begin="arrowUp.mouseover" end="arrowUp.mouseout"/>
                  </use>
                  <path fill="none" stroke="white" stroke-width="1.5" d="M0,-3.0v7 M-2.5,-0.5L0,-3.0L2.5,-0.5"/>
                </g>
                <g id="arrowRight" xlink:href="#dirArrow" transform="rotate(90) translate(36 -43)" onmousedown="handlePan(1,0)">
                  <use xlink:href="#rim" fill="#404040">
                        <set attributeName="fill" to="#808080" begin="arrowRight.mouseover" end="arrowRight.mouseout"/>
                  </use>
                  <path fill="none" stroke="white" stroke-width="1.5" d="M0,-3.0v7 M-2.5,-0.5L0,-3.0L2.5,-0.5"/>
                </g>
                <g id="arrowDown" xlink:href="#dirArrow" transform="rotate(180) translate(-30 -48)" onmousedown="handlePan(0,1)">
                  <use xlink:href="#rim" fill="#404040">
                        <set attributeName="fill" to="#808080" begin="arrowDown.mouseover" end="arrowDown.mouseout"/>
                  </use>
                  <path fill="none" stroke="white" stroke-width="1.5" d="M0,-3.0v7 M-2.5,-0.5L0,-3.0L2.5,-0.5"/>
                </g>
                <g id="arrowLeft" xlink:href="#dirArrow" transform="rotate(270) translate(-36 17)" onmousedown="handlePan(-1,0)">
                  <use xlink:href="#rim" fill="#404040">
                        <set attributeName="fill" to="#808080" begin="arrowLeft.mouseover" end="arrowLeft.mouseout"/>
                  </use>
                  <path fill="none" stroke="white" stroke-width="1.5" d="M0,-3.0v7 M-2.5,-0.5L0,-3.0L2.5,-0.5"/>
                </g>
        </g>
        <svg viewBox="0 0 15 15" width="100%" height="30px" preserveAspectRatio="xMaxYMin meet">
         <g id="arrow_out" transform="scale(0.3 0.3)">
          <a xlink:href="class_urho3_d_1_1_crowd_manager__coll__graph_org.svg" target="_base">
           <rect id="button" ry="5" rx="5" y="6" x="6" height="38" width="38"
                fill="#f2f5e9" fill-opacity="0.5" stroke="#606060" stroke-width="1.0"/>
           <path id="arrow"
             d="M 11.500037,31.436501 C 11.940474,20.09759 22.043105,11.32322 32.158766,21.979434 L 37.068811,17.246167 C 37.068811,17.246167 37.088388,32 37.088388,32 L 22.160133,31.978069 C 22.160133,31.978069 26.997745,27.140456 26.997745,27.140456 C 18.528582,18.264221 13.291696,25.230495 11.500037,31.436501 z"
             style="fill:#404040;"/>
          </a>
         </g>
        </svg>
</svg>
