<?xml version="1.0" encoding="UTF-8" standalone="no"?>
<!DOCTYPE svg PUBLIC "-//W3C//DTD SVG 1.1//EN"
 "http://www.w3.org/Graphics/SVG/1.1/DTD/svg11.dtd">
<!-- Generated by graphviz version 2.26.3 (20100126.1600)
 -->
<!-- Title: Urho3D::TextureCube Pages: 1 -->
<svg width="2466pt" height="683pt"
 viewBox="0.00 0.00 2466.00 683.00" xmlns="http://www.w3.org/2000/svg" xmlns:xlink="http://www.w3.org/1999/xlink">
<g id="graph1" class="graph" transform="scale(1 1) rotate(0) translate(4 679)">
<title>Urho3D::TextureCube</title>
<!-- Node1 -->
<g id="node1" class="node"><title>Node1</title>
<polygon fill="#bfbfbf" stroke="black" points="2127.5,-421.5 2127.5,-442.5 2246.5,-442.5 2246.5,-421.5 2127.5,-421.5"/>
<text text-anchor="middle" x="2187" y="-429.5" font-family="FreeSans" font-size="10.00">Urho3D::TextureCube</text>
</g>
<!-- Node2 -->
<g id="node2" class="node"><title>Node2</title>
<a xlink:href="class_urho3_d_1_1_texture.html" target="_top" xlink:title="Base class for texture resources.">
<polygon fill="none" stroke="black" points="1360,-469.5 1360,-490.5 1454,-490.5 1454,-469.5 1360,-469.5"/>
<text text-anchor="middle" x="1407" y="-477.5" font-family="FreeSans" font-size="10.00">Urho3D::Texture</text>
</a>
</g>
<!-- Node2&#45;&gt;Node1 -->
<g id="edge2" class="edge"><title>Node2&#45;&gt;Node1</title>
<path fill="none" stroke="midnightblue" d="M1464.37,-476.469C1607.92,-467.636 1981.51,-444.646 2127.4,-435.668"/>
<polygon fill="midnightblue" stroke="midnightblue" points="1463.8,-472.998 1454.04,-477.105 1464.23,-479.985 1463.8,-472.998"/>
</g>
<!-- Node16 -->
<g id="node33" class="node"><title>Node16</title>
<a xlink:href="class_urho3_d_1_1_graphics.html" target="_top" xlink:title="Graphics subsystem. Manages the application window, rendering state and GPU resources.">
<polygon fill="none" stroke="red" points="1872.5,-233.5 1872.5,-254.5 1973.5,-254.5 1973.5,-233.5 1872.5,-233.5"/>
<text text-anchor="middle" x="1923" y="-241.5" font-family="FreeSans" font-size="10.00">Urho3D::Graphics</text>
</a>
</g>
<!-- Node2&#45;&gt;Node16 -->
<g id="edge56" class="edge"><title>Node2&#45;&gt;Node16</title>
<path fill="none" stroke="#9a32cd" stroke-dasharray="5,2" d="M1439.06,-465.128C1449.55,-460.283 1461.26,-454.893 1472,-450 1631.65,-377.237 1673.01,-362.195 1832,-288 1855.85,-276.869 1883,-263.676 1901.38,-254.659"/>
<polygon fill="#9a32cd" stroke="#9a32cd" points="1437.44,-462.02 1429.84,-469.395 1440.38,-468.374 1437.44,-462.02"/>
<text text-anchor="middle" x="1633" y="-409" font-family="FreeSans" font-size="10.00"> textures_</text>
</g>
<!-- Node17 -->
<g id="node36" class="node"><title>Node17</title>
<a xlink:href="class_urho3_d_1_1_render_surface.html" target="_top" xlink:title="Color or depth&#45;stencil surface that can be rendered into.">
<polygon fill="none" stroke="black" points="1568.5,-161.5 1568.5,-182.5 1697.5,-182.5 1697.5,-161.5 1568.5,-161.5"/>
<text text-anchor="middle" x="1633" y="-169.5" font-family="FreeSans" font-size="10.00">Urho3D::RenderSurface</text>
</a>
</g>
<!-- Node2&#45;&gt;Node17 -->
<g id="edge50" class="edge"><title>Node2&#45;&gt;Node17</title>
<path fill="none" stroke="#9a32cd" stroke-dasharray="5,2" d="M1420.87,-461.097C1463.6,-402.867 1592.31,-227.454 1625.25,-182.557"/>
<polygon fill="#9a32cd" stroke="#9a32cd" points="1417.87,-459.265 1414.78,-469.398 1423.52,-463.406 1417.87,-459.265"/>
<text text-anchor="middle" x="1511" y="-392" font-family="FreeSans" font-size="10.00"> parentTexture_</text>
</g>
<!-- Node20 -->
<g id="node50" class="node"><title>Node20</title>
<a xlink:href="class_urho3_d_1_1_shared_ptr.html" target="_top" xlink:title="Urho3D::SharedPtr\&lt;\l Urho3D::Texture \&gt;">
<polygon fill="none" stroke="black" points="1575,-496 1575,-530 1691,-530 1691,-496 1575,-496"/>
<text text-anchor="start" x="1583" y="-517" font-family="FreeSans" font-size="10.00">Urho3D::SharedPtr&lt;</text>
<text text-anchor="middle" x="1633" y="-504" font-family="FreeSans" font-size="10.00"> Urho3D::Texture &gt;</text>
</a>
</g>
<!-- Node2&#45;&gt;Node20 -->
<g id="edge64" class="edge"><title>Node2&#45;&gt;Node20</title>
<path fill="none" stroke="#9a32cd" stroke-dasharray="5,2" d="M1464.36,-483.935C1490.57,-486.163 1521.96,-489.437 1550,-494 1558.02,-495.306 1566.43,-496.928 1574.69,-498.669"/>
<polygon fill="#9a32cd" stroke="#9a32cd" points="1464.46,-480.432 1454.21,-483.102 1463.89,-487.408 1464.46,-480.432"/>
<text text-anchor="middle" x="1511" y="-498" font-family="FreeSans" font-size="10.00"> ptr_</text>
</g>
<!-- Node3 -->
<g id="node4" class="node"><title>Node3</title>
<a xlink:href="class_urho3_d_1_1_resource.html" target="_top" xlink:title="Base class for resources.">
<polygon fill="none" stroke="black" points="1135.5,-601.5 1135.5,-622.5 1238.5,-622.5 1238.5,-601.5 1135.5,-601.5"/>
<text text-anchor="middle" x="1187" y="-609.5" font-family="FreeSans" font-size="10.00">Urho3D::Resource</text>
</a>
</g>
<!-- Node3&#45;&gt;Node2 -->
<g id="edge4" class="edge"><title>Node3&#45;&gt;Node2</title>
<path fill="none" stroke="midnightblue" d="M1243.45,-598.195C1248.47,-596.345 1253.38,-594.285 1258,-592 1315.14,-563.722 1372.57,-512.642 1396.01,-490.599"/>
<polygon fill="midnightblue" stroke="midnightblue" points="1242.1,-594.961 1233.76,-601.498 1244.35,-601.587 1242.1,-594.961"/>
</g>
<!-- Node25 -->
<g id="node64" class="node"><title>Node25</title>
<a xlink:href="class_urho3_d_1_1_x_m_l_file.html" target="_top" xlink:title="XML document resource.">
<polygon fill="none" stroke="black" points="1360,-598.5 1360,-619.5 1454,-619.5 1454,-598.5 1360,-598.5"/>
<text text-anchor="middle" x="1407" y="-606.5" font-family="FreeSans" font-size="10.00">Urho3D::XMLFile</text>
</a>
</g>
<!-- Node3&#45;&gt;Node25 -->
<g id="edge82" class="edge"><title>Node3&#45;&gt;Node25</title>
<path fill="none" stroke="midnightblue" d="M1248.75,-611.158C1283.97,-610.678 1327.42,-610.085 1359.87,-609.643"/>
<polygon fill="midnightblue" stroke="midnightblue" points="1248.53,-607.661 1238.58,-611.297 1248.63,-614.66 1248.53,-607.661"/>
</g>
<!-- Node4 -->
<g id="node6" class="node"><title>Node4</title>
<a xlink:href="class_urho3_d_1_1_object.html" target="_top" xlink:title="Base class for objects with type identification, subsystem access and event sending/receiving capabil...">
<polygon fill="none" stroke="black" points="916,-224.5 916,-245.5 1006,-245.5 1006,-224.5 916,-224.5"/>
<text text-anchor="middle" x="961" y="-232.5" font-family="FreeSans" font-size="10.00">Urho3D::Object</text>
</a>
</g>
<!-- Node4&#45;&gt;Node3 -->
<g id="edge6" class="edge"><title>Node4&#45;&gt;Node3</title>
<path fill="none" stroke="midnightblue" d="M996.928,-250.371C1004.6,-254.885 1012.14,-260.418 1018,-267 1079.44,-336.071 1073.82,-369.774 1098,-459 1105.8,-487.787 1096.44,-569.487 1116,-592 1121.21,-597.993 1128.06,-602.257 1135.45,-605.277"/>
<polygon fill="midnightblue" stroke="midnightblue" points="998.421,-247.2 987.957,-245.537 995.1,-253.362 998.421,-247.2"/>
</g>
<!-- Node4&#45;&gt;Node16 -->
<g id="edge38" class="edge"><title>Node4&#45;&gt;Node16</title>
<path fill="none" stroke="midnightblue" d="M1016.32,-226.593C1061.98,-220.381 1128.54,-213 1187,-213 1187,-213 1187,-213 1633,-213 1721.66,-213 1744.06,-215.73 1832,-227 1845.07,-228.675 1859.11,-231.021 1872.15,-233.437"/>
<polygon fill="midnightblue" stroke="midnightblue" points="1015.75,-223.138 1006.33,-227.979 1016.71,-230.071 1015.75,-223.138"/>
</g>
<!-- Node5 -->
<g id="node8" class="node"><title>Node5</title>
<a xlink:href="class_urho3_d_1_1_ref_counted.html" target="_top" xlink:title="Base class for intrusively reference&#45;counted objects. These are noncopyable and non&#45;assignable.">
<polygon fill="none" stroke="black" points="203,-128.5 203,-149.5 317,-149.5 317,-128.5 203,-128.5"/>
<text text-anchor="middle" x="260" y="-136.5" font-family="FreeSans" font-size="10.00">Urho3D::RefCounted</text>
</a>
</g>
<!-- Node5&#45;&gt;Node4 -->
<g id="edge8" class="edge"><title>Node5&#45;&gt;Node4</title>
<path fill="none" stroke="midnightblue" d="M327.222,-146.955C381.03,-153.416 458.409,-162.914 526,-172 668.56,-191.164 837.026,-216.263 915.954,-228.167"/>
<polygon fill="midnightblue" stroke="midnightblue" points="327.466,-143.46 317.121,-145.745 326.633,-150.41 327.466,-143.46"/>
</g>
<!-- Node7 -->
<g id="node12" class="node"><title>Node7</title>
<a xlink:href="class_urho3_d_1_1_context.html" target="_top" xlink:title="Urho3D execution context. Provides access to subsystems, object factories and attributes, and event receivers.">
<polygon fill="none" stroke="red" points="568.5,-224.5 568.5,-245.5 665.5,-245.5 665.5,-224.5 568.5,-224.5"/>
<text text-anchor="middle" x="617" y="-232.5" font-family="FreeSans" font-size="10.00">Urho3D::Context</text>
</a>
</g>
<!-- Node5&#45;&gt;Node7 -->
<g id="edge14" class="edge"><title>Node5&#45;&gt;Node7</title>
<path fill="none" stroke="midnightblue" d="M273.144,-157.607C286.998,-175.553 310.587,-201.743 338,-214 377.909,-231.844 499.63,-234.977 568.383,-235.265"/>
<polygon fill="midnightblue" stroke="midnightblue" points="275.93,-155.488 267.151,-149.557 270.315,-159.668 275.93,-155.488"/>
</g>
<!-- Node5&#45;&gt;Node17 -->
<g id="edge42" class="edge"><title>Node5&#45;&gt;Node17</title>
<path fill="none" stroke="midnightblue" d="M327.392,-133.273C399.127,-127.679 515.989,-120 617,-120 617,-120 617,-120 1407,-120 1480.28,-120 1563.59,-146.282 1605.63,-161.477"/>
<polygon fill="midnightblue" stroke="midnightblue" points="326.837,-129.806 317.143,-134.082 327.388,-136.784 326.837,-129.806"/>
</g>
<!-- Node6 -->
<g id="node10" class="node"><title>Node6</title>
<a xlink:href="struct_urho3_d_1_1_ref_count.html" target="_top" xlink:title="Reference count structure.">
<polygon fill="none" stroke="black" points="6,-30.5 6,-51.5 108,-51.5 108,-30.5 6,-30.5"/>
<text text-anchor="middle" x="57" y="-38.5" font-family="FreeSans" font-size="10.00">Urho3D::RefCount</text>
</a>
</g>
<!-- Node6&#45;&gt;Node5 -->
<g id="edge10" class="edge"><title>Node6&#45;&gt;Node5</title>
<path fill="none" stroke="#9a32cd" stroke-dasharray="5,2" d="M88.2236,-56.0735C129.757,-76.1239 202.124,-111.06 238.224,-128.487"/>
<polygon fill="#9a32cd" stroke="#9a32cd" points="89.6382,-52.8699 79.111,-51.6743 86.5949,-59.1738 89.6382,-52.8699"/>
<text text-anchor="middle" x="157" y="-103" font-family="FreeSans" font-size="10.00"> refCount_</text>
</g>
<!-- Node15 -->
<g id="node31" class="node"><title>Node15</title>
<a xlink:href="class_urho3_d_1_1_weak_ptr.html" target="_top" xlink:title="Urho3D::WeakPtr\&lt; Urho3D\l::Graphics \&gt;">
<polygon fill="none" stroke="black" points="2114,-227 2114,-261 2260,-261 2260,-227 2114,-227"/>
<text text-anchor="start" x="2122" y="-248" font-family="FreeSans" font-size="10.00">Urho3D::WeakPtr&lt; Urho3D</text>
<text text-anchor="middle" x="2187" y="-235" font-family="FreeSans" font-size="10.00">::Graphics &gt;</text>
</a>
</g>
<!-- Node6&#45;&gt;Node15 -->
<g id="edge60" class="edge"><title>Node6&#45;&gt;Node15</title>
<path fill="none" stroke="#9a32cd" stroke-dasharray="5,2" d="M98.7727,-27.4934C139.47,-15.5468 203.321,-0 260,-0 260,-0 260,-0 1923,-0 2056.87,-0 2151.75,-171.303 2178.99,-226.842"/>
<polygon fill="#9a32cd" stroke="#9a32cd" points="97.5162,-24.2162 88.9432,-30.4415 99.5271,-30.9211 97.5162,-24.2162"/>
<text text-anchor="middle" x="1187" y="-4" font-family="FreeSans" font-size="10.00"> refCount_</text>
</g>
<!-- Node18 -->
<g id="node39" class="node"><title>Node18</title>
<a xlink:href="class_urho3_d_1_1_weak_ptr.html" target="_top" xlink:title="Urho3D::WeakPtr\&lt; Urho3D\l::RenderSurface \&gt;">
<polygon fill="none" stroke="black" points="1850,-57 1850,-91 1996,-91 1996,-57 1850,-57"/>
<text text-anchor="start" x="1858" y="-78" font-family="FreeSans" font-size="10.00">Urho3D::WeakPtr&lt; Urho3D</text>
<text text-anchor="middle" x="1923" y="-65" font-family="FreeSans" font-size="10.00">::RenderSurface &gt;</text>
</a>
</g>
<!-- Node6&#45;&gt;Node18 -->
<g id="edge48" class="edge"><title>Node6&#45;&gt;Node18</title>
<path fill="none" stroke="#9a32cd" stroke-dasharray="5,2" d="M118.502,-41C158.756,-41 212.503,-41 260,-41 260,-41 260,-41 1633,-41 1721.66,-41 1744.18,-42.8002 1832,-55 1837.75,-55.7995 1843.69,-56.7498 1849.64,-57.7928"/>
<polygon fill="#9a32cd" stroke="#9a32cd" points="118.31,-37.5001 108.31,-41 118.31,-44.5001 118.31,-37.5001"/>
<text text-anchor="middle" x="1067" y="-45" font-family="FreeSans" font-size="10.00"> refCount_</text>
</g>
<!-- Node7&#45;&gt;Node4 -->
<g id="edge12" class="edge"><title>Node7&#45;&gt;Node4</title>
<path fill="none" stroke="#9a32cd" stroke-dasharray="5,2" d="M675.685,-235C743.72,-235 854.369,-235 915.973,-235"/>
<polygon fill="#9a32cd" stroke="#9a32cd" points="675.557,-231.5 665.557,-235 675.557,-238.5 675.557,-231.5"/>
<text text-anchor="middle" x="797" y="-239" font-family="FreeSans" font-size="10.00"> context_</text>
</g>
<!-- Node8 -->
<g id="node15" class="node"><title>Node8</title>
<a xlink:href="class_urho3_d_1_1_p_o_d_vector.html" target="_top" xlink:title="Urho3D::PODVector\&lt;\l Urho3D::Object * \&gt;">
<polygon fill="none" stroke="black" points="200.5,-244 200.5,-278 319.5,-278 319.5,-244 200.5,-244"/>
<text text-anchor="start" x="208.5" y="-265" font-family="FreeSans" font-size="10.00">Urho3D::PODVector&lt;</text>
<text text-anchor="middle" x="260" y="-252" font-family="FreeSans" font-size="10.00"> Urho3D::Object * &gt;</text>
</a>
</g>
<!-- Node8&#45;&gt;Node7 -->
<g id="edge16" class="edge"><title>Node8&#45;&gt;Node7</title>
<path fill="none" stroke="#9a32cd" stroke-dasharray="5,2" d="M329.848,-255.913C400.11,-250.796 506.624,-243.039 568.253,-238.55"/>
<polygon fill="#9a32cd" stroke="#9a32cd" points="329.473,-252.431 319.754,-256.648 329.982,-259.412 329.473,-252.431"/>
<text text-anchor="middle" x="432" y="-258" font-family="FreeSans" font-size="10.00"> eventSenders_</text>
</g>
<!-- Node9 -->
<g id="node17" class="node"><title>Node9</title>
<a xlink:href="class_urho3_d_1_1_vector_base.html" target="_top" xlink:title="Vector base class.">
<polygon fill="none" stroke="black" points="0,-250.5 0,-271.5 114,-271.5 114,-250.5 0,-250.5"/>
<text text-anchor="middle" x="57" y="-258.5" font-family="FreeSans" font-size="10.00">Urho3D::VectorBase</text>
</a>
</g>
<!-- Node9&#45;&gt;Node8 -->
<g id="edge18" class="edge"><title>Node9&#45;&gt;Node8</title>
<path fill="none" stroke="midnightblue" d="M124.38,-261C148.872,-261 176.363,-261 200.158,-261"/>
<polygon fill="midnightblue" stroke="midnightblue" points="124.087,-257.5 114.087,-261 124.087,-264.5 124.087,-257.5"/>
</g>
<!-- Node19 -->
<g id="node44" class="node"><title>Node19</title>
<a xlink:href="class_urho3_d_1_1_vector.html" target="_top" xlink:title="Urho3D::Vector\&lt; Urho3D\l::SharedPtr\&lt; Urho3D::Viewport \&gt; \&gt;">
<polygon fill="none" stroke="black" points="338,-179 338,-213 526,-213 526,-179 338,-179"/>
<text text-anchor="start" x="346" y="-200" font-family="FreeSans" font-size="10.00">Urho3D::Vector&lt; Urho3D</text>
<text text-anchor="middle" x="432" y="-187" font-family="FreeSans" font-size="10.00">::SharedPtr&lt; Urho3D::Viewport &gt; &gt;</text>
</a>
</g>
<!-- Node9&#45;&gt;Node19 -->
<g id="edge54" class="edge"><title>Node9&#45;&gt;Node19</title>
<path fill="none" stroke="midnightblue" d="M124.077,-248.614C148.023,-244.243 175.206,-239.338 200,-235 245.361,-227.064 295.769,-218.553 337.978,-211.514"/>
<polygon fill="midnightblue" stroke="midnightblue" points="123.236,-245.21 114.029,-250.452 124.495,-252.095 123.236,-245.21"/>
</g>
<!-- Node22 -->
<g id="node56" class="node"><title>Node22</title>
<a xlink:href="class_urho3_d_1_1_vector.html" target="_top" xlink:title="Urho3D::Vector\&lt; Urho3D\l::SharedPtr\&lt; Urho3D::Image \&gt; \&gt;">
<polygon fill="none" stroke="black" points="708.5,-343 708.5,-377 885.5,-377 885.5,-343 708.5,-343"/>
<text text-anchor="start" x="716.5" y="-364" font-family="FreeSans" font-size="10.00">Urho3D::Vector&lt; Urho3D</text>
<text text-anchor="middle" x="797" y="-351" font-family="FreeSans" font-size="10.00">::SharedPtr&lt; Urho3D::Image &gt; &gt;</text>
</a>
</g>
<!-- Node9&#45;&gt;Node22 -->
<g id="edge72" class="edge"><title>Node9&#45;&gt;Node22</title>
<path fill="none" stroke="midnightblue" d="M120.504,-273.438C145.255,-278.051 173.898,-283.104 200,-287 379.954,-313.861 591.524,-337.977 708.297,-350.639"/>
<polygon fill="midnightblue" stroke="midnightblue" points="120.987,-269.967 110.512,-271.56 119.694,-276.847 120.987,-269.967"/>
</g>
<!-- Node10 -->
<g id="node19" class="node"><title>Node10</title>
<a xlink:href="class_urho3_d_1_1_linked_list.html" target="_top" xlink:title="Urho3D::LinkedList\l\&lt; Urho3D::EventHandler \&gt;">
<polygon fill="none" stroke="red" points="544,-264 544,-298 690,-298 690,-264 544,-264"/>
<text text-anchor="start" x="552" y="-285" font-family="FreeSans" font-size="10.00">Urho3D::LinkedList</text>
<text text-anchor="middle" x="617" y="-272" font-family="FreeSans" font-size="10.00">&lt; Urho3D::EventHandler &gt;</text>
</a>
</g>
<!-- Node10&#45;&gt;Node4 -->
<g id="edge20" class="edge"><title>Node10&#45;&gt;Node4</title>
<path fill="none" stroke="#9a32cd" stroke-dasharray="5,2" d="M700.182,-274.53C753.505,-269.768 824.082,-262.32 886,-252 896.536,-250.244 907.811,-247.925 918.334,-245.567"/>
<polygon fill="#9a32cd" stroke="#9a32cd" points="699.749,-271.055 690.094,-275.418 700.363,-278.028 699.749,-271.055"/>
<text text-anchor="middle" x="797" y="-277" font-family="FreeSans" font-size="10.00"> eventHandlers_</text>
</g>
<!-- Node11 -->
<g id="node21" class="node"><title>Node11</title>
<a xlink:href="class_urho3_d_1_1_timer.html" target="_top" xlink:title="Low&#45;resolution operating system timer.">
<polygon fill="none" stroke="black" points="918,-582.5 918,-603.5 1004,-603.5 1004,-582.5 918,-582.5"/>
<text text-anchor="middle" x="961" y="-590.5" font-family="FreeSans" font-size="10.00">Urho3D::Timer</text>
</a>
</g>
<!-- Node11&#45;&gt;Node3 -->
<g id="edge22" class="edge"><title>Node11&#45;&gt;Node3</title>
<path fill="none" stroke="#9a32cd" stroke-dasharray="5,2" d="M1014.46,-592.241C1039.83,-592.374 1070.54,-593.248 1098,-596 1110.5,-597.252 1123.87,-599.285 1136.36,-601.487"/>
<polygon fill="#9a32cd" stroke="#9a32cd" points="1014.3,-588.741 1004.3,-592.226 1014.29,-595.741 1014.3,-588.741"/>
<text text-anchor="middle" x="1067" y="-600" font-family="FreeSans" font-size="10.00"> useTimer_</text>
</g>
<!-- Node12 -->
<g id="node23" class="node"><title>Node12</title>
<a xlink:href="class_urho3_d_1_1_string.html" target="_top" xlink:title="String class.">
<polygon fill="none" stroke="black" points="917,-276.5 917,-297.5 1005,-297.5 1005,-276.5 917,-276.5"/>
<text text-anchor="middle" x="961" y="-284.5" font-family="FreeSans" font-size="10.00">Urho3D::String</text>
</a>
</g>
<!-- Node12&#45;&gt;Node3 -->
<g id="edge24" class="edge"><title>Node12&#45;&gt;Node3</title>
<path fill="none" stroke="#9a32cd" stroke-dasharray="5,2" d="M968.775,-307.197C992.821,-368.713 1067.29,-551.998 1116,-592 1121.64,-596.633 1128.29,-600.194 1135.22,-602.931"/>
<polygon fill="#9a32cd" stroke="#9a32cd" points="972.006,-305.849 965.123,-297.795 965.481,-308.384 972.006,-305.849"/>
<text text-anchor="middle" x="1067" y="-575" font-family="FreeSans" font-size="10.00"> name_</text>
</g>
<!-- Node12&#45;&gt;Node12 -->
<g id="edge26" class="edge"><title>Node12&#45;&gt;Node12</title>
<path fill="none" stroke="#9a32cd" stroke-dasharray="5,2" d="M941.465,-307.427C942.972,-312.349 949.484,-316 961,-316 979.426,-316 985.04,-306.653 977.842,-297.708"/>
<polygon fill="#9a32cd" stroke="#9a32cd" points="944.861,-308.279 944.158,-297.708 938.115,-306.41 944.861,-308.279"/>
<text text-anchor="middle" x="961" y="-320" font-family="FreeSans" font-size="10.00"> EMPTY</text>
</g>
<!-- Node12&#45;&gt;Node16 -->
<g id="edge58" class="edge"><title>Node12&#45;&gt;Node16</title>
<path fill="none" stroke="#9a32cd" stroke-dasharray="5,2" d="M1015.34,-285.53C1199.59,-280.518 1791.38,-264.179 1832,-260 1845.08,-258.654 1859.12,-256.529 1872.16,-254.261"/>
<polygon fill="#9a32cd" stroke="#9a32cd" points="1014.98,-282.038 1005.08,-285.809 1015.17,-289.036 1014.98,-282.038"/>
<text text-anchor="middle" x="1407" y="-344" font-family="FreeSans" font-size="10.00"> lastShaderName_</text>
<text text-anchor="middle" x="1407" y="-331" font-family="FreeSans" font-size="10.00">windowTitle_</text>
<text text-anchor="middle" x="1407" y="-318" font-family="FreeSans" font-size="10.00">apiName_</text>
<text text-anchor="middle" x="1407" y="-305" font-family="FreeSans" font-size="10.00">shaderPath_</text>
<text text-anchor="middle" x="1407" y="-292" font-family="FreeSans" font-size="10.00">orientations_</text>
<text text-anchor="middle" x="1407" y="-279" font-family="FreeSans" font-size="10.00">shaderExtension_</text>
</g>
<!-- Node13 -->
<g id="node26" class="node"><title>Node13</title>
<a xlink:href="class_urho3_d_1_1_string_hash.html" target="_top" xlink:title="32&#45;bit hash value for a string.">
<polygon fill="none" stroke="black" points="904.5,-622.5 904.5,-643.5 1017.5,-643.5 1017.5,-622.5 904.5,-622.5"/>
<text text-anchor="middle" x="961" y="-630.5" font-family="FreeSans" font-size="10.00">Urho3D::StringHash</text>
</a>
</g>
<!-- Node13&#45;&gt;Node3 -->
<g id="edge28" class="edge"><title>Node13&#45;&gt;Node3</title>
<path fill="none" stroke="#9a32cd" stroke-dasharray="5,2" d="M1027.7,-626.802C1062.07,-623.609 1103.34,-619.773 1135.27,-616.807"/>
<polygon fill="#9a32cd" stroke="#9a32cd" points="1027.37,-623.318 1017.74,-627.728 1028.02,-630.288 1027.37,-623.318"/>
<text text-anchor="middle" x="1067" y="-629" font-family="FreeSans" font-size="10.00"> nameHash_</text>
</g>
<!-- Node13&#45;&gt;Node13 -->
<g id="edge30" class="edge"><title>Node13&#45;&gt;Node13</title>
<path fill="none" stroke="#9a32cd" stroke-dasharray="5,2" d="M941.465,-653.427C942.972,-658.349 949.484,-662 961,-662 979.426,-662 985.04,-652.653 977.842,-643.708"/>
<polygon fill="#9a32cd" stroke="#9a32cd" points="944.861,-654.279 944.158,-643.708 938.115,-652.41 944.861,-654.279"/>
<text text-anchor="middle" x="961" y="-666" font-family="FreeSans" font-size="10.00"> ZERO</text>
</g>
<!-- Node14 -->
<g id="node29" class="node"><title>Node14</title>
<a xlink:href="class_urho3_d_1_1_g_p_u_object.html" target="_top" xlink:title="Base class for GPU resources.">
<polygon fill="none" stroke="black" points="2346.5,-463.5 2346.5,-484.5 2457.5,-484.5 2457.5,-463.5 2346.5,-463.5"/>
<text text-anchor="middle" x="2402" y="-471.5" font-family="FreeSans" font-size="10.00">Urho3D::GPUObject</text>
</a>
</g>
<!-- Node14&#45;&gt;Node2 -->
<g id="edge32" class="edge"><title>Node14&#45;&gt;Node2</title>
<path fill="none" stroke="midnightblue" d="M2378.85,-490.3C2340.73,-515.489 2261.56,-561 2187,-561 1633,-561 1633,-561 1633,-561 1560.52,-561 1537.85,-565.294 1472,-535 1449.17,-524.497 1428,-503.689 1416.35,-490.895"/>
<polygon fill="midnightblue" stroke="midnightblue" points="2380.86,-493.161 2387.2,-484.668 2376.95,-487.358 2380.86,-493.161"/>
</g>
<!-- Node15&#45;&gt;Node14 -->
<g id="edge34" class="edge"><title>Node15&#45;&gt;Node14</title>
<path fill="none" stroke="#9a32cd" stroke-dasharray="5,2" d="M2210.11,-268.724C2256.58,-318.431 2359.63,-428.679 2392.04,-463.349"/>
<polygon fill="#9a32cd" stroke="#9a32cd" points="2212.55,-266.203 2203.16,-261.287 2207.43,-270.983 2212.55,-266.203"/>
<text text-anchor="middle" x="2303" y="-397" font-family="FreeSans" font-size="10.00"> graphics_</text>
</g>
<!-- Node16&#45;&gt;Node15 -->
<g id="edge36" class="edge"><title>Node16&#45;&gt;Node15</title>
<path fill="none" stroke="#9a32cd" stroke-dasharray="5,2" d="M1983.68,-244C2022.44,-244 2072.91,-244 2113.87,-244"/>
<polygon fill="#9a32cd" stroke="#9a32cd" points="1983.59,-240.5 1973.59,-244 1983.59,-247.5 1983.59,-240.5"/>
<text text-anchor="middle" x="2055" y="-248" font-family="FreeSans" font-size="10.00"> ptr_</text>
</g>
<!-- Node17&#45;&gt;Node16 -->
<g id="edge40" class="edge"><title>Node17&#45;&gt;Node16</title>
<path fill="none" stroke="#9a32cd" stroke-dasharray="5,2" d="M1707.54,-161.126C1745.75,-158.328 1792.45,-159.284 1832,-173 1867.02,-185.146 1898.95,-216.815 1913.97,-233.448"/>
<polygon fill="#9a32cd" stroke="#9a32cd" points="1707.19,-157.644 1697.51,-161.96 1707.77,-164.62 1707.19,-157.644"/>
<text text-anchor="middle" x="1774" y="-190" font-family="FreeSans" font-size="10.00"> depthStencil_</text>
<text text-anchor="middle" x="1774" y="-177" font-family="FreeSans" font-size="10.00">renderTargets_</text>
</g>
<!-- Node17&#45;&gt;Node18 -->
<g id="edge46" class="edge"><title>Node17&#45;&gt;Node18</title>
<path fill="none" stroke="#9a32cd" stroke-dasharray="5,2" d="M1642.59,-152.397C1655.51,-128.515 1680.99,-89.3361 1716,-73 1757.36,-53.7025 1808.63,-53.7979 1849.79,-58.794"/>
<polygon fill="#9a32cd" stroke="#9a32cd" points="1639.47,-150.809 1637.98,-161.297 1645.69,-154.032 1639.47,-150.809"/>
<text text-anchor="middle" x="1774" y="-77" font-family="FreeSans" font-size="10.00"> ptr_</text>
</g>
<!-- Node23 -->
<g id="node59" class="node"><title>Node23</title>
<a xlink:href="class_urho3_d_1_1_shared_ptr.html" target="_top" xlink:title="Urho3D::SharedPtr\&lt;\l Urho3D::RenderSurface \&gt;">
<polygon fill="none" stroke="black" points="1851.5,-306 1851.5,-340 1994.5,-340 1994.5,-306 1851.5,-306"/>
<text text-anchor="start" x="1859.5" y="-327" font-family="FreeSans" font-size="10.00">Urho3D::SharedPtr&lt;</text>
<text text-anchor="middle" x="1923" y="-314" font-family="FreeSans" font-size="10.00"> Urho3D::RenderSurface &gt;</text>
</a>
</g>
<!-- Node17&#45;&gt;Node23 -->
<g id="edge76" class="edge"><title>Node17&#45;&gt;Node23</title>
<path fill="none" stroke="#9a32cd" stroke-dasharray="5,2" d="M1662.52,-187.373C1717.06,-215.77 1833.22,-276.252 1890.16,-305.899"/>
<polygon fill="#9a32cd" stroke="#9a32cd" points="1663.88,-184.132 1653.39,-182.618 1660.65,-190.341 1663.88,-184.132"/>
<text text-anchor="middle" x="1774" y="-278" font-family="FreeSans" font-size="10.00"> ptr_</text>
</g>
<!-- Node18&#45;&gt;Node17 -->
<g id="edge44" class="edge"><title>Node18&#45;&gt;Node17</title>
<path fill="none" stroke="#9a32cd" stroke-dasharray="5,2" d="M1839.95,-87.9563C1792.59,-96.5585 1738.34,-107.687 1716,-117 1688.88,-128.309 1661.18,-148.852 1645.62,-161.378"/>
<polygon fill="#9a32cd" stroke="#9a32cd" points="1840.71,-91.375 1849.94,-86.1606 1839.47,-84.4855 1840.71,-91.375"/>
<text text-anchor="start" x="1726" y="-147" font-family="FreeSans" font-size="10.00"> linkedDepthStencil</text>
<text text-anchor="middle" x="1774" y="-134" font-family="FreeSans" font-size="10.00">_</text>
<text text-anchor="middle" x="1774" y="-121" font-family="FreeSans" font-size="10.00">linkedRenderTarget_</text>
</g>
<!-- Node19&#45;&gt;Node17 -->
<g id="edge52" class="edge"><title>Node19&#45;&gt;Node17</title>
<path fill="none" stroke="#9a32cd" stroke-dasharray="5,2" d="M536.194,-189.108C642.844,-182.655 813.404,-174 961,-174 961,-174 961,-174 1407,-174 1461.34,-174 1523.04,-173.415 1568.22,-172.877"/>
<polygon fill="#9a32cd" stroke="#9a32cd" points="535.844,-185.623 526.076,-189.725 536.27,-192.61 535.844,-185.623"/>
<text text-anchor="middle" x="1067" y="-178" font-family="FreeSans" font-size="10.00"> viewports_</text>
</g>
<!-- Node20&#45;&gt;Node2 -->
<g id="edge62" class="edge"><title>Node20&#45;&gt;Node2</title>
<path fill="none" stroke="#9a32cd" stroke-dasharray="5,2" d="M1564.88,-518.593C1535.9,-519.322 1501.96,-517.973 1472,-511 1454.71,-506.975 1436.6,-497.877 1423.9,-490.573"/>
<polygon fill="#9a32cd" stroke="#9a32cd" points="1565.03,-522.09 1574.9,-518.254 1564.79,-515.094 1565.03,-522.09"/>
<text text-anchor="middle" x="1511" y="-522" font-family="FreeSans" font-size="10.00"> backupTexture_</text>
</g>
<!-- Node21 -->
<g id="node53" class="node"><title>Node21</title>
<a xlink:href="class_urho3_d_1_1_color.html" target="_top" xlink:title="RGBA color.">
<polygon fill="none" stroke="black" points="1145,-400.5 1145,-421.5 1229,-421.5 1229,-400.5 1145,-400.5"/>
<text text-anchor="middle" x="1187" y="-408.5" font-family="FreeSans" font-size="10.00">Urho3D::Color</text>
</a>
</g>
<!-- Node21&#45;&gt;Node2 -->
<g id="edge66" class="edge"><title>Node21&#45;&gt;Node2</title>
<path fill="none" stroke="#9a32cd" stroke-dasharray="5,2" d="M1230.57,-424.665C1272.55,-437.833 1335.18,-457.475 1373.43,-469.471"/>
<polygon fill="#9a32cd" stroke="#9a32cd" points="1231.48,-421.283 1220.89,-421.63 1229.39,-427.962 1231.48,-421.283"/>
<text text-anchor="middle" x="1309" y="-463" font-family="FreeSans" font-size="10.00"> borderColor_</text>
</g>
<!-- Node21&#45;&gt;Node21 -->
<g id="edge68" class="edge"><title>Node21&#45;&gt;Node21</title>
<path fill="none" stroke="#9a32cd" stroke-dasharray="5,2" d="M1164.89,-431.427C1166.59,-436.349 1173.96,-440 1187,-440 1207.86,-440 1214.21,-430.653 1206.07,-421.708"/>
<polygon fill="#9a32cd" stroke="#9a32cd" points="1168.28,-432.297 1167.93,-421.708 1161.6,-430.202 1168.28,-432.297"/>
<text text-anchor="middle" x="1187" y="-574" font-family="FreeSans" font-size="10.00"> CYAN</text>
<text text-anchor="middle" x="1187" y="-561" font-family="FreeSans" font-size="10.00">GRAY</text>
<text text-anchor="middle" x="1187" y="-548" font-family="FreeSans" font-size="10.00">YELLOW</text>
<text text-anchor="middle" x="1187" y="-535" font-family="FreeSans" font-size="10.00">MAGENTA</text>
<text text-anchor="middle" x="1187" y="-522" font-family="FreeSans" font-size="10.00">WHITE</text>
<text text-anchor="middle" x="1187" y="-509" font-family="FreeSans" font-size="10.00">TRANSPARENT</text>
<text text-anchor="middle" x="1187" y="-496" font-family="FreeSans" font-size="10.00">BLUE</text>
<text text-anchor="middle" x="1187" y="-483" font-family="FreeSans" font-size="10.00">BLACK</text>
<text text-anchor="middle" x="1187" y="-470" font-family="FreeSans" font-size="10.00">RED</text>
<text text-anchor="middle" x="1187" y="-457" font-family="FreeSans" font-size="10.00">GREEN</text>
<text text-anchor="middle" x="1187" y="-444" font-family="FreeSans" font-size="10.00">...</text>
</g>
<!-- Node22&#45;&gt;Node1 -->
<g id="edge70" class="edge"><title>Node22&#45;&gt;Node1</title>
<path fill="none" stroke="#9a32cd" stroke-dasharray="5,2" d="M895.812,-361.808C1061.7,-365.201 1406.65,-373.784 1698,-391 1853,-400.159 2035.14,-417.057 2127.22,-426.033"/>
<polygon fill="#9a32cd" stroke="#9a32cd" points="895.699,-358.305 885.63,-361.602 895.557,-365.304 895.699,-358.305"/>
<text text-anchor="middle" x="1407" y="-382" font-family="FreeSans" font-size="10.00"> loadImages_</text>
</g>
<!-- Node23&#45;&gt;Node1 -->
<g id="edge74" class="edge"><title>Node23&#45;&gt;Node1</title>
<path fill="none" stroke="#9a32cd" stroke-dasharray="5,2" d="M2004.74,-342.024C2034.17,-350.184 2067.19,-360.891 2096,-374 2125.16,-387.269 2155.97,-408.69 2173.21,-421.452"/>
<polygon fill="#9a32cd" stroke="#9a32cd" points="2005.48,-338.598 1994.91,-339.355 2003.64,-345.354 2005.48,-338.598"/>
<text text-anchor="middle" x="2055" y="-378" font-family="FreeSans" font-size="10.00"> renderSurfaces_</text>
</g>
<!-- Node24 -->
<g id="node62" class="node"><title>Node24</title>
<a xlink:href="class_urho3_d_1_1_shared_ptr.html" target="_top" xlink:title="Urho3D::SharedPtr\&lt;\l Urho3D::XMLFile \&gt;">
<polygon fill="none" stroke="black" points="1716,-590 1716,-624 1832,-624 1832,-590 1716,-590"/>
<text text-anchor="start" x="1724" y="-611" font-family="FreeSans" font-size="10.00">Urho3D::SharedPtr&lt;</text>
<text text-anchor="middle" x="1774" y="-598" font-family="FreeSans" font-size="10.00"> Urho3D::XMLFile &gt;</text>
</a>
</g>
<!-- Node24&#45;&gt;Node1 -->
<g id="edge78" class="edge"><title>Node24&#45;&gt;Node1</title>
<path fill="none" stroke="#9a32cd" stroke-dasharray="5,2" d="M1829.72,-586.368C1894.41,-562.026 2004,-519.585 2096,-478 2121,-466.698 2149.09,-452.219 2167.36,-442.553"/>
<polygon fill="#9a32cd" stroke="#9a32cd" points="1828.25,-583.18 1820.12,-589.971 1830.71,-589.734 1828.25,-583.18"/>
<text text-anchor="middle" x="1923" y="-582" font-family="FreeSans" font-size="10.00"> loadParameters_</text>
</g>
<!-- Node25&#45;&gt;Node24 -->
<g id="edge80" class="edge"><title>Node25&#45;&gt;Node24</title>
<path fill="none" stroke="#9a32cd" stroke-dasharray="5,2" d="M1464.41,-608.687C1532.93,-608.314 1646.88,-607.693 1715.76,-607.317"/>
<polygon fill="#9a32cd" stroke="#9a32cd" points="1464.21,-605.188 1454.23,-608.743 1464.25,-612.188 1464.21,-605.188"/>
<text text-anchor="middle" x="1511" y="-612" font-family="FreeSans" font-size="10.00"> ptr_</text>
</g>
</g>
</svg>
