<?xml version="1.0" encoding="UTF-8" standalone="no"?>
<!DOCTYPE svg PUBLIC "-//W3C//DTD SVG 1.1//EN"
 "http://www.w3.org/Graphics/SVG/1.1/DTD/svg11.dtd">
<!-- Generated by graphviz version 2.26.3 (20100126.1600)
 -->
<!-- Title: Urho3D::DynamicNavigationMesh Pages: 1 -->
<!--zoomable 1080 -->
<svg id="main" version="1.1" xmlns="http://www.w3.org/2000/svg" xmlns:xlink="http://www.w3.org/1999/xlink" xml:space="preserve" onload="init(evt)">
        <defs>
                <circle id="rim" cx="0" cy="0" r="7"/>
                <circle id="rim2" cx="0" cy="0" r="3.5"/>
                <g id="zoomPlus">
                        <use xlink:href="#rim" fill="#404040">
                                <set attributeName="fill" to="#808080" begin="zoomplus.mouseover" end="zoomplus.mouseout"/>
                        </use>
                        <path d="M-4,0h8M0,-4v8" fill="none" stroke="white" stroke-width="1.5" pointer-events="none"/>
                </g>
                <g id="zoomMin">
                        <use xlink:href="#rim" fill="#404040">
                                <set attributeName="fill" to="#808080" begin="zoomminus.mouseover" end="zoomminus.mouseout"/>
                        </use>
                        <path d="M-4,0h8" fill="none" stroke="white" stroke-width="1.5" pointer-events="none"/>
                </g>
                <g id="dirArrow">
                        <path fill="none" stroke="white" stroke-width="1.5" d="M0,-3.0v7 M-2.5,-0.5L0,-3.0L2.5,-0.5"/>
                </g>
               <g id="resetDef">
                       <use xlink:href="#rim2" fill="#404040">
                               <set attributeName="fill" to="#808080" begin="reset.mouseover" end="reset.mouseout"/>
                       </use>
               </g>
        </defs>

<script type="text/javascript">
var viewWidth = 1628;
var viewHeight = 1080;
var sectionId = 'dynsection-1';
</script>
<script xlink:href="svgpan.js"/>
<svg id="graph" class="graph">
<g id="viewport">
<title>Urho3D::DynamicNavigationMesh</title>
<!-- Node1 -->
<g id="node1" class="node"><title>Node1</title>
<polygon fill="#bfbfbf" stroke="black" points="1442,-81.5 1442,-102.5 1620,-102.5 1620,-81.5 1442,-81.5"/>
<text text-anchor="middle" x="1531" y="-89.5" font-family="FreeSans" font-size="10.00">Urho3D::DynamicNavigationMesh</text>
</g>
<!-- Node2 -->
<g id="node2" class="node"><title>Node2</title>
<a xlink:href="class_urho3_d_1_1_navigation_mesh.html" target="_top" xlink:title="Navigation mesh component. Collects the navigation geometry from child nodes with the Navigable compo...">
<polygon fill="none" stroke="black" points="1268,-81.5 1268,-102.5 1404,-102.5 1404,-81.5 1268,-81.5"/>
<text text-anchor="middle" x="1336" y="-89.5" font-family="FreeSans" font-size="10.00">Urho3D::NavigationMesh</text>
</a>
</g>
<!-- Node2&#45;&gt;Node1 -->
<g id="edge2" class="edge"><title>Node2&#45;&gt;Node1</title>
<path fill="none" stroke="midnightblue" d="M1414.34,-92C1423.41,-92 1432.72,-92 1441.93,-92"/>
<polygon fill="midnightblue" stroke="midnightblue" points="1414.2,-88.5001 1404.2,-92 1414.2,-95.5001 1414.2,-88.5001"/>
</g>
<!-- Node3 -->
<g id="node4" class="node"><title>Node3</title>
<a xlink:href="class_urho3_d_1_1_component.html" target="_top" xlink:title="Base class for components. Components can be created to scene nodes.">
<polygon fill="none" stroke="black" points="1114,-564.5 1114,-585.5 1230,-585.5 1230,-564.5 1114,-564.5"/>
<text text-anchor="middle" x="1172" y="-572.5" font-family="FreeSans" font-size="10.00">Urho3D::Component</text>
</a>
</g>
<!-- Node3&#45;&gt;Node2 -->
<g id="edge4" class="edge"><title>Node3&#45;&gt;Node2</title>
<path fill="none" stroke="midnightblue" d="M1208.92,-559.388C1216.86,-554.524 1224.51,-548.435 1230,-541 1284.73,-466.912 1326.68,-163.523 1334.64,-102.661"/>
<polygon fill="midnightblue" stroke="midnightblue" points="1206.99,-556.46 1199.93,-564.365 1210.38,-562.584 1206.99,-556.46"/>
</g>
<!-- Node4 -->
<g id="node6" class="node"><title>Node4</title>
<a xlink:href="class_urho3_d_1_1_animatable.html" target="_top" xlink:title="Base class for animatable object, an animatable object can be set animation on it&#39;s attributes...">
<polygon fill="none" stroke="black" points="553,-937.5 553,-958.5 667,-958.5 667,-937.5 553,-937.5"/>
<text text-anchor="middle" x="610" y="-945.5" font-family="FreeSans" font-size="10.00">Urho3D::Animatable</text>
</a>
</g>
<!-- Node4&#45;&gt;Node3 -->
<g id="edge6" class="edge"><title>Node4&#45;&gt;Node3</title>
<path fill="none" stroke="midnightblue" d="M661.385,-960.742C759.324,-981.684 973.826,-1010.97 1096,-902 1145.15,-858.161 1166.75,-636.875 1171.14,-585.613"/>
<polygon fill="midnightblue" stroke="midnightblue" points="661.952,-957.283 651.434,-958.556 660.45,-964.12 661.952,-957.283"/>
</g>
<!-- Node10 -->
<g id="node18" class="node"><title>Node10</title>
<a xlink:href="class_urho3_d_1_1_node.html" target="_top" xlink:title="Scene node that may contain components and child nodes.">
<polygon fill="none" stroke="black" points="870.5,-528.5 870.5,-549.5 955.5,-549.5 955.5,-528.5 870.5,-528.5"/>
<text text-anchor="middle" x="913" y="-536.5" font-family="FreeSans" font-size="10.00">Urho3D::Node</text>
</a>
</g>
<!-- Node4&#45;&gt;Node10 -->
<g id="edge20" class="edge"><title>Node4&#45;&gt;Node10</title>
<path fill="none" stroke="midnightblue" d="M677.19,-937.724C746.632,-926.811 845.803,-910.286 852,-904 903.306,-851.957 911.598,-604.158 912.808,-549.629"/>
<polygon fill="midnightblue" stroke="midnightblue" points="676.513,-934.287 667.174,-939.291 677.595,-941.203 676.513,-934.287"/>
</g>
<!-- Node5 -->
<g id="node8" class="node"><title>Node5</title>
<a xlink:href="class_urho3_d_1_1_serializable.html" target="_top" xlink:title="Base class for objects with automatic serialization through attributes.">
<polygon fill="none" stroke="red" points="172,-998.5 172,-1019.5 286,-1019.5 286,-998.5 172,-998.5"/>
<text text-anchor="middle" x="229" y="-1006.5" font-family="FreeSans" font-size="10.00">Urho3D::Serializable</text>
</a>
</g>
<!-- Node5&#45;&gt;Node4 -->
<g id="edge8" class="edge"><title>Node5&#45;&gt;Node4</title>
<path fill="none" stroke="midnightblue" d="M296.024,-999.606C348.801,-992.058 424.19,-980.946 490,-970 511.207,-966.473 534.461,-962.284 554.806,-958.513"/>
<polygon fill="midnightblue" stroke="midnightblue" points="295.515,-996.143 286.11,-1001.02 296.504,-1003.07 295.515,-996.143"/>
</g>
<!-- Node6 -->
<g id="node10" class="node"><title>Node6</title>
<a xlink:href="class_urho3_d_1_1_object.html" target="_top" xlink:title="Base class for objects with type identification, subsystem access and event sending/receiving capabil...">
<polygon fill="none" stroke="red" points="0,-618.5 0,-639.5 90,-639.5 90,-618.5 0,-618.5"/>
<text text-anchor="middle" x="45" y="-626.5" font-family="FreeSans" font-size="10.00">Urho3D::Object</text>
</a>
</g>
<!-- Node6&#45;&gt;Node5 -->
<g id="edge10" class="edge"><title>Node6&#45;&gt;Node5</title>
<path fill="none" stroke="midnightblue" d="M46.8486,-649.565C53.4828,-718.67 78.3768,-940.897 128,-989 139.68,-1000.32 155.818,-1006.12 171.769,-1008.89"/>
<polygon fill="midnightblue" stroke="midnightblue" points="50.3238,-649.135 45.9092,-639.504 43.3541,-649.786 50.3238,-649.135"/>
</g>
<!-- Node22 -->
<g id="node51" class="node"><title>Node22</title>
<a xlink:href="class_urho3_d_1_1_connection.html" target="_top" xlink:title="Connection to a remote network host.">
<polygon fill="none" stroke="red" points="553.5,-481.5 553.5,-502.5 666.5,-502.5 666.5,-481.5 553.5,-481.5"/>
<text text-anchor="middle" x="610" y="-489.5" font-family="FreeSans" font-size="10.00">Urho3D::Connection</text>
</a>
</g>
<!-- Node6&#45;&gt;Node22 -->
<g id="edge62" class="edge"><title>Node6&#45;&gt;Node22</title>
<path fill="none" stroke="midnightblue" d="M54.3349,-609.228C67.1262,-584.643 92.6135,-543.644 128,-525 200.352,-486.88 442.144,-487.686 553.265,-490.235"/>
<polygon fill="midnightblue" stroke="midnightblue" points="51.114,-607.844 49.7781,-618.354 57.3768,-610.971 51.114,-607.844"/>
</g>
<!-- Node7 -->
<g id="node12" class="node"><title>Node7</title>
<a xlink:href="class_urho3_d_1_1_hash_map.html" target="_top" xlink:title="Urho3D::HashMap\&lt; Urho3D\l::String, Urho3D::SharedPtr\l\&lt; Urho3D::AttributeAnimationInfo \&gt; \&gt;">
<polygon fill="none" stroke="red" points="128.5,-932.5 128.5,-979.5 329.5,-979.5 329.5,-932.5 128.5,-932.5"/>
<text text-anchor="start" x="136.5" y="-966.5" font-family="FreeSans" font-size="10.00">Urho3D::HashMap&lt; Urho3D</text>
<text text-anchor="start" x="136.5" y="-953.5" font-family="FreeSans" font-size="10.00">::String, Urho3D::SharedPtr</text>
<text text-anchor="middle" x="229" y="-940.5" font-family="FreeSans" font-size="10.00">&lt; Urho3D::AttributeAnimationInfo &gt; &gt;</text>
</a>
</g>
<!-- Node7&#45;&gt;Node4 -->
<g id="edge12" class="edge"><title>Node7&#45;&gt;Node4</title>
<path fill="none" stroke="#9a32cd" stroke-dasharray="5,2" d="M339.769,-953.674C409.579,-952.208 496.818,-950.377 552.967,-949.198"/>
<polygon fill="#9a32cd" stroke="#9a32cd" points="339.526,-950.178 329.602,-953.888 339.673,-957.177 339.526,-950.178"/>
<text text-anchor="middle" x="419" y="-957" font-family="FreeSans" font-size="10.00"> attributeAnimationInfos_</text>
</g>
<!-- Node8 -->
<g id="node14" class="node"><title>Node8</title>
<a xlink:href="class_urho3_d_1_1_shared_ptr.html" target="_top" xlink:title="Urho3D::SharedPtr\&lt;\l Urho3D::ObjectAnimation \&gt;">
<polygon fill="none" stroke="red" points="152.5,-880 152.5,-914 305.5,-914 305.5,-880 152.5,-880"/>
<text text-anchor="start" x="160.5" y="-901" font-family="FreeSans" font-size="10.00">Urho3D::SharedPtr&lt;</text>
<text text-anchor="middle" x="229" y="-888" font-family="FreeSans" font-size="10.00"> Urho3D::ObjectAnimation &gt;</text>
</a>
</g>
<!-- Node8&#45;&gt;Node4 -->
<g id="edge14" class="edge"><title>Node8&#45;&gt;Node4</title>
<path fill="none" stroke="#9a32cd" stroke-dasharray="5,2" d="M315.689,-908.604C388.297,-918.323 489.871,-931.92 552.716,-940.332"/>
<polygon fill="#9a32cd" stroke="#9a32cd" points="316.019,-905.117 305.643,-907.259 315.09,-912.055 316.019,-905.117"/>
<text text-anchor="middle" x="419" y="-935" font-family="FreeSans" font-size="10.00"> objectAnimation_</text>
</g>
<!-- Node9 -->
<g id="node16" class="node"><title>Node9</title>
<a xlink:href="class_urho3_d_1_1_hash_set.html" target="_top" xlink:title="Urho3D::HashSet\&lt; const\l Urho3D::AttributeInfo * \&gt;">
<polygon fill="none" stroke="red" points="158.5,-1038 158.5,-1072 299.5,-1072 299.5,-1038 158.5,-1038"/>
<text text-anchor="start" x="166.5" y="-1059" font-family="FreeSans" font-size="10.00">Urho3D::HashSet&lt; const</text>
<text text-anchor="middle" x="229" y="-1046" font-family="FreeSans" font-size="10.00"> Urho3D::AttributeInfo * &gt;</text>
</a>
</g>
<!-- Node9&#45;&gt;Node4 -->
<g id="edge16" class="edge"><title>Node9&#45;&gt;Node4</title>
<path fill="none" stroke="#9a32cd" stroke-dasharray="5,2" d="M309.376,-1039.72C361.402,-1029.05 430.322,-1013.44 490,-995 523.99,-984.499 562.049,-968.912 586.011,-958.607"/>
<polygon fill="#9a32cd" stroke="#9a32cd" points="308.636,-1036.3 299.534,-1041.72 310.031,-1043.16 308.636,-1036.3"/>
<text text-anchor="middle" x="419" y="-1035" font-family="FreeSans" font-size="10.00"> animatedNetworkAttributes_</text>
</g>
<!-- Node10&#45;&gt;Node3 -->
<g id="edge18" class="edge"><title>Node10&#45;&gt;Node3</title>
<path fill="none" stroke="#9a32cd" stroke-dasharray="5,2" d="M965.43,-550.505C968.324,-551.036 971.195,-551.539 974,-552 1020.78,-559.685 1074.2,-565.731 1113.75,-569.692"/>
<polygon fill="#9a32cd" stroke="#9a32cd" points="966.045,-547.059 955.564,-548.606 964.722,-553.933 966.045,-547.059"/>
<text text-anchor="middle" x="1035" y="-572" font-family="FreeSans" font-size="10.00"> node_</text>
</g>
<!-- Node10&#45;&gt;Node10 -->
<g id="edge52" class="edge"><title>Node10&#45;&gt;Node10</title>
<path fill="none" stroke="#9a32cd" stroke-dasharray="5,2" d="M890.517,-559.427C892.251,-564.349 899.746,-568 913,-568 934.207,-568 940.669,-558.653 932.385,-549.708"/>
<polygon fill="#9a32cd" stroke="#9a32cd" points="893.912,-560.299 893.615,-549.708 887.243,-558.172 893.912,-560.299"/>
<text text-anchor="middle" x="913" y="-572" font-family="FreeSans" font-size="10.00"> parent_</text>
</g>
<!-- Node12 -->
<g id="node23" class="node"><title>Node12</title>
<a xlink:href="class_urho3_d_1_1_scene.html" target="_top" xlink:title="Root scene node, represents the whole scene.">
<polygon fill="none" stroke="red" points="1127.5,-510.5 1127.5,-531.5 1216.5,-531.5 1216.5,-510.5 1127.5,-510.5"/>
<text text-anchor="middle" x="1172" y="-518.5" font-family="FreeSans" font-size="10.00">Urho3D::Scene</text>
</a>
</g>
<!-- Node10&#45;&gt;Node12 -->
<g id="edge26" class="edge"><title>Node10&#45;&gt;Node12</title>
<path fill="none" stroke="midnightblue" d="M957.18,-526.052C962.8,-524.808 968.506,-523.737 974,-523 1026.3,-515.986 1087.07,-516.665 1127.35,-518.332"/>
<polygon fill="midnightblue" stroke="midnightblue" points="956.128,-522.705 947.222,-528.444 957.763,-529.512 956.128,-522.705"/>
</g>
<!-- Node11 -->
<g id="node21" class="node"><title>Node11</title>
<a xlink:href="class_urho3_d_1_1_p_o_d_vector.html" target="_top" xlink:title="Urho3D::PODVector\&lt;\l Urho3D::Node * \&gt;">
<polygon fill="none" stroke="red" points="550.5,-367 550.5,-401 669.5,-401 669.5,-367 550.5,-367"/>
<text text-anchor="start" x="558.5" y="-388" font-family="FreeSans" font-size="10.00">Urho3D::PODVector&lt;</text>
<text text-anchor="middle" x="610" y="-375" font-family="FreeSans" font-size="10.00"> Urho3D::Node * &gt;</text>
</a>
</g>
<!-- Node11&#45;&gt;Node10 -->
<g id="edge22" class="edge"><title>Node11&#45;&gt;Node10</title>
<path fill="none" stroke="#9a32cd" stroke-dasharray="5,2" d="M679.802,-374.339C731.9,-370.915 802.36,-374.707 852,-410 892.987,-439.141 907.328,-503.181 911.509,-528.449"/>
<polygon fill="#9a32cd" stroke="#9a32cd" points="679.344,-370.864 669.639,-375.113 679.875,-377.843 679.344,-370.864"/>
<text text-anchor="middle" x="791" y="-414" font-family="FreeSans" font-size="10.00"> dependencyNodes_</text>
</g>
<!-- Node12&#45;&gt;Node10 -->
<g id="edge24" class="edge"><title>Node12&#45;&gt;Node10</title>
<path fill="none" stroke="#9a32cd" stroke-dasharray="5,2" d="M1117.19,-524.809C1069.03,-528.156 999.941,-532.958 955.769,-536.028"/>
<polygon fill="#9a32cd" stroke="#9a32cd" points="1117.7,-528.282 1127.43,-524.098 1117.21,-521.299 1117.7,-528.282"/>
<text text-anchor="middle" x="1035" y="-539" font-family="FreeSans" font-size="10.00"> scene_</text>
</g>
<!-- Node13 -->
<g id="node26" class="node"><title>Node13</title>
<a xlink:href="class_urho3_d_1_1_hash_map.html" target="_top" xlink:title="Urho3D::HashMap\&lt; StringHash,\l Variant \&gt;">
<polygon fill="none" stroke="red" points="143,-778 143,-812 315,-812 315,-778 143,-778"/>
<text text-anchor="start" x="151" y="-799" font-family="FreeSans" font-size="10.00">Urho3D::HashMap&lt; StringHash,</text>
<text text-anchor="middle" x="229" y="-786" font-family="FreeSans" font-size="10.00"> Variant &gt;</text>
</a>
</g>
<!-- Node13&#45;&gt;Node10 -->
<g id="edge48" class="edge"><title>Node13&#45;&gt;Node10</title>
<path fill="none" stroke="#9a32cd" stroke-dasharray="5,2" d="M325.115,-798.029C481.143,-800.762 779.451,-796.19 852,-725 878.136,-699.353 903.496,-585.082 910.865,-549.567"/>
<polygon fill="#9a32cd" stroke="#9a32cd" points="325.111,-794.529 315.047,-797.839 324.979,-801.527 325.111,-794.529"/>
<text text-anchor="middle" x="610" y="-800" font-family="FreeSans" font-size="10.00"> vars_</text>
</g>
<!-- Node13&#45;&gt;Node12 -->
<g id="edge28" class="edge"><title>Node13&#45;&gt;Node12</title>
<path fill="none" stroke="#9a32cd" stroke-dasharray="5,2" d="M274.809,-816.003C381.683,-861.751 653.487,-959.115 852,-866 1001.75,-795.76 998.859,-718.869 1096,-585 1105.13,-572.415 1102.95,-565.939 1114,-555 1123.79,-545.311 1136.88,-537.33 1148.14,-531.541"/>
<polygon fill="#9a32cd" stroke="#9a32cd" points="276.157,-812.773 265.59,-812.008 273.374,-819.196 276.157,-812.773"/>
<text text-anchor="middle" x="791" y="-903" font-family="FreeSans" font-size="10.00"> smoothingData_</text>
</g>
<!-- Node13&#45;&gt;Node22 -->
<g id="edge70" class="edge"><title>Node13&#45;&gt;Node22</title>
<path fill="none" stroke="#9a32cd" stroke-dasharray="5,2" d="M257.796,-771.385C308.292,-729.154 414.601,-636.517 490,-545 499.407,-533.582 495.959,-525.595 508,-517 521.208,-507.573 537.56,-501.679 553.274,-498.001"/>
<polygon fill="#9a32cd" stroke="#9a32cd" points="255.343,-768.873 249.897,-777.961 259.822,-774.253 255.343,-768.873"/>
<text text-anchor="middle" x="419" y="-691" font-family="FreeSans" font-size="10.00"> identity_</text>
</g>
<!-- Node14 -->
<g id="node28" class="node"><title>Node14</title>
<a xlink:href="class_urho3_d_1_1_string.html" target="_top" xlink:title="String class.">
<polygon fill="none" stroke="black" points="185,-262.5 185,-283.5 273,-283.5 273,-262.5 185,-262.5"/>
<text text-anchor="middle" x="229" y="-270.5" font-family="FreeSans" font-size="10.00">Urho3D::String</text>
</a>
</g>
<!-- Node14&#45;&gt;Node2 -->
<g id="edge88" class="edge"><title>Node14&#45;&gt;Node2</title>
<path fill="none" stroke="#9a32cd" stroke-dasharray="5,2" d="M282.905,-262.507C298.9,-257.841 315.897,-251.24 330,-242 340.282,-235.263 338.101,-228.288 348,-221 410.362,-175.084 433.401,-172.789 508,-152 552.079,-139.716 564.242,-138 610,-138 610,-138 610,-138 1172,-138 1224.19,-138 1282.37,-116.134 1313.48,-102.553"/>
<polygon fill="#9a32cd" stroke="#9a32cd" points="281.843,-259.169 273.111,-265.169 283.679,-265.924 281.843,-259.169"/>
<text text-anchor="middle" x="913" y="-142" font-family="FreeSans" font-size="10.00"> meshName_</text>
</g>
<!-- Node14&#45;&gt;Node10 -->
<g id="edge50" class="edge"><title>Node14&#45;&gt;Node10</title>
<path fill="none" stroke="#9a32cd" stroke-dasharray="5,2" d="M283.186,-268.606C419.074,-258.816 769.374,-241.563 852,-316 884.728,-345.485 906.178,-488.351 911.629,-528.491"/>
<polygon fill="#9a32cd" stroke="#9a32cd" points="282.727,-265.13 273.011,-269.354 283.24,-272.111 282.727,-265.13"/>
<text text-anchor="middle" x="610" y="-274" font-family="FreeSans" font-size="10.00"> name_</text>
</g>
<!-- Node14&#45;&gt;Node12 -->
<g id="edge30" class="edge"><title>Node14&#45;&gt;Node12</title>
<path fill="none" stroke="#9a32cd" stroke-dasharray="5,2" d="M278.072,-259.975C385.863,-233.846 649.799,-183.541 852,-257 1001.26,-311.227 1130.8,-467.897 1163.86,-510.306"/>
<polygon fill="#9a32cd" stroke="#9a32cd" points="277.008,-256.632 268.136,-262.423 278.683,-263.429 277.008,-256.632"/>
<text text-anchor="middle" x="791" y="-261" font-family="FreeSans" font-size="10.00"> fileName_</text>
</g>
<!-- Node14&#45;&gt;Node14 -->
<g id="edge32" class="edge"><title>Node14&#45;&gt;Node14</title>
<path fill="none" stroke="#9a32cd" stroke-dasharray="5,2" d="M206.885,-293.427C208.591,-298.349 215.963,-302 229,-302 249.859,-302 256.215,-292.653 248.067,-283.708"/>
<polygon fill="#9a32cd" stroke="#9a32cd" points="210.28,-294.297 209.933,-283.708 203.601,-292.202 210.28,-294.297"/>
<text text-anchor="middle" x="229" y="-306" font-family="FreeSans" font-size="10.00"> EMPTY</text>
</g>
<!-- Node14&#45;&gt;Node22 -->
<g id="edge72" class="edge"><title>Node14&#45;&gt;Node22</title>
<path fill="none" stroke="#9a32cd" stroke-dasharray="5,2" d="M253.22,-289.155C276.942,-304.714 314.329,-328.541 348,-347 409.359,-380.637 443.403,-362.797 490,-415 506.286,-433.245 489.922,-450.528 508,-467 520.399,-478.297 537.059,-484.704 553.317,-488.275"/>
<polygon fill="#9a32cd" stroke="#9a32cd" points="255.109,-286.208 244.834,-283.625 251.256,-292.052 255.109,-286.208"/>
<text text-anchor="middle" x="419" y="-432" font-family="FreeSans" font-size="10.00"> sceneFileName_</text>
<text text-anchor="middle" x="419" y="-419" font-family="FreeSans" font-size="10.00">address_</text>
</g>
<!-- Node15 -->
<g id="node31" class="node"><title>Node15</title>
<a xlink:href="class_urho3_d_1_1_quaternion.html" target="_top" xlink:title="Rotation represented as a four&#45;dimensional normalized vector.">
<polygon fill="none" stroke="black" points="172.5,-414.5 172.5,-435.5 285.5,-435.5 285.5,-414.5 172.5,-414.5"/>
<text text-anchor="middle" x="229" y="-422.5" font-family="FreeSans" font-size="10.00">Urho3D::Quaternion</text>
</a>
</g>
<!-- Node15&#45;&gt;Node10 -->
<g id="edge34" class="edge"><title>Node15&#45;&gt;Node10</title>
<path fill="none" stroke="#9a32cd" stroke-dasharray="5,2" d="M295.881,-422.308C389.68,-419.796 565.275,-419.721 712,-446 776.334,-457.522 794.297,-460.308 852,-491 871.274,-501.252 890.582,-517.75 902.162,-528.484"/>
<polygon fill="#9a32cd" stroke="#9a32cd" points="295.578,-418.815 285.682,-422.599 295.778,-425.812 295.578,-418.815"/>
<text text-anchor="middle" x="610" y="-463" font-family="FreeSans" font-size="10.00"> worldRotation_</text>
<text text-anchor="middle" x="610" y="-450" font-family="FreeSans" font-size="10.00">rotation_</text>
</g>
<!-- Node15&#45;&gt;Node15 -->
<g id="edge36" class="edge"><title>Node15&#45;&gt;Node15</title>
<path fill="none" stroke="#9a32cd" stroke-dasharray="5,2" d="M206.885,-445.427C208.591,-450.349 215.963,-454 229,-454 249.859,-454 256.215,-444.653 248.067,-435.708"/>
<polygon fill="#9a32cd" stroke="#9a32cd" points="210.28,-446.297 209.933,-435.708 203.601,-444.202 210.28,-446.297"/>
<text text-anchor="middle" x="229" y="-458" font-family="FreeSans" font-size="10.00"> IDENTITY</text>
</g>
<!-- Node15&#45;&gt;Node22 -->
<g id="edge64" class="edge"><title>Node15&#45;&gt;Node22</title>
<path fill="none" stroke="#9a32cd" stroke-dasharray="5,2" d="M295.491,-436.247C312.598,-439.121 330.98,-442.191 348,-445 411.081,-455.409 427.088,-456.618 490,-468 512.893,-472.142 538.156,-477.131 559.574,-481.486"/>
<polygon fill="#9a32cd" stroke="#9a32cd" points="296.028,-432.788 285.586,-434.581 294.867,-439.691 296.028,-432.788"/>
<text text-anchor="middle" x="419" y="-472" font-family="FreeSans" font-size="10.00"> rotation_</text>
</g>
<!-- Node16 -->
<g id="node34" class="node"><title>Node16</title>
<a xlink:href="class_urho3_d_1_1_vector.html" target="_top" xlink:title="Urho3D::Vector\&lt; Urho3D\l::WeakPtr\&lt; Urho3D::Component \&gt; \&gt;">
<polygon fill="none" stroke="red" points="513,-315 513,-349 707,-349 707,-315 513,-315"/>
<text text-anchor="start" x="521" y="-336" font-family="FreeSans" font-size="10.00">Urho3D::Vector&lt; Urho3D</text>
<text text-anchor="middle" x="610" y="-323" font-family="FreeSans" font-size="10.00">::WeakPtr&lt; Urho3D::Component &gt; &gt;</text>
</a>
</g>
<!-- Node16&#45;&gt;Node10 -->
<g id="edge38" class="edge"><title>Node16&#45;&gt;Node10</title>
<path fill="none" stroke="#9a32cd" stroke-dasharray="5,2" d="M717.079,-319.294C763.071,-319.512 814.699,-328.059 852,-358 879.799,-380.314 903.93,-492.814 910.946,-528.276"/>
<polygon fill="#9a32cd" stroke="#9a32cd" points="717.025,-315.795 707.053,-319.376 717.082,-322.794 717.025,-315.795"/>
<text text-anchor="middle" x="791" y="-362" font-family="FreeSans" font-size="10.00"> listeners_</text>
</g>
<!-- Node17 -->
<g id="node36" class="node"><title>Node17</title>
<a xlink:href="class_urho3_d_1_1_vector_buffer.html" target="_top" xlink:title="Dynamically sized buffer that can be read and written to as a stream.">
<polygon fill="none" stroke="red" points="169.5,-534.5 169.5,-555.5 288.5,-555.5 288.5,-534.5 169.5,-534.5"/>
<text text-anchor="middle" x="229" y="-542.5" font-family="FreeSans" font-size="10.00">Urho3D::VectorBuffer</text>
</a>
</g>
<!-- Node17&#45;&gt;Node10 -->
<g id="edge40" class="edge"><title>Node17&#45;&gt;Node10</title>
<path fill="none" stroke="#9a32cd" stroke-dasharray="5,2" d="M298.771,-544.388C439.978,-543.149 755.917,-540.378 870.477,-539.373"/>
<polygon fill="#9a32cd" stroke="#9a32cd" points="298.473,-540.89 288.504,-544.478 298.534,-547.89 298.473,-540.89"/>
<text text-anchor="middle" x="610" y="-547" font-family="FreeSans" font-size="10.00"> attrBuffer_</text>
</g>
<!-- Node17&#45;&gt;Node22 -->
<g id="edge66" class="edge"><title>Node17&#45;&gt;Node22</title>
<path fill="none" stroke="#9a32cd" stroke-dasharray="5,2" d="M298.577,-535.321C371.747,-525.143 485.489,-509.32 553.372,-499.877"/>
<polygon fill="#9a32cd" stroke="#9a32cd" points="297.954,-531.874 288.531,-536.719 298.918,-538.807 297.954,-531.874"/>
<text text-anchor="middle" x="419" y="-532" font-family="FreeSans" font-size="10.00"> msg_</text>
</g>
<!-- Node18 -->
<g id="node38" class="node"><title>Node18</title>
<a xlink:href="class_urho3_d_1_1_vector.html" target="_top" xlink:title="Urho3D::Vector\&lt; Urho3D\l::SharedPtr\&lt; Urho3D::Component \&gt; \&gt;">
<polygon fill="none" stroke="red" points="508.5,-826 508.5,-860 711.5,-860 711.5,-826 508.5,-826"/>
<text text-anchor="start" x="516.5" y="-847" font-family="FreeSans" font-size="10.00">Urho3D::Vector&lt; Urho3D</text>
<text text-anchor="middle" x="610" y="-834" font-family="FreeSans" font-size="10.00">::SharedPtr&lt; Urho3D::Component &gt; &gt;</text>
</a>
</g>
<!-- Node18&#45;&gt;Node10 -->
<g id="edge42" class="edge"><title>Node18&#45;&gt;Node10</title>
<path fill="none" stroke="#9a32cd" stroke-dasharray="5,2" d="M721.784,-853.325C767.376,-851.499 817.395,-840.858 852,-809 891.333,-772.789 908.374,-595.564 912.16,-549.8"/>
<polygon fill="#9a32cd" stroke="#9a32cd" points="721.429,-849.833 711.524,-853.594 721.612,-856.831 721.429,-849.833"/>
<text text-anchor="middle" x="791" y="-856" font-family="FreeSans" font-size="10.00"> components_</text>
</g>
<!-- Node19 -->
<g id="node40" class="node"><title>Node19</title>
<a xlink:href="class_urho3_d_1_1_vector3.html" target="_top" xlink:title="Three&#45;dimensional vector.">
<polygon fill="none" stroke="black" points="181,-89.5 181,-110.5 277,-110.5 277,-89.5 181,-89.5"/>
<text text-anchor="middle" x="229" y="-97.5" font-family="FreeSans" font-size="10.00">Urho3D::Vector3</text>
</a>
</g>
<!-- Node19&#45;&gt;Node2 -->
<g id="edge78" class="edge"><title>Node19&#45;&gt;Node2</title>
<path fill="none" stroke="#9a32cd" stroke-dasharray="5,2" d="M261.357,-85.4654C326.14,-57.7331 476.979,-0 610,-0 610,-0 610,-0 1172,-0 1237.95,-0 1301.93,-57.281 1325.99,-81.4464"/>
<polygon fill="#9a32cd" stroke="#9a32cd" points="259.859,-82.3001 252.074,-89.4873 262.642,-88.7231 259.859,-82.3001"/>
<text text-anchor="middle" x="913" y="-4" font-family="FreeSans" font-size="10.00"> padding_</text>
</g>
<!-- Node19&#45;&gt;Node10 -->
<g id="edge44" class="edge"><title>Node19&#45;&gt;Node10</title>
<path fill="none" stroke="#9a32cd" stroke-dasharray="5,2" d="M287.068,-108.999C437.907,-132.614 831.869,-195.921 852,-216 897.556,-261.439 910.186,-477.447 912.549,-528.273"/>
<polygon fill="#9a32cd" stroke="#9a32cd" points="287.483,-105.521 277.063,-107.435 286.402,-112.437 287.483,-105.521"/>
<text text-anchor="middle" x="610" y="-197" font-family="FreeSans" font-size="10.00"> scale_</text>
<text text-anchor="middle" x="610" y="-184" font-family="FreeSans" font-size="10.00">position_</text>
</g>
<!-- Node19&#45;&gt;Node19 -->
<g id="edge46" class="edge"><title>Node19&#45;&gt;Node19</title>
<path fill="none" stroke="#9a32cd" stroke-dasharray="5,2" d="M206.885,-120.427C208.591,-125.349 215.963,-129 229,-129 249.859,-129 256.215,-119.653 248.067,-110.708"/>
<polygon fill="#9a32cd" stroke="#9a32cd" points="210.28,-121.297 209.933,-110.708 203.601,-119.202 210.28,-121.297"/>
<text text-anchor="middle" x="229" y="-224" font-family="FreeSans" font-size="10.00"> ONE</text>
<text text-anchor="middle" x="229" y="-211" font-family="FreeSans" font-size="10.00">DOWN</text>
<text text-anchor="middle" x="229" y="-198" font-family="FreeSans" font-size="10.00">BACK</text>
<text text-anchor="middle" x="229" y="-185" font-family="FreeSans" font-size="10.00">RIGHT</text>
<text text-anchor="middle" x="229" y="-172" font-family="FreeSans" font-size="10.00">LEFT</text>
<text text-anchor="middle" x="229" y="-159" font-family="FreeSans" font-size="10.00">ZERO</text>
<text text-anchor="middle" x="229" y="-146" font-family="FreeSans" font-size="10.00">FORWARD</text>
<text text-anchor="middle" x="229" y="-133" font-family="FreeSans" font-size="10.00">UP</text>
</g>
<!-- Node19&#45;&gt;Node22 -->
<g id="edge68" class="edge"><title>Node19&#45;&gt;Node22</title>
<path fill="none" stroke="#9a32cd" stroke-dasharray="5,2" d="M250.074,-117.115C309.506,-165.58 475.112,-302.058 490,-330 518.877,-384.199 467.021,-421.259 508,-467 519.558,-479.901 536.584,-486.67 553.428,-490.081"/>
<polygon fill="#9a32cd" stroke="#9a32cd" points="252.07,-114.227 242.106,-110.627 247.65,-119.655 252.07,-114.227"/>
<text text-anchor="middle" x="419" y="-334" font-family="FreeSans" font-size="10.00"> position_</text>
</g>
<!-- Node24 -->
<g id="node63" class="node"><title>Node24</title>
<a xlink:title="Temporary data for finding a path.">
<polygon fill="none" stroke="#bfbfbf" points="730,-85.5 730,-106.5 852,-106.5 852,-85.5 730,-85.5"/>
<text text-anchor="middle" x="791" y="-93.5" font-family="FreeSans" font-size="10.00">Urho3D::FindPathData</text>
</a>
</g>
<!-- Node19&#45;&gt;Node24 -->
<g id="edge82" class="edge"><title>Node19&#45;&gt;Node24</title>
<path fill="none" stroke="#9a32cd" stroke-dasharray="5,2" d="M287.7,-99.5822C394.838,-98.8197 621.047,-97.2096 729.92,-96.4347"/>
<polygon fill="#9a32cd" stroke="#9a32cd" points="287.377,-96.0843 277.402,-99.6555 287.427,-103.084 287.377,-96.0843"/>
<text text-anchor="middle" x="419" y="-104" font-family="FreeSans" font-size="10.00"> pathPoints_</text>
</g>
<!-- Node25 -->
<g id="node66" class="node"><title>Node25</title>
<a xlink:href="class_urho3_d_1_1_bounding_box.html" target="_top" xlink:title="Three&#45;dimensional axis&#45;aligned bounding box.">
<polygon fill="none" stroke="black" points="974,-37.5 974,-58.5 1096,-58.5 1096,-37.5 974,-37.5"/>
<text text-anchor="middle" x="1035" y="-45.5" font-family="FreeSans" font-size="10.00">Urho3D::BoundingBox</text>
</a>
</g>
<!-- Node19&#45;&gt;Node25 -->
<g id="edge86" class="edge"><title>Node19&#45;&gt;Node25</title>
<path fill="none" stroke="#9a32cd" stroke-dasharray="5,2" d="M287.417,-91.6819C343.772,-83.9913 431.545,-72.8899 508,-67 676.187,-54.0434 875.266,-49.8951 973.648,-48.5876"/>
<polygon fill="#9a32cd" stroke="#9a32cd" points="286.7,-88.2475 277.269,-93.0762 287.653,-95.1823 286.7,-88.2475"/>
<text text-anchor="middle" x="610" y="-84" font-family="FreeSans" font-size="10.00"> max_</text>
<text text-anchor="middle" x="610" y="-71" font-family="FreeSans" font-size="10.00">min_</text>
</g>
<!-- Node20 -->
<g id="node46" class="node"><title>Node20</title>
<a xlink:href="class_urho3_d_1_1_string_hash.html" target="_top" xlink:title="32&#45;bit hash value for a string.">
<polygon fill="none" stroke="black" points="553.5,-706.5 553.5,-727.5 666.5,-727.5 666.5,-706.5 553.5,-706.5"/>
<text text-anchor="middle" x="610" y="-714.5" font-family="FreeSans" font-size="10.00">Urho3D::StringHash</text>
</a>
</g>
<!-- Node20&#45;&gt;Node10 -->
<g id="edge54" class="edge"><title>Node20&#45;&gt;Node10</title>
<path fill="none" stroke="#9a32cd" stroke-dasharray="5,2" d="M677.024,-715.59C729.862,-711.186 802.622,-697.422 852,-657 887.511,-627.93 904.674,-572.752 910.556,-549.621"/>
<polygon fill="#9a32cd" stroke="#9a32cd" points="676.45,-712.123 666.735,-716.351 676.966,-719.104 676.45,-712.123"/>
<text text-anchor="middle" x="791" y="-712" font-family="FreeSans" font-size="10.00"> nameHash_</text>
</g>
<!-- Node20&#45;&gt;Node20 -->
<g id="edge56" class="edge"><title>Node20&#45;&gt;Node20</title>
<path fill="none" stroke="#9a32cd" stroke-dasharray="5,2" d="M576.508,-736.679C578.302,-741.975 589.467,-746 610,-746 641.289,-746 650.822,-736.653 638.6,-727.708"/>
<polygon fill="#9a32cd" stroke="#9a32cd" points="579.685,-738.163 581.4,-727.708 573.539,-734.812 579.685,-738.163"/>
<text text-anchor="middle" x="610" y="-750" font-family="FreeSans" font-size="10.00"> ZERO</text>
</g>
<!-- Node21 -->
<g id="node49" class="node"><title>Node21</title>
<a xlink:href="class_urho3_d_1_1_vector.html" target="_top" xlink:title="Urho3D::Vector\&lt; Urho3D\l::SharedPtr\&lt; Urho3D::Node \&gt; \&gt;">
<polygon fill="none" stroke="red" points="523.5,-654 523.5,-688 696.5,-688 696.5,-654 523.5,-654"/>
<text text-anchor="start" x="531.5" y="-675" font-family="FreeSans" font-size="10.00">Urho3D::Vector&lt; Urho3D</text>
<text text-anchor="middle" x="610" y="-662" font-family="FreeSans" font-size="10.00">::SharedPtr&lt; Urho3D::Node &gt; &gt;</text>
</a>
</g>
<!-- Node21&#45;&gt;Node10 -->
<g id="edge58" class="edge"><title>Node21&#45;&gt;Node10</title>
<path fill="none" stroke="#9a32cd" stroke-dasharray="5,2" d="M691.86,-651.228C740.444,-637.432 802.093,-616.223 852,-587 870.606,-576.105 889.783,-560.079 901.549,-549.591"/>
<polygon fill="#9a32cd" stroke="#9a32cd" points="690.705,-647.917 682.013,-653.974 692.586,-654.659 690.705,-647.917"/>
<text text-anchor="middle" x="791" y="-644" font-family="FreeSans" font-size="10.00"> children_</text>
</g>
<!-- Node22&#45;&gt;Node10 -->
<g id="edge60" class="edge"><title>Node22&#45;&gt;Node10</title>
<path fill="none" stroke="#9a32cd" stroke-dasharray="5,2" d="M676.815,-491.572C725.968,-492.684 794.03,-497.224 852,-512 866.477,-515.69 881.853,-522.517 893.546,-528.383"/>
<polygon fill="#9a32cd" stroke="#9a32cd" points="676.687,-488.069 666.624,-491.384 676.558,-495.068 676.687,-488.069"/>
<text text-anchor="middle" x="791" y="-516" font-family="FreeSans" font-size="10.00"> owner_</text>
</g>
<!-- Node23 -->
<g id="node59" class="node"><title>Node23</title>
<a xlink:href="class_urho3_d_1_1_matrix3x4.html" target="_top" xlink:title="3x4 matrix for scene node transform calculations.">
<polygon fill="none" stroke="black" points="557,-570.5 557,-591.5 663,-591.5 663,-570.5 557,-570.5"/>
<text text-anchor="middle" x="610" y="-578.5" font-family="FreeSans" font-size="10.00">Urho3D::Matrix3x4</text>
</a>
</g>
<!-- Node23&#45;&gt;Node10 -->
<g id="edge74" class="edge"><title>Node23&#45;&gt;Node10</title>
<path fill="none" stroke="#9a32cd" stroke-dasharray="5,2" d="M673.246,-575.61C722.232,-570.97 791.684,-563.378 852,-553 857.997,-551.968 864.289,-550.718 870.46,-549.394"/>
<polygon fill="#9a32cd" stroke="#9a32cd" points="672.745,-572.141 663.114,-576.555 673.396,-579.111 672.745,-572.141"/>
<text text-anchor="middle" x="791" y="-574" font-family="FreeSans" font-size="10.00"> worldTransform_</text>
</g>
<!-- Node23&#45;&gt;Node23 -->
<g id="edge76" class="edge"><title>Node23&#45;&gt;Node23</title>
<path fill="none" stroke="#9a32cd" stroke-dasharray="5,2" d="M576.508,-600.679C578.302,-605.975 589.467,-610 610,-610 641.289,-610 650.822,-600.653 638.6,-591.708"/>
<polygon fill="#9a32cd" stroke="#9a32cd" points="579.685,-602.163 581.4,-591.708 573.539,-598.812 579.685,-602.163"/>
<text text-anchor="middle" x="610" y="-627" font-family="FreeSans" font-size="10.00"> IDENTITY</text>
<text text-anchor="middle" x="610" y="-614" font-family="FreeSans" font-size="10.00">ZERO</text>
</g>
<!-- Node24&#45;&gt;Node2 -->
<g id="edge80" class="edge"><title>Node24&#45;&gt;Node2</title>
<path fill="none" stroke="#9a32cd" stroke-dasharray="5,2" d="M862.431,-95.4757C967.979,-94.7011 1164.26,-93.2605 1267.87,-92.5"/>
<polygon fill="#9a32cd" stroke="#9a32cd" points="862.169,-91.9775 852.195,-95.5509 862.221,-98.9773 862.169,-91.9775"/>
<text text-anchor="middle" x="1035" y="-99" font-family="FreeSans" font-size="10.00"> pathData_</text>
</g>
<!-- Node25&#45;&gt;Node2 -->
<g id="edge84" class="edge"><title>Node25&#45;&gt;Node2</title>
<path fill="none" stroke="#9a32cd" stroke-dasharray="5,2" d="M1106.57,-51.4472C1143.59,-53.9348 1189.42,-58.1105 1230,-65 1253.78,-69.0372 1280.05,-75.7137 1300.49,-81.4172"/>
<polygon fill="#9a32cd" stroke="#9a32cd" points="1106.57,-47.9404 1096.37,-50.7895 1106.12,-54.9259 1106.57,-47.9404"/>
<text text-anchor="middle" x="1172" y="-69" font-family="FreeSans" font-size="10.00"> boundingBox_</text>
</g>
</g>
</svg>
        <g id="navigator" transform="translate(0 0)" fill="#404254">
                <rect fill="#f2f5e9" fill-opacity="0.5" stroke="#606060" stroke-width=".5" x="0" y="0" width="60" height="60"/>
                <use id="zoomplus" xlink:href="#zoomPlus" x="17" y="9" onmousedown="handleZoom(evt,'in')"/>
                <use id="zoomminus" xlink:href="#zoomMin" x="42" y="9" onmousedown="handleZoom(evt,'out')"/>
                <use id="reset" xlink:href="#resetDef" x="30" y="36" onmousedown="handleReset()"/>
                <g id="arrowUp" xlink:href="#dirArrow" transform="translate(30 24)" onmousedown="handlePan(0,-1)">
                  <use xlink:href="#rim" fill="#404040">
                        <set attributeName="fill" to="#808080" begin="arrowUp.mouseover" end="arrowUp.mouseout"/>
                  </use>
                  <path fill="none" stroke="white" stroke-width="1.5" d="M0,-3.0v7 M-2.5,-0.5L0,-3.0L2.5,-0.5"/>
                </g>
                <g id="arrowRight" xlink:href="#dirArrow" transform="rotate(90) translate(36 -43)" onmousedown="handlePan(1,0)">
                  <use xlink:href="#rim" fill="#404040">
                        <set attributeName="fill" to="#808080" begin="arrowRight.mouseover" end="arrowRight.mouseout"/>
                  </use>
                  <path fill="none" stroke="white" stroke-width="1.5" d="M0,-3.0v7 M-2.5,-0.5L0,-3.0L2.5,-0.5"/>
                </g>
                <g id="arrowDown" xlink:href="#dirArrow" transform="rotate(180) translate(-30 -48)" onmousedown="handlePan(0,1)">
                  <use xlink:href="#rim" fill="#404040">
                        <set attributeName="fill" to="#808080" begin="arrowDown.mouseover" end="arrowDown.mouseout"/>
                  </use>
                  <path fill="none" stroke="white" stroke-width="1.5" d="M0,-3.0v7 M-2.5,-0.5L0,-3.0L2.5,-0.5"/>
                </g>
                <g id="arrowLeft" xlink:href="#dirArrow" transform="rotate(270) translate(-36 17)" onmousedown="handlePan(-1,0)">
                  <use xlink:href="#rim" fill="#404040">
                        <set attributeName="fill" to="#808080" begin="arrowLeft.mouseover" end="arrowLeft.mouseout"/>
                  </use>
                  <path fill="none" stroke="white" stroke-width="1.5" d="M0,-3.0v7 M-2.5,-0.5L0,-3.0L2.5,-0.5"/>
                </g>
        </g>
        <svg viewBox="0 0 15 15" width="100%" height="30px" preserveAspectRatio="xMaxYMin meet">
         <g id="arrow_out" transform="scale(0.3 0.3)">
          <a xlink:href="class_urho3_d_1_1_dynamic_navigation_mesh__coll__graph_org.svg" target="_base">
           <rect id="button" ry="5" rx="5" y="6" x="6" height="38" width="38"
                fill="#f2f5e9" fill-opacity="0.5" stroke="#606060" stroke-width="1.0"/>
           <path id="arrow"
             d="M 11.500037,31.436501 C 11.940474,20.09759 22.043105,11.32322 32.158766,21.979434 L 37.068811,17.246167 C 37.068811,17.246167 37.088388,32 37.088388,32 L 22.160133,31.978069 C 22.160133,31.978069 26.997745,27.140456 26.997745,27.140456 C 18.528582,18.264221 13.291696,25.230495 11.500037,31.436501 z"
             style="fill:#404040;"/>
          </a>
         </g>
        </svg>
</svg>
