<?xml version="1.0" encoding="UTF-8" standalone="no"?>
<!DOCTYPE svg PUBLIC "-//W3C//DTD SVG 1.1//EN"
 "http://www.w3.org/Graphics/SVG/1.1/DTD/svg11.dtd">
<!-- Generated by graphviz version 2.26.3 (20100126.1600)
 -->
<!-- Title: Urho3D::Localization Pages: 1 -->
<!--zoomable 851 -->
<svg id="main" version="1.1" xmlns="http://www.w3.org/2000/svg" xmlns:xlink="http://www.w3.org/1999/xlink" xml:space="preserve" onload="init(evt)">
        <defs>
                <circle id="rim" cx="0" cy="0" r="7"/>
                <circle id="rim2" cx="0" cy="0" r="3.5"/>
                <g id="zoomPlus">
                        <use xlink:href="#rim" fill="#404040">
                                <set attributeName="fill" to="#808080" begin="zoomplus.mouseover" end="zoomplus.mouseout"/>
                        </use>
                        <path d="M-4,0h8M0,-4v8" fill="none" stroke="white" stroke-width="1.5" pointer-events="none"/>
                </g>
                <g id="zoomMin">
                        <use xlink:href="#rim" fill="#404040">
                                <set attributeName="fill" to="#808080" begin="zoomminus.mouseover" end="zoomminus.mouseout"/>
                        </use>
                        <path d="M-4,0h8" fill="none" stroke="white" stroke-width="1.5" pointer-events="none"/>
                </g>
                <g id="dirArrow">
                        <path fill="none" stroke="white" stroke-width="1.5" d="M0,-3.0v7 M-2.5,-0.5L0,-3.0L2.5,-0.5"/>
                </g>
               <g id="resetDef">
                       <use xlink:href="#rim2" fill="#404040">
                               <set attributeName="fill" to="#808080" begin="reset.mouseover" end="reset.mouseout"/>
                       </use>
               </g>
        </defs>

<script type="text/javascript">
var viewWidth = 1172;
var viewHeight = 851;
var sectionId = 'dynsection-1';
</script>
<script xlink:href="svgpan.js"/>
<svg id="graph" class="graph">
<g id="viewport">
<title>Urho3D::Localization</title>
<!-- Node1 -->
<g id="node1" class="node"><title>Node1</title>
<polygon fill="#bfbfbf" stroke="black" points="1033,-740.5 1033,-761.5 1149,-761.5 1149,-740.5 1033,-740.5"/>
<text text-anchor="middle" x="1091" y="-748.5" font-family="FreeSans" font-size="10.00">Urho3D::Localization</text>
</g>
<!-- Node2 -->
<g id="node2" class="node"><title>Node2</title>
<a xlink:href="class_urho3_d_1_1_object.html" target="_top" xlink:title="Base class for objects with type identification, subsystem access and event sending/receiving capabil...">
<polygon fill="none" stroke="black" points="455,-738.5 455,-759.5 545,-759.5 545,-738.5 455,-738.5"/>
<text text-anchor="middle" x="500" y="-746.5" font-family="FreeSans" font-size="10.00">Urho3D::Object</text>
</a>
</g>
<!-- Node2&#45;&gt;Node1 -->
<g id="edge2" class="edge"><title>Node2&#45;&gt;Node1</title>
<path fill="none" stroke="midnightblue" d="M555.462,-754.687C647.807,-763.278 838.861,-777.323 1000,-765 1010.68,-764.183 1022,-762.835 1032.9,-761.29"/>
<polygon fill="midnightblue" stroke="midnightblue" points="555.517,-751.176 545.232,-753.719 554.858,-758.145 555.517,-751.176"/>
</g>
<!-- Node8 -->
<g id="node15" class="node"><title>Node8</title>
<a xlink:href="class_urho3_d_1_1_event_handler.html" target="_top" xlink:title="Internal helper class for invoking event handler functions.">
<polygon fill="none" stroke="black" points="701,-680.5 701,-701.5 825,-701.5 825,-680.5 701,-680.5"/>
<text text-anchor="middle" x="763" y="-688.5" font-family="FreeSans" font-size="10.00">Urho3D::EventHandler</text>
</a>
</g>
<!-- Node2&#45;&gt;Node8 -->
<g id="edge22" class="edge"><title>Node2&#45;&gt;Node8</title>
<path fill="none" stroke="#9a32cd" stroke-dasharray="5,2" d="M554.446,-736.264C558.558,-734.195 562.472,-731.792 566,-729 578.493,-719.113 570.351,-706.217 584,-698 622.101,-675.062 673.489,-675.566 711.431,-680.48"/>
<polygon fill="#9a32cd" stroke="#9a32cd" points="552.982,-733.084 545.205,-740.279 555.772,-739.504 552.982,-733.084"/>
<text text-anchor="middle" x="613" y="-715" font-family="FreeSans" font-size="10.00"> sender_</text>
<text text-anchor="middle" x="613" y="-702" font-family="FreeSans" font-size="10.00">receiver_</text>
</g>
<!-- Node3 -->
<g id="node4" class="node"><title>Node3</title>
<a xlink:href="class_urho3_d_1_1_ref_counted.html" target="_top" xlink:title="Base class for intrusively reference&#45;counted objects. These are noncopyable and non&#45;assignable.">
<polygon fill="none" stroke="black" points="224,-419.5 224,-440.5 338,-440.5 338,-419.5 224,-419.5"/>
<text text-anchor="middle" x="281" y="-427.5" font-family="FreeSans" font-size="10.00">Urho3D::RefCounted</text>
</a>
</g>
<!-- Node3&#45;&gt;Node2 -->
<g id="edge4" class="edge"><title>Node3&#45;&gt;Node2</title>
<path fill="none" stroke="midnightblue" d="M285.536,-450.354C298.607,-504.228 341.482,-651.699 434,-729 440.064,-734.067 447.388,-737.85 454.92,-740.675"/>
<polygon fill="midnightblue" stroke="midnightblue" points="288.941,-449.543 283.252,-440.605 282.125,-451.14 288.941,-449.543"/>
</g>
<!-- Node5 -->
<g id="node8" class="node"><title>Node5</title>
<a xlink:href="class_urho3_d_1_1_context.html" target="_top" xlink:title="Urho3D execution context. Provides access to subsystems, object factories and attributes, and event receivers.">
<polygon fill="none" stroke="black" points="1042.5,-355.5 1042.5,-376.5 1139.5,-376.5 1139.5,-355.5 1042.5,-355.5"/>
<text text-anchor="middle" x="1091" y="-363.5" font-family="FreeSans" font-size="10.00">Urho3D::Context</text>
</a>
</g>
<!-- Node3&#45;&gt;Node5 -->
<g id="edge10" class="edge"><title>Node3&#45;&gt;Node5</title>
<path fill="none" stroke="midnightblue" d="M348.577,-427.866C457.6,-424.098 678.999,-415.101 866,-399 925.757,-393.855 940.711,-392.068 1000,-383 1013.82,-380.886 1028.76,-378.246 1042.46,-375.681"/>
<polygon fill="midnightblue" stroke="midnightblue" points="348.257,-424.375 338.382,-428.215 348.496,-431.371 348.257,-424.375"/>
</g>
<!-- Node4 -->
<g id="node6" class="node"><title>Node4</title>
<a xlink:href="struct_urho3_d_1_1_ref_count.html" target="_top" xlink:title="Reference count structure.">
<polygon fill="none" stroke="black" points="13,-419.5 13,-440.5 115,-440.5 115,-419.5 13,-419.5"/>
<text text-anchor="middle" x="64" y="-427.5" font-family="FreeSans" font-size="10.00">Urho3D::RefCount</text>
</a>
</g>
<!-- Node4&#45;&gt;Node3 -->
<g id="edge6" class="edge"><title>Node4&#45;&gt;Node3</title>
<path fill="none" stroke="#9a32cd" stroke-dasharray="5,2" d="M125.358,-430C156.225,-430 193.412,-430 223.695,-430"/>
<polygon fill="#9a32cd" stroke="#9a32cd" points="125.151,-426.5 115.151,-430 125.151,-433.5 125.151,-426.5"/>
<text text-anchor="middle" x="171" y="-434" font-family="FreeSans" font-size="10.00"> refCount_</text>
</g>
<!-- Node5&#45;&gt;Node2 -->
<g id="edge8" class="edge"><title>Node5&#45;&gt;Node2</title>
<path fill="none" stroke="#9a32cd" stroke-dasharray="5,2" d="M1087.5,-386.731C1076.69,-448.297 1042.04,-628.241 1000,-668 961.466,-704.441 931.386,-672.18 884,-696 874.696,-700.677 875.595,-706.953 866,-711 809.197,-734.955 630.017,-744.389 545.267,-747.581"/>
<polygon fill="#9a32cd" stroke="#9a32cd" points="1090.98,-387.124 1089.23,-376.674 1084.08,-385.932 1090.98,-387.124"/>
<text text-anchor="middle" x="763" y="-745" font-family="FreeSans" font-size="10.00"> context_</text>
</g>
<!-- Node6 -->
<g id="node11" class="node"><title>Node6</title>
<a xlink:href="class_urho3_d_1_1_p_o_d_vector.html" target="_top" xlink:title="Urho3D::PODVector\&lt;\l Urho3D::Object * \&gt;">
<polygon fill="none" stroke="black" points="703.5,-576 703.5,-610 822.5,-610 822.5,-576 703.5,-576"/>
<text text-anchor="start" x="711.5" y="-597" font-family="FreeSans" font-size="10.00">Urho3D::PODVector&lt;</text>
<text text-anchor="middle" x="763" y="-584" font-family="FreeSans" font-size="10.00"> Urho3D::Object * &gt;</text>
</a>
</g>
<!-- Node6&#45;&gt;Node5 -->
<g id="edge12" class="edge"><title>Node6&#45;&gt;Node5</title>
<path fill="none" stroke="#9a32cd" stroke-dasharray="5,2" d="M832.694,-586.745C883.788,-579.006 952.281,-561.698 1000,-523 1050.65,-481.924 1078.89,-404.625 1087.84,-376.539"/>
<polygon fill="#9a32cd" stroke="#9a32cd" points="832.124,-583.291 822.719,-588.169 833.113,-590.22 832.124,-583.291"/>
<text text-anchor="middle" x="942" y="-579" font-family="FreeSans" font-size="10.00"> eventSenders_</text>
</g>
<!-- Node7 -->
<g id="node13" class="node"><title>Node7</title>
<a xlink:href="class_urho3_d_1_1_vector_base.html" target="_top" xlink:title="Vector base class.">
<polygon fill="none" stroke="black" points="443,-556.5 443,-577.5 557,-577.5 557,-556.5 443,-556.5"/>
<text text-anchor="middle" x="500" y="-564.5" font-family="FreeSans" font-size="10.00">Urho3D::VectorBase</text>
</a>
</g>
<!-- Node7&#45;&gt;Node6 -->
<g id="edge14" class="edge"><title>Node7&#45;&gt;Node6</title>
<path fill="none" stroke="midnightblue" d="M567.205,-573.644C609.203,-577.796 662.807,-583.095 703.306,-587.099"/>
<polygon fill="midnightblue" stroke="midnightblue" points="567.363,-570.142 557.067,-572.642 566.674,-577.109 567.363,-570.142"/>
</g>
<!-- Node18 -->
<g id="node43" class="node"><title>Node18</title>
<a xlink:href="class_urho3_d_1_1_p_o_d_vector.html" target="_top" xlink:title="Urho3D::PODVector\&lt;\l Urho3D::HashMap * \&gt;">
<polygon fill="none" stroke="black" points="699.5,-524 699.5,-558 826.5,-558 826.5,-524 699.5,-524"/>
<text text-anchor="start" x="707.5" y="-545" font-family="FreeSans" font-size="10.00">Urho3D::PODVector&lt;</text>
<text text-anchor="middle" x="763" y="-532" font-family="FreeSans" font-size="10.00"> Urho3D::HashMap * &gt;</text>
</a>
</g>
<!-- Node7&#45;&gt;Node18 -->
<g id="edge54" class="edge"><title>Node7&#45;&gt;Node18</title>
<path fill="none" stroke="midnightblue" d="M567.136,-560.363C607.714,-556.351 659.146,-551.267 699.123,-547.315"/>
<polygon fill="midnightblue" stroke="midnightblue" points="566.674,-556.891 557.067,-561.358 567.363,-563.858 566.674,-556.891"/>
</g>
<!-- Node24 -->
<g id="node61" class="node"><title>Node24</title>
<a xlink:href="class_urho3_d_1_1_vector.html" target="_top" xlink:title="Urho3D::Vector\&lt; Urho3D\l::String \&gt;">
<polygon fill="none" stroke="black" points="694,-628 694,-662 832,-662 832,-628 694,-628"/>
<text text-anchor="start" x="702" y="-649" font-family="FreeSans" font-size="10.00">Urho3D::Vector&lt; Urho3D</text>
<text text-anchor="middle" x="763" y="-636" font-family="FreeSans" font-size="10.00">::String &gt;</text>
</a>
</g>
<!-- Node7&#45;&gt;Node24 -->
<g id="edge78" class="edge"><title>Node7&#45;&gt;Node24</title>
<path fill="none" stroke="midnightblue" d="M545.586,-580.594C552.439,-582.701 559.414,-584.882 566,-587 571.252,-588.689 654.71,-617.435 660,-619 670.876,-622.218 682.471,-625.391 693.812,-628.354"/>
<polygon fill="midnightblue" stroke="midnightblue" points="546.278,-577.146 535.692,-577.575 544.235,-583.841 546.278,-577.146"/>
</g>
<!-- Node8&#45;&gt;Node5 -->
<g id="edge16" class="edge"><title>Node8&#45;&gt;Node5</title>
<path fill="none" stroke="#9a32cd" stroke-dasharray="5,2" d="M835.019,-682.154C845.719,-679.388 856.374,-675.76 866,-671 875.595,-666.256 875.24,-661.15 884,-655 932.017,-621.29 960.962,-635.795 1000,-592 1060.23,-524.431 1083.35,-411.902 1089.32,-376.797"/>
<polygon fill="#9a32cd" stroke="#9a32cd" points="834.144,-678.764 825.209,-684.458 835.745,-685.578 834.144,-678.764"/>
<text text-anchor="middle" x="942" y="-659" font-family="FreeSans" font-size="10.00"> eventHandler_</text>
</g>
<!-- Node22 -->
<g id="node55" class="node"><title>Node22</title>
<a xlink:href="class_urho3_d_1_1_linked_list.html" target="_top" xlink:title="Urho3D::LinkedList\l\&lt; Urho3D::EventHandler \&gt;">
<polygon fill="none" stroke="black" points="1018,-809 1018,-843 1164,-843 1164,-809 1018,-809"/>
<text text-anchor="start" x="1026" y="-830" font-family="FreeSans" font-size="10.00">Urho3D::LinkedList</text>
<text text-anchor="middle" x="1091" y="-817" font-family="FreeSans" font-size="10.00">&lt; Urho3D::EventHandler &gt;</text>
</a>
</g>
<!-- Node8&#45;&gt;Node22 -->
<g id="edge70" class="edge"><title>Node8&#45;&gt;Node22</title>
<path fill="none" stroke="#9a32cd" stroke-dasharray="5,2" d="M834.714,-698.619C846.17,-702.449 857.147,-708 866,-716 883.834,-732.115 866.488,-750.535 884,-767 903.568,-785.398 966.429,-801.737 1017.79,-812.529"/>
<polygon fill="#9a32cd" stroke="#9a32cd" points="835.594,-695.23 825.014,-695.791 833.635,-701.951 835.594,-695.23"/>
<text text-anchor="middle" x="942" y="-811" font-family="FreeSans" font-size="10.00"> head_</text>
</g>
<!-- Node9 -->
<g id="node17" class="node"><title>Node9</title>
<a xlink:href="struct_urho3_d_1_1_linked_list_node.html" target="_top" xlink:title="Singly&#45;linked list node base class.">
<polygon fill="none" stroke="black" points="434,-667.5 434,-688.5 566,-688.5 566,-667.5 434,-667.5"/>
<text text-anchor="middle" x="500" y="-675.5" font-family="FreeSans" font-size="10.00">Urho3D::LinkedListNode</text>
</a>
</g>
<!-- Node9&#45;&gt;Node8 -->
<g id="edge18" class="edge"><title>Node9&#45;&gt;Node8</title>
<path fill="none" stroke="midnightblue" d="M576.412,-676.5C597.661,-676.491 620.739,-676.861 642,-678 661.199,-679.028 682.038,-680.968 700.925,-683.042"/>
<polygon fill="midnightblue" stroke="midnightblue" points="576.132,-673.001 566.144,-676.533 576.155,-680.001 576.132,-673.001"/>
</g>
<!-- Node9&#45;&gt;Node9 -->
<g id="edge20" class="edge"><title>Node9&#45;&gt;Node9</title>
<path fill="none" stroke="#9a32cd" stroke-dasharray="5,2" d="M480.097,-698.427C481.632,-703.349 488.267,-707 500,-707 518.773,-707 524.493,-697.653 517.16,-688.708"/>
<polygon fill="#9a32cd" stroke="#9a32cd" points="483.492,-699.283 482.84,-688.708 476.755,-697.381 483.492,-699.283"/>
<text text-anchor="middle" x="500" y="-711" font-family="FreeSans" font-size="10.00"> next_</text>
</g>
<!-- Node10 -->
<g id="node21" class="node"><title>Node10</title>
<a xlink:href="class_urho3_d_1_1_string_hash.html" target="_top" xlink:title="32&#45;bit hash value for a string.">
<polygon fill="none" stroke="black" points="443.5,-596.5 443.5,-617.5 556.5,-617.5 556.5,-596.5 443.5,-596.5"/>
<text text-anchor="middle" x="500" y="-604.5" font-family="FreeSans" font-size="10.00">Urho3D::StringHash</text>
</a>
</g>
<!-- Node10&#45;&gt;Node8 -->
<g id="edge24" class="edge"><title>Node10&#45;&gt;Node8</title>
<path fill="none" stroke="#9a32cd" stroke-dasharray="5,2" d="M545.669,-620.663C574.09,-629.906 611.004,-643.274 642,-659 650.574,-663.35 651.107,-667.345 660,-671 672.805,-676.262 687.085,-680.162 700.836,-683.046"/>
<polygon fill="#9a32cd" stroke="#9a32cd" points="546.584,-617.282 535.993,-617.569 544.452,-623.949 546.584,-617.282"/>
<text text-anchor="middle" x="613" y="-663" font-family="FreeSans" font-size="10.00"> eventType_</text>
</g>
<!-- Node10&#45;&gt;Node10 -->
<g id="edge26" class="edge"><title>Node10&#45;&gt;Node10</title>
<path fill="none" stroke="#9a32cd" stroke-dasharray="5,2" d="M480.097,-627.427C481.632,-632.349 488.267,-636 500,-636 518.773,-636 524.493,-626.653 517.16,-617.708"/>
<polygon fill="#9a32cd" stroke="#9a32cd" points="483.492,-628.283 482.84,-617.708 476.755,-626.381 483.492,-628.283"/>
<text text-anchor="middle" x="500" y="-640" font-family="FreeSans" font-size="10.00"> ZERO</text>
</g>
<!-- Node11 -->
<g id="node24" class="node"><title>Node11</title>
<a xlink:href="class_urho3_d_1_1_hash_map.html" target="_top" xlink:title="Urho3D::HashMap\&lt; Urho3D\l::StringHash, Urho3D::\lHashSet\&lt; Urho3D::Object * \&gt; \&gt;">
<polygon fill="none" stroke="black" points="676.5,-276.5 676.5,-323.5 849.5,-323.5 849.5,-276.5 676.5,-276.5"/>
<text text-anchor="start" x="684.5" y="-310.5" font-family="FreeSans" font-size="10.00">Urho3D::HashMap&lt; Urho3D</text>
<text text-anchor="start" x="684.5" y="-297.5" font-family="FreeSans" font-size="10.00">::StringHash, Urho3D::</text>
<text text-anchor="middle" x="763" y="-284.5" font-family="FreeSans" font-size="10.00">HashSet&lt; Urho3D::Object * &gt; &gt;</text>
</a>
</g>
<!-- Node11&#45;&gt;Node5 -->
<g id="edge28" class="edge"><title>Node11&#45;&gt;Node5</title>
<path fill="none" stroke="#9a32cd" stroke-dasharray="5,2" d="M859.486,-319.415C919.492,-331.489 994.107,-346.503 1042.14,-356.168"/>
<polygon fill="#9a32cd" stroke="#9a32cd" points="860.101,-315.969 849.607,-317.427 858.72,-322.831 860.101,-315.969"/>
<text text-anchor="middle" x="942" y="-351" font-family="FreeSans" font-size="10.00"> eventReceivers_</text>
</g>
<!-- Node12 -->
<g id="node26" class="node"><title>Node12</title>
<a xlink:href="class_urho3_d_1_1_hash_base.html" target="_top" xlink:title="Hash set/map base class.">
<polygon fill="none" stroke="black" points="446,-223.5 446,-244.5 554,-244.5 554,-223.5 446,-223.5"/>
<text text-anchor="middle" x="500" y="-231.5" font-family="FreeSans" font-size="10.00">Urho3D::HashBase</text>
</a>
</g>
<!-- Node12&#45;&gt;Node11 -->
<g id="edge30" class="edge"><title>Node12&#45;&gt;Node11</title>
<path fill="none" stroke="midnightblue" d="M552.073,-247.068C587.484,-255.954 635.182,-267.924 676.262,-278.233"/>
<polygon fill="midnightblue" stroke="midnightblue" points="552.515,-243.57 541.964,-244.531 550.811,-250.36 552.515,-243.57"/>
</g>
<!-- Node16 -->
<g id="node37" class="node"><title>Node16</title>
<a xlink:href="class_urho3_d_1_1_hash_map.html" target="_top" xlink:title="Urho3D::HashMap\&lt; Urho3D\l::Object *, Urho3D::HashMap\l\&lt; Urho3D::StringHash, Urho3D\l::HashSet\&lt; Urho3D::Object * \&gt; \&gt; \&gt;">
<polygon fill="none" stroke="black" points="667.5,-0 667.5,-60 858.5,-60 858.5,-0 667.5,-0"/>
<text text-anchor="start" x="675.5" y="-47" font-family="FreeSans" font-size="10.00">Urho3D::HashMap&lt; Urho3D</text>
<text text-anchor="start" x="675.5" y="-34" font-family="FreeSans" font-size="10.00">::Object *, Urho3D::HashMap</text>
<text text-anchor="start" x="675.5" y="-21" font-family="FreeSans" font-size="10.00">&lt; Urho3D::StringHash, Urho3D</text>
<text text-anchor="middle" x="763" y="-8" font-family="FreeSans" font-size="10.00">::HashSet&lt; Urho3D::Object * &gt; &gt; &gt;</text>
</a>
</g>
<!-- Node12&#45;&gt;Node16 -->
<g id="edge46" class="edge"><title>Node12&#45;&gt;Node16</title>
<path fill="none" stroke="midnightblue" d="M513.217,-215.245C538.114,-181.25 595.315,-109.256 660,-69 665.114,-65.8176 670.528,-62.8279 676.093,-60.0316"/>
<polygon fill="midnightblue" stroke="midnightblue" points="510.347,-213.241 507.334,-223.398 516.023,-217.337 510.347,-213.241"/>
</g>
<!-- Node17 -->
<g id="node40" class="node"><title>Node17</title>
<a xlink:href="class_urho3_d_1_1_hash_map.html" target="_top" xlink:title="Urho3D::HashMap\&lt; Urho3D\l::StringHash, Urho3D::\lSharedPtr\&lt; Urho3D::Object \&gt; \&gt;">
<polygon fill="none" stroke="black" points="677,-210.5 677,-257.5 849,-257.5 849,-210.5 677,-210.5"/>
<text text-anchor="start" x="685" y="-244.5" font-family="FreeSans" font-size="10.00">Urho3D::HashMap&lt; Urho3D</text>
<text text-anchor="start" x="685" y="-231.5" font-family="FreeSans" font-size="10.00">::StringHash, Urho3D::</text>
<text text-anchor="middle" x="763" y="-218.5" font-family="FreeSans" font-size="10.00">SharedPtr&lt; Urho3D::Object &gt; &gt;</text>
</a>
</g>
<!-- Node12&#45;&gt;Node17 -->
<g id="edge50" class="edge"><title>Node12&#45;&gt;Node17</title>
<path fill="none" stroke="midnightblue" d="M564.403,-234C598.247,-234 640.19,-234 676.798,-234"/>
<polygon fill="midnightblue" stroke="midnightblue" points="564.175,-230.5 554.175,-234 564.175,-237.5 564.175,-230.5"/>
</g>
<!-- Node19 -->
<g id="node46" class="node"><title>Node19</title>
<a xlink:href="class_urho3_d_1_1_hash_map.html" target="_top" xlink:title="Urho3D::HashMap\&lt; Urho3D\l::StringHash, Urho3D::\lSharedPtr\&lt; Urho3D::ObjectFactory \&gt; \&gt;">
<polygon fill="none" stroke="black" points="660,-144.5 660,-191.5 866,-191.5 866,-144.5 660,-144.5"/>
<text text-anchor="start" x="668" y="-178.5" font-family="FreeSans" font-size="10.00">Urho3D::HashMap&lt; Urho3D</text>
<text text-anchor="start" x="668" y="-165.5" font-family="FreeSans" font-size="10.00">::StringHash, Urho3D::</text>
<text text-anchor="middle" x="763" y="-152.5" font-family="FreeSans" font-size="10.00">SharedPtr&lt; Urho3D::ObjectFactory &gt; &gt;</text>
</a>
</g>
<!-- Node12&#45;&gt;Node19 -->
<g id="edge58" class="edge"><title>Node12&#45;&gt;Node19</title>
<path fill="none" stroke="midnightblue" d="M551.957,-220.961C585.345,-212.583 629.693,-201.453 669.117,-191.56"/>
<polygon fill="midnightblue" stroke="midnightblue" points="550.811,-217.64 541.964,-223.469 552.515,-224.43 550.811,-217.64"/>
</g>
<!-- Node20 -->
<g id="node49" class="node"><title>Node20</title>
<a xlink:href="class_urho3_d_1_1_hash_map.html" target="_top" xlink:title="Urho3D::HashMap\&lt; Urho3D\l::String, Urho3D::Vector\l\&lt; Urho3D::StringHash \&gt; \&gt;">
<polygon fill="none" stroke="black" points="687,-342.5 687,-389.5 839,-389.5 839,-342.5 687,-342.5"/>
<text text-anchor="start" x="695" y="-376.5" font-family="FreeSans" font-size="10.00">Urho3D::HashMap&lt; Urho3D</text>
<text text-anchor="start" x="695" y="-363.5" font-family="FreeSans" font-size="10.00">::String, Urho3D::Vector</text>
<text text-anchor="middle" x="763" y="-350.5" font-family="FreeSans" font-size="10.00">&lt; Urho3D::StringHash &gt; &gt;</text>
</a>
</g>
<!-- Node12&#45;&gt;Node20 -->
<g id="edge62" class="edge"><title>Node12&#45;&gt;Node20</title>
<path fill="none" stroke="midnightblue" d="M522.456,-250.364C552.541,-271.696 608.163,-309.096 660,-333 668.526,-336.932 677.65,-340.586 686.815,-343.922"/>
<polygon fill="midnightblue" stroke="midnightblue" points="524.491,-247.516 514.321,-244.544 520.418,-253.209 524.491,-247.516"/>
</g>
<!-- Node21 -->
<g id="node52" class="node"><title>Node21</title>
<a xlink:href="class_urho3_d_1_1_hash_map.html" target="_top" xlink:title="Urho3D::HashMap\&lt; Urho3D\l::StringHash, Urho3D::\lVector\&lt; Urho3D::AttributeInfo \&gt; \&gt;">
<polygon fill="none" stroke="black" points="671.5,-78.5 671.5,-125.5 854.5,-125.5 854.5,-78.5 671.5,-78.5"/>
<text text-anchor="start" x="679.5" y="-112.5" font-family="FreeSans" font-size="10.00">Urho3D::HashMap&lt; Urho3D</text>
<text text-anchor="start" x="679.5" y="-99.5" font-family="FreeSans" font-size="10.00">::StringHash, Urho3D::</text>
<text text-anchor="middle" x="763" y="-86.5" font-family="FreeSans" font-size="10.00">Vector&lt; Urho3D::AttributeInfo &gt; &gt;</text>
</a>
</g>
<!-- Node12&#45;&gt;Node21 -->
<g id="edge66" class="edge"><title>Node12&#45;&gt;Node21</title>
<path fill="none" stroke="midnightblue" d="M522.456,-217.636C552.541,-196.304 608.163,-158.904 660,-135 667.247,-131.658 674.926,-128.516 682.695,-125.6"/>
<polygon fill="midnightblue" stroke="midnightblue" points="520.418,-214.791 514.321,-223.456 524.491,-220.484 520.418,-214.791"/>
</g>
<!-- Node23 -->
<g id="node58" class="node"><title>Node23</title>
<a xlink:href="class_urho3_d_1_1_hash_map.html" target="_top" xlink:title="Urho3D::HashMap\&lt; Urho3D\l::StringHash, Urho3D::\lHashMap\&lt; Urho3D::StringHash,\l Urho3D::String \&gt; \&gt;">
<polygon fill="none" stroke="black" points="677,-446 677,-506 849,-506 849,-446 677,-446"/>
<text text-anchor="start" x="685" y="-493" font-family="FreeSans" font-size="10.00">Urho3D::HashMap&lt; Urho3D</text>
<text text-anchor="start" x="685" y="-480" font-family="FreeSans" font-size="10.00">::StringHash, Urho3D::</text>
<text text-anchor="start" x="685" y="-467" font-family="FreeSans" font-size="10.00">HashMap&lt; Urho3D::StringHash,</text>
<text text-anchor="middle" x="763" y="-454" font-family="FreeSans" font-size="10.00"> Urho3D::String &gt; &gt;</text>
</a>
</g>
<!-- Node12&#45;&gt;Node23 -->
<g id="edge74" class="edge"><title>Node12&#45;&gt;Node23</title>
<path fill="none" stroke="midnightblue" d="M516.723,-252.022C533.569,-270.104 560.377,-298.684 584,-323 617.286,-357.262 623.888,-367.73 660,-399 678.903,-415.369 700.981,-432.153 719.837,-445.857"/>
<polygon fill="midnightblue" stroke="midnightblue" points="519.105,-249.444 509.732,-244.506 513.98,-254.212 519.105,-249.444"/>
</g>
<!-- Node13 -->
<g id="node28" class="node"><title>Node13</title>
<a xlink:href="struct_urho3_d_1_1_hash_node_base.html" target="_top" xlink:title="Hash set/map node base class.">
<polygon fill="none" stroke="black" points="214,-258.5 214,-279.5 348,-279.5 348,-258.5 214,-258.5"/>
<text text-anchor="middle" x="281" y="-266.5" font-family="FreeSans" font-size="10.00">Urho3D::HashNodeBase</text>
</a>
</g>
<!-- Node13&#45;&gt;Node12 -->
<g id="edge32" class="edge"><title>Node13&#45;&gt;Node12</title>
<path fill="none" stroke="#9a32cd" stroke-dasharray="5,2" d="M356.892,-256.871C386.149,-252.195 418.951,-246.953 445.762,-242.668"/>
<polygon fill="#9a32cd" stroke="#9a32cd" points="356.03,-253.464 346.707,-258.499 357.134,-260.377 356.03,-253.464"/>
<text text-anchor="middle" x="391" y="-285" font-family="FreeSans" font-size="10.00"> ptrs_</text>
<text text-anchor="middle" x="391" y="-272" font-family="FreeSans" font-size="10.00">tail_</text>
<text text-anchor="middle" x="391" y="-259" font-family="FreeSans" font-size="10.00">head_</text>
</g>
<!-- Node13&#45;&gt;Node13 -->
<g id="edge34" class="edge"><title>Node13&#45;&gt;Node13</title>
<path fill="none" stroke="#9a32cd" stroke-dasharray="5,2" d="M260.728,-289.427C262.292,-294.349 269.049,-298 281,-298 300.121,-298 305.947,-288.653 298.478,-279.708"/>
<polygon fill="#9a32cd" stroke="#9a32cd" points="264.123,-290.286 263.522,-279.708 257.395,-288.352 264.123,-290.286"/>
<text text-anchor="middle" x="281" y="-328" font-family="FreeSans" font-size="10.00"> next_</text>
<text text-anchor="middle" x="281" y="-315" font-family="FreeSans" font-size="10.00">prev_</text>
<text text-anchor="middle" x="281" y="-302" font-family="FreeSans" font-size="10.00">down_</text>
</g>
<!-- Node14 -->
<g id="node31" class="node"><title>Node14</title>
<a xlink:href="struct_urho3_d_1_1_allocator_block.html" target="_top" xlink:title="Allocator memory block.">
<polygon fill="none" stroke="black" points="217.5,-187.5 217.5,-208.5 344.5,-208.5 344.5,-187.5 217.5,-187.5"/>
<text text-anchor="middle" x="281" y="-195.5" font-family="FreeSans" font-size="10.00">Urho3D::AllocatorBlock</text>
</a>
</g>
<!-- Node14&#45;&gt;Node12 -->
<g id="edge36" class="edge"><title>Node14&#45;&gt;Node12</title>
<path fill="none" stroke="#9a32cd" stroke-dasharray="5,2" d="M354.595,-210.098C384.452,-215.006 418.314,-220.572 445.844,-225.098"/>
<polygon fill="#9a32cd" stroke="#9a32cd" points="355.073,-206.63 344.638,-208.461 353.938,-213.537 355.073,-206.63"/>
<text text-anchor="middle" x="391" y="-224" font-family="FreeSans" font-size="10.00"> allocator_</text>
</g>
<!-- Node14&#45;&gt;Node14 -->
<g id="edge38" class="edge"><title>Node14&#45;&gt;Node14</title>
<path fill="none" stroke="#9a32cd" stroke-dasharray="5,2" d="M260.728,-218.427C262.292,-223.349 269.049,-227 281,-227 300.121,-227 305.947,-217.653 298.478,-208.708"/>
<polygon fill="#9a32cd" stroke="#9a32cd" points="264.123,-219.286 263.522,-208.708 257.395,-217.352 264.123,-219.286"/>
<text text-anchor="middle" x="281" y="-231" font-family="FreeSans" font-size="10.00"> next_</text>
</g>
<!-- Node15 -->
<g id="node34" class="node"><title>Node15</title>
<a xlink:href="struct_urho3_d_1_1_allocator_node.html" target="_top" xlink:title="Allocator node.">
<polygon fill="none" stroke="black" points="0.5,-187.5 0.5,-208.5 127.5,-208.5 127.5,-187.5 0.5,-187.5"/>
<text text-anchor="middle" x="64" y="-195.5" font-family="FreeSans" font-size="10.00">Urho3D::AllocatorNode</text>
</a>
</g>
<!-- Node15&#45;&gt;Node14 -->
<g id="edge40" class="edge"><title>Node15&#45;&gt;Node14</title>
<path fill="none" stroke="#9a32cd" stroke-dasharray="5,2" d="M137.765,-198C163.616,-198 192.409,-198 217.36,-198"/>
<polygon fill="#9a32cd" stroke="#9a32cd" points="137.641,-194.5 127.641,-198 137.641,-201.5 137.641,-194.5"/>
<text text-anchor="middle" x="171" y="-202" font-family="FreeSans" font-size="10.00"> free_</text>
</g>
<!-- Node15&#45;&gt;Node15 -->
<g id="edge42" class="edge"><title>Node15&#45;&gt;Node15</title>
<path fill="none" stroke="#9a32cd" stroke-dasharray="5,2" d="M44.4653,-218.427C45.9723,-223.349 52.4839,-227 64,-227 82.4258,-227 88.0399,-217.653 80.8423,-208.708"/>
<polygon fill="#9a32cd" stroke="#9a32cd" points="47.8609,-219.279 47.1577,-208.708 41.1149,-217.41 47.8609,-219.279"/>
<text text-anchor="middle" x="64" y="-231" font-family="FreeSans" font-size="10.00"> next_</text>
</g>
<!-- Node16&#45;&gt;Node5 -->
<g id="edge44" class="edge"><title>Node16&#45;&gt;Node5</title>
<path fill="none" stroke="#9a32cd" stroke-dasharray="5,2" d="M868.667,-38.5558C914.119,-47.266 964.783,-64.4311 1000,-98 1039.57,-135.717 1079.1,-310.32 1088.77,-355.371"/>
<polygon fill="#9a32cd" stroke="#9a32cd" points="869.216,-35.0985 858.755,-36.7719 867.976,-41.9878 869.216,-35.0985"/>
<text text-anchor="middle" x="942" y="-102" font-family="FreeSans" font-size="10.00"> specificEventReceivers_</text>
</g>
<!-- Node17&#45;&gt;Node5 -->
<g id="edge48" class="edge"><title>Node17&#45;&gt;Node5</title>
<path fill="none" stroke="#9a32cd" stroke-dasharray="5,2" d="M858.971,-258.377C902.928,-271.049 955.114,-288.249 1000,-309 1028.6,-322.22 1059.1,-342.827 1076.52,-355.306"/>
<polygon fill="#9a32cd" stroke="#9a32cd" points="859.721,-254.952 849.145,-255.581 857.805,-261.685 859.721,-254.952"/>
<text text-anchor="middle" x="942" y="-313" font-family="FreeSans" font-size="10.00"> subsystems_</text>
</g>
<!-- Node18&#45;&gt;Node5 -->
<g id="edge52" class="edge"><title>Node18&#45;&gt;Node5</title>
<path fill="none" stroke="#9a32cd" stroke-dasharray="5,2" d="M836.332,-525.458C846.463,-522.457 856.606,-518.982 866,-515 954.86,-477.335 1046.4,-403.806 1078.77,-376.521"/>
<polygon fill="#9a32cd" stroke="#9a32cd" points="835.321,-522.106 826.648,-528.191 837.223,-528.843 835.321,-522.106"/>
<text text-anchor="middle" x="942" y="-510" font-family="FreeSans" font-size="10.00"> eventDataMaps_</text>
</g>
<!-- Node19&#45;&gt;Node5 -->
<g id="edge56" class="edge"><title>Node19&#45;&gt;Node5</title>
<path fill="none" stroke="#9a32cd" stroke-dasharray="5,2" d="M875.8,-192.291C917.46,-204.905 963.394,-223.418 1000,-250 1041.01,-279.78 1073.02,-332.886 1085.42,-355.421"/>
<polygon fill="#9a32cd" stroke="#9a32cd" points="876.731,-188.916 866.149,-189.449 874.754,-195.631 876.731,-188.916"/>
<text text-anchor="middle" x="942" y="-254" font-family="FreeSans" font-size="10.00"> factories_</text>
</g>
<!-- Node20&#45;&gt;Node5 -->
<g id="edge60" class="edge"><title>Node20&#45;&gt;Node5</title>
<path fill="none" stroke="#9a32cd" stroke-dasharray="5,2" d="M849.178,-366C910.792,-366 991.482,-366 1042.29,-366"/>
<polygon fill="#9a32cd" stroke="#9a32cd" points="849.074,-362.5 839.074,-366 849.074,-369.5 849.074,-362.5"/>
<text text-anchor="middle" x="942" y="-370" font-family="FreeSans" font-size="10.00"> objectCategories_</text>
</g>
<!-- Node21&#45;&gt;Node5 -->
<g id="edge64" class="edge"><title>Node21&#45;&gt;Node5</title>
<path fill="none" stroke="#9a32cd" stroke-dasharray="5,2" d="M864.579,-110.341C910.323,-118.652 962.379,-135.003 1000,-167 1061.64,-219.424 1083.7,-322.374 1089.38,-355.48"/>
<polygon fill="#9a32cd" stroke="#9a32cd" points="865.066,-106.873 854.619,-108.638 863.886,-113.773 865.066,-106.873"/>
<text text-anchor="middle" x="942" y="-184" font-family="FreeSans" font-size="10.00"> attributes_</text>
<text text-anchor="middle" x="942" y="-171" font-family="FreeSans" font-size="10.00">networkAttributes_</text>
</g>
<!-- Node22&#45;&gt;Node2 -->
<g id="edge68" class="edge"><title>Node22&#45;&gt;Node2</title>
<path fill="none" stroke="#9a32cd" stroke-dasharray="5,2" d="M1007.14,-828.206C969.432,-828.422 924.41,-827.607 884,-824 749.289,-811.975 715.887,-802.956 584,-773 567.287,-769.204 548.962,-764.083 533.704,-759.546"/>
<polygon fill="#9a32cd" stroke="#9a32cd" points="1007.6,-831.702 1017.57,-828.119 1007.54,-824.702 1007.6,-831.702"/>
<text text-anchor="middle" x="763" y="-826" font-family="FreeSans" font-size="10.00"> eventHandlers_</text>
</g>
<!-- Node23&#45;&gt;Node1 -->
<g id="edge72" class="edge"><title>Node23&#45;&gt;Node1</title>
<path fill="none" stroke="#9a32cd" stroke-dasharray="5,2" d="M857.099,-505.722C860.341,-508.539 863.334,-511.623 866,-515 904.876,-564.237 846.928,-604.391 884,-655 889.852,-662.989 1012.9,-717.089 1066.46,-740.375"/>
<polygon fill="#9a32cd" stroke="#9a32cd" points="859.189,-502.914 849.119,-499.621 854.937,-508.475 859.189,-502.914"/>
<text text-anchor="middle" x="942" y="-713" font-family="FreeSans" font-size="10.00"> strings_</text>
</g>
<!-- Node24&#45;&gt;Node1 -->
<g id="edge76" class="edge"><title>Node24&#45;&gt;Node1</title>
<path fill="none" stroke="#9a32cd" stroke-dasharray="5,2" d="M841.549,-655.58C850.552,-659.351 858.996,-664.362 866,-671 885.59,-689.566 863.147,-711.864 884,-729 906.058,-747.127 979.739,-751.259 1032.92,-751.766"/>
<polygon fill="#9a32cd" stroke="#9a32cd" points="842.596,-652.236 832.002,-652.082 840.188,-658.809 842.596,-652.236"/>
<text text-anchor="middle" x="942" y="-754" font-family="FreeSans" font-size="10.00"> languages_</text>
</g>
</g>
</svg>
        <g id="navigator" transform="translate(0 0)" fill="#404254">
                <rect fill="#f2f5e9" fill-opacity="0.5" stroke="#606060" stroke-width=".5" x="0" y="0" width="60" height="60"/>
                <use id="zoomplus" xlink:href="#zoomPlus" x="17" y="9" onmousedown="handleZoom(evt,'in')"/>
                <use id="zoomminus" xlink:href="#zoomMin" x="42" y="9" onmousedown="handleZoom(evt,'out')"/>
                <use id="reset" xlink:href="#resetDef" x="30" y="36" onmousedown="handleReset()"/>
                <g id="arrowUp" xlink:href="#dirArrow" transform="translate(30 24)" onmousedown="handlePan(0,-1)">
                  <use xlink:href="#rim" fill="#404040">
                        <set attributeName="fill" to="#808080" begin="arrowUp.mouseover" end="arrowUp.mouseout"/>
                  </use>
                  <path fill="none" stroke="white" stroke-width="1.5" d="M0,-3.0v7 M-2.5,-0.5L0,-3.0L2.5,-0.5"/>
                </g>
                <g id="arrowRight" xlink:href="#dirArrow" transform="rotate(90) translate(36 -43)" onmousedown="handlePan(1,0)">
                  <use xlink:href="#rim" fill="#404040">
                        <set attributeName="fill" to="#808080" begin="arrowRight.mouseover" end="arrowRight.mouseout"/>
                  </use>
                  <path fill="none" stroke="white" stroke-width="1.5" d="M0,-3.0v7 M-2.5,-0.5L0,-3.0L2.5,-0.5"/>
                </g>
                <g id="arrowDown" xlink:href="#dirArrow" transform="rotate(180) translate(-30 -48)" onmousedown="handlePan(0,1)">
                  <use xlink:href="#rim" fill="#404040">
                        <set attributeName="fill" to="#808080" begin="arrowDown.mouseover" end="arrowDown.mouseout"/>
                  </use>
                  <path fill="none" stroke="white" stroke-width="1.5" d="M0,-3.0v7 M-2.5,-0.5L0,-3.0L2.5,-0.5"/>
                </g>
                <g id="arrowLeft" xlink:href="#dirArrow" transform="rotate(270) translate(-36 17)" onmousedown="handlePan(-1,0)">
                  <use xlink:href="#rim" fill="#404040">
                        <set attributeName="fill" to="#808080" begin="arrowLeft.mouseover" end="arrowLeft.mouseout"/>
                  </use>
                  <path fill="none" stroke="white" stroke-width="1.5" d="M0,-3.0v7 M-2.5,-0.5L0,-3.0L2.5,-0.5"/>
                </g>
        </g>
        <svg viewBox="0 0 15 15" width="100%" height="30px" preserveAspectRatio="xMaxYMin meet">
         <g id="arrow_out" transform="scale(0.3 0.3)">
          <a xlink:href="class_urho3_d_1_1_localization__coll__graph_org.svg" target="_base">
           <rect id="button" ry="5" rx="5" y="6" x="6" height="38" width="38"
                fill="#f2f5e9" fill-opacity="0.5" stroke="#606060" stroke-width="1.0"/>
           <path id="arrow"
             d="M 11.500037,31.436501 C 11.940474,20.09759 22.043105,11.32322 32.158766,21.979434 L 37.068811,17.246167 C 37.068811,17.246167 37.088388,32 37.088388,32 L 22.160133,31.978069 C 22.160133,31.978069 26.997745,27.140456 26.997745,27.140456 C 18.528582,18.264221 13.291696,25.230495 11.500037,31.436501 z"
             style="fill:#404040;"/>
          </a>
         </g>
        </svg>
</svg>
