<?xml version="1.0" encoding="UTF-8" standalone="no"?>
<!DOCTYPE svg PUBLIC "-//W3C//DTD SVG 1.1//EN"
 "http://www.w3.org/Graphics/SVG/1.1/DTD/svg11.dtd">
<!-- Generated by graphviz version 2.26.3 (20100126.1600)
 -->
<!-- Title: Urho3D::Texture2D Pages: 1 -->
<!--zoomable 666 -->
<svg id="main" version="1.1" xmlns="http://www.w3.org/2000/svg" xmlns:xlink="http://www.w3.org/1999/xlink" xml:space="preserve" onload="init(evt)">
        <defs>
                <circle id="rim" cx="0" cy="0" r="7"/>
                <circle id="rim2" cx="0" cy="0" r="3.5"/>
                <g id="zoomPlus">
                        <use xlink:href="#rim" fill="#404040">
                                <set attributeName="fill" to="#808080" begin="zoomplus.mouseover" end="zoomplus.mouseout"/>
                        </use>
                        <path d="M-4,0h8M0,-4v8" fill="none" stroke="white" stroke-width="1.5" pointer-events="none"/>
                </g>
                <g id="zoomMin">
                        <use xlink:href="#rim" fill="#404040">
                                <set attributeName="fill" to="#808080" begin="zoomminus.mouseover" end="zoomminus.mouseout"/>
                        </use>
                        <path d="M-4,0h8" fill="none" stroke="white" stroke-width="1.5" pointer-events="none"/>
                </g>
                <g id="dirArrow">
                        <path fill="none" stroke="white" stroke-width="1.5" d="M0,-3.0v7 M-2.5,-0.5L0,-3.0L2.5,-0.5"/>
                </g>
               <g id="resetDef">
                       <use xlink:href="#rim2" fill="#404040">
                               <set attributeName="fill" to="#808080" begin="reset.mouseover" end="reset.mouseout"/>
                       </use>
               </g>
        </defs>

<script type="text/javascript">
var viewWidth = 2386;
var viewHeight = 666;
var sectionId = 'dynsection-1';
</script>
<script xlink:href="svgpan.js"/>
<svg id="graph" class="graph">
<g id="viewport">
<title>Urho3D::Texture2D</title>
<!-- Node1 -->
<g id="node1" class="node"><title>Node1</title>
<polygon fill="#bfbfbf" stroke="black" points="2053.5,-229.5 2053.5,-250.5 2160.5,-250.5 2160.5,-229.5 2053.5,-229.5"/>
<text text-anchor="middle" x="2107" y="-237.5" font-family="FreeSans" font-size="10.00">Urho3D::Texture2D</text>
</g>
<!-- Node2 -->
<g id="node2" class="node"><title>Node2</title>
<a xlink:href="class_urho3_d_1_1_texture.html" target="_top" xlink:title="Base class for texture resources.">
<polygon fill="none" stroke="black" points="1237,-384.5 1237,-405.5 1331,-405.5 1331,-384.5 1237,-384.5"/>
<text text-anchor="middle" x="1284" y="-392.5" font-family="FreeSans" font-size="10.00">Urho3D::Texture</text>
</a>
</g>
<!-- Node2&#45;&gt;Node1 -->
<g id="edge2" class="edge"><title>Node2&#45;&gt;Node1</title>
<path fill="none" stroke="midnightblue" d="M1308.21,-379.987C1346.61,-362.215 1424.09,-334.478 1492,-319 1721.2,-266.762 1783.75,-283.36 2016,-247 2028.04,-245.114 2040.96,-242.938 2053.16,-241.046"/>
<polygon fill="midnightblue" stroke="midnightblue" points="1306.36,-376.991 1298.88,-384.496 1309.41,-383.293 1306.36,-376.991"/>
</g>
<!-- Node2&#45;&gt;Node1 -->
<g id="edge84" class="edge"><title>Node2&#45;&gt;Node1</title>
<path fill="none" stroke="midnightblue" d="M1340.48,-381.33C1381.89,-368.054 1439.78,-348.902 1492,-337 1721.2,-284.762 1783.75,-301.36 2016,-265 2040.88,-261.105 2069.47,-255.969 2087.86,-250.504"/>
<polygon fill="midnightblue" stroke="midnightblue" points="1339.31,-378.029 1330.84,-384.403 1341.43,-384.698 1339.31,-378.029"/>
</g>
<!-- Node14 -->
<g id="node29" class="node"><title>Node14</title>
<a xlink:href="class_urho3_d_1_1_graphics.html" target="_top" xlink:title="Graphics subsystem. Manages the application window, rendering state and GPU resources.">
<polygon fill="none" stroke="red" points="1796.5,-512.5 1796.5,-533.5 1897.5,-533.5 1897.5,-512.5 1796.5,-512.5"/>
<text text-anchor="middle" x="1847" y="-520.5" font-family="FreeSans" font-size="10.00">Urho3D::Graphics</text>
</a>
</g>
<!-- Node2&#45;&gt;Node14 -->
<g id="edge66" class="edge"><title>Node2&#45;&gt;Node14</title>
<path fill="none" stroke="#9a32cd" stroke-dasharray="5,2" d="M1314,-410.365C1333.29,-420.983 1358.34,-436.184 1378,-453 1387.34,-460.99 1385.13,-468.267 1396,-474 1464.45,-510.089 1693.54,-519.645 1796.33,-522.138"/>
<polygon fill="#9a32cd" stroke="#9a32cd" points="1315.5,-407.199 1305.04,-405.534 1312.18,-413.361 1315.5,-407.199"/>
<text text-anchor="middle" x="1557" y="-517" font-family="FreeSans" font-size="10.00"> textures_</text>
</g>
<!-- Node18 -->
<g id="node42" class="node"><title>Node18</title>
<a xlink:href="class_urho3_d_1_1_render_surface.html" target="_top" xlink:title="Color or depth&#45;stencil surface that can be rendered into.">
<polygon fill="none" stroke="black" points="1492.5,-79.5 1492.5,-100.5 1621.5,-100.5 1621.5,-79.5 1492.5,-79.5"/>
<text text-anchor="middle" x="1557" y="-87.5" font-family="FreeSans" font-size="10.00">Urho3D::RenderSurface</text>
</a>
</g>
<!-- Node2&#45;&gt;Node18 -->
<g id="edge62" class="edge"><title>Node2&#45;&gt;Node18</title>
<path fill="none" stroke="#9a32cd" stroke-dasharray="5,2" d="M1304.17,-377.514C1326.31,-357.04 1360.97,-320.94 1378,-282 1402.61,-225.733 1357.09,-192.515 1396,-145 1404.07,-135.145 1474.37,-113.598 1519.36,-100.591"/>
<polygon fill="#9a32cd" stroke="#9a32cd" points="1301.71,-375.024 1296.64,-384.327 1306.4,-380.216 1301.71,-375.024"/>
<text text-anchor="middle" x="1435" y="-149" font-family="FreeSans" font-size="10.00"> parentTexture_</text>
</g>
<!-- Node21 -->
<g id="node58" class="node"><title>Node21</title>
<a xlink:href="class_urho3_d_1_1_shared_ptr.html" target="_top" xlink:title="Urho3D::SharedPtr\&lt;\l Urho3D::Texture \&gt;">
<polygon fill="none" stroke="black" points="1499,-432 1499,-466 1615,-466 1615,-432 1499,-432"/>
<text text-anchor="start" x="1507" y="-453" font-family="FreeSans" font-size="10.00">Urho3D::SharedPtr&lt;</text>
<text text-anchor="middle" x="1557" y="-440" font-family="FreeSans" font-size="10.00"> Urho3D::Texture &gt;</text>
</a>
</g>
<!-- Node2&#45;&gt;Node21 -->
<g id="edge78" class="edge"><title>Node2&#45;&gt;Node21</title>
<path fill="none" stroke="#9a32cd" stroke-dasharray="5,2" d="M1341.12,-406.298C1387.42,-415.457 1452.41,-428.311 1498.96,-437.519"/>
<polygon fill="#9a32cd" stroke="#9a32cd" points="1341.73,-402.851 1331.24,-404.344 1340.37,-409.718 1341.73,-402.851"/>
<text text-anchor="middle" x="1435" y="-435" font-family="FreeSans" font-size="10.00"> ptr_</text>
</g>
<!-- Node3 -->
<g id="node4" class="node"><title>Node3</title>
<a xlink:href="class_urho3_d_1_1_resource.html" target="_top" xlink:title="Base class for resources.">
<polygon fill="none" stroke="black" points="965.5,-384.5 965.5,-405.5 1068.5,-405.5 1068.5,-384.5 965.5,-384.5"/>
<text text-anchor="middle" x="1017" y="-392.5" font-family="FreeSans" font-size="10.00">Urho3D::Resource</text>
</a>
</g>
<!-- Node3&#45;&gt;Node2 -->
<g id="edge4" class="edge"><title>Node3&#45;&gt;Node2</title>
<path fill="none" stroke="midnightblue" d="M1078.79,-389.203C1126.96,-387.782 1192.84,-387.95 1236.82,-389.706"/>
<polygon fill="midnightblue" stroke="midnightblue" points="1078.68,-385.705 1068.8,-389.53 1078.91,-392.701 1078.68,-385.705"/>
</g>
<!-- Node3&#45;&gt;Node2 -->
<g id="edge72" class="edge"><title>Node3&#45;&gt;Node2</title>
<path fill="none" stroke="midnightblue" d="M1078.79,-400.797C1126.96,-402.218 1192.84,-402.05 1236.82,-400.294"/>
<polygon fill="midnightblue" stroke="midnightblue" points="1078.91,-397.299 1068.8,-400.47 1078.68,-404.295 1078.91,-397.299"/>
</g>
<!-- Node15 -->
<g id="node33" class="node"><title>Node15</title>
<a xlink:href="class_urho3_d_1_1_image.html" target="_top" xlink:title="Image resource.">
<polygon fill="none" stroke="black" points="1239.5,-193.5 1239.5,-214.5 1328.5,-214.5 1328.5,-193.5 1239.5,-193.5"/>
<text text-anchor="middle" x="1284" y="-201.5" font-family="FreeSans" font-size="10.00">Urho3D::Image</text>
</a>
</g>
<!-- Node3&#45;&gt;Node15 -->
<g id="edge40" class="edge"><title>Node3&#45;&gt;Node15</title>
<path fill="none" stroke="midnightblue" d="M1077.86,-383.295C1081.6,-380.989 1085.04,-378.251 1088,-375 1118.09,-341.916 1077.77,-310.689 1106,-276 1138.93,-235.534 1198.12,-217.636 1239.16,-209.836"/>
<polygon fill="midnightblue" stroke="midnightblue" points="1076.03,-380.298 1068.68,-387.925 1079.18,-386.549 1076.03,-380.298"/>
</g>
<!-- Node25 -->
<g id="node71" class="node"><title>Node25</title>
<a xlink:href="class_urho3_d_1_1_x_m_l_file.html" target="_top" xlink:title="XML document resource.">
<polygon fill="none" stroke="black" points="1237,-251.5 1237,-272.5 1331,-272.5 1331,-251.5 1237,-251.5"/>
<text text-anchor="middle" x="1284" y="-259.5" font-family="FreeSans" font-size="10.00">Urho3D::XMLFile</text>
</a>
</g>
<!-- Node3&#45;&gt;Node25 -->
<g id="edge96" class="edge"><title>Node3&#45;&gt;Node25</title>
<path fill="none" stroke="midnightblue" d="M1077.79,-382.643C1081.49,-380.485 1084.95,-377.958 1088,-375 1107.08,-356.511 1087.2,-336.775 1106,-318 1140.84,-283.199 1197.06,-269.982 1236.99,-264.987"/>
<polygon fill="midnightblue" stroke="midnightblue" points="1076.24,-379.508 1068.79,-387.039 1079.31,-385.799 1076.24,-379.508"/>
</g>
<!-- Node4 -->
<g id="node6" class="node"><title>Node4</title>
<a xlink:href="class_urho3_d_1_1_object.html" target="_top" xlink:title="Base class for objects with type identification, subsystem access and event sending/receiving capabil...">
<polygon fill="none" stroke="black" points="746,-526.5 746,-547.5 836,-547.5 836,-526.5 746,-526.5"/>
<text text-anchor="middle" x="791" y="-534.5" font-family="FreeSans" font-size="10.00">Urho3D::Object</text>
</a>
</g>
<!-- Node4&#45;&gt;Node3 -->
<g id="edge6" class="edge"><title>Node4&#45;&gt;Node3</title>
<path fill="none" stroke="midnightblue" d="M835.48,-522.812C839.784,-521.019 844.023,-519.077 848,-517 911.508,-483.827 977.874,-428.988 1004.69,-405.841"/>
<polygon fill="midnightblue" stroke="midnightblue" points="834.08,-519.601 826.035,-526.495 836.623,-526.123 834.08,-519.601"/>
</g>
<!-- Node4&#45;&gt;Node14 -->
<g id="edge34" class="edge"><title>Node4&#45;&gt;Node14</title>
<path fill="none" stroke="midnightblue" d="M845.765,-550.044C891.022,-563.255 957.302,-581 1017,-581 1017,-581 1017,-581 1557,-581 1646.65,-581 1669.38,-571.13 1756,-548 1770.83,-544.04 1786.61,-538.6 1800.8,-533.635"/>
<polygon fill="midnightblue" stroke="midnightblue" points="846.734,-546.681 836.153,-547.218 844.759,-553.396 846.734,-546.681"/>
</g>
<!-- Node4&#45;&gt;Node14 -->
<g id="edge36" class="edge"><title>Node4&#45;&gt;Node14</title>
<path fill="none" stroke="midnightblue" d="M814.931,-551.945C855.716,-570.697 941.608,-599 1017,-599 1017,-599 1017,-599 1557,-599 1646.65,-599 1669.38,-589.13 1756,-566 1785.66,-558.081 1819.14,-544.237 1836.02,-533.661"/>
<polygon fill="midnightblue" stroke="midnightblue" points="816.319,-548.728 805.793,-547.522 813.269,-555.029 816.319,-548.728"/>
</g>
<!-- Node5 -->
<g id="node8" class="node"><title>Node5</title>
<a xlink:href="class_urho3_d_1_1_ref_counted.html" target="_top" xlink:title="Base class for intrusively reference&#45;counted objects. These are noncopyable and non&#45;assignable.">
<polygon fill="none" stroke="black" points="188,-185.5 188,-206.5 302,-206.5 302,-185.5 188,-185.5"/>
<text text-anchor="middle" x="245" y="-193.5" font-family="FreeSans" font-size="10.00">Urho3D::RefCounted</text>
</a>
</g>
<!-- Node5&#45;&gt;Node4 -->
<g id="edge8" class="edge"><title>Node5&#45;&gt;Node4</title>
<path fill="none" stroke="midnightblue" d="M248.156,-216.631C255.134,-256.744 274.962,-346.608 320,-407 370.009,-474.057 393.281,-489.7 472,-518 564.801,-551.363 682.523,-547.556 745.819,-542.111"/>
<polygon fill="midnightblue" stroke="midnightblue" points="251.599,-215.999 246.518,-206.701 244.692,-217.138 251.599,-215.999"/>
</g>
<!-- Node7 -->
<g id="node12" class="node"><title>Node7</title>
<a xlink:href="class_urho3_d_1_1_context.html" target="_top" xlink:title="Urho3D execution context. Provides access to subsystems, object factories and attributes, and event receivers.">
<polygon fill="none" stroke="red" points="496.5,-487.5 496.5,-508.5 593.5,-508.5 593.5,-487.5 496.5,-487.5"/>
<text text-anchor="middle" x="545" y="-495.5" font-family="FreeSans" font-size="10.00">Urho3D::Context</text>
</a>
</g>
<!-- Node5&#45;&gt;Node7 -->
<g id="edge14" class="edge"><title>Node5&#45;&gt;Node7</title>
<path fill="none" stroke="midnightblue" d="M255.104,-215.76C282.519,-267.335 363.588,-406.937 472,-478 479.363,-482.827 487.873,-486.497 496.424,-489.285"/>
<polygon fill="midnightblue" stroke="midnightblue" points="258.082,-213.902 250.344,-206.665 251.88,-217.148 258.082,-213.902"/>
</g>
<!-- Node5&#45;&gt;Node18 -->
<g id="edge52" class="edge"><title>Node5&#45;&gt;Node18</title>
<path fill="none" stroke="midnightblue" d="M312.092,-187.828C423.5,-179.792 653.65,-169.315 848,-154 1085.77,-135.264 1367.43,-103.358 1492.09,-92.5769"/>
<polygon fill="midnightblue" stroke="midnightblue" points="311.724,-184.346 302.01,-188.574 312.241,-191.327 311.724,-184.346"/>
</g>
<!-- Node5&#45;&gt;Node18 -->
<g id="edge54" class="edge"><title>Node5&#45;&gt;Node18</title>
<path fill="none" stroke="midnightblue" d="M312.092,-198.93C423.5,-197.792 653.65,-187.315 848,-172 1096.26,-152.438 1392.35,-118.518 1507.65,-100.532"/>
<polygon fill="midnightblue" stroke="midnightblue" points="311.982,-195.431 302.01,-199.01 312.037,-202.431 311.982,-195.431"/>
</g>
<!-- Node6 -->
<g id="node10" class="node"><title>Node6</title>
<a xlink:href="struct_urho3_d_1_1_ref_count.html" target="_top" xlink:title="Reference count structure.">
<polygon fill="none" stroke="black" points="0,-162.5 0,-183.5 102,-183.5 102,-162.5 0,-162.5"/>
<text text-anchor="middle" x="51" y="-170.5" font-family="FreeSans" font-size="10.00">Urho3D::RefCount</text>
</a>
</g>
<!-- Node6&#45;&gt;Node5 -->
<g id="edge10" class="edge"><title>Node6&#45;&gt;Node5</title>
<path fill="none" stroke="#9a32cd" stroke-dasharray="5,2" d="M112.327,-180.271C136.436,-183.129 163.96,-186.392 187.666,-189.203"/>
<polygon fill="#9a32cd" stroke="#9a32cd" points="112.568,-176.775 102.225,-179.073 111.743,-183.726 112.568,-176.775"/>
<text text-anchor="middle" x="145" y="-190" font-family="FreeSans" font-size="10.00"> refCount_</text>
</g>
<!-- Node13 -->
<g id="node27" class="node"><title>Node13</title>
<a xlink:href="class_urho3_d_1_1_weak_ptr.html" target="_top" xlink:title="Urho3D::WeakPtr\&lt; Urho3D\l::Graphics \&gt;">
<polygon fill="none" stroke="black" points="2034,-506 2034,-540 2180,-540 2180,-506 2034,-506"/>
<text text-anchor="start" x="2042" y="-527" font-family="FreeSans" font-size="10.00">Urho3D::WeakPtr&lt; Urho3D</text>
<text text-anchor="middle" x="2107" y="-514" font-family="FreeSans" font-size="10.00">::Graphics &gt;</text>
</a>
</g>
<!-- Node6&#45;&gt;Node13 -->
<g id="edge70" class="edge"><title>Node6&#45;&gt;Node13</title>
<path fill="none" stroke="#9a32cd" stroke-dasharray="5,2" d="M54.7598,-193.681C71.8797,-284.686 145.918,-645 245,-645 245,-645 245,-645 1847,-645 1944.48,-645 2044.7,-573.85 2086.63,-540.221"/>
<polygon fill="#9a32cd" stroke="#9a32cd" points="58.182,-192.939 52.9171,-183.745 51.2994,-194.216 58.182,-192.939"/>
<text text-anchor="middle" x="1017" y="-649" font-family="FreeSans" font-size="10.00"> refCount_</text>
</g>
<!-- Node16 -->
<g id="node36" class="node"><title>Node16</title>
<a xlink:href="class_urho3_d_1_1_shared_array_ptr.html" target="_top" xlink:title="Urho3D::SharedArrayPtr\l\&lt; unsigned char \&gt;">
<polygon fill="none" stroke="black" points="320.5,-132 320.5,-166 453.5,-166 453.5,-132 320.5,-132"/>
<text text-anchor="start" x="328.5" y="-153" font-family="FreeSans" font-size="10.00">Urho3D::SharedArrayPtr</text>
<text text-anchor="middle" x="387" y="-140" font-family="FreeSans" font-size="10.00">&lt; unsigned char &gt;</text>
</a>
</g>
<!-- Node6&#45;&gt;Node16 -->
<g id="edge44" class="edge"><title>Node6&#45;&gt;Node16</title>
<path fill="none" stroke="#9a32cd" stroke-dasharray="5,2" d="M112.298,-164.767C114.898,-164.493 117.474,-164.235 120,-164 188.069,-157.657 266.169,-153.648 320.24,-151.387"/>
<polygon fill="#9a32cd" stroke="#9a32cd" points="111.747,-161.306 102.198,-165.896 112.525,-168.263 111.747,-161.306"/>
<text text-anchor="middle" x="145" y="-168" font-family="FreeSans" font-size="10.00"> refCount_</text>
</g>
<!-- Node19 -->
<g id="node46" class="node"><title>Node19</title>
<a xlink:href="class_urho3_d_1_1_weak_ptr.html" target="_top" xlink:title="Urho3D::WeakPtr\&lt; Urho3D\l::RenderSurface \&gt;">
<polygon fill="none" stroke="black" points="1774,-16 1774,-50 1920,-50 1920,-16 1774,-16"/>
<text text-anchor="start" x="1782" y="-37" font-family="FreeSans" font-size="10.00">Urho3D::WeakPtr&lt; Urho3D</text>
<text text-anchor="middle" x="1847" y="-24" font-family="FreeSans" font-size="10.00">::RenderSurface &gt;</text>
</a>
</g>
<!-- Node6&#45;&gt;Node19 -->
<g id="edge60" class="edge"><title>Node6&#45;&gt;Node19</title>
<path fill="none" stroke="#9a32cd" stroke-dasharray="5,2" d="M60.8561,-153.579C85.3292,-108.388 153.558,-0 245,-0 245,-0 245,-0 1557,-0 1645.73,-0 1668.05,-4.28145 1756,-16 1761.74,-16.7641 1767.66,-17.6496 1773.6,-18.607"/>
<polygon fill="#9a32cd" stroke="#9a32cd" points="57.7529,-151.96 56.1837,-162.438 63.9446,-155.226 57.7529,-151.96"/>
<text text-anchor="middle" x="897" y="-4" font-family="FreeSans" font-size="10.00"> refCount_</text>
</g>
<!-- Node7&#45;&gt;Node4 -->
<g id="edge12" class="edge"><title>Node7&#45;&gt;Node4</title>
<path fill="none" stroke="#9a32cd" stroke-dasharray="5,2" d="M603.863,-497.787C637.132,-498.744 679.287,-501.772 716,-510 724.376,-511.877 725.949,-514.023 734,-517 742.558,-520.164 751.882,-523.488 760.463,-526.497"/>
<polygon fill="#9a32cd" stroke="#9a32cd" points="603.919,-494.287 593.84,-497.553 603.755,-501.285 603.919,-494.287"/>
<text text-anchor="middle" x="676" y="-514" font-family="FreeSans" font-size="10.00"> context_</text>
</g>
<!-- Node8 -->
<g id="node15" class="node"><title>Node8</title>
<a xlink:href="class_urho3_d_1_1_linked_list.html" target="_top" xlink:title="Urho3D::LinkedList\l\&lt; Urho3D::EventHandler \&gt;">
<polygon fill="none" stroke="red" points="472,-435 472,-469 618,-469 618,-435 472,-435"/>
<text text-anchor="start" x="480" y="-456" font-family="FreeSans" font-size="10.00">Urho3D::LinkedList</text>
<text text-anchor="middle" x="545" y="-443" font-family="FreeSans" font-size="10.00">&lt; Urho3D::EventHandler &gt;</text>
</a>
</g>
<!-- Node8&#45;&gt;Node4 -->
<g id="edge16" class="edge"><title>Node8&#45;&gt;Node4</title>
<path fill="none" stroke="#9a32cd" stroke-dasharray="5,2" d="M628.163,-451.58C658.235,-455.087 690.924,-463.534 716,-482 730.085,-492.372 720.81,-505.51 734,-517 738.349,-520.789 743.461,-523.873 748.806,-526.38"/>
<polygon fill="#9a32cd" stroke="#9a32cd" points="628.378,-448.084 618.079,-450.572 627.682,-455.049 628.378,-448.084"/>
<text text-anchor="middle" x="676" y="-486" font-family="FreeSans" font-size="10.00"> eventHandlers_</text>
</g>
<!-- Node9 -->
<g id="node17" class="node"><title>Node9</title>
<a xlink:href="class_urho3_d_1_1_timer.html" target="_top" xlink:title="Low&#45;resolution operating system timer.">
<polygon fill="none" stroke="black" points="748,-344.5 748,-365.5 834,-365.5 834,-344.5 748,-344.5"/>
<text text-anchor="middle" x="791" y="-352.5" font-family="FreeSans" font-size="10.00">Urho3D::Timer</text>
</a>
</g>
<!-- Node9&#45;&gt;Node3 -->
<g id="edge18" class="edge"><title>Node9&#45;&gt;Node3</title>
<path fill="none" stroke="#9a32cd" stroke-dasharray="5,2" d="M844.388,-363.678C869.744,-367.872 900.46,-373.059 928,-378 940.077,-380.167 953.057,-382.592 965.268,-384.916"/>
<polygon fill="#9a32cd" stroke="#9a32cd" points="844.671,-360.177 834.235,-362.004 843.532,-367.084 844.671,-360.177"/>
<text text-anchor="middle" x="897" y="-382" font-family="FreeSans" font-size="10.00"> useTimer_</text>
</g>
<!-- Node10 -->
<g id="node19" class="node"><title>Node10</title>
<a xlink:href="class_urho3_d_1_1_string.html" target="_top" xlink:title="String class.">
<polygon fill="none" stroke="black" points="747,-455.5 747,-476.5 835,-476.5 835,-455.5 747,-455.5"/>
<text text-anchor="middle" x="791" y="-463.5" font-family="FreeSans" font-size="10.00">Urho3D::String</text>
</a>
</g>
<!-- Node10&#45;&gt;Node3 -->
<g id="edge20" class="edge"><title>Node10&#45;&gt;Node3</title>
<path fill="none" stroke="#9a32cd" stroke-dasharray="5,2" d="M834.55,-452.318C877.966,-438.679 943.724,-418.02 983.304,-405.586"/>
<polygon fill="#9a32cd" stroke="#9a32cd" points="833.326,-449.034 824.834,-455.371 835.424,-455.712 833.326,-449.034"/>
<text text-anchor="middle" x="897" y="-445" font-family="FreeSans" font-size="10.00"> name_</text>
</g>
<!-- Node10&#45;&gt;Node10 -->
<g id="edge22" class="edge"><title>Node10&#45;&gt;Node10</title>
<path fill="none" stroke="#9a32cd" stroke-dasharray="5,2" d="M771.465,-486.427C772.972,-491.349 779.484,-495 791,-495 809.426,-495 815.04,-485.653 807.842,-476.708"/>
<polygon fill="#9a32cd" stroke="#9a32cd" points="774.861,-487.279 774.158,-476.708 768.115,-485.41 774.861,-487.279"/>
<text text-anchor="middle" x="791" y="-499" font-family="FreeSans" font-size="10.00"> EMPTY</text>
</g>
<!-- Node10&#45;&gt;Node14 -->
<g id="edge68" class="edge"><title>Node10&#45;&gt;Node14</title>
<path fill="none" stroke="#9a32cd" stroke-dasharray="5,2" d="M845.421,-464.924C971.207,-462.955 1278.9,-461.238 1378,-489 1386.81,-491.469 1387.59,-495.394 1396,-499 1437.09,-516.613 1447.81,-522.256 1492,-529 1599.4,-545.39 1727.18,-536.368 1796.38,-529.156"/>
<polygon fill="#9a32cd" stroke="#9a32cd" points="845.194,-461.427 835.252,-465.09 845.308,-468.427 845.194,-461.427"/>
<text text-anchor="middle" x="1284" y="-558" font-family="FreeSans" font-size="10.00"> lastShaderName_</text>
<text text-anchor="middle" x="1284" y="-545" font-family="FreeSans" font-size="10.00">windowTitle_</text>
<text text-anchor="middle" x="1284" y="-532" font-family="FreeSans" font-size="10.00">apiName_</text>
<text text-anchor="middle" x="1284" y="-519" font-family="FreeSans" font-size="10.00">shaderPath_</text>
<text text-anchor="middle" x="1284" y="-506" font-family="FreeSans" font-size="10.00">orientations_</text>
<text text-anchor="middle" x="1284" y="-493" font-family="FreeSans" font-size="10.00">shaderExtension_</text>
</g>
<!-- Node11 -->
<g id="node22" class="node"><title>Node11</title>
<a xlink:href="class_urho3_d_1_1_string_hash.html" target="_top" xlink:title="32&#45;bit hash value for a string.">
<polygon fill="none" stroke="black" points="734.5,-384.5 734.5,-405.5 847.5,-405.5 847.5,-384.5 734.5,-384.5"/>
<text text-anchor="middle" x="791" y="-392.5" font-family="FreeSans" font-size="10.00">Urho3D::StringHash</text>
</a>
</g>
<!-- Node11&#45;&gt;Node3 -->
<g id="edge24" class="edge"><title>Node11&#45;&gt;Node3</title>
<path fill="none" stroke="#9a32cd" stroke-dasharray="5,2" d="M858.141,-395C892.42,-395 933.48,-395 965.268,-395"/>
<polygon fill="#9a32cd" stroke="#9a32cd" points="857.738,-391.5 847.738,-395 857.738,-398.5 857.738,-391.5"/>
<text text-anchor="middle" x="897" y="-399" font-family="FreeSans" font-size="10.00"> nameHash_</text>
</g>
<!-- Node11&#45;&gt;Node11 -->
<g id="edge26" class="edge"><title>Node11&#45;&gt;Node11</title>
<path fill="none" stroke="#9a32cd" stroke-dasharray="5,2" d="M771.465,-415.427C772.972,-420.349 779.484,-424 791,-424 809.426,-424 815.04,-414.653 807.842,-405.708"/>
<polygon fill="#9a32cd" stroke="#9a32cd" points="774.861,-416.279 774.158,-405.708 768.115,-414.41 774.861,-416.279"/>
<text text-anchor="middle" x="791" y="-428" font-family="FreeSans" font-size="10.00"> ZERO</text>
</g>
<!-- Node12 -->
<g id="node25" class="node"><title>Node12</title>
<a xlink:href="class_urho3_d_1_1_g_p_u_object.html" target="_top" xlink:title="Base class for GPU resources.">
<polygon fill="none" stroke="black" points="2266.5,-384.5 2266.5,-405.5 2377.5,-405.5 2377.5,-384.5 2266.5,-384.5"/>
<text text-anchor="middle" x="2322" y="-392.5" font-family="FreeSans" font-size="10.00">Urho3D::GPUObject</text>
</a>
</g>
<!-- Node12&#45;&gt;Node2 -->
<g id="edge28" class="edge"><title>Node12&#45;&gt;Node2</title>
<path fill="none" stroke="midnightblue" d="M2256.09,-387.289C2213.54,-386 2157,-386 2107,-386 1557,-386 1557,-386 1557,-386 1477.85,-386 1385.79,-386 1331.35,-388.498"/>
<polygon fill="midnightblue" stroke="midnightblue" points="2256.2,-390.795 2266.32,-387.635 2256.44,-383.799 2256.2,-390.795"/>
</g>
<!-- Node12&#45;&gt;Node2 -->
<g id="edge74" class="edge"><title>Node12&#45;&gt;Node2</title>
<path fill="none" stroke="midnightblue" d="M2256.09,-402.711C2213.54,-404 2157,-404 2107,-404 1557,-404 1557,-404 1557,-404 1477.85,-404 1385.79,-404 1331.35,-401.502"/>
<polygon fill="midnightblue" stroke="midnightblue" points="2256.44,-406.201 2266.32,-402.365 2256.2,-399.205 2256.44,-406.201"/>
</g>
<!-- Node13&#45;&gt;Node12 -->
<g id="edge30" class="edge"><title>Node13&#45;&gt;Node12</title>
<path fill="none" stroke="#9a32cd" stroke-dasharray="5,2" d="M2144.63,-500.599C2191.37,-472.771 2269.21,-426.429 2304.11,-405.65"/>
<polygon fill="#9a32cd" stroke="#9a32cd" points="2142.8,-497.614 2136,-505.737 2146.38,-503.629 2142.8,-497.614"/>
<text text-anchor="middle" x="2223" y="-470" font-family="FreeSans" font-size="10.00"> graphics_</text>
</g>
<!-- Node14&#45;&gt;Node13 -->
<g id="edge32" class="edge"><title>Node14&#45;&gt;Node13</title>
<path fill="none" stroke="#9a32cd" stroke-dasharray="5,2" d="M1908.05,-523C1945.65,-523 1994.08,-523 2033.75,-523"/>
<polygon fill="#9a32cd" stroke="#9a32cd" points="1907.75,-519.5 1897.75,-523 1907.75,-526.5 1907.75,-519.5"/>
<text text-anchor="middle" x="1977" y="-527" font-family="FreeSans" font-size="10.00"> ptr_</text>
</g>
<!-- Node15&#45;&gt;Node14 -->
<g id="edge38" class="edge"><title>Node15&#45;&gt;Node14</title>
<path fill="none" stroke="#9a32cd" stroke-dasharray="5,2" d="M1335.51,-218.142C1350.31,-223.891 1365.74,-231.678 1378,-242 1389.61,-251.77 1385.03,-260.523 1396,-271 1431.92,-305.304 1743.31,-468.901 1826.59,-512.372"/>
<polygon fill="#9a32cd" stroke="#9a32cd" points="1336.52,-214.783 1325.92,-214.652 1334.12,-221.361 1336.52,-214.783"/>
<text text-anchor="middle" x="1557" y="-404" font-family="FreeSans" font-size="10.00"> windowIcon_</text>
</g>
<!-- Node17 -->
<g id="node39" class="node"><title>Node17</title>
<a xlink:href="class_urho3_d_1_1_shared_ptr.html" target="_top" xlink:title="Urho3D::SharedPtr\&lt;\l Urho3D::Image \&gt;">
<polygon fill="none" stroke="black" points="1499,-151 1499,-185 1615,-185 1615,-151 1499,-151"/>
<text text-anchor="start" x="1507" y="-172" font-family="FreeSans" font-size="10.00">Urho3D::SharedPtr&lt;</text>
<text text-anchor="middle" x="1557" y="-159" font-family="FreeSans" font-size="10.00"> Urho3D::Image &gt;</text>
</a>
</g>
<!-- Node15&#45;&gt;Node17 -->
<g id="edge48" class="edge"><title>Node15&#45;&gt;Node17</title>
<path fill="none" stroke="#9a32cd" stroke-dasharray="5,2" d="M1316.49,-189.433C1338.44,-180.408 1368.36,-169.675 1396,-165 1430.18,-159.219 1439.34,-164.374 1474,-165 1482.07,-165.146 1490.59,-165.371 1498.96,-165.635"/>
<polygon fill="#9a32cd" stroke="#9a32cd" points="1314.85,-186.324 1306.99,-193.432 1317.57,-192.775 1314.85,-186.324"/>
<text text-anchor="middle" x="1435" y="-169" font-family="FreeSans" font-size="10.00"> ptr_</text>
</g>
<!-- Node16&#45;&gt;Node15 -->
<g id="edge42" class="edge"><title>Node16&#45;&gt;Node15</title>
<path fill="none" stroke="#9a32cd" stroke-dasharray="5,2" d="M463.799,-147.769C522.034,-146.941 604.052,-146 676,-146 676,-146 676,-146 1017,-146 1105.47,-146 1206.74,-176.783 1255.21,-193.497"/>
<polygon fill="#9a32cd" stroke="#9a32cd" points="463.522,-144.273 453.574,-147.917 463.624,-151.272 463.522,-144.273"/>
<text text-anchor="middle" x="791" y="-150" font-family="FreeSans" font-size="10.00"> data_</text>
</g>
<!-- Node17&#45;&gt;Node1 -->
<g id="edge86" class="edge"><title>Node17&#45;&gt;Node1</title>
<path fill="none" stroke="#9a32cd" stroke-dasharray="5,2" d="M1625.1,-171.212C1663.6,-173.423 1712.58,-176.897 1756,-182 1861.97,-194.455 1984.75,-216.512 2053.4,-229.54"/>
<polygon fill="#9a32cd" stroke="#9a32cd" points="1625.22,-167.713 1615.04,-170.649 1624.83,-174.702 1625.22,-167.713"/>
<text text-anchor="middle" x="1847" y="-209" font-family="FreeSans" font-size="10.00"> loadImage_</text>
</g>
<!-- Node17&#45;&gt;Node15 -->
<g id="edge46" class="edge"><title>Node17&#45;&gt;Node15</title>
<path fill="none" stroke="#9a32cd" stroke-dasharray="5,2" d="M1488.5,-179.841C1483.59,-180.6 1478.72,-181.328 1474,-182 1424.36,-189.056 1367.17,-195.442 1328.62,-199.494"/>
<polygon fill="#9a32cd" stroke="#9a32cd" points="1489.23,-183.268 1498.56,-178.247 1488.14,-176.354 1489.23,-183.268"/>
<text text-anchor="middle" x="1435" y="-208" font-family="FreeSans" font-size="10.00"> nextLevel_</text>
<text text-anchor="middle" x="1435" y="-195" font-family="FreeSans" font-size="10.00">nextSibling_</text>
</g>
<!-- Node18&#45;&gt;Node14 -->
<g id="edge50" class="edge"><title>Node18&#45;&gt;Node14</title>
<path fill="none" stroke="#9a32cd" stroke-dasharray="5,2" d="M1585.88,-105.344C1640.69,-134.489 1754.51,-195.141 1756,-197 1758.62,-200.269 1828.75,-456.303 1844.07,-512.271"/>
<polygon fill="#9a32cd" stroke="#9a32cd" points="1587.47,-102.223 1576.99,-100.619 1584.18,-108.403 1587.47,-102.223"/>
<text text-anchor="middle" x="1698" y="-214" font-family="FreeSans" font-size="10.00"> depthStencil_</text>
<text text-anchor="middle" x="1698" y="-201" font-family="FreeSans" font-size="10.00">renderTargets_</text>
</g>
<!-- Node18&#45;&gt;Node19 -->
<g id="edge58" class="edge"><title>Node18&#45;&gt;Node19</title>
<path fill="none" stroke="#9a32cd" stroke-dasharray="5,2" d="M1574.95,-72.1427C1590.62,-57.9028 1614.76,-39.0575 1640,-31 1682.97,-17.2844 1733.56,-17.4972 1773.97,-21.2783"/>
<polygon fill="#9a32cd" stroke="#9a32cd" points="1572.45,-69.6875 1567.57,-79.088 1577.25,-74.7868 1572.45,-69.6875"/>
<text text-anchor="middle" x="1698" y="-35" font-family="FreeSans" font-size="10.00"> ptr_</text>
</g>
<!-- Node23 -->
<g id="node66" class="node"><title>Node23</title>
<a xlink:href="class_urho3_d_1_1_shared_ptr.html" target="_top" xlink:title="Urho3D::SharedPtr\&lt;\l Urho3D::RenderSurface \&gt;">
<polygon fill="none" stroke="black" points="1775.5,-98 1775.5,-132 1918.5,-132 1918.5,-98 1775.5,-98"/>
<text text-anchor="start" x="1783.5" y="-119" font-family="FreeSans" font-size="10.00">Urho3D::SharedPtr&lt;</text>
<text text-anchor="middle" x="1847" y="-106" font-family="FreeSans" font-size="10.00"> Urho3D::RenderSurface &gt;</text>
</a>
</g>
<!-- Node18&#45;&gt;Node23 -->
<g id="edge90" class="edge"><title>Node18&#45;&gt;Node23</title>
<path fill="none" stroke="#9a32cd" stroke-dasharray="5,2" d="M1605.96,-102.88C1617.08,-105.336 1628.89,-107.581 1640,-109 1684.76,-114.715 1735.38,-116.269 1775.36,-116.368"/>
<polygon fill="#9a32cd" stroke="#9a32cd" points="1606.51,-99.4158 1595.98,-100.582 1604.94,-106.237 1606.51,-99.4158"/>
<text text-anchor="middle" x="1698" y="-121" font-family="FreeSans" font-size="10.00"> ptr_</text>
</g>
<!-- Node19&#45;&gt;Node18 -->
<g id="edge56" class="edge"><title>Node19&#45;&gt;Node18</title>
<path fill="none" stroke="#9a32cd" stroke-dasharray="5,2" d="M1763.79,-46.024C1709.02,-54.6372 1646.29,-64.5949 1640,-66 1623.31,-69.7281 1605.03,-74.8952 1589.88,-79.4803"/>
<polygon fill="#9a32cd" stroke="#9a32cd" points="1764.58,-49.4439 1773.91,-44.4337 1763.49,-42.5287 1764.58,-49.4439"/>
<text text-anchor="start" x="1650" y="-96" font-family="FreeSans" font-size="10.00"> linkedDepthStencil</text>
<text text-anchor="middle" x="1698" y="-83" font-family="FreeSans" font-size="10.00">_</text>
<text text-anchor="middle" x="1698" y="-70" font-family="FreeSans" font-size="10.00">linkedRenderTarget_</text>
</g>
<!-- Node20 -->
<g id="node51" class="node"><title>Node20</title>
<a xlink:href="class_urho3_d_1_1_vector.html" target="_top" xlink:title="Urho3D::Vector\&lt; Urho3D\l::SharedPtr\&lt; Urho3D::Viewport \&gt; \&gt;">
<polygon fill="none" stroke="red" points="1190,-28 1190,-62 1378,-62 1378,-28 1190,-28"/>
<text text-anchor="start" x="1198" y="-49" font-family="FreeSans" font-size="10.00">Urho3D::Vector&lt; Urho3D</text>
<text text-anchor="middle" x="1284" y="-36" font-family="FreeSans" font-size="10.00">::SharedPtr&lt; Urho3D::Viewport &gt; &gt;</text>
</a>
</g>
<!-- Node20&#45;&gt;Node18 -->
<g id="edge64" class="edge"><title>Node20&#45;&gt;Node18</title>
<path fill="none" stroke="#9a32cd" stroke-dasharray="5,2" d="M1388.42,-43.1766C1416.49,-44.5173 1446.64,-47.6434 1474,-54 1496.95,-59.3319 1521.5,-70.7751 1537.9,-79.3374"/>
<polygon fill="#9a32cd" stroke="#9a32cd" points="1388.31,-39.6696 1378.18,-42.7608 1388.03,-46.6638 1388.31,-39.6696"/>
<text text-anchor="middle" x="1435" y="-58" font-family="FreeSans" font-size="10.00"> viewports_</text>
</g>
<!-- Node21&#45;&gt;Node2 -->
<g id="edge76" class="edge"><title>Node21&#45;&gt;Node2</title>
<path fill="none" stroke="#9a32cd" stroke-dasharray="5,2" d="M1488.85,-457.102C1459.88,-458.689 1425.93,-458.066 1396,-451 1358.97,-442.259 1320.23,-419.3 1299.42,-405.646"/>
<polygon fill="#9a32cd" stroke="#9a32cd" points="1489.13,-460.592 1498.88,-456.455 1488.68,-453.606 1489.13,-460.592"/>
<text text-anchor="middle" x="1435" y="-461" font-family="FreeSans" font-size="10.00"> backupTexture_</text>
</g>
<!-- Node22 -->
<g id="node61" class="node"><title>Node22</title>
<a xlink:href="class_urho3_d_1_1_color.html" target="_top" xlink:title="RGBA color.">
<polygon fill="none" stroke="black" points="975,-183.5 975,-204.5 1059,-204.5 1059,-183.5 975,-183.5"/>
<text text-anchor="middle" x="1017" y="-191.5" font-family="FreeSans" font-size="10.00">Urho3D::Color</text>
</a>
</g>
<!-- Node22&#45;&gt;Node2 -->
<g id="edge80" class="edge"><title>Node22&#45;&gt;Node2</title>
<path fill="none" stroke="#9a32cd" stroke-dasharray="5,2" d="M1039.07,-210.615C1092.19,-250.601 1225.98,-351.323 1269.84,-384.338"/>
<polygon fill="#9a32cd" stroke="#9a32cd" points="1041.07,-207.742 1030.98,-204.524 1036.86,-213.334 1041.07,-207.742"/>
<text text-anchor="middle" x="1139" y="-310" font-family="FreeSans" font-size="10.00"> borderColor_</text>
</g>
<!-- Node22&#45;&gt;Node22 -->
<g id="edge82" class="edge"><title>Node22&#45;&gt;Node22</title>
<path fill="none" stroke="#9a32cd" stroke-dasharray="5,2" d="M994.885,-214.427C996.591,-219.349 1003.96,-223 1017,-223 1037.86,-223 1044.21,-213.653 1036.07,-204.708"/>
<polygon fill="#9a32cd" stroke="#9a32cd" points="998.28,-215.297 997.933,-204.708 991.601,-213.202 998.28,-215.297"/>
<text text-anchor="middle" x="1017" y="-357" font-family="FreeSans" font-size="10.00"> CYAN</text>
<text text-anchor="middle" x="1017" y="-344" font-family="FreeSans" font-size="10.00">GRAY</text>
<text text-anchor="middle" x="1017" y="-331" font-family="FreeSans" font-size="10.00">YELLOW</text>
<text text-anchor="middle" x="1017" y="-318" font-family="FreeSans" font-size="10.00">MAGENTA</text>
<text text-anchor="middle" x="1017" y="-305" font-family="FreeSans" font-size="10.00">WHITE</text>
<text text-anchor="middle" x="1017" y="-292" font-family="FreeSans" font-size="10.00">TRANSPARENT</text>
<text text-anchor="middle" x="1017" y="-279" font-family="FreeSans" font-size="10.00">BLUE</text>
<text text-anchor="middle" x="1017" y="-266" font-family="FreeSans" font-size="10.00">BLACK</text>
<text text-anchor="middle" x="1017" y="-253" font-family="FreeSans" font-size="10.00">RED</text>
<text text-anchor="middle" x="1017" y="-240" font-family="FreeSans" font-size="10.00">GREEN</text>
<text text-anchor="middle" x="1017" y="-227" font-family="FreeSans" font-size="10.00">...</text>
</g>
<!-- Node23&#45;&gt;Node1 -->
<g id="edge88" class="edge"><title>Node23&#45;&gt;Node1</title>
<path fill="none" stroke="#9a32cd" stroke-dasharray="5,2" d="M1928.68,-116.524C1957.61,-119.853 1989.53,-126.876 2016,-141 2056.17,-162.427 2087.94,-208.653 2100.8,-229.465"/>
<polygon fill="#9a32cd" stroke="#9a32cd" points="1928.88,-113.027 1918.58,-115.495 1928.17,-119.991 1928.88,-113.027"/>
<text text-anchor="middle" x="1977" y="-145" font-family="FreeSans" font-size="10.00"> renderSurface_</text>
</g>
<!-- Node24 -->
<g id="node69" class="node"><title>Node24</title>
<a xlink:href="class_urho3_d_1_1_shared_ptr.html" target="_top" xlink:title="Urho3D::SharedPtr\&lt;\l Urho3D::XMLFile \&gt;">
<polygon fill="none" stroke="black" points="1640,-232 1640,-266 1756,-266 1756,-232 1640,-232"/>
<text text-anchor="start" x="1648" y="-253" font-family="FreeSans" font-size="10.00">Urho3D::SharedPtr&lt;</text>
<text text-anchor="middle" x="1698" y="-240" font-family="FreeSans" font-size="10.00"> Urho3D::XMLFile &gt;</text>
</a>
</g>
<!-- Node24&#45;&gt;Node1 -->
<g id="edge92" class="edge"><title>Node24&#45;&gt;Node1</title>
<path fill="none" stroke="#9a32cd" stroke-dasharray="5,2" d="M1766.22,-247.499C1846.9,-245.723 1979.52,-242.805 2053.27,-241.182"/>
<polygon fill="#9a32cd" stroke="#9a32cd" points="1766.09,-244.001 1756.17,-247.72 1766.24,-250.999 1766.09,-244.001"/>
<text text-anchor="middle" x="1847" y="-251" font-family="FreeSans" font-size="10.00"> loadParameters_</text>
</g>
<!-- Node25&#45;&gt;Node24 -->
<g id="edge94" class="edge"><title>Node25&#45;&gt;Node24</title>
<path fill="none" stroke="#9a32cd" stroke-dasharray="5,2" d="M1341.21,-257.307C1358.78,-256.03 1378.17,-254.784 1396,-254 1480.74,-250.275 1578.96,-249.261 1639.79,-249.019"/>
<polygon fill="#9a32cd" stroke="#9a32cd" points="1340.82,-253.827 1331.1,-258.06 1341.34,-260.807 1340.82,-253.827"/>
<text text-anchor="middle" x="1435" y="-258" font-family="FreeSans" font-size="10.00"> ptr_</text>
</g>
</g>
</svg>
        <g id="navigator" transform="translate(0 0)" fill="#404254">
                <rect fill="#f2f5e9" fill-opacity="0.5" stroke="#606060" stroke-width=".5" x="0" y="0" width="60" height="60"/>
                <use id="zoomplus" xlink:href="#zoomPlus" x="17" y="9" onmousedown="handleZoom(evt,'in')"/>
                <use id="zoomminus" xlink:href="#zoomMin" x="42" y="9" onmousedown="handleZoom(evt,'out')"/>
                <use id="reset" xlink:href="#resetDef" x="30" y="36" onmousedown="handleReset()"/>
                <g id="arrowUp" xlink:href="#dirArrow" transform="translate(30 24)" onmousedown="handlePan(0,-1)">
                  <use xlink:href="#rim" fill="#404040">
                        <set attributeName="fill" to="#808080" begin="arrowUp.mouseover" end="arrowUp.mouseout"/>
                  </use>
                  <path fill="none" stroke="white" stroke-width="1.5" d="M0,-3.0v7 M-2.5,-0.5L0,-3.0L2.5,-0.5"/>
                </g>
                <g id="arrowRight" xlink:href="#dirArrow" transform="rotate(90) translate(36 -43)" onmousedown="handlePan(1,0)">
                  <use xlink:href="#rim" fill="#404040">
                        <set attributeName="fill" to="#808080" begin="arrowRight.mouseover" end="arrowRight.mouseout"/>
                  </use>
                  <path fill="none" stroke="white" stroke-width="1.5" d="M0,-3.0v7 M-2.5,-0.5L0,-3.0L2.5,-0.5"/>
                </g>
                <g id="arrowDown" xlink:href="#dirArrow" transform="rotate(180) translate(-30 -48)" onmousedown="handlePan(0,1)">
                  <use xlink:href="#rim" fill="#404040">
                        <set attributeName="fill" to="#808080" begin="arrowDown.mouseover" end="arrowDown.mouseout"/>
                  </use>
                  <path fill="none" stroke="white" stroke-width="1.5" d="M0,-3.0v7 M-2.5,-0.5L0,-3.0L2.5,-0.5"/>
                </g>
                <g id="arrowLeft" xlink:href="#dirArrow" transform="rotate(270) translate(-36 17)" onmousedown="handlePan(-1,0)">
                  <use xlink:href="#rim" fill="#404040">
                        <set attributeName="fill" to="#808080" begin="arrowLeft.mouseover" end="arrowLeft.mouseout"/>
                  </use>
                  <path fill="none" stroke="white" stroke-width="1.5" d="M0,-3.0v7 M-2.5,-0.5L0,-3.0L2.5,-0.5"/>
                </g>
        </g>
        <svg viewBox="0 0 15 15" width="100%" height="30px" preserveAspectRatio="xMaxYMin meet">
         <g id="arrow_out" transform="scale(0.3 0.3)">
          <a xlink:href="class_urho3_d_1_1_texture2_d__coll__graph_org.svg" target="_base">
           <rect id="button" ry="5" rx="5" y="6" x="6" height="38" width="38"
                fill="#f2f5e9" fill-opacity="0.5" stroke="#606060" stroke-width="1.0"/>
           <path id="arrow"
             d="M 11.500037,31.436501 C 11.940474,20.09759 22.043105,11.32322 32.158766,21.979434 L 37.068811,17.246167 C 37.068811,17.246167 37.088388,32 37.088388,32 L 22.160133,31.978069 C 22.160133,31.978069 26.997745,27.140456 26.997745,27.140456 C 18.528582,18.264221 13.291696,25.230495 11.500037,31.436501 z"
             style="fill:#404040;"/>
          </a>
         </g>
        </svg>
</svg>
