<?xml version="1.0" encoding="UTF-8" standalone="no"?>
<!DOCTYPE svg PUBLIC "-//W3C//DTD SVG 1.1//EN"
 "http://www.w3.org/Graphics/SVG/1.1/DTD/svg11.dtd">
<!-- Generated by graphviz version 2.26.3 (20100126.1600)
 -->
<!-- Title: Urho3D::FileSystem::ScanDirInternal Pages: 1 -->
<svg width="652pt" height="424pt"
 viewBox="0.00 0.00 652.00 424.00" xmlns="http://www.w3.org/2000/svg" xmlns:xlink="http://www.w3.org/1999/xlink">
<g id="graph1" class="graph" transform="scale(1 1) rotate(0) translate(4 420)">
<title>Urho3D::FileSystem::ScanDirInternal</title>
<!-- Node1 -->
<g id="node1" class="node"><title>Node1</title>
<polygon fill="#bfbfbf" stroke="black" points="0.5,-191 0.5,-225 111.5,-225 111.5,-191 0.5,-191"/>
<text text-anchor="start" x="8.5" y="-212" font-family="FreeSans" font-size="10.00">Urho3D::FileSystem</text>
<text text-anchor="middle" x="56" y="-199" font-family="FreeSans" font-size="10.00">::ScanDirInternal</text>
</g>
<!-- Node2 -->
<g id="node3" class="node"><title>Node2</title>
<a xlink:href="class_urho3_d_1_1_string.html#a11572e3c07f60de65ac5d0c1ca5b6ba3" target="_top" xlink:title="Return length.">
<polygon fill="none" stroke="black" points="331.5,-138.5 331.5,-159.5 458.5,-159.5 458.5,-138.5 331.5,-138.5"/>
<text text-anchor="middle" x="395" y="-146.5" font-family="FreeSans" font-size="10.00">Urho3D::String::Length</text>
</a>
</g>
<!-- Node1&#45;&gt;Node2 -->
<g id="edge2" class="edge"><title>Node1&#45;&gt;Node2</title>
<path fill="none" stroke="midnightblue" d="M111.599,-198.323C169.814,-188.192 261.392,-172.253 324.612,-161.25"/>
<polygon fill="midnightblue" stroke="midnightblue" points="325.254,-164.691 334.505,-159.529 324.053,-157.795 325.254,-164.691"/>
</g>
<!-- Node3 -->
<g id="node5" class="node"><title>Node3</title>
<a xlink:href="class_urho3_d_1_1_string.html#ade8095f1798d6e1d4ed03d43d9919611" target="_top" xlink:title="Return a substring from position to end.">
<polygon fill="none" stroke="black" points="150,-316.5 150,-337.5 290,-337.5 290,-316.5 150,-316.5"/>
<text text-anchor="middle" x="220" y="-324.5" font-family="FreeSans" font-size="10.00">Urho3D::String::Substring</text>
</a>
</g>
<!-- Node1&#45;&gt;Node3 -->
<g id="edge4" class="edge"><title>Node1&#45;&gt;Node3</title>
<path fill="none" stroke="midnightblue" d="M67.2667,-225.053C82.8091,-247.234 112.92,-285.661 148,-307 151.554,-309.162 155.347,-311.096 159.263,-312.825"/>
<polygon fill="midnightblue" stroke="midnightblue" points="157.985,-316.083 168.572,-316.5 160.555,-309.572 157.985,-316.083"/>
</g>
<!-- Node4 -->
<g id="node7" class="node"><title>Node4</title>
<a xlink:href="class_urho3_d_1_1_string.html#aed2d8d23da6f2403c7aaa20082036f88" target="_top" xlink:title="Resize the string.">
<polygon fill="none" stroke="black" points="333,-355.5 333,-376.5 457,-376.5 457,-355.5 333,-355.5"/>
<text text-anchor="middle" x="395" y="-363.5" font-family="FreeSans" font-size="10.00">Urho3D::String::Resize</text>
</a>
</g>
<!-- Node1&#45;&gt;Node4 -->
<g id="edge26" class="edge"><title>Node1&#45;&gt;Node4</title>
<path fill="none" stroke="midnightblue" d="M61.7402,-225.397C72.8817,-256.065 100.6,-319.135 148,-347 200.574,-377.906 270.686,-380.404 322.778,-376.482"/>
<polygon fill="midnightblue" stroke="midnightblue" points="323.278,-379.952 332.946,-375.618 322.686,-372.977 323.278,-379.952"/>
</g>
<!-- Node7 -->
<g id="node14" class="node"><title>Node7</title>
<a xlink:href="class_urho3_d_1_1_string.html#a7cb1eb905c5e4b88d8d281455d8d0caf" target="_top" xlink:title="Return index to the first occurrence of a string, or NPOS if not found.">
<polygon fill="none" stroke="black" points="338.5,-217.5 338.5,-238.5 451.5,-238.5 451.5,-217.5 338.5,-217.5"/>
<text text-anchor="middle" x="395" y="-225.5" font-family="FreeSans" font-size="10.00">Urho3D::String::Find</text>
</a>
</g>
<!-- Node1&#45;&gt;Node7 -->
<g id="edge14" class="edge"><title>Node1&#45;&gt;Node7</title>
<path fill="none" stroke="midnightblue" d="M111.599,-211.28C170.851,-214.776 264.664,-220.311 327.962,-224.045"/>
<polygon fill="midnightblue" stroke="midnightblue" points="328.05,-227.556 338.239,-224.651 328.462,-220.568 328.05,-227.556"/>
</g>
<!-- Node8 -->
<g id="node16" class="node"><title>Node8</title>
<a xlink:href="class_urho3_d_1_1_string.html#a3d2477d745f6e572795b77ac69075c5d" target="_top" xlink:title="Return whether contains a specific occurrence of a string.">
<polygon fill="none" stroke="black" points="152,-236.5 152,-257.5 288,-257.5 288,-236.5 152,-236.5"/>
<text text-anchor="middle" x="220" y="-244.5" font-family="FreeSans" font-size="10.00">Urho3D::String::Contains</text>
</a>
</g>
<!-- Node1&#45;&gt;Node8 -->
<g id="edge16" class="edge"><title>Node1&#45;&gt;Node8</title>
<path fill="none" stroke="midnightblue" d="M111.523,-221.204C129.001,-225.36 148.277,-229.944 165.67,-234.08"/>
<polygon fill="midnightblue" stroke="midnightblue" points="165.128,-237.549 175.667,-236.457 166.748,-230.739 165.128,-237.549"/>
</g>
<!-- Node9 -->
<g id="node18" class="node"><title>Node9</title>
<a xlink:href="class_urho3_d_1_1_string.html#ac6f0b2fb0bce5afbeb088c7cb15abbe1" target="_top" xlink:title="Clear the string.">
<polygon fill="none" stroke="black" points="160.5,-394.5 160.5,-415.5 279.5,-415.5 279.5,-394.5 160.5,-394.5"/>
<text text-anchor="middle" x="220" y="-402.5" font-family="FreeSans" font-size="10.00">Urho3D::String::Clear</text>
</a>
</g>
<!-- Node1&#45;&gt;Node9 -->
<g id="edge18" class="edge"><title>Node1&#45;&gt;Node9</title>
<path fill="none" stroke="midnightblue" d="M60.5516,-225.074C70.5525,-259.367 97.6598,-337 148,-380 152.754,-384.061 158.206,-387.474 163.936,-390.341"/>
<polygon fill="midnightblue" stroke="midnightblue" points="162.549,-393.554 173.109,-394.41 165.388,-387.156 162.549,-393.554"/>
</g>
<!-- Node10 -->
<g id="node21" class="node"><title>Node10</title>
<a xlink:href="class_urho3_d_1_1_string.html#a6dffd447850e4d687096a79dafe8bdac" target="_top" xlink:title="Return whether starts with a string.">
<polygon fill="none" stroke="black" points="148.5,-276.5 148.5,-297.5 291.5,-297.5 291.5,-276.5 148.5,-276.5"/>
<text text-anchor="middle" x="220" y="-284.5" font-family="FreeSans" font-size="10.00">Urho3D::String::StartsWith</text>
</a>
</g>
<!-- Node1&#45;&gt;Node10 -->
<g id="edge22" class="edge"><title>Node1&#45;&gt;Node10</title>
<path fill="none" stroke="midnightblue" d="M78.3537,-225.053C96.3442,-238.089 122.712,-255.689 148,-267 153.107,-269.284 158.537,-271.367 164.035,-273.25"/>
<polygon fill="midnightblue" stroke="midnightblue" points="163.362,-276.709 173.953,-276.426 165.497,-270.043 163.362,-276.709"/>
</g>
<!-- Node11 -->
<g id="node25" class="node"><title>Node11</title>
<a xlink:href="class_urho3_d_1_1_string.html#a6b405eba451da6c0f216a8649adf79aa" target="_top" xlink:title="Return the C string.">
<polygon fill="none" stroke="black" points="155.5,-120.5 155.5,-141.5 284.5,-141.5 284.5,-120.5 155.5,-120.5"/>
<text text-anchor="middle" x="220" y="-128.5" font-family="FreeSans" font-size="10.00">Urho3D::String::CString</text>
</a>
</g>
<!-- Node1&#45;&gt;Node11 -->
<g id="edge28" class="edge"><title>Node1&#45;&gt;Node11</title>
<path fill="none" stroke="midnightblue" d="M83.1024,-190.965C101.078,-180.1 125.428,-166.197 148,-156 156.86,-151.997 166.566,-148.233 175.901,-144.899"/>
<polygon fill="midnightblue" stroke="midnightblue" points="177.144,-148.173 185.445,-141.59 174.85,-141.559 177.144,-148.173"/>
</g>
<!-- Node12 -->
<g id="node27" class="node"><title>Node12</title>
<a xlink:href="class_urho3_d_1_1_string.html#ab02cf1796911cde042e4e02d9574c881" target="_top" xlink:title="Return whether ends with a string.">
<polygon fill="none" stroke="black" points="151.5,-80.5 151.5,-101.5 288.5,-101.5 288.5,-80.5 151.5,-80.5"/>
<text text-anchor="middle" x="220" y="-88.5" font-family="FreeSans" font-size="10.00">Urho3D::String::EndsWith</text>
</a>
</g>
<!-- Node1&#45;&gt;Node12 -->
<g id="edge30" class="edge"><title>Node1&#45;&gt;Node12</title>
<path fill="none" stroke="midnightblue" d="M67.6177,-190.925C83.3263,-169.144 113.39,-131.812 148,-111 151.565,-108.856 155.366,-106.936 159.288,-105.217"/>
<polygon fill="midnightblue" stroke="midnightblue" points="160.577,-108.471 168.607,-101.559 158.02,-101.955 160.577,-108.471"/>
</g>
<!-- Node14 -->
<g id="node32" class="node"><title>Node14</title>
<a xlink:href="class_urho3_d_1_1_vector.html#a083b39861b996df82f811a9a4ebff109" target="_top" xlink:title="Add an element at the end.">
<polygon fill="none" stroke="black" points="160.5,-40.5 160.5,-61.5 279.5,-61.5 279.5,-40.5 160.5,-40.5"/>
<text text-anchor="middle" x="220" y="-48.5" font-family="FreeSans" font-size="10.00">Urho3D::Vector::Push</text>
</a>
</g>
<!-- Node1&#45;&gt;Node14 -->
<g id="edge36" class="edge"><title>Node1&#45;&gt;Node14</title>
<path fill="none" stroke="midnightblue" d="M62.7807,-190.809C75.1819,-161.632 104.326,-102.523 148,-71 150.548,-69.1612 153.258,-67.4912 156.077,-65.9747"/>
<polygon fill="midnightblue" stroke="midnightblue" points="157.8,-69.0329 165.384,-61.6346 154.842,-62.6887 157.8,-69.0329"/>
</g>
<!-- Node15 -->
<g id="node34" class="node"><title>Node15</title>
<a xlink:href="class_urho3_d_1_1_string.html#a69ac7aadaa628fc05fc96abde992fcdc" target="_top" xlink:title="Return whether the string is empty.">
<polygon fill="none" stroke="black" points="157.5,-0.5 157.5,-21.5 282.5,-21.5 282.5,-0.5 157.5,-0.5"/>
<text text-anchor="middle" x="220" y="-8.5" font-family="FreeSans" font-size="10.00">Urho3D::String::Empty</text>
</a>
</g>
<!-- Node1&#45;&gt;Node15 -->
<g id="edge38" class="edge"><title>Node1&#45;&gt;Node15</title>
<path fill="none" stroke="midnightblue" d="M59.9623,-190.975C69.0905,-155.619 95.0012,-73.9634 148,-31 150.072,-29.3201 152.276,-27.7811 154.577,-26.3711"/>
<polygon fill="midnightblue" stroke="midnightblue" points="156.601,-29.2639 163.861,-21.5474 153.373,-23.0524 156.601,-29.2639"/>
</g>
<!-- Node3&#45;&gt;Node4 -->
<g id="edge6" class="edge"><title>Node3&#45;&gt;Node4</title>
<path fill="none" stroke="midnightblue" d="M267.358,-337.554C289.049,-342.388 314.942,-348.159 337.721,-353.235"/>
<polygon fill="midnightblue" stroke="midnightblue" points="337.083,-356.679 347.605,-355.438 338.605,-349.846 337.083,-356.679"/>
</g>
<!-- Node5 -->
<g id="node9" class="node"><title>Node5</title>
<a xlink:href="class_urho3_d_1_1_string.html#a953822d6a39e507861ee02a24bb7996e" target="_top" xlink:title="Copy chars from one buffer to another.">
<polygon fill="none" stroke="black" points="498,-335.5 498,-356.5 644,-356.5 644,-335.5 498,-335.5"/>
<text text-anchor="middle" x="571" y="-343.5" font-family="FreeSans" font-size="10.00">Urho3D::String::CopyChars</text>
</a>
</g>
<!-- Node3&#45;&gt;Node5 -->
<g id="edge10" class="edge"><title>Node3&#45;&gt;Node5</title>
<path fill="none" stroke="midnightblue" d="M290.186,-330.799C347.111,-333.881 427.494,-338.232 487.68,-341.49"/>
<polygon fill="midnightblue" stroke="midnightblue" points="487.74,-344.998 497.914,-342.044 488.118,-338.008 487.74,-344.998"/>
</g>
<!-- Node6 -->
<g id="node12" class="node"><title>Node6</title>
<a xlink:href="class_urho3_d_1_1_string.html#a6cbd21dcf8801df80b76acebc4dbbdd3" target="_top" xlink:title="Construct empty.">
<polygon fill="none" stroke="black" points="334,-277.5 334,-298.5 456,-298.5 456,-277.5 334,-277.5"/>
<text text-anchor="middle" x="395" y="-285.5" font-family="FreeSans" font-size="10.00">Urho3D::String::String</text>
</a>
</g>
<!-- Node3&#45;&gt;Node6 -->
<g id="edge12" class="edge"><title>Node3&#45;&gt;Node6</title>
<path fill="none" stroke="midnightblue" d="M267.358,-316.446C289.049,-311.612 314.942,-305.841 337.721,-300.765"/>
<polygon fill="midnightblue" stroke="midnightblue" points="338.605,-304.154 347.605,-298.562 337.083,-297.321 338.605,-304.154"/>
</g>
<!-- Node4&#45;&gt;Node5 -->
<g id="edge8" class="edge"><title>Node4&#45;&gt;Node5</title>
<path fill="none" stroke="midnightblue" d="M457.051,-358.949C466.923,-357.827 477.274,-356.651 487.541,-355.484"/>
<polygon fill="midnightblue" stroke="midnightblue" points="488.22,-358.929 497.761,-354.323 487.43,-351.974 488.22,-358.929"/>
</g>
<!-- Node9&#45;&gt;Node4 -->
<g id="edge20" class="edge"><title>Node9&#45;&gt;Node4</title>
<path fill="none" stroke="midnightblue" d="M267.358,-394.446C289.049,-389.612 314.942,-383.841 337.721,-378.765"/>
<polygon fill="midnightblue" stroke="midnightblue" points="338.605,-382.154 347.605,-376.562 337.083,-375.321 338.605,-382.154"/>
</g>
<!-- Node10&#45;&gt;Node7 -->
<g id="edge24" class="edge"><title>Node10&#45;&gt;Node7</title>
<path fill="none" stroke="midnightblue" d="M260.559,-276.43C270.87,-273.552 281.89,-270.311 292,-267 314.696,-259.568 339.763,-250.105 359.485,-242.361"/>
<polygon fill="midnightblue" stroke="midnightblue" points="360.976,-245.536 368.987,-238.602 358.4,-239.027 360.976,-245.536"/>
</g>
<!-- Node12&#45;&gt;Node2 -->
<g id="edge34" class="edge"><title>Node12&#45;&gt;Node2</title>
<path fill="none" stroke="midnightblue" d="M260.163,-101.525C270.582,-104.428 281.753,-107.693 292,-111 314.345,-118.212 339.035,-127.282 358.639,-134.752"/>
<polygon fill="midnightblue" stroke="midnightblue" points="357.514,-138.069 368.104,-138.385 360.022,-131.534 357.514,-138.069"/>
</g>
<!-- Node13 -->
<g id="node29" class="node"><title>Node13</title>
<a xlink:href="class_urho3_d_1_1_string.html#a51df88f180228044fb35435b2b3e1f90" target="_top" xlink:title="Return index to the last occurrence of a string, or NPOS if not found.">
<polygon fill="none" stroke="black" points="328.5,-80.5 328.5,-101.5 461.5,-101.5 461.5,-80.5 328.5,-80.5"/>
<text text-anchor="middle" x="395" y="-88.5" font-family="FreeSans" font-size="10.00">Urho3D::String::FindLast</text>
</a>
</g>
<!-- Node12&#45;&gt;Node13 -->
<g id="edge32" class="edge"><title>Node12&#45;&gt;Node13</title>
<path fill="none" stroke="midnightblue" d="M288.662,-91C298.328,-91 308.315,-91 318.122,-91"/>
<polygon fill="midnightblue" stroke="midnightblue" points="318.255,-94.5001 328.255,-91 318.255,-87.5001 318.255,-94.5001"/>
</g>
</g>
</svg>
