<?xml version="1.0" encoding="UTF-8" standalone="no"?>
<!DOCTYPE svg PUBLIC "-//W3C//DTD SVG 1.1//EN"
 "http://www.w3.org/Graphics/SVG/1.1/DTD/svg11.dtd">
<!-- Generated by graphviz version 2.26.3 (20100126.1600)
 -->
<!-- Title: Urho3D::Skybox Pages: 1 -->
<svg width="1596pt" height="591pt"
 viewBox="0.00 0.00 1596.00 591.00" xmlns="http://www.w3.org/2000/svg" xmlns:xlink="http://www.w3.org/1999/xlink">
<g id="graph1" class="graph" transform="scale(1 1) rotate(0) translate(4 587)">
<title>Urho3D::Skybox</title>
<!-- Node1 -->
<g id="node1" class="node"><title>Node1</title>
<polygon fill="#bfbfbf" stroke="black" points="1468,-73.5 1468,-94.5 1562,-94.5 1562,-73.5 1468,-73.5"/>
<text text-anchor="middle" x="1515" y="-81.5" font-family="FreeSans" font-size="10.00">Urho3D::Skybox</text>
</g>
<!-- Node2 -->
<g id="node2" class="node"><title>Node2</title>
<a xlink:href="class_urho3_d_1_1_static_model.html" target="_top" xlink:title="Static model component.">
<polygon fill="none" stroke="black" points="1136,-108.5 1136,-129.5 1252,-129.5 1252,-108.5 1136,-108.5"/>
<text text-anchor="middle" x="1194" y="-116.5" font-family="FreeSans" font-size="10.00">Urho3D::StaticModel</text>
</a>
</g>
<!-- Node2&#45;&gt;Node1 -->
<g id="edge2" class="edge"><title>Node2&#45;&gt;Node1</title>
<path fill="none" stroke="midnightblue" d="M1262.2,-111.564C1324.1,-104.814 1413.75,-95.0395 1467.99,-89.1255"/>
<polygon fill="midnightblue" stroke="midnightblue" points="1261.69,-108.098 1252.13,-112.662 1262.45,-115.057 1261.69,-108.098"/>
</g>
<!-- Node3 -->
<g id="node4" class="node"><title>Node3</title>
<a xlink:href="class_urho3_d_1_1_drawable.html" target="_top" xlink:title="Base class for visible components.">
<polygon fill="none" stroke="black" points="886,-366.5 886,-387.5 990,-387.5 990,-366.5 886,-366.5"/>
<text text-anchor="middle" x="938" y="-374.5" font-family="FreeSans" font-size="10.00">Urho3D::Drawable</text>
</a>
</g>
<!-- Node3&#45;&gt;Node2 -->
<g id="edge4" class="edge"><title>Node3&#45;&gt;Node2</title>
<path fill="none" stroke="midnightblue" d="M955.855,-359.006C1005.54,-308.93 1144.35,-169.038 1183.56,-129.518"/>
<polygon fill="midnightblue" stroke="midnightblue" points="953.233,-356.679 948.674,-366.243 958.202,-361.609 953.233,-356.679"/>
</g>
<!-- Node8 -->
<g id="node17" class="node"><title>Node8</title>
<a xlink:href="class_urho3_d_1_1_zone.html" target="_top" xlink:title="Component that describes global rendering properties.">
<polygon fill="none" stroke="red" points="1151.5,-331.5 1151.5,-352.5 1236.5,-352.5 1236.5,-331.5 1151.5,-331.5"/>
<text text-anchor="middle" x="1194" y="-339.5" font-family="FreeSans" font-size="10.00">Urho3D::Zone</text>
</a>
</g>
<!-- Node3&#45;&gt;Node8 -->
<g id="edge22" class="edge"><title>Node3&#45;&gt;Node8</title>
<path fill="none" stroke="midnightblue" d="M967.432,-362.059C981.205,-355.842 998.057,-349.311 1014,-346 1060.21,-336.403 1114.53,-336.736 1151.32,-338.623"/>
<polygon fill="midnightblue" stroke="midnightblue" points="965.572,-359.066 958.004,-366.48 968.544,-365.404 965.572,-359.066"/>
</g>
<!-- Node16 -->
<g id="node37" class="node"><title>Node16</title>
<a xlink:href="class_urho3_d_1_1_light.html" target="_top" xlink:title="Light component.">
<polygon fill="none" stroke="red" points="1152.5,-412.5 1152.5,-433.5 1235.5,-433.5 1235.5,-412.5 1152.5,-412.5"/>
<text text-anchor="middle" x="1194" y="-420.5" font-family="FreeSans" font-size="10.00">Urho3D::Light</text>
</a>
</g>
<!-- Node3&#45;&gt;Node16 -->
<g id="edge46" class="edge"><title>Node3&#45;&gt;Node16</title>
<path fill="none" stroke="midnightblue" d="M967.073,-391.833C980.928,-398.221 997.948,-405.105 1014,-409 1060.45,-420.273 1115.44,-423.083 1152.3,-423.513"/>
<polygon fill="midnightblue" stroke="midnightblue" points="968.571,-388.67 958.038,-387.533 965.563,-394.991 968.571,-388.67"/>
</g>
<!-- Node4 -->
<g id="node6" class="node"><title>Node4</title>
<a xlink:href="class_urho3_d_1_1_component.html" target="_top" xlink:title="Base class for components. Components can be created to scene nodes.">
<polygon fill="none" stroke="black" points="551,-561.5 551,-582.5 667,-582.5 667,-561.5 551,-561.5"/>
<text text-anchor="middle" x="609" y="-569.5" font-family="FreeSans" font-size="10.00">Urho3D::Component</text>
</a>
</g>
<!-- Node4&#45;&gt;Node3 -->
<g id="edge6" class="edge"><title>Node4&#45;&gt;Node3</title>
<path fill="none" stroke="midnightblue" d="M677.591,-580.323C734.38,-583.164 813.371,-577.122 862,-531 889.387,-505.025 863.607,-482.001 880,-448 891.613,-423.914 912.962,-400.864 926.268,-387.863"/>
<polygon fill="midnightblue" stroke="midnightblue" points="677.452,-576.808 667.258,-579.696 677.028,-583.795 677.452,-576.808"/>
</g>
<!-- Node5 -->
<g id="node8" class="node"><title>Node5</title>
<a xlink:href="class_urho3_d_1_1_animatable.html" target="_top" xlink:title="Base class for animatable object, an animatable object can be set animation on it&#39;s attributes...">
<polygon fill="none" stroke="red" points="0,-533.5 0,-554.5 114,-554.5 114,-533.5 0,-533.5"/>
<text text-anchor="middle" x="57" y="-541.5" font-family="FreeSans" font-size="10.00">Urho3D::Animatable</text>
</a>
</g>
<!-- Node5&#45;&gt;Node4 -->
<g id="edge8" class="edge"><title>Node5&#45;&gt;Node4</title>
<path fill="none" stroke="midnightblue" d="M124.246,-548.054C151.484,-549.657 183.239,-551.477 212,-553 332.413,-559.377 473.423,-565.901 550.801,-569.4"/>
<polygon fill="midnightblue" stroke="midnightblue" points="124.232,-544.547 114.043,-547.451 123.819,-551.535 124.232,-544.547"/>
</g>
<!-- Node6 -->
<g id="node10" class="node"><title>Node6</title>
<a xlink:href="class_urho3_d_1_1_node.html" target="_top" xlink:title="Scene node that may contain components and child nodes.">
<polygon fill="none" stroke="red" points="247.5,-491.5 247.5,-512.5 332.5,-512.5 332.5,-491.5 247.5,-491.5"/>
<text text-anchor="middle" x="290" y="-499.5" font-family="FreeSans" font-size="10.00">Urho3D::Node</text>
</a>
</g>
<!-- Node5&#45;&gt;Node6 -->
<g id="edge12" class="edge"><title>Node5&#45;&gt;Node6</title>
<path fill="none" stroke="midnightblue" d="M124.159,-531.894C163.802,-524.748 212.795,-515.917 247.216,-509.712"/>
<polygon fill="midnightblue" stroke="midnightblue" points="123.517,-528.453 114.297,-533.672 124.759,-535.342 123.517,-528.453"/>
</g>
<!-- Node6&#45;&gt;Node4 -->
<g id="edge10" class="edge"><title>Node6&#45;&gt;Node4</title>
<path fill="none" stroke="#9a32cd" stroke-dasharray="5,2" d="M342.709,-509.742C390.402,-517.207 462.396,-529.621 524,-545 542.478,-549.613 562.822,-556.026 578.973,-561.445"/>
<polygon fill="#9a32cd" stroke="#9a32cd" points="343.034,-506.251 332.617,-508.18 341.963,-513.168 343.034,-506.251"/>
<text text-anchor="middle" x="455" y="-549" font-family="FreeSans" font-size="10.00"> node_</text>
</g>
<!-- Node6&#45;&gt;Node6 -->
<g id="edge14" class="edge"><title>Node6&#45;&gt;Node6</title>
<path fill="none" stroke="#9a32cd" stroke-dasharray="5,2" d="M266.78,-522.427C268.571,-527.349 276.311,-531 290,-531 311.902,-531 318.576,-521.653 310.02,-512.708"/>
<polygon fill="#9a32cd" stroke="#9a32cd" points="270.176,-523.301 269.98,-512.708 263.528,-521.111 270.176,-523.301"/>
<text text-anchor="middle" x="290" y="-535" font-family="FreeSans" font-size="10.00"> parent_</text>
</g>
<!-- Node7 -->
<g id="node14" class="node"><title>Node7</title>
<a xlink:href="class_urho3_d_1_1_string_hash.html" target="_top" xlink:title="32&#45;bit hash value for a string.">
<polygon fill="none" stroke="black" points="0.5,-398.5 0.5,-419.5 113.5,-419.5 113.5,-398.5 0.5,-398.5"/>
<text text-anchor="middle" x="57" y="-406.5" font-family="FreeSans" font-size="10.00">Urho3D::StringHash</text>
</a>
</g>
<!-- Node7&#45;&gt;Node6 -->
<g id="edge16" class="edge"><title>Node7&#45;&gt;Node6</title>
<path fill="none" stroke="#9a32cd" stroke-dasharray="5,2" d="M93.2538,-423.47C140.449,-442.308 221.82,-474.786 263.584,-491.456"/>
<polygon fill="#9a32cd" stroke="#9a32cd" points="94.3131,-420.125 83.7281,-419.668 91.7181,-426.626 94.3131,-420.125"/>
<text text-anchor="middle" x="163" y="-465" font-family="FreeSans" font-size="10.00"> nameHash_</text>
</g>
<!-- Node7&#45;&gt;Node7 -->
<g id="edge18" class="edge"><title>Node7&#45;&gt;Node7</title>
<path fill="none" stroke="#9a32cd" stroke-dasharray="5,2" d="M37.4653,-429.427C38.9723,-434.349 45.4839,-438 57,-438 75.4258,-438 81.0399,-428.653 73.8423,-419.708"/>
<polygon fill="#9a32cd" stroke="#9a32cd" points="40.8609,-430.279 40.1577,-419.708 34.1149,-428.41 40.8609,-430.279"/>
<text text-anchor="middle" x="57" y="-442" font-family="FreeSans" font-size="10.00"> ZERO</text>
</g>
<!-- Node18 -->
<g id="node46" class="node"><title>Node18</title>
<a xlink:href="struct_urho3_d_1_1_resource_ref_list.html" target="_top" xlink:title="List of typed resource references.">
<polygon fill="none" stroke="black" points="542,-177.5 542,-198.5 676,-198.5 676,-177.5 542,-177.5"/>
<text text-anchor="middle" x="609" y="-185.5" font-family="FreeSans" font-size="10.00">Urho3D::ResourceRefList</text>
</a>
</g>
<!-- Node7&#45;&gt;Node18 -->
<g id="edge60" class="edge"><title>Node7&#45;&gt;Node18</title>
<path fill="none" stroke="#9a32cd" stroke-dasharray="5,2" d="M69.9015,-389.682C93.8459,-355.311 148.537,-283.449 212,-244 313.679,-180.796 457.939,-177.243 541.662,-181.716"/>
<polygon fill="#9a32cd" stroke="#9a32cd" points="66.7453,-388.097 63.9815,-398.325 72.5204,-392.053 66.7453,-388.097"/>
<text text-anchor="middle" x="290" y="-248" font-family="FreeSans" font-size="10.00"> type_</text>
</g>
<!-- Node8&#45;&gt;Node3 -->
<g id="edge20" class="edge"><title>Node8&#45;&gt;Node3</title>
<path fill="none" stroke="#9a32cd" stroke-dasharray="5,2" d="M1141,-345.614C1105.03,-348.479 1056.47,-353.152 1014,-360 1003.19,-361.743 991.609,-364.085 980.832,-366.473"/>
<polygon fill="#9a32cd" stroke="#9a32cd" points="1141.56,-349.081 1151.26,-344.818 1141.02,-342.101 1141.56,-349.081"/>
<text text-anchor="middle" x="1051" y="-364" font-family="FreeSans" font-size="10.00"> zone_</text>
</g>
<!-- Node9 -->
<g id="node20" class="node"><title>Node9</title>
<a xlink:href="class_urho3_d_1_1_weak_ptr.html" target="_top" xlink:title="Urho3D::WeakPtr\&lt; Urho3D\l::Zone \&gt;">
<polygon fill="none" stroke="red" points="1442,-325 1442,-359 1588,-359 1588,-325 1442,-325"/>
<text text-anchor="start" x="1450" y="-346" font-family="FreeSans" font-size="10.00">Urho3D::WeakPtr&lt; Urho3D</text>
<text text-anchor="middle" x="1515" y="-333" font-family="FreeSans" font-size="10.00">::Zone &gt;</text>
</a>
</g>
<!-- Node8&#45;&gt;Node9 -->
<g id="edge26" class="edge"><title>Node8&#45;&gt;Node9</title>
<path fill="none" stroke="#9a32cd" stroke-dasharray="5,2" d="M1246.87,-331.827C1263.77,-329.029 1282.61,-326.385 1300,-325 1354.94,-320.623 1369.12,-319.918 1424,-325 1429.76,-325.534 1435.7,-326.253 1441.66,-327.096"/>
<polygon fill="#9a32cd" stroke="#9a32cd" points="1245.89,-328.443 1236.62,-333.579 1247.07,-335.343 1245.89,-328.443"/>
<text text-anchor="middle" x="1362" y="-329" font-family="FreeSans" font-size="10.00"> ptr_</text>
</g>
<!-- Node9&#45;&gt;Node8 -->
<g id="edge24" class="edge"><title>Node9&#45;&gt;Node8</title>
<path fill="none" stroke="#9a32cd" stroke-dasharray="5,2" d="M1431.49,-342C1369.01,-342 1286.14,-342 1236.63,-342"/>
<polygon fill="#9a32cd" stroke="#9a32cd" points="1431.73,-345.5 1441.73,-342 1431.73,-338.5 1431.73,-345.5"/>
<text text-anchor="start" x="1305.5" y="-372" font-family="FreeSans" font-size="10.00"> lastAmbientEndZone</text>
<text text-anchor="middle" x="1362" y="-359" font-family="FreeSans" font-size="10.00">_</text>
<text text-anchor="middle" x="1362" y="-346" font-family="FreeSans" font-size="10.00">lastAmbientStartZone_</text>
</g>
<!-- Node10 -->
<g id="node23" class="node"><title>Node10</title>
<a xlink:href="class_urho3_d_1_1_shared_ptr.html" target="_top" xlink:title="Urho3D::SharedPtr\&lt;\l Urho3D::Texture \&gt;">
<polygon fill="none" stroke="red" points="880,-457 880,-491 996,-491 996,-457 880,-457"/>
<text text-anchor="start" x="888" y="-478" font-family="FreeSans" font-size="10.00">Urho3D::SharedPtr&lt;</text>
<text text-anchor="middle" x="938" y="-465" font-family="FreeSans" font-size="10.00"> Urho3D::Texture &gt;</text>
</a>
</g>
<!-- Node10&#45;&gt;Node8 -->
<g id="edge28" class="edge"><title>Node10&#45;&gt;Node8</title>
<path fill="none" stroke="#9a32cd" stroke-dasharray="5,2" d="M996.819,-453.273C1025.02,-442.539 1058.91,-428.452 1088,-413 1122.82,-394.507 1160.47,-367.405 1180.17,-352.607"/>
<polygon fill="#9a32cd" stroke="#9a32cd" points="995.229,-450.132 987.1,-456.927 997.692,-456.684 995.229,-450.132"/>
<text text-anchor="middle" x="1051" y="-449" font-family="FreeSans" font-size="10.00"> zoneTexture_</text>
</g>
<!-- Node10&#45;&gt;Node16 -->
<g id="edge48" class="edge"><title>Node10&#45;&gt;Node16</title>
<path fill="none" stroke="#9a32cd" stroke-dasharray="5,2" d="M1006.43,-477.753C1032.27,-477.72 1061.75,-475.925 1088,-470 1120.6,-462.642 1155.49,-445.064 1175.99,-433.614"/>
<polygon fill="#9a32cd" stroke="#9a32cd" points="1006.37,-474.252 996.348,-477.678 1006.32,-481.252 1006.37,-474.252"/>
<text text-anchor="middle" x="1051" y="-494" font-family="FreeSans" font-size="10.00"> shapeTexture_</text>
<text text-anchor="middle" x="1051" y="-481" font-family="FreeSans" font-size="10.00">rampTexture_</text>
</g>
<!-- Node11 -->
<g id="node25" class="node"><title>Node11</title>
<a xlink:href="class_urho3_d_1_1_bounding_box.html" target="_top" xlink:title="Three&#45;dimensional axis&#45;aligned bounding box.">
<polygon fill="none" stroke="red" points="229,-266.5 229,-287.5 351,-287.5 351,-266.5 229,-266.5"/>
<text text-anchor="middle" x="290" y="-274.5" font-family="FreeSans" font-size="10.00">Urho3D::BoundingBox</text>
</a>
</g>
<!-- Node11&#45;&gt;Node3 -->
<g id="edge50" class="edge"><title>Node11&#45;&gt;Node3</title>
<path fill="none" stroke="#9a32cd" stroke-dasharray="5,2" d="M361.294,-287.46C369.622,-288.663 377.997,-289.865 386,-291 514.819,-309.277 547.459,-310.858 676,-331 749,-342.439 833.094,-357.548 885.899,-367.271"/>
<polygon fill="#9a32cd" stroke="#9a32cd" points="361.587,-283.966 351.188,-285.996 360.583,-290.893 361.587,-283.966"/>
<text text-anchor="middle" x="609" y="-348" font-family="FreeSans" font-size="10.00"> worldBoundingBox_</text>
<text text-anchor="middle" x="609" y="-335" font-family="FreeSans" font-size="10.00">boundingBox_</text>
</g>
<!-- Node11&#45;&gt;Node8 -->
<g id="edge30" class="edge"><title>Node11&#45;&gt;Node8</title>
<path fill="none" stroke="#9a32cd" stroke-dasharray="5,2" d="M361.354,-280.999C407.713,-283.663 469.45,-287.337 524,-291 774.796,-307.84 837.434,-313.034 1088,-333 1108.9,-334.665 1132.1,-336.623 1151.46,-338.286"/>
<polygon fill="#9a32cd" stroke="#9a32cd" points="361.293,-277.49 351.11,-280.412 360.893,-284.478 361.293,-277.49"/>
<text text-anchor="middle" x="778" y="-319" font-family="FreeSans" font-size="10.00"> lastWorldBoundingBox_</text>
</g>
<!-- Node17 -->
<g id="node42" class="node"><title>Node17</title>
<a xlink:href="class_urho3_d_1_1_octant.html" target="_top" xlink:title="Octree octant">
<polygon fill="none" stroke="red" points="563,-366.5 563,-387.5 655,-387.5 655,-366.5 563,-366.5"/>
<text text-anchor="middle" x="609" y="-374.5" font-family="FreeSans" font-size="10.00">Urho3D::Octant</text>
</a>
</g>
<!-- Node11&#45;&gt;Node17 -->
<g id="edge54" class="edge"><title>Node11&#45;&gt;Node17</title>
<path fill="none" stroke="#9a32cd" stroke-dasharray="5,2" d="M351.764,-291.654C357.595,-294.513 363.134,-297.926 368,-302 381.11,-312.976 372.213,-325.887 386,-336 413.456,-356.139 505.643,-367.783 562.535,-373.216"/>
<polygon fill="#9a32cd" stroke="#9a32cd" points="352.985,-288.369 342.418,-287.602 350.2,-294.791 352.985,-288.369"/>
<text text-anchor="middle" x="455" y="-385" font-family="FreeSans" font-size="10.00"> cullingBox_</text>
<text text-anchor="middle" x="455" y="-372" font-family="FreeSans" font-size="10.00">worldBoundingBox_</text>
</g>
<!-- Node21 -->
<g id="node54" class="node"><title>Node21</title>
<a xlink:href="class_urho3_d_1_1_model.html" target="_top" xlink:title="3D model resource.">
<polygon fill="none" stroke="red" points="565,-137.5 565,-158.5 653,-158.5 653,-137.5 565,-137.5"/>
<text text-anchor="middle" x="609" y="-145.5" font-family="FreeSans" font-size="10.00">Urho3D::Model</text>
</a>
</g>
<!-- Node11&#45;&gt;Node21 -->
<g id="edge74" class="edge"><title>Node11&#45;&gt;Node21</title>
<path fill="none" stroke="#9a32cd" stroke-dasharray="5,2" d="M353.995,-261.923C359.074,-259.155 363.839,-255.878 368,-252 383.758,-237.313 369.869,-221.276 386,-207 392.804,-200.979 502.053,-173.838 565.063,-158.552"/>
<polygon fill="#9a32cd" stroke="#9a32cd" points="352.121,-258.938 344.578,-266.377 355.114,-265.266 352.121,-258.938"/>
<text text-anchor="middle" x="455" y="-211" font-family="FreeSans" font-size="10.00"> boundingBox_</text>
</g>
<!-- Node12 -->
<g id="node27" class="node"><title>Node12</title>
<a xlink:href="class_urho3_d_1_1_p_o_d_vector.html" target="_top" xlink:title="Urho3D::PODVector\&lt;\l Urho3D::Light * \&gt;">
<polygon fill="none" stroke="black" points="395.5,-472 395.5,-506 514.5,-506 514.5,-472 395.5,-472"/>
<text text-anchor="start" x="403.5" y="-493" font-family="FreeSans" font-size="10.00">Urho3D::PODVector&lt;</text>
<text text-anchor="middle" x="455" y="-480" font-family="FreeSans" font-size="10.00"> Urho3D::Light * &gt;</text>
</a>
</g>
<!-- Node12&#45;&gt;Node3 -->
<g id="edge32" class="edge"><title>Node12&#45;&gt;Node3</title>
<path fill="none" stroke="#9a32cd" stroke-dasharray="5,2" d="M524.877,-490.067C608.275,-488.97 750.45,-479.487 862,-433 888.021,-422.156 913.384,-400.604 927.227,-387.629"/>
<polygon fill="#9a32cd" stroke="#9a32cd" points="524.721,-486.568 514.754,-490.163 524.787,-493.568 524.721,-486.568"/>
<text text-anchor="middle" x="609" y="-506" font-family="FreeSans" font-size="10.00"> vertexLights_</text>
<text text-anchor="middle" x="609" y="-493" font-family="FreeSans" font-size="10.00">lights_</text>
</g>
<!-- Node13 -->
<g id="node29" class="node"><title>Node13</title>
<a xlink:href="class_urho3_d_1_1_vector_base.html" target="_top" xlink:title="Vector base class.">
<polygon fill="none" stroke="black" points="0,-162.5 0,-183.5 114,-183.5 114,-162.5 0,-162.5"/>
<text text-anchor="middle" x="57" y="-170.5" font-family="FreeSans" font-size="10.00">Urho3D::VectorBase</text>
</a>
</g>
<!-- Node13&#45;&gt;Node12 -->
<g id="edge34" class="edge"><title>Node13&#45;&gt;Node12</title>
<path fill="none" stroke="midnightblue" d="M68.1968,-192.6C81.5361,-214.897 105.388,-251.626 132,-278 229.912,-375.035 266.971,-386.47 386,-456 395.631,-461.626 406.371,-467.113 416.455,-471.946"/>
<polygon fill="midnightblue" stroke="midnightblue" points="71.071,-190.582 62.9906,-183.729 65.034,-194.125 71.071,-190.582"/>
</g>
<!-- Node14 -->
<g id="node31" class="node"><title>Node14</title>
<a xlink:href="class_urho3_d_1_1_p_o_d_vector.html" target="_top" xlink:title="Urho3D::PODVector\&lt;\l Urho3D::Camera * \&gt;">
<polygon fill="none" stroke="black" points="395,-228 395,-262 515,-262 515,-228 395,-228"/>
<text text-anchor="start" x="403" y="-249" font-family="FreeSans" font-size="10.00">Urho3D::PODVector&lt;</text>
<text text-anchor="middle" x="455" y="-236" font-family="FreeSans" font-size="10.00"> Urho3D::Camera * &gt;</text>
</a>
</g>
<!-- Node13&#45;&gt;Node14 -->
<g id="edge38" class="edge"><title>Node13&#45;&gt;Node14</title>
<path fill="none" stroke="midnightblue" d="M124.435,-178.355C202.057,-185.099 324.444,-197.679 368,-213 376.844,-216.111 377.447,-220.16 386,-224 389.084,-225.385 392.285,-226.711 395.545,-227.976"/>
<polygon fill="midnightblue" stroke="midnightblue" points="124.525,-174.85 114.262,-177.482 123.926,-181.824 124.525,-174.85"/>
</g>
<!-- Node15 -->
<g id="node34" class="node"><title>Node15</title>
<a xlink:href="class_urho3_d_1_1_vector.html" target="_top" xlink:title="Urho3D::Vector\&lt; Urho3D\l::SourceBatch \&gt;">
<polygon fill="none" stroke="black" points="386,-413 386,-447 524,-447 524,-413 386,-413"/>
<text text-anchor="start" x="394" y="-434" font-family="FreeSans" font-size="10.00">Urho3D::Vector&lt; Urho3D</text>
<text text-anchor="middle" x="455" y="-421" font-family="FreeSans" font-size="10.00">::SourceBatch &gt;</text>
</a>
</g>
<!-- Node13&#45;&gt;Node15 -->
<g id="edge42" class="edge"><title>Node13&#45;&gt;Node15</title>
<path fill="none" stroke="midnightblue" d="M74.3486,-190.933C101.342,-217.828 156.124,-268.487 212,-297 276.06,-329.69 316.339,-289.965 368,-340 387.388,-358.778 368.228,-377.686 386,-398 391.217,-403.963 397.778,-408.889 404.768,-412.936"/>
<polygon fill="midnightblue" stroke="midnightblue" points="76.7165,-188.35 67.193,-183.708 71.7427,-193.276 76.7165,-188.35"/>
</g>
<!-- Node19 -->
<g id="node49" class="node"><title>Node19</title>
<a xlink:href="class_urho3_d_1_1_vector.html" target="_top" xlink:title="Urho3D::Vector\&lt; String \&gt;">
<polygon fill="none" stroke="black" points="219.5,-139.5 219.5,-160.5 360.5,-160.5 360.5,-139.5 219.5,-139.5"/>
<text text-anchor="middle" x="290" y="-147.5" font-family="FreeSans" font-size="10.00">Urho3D::Vector&lt; String &gt;</text>
</a>
</g>
<!-- Node13&#45;&gt;Node19 -->
<g id="edge64" class="edge"><title>Node13&#45;&gt;Node19</title>
<path fill="none" stroke="midnightblue" d="M124.564,-166.331C154.25,-163.4 189.117,-159.958 219.167,-156.992"/>
<polygon fill="midnightblue" stroke="midnightblue" points="123.904,-162.879 114.297,-167.344 124.592,-169.845 123.904,-162.879"/>
</g>
<!-- Node22 -->
<g id="node56" class="node"><title>Node22</title>
<a xlink:href="class_urho3_d_1_1_vector.html" target="_top" xlink:title="Urho3D::Vector\&lt; Urho3D\l::Vector\&lt; Urho3D::SharedPtr\l\&lt; Urho3D::Geometry \&gt; \&gt; \&gt;">
<polygon fill="none" stroke="black" points="212.5,-35.5 212.5,-82.5 367.5,-82.5 367.5,-35.5 212.5,-35.5"/>
<text text-anchor="start" x="220.5" y="-69.5" font-family="FreeSans" font-size="10.00">Urho3D::Vector&lt; Urho3D</text>
<text text-anchor="start" x="220.5" y="-56.5" font-family="FreeSans" font-size="10.00">::Vector&lt; Urho3D::SharedPtr</text>
<text text-anchor="middle" x="290" y="-43.5" font-family="FreeSans" font-size="10.00">&lt; Urho3D::Geometry &gt; &gt; &gt;</text>
</a>
</g>
<!-- Node13&#45;&gt;Node22 -->
<g id="edge72" class="edge"><title>Node13&#45;&gt;Node22</title>
<path fill="none" stroke="midnightblue" d="M70.685,-154.009C84.2799,-136.552 106.708,-111.281 132,-97 156.444,-83.1976 185.755,-74.3839 212.457,-68.7661"/>
<polygon fill="midnightblue" stroke="midnightblue" points="67.6393,-152.235 64.4125,-162.326 73.2282,-156.45 67.6393,-152.235"/>
</g>
<!-- Node23 -->
<g id="node61" class="node"><title>Node23</title>
<a xlink:href="class_urho3_d_1_1_p_o_d_vector.html" target="_top" xlink:title="Urho3D::PODVector\&lt;\l Urho3D::StaticModelGeometry\lData \&gt;">
<polygon fill="none" stroke="black" points="694.5,-76.5 694.5,-123.5 861.5,-123.5 861.5,-76.5 694.5,-76.5"/>
<text text-anchor="start" x="702.5" y="-110.5" font-family="FreeSans" font-size="10.00">Urho3D::PODVector&lt;</text>
<text text-anchor="start" x="702.5" y="-97.5" font-family="FreeSans" font-size="10.00"> Urho3D::StaticModelGeometry</text>
<text text-anchor="middle" x="778" y="-84.5" font-family="FreeSans" font-size="10.00">Data &gt;</text>
</a>
</g>
<!-- Node13&#45;&gt;Node23 -->
<g id="edge80" class="edge"><title>Node13&#45;&gt;Node23</title>
<path fill="none" stroke="midnightblue" d="M97.0129,-159.308C128,-149.34 172.208,-136.494 212,-130 381.712,-102.301 583.464,-98.4388 694.434,-98.7772"/>
<polygon fill="midnightblue" stroke="midnightblue" points="95.8604,-156.002 87.439,-162.431 98.0315,-162.657 95.8604,-156.002"/>
</g>
<!-- Node14&#45;&gt;Node3 -->
<g id="edge36" class="edge"><title>Node14&#45;&gt;Node3</title>
<path fill="none" stroke="#9a32cd" stroke-dasharray="5,2" d="M525.386,-238.658C626.431,-230.868 806.547,-222.27 862,-254 906.01,-279.182 927.886,-341.206 935.156,-366.252"/>
<polygon fill="#9a32cd" stroke="#9a32cd" points="524.957,-235.181 515.263,-239.456 525.507,-242.159 524.957,-235.181"/>
<text text-anchor="middle" x="609" y="-241" font-family="FreeSans" font-size="10.00"> viewCameras_</text>
</g>
<!-- Node15&#45;&gt;Node3 -->
<g id="edge40" class="edge"><title>Node15&#45;&gt;Node3</title>
<path fill="none" stroke="#9a32cd" stroke-dasharray="5,2" d="M534.321,-440.45C536.909,-440.656 539.474,-440.841 542,-441 601.438,-444.743 616.871,-448.117 676,-441 760.376,-430.844 856.806,-402.919 905.786,-387.525"/>
<polygon fill="#9a32cd" stroke="#9a32cd" points="534.528,-436.954 524.257,-439.554 533.908,-443.927 534.528,-436.954"/>
<text text-anchor="middle" x="609" y="-449" font-family="FreeSans" font-size="10.00"> batches_</text>
</g>
<!-- Node16&#45;&gt;Node3 -->
<g id="edge44" class="edge"><title>Node16&#45;&gt;Node3</title>
<path fill="none" stroke="#9a32cd" stroke-dasharray="5,2" d="M1147.12,-409.732C1128.79,-404.894 1107.52,-399.708 1088,-396 1055.76,-389.877 1019.25,-385.204 990.313,-382.024"/>
<polygon fill="#9a32cd" stroke="#9a32cd" points="1146.4,-413.164 1156.97,-412.372 1148.22,-406.403 1146.4,-413.164"/>
<text text-anchor="middle" x="1051" y="-400" font-family="FreeSans" font-size="10.00"> firstLight_</text>
</g>
<!-- Node17&#45;&gt;Node3 -->
<g id="edge52" class="edge"><title>Node17&#45;&gt;Node3</title>
<path fill="none" stroke="#9a32cd" stroke-dasharray="5,2" d="M665.455,-377C727.367,-377 825.891,-377 885.983,-377"/>
<polygon fill="#9a32cd" stroke="#9a32cd" points="665.092,-373.5 655.092,-377 665.092,-380.5 665.092,-373.5"/>
<text text-anchor="middle" x="778" y="-381" font-family="FreeSans" font-size="10.00"> octant_</text>
</g>
<!-- Node17&#45;&gt;Node17 -->
<g id="edge56" class="edge"><title>Node17&#45;&gt;Node17</title>
<path fill="none" stroke="#9a32cd" stroke-dasharray="5,2" d="M580.469,-397.055C582.34,-402.164 591.851,-406 609,-406 635.77,-406 643.926,-396.653 633.469,-387.708"/>
<polygon fill="#9a32cd" stroke="#9a32cd" points="583.755,-398.274 584.531,-387.708 577.335,-395.484 583.755,-398.274"/>
<text text-anchor="middle" x="609" y="-423" font-family="FreeSans" font-size="10.00"> parent_</text>
<text text-anchor="middle" x="609" y="-410" font-family="FreeSans" font-size="10.00">children_</text>
</g>
<!-- Node18&#45;&gt;Node2 -->
<g id="edge58" class="edge"><title>Node18&#45;&gt;Node2</title>
<path fill="none" stroke="#9a32cd" stroke-dasharray="5,2" d="M686.305,-191.177C782.187,-193.157 949.878,-190.162 1088,-154 1114.43,-147.079 1143.91,-137.164 1165.05,-129.653"/>
<polygon fill="#9a32cd" stroke="#9a32cd" points="686.193,-187.674 676.115,-190.942 686.032,-194.672 686.193,-187.674"/>
<text text-anchor="middle" x="938" y="-189" font-family="FreeSans" font-size="10.00"> materialsAttr_</text>
</g>
<!-- Node19&#45;&gt;Node18 -->
<g id="edge62" class="edge"><title>Node19&#45;&gt;Node18</title>
<path fill="none" stroke="#9a32cd" stroke-dasharray="5,2" d="M349.246,-137.846C398.068,-130.631 468.111,-126.85 524,-150 534.453,-154.33 532.283,-162.205 542,-168 548.36,-171.793 555.493,-174.914 562.67,-177.467"/>
<polygon fill="#9a32cd" stroke="#9a32cd" points="348.499,-134.421 339.163,-139.43 349.585,-141.336 348.499,-134.421"/>
<text text-anchor="middle" x="455" y="-154" font-family="FreeSans" font-size="10.00"> names_</text>
</g>
<!-- Node20 -->
<g id="node52" class="node"><title>Node20</title>
<a xlink:href="class_urho3_d_1_1_shared_ptr.html" target="_top" xlink:title="Urho3D::SharedPtr\&lt;\l Urho3D::Model \&gt;">
<polygon fill="none" stroke="black" points="880,-129 880,-163 996,-163 996,-129 880,-129"/>
<text text-anchor="start" x="888" y="-150" font-family="FreeSans" font-size="10.00">Urho3D::SharedPtr&lt;</text>
<text text-anchor="middle" x="938" y="-137" font-family="FreeSans" font-size="10.00"> Urho3D::Model &gt;</text>
</a>
</g>
<!-- Node20&#45;&gt;Node2 -->
<g id="edge66" class="edge"><title>Node20&#45;&gt;Node2</title>
<path fill="none" stroke="#9a32cd" stroke-dasharray="5,2" d="M1006.12,-138.815C1046.51,-134.555 1097.17,-129.213 1135.7,-125.149"/>
<polygon fill="#9a32cd" stroke="#9a32cd" points="1005.67,-135.344 996.09,-139.873 1006.4,-142.305 1005.67,-135.344"/>
<text text-anchor="middle" x="1051" y="-141" font-family="FreeSans" font-size="10.00"> model_</text>
</g>
<!-- Node21&#45;&gt;Node20 -->
<g id="edge68" class="edge"><title>Node21&#45;&gt;Node20</title>
<path fill="none" stroke="#9a32cd" stroke-dasharray="5,2" d="M663.384,-147.669C723.107,-147.306 818.636,-146.726 879.825,-146.354"/>
<polygon fill="#9a32cd" stroke="#9a32cd" points="663.008,-144.172 653.029,-147.732 663.05,-151.171 663.008,-144.172"/>
<text text-anchor="middle" x="778" y="-151" font-family="FreeSans" font-size="10.00"> ptr_</text>
</g>
<!-- Node22&#45;&gt;Node2 -->
<g id="edge76" class="edge"><title>Node22&#45;&gt;Node2</title>
<path fill="none" stroke="#9a32cd" stroke-dasharray="5,2" d="M378.226,-52.4875C490.798,-45.4945 691.381,-37.4549 862,-54 968.541,-64.3314 1091.65,-92.8961 1153.74,-108.497"/>
<polygon fill="#9a32cd" stroke="#9a32cd" points="377.703,-49.0136 367.944,-53.1386 378.145,-55.9996 377.703,-49.0136"/>
<text text-anchor="middle" x="778" y="-58" font-family="FreeSans" font-size="10.00"> geometries_</text>
</g>
<!-- Node22&#45;&gt;Node21 -->
<g id="edge70" class="edge"><title>Node22&#45;&gt;Node21</title>
<path fill="none" stroke="#9a32cd" stroke-dasharray="5,2" d="M377.52,-76.9909C421.808,-86.8388 476.179,-100.07 524,-115 544.702,-121.463 567.589,-130.46 584.395,-137.427"/>
<polygon fill="#9a32cd" stroke="#9a32cd" points="378.17,-73.5503 367.651,-74.8153 376.663,-80.3862 378.17,-73.5503"/>
<text text-anchor="middle" x="455" y="-119" font-family="FreeSans" font-size="10.00"> geometries_</text>
</g>
<!-- Node23&#45;&gt;Node2 -->
<g id="edge78" class="edge"><title>Node23&#45;&gt;Node2</title>
<path fill="none" stroke="#9a32cd" stroke-dasharray="5,2" d="M871.772,-102.427C910.273,-103.575 955.287,-105.113 996,-107 1043.13,-109.184 1096.52,-112.468 1135.98,-115.048"/>
<polygon fill="#9a32cd" stroke="#9a32cd" points="871.713,-98.9237 861.614,-102.128 871.507,-105.921 871.713,-98.9237"/>
<text text-anchor="middle" x="938" y="-111" font-family="FreeSans" font-size="10.00"> geometryData_</text>
</g>
<!-- Node24 -->
<g id="node64" class="node"><title>Node24</title>
<a xlink:href="class_urho3_d_1_1_hash_map.html" target="_top" xlink:title="Urho3D::HashMap\&lt; Urho3D\l::Camera *, Urho3D::Matrix3x4 \&gt;">
<polygon fill="none" stroke="black" points="1106,-15 1106,-49 1282,-49 1282,-15 1106,-15"/>
<text text-anchor="start" x="1114" y="-36" font-family="FreeSans" font-size="10.00">Urho3D::HashMap&lt; Urho3D</text>
<text text-anchor="middle" x="1194" y="-23" font-family="FreeSans" font-size="10.00">::Camera *, Urho3D::Matrix3x4 &gt;</text>
</a>
</g>
<!-- Node24&#45;&gt;Node1 -->
<g id="edge82" class="edge"><title>Node24&#45;&gt;Node1</title>
<path fill="none" stroke="#9a32cd" stroke-dasharray="5,2" d="M1292.12,-47.8949C1350.42,-57.3398 1421.74,-68.8917 1467.74,-76.3444"/>
<polygon fill="#9a32cd" stroke="#9a32cd" points="1292.57,-44.4222 1282.14,-46.278 1291.45,-51.3321 1292.57,-44.4222"/>
<text text-anchor="middle" x="1362" y="-72" font-family="FreeSans" font-size="10.00"> customWorldTransforms_</text>
</g>
<!-- Node25 -->
<g id="node66" class="node"><title>Node25</title>
<a xlink:href="class_urho3_d_1_1_hash_base.html" target="_top" xlink:title="Hash set/map base class.">
<polygon fill="none" stroke="red" points="884,-0.5 884,-21.5 992,-21.5 992,-0.5 884,-0.5"/>
<text text-anchor="middle" x="938" y="-8.5" font-family="FreeSans" font-size="10.00">Urho3D::HashBase</text>
</a>
</g>
<!-- Node25&#45;&gt;Node24 -->
<g id="edge84" class="edge"><title>Node25&#45;&gt;Node24</title>
<path fill="none" stroke="midnightblue" d="M1002.62,-16.3009C1033.89,-18.8659 1071.91,-21.9845 1105.79,-24.7643"/>
<polygon fill="midnightblue" stroke="midnightblue" points="1002.54,-12.7829 992.291,-15.4536 1001.97,-19.7595 1002.54,-12.7829"/>
</g>
</g>
</svg>
