<?xml version="1.0" encoding="UTF-8" standalone="no"?>
<!DOCTYPE svg PUBLIC "-//W3C//DTD SVG 1.1//EN"
 "http://www.w3.org/Graphics/SVG/1.1/DTD/svg11.dtd">
<!-- Generated by graphviz version 2.26.3 (20100126.1600)
 -->
<!-- Title: Urho3D::Text Pages: 1 -->
<!--zoomable 900 -->
<svg id="main" version="1.1" xmlns="http://www.w3.org/2000/svg" xmlns:xlink="http://www.w3.org/1999/xlink" xml:space="preserve" onload="init(evt)">
        <defs>
                <circle id="rim" cx="0" cy="0" r="7"/>
                <circle id="rim2" cx="0" cy="0" r="3.5"/>
                <g id="zoomPlus">
                        <use xlink:href="#rim" fill="#404040">
                                <set attributeName="fill" to="#808080" begin="zoomplus.mouseover" end="zoomplus.mouseout"/>
                        </use>
                        <path d="M-4,0h8M0,-4v8" fill="none" stroke="white" stroke-width="1.5" pointer-events="none"/>
                </g>
                <g id="zoomMin">
                        <use xlink:href="#rim" fill="#404040">
                                <set attributeName="fill" to="#808080" begin="zoomminus.mouseover" end="zoomminus.mouseout"/>
                        </use>
                        <path d="M-4,0h8" fill="none" stroke="white" stroke-width="1.5" pointer-events="none"/>
                </g>
                <g id="dirArrow">
                        <path fill="none" stroke="white" stroke-width="1.5" d="M0,-3.0v7 M-2.5,-0.5L0,-3.0L2.5,-0.5"/>
                </g>
               <g id="resetDef">
                       <use xlink:href="#rim2" fill="#404040">
                               <set attributeName="fill" to="#808080" begin="reset.mouseover" end="reset.mouseout"/>
                       </use>
               </g>
        </defs>

<script type="text/javascript">
var viewWidth = 1370;
var viewHeight = 900;
var sectionId = 'dynsection-1';
</script>
<script xlink:href="svgpan.js"/>
<svg id="graph" class="graph">
<g id="viewport">
<title>Urho3D::Text</title>
<!-- Node1 -->
<g id="node1" class="node"><title>Node1</title>
<polygon fill="#bfbfbf" stroke="black" points="1284,-631.853 1284,-652.853 1362,-652.853 1362,-631.853 1284,-631.853"/>
<text text-anchor="middle" x="1323" y="-639.853" font-family="FreeSans" font-size="10.00">Urho3D::Text</text>
</g>
<!-- Node2 -->
<g id="node2" class="node"><title>Node2</title>
<a xlink:href="class_urho3_d_1_1_u_i_element.html" target="_top" xlink:title="Base class for UI elements.">
<polygon fill="none" stroke="black" points="1054.5,-373.853 1054.5,-394.853 1163.5,-394.853 1163.5,-373.853 1054.5,-373.853"/>
<text text-anchor="middle" x="1109" y="-381.853" font-family="FreeSans" font-size="10.00">Urho3D::UIElement</text>
</a>
</g>
<!-- Node2&#45;&gt;Node1 -->
<g id="edge2" class="edge"><title>Node2&#45;&gt;Node1</title>
<path fill="none" stroke="midnightblue" d="M1124.44,-402.969C1166.41,-453.572 1281.63,-592.477 1314.28,-631.834"/>
<polygon fill="midnightblue" stroke="midnightblue" points="1127,-400.572 1117.92,-395.11 1121.61,-405.041 1127,-400.572"/>
</g>
<!-- Node2&#45;&gt;Node2 -->
<g id="edge26" class="edge"><title>Node2&#45;&gt;Node2</title>
<path fill="none" stroke="#9a32cd" stroke-dasharray="5,2" d="M1086.15,-404.779C1087.91,-409.701 1095.53,-413.353 1109,-413.353 1130.55,-413.353 1137.12,-404.006 1128.7,-395.06"/>
<polygon fill="#9a32cd" stroke="#9a32cd" points="1089.54,-405.652 1089.3,-395.06 1082.89,-403.494 1089.54,-405.652"/>
<text text-anchor="middle" x="1109" y="-417.353" font-family="FreeSans" font-size="10.00"> parent_</text>
</g>
<!-- Node3 -->
<g id="node4" class="node"><title>Node3</title>
<a xlink:href="class_urho3_d_1_1_animatable.html" target="_top" xlink:title="Base class for animatable object, an animatable object can be set animation on it&#39;s attributes...">
<polygon fill="none" stroke="red" points="626,-419.853 626,-440.853 740,-440.853 740,-419.853 626,-419.853"/>
<text text-anchor="middle" x="683" y="-427.853" font-family="FreeSans" font-size="10.00">Urho3D::Animatable</text>
</a>
</g>
<!-- Node3&#45;&gt;Node2 -->
<g id="edge4" class="edge"><title>Node3&#45;&gt;Node2</title>
<path fill="none" stroke="midnightblue" d="M750.211,-426.484C818.004,-422.124 925.57,-413.956 1018,-401.353 1030.9,-399.594 1044.75,-397.246 1057.65,-394.858"/>
<polygon fill="midnightblue" stroke="midnightblue" points="749.851,-423 740.093,-427.125 750.294,-429.986 749.851,-423"/>
</g>
<!-- Node4 -->
<g id="node6" class="node"><title>Node4</title>
<a xlink:href="class_urho3_d_1_1_serializable.html" target="_top" xlink:title="Base class for objects with automatic serialization through attributes.">
<polygon fill="none" stroke="red" points="268,-373.853 268,-394.853 382,-394.853 382,-373.853 268,-373.853"/>
<text text-anchor="middle" x="325" y="-381.853" font-family="FreeSans" font-size="10.00">Urho3D::Serializable</text>
</a>
</g>
<!-- Node4&#45;&gt;Node3 -->
<g id="edge6" class="edge"><title>Node4&#45;&gt;Node3</title>
<path fill="none" stroke="midnightblue" d="M392.209,-392.988C459.582,-401.645 562.188,-414.829 625.785,-423.001"/>
<polygon fill="midnightblue" stroke="midnightblue" points="392.487,-389.495 382.122,-391.692 391.594,-396.438 392.487,-389.495"/>
</g>
<!-- Node5 -->
<g id="node8" class="node"><title>Node5</title>
<a xlink:href="class_urho3_d_1_1_hash_map.html" target="_top" xlink:title="Urho3D::HashMap\&lt; Urho3D\l::String, Urho3D::SharedPtr\l\&lt; Urho3D::AttributeAnimationInfo \&gt; \&gt;">
<polygon fill="none" stroke="red" points="224.5,-465.853 224.5,-512.853 425.5,-512.853 425.5,-465.853 224.5,-465.853"/>
<text text-anchor="start" x="232.5" y="-499.853" font-family="FreeSans" font-size="10.00">Urho3D::HashMap&lt; Urho3D</text>
<text text-anchor="start" x="232.5" y="-486.853" font-family="FreeSans" font-size="10.00">::String, Urho3D::SharedPtr</text>
<text text-anchor="middle" x="325" y="-473.853" font-family="FreeSans" font-size="10.00">&lt; Urho3D::AttributeAnimationInfo &gt; &gt;</text>
</a>
</g>
<!-- Node5&#45;&gt;Node3 -->
<g id="edge8" class="edge"><title>Node5&#45;&gt;Node3</title>
<path fill="none" stroke="#9a32cd" stroke-dasharray="5,2" d="M435.663,-471.115C498.639,-460.736 574.893,-448.169 625.935,-439.757"/>
<polygon fill="#9a32cd" stroke="#9a32cd" points="434.973,-467.681 425.676,-472.761 436.112,-474.588 434.973,-467.681"/>
<text text-anchor="middle" x="505" y="-472.353" font-family="FreeSans" font-size="10.00"> attributeAnimationInfos_</text>
</g>
<!-- Node6 -->
<g id="node10" class="node"><title>Node6</title>
<a xlink:href="class_urho3_d_1_1_shared_ptr.html" target="_top" xlink:title="Urho3D::SharedPtr\&lt;\l Urho3D::ObjectAnimation \&gt;">
<polygon fill="none" stroke="red" points="248.5,-413.353 248.5,-447.353 401.5,-447.353 401.5,-413.353 248.5,-413.353"/>
<text text-anchor="start" x="256.5" y="-434.353" font-family="FreeSans" font-size="10.00">Urho3D::SharedPtr&lt;</text>
<text text-anchor="middle" x="325" y="-421.353" font-family="FreeSans" font-size="10.00"> Urho3D::ObjectAnimation &gt;</text>
</a>
</g>
<!-- Node6&#45;&gt;Node3 -->
<g id="edge10" class="edge"><title>Node6&#45;&gt;Node3</title>
<path fill="none" stroke="#9a32cd" stroke-dasharray="5,2" d="M411.856,-430.353C478.401,-430.353 568.307,-430.353 625.984,-430.353"/>
<polygon fill="#9a32cd" stroke="#9a32cd" points="411.8,-426.853 401.8,-430.353 411.8,-433.853 411.8,-426.853"/>
<text text-anchor="middle" x="505" y="-434.353" font-family="FreeSans" font-size="10.00"> objectAnimation_</text>
</g>
<!-- Node7 -->
<g id="node12" class="node"><title>Node7</title>
<a xlink:href="class_urho3_d_1_1_int_rect.html" target="_top" xlink:title="Two&#45;dimensional bounding rectangle with integer values.">
<polygon fill="none" stroke="black" points="637,-459.853 637,-480.853 729,-480.853 729,-459.853 637,-459.853"/>
<text text-anchor="middle" x="683" y="-467.853" font-family="FreeSans" font-size="10.00">Urho3D::IntRect</text>
</a>
</g>
<!-- Node7&#45;&gt;Node2 -->
<g id="edge12" class="edge"><title>Node7&#45;&gt;Node2</title>
<path fill="none" stroke="#9a32cd" stroke-dasharray="5,2" d="M739.498,-467.752C806.923,-463.515 922.534,-452.641 1018,-425.353 1043.82,-417.971 1071.74,-404.498 1089.74,-395.015"/>
<polygon fill="#9a32cd" stroke="#9a32cd" points="738.873,-464.283 729.101,-468.377 739.293,-471.271 738.873,-464.283"/>
<text text-anchor="middle" x="909" y="-479.353" font-family="FreeSans" font-size="10.00"> clipBorder_</text>
<text text-anchor="middle" x="909" y="-466.353" font-family="FreeSans" font-size="10.00">layoutBorder_</text>
</g>
<!-- Node7&#45;&gt;Node7 -->
<g id="edge14" class="edge"><title>Node7&#45;&gt;Node7</title>
<path fill="none" stroke="#9a32cd" stroke-dasharray="5,2" d="M649.88,-490.032C651.655,-495.327 662.695,-499.353 683,-499.353 713.941,-499.353 723.369,-490.006 711.282,-481.06"/>
<polygon fill="#9a32cd" stroke="#9a32cd" points="653.052,-491.524 654.718,-481.06 646.891,-488.201 653.052,-491.524"/>
<text text-anchor="middle" x="683" y="-503.353" font-family="FreeSans" font-size="10.00"> ZERO</text>
</g>
<!-- Node8 -->
<g id="node15" class="node"><title>Node8</title>
<a xlink:href="class_urho3_d_1_1_vector.html" target="_top" xlink:title="Urho3D::Vector\&lt; Urho3D\l::SharedPtr\&lt; Urho3D::UIElement \&gt; \&gt;">
<polygon fill="none" stroke="black" points="584.5,-660.353 584.5,-694.353 781.5,-694.353 781.5,-660.353 584.5,-660.353"/>
<text text-anchor="start" x="592.5" y="-681.353" font-family="FreeSans" font-size="10.00">Urho3D::Vector&lt; Urho3D</text>
<text text-anchor="middle" x="683" y="-668.353" font-family="FreeSans" font-size="10.00">::SharedPtr&lt; Urho3D::UIElement &gt; &gt;</text>
</a>
</g>
<!-- Node8&#45;&gt;Node2 -->
<g id="edge16" class="edge"><title>Node8&#45;&gt;Node2</title>
<path fill="none" stroke="#9a32cd" stroke-dasharray="5,2" d="M791.922,-672.654C886.397,-668.096 1009.37,-660.794 1018,-653.353 1045.92,-629.263 1025.29,-607.643 1036,-572.353 1056.94,-503.331 1091.45,-423.657 1104.13,-395.167"/>
<polygon fill="#9a32cd" stroke="#9a32cd" points="791.537,-669.168 781.715,-673.141 791.871,-676.16 791.537,-669.168"/>
<text text-anchor="middle" x="909" y="-675.353" font-family="FreeSans" font-size="10.00"> children_</text>
</g>
<!-- Node9 -->
<g id="node17" class="node"><title>Node9</title>
<a xlink:href="class_urho3_d_1_1_vector_base.html" target="_top" xlink:title="Vector base class.">
<polygon fill="none" stroke="black" points="268,-789.853 268,-810.853 382,-810.853 382,-789.853 268,-789.853"/>
<text text-anchor="middle" x="325" y="-797.853" font-family="FreeSans" font-size="10.00">Urho3D::VectorBase</text>
</a>
</g>
<!-- Node9&#45;&gt;Node8 -->
<g id="edge18" class="edge"><title>Node9&#45;&gt;Node8</title>
<path fill="none" stroke="midnightblue" d="M356.77,-785.425C380.536,-774.516 413.973,-759.706 444,-748.353 505.134,-725.238 521.259,-721.66 584,-703.353 594.321,-700.341 605.292,-697.301 616.031,-694.414"/>
<polygon fill="midnightblue" stroke="midnightblue" points="355.142,-782.322 347.532,-789.693 358.078,-788.676 355.142,-782.322"/>
</g>
<!-- Node17 -->
<g id="node39" class="node"><title>Node17</title>
<a xlink:href="class_urho3_d_1_1_p_o_d_vector.html" target="_top" xlink:title="Urho3D::PODVector\&lt;\l int \&gt;">
<polygon fill="none" stroke="black" points="849.5,-858.353 849.5,-892.353 968.5,-892.353 968.5,-858.353 849.5,-858.353"/>
<text text-anchor="start" x="857.5" y="-879.353" font-family="FreeSans" font-size="10.00">Urho3D::PODVector&lt;</text>
<text text-anchor="middle" x="909" y="-866.353" font-family="FreeSans" font-size="10.00"> int &gt;</text>
</a>
</g>
<!-- Node9&#45;&gt;Node17 -->
<g id="edge48" class="edge"><title>Node9&#45;&gt;Node17</title>
<path fill="none" stroke="midnightblue" d="M372.192,-813.469C393.913,-819.088 420.113,-825.281 444,-829.353 588.346,-853.955 760.309,-866.733 849.186,-872.129"/>
<polygon fill="midnightblue" stroke="midnightblue" points="372.797,-810.01 362.236,-810.854 371.019,-816.78 372.797,-810.01"/>
</g>
<!-- Node22 -->
<g id="node52" class="node"><title>Node22</title>
<a xlink:href="class_urho3_d_1_1_p_o_d_vector.html" target="_top" xlink:title="Urho3D::PODVector\&lt;\l Urho3D::CharLocation \&gt;">
<polygon fill="none" stroke="black" points="840.5,-819.353 840.5,-853.353 977.5,-853.353 977.5,-819.353 840.5,-819.353"/>
<text text-anchor="start" x="848.5" y="-840.353" font-family="FreeSans" font-size="10.00">Urho3D::PODVector&lt;</text>
<text text-anchor="middle" x="909" y="-827.353" font-family="FreeSans" font-size="10.00"> Urho3D::CharLocation &gt;</text>
</a>
</g>
<!-- Node9&#45;&gt;Node22 -->
<g id="edge64" class="edge"><title>Node9&#45;&gt;Node22</title>
<path fill="none" stroke="midnightblue" d="M392.449,-807.734C409.273,-809.415 427.283,-811.079 444,-812.353 584.652,-823.068 749.611,-830.326 840.387,-833.862"/>
<polygon fill="midnightblue" stroke="midnightblue" points="392.452,-804.216 382.149,-806.688 391.744,-811.18 392.452,-804.216"/>
</g>
<!-- Node23 -->
<g id="node55" class="node"><title>Node23</title>
<a xlink:href="class_urho3_d_1_1_vector.html" target="_top" xlink:title="Urho3D::Vector\&lt; Urho3D\l::PODVector\&lt; Urho3D::GlyphLocation \&gt; \&gt;">
<polygon fill="none" stroke="black" points="800,-779.353 800,-813.353 1018,-813.353 1018,-779.353 800,-779.353"/>
<text text-anchor="start" x="808" y="-800.353" font-family="FreeSans" font-size="10.00">Urho3D::Vector&lt; Urho3D</text>
<text text-anchor="middle" x="909" y="-787.353" font-family="FreeSans" font-size="10.00">::PODVector&lt; Urho3D::GlyphLocation &gt; &gt;</text>
</a>
</g>
<!-- Node9&#45;&gt;Node23 -->
<g id="edge68" class="edge"><title>Node9&#45;&gt;Node23</title>
<path fill="none" stroke="midnightblue" d="M392.309,-799.892C492.036,-799.209 680.113,-797.92 799.75,-797.101"/>
<polygon fill="midnightblue" stroke="midnightblue" points="392.035,-796.393 382.06,-799.962 392.083,-803.393 392.035,-796.393"/>
</g>
<!-- Node25 -->
<g id="node62" class="node"><title>Node25</title>
<a xlink:href="class_urho3_d_1_1_p_o_d_vector.html" target="_top" xlink:title="Urho3D::PODVector\&lt;\l unsigned \&gt;">
<polygon fill="none" stroke="black" points="1049.5,-691.353 1049.5,-725.353 1168.5,-725.353 1168.5,-691.353 1049.5,-691.353"/>
<text text-anchor="start" x="1057.5" y="-712.353" font-family="FreeSans" font-size="10.00">Urho3D::PODVector&lt;</text>
<text text-anchor="middle" x="1109" y="-699.353" font-family="FreeSans" font-size="10.00"> unsigned &gt;</text>
</a>
</g>
<!-- Node9&#45;&gt;Node25 -->
<g id="edge78" class="edge"><title>Node9&#45;&gt;Node25</title>
<path fill="none" stroke="midnightblue" d="M392.139,-796.698C541.967,-788.192 899.714,-765.843 1018,-740.353 1034.53,-736.789 1052.19,-731.057 1067.5,-725.421"/>
<polygon fill="midnightblue" stroke="midnightblue" points="391.933,-793.204 382.146,-797.262 392.327,-800.193 391.933,-793.204"/>
</g>
<!-- Node10 -->
<g id="node19" class="node"><title>Node10</title>
<a xlink:href="class_urho3_d_1_1_vector2.html" target="_top" xlink:title="Two&#45;dimensional vector.">
<polygon fill="none" stroke="black" points="6,-344.853 6,-365.853 102,-365.853 102,-344.853 6,-344.853"/>
<text text-anchor="middle" x="54" y="-352.853" font-family="FreeSans" font-size="10.00">Urho3D::Vector2</text>
</a>
</g>
<!-- Node10&#45;&gt;Node2 -->
<g id="edge20" class="edge"><title>Node10&#45;&gt;Node2</title>
<path fill="none" stroke="#9a32cd" stroke-dasharray="5,2" d="M112.525,-354.102C236.202,-351.788 533.218,-347.964 782,-358.353 878.019,-362.362 989.538,-372.383 1054.4,-378.748"/>
<polygon fill="#9a32cd" stroke="#9a32cd" points="112.09,-350.61 102.158,-354.3 112.223,-357.609 112.09,-350.61"/>
<text text-anchor="middle" x="505" y="-356.353" font-family="FreeSans" font-size="10.00"> layoutFlexScale_</text>
</g>
<!-- Node10&#45;&gt;Node10 -->
<g id="edge22" class="edge"><title>Node10&#45;&gt;Node10</title>
<path fill="none" stroke="#9a32cd" stroke-dasharray="5,2" d="M33.3596,-375.779C34.9519,-380.701 41.832,-384.353 54,-384.353 73.4688,-384.353 79.4006,-375.006 71.7957,-366.06"/>
<polygon fill="#9a32cd" stroke="#9a32cd" points="36.7541,-376.641 36.2043,-366.06 30.036,-374.675 36.7541,-376.641"/>
<text text-anchor="middle" x="54" y="-453.353" font-family="FreeSans" font-size="10.00"> ONE</text>
<text text-anchor="middle" x="54" y="-440.353" font-family="FreeSans" font-size="10.00">DOWN</text>
<text text-anchor="middle" x="54" y="-427.353" font-family="FreeSans" font-size="10.00">RIGHT</text>
<text text-anchor="middle" x="54" y="-414.353" font-family="FreeSans" font-size="10.00">LEFT</text>
<text text-anchor="middle" x="54" y="-401.353" font-family="FreeSans" font-size="10.00">ZERO</text>
<text text-anchor="middle" x="54" y="-388.353" font-family="FreeSans" font-size="10.00">UP</text>
</g>
<!-- Node20 -->
<g id="node46" class="node"><title>Node20</title>
<a xlink:href="class_urho3_d_1_1_font.html" target="_top" xlink:title="Font resource.">
<polygon fill="none" stroke="red" points="285,-556.853 285,-577.853 365,-577.853 365,-556.853 285,-556.853"/>
<text text-anchor="middle" x="325" y="-564.853" font-family="FreeSans" font-size="10.00">Urho3D::Font</text>
</a>
</g>
<!-- Node10&#45;&gt;Node20 -->
<g id="edge56" class="edge"><title>Node10&#45;&gt;Node20</title>
<path fill="none" stroke="#9a32cd" stroke-dasharray="5,2" d="M69.1075,-374.097C96.8418,-407.534 159.019,-478.105 224,-522.353 245.738,-537.155 273.135,-549.002 293.909,-556.817"/>
<polygon fill="#9a32cd" stroke="#9a32cd" points="71.5688,-371.579 62.5201,-366.067 66.157,-376.019 71.5688,-371.579"/>
<text text-anchor="middle" x="166" y="-510.353" font-family="FreeSans" font-size="10.00"> scaledOffset_</text>
</g>
<!-- Node11 -->
<g id="node22" class="node"><title>Node11</title>
<a xlink:href="class_urho3_d_1_1_hash_map.html" target="_top" xlink:title="Urho3D::HashMap\&lt; StringHash,\l Variant \&gt;">
<polygon fill="none" stroke="red" points="597,-367.353 597,-401.353 769,-401.353 769,-367.353 597,-367.353"/>
<text text-anchor="start" x="605" y="-388.353" font-family="FreeSans" font-size="10.00">Urho3D::HashMap&lt; StringHash,</text>
<text text-anchor="middle" x="683" y="-375.353" font-family="FreeSans" font-size="10.00"> Variant &gt;</text>
</a>
</g>
<!-- Node11&#45;&gt;Node2 -->
<g id="edge24" class="edge"><title>Node11&#45;&gt;Node2</title>
<path fill="none" stroke="#9a32cd" stroke-dasharray="5,2" d="M779.383,-384.353C864.32,-384.353 985.023,-384.353 1054.34,-384.353"/>
<polygon fill="#9a32cd" stroke="#9a32cd" points="779.207,-380.853 769.207,-384.353 779.207,-387.853 779.207,-380.853"/>
<text text-anchor="middle" x="909" y="-388.353" font-family="FreeSans" font-size="10.00"> vars_</text>
</g>
<!-- Node12 -->
<g id="node25" class="node"><title>Node12</title>
<a xlink:href="class_urho3_d_1_1_string.html" target="_top" xlink:title="String class.">
<polygon fill="none" stroke="black" points="281,-234.853 281,-255.853 369,-255.853 369,-234.853 281,-234.853"/>
<text text-anchor="middle" x="325" y="-242.853" font-family="FreeSans" font-size="10.00">Urho3D::String</text>
</a>
</g>
<!-- Node12&#45;&gt;Node1 -->
<g id="edge70" class="edge"><title>Node12&#45;&gt;Node1</title>
<path fill="none" stroke="#9a32cd" stroke-dasharray="5,2" d="M351.407,-229.539C399.253,-199.832 501.302,-131.501 566,-52.3526 577.071,-38.8095 569.068,-26.4641 584,-17.3526 604.193,-5.03062 1004.85,-18.8976 1018,-23.3526 1184.13,-79.6199 1214.09,-162.807 1266,-330.353 1301.61,-445.276 1317.96,-591.31 1321.98,-631.628"/>
<polygon fill="#9a32cd" stroke="#9a32cd" points="349.544,-226.576 342.857,-234.794 353.209,-232.54 349.544,-226.576"/>
<text text-anchor="middle" x="909" y="-40.3526" font-family="FreeSans" font-size="10.00"> stringId_</text>
<text text-anchor="middle" x="909" y="-27.3526" font-family="FreeSans" font-size="10.00">text_</text>
</g>
<!-- Node12&#45;&gt;Node2 -->
<g id="edge28" class="edge"><title>Node12&#45;&gt;Node2</title>
<path fill="none" stroke="#9a32cd" stroke-dasharray="5,2" d="M379.661,-242.452C523.226,-235.729 907.525,-223.762 1018,-281.353 1059.47,-302.972 1090.78,-351.863 1103.18,-373.594"/>
<polygon fill="#9a32cd" stroke="#9a32cd" points="379.164,-238.972 369.343,-242.946 379.499,-245.964 379.164,-238.972"/>
<text text-anchor="middle" x="683" y="-256.353" font-family="FreeSans" font-size="10.00"> appliedStyle_</text>
<text text-anchor="middle" x="683" y="-243.353" font-family="FreeSans" font-size="10.00">name_</text>
</g>
<!-- Node12&#45;&gt;Node12 -->
<g id="edge30" class="edge"><title>Node12&#45;&gt;Node12</title>
<path fill="none" stroke="#9a32cd" stroke-dasharray="5,2" d="M295.728,-265.408C297.648,-270.517 307.405,-274.353 325,-274.353 352.465,-274.353 360.833,-265.006 350.105,-256.06"/>
<polygon fill="#9a32cd" stroke="#9a32cd" points="299.02,-266.619 299.895,-256.06 292.626,-263.769 299.02,-266.619"/>
<text text-anchor="middle" x="325" y="-278.353" font-family="FreeSans" font-size="10.00"> EMPTY</text>
</g>
<!-- Node13 -->
<g id="node28" class="node"><title>Node13</title>
<a xlink:href="class_urho3_d_1_1_x_path_query.html" target="_top" xlink:title="XPath query.">
<polygon fill="none" stroke="black" points="625.5,-289.853 625.5,-310.853 740.5,-310.853 740.5,-289.853 625.5,-289.853"/>
<text text-anchor="middle" x="683" y="-297.853" font-family="FreeSans" font-size="10.00">Urho3D::XPathQuery</text>
</a>
</g>
<!-- Node12&#45;&gt;Node13 -->
<g id="edge34" class="edge"><title>Node12&#45;&gt;Node13</title>
<path fill="none" stroke="#9a32cd" stroke-dasharray="5,2" d="M379.505,-253.726C445.862,-263.921 557.44,-281.063 625.238,-291.479"/>
<polygon fill="#9a32cd" stroke="#9a32cd" points="379.672,-250.211 369.257,-252.152 378.609,-257.13 379.672,-250.211"/>
<text text-anchor="middle" x="505" y="-284.353" font-family="FreeSans" font-size="10.00"> queryString_</text>
</g>
<!-- Node13&#45;&gt;Node2 -->
<g id="edge32" class="edge"><title>Node13&#45;&gt;Node2</title>
<path fill="none" stroke="#9a32cd" stroke-dasharray="5,2" d="M751.158,-290.683C820.58,-283.581 930.204,-280.048 1018,-312.353 1052.98,-325.223 1084.92,-357.092 1099.95,-373.78"/>
<polygon fill="#9a32cd" stroke="#9a32cd" points="750.36,-287.249 740.793,-291.801 751.11,-294.208 750.36,-287.249"/>
<text text-anchor="middle" x="909" y="-316.353" font-family="FreeSans" font-size="10.00"> styleXPathQuery_</text>
</g>
<!-- Node14 -->
<g id="node31" class="node"><title>Node14</title>
<a xlink:href="class_urho3_d_1_1_shared_ptr.html" target="_top" xlink:title="Urho3D::SharedPtr\&lt;\l Urho3D::XMLFile \&gt;">
<polygon fill="none" stroke="red" points="625,-530.353 625,-564.353 741,-564.353 741,-530.353 625,-530.353"/>
<text text-anchor="start" x="633" y="-551.353" font-family="FreeSans" font-size="10.00">Urho3D::SharedPtr&lt;</text>
<text text-anchor="middle" x="683" y="-538.353" font-family="FreeSans" font-size="10.00"> Urho3D::XMLFile &gt;</text>
</a>
</g>
<!-- Node14&#45;&gt;Node2 -->
<g id="edge36" class="edge"><title>Node14&#45;&gt;Node2</title>
<path fill="none" stroke="#9a32cd" stroke-dasharray="5,2" d="M751.398,-549.633C822.51,-549.047 934.845,-539.597 1018,-492.353 1060,-468.492 1091.25,-417.399 1103.42,-395.116"/>
<polygon fill="#9a32cd" stroke="#9a32cd" points="751.205,-546.133 741.214,-549.658 751.222,-553.133 751.205,-546.133"/>
<text text-anchor="middle" x="909" y="-551.353" font-family="FreeSans" font-size="10.00"> defaultStyle_</text>
</g>
<!-- Node15 -->
<g id="node33" class="node"><title>Node15</title>
<a xlink:href="class_urho3_d_1_1_int_vector2.html" target="_top" xlink:title="Two&#45;dimensional vector with integer values.">
<polygon fill="none" stroke="black" points="0,-111.853 0,-132.853 108,-132.853 108,-111.853 0,-111.853"/>
<text text-anchor="middle" x="54" y="-119.853" font-family="FreeSans" font-size="10.00">Urho3D::IntVector2</text>
</a>
</g>
<!-- Node15&#45;&gt;Node2 -->
<g id="edge38" class="edge"><title>Node15&#45;&gt;Node2</title>
<path fill="none" stroke="#9a32cd" stroke-dasharray="5,2" d="M90.0055,-108.047C196.617,-67.632 519.614,40.7937 782,-17.3526 783.765,-17.7438 1016.97,-125.869 1018,-127.353 1046.03,-167.611 1008.64,-306.638 1036,-347.353 1044.32,-359.736 1058.1,-368.185 1071.45,-373.845"/>
<polygon fill="#9a32cd" stroke="#9a32cd" points="88.4587,-104.892 80.3731,-111.738 90.9634,-111.428 88.4587,-104.892"/>
<text text-anchor="middle" x="505" y="-96.3526" font-family="FreeSans" font-size="10.00"> maxSize_</text>
<text text-anchor="middle" x="505" y="-83.3526" font-family="FreeSans" font-size="10.00">childOffset_</text>
<text text-anchor="middle" x="505" y="-70.3526" font-family="FreeSans" font-size="10.00">size_</text>
<text text-anchor="middle" x="505" y="-57.3526" font-family="FreeSans" font-size="10.00">position_</text>
<text text-anchor="start" x="470" y="-44.3526" font-family="FreeSans" font-size="10.00">screenPosition</text>
<text text-anchor="middle" x="505" y="-31.3526" font-family="FreeSans" font-size="10.00">_</text>
<text text-anchor="middle" x="505" y="-18.3526" font-family="FreeSans" font-size="10.00">minSize_</text>
</g>
<!-- Node15&#45;&gt;Node15 -->
<g id="edge40" class="edge"><title>Node15&#45;&gt;Node15</title>
<path fill="none" stroke="#9a32cd" stroke-dasharray="5,2" d="M33.3596,-142.779C34.9519,-147.701 41.832,-151.353 54,-151.353 73.4688,-151.353 79.4006,-142.006 71.7957,-133.06"/>
<polygon fill="#9a32cd" stroke="#9a32cd" points="36.7541,-143.641 36.2043,-133.06 30.036,-141.675 36.7541,-143.641"/>
<text text-anchor="middle" x="54" y="-155.353" font-family="FreeSans" font-size="10.00"> ZERO</text>
</g>
<!-- Node15&#45;&gt;Node20 -->
<g id="edge58" class="edge"><title>Node15&#45;&gt;Node20</title>
<path fill="none" stroke="#9a32cd" stroke-dasharray="5,2" d="M66.4099,-141.603C95.5551,-187.733 168.721,-309.041 206,-420.353 220.619,-464.003 195.661,-486.076 224,-522.353 238.89,-541.414 263.59,-552.613 284.836,-559.071"/>
<polygon fill="#9a32cd" stroke="#9a32cd" points="69.2112,-139.486 60.8875,-132.932 63.3068,-143.247 69.2112,-139.486"/>
<text text-anchor="middle" x="166" y="-424.353" font-family="FreeSans" font-size="10.00"> absoluteOffset_</text>
</g>
<!-- Node16 -->
<g id="node36" class="node"><title>Node16</title>
<a xlink:href="class_urho3_d_1_1_color.html" target="_top" xlink:title="RGBA color.">
<polygon fill="none" stroke="black" points="641,-26.8526 641,-47.8526 725,-47.8526 725,-26.8526 641,-26.8526"/>
<text text-anchor="middle" x="683" y="-34.8526" font-family="FreeSans" font-size="10.00">Urho3D::Color</text>
</a>
</g>
<!-- Node16&#45;&gt;Node1 -->
<g id="edge80" class="edge"><title>Node16&#45;&gt;Node1</title>
<path fill="none" stroke="#9a32cd" stroke-dasharray="5,2" d="M735.381,-42.4242C804.823,-51.1892 928.947,-74.1111 1018,-131.353 1217.89,-259.84 1304.8,-569.926 1320.39,-631.587"/>
<polygon fill="#9a32cd" stroke="#9a32cd" points="735.48,-38.9106 725.131,-41.1836 734.638,-45.8599 735.48,-38.9106"/>
<text text-anchor="middle" x="1109" y="-334.353" font-family="FreeSans" font-size="10.00"> selectionColor_</text>
<text text-anchor="middle" x="1109" y="-321.353" font-family="FreeSans" font-size="10.00">effectColor_</text>
<text text-anchor="middle" x="1109" y="-308.353" font-family="FreeSans" font-size="10.00">hoverColor_</text>
</g>
<!-- Node16&#45;&gt;Node2 -->
<g id="edge42" class="edge"><title>Node16&#45;&gt;Node2</title>
<path fill="none" stroke="#9a32cd" stroke-dasharray="5,2" d="M700.895,-55.1203C722.674,-75.8958 761.349,-110.135 800,-131.353 889.693,-180.589 940.663,-138.359 1018,-205.353 1073.33,-253.287 1099.12,-343.03 1106.6,-373.734"/>
<polygon fill="#9a32cd" stroke="#9a32cd" points="703.286,-52.5642 693.667,-48.1245 698.418,-57.5941 703.286,-52.5642"/>
<text text-anchor="middle" x="909" y="-222.353" font-family="FreeSans" font-size="10.00"> derivedColor_</text>
<text text-anchor="middle" x="909" y="-209.353" font-family="FreeSans" font-size="10.00">color_</text>
</g>
<!-- Node16&#45;&gt;Node16 -->
<g id="edge44" class="edge"><title>Node16&#45;&gt;Node16</title>
<path fill="none" stroke="#9a32cd" stroke-dasharray="5,2" d="M649.88,-57.0317C651.655,-62.3273 662.695,-66.3526 683,-66.3526 713.941,-66.3526 723.369,-57.0057 711.282,-48.0605"/>
<polygon fill="#9a32cd" stroke="#9a32cd" points="653.052,-58.5236 654.718,-48.0605 646.891,-55.2011 653.052,-58.5236"/>
<text text-anchor="middle" x="683" y="-200.353" font-family="FreeSans" font-size="10.00"> CYAN</text>
<text text-anchor="middle" x="683" y="-187.353" font-family="FreeSans" font-size="10.00">GRAY</text>
<text text-anchor="middle" x="683" y="-174.353" font-family="FreeSans" font-size="10.00">YELLOW</text>
<text text-anchor="middle" x="683" y="-161.353" font-family="FreeSans" font-size="10.00">MAGENTA</text>
<text text-anchor="middle" x="683" y="-148.353" font-family="FreeSans" font-size="10.00">WHITE</text>
<text text-anchor="middle" x="683" y="-135.353" font-family="FreeSans" font-size="10.00">TRANSPARENT</text>
<text text-anchor="middle" x="683" y="-122.353" font-family="FreeSans" font-size="10.00">BLUE</text>
<text text-anchor="middle" x="683" y="-109.353" font-family="FreeSans" font-size="10.00">BLACK</text>
<text text-anchor="middle" x="683" y="-96.3526" font-family="FreeSans" font-size="10.00">RED</text>
<text text-anchor="middle" x="683" y="-83.3526" font-family="FreeSans" font-size="10.00">GREEN</text>
<text text-anchor="middle" x="683" y="-70.3526" font-family="FreeSans" font-size="10.00">...</text>
</g>
<!-- Node17&#45;&gt;Node1 -->
<g id="edge46" class="edge"><title>Node17&#45;&gt;Node1</title>
<path fill="none" stroke="#9a32cd" stroke-dasharray="5,2" d="M978.925,-876.924C1035.55,-875.926 1116.4,-869.269 1182,-843.353 1225.16,-826.303 1237.48,-817.951 1266,-781.353 1298.23,-740.003 1314.99,-677.896 1320.7,-653.118"/>
<polygon fill="#9a32cd" stroke="#9a32cd" points="978.6,-873.428 968.643,-877.048 978.684,-880.427 978.6,-873.428"/>
<text text-anchor="middle" x="1109" y="-877.353" font-family="FreeSans" font-size="10.00"> rowWidths_</text>
</g>
<!-- Node18 -->
<g id="node42" class="node"><title>Node18</title>
<a xlink:href="class_urho3_d_1_1_weak_ptr.html" target="_top" xlink:title="Urho3D::WeakPtr\&lt; Urho3D\l::FontFace \&gt;">
<polygon fill="none" stroke="black" points="1036,-625.353 1036,-659.353 1182,-659.353 1182,-625.353 1036,-625.353"/>
<text text-anchor="start" x="1044" y="-646.353" font-family="FreeSans" font-size="10.00">Urho3D::WeakPtr&lt; Urho3D</text>
<text text-anchor="middle" x="1109" y="-633.353" font-family="FreeSans" font-size="10.00">::FontFace &gt;</text>
</a>
</g>
<!-- Node18&#45;&gt;Node1 -->
<g id="edge50" class="edge"><title>Node18&#45;&gt;Node1</title>
<path fill="none" stroke="#9a32cd" stroke-dasharray="5,2" d="M1192.18,-642.353C1223.76,-642.353 1258.26,-642.353 1283.89,-642.353"/>
<polygon fill="#9a32cd" stroke="#9a32cd" points="1192.05,-638.853 1182.05,-642.353 1192.05,-645.853 1192.05,-638.853"/>
<text text-anchor="middle" x="1233" y="-646.353" font-family="FreeSans" font-size="10.00"> fontFace_</text>
</g>
<!-- Node19 -->
<g id="node44" class="node"><title>Node19</title>
<a xlink:href="class_urho3_d_1_1_font_face.html" target="_top" xlink:title="Font face description.">
<polygon fill="none" stroke="red" points="632,-620.853 632,-641.853 734,-641.853 734,-620.853 632,-620.853"/>
<text text-anchor="middle" x="683" y="-628.853" font-family="FreeSans" font-size="10.00">Urho3D::FontFace</text>
</a>
</g>
<!-- Node19&#45;&gt;Node18 -->
<g id="edge52" class="edge"><title>Node19&#45;&gt;Node18</title>
<path fill="none" stroke="#9a32cd" stroke-dasharray="5,2" d="M744.421,-632.939C821.464,-634.928 953.415,-638.335 1035.67,-640.459"/>
<polygon fill="#9a32cd" stroke="#9a32cd" points="744.473,-629.439 734.386,-632.679 744.292,-636.437 744.473,-629.439"/>
<text text-anchor="middle" x="909" y="-643.353" font-family="FreeSans" font-size="10.00"> ptr_</text>
</g>
<!-- Node20&#45;&gt;Node19 -->
<g id="edge54" class="edge"><title>Node20&#45;&gt;Node19</title>
<path fill="none" stroke="#9a32cd" stroke-dasharray="5,2" d="M359.528,-581.675C382.955,-590.786 414.852,-602.022 444,-608.353 507.75,-622.199 582.876,-627.711 631.643,-629.905"/>
<polygon fill="#9a32cd" stroke="#9a32cd" points="360.625,-578.346 350.039,-577.921 358.05,-584.855 360.625,-578.346"/>
<text text-anchor="middle" x="505" y="-628.353" font-family="FreeSans" font-size="10.00"> font_</text>
</g>
<!-- Node24 -->
<g id="node59" class="node"><title>Node24</title>
<a xlink:href="class_urho3_d_1_1_shared_ptr.html" target="_top" xlink:title="Urho3D::SharedPtr\&lt;\l Urho3D::Font \&gt;">
<polygon fill="none" stroke="black" points="851,-576.353 851,-610.353 967,-610.353 967,-576.353 851,-576.353"/>
<text text-anchor="start" x="859" y="-597.353" font-family="FreeSans" font-size="10.00">Urho3D::SharedPtr&lt;</text>
<text text-anchor="middle" x="909" y="-584.353" font-family="FreeSans" font-size="10.00"> Urho3D::Font &gt;</text>
</a>
</g>
<!-- Node20&#45;&gt;Node24 -->
<g id="edge74" class="edge"><title>Node20&#45;&gt;Node24</title>
<path fill="none" stroke="#9a32cd" stroke-dasharray="5,2" d="M375.435,-569.598C483.422,-574.406 736.459,-585.671 850.932,-590.767"/>
<polygon fill="#9a32cd" stroke="#9a32cd" points="375.286,-566.088 365.141,-569.14 374.975,-573.081 375.286,-566.088"/>
<text text-anchor="middle" x="505" y="-581.353" font-family="FreeSans" font-size="10.00"> ptr_</text>
</g>
<!-- Node21 -->
<g id="node50" class="node"><title>Node21</title>
<a xlink:href="struct_urho3_d_1_1_ref_count.html" target="_top" xlink:title="Reference count structure.">
<polygon fill="none" stroke="black" points="632,-712.853 632,-733.853 734,-733.853 734,-712.853 632,-712.853"/>
<text text-anchor="middle" x="683" y="-720.853" font-family="FreeSans" font-size="10.00">Urho3D::RefCount</text>
</a>
</g>
<!-- Node21&#45;&gt;Node18 -->
<g id="edge60" class="edge"><title>Node21&#45;&gt;Node18</title>
<path fill="none" stroke="#9a32cd" stroke-dasharray="5,2" d="M744.366,-725.169C812.685,-725.486 925.641,-720.891 1018,-692.353 1026.74,-689.651 1027.99,-686.774 1036,-682.353 1049.67,-674.813 1064.79,-666.515 1077.72,-659.442"/>
<polygon fill="#9a32cd" stroke="#9a32cd" points="744.236,-721.667 734.207,-725.083 744.177,-728.667 744.236,-721.667"/>
<text text-anchor="middle" x="909" y="-727.353" font-family="FreeSans" font-size="10.00"> refCount_</text>
</g>
<!-- Node22&#45;&gt;Node1 -->
<g id="edge62" class="edge"><title>Node22&#45;&gt;Node1</title>
<path fill="none" stroke="#9a32cd" stroke-dasharray="5,2" d="M987.837,-832.236C1043.38,-827.491 1118.81,-817.287 1182,-795.353 1222.62,-781.252 1235.93,-778.087 1266,-747.353 1294,-718.739 1312.18,-673.59 1319.43,-653.101"/>
<polygon fill="#9a32cd" stroke="#9a32cd" points="987.388,-828.761 977.704,-833.06 987.955,-835.738 987.388,-828.761"/>
<text text-anchor="middle" x="1109" y="-830.353" font-family="FreeSans" font-size="10.00"> charLocations_</text>
</g>
<!-- Node23&#45;&gt;Node1 -->
<g id="edge66" class="edge"><title>Node23&#45;&gt;Node1</title>
<path fill="none" stroke="#9a32cd" stroke-dasharray="5,2" d="M1028.46,-780.778C1116.47,-767.557 1227.3,-746.713 1266,-721.353 1292.31,-704.111 1310.48,-670.22 1318.45,-652.975"/>
<polygon fill="#9a32cd" stroke="#9a32cd" points="1027.77,-777.342 1018.39,-782.273 1028.8,-784.267 1027.77,-777.342"/>
<text text-anchor="middle" x="1109" y="-782.353" font-family="FreeSans" font-size="10.00"> pageGlyphLocations_</text>
</g>
<!-- Node24&#45;&gt;Node1 -->
<g id="edge72" class="edge"><title>Node24&#45;&gt;Node1</title>
<path fill="none" stroke="#9a32cd" stroke-dasharray="5,2" d="M977.218,-591.466C1032.7,-590.981 1112.83,-592.67 1182,-603.353 1221.03,-609.381 1264.67,-622.475 1292.92,-631.827"/>
<polygon fill="#9a32cd" stroke="#9a32cd" points="977.114,-587.966 967.155,-591.58 977.194,-594.966 977.114,-587.966"/>
<text text-anchor="middle" x="1109" y="-607.353" font-family="FreeSans" font-size="10.00"> font_</text>
</g>
<!-- Node25&#45;&gt;Node1 -->
<g id="edge76" class="edge"><title>Node25&#45;&gt;Node1</title>
<path fill="none" stroke="#9a32cd" stroke-dasharray="5,2" d="M1174.31,-688.21C1212.12,-676.549 1258.17,-662.348 1288.9,-652.868"/>
<polygon fill="#9a32cd" stroke="#9a32cd" points="1172.91,-684.978 1164.39,-691.27 1174.98,-691.668 1172.91,-684.978"/>
<text text-anchor="middle" x="1233" y="-708.353" font-family="FreeSans" font-size="10.00"> unicodeText_</text>
<text text-anchor="middle" x="1233" y="-695.353" font-family="FreeSans" font-size="10.00">printToText_</text>
<text text-anchor="middle" x="1233" y="-682.353" font-family="FreeSans" font-size="10.00">printText_</text>
</g>
</g>
</svg>
        <g id="navigator" transform="translate(0 0)" fill="#404254">
                <rect fill="#f2f5e9" fill-opacity="0.5" stroke="#606060" stroke-width=".5" x="0" y="0" width="60" height="60"/>
                <use id="zoomplus" xlink:href="#zoomPlus" x="17" y="9" onmousedown="handleZoom(evt,'in')"/>
                <use id="zoomminus" xlink:href="#zoomMin" x="42" y="9" onmousedown="handleZoom(evt,'out')"/>
                <use id="reset" xlink:href="#resetDef" x="30" y="36" onmousedown="handleReset()"/>
                <g id="arrowUp" xlink:href="#dirArrow" transform="translate(30 24)" onmousedown="handlePan(0,-1)">
                  <use xlink:href="#rim" fill="#404040">
                        <set attributeName="fill" to="#808080" begin="arrowUp.mouseover" end="arrowUp.mouseout"/>
                  </use>
                  <path fill="none" stroke="white" stroke-width="1.5" d="M0,-3.0v7 M-2.5,-0.5L0,-3.0L2.5,-0.5"/>
                </g>
                <g id="arrowRight" xlink:href="#dirArrow" transform="rotate(90) translate(36 -43)" onmousedown="handlePan(1,0)">
                  <use xlink:href="#rim" fill="#404040">
                        <set attributeName="fill" to="#808080" begin="arrowRight.mouseover" end="arrowRight.mouseout"/>
                  </use>
                  <path fill="none" stroke="white" stroke-width="1.5" d="M0,-3.0v7 M-2.5,-0.5L0,-3.0L2.5,-0.5"/>
                </g>
                <g id="arrowDown" xlink:href="#dirArrow" transform="rotate(180) translate(-30 -48)" onmousedown="handlePan(0,1)">
                  <use xlink:href="#rim" fill="#404040">
                        <set attributeName="fill" to="#808080" begin="arrowDown.mouseover" end="arrowDown.mouseout"/>
                  </use>
                  <path fill="none" stroke="white" stroke-width="1.5" d="M0,-3.0v7 M-2.5,-0.5L0,-3.0L2.5,-0.5"/>
                </g>
                <g id="arrowLeft" xlink:href="#dirArrow" transform="rotate(270) translate(-36 17)" onmousedown="handlePan(-1,0)">
                  <use xlink:href="#rim" fill="#404040">
                        <set attributeName="fill" to="#808080" begin="arrowLeft.mouseover" end="arrowLeft.mouseout"/>
                  </use>
                  <path fill="none" stroke="white" stroke-width="1.5" d="M0,-3.0v7 M-2.5,-0.5L0,-3.0L2.5,-0.5"/>
                </g>
        </g>
        <svg viewBox="0 0 15 15" width="100%" height="30px" preserveAspectRatio="xMaxYMin meet">
         <g id="arrow_out" transform="scale(0.3 0.3)">
          <a xlink:href="class_urho3_d_1_1_text__coll__graph_org.svg" target="_base">
           <rect id="button" ry="5" rx="5" y="6" x="6" height="38" width="38"
                fill="#f2f5e9" fill-opacity="0.5" stroke="#606060" stroke-width="1.0"/>
           <path id="arrow"
             d="M 11.500037,31.436501 C 11.940474,20.09759 22.043105,11.32322 32.158766,21.979434 L 37.068811,17.246167 C 37.068811,17.246167 37.088388,32 37.088388,32 L 22.160133,31.978069 C 22.160133,31.978069 26.997745,27.140456 26.997745,27.140456 C 18.528582,18.264221 13.291696,25.230495 11.500037,31.436501 z"
             style="fill:#404040;"/>
          </a>
         </g>
        </svg>
</svg>
