<?xml version="1.0" encoding="UTF-8" standalone="no"?>
<!DOCTYPE svg PUBLIC "-//W3C//DTD SVG 1.1//EN"
 "http://www.w3.org/Graphics/SVG/1.1/DTD/svg11.dtd">
<!-- Generated by graphviz version 2.26.3 (20100126.1600)
 -->
<!-- Title: Urho3D::ResourceCache Pages: 1 -->
<!--zoomable 1097 -->
<svg id="main" version="1.1" xmlns="http://www.w3.org/2000/svg" xmlns:xlink="http://www.w3.org/1999/xlink" xml:space="preserve" onload="init(evt)">
        <defs>
                <circle id="rim" cx="0" cy="0" r="7"/>
                <circle id="rim2" cx="0" cy="0" r="3.5"/>
                <g id="zoomPlus">
                        <use xlink:href="#rim" fill="#404040">
                                <set attributeName="fill" to="#808080" begin="zoomplus.mouseover" end="zoomplus.mouseout"/>
                        </use>
                        <path d="M-4,0h8M0,-4v8" fill="none" stroke="white" stroke-width="1.5" pointer-events="none"/>
                </g>
                <g id="zoomMin">
                        <use xlink:href="#rim" fill="#404040">
                                <set attributeName="fill" to="#808080" begin="zoomminus.mouseover" end="zoomminus.mouseout"/>
                        </use>
                        <path d="M-4,0h8" fill="none" stroke="white" stroke-width="1.5" pointer-events="none"/>
                </g>
                <g id="dirArrow">
                        <path fill="none" stroke="white" stroke-width="1.5" d="M0,-3.0v7 M-2.5,-0.5L0,-3.0L2.5,-0.5"/>
                </g>
               <g id="resetDef">
                       <use xlink:href="#rim2" fill="#404040">
                               <set attributeName="fill" to="#808080" begin="reset.mouseover" end="reset.mouseout"/>
                       </use>
               </g>
        </defs>

<script type="text/javascript">
var viewWidth = 1492;
var viewHeight = 1097;
var sectionId = 'dynsection-1';
</script>
<script xlink:href="svgpan.js"/>
<svg id="graph" class="graph">
<g id="viewport">
<title>Urho3D::ResourceCache</title>
<!-- Node1 -->
<g id="node1" class="node"><title>Node1</title>
<polygon fill="#bfbfbf" stroke="black" points="898.5,-826.372 898.5,-847.372 1031.5,-847.372 1031.5,-826.372 898.5,-826.372"/>
<text text-anchor="middle" x="965" y="-834.372" font-family="FreeSans" font-size="10.00">Urho3D::ResourceCache</text>
</g>
<!-- Node22 -->
<g id="node54" class="node"><title>Node22</title>
<a xlink:href="class_urho3_d_1_1_background_loader.html" target="_top" xlink:title="Background loader of resources. Owned by the ResourceCache.">
<polygon fill="none" stroke="red" points="1112.5,-811.372 1112.5,-832.372 1261.5,-832.372 1261.5,-811.372 1112.5,-811.372"/>
<text text-anchor="middle" x="1187" y="-819.372" font-family="FreeSans" font-size="10.00">Urho3D::BackgroundLoader</text>
</a>
</g>
<!-- Node1&#45;&gt;Node22 -->
<g id="edge70" class="edge"><title>Node1&#45;&gt;Node22</title>
<path fill="none" stroke="#9a32cd" stroke-dasharray="5,2" d="M1041.61,-831.696C1064.48,-830.15 1089.52,-828.458 1112.28,-826.921"/>
<polygon fill="#9a32cd" stroke="#9a32cd" points="1041.35,-828.205 1031.61,-832.371 1041.82,-835.189 1041.35,-828.205"/>
<text text-anchor="middle" x="1075" y="-833.872" font-family="FreeSans" font-size="10.00"> owner_</text>
</g>
<!-- Node2 -->
<g id="node2" class="node"><title>Node2</title>
<a xlink:href="class_urho3_d_1_1_object.html" target="_top" xlink:title="Base class for objects with type identification, subsystem access and event sending/receiving capabil...">
<polygon fill="none" stroke="black" points="352,-465.372 352,-486.372 442,-486.372 442,-465.372 352,-465.372"/>
<text text-anchor="middle" x="397" y="-473.372" font-family="FreeSans" font-size="10.00">Urho3D::Object</text>
</a>
</g>
<!-- Node2&#45;&gt;Node1 -->
<g id="edge2" class="edge"><title>Node2&#45;&gt;Node1</title>
<path fill="none" stroke="midnightblue" d="M402.407,-496.131C415.862,-542.139 455.559,-654.338 534,-703.872 598.185,-744.403 817.344,-686.35 874,-736.872 902.496,-762.283 865.065,-793.811 892,-820.872 894.014,-822.895 896.22,-824.688 898.572,-826.277"/>
<polygon fill="midnightblue" stroke="midnightblue" points="405.749,-495.087 399.671,-486.409 399.011,-496.983 405.749,-495.087"/>
</g>
<!-- Node8 -->
<g id="node15" class="node"><title>Node8</title>
<a xlink:href="class_urho3_d_1_1_event_handler.html" target="_top" xlink:title="Internal helper class for invoking event handler functions.">
<polygon fill="none" stroke="red" points="575,-440.372 575,-461.372 699,-461.372 699,-440.372 575,-440.372"/>
<text text-anchor="middle" x="637" y="-448.372" font-family="FreeSans" font-size="10.00">Urho3D::EventHandler</text>
</a>
</g>
<!-- Node2&#45;&gt;Node8 -->
<g id="edge18" class="edge"><title>Node2&#45;&gt;Node8</title>
<path fill="none" stroke="#9a32cd" stroke-dasharray="5,2" d="M444.519,-463.009C453.584,-460.971 463.039,-459.125 472,-457.872 505.79,-453.145 543.819,-451.301 574.845,-450.68"/>
<polygon fill="#9a32cd" stroke="#9a32cd" points="443.428,-459.67 434.498,-465.371 445.034,-466.484 443.428,-459.67"/>
<text text-anchor="middle" x="494" y="-474.872" font-family="FreeSans" font-size="10.00"> sender_</text>
<text text-anchor="middle" x="494" y="-461.872" font-family="FreeSans" font-size="10.00">receiver_</text>
</g>
<!-- Node3 -->
<g id="node4" class="node"><title>Node3</title>
<a xlink:href="class_urho3_d_1_1_ref_counted.html" target="_top" xlink:title="Base class for intrusively reference&#45;counted objects. These are noncopyable and non&#45;assignable.">
<polygon fill="none" stroke="black" points="188,-465.372 188,-486.372 302,-486.372 302,-465.372 188,-465.372"/>
<text text-anchor="middle" x="245" y="-473.372" font-family="FreeSans" font-size="10.00">Urho3D::RefCounted</text>
</a>
</g>
<!-- Node3&#45;&gt;Node2 -->
<g id="edge4" class="edge"><title>Node3&#45;&gt;Node2</title>
<path fill="none" stroke="midnightblue" d="M312.222,-475.872C325.681,-475.872 339.512,-475.872 351.996,-475.872"/>
<polygon fill="midnightblue" stroke="midnightblue" points="312.032,-472.372 302.032,-475.872 312.032,-479.372 312.032,-472.372"/>
</g>
<!-- Node5 -->
<g id="node8" class="node"><title>Node5</title>
<a xlink:href="class_urho3_d_1_1_context.html" target="_top" xlink:title="Urho3D execution context. Provides access to subsystems, object factories and attributes, and event receivers.">
<polygon fill="none" stroke="red" points="916.5,-306.372 916.5,-327.372 1013.5,-327.372 1013.5,-306.372 916.5,-306.372"/>
<text text-anchor="middle" x="965" y="-314.372" font-family="FreeSans" font-size="10.00">Urho3D::Context</text>
</a>
</g>
<!-- Node3&#45;&gt;Node5 -->
<g id="edge10" class="edge"><title>Node3&#45;&gt;Node5</title>
<path fill="none" stroke="midnightblue" d="M250.156,-455.439C270.414,-380.301 352.505,-119.549 534,-39.8719 673.913,21.5508 764.925,16.1371 874,-90.8719 938.916,-154.558 958.979,-270.678 963.74,-306.239"/>
<polygon fill="midnightblue" stroke="midnightblue" points="246.765,-454.574 247.612,-465.135 253.536,-456.351 246.765,-454.574"/>
</g>
<!-- Node3&#45;&gt;Node22 -->
<g id="edge68" class="edge"><title>Node3&#45;&gt;Node22</title>
<path fill="none" stroke="midnightblue" d="M245.585,-496.685C249.148,-603.898 272.166,-1088.87 397,-1088.87 397,-1088.87 397,-1088.87 965,-1088.87 1100.64,-1088.87 1169.34,-882.621 1183.99,-832.669"/>
<polygon fill="midnightblue" stroke="midnightblue" points="249.078,-496.398 245.269,-486.512 242.081,-496.615 249.078,-496.398"/>
</g>
<!-- Node4 -->
<g id="node6" class="node"><title>Node4</title>
<a xlink:href="struct_urho3_d_1_1_ref_count.html" target="_top" xlink:title="Reference count structure.">
<polygon fill="none" stroke="black" points="0,-465.372 0,-486.372 102,-486.372 102,-465.372 0,-465.372"/>
<text text-anchor="middle" x="51" y="-473.372" font-family="FreeSans" font-size="10.00">Urho3D::RefCount</text>
</a>
</g>
<!-- Node4&#45;&gt;Node3 -->
<g id="edge6" class="edge"><title>Node4&#45;&gt;Node3</title>
<path fill="none" stroke="#9a32cd" stroke-dasharray="5,2" d="M112.327,-475.872C136.436,-475.872 163.96,-475.872 187.666,-475.872"/>
<polygon fill="#9a32cd" stroke="#9a32cd" points="112.225,-472.372 102.225,-475.872 112.225,-479.372 112.225,-472.372"/>
<text text-anchor="middle" x="145" y="-479.872" font-family="FreeSans" font-size="10.00"> refCount_</text>
</g>
<!-- Node5&#45;&gt;Node2 -->
<g id="edge8" class="edge"><title>Node5&#45;&gt;Node2</title>
<path fill="none" stroke="#9a32cd" stroke-dasharray="5,2" d="M930.013,-331.162C913.242,-337.697 892.765,-345.222 874,-350.872 815.467,-368.495 799.908,-369.717 740,-381.872 648.913,-400.353 623.148,-391.585 534,-417.872 491.389,-430.437 444.193,-452.3 417.808,-465.294"/>
<polygon fill="#9a32cd" stroke="#9a32cd" points="931.4,-334.377 939.417,-327.451 928.83,-327.866 931.4,-334.377"/>
<text text-anchor="middle" x="637" y="-421.872" font-family="FreeSans" font-size="10.00"> context_</text>
</g>
<!-- Node6 -->
<g id="node11" class="node"><title>Node6</title>
<a xlink:href="class_urho3_d_1_1_p_o_d_vector.html" target="_top" xlink:title="Urho3D::PODVector\&lt;\l Urho3D::Object * \&gt;">
<polygon fill="none" stroke="black" points="577.5,-660.872 577.5,-694.872 696.5,-694.872 696.5,-660.872 577.5,-660.872"/>
<text text-anchor="start" x="585.5" y="-681.872" font-family="FreeSans" font-size="10.00">Urho3D::PODVector&lt;</text>
<text text-anchor="middle" x="637" y="-668.872" font-family="FreeSans" font-size="10.00"> Urho3D::Object * &gt;</text>
</a>
</g>
<!-- Node6&#45;&gt;Node5 -->
<g id="edge12" class="edge"><title>Node6&#45;&gt;Node5</title>
<path fill="none" stroke="#9a32cd" stroke-dasharray="5,2" d="M706.29,-671.382C718.84,-667.358 730.833,-661.202 740,-651.872 764.631,-626.803 738.785,-604.299 758,-574.872 793.235,-520.912 832.082,-536.821 874,-487.872 879.906,-480.975 940.63,-363.979 959.462,-327.587"/>
<polygon fill="#9a32cd" stroke="#9a32cd" points="705.324,-668.018 696.622,-674.062 707.194,-674.764 705.324,-668.018"/>
<text text-anchor="middle" x="816" y="-578.872" font-family="FreeSans" font-size="10.00"> eventSenders_</text>
</g>
<!-- Node7 -->
<g id="node13" class="node"><title>Node7</title>
<a xlink:href="class_urho3_d_1_1_vector_base.html" target="_top" xlink:title="Vector base class.">
<polygon fill="none" stroke="black" points="340,-883.372 340,-904.372 454,-904.372 454,-883.372 340,-883.372"/>
<text text-anchor="middle" x="397" y="-891.372" font-family="FreeSans" font-size="10.00">Urho3D::VectorBase</text>
</a>
</g>
<!-- Node7&#45;&gt;Node6 -->
<g id="edge14" class="edge"><title>Node7&#45;&gt;Node6</title>
<path fill="none" stroke="midnightblue" d="M410.485,-874.846C433.171,-843.878 481.65,-782.002 534,-741.872 556.89,-724.325 584.779,-707.229 605.761,-695.128"/>
<polygon fill="midnightblue" stroke="midnightblue" points="407.567,-872.909 404.542,-883.063 413.238,-877.011 407.567,-872.909"/>
</g>
<!-- Node13 -->
<g id="node28" class="node"><title>Node13</title>
<a xlink:href="class_urho3_d_1_1_p_o_d_vector.html" target="_top" xlink:title="Urho3D::PODVector\&lt;\l Urho3D::HashMap * \&gt;">
<polygon fill="none" stroke="black" points="573.5,-750.872 573.5,-784.872 700.5,-784.872 700.5,-750.872 573.5,-750.872"/>
<text text-anchor="start" x="581.5" y="-771.872" font-family="FreeSans" font-size="10.00">Urho3D::PODVector&lt;</text>
<text text-anchor="middle" x="637" y="-758.872" font-family="FreeSans" font-size="10.00"> Urho3D::HashMap * &gt;</text>
</a>
</g>
<!-- Node7&#45;&gt;Node13 -->
<g id="edge34" class="edge"><title>Node7&#45;&gt;Node13</title>
<path fill="none" stroke="midnightblue" d="M416.149,-876.134C441.319,-853.753 487.779,-815.57 534,-793.872 546.271,-788.112 559.986,-783.516 573.304,-779.891"/>
<polygon fill="midnightblue" stroke="midnightblue" points="413.54,-873.774 408.46,-883.072 418.229,-878.971 413.54,-873.774"/>
</g>
<!-- Node18 -->
<g id="node43" class="node"><title>Node18</title>
<a xlink:href="class_urho3_d_1_1_vector.html" target="_top" xlink:title="Urho3D::Vector\&lt; Urho3D\l::SharedPtr\&lt; Urho3D::Package\lFile \&gt; \&gt;">
<polygon fill="none" stroke="black" points="555,-961.372 555,-1008.37 719,-1008.37 719,-961.372 555,-961.372"/>
<text text-anchor="start" x="563" y="-995.372" font-family="FreeSans" font-size="10.00">Urho3D::Vector&lt; Urho3D</text>
<text text-anchor="start" x="563" y="-982.372" font-family="FreeSans" font-size="10.00">::SharedPtr&lt; Urho3D::Package</text>
<text text-anchor="middle" x="637" y="-969.372" font-family="FreeSans" font-size="10.00">File &gt; &gt;</text>
</a>
</g>
<!-- Node7&#45;&gt;Node18 -->
<g id="edge54" class="edge"><title>Node7&#45;&gt;Node18</title>
<path fill="none" stroke="midnightblue" d="M429.67,-908.688C457.218,-920.943 497.825,-938.451 534,-951.872 542.626,-955.072 551.724,-958.257 560.796,-961.314"/>
<polygon fill="midnightblue" stroke="midnightblue" points="431.057,-905.474 420.499,-904.588 428.199,-911.865 431.057,-905.474"/>
</g>
<!-- Node19 -->
<g id="node46" class="node"><title>Node19</title>
<a xlink:href="class_urho3_d_1_1_vector.html" target="_top" xlink:title="Urho3D::Vector\&lt; Urho3D\l::SharedPtr\&lt; Urho3D::Resource\lRouter \&gt; \&gt;">
<polygon fill="none" stroke="black" points="553,-895.372 553,-942.372 721,-942.372 721,-895.372 553,-895.372"/>
<text text-anchor="start" x="561" y="-929.372" font-family="FreeSans" font-size="10.00">Urho3D::Vector&lt; Urho3D</text>
<text text-anchor="start" x="561" y="-916.372" font-family="FreeSans" font-size="10.00">::SharedPtr&lt; Urho3D::Resource</text>
<text text-anchor="middle" x="637" y="-903.372" font-family="FreeSans" font-size="10.00">Router &gt; &gt;</text>
</a>
</g>
<!-- Node7&#45;&gt;Node19 -->
<g id="edge58" class="edge"><title>Node7&#45;&gt;Node19</title>
<path fill="none" stroke="midnightblue" d="M464.473,-900.9C491.955,-903.763 524.015,-907.103 552.991,-910.121"/>
<polygon fill="midnightblue" stroke="midnightblue" points="464.49,-897.383 454.181,-899.828 463.765,-904.346 464.49,-897.383"/>
</g>
<!-- Node20 -->
<g id="node49" class="node"><title>Node20</title>
<a xlink:href="class_urho3_d_1_1_vector.html" target="_top" xlink:title="Urho3D::Vector\&lt; Urho3D\l::String \&gt;">
<polygon fill="none" stroke="black" points="568,-842.872 568,-876.872 706,-876.872 706,-842.872 568,-842.872"/>
<text text-anchor="start" x="576" y="-863.872" font-family="FreeSans" font-size="10.00">Urho3D::Vector&lt; Urho3D</text>
<text text-anchor="middle" x="637" y="-850.872" font-family="FreeSans" font-size="10.00">::String &gt;</text>
</a>
</g>
<!-- Node7&#45;&gt;Node20 -->
<g id="edge62" class="edge"><title>Node7&#45;&gt;Node20</title>
<path fill="none" stroke="midnightblue" d="M464.427,-884.32C496.72,-879.745 535.343,-874.273 567.855,-869.667"/>
<polygon fill="midnightblue" stroke="midnightblue" points="463.591,-880.903 454.181,-885.771 464.573,-887.834 463.591,-880.903"/>
</g>
<!-- Node25 -->
<g id="node64" class="node"><title>Node25</title>
<a xlink:href="class_urho3_d_1_1_vector.html" target="_top" xlink:title="Urho3D::Vector\&lt; Urho3D\l::SharedPtr\&lt; Urho3D::FileWatcher \&gt; \&gt;">
<polygon fill="none" stroke="black" points="537,-1026.87 537,-1060.87 737,-1060.87 737,-1026.87 537,-1026.87"/>
<text text-anchor="start" x="545" y="-1047.87" font-family="FreeSans" font-size="10.00">Urho3D::Vector&lt; Urho3D</text>
<text text-anchor="middle" x="637" y="-1034.87" font-family="FreeSans" font-size="10.00">::SharedPtr&lt; Urho3D::FileWatcher &gt; &gt;</text>
</a>
</g>
<!-- Node7&#45;&gt;Node25 -->
<g id="edge82" class="edge"><title>Node7&#45;&gt;Node25</title>
<path fill="none" stroke="midnightblue" d="M412.108,-912.396C435.388,-939.69 482.736,-990.433 534,-1017.87 540.341,-1021.27 547.141,-1024.23 554.113,-1026.81"/>
<polygon fill="midnightblue" stroke="midnightblue" points="414.786,-910.143 405.678,-904.73 409.423,-914.641 414.786,-910.143"/>
</g>
<!-- Node8&#45;&gt;Node5 -->
<g id="edge16" class="edge"><title>Node8&#45;&gt;Node5</title>
<path fill="none" stroke="#9a32cd" stroke-dasharray="5,2" d="M709.28,-444.041C768.197,-437.551 846.058,-426.597 874,-411.872 912.996,-391.322 944.915,-347.762 958.264,-327.567"/>
<polygon fill="#9a32cd" stroke="#9a32cd" points="708.825,-440.57 699.258,-445.123 709.576,-447.53 708.825,-440.57"/>
<text text-anchor="middle" x="816" y="-441.872" font-family="FreeSans" font-size="10.00"> eventHandler_</text>
</g>
<!-- Node16 -->
<g id="node37" class="node"><title>Node16</title>
<a xlink:href="class_urho3_d_1_1_linked_list.html" target="_top" xlink:title="Urho3D::LinkedList\l\&lt; Urho3D::EventHandler \&gt;">
<polygon fill="none" stroke="black" points="892,-466.872 892,-500.872 1038,-500.872 1038,-466.872 892,-466.872"/>
<text text-anchor="start" x="900" y="-487.872" font-family="FreeSans" font-size="10.00">Urho3D::LinkedList</text>
<text text-anchor="middle" x="965" y="-474.872" font-family="FreeSans" font-size="10.00">&lt; Urho3D::EventHandler &gt;</text>
</a>
</g>
<!-- Node8&#45;&gt;Node16 -->
<g id="edge46" class="edge"><title>Node8&#45;&gt;Node16</title>
<path fill="none" stroke="#9a32cd" stroke-dasharray="5,2" d="M709.551,-455.904C756.519,-459.431 818.958,-464.623 874,-470.872 879.709,-471.52 885.611,-472.243 891.54,-473.007"/>
<polygon fill="#9a32cd" stroke="#9a32cd" points="709.703,-452.406 699.472,-455.155 709.185,-459.387 709.703,-452.406"/>
<text text-anchor="middle" x="816" y="-474.872" font-family="FreeSans" font-size="10.00"> head_</text>
</g>
<!-- Node9 -->
<g id="node18" class="node"><title>Node9</title>
<a xlink:href="class_urho3_d_1_1_hash_map.html" target="_top" xlink:title="Urho3D::HashMap\&lt; Urho3D\l::StringHash, Urho3D::\lHashSet\&lt; Urho3D::Object * \&gt; \&gt;">
<polygon fill="none" stroke="black" points="550.5,-115.372 550.5,-162.372 723.5,-162.372 723.5,-115.372 550.5,-115.372"/>
<text text-anchor="start" x="558.5" y="-149.372" font-family="FreeSans" font-size="10.00">Urho3D::HashMap&lt; Urho3D</text>
<text text-anchor="start" x="558.5" y="-136.372" font-family="FreeSans" font-size="10.00">::StringHash, Urho3D::</text>
<text text-anchor="middle" x="637" y="-123.372" font-family="FreeSans" font-size="10.00">HashSet&lt; Urho3D::Object * &gt; &gt;</text>
</a>
</g>
<!-- Node9&#45;&gt;Node5 -->
<g id="edge20" class="edge"><title>Node9&#45;&gt;Node5</title>
<path fill="none" stroke="#9a32cd" stroke-dasharray="5,2" d="M733.536,-158.989C778.658,-171.315 831.642,-190.176 874,-217.872 911.711,-242.529 944.283,-286.277 958.031,-306.316"/>
<polygon fill="#9a32cd" stroke="#9a32cd" points="734.301,-155.571 723.737,-156.38 732.5,-162.335 734.301,-155.571"/>
<text text-anchor="middle" x="816" y="-221.872" font-family="FreeSans" font-size="10.00"> eventReceivers_</text>
</g>
<!-- Node10 -->
<g id="node20" class="node"><title>Node10</title>
<a xlink:href="class_urho3_d_1_1_hash_base.html" target="_top" xlink:title="Hash set/map base class.">
<polygon fill="none" stroke="red" points="343,-260.372 343,-281.372 451,-281.372 451,-260.372 343,-260.372"/>
<text text-anchor="middle" x="397" y="-268.372" font-family="FreeSans" font-size="10.00">Urho3D::HashBase</text>
</a>
</g>
<!-- Node10&#45;&gt;Node9 -->
<g id="edge22" class="edge"><title>Node10&#45;&gt;Node9</title>
<path fill="none" stroke="midnightblue" d="M416.798,-253.432C442.324,-231.716 488.821,-194.702 534,-171.872 540.704,-168.484 547.827,-165.35 555.075,-162.472"/>
<polygon fill="midnightblue" stroke="midnightblue" points="414.27,-250.99 408.978,-260.168 418.839,-256.294 414.27,-250.99"/>
</g>
<!-- Node11 -->
<g id="node22" class="node"><title>Node11</title>
<a xlink:href="class_urho3_d_1_1_hash_map.html" target="_top" xlink:title="Urho3D::HashMap\&lt; Urho3D\l::Object *, Urho3D::HashMap\l\&lt; Urho3D::StringHash, Urho3D\l::HashSet\&lt; Urho3D::Object * \&gt; \&gt; \&gt;">
<polygon fill="none" stroke="black" points="541.5,-312.872 541.5,-372.872 732.5,-372.872 732.5,-312.872 541.5,-312.872"/>
<text text-anchor="start" x="549.5" y="-359.872" font-family="FreeSans" font-size="10.00">Urho3D::HashMap&lt; Urho3D</text>
<text text-anchor="start" x="549.5" y="-346.872" font-family="FreeSans" font-size="10.00">::Object *, Urho3D::HashMap</text>
<text text-anchor="start" x="549.5" y="-333.872" font-family="FreeSans" font-size="10.00">&lt; Urho3D::StringHash, Urho3D</text>
<text text-anchor="middle" x="637" y="-320.872" font-family="FreeSans" font-size="10.00">::HashSet&lt; Urho3D::Object * &gt; &gt; &gt;</text>
</a>
</g>
<!-- Node10&#45;&gt;Node11 -->
<g id="edge26" class="edge"><title>Node10&#45;&gt;Node11</title>
<path fill="none" stroke="midnightblue" d="M442.029,-284.381C470.004,-292.773 507.048,-303.886 541.327,-314.17"/>
<polygon fill="midnightblue" stroke="midnightblue" points="442.739,-280.94 432.155,-281.418 440.728,-287.644 442.739,-280.94"/>
</g>
<!-- Node12 -->
<g id="node25" class="node"><title>Node12</title>
<a xlink:href="class_urho3_d_1_1_hash_map.html" target="_top" xlink:title="Urho3D::HashMap\&lt; Urho3D\l::StringHash, Urho3D::\lSharedPtr\&lt; Urho3D::Object \&gt; \&gt;">
<polygon fill="none" stroke="black" points="551,-247.372 551,-294.372 723,-294.372 723,-247.372 551,-247.372"/>
<text text-anchor="start" x="559" y="-281.372" font-family="FreeSans" font-size="10.00">Urho3D::HashMap&lt; Urho3D</text>
<text text-anchor="start" x="559" y="-268.372" font-family="FreeSans" font-size="10.00">::StringHash, Urho3D::</text>
<text text-anchor="middle" x="637" y="-255.372" font-family="FreeSans" font-size="10.00">SharedPtr&lt; Urho3D::Object &gt; &gt;</text>
</a>
</g>
<!-- Node10&#45;&gt;Node12 -->
<g id="edge30" class="edge"><title>Node10&#45;&gt;Node12</title>
<path fill="none" stroke="midnightblue" d="M461.396,-270.872C488.782,-270.872 521.128,-270.872 550.548,-270.872"/>
<polygon fill="midnightblue" stroke="midnightblue" points="461.16,-267.372 451.16,-270.872 461.16,-274.372 461.16,-267.372"/>
</g>
<!-- Node14 -->
<g id="node31" class="node"><title>Node14</title>
<a xlink:href="class_urho3_d_1_1_hash_map.html" target="_top" xlink:title="Urho3D::HashMap\&lt; Urho3D\l::StringHash, Urho3D::\lSharedPtr\&lt; Urho3D::ObjectFactory \&gt; \&gt;">
<polygon fill="none" stroke="black" points="534,-49.3719 534,-96.3719 740,-96.3719 740,-49.3719 534,-49.3719"/>
<text text-anchor="start" x="542" y="-83.3719" font-family="FreeSans" font-size="10.00">Urho3D::HashMap&lt; Urho3D</text>
<text text-anchor="start" x="542" y="-70.3719" font-family="FreeSans" font-size="10.00">::StringHash, Urho3D::</text>
<text text-anchor="middle" x="637" y="-57.3719" font-family="FreeSans" font-size="10.00">SharedPtr&lt; Urho3D::ObjectFactory &gt; &gt;</text>
</a>
</g>
<!-- Node10&#45;&gt;Node14 -->
<g id="edge38" class="edge"><title>Node10&#45;&gt;Node14</title>
<path fill="none" stroke="midnightblue" d="M408.137,-251.119C428.6,-216.588 475.498,-145.189 534,-105.872 539.221,-102.363 544.839,-99.2075 550.661,-96.3728"/>
<polygon fill="midnightblue" stroke="midnightblue" points="404.858,-249.795 402.864,-260.201 410.912,-253.31 404.858,-249.795"/>
</g>
<!-- Node15 -->
<g id="node34" class="node"><title>Node15</title>
<a xlink:href="class_urho3_d_1_1_hash_map.html" target="_top" xlink:title="Urho3D::HashMap\&lt; Urho3D\l::String, Urho3D::Vector\l\&lt; Urho3D::StringHash \&gt; \&gt;">
<polygon fill="none" stroke="black" points="561,-181.372 561,-228.372 713,-228.372 713,-181.372 561,-181.372"/>
<text text-anchor="start" x="569" y="-215.372" font-family="FreeSans" font-size="10.00">Urho3D::HashMap&lt; Urho3D</text>
<text text-anchor="start" x="569" y="-202.372" font-family="FreeSans" font-size="10.00">::String, Urho3D::Vector</text>
<text text-anchor="middle" x="637" y="-189.372" font-family="FreeSans" font-size="10.00">&lt; Urho3D::StringHash &gt; &gt;</text>
</a>
</g>
<!-- Node10&#45;&gt;Node15 -->
<g id="edge42" class="edge"><title>Node10&#45;&gt;Node15</title>
<path fill="none" stroke="midnightblue" d="M445.158,-257.629C478.194,-248.543 522.728,-236.297 560.572,-225.89"/>
<polygon fill="midnightblue" stroke="midnightblue" points="444.008,-254.315 435.294,-260.341 445.864,-261.064 444.008,-254.315"/>
</g>
<!-- Node17 -->
<g id="node40" class="node"><title>Node17</title>
<a xlink:href="class_urho3_d_1_1_hash_map.html" target="_top" xlink:title="Urho3D::HashMap\&lt; Urho3D\l::StringHash, Urho3D::\lHashSet\&lt; Urho3D::StringHash \&gt; \&gt;">
<polygon fill="none" stroke="black" points="543,-529.372 543,-576.372 731,-576.372 731,-529.372 543,-529.372"/>
<text text-anchor="start" x="551" y="-563.372" font-family="FreeSans" font-size="10.00">Urho3D::HashMap&lt; Urho3D</text>
<text text-anchor="start" x="551" y="-550.372" font-family="FreeSans" font-size="10.00">::StringHash, Urho3D::</text>
<text text-anchor="middle" x="637" y="-537.372" font-family="FreeSans" font-size="10.00">HashSet&lt; Urho3D::StringHash &gt; &gt;</text>
</a>
</g>
<!-- Node10&#45;&gt;Node17 -->
<g id="edge50" class="edge"><title>Node10&#45;&gt;Node17</title>
<path fill="none" stroke="midnightblue" d="M403.005,-291.2C418.228,-342.249 458.102,-472.846 472,-487.872 490.815,-508.214 516.794,-522.287 542.575,-531.984"/>
<polygon fill="midnightblue" stroke="midnightblue" points="406.352,-290.173 400.149,-281.584 399.641,-292.167 406.352,-290.173"/>
</g>
<!-- Node24 -->
<g id="node60" class="node"><title>Node24</title>
<a xlink:href="class_urho3_d_1_1_hash_map.html" target="_top" xlink:title="Urho3D::HashMap\&lt; Urho3D\l::StringHash, Urho3D::\lResourceGroup \&gt;">
<polygon fill="none" stroke="black" points="561,-595.372 561,-642.372 713,-642.372 713,-595.372 561,-595.372"/>
<text text-anchor="start" x="569" y="-629.372" font-family="FreeSans" font-size="10.00">Urho3D::HashMap&lt; Urho3D</text>
<text text-anchor="start" x="569" y="-616.372" font-family="FreeSans" font-size="10.00">::StringHash, Urho3D::</text>
<text text-anchor="middle" x="637" y="-603.372" font-family="FreeSans" font-size="10.00">ResourceGroup &gt;</text>
</a>
</g>
<!-- Node10&#45;&gt;Node24 -->
<g id="edge76" class="edge"><title>Node10&#45;&gt;Node24</title>
<path fill="none" stroke="midnightblue" d="M403.456,-291.435C414.139,-325.549 436.093,-396.022 454,-455.872 462.225,-483.361 457.97,-492.843 472,-517.872 491.998,-553.548 499.585,-563.775 534,-585.872 542.295,-591.198 551.52,-595.728 560.944,-599.563"/>
<polygon fill="midnightblue" stroke="midnightblue" points="406.734,-290.191 400.403,-281.696 400.054,-292.285 406.734,-290.191"/>
</g>
<!-- Node11&#45;&gt;Node5 -->
<g id="edge24" class="edge"><title>Node11&#45;&gt;Node5</title>
<path fill="none" stroke="#9a32cd" stroke-dasharray="5,2" d="M742.745,-334.49C801.009,-329.871 870.549,-324.359 916.136,-320.745"/>
<polygon fill="#9a32cd" stroke="#9a32cd" points="742.445,-331.002 732.753,-335.282 742.998,-337.98 742.445,-331.002"/>
<text text-anchor="middle" x="816" y="-337.872" font-family="FreeSans" font-size="10.00"> specificEventReceivers_</text>
</g>
<!-- Node12&#45;&gt;Node5 -->
<g id="edge28" class="edge"><title>Node12&#45;&gt;Node5</title>
<path fill="none" stroke="#9a32cd" stroke-dasharray="5,2" d="M733.09,-284.348C793.305,-292.793 868.354,-303.318 916.476,-310.067"/>
<polygon fill="#9a32cd" stroke="#9a32cd" points="733.567,-280.881 723.178,-282.958 732.595,-287.813 733.567,-280.881"/>
<text text-anchor="middle" x="816" y="-307.872" font-family="FreeSans" font-size="10.00"> subsystems_</text>
</g>
<!-- Node13&#45;&gt;Node5 -->
<g id="edge32" class="edge"><title>Node13&#45;&gt;Node5</title>
<path fill="none" stroke="#9a32cd" stroke-dasharray="5,2" d="M710.771,-760.296C772.231,-752.336 852.99,-737.483 874,-712.872 910.883,-669.666 876.623,-512.559 892,-457.872 906.699,-405.595 942.004,-350.278 957.497,-327.558"/>
<polygon fill="#9a32cd" stroke="#9a32cd" points="710.185,-756.842 700.699,-761.561 711.058,-763.787 710.185,-756.842"/>
<text text-anchor="middle" x="816" y="-756.872" font-family="FreeSans" font-size="10.00"> eventDataMaps_</text>
</g>
<!-- Node14&#45;&gt;Node5 -->
<g id="edge36" class="edge"><title>Node14&#45;&gt;Node5</title>
<path fill="none" stroke="#9a32cd" stroke-dasharray="5,2" d="M750.045,-91.6354C792.511,-103.136 838.939,-121.54 874,-150.872 926.432,-194.736 953.736,-276.907 962.132,-306.179"/>
<polygon fill="#9a32cd" stroke="#9a32cd" points="750.76,-88.2049 740.201,-89.0715 748.996,-94.9789 750.76,-88.2049"/>
<text text-anchor="middle" x="816" y="-154.872" font-family="FreeSans" font-size="10.00"> factories_</text>
</g>
<!-- Node15&#45;&gt;Node5 -->
<g id="edge40" class="edge"><title>Node15&#45;&gt;Node5</title>
<path fill="none" stroke="#9a32cd" stroke-dasharray="5,2" d="M722.98,-225.112C768.524,-236.845 825.019,-253.022 874,-271.872 899.824,-281.81 928.2,-296.484 946.285,-306.346"/>
<polygon fill="#9a32cd" stroke="#9a32cd" points="723.694,-221.682 713.139,-222.601 721.964,-228.464 723.694,-221.682"/>
<text text-anchor="middle" x="816" y="-275.872" font-family="FreeSans" font-size="10.00"> objectCategories_</text>
</g>
<!-- Node16&#45;&gt;Node2 -->
<g id="edge44" class="edge"><title>Node16&#45;&gt;Node2</title>
<path fill="none" stroke="#9a32cd" stroke-dasharray="5,2" d="M881.702,-486.566C783.621,-489.114 615.84,-491.522 472,-483.872 462.324,-483.357 451.975,-482.472 442.15,-481.473"/>
<polygon fill="#9a32cd" stroke="#9a32cd" points="881.946,-490.06 891.849,-486.295 881.759,-483.063 881.946,-490.06"/>
<text text-anchor="middle" x="637" y="-493.872" font-family="FreeSans" font-size="10.00"> eventHandlers_</text>
</g>
<!-- Node17&#45;&gt;Node1 -->
<g id="edge48" class="edge"><title>Node17&#45;&gt;Node1</title>
<path fill="none" stroke="#9a32cd" stroke-dasharray="5,2" d="M722.522,-579.47C789.372,-600.445 871.444,-626.685 874,-629.872 924.861,-693.277 841.542,-748.146 892,-811.872 896.906,-818.068 903.429,-822.737 910.561,-826.252"/>
<polygon fill="#9a32cd" stroke="#9a32cd" points="723.369,-576.068 712.78,-576.417 721.276,-582.747 723.369,-576.068"/>
<text text-anchor="middle" x="816" y="-633.872" font-family="FreeSans" font-size="10.00"> dependentResources_</text>
</g>
<!-- Node18&#45;&gt;Node1 -->
<g id="edge52" class="edge"><title>Node18&#45;&gt;Node1</title>
<path fill="none" stroke="#9a32cd" stroke-dasharray="5,2" d="M728.937,-965.476C774.282,-953.722 828.798,-936.218 874,-911.872 906.805,-894.203 938.96,-863.75 954.808,-847.62"/>
<polygon fill="#9a32cd" stroke="#9a32cd" points="727.942,-962.118 719.111,-967.971 729.665,-968.902 727.942,-962.118"/>
<text text-anchor="middle" x="816" y="-959.872" font-family="FreeSans" font-size="10.00"> packages_</text>
</g>
<!-- Node19&#45;&gt;Node1 -->
<g id="edge56" class="edge"><title>Node19&#45;&gt;Node1</title>
<path fill="none" stroke="#9a32cd" stroke-dasharray="5,2" d="M731.26,-901.211C774.967,-892.353 827.433,-880.767 874,-867.872 895.232,-861.992 918.763,-853.934 936.576,-847.507"/>
<polygon fill="#9a32cd" stroke="#9a32cd" points="730.326,-897.829 721.212,-903.231 731.706,-904.691 730.326,-897.829"/>
<text text-anchor="middle" x="816" y="-898.872" font-family="FreeSans" font-size="10.00"> resourceRouters_</text>
</g>
<!-- Node20&#45;&gt;Node1 -->
<g id="edge60" class="edge"><title>Node20&#45;&gt;Node1</title>
<path fill="none" stroke="#9a32cd" stroke-dasharray="5,2" d="M716.348,-854.308C772.084,-850.4 845.79,-845.231 898.456,-841.538"/>
<polygon fill="#9a32cd" stroke="#9a32cd" points="715.89,-850.831 706.16,-855.022 716.38,-857.814 715.89,-850.831"/>
<text text-anchor="middle" x="816" y="-854.872" font-family="FreeSans" font-size="10.00"> resourceDirs_</text>
</g>
<!-- Node21 -->
<g id="node52" class="node"><title>Node21</title>
<a xlink:href="class_urho3_d_1_1_shared_ptr.html" target="_top" xlink:title="Urho3D::SharedPtr\&lt;\l Urho3D::BackgroundLoader \&gt;">
<polygon fill="none" stroke="black" points="1320,-773.872 1320,-807.872 1484,-807.872 1484,-773.872 1320,-773.872"/>
<text text-anchor="start" x="1328" y="-794.872" font-family="FreeSans" font-size="10.00">Urho3D::SharedPtr&lt;</text>
<text text-anchor="middle" x="1402" y="-781.872" font-family="FreeSans" font-size="10.00"> Urho3D::BackgroundLoader &gt;</text>
</a>
</g>
<!-- Node21&#45;&gt;Node1 -->
<g id="edge64" class="edge"><title>Node21&#45;&gt;Node1</title>
<path fill="none" stroke="#9a32cd" stroke-dasharray="5,2" d="M1309.69,-780.445C1252.23,-776.357 1177.12,-775.396 1112,-788.872 1076.91,-796.134 1072.1,-809.874 1038,-820.872 1031.83,-822.863 1025.28,-824.687 1018.74,-826.332"/>
<polygon fill="#9a32cd" stroke="#9a32cd" points="1309.61,-783.949 1319.85,-781.213 1310.14,-776.969 1309.61,-783.949"/>
<text text-anchor="middle" x="1187" y="-792.872" font-family="FreeSans" font-size="10.00"> backgroundLoader_</text>
</g>
<!-- Node22&#45;&gt;Node21 -->
<g id="edge66" class="edge"><title>Node22&#45;&gt;Node21</title>
<path fill="none" stroke="#9a32cd" stroke-dasharray="5,2" d="M1270.14,-809.885C1286.46,-807.53 1303.58,-805.062 1319.88,-802.713"/>
<polygon fill="#9a32cd" stroke="#9a32cd" points="1269.49,-806.442 1260.09,-811.333 1270.49,-813.37 1269.49,-806.442"/>
<text text-anchor="middle" x="1291" y="-811.872" font-family="FreeSans" font-size="10.00"> ptr_</text>
</g>
<!-- Node23 -->
<g id="node58" class="node"><title>Node23</title>
<a xlink:href="class_urho3_d_1_1_mutex.html" target="_top" xlink:title="Operating system mutual exclusion primitive.">
<polygon fill="none" stroke="black" points="592.5,-803.372 592.5,-824.372 681.5,-824.372 681.5,-803.372 592.5,-803.372"/>
<text text-anchor="middle" x="637" y="-811.372" font-family="FreeSans" font-size="10.00">Urho3D::Mutex</text>
</a>
</g>
<!-- Node23&#45;&gt;Node1 -->
<g id="edge78" class="edge"><title>Node23&#45;&gt;Node1</title>
<path fill="none" stroke="#9a32cd" stroke-dasharray="5,2" d="M691.806,-815.563C739.888,-817.305 811.665,-820.533 874,-825.872 881.928,-826.551 890.23,-827.384 898.458,-828.286"/>
<polygon fill="#9a32cd" stroke="#9a32cd" points="691.735,-812.059 681.617,-815.203 691.488,-819.054 691.735,-812.059"/>
<text text-anchor="middle" x="816" y="-829.872" font-family="FreeSans" font-size="10.00"> resourceMutex_</text>
</g>
<!-- Node23&#45;&gt;Node22 -->
<g id="edge72" class="edge"><title>Node23&#45;&gt;Node22</title>
<path fill="none" stroke="#9a32cd" stroke-dasharray="5,2" d="M691.524,-809.579C768.719,-804.169 914.26,-796.425 1038,-803.872 1062.97,-805.375 1090.16,-808.282 1114.4,-811.328"/>
<polygon fill="#9a32cd" stroke="#9a32cd" points="691.273,-806.088 681.548,-810.292 691.772,-813.07 691.273,-806.088"/>
<text text-anchor="middle" x="965" y="-807.872" font-family="FreeSans" font-size="10.00"> backgroundLoadMutex_</text>
</g>
<!-- Node24&#45;&gt;Node1 -->
<g id="edge74" class="edge"><title>Node24&#45;&gt;Node1</title>
<path fill="none" stroke="#9a32cd" stroke-dasharray="5,2" d="M723.019,-636.839C782.342,-651.014 853.979,-672.282 874,-695.872 907.759,-735.65 858.494,-771.881 892,-811.872 897.248,-818.136 904.14,-822.834 911.594,-826.357"/>
<polygon fill="#9a32cd" stroke="#9a32cd" points="723.773,-633.421 713.237,-634.538 722.17,-640.235 723.773,-633.421"/>
<text text-anchor="middle" x="816" y="-699.872" font-family="FreeSans" font-size="10.00"> resourceGroups_</text>
</g>
<!-- Node25&#45;&gt;Node1 -->
<g id="edge80" class="edge"><title>Node25&#45;&gt;Node1</title>
<path fill="none" stroke="#9a32cd" stroke-dasharray="5,2" d="M747.105,-1028.12C789.953,-1017.81 837.431,-1000.82 874,-972.872 919.822,-937.854 950.194,-872.855 960.806,-847.443"/>
<polygon fill="#9a32cd" stroke="#9a32cd" points="746.141,-1024.75 737.184,-1030.41 747.715,-1031.57 746.141,-1024.75"/>
<text text-anchor="middle" x="816" y="-1028.87" font-family="FreeSans" font-size="10.00"> fileWatchers_</text>
</g>
</g>
</svg>
        <g id="navigator" transform="translate(0 0)" fill="#404254">
                <rect fill="#f2f5e9" fill-opacity="0.5" stroke="#606060" stroke-width=".5" x="0" y="0" width="60" height="60"/>
                <use id="zoomplus" xlink:href="#zoomPlus" x="17" y="9" onmousedown="handleZoom(evt,'in')"/>
                <use id="zoomminus" xlink:href="#zoomMin" x="42" y="9" onmousedown="handleZoom(evt,'out')"/>
                <use id="reset" xlink:href="#resetDef" x="30" y="36" onmousedown="handleReset()"/>
                <g id="arrowUp" xlink:href="#dirArrow" transform="translate(30 24)" onmousedown="handlePan(0,-1)">
                  <use xlink:href="#rim" fill="#404040">
                        <set attributeName="fill" to="#808080" begin="arrowUp.mouseover" end="arrowUp.mouseout"/>
                  </use>
                  <path fill="none" stroke="white" stroke-width="1.5" d="M0,-3.0v7 M-2.5,-0.5L0,-3.0L2.5,-0.5"/>
                </g>
                <g id="arrowRight" xlink:href="#dirArrow" transform="rotate(90) translate(36 -43)" onmousedown="handlePan(1,0)">
                  <use xlink:href="#rim" fill="#404040">
                        <set attributeName="fill" to="#808080" begin="arrowRight.mouseover" end="arrowRight.mouseout"/>
                  </use>
                  <path fill="none" stroke="white" stroke-width="1.5" d="M0,-3.0v7 M-2.5,-0.5L0,-3.0L2.5,-0.5"/>
                </g>
                <g id="arrowDown" xlink:href="#dirArrow" transform="rotate(180) translate(-30 -48)" onmousedown="handlePan(0,1)">
                  <use xlink:href="#rim" fill="#404040">
                        <set attributeName="fill" to="#808080" begin="arrowDown.mouseover" end="arrowDown.mouseout"/>
                  </use>
                  <path fill="none" stroke="white" stroke-width="1.5" d="M0,-3.0v7 M-2.5,-0.5L0,-3.0L2.5,-0.5"/>
                </g>
                <g id="arrowLeft" xlink:href="#dirArrow" transform="rotate(270) translate(-36 17)" onmousedown="handlePan(-1,0)">
                  <use xlink:href="#rim" fill="#404040">
                        <set attributeName="fill" to="#808080" begin="arrowLeft.mouseover" end="arrowLeft.mouseout"/>
                  </use>
                  <path fill="none" stroke="white" stroke-width="1.5" d="M0,-3.0v7 M-2.5,-0.5L0,-3.0L2.5,-0.5"/>
                </g>
        </g>
        <svg viewBox="0 0 15 15" width="100%" height="30px" preserveAspectRatio="xMaxYMin meet">
         <g id="arrow_out" transform="scale(0.3 0.3)">
          <a xlink:href="class_urho3_d_1_1_resource_cache__coll__graph_org.svg" target="_base">
           <rect id="button" ry="5" rx="5" y="6" x="6" height="38" width="38"
                fill="#f2f5e9" fill-opacity="0.5" stroke="#606060" stroke-width="1.0"/>
           <path id="arrow"
             d="M 11.500037,31.436501 C 11.940474,20.09759 22.043105,11.32322 32.158766,21.979434 L 37.068811,17.246167 C 37.068811,17.246167 37.088388,32 37.088388,32 L 22.160133,31.978069 C 22.160133,31.978069 26.997745,27.140456 26.997745,27.140456 C 18.528582,18.264221 13.291696,25.230495 11.500037,31.436501 z"
             style="fill:#404040;"/>
          </a>
         </g>
        </svg>
</svg>
