<?xml version="1.0" encoding="UTF-8" standalone="no"?>
<!DOCTYPE svg PUBLIC "-//W3C//DTD SVG 1.1//EN"
 "http://www.w3.org/Graphics/SVG/1.1/DTD/svg11.dtd">
<!-- Generated by graphviz version 2.26.3 (20100126.1600)
 -->
<!-- Title: rapidjson::GenericValue::AddMember Pages: 1 -->
<svg width="594pt" height="770pt"
 viewBox="0.00 0.00 594.00 770.00" xmlns="http://www.w3.org/2000/svg" xmlns:xlink="http://www.w3.org/1999/xlink">
<g id="graph1" class="graph" transform="scale(1 1) rotate(0) translate(4 766)">
<title>rapidjson::GenericValue::AddMember</title>
<!-- Node1 -->
<g id="node1" class="node"><title>Node1</title>
<polygon fill="#bfbfbf" stroke="black" points="0.5,-260 0.5,-294 129.5,-294 129.5,-260 0.5,-260"/>
<text text-anchor="start" x="8.5" y="-281" font-family="FreeSans" font-size="10.00">rapidjson::GenericValue</text>
<text text-anchor="middle" x="65" y="-268" font-family="FreeSans" font-size="10.00">::AddMember</text>
</g>
<!-- Node2 -->
<g id="node3" class="node"><title>Node2</title>
<a xlink:href="class_urho3_d_1_1_j_s_o_n_value.html#ac448c32a7fa9c8f3ef0dea3ba828f69b" target="_top" xlink:title="Set JSON value for object type.">
<polygon fill="none" stroke="black" points="166,-260 166,-294 282,-294 282,-260 166,-260"/>
<text text-anchor="start" x="174" y="-281" font-family="FreeSans" font-size="10.00">Urho3D::JSONValue::</text>
<text text-anchor="middle" x="224" y="-268" font-family="FreeSans" font-size="10.00">AddMember</text>
</a>
</g>
<!-- Node1&#45;&gt;Node2 -->
<g id="edge2" class="edge"><title>Node1&#45;&gt;Node2</title>
<path fill="none" stroke="midnightblue" d="M139.84,-277C148.552,-277 157.34,-277 165.782,-277"/>
<polygon fill="midnightblue" stroke="midnightblue" points="139.671,-273.5 129.671,-277 139.671,-280.5 139.671,-273.5"/>
</g>
<!-- Node3 -->
<g id="node5" class="node"><title>Node3</title>
<a xlink:href="class_urho3_d_1_1_j_s_o_n_value.html#a35617f7fb889e765396a94c273e1429b" target="_top" xlink:title="Create a child value.">
<polygon fill="none" stroke="black" points="318,-676 318,-710 434,-710 434,-676 318,-676"/>
<text text-anchor="start" x="326" y="-697" font-family="FreeSans" font-size="10.00">Urho3D::JSONValue::</text>
<text text-anchor="middle" x="376" y="-684" font-family="FreeSans" font-size="10.00">CreateChild</text>
</a>
</g>
<!-- Node2&#45;&gt;Node3 -->
<g id="edge4" class="edge"><title>Node2&#45;&gt;Node3</title>
<path fill="none" stroke="midnightblue" d="M233.762,-303.718C262.434,-382.189 345.868,-610.533 369.622,-675.544"/>
<polygon fill="midnightblue" stroke="midnightblue" points="236.961,-302.275 230.242,-294.083 230.387,-304.677 236.961,-302.275"/>
</g>
<!-- Node6 -->
<g id="node11" class="node"><title>Node6</title>
<a xlink:href="class_urho3_d_1_1_j_s_o_n_value.html#a0d063f1c473c21818ffd0fab0b7a3c58" target="_top" xlink:title="Set int.">
<polygon fill="none" stroke="black" points="318,-416 318,-450 434,-450 434,-416 318,-416"/>
<text text-anchor="start" x="326" y="-437" font-family="FreeSans" font-size="10.00">Urho3D::JSONValue::</text>
<text text-anchor="middle" x="376" y="-424" font-family="FreeSans" font-size="10.00">SetInt</text>
</a>
</g>
<!-- Node2&#45;&gt;Node6 -->
<g id="edge10" class="edge"><title>Node2&#45;&gt;Node6</title>
<path fill="none" stroke="midnightblue" d="M237.587,-303.443C253.501,-332.201 282.289,-377.939 318,-407 322.023,-410.274 326.523,-413.222 331.191,-415.853"/>
<polygon fill="midnightblue" stroke="midnightblue" points="240.527,-301.521 232.692,-294.389 234.369,-304.851 240.527,-301.521"/>
</g>
<!-- Node7 -->
<g id="node13" class="node"><title>Node7</title>
<a xlink:href="class_urho3_d_1_1_j_s_o_n_value.html#a00d2af82b45c6a229e12d4662795a600" target="_top" xlink:title="Set bool.">
<polygon fill="none" stroke="black" points="318,-364 318,-398 434,-398 434,-364 318,-364"/>
<text text-anchor="start" x="326" y="-385" font-family="FreeSans" font-size="10.00">Urho3D::JSONValue::</text>
<text text-anchor="middle" x="376" y="-372" font-family="FreeSans" font-size="10.00">SetBool</text>
</a>
</g>
<!-- Node2&#45;&gt;Node7 -->
<g id="edge12" class="edge"><title>Node2&#45;&gt;Node7</title>
<path fill="none" stroke="midnightblue" d="M249.376,-301.309C267.509,-317.838 293.024,-339.445 318,-355 323.058,-358.15 328.563,-361.128 334.101,-363.867"/>
<polygon fill="midnightblue" stroke="midnightblue" points="251.31,-298.331 241.592,-294.112 246.558,-303.471 251.31,-298.331"/>
</g>
<!-- Node8 -->
<g id="node15" class="node"><title>Node8</title>
<a xlink:href="class_urho3_d_1_1_j_s_o_n_value.html#a907873dc911a952d409b2ed65aae4662" target="_top" xlink:title="Set float.">
<polygon fill="none" stroke="black" points="318,-312 318,-346 434,-346 434,-312 318,-312"/>
<text text-anchor="start" x="326" y="-333" font-family="FreeSans" font-size="10.00">Urho3D::JSONValue::</text>
<text text-anchor="middle" x="376" y="-320" font-family="FreeSans" font-size="10.00">SetFloat</text>
</a>
</g>
<!-- Node2&#45;&gt;Node8 -->
<g id="edge14" class="edge"><title>Node2&#45;&gt;Node8</title>
<path fill="none" stroke="midnightblue" d="M283.399,-297.321C297.528,-302.154 312.463,-307.264 326.118,-311.935"/>
<polygon fill="midnightblue" stroke="midnightblue" points="284.365,-293.952 273.77,-294.027 282.099,-300.575 284.365,-293.952"/>
</g>
<!-- Node9 -->
<g id="node17" class="node"><title>Node9</title>
<a xlink:href="class_urho3_d_1_1_j_s_o_n_value.html#a66e27e05c0bb44af7b95e74d132ec8b3" target="_top" xlink:title="Set double.">
<polygon fill="none" stroke="black" points="318,-260 318,-294 434,-294 434,-260 318,-260"/>
<text text-anchor="start" x="326" y="-281" font-family="FreeSans" font-size="10.00">Urho3D::JSONValue::</text>
<text text-anchor="middle" x="376" y="-268" font-family="FreeSans" font-size="10.00">SetDouble</text>
</a>
</g>
<!-- Node2&#45;&gt;Node9 -->
<g id="edge16" class="edge"><title>Node2&#45;&gt;Node9</title>
<path fill="none" stroke="midnightblue" d="M292.542,-277C300.986,-277 309.554,-277 317.824,-277"/>
<polygon fill="midnightblue" stroke="midnightblue" points="292.332,-273.5 282.332,-277 292.332,-280.5 292.332,-273.5"/>
</g>
<!-- Node10 -->
<g id="node19" class="node"><title>Node10</title>
<a xlink:href="class_urho3_d_1_1_j_s_o_n_value.html#a87bafa3b68d5257b003c7b41c2f90ddc" target="_top" xlink:title="Set string.">
<polygon fill="none" stroke="red" points="318,-468 318,-502 434,-502 434,-468 318,-468"/>
<text text-anchor="start" x="326" y="-489" font-family="FreeSans" font-size="10.00">Urho3D::JSONValue::</text>
<text text-anchor="middle" x="376" y="-476" font-family="FreeSans" font-size="10.00">SetString</text>
</a>
</g>
<!-- Node2&#45;&gt;Node10 -->
<g id="edge18" class="edge"><title>Node2&#45;&gt;Node10</title>
<path fill="none" stroke="midnightblue" d="M231.563,-303.718C243.803,-342.595 271.403,-414.912 318,-459 321.527,-462.337 325.555,-465.295 329.807,-467.906"/>
<polygon fill="midnightblue" stroke="midnightblue" points="234.908,-302.688 228.647,-294.141 228.211,-304.727 234.908,-302.688"/>
</g>
<!-- Node21 -->
<g id="node43" class="node"><title>Node21</title>
<a xlink:href="class_urho3_d_1_1_j_s_o_n_value.html#a36eab39ab30881d46729a798da7a6e25" target="_top" xlink:title="Add int.">
<polygon fill="none" stroke="black" points="318,-208 318,-242 434,-242 434,-208 318,-208"/>
<text text-anchor="start" x="326" y="-229" font-family="FreeSans" font-size="10.00">Urho3D::JSONValue::</text>
<text text-anchor="middle" x="376" y="-216" font-family="FreeSans" font-size="10.00">AddInt</text>
</a>
</g>
<!-- Node2&#45;&gt;Node21 -->
<g id="edge44" class="edge"><title>Node2&#45;&gt;Node21</title>
<path fill="none" stroke="midnightblue" d="M283.399,-256.679C297.528,-251.846 312.463,-246.736 326.118,-242.065"/>
<polygon fill="midnightblue" stroke="midnightblue" points="282.099,-253.425 273.77,-259.973 284.365,-260.048 282.099,-253.425"/>
</g>
<!-- Node22 -->
<g id="node45" class="node"><title>Node22</title>
<a xlink:href="class_urho3_d_1_1_j_s_o_n_value.html#ae8d748f79780f4497d172ba60d43ef37" target="_top" xlink:title="Add bool.">
<polygon fill="none" stroke="black" points="318,-156 318,-190 434,-190 434,-156 318,-156"/>
<text text-anchor="start" x="326" y="-177" font-family="FreeSans" font-size="10.00">Urho3D::JSONValue::</text>
<text text-anchor="middle" x="376" y="-164" font-family="FreeSans" font-size="10.00">AddBool</text>
</a>
</g>
<!-- Node2&#45;&gt;Node22 -->
<g id="edge46" class="edge"><title>Node2&#45;&gt;Node22</title>
<path fill="none" stroke="midnightblue" d="M249.376,-252.691C267.509,-236.162 293.024,-214.555 318,-199 323.058,-195.85 328.563,-192.872 334.101,-190.133"/>
<polygon fill="midnightblue" stroke="midnightblue" points="246.558,-250.529 241.592,-259.888 251.31,-255.669 246.558,-250.529"/>
</g>
<!-- Node23 -->
<g id="node47" class="node"><title>Node23</title>
<a xlink:href="class_urho3_d_1_1_j_s_o_n_value.html#a56f3815788ef4c93ff1dfa1ab3562f37" target="_top" xlink:title="Add float.">
<polygon fill="none" stroke="black" points="318,-104 318,-138 434,-138 434,-104 318,-104"/>
<text text-anchor="start" x="326" y="-125" font-family="FreeSans" font-size="10.00">Urho3D::JSONValue::</text>
<text text-anchor="middle" x="376" y="-112" font-family="FreeSans" font-size="10.00">AddFloat</text>
</a>
</g>
<!-- Node2&#45;&gt;Node23 -->
<g id="edge48" class="edge"><title>Node2&#45;&gt;Node23</title>
<path fill="none" stroke="midnightblue" d="M237.587,-250.557C253.501,-221.799 282.289,-176.061 318,-147 322.023,-143.726 326.523,-140.778 331.191,-138.147"/>
<polygon fill="midnightblue" stroke="midnightblue" points="234.369,-249.149 232.692,-259.611 240.527,-252.479 234.369,-249.149"/>
</g>
<!-- Node24 -->
<g id="node49" class="node"><title>Node24</title>
<a xlink:href="class_urho3_d_1_1_j_s_o_n_value.html#a0d3029f225cb8aa1c3a52e369cb5d0e9" target="_top" xlink:title="Add double.">
<polygon fill="none" stroke="black" points="318,-52 318,-86 434,-86 434,-52 318,-52"/>
<text text-anchor="start" x="326" y="-73" font-family="FreeSans" font-size="10.00">Urho3D::JSONValue::</text>
<text text-anchor="middle" x="376" y="-60" font-family="FreeSans" font-size="10.00">AddDouble</text>
</a>
</g>
<!-- Node2&#45;&gt;Node24 -->
<g id="edge50" class="edge"><title>Node2&#45;&gt;Node24</title>
<path fill="none" stroke="midnightblue" d="M231.563,-250.282C243.803,-211.405 271.403,-139.088 318,-95 321.527,-91.663 325.555,-88.7051 329.807,-86.0944"/>
<polygon fill="midnightblue" stroke="midnightblue" points="228.211,-249.273 228.647,-259.859 234.908,-251.312 228.211,-249.273"/>
</g>
<!-- Node25 -->
<g id="node51" class="node"><title>Node25</title>
<a xlink:href="class_urho3_d_1_1_j_s_o_n_value.html#ae1cfbf542453075e3d0db1058cf3f70e" target="_top" xlink:title="Add string.">
<polygon fill="none" stroke="red" points="318,-0 318,-34 434,-34 434,-0 318,-0"/>
<text text-anchor="start" x="326" y="-21" font-family="FreeSans" font-size="10.00">Urho3D::JSONValue::</text>
<text text-anchor="middle" x="376" y="-8" font-family="FreeSans" font-size="10.00">AddString</text>
</a>
</g>
<!-- Node2&#45;&gt;Node25 -->
<g id="edge52" class="edge"><title>Node2&#45;&gt;Node25</title>
<path fill="none" stroke="midnightblue" d="M228.073,-250.059C236.583,-202.457 260.457,-102.859 318,-43 321.212,-39.6588 324.931,-36.7141 328.905,-34.1258"/>
<polygon fill="midnightblue" stroke="midnightblue" points="224.621,-249.483 226.398,-259.928 231.522,-250.654 224.621,-249.483"/>
</g>
<!-- Node4 -->
<g id="node7" class="node"><title>Node4</title>
<a xlink:href="class_urho3_d_1_1_j_s_o_n_value.html#a8fb1a5e60adb25e2d72b5629f33645e4" target="_top" xlink:title="Set variant (include type).">
<polygon fill="none" stroke="black" points="470,-728 470,-762 586,-762 586,-728 470,-728"/>
<text text-anchor="start" x="478" y="-749" font-family="FreeSans" font-size="10.00">Urho3D::JSONValue::</text>
<text text-anchor="middle" x="528" y="-736" font-family="FreeSans" font-size="10.00">SetVariant</text>
</a>
</g>
<!-- Node3&#45;&gt;Node4 -->
<g id="edge6" class="edge"><title>Node3&#45;&gt;Node4</title>
<path fill="none" stroke="midnightblue" d="M435.399,-713.321C449.528,-718.154 464.463,-723.264 478.118,-727.935"/>
<polygon fill="midnightblue" stroke="midnightblue" points="436.365,-709.952 425.77,-710.027 434.099,-716.575 436.365,-709.952"/>
</g>
<!-- Node5 -->
<g id="node9" class="node"><title>Node5</title>
<a xlink:href="class_urho3_d_1_1_j_s_o_n_value.html#a35d49592799512e0ca875e8470b0fc4f" target="_top" xlink:title="Add variant.">
<polygon fill="none" stroke="black" points="470,-676 470,-710 586,-710 586,-676 470,-676"/>
<text text-anchor="start" x="478" y="-697" font-family="FreeSans" font-size="10.00">Urho3D::JSONValue::</text>
<text text-anchor="middle" x="528" y="-684" font-family="FreeSans" font-size="10.00">AddVariant</text>
</a>
</g>
<!-- Node3&#45;&gt;Node5 -->
<g id="edge8" class="edge"><title>Node3&#45;&gt;Node5</title>
<path fill="none" stroke="midnightblue" d="M444.542,-693C452.986,-693 461.554,-693 469.824,-693"/>
<polygon fill="midnightblue" stroke="midnightblue" points="444.332,-689.5 434.332,-693 444.332,-696.5 444.332,-689.5"/>
</g>
<!-- Node10&#45;&gt;Node4 -->
<g id="edge40" class="edge"><title>Node10&#45;&gt;Node4</title>
<path fill="none" stroke="midnightblue" d="M383.962,-511.758C400.634,-566.329 440.142,-687.941 470,-719 473.212,-722.341 476.931,-725.286 480.905,-727.874"/>
<polygon fill="midnightblue" stroke="midnightblue" points="387.28,-510.64 381.032,-502.084 380.581,-512.669 387.28,-510.64"/>
</g>
<!-- Node10&#45;&gt;Node5 -->
<g id="edge42" class="edge"><title>Node10&#45;&gt;Node5</title>
<path fill="none" stroke="midnightblue" d="M383.563,-511.718C395.803,-550.595 423.403,-622.912 470,-667 473.527,-670.337 477.555,-673.295 481.807,-675.906"/>
<polygon fill="midnightblue" stroke="midnightblue" points="386.908,-510.688 380.647,-502.141 380.211,-512.727 386.908,-510.688"/>
</g>
<!-- Node11 -->
<g id="node21" class="node"><title>Node11</title>
<a xlink:href="class_urho3_d_1_1_j_s_o_n_value.html#a8e29e8beac2590020ee29ada4b884539" target="_top" xlink:title="Set vector2.">
<polygon fill="none" stroke="black" points="470,-312 470,-346 586,-346 586,-312 470,-312"/>
<text text-anchor="start" x="478" y="-333" font-family="FreeSans" font-size="10.00">Urho3D::JSONValue::</text>
<text text-anchor="middle" x="528" y="-320" font-family="FreeSans" font-size="10.00">SetVector2</text>
</a>
</g>
<!-- Node10&#45;&gt;Node11 -->
<g id="edge20" class="edge"><title>Node10&#45;&gt;Node11</title>
<path fill="none" stroke="midnightblue" d="M431.617,-461.428C432.441,-460.643 433.236,-459.834 434,-459 467.029,-422.922 436.971,-391.078 470,-355 473.055,-351.663 476.619,-348.728 480.451,-346.152"/>
<polygon fill="midnightblue" stroke="midnightblue" points="429.194,-458.883 423.549,-467.848 433.553,-464.36 429.194,-458.883"/>
</g>
<!-- Node12 -->
<g id="node23" class="node"><title>Node12</title>
<a xlink:href="class_urho3_d_1_1_j_s_o_n_value.html#acc1719aba3368ce56f75d847b40e7196" target="_top" xlink:title="Set vector3.">
<polygon fill="none" stroke="black" points="470,-260 470,-294 586,-294 586,-260 470,-260"/>
<text text-anchor="start" x="478" y="-281" font-family="FreeSans" font-size="10.00">Urho3D::JSONValue::</text>
<text text-anchor="middle" x="528" y="-268" font-family="FreeSans" font-size="10.00">SetVector3</text>
</a>
</g>
<!-- Node10&#45;&gt;Node12 -->
<g id="edge22" class="edge"><title>Node10&#45;&gt;Node12</title>
<path fill="none" stroke="midnightblue" d="M431.8,-461.477C432.565,-460.678 433.299,-459.852 434,-459 479.188,-404.035 424.812,-357.965 470,-303 472.803,-299.59 476.146,-296.612 479.792,-294.012"/>
<polygon fill="midnightblue" stroke="midnightblue" points="429.52,-458.821 424.208,-467.988 434.077,-464.135 429.52,-458.821"/>
</g>
<!-- Node13 -->
<g id="node25" class="node"><title>Node13</title>
<a xlink:href="class_urho3_d_1_1_j_s_o_n_value.html#ac8c3c9e4dedde3b9fe9013088fc07d08" target="_top" xlink:title="Set vector4.">
<polygon fill="none" stroke="black" points="470,-208 470,-242 586,-242 586,-208 470,-208"/>
<text text-anchor="start" x="478" y="-229" font-family="FreeSans" font-size="10.00">Urho3D::JSONValue::</text>
<text text-anchor="middle" x="528" y="-216" font-family="FreeSans" font-size="10.00">SetVector4</text>
</a>
</g>
<!-- Node10&#45;&gt;Node13 -->
<g id="edge24" class="edge"><title>Node10&#45;&gt;Node13</title>
<path fill="none" stroke="midnightblue" d="M432.192,-461.169C432.819,-460.466 433.423,-459.743 434,-459 491.55,-384.906 412.45,-325.094 470,-251 472.64,-247.601 475.822,-244.635 479.319,-242.047"/>
<polygon fill="midnightblue" stroke="midnightblue" points="429.757,-458.653 424.681,-467.953 434.448,-463.847 429.757,-458.653"/>
</g>
<!-- Node14 -->
<g id="node27" class="node"><title>Node14</title>
<a xlink:href="class_urho3_d_1_1_j_s_o_n_value.html#abc35fcdea1ece4b1917d22029f1e3bf3" target="_top" xlink:title="Set vector variant.">
<polygon fill="none" stroke="black" points="470,-156 470,-190 586,-190 586,-156 470,-156"/>
<text text-anchor="start" x="478" y="-177" font-family="FreeSans" font-size="10.00">Urho3D::JSONValue::</text>
<text text-anchor="middle" x="528" y="-164" font-family="FreeSans" font-size="10.00">SetVectorVariant</text>
</a>
</g>
<!-- Node10&#45;&gt;Node14 -->
<g id="edge26" class="edge"><title>Node10&#45;&gt;Node14</title>
<path fill="none" stroke="midnightblue" d="M432.53,-460.843C433.038,-460.243 433.528,-459.629 434,-459 503.993,-365.672 400.007,-292.328 470,-199 472.516,-195.645 475.563,-192.714 478.928,-190.153"/>
<polygon fill="midnightblue" stroke="midnightblue" points="429.966,-458.45 425.072,-467.847 434.758,-463.552 429.966,-458.45"/>
</g>
<!-- Node15 -->
<g id="node29" class="node"><title>Node15</title>
<a xlink:href="class_urho3_d_1_1_j_s_o_n_value.html#a6ff0002d670f7c919cd07265893df20b" target="_top" xlink:title="Set quaternion.">
<polygon fill="none" stroke="black" points="470,-624 470,-658 586,-658 586,-624 470,-624"/>
<text text-anchor="start" x="478" y="-645" font-family="FreeSans" font-size="10.00">Urho3D::JSONValue::</text>
<text text-anchor="middle" x="528" y="-632" font-family="FreeSans" font-size="10.00">SetQuaternion</text>
</a>
</g>
<!-- Node10&#45;&gt;Node15 -->
<g id="edge28" class="edge"><title>Node10&#45;&gt;Node15</title>
<path fill="none" stroke="midnightblue" d="M389.587,-511.443C405.501,-540.201 434.289,-585.939 470,-615 474.023,-618.274 478.523,-621.222 483.191,-623.853"/>
<polygon fill="midnightblue" stroke="midnightblue" points="392.527,-509.521 384.692,-502.389 386.369,-512.851 392.527,-509.521"/>
</g>
<!-- Node16 -->
<g id="node31" class="node"><title>Node16</title>
<a xlink:href="class_urho3_d_1_1_j_s_o_n_value.html#a1df4413f17c785ab0db275ffd0fd5dac" target="_top" xlink:title="Set color.">
<polygon fill="none" stroke="black" points="470,-572 470,-606 586,-606 586,-572 470,-572"/>
<text text-anchor="start" x="478" y="-593" font-family="FreeSans" font-size="10.00">Urho3D::JSONValue::</text>
<text text-anchor="middle" x="528" y="-580" font-family="FreeSans" font-size="10.00">SetColor</text>
</a>
</g>
<!-- Node10&#45;&gt;Node16 -->
<g id="edge30" class="edge"><title>Node10&#45;&gt;Node16</title>
<path fill="none" stroke="midnightblue" d="M401.376,-509.309C419.509,-525.838 445.024,-547.445 470,-563 475.058,-566.15 480.563,-569.128 486.101,-571.867"/>
<polygon fill="midnightblue" stroke="midnightblue" points="403.31,-506.331 393.592,-502.112 398.558,-511.471 403.31,-506.331"/>
</g>
<!-- Node17 -->
<g id="node33" class="node"><title>Node17</title>
<a xlink:href="class_urho3_d_1_1_j_s_o_n_value.html#abd0bf6b86d69ab6615d1824c07db9315" target="_top" xlink:title="Set buffer.">
<polygon fill="none" stroke="red" points="470,-520 470,-554 586,-554 586,-520 470,-520"/>
<text text-anchor="start" x="478" y="-541" font-family="FreeSans" font-size="10.00">Urho3D::JSONValue::</text>
<text text-anchor="middle" x="528" y="-528" font-family="FreeSans" font-size="10.00">SetBuffer</text>
</a>
</g>
<!-- Node10&#45;&gt;Node17 -->
<g id="edge32" class="edge"><title>Node10&#45;&gt;Node17</title>
<path fill="none" stroke="midnightblue" d="M435.399,-505.321C449.528,-510.154 464.463,-515.264 478.118,-519.935"/>
<polygon fill="midnightblue" stroke="midnightblue" points="436.365,-501.952 425.77,-502.027 434.099,-508.575 436.365,-501.952"/>
</g>
<!-- Node18 -->
<g id="node35" class="node"><title>Node18</title>
<a xlink:href="class_urho3_d_1_1_j_s_o_n_value.html#a8b50ef062d45a0499660830685d106c1" target="_top" xlink:title="Set resource ref.">
<polygon fill="none" stroke="red" points="470,-468 470,-502 586,-502 586,-468 470,-468"/>
<text text-anchor="start" x="478" y="-489" font-family="FreeSans" font-size="10.00">Urho3D::JSONValue::</text>
<text text-anchor="middle" x="528" y="-476" font-family="FreeSans" font-size="10.00">SetResourceRef</text>
</a>
</g>
<!-- Node10&#45;&gt;Node18 -->
<g id="edge34" class="edge"><title>Node10&#45;&gt;Node18</title>
<path fill="none" stroke="midnightblue" d="M444.542,-485C452.986,-485 461.554,-485 469.824,-485"/>
<polygon fill="midnightblue" stroke="midnightblue" points="444.332,-481.5 434.332,-485 444.332,-488.5 444.332,-481.5"/>
</g>
<!-- Node19 -->
<g id="node37" class="node"><title>Node19</title>
<a xlink:href="class_urho3_d_1_1_j_s_o_n_value.html#a155bc431979da99ab04bdf6e2f22218f" target="_top" xlink:title="Set resource ref list.">
<polygon fill="none" stroke="red" points="470,-416 470,-450 586,-450 586,-416 470,-416"/>
<text text-anchor="start" x="478" y="-437" font-family="FreeSans" font-size="10.00">Urho3D::JSONValue::</text>
<text text-anchor="middle" x="528" y="-424" font-family="FreeSans" font-size="10.00">SetResourceRefList</text>
</a>
</g>
<!-- Node10&#45;&gt;Node19 -->
<g id="edge36" class="edge"><title>Node10&#45;&gt;Node19</title>
<path fill="none" stroke="midnightblue" d="M435.399,-464.679C449.528,-459.846 464.463,-454.736 478.118,-450.065"/>
<polygon fill="midnightblue" stroke="midnightblue" points="434.099,-461.425 425.77,-467.973 436.365,-468.048 434.099,-461.425"/>
</g>
<!-- Node20 -->
<g id="node39" class="node"><title>Node20</title>
<a xlink:href="class_urho3_d_1_1_j_s_o_n_value.html#a7b2cb60aac50a3ef6dda89c939f7f5c4" target="_top" xlink:title="Set int rect.">
<polygon fill="none" stroke="black" points="470,-364 470,-398 586,-398 586,-364 470,-364"/>
<text text-anchor="start" x="478" y="-385" font-family="FreeSans" font-size="10.00">Urho3D::JSONValue::</text>
<text text-anchor="middle" x="528" y="-372" font-family="FreeSans" font-size="10.00">SetIntRect</text>
</a>
</g>
<!-- Node10&#45;&gt;Node20 -->
<g id="edge38" class="edge"><title>Node10&#45;&gt;Node20</title>
<path fill="none" stroke="midnightblue" d="M429.725,-462.298C431.2,-461.239 432.629,-460.139 434,-459 455.619,-441.035 448.381,-424.965 470,-407 473.989,-403.685 478.468,-400.711 483.123,-398.065"/>
<polygon fill="midnightblue" stroke="midnightblue" points="427.43,-459.61 420.877,-467.935 431.191,-465.514 427.43,-459.61"/>
</g>
</g>
</svg>
