<?xml version="1.0" encoding="UTF-8" standalone="no"?>
<!DOCTYPE svg PUBLIC "-//W3C//DTD SVG 1.1//EN"
 "http://www.w3.org/Graphics/SVG/1.1/DTD/svg11.dtd">
<!-- Generated by graphviz version 2.26.3 (20100126.1600)
 -->
<!-- Title: Urho3D::PListFile Pages: 1 -->
<!--zoomable 910 -->
<svg id="main" version="1.1" xmlns="http://www.w3.org/2000/svg" xmlns:xlink="http://www.w3.org/1999/xlink" xml:space="preserve" onload="init(evt)">
        <defs>
                <circle id="rim" cx="0" cy="0" r="7"/>
                <circle id="rim2" cx="0" cy="0" r="3.5"/>
                <g id="zoomPlus">
                        <use xlink:href="#rim" fill="#404040">
                                <set attributeName="fill" to="#808080" begin="zoomplus.mouseover" end="zoomplus.mouseout"/>
                        </use>
                        <path d="M-4,0h8M0,-4v8" fill="none" stroke="white" stroke-width="1.5" pointer-events="none"/>
                </g>
                <g id="zoomMin">
                        <use xlink:href="#rim" fill="#404040">
                                <set attributeName="fill" to="#808080" begin="zoomminus.mouseover" end="zoomminus.mouseout"/>
                        </use>
                        <path d="M-4,0h8" fill="none" stroke="white" stroke-width="1.5" pointer-events="none"/>
                </g>
                <g id="dirArrow">
                        <path fill="none" stroke="white" stroke-width="1.5" d="M0,-3.0v7 M-2.5,-0.5L0,-3.0L2.5,-0.5"/>
                </g>
               <g id="resetDef">
                       <use xlink:href="#rim2" fill="#404040">
                               <set attributeName="fill" to="#808080" begin="reset.mouseover" end="reset.mouseout"/>
                       </use>
               </g>
        </defs>

<script type="text/javascript">
var viewWidth = 1158;
var viewHeight = 910;
var sectionId = 'dynsection-1';
</script>
<script xlink:href="svgpan.js"/>
<svg id="graph" class="graph">
<g id="viewport">
<title>Urho3D::PListFile</title>
<!-- Node1 -->
<g id="node1" class="node"><title>Node1</title>
<polygon fill="#bfbfbf" stroke="black" points="1028.5,-622.5 1028.5,-643.5 1125.5,-643.5 1125.5,-622.5 1028.5,-622.5"/>
<text text-anchor="middle" x="1077" y="-630.5" font-family="FreeSans" font-size="10.00">Urho3D::PListFile</text>
</g>
<!-- Node2 -->
<g id="node2" class="node"><title>Node2</title>
<a xlink:href="class_urho3_d_1_1_resource.html" target="_top" xlink:title="Base class for resources.">
<polygon fill="none" stroke="black" points="697.5,-773.5 697.5,-794.5 800.5,-794.5 800.5,-773.5 697.5,-773.5"/>
<text text-anchor="middle" x="749" y="-781.5" font-family="FreeSans" font-size="10.00">Urho3D::Resource</text>
</a>
</g>
<!-- Node2&#45;&gt;Node1 -->
<g id="edge2" class="edge"><title>Node2&#45;&gt;Node1</title>
<path fill="none" stroke="midnightblue" d="M810.15,-770.01C825.553,-763.927 840.857,-755.272 852,-743 871.289,-721.758 849.164,-700.727 870,-681 875.818,-675.492 969.093,-655.349 1028.43,-642.975"/>
<polygon fill="midnightblue" stroke="midnightblue" points="808.794,-766.778 800.583,-773.474 811.177,-773.36 808.794,-766.778"/>
</g>
<!-- Node3 -->
<g id="node4" class="node"><title>Node3</title>
<a xlink:href="class_urho3_d_1_1_object.html" target="_top" xlink:title="Base class for objects with type identification, subsystem access and event sending/receiving capabil...">
<polygon fill="none" stroke="black" points="446,-638.5 446,-659.5 536,-659.5 536,-638.5 446,-638.5"/>
<text text-anchor="middle" x="491" y="-646.5" font-family="FreeSans" font-size="10.00">Urho3D::Object</text>
</a>
</g>
<!-- Node3&#45;&gt;Node2 -->
<g id="edge4" class="edge"><title>Node3&#45;&gt;Node2</title>
<path fill="none" stroke="midnightblue" d="M512.17,-666.598C523.628,-676.782 537.535,-690.271 548,-704 558.128,-717.287 552.816,-726.738 566,-737 586.319,-752.816 650.545,-766.91 697.18,-775.446"/>
<polygon fill="midnightblue" stroke="midnightblue" points="514.192,-663.719 504.344,-659.811 509.606,-669.007 514.192,-663.719"/>
</g>
<!-- Node9 -->
<g id="node17" class="node"><title>Node9</title>
<a xlink:href="class_urho3_d_1_1_event_handler.html" target="_top" xlink:title="Internal helper class for invoking event handler functions.">
<polygon fill="none" stroke="red" points="687,-660.5 687,-681.5 811,-681.5 811,-660.5 687,-660.5"/>
<text text-anchor="middle" x="749" y="-668.5" font-family="FreeSans" font-size="10.00">Urho3D::EventHandler</text>
</a>
</g>
<!-- Node3&#45;&gt;Node9 -->
<g id="edge20" class="edge"><title>Node3&#45;&gt;Node9</title>
<path fill="none" stroke="#9a32cd" stroke-dasharray="5,2" d="M546.176,-647.339C571.2,-647.116 601.141,-647.588 628,-650 651.571,-652.117 677.45,-656.346 699.204,-660.458"/>
<polygon fill="#9a32cd" stroke="#9a32cd" points="546.088,-643.84 536.134,-647.468 546.178,-650.839 546.088,-643.84"/>
<text text-anchor="middle" x="597" y="-667" font-family="FreeSans" font-size="10.00"> sender_</text>
<text text-anchor="middle" x="597" y="-654" font-family="FreeSans" font-size="10.00">receiver_</text>
</g>
<!-- Node4 -->
<g id="node6" class="node"><title>Node4</title>
<a xlink:href="class_urho3_d_1_1_ref_counted.html" target="_top" xlink:title="Base class for intrusively reference&#45;counted objects. These are noncopyable and non&#45;assignable.">
<polygon fill="none" stroke="black" points="224,-523.5 224,-544.5 338,-544.5 338,-523.5 224,-523.5"/>
<text text-anchor="middle" x="281" y="-531.5" font-family="FreeSans" font-size="10.00">Urho3D::RefCounted</text>
</a>
</g>
<!-- Node4&#45;&gt;Node3 -->
<g id="edge6" class="edge"><title>Node4&#45;&gt;Node3</title>
<path fill="none" stroke="midnightblue" d="M309.271,-549.482C352.63,-573.226 434.433,-618.023 471.667,-638.413"/>
<polygon fill="midnightblue" stroke="midnightblue" points="310.832,-546.346 300.38,-544.613 307.47,-552.486 310.832,-546.346"/>
</g>
<!-- Node6 -->
<g id="node10" class="node"><title>Node6</title>
<a xlink:href="class_urho3_d_1_1_context.html" target="_top" xlink:title="Urho3D execution context. Provides access to subsystems, object factories and attributes, and event receivers.">
<polygon fill="none" stroke="black" points="1028.5,-315.5 1028.5,-336.5 1125.5,-336.5 1125.5,-315.5 1028.5,-315.5"/>
<text text-anchor="middle" x="1077" y="-323.5" font-family="FreeSans" font-size="10.00">Urho3D::Context</text>
</a>
</g>
<!-- Node4&#45;&gt;Node6 -->
<g id="edge12" class="edge"><title>Node4&#45;&gt;Node6</title>
<path fill="none" stroke="midnightblue" d="M348.382,-536.027C455.888,-537.992 672.41,-536.748 852,-503 913.606,-491.423 935.872,-496.636 986,-459 1031.19,-425.068 1061.73,-361.877 1072.59,-336.727"/>
<polygon fill="midnightblue" stroke="midnightblue" points="348.391,-532.526 338.323,-535.828 348.252,-539.525 348.391,-532.526"/>
</g>
<!-- Node5 -->
<g id="node8" class="node"><title>Node5</title>
<a xlink:href="struct_urho3_d_1_1_ref_count.html" target="_top" xlink:title="Reference count structure.">
<polygon fill="none" stroke="black" points="13,-523.5 13,-544.5 115,-544.5 115,-523.5 13,-523.5"/>
<text text-anchor="middle" x="64" y="-531.5" font-family="FreeSans" font-size="10.00">Urho3D::RefCount</text>
</a>
</g>
<!-- Node5&#45;&gt;Node4 -->
<g id="edge8" class="edge"><title>Node5&#45;&gt;Node4</title>
<path fill="none" stroke="#9a32cd" stroke-dasharray="5,2" d="M125.358,-534C156.225,-534 193.412,-534 223.695,-534"/>
<polygon fill="#9a32cd" stroke="#9a32cd" points="125.151,-530.5 115.151,-534 125.151,-537.5 125.151,-530.5"/>
<text text-anchor="middle" x="171" y="-538" font-family="FreeSans" font-size="10.00"> refCount_</text>
</g>
<!-- Node6&#45;&gt;Node3 -->
<g id="edge10" class="edge"><title>Node6&#45;&gt;Node3</title>
<path fill="none" stroke="#9a32cd" stroke-dasharray="5,2" d="M1074.76,-346.625C1068.88,-389.702 1048.86,-489.108 986,-536 925.001,-581.506 719.193,-556.156 646,-577 593.778,-591.872 537.012,-622.274 508.884,-638.403"/>
<polygon fill="#9a32cd" stroke="#9a32cd" points="1078.26,-346.858 1076.01,-336.503 1071.31,-345.996 1078.26,-346.858"/>
<text text-anchor="middle" x="749" y="-581" font-family="FreeSans" font-size="10.00"> context_</text>
</g>
<!-- Node7 -->
<g id="node13" class="node"><title>Node7</title>
<a xlink:href="class_urho3_d_1_1_p_o_d_vector.html" target="_top" xlink:title="Urho3D::PODVector\&lt;\l Urho3D::Object * \&gt;">
<polygon fill="none" stroke="black" points="689.5,-0 689.5,-34 808.5,-34 808.5,-0 689.5,-0"/>
<text text-anchor="start" x="697.5" y="-21" font-family="FreeSans" font-size="10.00">Urho3D::PODVector&lt;</text>
<text text-anchor="middle" x="749" y="-8" font-family="FreeSans" font-size="10.00"> Urho3D::Object * &gt;</text>
</a>
</g>
<!-- Node7&#45;&gt;Node6 -->
<g id="edge14" class="edge"><title>Node7&#45;&gt;Node6</title>
<path fill="none" stroke="#9a32cd" stroke-dasharray="5,2" d="M818.879,-15.0803C870.861,-17.3604 940.407,-28.7502 986,-69 1063.53,-137.446 1075.01,-276.274 1076.71,-315.478"/>
<polygon fill="#9a32cd" stroke="#9a32cd" points="818.841,-11.5771 808.73,-14.7399 818.607,-18.5732 818.841,-11.5771"/>
<text text-anchor="middle" x="928" y="-73" font-family="FreeSans" font-size="10.00"> eventSenders_</text>
</g>
<!-- Node8 -->
<g id="node15" class="node"><title>Node8</title>
<a xlink:href="class_urho3_d_1_1_vector_base.html" target="_top" xlink:title="Vector base class.">
<polygon fill="none" stroke="black" points="434,-25.5 434,-46.5 548,-46.5 548,-25.5 434,-25.5"/>
<text text-anchor="middle" x="491" y="-33.5" font-family="FreeSans" font-size="10.00">Urho3D::VectorBase</text>
</a>
</g>
<!-- Node8&#45;&gt;Node7 -->
<g id="edge16" class="edge"><title>Node8&#45;&gt;Node7</title>
<path fill="none" stroke="midnightblue" d="M558.327,-31.0418C598.887,-28.0548 650.084,-24.2845 689.212,-21.403"/>
<polygon fill="midnightblue" stroke="midnightblue" points="557.974,-27.5582 548.259,-31.7833 558.489,-34.5393 557.974,-27.5582"/>
</g>
<!-- Node18 -->
<g id="node42" class="node"><title>Node18</title>
<a xlink:href="class_urho3_d_1_1_p_o_d_vector.html" target="_top" xlink:title="Urho3D::PODVector\&lt;\l Urho3D::HashMap * \&gt;">
<polygon fill="none" stroke="black" points="685.5,-52 685.5,-86 812.5,-86 812.5,-52 685.5,-52"/>
<text text-anchor="start" x="693.5" y="-73" font-family="FreeSans" font-size="10.00">Urho3D::PODVector&lt;</text>
<text text-anchor="middle" x="749" y="-60" font-family="FreeSans" font-size="10.00"> Urho3D::HashMap * &gt;</text>
</a>
</g>
<!-- Node8&#45;&gt;Node18 -->
<g id="edge52" class="edge"><title>Node8&#45;&gt;Node18</title>
<path fill="none" stroke="midnightblue" d="M558.248,-44.6015C597.416,-49.6114 646.526,-55.8928 685.106,-60.8275"/>
<polygon fill="midnightblue" stroke="midnightblue" points="558.622,-41.1209 548.259,-43.3238 557.734,-48.0643 558.622,-41.1209"/>
</g>
<!-- Node9&#45;&gt;Node6 -->
<g id="edge18" class="edge"><title>Node9&#45;&gt;Node6</title>
<path fill="none" stroke="#9a32cd" stroke-dasharray="5,2" d="M799.991,-657.691C816.672,-653.06 835.221,-647.61 852,-642 860.141,-639.278 861.729,-637.296 870,-635 920.409,-621.005 946.608,-649.427 986,-615 1030.36,-576.231 1066.76,-384.042 1075.17,-336.601"/>
<polygon fill="#9a32cd" stroke="#9a32cd" points="798.598,-654.444 789.879,-660.464 800.449,-661.195 798.598,-654.444"/>
<text text-anchor="middle" x="928" y="-639" font-family="FreeSans" font-size="10.00"> eventHandler_</text>
</g>
<!-- Node22 -->
<g id="node54" class="node"><title>Node22</title>
<a xlink:href="class_urho3_d_1_1_linked_list.html" target="_top" xlink:title="Urho3D::LinkedList\l\&lt; Urho3D::EventHandler \&gt;">
<polygon fill="none" stroke="black" points="1004,-695 1004,-729 1150,-729 1150,-695 1004,-695"/>
<text text-anchor="start" x="1012" y="-716" font-family="FreeSans" font-size="10.00">Urho3D::LinkedList</text>
<text text-anchor="middle" x="1077" y="-703" font-family="FreeSans" font-size="10.00">&lt; Urho3D::EventHandler &gt;</text>
</a>
</g>
<!-- Node9&#45;&gt;Node22 -->
<g id="edge68" class="edge"><title>Node9&#45;&gt;Node22</title>
<path fill="none" stroke="#9a32cd" stroke-dasharray="5,2" d="M821.501,-679.103C868.448,-684.465 930.884,-691.808 986,-699 991.697,-699.743 997.591,-700.535 1003.51,-701.346"/>
<polygon fill="#9a32cd" stroke="#9a32cd" points="821.758,-675.61 811.426,-677.956 820.966,-682.565 821.758,-675.61"/>
<text text-anchor="middle" x="928" y="-703" font-family="FreeSans" font-size="10.00"> head_</text>
</g>
<!-- Node10 -->
<g id="node20" class="node"><title>Node10</title>
<a xlink:href="class_urho3_d_1_1_string_hash.html" target="_top" xlink:title="32&#45;bit hash value for a string.">
<polygon fill="none" stroke="black" points="434.5,-713.5 434.5,-734.5 547.5,-734.5 547.5,-713.5 434.5,-713.5"/>
<text text-anchor="middle" x="491" y="-721.5" font-family="FreeSans" font-size="10.00">Urho3D::StringHash</text>
</a>
</g>
<!-- Node10&#45;&gt;Node2 -->
<g id="edge76" class="edge"><title>Node10&#45;&gt;Node2</title>
<path fill="none" stroke="#9a32cd" stroke-dasharray="5,2" d="M516.207,-739.57C530.339,-747.569 548.582,-756.721 566,-762 609.026,-775.042 659.946,-780.395 697.136,-782.57"/>
<polygon fill="#9a32cd" stroke="#9a32cd" points="517.966,-736.544 507.564,-734.532 514.441,-742.592 517.966,-736.544"/>
<text text-anchor="middle" x="597" y="-779" font-family="FreeSans" font-size="10.00"> nameHash_</text>
</g>
<!-- Node10&#45;&gt;Node9 -->
<g id="edge22" class="edge"><title>Node10&#45;&gt;Node9</title>
<path fill="none" stroke="#9a32cd" stroke-dasharray="5,2" d="M552.083,-711.452C596.483,-702.331 655.9,-690.125 697.816,-681.515"/>
<polygon fill="#9a32cd" stroke="#9a32cd" points="551.372,-708.025 542.281,-713.466 552.781,-714.882 551.372,-708.025"/>
<text text-anchor="middle" x="597" y="-712" font-family="FreeSans" font-size="10.00"> eventType_</text>
</g>
<!-- Node10&#45;&gt;Node10 -->
<g id="edge24" class="edge"><title>Node10&#45;&gt;Node10</title>
<path fill="none" stroke="#9a32cd" stroke-dasharray="5,2" d="M472.571,-744.427C473.993,-749.349 480.136,-753 491,-753 508.383,-753 513.679,-743.653 506.889,-734.708"/>
<polygon fill="#9a32cd" stroke="#9a32cd" points="475.969,-745.268 475.111,-734.708 469.196,-743.498 475.969,-745.268"/>
<text text-anchor="middle" x="491" y="-757" font-family="FreeSans" font-size="10.00"> ZERO</text>
</g>
<!-- Node11 -->
<g id="node23" class="node"><title>Node11</title>
<a xlink:href="class_urho3_d_1_1_hash_map.html" target="_top" xlink:title="Urho3D::HashMap\&lt; Urho3D\l::StringHash, Urho3D::\lHashSet\&lt; Urho3D::Object * \&gt; \&gt;">
<polygon fill="none" stroke="black" points="662.5,-104.5 662.5,-151.5 835.5,-151.5 835.5,-104.5 662.5,-104.5"/>
<text text-anchor="start" x="670.5" y="-138.5" font-family="FreeSans" font-size="10.00">Urho3D::HashMap&lt; Urho3D</text>
<text text-anchor="start" x="670.5" y="-125.5" font-family="FreeSans" font-size="10.00">::StringHash, Urho3D::</text>
<text text-anchor="middle" x="749" y="-112.5" font-family="FreeSans" font-size="10.00">HashSet&lt; Urho3D::Object * &gt; &gt;</text>
</a>
</g>
<!-- Node11&#45;&gt;Node6 -->
<g id="edge26" class="edge"><title>Node11&#45;&gt;Node6</title>
<path fill="none" stroke="#9a32cd" stroke-dasharray="5,2" d="M845.56,-147.6C891.173,-160.159 944.563,-179.909 986,-210 1027.01,-239.78 1059.02,-292.886 1071.42,-315.421"/>
<polygon fill="#9a32cd" stroke="#9a32cd" points="846.218,-144.153 835.653,-144.95 844.409,-150.915 846.218,-144.153"/>
<text text-anchor="middle" x="928" y="-214" font-family="FreeSans" font-size="10.00"> eventReceivers_</text>
</g>
<!-- Node12 -->
<g id="node25" class="node"><title>Node12</title>
<a xlink:href="class_urho3_d_1_1_hash_base.html" target="_top" xlink:title="Hash set/map base class.">
<polygon fill="none" stroke="black" points="437,-315.5 437,-336.5 545,-336.5 545,-315.5 437,-315.5"/>
<text text-anchor="middle" x="491" y="-323.5" font-family="FreeSans" font-size="10.00">Urho3D::HashBase</text>
</a>
</g>
<!-- Node12&#45;&gt;Node11 -->
<g id="edge28" class="edge"><title>Node12&#45;&gt;Node11</title>
<path fill="none" stroke="midnightblue" d="M503.387,-306.774C526.83,-272.014 581.185,-198.824 646,-161 651.919,-157.546 658.245,-154.405 664.74,-151.56"/>
<polygon fill="midnightblue" stroke="midnightblue" points="500.463,-304.849 497.857,-315.119 506.299,-308.716 500.463,-304.849"/>
</g>
<!-- Node16 -->
<g id="node36" class="node"><title>Node16</title>
<a xlink:href="class_urho3_d_1_1_hash_map.html" target="_top" xlink:title="Urho3D::HashMap\&lt; Urho3D\l::Object *, Urho3D::HashMap\l\&lt; Urho3D::StringHash, Urho3D\l::HashSet\&lt; Urho3D::Object * \&gt; \&gt; \&gt;">
<polygon fill="none" stroke="black" points="653.5,-368 653.5,-428 844.5,-428 844.5,-368 653.5,-368"/>
<text text-anchor="start" x="661.5" y="-415" font-family="FreeSans" font-size="10.00">Urho3D::HashMap&lt; Urho3D</text>
<text text-anchor="start" x="661.5" y="-402" font-family="FreeSans" font-size="10.00">::Object *, Urho3D::HashMap</text>
<text text-anchor="start" x="661.5" y="-389" font-family="FreeSans" font-size="10.00">&lt; Urho3D::StringHash, Urho3D</text>
<text text-anchor="middle" x="749" y="-376" font-family="FreeSans" font-size="10.00">::HashSet&lt; Urho3D::Object * &gt; &gt; &gt;</text>
</a>
</g>
<!-- Node12&#45;&gt;Node16 -->
<g id="edge44" class="edge"><title>Node12&#45;&gt;Node16</title>
<path fill="none" stroke="midnightblue" d="M538.804,-339.341C570.928,-348.306 614.373,-360.43 653.427,-371.328"/>
<polygon fill="midnightblue" stroke="midnightblue" points="539.365,-335.863 528.792,-336.547 537.483,-342.606 539.365,-335.863"/>
</g>
<!-- Node17 -->
<g id="node39" class="node"><title>Node17</title>
<a xlink:href="class_urho3_d_1_1_hash_map.html" target="_top" xlink:title="Urho3D::HashMap\&lt; Urho3D\l::StringHash, Urho3D::\lSharedPtr\&lt; Urho3D::Object \&gt; \&gt;">
<polygon fill="none" stroke="black" points="663,-446.5 663,-493.5 835,-493.5 835,-446.5 663,-446.5"/>
<text text-anchor="start" x="671" y="-480.5" font-family="FreeSans" font-size="10.00">Urho3D::HashMap&lt; Urho3D</text>
<text text-anchor="start" x="671" y="-467.5" font-family="FreeSans" font-size="10.00">::StringHash, Urho3D::</text>
<text text-anchor="middle" x="749" y="-454.5" font-family="FreeSans" font-size="10.00">SharedPtr&lt; Urho3D::Object &gt; &gt;</text>
</a>
</g>
<!-- Node12&#45;&gt;Node17 -->
<g id="edge48" class="edge"><title>Node12&#45;&gt;Node17</title>
<path fill="none" stroke="midnightblue" d="M510.918,-343.417C539.216,-367.395 593.472,-410.597 646,-437 652.795,-440.415 660.017,-443.576 667.363,-446.477"/>
<polygon fill="midnightblue" stroke="midnightblue" points="512.871,-340.482 503,-336.633 508.317,-345.797 512.871,-340.482"/>
</g>
<!-- Node19 -->
<g id="node45" class="node"><title>Node19</title>
<a xlink:href="class_urho3_d_1_1_hash_map.html" target="_top" xlink:title="Urho3D::HashMap\&lt; Urho3D\l::StringHash, Urho3D::\lSharedPtr\&lt; Urho3D::ObjectFactory \&gt; \&gt;">
<polygon fill="none" stroke="black" points="646,-236.5 646,-283.5 852,-283.5 852,-236.5 646,-236.5"/>
<text text-anchor="start" x="654" y="-270.5" font-family="FreeSans" font-size="10.00">Urho3D::HashMap&lt; Urho3D</text>
<text text-anchor="start" x="654" y="-257.5" font-family="FreeSans" font-size="10.00">::StringHash, Urho3D::</text>
<text text-anchor="middle" x="749" y="-244.5" font-family="FreeSans" font-size="10.00">SharedPtr&lt; Urho3D::ObjectFactory &gt; &gt;</text>
</a>
</g>
<!-- Node12&#45;&gt;Node19 -->
<g id="edge56" class="edge"><title>Node12&#45;&gt;Node19</title>
<path fill="none" stroke="midnightblue" d="M541.969,-312.961C574.723,-304.583 618.228,-293.453 656.901,-283.56"/>
<polygon fill="midnightblue" stroke="midnightblue" points="540.987,-309.6 532.166,-315.469 542.722,-316.382 540.987,-309.6"/>
</g>
<!-- Node20 -->
<g id="node48" class="node"><title>Node20</title>
<a xlink:href="class_urho3_d_1_1_hash_map.html" target="_top" xlink:title="Urho3D::HashMap\&lt; Urho3D\l::String, Urho3D::Vector\l\&lt; Urho3D::StringHash \&gt; \&gt;">
<polygon fill="none" stroke="black" points="673,-170.5 673,-217.5 825,-217.5 825,-170.5 673,-170.5"/>
<text text-anchor="start" x="681" y="-204.5" font-family="FreeSans" font-size="10.00">Urho3D::HashMap&lt; Urho3D</text>
<text text-anchor="start" x="681" y="-191.5" font-family="FreeSans" font-size="10.00">::String, Urho3D::Vector</text>
<text text-anchor="middle" x="749" y="-178.5" font-family="FreeSans" font-size="10.00">&lt; Urho3D::StringHash &gt; &gt;</text>
</a>
</g>
<!-- Node12&#45;&gt;Node20 -->
<g id="edge60" class="edge"><title>Node12&#45;&gt;Node20</title>
<path fill="none" stroke="midnightblue" d="M513.043,-309.307C542.18,-287.871 595.715,-250.626 646,-227 654.497,-223.008 663.605,-219.316 672.76,-215.96"/>
<polygon fill="midnightblue" stroke="midnightblue" points="510.755,-306.646 504.815,-315.419 514.93,-312.266 510.755,-306.646"/>
</g>
<!-- Node21 -->
<g id="node51" class="node"><title>Node21</title>
<a xlink:href="class_urho3_d_1_1_hash_map.html" target="_top" xlink:title="Urho3D::HashMap\&lt; Urho3D\l::StringHash, Urho3D::\lVector\&lt; Urho3D::AttributeInfo \&gt; \&gt;">
<polygon fill="none" stroke="black" points="657.5,-302.5 657.5,-349.5 840.5,-349.5 840.5,-302.5 657.5,-302.5"/>
<text text-anchor="start" x="665.5" y="-336.5" font-family="FreeSans" font-size="10.00">Urho3D::HashMap&lt; Urho3D</text>
<text text-anchor="start" x="665.5" y="-323.5" font-family="FreeSans" font-size="10.00">::StringHash, Urho3D::</text>
<text text-anchor="middle" x="749" y="-310.5" font-family="FreeSans" font-size="10.00">Vector&lt; Urho3D::AttributeInfo &gt; &gt;</text>
</a>
</g>
<!-- Node12&#45;&gt;Node21 -->
<g id="edge64" class="edge"><title>Node12&#45;&gt;Node21</title>
<path fill="none" stroke="midnightblue" d="M555.275,-326C586.121,-326 623.63,-326 657.398,-326"/>
<polygon fill="midnightblue" stroke="midnightblue" points="555.085,-322.5 545.085,-326 555.085,-329.5 555.085,-322.5"/>
</g>
<!-- Node25 -->
<g id="node63" class="node"><title>Node25</title>
<a xlink:href="class_urho3_d_1_1_hash_map.html" target="_top" xlink:title="Urho3D::HashMap\&lt; String,\l PListValue \&gt;">
<polygon fill="none" stroke="black" points="675.5,-599 675.5,-633 822.5,-633 822.5,-599 675.5,-599"/>
<text text-anchor="start" x="683.5" y="-620" font-family="FreeSans" font-size="10.00">Urho3D::HashMap&lt; String,</text>
<text text-anchor="middle" x="749" y="-607" font-family="FreeSans" font-size="10.00"> PListValue &gt;</text>
</a>
</g>
<!-- Node12&#45;&gt;Node25 -->
<g id="edge80" class="edge"><title>Node12&#45;&gt;Node25</title>
<path fill="none" stroke="midnightblue" d="M497.357,-346.201C513.727,-394.9 562.033,-519.572 646,-585 654.691,-591.772 664.847,-597.069 675.331,-601.212"/>
<polygon fill="midnightblue" stroke="midnightblue" points="500.624,-344.931 494.189,-336.514 493.971,-347.107 500.624,-344.931"/>
</g>
<!-- Node13 -->
<g id="node27" class="node"><title>Node13</title>
<a xlink:href="struct_urho3_d_1_1_hash_node_base.html" target="_top" xlink:title="Hash set/map node base class.">
<polygon fill="none" stroke="black" points="214,-359.5 214,-380.5 348,-380.5 348,-359.5 214,-359.5"/>
<text text-anchor="middle" x="281" y="-367.5" font-family="FreeSans" font-size="10.00">Urho3D::HashNodeBase</text>
</a>
</g>
<!-- Node13&#45;&gt;Node12 -->
<g id="edge30" class="edge"><title>Node13&#45;&gt;Node12</title>
<path fill="none" stroke="#9a32cd" stroke-dasharray="5,2" d="M341.275,-357.371C372.768,-350.772 410.864,-342.79 440.747,-336.529"/>
<polygon fill="#9a32cd" stroke="#9a32cd" points="340.37,-353.985 331.3,-359.461 341.805,-360.836 340.37,-353.985"/>
<text text-anchor="middle" x="391" y="-382" font-family="FreeSans" font-size="10.00"> ptrs_</text>
<text text-anchor="middle" x="391" y="-369" font-family="FreeSans" font-size="10.00">tail_</text>
<text text-anchor="middle" x="391" y="-356" font-family="FreeSans" font-size="10.00">head_</text>
</g>
<!-- Node13&#45;&gt;Node13 -->
<g id="edge32" class="edge"><title>Node13&#45;&gt;Node13</title>
<path fill="none" stroke="#9a32cd" stroke-dasharray="5,2" d="M260.728,-390.427C262.292,-395.349 269.049,-399 281,-399 300.121,-399 305.947,-389.653 298.478,-380.708"/>
<polygon fill="#9a32cd" stroke="#9a32cd" points="264.123,-391.286 263.522,-380.708 257.395,-389.352 264.123,-391.286"/>
<text text-anchor="middle" x="281" y="-429" font-family="FreeSans" font-size="10.00"> next_</text>
<text text-anchor="middle" x="281" y="-416" font-family="FreeSans" font-size="10.00">prev_</text>
<text text-anchor="middle" x="281" y="-403" font-family="FreeSans" font-size="10.00">down_</text>
</g>
<!-- Node14 -->
<g id="node30" class="node"><title>Node14</title>
<a xlink:href="struct_urho3_d_1_1_allocator_block.html" target="_top" xlink:title="Allocator memory block.">
<polygon fill="none" stroke="black" points="217.5,-288.5 217.5,-309.5 344.5,-309.5 344.5,-288.5 217.5,-288.5"/>
<text text-anchor="middle" x="281" y="-296.5" font-family="FreeSans" font-size="10.00">Urho3D::AllocatorBlock</text>
</a>
</g>
<!-- Node14&#45;&gt;Node12 -->
<g id="edge34" class="edge"><title>Node14&#45;&gt;Node12</title>
<path fill="none" stroke="#9a32cd" stroke-dasharray="5,2" d="M354.77,-308.485C381.797,-311.96 411.861,-315.825 436.856,-319.039"/>
<polygon fill="#9a32cd" stroke="#9a32cd" points="354.942,-304.978 344.577,-307.174 354.049,-311.921 354.942,-304.978"/>
<text text-anchor="middle" x="391" y="-320" font-family="FreeSans" font-size="10.00"> allocator_</text>
</g>
<!-- Node14&#45;&gt;Node14 -->
<g id="edge36" class="edge"><title>Node14&#45;&gt;Node14</title>
<path fill="none" stroke="#9a32cd" stroke-dasharray="5,2" d="M260.728,-319.427C262.292,-324.349 269.049,-328 281,-328 300.121,-328 305.947,-318.653 298.478,-309.708"/>
<polygon fill="#9a32cd" stroke="#9a32cd" points="264.123,-320.286 263.522,-309.708 257.395,-318.352 264.123,-320.286"/>
<text text-anchor="middle" x="281" y="-332" font-family="FreeSans" font-size="10.00"> next_</text>
</g>
<!-- Node15 -->
<g id="node33" class="node"><title>Node15</title>
<a xlink:href="struct_urho3_d_1_1_allocator_node.html" target="_top" xlink:title="Allocator node.">
<polygon fill="none" stroke="black" points="0.5,-288.5 0.5,-309.5 127.5,-309.5 127.5,-288.5 0.5,-288.5"/>
<text text-anchor="middle" x="64" y="-296.5" font-family="FreeSans" font-size="10.00">Urho3D::AllocatorNode</text>
</a>
</g>
<!-- Node15&#45;&gt;Node14 -->
<g id="edge38" class="edge"><title>Node15&#45;&gt;Node14</title>
<path fill="none" stroke="#9a32cd" stroke-dasharray="5,2" d="M137.765,-299C163.616,-299 192.409,-299 217.36,-299"/>
<polygon fill="#9a32cd" stroke="#9a32cd" points="137.641,-295.5 127.641,-299 137.641,-302.5 137.641,-295.5"/>
<text text-anchor="middle" x="171" y="-303" font-family="FreeSans" font-size="10.00"> free_</text>
</g>
<!-- Node15&#45;&gt;Node15 -->
<g id="edge40" class="edge"><title>Node15&#45;&gt;Node15</title>
<path fill="none" stroke="#9a32cd" stroke-dasharray="5,2" d="M44.4653,-319.427C45.9723,-324.349 52.4839,-328 64,-328 82.4258,-328 88.0399,-318.653 80.8423,-309.708"/>
<polygon fill="#9a32cd" stroke="#9a32cd" points="47.8609,-320.279 47.1577,-309.708 41.1149,-318.41 47.8609,-320.279"/>
<text text-anchor="middle" x="64" y="-332" font-family="FreeSans" font-size="10.00"> next_</text>
</g>
<!-- Node16&#45;&gt;Node6 -->
<g id="edge42" class="edge"><title>Node16&#45;&gt;Node6</title>
<path fill="none" stroke="#9a32cd" stroke-dasharray="5,2" d="M854.588,-382.611C895.862,-375.732 943.42,-366.733 986,-356 1007.29,-350.633 1030.82,-342.825 1048.62,-336.519"/>
<polygon fill="#9a32cd" stroke="#9a32cd" points="853.812,-379.192 844.513,-384.269 854.949,-386.099 853.812,-379.192"/>
<text text-anchor="middle" x="928" y="-384" font-family="FreeSans" font-size="10.00"> specificEventReceivers_</text>
</g>
<!-- Node17&#45;&gt;Node6 -->
<g id="edge46" class="edge"><title>Node17&#45;&gt;Node6</title>
<path fill="none" stroke="#9a32cd" stroke-dasharray="5,2" d="M844.945,-448.952C889.347,-437.102 941.903,-419.995 986,-397 1017.98,-380.322 1049.98,-351.996 1066.16,-336.648"/>
<polygon fill="#9a32cd" stroke="#9a32cd" points="843.805,-445.632 835.017,-451.55 845.577,-452.404 843.805,-445.632"/>
<text text-anchor="middle" x="928" y="-446" font-family="FreeSans" font-size="10.00"> subsystems_</text>
</g>
<!-- Node18&#45;&gt;Node6 -->
<g id="edge50" class="edge"><title>Node18&#45;&gt;Node6</title>
<path fill="none" stroke="#9a32cd" stroke-dasharray="5,2" d="M822.607,-75.0373C873.773,-82.739 940.661,-100.243 986,-140 1043.03,-190.01 1067.87,-283.938 1074.84,-315.415"/>
<polygon fill="#9a32cd" stroke="#9a32cd" points="822.986,-71.5561 812.595,-73.6239 822.008,-78.4874 822.986,-71.5561"/>
<text text-anchor="middle" x="928" y="-144" font-family="FreeSans" font-size="10.00"> eventDataMaps_</text>
</g>
<!-- Node19&#45;&gt;Node6 -->
<g id="edge54" class="edge"><title>Node19&#45;&gt;Node6</title>
<path fill="none" stroke="#9a32cd" stroke-dasharray="5,2" d="M862.428,-282.824C919.056,-294.219 984.601,-307.408 1028.2,-316.181"/>
<polygon fill="#9a32cd" stroke="#9a32cd" points="862.825,-279.334 852.331,-280.792 861.444,-286.196 862.825,-279.334"/>
<text text-anchor="middle" x="928" y="-311" font-family="FreeSans" font-size="10.00"> factories_</text>
</g>
<!-- Node20&#45;&gt;Node6 -->
<g id="edge58" class="edge"><title>Node20&#45;&gt;Node6</title>
<path fill="none" stroke="#9a32cd" stroke-dasharray="5,2" d="M834.93,-215.52C880.816,-228.41 937.643,-246.645 986,-269 1014.6,-282.22 1045.1,-302.827 1062.52,-315.306"/>
<polygon fill="#9a32cd" stroke="#9a32cd" points="835.586,-212.07 825.014,-212.77 833.715,-218.815 835.586,-212.07"/>
<text text-anchor="middle" x="928" y="-273" font-family="FreeSans" font-size="10.00"> objectCategories_</text>
</g>
<!-- Node21&#45;&gt;Node6 -->
<g id="edge62" class="edge"><title>Node21&#45;&gt;Node6</title>
<path fill="none" stroke="#9a32cd" stroke-dasharray="5,2" d="M850.925,-326C910.019,-326 981.729,-326 1028.31,-326"/>
<polygon fill="#9a32cd" stroke="#9a32cd" points="850.802,-322.5 840.802,-326 850.802,-329.5 850.802,-322.5"/>
<text text-anchor="middle" x="928" y="-343" font-family="FreeSans" font-size="10.00"> attributes_</text>
<text text-anchor="middle" x="928" y="-330" font-family="FreeSans" font-size="10.00">networkAttributes_</text>
</g>
<!-- Node22&#45;&gt;Node3 -->
<g id="edge66" class="edge"><title>Node22&#45;&gt;Node3</title>
<path fill="none" stroke="#9a32cd" stroke-dasharray="5,2" d="M993.526,-729.009C889.788,-746.37 708.989,-764.086 566,-712 537.24,-701.523 511.845,-674.633 499.301,-659.591"/>
<polygon fill="#9a32cd" stroke="#9a32cd" points="994.363,-732.417 1003.63,-727.279 993.181,-725.518 994.363,-732.417"/>
<text text-anchor="middle" x="749" y="-750" font-family="FreeSans" font-size="10.00"> eventHandlers_</text>
</g>
<!-- Node23 -->
<g id="node57" class="node"><title>Node23</title>
<a xlink:href="class_urho3_d_1_1_timer.html" target="_top" xlink:title="Low&#45;resolution operating system timer.">
<polygon fill="none" stroke="black" points="448,-809.5 448,-830.5 534,-830.5 534,-809.5 448,-809.5"/>
<text text-anchor="middle" x="491" y="-817.5" font-family="FreeSans" font-size="10.00">Urho3D::Timer</text>
</a>
</g>
<!-- Node23&#45;&gt;Node2 -->
<g id="edge70" class="edge"><title>Node23&#45;&gt;Node2</title>
<path fill="none" stroke="#9a32cd" stroke-dasharray="5,2" d="M544.297,-812.563C589.124,-806.308 652.826,-797.42 697.22,-791.225"/>
<polygon fill="#9a32cd" stroke="#9a32cd" points="543.604,-809.126 534.183,-813.974 544.571,-816.059 543.604,-809.126"/>
<text text-anchor="middle" x="597" y="-813" font-family="FreeSans" font-size="10.00"> useTimer_</text>
</g>
<!-- Node24 -->
<g id="node59" class="node"><title>Node24</title>
<a xlink:href="class_urho3_d_1_1_string.html" target="_top" xlink:title="String class.">
<polygon fill="none" stroke="black" points="447,-849.5 447,-870.5 535,-870.5 535,-849.5 447,-849.5"/>
<text text-anchor="middle" x="491" y="-857.5" font-family="FreeSans" font-size="10.00">Urho3D::String</text>
</a>
</g>
<!-- Node24&#45;&gt;Node2 -->
<g id="edge72" class="edge"><title>Node24&#45;&gt;Node2</title>
<path fill="none" stroke="#9a32cd" stroke-dasharray="5,2" d="M544.886,-847.822C570.251,-841.786 600.832,-834.068 628,-826 660.188,-816.441 696.502,-803.546 720.876,-794.577"/>
<polygon fill="#9a32cd" stroke="#9a32cd" points="544.01,-844.433 535.08,-850.134 545.617,-851.246 544.01,-844.433"/>
<text text-anchor="middle" x="597" y="-846" font-family="FreeSans" font-size="10.00"> name_</text>
</g>
<!-- Node24&#45;&gt;Node24 -->
<g id="edge74" class="edge"><title>Node24&#45;&gt;Node24</title>
<path fill="none" stroke="#9a32cd" stroke-dasharray="5,2" d="M472.571,-880.427C473.993,-885.349 480.136,-889 491,-889 508.383,-889 513.679,-879.653 506.889,-870.708"/>
<polygon fill="#9a32cd" stroke="#9a32cd" points="475.969,-881.268 475.111,-870.708 469.196,-879.498 475.969,-881.268"/>
<text text-anchor="middle" x="491" y="-893" font-family="FreeSans" font-size="10.00"> EMPTY</text>
</g>
<!-- Node25&#45;&gt;Node1 -->
<g id="edge78" class="edge"><title>Node25&#45;&gt;Node1</title>
<path fill="none" stroke="#9a32cd" stroke-dasharray="5,2" d="M832.711,-602.024C878.292,-596.676 935.531,-593.64 986,-602 1009.55,-605.901 1035.18,-615.116 1053.22,-622.492"/>
<polygon fill="#9a32cd" stroke="#9a32cd" points="832.073,-598.576 822.576,-603.274 832.93,-605.524 832.073,-598.576"/>
<text text-anchor="middle" x="928" y="-606" font-family="FreeSans" font-size="10.00"> root_</text>
</g>
</g>
</svg>
        <g id="navigator" transform="translate(0 0)" fill="#404254">
                <rect fill="#f2f5e9" fill-opacity="0.5" stroke="#606060" stroke-width=".5" x="0" y="0" width="60" height="60"/>
                <use id="zoomplus" xlink:href="#zoomPlus" x="17" y="9" onmousedown="handleZoom(evt,'in')"/>
                <use id="zoomminus" xlink:href="#zoomMin" x="42" y="9" onmousedown="handleZoom(evt,'out')"/>
                <use id="reset" xlink:href="#resetDef" x="30" y="36" onmousedown="handleReset()"/>
                <g id="arrowUp" xlink:href="#dirArrow" transform="translate(30 24)" onmousedown="handlePan(0,-1)">
                  <use xlink:href="#rim" fill="#404040">
                        <set attributeName="fill" to="#808080" begin="arrowUp.mouseover" end="arrowUp.mouseout"/>
                  </use>
                  <path fill="none" stroke="white" stroke-width="1.5" d="M0,-3.0v7 M-2.5,-0.5L0,-3.0L2.5,-0.5"/>
                </g>
                <g id="arrowRight" xlink:href="#dirArrow" transform="rotate(90) translate(36 -43)" onmousedown="handlePan(1,0)">
                  <use xlink:href="#rim" fill="#404040">
                        <set attributeName="fill" to="#808080" begin="arrowRight.mouseover" end="arrowRight.mouseout"/>
                  </use>
                  <path fill="none" stroke="white" stroke-width="1.5" d="M0,-3.0v7 M-2.5,-0.5L0,-3.0L2.5,-0.5"/>
                </g>
                <g id="arrowDown" xlink:href="#dirArrow" transform="rotate(180) translate(-30 -48)" onmousedown="handlePan(0,1)">
                  <use xlink:href="#rim" fill="#404040">
                        <set attributeName="fill" to="#808080" begin="arrowDown.mouseover" end="arrowDown.mouseout"/>
                  </use>
                  <path fill="none" stroke="white" stroke-width="1.5" d="M0,-3.0v7 M-2.5,-0.5L0,-3.0L2.5,-0.5"/>
                </g>
                <g id="arrowLeft" xlink:href="#dirArrow" transform="rotate(270) translate(-36 17)" onmousedown="handlePan(-1,0)">
                  <use xlink:href="#rim" fill="#404040">
                        <set attributeName="fill" to="#808080" begin="arrowLeft.mouseover" end="arrowLeft.mouseout"/>
                  </use>
                  <path fill="none" stroke="white" stroke-width="1.5" d="M0,-3.0v7 M-2.5,-0.5L0,-3.0L2.5,-0.5"/>
                </g>
        </g>
        <svg viewBox="0 0 15 15" width="100%" height="30px" preserveAspectRatio="xMaxYMin meet">
         <g id="arrow_out" transform="scale(0.3 0.3)">
          <a xlink:href="class_urho3_d_1_1_p_list_file__coll__graph_org.svg" target="_base">
           <rect id="button" ry="5" rx="5" y="6" x="6" height="38" width="38"
                fill="#f2f5e9" fill-opacity="0.5" stroke="#606060" stroke-width="1.0"/>
           <path id="arrow"
             d="M 11.500037,31.436501 C 11.940474,20.09759 22.043105,11.32322 32.158766,21.979434 L 37.068811,17.246167 C 37.068811,17.246167 37.088388,32 37.088388,32 L 22.160133,31.978069 C 22.160133,31.978069 26.997745,27.140456 26.997745,27.140456 C 18.528582,18.264221 13.291696,25.230495 11.500037,31.436501 z"
             style="fill:#404040;"/>
          </a>
         </g>
        </svg>
</svg>
