<?xml version="1.0" encoding="UTF-8" standalone="no"?>
<!DOCTYPE svg PUBLIC "-//W3C//DTD SVG 1.1//EN"
 "http://www.w3.org/Graphics/SVG/1.1/DTD/svg11.dtd">
<!-- Generated by graphviz version 2.26.3 (20100126.1600)
 -->
<!-- Title: Urho3D::AnimatedSprite2D Pages: 1 -->
<!--zoomable 816 -->
<svg id="main" version="1.1" xmlns="http://www.w3.org/2000/svg" xmlns:xlink="http://www.w3.org/1999/xlink" xml:space="preserve" onload="init(evt)">
        <defs>
                <circle id="rim" cx="0" cy="0" r="7"/>
                <circle id="rim2" cx="0" cy="0" r="3.5"/>
                <g id="zoomPlus">
                        <use xlink:href="#rim" fill="#404040">
                                <set attributeName="fill" to="#808080" begin="zoomplus.mouseover" end="zoomplus.mouseout"/>
                        </use>
                        <path d="M-4,0h8M0,-4v8" fill="none" stroke="white" stroke-width="1.5" pointer-events="none"/>
                </g>
                <g id="zoomMin">
                        <use xlink:href="#rim" fill="#404040">
                                <set attributeName="fill" to="#808080" begin="zoomminus.mouseover" end="zoomminus.mouseout"/>
                        </use>
                        <path d="M-4,0h8" fill="none" stroke="white" stroke-width="1.5" pointer-events="none"/>
                </g>
                <g id="dirArrow">
                        <path fill="none" stroke="white" stroke-width="1.5" d="M0,-3.0v7 M-2.5,-0.5L0,-3.0L2.5,-0.5"/>
                </g>
               <g id="resetDef">
                       <use xlink:href="#rim2" fill="#404040">
                               <set attributeName="fill" to="#808080" begin="reset.mouseover" end="reset.mouseout"/>
                       </use>
               </g>
        </defs>

<script type="text/javascript">
var viewWidth = 1736;
var viewHeight = 816;
var sectionId = 'dynsection-1';
</script>
<script xlink:href="svgpan.js"/>
<svg id="graph" class="graph">
<g id="viewport">
<title>Urho3D::AnimatedSprite2D</title>
<!-- Node1 -->
<g id="node1" class="node"><title>Node1</title>
<polygon fill="#bfbfbf" stroke="black" points="1580,-288.5 1580,-309.5 1728,-309.5 1728,-288.5 1580,-288.5"/>
<text text-anchor="middle" x="1654" y="-296.5" font-family="FreeSans" font-size="10.00">Urho3D::AnimatedSprite2D</text>
</g>
<!-- Node2 -->
<g id="node2" class="node"><title>Node2</title>
<a xlink:href="class_urho3_d_1_1_static_sprite2_d.html" target="_top" xlink:title="Static sprite component.">
<polygon fill="none" stroke="black" points="1126.5,-500.5 1126.5,-521.5 1255.5,-521.5 1255.5,-500.5 1126.5,-500.5"/>
<text text-anchor="middle" x="1191" y="-508.5" font-family="FreeSans" font-size="10.00">Urho3D::StaticSprite2D</text>
</a>
</g>
<!-- Node2&#45;&gt;Node1 -->
<g id="edge2" class="edge"><title>Node2&#45;&gt;Node1</title>
<path fill="none" stroke="midnightblue" d="M1223.19,-496.259C1311.27,-455.929 1554.72,-344.459 1630.9,-309.577"/>
<polygon fill="midnightblue" stroke="midnightblue" points="1221.6,-493.141 1213.96,-500.487 1224.51,-499.506 1221.6,-493.141"/>
</g>
<!-- Node3 -->
<g id="node4" class="node"><title>Node3</title>
<a xlink:href="class_urho3_d_1_1_drawable2_d.html" target="_top" xlink:title="Base class for 2D visible components.">
<polygon fill="none" stroke="black" points="860.5,-478.5 860.5,-499.5 977.5,-499.5 977.5,-478.5 860.5,-478.5"/>
<text text-anchor="middle" x="919" y="-486.5" font-family="FreeSans" font-size="10.00">Urho3D::Drawable2D</text>
</a>
</g>
<!-- Node3&#45;&gt;Node2 -->
<g id="edge4" class="edge"><title>Node3&#45;&gt;Node2</title>
<path fill="none" stroke="midnightblue" d="M987.673,-494.554C1030.19,-497.994 1084.46,-502.383 1126.23,-505.761"/>
<polygon fill="midnightblue" stroke="midnightblue" points="987.935,-491.064 977.685,-493.747 987.37,-498.041 987.935,-491.064"/>
</g>
<!-- Node4 -->
<g id="node6" class="node"><title>Node4</title>
<a xlink:href="class_urho3_d_1_1_drawable.html" target="_top" xlink:title="Base class for visible components.">
<polygon fill="none" stroke="red" points="599,-521.5 599,-542.5 703,-542.5 703,-521.5 599,-521.5"/>
<text text-anchor="middle" x="651" y="-529.5" font-family="FreeSans" font-size="10.00">Urho3D::Drawable</text>
</a>
</g>
<!-- Node4&#45;&gt;Node3 -->
<g id="edge6" class="edge"><title>Node4&#45;&gt;Node3</title>
<path fill="none" stroke="midnightblue" d="M713.383,-521.991C757.705,-514.879 816.83,-505.393 860.3,-498.418"/>
<polygon fill="midnightblue" stroke="midnightblue" points="712.629,-518.567 703.309,-523.607 713.738,-525.479 712.629,-518.567"/>
</g>
<!-- Node5 -->
<g id="node8" class="node"><title>Node5</title>
<a xlink:href="class_urho3_d_1_1_vector.html" target="_top" xlink:title="Urho3D::Vector\&lt; Urho3D\l::SourceBatch2D \&gt;">
<polygon fill="none" stroke="red" points="582,-469 582,-503 720,-503 720,-469 582,-469"/>
<text text-anchor="start" x="590" y="-490" font-family="FreeSans" font-size="10.00">Urho3D::Vector&lt; Urho3D</text>
<text text-anchor="middle" x="651" y="-477" font-family="FreeSans" font-size="10.00">::SourceBatch2D &gt;</text>
</a>
</g>
<!-- Node5&#45;&gt;Node3 -->
<g id="edge8" class="edge"><title>Node5&#45;&gt;Node3</title>
<path fill="none" stroke="#9a32cd" stroke-dasharray="5,2" d="M730.138,-486.886C771.806,-487.352 822.029,-487.915 860.207,-488.342"/>
<polygon fill="#9a32cd" stroke="#9a32cd" points="730.055,-483.385 720.017,-486.773 729.977,-490.384 730.055,-483.385"/>
<text text-anchor="middle" x="782" y="-491" font-family="FreeSans" font-size="10.00"> sourceBatches_</text>
</g>
<!-- Node6 -->
<g id="node10" class="node"><title>Node6</title>
<a xlink:href="class_urho3_d_1_1_weak_ptr.html" target="_top" xlink:title="Urho3D::WeakPtr\&lt; Urho3D\l::Renderer2D \&gt;">
<polygon fill="none" stroke="red" points="578,-561 578,-595 724,-595 724,-561 578,-561"/>
<text text-anchor="start" x="586" y="-582" font-family="FreeSans" font-size="10.00">Urho3D::WeakPtr&lt; Urho3D</text>
<text text-anchor="middle" x="651" y="-569" font-family="FreeSans" font-size="10.00">::Renderer2D &gt;</text>
</a>
</g>
<!-- Node6&#45;&gt;Node3 -->
<g id="edge10" class="edge"><title>Node6&#45;&gt;Node3</title>
<path fill="none" stroke="#9a32cd" stroke-dasharray="5,2" d="M733.797,-559.998C762.802,-551.738 794.882,-540.297 822,-525 831.323,-519.741 830.542,-514.012 840,-509 847.126,-505.224 854.995,-502.138 862.923,-499.622"/>
<polygon fill="#9a32cd" stroke="#9a32cd" points="732.798,-556.643 724.09,-562.679 734.661,-563.391 732.798,-556.643"/>
<text text-anchor="middle" x="782" y="-560" font-family="FreeSans" font-size="10.00"> renderer_</text>
</g>
<!-- Node7 -->
<g id="node12" class="node"><title>Node7</title>
<a xlink:href="class_urho3_d_1_1_vector2.html" target="_top" xlink:title="Two&#45;dimensional vector.">
<polygon fill="none" stroke="black" points="337,-690.5 337,-711.5 433,-711.5 433,-690.5 337,-690.5"/>
<text text-anchor="middle" x="385" y="-698.5" font-family="FreeSans" font-size="10.00">Urho3D::Vector2</text>
</a>
</g>
<!-- Node7&#45;&gt;Node2 -->
<g id="edge12" class="edge"><title>Node7&#45;&gt;Node2</title>
<path fill="none" stroke="#9a32cd" stroke-dasharray="5,2" d="M428.488,-714.477C529.574,-743.826 787.774,-807.38 998,-762 1048.55,-751.088 1067.8,-750.938 1104,-714 1160.89,-655.94 1183.22,-554.826 1189.22,-521.784"/>
<polygon fill="#9a32cd" stroke="#9a32cd" points="429.218,-711.044 418.637,-711.58 427.243,-717.759 429.218,-711.044"/>
<text text-anchor="middle" x="782" y="-781" font-family="FreeSans" font-size="10.00"> hotSpot_</text>
</g>
<!-- Node7&#45;&gt;Node7 -->
<g id="edge14" class="edge"><title>Node7&#45;&gt;Node7</title>
<path fill="none" stroke="#9a32cd" stroke-dasharray="5,2" d="M359.063,-721.055C360.764,-726.164 369.41,-730 385,-730 409.336,-730 416.751,-720.653 407.245,-711.708"/>
<polygon fill="#9a32cd" stroke="#9a32cd" points="362.336,-722.294 362.755,-711.708 355.826,-719.722 362.336,-722.294"/>
<text text-anchor="middle" x="385" y="-799" font-family="FreeSans" font-size="10.00"> ONE</text>
<text text-anchor="middle" x="385" y="-786" font-family="FreeSans" font-size="10.00">DOWN</text>
<text text-anchor="middle" x="385" y="-773" font-family="FreeSans" font-size="10.00">RIGHT</text>
<text text-anchor="middle" x="385" y="-760" font-family="FreeSans" font-size="10.00">LEFT</text>
<text text-anchor="middle" x="385" y="-747" font-family="FreeSans" font-size="10.00">ZERO</text>
<text text-anchor="middle" x="385" y="-734" font-family="FreeSans" font-size="10.00">UP</text>
</g>
<!-- Node9 -->
<g id="node17" class="node"><title>Node9</title>
<a xlink:href="class_urho3_d_1_1_sprite2_d.html" target="_top" xlink:title="Sprite.">
<polygon fill="none" stroke="red" points="600.5,-429.5 600.5,-450.5 701.5,-450.5 701.5,-429.5 600.5,-429.5"/>
<text text-anchor="middle" x="651" y="-437.5" font-family="FreeSans" font-size="10.00">Urho3D::Sprite2D</text>
</a>
</g>
<!-- Node7&#45;&gt;Node9 -->
<g id="edge26" class="edge"><title>Node7&#45;&gt;Node9</title>
<path fill="none" stroke="#9a32cd" stroke-dasharray="5,2" d="M395.001,-681.407C419.55,-635.332 487.442,-519.522 578,-460 584.698,-455.597 592.349,-452.157 600.119,-449.471"/>
<polygon fill="#9a32cd" stroke="#9a32cd" points="391.844,-679.89 390.305,-690.373 398.045,-683.138 391.844,-679.89"/>
<text text-anchor="middle" x="525" y="-542" font-family="FreeSans" font-size="10.00"> hotSpot_</text>
</g>
<!-- Node8 -->
<g id="node15" class="node"><title>Node8</title>
<a xlink:href="class_urho3_d_1_1_shared_ptr.html" target="_top" xlink:title="Urho3D::SharedPtr\&lt;\l Urho3D::Sprite2D \&gt;">
<polygon fill="none" stroke="black" points="861,-426 861,-460 977,-460 977,-426 861,-426"/>
<text text-anchor="start" x="869" y="-447" font-family="FreeSans" font-size="10.00">Urho3D::SharedPtr&lt;</text>
<text text-anchor="middle" x="919" y="-434" font-family="FreeSans" font-size="10.00"> Urho3D::Sprite2D &gt;</text>
</a>
</g>
<!-- Node8&#45;&gt;Node2 -->
<g id="edge16" class="edge"><title>Node8&#45;&gt;Node2</title>
<path fill="none" stroke="#9a32cd" stroke-dasharray="5,2" d="M987.168,-454.194C1022.35,-460.584 1065.79,-469.43 1104,-480 1124.71,-485.728 1147.57,-493.953 1164.67,-500.492"/>
<polygon fill="#9a32cd" stroke="#9a32cd" points="987.465,-450.691 977.005,-452.374 986.232,-457.582 987.465,-450.691"/>
<text text-anchor="middle" x="1060" y="-484" font-family="FreeSans" font-size="10.00"> sprite_</text>
</g>
<!-- Node16 -->
<g id="node35" class="node"><title>Node16</title>
<a xlink:href="class_urho3_d_1_1_animation_set2_d.html" target="_top" xlink:title="Spriter animation set, it includes one or more animations, for more information please refer to http:...">
<polygon fill="none" stroke="black" points="1122,-335.5 1122,-356.5 1260,-356.5 1260,-335.5 1122,-335.5"/>
<text text-anchor="middle" x="1191" y="-343.5" font-family="FreeSans" font-size="10.00">Urho3D::AnimationSet2D</text>
</a>
</g>
<!-- Node8&#45;&gt;Node16 -->
<g id="edge44" class="edge"><title>Node8&#45;&gt;Node16</title>
<path fill="none" stroke="#9a32cd" stroke-dasharray="5,2" d="M987.526,-437.732C1023.34,-433.184 1067.25,-424.724 1104,-409 1134.35,-396.017 1164.32,-370.87 1179.93,-356.587"/>
<polygon fill="#9a32cd" stroke="#9a32cd" points="986.686,-434.308 977.171,-438.968 987.516,-441.258 986.686,-434.308"/>
<text text-anchor="middle" x="1060" y="-436" font-family="FreeSans" font-size="10.00"> sprite_</text>
</g>
<!-- Node9&#45;&gt;Node8 -->
<g id="edge18" class="edge"><title>Node9&#45;&gt;Node8</title>
<path fill="none" stroke="#9a32cd" stroke-dasharray="5,2" d="M711.841,-440.681C756.413,-441.18 816.558,-441.853 860.557,-442.346"/>
<polygon fill="#9a32cd" stroke="#9a32cd" points="711.762,-437.18 701.724,-440.568 711.684,-444.18 711.762,-437.18"/>
<text text-anchor="middle" x="782" y="-445" font-family="FreeSans" font-size="10.00"> ptr_</text>
</g>
<!-- Node10 -->
<g id="node19" class="node"><title>Node10</title>
<a xlink:href="class_urho3_d_1_1_resource.html" target="_top" xlink:title="Base class for resources.">
<polygon fill="none" stroke="red" points="333.5,-409.5 333.5,-430.5 436.5,-430.5 436.5,-409.5 333.5,-409.5"/>
<text text-anchor="middle" x="385" y="-417.5" font-family="FreeSans" font-size="10.00">Urho3D::Resource</text>
</a>
</g>
<!-- Node10&#45;&gt;Node9 -->
<g id="edge20" class="edge"><title>Node10&#45;&gt;Node9</title>
<path fill="none" stroke="midnightblue" d="M446.599,-424.632C493.301,-428.143 556.697,-432.91 600.444,-436.199"/>
<polygon fill="midnightblue" stroke="midnightblue" points="446.837,-421.14 436.603,-423.88 446.312,-428.12 446.837,-421.14"/>
</g>
<!-- Node13 -->
<g id="node27" class="node"><title>Node13</title>
<a xlink:href="class_urho3_d_1_1_material.html" target="_top" xlink:title="Describes how to render 3D geometries.">
<polygon fill="none" stroke="red" points="602,-713.5 602,-734.5 700,-734.5 700,-713.5 602,-713.5"/>
<text text-anchor="middle" x="651" y="-721.5" font-family="FreeSans" font-size="10.00">Urho3D::Material</text>
</a>
</g>
<!-- Node10&#45;&gt;Node13 -->
<g id="edge32" class="edge"><title>Node10&#45;&gt;Node13</title>
<path fill="none" stroke="midnightblue" d="M421.032,-434.686C460.993,-452.824 524.493,-487.47 560,-537 577.965,-562.06 565.865,-575.655 578,-604 596.426,-647.042 628.276,-693.021 643.049,-713.32"/>
<polygon fill="midnightblue" stroke="midnightblue" points="422.218,-431.383 411.657,-430.537 419.385,-437.785 422.218,-431.383"/>
</g>
<!-- Node10&#45;&gt;Node16 -->
<g id="edge42" class="edge"><title>Node10&#45;&gt;Node16</title>
<path fill="none" stroke="midnightblue" d="M447.117,-417.552C557.991,-412.802 797.177,-400.834 998,-379 1046.33,-373.746 1100.88,-364.065 1139.63,-356.542"/>
<polygon fill="midnightblue" stroke="midnightblue" points="446.637,-414.069 436.794,-417.989 446.933,-421.063 446.637,-414.069"/>
</g>
<!-- Node11 -->
<g id="node21" class="node"><title>Node11</title>
<a xlink:href="class_urho3_d_1_1_string.html" target="_top" xlink:title="String class.">
<polygon fill="none" stroke="black" points="41,-226.5 41,-247.5 129,-247.5 129,-226.5 41,-226.5"/>
<text text-anchor="middle" x="85" y="-234.5" font-family="FreeSans" font-size="10.00">Urho3D::String</text>
</a>
</g>
<!-- Node11&#45;&gt;Node1 -->
<g id="edge52" class="edge"><title>Node11&#45;&gt;Node1</title>
<path fill="none" stroke="#9a32cd" stroke-dasharray="5,2" d="M128.721,-250.377C146.892,-255.433 168.302,-260.747 188,-264 274.604,-278.301 297.224,-278 385,-278 385,-278 385,-278 1394,-278 1456.83,-278 1527.93,-284.169 1579.88,-289.82"/>
<polygon fill="#9a32cd" stroke="#9a32cd" points="129.567,-246.978 118.99,-247.609 127.651,-253.711 129.567,-246.978"/>
<text text-anchor="middle" x="919" y="-295" font-family="FreeSans" font-size="10.00"> animationName_</text>
<text text-anchor="middle" x="919" y="-282" font-family="FreeSans" font-size="10.00">entity_</text>
</g>
<!-- Node11&#45;&gt;Node10 -->
<g id="edge22" class="edge"><title>Node11&#45;&gt;Node10</title>
<path fill="none" stroke="#9a32cd" stroke-dasharray="5,2" d="M111.296,-253.04C171.323,-289.657 317.135,-378.602 367.526,-409.341"/>
<polygon fill="#9a32cd" stroke="#9a32cd" points="112.786,-249.85 102.426,-247.63 109.14,-255.825 112.786,-249.85"/>
<text text-anchor="middle" x="234" y="-359" font-family="FreeSans" font-size="10.00"> name_</text>
</g>
<!-- Node11&#45;&gt;Node11 -->
<g id="edge24" class="edge"><title>Node11&#45;&gt;Node11</title>
<path fill="none" stroke="#9a32cd" stroke-dasharray="5,2" d="M57.5805,-257.055C59.3791,-262.164 68.5189,-266 85,-266 110.727,-266 118.565,-256.653 108.516,-247.708"/>
<polygon fill="#9a32cd" stroke="#9a32cd" points="60.8601,-258.284 61.4843,-247.708 54.4008,-255.587 60.8601,-258.284"/>
<text text-anchor="middle" x="85" y="-270" font-family="FreeSans" font-size="10.00"> EMPTY</text>
</g>
<!-- Node17 -->
<g id="node39" class="node"><title>Node17</title>
<a xlink:href="struct_urho3_d_1_1_spriter_1_1_spriter_data.html" target="_top" xlink:title="Spriter data.">
<polygon fill="none" stroke="red" points="308.5,-226.5 308.5,-247.5 461.5,-247.5 461.5,-226.5 308.5,-226.5"/>
<text text-anchor="middle" x="385" y="-234.5" font-family="FreeSans" font-size="10.00">Urho3D::Spriter::SpriterData</text>
</a>
</g>
<!-- Node11&#45;&gt;Node17 -->
<g id="edge48" class="edge"><title>Node11&#45;&gt;Node17</title>
<path fill="none" stroke="#9a32cd" stroke-dasharray="5,2" d="M139.29,-237C186.487,-237 255.393,-237 308.232,-237"/>
<polygon fill="#9a32cd" stroke="#9a32cd" points="139.266,-233.5 129.266,-237 139.266,-240.5 139.266,-233.5"/>
<text text-anchor="middle" x="234" y="-254" font-family="FreeSans" font-size="10.00"> generatorVersion_</text>
<text text-anchor="middle" x="234" y="-241" font-family="FreeSans" font-size="10.00">generator_</text>
</g>
<!-- Node20 -->
<g id="node47" class="node"><title>Node20</title>
<a xlink:href="struct_urho3_d_1_1_spriter_1_1_entity.html" target="_top" xlink:title="Entity.">
<polygon fill="none" stroke="red" points="322.5,-120.5 322.5,-141.5 447.5,-141.5 447.5,-120.5 322.5,-120.5"/>
<text text-anchor="middle" x="385" y="-128.5" font-family="FreeSans" font-size="10.00">Urho3D::Spriter::Entity</text>
</a>
</g>
<!-- Node11&#45;&gt;Node20 -->
<g id="edge60" class="edge"><title>Node11&#45;&gt;Node20</title>
<path fill="none" stroke="#9a32cd" stroke-dasharray="5,2" d="M139.382,-225.298C188.955,-213.842 257.742,-195.721 280,-179 291.828,-170.114 285.897,-159.508 298,-151 305.227,-145.92 313.549,-142.11 322.12,-139.258"/>
<polygon fill="#9a32cd" stroke="#9a32cd" points="138.402,-221.932 129.431,-227.568 139.959,-228.756 138.402,-221.932"/>
<text text-anchor="middle" x="234" y="-217" font-family="FreeSans" font-size="10.00"> name_</text>
</g>
<!-- Node24 -->
<g id="node57" class="node"><title>Node24</title>
<a xlink:href="struct_urho3_d_1_1_spriter_1_1_animation.html" target="_top" xlink:title="Animation.">
<polygon fill="none" stroke="red" points="312,-40.5 312,-61.5 458,-61.5 458,-40.5 312,-40.5"/>
<text text-anchor="middle" x="385" y="-48.5" font-family="FreeSans" font-size="10.00">Urho3D::Spriter::Animation</text>
</a>
</g>
<!-- Node11&#45;&gt;Node24 -->
<g id="edge70" class="edge"><title>Node11&#45;&gt;Node24</title>
<path fill="none" stroke="#9a32cd" stroke-dasharray="5,2" d="M103.57,-219.633C123.089,-202.358 155.431,-176.408 188,-162 226.182,-145.108 249.873,-171.907 280,-143 303.801,-120.163 274.455,-94.101 298,-71 302.093,-66.984 306.82,-63.711 311.913,-61.0503"/>
<polygon fill="#9a32cd" stroke="#9a32cd" points="101.101,-217.147 96.0266,-226.447 105.794,-222.341 101.101,-217.147"/>
<text text-anchor="middle" x="234" y="-166" font-family="FreeSans" font-size="10.00"> name_</text>
</g>
<!-- Node12 -->
<g id="node25" class="node"><title>Node12</title>
<a xlink:href="class_urho3_d_1_1_shared_ptr.html" target="_top" xlink:title="Urho3D::SharedPtr\&lt;\l Urho3D::Material \&gt;">
<polygon fill="none" stroke="black" points="861,-719 861,-753 977,-753 977,-719 861,-719"/>
<text text-anchor="start" x="869" y="-740" font-family="FreeSans" font-size="10.00">Urho3D::SharedPtr&lt;</text>
<text text-anchor="middle" x="919" y="-727" font-family="FreeSans" font-size="10.00"> Urho3D::Material &gt;</text>
</a>
</g>
<!-- Node12&#45;&gt;Node2 -->
<g id="edge28" class="edge"><title>Node12&#45;&gt;Node2</title>
<path fill="none" stroke="#9a32cd" stroke-dasharray="5,2" d="M986.158,-716.486C990.266,-714.506 994.25,-712.348 998,-710 1084.48,-655.86 1160.09,-554.917 1183.52,-521.817"/>
<polygon fill="#9a32cd" stroke="#9a32cd" points="984.731,-713.29 977.008,-720.542 987.568,-719.689 984.731,-713.29"/>
<text text-anchor="middle" x="1060" y="-701" font-family="FreeSans" font-size="10.00"> customMaterial_</text>
</g>
<!-- Node13&#45;&gt;Node12 -->
<g id="edge30" class="edge"><title>Node13&#45;&gt;Node12</title>
<path fill="none" stroke="#9a32cd" stroke-dasharray="5,2" d="M710.313,-726.656C755.121,-728.662 816.3,-731.401 860.827,-733.395"/>
<polygon fill="#9a32cd" stroke="#9a32cd" points="710.302,-723.152 700.155,-726.201 709.989,-730.145 710.302,-723.152"/>
<text text-anchor="middle" x="782" y="-735" font-family="FreeSans" font-size="10.00"> ptr_</text>
</g>
<!-- Node14 -->
<g id="node30" class="node"><title>Node14</title>
<a xlink:href="class_urho3_d_1_1_color.html" target="_top" xlink:title="RGBA color.">
<polygon fill="none" stroke="black" points="877,-518.5 877,-539.5 961,-539.5 961,-518.5 877,-518.5"/>
<text text-anchor="middle" x="919" y="-526.5" font-family="FreeSans" font-size="10.00">Urho3D::Color</text>
</a>
</g>
<!-- Node14&#45;&gt;Node2 -->
<g id="edge34" class="edge"><title>Node14&#45;&gt;Node2</title>
<path fill="none" stroke="#9a32cd" stroke-dasharray="5,2" d="M971.443,-525.53C1015.64,-522.605 1079.07,-518.407 1126.39,-515.275"/>
<polygon fill="#9a32cd" stroke="#9a32cd" points="970.949,-522.054 961.202,-526.207 971.411,-529.039 970.949,-522.054"/>
<text text-anchor="middle" x="1060" y="-526" font-family="FreeSans" font-size="10.00"> color_</text>
</g>
<!-- Node14&#45;&gt;Node14 -->
<g id="edge36" class="edge"><title>Node14&#45;&gt;Node14</title>
<path fill="none" stroke="#9a32cd" stroke-dasharray="5,2" d="M893.804,-549.055C895.456,-554.164 903.855,-558 919,-558 942.641,-558 949.844,-548.653 940.609,-539.708"/>
<polygon fill="#9a32cd" stroke="#9a32cd" points="897.076,-550.298 897.391,-539.708 890.54,-547.79 897.076,-550.298"/>
<text text-anchor="middle" x="919" y="-692" font-family="FreeSans" font-size="10.00"> CYAN</text>
<text text-anchor="middle" x="919" y="-679" font-family="FreeSans" font-size="10.00">GRAY</text>
<text text-anchor="middle" x="919" y="-666" font-family="FreeSans" font-size="10.00">YELLOW</text>
<text text-anchor="middle" x="919" y="-653" font-family="FreeSans" font-size="10.00">MAGENTA</text>
<text text-anchor="middle" x="919" y="-640" font-family="FreeSans" font-size="10.00">WHITE</text>
<text text-anchor="middle" x="919" y="-627" font-family="FreeSans" font-size="10.00">TRANSPARENT</text>
<text text-anchor="middle" x="919" y="-614" font-family="FreeSans" font-size="10.00">BLUE</text>
<text text-anchor="middle" x="919" y="-601" font-family="FreeSans" font-size="10.00">BLACK</text>
<text text-anchor="middle" x="919" y="-588" font-family="FreeSans" font-size="10.00">RED</text>
<text text-anchor="middle" x="919" y="-575" font-family="FreeSans" font-size="10.00">GREEN</text>
<text text-anchor="middle" x="919" y="-562" font-family="FreeSans" font-size="10.00">...</text>
</g>
<!-- Node15 -->
<g id="node33" class="node"><title>Node15</title>
<a xlink:href="class_urho3_d_1_1_shared_ptr.html" target="_top" xlink:title="Urho3D::SharedPtr\&lt;\l Urho3D::AnimationSet2D \&gt;">
<polygon fill="none" stroke="black" points="1318,-313 1318,-347 1470,-347 1470,-313 1318,-313"/>
<text text-anchor="start" x="1326" y="-334" font-family="FreeSans" font-size="10.00">Urho3D::SharedPtr&lt;</text>
<text text-anchor="middle" x="1394" y="-321" font-family="FreeSans" font-size="10.00"> Urho3D::AnimationSet2D &gt;</text>
</a>
</g>
<!-- Node15&#45;&gt;Node1 -->
<g id="edge38" class="edge"><title>Node15&#45;&gt;Node1</title>
<path fill="none" stroke="#9a32cd" stroke-dasharray="5,2" d="M1480.56,-319.68C1512.77,-315.839 1549,-311.519 1579.99,-307.824"/>
<polygon fill="#9a32cd" stroke="#9a32cd" points="1479.77,-316.249 1470.25,-320.908 1480.6,-323.2 1479.77,-316.249"/>
<text text-anchor="middle" x="1525" y="-322" font-family="FreeSans" font-size="10.00"> animationSet_</text>
</g>
<!-- Node16&#45;&gt;Node15 -->
<g id="edge40" class="edge"><title>Node16&#45;&gt;Node15</title>
<path fill="none" stroke="#9a32cd" stroke-dasharray="5,2" d="M1270.19,-339.759C1285.87,-338.523 1302.29,-337.228 1317.87,-336.001"/>
<polygon fill="#9a32cd" stroke="#9a32cd" points="1269.7,-336.286 1260.01,-340.561 1270.25,-343.264 1269.7,-336.286"/>
<text text-anchor="middle" x="1289" y="-342" font-family="FreeSans" font-size="10.00"> ptr_</text>
</g>
<!-- Node17&#45;&gt;Node16 -->
<g id="edge46" class="edge"><title>Node17&#45;&gt;Node16</title>
<path fill="none" stroke="#9a32cd" stroke-dasharray="5,2" d="M472.035,-228.822C592.194,-219.972 814.821,-212.401 998,-256 1067.59,-272.564 1142.25,-315.507 1174.55,-335.488"/>
<polygon fill="#9a32cd" stroke="#9a32cd" points="471.501,-225.352 461.794,-229.597 472.03,-232.332 471.501,-225.352"/>
<text text-anchor="middle" x="782" y="-233" font-family="FreeSans" font-size="10.00"> spriterData_</text>
</g>
<!-- Node19 -->
<g id="node45" class="node"><title>Node19</title>
<a xlink:href="class_urho3_d_1_1_spriter_1_1_spriter_instance.html" target="_top" xlink:title="Spriter instance.">
<polygon fill="none" stroke="black" points="586,-114 586,-148 716,-148 716,-114 586,-114"/>
<text text-anchor="start" x="594" y="-135" font-family="FreeSans" font-size="10.00">Urho3D::Spriter::Spriter</text>
<text text-anchor="middle" x="651" y="-122" font-family="FreeSans" font-size="10.00">Instance</text>
</a>
</g>
<!-- Node17&#45;&gt;Node19 -->
<g id="edge64" class="edge"><title>Node17&#45;&gt;Node19</title>
<path fill="none" stroke="#9a32cd" stroke-dasharray="5,2" d="M454.119,-223.558C460.26,-221.633 466.303,-219.456 472,-217 480.829,-213.194 481.408,-209.316 490,-205 519.52,-190.171 529.815,-193.425 560,-180 581.313,-170.521 604.447,-158.033 622.056,-148.037"/>
<polygon fill="#9a32cd" stroke="#9a32cd" points="453.047,-220.224 444.423,-226.379 455.003,-226.945 453.047,-220.224"/>
<text text-anchor="middle" x="525" y="-209" font-family="FreeSans" font-size="10.00"> spriterData_</text>
</g>
<!-- Node18 -->
<g id="node42" class="node"><title>Node18</title>
<a xlink:href="class_urho3_d_1_1_hash_map.html" target="_top" xlink:title="Urho3D::HashMap\&lt; int,\l Urho3D::SharedPtr\&lt; Urho3D\l::Sprite2D \&gt; \&gt;">
<polygon fill="none" stroke="red" points="840,-322.5 840,-369.5 998,-369.5 998,-322.5 840,-322.5"/>
<text text-anchor="start" x="848" y="-356.5" font-family="FreeSans" font-size="10.00">Urho3D::HashMap&lt; int,</text>
<text text-anchor="start" x="848" y="-343.5" font-family="FreeSans" font-size="10.00"> Urho3D::SharedPtr&lt; Urho3D</text>
<text text-anchor="middle" x="919" y="-330.5" font-family="FreeSans" font-size="10.00">::Sprite2D &gt; &gt;</text>
</a>
</g>
<!-- Node18&#45;&gt;Node16 -->
<g id="edge50" class="edge"><title>Node18&#45;&gt;Node16</title>
<path fill="none" stroke="#9a32cd" stroke-dasharray="5,2" d="M1008.31,-346C1045.25,-346 1087.42,-346 1121.93,-346"/>
<polygon fill="#9a32cd" stroke="#9a32cd" points="1008.04,-342.5 998.039,-346 1008.04,-349.5 1008.04,-342.5"/>
<text text-anchor="middle" x="1060" y="-350" font-family="FreeSans" font-size="10.00"> spriterFileSprites_</text>
</g>
<!-- Node19&#45;&gt;Node1 -->
<g id="edge54" class="edge"><title>Node19&#45;&gt;Node1</title>
<path fill="none" stroke="#9a32cd" stroke-dasharray="5,2" d="M726.098,-144.804C779.668,-153.465 853.519,-163 919,-163 919,-163 919,-163 1394,-163 1502,-163 1609.43,-256.268 1643.17,-288.328"/>
<polygon fill="#9a32cd" stroke="#9a32cd" points="726.436,-141.313 716,-143.143 725.3,-148.22 726.436,-141.313"/>
<text text-anchor="middle" x="1191" y="-167" font-family="FreeSans" font-size="10.00"> spriterInstance_</text>
</g>
<!-- Node20&#45;&gt;Node19 -->
<g id="edge56" class="edge"><title>Node20&#45;&gt;Node19</title>
<path fill="none" stroke="#9a32cd" stroke-dasharray="5,2" d="M457.936,-131C497.978,-131 547.213,-131 585.942,-131"/>
<polygon fill="#9a32cd" stroke="#9a32cd" points="457.701,-127.5 447.701,-131 457.701,-134.5 457.701,-127.5"/>
<text text-anchor="middle" x="525" y="-135" font-family="FreeSans" font-size="10.00"> entity_</text>
</g>
<!-- Node21 -->
<g id="node49" class="node"><title>Node21</title>
<a xlink:href="class_urho3_d_1_1_p_o_d_vector.html" target="_top" xlink:title="Urho3D::PODVector\&lt;\l Urho3D::Spriter::Animation * \&gt;">
<polygon fill="none" stroke="red" points="0.5,-112 0.5,-146 169.5,-146 169.5,-112 0.5,-112"/>
<text text-anchor="start" x="8.5" y="-133" font-family="FreeSans" font-size="10.00">Urho3D::PODVector&lt;</text>
<text text-anchor="middle" x="85" y="-120" font-family="FreeSans" font-size="10.00"> Urho3D::Spriter::Animation * &gt;</text>
</a>
</g>
<!-- Node21&#45;&gt;Node20 -->
<g id="edge58" class="edge"><title>Node21&#45;&gt;Node20</title>
<path fill="none" stroke="#9a32cd" stroke-dasharray="5,2" d="M180.117,-129.404C211.88,-129.561 247.467,-129.762 280,-130 293.672,-130.1 308.345,-130.227 322.26,-130.357"/>
<polygon fill="#9a32cd" stroke="#9a32cd" points="179.964,-125.903 169.947,-129.355 179.93,-132.903 179.964,-125.903"/>
<text text-anchor="middle" x="234" y="-134" font-family="FreeSans" font-size="10.00"> animations_</text>
</g>
<!-- Node22 -->
<g id="node52" class="node"><title>Node22</title>
<a xlink:href="class_urho3_d_1_1_p_o_d_vector.html" target="_top" xlink:title="Urho3D::PODVector\&lt;\l Urho3D::Spriter::SpatialTimeline\lKey * \&gt;">
<polygon fill="none" stroke="red" points="298.5,-160.5 298.5,-207.5 471.5,-207.5 471.5,-160.5 298.5,-160.5"/>
<text text-anchor="start" x="306.5" y="-194.5" font-family="FreeSans" font-size="10.00">Urho3D::PODVector&lt;</text>
<text text-anchor="start" x="306.5" y="-181.5" font-family="FreeSans" font-size="10.00"> Urho3D::Spriter::SpatialTimeline</text>
<text text-anchor="middle" x="385" y="-168.5" font-family="FreeSans" font-size="10.00">Key * &gt;</text>
</a>
</g>
<!-- Node22&#45;&gt;Node19 -->
<g id="edge62" class="edge"><title>Node22&#45;&gt;Node19</title>
<path fill="none" stroke="#9a32cd" stroke-dasharray="5,2" d="M481.865,-164.7C516.471,-157.805 554.608,-150.206 585.895,-143.972"/>
<polygon fill="#9a32cd" stroke="#9a32cd" points="480.854,-161.332 471.73,-166.719 482.221,-168.198 480.854,-161.332"/>
<text text-anchor="middle" x="525" y="-167" font-family="FreeSans" font-size="10.00"> timelineKeys_</text>
</g>
<!-- Node23 -->
<g id="node55" class="node"><title>Node23</title>
<a xlink:href="struct_urho3_d_1_1_spriter_1_1_mainline_key.html" target="_top" xlink:title="Mainline key.">
<polygon fill="none" stroke="red" points="308.5,-80.5 308.5,-101.5 461.5,-101.5 461.5,-80.5 308.5,-80.5"/>
<text text-anchor="middle" x="385" y="-88.5" font-family="FreeSans" font-size="10.00">Urho3D::Spriter::MainlineKey</text>
</a>
</g>
<!-- Node23&#45;&gt;Node19 -->
<g id="edge66" class="edge"><title>Node23&#45;&gt;Node19</title>
<path fill="none" stroke="#9a32cd" stroke-dasharray="5,2" d="M472.005,-101.493C500.132,-105.137 531.43,-109.457 560,-114 568.412,-115.338 577.242,-116.85 585.956,-118.407"/>
<polygon fill="#9a32cd" stroke="#9a32cd" points="472.161,-97.9846 461.796,-100.182 471.269,-104.928 472.161,-97.9846"/>
<text text-anchor="middle" x="525" y="-118" font-family="FreeSans" font-size="10.00"> mainlineKey_</text>
</g>
<!-- Node24&#45;&gt;Node19 -->
<g id="edge68" class="edge"><title>Node24&#45;&gt;Node19</title>
<path fill="none" stroke="#9a32cd" stroke-dasharray="5,2" d="M463.084,-63.4734C493.73,-69.4099 528.933,-77.5356 560,-88 580.368,-94.8606 602.171,-105.055 619.328,-113.796"/>
<polygon fill="#9a32cd" stroke="#9a32cd" points="463.355,-59.9626 452.879,-61.5439 462.054,-66.8408 463.355,-59.9626"/>
<text text-anchor="middle" x="525" y="-92" font-family="FreeSans" font-size="10.00"> animation_</text>
</g>
<!-- Node25 -->
<g id="node60" class="node"><title>Node25</title>
<a xlink:href="struct_urho3_d_1_1_spriter_1_1_spatial_info.html" target="_top" xlink:title="Spatial info.">
<polygon fill="none" stroke="black" points="311,-0.5 311,-21.5 459,-21.5 459,-0.5 311,-0.5"/>
<text text-anchor="middle" x="385" y="-8.5" font-family="FreeSans" font-size="10.00">Urho3D::Spriter::SpatialInfo</text>
</a>
</g>
<!-- Node25&#45;&gt;Node19 -->
<g id="edge72" class="edge"><title>Node25&#45;&gt;Node19</title>
<path fill="none" stroke="#9a32cd" stroke-dasharray="5,2" d="M469.273,-22.6885C499.055,-28.996 532.067,-38.5709 560,-53 590.134,-68.5659 618.787,-95.9316 635.628,-113.76"/>
<polygon fill="#9a32cd" stroke="#9a32cd" points="469.804,-19.2251 459.309,-20.6724 468.416,-26.0861 469.804,-19.2251"/>
<text text-anchor="middle" x="525" y="-57" font-family="FreeSans" font-size="10.00"> spatialInfo_</text>
</g>
</g>
</svg>
        <g id="navigator" transform="translate(0 0)" fill="#404254">
                <rect fill="#f2f5e9" fill-opacity="0.5" stroke="#606060" stroke-width=".5" x="0" y="0" width="60" height="60"/>
                <use id="zoomplus" xlink:href="#zoomPlus" x="17" y="9" onmousedown="handleZoom(evt,'in')"/>
                <use id="zoomminus" xlink:href="#zoomMin" x="42" y="9" onmousedown="handleZoom(evt,'out')"/>
                <use id="reset" xlink:href="#resetDef" x="30" y="36" onmousedown="handleReset()"/>
                <g id="arrowUp" xlink:href="#dirArrow" transform="translate(30 24)" onmousedown="handlePan(0,-1)">
                  <use xlink:href="#rim" fill="#404040">
                        <set attributeName="fill" to="#808080" begin="arrowUp.mouseover" end="arrowUp.mouseout"/>
                  </use>
                  <path fill="none" stroke="white" stroke-width="1.5" d="M0,-3.0v7 M-2.5,-0.5L0,-3.0L2.5,-0.5"/>
                </g>
                <g id="arrowRight" xlink:href="#dirArrow" transform="rotate(90) translate(36 -43)" onmousedown="handlePan(1,0)">
                  <use xlink:href="#rim" fill="#404040">
                        <set attributeName="fill" to="#808080" begin="arrowRight.mouseover" end="arrowRight.mouseout"/>
                  </use>
                  <path fill="none" stroke="white" stroke-width="1.5" d="M0,-3.0v7 M-2.5,-0.5L0,-3.0L2.5,-0.5"/>
                </g>
                <g id="arrowDown" xlink:href="#dirArrow" transform="rotate(180) translate(-30 -48)" onmousedown="handlePan(0,1)">
                  <use xlink:href="#rim" fill="#404040">
                        <set attributeName="fill" to="#808080" begin="arrowDown.mouseover" end="arrowDown.mouseout"/>
                  </use>
                  <path fill="none" stroke="white" stroke-width="1.5" d="M0,-3.0v7 M-2.5,-0.5L0,-3.0L2.5,-0.5"/>
                </g>
                <g id="arrowLeft" xlink:href="#dirArrow" transform="rotate(270) translate(-36 17)" onmousedown="handlePan(-1,0)">
                  <use xlink:href="#rim" fill="#404040">
                        <set attributeName="fill" to="#808080" begin="arrowLeft.mouseover" end="arrowLeft.mouseout"/>
                  </use>
                  <path fill="none" stroke="white" stroke-width="1.5" d="M0,-3.0v7 M-2.5,-0.5L0,-3.0L2.5,-0.5"/>
                </g>
        </g>
        <svg viewBox="0 0 15 15" width="100%" height="30px" preserveAspectRatio="xMaxYMin meet">
         <g id="arrow_out" transform="scale(0.3 0.3)">
          <a xlink:href="class_urho3_d_1_1_animated_sprite2_d__coll__graph_org.svg" target="_base">
           <rect id="button" ry="5" rx="5" y="6" x="6" height="38" width="38"
                fill="#f2f5e9" fill-opacity="0.5" stroke="#606060" stroke-width="1.0"/>
           <path id="arrow"
             d="M 11.500037,31.436501 C 11.940474,20.09759 22.043105,11.32322 32.158766,21.979434 L 37.068811,17.246167 C 37.068811,17.246167 37.088388,32 37.088388,32 L 22.160133,31.978069 C 22.160133,31.978069 26.997745,27.140456 26.997745,27.140456 C 18.528582,18.264221 13.291696,25.230495 11.500037,31.436501 z"
             style="fill:#404040;"/>
          </a>
         </g>
        </svg>
</svg>
