<?xml version="1.0" encoding="UTF-8" standalone="no"?>
<!DOCTYPE svg PUBLIC "-//W3C//DTD SVG 1.1//EN"
 "http://www.w3.org/Graphics/SVG/1.1/DTD/svg11.dtd">
<!-- Generated by graphviz version 2.26.3 (20100126.1600)
 -->
<!-- Title: Urho3D::ShaderProgram Pages: 1 -->
<svg width="2082pt" height="848pt"
 viewBox="0.00 0.00 2082.00 848.00" xmlns="http://www.w3.org/2000/svg" xmlns:xlink="http://www.w3.org/1999/xlink">
<g id="graph1" class="graph" transform="scale(1 1) rotate(0) translate(4 844)">
<title>Urho3D::ShaderProgram</title>
<!-- Node1 -->
<g id="node1" class="node"><title>Node1</title>
<polygon fill="#bfbfbf" stroke="black" points="773.5,-100.5 773.5,-121.5 908.5,-121.5 908.5,-100.5 773.5,-100.5"/>
<text text-anchor="middle" x="841" y="-108.5" font-family="FreeSans" font-size="10.00">Urho3D::ShaderProgram</text>
</g>
<!-- Node6 -->
<g id="node10" class="node"><title>Node6</title>
<a xlink:href="class_urho3_d_1_1_graphics.html" target="_top" xlink:title="Graphics subsystem. Manages the application window, rendering state and GPU resources.">
<polygon fill="none" stroke="red" points="1062.5,-405.5 1062.5,-426.5 1163.5,-426.5 1163.5,-405.5 1062.5,-405.5"/>
<text text-anchor="middle" x="1113" y="-413.5" font-family="FreeSans" font-size="10.00">Urho3D::Graphics</text>
</a>
</g>
<!-- Node1&#45;&gt;Node6 -->
<g id="edge58" class="edge"><title>Node1&#45;&gt;Node6</title>
<path fill="none" stroke="#9a32cd" stroke-dasharray="5,2" d="M918.93,-121.655C974.128,-129.527 1039.21,-139.607 1044,-144 1084.05,-180.698 1106.68,-359.856 1111.85,-405.435"/>
<polygon fill="#9a32cd" stroke="#9a32cd" points="919.148,-118.151 908.756,-120.213 918.165,-125.082 919.148,-118.151"/>
<text text-anchor="middle" x="990" y="-148" font-family="FreeSans" font-size="10.00"> shaderProgram_</text>
</g>
<!-- Node2 -->
<g id="node2" class="node"><title>Node2</title>
<a xlink:href="class_urho3_d_1_1_ref_counted.html" target="_top" xlink:title="Base class for intrusively reference&#45;counted objects. These are noncopyable and non&#45;assignable.">
<polygon fill="none" stroke="black" points="433,-634.5 433,-655.5 547,-655.5 547,-634.5 433,-634.5"/>
<text text-anchor="middle" x="490" y="-642.5" font-family="FreeSans" font-size="10.00">Urho3D::RefCounted</text>
</a>
</g>
<!-- Node2&#45;&gt;Node1 -->
<g id="edge2" class="edge"><title>Node2&#45;&gt;Node1</title>
<path fill="none" stroke="midnightblue" d="M524.154,-629.662C539.574,-620.906 556.441,-608.374 566,-592 608.54,-519.128 545.558,-478.115 584,-403 627.619,-317.769 700.574,-345.282 746,-261 773.674,-209.654 725.227,-174.577 764,-131 767.305,-127.285 771.203,-124.22 775.463,-121.695"/>
<polygon fill="midnightblue" stroke="midnightblue" points="522.483,-626.586 515.308,-634.382 525.779,-632.762 522.483,-626.586"/>
</g>
<!-- Node7 -->
<g id="node12" class="node"><title>Node7</title>
<a xlink:href="class_urho3_d_1_1_object.html" target="_top" xlink:title="Base class for objects with type identification, subsystem access and event sending/receiving capabil...">
<polygon fill="none" stroke="red" points="796,-594.5 796,-615.5 886,-615.5 886,-594.5 796,-594.5"/>
<text text-anchor="middle" x="841" y="-602.5" font-family="FreeSans" font-size="10.00">Urho3D::Object</text>
</a>
</g>
<!-- Node2&#45;&gt;Node7 -->
<g id="edge14" class="edge"><title>Node2&#45;&gt;Node7</title>
<path fill="none" stroke="midnightblue" d="M557.236,-637.338C627.356,-629.347 735.317,-617.044 795.853,-610.145"/>
<polygon fill="midnightblue" stroke="midnightblue" points="556.715,-633.874 547.175,-638.484 557.507,-640.829 556.715,-633.874"/>
</g>
<!-- Node13 -->
<g id="node27" class="node"><title>Node13</title>
<a xlink:href="class_urho3_d_1_1_render_surface.html" target="_top" xlink:title="Color or depth&#45;stencil surface that can be rendered into.">
<polygon fill="none" stroke="red" points="776.5,-634.5 776.5,-655.5 905.5,-655.5 905.5,-634.5 776.5,-634.5"/>
<text text-anchor="middle" x="841" y="-642.5" font-family="FreeSans" font-size="10.00">Urho3D::RenderSurface</text>
</a>
</g>
<!-- Node2&#45;&gt;Node13 -->
<g id="edge32" class="edge"><title>Node2&#45;&gt;Node13</title>
<path fill="none" stroke="midnightblue" d="M557.423,-645C620.544,-645 714.21,-645 776.4,-645"/>
<polygon fill="midnightblue" stroke="midnightblue" points="557.175,-641.5 547.175,-645 557.175,-648.5 557.175,-641.5"/>
</g>
<!-- Node22 -->
<g id="node55" class="node"><title>Node22</title>
<a xlink:href="class_urho3_d_1_1_shader_variation.html" target="_top" xlink:title="Vertex or pixel shader on the GPU.">
<polygon fill="none" stroke="black" points="1734,-624.5 1734,-645.5 1870,-645.5 1870,-624.5 1734,-624.5"/>
<text text-anchor="middle" x="1802" y="-632.5" font-family="FreeSans" font-size="10.00">Urho3D::ShaderVariation</text>
</a>
</g>
<!-- Node2&#45;&gt;Node22 -->
<g id="edge70" class="edge"><title>Node2&#45;&gt;Node22</title>
<path fill="none" stroke="midnightblue" d="M538.444,-658.112C592.912,-672.392 684.189,-694.935 764,-708 917.676,-733.156 957.278,-739 1113,-739 1113,-739 1113,-739 1640,-739 1708.51,-739 1771.18,-672.31 1793.43,-645.738"/>
<polygon fill="midnightblue" stroke="midnightblue" points="539.274,-654.712 528.712,-655.546 537.489,-661.48 539.274,-654.712"/>
</g>
<!-- Node3 -->
<g id="node4" class="node"><title>Node3</title>
<a xlink:href="struct_urho3_d_1_1_ref_count.html" target="_top" xlink:title="Reference count structure.">
<polygon fill="none" stroke="black" points="223,-681.5 223,-702.5 325,-702.5 325,-681.5 223,-681.5"/>
<text text-anchor="middle" x="274" y="-689.5" font-family="FreeSans" font-size="10.00">Urho3D::RefCount</text>
</a>
</g>
<!-- Node3&#45;&gt;Node2 -->
<g id="edge4" class="edge"><title>Node3&#45;&gt;Node2</title>
<path fill="none" stroke="#9a32cd" stroke-dasharray="5,2" d="M307.774,-677.578C319.674,-672.969 333.262,-668.231 346,-665 374.135,-657.864 406.051,-653.104 432.674,-650.024"/>
<polygon fill="#9a32cd" stroke="#9a32cd" points="306.223,-674.428 298.23,-681.383 308.815,-680.93 306.223,-674.428"/>
<text text-anchor="middle" x="371" y="-669" font-family="FreeSans" font-size="10.00"> refCount_</text>
</g>
<!-- Node5 -->
<g id="node8" class="node"><title>Node5</title>
<a xlink:href="class_urho3_d_1_1_weak_ptr.html" target="_top" xlink:title="Urho3D::WeakPtr\&lt; Urho3D\l::Graphics \&gt;">
<polygon fill="none" stroke="black" points="1280,-470 1280,-504 1426,-504 1426,-470 1280,-470"/>
<text text-anchor="start" x="1288" y="-491" font-family="FreeSans" font-size="10.00">Urho3D::WeakPtr&lt; Urho3D</text>
<text text-anchor="middle" x="1353" y="-478" font-family="FreeSans" font-size="10.00">::Graphics &gt;</text>
</a>
</g>
<!-- Node3&#45;&gt;Node5 -->
<g id="edge78" class="edge"><title>Node3&#45;&gt;Node5</title>
<path fill="none" stroke="#9a32cd" stroke-dasharray="5,2" d="M335.326,-693.977C494.433,-698.267 916.902,-704.082 1044,-650 1116.94,-618.962 1111.88,-573.978 1182,-537 1212.37,-520.985 1248.55,-509.458 1279.8,-501.537"/>
<polygon fill="#9a32cd" stroke="#9a32cd" points="335.325,-690.475 325.232,-693.697 335.131,-697.473 335.325,-690.475"/>
<text text-anchor="middle" x="841" y="-695" font-family="FreeSans" font-size="10.00"> refCount_</text>
</g>
<!-- Node12 -->
<g id="node24" class="node"><title>Node12</title>
<a xlink:href="class_urho3_d_1_1_shared_array_ptr.html" target="_top" xlink:title="Urho3D::SharedArrayPtr\l\&lt; unsigned char \&gt;">
<polygon fill="none" stroke="black" points="423.5,-549 423.5,-583 556.5,-583 556.5,-549 423.5,-549"/>
<text text-anchor="start" x="431.5" y="-570" font-family="FreeSans" font-size="10.00">Urho3D::SharedArrayPtr</text>
<text text-anchor="middle" x="490" y="-557" font-family="FreeSans" font-size="10.00">&lt; unsigned char &gt;</text>
</a>
</g>
<!-- Node3&#45;&gt;Node12 -->
<g id="edge28" class="edge"><title>Node3&#45;&gt;Node12</title>
<path fill="none" stroke="#9a32cd" stroke-dasharray="5,2" d="M294.772,-674.846C308.786,-663.674 327.949,-649.156 346,-638 380.238,-616.84 421.521,-596.704 451.09,-583.135"/>
<polygon fill="#9a32cd" stroke="#9a32cd" points="292.348,-672.304 286.767,-681.31 296.746,-677.75 292.348,-672.304"/>
<text text-anchor="middle" x="371" y="-642" font-family="FreeSans" font-size="10.00"> refCount_</text>
</g>
<!-- Node20 -->
<g id="node49" class="node"><title>Node20</title>
<a xlink:href="class_urho3_d_1_1_weak_ptr.html" target="_top" xlink:title="Urho3D::WeakPtr\&lt; Urho3D\l::Shader \&gt;">
<polygon fill="none" stroke="red" points="768,-765 768,-799 914,-799 914,-765 768,-765"/>
<text text-anchor="start" x="776" y="-786" font-family="FreeSans" font-size="10.00">Urho3D::WeakPtr&lt; Urho3D</text>
<text text-anchor="middle" x="841" y="-773" font-family="FreeSans" font-size="10.00">::Shader &gt;</text>
</a>
</g>
<!-- Node3&#45;&gt;Node20 -->
<g id="edge62" class="edge"><title>Node3&#45;&gt;Node20</title>
<path fill="none" stroke="#9a32cd" stroke-dasharray="5,2" d="M335.004,-703.885C338.724,-704.602 342.412,-705.312 346,-706 451.726,-726.274 477.613,-734.545 584,-751 645.846,-760.566 716.45,-768.897 767.986,-774.507"/>
<polygon fill="#9a32cd" stroke="#9a32cd" points="335.609,-700.437 325.126,-701.975 334.28,-707.31 335.609,-700.437"/>
<text text-anchor="middle" x="490" y="-751" font-family="FreeSans" font-size="10.00"> refCount_</text>
</g>
<!-- Node25 -->
<g id="node68" class="node"><title>Node25</title>
<a xlink:href="class_urho3_d_1_1_weak_ptr.html" target="_top" xlink:title="Urho3D::WeakPtr\&lt; Urho3D\l::ShaderVariation \&gt;">
<polygon fill="none" stroke="black" points="1928,-618 1928,-652 2074,-652 2074,-618 1928,-618"/>
<text text-anchor="start" x="1936" y="-639" font-family="FreeSans" font-size="10.00">Urho3D::WeakPtr&lt; Urho3D</text>
<text text-anchor="middle" x="2001" y="-626" font-family="FreeSans" font-size="10.00">::ShaderVariation &gt;</text>
</a>
</g>
<!-- Node3&#45;&gt;Node25 -->
<g id="edge92" class="edge"><title>Node3&#45;&gt;Node25</title>
<path fill="none" stroke="#9a32cd" stroke-dasharray="5,2" d="M289.202,-710.154C321.857,-746.98 402.842,-827 490,-827 490,-827 490,-827 1802,-827 1902.34,-827 1971.48,-699.028 1993.49,-652.039"/>
<polygon fill="#9a32cd" stroke="#9a32cd" points="291.838,-707.852 282.641,-702.593 286.552,-712.44 291.838,-707.852"/>
<text text-anchor="middle" x="1222" y="-831" font-family="FreeSans" font-size="10.00"> refCount_</text>
</g>
<!-- Node4 -->
<g id="node6" class="node"><title>Node4</title>
<a xlink:href="class_urho3_d_1_1_g_p_u_object.html" target="_top" xlink:title="Base class for GPU resources.">
<polygon fill="none" stroke="black" points="1584.5,-471.5 1584.5,-492.5 1695.5,-492.5 1695.5,-471.5 1584.5,-471.5"/>
<text text-anchor="middle" x="1640" y="-479.5" font-family="FreeSans" font-size="10.00">Urho3D::GPUObject</text>
</a>
</g>
<!-- Node4&#45;&gt;Node1 -->
<g id="edge6" class="edge"><title>Node4&#45;&gt;Node1</title>
<path fill="none" stroke="midnightblue" d="M1619.85,-464.7C1547.83,-404.082 1294.11,-200.867 1044,-125 1000.22,-111.72 948.788,-108.293 908.647,-108.149"/>
<polygon fill="midnightblue" stroke="midnightblue" points="1617.83,-467.573 1627.72,-471.367 1622.35,-462.233 1617.83,-467.573"/>
</g>
<!-- Node19 -->
<g id="node43" class="node"><title>Node19</title>
<a xlink:href="class_urho3_d_1_1_constant_buffer.html" target="_top" xlink:title="Hardware constant buffer.">
<polygon fill="none" stroke="black" points="1736.5,-471.5 1736.5,-492.5 1867.5,-492.5 1867.5,-471.5 1736.5,-471.5"/>
<text text-anchor="middle" x="1802" y="-479.5" font-family="FreeSans" font-size="10.00">Urho3D::ConstantBuffer</text>
</a>
</g>
<!-- Node4&#45;&gt;Node19 -->
<g id="edge54" class="edge"><title>Node4&#45;&gt;Node19</title>
<path fill="none" stroke="midnightblue" d="M1706.04,-482C1716.05,-482 1726.38,-482 1736.38,-482"/>
<polygon fill="midnightblue" stroke="midnightblue" points="1705.75,-478.5 1695.75,-482 1705.75,-485.5 1705.75,-478.5"/>
</g>
<!-- Node4&#45;&gt;Node22 -->
<g id="edge72" class="edge"><title>Node4&#45;&gt;Node22</title>
<path fill="none" stroke="midnightblue" d="M1658.52,-499.493C1692.38,-531.471 1763.31,-598.456 1790.79,-624.41"/>
<polygon fill="midnightblue" stroke="midnightblue" points="1660.81,-496.838 1651.13,-492.516 1656,-501.927 1660.81,-496.838"/>
</g>
<!-- Node5&#45;&gt;Node4 -->
<g id="edge8" class="edge"><title>Node5&#45;&gt;Node4</title>
<path fill="none" stroke="#9a32cd" stroke-dasharray="5,2" d="M1436.44,-485.546C1483.96,-484.719 1542.19,-483.704 1584.18,-482.972"/>
<polygon fill="#9a32cd" stroke="#9a32cd" points="1436.1,-482.052 1426.16,-485.725 1436.22,-489.051 1436.1,-482.052"/>
<text text-anchor="middle" x="1505" y="-489" font-family="FreeSans" font-size="10.00"> graphics_</text>
</g>
<!-- Node6&#45;&gt;Node5 -->
<g id="edge10" class="edge"><title>Node6&#45;&gt;Node5</title>
<path fill="none" stroke="#9a32cd" stroke-dasharray="5,2" d="M1151.62,-429.942C1161.49,-433.361 1172.1,-436.921 1182,-440 1202.07,-446.24 1249.35,-459.188 1289.12,-469.916"/>
<polygon fill="#9a32cd" stroke="#9a32cd" points="1152.66,-426.597 1142.07,-426.592 1150.35,-433.203 1152.66,-426.597"/>
<text text-anchor="middle" x="1222" y="-465" font-family="FreeSans" font-size="10.00"> ptr_</text>
</g>
<!-- Node7&#45;&gt;Node6 -->
<g id="edge12" class="edge"><title>Node7&#45;&gt;Node6</title>
<path fill="none" stroke="midnightblue" d="M881.288,-590.931C924.824,-574.319 994.588,-543.48 1044,-501 1054.38,-492.074 1053.56,-486.78 1062,-476 1075.82,-458.346 1092.86,-438.687 1103.33,-426.838"/>
<polygon fill="midnightblue" stroke="midnightblue" points="880.017,-587.67 871.88,-594.455 882.472,-594.225 880.017,-587.67"/>
</g>
<!-- Node7&#45;&gt;Node19 -->
<g id="edge52" class="edge"><title>Node7&#45;&gt;Node19</title>
<path fill="none" stroke="midnightblue" d="M896.411,-603.3C1060.98,-597.806 1544.78,-578.308 1696,-535 1729.63,-525.37 1765.34,-505.158 1785.53,-492.665"/>
<polygon fill="midnightblue" stroke="midnightblue" points="895.919,-599.814 886.04,-603.642 896.15,-606.811 895.919,-599.814"/>
</g>
<!-- Node8 -->
<g id="node15" class="node"><title>Node8</title>
<a xlink:href="class_urho3_d_1_1_int_rect.html" target="_top" xlink:title="Two&#45;dimensional bounding rectangle with integer values.">
<polygon fill="none" stroke="black" points="795,-244.5 795,-265.5 887,-265.5 887,-244.5 795,-244.5"/>
<text text-anchor="middle" x="841" y="-252.5" font-family="FreeSans" font-size="10.00">Urho3D::IntRect</text>
</a>
</g>
<!-- Node8&#45;&gt;Node6 -->
<g id="edge16" class="edge"><title>Node8&#45;&gt;Node6</title>
<path fill="none" stroke="#9a32cd" stroke-dasharray="5,2" d="M897.425,-253.109C941.194,-254.387 1001.39,-262.428 1044,-293 1083.99,-321.688 1103.72,-381.153 1110.35,-405.38"/>
<polygon fill="#9a32cd" stroke="#9a32cd" points="897.295,-249.607 887.233,-252.925 897.168,-256.605 897.295,-249.607"/>
<text text-anchor="middle" x="990" y="-310" font-family="FreeSans" font-size="10.00"> viewport_</text>
<text text-anchor="middle" x="990" y="-297" font-family="FreeSans" font-size="10.00">scissorRect_</text>
</g>
<!-- Node8&#45;&gt;Node8 -->
<g id="edge18" class="edge"><title>Node8&#45;&gt;Node8</title>
<path fill="none" stroke="#9a32cd" stroke-dasharray="5,2" d="M813.58,-275.055C815.379,-280.164 824.519,-284 841,-284 866.727,-284 874.565,-274.653 864.516,-265.708"/>
<polygon fill="#9a32cd" stroke="#9a32cd" points="816.86,-276.284 817.484,-265.708 810.401,-273.587 816.86,-276.284"/>
<text text-anchor="middle" x="841" y="-288" font-family="FreeSans" font-size="10.00"> ZERO</text>
</g>
<!-- Node9 -->
<g id="node18" class="node"><title>Node9</title>
<a xlink:href="class_urho3_d_1_1_vector.html" target="_top" xlink:title="Urho3D::Vector\&lt; Urho3D\l::ScratchBuffer \&gt;">
<polygon fill="none" stroke="red" points="772,-192 772,-226 910,-226 910,-192 772,-192"/>
<text text-anchor="start" x="780" y="-213" font-family="FreeSans" font-size="10.00">Urho3D::Vector&lt; Urho3D</text>
<text text-anchor="middle" x="841" y="-200" font-family="FreeSans" font-size="10.00">::ScratchBuffer &gt;</text>
</a>
</g>
<!-- Node9&#45;&gt;Node6 -->
<g id="edge20" class="edge"><title>Node9&#45;&gt;Node6</title>
<path fill="none" stroke="#9a32cd" stroke-dasharray="5,2" d="M920.626,-202.762C961.476,-203.687 1009.71,-211.673 1044,-239 1098.16,-282.168 1109.9,-373.619 1112.36,-405.09"/>
<polygon fill="#9a32cd" stroke="#9a32cd" points="920.444,-199.26 910.413,-202.671 920.382,-206.26 920.444,-199.26"/>
<text text-anchor="middle" x="990" y="-243" font-family="FreeSans" font-size="10.00"> scratchBuffers_</text>
</g>
<!-- Node10 -->
<g id="node20" class="node"><title>Node10</title>
<a xlink:href="class_urho3_d_1_1_p_o_d_vector.html" target="_top" xlink:title="Urho3D::PODVector\&lt;\l Urho3D::ConstantBuffer * \&gt;">
<polygon fill="none" stroke="red" points="764,-140 764,-174 918,-174 918,-140 764,-140"/>
<text text-anchor="start" x="772" y="-161" font-family="FreeSans" font-size="10.00">Urho3D::PODVector&lt;</text>
<text text-anchor="middle" x="841" y="-148" font-family="FreeSans" font-size="10.00"> Urho3D::ConstantBuffer * &gt;</text>
</a>
</g>
<!-- Node10&#45;&gt;Node6 -->
<g id="edge22" class="edge"><title>Node10&#45;&gt;Node6</title>
<path fill="none" stroke="#9a32cd" stroke-dasharray="5,2" d="M928.425,-160.268C975.16,-163.771 1026.59,-171.018 1044,-186 1078.76,-215.913 1104.73,-364.274 1111.35,-405.409"/>
<polygon fill="#9a32cd" stroke="#9a32cd" points="928.449,-156.762 918.229,-159.556 927.961,-163.745 928.449,-156.762"/>
<text text-anchor="middle" x="990" y="-190" font-family="FreeSans" font-size="10.00"> dirtyConstantBuffers_</text>
</g>
<!-- Node11 -->
<g id="node22" class="node"><title>Node11</title>
<a xlink:href="class_urho3_d_1_1_image.html" target="_top" xlink:title="Image resource.">
<polygon fill="none" stroke="red" points="796.5,-478.5 796.5,-499.5 885.5,-499.5 885.5,-478.5 796.5,-478.5"/>
<text text-anchor="middle" x="841" y="-486.5" font-family="FreeSans" font-size="10.00">Urho3D::Image</text>
</a>
</g>
<!-- Node11&#45;&gt;Node6 -->
<g id="edge24" class="edge"><title>Node11&#45;&gt;Node6</title>
<path fill="none" stroke="#9a32cd" stroke-dasharray="5,2" d="M895.772,-487.918C937.556,-485.57 995.917,-478.961 1044,-461 1065.44,-452.993 1087.03,-437.417 1100.21,-426.86"/>
<polygon fill="#9a32cd" stroke="#9a32cd" points="895.337,-484.436 885.523,-488.428 895.685,-491.427 895.337,-484.436"/>
<text text-anchor="middle" x="990" y="-488" font-family="FreeSans" font-size="10.00"> windowIcon_</text>
</g>
<!-- Node12&#45;&gt;Node11 -->
<g id="edge26" class="edge"><title>Node12&#45;&gt;Node11</title>
<path fill="none" stroke="#9a32cd" stroke-dasharray="5,2" d="M556.095,-546.229C565.43,-543.667 574.933,-541.18 584,-539 657.806,-521.257 744.685,-505.385 796.173,-496.494"/>
<polygon fill="#9a32cd" stroke="#9a32cd" points="555.147,-542.86 546.454,-548.917 557.026,-549.603 555.147,-542.86"/>
<text text-anchor="middle" x="665" y="-543" font-family="FreeSans" font-size="10.00"> data_</text>
</g>
<!-- Node12&#45;&gt;Node19 -->
<g id="edge56" class="edge"><title>Node12&#45;&gt;Node19</title>
<path fill="none" stroke="#9a32cd" stroke-dasharray="5,2" d="M566.853,-565.472C758.294,-563.387 1271.6,-553.067 1696,-502 1714.97,-499.718 1735.65,-496.079 1753.66,-492.527"/>
<polygon fill="#9a32cd" stroke="#9a32cd" points="566.579,-561.975 556.616,-565.579 566.652,-568.974 566.579,-561.975"/>
<text text-anchor="middle" x="1222" y="-548" font-family="FreeSans" font-size="10.00"> shadowData_</text>
</g>
<!-- Node13&#45;&gt;Node6 -->
<g id="edge30" class="edge"><title>Node13&#45;&gt;Node6</title>
<path fill="none" stroke="#9a32cd" stroke-dasharray="5,2" d="M902.422,-631.825C948.86,-618.519 1010.2,-593.122 1044,-547 1063.24,-520.741 1047.07,-504.929 1062,-476 1072.03,-456.562 1089.45,-437.984 1101.1,-426.784"/>
<polygon fill="#9a32cd" stroke="#9a32cd" points="901.468,-628.457 892.755,-634.484 903.325,-635.207 901.468,-628.457"/>
<text text-anchor="middle" x="990" y="-637" font-family="FreeSans" font-size="10.00"> depthStencil_</text>
<text text-anchor="middle" x="990" y="-624" font-family="FreeSans" font-size="10.00">renderTargets_</text>
</g>
<!-- Node14 -->
<g id="node30" class="node"><title>Node14</title>
<a xlink:href="class_urho3_d_1_1_hash_map.html" target="_top" xlink:title="Urho3D::HashMap\&lt; unsigned,\l Urho3D::SharedPtr\&lt; Urho3D\l::ConstantBuffer \&gt; \&gt;">
<polygon fill="none" stroke="black" points="584,-412.5 584,-459.5 746,-459.5 746,-412.5 584,-412.5"/>
<text text-anchor="start" x="592" y="-446.5" font-family="FreeSans" font-size="10.00">Urho3D::HashMap&lt; unsigned,</text>
<text text-anchor="start" x="592" y="-433.5" font-family="FreeSans" font-size="10.00"> Urho3D::SharedPtr&lt; Urho3D</text>
<text text-anchor="middle" x="665" y="-420.5" font-family="FreeSans" font-size="10.00">::ConstantBuffer &gt; &gt;</text>
</a>
</g>
<!-- Node14&#45;&gt;Node6 -->
<g id="edge34" class="edge"><title>Node14&#45;&gt;Node6</title>
<path fill="none" stroke="#9a32cd" stroke-dasharray="5,2" d="M756.316,-431.923C848.715,-427.798 988.207,-421.571 1062.4,-418.259"/>
<polygon fill="#9a32cd" stroke="#9a32cd" points="755.963,-428.436 746.129,-432.378 756.276,-435.429 755.963,-428.436"/>
<text text-anchor="middle" x="841" y="-435" font-family="FreeSans" font-size="10.00"> constantBuffers_</text>
</g>
<!-- Node15 -->
<g id="node32" class="node"><title>Node15</title>
<a xlink:href="class_urho3_d_1_1_hash_base.html" target="_top" xlink:title="Hash set/map base class.">
<polygon fill="none" stroke="black" points="220,-110.5 220,-131.5 328,-131.5 328,-110.5 220,-110.5"/>
<text text-anchor="middle" x="274" y="-118.5" font-family="FreeSans" font-size="10.00">Urho3D::HashBase</text>
</a>
</g>
<!-- Node15&#45;&gt;Node14 -->
<g id="edge36" class="edge"><title>Node15&#45;&gt;Node14</title>
<path fill="none" stroke="midnightblue" d="M278.601,-141.608C290.942,-191.796 329.714,-320.857 414,-384 462.616,-420.42 530.748,-432.786 583.763,-436.394"/>
<polygon fill="midnightblue" stroke="midnightblue" points="281.951,-140.565 276.247,-131.637 275.139,-142.174 281.951,-140.565"/>
</g>
<!-- Node18 -->
<g id="node40" class="node"><title>Node18</title>
<a xlink:href="class_urho3_d_1_1_hash_map.html" target="_top" xlink:title="Urho3D::HashMap\&lt; int,\l Urho3D::SharedPtr\&lt; Urho3D\l::Texture2D \&gt; \&gt;">
<polygon fill="none" stroke="black" points="586,-45.5 586,-92.5 744,-92.5 744,-45.5 586,-45.5"/>
<text text-anchor="start" x="594" y="-79.5" font-family="FreeSans" font-size="10.00">Urho3D::HashMap&lt; int,</text>
<text text-anchor="start" x="594" y="-66.5" font-family="FreeSans" font-size="10.00"> Urho3D::SharedPtr&lt; Urho3D</text>
<text text-anchor="middle" x="665" y="-53.5" font-family="FreeSans" font-size="10.00">::Texture2D &gt; &gt;</text>
</a>
</g>
<!-- Node15&#45;&gt;Node18 -->
<g id="edge48" class="edge"><title>Node15&#45;&gt;Node18</title>
<path fill="none" stroke="midnightblue" d="M321.64,-107.821C348.552,-100.87 382.927,-92.8082 414,-88 471.115,-79.1621 536.205,-74.3849 585.787,-71.8315"/>
<polygon fill="midnightblue" stroke="midnightblue" points="320.501,-104.502 311.714,-110.422 322.275,-111.273 320.501,-104.502"/>
</g>
<!-- Node23 -->
<g id="node62" class="node"><title>Node23</title>
<a xlink:href="class_urho3_d_1_1_hash_map.html" target="_top" xlink:title="Urho3D::HashMap\&lt; Urho3D\l::StringHash, Urho3D::\lShaderParameter \&gt;">
<polygon fill="none" stroke="black" points="414,-97.5 414,-144.5 566,-144.5 566,-97.5 414,-97.5"/>
<text text-anchor="start" x="422" y="-131.5" font-family="FreeSans" font-size="10.00">Urho3D::HashMap&lt; Urho3D</text>
<text text-anchor="start" x="422" y="-118.5" font-family="FreeSans" font-size="10.00">::StringHash, Urho3D::</text>
<text text-anchor="middle" x="490" y="-105.5" font-family="FreeSans" font-size="10.00">ShaderParameter &gt;</text>
</a>
</g>
<!-- Node15&#45;&gt;Node23 -->
<g id="edge82" class="edge"><title>Node15&#45;&gt;Node23</title>
<path fill="none" stroke="midnightblue" d="M338.488,-121C362.136,-121 389.128,-121 413.713,-121"/>
<polygon fill="midnightblue" stroke="midnightblue" points="338.227,-117.5 328.227,-121 338.227,-124.5 338.227,-117.5"/>
</g>
<!-- Node16 -->
<g id="node34" class="node"><title>Node16</title>
<a xlink:href="struct_urho3_d_1_1_hash_node_base.html" target="_top" xlink:title="Hash set/map node base class.">
<polygon fill="none" stroke="black" points="0,-142.5 0,-163.5 134,-163.5 134,-142.5 0,-142.5"/>
<text text-anchor="middle" x="67" y="-150.5" font-family="FreeSans" font-size="10.00">Urho3D::HashNodeBase</text>
</a>
</g>
<!-- Node16&#45;&gt;Node15 -->
<g id="edge38" class="edge"><title>Node16&#45;&gt;Node15</title>
<path fill="none" stroke="#9a32cd" stroke-dasharray="5,2" d="M144.109,-141.08C169.309,-137.184 196.746,-132.943 219.883,-129.366"/>
<polygon fill="#9a32cd" stroke="#9a32cd" points="143.555,-137.624 134.207,-142.611 144.624,-144.542 143.555,-137.624"/>
<text text-anchor="middle" x="177" y="-168" font-family="FreeSans" font-size="10.00"> ptrs_</text>
<text text-anchor="middle" x="177" y="-155" font-family="FreeSans" font-size="10.00">tail_</text>
<text text-anchor="middle" x="177" y="-142" font-family="FreeSans" font-size="10.00">head_</text>
</g>
<!-- Node16&#45;&gt;Node16 -->
<g id="edge40" class="edge"><title>Node16&#45;&gt;Node16</title>
<path fill="none" stroke="#9a32cd" stroke-dasharray="5,2" d="M46.7282,-173.427C48.292,-178.349 55.0493,-182 67,-182 86.1211,-182 91.9471,-172.653 84.4779,-163.708"/>
<polygon fill="#9a32cd" stroke="#9a32cd" points="50.1229,-174.286 49.5221,-163.708 43.3954,-172.352 50.1229,-174.286"/>
<text text-anchor="middle" x="67" y="-212" font-family="FreeSans" font-size="10.00"> next_</text>
<text text-anchor="middle" x="67" y="-199" font-family="FreeSans" font-size="10.00">prev_</text>
<text text-anchor="middle" x="67" y="-186" font-family="FreeSans" font-size="10.00">down_</text>
</g>
<!-- Node17 -->
<g id="node37" class="node"><title>Node17</title>
<a xlink:href="struct_urho3_d_1_1_allocator_block.html" target="_top" xlink:title="Allocator memory block.">
<polygon fill="none" stroke="red" points="3.5,-71.5 3.5,-92.5 130.5,-92.5 130.5,-71.5 3.5,-71.5"/>
<text text-anchor="middle" x="67" y="-79.5" font-family="FreeSans" font-size="10.00">Urho3D::AllocatorBlock</text>
</a>
</g>
<!-- Node17&#45;&gt;Node15 -->
<g id="edge42" class="edge"><title>Node17&#45;&gt;Node15</title>
<path fill="none" stroke="#9a32cd" stroke-dasharray="5,2" d="M132.877,-94.4115C160.953,-99.7013 193.305,-105.797 219.945,-110.816"/>
<polygon fill="#9a32cd" stroke="#9a32cd" points="133.22,-90.9147 122.745,-92.5026 131.924,-97.7936 133.22,-90.9147"/>
<text text-anchor="middle" x="177" y="-111" font-family="FreeSans" font-size="10.00"> allocator_</text>
</g>
<!-- Node17&#45;&gt;Node17 -->
<g id="edge44" class="edge"><title>Node17&#45;&gt;Node17</title>
<path fill="none" stroke="#9a32cd" stroke-dasharray="5,2" d="M46.7282,-102.427C48.292,-107.349 55.0493,-111 67,-111 86.1211,-111 91.9471,-101.653 84.4779,-92.7079"/>
<polygon fill="#9a32cd" stroke="#9a32cd" points="50.1229,-103.286 49.5221,-92.7079 43.3954,-101.352 50.1229,-103.286"/>
<text text-anchor="middle" x="67" y="-115" font-family="FreeSans" font-size="10.00"> next_</text>
</g>
<!-- Node18&#45;&gt;Node6 -->
<g id="edge46" class="edge"><title>Node18&#45;&gt;Node6</title>
<path fill="none" stroke="#9a32cd" stroke-dasharray="5,2" d="M754.205,-52.0788C841.767,-41.1915 972.305,-41.328 1044,-120 1083.81,-163.681 1106.78,-357.545 1111.9,-405.329"/>
<polygon fill="#9a32cd" stroke="#9a32cd" points="753.738,-48.6101 744.279,-53.3828 754.65,-55.5504 753.738,-48.6101"/>
<text text-anchor="middle" x="841" y="-58" font-family="FreeSans" font-size="10.00"> depthTextures_</text>
</g>
<!-- Node19&#45;&gt;Node6 -->
<g id="edge50" class="edge"><title>Node19&#45;&gt;Node6</title>
<path fill="none" stroke="#9a32cd" stroke-dasharray="5,2" d="M1739.58,-469.565C1725.29,-466.901 1710.14,-464.223 1696,-462 1504.47,-431.901 1455.74,-425.203 1262,-418 1229.3,-416.784 1192.53,-416.282 1163.7,-416.084"/>
<polygon fill="#9a32cd" stroke="#9a32cd" points="1739.34,-473.08 1749.81,-471.496 1740.64,-466.202 1739.34,-473.08"/>
<text text-anchor="middle" x="1505" y="-445" font-family="FreeSans" font-size="10.00"> currentConstantBuffers_</text>
</g>
<!-- Node24 -->
<g id="node65" class="node"><title>Node24</title>
<a xlink:href="class_urho3_d_1_1_shared_ptr.html" target="_top" xlink:title="Urho3D::SharedPtr\&lt;\l Urho3D::ConstantBuffer \&gt;">
<polygon fill="none" stroke="black" points="1928,-0 1928,-34 2074,-34 2074,-0 1928,-0"/>
<text text-anchor="start" x="1936" y="-21" font-family="FreeSans" font-size="10.00">Urho3D::SharedPtr&lt;</text>
<text text-anchor="middle" x="2001" y="-8" font-family="FreeSans" font-size="10.00"> Urho3D::ConstantBuffer &gt;</text>
</a>
</g>
<!-- Node19&#45;&gt;Node24 -->
<g id="edge86" class="edge"><title>Node19&#45;&gt;Node24</title>
<path fill="none" stroke="#9a32cd" stroke-dasharray="5,2" d="M1810.62,-461.855C1843.78,-384.374 1962.78,-106.319 1993.64,-34.1902"/>
<polygon fill="#9a32cd" stroke="#9a32cd" points="1807.25,-460.844 1806.53,-471.414 1813.68,-463.598 1807.25,-460.844"/>
<text text-anchor="middle" x="1899" y="-281" font-family="FreeSans" font-size="10.00"> ptr_</text>
</g>
<!-- Node20&#45;&gt;Node6 -->
<g id="edge60" class="edge"><title>Node20&#45;&gt;Node6</title>
<path fill="none" stroke="#9a32cd" stroke-dasharray="5,2" d="M893.246,-760.707C939.398,-739.309 1005.22,-702.031 1044,-650 1098.16,-577.326 1109.99,-462.637 1112.41,-426.96"/>
<polygon fill="#9a32cd" stroke="#9a32cd" points="891.662,-757.582 884.003,-764.903 894.555,-763.956 891.662,-757.582"/>
<text text-anchor="middle" x="990" y="-740" font-family="FreeSans" font-size="10.00"> lastShader_</text>
</g>
<!-- Node20&#45;&gt;Node22 -->
<g id="edge74" class="edge"><title>Node20&#45;&gt;Node22</title>
<path fill="none" stroke="#9a32cd" stroke-dasharray="5,2" d="M924.2,-783.393C978.046,-784.177 1049.67,-785 1113,-785 1113,-785 1113,-785 1640,-785 1722.03,-785 1780.12,-680.181 1796.97,-645.788"/>
<polygon fill="#9a32cd" stroke="#9a32cd" points="924.068,-779.89 914.017,-783.242 923.964,-786.89 924.068,-779.89"/>
<text text-anchor="middle" x="1353" y="-789" font-family="FreeSans" font-size="10.00"> owner_</text>
</g>
<!-- Node21 -->
<g id="node52" class="node"><title>Node21</title>
<a xlink:href="class_urho3_d_1_1_string.html" target="_top" xlink:title="String class.">
<polygon fill="none" stroke="black" points="446,-322.5 446,-343.5 534,-343.5 534,-322.5 446,-322.5"/>
<text text-anchor="middle" x="490" y="-330.5" font-family="FreeSans" font-size="10.00">Urho3D::String</text>
</a>
</g>
<!-- Node21&#45;&gt;Node1 -->
<g id="edge94" class="edge"><title>Node21&#45;&gt;Node1</title>
<path fill="none" stroke="#9a32cd" stroke-dasharray="5,2" d="M508.307,-314.979C549.902,-275.127 656.294,-179.236 764,-131 772.319,-127.274 781.467,-124.14 790.463,-121.54"/>
<polygon fill="#9a32cd" stroke="#9a32cd" points="505.625,-312.704 500.871,-322.172 510.492,-317.735 505.625,-312.704"/>
<text text-anchor="middle" x="665" y="-248" font-family="FreeSans" font-size="10.00"> linkerOutput_</text>
</g>
<!-- Node21&#45;&gt;Node6 -->
<g id="edge64" class="edge"><title>Node21&#45;&gt;Node6</title>
<path fill="none" stroke="#9a32cd" stroke-dasharray="5,2" d="M544.342,-328.283C626.233,-322.487 785.765,-316.313 918,-342 984.292,-354.877 1057.49,-388.266 1092.34,-405.446"/>
<polygon fill="#9a32cd" stroke="#9a32cd" points="543.986,-324.8 534.269,-329.023 544.498,-331.781 543.986,-324.8"/>
<text text-anchor="middle" x="841" y="-411" font-family="FreeSans" font-size="10.00"> lastShaderName_</text>
<text text-anchor="middle" x="841" y="-398" font-family="FreeSans" font-size="10.00">windowTitle_</text>
<text text-anchor="middle" x="841" y="-385" font-family="FreeSans" font-size="10.00">apiName_</text>
<text text-anchor="middle" x="841" y="-372" font-family="FreeSans" font-size="10.00">shaderPath_</text>
<text text-anchor="middle" x="841" y="-359" font-family="FreeSans" font-size="10.00">orientations_</text>
<text text-anchor="middle" x="841" y="-346" font-family="FreeSans" font-size="10.00">shaderExtension_</text>
</g>
<!-- Node21&#45;&gt;Node21 -->
<g id="edge66" class="edge"><title>Node21&#45;&gt;Node21</title>
<path fill="none" stroke="#9a32cd" stroke-dasharray="5,2" d="M468.254,-353.427C469.931,-358.349 477.18,-362 490,-362 510.512,-362 516.761,-352.653 508.749,-343.708"/>
<polygon fill="#9a32cd" stroke="#9a32cd" points="471.649,-354.295 471.251,-343.708 464.959,-352.232 471.649,-354.295"/>
<text text-anchor="middle" x="490" y="-366" font-family="FreeSans" font-size="10.00"> EMPTY</text>
</g>
<!-- Node21&#45;&gt;Node22 -->
<g id="edge76" class="edge"><title>Node21&#45;&gt;Node22</title>
<path fill="none" stroke="#9a32cd" stroke-dasharray="5,2" d="M498.053,-352.97C511.279,-383.1 540.546,-439.758 584,-469 651.99,-514.754 683.226,-495.155 764,-509 887.557,-530.178 919.624,-527.337 1044,-543 1105.37,-550.728 1120.62,-553.335 1182,-561 1382.34,-586.021 1619.35,-613.804 1733.62,-627.086"/>
<polygon fill="#9a32cd" stroke="#9a32cd" points="501.169,-351.352 494.047,-343.508 494.723,-354.081 501.169,-351.352"/>
<text text-anchor="middle" x="1222" y="-600" font-family="FreeSans" font-size="10.00"> defines_</text>
<text text-anchor="middle" x="1222" y="-587" font-family="FreeSans" font-size="10.00">name_</text>
<text text-anchor="middle" x="1222" y="-574" font-family="FreeSans" font-size="10.00">compilerOutput_</text>
</g>
<!-- Node22&#45;&gt;Node6 -->
<g id="edge68" class="edge"><title>Node22&#45;&gt;Node6</title>
<path fill="none" stroke="#9a32cd" stroke-dasharray="5,2" d="M1752.58,-621.814C1665.58,-597.779 1489.91,-545.323 1444,-502 1429.53,-488.342 1441.84,-473.043 1426,-461 1405.49,-445.406 1246.71,-428.481 1163.5,-420.565"/>
<polygon fill="#9a32cd" stroke="#9a32cd" points="1751.67,-625.191 1762.24,-624.464 1753.52,-618.441 1751.67,-625.191"/>
<text text-anchor="middle" x="1505" y="-578" font-family="FreeSans" font-size="10.00"> pixelShader_</text>
<text text-anchor="middle" x="1505" y="-565" font-family="FreeSans" font-size="10.00">vertexShader_</text>
</g>
<!-- Node22&#45;&gt;Node25 -->
<g id="edge90" class="edge"><title>Node22&#45;&gt;Node25</title>
<path fill="none" stroke="#9a32cd" stroke-dasharray="5,2" d="M1880.35,-635C1895.98,-635 1912.34,-635 1927.78,-635"/>
<polygon fill="#9a32cd" stroke="#9a32cd" points="1880.21,-631.5 1870.21,-635 1880.21,-638.5 1880.21,-631.5"/>
<text text-anchor="middle" x="1899" y="-639" font-family="FreeSans" font-size="10.00"> ptr_</text>
</g>
<!-- Node23&#45;&gt;Node1 -->
<g id="edge80" class="edge"><title>Node23&#45;&gt;Node1</title>
<path fill="none" stroke="#9a32cd" stroke-dasharray="5,2" d="M576.495,-118.536C637.198,-116.806 717.223,-114.526 773.291,-112.929"/>
<polygon fill="#9a32cd" stroke="#9a32cd" points="576.058,-115.047 566.162,-118.83 576.257,-122.044 576.058,-115.047"/>
<text text-anchor="middle" x="665" y="-122" font-family="FreeSans" font-size="10.00"> shaderParameters_</text>
</g>
<!-- Node24&#45;&gt;Node1 -->
<g id="edge84" class="edge"><title>Node24&#45;&gt;Node1</title>
<path fill="none" stroke="#9a32cd" stroke-dasharray="5,2" d="M1917.55,-6.68701C1882,-3.12015 1840.03,-0 1802,-0 1113,-0 1113,-0 1113,-0 1031.61,-0 1003.48,-1.48509 936,-47 924.946,-54.456 928.17,-62.3778 918,-71 903.292,-83.4691 884.042,-93.4691 868.469,-100.352"/>
<polygon fill="#9a32cd" stroke="#9a32cd" points="1917.58,-10.2081 1927.88,-7.75378 1918.29,-3.24509 1917.58,-10.2081"/>
<text text-anchor="middle" x="1505" y="-4" font-family="FreeSans" font-size="10.00"> constantBuffers_</text>
</g>
<!-- Node25&#45;&gt;Node1 -->
<g id="edge88" class="edge"><title>Node25&#45;&gt;Node1</title>
<path fill="none" stroke="#9a32cd" stroke-dasharray="5,2" d="M1997.66,-607.821C1982.94,-493.933 1919.25,-61 1802,-61 1113,-61 1113,-61 1113,-61 1026.58,-61 927.213,-85.7192 875.833,-100.396"/>
<polygon fill="#9a32cd" stroke="#9a32cd" points="1994.2,-608.343 1998.93,-617.821 2001.14,-607.459 1994.2,-608.343"/>
<text text-anchor="middle" x="1505" y="-78" font-family="FreeSans" font-size="10.00"> pixelShader_</text>
<text text-anchor="middle" x="1505" y="-65" font-family="FreeSans" font-size="10.00">vertexShader_</text>
</g>
</g>
</svg>
