<?xml version="1.0" encoding="UTF-8" standalone="no"?>
<!DOCTYPE svg PUBLIC "-//W3C//DTD SVG 1.1//EN"
 "http://www.w3.org/Graphics/SVG/1.1/DTD/svg11.dtd">
<!-- Generated by graphviz version 2.26.3 (20100126.1600)
 -->
<!-- Title: Urho3D::SpriteSheet2D Pages: 1 -->
<svg width="2272pt" height="381pt"
 viewBox="0.00 0.00 2272.00 381.00" xmlns="http://www.w3.org/2000/svg" xmlns:xlink="http://www.w3.org/1999/xlink">
<g id="graph1" class="graph" transform="scale(1 1) rotate(0) translate(4 377)">
<title>Urho3D::SpriteSheet2D</title>
<!-- Node1 -->
<g id="node1" class="node"><title>Node1</title>
<polygon fill="#bfbfbf" stroke="black" points="2134,-139.5 2134,-160.5 2264,-160.5 2264,-139.5 2134,-139.5"/>
<text text-anchor="middle" x="2199" y="-147.5" font-family="FreeSans" font-size="10.00">Urho3D::SpriteSheet2D</text>
</g>
<!-- Node2 -->
<g id="node2" class="node"><title>Node2</title>
<a xlink:href="class_urho3_d_1_1_resource.html" target="_top" xlink:title="Base class for resources.">
<polygon fill="none" stroke="black" points="909.5,-196.5 909.5,-217.5 1012.5,-217.5 1012.5,-196.5 909.5,-196.5"/>
<text text-anchor="middle" x="961" y="-204.5" font-family="FreeSans" font-size="10.00">Urho3D::Resource</text>
</a>
</g>
<!-- Node2&#45;&gt;Node1 -->
<g id="edge2" class="edge"><title>Node2&#45;&gt;Node1</title>
<path fill="none" stroke="midnightblue" d="M1006.37,-193.769C1048.02,-182.801 1111.63,-169 1168,-169 1168,-169 1168,-169 1969,-169 2024.69,-169 2087.71,-163.399 2133.69,-158.278"/>
<polygon fill="midnightblue" stroke="midnightblue" points="1005.28,-190.438 996.536,-196.415 1007.1,-197.198 1005.28,-190.438"/>
</g>
<!-- Node17 -->
<g id="node38" class="node"><title>Node17</title>
<a xlink:href="class_urho3_d_1_1_x_m_l_file.html" target="_top" xlink:title="XML document resource.">
<polygon fill="none" stroke="black" points="1121,-200.5 1121,-221.5 1215,-221.5 1215,-200.5 1121,-200.5"/>
<text text-anchor="middle" x="1168" y="-208.5" font-family="FreeSans" font-size="10.00">Urho3D::XMLFile</text>
</a>
</g>
<!-- Node2&#45;&gt;Node17 -->
<g id="edge46" class="edge"><title>Node2&#45;&gt;Node17</title>
<path fill="none" stroke="midnightblue" d="M1023.08,-208.2C1054.44,-208.806 1091.88,-209.529 1120.85,-210.089"/>
<polygon fill="midnightblue" stroke="midnightblue" points="1022.77,-204.693 1012.7,-207.999 1022.63,-211.692 1022.77,-204.693"/>
</g>
<!-- Node20 -->
<g id="node45" class="node"><title>Node20</title>
<a xlink:href="class_urho3_d_1_1_texture.html" target="_top" xlink:title="Base class for texture resources.">
<polygon fill="none" stroke="red" points="1240,-284.5 1240,-305.5 1334,-305.5 1334,-284.5 1240,-284.5"/>
<text text-anchor="middle" x="1287" y="-292.5" font-family="FreeSans" font-size="10.00">Urho3D::Texture</text>
</a>
</g>
<!-- Node2&#45;&gt;Node20 -->
<g id="edge54" class="edge"><title>Node2&#45;&gt;Node20</title>
<path fill="none" stroke="midnightblue" d="M1010,-220.227C1074.99,-237.77 1188.41,-268.387 1247.96,-284.46"/>
<polygon fill="midnightblue" stroke="midnightblue" points="1010.57,-216.755 999.999,-217.527 1008.74,-223.513 1010.57,-216.755"/>
</g>
<!-- Node24 -->
<g id="node55" class="node"><title>Node24</title>
<a xlink:href="class_urho3_d_1_1_p_list_file.html" target="_top" xlink:title="Property list (plist).">
<polygon fill="none" stroke="black" points="1693.5,-113.5 1693.5,-134.5 1790.5,-134.5 1790.5,-113.5 1693.5,-113.5"/>
<text text-anchor="middle" x="1742" y="-121.5" font-family="FreeSans" font-size="10.00">Urho3D::PListFile</text>
</a>
</g>
<!-- Node2&#45;&gt;Node24 -->
<g id="edge66" class="edge"><title>Node2&#45;&gt;Node24</title>
<path fill="none" stroke="midnightblue" d="M1021.41,-191.573C1023.72,-190.178 1025.93,-188.658 1028,-187 1040.75,-176.813 1032.1,-163.549 1046,-155 1100.73,-121.334 1544.16,-122.199 1693.28,-123.465"/>
<polygon fill="midnightblue" stroke="midnightblue" points="1019.41,-188.665 1012.12,-196.352 1022.61,-194.89 1019.41,-188.665"/>
</g>
<!-- Node3 -->
<g id="node4" class="node"><title>Node3</title>
<a xlink:href="class_urho3_d_1_1_object.html" target="_top" xlink:title="Base class for objects with type identification, subsystem access and event sending/receiving capabil...">
<polygon fill="none" stroke="black" points="694,-196.5 694,-217.5 784,-217.5 784,-196.5 694,-196.5"/>
<text text-anchor="middle" x="739" y="-204.5" font-family="FreeSans" font-size="10.00">Urho3D::Object</text>
</a>
</g>
<!-- Node3&#45;&gt;Node2 -->
<g id="edge4" class="edge"><title>Node3&#45;&gt;Node2</title>
<path fill="none" stroke="midnightblue" d="M794.3,-207C829.495,-207 874.774,-207 909.258,-207"/>
<polygon fill="midnightblue" stroke="midnightblue" points="794.193,-203.5 784.193,-207 794.193,-210.5 794.193,-203.5"/>
</g>
<!-- Node4 -->
<g id="node6" class="node"><title>Node4</title>
<a xlink:href="class_urho3_d_1_1_ref_counted.html" target="_top" xlink:title="Base class for intrusively reference&#45;counted objects. These are noncopyable and non&#45;assignable.">
<polygon fill="none" stroke="black" points="191,-202.5 191,-223.5 305,-223.5 305,-202.5 191,-202.5"/>
<text text-anchor="middle" x="248" y="-210.5" font-family="FreeSans" font-size="10.00">Urho3D::RefCounted</text>
</a>
</g>
<!-- Node4&#45;&gt;Node3 -->
<g id="edge6" class="edge"><title>Node4&#45;&gt;Node3</title>
<path fill="none" stroke="midnightblue" d="M315.44,-212.176C417.103,-210.934 606.929,-208.614 693.664,-207.554"/>
<polygon fill="midnightblue" stroke="midnightblue" points="315.241,-208.678 305.285,-212.3 315.327,-215.677 315.241,-208.678"/>
</g>
<!-- Node6 -->
<g id="node10" class="node"><title>Node6</title>
<a xlink:href="class_urho3_d_1_1_context.html" target="_top" xlink:title="Urho3D execution context. Provides access to subsystems, object factories and attributes, and event receivers.">
<polygon fill="none" stroke="red" points="444.5,-235.5 444.5,-256.5 541.5,-256.5 541.5,-235.5 444.5,-235.5"/>
<text text-anchor="middle" x="493" y="-243.5" font-family="FreeSans" font-size="10.00">Urho3D::Context</text>
</a>
</g>
<!-- Node4&#45;&gt;Node6 -->
<g id="edge12" class="edge"><title>Node4&#45;&gt;Node6</title>
<path fill="none" stroke="midnightblue" d="M315.295,-222.064C356.209,-227.575 407.51,-234.485 444.462,-239.462"/>
<polygon fill="midnightblue" stroke="midnightblue" points="315.51,-218.562 305.132,-220.695 314.576,-225.499 315.51,-218.562"/>
</g>
<!-- Node5 -->
<g id="node8" class="node"><title>Node5</title>
<a xlink:href="struct_urho3_d_1_1_ref_count.html" target="_top" xlink:title="Reference count structure.">
<polygon fill="none" stroke="black" points="0,-202.5 0,-223.5 102,-223.5 102,-202.5 0,-202.5"/>
<text text-anchor="middle" x="51" y="-210.5" font-family="FreeSans" font-size="10.00">Urho3D::RefCount</text>
</a>
</g>
<!-- Node5&#45;&gt;Node4 -->
<g id="edge8" class="edge"><title>Node5&#45;&gt;Node4</title>
<path fill="none" stroke="#9a32cd" stroke-dasharray="5,2" d="M112.357,-213C137.388,-213 166.169,-213 190.761,-213"/>
<polygon fill="#9a32cd" stroke="#9a32cd" points="112.245,-209.5 102.245,-213 112.245,-216.5 112.245,-209.5"/>
<text text-anchor="middle" x="145" y="-217" font-family="FreeSans" font-size="10.00"> refCount_</text>
</g>
<!-- Node6&#45;&gt;Node3 -->
<g id="edge10" class="edge"><title>Node6&#45;&gt;Node3</title>
<path fill="none" stroke="#9a32cd" stroke-dasharray="5,2" d="M551.679,-238.003C584.722,-233.354 626.718,-227.202 664,-221 673.669,-219.391 684.015,-217.543 693.838,-215.728"/>
<polygon fill="#9a32cd" stroke="#9a32cd" points="551.145,-234.544 541.727,-239.396 552.115,-241.476 551.145,-234.544"/>
<text text-anchor="middle" x="624" y="-237" font-family="FreeSans" font-size="10.00"> context_</text>
</g>
<!-- Node7 -->
<g id="node13" class="node"><title>Node7</title>
<a xlink:href="class_urho3_d_1_1_p_o_d_vector.html" target="_top" xlink:title="Urho3D::PODVector\&lt;\l Urho3D::Object * \&gt;">
<polygon fill="none" stroke="red" points="188.5,-248 188.5,-282 307.5,-282 307.5,-248 188.5,-248"/>
<text text-anchor="start" x="196.5" y="-269" font-family="FreeSans" font-size="10.00">Urho3D::PODVector&lt;</text>
<text text-anchor="middle" x="248" y="-256" font-family="FreeSans" font-size="10.00"> Urho3D::Object * &gt;</text>
</a>
</g>
<!-- Node7&#45;&gt;Node6 -->
<g id="edge14" class="edge"><title>Node7&#45;&gt;Node6</title>
<path fill="none" stroke="#9a32cd" stroke-dasharray="5,2" d="M317.68,-259.596C358.106,-256.461 408.024,-252.59 444.243,-249.781"/>
<polygon fill="#9a32cd" stroke="#9a32cd" points="317.32,-256.114 307.62,-260.376 317.861,-263.093 317.32,-256.114"/>
<text text-anchor="middle" x="364" y="-262" font-family="FreeSans" font-size="10.00"> eventSenders_</text>
</g>
<!-- Node8 -->
<g id="node15" class="node"><title>Node8</title>
<a xlink:href="class_urho3_d_1_1_linked_list.html" target="_top" xlink:title="Urho3D::LinkedList\l\&lt; Urho3D::EventHandler \&gt;">
<polygon fill="none" stroke="red" points="420,-145 420,-179 566,-179 566,-145 420,-145"/>
<text text-anchor="start" x="428" y="-166" font-family="FreeSans" font-size="10.00">Urho3D::LinkedList</text>
<text text-anchor="middle" x="493" y="-153" font-family="FreeSans" font-size="10.00">&lt; Urho3D::EventHandler &gt;</text>
</a>
</g>
<!-- Node8&#45;&gt;Node3 -->
<g id="edge16" class="edge"><title>Node8&#45;&gt;Node3</title>
<path fill="none" stroke="#9a32cd" stroke-dasharray="5,2" d="M576.319,-166.303C604.443,-168.933 635.837,-173.171 664,-180 672.342,-182.023 673.949,-184.023 682,-187 690.558,-190.164 699.882,-193.488 708.463,-196.497"/>
<polygon fill="#9a32cd" stroke="#9a32cd" points="576.386,-162.795 566.118,-165.405 575.772,-169.768 576.386,-162.795"/>
<text text-anchor="middle" x="624" y="-184" font-family="FreeSans" font-size="10.00"> eventHandlers_</text>
</g>
<!-- Node9 -->
<g id="node17" class="node"><title>Node9</title>
<a xlink:href="class_urho3_d_1_1_timer.html" target="_top" xlink:title="Low&#45;resolution operating system timer.">
<polygon fill="none" stroke="black" points="696,-156.5 696,-177.5 782,-177.5 782,-156.5 696,-156.5"/>
<text text-anchor="middle" x="739" y="-164.5" font-family="FreeSans" font-size="10.00">Urho3D::Timer</text>
</a>
</g>
<!-- Node9&#45;&gt;Node2 -->
<g id="edge18" class="edge"><title>Node9&#45;&gt;Node2</title>
<path fill="none" stroke="#9a32cd" stroke-dasharray="5,2" d="M792.407,-175.571C817.768,-179.742 848.481,-184.939 876,-190 886.953,-192.014 898.676,-194.284 909.809,-196.494"/>
<polygon fill="#9a32cd" stroke="#9a32cd" points="792.686,-172.07 782.252,-173.908 791.555,-178.978 792.686,-172.07"/>
<text text-anchor="middle" x="845" y="-194" font-family="FreeSans" font-size="10.00"> useTimer_</text>
</g>
<!-- Node10 -->
<g id="node19" class="node"><title>Node10</title>
<a xlink:href="class_urho3_d_1_1_string.html" target="_top" xlink:title="String class.">
<polygon fill="none" stroke="black" points="695,-45.5 695,-66.5 783,-66.5 783,-45.5 695,-45.5"/>
<text text-anchor="middle" x="739" y="-53.5" font-family="FreeSans" font-size="10.00">Urho3D::String</text>
</a>
</g>
<!-- Node10&#45;&gt;Node1 -->
<g id="edge40" class="edge"><title>Node10&#45;&gt;Node1</title>
<path fill="none" stroke="#9a32cd" stroke-dasharray="5,2" d="M773.214,-41.7619C816.248,-25.1709 892.778,-0 961,-0 961,-0 961,-0 1969,-0 2071.02,-0 2163.2,-104.819 2190.7,-139.212"/>
<polygon fill="#9a32cd" stroke="#9a32cd" points="771.814,-38.5515 763.788,-45.4668 774.375,-45.0664 771.814,-38.5515"/>
<text text-anchor="middle" x="1426" y="-4" font-family="FreeSans" font-size="10.00"> loadTextureName_</text>
</g>
<!-- Node10&#45;&gt;Node2 -->
<g id="edge20" class="edge"><title>Node10&#45;&gt;Node2</title>
<path fill="none" stroke="#9a32cd" stroke-dasharray="5,2" d="M763.936,-72.4631C792.687,-92.0992 840.536,-126.835 876,-163 885.335,-172.52 883.061,-179.376 894,-187 899.477,-190.818 905.694,-193.918 912.079,-196.433"/>
<polygon fill="#9a32cd" stroke="#9a32cd" points="765.558,-69.3346 755.312,-66.6356 761.638,-75.1346 765.558,-69.3346"/>
<text text-anchor="middle" x="845" y="-167" font-family="FreeSans" font-size="10.00"> name_</text>
</g>
<!-- Node10&#45;&gt;Node10 -->
<g id="edge22" class="edge"><title>Node10&#45;&gt;Node10</title>
<path fill="none" stroke="#9a32cd" stroke-dasharray="5,2" d="M719.465,-76.4266C720.972,-81.3489 727.484,-85 739,-85 757.426,-85 763.04,-75.6531 755.842,-66.7079"/>
<polygon fill="#9a32cd" stroke="#9a32cd" points="722.861,-77.2793 722.158,-66.7079 716.115,-75.4105 722.861,-77.2793"/>
<text text-anchor="middle" x="739" y="-89" font-family="FreeSans" font-size="10.00"> EMPTY</text>
</g>
<!-- Node11 -->
<g id="node22" class="node"><title>Node11</title>
<a xlink:href="class_urho3_d_1_1_string_hash.html" target="_top" xlink:title="32&#45;bit hash value for a string.">
<polygon fill="none" stroke="black" points="682.5,-236.5 682.5,-257.5 795.5,-257.5 795.5,-236.5 682.5,-236.5"/>
<text text-anchor="middle" x="739" y="-244.5" font-family="FreeSans" font-size="10.00">Urho3D::StringHash</text>
</a>
</g>
<!-- Node11&#45;&gt;Node2 -->
<g id="edge24" class="edge"><title>Node11&#45;&gt;Node2</title>
<path fill="none" stroke="#9a32cd" stroke-dasharray="5,2" d="M805.695,-234.983C838.952,-228.991 878.557,-221.855 909.449,-216.289"/>
<polygon fill="#9a32cd" stroke="#9a32cd" points="804.815,-231.585 795.594,-236.803 806.057,-238.474 804.815,-231.585"/>
<text text-anchor="middle" x="845" y="-236" font-family="FreeSans" font-size="10.00"> nameHash_</text>
</g>
<!-- Node11&#45;&gt;Node11 -->
<g id="edge26" class="edge"><title>Node11&#45;&gt;Node11</title>
<path fill="none" stroke="#9a32cd" stroke-dasharray="5,2" d="M719.465,-267.427C720.972,-272.349 727.484,-276 739,-276 757.426,-276 763.04,-266.653 755.842,-257.708"/>
<polygon fill="#9a32cd" stroke="#9a32cd" points="722.861,-268.279 722.158,-257.708 716.115,-266.41 722.861,-268.279"/>
<text text-anchor="middle" x="739" y="-280" font-family="FreeSans" font-size="10.00"> ZERO</text>
</g>
<!-- Node12 -->
<g id="node25" class="node"><title>Node12</title>
<a xlink:href="class_urho3_d_1_1_hash_map.html" target="_top" xlink:title="Urho3D::HashMap\&lt; Urho3D\l::String, Urho3D::SharedPtr\l\&lt; Urho3D::Sprite2D \&gt; \&gt;">
<polygon fill="none" stroke="black" points="1518,-21.5 1518,-68.5 1670,-68.5 1670,-21.5 1518,-21.5"/>
<text text-anchor="start" x="1526" y="-55.5" font-family="FreeSans" font-size="10.00">Urho3D::HashMap&lt; Urho3D</text>
<text text-anchor="start" x="1526" y="-42.5" font-family="FreeSans" font-size="10.00">::String, Urho3D::SharedPtr</text>
<text text-anchor="middle" x="1594" y="-29.5" font-family="FreeSans" font-size="10.00">&lt; Urho3D::Sprite2D &gt; &gt;</text>
</a>
</g>
<!-- Node12&#45;&gt;Node1 -->
<g id="edge28" class="edge"><title>Node12&#45;&gt;Node1</title>
<path fill="none" stroke="#9a32cd" stroke-dasharray="5,2" d="M1680.28,-50.9459C1768.78,-58.1026 1910.07,-72.4718 2030,-98 2080.29,-108.705 2137.12,-127.663 2170.4,-139.491"/>
<polygon fill="#9a32cd" stroke="#9a32cd" points="1680.54,-47.4551 1670.29,-50.1503 1679.98,-54.433 1680.54,-47.4551"/>
<text text-anchor="middle" x="1852" y="-78" font-family="FreeSans" font-size="10.00"> spriteMapping_</text>
</g>
<!-- Node13 -->
<g id="node27" class="node"><title>Node13</title>
<a xlink:href="class_urho3_d_1_1_hash_base.html" target="_top" xlink:title="Hash set/map base class.">
<polygon fill="none" stroke="black" points="1114,-43.5 1114,-64.5 1222,-64.5 1222,-43.5 1114,-43.5"/>
<text text-anchor="middle" x="1168" y="-51.5" font-family="FreeSans" font-size="10.00">Urho3D::HashBase</text>
</a>
</g>
<!-- Node13&#45;&gt;Node12 -->
<g id="edge30" class="edge"><title>Node13&#45;&gt;Node12</title>
<path fill="none" stroke="midnightblue" d="M1232.84,-52.6302C1309.36,-51.0135 1436.44,-48.3288 1517.65,-46.613"/>
<polygon fill="midnightblue" stroke="midnightblue" points="1232.31,-49.1405 1222.39,-52.851 1232.46,-56.1389 1232.31,-49.1405"/>
</g>
<!-- Node25 -->
<g id="node58" class="node"><title>Node25</title>
<a xlink:href="class_urho3_d_1_1_hash_map.html" target="_top" xlink:title="Urho3D::HashMap\&lt; String,\l PListValue \&gt;">
<polygon fill="none" stroke="black" points="1352.5,-69 1352.5,-103 1499.5,-103 1499.5,-69 1352.5,-69"/>
<text text-anchor="start" x="1360.5" y="-90" font-family="FreeSans" font-size="10.00">Urho3D::HashMap&lt; String,</text>
<text text-anchor="middle" x="1426" y="-77" font-family="FreeSans" font-size="10.00"> PListValue &gt;</text>
</a>
</g>
<!-- Node13&#45;&gt;Node25 -->
<g id="edge70" class="edge"><title>Node13&#45;&gt;Node25</title>
<path fill="none" stroke="midnightblue" d="M1232.11,-61.9522C1268.6,-66.4781 1314.46,-72.1655 1352.41,-76.8729"/>
<polygon fill="midnightblue" stroke="midnightblue" points="1232.44,-58.4658 1222.09,-60.7082 1231.58,-65.4126 1232.44,-58.4658"/>
</g>
<!-- Node14 -->
<g id="node29" class="node"><title>Node14</title>
<a xlink:href="struct_urho3_d_1_1_hash_node_base.html" target="_top" xlink:title="Hash set/map node base class.">
<polygon fill="none" stroke="black" points="894,-28.5 894,-49.5 1028,-49.5 1028,-28.5 894,-28.5"/>
<text text-anchor="middle" x="961" y="-36.5" font-family="FreeSans" font-size="10.00">Urho3D::HashNodeBase</text>
</a>
</g>
<!-- Node14&#45;&gt;Node13 -->
<g id="edge32" class="edge"><title>Node14&#45;&gt;Node13</title>
<path fill="none" stroke="#9a32cd" stroke-dasharray="5,2" d="M1038.15,-37.967C1057.1,-38.3124 1077.31,-39.1867 1096,-41 1102.32,-41.6133 1108.92,-42.483 1115.45,-43.4855"/>
<polygon fill="#9a32cd" stroke="#9a32cd" points="1038.12,-34.4663 1028.07,-37.8296 1038.02,-41.4656 1038.12,-34.4663"/>
<text text-anchor="middle" x="1071" y="-71" font-family="FreeSans" font-size="10.00"> ptrs_</text>
<text text-anchor="middle" x="1071" y="-58" font-family="FreeSans" font-size="10.00">tail_</text>
<text text-anchor="middle" x="1071" y="-45" font-family="FreeSans" font-size="10.00">head_</text>
</g>
<!-- Node14&#45;&gt;Node14 -->
<g id="edge34" class="edge"><title>Node14&#45;&gt;Node14</title>
<path fill="none" stroke="#9a32cd" stroke-dasharray="5,2" d="M940.728,-59.4266C942.292,-64.3489 949.049,-68 961,-68 980.121,-68 985.947,-58.6531 978.478,-49.7079"/>
<polygon fill="#9a32cd" stroke="#9a32cd" points="944.123,-60.2856 943.522,-49.7079 937.395,-58.3516 944.123,-60.2856"/>
<text text-anchor="middle" x="961" y="-98" font-family="FreeSans" font-size="10.00"> next_</text>
<text text-anchor="middle" x="961" y="-85" font-family="FreeSans" font-size="10.00">prev_</text>
<text text-anchor="middle" x="961" y="-72" font-family="FreeSans" font-size="10.00">down_</text>
</g>
<!-- Node15 -->
<g id="node32" class="node"><title>Node15</title>
<a xlink:href="struct_urho3_d_1_1_allocator_block.html" target="_top" xlink:title="Allocator memory block.">
<polygon fill="none" stroke="red" points="897.5,-125.5 897.5,-146.5 1024.5,-146.5 1024.5,-125.5 897.5,-125.5"/>
<text text-anchor="middle" x="961" y="-133.5" font-family="FreeSans" font-size="10.00">Urho3D::AllocatorBlock</text>
</a>
</g>
<!-- Node15&#45;&gt;Node13 -->
<g id="edge36" class="edge"><title>Node15&#45;&gt;Node13</title>
<path fill="none" stroke="#9a32cd" stroke-dasharray="5,2" d="M1013.27,-122.067C1018.33,-120.224 1023.31,-118.201 1028,-116 1036.7,-111.913 1037.51,-108.512 1046,-104 1076.12,-87.9943 1112.51,-73.6822 1137.66,-64.5144"/>
<polygon fill="#9a32cd" stroke="#9a32cd" points="1011.87,-118.849 1003.53,-125.389 1014.12,-125.474 1011.87,-118.849"/>
<text text-anchor="middle" x="1071" y="-108" font-family="FreeSans" font-size="10.00"> allocator_</text>
</g>
<!-- Node15&#45;&gt;Node15 -->
<g id="edge38" class="edge"><title>Node15&#45;&gt;Node15</title>
<path fill="none" stroke="#9a32cd" stroke-dasharray="5,2" d="M940.728,-156.427C942.292,-161.349 949.049,-165 961,-165 980.121,-165 985.947,-155.653 978.478,-146.708"/>
<polygon fill="#9a32cd" stroke="#9a32cd" points="944.123,-157.286 943.522,-146.708 937.395,-155.352 944.123,-157.286"/>
<text text-anchor="middle" x="961" y="-169" font-family="FreeSans" font-size="10.00"> next_</text>
</g>
<!-- Node16 -->
<g id="node36" class="node"><title>Node16</title>
<a xlink:href="class_urho3_d_1_1_shared_ptr.html" target="_top" xlink:title="Urho3D::SharedPtr\&lt;\l Urho3D::XMLFile \&gt;">
<polygon fill="none" stroke="black" points="1368,-197 1368,-231 1484,-231 1484,-197 1368,-197"/>
<text text-anchor="start" x="1376" y="-218" font-family="FreeSans" font-size="10.00">Urho3D::SharedPtr&lt;</text>
<text text-anchor="middle" x="1426" y="-205" font-family="FreeSans" font-size="10.00"> Urho3D::XMLFile &gt;</text>
</a>
</g>
<!-- Node16&#45;&gt;Node1 -->
<g id="edge42" class="edge"><title>Node16&#45;&gt;Node1</title>
<path fill="none" stroke="#9a32cd" stroke-dasharray="5,2" d="M1494.26,-213.812C1644.33,-212.932 1998.89,-208.165 2116,-183 2137.98,-178.276 2161.69,-168.317 2178.12,-160.568"/>
<polygon fill="#9a32cd" stroke="#9a32cd" points="1494.23,-210.312 1484.25,-213.867 1494.27,-217.312 1494.23,-210.312"/>
<text text-anchor="middle" x="1852" y="-211" font-family="FreeSans" font-size="10.00"> loadXMLFile_</text>
</g>
<!-- Node19 -->
<g id="node43" class="node"><title>Node19</title>
<a xlink:href="class_urho3_d_1_1_texture2_d.html" target="_top" xlink:title="2D texture resource.">
<polygon fill="none" stroke="black" points="1688.5,-265.5 1688.5,-286.5 1795.5,-286.5 1795.5,-265.5 1688.5,-265.5"/>
<text text-anchor="middle" x="1742" y="-273.5" font-family="FreeSans" font-size="10.00">Urho3D::Texture2D</text>
</a>
</g>
<!-- Node16&#45;&gt;Node19 -->
<g id="edge60" class="edge"><title>Node16&#45;&gt;Node19</title>
<path fill="none" stroke="#9a32cd" stroke-dasharray="5,2" d="M1494.49,-220.976C1543.77,-226.819 1611.56,-236.553 1670,-251 1685.29,-254.779 1701.92,-260.446 1715.34,-265.43"/>
<polygon fill="#9a32cd" stroke="#9a32cd" points="1494.61,-217.466 1484.27,-219.788 1493.8,-224.419 1494.61,-217.466"/>
<text text-anchor="middle" x="1594" y="-255" font-family="FreeSans" font-size="10.00"> loadParameters_</text>
</g>
<!-- Node17&#45;&gt;Node16 -->
<g id="edge44" class="edge"><title>Node17&#45;&gt;Node16</title>
<path fill="none" stroke="#9a32cd" stroke-dasharray="5,2" d="M1225.16,-211.665C1267.47,-212.157 1324.92,-212.825 1367.54,-213.32"/>
<polygon fill="#9a32cd" stroke="#9a32cd" points="1225.06,-208.163 1215.02,-211.547 1224.98,-215.163 1225.06,-208.163"/>
<text text-anchor="middle" x="1287" y="-216" font-family="FreeSans" font-size="10.00"> ptr_</text>
</g>
<!-- Node18 -->
<g id="node41" class="node"><title>Node18</title>
<a xlink:href="class_urho3_d_1_1_shared_ptr.html" target="_top" xlink:title="Urho3D::SharedPtr\&lt;\l Urho3D::Texture2D \&gt;">
<polygon fill="none" stroke="black" points="1908,-241 1908,-275 2030,-275 2030,-241 1908,-241"/>
<text text-anchor="start" x="1916" y="-262" font-family="FreeSans" font-size="10.00">Urho3D::SharedPtr&lt;</text>
<text text-anchor="middle" x="1969" y="-249" font-family="FreeSans" font-size="10.00"> Urho3D::Texture2D &gt;</text>
</a>
</g>
<!-- Node18&#45;&gt;Node1 -->
<g id="edge48" class="edge"><title>Node18&#45;&gt;Node1</title>
<path fill="none" stroke="#9a32cd" stroke-dasharray="5,2" d="M2040.37,-246.948C2065.21,-241.334 2092.68,-233.055 2116,-221 2146.49,-205.239 2175.36,-176.273 2189.65,-160.653"/>
<polygon fill="#9a32cd" stroke="#9a32cd" points="2039.31,-243.596 2030.27,-249.12 2040.78,-250.439 2039.31,-243.596"/>
<text text-anchor="middle" x="2082" y="-248" font-family="FreeSans" font-size="10.00"> texture_</text>
</g>
<!-- Node19&#45;&gt;Node18 -->
<g id="edge50" class="edge"><title>Node19&#45;&gt;Node18</title>
<path fill="none" stroke="#9a32cd" stroke-dasharray="5,2" d="M1805.64,-270.953C1837.63,-268.417 1876.2,-265.359 1907.83,-262.85"/>
<polygon fill="#9a32cd" stroke="#9a32cd" points="1805.2,-267.477 1795.51,-271.757 1805.75,-274.456 1805.2,-267.477"/>
<text text-anchor="middle" x="1852" y="-274" font-family="FreeSans" font-size="10.00"> ptr_</text>
</g>
<!-- Node20&#45;&gt;Node19 -->
<g id="edge52" class="edge"><title>Node20&#45;&gt;Node19</title>
<path fill="none" stroke="midnightblue" d="M1344.2,-297.433C1419.23,-299.897 1554.86,-301.849 1670,-290 1677.85,-289.192 1686.13,-287.954 1694.15,-286.542"/>
<polygon fill="midnightblue" stroke="midnightblue" points="1344.14,-293.929 1334.03,-297.083 1343.9,-300.925 1344.14,-293.929"/>
</g>
<!-- Node21 -->
<g id="node48" class="node"><title>Node21</title>
<a xlink:href="class_urho3_d_1_1_shared_ptr.html" target="_top" xlink:title="Urho3D::SharedPtr\&lt;\l Urho3D::Image \&gt;">
<polygon fill="none" stroke="red" points="1368,-339 1368,-373 1484,-373 1484,-339 1368,-339"/>
<text text-anchor="start" x="1376" y="-360" font-family="FreeSans" font-size="10.00">Urho3D::SharedPtr&lt;</text>
<text text-anchor="middle" x="1426" y="-347" font-family="FreeSans" font-size="10.00"> Urho3D::Image &gt;</text>
</a>
</g>
<!-- Node21&#45;&gt;Node19 -->
<g id="edge56" class="edge"><title>Node21&#45;&gt;Node19</title>
<path fill="none" stroke="#9a32cd" stroke-dasharray="5,2" d="M1494.11,-355.816C1544.22,-353.682 1613.21,-346.503 1670,-325 1693.47,-316.112 1716.78,-298.148 1730.26,-286.615"/>
<polygon fill="#9a32cd" stroke="#9a32cd" points="1493.9,-352.321 1484.04,-356.188 1494.16,-359.317 1493.9,-352.321"/>
<text text-anchor="middle" x="1594" y="-358" font-family="FreeSans" font-size="10.00"> loadImage_</text>
</g>
<!-- Node22 -->
<g id="node50" class="node"><title>Node22</title>
<a xlink:href="class_urho3_d_1_1_shared_ptr.html" target="_top" xlink:title="Urho3D::SharedPtr\&lt;\l Urho3D::RenderSurface \&gt;">
<polygon fill="none" stroke="red" points="1354.5,-249 1354.5,-283 1497.5,-283 1497.5,-249 1354.5,-249"/>
<text text-anchor="start" x="1362.5" y="-270" font-family="FreeSans" font-size="10.00">Urho3D::SharedPtr&lt;</text>
<text text-anchor="middle" x="1426" y="-257" font-family="FreeSans" font-size="10.00"> Urho3D::RenderSurface &gt;</text>
</a>
</g>
<!-- Node22&#45;&gt;Node19 -->
<g id="edge58" class="edge"><title>Node22&#45;&gt;Node19</title>
<path fill="none" stroke="#9a32cd" stroke-dasharray="5,2" d="M1507.75,-268.587C1564.61,-270.386 1638.8,-272.734 1688.3,-274.301"/>
<polygon fill="#9a32cd" stroke="#9a32cd" points="1507.81,-265.087 1497.71,-268.269 1507.59,-272.084 1507.81,-265.087"/>
<text text-anchor="middle" x="1594" y="-277" font-family="FreeSans" font-size="10.00"> renderSurface_</text>
</g>
<!-- Node23 -->
<g id="node53" class="node"><title>Node23</title>
<a xlink:href="class_urho3_d_1_1_shared_ptr.html" target="_top" xlink:title="Urho3D::SharedPtr\&lt;\l Urho3D::PListFile \&gt;">
<polygon fill="none" stroke="black" points="1911,-107 1911,-141 2027,-141 2027,-107 1911,-107"/>
<text text-anchor="start" x="1919" y="-128" font-family="FreeSans" font-size="10.00">Urho3D::SharedPtr&lt;</text>
<text text-anchor="middle" x="1969" y="-115" font-family="FreeSans" font-size="10.00"> Urho3D::PListFile &gt;</text>
</a>
</g>
<!-- Node23&#45;&gt;Node1 -->
<g id="edge62" class="edge"><title>Node23&#45;&gt;Node1</title>
<path fill="none" stroke="#9a32cd" stroke-dasharray="5,2" d="M2037.17,-131.706C2067.68,-135.155 2103.5,-139.204 2133.67,-142.615"/>
<polygon fill="#9a32cd" stroke="#9a32cd" points="2037.37,-128.206 2027.04,-130.561 2036.58,-135.162 2037.37,-128.206"/>
<text text-anchor="middle" x="2082" y="-145" font-family="FreeSans" font-size="10.00"> loadPListFile_</text>
</g>
<!-- Node24&#45;&gt;Node23 -->
<g id="edge64" class="edge"><title>Node24&#45;&gt;Node23</title>
<path fill="none" stroke="#9a32cd" stroke-dasharray="5,2" d="M1800.9,-124C1834.72,-124 1877.02,-124 1910.73,-124"/>
<polygon fill="#9a32cd" stroke="#9a32cd" points="1800.7,-120.5 1790.7,-124 1800.7,-127.5 1800.7,-120.5"/>
<text text-anchor="middle" x="1852" y="-128" font-family="FreeSans" font-size="10.00"> ptr_</text>
</g>
<!-- Node25&#45;&gt;Node24 -->
<g id="edge68" class="edge"><title>Node25&#45;&gt;Node24</title>
<path fill="none" stroke="#9a32cd" stroke-dasharray="5,2" d="M1509.8,-88.1001C1557.11,-90.3037 1617.17,-94.8072 1670,-104 1683.04,-106.269 1697.12,-109.905 1709.34,-113.458"/>
<polygon fill="#9a32cd" stroke="#9a32cd" points="1509.74,-84.5943 1499.6,-87.6512 1509.44,-91.5875 1509.74,-84.5943"/>
<text text-anchor="middle" x="1594" y="-108" font-family="FreeSans" font-size="10.00"> root_</text>
</g>
</g>
</svg>
