<?xml version="1.0" encoding="UTF-8" standalone="no"?>
<!DOCTYPE svg PUBLIC "-//W3C//DTD SVG 1.1//EN"
 "http://www.w3.org/Graphics/SVG/1.1/DTD/svg11.dtd">
<!-- Generated by graphviz version 2.26.3 (20100126.1600)
 -->
<!-- Title: Urho3D::HttpRequest::ThreadFunction Pages: 1 -->
<!--zoomable 428 -->
<svg id="main" version="1.1" xmlns="http://www.w3.org/2000/svg" xmlns:xlink="http://www.w3.org/1999/xlink" xml:space="preserve" onload="init(evt)">
        <defs>
                <circle id="rim" cx="0" cy="0" r="7"/>
                <circle id="rim2" cx="0" cy="0" r="3.5"/>
                <g id="zoomPlus">
                        <use xlink:href="#rim" fill="#404040">
                                <set attributeName="fill" to="#808080" begin="zoomplus.mouseover" end="zoomplus.mouseout"/>
                        </use>
                        <path d="M-4,0h8M0,-4v8" fill="none" stroke="white" stroke-width="1.5" pointer-events="none"/>
                </g>
                <g id="zoomMin">
                        <use xlink:href="#rim" fill="#404040">
                                <set attributeName="fill" to="#808080" begin="zoomminus.mouseover" end="zoomminus.mouseout"/>
                        </use>
                        <path d="M-4,0h8" fill="none" stroke="white" stroke-width="1.5" pointer-events="none"/>
                </g>
                <g id="dirArrow">
                        <path fill="none" stroke="white" stroke-width="1.5" d="M0,-3.0v7 M-2.5,-0.5L0,-3.0L2.5,-0.5"/>
                </g>
               <g id="resetDef">
                       <use xlink:href="#rim2" fill="#404040">
                               <set attributeName="fill" to="#808080" begin="reset.mouseover" end="reset.mouseout"/>
                       </use>
               </g>
        </defs>

<script type="text/javascript">
var viewWidth = 668;
var viewHeight = 428;
var sectionId = 'dynsection-2';
</script>
<script xlink:href="svgpan.js"/>
<svg id="graph" class="graph">
<g id="viewport">
<title>Urho3D::HttpRequest::ThreadFunction</title>
<!-- Node1 -->
<g id="node1" class="node"><title>Node1</title>
<polygon fill="#bfbfbf" stroke="black" points="0.5,-193 0.5,-227 119.5,-227 119.5,-193 0.5,-193"/>
<text text-anchor="start" x="8.5" y="-214" font-family="FreeSans" font-size="10.00">Urho3D::HttpRequest</text>
<text text-anchor="middle" x="60" y="-201" font-family="FreeSans" font-size="10.00">::ThreadFunction</text>
</g>
<!-- Node2 -->
<g id="node3" class="node"><title>Node2</title>
<a xlink:href="class_urho3_d_1_1_string.html#a7cb1eb905c5e4b88d8d281455d8d0caf" target="_top" xlink:title="Return index to the first occurrence of a string, or NPOS if not found.">
<polygon fill="none" stroke="black" points="177.5,-398.5 177.5,-419.5 290.5,-419.5 290.5,-398.5 177.5,-398.5"/>
<text text-anchor="middle" x="234" y="-406.5" font-family="FreeSans" font-size="10.00">Urho3D::String::Find</text>
</a>
</g>
<!-- Node1&#45;&gt;Node2 -->
<g id="edge2" class="edge"><title>Node1&#45;&gt;Node2</title>
<path fill="none" stroke="midnightblue" d="M64.1608,-227.039C73.8096,-262.826 101.185,-346.038 156,-389 159.626,-391.842 163.611,-394.283 167.802,-396.381"/>
<polygon fill="midnightblue" stroke="midnightblue" points="166.679,-399.708 177.248,-400.444 169.445,-393.277 166.679,-399.708"/>
</g>
<!-- Node3 -->
<g id="node5" class="node"><title>Node3</title>
<a xlink:href="class_urho3_d_1_1_string.html#ade8095f1798d6e1d4ed03d43d9919611" target="_top" xlink:title="Return a substring from position to end.">
<polygon fill="none" stroke="black" points="164,-358.5 164,-379.5 304,-379.5 304,-358.5 164,-358.5"/>
<text text-anchor="middle" x="234" y="-366.5" font-family="FreeSans" font-size="10.00">Urho3D::String::Substring</text>
</a>
</g>
<!-- Node1&#45;&gt;Node3 -->
<g id="edge4" class="edge"><title>Node1&#45;&gt;Node3</title>
<path fill="none" stroke="midnightblue" d="M66.9405,-227.067C79.8712,-256.647 110.525,-317.306 156,-349 158.753,-350.918 161.675,-352.653 164.71,-354.221"/>
<polygon fill="midnightblue" stroke="midnightblue" points="163.545,-357.535 174.101,-358.445 166.416,-351.151 163.545,-357.535"/>
</g>
<!-- Node7 -->
<g id="node14" class="node"><title>Node7</title>
<a xlink:href="class_urho3_d_1_1_vector.html#a06762e9e70b9851f54a845555f28cd4b" target="_top" xlink:title="Return size of vector.">
<polygon fill="none" stroke="black" points="176,-318.5 176,-339.5 292,-339.5 292,-318.5 176,-318.5"/>
<text text-anchor="middle" x="234" y="-326.5" font-family="FreeSans" font-size="10.00">Urho3D::Vector::Size</text>
</a>
</g>
<!-- Node1&#45;&gt;Node7 -->
<g id="edge14" class="edge"><title>Node1&#45;&gt;Node7</title>
<path fill="none" stroke="midnightblue" d="M71.8676,-227.145C88.2085,-249.428 119.764,-287.968 156,-309 159.673,-311.132 163.572,-313.039 167.592,-314.745"/>
<polygon fill="midnightblue" stroke="midnightblue" points="166.552,-318.094 177.143,-318.373 169.037,-311.55 166.552,-318.094"/>
</g>
<!-- Node8 -->
<g id="node16" class="node"><title>Node8</title>
<a xlink:href="class_urho3_d_1_1_string.html#a11572e3c07f60de65ac5d0c1ca5b6ba3" target="_top" xlink:title="Return length.">
<polygon fill="none" stroke="black" points="170.5,-278.5 170.5,-299.5 297.5,-299.5 297.5,-278.5 170.5,-278.5"/>
<text text-anchor="middle" x="234" y="-286.5" font-family="FreeSans" font-size="10.00">Urho3D::String::Length</text>
</a>
</g>
<!-- Node1&#45;&gt;Node8 -->
<g id="edge16" class="edge"><title>Node1&#45;&gt;Node8</title>
<path fill="none" stroke="midnightblue" d="M83.3769,-227.143C102.178,-240.228 129.705,-257.85 156,-269 161.743,-271.435 167.855,-273.629 174.031,-275.592"/>
<polygon fill="midnightblue" stroke="midnightblue" points="173.163,-278.986 183.747,-278.488 175.163,-272.277 173.163,-278.986"/>
</g>
<!-- Node9 -->
<g id="node18" class="node"><title>Node9</title>
<a xlink:href="class_urho3_d_1_1_string.html#a69ac7aadaa628fc05fc96abde992fcdc" target="_top" xlink:title="Return whether the string is empty.">
<polygon fill="none" stroke="black" points="171.5,-238.5 171.5,-259.5 296.5,-259.5 296.5,-238.5 171.5,-238.5"/>
<text text-anchor="middle" x="234" y="-246.5" font-family="FreeSans" font-size="10.00">Urho3D::String::Empty</text>
</a>
</g>
<!-- Node1&#45;&gt;Node9 -->
<g id="edge18" class="edge"><title>Node1&#45;&gt;Node9</title>
<path fill="none" stroke="midnightblue" d="M119.881,-223.422C138.378,-227.567 158.691,-232.12 176.989,-236.222"/>
<polygon fill="midnightblue" stroke="midnightblue" points="176.399,-239.676 186.922,-238.448 177.93,-232.846 176.399,-239.676"/>
</g>
<!-- Node10 -->
<g id="node20" class="node"><title>Node10</title>
<a xlink:href="class_urho3_d_1_1_string.html#a6b405eba451da6c0f216a8649adf79aa" target="_top" xlink:title="Return the C string.">
<polygon fill="none" stroke="black" points="348.5,-180.5 348.5,-201.5 477.5,-201.5 477.5,-180.5 348.5,-180.5"/>
<text text-anchor="middle" x="413" y="-188.5" font-family="FreeSans" font-size="10.00">Urho3D::String::CString</text>
</a>
</g>
<!-- Node1&#45;&gt;Node10 -->
<g id="edge20" class="edge"><title>Node1&#45;&gt;Node10</title>
<path fill="none" stroke="midnightblue" d="M119.882,-206.777C180.097,-203.536 273.092,-198.53 338.142,-195.029"/>
<polygon fill="midnightblue" stroke="midnightblue" points="338.536,-198.513 348.333,-194.481 338.159,-191.523 338.536,-198.513"/>
</g>
<!-- Node11 -->
<g id="node22" class="node"><title>Node11</title>
<a xlink:href="class_urho3_d_1_1_string.html#a30d9382c1a0c355253038fb976bbaba5" target="_top" xlink:title="Return comparison result with a string.">
<polygon fill="none" stroke="black" points="165,-160.5 165,-181.5 303,-181.5 303,-160.5 165,-160.5"/>
<text text-anchor="middle" x="234" y="-168.5" font-family="FreeSans" font-size="10.00">Urho3D::String::Compare</text>
</a>
</g>
<!-- Node1&#45;&gt;Node11 -->
<g id="edge22" class="edge"><title>Node1&#45;&gt;Node11</title>
<path fill="none" stroke="midnightblue" d="M119.881,-196.578C138.378,-192.433 158.691,-187.88 176.989,-183.778"/>
<polygon fill="midnightblue" stroke="midnightblue" points="177.93,-187.154 186.922,-181.552 176.399,-180.324 177.93,-187.154"/>
</g>
<!-- Node12 -->
<g id="node25" class="node"><title>Node12</title>
<a xlink:href="class_urho3_d_1_1_shared_array_ptr.html#ac0a9f7d0728fa3ba9be5889f44f7ac46" target="_top" xlink:title="Return the raw pointer.">
<polygon fill="none" stroke="black" points="156,-120.5 156,-141.5 312,-141.5 312,-120.5 156,-120.5"/>
<text text-anchor="middle" x="234" y="-128.5" font-family="FreeSans" font-size="10.00">Urho3D::SharedArrayPtr::Get</text>
</a>
</g>
<!-- Node1&#45;&gt;Node12 -->
<g id="edge26" class="edge"><title>Node1&#45;&gt;Node12</title>
<path fill="none" stroke="midnightblue" d="M83.3769,-192.857C102.178,-179.772 129.705,-162.15 156,-151 161.743,-148.565 167.855,-146.371 174.031,-144.408"/>
<polygon fill="midnightblue" stroke="midnightblue" points="175.163,-147.723 183.747,-141.512 173.163,-141.014 175.163,-147.723"/>
</g>
<!-- Node13 -->
<g id="node27" class="node"><title>Node13</title>
<a xlink:href="class_urho3_d_1_1_mutex.html#af074ebf663200871fcff04759948f69d" target="_top" xlink:title="Acquire the mutex. Block if already acquired.">
<polygon fill="none" stroke="black" points="168.5,-80.5 168.5,-101.5 299.5,-101.5 299.5,-80.5 168.5,-80.5"/>
<text text-anchor="middle" x="234" y="-88.5" font-family="FreeSans" font-size="10.00">Urho3D::Mutex::Acquire</text>
</a>
</g>
<!-- Node1&#45;&gt;Node13 -->
<g id="edge28" class="edge"><title>Node1&#45;&gt;Node13</title>
<path fill="none" stroke="midnightblue" d="M71.8676,-192.855C88.2085,-170.572 119.764,-132.032 156,-111 159.673,-108.868 163.572,-106.961 167.592,-105.255"/>
<polygon fill="midnightblue" stroke="midnightblue" points="169.037,-108.45 177.143,-101.627 166.552,-101.906 169.037,-108.45"/>
</g>
<!-- Node14 -->
<g id="node29" class="node"><title>Node14</title>
<a xlink:href="class_urho3_d_1_1_mutex.html#a152ccfbd074546b9aab23c0ad6ba254e" target="_top" xlink:title="Release the mutex.">
<polygon fill="none" stroke="black" points="168.5,-40.5 168.5,-61.5 299.5,-61.5 299.5,-40.5 168.5,-40.5"/>
<text text-anchor="middle" x="234" y="-48.5" font-family="FreeSans" font-size="10.00">Urho3D::Mutex::Release</text>
</a>
</g>
<!-- Node1&#45;&gt;Node14 -->
<g id="edge30" class="edge"><title>Node1&#45;&gt;Node14</title>
<path fill="none" stroke="midnightblue" d="M66.9405,-192.933C79.8712,-163.353 110.525,-102.694 156,-71 158.753,-69.0816 161.675,-67.347 164.71,-65.7788"/>
<polygon fill="midnightblue" stroke="midnightblue" points="166.416,-68.8492 174.101,-61.5555 163.545,-62.4651 166.416,-68.8492"/>
</g>
<!-- Node15 -->
<g id="node31" class="node"><title>Node15</title>
<a xlink:href="class_urho3_d_1_1_time.html#af23f046cbb890e86fcfc9ee1e63f6935" target="_top" xlink:title="Sleep for a number of milliseconds.">
<polygon fill="none" stroke="black" points="176,-0.5 176,-21.5 292,-21.5 292,-0.5 176,-0.5"/>
<text text-anchor="middle" x="234" y="-8.5" font-family="FreeSans" font-size="10.00">Urho3D::Time::Sleep</text>
</a>
</g>
<!-- Node1&#45;&gt;Node15 -->
<g id="edge32" class="edge"><title>Node1&#45;&gt;Node15</title>
<path fill="none" stroke="midnightblue" d="M64.1608,-192.961C73.8096,-157.174 101.185,-73.9624 156,-31 159.189,-28.5005 162.656,-26.3106 166.297,-24.3922"/>
<polygon fill="midnightblue" stroke="midnightblue" points="167.978,-27.4729 175.646,-20.1613 165.092,-21.0955 167.978,-27.4729"/>
</g>
<!-- Node4 -->
<g id="node7" class="node"><title>Node4</title>
<a xlink:href="class_urho3_d_1_1_string.html#aed2d8d23da6f2403c7aaa20082036f88" target="_top" xlink:title="Resize the string.">
<polygon fill="none" stroke="black" points="351,-397.5 351,-418.5 475,-418.5 475,-397.5 351,-397.5"/>
<text text-anchor="middle" x="413" y="-405.5" font-family="FreeSans" font-size="10.00">Urho3D::String::Resize</text>
</a>
</g>
<!-- Node3&#45;&gt;Node4 -->
<g id="edge6" class="edge"><title>Node3&#45;&gt;Node4</title>
<path fill="none" stroke="midnightblue" d="M282.44,-379.554C304.727,-384.41 331.35,-390.21 354.725,-395.303"/>
<polygon fill="midnightblue" stroke="midnightblue" points="354.005,-398.728 364.521,-397.438 355.496,-391.889 354.005,-398.728"/>
</g>
<!-- Node5 -->
<g id="node9" class="node"><title>Node5</title>
<a xlink:href="class_urho3_d_1_1_string.html#a953822d6a39e507861ee02a24bb7996e" target="_top" xlink:title="Copy chars from one buffer to another.">
<polygon fill="none" stroke="black" points="514,-377.5 514,-398.5 660,-398.5 660,-377.5 514,-377.5"/>
<text text-anchor="middle" x="587" y="-385.5" font-family="FreeSans" font-size="10.00">Urho3D::String::CopyChars</text>
</a>
</g>
<!-- Node3&#45;&gt;Node5 -->
<g id="edge10" class="edge"><title>Node3&#45;&gt;Node5</title>
<path fill="none" stroke="midnightblue" d="M304.163,-372.777C361.565,-375.866 442.888,-380.243 503.61,-383.512"/>
<polygon fill="midnightblue" stroke="midnightblue" points="503.76,-387.025 513.933,-384.067 504.136,-380.035 503.76,-387.025"/>
</g>
<!-- Node6 -->
<g id="node12" class="node"><title>Node6</title>
<a xlink:href="class_urho3_d_1_1_string.html#a6cbd21dcf8801df80b76acebc4dbbdd3" target="_top" xlink:title="Construct empty.">
<polygon fill="none" stroke="black" points="352,-319.5 352,-340.5 474,-340.5 474,-319.5 352,-319.5"/>
<text text-anchor="middle" x="413" y="-327.5" font-family="FreeSans" font-size="10.00">Urho3D::String::String</text>
</a>
</g>
<!-- Node3&#45;&gt;Node6 -->
<g id="edge12" class="edge"><title>Node3&#45;&gt;Node6</title>
<path fill="none" stroke="midnightblue" d="M282.44,-358.446C304.727,-353.59 331.35,-347.79 354.725,-342.697"/>
<polygon fill="midnightblue" stroke="midnightblue" points="355.496,-346.111 364.521,-340.562 354.005,-339.272 355.496,-346.111"/>
</g>
<!-- Node4&#45;&gt;Node5 -->
<g id="edge8" class="edge"><title>Node4&#45;&gt;Node5</title>
<path fill="none" stroke="midnightblue" d="M475.327,-400.836C484.59,-399.771 494.261,-398.66 503.869,-397.555"/>
<polygon fill="midnightblue" stroke="midnightblue" points="504.304,-401.028 513.839,-396.409 503.504,-394.074 504.304,-401.028"/>
</g>
<!-- Node11&#45;&gt;Node10 -->
<g id="edge24" class="edge"><title>Node11&#45;&gt;Node10</title>
<path fill="none" stroke="midnightblue" d="M303.206,-178.733C314.696,-180.016 326.657,-181.353 338.276,-182.651"/>
<polygon fill="midnightblue" stroke="midnightblue" points="338.051,-186.148 348.378,-183.78 338.828,-179.191 338.051,-186.148"/>
</g>
</g>
</svg>
        <g id="navigator" transform="translate(0 0)" fill="#404254">
                <rect fill="#f2f5e9" fill-opacity="0.5" stroke="#606060" stroke-width=".5" x="0" y="0" width="60" height="60"/>
                <use id="zoomplus" xlink:href="#zoomPlus" x="17" y="9" onmousedown="handleZoom(evt,'in')"/>
                <use id="zoomminus" xlink:href="#zoomMin" x="42" y="9" onmousedown="handleZoom(evt,'out')"/>
                <use id="reset" xlink:href="#resetDef" x="30" y="36" onmousedown="handleReset()"/>
                <g id="arrowUp" xlink:href="#dirArrow" transform="translate(30 24)" onmousedown="handlePan(0,-1)">
                  <use xlink:href="#rim" fill="#404040">
                        <set attributeName="fill" to="#808080" begin="arrowUp.mouseover" end="arrowUp.mouseout"/>
                  </use>
                  <path fill="none" stroke="white" stroke-width="1.5" d="M0,-3.0v7 M-2.5,-0.5L0,-3.0L2.5,-0.5"/>
                </g>
                <g id="arrowRight" xlink:href="#dirArrow" transform="rotate(90) translate(36 -43)" onmousedown="handlePan(1,0)">
                  <use xlink:href="#rim" fill="#404040">
                        <set attributeName="fill" to="#808080" begin="arrowRight.mouseover" end="arrowRight.mouseout"/>
                  </use>
                  <path fill="none" stroke="white" stroke-width="1.5" d="M0,-3.0v7 M-2.5,-0.5L0,-3.0L2.5,-0.5"/>
                </g>
                <g id="arrowDown" xlink:href="#dirArrow" transform="rotate(180) translate(-30 -48)" onmousedown="handlePan(0,1)">
                  <use xlink:href="#rim" fill="#404040">
                        <set attributeName="fill" to="#808080" begin="arrowDown.mouseover" end="arrowDown.mouseout"/>
                  </use>
                  <path fill="none" stroke="white" stroke-width="1.5" d="M0,-3.0v7 M-2.5,-0.5L0,-3.0L2.5,-0.5"/>
                </g>
                <g id="arrowLeft" xlink:href="#dirArrow" transform="rotate(270) translate(-36 17)" onmousedown="handlePan(-1,0)">
                  <use xlink:href="#rim" fill="#404040">
                        <set attributeName="fill" to="#808080" begin="arrowLeft.mouseover" end="arrowLeft.mouseout"/>
                  </use>
                  <path fill="none" stroke="white" stroke-width="1.5" d="M0,-3.0v7 M-2.5,-0.5L0,-3.0L2.5,-0.5"/>
                </g>
        </g>
        <svg viewBox="0 0 15 15" width="100%" height="30px" preserveAspectRatio="xMaxYMin meet">
         <g id="arrow_out" transform="scale(0.3 0.3)">
          <a xlink:href="class_urho3_d_1_1_http_request_a119d79e4e4dfb87db35fc9d5d4be762b_cgraph_org.svg" target="_base">
           <rect id="button" ry="5" rx="5" y="6" x="6" height="38" width="38"
                fill="#f2f5e9" fill-opacity="0.5" stroke="#606060" stroke-width="1.0"/>
           <path id="arrow"
             d="M 11.500037,31.436501 C 11.940474,20.09759 22.043105,11.32322 32.158766,21.979434 L 37.068811,17.246167 C 37.068811,17.246167 37.088388,32 37.088388,32 L 22.160133,31.978069 C 22.160133,31.978069 26.997745,27.140456 26.997745,27.140456 C 18.528582,18.264221 13.291696,25.230495 11.500037,31.436501 z"
             style="fill:#404040;"/>
          </a>
         </g>
        </svg>
</svg>
