<?xml version="1.0" encoding="UTF-8" standalone="no"?>
<!DOCTYPE svg PUBLIC "-//W3C//DTD SVG 1.1//EN"
 "http://www.w3.org/Graphics/SVG/1.1/DTD/svg11.dtd">
<!-- Generated by graphviz version 2.26.3 (20100126.1600)
 -->
<!-- Title: Urho3D::ConstantBuffer Pages: 1 -->
<svg width="1618pt" height="913pt"
 viewBox="0.00 0.00 1618.00 913.00" xmlns="http://www.w3.org/2000/svg" xmlns:xlink="http://www.w3.org/1999/xlink">
<g id="graph1" class="graph" transform="scale(1 1) rotate(0) translate(4 909)">
<title>Urho3D::ConstantBuffer</title>
<!-- Node1 -->
<g id="node1" class="node"><title>Node1</title>
<polygon fill="#bfbfbf" stroke="black" points="735.5,-883.5 735.5,-904.5 866.5,-904.5 866.5,-883.5 735.5,-883.5"/>
<text text-anchor="middle" x="801" y="-891.5" font-family="FreeSans" font-size="10.00">Urho3D::ConstantBuffer</text>
</g>
<!-- Node22 -->
<g id="node53" class="node"><title>Node22</title>
<a xlink:href="class_urho3_d_1_1_graphics.html" target="_top" xlink:title="Graphics subsystem. Manages the application window, rendering state and GPU resources.">
<polygon fill="none" stroke="red" points="1084.5,-811.5 1084.5,-832.5 1185.5,-832.5 1185.5,-811.5 1084.5,-811.5"/>
<text text-anchor="middle" x="1135" y="-819.5" font-family="FreeSans" font-size="10.00">Urho3D::Graphics</text>
</a>
</g>
<!-- Node1&#45;&gt;Node22 -->
<g id="edge76" class="edge"><title>Node1&#45;&gt;Node22</title>
<path fill="none" stroke="#9a32cd" stroke-dasharray="5,2" d="M876.679,-885.556C935.966,-878.542 1013.37,-868.389 1044,-860 1068.77,-853.217 1095.75,-841.337 1113.85,-832.661"/>
<polygon fill="#9a32cd" stroke="#9a32cd" points="876.108,-882.099 866.584,-886.741 876.924,-889.052 876.108,-882.099"/>
<text text-anchor="middle" x="983" y="-883" font-family="FreeSans" font-size="10.00"> currentConstantBuffers_</text>
</g>
<!-- Node2 -->
<g id="node2" class="node"><title>Node2</title>
<a xlink:href="class_urho3_d_1_1_object.html" target="_top" xlink:title="Base class for objects with type identification, subsystem access and event sending/receiving capabil...">
<polygon fill="none" stroke="black" points="493,-719.5 493,-740.5 583,-740.5 583,-719.5 493,-719.5"/>
<text text-anchor="middle" x="538" y="-727.5" font-family="FreeSans" font-size="10.00">Urho3D::Object</text>
</a>
</g>
<!-- Node2&#45;&gt;Node1 -->
<g id="edge2" class="edge"><title>Node2&#45;&gt;Node1</title>
<path fill="none" stroke="midnightblue" d="M545.223,-750.475C556.673,-779.75 581.895,-833.007 622,-860 655.196,-882.343 699.292,-890.907 735.411,-893.853"/>
<polygon fill="midnightblue" stroke="midnightblue" points="548.41,-749.005 541.625,-740.867 541.854,-751.459 548.41,-749.005"/>
</g>
<!-- Node8 -->
<g id="node15" class="node"><title>Node8</title>
<a xlink:href="class_urho3_d_1_1_event_handler.html" target="_top" xlink:title="Internal helper class for invoking event handler functions.">
<polygon fill="none" stroke="black" points="739,-630.5 739,-651.5 863,-651.5 863,-630.5 739,-630.5"/>
<text text-anchor="middle" x="801" y="-638.5" font-family="FreeSans" font-size="10.00">Urho3D::EventHandler</text>
</a>
</g>
<!-- Node2&#45;&gt;Node8 -->
<g id="edge22" class="edge"><title>Node2&#45;&gt;Node8</title>
<path fill="none" stroke="#9a32cd" stroke-dasharray="5,2" d="M587.559,-715.103C593.6,-711.807 599.29,-707.818 604,-703 619.637,-687.006 604.116,-669.436 622,-656 640.014,-642.466 694.723,-639.432 738.962,-639.356"/>
<polygon fill="#9a32cd" stroke="#9a32cd" points="586.022,-711.958 578.531,-719.451 589.059,-718.265 586.022,-711.958"/>
<text text-anchor="middle" x="651" y="-673" font-family="FreeSans" font-size="10.00"> sender_</text>
<text text-anchor="middle" x="651" y="-660" font-family="FreeSans" font-size="10.00">receiver_</text>
</g>
<!-- Node2&#45;&gt;Node22 -->
<g id="edge66" class="edge"><title>Node2&#45;&gt;Node22</title>
<path fill="none" stroke="midnightblue" d="M557.695,-747.329C586.272,-771.228 641.968,-813.251 698,-830 833.226,-870.421 1002.64,-847.882 1085.18,-832.534"/>
<polygon fill="midnightblue" stroke="midnightblue" points="559.609,-744.361 549.726,-740.542 555.07,-749.69 559.609,-744.361"/>
</g>
<!-- Node3 -->
<g id="node4" class="node"><title>Node3</title>
<a xlink:href="class_urho3_d_1_1_ref_counted.html" target="_top" xlink:title="Base class for intrusively reference&#45;counted objects. These are noncopyable and non&#45;assignable.">
<polygon fill="none" stroke="black" points="188,-444.5 188,-465.5 302,-465.5 302,-444.5 188,-444.5"/>
<text text-anchor="middle" x="245" y="-452.5" font-family="FreeSans" font-size="10.00">Urho3D::RefCounted</text>
</a>
</g>
<!-- Node3&#45;&gt;Node2 -->
<g id="edge4" class="edge"><title>Node3&#45;&gt;Node2</title>
<path fill="none" stroke="midnightblue" d="M257.874,-474.077C289.404,-519.514 375.027,-635.375 472,-703 481.647,-709.727 493.223,-715.18 503.968,-719.377"/>
<polygon fill="midnightblue" stroke="midnightblue" points="260.687,-471.991 252.142,-465.728 254.917,-475.953 260.687,-471.991"/>
</g>
<!-- Node5 -->
<g id="node8" class="node"><title>Node5</title>
<a xlink:href="class_urho3_d_1_1_context.html" target="_top" xlink:title="Urho3D execution context. Provides access to subsystems, object factories and attributes, and event receivers.">
<polygon fill="none" stroke="black" points="1086.5,-383.5 1086.5,-404.5 1183.5,-404.5 1183.5,-383.5 1086.5,-383.5"/>
<text text-anchor="middle" x="1135" y="-391.5" font-family="FreeSans" font-size="10.00">Urho3D::Context</text>
</a>
</g>
<!-- Node3&#45;&gt;Node5 -->
<g id="edge10" class="edge"><title>Node3&#45;&gt;Node5</title>
<path fill="none" stroke="midnightblue" d="M312.292,-458.67C450.632,-464.843 776.449,-472.303 1044,-424 1066.59,-419.921 1091.27,-411.522 1109.22,-404.646"/>
<polygon fill="midnightblue" stroke="midnightblue" points="312.412,-455.172 302.262,-458.21 312.092,-462.165 312.412,-455.172"/>
</g>
<!-- Node4 -->
<g id="node6" class="node"><title>Node4</title>
<a xlink:href="struct_urho3_d_1_1_ref_count.html" target="_top" xlink:title="Reference count structure.">
<polygon fill="none" stroke="black" points="0,-444.5 0,-465.5 102,-465.5 102,-444.5 0,-444.5"/>
<text text-anchor="middle" x="51" y="-452.5" font-family="FreeSans" font-size="10.00">Urho3D::RefCount</text>
</a>
</g>
<!-- Node4&#45;&gt;Node3 -->
<g id="edge6" class="edge"><title>Node4&#45;&gt;Node3</title>
<path fill="none" stroke="#9a32cd" stroke-dasharray="5,2" d="M112.327,-455C136.436,-455 163.96,-455 187.666,-455"/>
<polygon fill="#9a32cd" stroke="#9a32cd" points="112.225,-451.5 102.225,-455 112.225,-458.5 112.225,-451.5"/>
<text text-anchor="middle" x="145" y="-459" font-family="FreeSans" font-size="10.00"> refCount_</text>
</g>
<!-- Node21 -->
<g id="node51" class="node"><title>Node21</title>
<a xlink:href="class_urho3_d_1_1_weak_ptr.html" target="_top" xlink:title="Urho3D::WeakPtr\&lt; Urho3D\l::Graphics \&gt;">
<polygon fill="none" stroke="black" points="1266,-805 1266,-839 1412,-839 1412,-805 1266,-805"/>
<text text-anchor="start" x="1274" y="-826" font-family="FreeSans" font-size="10.00">Urho3D::WeakPtr&lt; Urho3D</text>
<text text-anchor="middle" x="1339" y="-813" font-family="FreeSans" font-size="10.00">::Graphics &gt;</text>
</a>
</g>
<!-- Node4&#45;&gt;Node21 -->
<g id="edge78" class="edge"><title>Node4&#45;&gt;Node21</title>
<path fill="none" stroke="#9a32cd" stroke-dasharray="5,2" d="M55.0755,-434.224C73.1313,-345.144 149.266,-0 245,-0 245,-0 245,-0 1135,-0 1307.03,-0 1335.01,-686.789 1338.55,-804.831"/>
<polygon fill="#9a32cd" stroke="#9a32cd" points="51.6092,-433.709 53.0805,-444.202 58.4734,-435.082 51.6092,-433.709"/>
<text text-anchor="middle" x="651" y="-4" font-family="FreeSans" font-size="10.00"> refCount_</text>
</g>
<!-- Node25 -->
<g id="node64" class="node"><title>Node25</title>
<a xlink:href="class_urho3_d_1_1_shared_array_ptr.html" target="_top" xlink:title="Urho3D::SharedArrayPtr\l\&lt; unsigned char \&gt;">
<polygon fill="none" stroke="black" points="320.5,-748 320.5,-782 453.5,-782 453.5,-748 320.5,-748"/>
<text text-anchor="start" x="328.5" y="-769" font-family="FreeSans" font-size="10.00">Urho3D::SharedArrayPtr</text>
<text text-anchor="middle" x="387" y="-756" font-family="FreeSans" font-size="10.00">&lt; unsigned char &gt;</text>
</a>
</g>
<!-- Node4&#45;&gt;Node25 -->
<g id="edge82" class="edge"><title>Node4&#45;&gt;Node25</title>
<path fill="none" stroke="#9a32cd" stroke-dasharray="5,2" d="M70.1084,-472.63C129.445,-527.375 310.046,-694 368.519,-747.949"/>
<polygon fill="#9a32cd" stroke="#9a32cd" points="72.289,-469.88 62.5659,-465.671 67.5423,-475.024 72.289,-469.88"/>
<text text-anchor="middle" x="145" y="-568" font-family="FreeSans" font-size="10.00"> refCount_</text>
</g>
<!-- Node5&#45;&gt;Node2 -->
<g id="edge8" class="edge"><title>Node5&#45;&gt;Node2</title>
<path fill="none" stroke="#9a32cd" stroke-dasharray="5,2" d="M1131.36,-414.73C1120.51,-473.876 1086.53,-641.281 1044,-674 1013.48,-697.476 736.12,-687.587 698,-693 655.376,-699.053 607.369,-710.838 575.158,-719.487"/>
<polygon fill="#9a32cd" stroke="#9a32cd" points="1134.83,-415.171 1133.16,-404.709 1127.94,-413.93 1134.83,-415.171"/>
<text text-anchor="middle" x="801" y="-697" font-family="FreeSans" font-size="10.00"> context_</text>
</g>
<!-- Node6 -->
<g id="node11" class="node"><title>Node6</title>
<a xlink:href="class_urho3_d_1_1_p_o_d_vector.html" target="_top" xlink:title="Urho3D::PODVector\&lt;\l Urho3D::Object * \&gt;">
<polygon fill="none" stroke="black" points="741.5,-526 741.5,-560 860.5,-560 860.5,-526 741.5,-526"/>
<text text-anchor="start" x="749.5" y="-547" font-family="FreeSans" font-size="10.00">Urho3D::PODVector&lt;</text>
<text text-anchor="middle" x="801" y="-534" font-family="FreeSans" font-size="10.00"> Urho3D::Object * &gt;</text>
</a>
</g>
<!-- Node6&#45;&gt;Node5 -->
<g id="edge12" class="edge"><title>Node6&#45;&gt;Node5</title>
<path fill="none" stroke="#9a32cd" stroke-dasharray="5,2" d="M870.499,-536.982C931.586,-530.721 1015.12,-519.502 1044,-503 1086.38,-478.783 1117.64,-426.822 1129.63,-404.521"/>
<polygon fill="#9a32cd" stroke="#9a32cd" points="870.12,-533.503 860.518,-537.982 870.817,-540.468 870.12,-533.503"/>
<text text-anchor="middle" x="983" y="-534" font-family="FreeSans" font-size="10.00"> eventSenders_</text>
</g>
<!-- Node7 -->
<g id="node13" class="node"><title>Node7</title>
<a xlink:href="class_urho3_d_1_1_vector_base.html" target="_top" xlink:title="Vector base class.">
<polygon fill="none" stroke="black" points="481,-525.5 481,-546.5 595,-546.5 595,-525.5 481,-525.5"/>
<text text-anchor="middle" x="538" y="-533.5" font-family="FreeSans" font-size="10.00">Urho3D::VectorBase</text>
</a>
</g>
<!-- Node7&#45;&gt;Node6 -->
<g id="edge14" class="edge"><title>Node7&#45;&gt;Node6</title>
<path fill="none" stroke="midnightblue" d="M605.205,-537.789C647.203,-538.907 700.807,-540.333 741.306,-541.411"/>
<polygon fill="midnightblue" stroke="midnightblue" points="605.157,-534.286 595.067,-537.519 604.97,-541.284 605.157,-534.286"/>
</g>
<!-- Node15 -->
<g id="node34" class="node"><title>Node15</title>
<a xlink:href="class_urho3_d_1_1_p_o_d_vector.html" target="_top" xlink:title="Urho3D::PODVector\&lt;\l Urho3D::HashMap * \&gt;">
<polygon fill="none" stroke="black" points="737.5,-474 737.5,-508 864.5,-508 864.5,-474 737.5,-474"/>
<text text-anchor="start" x="745.5" y="-495" font-family="FreeSans" font-size="10.00">Urho3D::PODVector&lt;</text>
<text text-anchor="middle" x="801" y="-482" font-family="FreeSans" font-size="10.00"> Urho3D::HashMap * &gt;</text>
</a>
</g>
<!-- Node7&#45;&gt;Node15 -->
<g id="edge42" class="edge"><title>Node7&#45;&gt;Node15</title>
<path fill="none" stroke="midnightblue" d="M605.136,-524.513C645.714,-517.57 697.146,-508.77 737.123,-501.93"/>
<polygon fill="midnightblue" stroke="midnightblue" points="604.334,-521.099 595.067,-526.236 605.514,-527.999 604.334,-521.099"/>
</g>
<!-- Node24 -->
<g id="node59" class="node"><title>Node24</title>
<a xlink:href="class_urho3_d_1_1_vector.html" target="_top" xlink:title="Urho3D::Vector\&lt; Urho3D\l::ScratchBuffer \&gt;">
<polygon fill="none" stroke="black" points="732,-578 732,-612 870,-612 870,-578 732,-578"/>
<text text-anchor="start" x="740" y="-599" font-family="FreeSans" font-size="10.00">Urho3D::Vector&lt; Urho3D</text>
<text text-anchor="middle" x="801" y="-586" font-family="FreeSans" font-size="10.00">::ScratchBuffer &gt;</text>
</a>
</g>
<!-- Node7&#45;&gt;Node24 -->
<g id="edge74" class="edge"><title>Node7&#45;&gt;Node24</title>
<path fill="none" stroke="midnightblue" d="M594.924,-548.77C635.121,-557.788 689.206,-569.921 731.882,-579.495"/>
<polygon fill="midnightblue" stroke="midnightblue" points="595.543,-545.322 585.019,-546.548 594.01,-552.152 595.543,-545.322"/>
</g>
<!-- Node8&#45;&gt;Node5 -->
<g id="edge16" class="edge"><title>Node8&#45;&gt;Node5</title>
<path fill="none" stroke="#9a32cd" stroke-dasharray="5,2" d="M873.005,-636.515C884.241,-633.253 895.069,-628.328 904,-621 920.334,-607.598 906.108,-590.924 922,-577 964.162,-540.058 999.12,-578.588 1044,-545 1094.48,-507.221 1122.64,-432.467 1131.72,-404.707"/>
<polygon fill="#9a32cd" stroke="#9a32cd" points="871.931,-633.175 863.063,-638.973 873.611,-639.971 871.931,-633.175"/>
<text text-anchor="middle" x="983" y="-581" font-family="FreeSans" font-size="10.00"> eventHandler_</text>
</g>
<!-- Node19 -->
<g id="node46" class="node"><title>Node19</title>
<a xlink:href="class_urho3_d_1_1_linked_list.html" target="_top" xlink:title="Urho3D::LinkedList\l\&lt; Urho3D::EventHandler \&gt;">
<polygon fill="none" stroke="black" points="1062,-681 1062,-715 1208,-715 1208,-681 1062,-681"/>
<text text-anchor="start" x="1070" y="-702" font-family="FreeSans" font-size="10.00">Urho3D::LinkedList</text>
<text text-anchor="middle" x="1135" y="-689" font-family="FreeSans" font-size="10.00">&lt; Urho3D::EventHandler &gt;</text>
</a>
</g>
<!-- Node8&#45;&gt;Node19 -->
<g id="edge58" class="edge"><title>Node8&#45;&gt;Node19</title>
<path fill="none" stroke="#9a32cd" stroke-dasharray="5,2" d="M872.808,-653.255C928.587,-662.774 1005.64,-675.923 1061.77,-685.503"/>
<polygon fill="#9a32cd" stroke="#9a32cd" points="873.096,-649.753 862.65,-651.521 871.919,-656.654 873.096,-649.753"/>
<text text-anchor="middle" x="983" y="-685" font-family="FreeSans" font-size="10.00"> head_</text>
</g>
<!-- Node9 -->
<g id="node17" class="node"><title>Node9</title>
<a xlink:href="struct_urho3_d_1_1_linked_list_node.html" target="_top" xlink:title="Singly&#45;linked list node base class.">
<polygon fill="none" stroke="black" points="472,-570.5 472,-591.5 604,-591.5 604,-570.5 472,-570.5"/>
<text text-anchor="middle" x="538" y="-578.5" font-family="FreeSans" font-size="10.00">Urho3D::LinkedListNode</text>
</a>
</g>
<!-- Node9&#45;&gt;Node8 -->
<g id="edge18" class="edge"><title>Node9&#45;&gt;Node8</title>
<path fill="none" stroke="midnightblue" d="M606.639,-593.621C630.172,-598.696 656.491,-605.211 680,-613 688.31,-615.753 689.65,-618.371 698,-621 711.031,-625.103 725.268,-628.518 738.885,-631.297"/>
<polygon fill="midnightblue" stroke="midnightblue" points="607.247,-590.172 596.74,-591.535 605.803,-597.022 607.247,-590.172"/>
</g>
<!-- Node9&#45;&gt;Node9 -->
<g id="edge20" class="edge"><title>Node9&#45;&gt;Node9</title>
<path fill="none" stroke="#9a32cd" stroke-dasharray="5,2" d="M517.36,-601.427C518.952,-606.349 525.832,-610 538,-610 557.469,-610 563.401,-600.653 555.796,-591.708"/>
<polygon fill="#9a32cd" stroke="#9a32cd" points="520.754,-602.288 520.204,-591.708 514.036,-600.322 520.754,-602.288"/>
<text text-anchor="middle" x="538" y="-614" font-family="FreeSans" font-size="10.00"> next_</text>
</g>
<!-- Node10 -->
<g id="node21" class="node"><title>Node10</title>
<a xlink:href="class_urho3_d_1_1_string_hash.html" target="_top" xlink:title="32&#45;bit hash value for a string.">
<polygon fill="none" stroke="black" points="481.5,-641.5 481.5,-662.5 594.5,-662.5 594.5,-641.5 481.5,-641.5"/>
<text text-anchor="middle" x="538" y="-649.5" font-family="FreeSans" font-size="10.00">Urho3D::StringHash</text>
</a>
</g>
<!-- Node10&#45;&gt;Node8 -->
<g id="edge24" class="edge"><title>Node10&#45;&gt;Node8</title>
<path fill="none" stroke="#9a32cd" stroke-dasharray="5,2" d="M589.278,-638.102C594.33,-636.247 599.316,-634.212 604,-632 612.694,-627.895 612.798,-622.786 622,-620 645.209,-612.973 705.933,-622.154 750.236,-630.492"/>
<polygon fill="#9a32cd" stroke="#9a32cd" points="587.862,-634.888 579.543,-641.448 590.137,-641.508 587.862,-634.888"/>
<text text-anchor="middle" x="651" y="-624" font-family="FreeSans" font-size="10.00"> eventType_</text>
</g>
<!-- Node10&#45;&gt;Node10 -->
<g id="edge26" class="edge"><title>Node10&#45;&gt;Node10</title>
<path fill="none" stroke="#9a32cd" stroke-dasharray="5,2" d="M517.36,-672.427C518.952,-677.349 525.832,-681 538,-681 557.469,-681 563.401,-671.653 555.796,-662.708"/>
<polygon fill="#9a32cd" stroke="#9a32cd" points="520.754,-673.288 520.204,-662.708 514.036,-671.322 520.754,-673.288"/>
<text text-anchor="middle" x="538" y="-685" font-family="FreeSans" font-size="10.00"> ZERO</text>
</g>
<!-- Node11 -->
<g id="node24" class="node"><title>Node11</title>
<a xlink:href="class_urho3_d_1_1_hash_map.html" target="_top" xlink:title="Urho3D::HashMap\&lt; Urho3D\l::StringHash, Urho3D::\lHashSet\&lt; Urho3D::Object * \&gt; \&gt;">
<polygon fill="none" stroke="black" points="714.5,-238.5 714.5,-285.5 887.5,-285.5 887.5,-238.5 714.5,-238.5"/>
<text text-anchor="start" x="722.5" y="-272.5" font-family="FreeSans" font-size="10.00">Urho3D::HashMap&lt; Urho3D</text>
<text text-anchor="start" x="722.5" y="-259.5" font-family="FreeSans" font-size="10.00">::StringHash, Urho3D::</text>
<text text-anchor="middle" x="801" y="-246.5" font-family="FreeSans" font-size="10.00">HashSet&lt; Urho3D::Object * &gt; &gt;</text>
</a>
</g>
<!-- Node11&#45;&gt;Node5 -->
<g id="edge28" class="edge"><title>Node11&#45;&gt;Node5</title>
<path fill="none" stroke="#9a32cd" stroke-dasharray="5,2" d="M897.584,-284.919C943.076,-297.338 997.444,-314.563 1044,-336 1073.1,-349.399 1103.93,-370.777 1121.19,-383.495"/>
<polygon fill="#9a32cd" stroke="#9a32cd" points="898.286,-281.484 887.72,-282.264 896.466,-288.243 898.286,-281.484"/>
<text text-anchor="middle" x="983" y="-340" font-family="FreeSans" font-size="10.00"> eventReceivers_</text>
</g>
<!-- Node12 -->
<g id="node26" class="node"><title>Node12</title>
<a xlink:href="class_urho3_d_1_1_hash_base.html" target="_top" xlink:title="Hash set/map base class.">
<polygon fill="none" stroke="red" points="484,-228.5 484,-249.5 592,-249.5 592,-228.5 484,-228.5"/>
<text text-anchor="middle" x="538" y="-236.5" font-family="FreeSans" font-size="10.00">Urho3D::HashBase</text>
</a>
</g>
<!-- Node12&#45;&gt;Node11 -->
<g id="edge30" class="edge"><title>Node12&#45;&gt;Node11</title>
<path fill="none" stroke="midnightblue" d="M602.359,-244.628C636.051,-247.575 677.78,-251.224 714.282,-254.416"/>
<polygon fill="midnightblue" stroke="midnightblue" points="602.442,-241.122 592.175,-243.738 601.832,-248.096 602.442,-241.122"/>
</g>
<!-- Node13 -->
<g id="node28" class="node"><title>Node13</title>
<a xlink:href="class_urho3_d_1_1_hash_map.html" target="_top" xlink:title="Urho3D::HashMap\&lt; Urho3D\l::Object *, Urho3D::HashMap\l\&lt; Urho3D::StringHash, Urho3D\l::HashSet\&lt; Urho3D::Object * \&gt; \&gt; \&gt;">
<polygon fill="none" stroke="black" points="705.5,-94 705.5,-154 896.5,-154 896.5,-94 705.5,-94"/>
<text text-anchor="start" x="713.5" y="-141" font-family="FreeSans" font-size="10.00">Urho3D::HashMap&lt; Urho3D</text>
<text text-anchor="start" x="713.5" y="-128" font-family="FreeSans" font-size="10.00">::Object *, Urho3D::HashMap</text>
<text text-anchor="start" x="713.5" y="-115" font-family="FreeSans" font-size="10.00">&lt; Urho3D::StringHash, Urho3D</text>
<text text-anchor="middle" x="801" y="-102" font-family="FreeSans" font-size="10.00">::HashSet&lt; Urho3D::Object * &gt; &gt; &gt;</text>
</a>
</g>
<!-- Node12&#45;&gt;Node13 -->
<g id="edge34" class="edge"><title>Node12&#45;&gt;Node13</title>
<path fill="none" stroke="midnightblue" d="M567.94,-223.879C599.838,-207.982 651.977,-182.605 698,-163 705.037,-160.003 712.389,-156.99 719.786,-154.039"/>
<polygon fill="midnightblue" stroke="midnightblue" points="566.097,-220.888 558.719,-228.492 569.228,-227.148 566.097,-220.888"/>
</g>
<!-- Node14 -->
<g id="node31" class="node"><title>Node14</title>
<a xlink:href="class_urho3_d_1_1_hash_map.html" target="_top" xlink:title="Urho3D::HashMap\&lt; Urho3D\l::StringHash, Urho3D::\lSharedPtr\&lt; Urho3D::Object \&gt; \&gt;">
<polygon fill="none" stroke="black" points="715,-28.5 715,-75.5 887,-75.5 887,-28.5 715,-28.5"/>
<text text-anchor="start" x="723" y="-62.5" font-family="FreeSans" font-size="10.00">Urho3D::HashMap&lt; Urho3D</text>
<text text-anchor="start" x="723" y="-49.5" font-family="FreeSans" font-size="10.00">::StringHash, Urho3D::</text>
<text text-anchor="middle" x="801" y="-36.5" font-family="FreeSans" font-size="10.00">SharedPtr&lt; Urho3D::Object &gt; &gt;</text>
</a>
</g>
<!-- Node12&#45;&gt;Node14 -->
<g id="edge38" class="edge"><title>Node12&#45;&gt;Node14</title>
<path fill="none" stroke="midnightblue" d="M552.574,-220.192C578.468,-187.998 635.665,-122.211 698,-85 703.804,-81.5351 710.013,-78.3922 716.398,-75.5491"/>
<polygon fill="midnightblue" stroke="midnightblue" points="549.592,-218.319 546.122,-228.33 555.077,-222.668 549.592,-218.319"/>
</g>
<!-- Node16 -->
<g id="node37" class="node"><title>Node16</title>
<a xlink:href="class_urho3_d_1_1_hash_map.html" target="_top" xlink:title="Urho3D::HashMap\&lt; Urho3D\l::StringHash, Urho3D::\lSharedPtr\&lt; Urho3D::ObjectFactory \&gt; \&gt;">
<polygon fill="none" stroke="black" points="698,-304.5 698,-351.5 904,-351.5 904,-304.5 698,-304.5"/>
<text text-anchor="start" x="706" y="-338.5" font-family="FreeSans" font-size="10.00">Urho3D::HashMap&lt; Urho3D</text>
<text text-anchor="start" x="706" y="-325.5" font-family="FreeSans" font-size="10.00">::StringHash, Urho3D::</text>
<text text-anchor="middle" x="801" y="-312.5" font-family="FreeSans" font-size="10.00">SharedPtr&lt; Urho3D::ObjectFactory &gt; &gt;</text>
</a>
</g>
<!-- Node12&#45;&gt;Node16 -->
<g id="edge46" class="edge"><title>Node12&#45;&gt;Node16</title>
<path fill="none" stroke="midnightblue" d="M576.943,-252.956C609.28,-264.465 656.527,-281.101 698,-295 707.258,-298.103 717.005,-301.306 726.66,-304.442"/>
<polygon fill="midnightblue" stroke="midnightblue" points="578.003,-249.618 567.409,-249.557 575.653,-256.211 578.003,-249.618"/>
</g>
<!-- Node17 -->
<g id="node40" class="node"><title>Node17</title>
<a xlink:href="class_urho3_d_1_1_hash_map.html" target="_top" xlink:title="Urho3D::HashMap\&lt; Urho3D\l::String, Urho3D::Vector\l\&lt; Urho3D::StringHash \&gt; \&gt;">
<polygon fill="none" stroke="black" points="725,-172.5 725,-219.5 877,-219.5 877,-172.5 725,-172.5"/>
<text text-anchor="start" x="733" y="-206.5" font-family="FreeSans" font-size="10.00">Urho3D::HashMap&lt; Urho3D</text>
<text text-anchor="start" x="733" y="-193.5" font-family="FreeSans" font-size="10.00">::String, Urho3D::Vector</text>
<text text-anchor="middle" x="801" y="-180.5" font-family="FreeSans" font-size="10.00">&lt; Urho3D::StringHash &gt; &gt;</text>
</a>
</g>
<!-- Node12&#45;&gt;Node17 -->
<g id="edge50" class="edge"><title>Node12&#45;&gt;Node17</title>
<path fill="none" stroke="midnightblue" d="M602.347,-228.479C639.378,-222.425 686.12,-214.783 724.959,-208.433"/>
<polygon fill="midnightblue" stroke="midnightblue" points="601.479,-225.075 592.175,-230.143 602.609,-231.983 601.479,-225.075"/>
</g>
<!-- Node18 -->
<g id="node43" class="node"><title>Node18</title>
<a xlink:href="class_urho3_d_1_1_hash_map.html" target="_top" xlink:title="Urho3D::HashMap\&lt; Urho3D\l::StringHash, Urho3D::\lVector\&lt; Urho3D::AttributeInfo \&gt; \&gt;">
<polygon fill="none" stroke="black" points="709.5,-370.5 709.5,-417.5 892.5,-417.5 892.5,-370.5 709.5,-370.5"/>
<text text-anchor="start" x="717.5" y="-404.5" font-family="FreeSans" font-size="10.00">Urho3D::HashMap&lt; Urho3D</text>
<text text-anchor="start" x="717.5" y="-391.5" font-family="FreeSans" font-size="10.00">::StringHash, Urho3D::</text>
<text text-anchor="middle" x="801" y="-378.5" font-family="FreeSans" font-size="10.00">Vector&lt; Urho3D::AttributeInfo &gt; &gt;</text>
</a>
</g>
<!-- Node12&#45;&gt;Node18 -->
<g id="edge54" class="edge"><title>Node12&#45;&gt;Node18</title>
<path fill="none" stroke="midnightblue" d="M556.66,-256.697C585.094,-282.815 641.903,-331.742 698,-361 704.576,-364.43 711.575,-367.587 718.71,-370.474"/>
<polygon fill="midnightblue" stroke="midnightblue" points="558.806,-253.913 549.097,-249.67 554.041,-259.041 558.806,-253.913"/>
</g>
<!-- Node13&#45;&gt;Node5 -->
<g id="edge32" class="edge"><title>Node13&#45;&gt;Node5</title>
<path fill="none" stroke="#9a32cd" stroke-dasharray="5,2" d="M906.504,-140.014C953.052,-151.566 1005.75,-171.324 1044,-205 1101.67,-255.778 1126.1,-351.246 1132.9,-383.24"/>
<polygon fill="#9a32cd" stroke="#9a32cd" points="907.21,-136.585 896.672,-137.672 905.588,-143.394 907.21,-136.585"/>
<text text-anchor="middle" x="983" y="-209" font-family="FreeSans" font-size="10.00"> specificEventReceivers_</text>
</g>
<!-- Node14&#45;&gt;Node5 -->
<g id="edge36" class="edge"><title>Node14&#45;&gt;Node5</title>
<path fill="none" stroke="#9a32cd" stroke-dasharray="5,2" d="M897.205,-61.7909C946.753,-71.4851 1004.82,-90.7483 1044,-129 1120.05,-203.252 1132.57,-343.803 1134.61,-383.387"/>
<polygon fill="#9a32cd" stroke="#9a32cd" points="897.564,-58.2981 887.094,-59.9205 896.291,-65.1813 897.564,-58.2981"/>
<text text-anchor="middle" x="983" y="-133" font-family="FreeSans" font-size="10.00"> subsystems_</text>
</g>
<!-- Node15&#45;&gt;Node5 -->
<g id="edge40" class="edge"><title>Node15&#45;&gt;Node5</title>
<path fill="none" stroke="#9a32cd" stroke-dasharray="5,2" d="M874.799,-490.534C924.207,-488.02 989.858,-480.349 1044,-459 1076.33,-446.252 1107.94,-419.552 1124.03,-404.644"/>
<polygon fill="#9a32cd" stroke="#9a32cd" points="874.345,-487.051 864.512,-490.996 874.659,-494.044 874.345,-487.051"/>
<text text-anchor="middle" x="983" y="-490" font-family="FreeSans" font-size="10.00"> eventDataMaps_</text>
</g>
<!-- Node16&#45;&gt;Node5 -->
<g id="edge44" class="edge"><title>Node16&#45;&gt;Node5</title>
<path fill="none" stroke="#9a32cd" stroke-dasharray="5,2" d="M914.436,-350.416C972.911,-361.971 1041.19,-375.462 1086.11,-384.338"/>
<polygon fill="#9a32cd" stroke="#9a32cd" points="914.881,-346.936 904.392,-348.431 913.524,-353.803 914.881,-346.936"/>
<text text-anchor="middle" x="983" y="-378" font-family="FreeSans" font-size="10.00"> factories_</text>
</g>
<!-- Node17&#45;&gt;Node5 -->
<g id="edge48" class="edge"><title>Node17&#45;&gt;Node5</title>
<path fill="none" stroke="#9a32cd" stroke-dasharray="5,2" d="M887.036,-211.089C936.338,-222.82 997.463,-242.855 1044,-276 1085.93,-305.866 1117.66,-360.603 1129.71,-383.497"/>
<polygon fill="#9a32cd" stroke="#9a32cd" points="887.554,-207.617 877.023,-208.781 885.981,-214.438 887.554,-207.617"/>
<text text-anchor="middle" x="983" y="-280" font-family="FreeSans" font-size="10.00"> objectCategories_</text>
</g>
<!-- Node18&#45;&gt;Node5 -->
<g id="edge52" class="edge"><title>Node18&#45;&gt;Node5</title>
<path fill="none" stroke="#9a32cd" stroke-dasharray="5,2" d="M902.749,-394C963.677,-394 1038.35,-394 1086.3,-394"/>
<polygon fill="#9a32cd" stroke="#9a32cd" points="902.709,-390.5 892.709,-394 902.709,-397.5 902.709,-390.5"/>
<text text-anchor="middle" x="983" y="-411" font-family="FreeSans" font-size="10.00"> attributes_</text>
<text text-anchor="middle" x="983" y="-398" font-family="FreeSans" font-size="10.00">networkAttributes_</text>
</g>
<!-- Node19&#45;&gt;Node2 -->
<g id="edge56" class="edge"><title>Node19&#45;&gt;Node2</title>
<path fill="none" stroke="#9a32cd" stroke-dasharray="5,2" d="M1051.42,-702.48C923.434,-709.34 683.242,-722.215 583.362,-727.569"/>
<polygon fill="#9a32cd" stroke="#9a32cd" points="1051.77,-705.966 1061.57,-701.936 1051.39,-698.977 1051.77,-705.966"/>
<text text-anchor="middle" x="801" y="-725" font-family="FreeSans" font-size="10.00"> eventHandlers_</text>
</g>
<!-- Node20 -->
<g id="node49" class="node"><title>Node20</title>
<a xlink:href="class_urho3_d_1_1_g_p_u_object.html" target="_top" xlink:title="Base class for GPU resources.">
<polygon fill="none" stroke="black" points="1498.5,-870.5 1498.5,-891.5 1609.5,-891.5 1609.5,-870.5 1498.5,-870.5"/>
<text text-anchor="middle" x="1554" y="-878.5" font-family="FreeSans" font-size="10.00">Urho3D::GPUObject</text>
</a>
</g>
<!-- Node20&#45;&gt;Node1 -->
<g id="edge60" class="edge"><title>Node20&#45;&gt;Node1</title>
<path fill="none" stroke="midnightblue" d="M1487.9,-883.565C1390.68,-887.197 1203.38,-893.657 1044,-896 989.784,-896.797 976.22,-896.448 922,-896 904.037,-895.852 884.576,-895.579 866.621,-895.282"/>
<polygon fill="midnightblue" stroke="midnightblue" points="1488.31,-887.052 1498.17,-883.179 1488.04,-880.057 1488.31,-887.052"/>
</g>
<!-- Node21&#45;&gt;Node20 -->
<g id="edge62" class="edge"><title>Node21&#45;&gt;Node20</title>
<path fill="none" stroke="#9a32cd" stroke-dasharray="5,2" d="M1410.89,-841.729C1445.9,-851.334 1486.58,-862.498 1515.6,-870.462"/>
<polygon fill="#9a32cd" stroke="#9a32cd" points="1411.76,-838.336 1401.19,-839.065 1409.9,-845.087 1411.76,-838.336"/>
<text text-anchor="middle" x="1455" y="-864" font-family="FreeSans" font-size="10.00"> graphics_</text>
</g>
<!-- Node22&#45;&gt;Node21 -->
<g id="edge64" class="edge"><title>Node22&#45;&gt;Node21</title>
<path fill="none" stroke="#9a32cd" stroke-dasharray="5,2" d="M1195.88,-822C1217.86,-822 1242.91,-822 1265.83,-822"/>
<polygon fill="#9a32cd" stroke="#9a32cd" points="1195.69,-818.5 1185.69,-822 1195.69,-825.5 1195.69,-818.5"/>
<text text-anchor="middle" x="1237" y="-826" font-family="FreeSans" font-size="10.00"> ptr_</text>
</g>
<!-- Node23 -->
<g id="node56" class="node"><title>Node23</title>
<a xlink:href="class_urho3_d_1_1_int_rect.html" target="_top" xlink:title="Two&#45;dimensional bounding rectangle with integer values.">
<polygon fill="none" stroke="black" points="755,-768.5 755,-789.5 847,-789.5 847,-768.5 755,-768.5"/>
<text text-anchor="middle" x="801" y="-776.5" font-family="FreeSans" font-size="10.00">Urho3D::IntRect</text>
</a>
</g>
<!-- Node23&#45;&gt;Node22 -->
<g id="edge68" class="edge"><title>Node23&#45;&gt;Node22</title>
<path fill="none" stroke="#9a32cd" stroke-dasharray="5,2" d="M857.301,-785.642C906.577,-791.53 980.076,-800.489 1044,-809 1057.13,-810.748 1071.31,-812.729 1084.48,-814.609"/>
<polygon fill="#9a32cd" stroke="#9a32cd" points="857.51,-782.143 847.166,-784.434 856.681,-789.093 857.51,-782.143"/>
<text text-anchor="middle" x="983" y="-826" font-family="FreeSans" font-size="10.00"> viewport_</text>
<text text-anchor="middle" x="983" y="-813" font-family="FreeSans" font-size="10.00">scissorRect_</text>
</g>
<!-- Node23&#45;&gt;Node23 -->
<g id="edge70" class="edge"><title>Node23&#45;&gt;Node23</title>
<path fill="none" stroke="#9a32cd" stroke-dasharray="5,2" d="M773.21,-799.055C775.033,-804.164 784.296,-808 801,-808 827.074,-808 835.019,-798.653 824.833,-789.708"/>
<polygon fill="#9a32cd" stroke="#9a32cd" points="776.492,-800.281 777.167,-789.708 770.045,-797.553 776.492,-800.281"/>
<text text-anchor="middle" x="801" y="-812" font-family="FreeSans" font-size="10.00"> ZERO</text>
</g>
<!-- Node24&#45;&gt;Node22 -->
<g id="edge72" class="edge"><title>Node24&#45;&gt;Node22</title>
<path fill="none" stroke="#9a32cd" stroke-dasharray="5,2" d="M880.295,-590.545C933.45,-592.005 1001.28,-603.174 1044,-645 1069.73,-670.194 1046.92,-691.299 1062,-724 1078.26,-759.255 1108.58,-794.185 1124.54,-811.239"/>
<polygon fill="#9a32cd" stroke="#9a32cd" points="880.268,-587.044 870.212,-590.378 880.152,-594.043 880.268,-587.044"/>
<text text-anchor="middle" x="983" y="-649" font-family="FreeSans" font-size="10.00"> scratchBuffers_</text>
</g>
<!-- Node25&#45;&gt;Node1 -->
<g id="edge80" class="edge"><title>Node25&#45;&gt;Node1</title>
<path fill="none" stroke="#9a32cd" stroke-dasharray="5,2" d="M420.176,-787.708C464.093,-816.371 544.989,-864.416 622,-885 658.674,-894.802 701.046,-897.306 735.356,-897.241"/>
<polygon fill="#9a32cd" stroke="#9a32cd" points="421.913,-784.661 411.639,-782.075 418.058,-790.503 421.913,-784.661"/>
<text text-anchor="middle" x="538" y="-883" font-family="FreeSans" font-size="10.00"> shadowData_</text>
</g>
</g>
</svg>
