<?xml version="1.0" encoding="UTF-8" standalone="no"?>
<!DOCTYPE svg PUBLIC "-//W3C//DTD SVG 1.1//EN"
 "http://www.w3.org/Graphics/SVG/1.1/DTD/svg11.dtd">
<!-- Generated by graphviz version 2.26.3 (20100126.1600)
 -->
<!-- Title: Urho3D::RigidBody Pages: 1 -->
<svg width="1920pt" height="589pt"
 viewBox="0.00 0.00 1920.00 588.69" xmlns="http://www.w3.org/2000/svg" xmlns:xlink="http://www.w3.org/1999/xlink">
<g id="graph1" class="graph" transform="scale(1 1) rotate(0) translate(4 584.691)">
<title>Urho3D::RigidBody</title>
<!-- Node1 -->
<g id="node1" class="node"><title>Node1</title>
<polygon fill="#bfbfbf" stroke="black" points="1806,-239.191 1806,-260.191 1912,-260.191 1912,-239.191 1806,-239.191"/>
<text text-anchor="middle" x="1859" y="-247.191" font-family="FreeSans" font-size="10.00">Urho3D::RigidBody</text>
</g>
<!-- Node2 -->
<g id="node2" class="node"><title>Node2</title>
<a xlink:href="class_urho3_d_1_1_component.html" target="_top" xlink:title="Base class for components. Components can be created to scene nodes.">
<polygon fill="none" stroke="black" points="1022,-225.191 1022,-246.191 1138,-246.191 1138,-225.191 1022,-225.191"/>
<text text-anchor="middle" x="1080" y="-233.191" font-family="FreeSans" font-size="10.00">Urho3D::Component</text>
</a>
</g>
<!-- Node2&#45;&gt;Node1 -->
<g id="edge2" class="edge"><title>Node2&#45;&gt;Node1</title>
<path fill="none" stroke="midnightblue" d="M1148.44,-236.921C1301.46,-239.672 1668.62,-246.27 1805.96,-248.738"/>
<polygon fill="midnightblue" stroke="midnightblue" points="1148.29,-233.418 1138.23,-236.738 1148.17,-240.417 1148.29,-233.418"/>
</g>
<!-- Node21 -->
<g id="node49" class="node"><title>Node21</title>
<a xlink:href="class_urho3_d_1_1_physics_world.html" target="_top" xlink:title="Physics simulation world component. Should be added only to the root scene node.">
<polygon fill="none" stroke="red" points="1281,-176.191 1281,-197.191 1401,-197.191 1401,-176.191 1281,-176.191"/>
<text text-anchor="middle" x="1341" y="-184.191" font-family="FreeSans" font-size="10.00">Urho3D::PhysicsWorld</text>
</a>
</g>
<!-- Node2&#45;&gt;Node21 -->
<g id="edge60" class="edge"><title>Node2&#45;&gt;Node21</title>
<path fill="none" stroke="midnightblue" d="M1137.72,-223.023C1146.52,-221.18 1155.49,-219.348 1164,-217.691 1202.74,-210.152 1246.41,-202.494 1280.68,-196.676"/>
<polygon fill="midnightblue" stroke="midnightblue" points="1136.97,-219.604 1127.91,-225.099 1138.42,-226.453 1136.97,-219.604"/>
</g>
<!-- Node25 -->
<g id="node62" class="node"><title>Node25</title>
<a xlink:href="class_urho3_d_1_1_smoothed_transform.html" target="_top" xlink:title="Transform smoothing component for network updates.">
<polygon fill="none" stroke="black" points="1262.5,-377.191 1262.5,-398.191 1419.5,-398.191 1419.5,-377.191 1262.5,-377.191"/>
<text text-anchor="middle" x="1341" y="-385.191" font-family="FreeSans" font-size="10.00">Urho3D::SmoothedTransform</text>
</a>
</g>
<!-- Node2&#45;&gt;Node25 -->
<g id="edge78" class="edge"><title>Node2&#45;&gt;Node25</title>
<path fill="none" stroke="midnightblue" d="M1107.24,-251.557C1160.57,-282.615 1277.48,-350.7 1322.67,-377.015"/>
<polygon fill="midnightblue" stroke="midnightblue" points="1108.76,-248.388 1098.35,-246.38 1105.23,-254.437 1108.76,-248.388"/>
</g>
<!-- Node3 -->
<g id="node4" class="node"><title>Node3</title>
<a xlink:href="class_urho3_d_1_1_animatable.html" target="_top" xlink:title="Base class for animatable object, an animatable object can be set animation on it&#39;s attributes...">
<polygon fill="none" stroke="black" points="587,-228.191 587,-249.191 701,-249.191 701,-228.191 587,-228.191"/>
<text text-anchor="middle" x="644" y="-236.191" font-family="FreeSans" font-size="10.00">Urho3D::Animatable</text>
</a>
</g>
<!-- Node3&#45;&gt;Node2 -->
<g id="edge4" class="edge"><title>Node3&#45;&gt;Node2</title>
<path fill="none" stroke="midnightblue" d="M711.516,-238.227C796.566,-237.642 941.295,-236.646 1021.73,-236.092"/>
<polygon fill="midnightblue" stroke="midnightblue" points="711.423,-234.727 701.448,-238.296 711.472,-241.727 711.423,-234.727"/>
</g>
<!-- Node8 -->
<g id="node14" class="node"><title>Node8</title>
<a xlink:href="class_urho3_d_1_1_node.html" target="_top" xlink:title="Scene node that may contain components and child nodes.">
<polygon fill="none" stroke="red" points="814.5,-294.191 814.5,-315.191 899.5,-315.191 899.5,-294.191 814.5,-294.191"/>
<text text-anchor="middle" x="857" y="-302.191" font-family="FreeSans" font-size="10.00">Urho3D::Node</text>
</a>
</g>
<!-- Node3&#45;&gt;Node8 -->
<g id="edge16" class="edge"><title>Node3&#45;&gt;Node8</title>
<path fill="none" stroke="midnightblue" d="M711.229,-251.211C738.001,-257.072 768.842,-264.937 796,-274.691 810.661,-279.957 826.421,-287.769 838.249,-294.101"/>
<polygon fill="midnightblue" stroke="midnightblue" points="711.695,-247.732 701.184,-249.063 710.231,-254.577 711.695,-247.732"/>
</g>
<!-- Node4 -->
<g id="node6" class="node"><title>Node4</title>
<a xlink:href="class_urho3_d_1_1_serializable.html" target="_top" xlink:title="Base class for objects with automatic serialization through attributes.">
<polygon fill="none" stroke="red" points="196,-229.191 196,-250.191 310,-250.191 310,-229.191 196,-229.191"/>
<text text-anchor="middle" x="253" y="-237.191" font-family="FreeSans" font-size="10.00">Urho3D::Serializable</text>
</a>
</g>
<!-- Node4&#45;&gt;Node3 -->
<g id="edge6" class="edge"><title>Node4&#45;&gt;Node3</title>
<path fill="none" stroke="midnightblue" d="M320.583,-239.519C395.837,-239.326 516.164,-239.018 586.891,-238.838"/>
<polygon fill="midnightblue" stroke="midnightblue" points="320.264,-236.019 310.273,-239.545 320.282,-243.019 320.264,-236.019"/>
</g>
<!-- Node5 -->
<g id="node8" class="node"><title>Node5</title>
<a xlink:href="class_urho3_d_1_1_hash_map.html" target="_top" xlink:title="Urho3D::HashMap\&lt; Urho3D\l::String, Urho3D::SharedPtr\l\&lt; Urho3D::AttributeAnimationInfo \&gt; \&gt;">
<polygon fill="none" stroke="red" points="152.5,-163.191 152.5,-210.191 353.5,-210.191 353.5,-163.191 152.5,-163.191"/>
<text text-anchor="start" x="160.5" y="-197.191" font-family="FreeSans" font-size="10.00">Urho3D::HashMap&lt; Urho3D</text>
<text text-anchor="start" x="160.5" y="-184.191" font-family="FreeSans" font-size="10.00">::String, Urho3D::SharedPtr</text>
<text text-anchor="middle" x="253" y="-171.191" font-family="FreeSans" font-size="10.00">&lt; Urho3D::AttributeAnimationInfo &gt; &gt;</text>
</a>
</g>
<!-- Node5&#45;&gt;Node3 -->
<g id="edge8" class="edge"><title>Node5&#45;&gt;Node3</title>
<path fill="none" stroke="#9a32cd" stroke-dasharray="5,2" d="M364.054,-196.294C424.058,-202.19 499.313,-210.726 566,-221.691 576.941,-223.491 588.661,-225.825 599.604,-228.185"/>
<polygon fill="#9a32cd" stroke="#9a32cd" points="364.089,-192.781 353.797,-195.297 363.412,-199.748 364.089,-192.781"/>
<text text-anchor="middle" x="469" y="-225.691" font-family="FreeSans" font-size="10.00"> attributeAnimationInfos_</text>
</g>
<!-- Node6 -->
<g id="node10" class="node"><title>Node6</title>
<a xlink:href="class_urho3_d_1_1_shared_ptr.html" target="_top" xlink:title="Urho3D::SharedPtr\&lt;\l Urho3D::ObjectAnimation \&gt;">
<polygon fill="none" stroke="red" points="176.5,-320.691 176.5,-354.691 329.5,-354.691 329.5,-320.691 176.5,-320.691"/>
<text text-anchor="start" x="184.5" y="-341.691" font-family="FreeSans" font-size="10.00">Urho3D::SharedPtr&lt;</text>
<text text-anchor="middle" x="253" y="-328.691" font-family="FreeSans" font-size="10.00"> Urho3D::ObjectAnimation &gt;</text>
</a>
</g>
<!-- Node6&#45;&gt;Node3 -->
<g id="edge10" class="edge"><title>Node6&#45;&gt;Node3</title>
<path fill="none" stroke="#9a32cd" stroke-dasharray="5,2" d="M339.828,-332.939C419.198,-327.178 529.59,-315.167 566,-291.691 578.434,-283.675 572.658,-273.19 584,-263.691 591.181,-257.678 600.013,-252.936 608.67,-249.273"/>
<polygon fill="#9a32cd" stroke="#9a32cd" points="339.552,-329.45 329.823,-333.645 340.044,-336.433 339.552,-329.45"/>
<text text-anchor="middle" x="469" y="-333.691" font-family="FreeSans" font-size="10.00"> objectAnimation_</text>
</g>
<!-- Node7 -->
<g id="node12" class="node"><title>Node7</title>
<a xlink:href="class_urho3_d_1_1_hash_set.html" target="_top" xlink:title="Urho3D::HashSet\&lt; const\l Urho3D::AttributeInfo * \&gt;">
<polygon fill="none" stroke="red" points="182.5,-268.691 182.5,-302.691 323.5,-302.691 323.5,-268.691 182.5,-268.691"/>
<text text-anchor="start" x="190.5" y="-289.691" font-family="FreeSans" font-size="10.00">Urho3D::HashSet&lt; const</text>
<text text-anchor="middle" x="253" y="-276.691" font-family="FreeSans" font-size="10.00"> Urho3D::AttributeInfo * &gt;</text>
</a>
</g>
<!-- Node7&#45;&gt;Node3 -->
<g id="edge12" class="edge"><title>Node7&#45;&gt;Node3</title>
<path fill="none" stroke="#9a32cd" stroke-dasharray="5,2" d="M334.044,-278.774C397.353,-272.977 487.469,-263.864 566,-252.691 573.219,-251.664 580.792,-250.463 588.263,-249.202"/>
<polygon fill="#9a32cd" stroke="#9a32cd" points="333.369,-275.32 323.727,-279.711 334.002,-282.292 333.369,-275.32"/>
<text text-anchor="middle" x="469" y="-278.691" font-family="FreeSans" font-size="10.00"> animatedNetworkAttributes_</text>
</g>
<!-- Node8&#45;&gt;Node2 -->
<g id="edge14" class="edge"><title>Node8&#45;&gt;Node2</title>
<path fill="none" stroke="#9a32cd" stroke-dasharray="5,2" d="M900.59,-291.099C906.442,-289.279 912.367,-287.438 918,-285.691 962.139,-272.006 1013.07,-256.301 1045.86,-246.201"/>
<polygon fill="#9a32cd" stroke="#9a32cd" points="899.382,-287.81 890.874,-294.124 901.462,-294.493 899.382,-287.81"/>
<text text-anchor="middle" x="957" y="-289.691" font-family="FreeSans" font-size="10.00"> node_</text>
</g>
<!-- Node8&#45;&gt;Node8 -->
<g id="edge48" class="edge"><title>Node8&#45;&gt;Node8</title>
<path fill="none" stroke="#9a32cd" stroke-dasharray="5,2" d="M838.94,-325.118C840.333,-330.04 846.353,-333.691 857,-333.691 874.035,-333.691 879.226,-324.345 872.571,-315.399"/>
<polygon fill="#9a32cd" stroke="#9a32cd" points="842.338,-325.955 841.429,-315.399 835.557,-324.218 842.338,-325.955"/>
<text text-anchor="middle" x="857" y="-337.691" font-family="FreeSans" font-size="10.00"> parent_</text>
</g>
<!-- Node11 -->
<g id="node21" class="node"><title>Node11</title>
<a xlink:href="class_urho3_d_1_1_scene.html" target="_top" xlink:title="Root scene node, represents the whole scene.">
<polygon fill="none" stroke="red" points="1035.5,-308.191 1035.5,-329.191 1124.5,-329.191 1124.5,-308.191 1035.5,-308.191"/>
<text text-anchor="middle" x="1080" y="-316.191" font-family="FreeSans" font-size="10.00">Urho3D::Scene</text>
</a>
</g>
<!-- Node8&#45;&gt;Node11 -->
<g id="edge24" class="edge"><title>Node8&#45;&gt;Node11</title>
<path fill="none" stroke="midnightblue" d="M907.282,-317.164C910.893,-317.772 914.493,-318.294 918,-318.691 957.544,-323.171 1002.87,-322.699 1035.5,-321.38"/>
<polygon fill="midnightblue" stroke="midnightblue" points="907.613,-313.665 897.137,-315.251 906.316,-320.543 907.613,-313.665"/>
</g>
<!-- Node9 -->
<g id="node17" class="node"><title>Node9</title>
<a xlink:href="class_urho3_d_1_1_p_o_d_vector.html" target="_top" xlink:title="Urho3D::PODVector\&lt;\l Urho3D::Node * \&gt;">
<polygon fill="none" stroke="black" points="409.5,-400.691 409.5,-434.691 528.5,-434.691 528.5,-400.691 409.5,-400.691"/>
<text text-anchor="start" x="417.5" y="-421.691" font-family="FreeSans" font-size="10.00">Urho3D::PODVector&lt;</text>
<text text-anchor="middle" x="469" y="-408.691" font-family="FreeSans" font-size="10.00"> Urho3D::Node * &gt;</text>
</a>
</g>
<!-- Node9&#45;&gt;Node8 -->
<g id="edge18" class="edge"><title>Node9&#45;&gt;Node8</title>
<path fill="none" stroke="#9a32cd" stroke-dasharray="5,2" d="M538.447,-411.878C548.541,-408.542 558.155,-403.688 566,-396.691 584.566,-380.133 564.856,-359.577 584,-343.691 601.409,-329.246 741.914,-314.873 814.267,-308.339"/>
<polygon fill="#9a32cd" stroke="#9a32cd" points="537.341,-408.553 528.663,-414.632 539.237,-415.292 537.341,-408.553"/>
<text text-anchor="middle" x="644" y="-347.691" font-family="FreeSans" font-size="10.00"> dependencyNodes_</text>
</g>
<!-- Node10 -->
<g id="node19" class="node"><title>Node10</title>
<a xlink:href="class_urho3_d_1_1_vector_base.html" target="_top" xlink:title="Vector base class.">
<polygon fill="none" stroke="black" points="0,-282.191 0,-303.191 114,-303.191 114,-282.191 0,-282.191"/>
<text text-anchor="middle" x="57" y="-290.191" font-family="FreeSans" font-size="10.00">Urho3D::VectorBase</text>
</a>
</g>
<!-- Node10&#45;&gt;Node9 -->
<g id="edge20" class="edge"><title>Node10&#45;&gt;Node9</title>
<path fill="none" stroke="midnightblue" d="M69.3064,-311.814C85.2816,-334.794 115.483,-372.413 152,-389.691 234.776,-428.859 343.252,-429.045 409.448,-424.309"/>
<polygon fill="midnightblue" stroke="midnightblue" points="72.0224,-309.581 63.5342,-303.241 66.2159,-313.49 72.0224,-309.581"/>
</g>
<!-- Node13 -->
<g id="node27" class="node"><title>Node13</title>
<a xlink:href="class_urho3_d_1_1_vector.html" target="_top" xlink:title="Urho3D::Vector\&lt; Urho3D\l::WeakPtr\&lt; Urho3D::Component \&gt; \&gt;">
<polygon fill="none" stroke="black" points="372,-359.691 372,-393.691 566,-393.691 566,-359.691 372,-359.691"/>
<text text-anchor="start" x="380" y="-380.691" font-family="FreeSans" font-size="10.00">Urho3D::Vector&lt; Urho3D</text>
<text text-anchor="middle" x="469" y="-367.691" font-family="FreeSans" font-size="10.00">::WeakPtr&lt; Urho3D::Component &gt; &gt;</text>
</a>
</g>
<!-- Node10&#45;&gt;Node13 -->
<g id="edge32" class="edge"><title>Node10&#45;&gt;Node13</title>
<path fill="none" stroke="midnightblue" d="M74.1073,-310.644C91.7688,-327.821 121.042,-352.692 152,-363.691 222.587,-388.772 307.641,-390.873 371.869,-387.333"/>
<polygon fill="midnightblue" stroke="midnightblue" points="76.3877,-307.974 66.8453,-303.371 71.4341,-312.92 76.3877,-307.974"/>
</g>
<!-- Node17 -->
<g id="node36" class="node"><title>Node17</title>
<a xlink:href="class_urho3_d_1_1_p_o_d_vector.html" target="_top" xlink:title="Urho3D::PODVector\&lt;\l unsigned char \&gt;">
<polygon fill="none" stroke="black" points="193.5,-30.6915 193.5,-64.6915 312.5,-64.6915 312.5,-30.6915 193.5,-30.6915"/>
<text text-anchor="start" x="201.5" y="-51.6915" font-family="FreeSans" font-size="10.00">Urho3D::PODVector&lt;</text>
<text text-anchor="middle" x="253" y="-38.6915" font-family="FreeSans" font-size="10.00"> unsigned char &gt;</text>
</a>
</g>
<!-- Node10&#45;&gt;Node17 -->
<g id="edge42" class="edge"><title>Node10&#45;&gt;Node17</title>
<path fill="none" stroke="midnightblue" d="M59.833,-272.124C66.9429,-228.62 89.6632,-126.918 152,-73.6915 163.635,-63.7565 178.594,-57.5474 193.414,-53.687"/>
<polygon fill="midnightblue" stroke="midnightblue" points="56.3606,-271.678 58.3154,-282.091 63.2809,-272.732 56.3606,-271.678"/>
</g>
<!-- Node22 -->
<g id="node53" class="node"><title>Node22</title>
<a xlink:href="class_urho3_d_1_1_p_o_d_vector.html" target="_top" xlink:title="Urho3D::PODVector\&lt;\l Urho3D::Constraint * \&gt;">
<polygon fill="none" stroke="black" points="1014.5,-50.6915 1014.5,-84.6915 1145.5,-84.6915 1145.5,-50.6915 1014.5,-50.6915"/>
<text text-anchor="start" x="1022.5" y="-71.6915" font-family="FreeSans" font-size="10.00">Urho3D::PODVector&lt;</text>
<text text-anchor="middle" x="1080" y="-58.6915" font-family="FreeSans" font-size="10.00"> Urho3D::Constraint * &gt;</text>
</a>
</g>
<!-- Node10&#45;&gt;Node22 -->
<g id="edge66" class="edge"><title>Node10&#45;&gt;Node22</title>
<path fill="none" stroke="midnightblue" d="M61.4232,-272.127C74.1475,-214.88 112.471,-55.6533 152,-21.6915 186.645,8.07447 207.324,-2.69149 253,-2.69149 253,-2.69149 253,-2.69149 857,-2.69149 925.555,-2.69149 1001.4,-31.3551 1044.62,-50.6135"/>
<polygon fill="midnightblue" stroke="midnightblue" points="57.9487,-271.631 59.2269,-282.149 64.7865,-273.13 57.9487,-271.631"/>
</g>
<!-- Node11&#45;&gt;Node8 -->
<g id="edge22" class="edge"><title>Node11&#45;&gt;Node8</title>
<path fill="none" stroke="#9a32cd" stroke-dasharray="5,2" d="M1025.27,-309.039C1015.55,-307.663 1005.5,-306.456 996,-305.691 963.767,-303.095 927.194,-302.943 899.655,-303.388"/>
<polygon fill="#9a32cd" stroke="#9a32cd" points="1024.84,-312.513 1035.24,-310.523 1025.87,-305.589 1024.84,-312.513"/>
<text text-anchor="middle" x="957" y="-309.691" font-family="FreeSans" font-size="10.00"> scene_</text>
</g>
<!-- Node12 -->
<g id="node24" class="node"><title>Node12</title>
<a xlink:href="class_urho3_d_1_1_quaternion.html" target="_top" xlink:title="Rotation represented as a four&#45;dimensional normalized vector.">
<polygon fill="none" stroke="black" points="587.5,-528.191 587.5,-549.191 700.5,-549.191 700.5,-528.191 587.5,-528.191"/>
<text text-anchor="middle" x="644" y="-536.191" font-family="FreeSans" font-size="10.00">Urho3D::Quaternion</text>
</a>
</g>
<!-- Node12&#45;&gt;Node1 -->
<g id="edge52" class="edge"><title>Node12&#45;&gt;Node1</title>
<path fill="none" stroke="#9a32cd" stroke-dasharray="5,2" d="M710.611,-538.691C752.607,-538.691 807.977,-538.691 857,-538.691 857,-538.691 857,-538.691 1591,-538.691 1693.29,-538.691 1721.21,-497.163 1788,-419.691 1831.23,-369.547 1850.97,-289.346 1856.94,-260.48"/>
<polygon fill="#9a32cd" stroke="#9a32cd" points="710.506,-535.192 700.506,-538.691 710.506,-542.192 710.506,-535.192"/>
<text text-anchor="middle" x="1204" y="-542.691" font-family="FreeSans" font-size="10.00"> lastRotation_</text>
</g>
<!-- Node12&#45;&gt;Node8 -->
<g id="edge26" class="edge"><title>Node12&#45;&gt;Node8</title>
<path fill="none" stroke="#9a32cd" stroke-dasharray="5,2" d="M699.486,-522.729C701.083,-521.483 702.595,-520.14 704,-518.691 723.386,-498.709 708.516,-483.049 722,-458.691 731.127,-442.205 817.719,-347.413 847.216,-315.315"/>
<polygon fill="#9a32cd" stroke="#9a32cd" points="697.463,-519.867 690.899,-528.184 701.216,-525.776 697.463,-519.867"/>
<text text-anchor="middle" x="759" y="-475.691" font-family="FreeSans" font-size="10.00"> worldRotation_</text>
<text text-anchor="middle" x="759" y="-462.691" font-family="FreeSans" font-size="10.00">rotation_</text>
</g>
<!-- Node12&#45;&gt;Node12 -->
<g id="edge28" class="edge"><title>Node12&#45;&gt;Node12</title>
<path fill="none" stroke="#9a32cd" stroke-dasharray="5,2" d="M622.991,-559.118C624.612,-564.04 631.615,-567.691 644,-567.691 663.816,-567.691 669.854,-558.345 662.113,-549.399"/>
<polygon fill="#9a32cd" stroke="#9a32cd" points="626.385,-559.982 625.887,-549.399 619.677,-557.984 626.385,-559.982"/>
<text text-anchor="middle" x="644" y="-571.691" font-family="FreeSans" font-size="10.00"> IDENTITY</text>
</g>
<!-- Node12&#45;&gt;Node25 -->
<g id="edge80" class="edge"><title>Node12&#45;&gt;Node25</title>
<path fill="none" stroke="#9a32cd" stroke-dasharray="5,2" d="M706.571,-526.176C815.856,-504.155 1048.52,-456.55 1244,-411.691 1262.26,-407.501 1282.38,-402.575 1299.54,-398.279"/>
<polygon fill="#9a32cd" stroke="#9a32cd" points="705.814,-522.758 696.701,-528.163 707.195,-529.621 705.814,-522.758"/>
<text text-anchor="middle" x="957" y="-486.691" font-family="FreeSans" font-size="10.00"> targetRotation_</text>
</g>
<!-- Node13&#45;&gt;Node8 -->
<g id="edge30" class="edge"><title>Node13&#45;&gt;Node8</title>
<path fill="none" stroke="#9a32cd" stroke-dasharray="5,2" d="M556.451,-354.251C559.838,-351.971 563.044,-349.459 566,-346.691 582.329,-331.403 565.57,-312.368 584,-299.691 620.176,-274.808 746.951,-288.556 814.26,-298.055"/>
<polygon fill="#9a32cd" stroke="#9a32cd" points="554.502,-351.338 547.694,-359.457 558.079,-357.355 554.502,-351.338"/>
<text text-anchor="middle" x="644" y="-303.691" font-family="FreeSans" font-size="10.00"> listeners_</text>
</g>
<!-- Node14 -->
<g id="node30" class="node"><title>Node14</title>
<a xlink:href="class_urho3_d_1_1_vector_buffer.html" target="_top" xlink:title="Dynamically sized buffer that can be read and written to as a stream.">
<polygon fill="none" stroke="black" points="584.5,-124.191 584.5,-145.191 703.5,-145.191 703.5,-124.191 584.5,-124.191"/>
<text text-anchor="middle" x="644" y="-132.191" font-family="FreeSans" font-size="10.00">Urho3D::VectorBuffer</text>
</a>
</g>
<!-- Node14&#45;&gt;Node1 -->
<g id="edge54" class="edge"><title>Node14&#45;&gt;Node1</title>
<path fill="none" stroke="#9a32cd" stroke-dasharray="5,2" d="M713.706,-135.676C755.302,-136.181 809.171,-136.691 857,-136.691 857,-136.691 857,-136.691 1591,-136.691 1695.78,-136.691 1806.77,-210.931 1845.07,-239.061"/>
<polygon fill="#9a32cd" stroke="#9a32cd" points="713.72,-132.176 703.677,-135.551 713.633,-139.175 713.72,-132.176"/>
<text text-anchor="middle" x="1204" y="-140.691" font-family="FreeSans" font-size="10.00"> attrBuffer_</text>
</g>
<!-- Node14&#45;&gt;Node8 -->
<g id="edge34" class="edge"><title>Node14&#45;&gt;Node8</title>
<path fill="none" stroke="#9a32cd" stroke-dasharray="5,2" d="M668.544,-150.761C710.092,-177.998 790.353,-230.771 796,-235.691 817.218,-254.177 838.093,-279.858 849.068,-294.104"/>
<polygon fill="#9a32cd" stroke="#9a32cd" points="670.35,-147.761 660.068,-145.207 666.514,-153.616 670.35,-147.761"/>
<text text-anchor="middle" x="759" y="-239.691" font-family="FreeSans" font-size="10.00"> attrBuffer_</text>
</g>
<!-- Node14&#45;&gt;Node21 -->
<g id="edge62" class="edge"><title>Node14&#45;&gt;Node21</title>
<path fill="none" stroke="#9a32cd" stroke-dasharray="5,2" d="M699.423,-147.082C706.981,-148.472 714.662,-149.731 722,-150.691 925.865,-177.387 1170.1,-184.288 1280.98,-186.071"/>
<polygon fill="#9a32cd" stroke="#9a32cd" points="700.076,-143.643 689.595,-145.193 698.755,-150.517 700.076,-143.643"/>
<text text-anchor="middle" x="957" y="-178.691" font-family="FreeSans" font-size="10.00"> contacts_</text>
</g>
<!-- Node15 -->
<g id="node32" class="node"><title>Node15</title>
<a xlink:href="class_urho3_d_1_1_deserializer.html" target="_top" xlink:title="Abstract stream for reading.">
<polygon fill="none" stroke="black" points="195,-123.191 195,-144.191 311,-144.191 311,-123.191 195,-123.191"/>
<text text-anchor="middle" x="253" y="-131.191" font-family="FreeSans" font-size="10.00">Urho3D::Deserializer</text>
</a>
</g>
<!-- Node15&#45;&gt;Node14 -->
<g id="edge36" class="edge"><title>Node15&#45;&gt;Node14</title>
<path fill="none" stroke="midnightblue" d="M321.312,-133.866C395.691,-134.056 513.468,-134.358 584.282,-134.539"/>
<polygon fill="midnightblue" stroke="midnightblue" points="321.123,-130.366 311.114,-133.84 321.105,-137.366 321.123,-130.366"/>
</g>
<!-- Node16 -->
<g id="node34" class="node"><title>Node16</title>
<a xlink:href="class_urho3_d_1_1_serializer.html" target="_top" xlink:title="Abstract stream for writing.">
<polygon fill="none" stroke="black" points="201,-83.1915 201,-104.191 305,-104.191 305,-83.1915 201,-83.1915"/>
<text text-anchor="middle" x="253" y="-91.1915" font-family="FreeSans" font-size="10.00">Urho3D::Serializer</text>
</a>
</g>
<!-- Node16&#45;&gt;Node14 -->
<g id="edge38" class="edge"><title>Node16&#45;&gt;Node14</title>
<path fill="none" stroke="midnightblue" d="M315.427,-100.238C389.352,-107.989 511.597,-120.808 584.306,-128.432"/>
<polygon fill="midnightblue" stroke="midnightblue" points="315.637,-96.7404 305.326,-99.1784 314.907,-103.702 315.637,-96.7404"/>
</g>
<!-- Node17&#45;&gt;Node14 -->
<g id="edge40" class="edge"><title>Node17&#45;&gt;Node14</title>
<path fill="none" stroke="#9a32cd" stroke-dasharray="5,2" d="M322.61,-49.3211C387.234,-52.6174 485.332,-62.2107 566,-89.6915 589.826,-97.808 614.534,-113.514 629.591,-124.053"/>
<polygon fill="#9a32cd" stroke="#9a32cd" points="322.688,-45.8209 312.534,-48.8443 322.357,-52.8131 322.688,-45.8209"/>
<text text-anchor="middle" x="469" y="-93.6915" font-family="FreeSans" font-size="10.00"> buffer_</text>
</g>
<!-- Node18 -->
<g id="node39" class="node"><title>Node18</title>
<a xlink:href="class_urho3_d_1_1_vector3.html" target="_top" xlink:title="Three&#45;dimensional vector.">
<polygon fill="none" stroke="black" points="596,-366.191 596,-387.191 692,-387.191 692,-366.191 596,-366.191"/>
<text text-anchor="middle" x="644" y="-374.191" font-family="FreeSans" font-size="10.00">Urho3D::Vector3</text>
</a>
</g>
<!-- Node18&#45;&gt;Node1 -->
<g id="edge70" class="edge"><title>Node18&#45;&gt;Node1</title>
<path fill="none" stroke="#9a32cd" stroke-dasharray="5,2" d="M661.825,-394.541C676.592,-408.109 698.841,-425.891 722,-434.691 822.505,-472.884 1096.48,-476.691 1204,-476.691 1204,-476.691 1204,-476.691 1591,-476.691 1726.67,-476.691 1828.96,-305.214 1853.4,-260.336"/>
<polygon fill="#9a32cd" stroke="#9a32cd" points="664.095,-391.87 654.433,-387.521 659.274,-396.945 664.095,-391.87"/>
<text text-anchor="middle" x="1204" y="-506.691" font-family="FreeSans" font-size="10.00"> centerOfMass_</text>
<text text-anchor="middle" x="1204" y="-493.691" font-family="FreeSans" font-size="10.00">gravityOverride_</text>
<text text-anchor="middle" x="1204" y="-480.691" font-family="FreeSans" font-size="10.00">lastPosition_</text>
</g>
<!-- Node18&#45;&gt;Node8 -->
<g id="edge44" class="edge"><title>Node18&#45;&gt;Node8</title>
<path fill="none" stroke="#9a32cd" stroke-dasharray="5,2" d="M678.812,-362.221C697.46,-354.503 717.512,-346.272 722,-344.691 740.041,-338.336 786.477,-324.802 819.848,-315.242"/>
<polygon fill="#9a32cd" stroke="#9a32cd" points="677.461,-358.992 669.562,-366.054 680.14,-365.459 677.461,-358.992"/>
<text text-anchor="middle" x="759" y="-361.691" font-family="FreeSans" font-size="10.00"> scale_</text>
<text text-anchor="middle" x="759" y="-348.691" font-family="FreeSans" font-size="10.00">position_</text>
</g>
<!-- Node18&#45;&gt;Node18 -->
<g id="edge46" class="edge"><title>Node18&#45;&gt;Node18</title>
<path fill="none" stroke="#9a32cd" stroke-dasharray="5,2" d="M622.991,-397.118C624.612,-402.04 631.615,-405.691 644,-405.691 663.816,-405.691 669.854,-396.345 662.113,-387.399"/>
<polygon fill="#9a32cd" stroke="#9a32cd" points="626.385,-397.982 625.887,-387.399 619.677,-395.984 626.385,-397.982"/>
<text text-anchor="middle" x="644" y="-500.691" font-family="FreeSans" font-size="10.00"> ONE</text>
<text text-anchor="middle" x="644" y="-487.691" font-family="FreeSans" font-size="10.00">DOWN</text>
<text text-anchor="middle" x="644" y="-474.691" font-family="FreeSans" font-size="10.00">BACK</text>
<text text-anchor="middle" x="644" y="-461.691" font-family="FreeSans" font-size="10.00">RIGHT</text>
<text text-anchor="middle" x="644" y="-448.691" font-family="FreeSans" font-size="10.00">LEFT</text>
<text text-anchor="middle" x="644" y="-435.691" font-family="FreeSans" font-size="10.00">ZERO</text>
<text text-anchor="middle" x="644" y="-422.691" font-family="FreeSans" font-size="10.00">FORWARD</text>
<text text-anchor="middle" x="644" y="-409.691" font-family="FreeSans" font-size="10.00">UP</text>
</g>
<!-- Node18&#45;&gt;Node25 -->
<g id="edge82" class="edge"><title>Node18&#45;&gt;Node25</title>
<path fill="none" stroke="#9a32cd" stroke-dasharray="5,2" d="M666.536,-393.128C681.455,-402.96 701.91,-414.521 722,-419.691 753.851,-427.889 763.125,-420.656 796,-419.691 962.032,-414.821 1156.15,-401.623 1262.09,-393.781"/>
<polygon fill="#9a32cd" stroke="#9a32cd" points="668.244,-390.056 658.014,-387.301 664.293,-395.834 668.244,-390.056"/>
<text text-anchor="middle" x="957" y="-418.691" font-family="FreeSans" font-size="10.00"> targetPosition_</text>
</g>
<!-- Node19 -->
<g id="node43" class="node"><title>Node19</title>
<polygon fill="none" stroke="#bfbfbf" points="1548.5,-18.1915 1548.5,-39.1915 1633.5,-39.1915 1633.5,-18.1915 1548.5,-18.1915"/>
<text text-anchor="middle" x="1591" y="-26.1915" font-family="FreeSans" font-size="10.00">btMotionState</text>
</g>
<!-- Node19&#45;&gt;Node1 -->
<g id="edge50" class="edge"><title>Node19&#45;&gt;Node1</title>
<path fill="none" stroke="midnightblue" d="M1643.61,-21.3832C1686.94,-18.3566 1747.62,-21.3913 1788,-53.6915 1818.66,-78.2219 1848.36,-201.996 1856.69,-239.139"/>
<polygon fill="midnightblue" stroke="midnightblue" points="1643.21,-17.9035 1633.54,-22.216 1643.79,-24.8797 1643.21,-17.9035"/>
</g>
<!-- Node20 -->
<g id="node47" class="node"><title>Node20</title>
<a xlink:href="class_urho3_d_1_1_weak_ptr.html" target="_top" xlink:title="Urho3D::WeakPtr\&lt; Urho3D\l::PhysicsWorld \&gt;">
<polygon fill="none" stroke="black" points="1518,-258.691 1518,-292.691 1664,-292.691 1664,-258.691 1518,-258.691"/>
<text text-anchor="start" x="1526" y="-279.691" font-family="FreeSans" font-size="10.00">Urho3D::WeakPtr&lt; Urho3D</text>
<text text-anchor="middle" x="1591" y="-266.691" font-family="FreeSans" font-size="10.00">::PhysicsWorld &gt;</text>
</a>
</g>
<!-- Node20&#45;&gt;Node1 -->
<g id="edge56" class="edge"><title>Node20&#45;&gt;Node1</title>
<path fill="none" stroke="#9a32cd" stroke-dasharray="5,2" d="M1674.38,-267.602C1717.29,-263.44 1768.31,-258.49 1805.83,-254.85"/>
<polygon fill="#9a32cd" stroke="#9a32cd" points="1673.85,-264.138 1664.23,-268.587 1674.52,-271.105 1673.85,-264.138"/>
<text text-anchor="middle" x="1735" y="-269.691" font-family="FreeSans" font-size="10.00"> physicsWorld_</text>
</g>
<!-- Node21&#45;&gt;Node20 -->
<g id="edge58" class="edge"><title>Node21&#45;&gt;Node20</title>
<path fill="none" stroke="#9a32cd" stroke-dasharray="5,2" d="M1380.15,-200.63C1424.16,-216.297 1495.64,-241.743 1542.98,-258.598"/>
<polygon fill="#9a32cd" stroke="#9a32cd" points="1381.25,-197.307 1370.66,-197.25 1378.91,-203.902 1381.25,-197.307"/>
<text text-anchor="middle" x="1469" y="-245.691" font-family="FreeSans" font-size="10.00"> ptr_</text>
</g>
<!-- Node22&#45;&gt;Node1 -->
<g id="edge72" class="edge"><title>Node22&#45;&gt;Node1</title>
<path fill="none" stroke="#9a32cd" stroke-dasharray="5,2" d="M1156.07,-64.7703C1316.88,-59.9876 1685.05,-56.8111 1788,-122.691 1831.19,-150.332 1850.53,-213.994 1856.68,-239.169"/>
<polygon fill="#9a32cd" stroke="#9a32cd" points="1155.67,-61.2809 1145.78,-65.0869 1155.88,-68.2776 1155.67,-61.2809"/>
<text text-anchor="middle" x="1469" y="-70.6915" font-family="FreeSans" font-size="10.00"> constraints_</text>
</g>
<!-- Node22&#45;&gt;Node21 -->
<g id="edge64" class="edge"><title>Node22&#45;&gt;Node21</title>
<path fill="none" stroke="#9a32cd" stroke-dasharray="5,2" d="M1155.93,-79.6059C1191,-85.8793 1228.3,-93.8764 1244,-101.691 1281.88,-120.554 1316.7,-157.895 1332.33,-176.149"/>
<polygon fill="#9a32cd" stroke="#9a32cd" points="1156.09,-76.0801 1145.64,-77.8003 1154.88,-82.9749 1156.09,-76.0801"/>
<text text-anchor="middle" x="1204" y="-105.691" font-family="FreeSans" font-size="10.00"> constraints_</text>
</g>
<!-- Node23 -->
<g id="node56" class="node"><title>Node23</title>
<a xlink:href="struct_urho3_d_1_1_ref_count.html" target="_top" xlink:title="Reference count structure.">
<polygon fill="none" stroke="black" points="1290,-295.191 1290,-316.191 1392,-316.191 1392,-295.191 1290,-295.191"/>
<text text-anchor="middle" x="1341" y="-303.191" font-family="FreeSans" font-size="10.00">Urho3D::RefCount</text>
</a>
</g>
<!-- Node23&#45;&gt;Node20 -->
<g id="edge68" class="edge"><title>Node23&#45;&gt;Node20</title>
<path fill="none" stroke="#9a32cd" stroke-dasharray="5,2" d="M1402.23,-298.344C1437.07,-294.164 1480.92,-288.901 1517.6,-284.5"/>
<polygon fill="#9a32cd" stroke="#9a32cd" points="1401.71,-294.882 1392.19,-299.548 1402.54,-301.832 1401.71,-294.882"/>
<text text-anchor="middle" x="1469" y="-296.691" font-family="FreeSans" font-size="10.00"> refCount_</text>
</g>
<!-- Node24 -->
<g id="node60" class="node"><title>Node24</title>
<a xlink:href="class_urho3_d_1_1_weak_ptr.html" target="_top" xlink:title="Urho3D::WeakPtr\&lt; Urho3D\l::SmoothedTransform \&gt;">
<polygon fill="none" stroke="black" points="1518,-310.691 1518,-344.691 1664,-344.691 1664,-310.691 1518,-310.691"/>
<text text-anchor="start" x="1526" y="-331.691" font-family="FreeSans" font-size="10.00">Urho3D::WeakPtr&lt; Urho3D</text>
<text text-anchor="middle" x="1591" y="-318.691" font-family="FreeSans" font-size="10.00">::SmoothedTransform &gt;</text>
</a>
</g>
<!-- Node23&#45;&gt;Node24 -->
<g id="edge84" class="edge"><title>Node23&#45;&gt;Node24</title>
<path fill="none" stroke="#9a32cd" stroke-dasharray="5,2" d="M1402.23,-311.08C1437.07,-314.145 1480.92,-318.005 1517.6,-321.232"/>
<polygon fill="#9a32cd" stroke="#9a32cd" points="1402.46,-307.587 1392.19,-310.197 1401.85,-314.56 1402.46,-307.587"/>
<text text-anchor="middle" x="1469" y="-322.691" font-family="FreeSans" font-size="10.00"> refCount_</text>
</g>
<!-- Node24&#45;&gt;Node1 -->
<g id="edge74" class="edge"><title>Node24&#45;&gt;Node1</title>
<path fill="none" stroke="#9a32cd" stroke-dasharray="5,2" d="M1673.93,-312.794C1709.53,-305.366 1751.29,-295.259 1788,-282.691 1805.88,-276.572 1825.27,-267.369 1839.27,-260.235"/>
<polygon fill="#9a32cd" stroke="#9a32cd" points="1673.16,-309.38 1664.07,-314.818 1674.57,-316.237 1673.16,-309.38"/>
<text text-anchor="middle" x="1735" y="-313.691" font-family="FreeSans" font-size="10.00"> smoothedTransform_</text>
</g>
<!-- Node25&#45;&gt;Node24 -->
<g id="edge76" class="edge"><title>Node25&#45;&gt;Node24</title>
<path fill="none" stroke="#9a32cd" stroke-dasharray="5,2" d="M1394.79,-374.781C1431.32,-366.015 1480.01,-354.329 1519.75,-344.791"/>
<polygon fill="#9a32cd" stroke="#9a32cd" points="1393.74,-371.434 1384.83,-377.172 1395.37,-378.241 1393.74,-371.434"/>
<text text-anchor="middle" x="1469" y="-366.691" font-family="FreeSans" font-size="10.00"> ptr_</text>
</g>
</g>
</svg>
