<?xml version="1.0" encoding="UTF-8" standalone="no"?>
<!DOCTYPE svg PUBLIC "-//W3C//DTD SVG 1.1//EN"
 "http://www.w3.org/Graphics/SVG/1.1/DTD/svg11.dtd">
<!-- Generated by graphviz version 2.26.3 (20100126.1600)
 -->
<!-- Title: Urho3D::UI Pages: 1 -->
<!--zoomable 786 -->
<svg id="main" version="1.1" xmlns="http://www.w3.org/2000/svg" xmlns:xlink="http://www.w3.org/1999/xlink" xml:space="preserve" onload="init(evt)">
        <defs>
                <circle id="rim" cx="0" cy="0" r="7"/>
                <circle id="rim2" cx="0" cy="0" r="3.5"/>
                <g id="zoomPlus">
                        <use xlink:href="#rim" fill="#404040">
                                <set attributeName="fill" to="#808080" begin="zoomplus.mouseover" end="zoomplus.mouseout"/>
                        </use>
                        <path d="M-4,0h8M0,-4v8" fill="none" stroke="white" stroke-width="1.5" pointer-events="none"/>
                </g>
                <g id="zoomMin">
                        <use xlink:href="#rim" fill="#404040">
                                <set attributeName="fill" to="#808080" begin="zoomminus.mouseover" end="zoomminus.mouseout"/>
                        </use>
                        <path d="M-4,0h8" fill="none" stroke="white" stroke-width="1.5" pointer-events="none"/>
                </g>
                <g id="dirArrow">
                        <path fill="none" stroke="white" stroke-width="1.5" d="M0,-3.0v7 M-2.5,-0.5L0,-3.0L2.5,-0.5"/>
                </g>
               <g id="resetDef">
                       <use xlink:href="#rim2" fill="#404040">
                               <set attributeName="fill" to="#808080" begin="reset.mouseover" end="reset.mouseout"/>
                       </use>
               </g>
        </defs>

<script type="text/javascript">
var viewWidth = 1426;
var viewHeight = 786;
var sectionId = 'dynsection-1';
</script>
<script xlink:href="svgpan.js"/>
<svg id="graph" class="graph">
<g id="viewport">
<title>Urho3D::UI</title>
<!-- Node1 -->
<g id="node1" class="node"><title>Node1</title>
<polygon fill="#bfbfbf" stroke="black" points="1348.5,-407.5 1348.5,-428.5 1417.5,-428.5 1417.5,-407.5 1348.5,-407.5"/>
<text text-anchor="middle" x="1383" y="-415.5" font-family="FreeSans" font-size="10.00">Urho3D::UI</text>
</g>
<!-- Node2 -->
<g id="node2" class="node"><title>Node2</title>
<a xlink:href="class_urho3_d_1_1_object.html" target="_top" xlink:title="Base class for objects with type identification, subsystem access and event sending/receiving capabil...">
<polygon fill="none" stroke="black" points="602,-568.5 602,-589.5 692,-589.5 692,-568.5 602,-568.5"/>
<text text-anchor="middle" x="647" y="-576.5" font-family="FreeSans" font-size="10.00">Urho3D::Object</text>
</a>
</g>
<!-- Node2&#45;&gt;Node1 -->
<g id="edge2" class="edge"><title>Node2&#45;&gt;Node1</title>
<path fill="none" stroke="midnightblue" d="M702.24,-577.022C855.542,-571.112 1278.41,-551.801 1330,-517 1361.52,-495.741 1375.77,-449.427 1380.77,-428.563"/>
<polygon fill="midnightblue" stroke="midnightblue" points="701.967,-573.53 692.107,-577.408 702.233,-580.525 701.967,-573.53"/>
</g>
<!-- Node11 -->
<g id="node22" class="node"><title>Node11</title>
<a xlink:href="class_urho3_d_1_1_graphics.html" target="_top" xlink:title="Graphics subsystem. Manages the application window, rendering state and GPU resources.">
<polygon fill="none" stroke="red" points="824.5,-529.5 824.5,-550.5 925.5,-550.5 925.5,-529.5 824.5,-529.5"/>
<text text-anchor="middle" x="875" y="-537.5" font-family="FreeSans" font-size="10.00">Urho3D::Graphics</text>
</a>
</g>
<!-- Node2&#45;&gt;Node11 -->
<g id="edge26" class="edge"><title>Node2&#45;&gt;Node11</title>
<path fill="none" stroke="midnightblue" d="M701.967,-569.387C704.683,-568.917 707.372,-568.452 710,-568 748.37,-561.395 791.779,-554.033 824.439,-548.516"/>
<polygon fill="midnightblue" stroke="midnightblue" points="701.332,-565.945 692.077,-571.102 702.529,-572.841 701.332,-565.945"/>
</g>
<!-- Node3 -->
<g id="node4" class="node"><title>Node3</title>
<a xlink:href="class_urho3_d_1_1_ref_counted.html" target="_top" xlink:title="Base class for intrusively reference&#45;counted objects. These are noncopyable and non&#45;assignable.">
<polygon fill="none" stroke="black" points="188,-557.5 188,-578.5 302,-578.5 302,-557.5 188,-557.5"/>
<text text-anchor="middle" x="245" y="-565.5" font-family="FreeSans" font-size="10.00">Urho3D::RefCounted</text>
</a>
</g>
<!-- Node3&#45;&gt;Node2 -->
<g id="edge4" class="edge"><title>Node3&#45;&gt;Node2</title>
<path fill="none" stroke="midnightblue" d="M312.41,-569.845C394.622,-572.094 531.318,-575.835 601.84,-577.764"/>
<polygon fill="midnightblue" stroke="midnightblue" points="312.262,-566.339 302.17,-569.564 312.07,-573.337 312.262,-566.339"/>
</g>
<!-- Node5 -->
<g id="node8" class="node"><title>Node5</title>
<a xlink:href="class_urho3_d_1_1_context.html" target="_top" xlink:title="Urho3D execution context. Provides access to subsystems, object factories and attributes, and event receivers.">
<polygon fill="none" stroke="red" points="364.5,-647.5 364.5,-668.5 461.5,-668.5 461.5,-647.5 364.5,-647.5"/>
<text text-anchor="middle" x="413" y="-655.5" font-family="FreeSans" font-size="10.00">Urho3D::Context</text>
</a>
</g>
<!-- Node3&#45;&gt;Node5 -->
<g id="edge10" class="edge"><title>Node3&#45;&gt;Node5</title>
<path fill="none" stroke="midnightblue" d="M263.964,-585.291C282.219,-601.091 311.222,-624.055 340,-638 347.687,-641.725 356.176,-644.847 364.565,-647.433"/>
<polygon fill="midnightblue" stroke="midnightblue" points="266.187,-582.585 256.373,-578.593 261.556,-587.834 266.187,-582.585"/>
</g>
<!-- Node4 -->
<g id="node6" class="node"><title>Node4</title>
<a xlink:href="struct_urho3_d_1_1_ref_count.html" target="_top" xlink:title="Reference count structure.">
<polygon fill="none" stroke="black" points="0,-518.5 0,-539.5 102,-539.5 102,-518.5 0,-518.5"/>
<text text-anchor="middle" x="51" y="-526.5" font-family="FreeSans" font-size="10.00">Urho3D::RefCount</text>
</a>
</g>
<!-- Node4&#45;&gt;Node3 -->
<g id="edge6" class="edge"><title>Node4&#45;&gt;Node3</title>
<path fill="none" stroke="#9a32cd" stroke-dasharray="5,2" d="M112.044,-541.395C114.732,-541.938 117.394,-542.475 120,-543 143.648,-547.764 169.819,-553.003 192.078,-557.45"/>
<polygon fill="#9a32cd" stroke="#9a32cd" points="112.737,-537.965 102.241,-539.413 111.349,-544.826 112.737,-537.965"/>
<text text-anchor="middle" x="145" y="-556" font-family="FreeSans" font-size="10.00"> refCount_</text>
</g>
<!-- Node10 -->
<g id="node20" class="node"><title>Node10</title>
<a xlink:href="class_urho3_d_1_1_weak_ptr.html" target="_top" xlink:title="Urho3D::WeakPtr\&lt; Urho3D\l::Graphics \&gt;">
<polygon fill="none" stroke="black" points="1031,-484 1031,-518 1177,-518 1177,-484 1031,-484"/>
<text text-anchor="start" x="1039" y="-505" font-family="FreeSans" font-size="10.00">Urho3D::WeakPtr&lt; Urho3D</text>
<text text-anchor="middle" x="1104" y="-492" font-family="FreeSans" font-size="10.00">::Graphics &gt;</text>
</a>
</g>
<!-- Node4&#45;&gt;Node10 -->
<g id="edge32" class="edge"><title>Node4&#45;&gt;Node10</title>
<path fill="none" stroke="#9a32cd" stroke-dasharray="5,2" d="M112.488,-529C150.637,-529 200.668,-529 245,-529 245,-529 245,-529 647,-529 684.211,-529 911.487,-514.02 1030.88,-505.974"/>
<polygon fill="#9a32cd" stroke="#9a32cd" points="112.058,-525.5 102.058,-529 112.058,-532.5 112.058,-525.5"/>
<text text-anchor="middle" x="544" y="-533" font-family="FreeSans" font-size="10.00"> refCount_</text>
</g>
<!-- Node20 -->
<g id="node47" class="node"><title>Node20</title>
<a xlink:href="class_urho3_d_1_1_weak_ptr.html" target="_top" xlink:title="Urho3D::WeakPtr\&lt; Urho3D\l::UIElement \&gt;">
<polygon fill="none" stroke="black" points="1031,-290 1031,-324 1177,-324 1177,-290 1031,-290"/>
<text text-anchor="start" x="1039" y="-311" font-family="FreeSans" font-size="10.00">Urho3D::WeakPtr&lt; Urho3D</text>
<text text-anchor="middle" x="1104" y="-298" font-family="FreeSans" font-size="10.00">::UIElement &gt;</text>
</a>
</g>
<!-- Node4&#45;&gt;Node20 -->
<g id="edge60" class="edge"><title>Node4&#45;&gt;Node20</title>
<path fill="none" stroke="#9a32cd" stroke-dasharray="5,2" d="M56.6776,-508.596C74.1409,-450.777 132.789,-290 245,-290 245,-290 245,-290 875,-290 927.225,-290 985.966,-294.452 1030.88,-298.799"/>
<polygon fill="#9a32cd" stroke="#9a32cd" points="53.2519,-507.842 53.811,-518.422 59.9717,-509.803 53.2519,-507.842"/>
<text text-anchor="middle" x="544" y="-294" font-family="FreeSans" font-size="10.00"> refCount_</text>
</g>
<!-- Node5&#45;&gt;Node2 -->
<g id="edge8" class="edge"><title>Node5&#45;&gt;Node2</title>
<path fill="none" stroke="#9a32cd" stroke-dasharray="5,2" d="M471.77,-647.363C505.351,-640.271 547.843,-629.557 584,-615 600.944,-608.178 618.905,-597.535 631.295,-589.588"/>
<polygon fill="#9a32cd" stroke="#9a32cd" points="470.739,-644.002 461.651,-649.448 472.152,-650.858 470.739,-644.002"/>
<text text-anchor="middle" x="544" y="-643" font-family="FreeSans" font-size="10.00"> context_</text>
</g>
<!-- Node6 -->
<g id="node11" class="node"><title>Node6</title>
<a xlink:href="class_urho3_d_1_1_linked_list.html" target="_top" xlink:title="Urho3D::LinkedList\l\&lt; Urho3D::EventHandler \&gt;">
<polygon fill="none" stroke="red" points="340,-595 340,-629 486,-629 486,-595 340,-595"/>
<text text-anchor="start" x="348" y="-616" font-family="FreeSans" font-size="10.00">Urho3D::LinkedList</text>
<text text-anchor="middle" x="413" y="-603" font-family="FreeSans" font-size="10.00">&lt; Urho3D::EventHandler &gt;</text>
</a>
</g>
<!-- Node6&#45;&gt;Node2 -->
<g id="edge12" class="edge"><title>Node6&#45;&gt;Node2</title>
<path fill="none" stroke="#9a32cd" stroke-dasharray="5,2" d="M496.008,-600.294C531.697,-595.261 572.008,-589.576 601.996,-585.347"/>
<polygon fill="#9a32cd" stroke="#9a32cd" points="495.49,-596.832 486.077,-601.694 496.467,-603.764 495.49,-596.832"/>
<text text-anchor="middle" x="544" y="-602" font-family="FreeSans" font-size="10.00"> eventHandlers_</text>
</g>
<!-- Node7 -->
<g id="node13" class="node"><title>Node7</title>
<a xlink:href="class_urho3_d_1_1_vector.html" target="_top" xlink:title="Urho3D::Vector\&lt; Urho3D\l::UIElement * \&gt;">
<polygon fill="none" stroke="black" points="1035,-678 1035,-712 1173,-712 1173,-678 1035,-678"/>
<text text-anchor="start" x="1043" y="-699" font-family="FreeSans" font-size="10.00">Urho3D::Vector&lt; Urho3D</text>
<text text-anchor="middle" x="1104" y="-686" font-family="FreeSans" font-size="10.00">::UIElement * &gt;</text>
</a>
</g>
<!-- Node7&#45;&gt;Node1 -->
<g id="edge14" class="edge"><title>Node7&#45;&gt;Node1</title>
<path fill="none" stroke="#9a32cd" stroke-dasharray="5,2" d="M1183.04,-691.322C1239.53,-687.027 1309.09,-677.787 1330,-658 1364.17,-625.663 1378.8,-470.979 1382.2,-428.7"/>
<polygon fill="#9a32cd" stroke="#9a32cd" points="1182.74,-687.834 1173.02,-692.043 1183.25,-694.816 1182.74,-687.834"/>
<text text-anchor="middle" x="1267" y="-693" font-family="FreeSans" font-size="10.00"> dragElementsConfirmed_</text>
</g>
<!-- Node8 -->
<g id="node15" class="node"><title>Node8</title>
<a xlink:href="class_urho3_d_1_1_vector_base.html" target="_top" xlink:title="Vector base class.">
<polygon fill="none" stroke="black" points="818,-658.5 818,-679.5 932,-679.5 932,-658.5 818,-658.5"/>
<text text-anchor="middle" x="875" y="-666.5" font-family="FreeSans" font-size="10.00">Urho3D::VectorBase</text>
</a>
</g>
<!-- Node8&#45;&gt;Node7 -->
<g id="edge16" class="edge"><title>Node8&#45;&gt;Node7</title>
<path fill="none" stroke="midnightblue" d="M942.284,-676.639C971.435,-679.949 1005.54,-683.821 1034.89,-687.153"/>
<polygon fill="midnightblue" stroke="midnightblue" points="942.527,-673.144 932.196,-675.494 941.737,-680.1 942.527,-673.144"/>
</g>
<!-- Node9 -->
<g id="node17" class="node"><title>Node9</title>
<a xlink:href="class_urho3_d_1_1_p_o_d_vector.html" target="_top" xlink:title="Urho3D::PODVector\&lt;\l Urho3D::UIElement * \&gt;">
<polygon fill="none" stroke="black" points="1038.5,-626 1038.5,-660 1169.5,-660 1169.5,-626 1038.5,-626"/>
<text text-anchor="start" x="1046.5" y="-647" font-family="FreeSans" font-size="10.00">Urho3D::PODVector&lt;</text>
<text text-anchor="middle" x="1104" y="-634" font-family="FreeSans" font-size="10.00"> Urho3D::UIElement * &gt;</text>
</a>
</g>
<!-- Node8&#45;&gt;Node9 -->
<g id="edge20" class="edge"><title>Node8&#45;&gt;Node9</title>
<path fill="none" stroke="midnightblue" d="M942.24,-661.366C972.51,-657.929 1008.12,-653.885 1038.22,-650.469"/>
<polygon fill="midnightblue" stroke="midnightblue" points="941.737,-657.9 932.196,-662.506 942.527,-664.856 941.737,-657.9"/>
</g>
<!-- Node24 -->
<g id="node59" class="node"><title>Node24</title>
<a xlink:href="class_urho3_d_1_1_p_o_d_vector.html" target="_top" xlink:title="Urho3D::PODVector\&lt;\l float \&gt;">
<polygon fill="none" stroke="black" points="1044.5,-574 1044.5,-608 1163.5,-608 1163.5,-574 1044.5,-574"/>
<text text-anchor="start" x="1052.5" y="-595" font-family="FreeSans" font-size="10.00">Urho3D::PODVector&lt;</text>
<text text-anchor="middle" x="1104" y="-582" font-family="FreeSans" font-size="10.00"> float &gt;</text>
</a>
</g>
<!-- Node8&#45;&gt;Node24 -->
<g id="edge74" class="edge"><title>Node8&#45;&gt;Node24</title>
<path fill="none" stroke="midnightblue" d="M913.445,-655.01C943.033,-644.338 984.99,-629.41 1022,-617 1030.78,-614.056 1040.12,-611.013 1049.22,-608.092"/>
<polygon fill="midnightblue" stroke="midnightblue" points="912.125,-651.765 903.91,-658.456 914.504,-658.349 912.125,-651.765"/>
</g>
<!-- Node25 -->
<g id="node62" class="node"><title>Node25</title>
<a xlink:href="class_urho3_d_1_1_p_o_d_vector.html" target="_top" xlink:title="Urho3D::PODVector\&lt;\l Urho3D::UIBatch \&gt;">
<polygon fill="none" stroke="black" points="1044.5,-730 1044.5,-764 1163.5,-764 1163.5,-730 1044.5,-730"/>
<text text-anchor="start" x="1052.5" y="-751" font-family="FreeSans" font-size="10.00">Urho3D::PODVector&lt;</text>
<text text-anchor="middle" x="1104" y="-738" font-family="FreeSans" font-size="10.00"> Urho3D::UIBatch &gt;</text>
</a>
</g>
<!-- Node8&#45;&gt;Node25 -->
<g id="edge78" class="edge"><title>Node8&#45;&gt;Node25</title>
<path fill="none" stroke="midnightblue" d="M913.445,-682.99C943.033,-693.662 984.99,-708.59 1022,-721 1030.78,-723.944 1040.12,-726.987 1049.22,-729.908"/>
<polygon fill="midnightblue" stroke="midnightblue" points="914.504,-679.651 903.91,-679.544 912.125,-686.235 914.504,-679.651"/>
</g>
<!-- Node9&#45;&gt;Node1 -->
<g id="edge18" class="edge"><title>Node9&#45;&gt;Node1</title>
<path fill="none" stroke="#9a32cd" stroke-dasharray="5,2" d="M1179.63,-642.843C1236.4,-641.133 1307.99,-635.073 1330,-616 1359.18,-590.714 1376.97,-466.028 1381.72,-428.625"/>
<polygon fill="#9a32cd" stroke="#9a32cd" points="1179.48,-639.345 1169.57,-643.106 1179.66,-646.343 1179.48,-639.345"/>
<text text-anchor="middle" x="1267" y="-645" font-family="FreeSans" font-size="10.00"> tempElements_</text>
</g>
<!-- Node10&#45;&gt;Node1 -->
<g id="edge22" class="edge"><title>Node10&#45;&gt;Node1</title>
<path fill="none" stroke="#9a32cd" stroke-dasharray="5,2" d="M1187.29,-502.017C1231.64,-499.56 1285.96,-491.604 1330,-470 1349.44,-460.462 1366.19,-441.048 1375.41,-428.828"/>
<polygon fill="#9a32cd" stroke="#9a32cd" points="1186.94,-498.529 1177.12,-502.495 1187.27,-505.522 1186.94,-498.529"/>
<text text-anchor="middle" x="1267" y="-504" font-family="FreeSans" font-size="10.00"> graphics_</text>
</g>
<!-- Node11&#45;&gt;Node10 -->
<g id="edge24" class="edge"><title>Node11&#45;&gt;Node10</title>
<path fill="none" stroke="#9a32cd" stroke-dasharray="5,2" d="M935.621,-529.676C964.893,-524.691 1000.25,-518.669 1030.99,-513.433"/>
<polygon fill="#9a32cd" stroke="#9a32cd" points="934.809,-526.264 925.539,-531.393 935.984,-533.164 934.809,-526.264"/>
<text text-anchor="middle" x="977" y="-530" font-family="FreeSans" font-size="10.00"> ptr_</text>
</g>
<!-- Node12 -->
<g id="node25" class="node"><title>Node12</title>
<a xlink:href="class_urho3_d_1_1_string.html" target="_top" xlink:title="String class.">
<polygon fill="none" stroke="black" points="603,-378.5 603,-399.5 691,-399.5 691,-378.5 603,-378.5"/>
<text text-anchor="middle" x="647" y="-386.5" font-family="FreeSans" font-size="10.00">Urho3D::String</text>
</a>
</g>
<!-- Node12&#45;&gt;Node1 -->
<g id="edge70" class="edge"><title>Node12&#45;&gt;Node1</title>
<path fill="none" stroke="#9a32cd" stroke-dasharray="5,2" d="M701.293,-397.025C730.722,-401.853 767.596,-408.678 800,-417 808.168,-419.098 809.727,-421.365 818,-423 978.568,-454.736 1022.34,-439.273 1186,-437 1250.02,-436.111 1266.71,-442.681 1330,-433 1336.71,-431.973 1343.78,-430.362 1350.48,-428.57"/>
<polygon fill="#9a32cd" stroke="#9a32cd" points="701.643,-393.537 691.214,-395.402 700.53,-400.448 701.643,-393.537"/>
<text text-anchor="middle" x="977" y="-446" font-family="FreeSans" font-size="10.00"> clipBoard_</text>
</g>
<!-- Node12&#45;&gt;Node11 -->
<g id="edge28" class="edge"><title>Node12&#45;&gt;Node11</title>
<path fill="none" stroke="#9a32cd" stroke-dasharray="5,2" d="M680.837,-403.751C712.864,-418.429 761.619,-442.663 800,-470 825.533,-488.186 851.407,-514.452 865.085,-529.093"/>
<polygon fill="#9a32cd" stroke="#9a32cd" points="682.018,-400.444 671.465,-399.51 679.132,-406.821 682.018,-400.444"/>
<text text-anchor="middle" x="755" y="-539" font-family="FreeSans" font-size="10.00"> lastShaderName_</text>
<text text-anchor="middle" x="755" y="-526" font-family="FreeSans" font-size="10.00">windowTitle_</text>
<text text-anchor="middle" x="755" y="-513" font-family="FreeSans" font-size="10.00">apiName_</text>
<text text-anchor="middle" x="755" y="-500" font-family="FreeSans" font-size="10.00">shaderPath_</text>
<text text-anchor="middle" x="755" y="-487" font-family="FreeSans" font-size="10.00">orientations_</text>
<text text-anchor="middle" x="755" y="-474" font-family="FreeSans" font-size="10.00">shaderExtension_</text>
</g>
<!-- Node12&#45;&gt;Node12 -->
<g id="edge30" class="edge"><title>Node12&#45;&gt;Node12</title>
<path fill="none" stroke="#9a32cd" stroke-dasharray="5,2" d="M628.202,-409.427C629.653,-414.349 635.918,-418 647,-418 664.73,-418 670.133,-408.653 663.207,-399.708"/>
<polygon fill="#9a32cd" stroke="#9a32cd" points="631.599,-410.272 630.793,-399.708 624.836,-408.469 631.599,-410.272"/>
<text text-anchor="middle" x="647" y="-422" font-family="FreeSans" font-size="10.00"> EMPTY</text>
</g>
<!-- Node17 -->
<g id="node38" class="node"><title>Node17</title>
<a xlink:href="class_urho3_d_1_1_cursor.html" target="_top" xlink:title="Mouse cursor UI element.">
<polygon fill="none" stroke="red" points="829.5,-392.5 829.5,-413.5 920.5,-413.5 920.5,-392.5 829.5,-392.5"/>
<text text-anchor="middle" x="875" y="-400.5" font-family="FreeSans" font-size="10.00">Urho3D::Cursor</text>
</a>
</g>
<!-- Node12&#45;&gt;Node17 -->
<g id="edge46" class="edge"><title>Node12&#45;&gt;Node17</title>
<path fill="none" stroke="#9a32cd" stroke-dasharray="5,2" d="M701.262,-377.079C704.209,-376.658 707.136,-376.292 710,-376 749.793,-371.937 760.596,-369.123 800,-376 818.132,-379.164 837.667,-386.328 852.253,-392.482"/>
<polygon fill="#9a32cd" stroke="#9a32cd" points="700.54,-373.65 691.225,-378.696 701.654,-380.56 700.54,-373.65"/>
<text text-anchor="middle" x="755" y="-380" font-family="FreeSans" font-size="10.00"> shape_</text>
</g>
<!-- Node19 -->
<g id="node43" class="node"><title>Node19</title>
<a xlink:href="class_urho3_d_1_1_u_i_element.html" target="_top" xlink:title="Base class for UI elements.">
<polygon fill="none" stroke="red" points="820.5,-318.5 820.5,-339.5 929.5,-339.5 929.5,-318.5 820.5,-318.5"/>
<text text-anchor="middle" x="875" y="-326.5" font-family="FreeSans" font-size="10.00">Urho3D::UIElement</text>
</a>
</g>
<!-- Node12&#45;&gt;Node19 -->
<g id="edge54" class="edge"><title>Node12&#45;&gt;Node19</title>
<path fill="none" stroke="#9a32cd" stroke-dasharray="5,2" d="M664.316,-371.341C676.099,-360.536 692.655,-347.565 710,-341 745.055,-327.732 787.247,-324.873 820.191,-325.258"/>
<polygon fill="#9a32cd" stroke="#9a32cd" points="661.775,-368.927 656.969,-378.37 666.615,-373.985 661.775,-368.927"/>
<text text-anchor="middle" x="755" y="-358" font-family="FreeSans" font-size="10.00"> appliedStyle_</text>
<text text-anchor="middle" x="755" y="-345" font-family="FreeSans" font-size="10.00">name_</text>
</g>
<!-- Node13 -->
<g id="node29" class="node"><title>Node13</title>
<a xlink:href="class_urho3_d_1_1_hash_map.html" target="_top" xlink:title="Urho3D::HashMap\&lt; Urho3D\l::WeakPtr\&lt; Urho3D::UIElement\l \&gt;, int \&gt;">
<polygon fill="none" stroke="black" points="1022,-66.5 1022,-113.5 1186,-113.5 1186,-66.5 1022,-66.5"/>
<text text-anchor="start" x="1030" y="-100.5" font-family="FreeSans" font-size="10.00">Urho3D::HashMap&lt; Urho3D</text>
<text text-anchor="start" x="1030" y="-87.5" font-family="FreeSans" font-size="10.00">::WeakPtr&lt; Urho3D::UIElement</text>
<text text-anchor="middle" x="1104" y="-74.5" font-family="FreeSans" font-size="10.00"> &gt;, int &gt;</text>
</a>
</g>
<!-- Node13&#45;&gt;Node1 -->
<g id="edge34" class="edge"><title>Node13&#45;&gt;Node1</title>
<path fill="none" stroke="#9a32cd" stroke-dasharray="5,2" d="M1196.4,-71.0594C1241.94,-67.2892 1294.55,-72.0975 1330,-104 1376.34,-145.695 1382.16,-357.572 1382.9,-407.466"/>
<polygon fill="#9a32cd" stroke="#9a32cd" points="1195.81,-67.6 1186.19,-72.054 1196.49,-74.567 1195.81,-67.6"/>
<text text-anchor="middle" x="1267" y="-108" font-family="FreeSans" font-size="10.00"> touchDragElements_</text>
</g>
<!-- Node14 -->
<g id="node31" class="node"><title>Node14</title>
<a xlink:href="class_urho3_d_1_1_hash_base.html" target="_top" xlink:title="Hash set/map base class.">
<polygon fill="none" stroke="red" points="821,-79.5 821,-100.5 929,-100.5 929,-79.5 821,-79.5"/>
<text text-anchor="middle" x="875" y="-87.5" font-family="FreeSans" font-size="10.00">Urho3D::HashBase</text>
</a>
</g>
<!-- Node14&#45;&gt;Node13 -->
<g id="edge36" class="edge"><title>Node14&#45;&gt;Node13</title>
<path fill="none" stroke="midnightblue" d="M939.582,-90C965.143,-90 994.831,-90 1021.89,-90"/>
<polygon fill="midnightblue" stroke="midnightblue" points="939.27,-86.5001 929.27,-90 939.27,-93.5001 939.27,-86.5001"/>
</g>
<!-- Node15 -->
<g id="node33" class="node"><title>Node15</title>
<a xlink:href="class_urho3_d_1_1_hash_map.html" target="_top" xlink:title="Urho3D::HashMap\&lt; Urho3D\l::WeakPtr\&lt; Urho3D::UIElement\l \&gt;, Urho3D::UI::DragData * \&gt;">
<polygon fill="none" stroke="black" points="1022,-0.5 1022,-47.5 1186,-47.5 1186,-0.5 1022,-0.5"/>
<text text-anchor="start" x="1030" y="-34.5" font-family="FreeSans" font-size="10.00">Urho3D::HashMap&lt; Urho3D</text>
<text text-anchor="start" x="1030" y="-21.5" font-family="FreeSans" font-size="10.00">::WeakPtr&lt; Urho3D::UIElement</text>
<text text-anchor="middle" x="1104" y="-8.5" font-family="FreeSans" font-size="10.00"> &gt;, Urho3D::UI::DragData * &gt;</text>
</a>
</g>
<!-- Node14&#45;&gt;Node15 -->
<g id="edge40" class="edge"><title>Node14&#45;&gt;Node15</title>
<path fill="none" stroke="midnightblue" d="M921.351,-76.6413C950.222,-68.3202 988.182,-57.3799 1022.01,-47.6296"/>
<polygon fill="midnightblue" stroke="midnightblue" points="920.179,-73.3366 911.539,-79.4691 922.117,-80.0628 920.179,-73.3366"/>
</g>
<!-- Node21 -->
<g id="node51" class="node"><title>Node21</title>
<a xlink:href="class_urho3_d_1_1_hash_map.html" target="_top" xlink:title="Urho3D::HashMap\&lt; Urho3D\l::WeakPtr\&lt; Urho3D::UIElement\l \&gt;, bool \&gt;">
<polygon fill="none" stroke="black" points="1022,-224.5 1022,-271.5 1186,-271.5 1186,-224.5 1022,-224.5"/>
<text text-anchor="start" x="1030" y="-258.5" font-family="FreeSans" font-size="10.00">Urho3D::HashMap&lt; Urho3D</text>
<text text-anchor="start" x="1030" y="-245.5" font-family="FreeSans" font-size="10.00">::WeakPtr&lt; Urho3D::UIElement</text>
<text text-anchor="middle" x="1104" y="-232.5" font-family="FreeSans" font-size="10.00"> &gt;, bool &gt;</text>
</a>
</g>
<!-- Node14&#45;&gt;Node21 -->
<g id="edge64" class="edge"><title>Node14&#45;&gt;Node21</title>
<path fill="none" stroke="midnightblue" d="M892.38,-108.111C918.486,-134.494 970.295,-183.749 1022,-215 1027.52,-218.334 1033.43,-221.462 1039.46,-224.362"/>
<polygon fill="midnightblue" stroke="midnightblue" points="894.627,-105.403 885.132,-100.703 889.624,-110.298 894.627,-105.403"/>
</g>
<!-- Node15&#45;&gt;Node1 -->
<g id="edge38" class="edge"><title>Node15&#45;&gt;Node1</title>
<path fill="none" stroke="#9a32cd" stroke-dasharray="5,2" d="M1196.08,-11.712C1242.21,-10.9181 1295.45,-19.017 1330,-53 1356.08,-78.6497 1377.83,-349.305 1382.2,-407.157"/>
<polygon fill="#9a32cd" stroke="#9a32cd" points="1195.94,-8.21464 1186.05,-12.0237 1196.16,-15.2113 1195.94,-8.21464"/>
<text text-anchor="middle" x="1267" y="-57" font-family="FreeSans" font-size="10.00"> dragElements_</text>
</g>
<!-- Node16 -->
<g id="node36" class="node"><title>Node16</title>
<a xlink:href="class_urho3_d_1_1_shared_ptr.html" target="_top" xlink:title="Urho3D::SharedPtr\&lt;\l Urho3D::Cursor \&gt;">
<polygon fill="none" stroke="black" points="1046,-394 1046,-428 1162,-428 1162,-394 1046,-394"/>
<text text-anchor="start" x="1054" y="-415" font-family="FreeSans" font-size="10.00">Urho3D::SharedPtr&lt;</text>
<text text-anchor="middle" x="1104" y="-402" font-family="FreeSans" font-size="10.00"> Urho3D::Cursor &gt;</text>
</a>
</g>
<!-- Node16&#45;&gt;Node1 -->
<g id="edge42" class="edge"><title>Node16&#45;&gt;Node1</title>
<path fill="none" stroke="#9a32cd" stroke-dasharray="5,2" d="M1172.3,-412.714C1228,-414.111 1304.4,-416.028 1348.25,-417.128"/>
<polygon fill="#9a32cd" stroke="#9a32cd" points="1172.23,-409.211 1162.15,-412.459 1172.06,-416.209 1172.23,-409.211"/>
<text text-anchor="middle" x="1267" y="-420" font-family="FreeSans" font-size="10.00"> cursor_</text>
</g>
<!-- Node17&#45;&gt;Node16 -->
<g id="edge44" class="edge"><title>Node17&#45;&gt;Node16</title>
<path fill="none" stroke="#9a32cd" stroke-dasharray="5,2" d="M930.552,-404.941C965.499,-406.162 1010.52,-407.734 1045.93,-408.971"/>
<polygon fill="#9a32cd" stroke="#9a32cd" points="930.633,-401.441 920.517,-404.59 930.389,-408.437 930.633,-401.441"/>
<text text-anchor="middle" x="977" y="-411" font-family="FreeSans" font-size="10.00"> ptr_</text>
</g>
<!-- Node18 -->
<g id="node41" class="node"><title>Node18</title>
<a xlink:href="class_urho3_d_1_1_shared_ptr.html" target="_top" xlink:title="Urho3D::SharedPtr\&lt;\l Urho3D::UIElement \&gt;">
<polygon fill="none" stroke="black" points="1042.5,-342 1042.5,-376 1165.5,-376 1165.5,-342 1042.5,-342"/>
<text text-anchor="start" x="1050.5" y="-363" font-family="FreeSans" font-size="10.00">Urho3D::SharedPtr&lt;</text>
<text text-anchor="middle" x="1104" y="-350" font-family="FreeSans" font-size="10.00"> Urho3D::UIElement &gt;</text>
</a>
</g>
<!-- Node18&#45;&gt;Node1 -->
<g id="edge48" class="edge"><title>Node18&#45;&gt;Node1</title>
<path fill="none" stroke="#9a32cd" stroke-dasharray="5,2" d="M1175.76,-358.002C1221.17,-359.446 1280.46,-365.212 1330,-383 1345.15,-388.44 1360.26,-399.059 1370.45,-407.18"/>
<polygon fill="#9a32cd" stroke="#9a32cd" points="1175.79,-354.502 1165.7,-357.746 1175.61,-361.5 1175.79,-354.502"/>
<text text-anchor="middle" x="1267" y="-400" font-family="FreeSans" font-size="10.00"> rootModalElement_</text>
<text text-anchor="middle" x="1267" y="-387" font-family="FreeSans" font-size="10.00">rootElement_</text>
</g>
<!-- Node19&#45;&gt;Node18 -->
<g id="edge50" class="edge"><title>Node19&#45;&gt;Node18</title>
<path fill="none" stroke="#9a32cd" stroke-dasharray="5,2" d="M939.744,-337.482C971.864,-341.69 1010.47,-346.747 1042.18,-350.901"/>
<polygon fill="#9a32cd" stroke="#9a32cd" points="939.93,-333.976 929.56,-336.148 939.021,-340.917 939.93,-333.976"/>
<text text-anchor="middle" x="977" y="-349" font-family="FreeSans" font-size="10.00"> ptr_</text>
</g>
<!-- Node19&#45;&gt;Node19 -->
<g id="edge52" class="edge"><title>Node19&#45;&gt;Node19</title>
<path fill="none" stroke="#9a32cd" stroke-dasharray="5,2" d="M856.202,-349.427C857.653,-354.349 863.918,-358 875,-358 892.73,-358 898.133,-348.653 891.207,-339.708"/>
<polygon fill="#9a32cd" stroke="#9a32cd" points="859.599,-350.272 858.793,-339.708 852.836,-348.469 859.599,-350.272"/>
<text text-anchor="middle" x="875" y="-362" font-family="FreeSans" font-size="10.00"> parent_</text>
</g>
<!-- Node19&#45;&gt;Node20 -->
<g id="edge58" class="edge"><title>Node19&#45;&gt;Node20</title>
<path fill="none" stroke="#9a32cd" stroke-dasharray="5,2" d="M939.764,-322.778C968.125,-320.054 1001.54,-316.843 1030.8,-314.032"/>
<polygon fill="#9a32cd" stroke="#9a32cd" points="939.18,-319.318 929.56,-323.758 939.849,-326.286 939.18,-319.318"/>
<text text-anchor="middle" x="977" y="-325" font-family="FreeSans" font-size="10.00"> ptr_</text>
</g>
<!-- Node20&#45;&gt;Node1 -->
<g id="edge56" class="edge"><title>Node20&#45;&gt;Node1</title>
<path fill="none" stroke="#9a32cd" stroke-dasharray="5,2" d="M1187.36,-291.087C1232.85,-286.887 1288.24,-289.486 1330,-316 1363.02,-336.965 1376.55,-385.618 1381.07,-407.272"/>
<polygon fill="#9a32cd" stroke="#9a32cd" points="1186.8,-287.626 1177.22,-292.149 1187.53,-294.588 1186.8,-287.626"/>
<text text-anchor="start" x="1218.5" y="-346" font-family="FreeSans" font-size="10.00"> doubleClickElement</text>
<text text-anchor="middle" x="1267" y="-333" font-family="FreeSans" font-size="10.00">_</text>
<text text-anchor="middle" x="1267" y="-320" font-family="FreeSans" font-size="10.00">focusElement_</text>
</g>
<!-- Node21&#45;&gt;Node1 -->
<g id="edge62" class="edge"><title>Node21&#45;&gt;Node1</title>
<path fill="none" stroke="#9a32cd" stroke-dasharray="5,2" d="M1196.09,-236.411C1240.79,-235.724 1292.74,-242.831 1330,-272 1352.29,-289.453 1373.68,-376.518 1380.64,-407.243"/>
<polygon fill="#9a32cd" stroke="#9a32cd" points="1195.98,-232.913 1186.08,-236.694 1196.18,-239.91 1195.98,-232.913"/>
<text text-anchor="middle" x="1267" y="-276" font-family="FreeSans" font-size="10.00"> hoveredElements_</text>
</g>
<!-- Node22 -->
<g id="node54" class="node"><title>Node22</title>
<a xlink:href="class_urho3_d_1_1_timer.html" target="_top" xlink:title="Low&#45;resolution operating system timer.">
<polygon fill="none" stroke="black" points="1061,-184.5 1061,-205.5 1147,-205.5 1147,-184.5 1061,-184.5"/>
<text text-anchor="middle" x="1104" y="-192.5" font-family="FreeSans" font-size="10.00">Urho3D::Timer</text>
</a>
</g>
<!-- Node22&#45;&gt;Node1 -->
<g id="edge66" class="edge"><title>Node22&#45;&gt;Node1</title>
<path fill="none" stroke="#9a32cd" stroke-dasharray="5,2" d="M1157.08,-185.044C1207.56,-178.813 1282.62,-178.423 1330,-219 1359.46,-244.231 1377.06,-369.673 1381.74,-407.308"/>
<polygon fill="#9a32cd" stroke="#9a32cd" points="1156.46,-181.597 1147.01,-186.404 1157.39,-188.534 1156.46,-181.597"/>
<text text-anchor="middle" x="1267" y="-223" font-family="FreeSans" font-size="10.00"> clickTimer_</text>
</g>
<!-- Node23 -->
<g id="node56" class="node"><title>Node23</title>
<a xlink:href="class_urho3_d_1_1_shared_ptr.html" target="_top" xlink:title="Urho3D::SharedPtr\&lt;\l Urho3D::VertexBuffer \&gt;">
<polygon fill="none" stroke="red" points="1037.5,-132 1037.5,-166 1170.5,-166 1170.5,-132 1037.5,-132"/>
<text text-anchor="start" x="1045.5" y="-153" font-family="FreeSans" font-size="10.00">Urho3D::SharedPtr&lt;</text>
<text text-anchor="middle" x="1104" y="-140" font-family="FreeSans" font-size="10.00"> Urho3D::VertexBuffer &gt;</text>
</a>
</g>
<!-- Node23&#45;&gt;Node1 -->
<g id="edge68" class="edge"><title>Node23&#45;&gt;Node1</title>
<path fill="none" stroke="#9a32cd" stroke-dasharray="5,2" d="M1168.46,-129.638C1218.2,-118.968 1285.76,-114.35 1330,-151 1370.49,-184.541 1380.63,-361.472 1382.59,-407.203"/>
<polygon fill="#9a32cd" stroke="#9a32cd" points="1167.43,-126.284 1158.45,-131.917 1168.98,-133.11 1167.43,-126.284"/>
<text text-anchor="middle" x="1267" y="-168" font-family="FreeSans" font-size="10.00"> vertexBuffer_</text>
<text text-anchor="middle" x="1267" y="-155" font-family="FreeSans" font-size="10.00">debugVertexBuffer_</text>
</g>
<!-- Node24&#45;&gt;Node1 -->
<g id="edge72" class="edge"><title>Node24&#45;&gt;Node1</title>
<path fill="none" stroke="#9a32cd" stroke-dasharray="5,2" d="M1173.82,-589.127C1231.12,-586.221 1306.48,-578.822 1330,-560 1372.12,-526.293 1380.77,-455.512 1382.54,-428.648"/>
<polygon fill="#9a32cd" stroke="#9a32cd" points="1173.54,-585.636 1163.72,-589.603 1173.87,-592.628 1173.54,-585.636"/>
<text text-anchor="middle" x="1267" y="-603" font-family="FreeSans" font-size="10.00"> vertexData_</text>
<text text-anchor="middle" x="1267" y="-590" font-family="FreeSans" font-size="10.00">debugVertexData_</text>
</g>
<!-- Node25&#45;&gt;Node1 -->
<g id="edge76" class="edge"><title>Node25&#45;&gt;Node1</title>
<path fill="none" stroke="#9a32cd" stroke-dasharray="5,2" d="M1173.73,-753.627C1223.93,-754.334 1289.65,-746.244 1330,-706 1370.22,-665.878 1380.61,-476.296 1382.6,-428.807"/>
<polygon fill="#9a32cd" stroke="#9a32cd" points="1173.68,-750.125 1163.59,-753.364 1173.49,-757.123 1173.68,-750.125"/>
<text text-anchor="middle" x="1267" y="-769" font-family="FreeSans" font-size="10.00"> batches_</text>
<text text-anchor="middle" x="1267" y="-756" font-family="FreeSans" font-size="10.00">debugDrawBatches_</text>
</g>
</g>
</svg>
        <g id="navigator" transform="translate(0 0)" fill="#404254">
                <rect fill="#f2f5e9" fill-opacity="0.5" stroke="#606060" stroke-width=".5" x="0" y="0" width="60" height="60"/>
                <use id="zoomplus" xlink:href="#zoomPlus" x="17" y="9" onmousedown="handleZoom(evt,'in')"/>
                <use id="zoomminus" xlink:href="#zoomMin" x="42" y="9" onmousedown="handleZoom(evt,'out')"/>
                <use id="reset" xlink:href="#resetDef" x="30" y="36" onmousedown="handleReset()"/>
                <g id="arrowUp" xlink:href="#dirArrow" transform="translate(30 24)" onmousedown="handlePan(0,-1)">
                  <use xlink:href="#rim" fill="#404040">
                        <set attributeName="fill" to="#808080" begin="arrowUp.mouseover" end="arrowUp.mouseout"/>
                  </use>
                  <path fill="none" stroke="white" stroke-width="1.5" d="M0,-3.0v7 M-2.5,-0.5L0,-3.0L2.5,-0.5"/>
                </g>
                <g id="arrowRight" xlink:href="#dirArrow" transform="rotate(90) translate(36 -43)" onmousedown="handlePan(1,0)">
                  <use xlink:href="#rim" fill="#404040">
                        <set attributeName="fill" to="#808080" begin="arrowRight.mouseover" end="arrowRight.mouseout"/>
                  </use>
                  <path fill="none" stroke="white" stroke-width="1.5" d="M0,-3.0v7 M-2.5,-0.5L0,-3.0L2.5,-0.5"/>
                </g>
                <g id="arrowDown" xlink:href="#dirArrow" transform="rotate(180) translate(-30 -48)" onmousedown="handlePan(0,1)">
                  <use xlink:href="#rim" fill="#404040">
                        <set attributeName="fill" to="#808080" begin="arrowDown.mouseover" end="arrowDown.mouseout"/>
                  </use>
                  <path fill="none" stroke="white" stroke-width="1.5" d="M0,-3.0v7 M-2.5,-0.5L0,-3.0L2.5,-0.5"/>
                </g>
                <g id="arrowLeft" xlink:href="#dirArrow" transform="rotate(270) translate(-36 17)" onmousedown="handlePan(-1,0)">
                  <use xlink:href="#rim" fill="#404040">
                        <set attributeName="fill" to="#808080" begin="arrowLeft.mouseover" end="arrowLeft.mouseout"/>
                  </use>
                  <path fill="none" stroke="white" stroke-width="1.5" d="M0,-3.0v7 M-2.5,-0.5L0,-3.0L2.5,-0.5"/>
                </g>
        </g>
        <svg viewBox="0 0 15 15" width="100%" height="30px" preserveAspectRatio="xMaxYMin meet">
         <g id="arrow_out" transform="scale(0.3 0.3)">
          <a xlink:href="class_urho3_d_1_1_u_i__coll__graph_org.svg" target="_base">
           <rect id="button" ry="5" rx="5" y="6" x="6" height="38" width="38"
                fill="#f2f5e9" fill-opacity="0.5" stroke="#606060" stroke-width="1.0"/>
           <path id="arrow"
             d="M 11.500037,31.436501 C 11.940474,20.09759 22.043105,11.32322 32.158766,21.979434 L 37.068811,17.246167 C 37.068811,17.246167 37.088388,32 37.088388,32 L 22.160133,31.978069 C 22.160133,31.978069 26.997745,27.140456 26.997745,27.140456 C 18.528582,18.264221 13.291696,25.230495 11.500037,31.436501 z"
             style="fill:#404040;"/>
          </a>
         </g>
        </svg>
</svg>
