<?xml version="1.0" encoding="UTF-8" standalone="no"?>
<!DOCTYPE svg PUBLIC "-//W3C//DTD SVG 1.1//EN"
 "http://www.w3.org/Graphics/SVG/1.1/DTD/svg11.dtd">
<!-- Generated by graphviz version 2.26.3 (20100126.1600)
 -->
<!-- Title: Urho3D::NavigationMesh Pages: 1 -->
<!--zoomable 1004 -->
<svg id="main" version="1.1" xmlns="http://www.w3.org/2000/svg" xmlns:xlink="http://www.w3.org/1999/xlink" xml:space="preserve" onload="init(evt)">
        <defs>
                <circle id="rim" cx="0" cy="0" r="7"/>
                <circle id="rim2" cx="0" cy="0" r="3.5"/>
                <g id="zoomPlus">
                        <use xlink:href="#rim" fill="#404040">
                                <set attributeName="fill" to="#808080" begin="zoomplus.mouseover" end="zoomplus.mouseout"/>
                        </use>
                        <path d="M-4,0h8M0,-4v8" fill="none" stroke="white" stroke-width="1.5" pointer-events="none"/>
                </g>
                <g id="zoomMin">
                        <use xlink:href="#rim" fill="#404040">
                                <set attributeName="fill" to="#808080" begin="zoomminus.mouseover" end="zoomminus.mouseout"/>
                        </use>
                        <path d="M-4,0h8" fill="none" stroke="white" stroke-width="1.5" pointer-events="none"/>
                </g>
                <g id="dirArrow">
                        <path fill="none" stroke="white" stroke-width="1.5" d="M0,-3.0v7 M-2.5,-0.5L0,-3.0L2.5,-0.5"/>
                </g>
               <g id="resetDef">
                       <use xlink:href="#rim2" fill="#404040">
                               <set attributeName="fill" to="#808080" begin="reset.mouseover" end="reset.mouseout"/>
                       </use>
               </g>
        </defs>

<script type="text/javascript">
var viewWidth = 1582;
var viewHeight = 1004;
var sectionId = 'dynsection-1';
</script>
<script xlink:href="svgpan.js"/>
<svg id="graph" class="graph">
<g id="viewport">
<title>Urho3D::NavigationMesh</title>
<!-- Node1 -->
<g id="node1" class="node"><title>Node1</title>
<polygon fill="#bfbfbf" stroke="black" points="1438,-81.5 1438,-102.5 1574,-102.5 1574,-81.5 1438,-81.5"/>
<text text-anchor="middle" x="1506" y="-89.5" font-family="FreeSans" font-size="10.00">Urho3D::NavigationMesh</text>
</g>
<!-- Node2 -->
<g id="node2" class="node"><title>Node2</title>
<a xlink:href="class_urho3_d_1_1_component.html" target="_top" xlink:title="Base class for components. Components can be created to scene nodes.">
<polygon fill="none" stroke="black" points="1284,-538.5 1284,-559.5 1400,-559.5 1400,-538.5 1284,-538.5"/>
<text text-anchor="middle" x="1342" y="-546.5" font-family="FreeSans" font-size="10.00">Urho3D::Component</text>
</a>
</g>
<!-- Node2&#45;&gt;Node1 -->
<g id="edge2" class="edge"><title>Node2&#45;&gt;Node1</title>
<path fill="none" stroke="midnightblue" d="M1349.43,-528.291C1378.13,-448.334 1481.14,-161.279 1502.22,-102.544"/>
<polygon fill="midnightblue" stroke="midnightblue" points="1345.98,-527.56 1345.89,-538.154 1352.56,-529.924 1345.98,-527.56"/>
</g>
<!-- Node3 -->
<g id="node4" class="node"><title>Node3</title>
<a xlink:href="class_urho3_d_1_1_animatable.html" target="_top" xlink:title="Base class for animatable object, an animatable object can be set animation on it&#39;s attributes...">
<polygon fill="none" stroke="black" points="723,-916.5 723,-937.5 837,-937.5 837,-916.5 723,-916.5"/>
<text text-anchor="middle" x="780" y="-924.5" font-family="FreeSans" font-size="10.00">Urho3D::Animatable</text>
</a>
</g>
<!-- Node3&#45;&gt;Node2 -->
<g id="edge4" class="edge"><title>Node3&#45;&gt;Node2</title>
<path fill="none" stroke="midnightblue" d="M847.36,-935.49C897.982,-938.831 967.657,-936.777 1022,-910 1191.41,-826.523 1310.66,-610.004 1336.67,-559.597"/>
<polygon fill="midnightblue" stroke="midnightblue" points="847.413,-931.984 837.18,-934.729 846.891,-938.965 847.413,-931.984"/>
</g>
<!-- Node10 -->
<g id="node18" class="node"><title>Node10</title>
<a xlink:href="class_urho3_d_1_1_node.html" target="_top" xlink:title="Scene node that may contain components and child nodes.">
<polygon fill="none" stroke="black" points="1040.5,-538.5 1040.5,-559.5 1125.5,-559.5 1125.5,-538.5 1040.5,-538.5"/>
<text text-anchor="middle" x="1083" y="-546.5" font-family="FreeSans" font-size="10.00">Urho3D::Node</text>
</a>
</g>
<!-- Node3&#45;&gt;Node10 -->
<g id="edge20" class="edge"><title>Node3&#45;&gt;Node10</title>
<path fill="none" stroke="midnightblue" d="M847.466,-921.73C910.422,-915.376 998.135,-902.37 1022,-878 1067.93,-831.1 1080.31,-610.599 1082.58,-559.563"/>
<polygon fill="midnightblue" stroke="midnightblue" points="846.81,-918.277 837.197,-922.73 847.489,-925.244 846.81,-918.277"/>
</g>
<!-- Node4 -->
<g id="node6" class="node"><title>Node4</title>
<a xlink:href="class_urho3_d_1_1_serializable.html" target="_top" xlink:title="Base class for objects with automatic serialization through attributes.">
<polygon fill="none" stroke="red" points="342,-870.5 342,-891.5 456,-891.5 456,-870.5 342,-870.5"/>
<text text-anchor="middle" x="399" y="-878.5" font-family="FreeSans" font-size="10.00">Urho3D::Serializable</text>
</a>
</g>
<!-- Node4&#45;&gt;Node3 -->
<g id="edge6" class="edge"><title>Node4&#45;&gt;Node3</title>
<path fill="none" stroke="midnightblue" d="M466.033,-889.093C538.913,-897.892 654.148,-911.805 722.882,-920.104"/>
<polygon fill="midnightblue" stroke="midnightblue" points="466.387,-885.611 456.04,-887.887 465.548,-892.56 466.387,-885.611"/>
</g>
<!-- Node5 -->
<g id="node8" class="node"><title>Node5</title>
<a xlink:href="class_urho3_d_1_1_object.html" target="_top" xlink:title="Base class for objects with type identification, subsystem access and event sending/receiving capabil...">
<polygon fill="none" stroke="red" points="28,-723.5 28,-744.5 118,-744.5 118,-723.5 28,-723.5"/>
<text text-anchor="middle" x="73" y="-731.5" font-family="FreeSans" font-size="10.00">Urho3D::Object</text>
</a>
</g>
<!-- Node5&#45;&gt;Node4 -->
<g id="edge8" class="edge"><title>Node5&#45;&gt;Node4</title>
<path fill="none" stroke="midnightblue" d="M96.3713,-750.555C135.949,-777.796 219.532,-831.94 298,-861 311.829,-866.121 327.234,-870.019 341.764,-872.95"/>
<polygon fill="midnightblue" stroke="midnightblue" points="97.9359,-747.38 87.7264,-744.549 93.9419,-753.129 97.9359,-747.38"/>
</g>
<!-- Node22 -->
<g id="node51" class="node"><title>Node22</title>
<a xlink:href="class_urho3_d_1_1_connection.html" target="_top" xlink:title="Connection to a remote network host.">
<polygon fill="none" stroke="red" points="723.5,-629.5 723.5,-650.5 836.5,-650.5 836.5,-629.5 723.5,-629.5"/>
<text text-anchor="middle" x="780" y="-637.5" font-family="FreeSans" font-size="10.00">Urho3D::Connection</text>
</a>
</g>
<!-- Node5&#45;&gt;Node22 -->
<g id="edge62" class="edge"><title>Node5&#45;&gt;Node22</title>
<path fill="none" stroke="midnightblue" d="M102.848,-718.927C145.048,-698.51 225.148,-663.006 298,-649 449.435,-619.886 632.565,-628.018 723.323,-634.864"/>
<polygon fill="midnightblue" stroke="midnightblue" points="101.14,-715.866 93.6972,-723.407 104.218,-722.153 101.14,-715.866"/>
</g>
<!-- Node6 -->
<g id="node10" class="node"><title>Node6</title>
<a xlink:href="class_urho3_d_1_1_hash_map.html" target="_top" xlink:title="Hash map template class.">
<polygon fill="none" stroke="red" points="0,-870.5 0,-891.5 146,-891.5 146,-870.5 0,-870.5"/>
<text text-anchor="middle" x="73" y="-878.5" font-family="FreeSans" font-size="10.00">Urho3D::HashMap&lt; T, U &gt;</text>
</a>
</g>
<!-- Node6&#45;&gt;Node4 -->
<g id="edge10" class="edge"><title>Node6&#45;&gt;Node4</title>
<path fill="none" stroke="#9a32cd" stroke-dasharray="5,2" d="M156.42,-881C214.503,-881 290.45,-881 341.774,-881"/>
<polygon fill="#9a32cd" stroke="#9a32cd" points="156.161,-877.5 146.161,-881 156.161,-884.5 156.161,-877.5"/>
<text text-anchor="middle" x="222" y="-885" font-family="FreeSans" font-size="10.00"> instanceDefaultValues_</text>
</g>
<!-- Node7 -->
<g id="node12" class="node"><title>Node7</title>
<a xlink:href="class_urho3_d_1_1_hash_map.html" target="_top" xlink:title="Urho3D::HashMap\&lt; Urho3D\l::String, Urho3D::SharedPtr\l\&lt; Urho3D::AttributeAnimationInfo \&gt; \&gt;">
<polygon fill="none" stroke="red" points="298.5,-804.5 298.5,-851.5 499.5,-851.5 499.5,-804.5 298.5,-804.5"/>
<text text-anchor="start" x="306.5" y="-838.5" font-family="FreeSans" font-size="10.00">Urho3D::HashMap&lt; Urho3D</text>
<text text-anchor="start" x="306.5" y="-825.5" font-family="FreeSans" font-size="10.00">::String, Urho3D::SharedPtr</text>
<text text-anchor="middle" x="399" y="-812.5" font-family="FreeSans" font-size="10.00">&lt; Urho3D::AttributeAnimationInfo &gt; &gt;</text>
</a>
</g>
<!-- Node7&#45;&gt;Node3 -->
<g id="edge12" class="edge"><title>Node7&#45;&gt;Node3</title>
<path fill="none" stroke="#9a32cd" stroke-dasharray="5,2" d="M509.732,-829.463C559.33,-834.836 616.34,-847.984 660,-878 672.501,-886.594 665.518,-898.379 678,-907 691.066,-916.025 707.202,-921.209 722.753,-924.125"/>
<polygon fill="#9a32cd" stroke="#9a32cd" points="509.89,-825.961 499.594,-828.46 509.201,-832.927 509.89,-825.961"/>
<text text-anchor="middle" x="589" y="-882" font-family="FreeSans" font-size="10.00"> attributeAnimationInfos_</text>
</g>
<!-- Node8 -->
<g id="node14" class="node"><title>Node8</title>
<a xlink:href="class_urho3_d_1_1_shared_ptr.html" target="_top" xlink:title="Urho3D::SharedPtr\&lt;\l Urho3D::ObjectAnimation \&gt;">
<polygon fill="none" stroke="red" points="322.5,-962 322.5,-996 475.5,-996 475.5,-962 322.5,-962"/>
<text text-anchor="start" x="330.5" y="-983" font-family="FreeSans" font-size="10.00">Urho3D::SharedPtr&lt;</text>
<text text-anchor="middle" x="399" y="-970" font-family="FreeSans" font-size="10.00"> Urho3D::ObjectAnimation &gt;</text>
</a>
</g>
<!-- Node8&#45;&gt;Node3 -->
<g id="edge14" class="edge"><title>Node8&#45;&gt;Node3</title>
<path fill="none" stroke="#9a32cd" stroke-dasharray="5,2" d="M485.502,-967.564C536.333,-960.803 601.831,-952.02 660,-944 680.531,-941.169 703.029,-938 722.939,-935.172"/>
<polygon fill="#9a32cd" stroke="#9a32cd" points="484.989,-964.101 475.538,-968.888 485.912,-971.04 484.989,-964.101"/>
<text text-anchor="middle" x="589" y="-967" font-family="FreeSans" font-size="10.00"> objectAnimation_</text>
</g>
<!-- Node9 -->
<g id="node16" class="node"><title>Node9</title>
<a xlink:href="class_urho3_d_1_1_hash_set.html" target="_top" xlink:title="Urho3D::HashSet\&lt; const\l Urho3D::AttributeInfo * \&gt;">
<polygon fill="none" stroke="red" points="328.5,-910 328.5,-944 469.5,-944 469.5,-910 328.5,-910"/>
<text text-anchor="start" x="336.5" y="-931" font-family="FreeSans" font-size="10.00">Urho3D::HashSet&lt; const</text>
<text text-anchor="middle" x="399" y="-918" font-family="FreeSans" font-size="10.00"> Urho3D::AttributeInfo * &gt;</text>
</a>
</g>
<!-- Node9&#45;&gt;Node3 -->
<g id="edge16" class="edge"><title>Node9&#45;&gt;Node3</title>
<path fill="none" stroke="#9a32cd" stroke-dasharray="5,2" d="M479.848,-927C552.854,-927 658.438,-927 722.964,-927"/>
<polygon fill="#9a32cd" stroke="#9a32cd" points="479.77,-923.5 469.77,-927 479.77,-930.5 479.77,-923.5"/>
<text text-anchor="middle" x="589" y="-931" font-family="FreeSans" font-size="10.00"> animatedNetworkAttributes_</text>
</g>
<!-- Node10&#45;&gt;Node2 -->
<g id="edge18" class="edge"><title>Node10&#45;&gt;Node2</title>
<path fill="none" stroke="#9a32cd" stroke-dasharray="5,2" d="M1136.01,-549C1178.94,-549 1239.35,-549 1283.65,-549"/>
<polygon fill="#9a32cd" stroke="#9a32cd" points="1135.77,-545.5 1125.77,-549 1135.77,-552.5 1135.77,-545.5"/>
<text text-anchor="middle" x="1205" y="-553" font-family="FreeSans" font-size="10.00"> node_</text>
</g>
<!-- Node10&#45;&gt;Node10 -->
<g id="edge52" class="edge"><title>Node10&#45;&gt;Node10</title>
<path fill="none" stroke="#9a32cd" stroke-dasharray="5,2" d="M1060.52,-569.427C1062.25,-574.349 1069.75,-578 1083,-578 1104.21,-578 1110.67,-568.653 1102.38,-559.708"/>
<polygon fill="#9a32cd" stroke="#9a32cd" points="1063.91,-570.299 1063.62,-559.708 1057.24,-568.172 1063.91,-570.299"/>
<text text-anchor="middle" x="1083" y="-582" font-family="FreeSans" font-size="10.00"> parent_</text>
</g>
<!-- Node12 -->
<g id="node23" class="node"><title>Node12</title>
<a xlink:href="class_urho3_d_1_1_scene.html" target="_top" xlink:title="Root scene node, represents the whole scene.">
<polygon fill="none" stroke="red" points="1297.5,-300.5 1297.5,-321.5 1386.5,-321.5 1386.5,-300.5 1297.5,-300.5"/>
<text text-anchor="middle" x="1342" y="-308.5" font-family="FreeSans" font-size="10.00">Urho3D::Scene</text>
</a>
</g>
<!-- Node10&#45;&gt;Node12 -->
<g id="edge26" class="edge"><title>Node10&#45;&gt;Node12</title>
<path fill="none" stroke="midnightblue" d="M1084.65,-528.345C1088.58,-492.755 1101.62,-419.687 1144,-378 1185.52,-337.153 1252.81,-321.189 1297.23,-314.962"/>
<polygon fill="midnightblue" stroke="midnightblue" points="1081.14,-528.206 1083.66,-538.497 1088.11,-528.88 1081.14,-528.206"/>
</g>
<!-- Node11 -->
<g id="node21" class="node"><title>Node11</title>
<a xlink:href="class_urho3_d_1_1_p_o_d_vector.html" target="_top" xlink:title="Urho3D::PODVector\&lt;\l Urho3D::Node * \&gt;">
<polygon fill="none" stroke="red" points="720.5,-479 720.5,-513 839.5,-513 839.5,-479 720.5,-479"/>
<text text-anchor="start" x="728.5" y="-500" font-family="FreeSans" font-size="10.00">Urho3D::PODVector&lt;</text>
<text text-anchor="middle" x="780" y="-487" font-family="FreeSans" font-size="10.00"> Urho3D::Node * &gt;</text>
</a>
</g>
<!-- Node11&#45;&gt;Node10 -->
<g id="edge22" class="edge"><title>Node11&#45;&gt;Node10</title>
<path fill="none" stroke="#9a32cd" stroke-dasharray="5,2" d="M849.779,-497.794C898.696,-500.426 965.224,-506.783 1022,-522 1036.32,-525.838 1051.57,-532.588 1063.24,-538.378"/>
<polygon fill="#9a32cd" stroke="#9a32cd" points="849.779,-494.29 839.617,-497.287 849.43,-501.281 849.779,-494.29"/>
<text text-anchor="middle" x="961" y="-526" font-family="FreeSans" font-size="10.00"> dependencyNodes_</text>
</g>
<!-- Node12&#45;&gt;Node10 -->
<g id="edge24" class="edge"><title>Node12&#45;&gt;Node10</title>
<path fill="none" stroke="#9a32cd" stroke-dasharray="5,2" d="M1322.7,-328.732C1271.79,-375.513 1134.99,-501.226 1094.46,-538.466"/>
<polygon fill="#9a32cd" stroke="#9a32cd" points="1325.38,-331.025 1330.38,-321.682 1320.64,-325.871 1325.38,-331.025"/>
<text text-anchor="middle" x="1205" y="-496" font-family="FreeSans" font-size="10.00"> scene_</text>
</g>
<!-- Node13 -->
<g id="node26" class="node"><title>Node13</title>
<a xlink:href="class_urho3_d_1_1_hash_map.html" target="_top" xlink:title="Urho3D::HashMap\&lt; StringHash,\l Variant \&gt;">
<polygon fill="none" stroke="red" points="313,-549 313,-583 485,-583 485,-549 313,-549"/>
<text text-anchor="start" x="321" y="-570" font-family="FreeSans" font-size="10.00">Urho3D::HashMap&lt; StringHash,</text>
<text text-anchor="middle" x="399" y="-557" font-family="FreeSans" font-size="10.00"> Variant &gt;</text>
</a>
</g>
<!-- Node13&#45;&gt;Node10 -->
<g id="edge48" class="edge"><title>Node13&#45;&gt;Node10</title>
<path fill="none" stroke="#9a32cd" stroke-dasharray="5,2" d="M495.513,-566.608C593.013,-567.079 747.972,-567.436 882,-566 944.233,-565.333 960.238,-570.668 1022,-563 1028.69,-562.17 1035.71,-560.921 1042.52,-559.504"/>
<polygon fill="#9a32cd" stroke="#9a32cd" points="495.398,-563.107 485.381,-566.557 495.363,-570.107 495.398,-563.107"/>
<text text-anchor="middle" x="780" y="-572" font-family="FreeSans" font-size="10.00"> vars_</text>
</g>
<!-- Node13&#45;&gt;Node12 -->
<g id="edge28" class="edge"><title>Node13&#45;&gt;Node12</title>
<path fill="none" stroke="#9a32cd" stroke-dasharray="5,2" d="M403.94,-538.818C414.756,-487.674 445.596,-377.397 518,-323 641.608,-230.134 1143.8,-285.517 1297.25,-305.023"/>
<polygon fill="#9a32cd" stroke="#9a32cd" points="400.474,-538.298 401.928,-548.793 407.336,-539.682 400.474,-538.298"/>
<text text-anchor="middle" x="961" y="-282" font-family="FreeSans" font-size="10.00"> smoothingData_</text>
</g>
<!-- Node13&#45;&gt;Node22 -->
<g id="edge70" class="edge"><title>Node13&#45;&gt;Node22</title>
<path fill="none" stroke="#9a32cd" stroke-dasharray="5,2" d="M495.354,-575.919C563.313,-583.364 644.842,-593.373 660,-600 669.542,-604.171 668.704,-610.307 678,-615 691.997,-622.067 708.101,-627.207 723.317,-630.918"/>
<polygon fill="#9a32cd" stroke="#9a32cd" points="495.326,-572.396 485.006,-574.794 494.569,-579.355 495.326,-572.396"/>
<text text-anchor="middle" x="589" y="-604" font-family="FreeSans" font-size="10.00"> identity_</text>
</g>
<!-- Node14 -->
<g id="node28" class="node"><title>Node14</title>
<a xlink:href="class_urho3_d_1_1_string.html" target="_top" xlink:title="String class.">
<polygon fill="none" stroke="black" points="355,-262.5 355,-283.5 443,-283.5 443,-262.5 355,-262.5"/>
<text text-anchor="middle" x="399" y="-270.5" font-family="FreeSans" font-size="10.00">Urho3D::String</text>
</a>
</g>
<!-- Node14&#45;&gt;Node1 -->
<g id="edge88" class="edge"><title>Node14&#45;&gt;Node1</title>
<path fill="none" stroke="#9a32cd" stroke-dasharray="5,2" d="M452.819,-266.124C469.666,-261.632 487.182,-254.22 500,-242 517.095,-225.703 500.154,-207.471 518,-192 607.833,-114.12 661.108,-138 780,-138 780,-138 780,-138 1342,-138 1394.19,-138 1452.37,-116.134 1483.48,-102.553"/>
<polygon fill="#9a32cd" stroke="#9a32cd" points="451.942,-262.735 443.018,-268.446 453.556,-269.547 451.942,-262.735"/>
<text text-anchor="middle" x="1083" y="-142" font-family="FreeSans" font-size="10.00"> meshName_</text>
</g>
<!-- Node14&#45;&gt;Node10 -->
<g id="edge50" class="edge"><title>Node14&#45;&gt;Node10</title>
<path fill="none" stroke="#9a32cd" stroke-dasharray="5,2" d="M451.016,-260.567C510.403,-249.793 606.256,-243.427 660,-298 695.04,-333.581 642.449,-486.93 678,-522 703.366,-547.023 941.437,-549.36 1040.29,-549.238"/>
<polygon fill="#9a32cd" stroke="#9a32cd" points="450.252,-257.15 441.09,-262.47 451.571,-264.024 450.252,-257.15"/>
<text text-anchor="middle" x="780" y="-551" font-family="FreeSans" font-size="10.00"> name_</text>
</g>
<!-- Node14&#45;&gt;Node12 -->
<g id="edge30" class="edge"><title>Node14&#45;&gt;Node12</title>
<path fill="none" stroke="#9a32cd" stroke-dasharray="5,2" d="M443.31,-259.454C518.981,-236.372 666.155,-191.725 678,-190 938.538,-152.068 1026.04,-153.651 1266,-262 1289.32,-272.531 1313.76,-289.516 1328.43,-300.468"/>
<polygon fill="#9a32cd" stroke="#9a32cd" points="442.111,-256.16 433.568,-262.427 444.155,-262.855 442.111,-256.16"/>
<text text-anchor="middle" x="961" y="-181" font-family="FreeSans" font-size="10.00"> fileName_</text>
</g>
<!-- Node14&#45;&gt;Node14 -->
<g id="edge32" class="edge"><title>Node14&#45;&gt;Node14</title>
<path fill="none" stroke="#9a32cd" stroke-dasharray="5,2" d="M366.252,-292.679C368.007,-297.975 378.923,-302 399,-302 429.594,-302 438.915,-292.653 426.965,-283.708"/>
<polygon fill="#9a32cd" stroke="#9a32cd" points="369.419,-294.179 371.035,-283.708 363.242,-290.885 369.419,-294.179"/>
<text text-anchor="middle" x="399" y="-306" font-family="FreeSans" font-size="10.00"> EMPTY</text>
</g>
<!-- Node14&#45;&gt;Node22 -->
<g id="edge72" class="edge"><title>Node14&#45;&gt;Node22</title>
<path fill="none" stroke="#9a32cd" stroke-dasharray="5,2" d="M409.901,-292.591C428.998,-325.862 470.972,-394.514 518,-443 572.833,-499.532 615.668,-483.907 660,-549 677.115,-574.13 656.224,-593.781 678,-615 690.144,-626.834 706.926,-633.369 723.373,-636.893"/>
<polygon fill="#9a32cd" stroke="#9a32cd" points="412.909,-290.798 404.932,-283.825 406.819,-294.251 412.909,-290.798"/>
<text text-anchor="middle" x="589" y="-566" font-family="FreeSans" font-size="10.00"> sceneFileName_</text>
<text text-anchor="middle" x="589" y="-553" font-family="FreeSans" font-size="10.00">address_</text>
</g>
<!-- Node15 -->
<g id="node31" class="node"><title>Node15</title>
<a xlink:href="class_urho3_d_1_1_quaternion.html" target="_top" xlink:title="Rotation represented as a four&#45;dimensional normalized vector.">
<polygon fill="none" stroke="black" points="342.5,-658.5 342.5,-679.5 455.5,-679.5 455.5,-658.5 342.5,-658.5"/>
<text text-anchor="middle" x="399" y="-666.5" font-family="FreeSans" font-size="10.00">Urho3D::Quaternion</text>
</a>
</g>
<!-- Node15&#45;&gt;Node10 -->
<g id="edge34" class="edge"><title>Node15&#45;&gt;Node10</title>
<path fill="none" stroke="#9a32cd" stroke-dasharray="5,2" d="M465.801,-676.429C607.099,-690.817 930.766,-716.373 1022,-660 1059.23,-636.999 1075.44,-582.684 1080.81,-559.637"/>
<polygon fill="#9a32cd" stroke="#9a32cd" points="465.849,-672.915 455.542,-675.371 465.131,-679.879 465.849,-672.915"/>
<text text-anchor="middle" x="780" y="-711" font-family="FreeSans" font-size="10.00"> worldRotation_</text>
<text text-anchor="middle" x="780" y="-698" font-family="FreeSans" font-size="10.00">rotation_</text>
</g>
<!-- Node15&#45;&gt;Node15 -->
<g id="edge36" class="edge"><title>Node15&#45;&gt;Node15</title>
<path fill="none" stroke="#9a32cd" stroke-dasharray="5,2" d="M366.252,-688.679C368.007,-693.975 378.923,-698 399,-698 429.594,-698 438.915,-688.653 426.965,-679.708"/>
<polygon fill="#9a32cd" stroke="#9a32cd" points="369.419,-690.179 371.035,-679.708 363.242,-686.885 369.419,-690.179"/>
<text text-anchor="middle" x="399" y="-702" font-family="FreeSans" font-size="10.00"> IDENTITY</text>
</g>
<!-- Node15&#45;&gt;Node22 -->
<g id="edge64" class="edge"><title>Node15&#45;&gt;Node22</title>
<path fill="none" stroke="#9a32cd" stroke-dasharray="5,2" d="M465.639,-663.928C538.67,-658.369 654.574,-649.547 723.372,-644.31"/>
<polygon fill="#9a32cd" stroke="#9a32cd" points="465.334,-660.441 455.628,-664.69 465.865,-667.421 465.334,-660.441"/>
<text text-anchor="middle" x="589" y="-664" font-family="FreeSans" font-size="10.00"> rotation_</text>
</g>
<!-- Node16 -->
<g id="node34" class="node"><title>Node16</title>
<a xlink:href="class_urho3_d_1_1_vector.html" target="_top" xlink:title="Urho3D::Vector\&lt; Urho3D\l::WeakPtr\&lt; Urho3D::Component \&gt; \&gt;">
<polygon fill="none" stroke="red" points="683,-427 683,-461 877,-461 877,-427 683,-427"/>
<text text-anchor="start" x="691" y="-448" font-family="FreeSans" font-size="10.00">Urho3D::Vector&lt; Urho3D</text>
<text text-anchor="middle" x="780" y="-435" font-family="FreeSans" font-size="10.00">::WeakPtr&lt; Urho3D::Component &gt; &gt;</text>
</a>
</g>
<!-- Node16&#45;&gt;Node10 -->
<g id="edge38" class="edge"><title>Node16&#45;&gt;Node10</title>
<path fill="none" stroke="#9a32cd" stroke-dasharray="5,2" d="M887.164,-447.463C931.019,-452.527 980.984,-463.196 1022,-485 1046.13,-497.825 1066.19,-523.757 1076.18,-538.368"/>
<polygon fill="#9a32cd" stroke="#9a32cd" points="887.35,-443.963 877.034,-446.379 886.605,-450.923 887.35,-443.963"/>
<text text-anchor="middle" x="961" y="-489" font-family="FreeSans" font-size="10.00"> listeners_</text>
</g>
<!-- Node17 -->
<g id="node36" class="node"><title>Node17</title>
<a xlink:href="class_urho3_d_1_1_vector_buffer.html" target="_top" xlink:title="Dynamically sized buffer that can be read and written to as a stream.">
<polygon fill="none" stroke="red" points="339.5,-735.5 339.5,-756.5 458.5,-756.5 458.5,-735.5 339.5,-735.5"/>
<text text-anchor="middle" x="399" y="-743.5" font-family="FreeSans" font-size="10.00">Urho3D::VectorBuffer</text>
</a>
</g>
<!-- Node17&#45;&gt;Node10 -->
<g id="edge40" class="edge"><title>Node17&#45;&gt;Node10</title>
<path fill="none" stroke="#9a32cd" stroke-dasharray="5,2" d="M468.635,-749.171C613.407,-754.267 940.211,-757.518 1022,-688 1062.96,-653.183 1077.38,-585.589 1081.54,-559.566"/>
<polygon fill="#9a32cd" stroke="#9a32cd" points="468.653,-745.669 458.532,-748.802 468.398,-752.665 468.653,-745.669"/>
<text text-anchor="middle" x="780" y="-754" font-family="FreeSans" font-size="10.00"> attrBuffer_</text>
</g>
<!-- Node17&#45;&gt;Node22 -->
<g id="edge66" class="edge"><title>Node17&#45;&gt;Node22</title>
<path fill="none" stroke="#9a32cd" stroke-dasharray="5,2" d="M450.02,-732.978C466.029,-728.862 483.759,-724.273 500,-720 571.211,-701.266 592.925,-707.379 660,-677 668.758,-673.033 669.198,-668.869 678,-665 692.187,-658.763 708.198,-653.912 723.258,-650.214"/>
<polygon fill="#9a32cd" stroke="#9a32cd" points="449.119,-729.596 440.304,-735.473 450.86,-736.376 449.119,-729.596"/>
<text text-anchor="middle" x="589" y="-719" font-family="FreeSans" font-size="10.00"> msg_</text>
</g>
<!-- Node18 -->
<g id="node38" class="node"><title>Node18</title>
<a xlink:href="class_urho3_d_1_1_vector.html" target="_top" xlink:title="Urho3D::Vector\&lt; Urho3D\l::SharedPtr\&lt; Urho3D::Component \&gt; \&gt;">
<polygon fill="none" stroke="red" points="678.5,-375 678.5,-409 881.5,-409 881.5,-375 678.5,-375"/>
<text text-anchor="start" x="686.5" y="-396" font-family="FreeSans" font-size="10.00">Urho3D::Vector&lt; Urho3D</text>
<text text-anchor="middle" x="780" y="-383" font-family="FreeSans" font-size="10.00">::SharedPtr&lt; Urho3D::Component &gt; &gt;</text>
</a>
</g>
<!-- Node18&#45;&gt;Node10 -->
<g id="edge42" class="edge"><title>Node18&#45;&gt;Node10</title>
<path fill="none" stroke="#9a32cd" stroke-dasharray="5,2" d="M891.952,-390.2C935.983,-394.504 984.791,-406.027 1022,-433 1058.66,-459.576 1075.19,-514.929 1080.73,-538.261"/>
<polygon fill="#9a32cd" stroke="#9a32cd" points="892.021,-386.693 881.758,-389.322 891.42,-393.667 892.021,-386.693"/>
<text text-anchor="middle" x="961" y="-437" font-family="FreeSans" font-size="10.00"> components_</text>
</g>
<!-- Node19 -->
<g id="node40" class="node"><title>Node19</title>
<a xlink:href="class_urho3_d_1_1_vector3.html" target="_top" xlink:title="Three&#45;dimensional vector.">
<polygon fill="none" stroke="black" points="351,-89.5 351,-110.5 447,-110.5 447,-89.5 351,-89.5"/>
<text text-anchor="middle" x="399" y="-97.5" font-family="FreeSans" font-size="10.00">Urho3D::Vector3</text>
</a>
</g>
<!-- Node19&#45;&gt;Node1 -->
<g id="edge78" class="edge"><title>Node19&#45;&gt;Node1</title>
<path fill="none" stroke="#9a32cd" stroke-dasharray="5,2" d="M431.357,-85.4654C496.14,-57.7331 646.979,-0 780,-0 780,-0 780,-0 1342,-0 1407.95,-0 1471.93,-57.281 1495.99,-81.4464"/>
<polygon fill="#9a32cd" stroke="#9a32cd" points="429.859,-82.3001 422.074,-89.4873 432.642,-88.7231 429.859,-82.3001"/>
<text text-anchor="middle" x="1083" y="-4" font-family="FreeSans" font-size="10.00"> padding_</text>
</g>
<!-- Node19&#45;&gt;Node10 -->
<g id="edge44" class="edge"><title>Node19&#45;&gt;Node10</title>
<path fill="none" stroke="#9a32cd" stroke-dasharray="5,2" d="M457.389,-110.772C604.647,-138.445 982.298,-212.742 1022,-254 1062.62,-296.207 1078.86,-490.411 1082.28,-538.303"/>
<polygon fill="#9a32cd" stroke="#9a32cd" points="457.666,-107.263 447.192,-108.861 456.376,-114.143 457.666,-107.263"/>
<text text-anchor="middle" x="780" y="-218" font-family="FreeSans" font-size="10.00"> scale_</text>
<text text-anchor="middle" x="780" y="-205" font-family="FreeSans" font-size="10.00">position_</text>
</g>
<!-- Node19&#45;&gt;Node19 -->
<g id="edge46" class="edge"><title>Node19&#45;&gt;Node19</title>
<path fill="none" stroke="#9a32cd" stroke-dasharray="5,2" d="M366.252,-119.679C368.007,-124.975 378.923,-129 399,-129 429.594,-129 438.915,-119.653 426.965,-110.708"/>
<polygon fill="#9a32cd" stroke="#9a32cd" points="369.419,-121.179 371.035,-110.708 363.242,-117.885 369.419,-121.179"/>
<text text-anchor="middle" x="399" y="-224" font-family="FreeSans" font-size="10.00"> ONE</text>
<text text-anchor="middle" x="399" y="-211" font-family="FreeSans" font-size="10.00">DOWN</text>
<text text-anchor="middle" x="399" y="-198" font-family="FreeSans" font-size="10.00">BACK</text>
<text text-anchor="middle" x="399" y="-185" font-family="FreeSans" font-size="10.00">RIGHT</text>
<text text-anchor="middle" x="399" y="-172" font-family="FreeSans" font-size="10.00">LEFT</text>
<text text-anchor="middle" x="399" y="-159" font-family="FreeSans" font-size="10.00">ZERO</text>
<text text-anchor="middle" x="399" y="-146" font-family="FreeSans" font-size="10.00">FORWARD</text>
<text text-anchor="middle" x="399" y="-133" font-family="FreeSans" font-size="10.00">UP</text>
</g>
<!-- Node19&#45;&gt;Node22 -->
<g id="edge68" class="edge"><title>Node19&#45;&gt;Node22</title>
<path fill="none" stroke="#9a32cd" stroke-dasharray="5,2" d="M414.83,-118.477C469.125,-182.022 645.276,-389.667 660,-426 675.846,-465.101 650.413,-583.079 678,-615 689.385,-628.174 706.471,-634.998 723.419,-638.376"/>
<polygon fill="#9a32cd" stroke="#9a32cd" points="417.439,-116.142 408.279,-110.817 412.119,-120.692 417.439,-116.142"/>
<text text-anchor="middle" x="589" y="-430" font-family="FreeSans" font-size="10.00"> position_</text>
</g>
<!-- Node24 -->
<g id="node63" class="node"><title>Node24</title>
<a xlink:title="Temporary data for finding a path.">
<polygon fill="none" stroke="#bfbfbf" points="900,-85.5 900,-106.5 1022,-106.5 1022,-85.5 900,-85.5"/>
<text text-anchor="middle" x="961" y="-93.5" font-family="FreeSans" font-size="10.00">Urho3D::FindPathData</text>
</a>
</g>
<!-- Node19&#45;&gt;Node24 -->
<g id="edge82" class="edge"><title>Node19&#45;&gt;Node24</title>
<path fill="none" stroke="#9a32cd" stroke-dasharray="5,2" d="M457.7,-99.5822C564.838,-98.8197 791.047,-97.2096 899.92,-96.4347"/>
<polygon fill="#9a32cd" stroke="#9a32cd" points="457.377,-96.0843 447.402,-99.6555 457.427,-103.084 457.377,-96.0843"/>
<text text-anchor="middle" x="589" y="-104" font-family="FreeSans" font-size="10.00"> pathPoints_</text>
</g>
<!-- Node25 -->
<g id="node66" class="node"><title>Node25</title>
<a xlink:href="class_urho3_d_1_1_bounding_box.html" target="_top" xlink:title="Three&#45;dimensional axis&#45;aligned bounding box.">
<polygon fill="none" stroke="black" points="1144,-37.5 1144,-58.5 1266,-58.5 1266,-37.5 1144,-37.5"/>
<text text-anchor="middle" x="1205" y="-45.5" font-family="FreeSans" font-size="10.00">Urho3D::BoundingBox</text>
</a>
</g>
<!-- Node19&#45;&gt;Node25 -->
<g id="edge86" class="edge"><title>Node19&#45;&gt;Node25</title>
<path fill="none" stroke="#9a32cd" stroke-dasharray="5,2" d="M457.417,-91.6819C513.772,-83.9913 601.545,-72.8899 678,-67 846.187,-54.0434 1045.27,-49.8951 1143.65,-48.5876"/>
<polygon fill="#9a32cd" stroke="#9a32cd" points="456.7,-88.2475 447.269,-93.0762 457.653,-95.1823 456.7,-88.2475"/>
<text text-anchor="middle" x="780" y="-84" font-family="FreeSans" font-size="10.00"> max_</text>
<text text-anchor="middle" x="780" y="-71" font-family="FreeSans" font-size="10.00">min_</text>
</g>
<!-- Node20 -->
<g id="node46" class="node"><title>Node20</title>
<a xlink:href="class_urho3_d_1_1_string_hash.html" target="_top" xlink:title="32&#45;bit hash value for a string.">
<polygon fill="none" stroke="black" points="723.5,-304.5 723.5,-325.5 836.5,-325.5 836.5,-304.5 723.5,-304.5"/>
<text text-anchor="middle" x="780" y="-312.5" font-family="FreeSans" font-size="10.00">Urho3D::StringHash</text>
</a>
</g>
<!-- Node20&#45;&gt;Node10 -->
<g id="edge54" class="edge"><title>Node20&#45;&gt;Node10</title>
<path fill="none" stroke="#9a32cd" stroke-dasharray="5,2" d="M846.848,-314.956C900.475,-318.446 974.405,-331.688 1022,-375 1071.48,-420.029 1080.83,-507.508 1082.59,-538.112"/>
<polygon fill="#9a32cd" stroke="#9a32cd" points="846.923,-311.455 836.745,-314.398 846.537,-318.445 846.923,-311.455"/>
<text text-anchor="middle" x="961" y="-379" font-family="FreeSans" font-size="10.00"> nameHash_</text>
</g>
<!-- Node20&#45;&gt;Node20 -->
<g id="edge56" class="edge"><title>Node20&#45;&gt;Node20</title>
<path fill="none" stroke="#9a32cd" stroke-dasharray="5,2" d="M746.508,-334.679C748.302,-339.975 759.467,-344 780,-344 811.289,-344 820.822,-334.653 808.6,-325.708"/>
<polygon fill="#9a32cd" stroke="#9a32cd" points="749.685,-336.163 751.4,-325.708 743.539,-332.812 749.685,-336.163"/>
<text text-anchor="middle" x="780" y="-348" font-family="FreeSans" font-size="10.00"> ZERO</text>
</g>
<!-- Node21 -->
<g id="node49" class="node"><title>Node21</title>
<a xlink:href="class_urho3_d_1_1_vector.html" target="_top" xlink:title="Urho3D::Vector\&lt; Urho3D\l::SharedPtr\&lt; Urho3D::Node \&gt; \&gt;">
<polygon fill="none" stroke="red" points="693.5,-864 693.5,-898 866.5,-898 866.5,-864 693.5,-864"/>
<text text-anchor="start" x="701.5" y="-885" font-family="FreeSans" font-size="10.00">Urho3D::Vector&lt; Urho3D</text>
<text text-anchor="middle" x="780" y="-872" font-family="FreeSans" font-size="10.00">::SharedPtr&lt; Urho3D::Node &gt; &gt;</text>
</a>
</g>
<!-- Node21&#45;&gt;Node10 -->
<g id="edge58" class="edge"><title>Node21&#45;&gt;Node10</title>
<path fill="none" stroke="#9a32cd" stroke-dasharray="5,2" d="M876.562,-867.184C934.763,-856.914 1001.49,-841.044 1022,-820 1059.45,-781.582 1077.88,-605.23 1082.06,-559.734"/>
<polygon fill="#9a32cd" stroke="#9a32cd" points="875.816,-863.761 866.557,-868.91 877.006,-870.659 875.816,-863.761"/>
<text text-anchor="middle" x="961" y="-865" font-family="FreeSans" font-size="10.00"> children_</text>
</g>
<!-- Node22&#45;&gt;Node10 -->
<g id="edge60" class="edge"><title>Node22&#45;&gt;Node10</title>
<path fill="none" stroke="#9a32cd" stroke-dasharray="5,2" d="M846.99,-644.085C897.568,-644.445 967.355,-638.962 1022,-612 1046.3,-600.009 1066.3,-574.235 1076.23,-559.642"/>
<polygon fill="#9a32cd" stroke="#9a32cd" points="846.873,-640.583 836.822,-643.933 846.768,-647.582 846.873,-640.583"/>
<text text-anchor="middle" x="961" y="-647" font-family="FreeSans" font-size="10.00"> owner_</text>
</g>
<!-- Node23 -->
<g id="node59" class="node"><title>Node23</title>
<a xlink:href="class_urho3_d_1_1_matrix3x4.html" target="_top" xlink:title="3x4 matrix for scene node transform calculations.">
<polygon fill="none" stroke="black" points="727,-780.5 727,-801.5 833,-801.5 833,-780.5 727,-780.5"/>
<text text-anchor="middle" x="780" y="-788.5" font-family="FreeSans" font-size="10.00">Urho3D::Matrix3x4</text>
</a>
</g>
<!-- Node23&#45;&gt;Node10 -->
<g id="edge74" class="edge"><title>Node23&#45;&gt;Node10</title>
<path fill="none" stroke="#9a32cd" stroke-dasharray="5,2" d="M843.154,-801.502C896.919,-806.685 973.017,-804.607 1022,-763 1054.17,-735.676 1075.86,-599.098 1081.53,-559.672"/>
<polygon fill="#9a32cd" stroke="#9a32cd" points="843.367,-798.005 833.051,-800.418 842.62,-804.965 843.367,-798.005"/>
<text text-anchor="middle" x="961" y="-807" font-family="FreeSans" font-size="10.00"> worldTransform_</text>
</g>
<!-- Node23&#45;&gt;Node23 -->
<g id="edge76" class="edge"><title>Node23&#45;&gt;Node23</title>
<path fill="none" stroke="#9a32cd" stroke-dasharray="5,2" d="M746.508,-810.679C748.302,-815.975 759.467,-820 780,-820 811.289,-820 820.822,-810.653 808.6,-801.708"/>
<polygon fill="#9a32cd" stroke="#9a32cd" points="749.685,-812.163 751.4,-801.708 743.539,-808.812 749.685,-812.163"/>
<text text-anchor="middle" x="780" y="-837" font-family="FreeSans" font-size="10.00"> IDENTITY</text>
<text text-anchor="middle" x="780" y="-824" font-family="FreeSans" font-size="10.00">ZERO</text>
</g>
<!-- Node24&#45;&gt;Node1 -->
<g id="edge80" class="edge"><title>Node24&#45;&gt;Node1</title>
<path fill="none" stroke="#9a32cd" stroke-dasharray="5,2" d="M1032.43,-95.4757C1137.98,-94.7011 1334.26,-93.2605 1437.87,-92.5"/>
<polygon fill="#9a32cd" stroke="#9a32cd" points="1032.17,-91.9775 1022.2,-95.5509 1032.22,-98.9773 1032.17,-91.9775"/>
<text text-anchor="middle" x="1205" y="-99" font-family="FreeSans" font-size="10.00"> pathData_</text>
</g>
<!-- Node25&#45;&gt;Node1 -->
<g id="edge84" class="edge"><title>Node25&#45;&gt;Node1</title>
<path fill="none" stroke="#9a32cd" stroke-dasharray="5,2" d="M1276.57,-51.4472C1313.59,-53.9348 1359.42,-58.1105 1400,-65 1423.78,-69.0372 1450.05,-75.7137 1470.49,-81.4172"/>
<polygon fill="#9a32cd" stroke="#9a32cd" points="1276.57,-47.9404 1266.37,-50.7895 1276.12,-54.9259 1276.57,-47.9404"/>
<text text-anchor="middle" x="1342" y="-69" font-family="FreeSans" font-size="10.00"> boundingBox_</text>
</g>
</g>
</svg>
        <g id="navigator" transform="translate(0 0)" fill="#404254">
                <rect fill="#f2f5e9" fill-opacity="0.5" stroke="#606060" stroke-width=".5" x="0" y="0" width="60" height="60"/>
                <use id="zoomplus" xlink:href="#zoomPlus" x="17" y="9" onmousedown="handleZoom(evt,'in')"/>
                <use id="zoomminus" xlink:href="#zoomMin" x="42" y="9" onmousedown="handleZoom(evt,'out')"/>
                <use id="reset" xlink:href="#resetDef" x="30" y="36" onmousedown="handleReset()"/>
                <g id="arrowUp" xlink:href="#dirArrow" transform="translate(30 24)" onmousedown="handlePan(0,-1)">
                  <use xlink:href="#rim" fill="#404040">
                        <set attributeName="fill" to="#808080" begin="arrowUp.mouseover" end="arrowUp.mouseout"/>
                  </use>
                  <path fill="none" stroke="white" stroke-width="1.5" d="M0,-3.0v7 M-2.5,-0.5L0,-3.0L2.5,-0.5"/>
                </g>
                <g id="arrowRight" xlink:href="#dirArrow" transform="rotate(90) translate(36 -43)" onmousedown="handlePan(1,0)">
                  <use xlink:href="#rim" fill="#404040">
                        <set attributeName="fill" to="#808080" begin="arrowRight.mouseover" end="arrowRight.mouseout"/>
                  </use>
                  <path fill="none" stroke="white" stroke-width="1.5" d="M0,-3.0v7 M-2.5,-0.5L0,-3.0L2.5,-0.5"/>
                </g>
                <g id="arrowDown" xlink:href="#dirArrow" transform="rotate(180) translate(-30 -48)" onmousedown="handlePan(0,1)">
                  <use xlink:href="#rim" fill="#404040">
                        <set attributeName="fill" to="#808080" begin="arrowDown.mouseover" end="arrowDown.mouseout"/>
                  </use>
                  <path fill="none" stroke="white" stroke-width="1.5" d="M0,-3.0v7 M-2.5,-0.5L0,-3.0L2.5,-0.5"/>
                </g>
                <g id="arrowLeft" xlink:href="#dirArrow" transform="rotate(270) translate(-36 17)" onmousedown="handlePan(-1,0)">
                  <use xlink:href="#rim" fill="#404040">
                        <set attributeName="fill" to="#808080" begin="arrowLeft.mouseover" end="arrowLeft.mouseout"/>
                  </use>
                  <path fill="none" stroke="white" stroke-width="1.5" d="M0,-3.0v7 M-2.5,-0.5L0,-3.0L2.5,-0.5"/>
                </g>
        </g>
        <svg viewBox="0 0 15 15" width="100%" height="30px" preserveAspectRatio="xMaxYMin meet">
         <g id="arrow_out" transform="scale(0.3 0.3)">
          <a xlink:href="class_urho3_d_1_1_navigation_mesh__coll__graph_org.svg" target="_base">
           <rect id="button" ry="5" rx="5" y="6" x="6" height="38" width="38"
                fill="#f2f5e9" fill-opacity="0.5" stroke="#606060" stroke-width="1.0"/>
           <path id="arrow"
             d="M 11.500037,31.436501 C 11.940474,20.09759 22.043105,11.32322 32.158766,21.979434 L 37.068811,17.246167 C 37.068811,17.246167 37.088388,32 37.088388,32 L 22.160133,31.978069 C 22.160133,31.978069 26.997745,27.140456 26.997745,27.140456 C 18.528582,18.264221 13.291696,25.230495 11.500037,31.436501 z"
             style="fill:#404040;"/>
          </a>
         </g>
        </svg>
</svg>
