<?xml version="1.0" encoding="UTF-8" standalone="no"?>
<!DOCTYPE svg PUBLIC "-//W3C//DTD SVG 1.1//EN"
 "http://www.w3.org/Graphics/SVG/1.1/DTD/svg11.dtd">
<!-- Generated by graphviz version 2.26.3 (20100126.1600)
 -->
<!-- Title: Urho3D::View Pages: 1 -->
<svg width="656pt" height="1298pt"
 viewBox="0.00 0.00 656.00 1297.86" xmlns="http://www.w3.org/2000/svg" xmlns:xlink="http://www.w3.org/1999/xlink">
<g id="graph1" class="graph" transform="scale(1 1) rotate(0) translate(4 1293.86)">
<title>Urho3D::View</title>
<!-- Node1 -->
<g id="node1" class="node"><title>Node1</title>
<polygon fill="#bfbfbf" stroke="black" points="566.5,-575.67 566.5,-596.67 647.5,-596.67 647.5,-575.67 566.5,-575.67"/>
<text text-anchor="middle" x="607" y="-583.67" font-family="FreeSans" font-size="10.00">Urho3D::View</text>
</g>
<!-- Node2 -->
<g id="node2" class="node"><title>Node2</title>
<a xlink:href="class_urho3_d_1_1_object.html" target="_top" xlink:title="Base class for objects with type identification, subsystem access and event sending/receiving capabil...">
<polygon fill="none" stroke="red" points="2,-1210.67 2,-1231.67 92,-1231.67 92,-1210.67 2,-1210.67"/>
<text text-anchor="middle" x="47" y="-1218.67" font-family="FreeSans" font-size="10.00">Urho3D::Object</text>
</a>
</g>
<!-- Node2&#45;&gt;Node1 -->
<g id="edge2" class="edge"><title>Node2&#45;&gt;Node1</title>
<path fill="none" stroke="midnightblue" d="M82.3161,-1235.41C172.945,-1269.36 415.881,-1343.62 548,-1223.17 596.322,-1179.12 605.668,-677.049 606.855,-596.922"/>
<polygon fill="midnightblue" stroke="midnightblue" points="83.3706,-1232.06 72.7798,-1231.77 80.8768,-1238.61 83.3706,-1232.06"/>
</g>
<!-- Node5 -->
<g id="node9" class="node"><title>Node5</title>
<a xlink:href="class_urho3_d_1_1_occlusion_buffer.html" target="_top" xlink:title="Software renderer for occlusion.">
<polygon fill="none" stroke="red" points="241,-1187.67 241,-1208.67 375,-1208.67 375,-1187.67 241,-1187.67"/>
<text text-anchor="middle" x="308" y="-1195.67" font-family="FreeSans" font-size="10.00">Urho3D::OcclusionBuffer</text>
</a>
</g>
<!-- Node2&#45;&gt;Node5 -->
<g id="edge12" class="edge"><title>Node2&#45;&gt;Node5</title>
<path fill="none" stroke="midnightblue" d="M102.381,-1216.29C142.842,-1212.72 197.912,-1207.87 240.877,-1204.08"/>
<polygon fill="midnightblue" stroke="midnightblue" points="101.819,-1212.83 92.1648,-1217.19 102.433,-1219.8 101.819,-1212.83"/>
</g>
<!-- Node3 -->
<g id="node4" class="node"><title>Node3</title>
<a xlink:href="class_urho3_d_1_1_hash_map.html" target="_top" xlink:title="Urho3D::HashMap\&lt; Urho3D\l::StringHash, Urho3D::\lTexture * \&gt;">
<polygon fill="none" stroke="red" points="232,-1121.67 232,-1168.67 384,-1168.67 384,-1121.67 232,-1121.67"/>
<text text-anchor="start" x="240" y="-1155.67" font-family="FreeSans" font-size="10.00">Urho3D::HashMap&lt; Urho3D</text>
<text text-anchor="start" x="240" y="-1142.67" font-family="FreeSans" font-size="10.00">::StringHash, Urho3D::</text>
<text text-anchor="middle" x="308" y="-1129.67" font-family="FreeSans" font-size="10.00">Texture * &gt;</text>
</a>
</g>
<!-- Node3&#45;&gt;Node1 -->
<g id="edge4" class="edge"><title>Node3&#45;&gt;Node1</title>
<path fill="none" stroke="#9a32cd" stroke-dasharray="5,2" d="M394.476,-1149.39C446.541,-1146.96 509.917,-1134.32 548,-1092.17 582.538,-1053.94 603.081,-666.139 606.493,-596.763"/>
<polygon fill="#9a32cd" stroke="#9a32cd" points="394.098,-1145.9 384.225,-1149.75 394.34,-1152.9 394.098,-1145.9"/>
<text text-anchor="middle" x="488" y="-1149.17" font-family="FreeSans" font-size="10.00"> renderTargets_</text>
</g>
<!-- Node4 -->
<g id="node6" class="node"><title>Node4</title>
<a xlink:href="class_urho3_d_1_1_int_rect.html" target="_top" xlink:title="Two&#45;dimensional bounding rectangle with integer values.">
<polygon fill="none" stroke="black" points="262,-1050.67 262,-1071.67 354,-1071.67 354,-1050.67 262,-1050.67"/>
<text text-anchor="middle" x="308" y="-1058.67" font-family="FreeSans" font-size="10.00">Urho3D::IntRect</text>
</a>
</g>
<!-- Node4&#45;&gt;Node1 -->
<g id="edge6" class="edge"><title>Node4&#45;&gt;Node1</title>
<path fill="none" stroke="#9a32cd" stroke-dasharray="5,2" d="M364.548,-1072.28C419.166,-1079.44 500.411,-1080.05 548,-1033.17 580.275,-1001.38 602.425,-661.549 606.369,-596.795"/>
<polygon fill="#9a32cd" stroke="#9a32cd" points="364.729,-1068.77 354.335,-1070.83 363.742,-1075.7 364.729,-1068.77"/>
<text text-anchor="middle" x="488" y="-1079.17" font-family="FreeSans" font-size="10.00"> viewRect_</text>
</g>
<!-- Node4&#45;&gt;Node4 -->
<g id="edge8" class="edge"><title>Node4&#45;&gt;Node4</title>
<path fill="none" stroke="#9a32cd" stroke-dasharray="5,2" d="M278.728,-1081.22C280.648,-1086.33 290.405,-1090.17 308,-1090.17 335.465,-1090.17 343.833,-1080.82 333.105,-1071.88"/>
<polygon fill="#9a32cd" stroke="#9a32cd" points="282.02,-1082.44 282.895,-1071.88 275.626,-1079.59 282.02,-1082.44"/>
<text text-anchor="middle" x="308" y="-1094.17" font-family="FreeSans" font-size="10.00"> ZERO</text>
</g>
<!-- Node5&#45;&gt;Node1 -->
<g id="edge10" class="edge"><title>Node5&#45;&gt;Node1</title>
<path fill="none" stroke="#9a32cd" stroke-dasharray="5,2" d="M385.313,-1208.94C438.655,-1211.67 507.08,-1205.05 548,-1162.17 588.684,-1119.53 604.34,-671.696 606.682,-596.773"/>
<polygon fill="#9a32cd" stroke="#9a32cd" points="385.4,-1205.44 375.199,-1208.3 384.959,-1212.42 385.4,-1205.44"/>
<text text-anchor="middle" x="488" y="-1212.17" font-family="FreeSans" font-size="10.00"> occlusionBuffer_</text>
</g>
<!-- Node6 -->
<g id="node12" class="node"><title>Node6</title>
<a xlink:href="class_urho3_d_1_1_scene.html" target="_top" xlink:title="Root scene node, represents the whole scene.">
<polygon fill="none" stroke="red" points="2.5,-963.67 2.5,-984.67 91.5,-984.67 91.5,-963.67 2.5,-963.67"/>
<text text-anchor="middle" x="47" y="-971.67" font-family="FreeSans" font-size="10.00">Urho3D::Scene</text>
</a>
</g>
<!-- Node6&#45;&gt;Node1 -->
<g id="edge14" class="edge"><title>Node6&#45;&gt;Node1</title>
<path fill="none" stroke="#9a32cd" stroke-dasharray="5,2" d="M101.844,-982.758C218.851,-999.689 487.254,-1030.67 548,-969.17 575.126,-941.708 601.033,-655.673 606.106,-596.749"/>
<polygon fill="#9a32cd" stroke="#9a32cd" points="102.076,-979.254 91.6738,-981.266 101.06,-986.18 102.076,-979.254"/>
<text text-anchor="middle" x="308" y="-1009.17" font-family="FreeSans" font-size="10.00"> scene_</text>
</g>
<!-- Node7 -->
<g id="node14" class="node"><title>Node7</title>
<a xlink:href="class_urho3_d_1_1_node.html" target="_top" xlink:title="Scene node that may contain components and child nodes.">
<polygon fill="none" stroke="red" points="265.5,-930.67 265.5,-951.67 350.5,-951.67 350.5,-930.67 265.5,-930.67"/>
<text text-anchor="middle" x="308" y="-938.67" font-family="FreeSans" font-size="10.00">Urho3D::Node</text>
</a>
</g>
<!-- Node6&#45;&gt;Node7 -->
<g id="edge18" class="edge"><title>Node6&#45;&gt;Node7</title>
<path fill="none" stroke="#9a32cd" stroke-dasharray="5,2" d="M101.621,-967.264C150.334,-961.104 220.663,-952.212 265.345,-946.563"/>
<polygon fill="#9a32cd" stroke="#9a32cd" points="101.053,-963.807 91.5709,-968.534 101.931,-970.752 101.053,-963.807"/>
<text text-anchor="middle" x="150" y="-969.17" font-family="FreeSans" font-size="10.00"> scene_</text>
</g>
<!-- Node7&#45;&gt;Node1 -->
<g id="edge56" class="edge"><title>Node7&#45;&gt;Node1</title>
<path fill="none" stroke="#9a32cd" stroke-dasharray="5,2" d="M360.845,-950.338C415.151,-956.487 498.544,-956.302 548,-909.17 594.528,-864.829 604.866,-647.984 606.668,-596.944"/>
<polygon fill="#9a32cd" stroke="#9a32cd" points="361.08,-946.84 350.724,-949.081 360.217,-953.787 361.08,-946.84"/>
<text text-anchor="middle" x="488" y="-956.17" font-family="FreeSans" font-size="10.00"> cameraNode_</text>
</g>
<!-- Node7&#45;&gt;Node6 -->
<g id="edge16" class="edge"><title>Node7&#45;&gt;Node6</title>
<path fill="none" stroke="midnightblue" d="M255,-941.907C215.346,-943.194 159.928,-946.555 112,-955.17 100.776,-957.187 88.7252,-960.404 78.0862,-963.621"/>
<polygon fill="midnightblue" stroke="midnightblue" points="255.342,-945.399 265.236,-941.61 255.139,-938.402 255.342,-945.399"/>
</g>
<!-- Node7&#45;&gt;Node7 -->
<g id="edge20" class="edge"><title>Node7&#45;&gt;Node7</title>
<path fill="none" stroke="#9a32cd" stroke-dasharray="5,2" d="M278.728,-961.225C280.648,-966.334 290.405,-970.17 308,-970.17 335.465,-970.17 343.833,-960.823 333.105,-951.878"/>
<polygon fill="#9a32cd" stroke="#9a32cd" points="282.02,-962.436 282.895,-951.878 275.626,-959.586 282.02,-962.436"/>
<text text-anchor="middle" x="308" y="-974.17" font-family="FreeSans" font-size="10.00"> parent_</text>
</g>
<!-- Node8 -->
<g id="node18" class="node"><title>Node8</title>
<a xlink:href="class_urho3_d_1_1_weak_ptr.html" target="_top" xlink:title="Urho3D::WeakPtr\&lt; Urho3D\l::Graphics \&gt;">
<polygon fill="none" stroke="red" points="235,-878.17 235,-912.17 381,-912.17 381,-878.17 235,-878.17"/>
<text text-anchor="start" x="243" y="-899.17" font-family="FreeSans" font-size="10.00">Urho3D::WeakPtr&lt; Urho3D</text>
<text text-anchor="middle" x="308" y="-886.17" font-family="FreeSans" font-size="10.00">::Graphics &gt;</text>
</a>
</g>
<!-- Node8&#45;&gt;Node1 -->
<g id="edge22" class="edge"><title>Node8&#45;&gt;Node1</title>
<path fill="none" stroke="#9a32cd" stroke-dasharray="5,2" d="M391.463,-894.766C451.461,-892.671 525.572,-885.788 548,-865.17 588.73,-827.726 603.312,-643.006 606.358,-596.708"/>
<polygon fill="#9a32cd" stroke="#9a32cd" points="391.091,-891.275 381.204,-895.083 391.308,-898.272 391.091,-891.275"/>
<text text-anchor="middle" x="488" y="-896.17" font-family="FreeSans" font-size="10.00"> graphics_</text>
</g>
<!-- Node9 -->
<g id="node20" class="node"><title>Node9</title>
<a xlink:href="struct_urho3_d_1_1_render_path_command.html" target="_top" xlink:title="Rendering path command.">
<polygon fill="none" stroke="red" points="226,-838.67 226,-859.67 390,-859.67 390,-838.67 226,-838.67"/>
<text text-anchor="middle" x="308" y="-846.67" font-family="FreeSans" font-size="10.00">Urho3D::RenderPathCommand</text>
</a>
</g>
<!-- Node9&#45;&gt;Node1 -->
<g id="edge24" class="edge"><title>Node9&#45;&gt;Node1</title>
<path fill="none" stroke="#9a32cd" stroke-dasharray="5,2" d="M400.417,-849.798C458.436,-848.227 526.251,-842.143 548,-823.17 583.226,-792.438 601.541,-638.819 605.943,-596.805"/>
<polygon fill="#9a32cd" stroke="#9a32cd" points="400.002,-846.307 390.085,-850.034 400.162,-853.305 400.002,-846.307"/>
<text text-anchor="middle" x="488" y="-852.17" font-family="FreeSans" font-size="10.00"> lightVolumeCommand_</text>
</g>
<!-- Node10 -->
<g id="node22" class="node"><title>Node10</title>
<a xlink:href="class_urho3_d_1_1_hash_map.html" target="_top" xlink:title="Urho3D::HashMap\&lt; unsigned\l long long, Urho3D::LightBatch\lQueue \&gt;">
<polygon fill="none" stroke="red" points="226.5,-772.67 226.5,-819.67 389.5,-819.67 389.5,-772.67 226.5,-772.67"/>
<text text-anchor="start" x="234.5" y="-806.67" font-family="FreeSans" font-size="10.00">Urho3D::HashMap&lt; unsigned</text>
<text text-anchor="start" x="234.5" y="-793.67" font-family="FreeSans" font-size="10.00"> long long, Urho3D::LightBatch</text>
<text text-anchor="middle" x="308" y="-780.67" font-family="FreeSans" font-size="10.00">Queue &gt;</text>
</a>
</g>
<!-- Node10&#45;&gt;Node1 -->
<g id="edge26" class="edge"><title>Node10&#45;&gt;Node1</title>
<path fill="none" stroke="#9a32cd" stroke-dasharray="5,2" d="M399.662,-807.778C448.722,-808.941 507.256,-801.574 548,-768.17 575.678,-745.478 598.566,-632.021 605.115,-596.69"/>
<polygon fill="#9a32cd" stroke="#9a32cd" points="399.785,-804.28 389.666,-807.422 399.535,-811.276 399.785,-804.28"/>
<text text-anchor="middle" x="488" y="-810.17" font-family="FreeSans" font-size="10.00"> vertexLightQueues_</text>
</g>
<!-- Node11 -->
<g id="node24" class="node"><title>Node11</title>
<a xlink:href="class_urho3_d_1_1_hash_set.html" target="_top" xlink:title="Urho3D::HashSet\&lt; Urho3D\l::Drawable * \&gt;">
<polygon fill="none" stroke="red" points="233.5,-720.17 233.5,-754.17 382.5,-754.17 382.5,-720.17 233.5,-720.17"/>
<text text-anchor="start" x="241.5" y="-741.17" font-family="FreeSans" font-size="10.00">Urho3D::HashSet&lt; Urho3D</text>
<text text-anchor="middle" x="308" y="-728.17" font-family="FreeSans" font-size="10.00">::Drawable * &gt;</text>
</a>
</g>
<!-- Node11&#45;&gt;Node1 -->
<g id="edge28" class="edge"><title>Node11&#45;&gt;Node1</title>
<path fill="none" stroke="#9a32cd" stroke-dasharray="5,2" d="M392.66,-747.421C451.432,-752.715 523.42,-754.996 548,-738.17 572.643,-721.301 596.745,-628.98 604.456,-597.045"/>
<polygon fill="#9a32cd" stroke="#9a32cd" points="392.888,-743.927 382.604,-746.475 392.232,-750.896 392.888,-743.927"/>
<text text-anchor="middle" x="488" y="-755.17" font-family="FreeSans" font-size="10.00"> maxLightsDrawables_</text>
</g>
<!-- Node12 -->
<g id="node26" class="node"><title>Node12</title>
<a xlink:href="class_urho3_d_1_1_p_o_d_vector.html" target="_top" xlink:title="Urho3D::PODVector\&lt;\l Urho3D::Drawable * \&gt;">
<polygon fill="none" stroke="red" points="245,-668.17 245,-702.17 371,-702.17 371,-668.17 245,-668.17"/>
<text text-anchor="start" x="253" y="-689.17" font-family="FreeSans" font-size="10.00">Urho3D::PODVector&lt;</text>
<text text-anchor="middle" x="308" y="-676.17" font-family="FreeSans" font-size="10.00"> Urho3D::Drawable * &gt;</text>
</a>
</g>
<!-- Node12&#45;&gt;Node1 -->
<g id="edge30" class="edge"><title>Node12&#45;&gt;Node1</title>
<path fill="none" stroke="#9a32cd" stroke-dasharray="5,2" d="M381.196,-669.726C396.643,-666.521 412.851,-663.199 428,-660.17 481.25,-649.52 499.128,-660.843 548,-637.17 568.227,-627.372 587.03,-608.836 597.751,-597.015"/>
<polygon fill="#9a32cd" stroke="#9a32cd" points="380.251,-666.347 371.174,-671.811 381.677,-673.201 380.251,-666.347"/>
<text text-anchor="start" x="428" y="-729.17" font-family="FreeSans" font-size="10.00"> threadedGeometries</text>
<text text-anchor="middle" x="488" y="-716.17" font-family="FreeSans" font-size="10.00">_</text>
<text text-anchor="start" x="428" y="-703.17" font-family="FreeSans" font-size="10.00">nonThreadedGeometries</text>
<text text-anchor="middle" x="488" y="-690.17" font-family="FreeSans" font-size="10.00">_</text>
<text text-anchor="middle" x="488" y="-677.17" font-family="FreeSans" font-size="10.00">occluders_</text>
<text text-anchor="middle" x="488" y="-664.17" font-family="FreeSans" font-size="10.00">geometries_</text>
</g>
<!-- Node13 -->
<g id="node28" class="node"><title>Node13</title>
<a xlink:href="class_urho3_d_1_1_render_surface.html" target="_top" xlink:title="Color or depth&#45;stencil surface that can be rendered into.">
<polygon fill="none" stroke="red" points="243.5,-540.67 243.5,-561.67 372.5,-561.67 372.5,-540.67 243.5,-540.67"/>
<text text-anchor="middle" x="308" y="-548.67" font-family="FreeSans" font-size="10.00">Urho3D::RenderSurface</text>
</a>
</g>
<!-- Node13&#45;&gt;Node1 -->
<g id="edge32" class="edge"><title>Node13&#45;&gt;Node1</title>
<path fill="none" stroke="#9a32cd" stroke-dasharray="5,2" d="M375.259,-539.289C424.22,-533.203 491.554,-530.2 548,-547.17 566.344,-552.684 584.24,-565.96 595.422,-575.491"/>
<polygon fill="#9a32cd" stroke="#9a32cd" points="374.557,-535.851 365.101,-540.628 375.473,-542.791 374.557,-535.851"/>
<text text-anchor="start" x="432.5" y="-603.17" font-family="FreeSans" font-size="10.00"> currentRenderTarget</text>
<text text-anchor="middle" x="488" y="-590.17" font-family="FreeSans" font-size="10.00">_</text>
<text text-anchor="start" x="432.5" y="-577.17" font-family="FreeSans" font-size="10.00">substituteRenderTarget</text>
<text text-anchor="middle" x="488" y="-564.17" font-family="FreeSans" font-size="10.00">_</text>
<text text-anchor="middle" x="488" y="-551.17" font-family="FreeSans" font-size="10.00">renderTarget_</text>
</g>
<!-- Node14 -->
<g id="node30" class="node"><title>Node14</title>
<a xlink:href="class_urho3_d_1_1_texture.html" target="_top" xlink:title="Base class for texture resources.">
<polygon fill="none" stroke="red" points="0,-569.67 0,-590.67 94,-590.67 94,-569.67 0,-569.67"/>
<text text-anchor="middle" x="47" y="-577.67" font-family="FreeSans" font-size="10.00">Urho3D::Texture</text>
</a>
</g>
<!-- Node14&#45;&gt;Node1 -->
<g id="edge50" class="edge"><title>Node14&#45;&gt;Node1</title>
<path fill="none" stroke="#9a32cd" stroke-dasharray="5,2" d="M104.182,-583.802C198.874,-589.911 380.755,-602.071 410,-607.17 418.18,-608.596 419.773,-611.048 428,-612.17 480.845,-619.373 495.811,-623.159 548,-612.17 562.239,-609.171 577.231,-602.513 588.54,-596.686"/>
<polygon fill="#9a32cd" stroke="#9a32cd" points="104.394,-580.309 94.1903,-583.159 103.945,-587.295 104.394,-580.309"/>
<text text-anchor="middle" x="308" y="-650.17" font-family="FreeSans" font-size="10.00"> viewportTextures_</text>
<text text-anchor="start" x="247" y="-637.17" font-family="FreeSans" font-size="10.00">depthOnlyDummyTexture</text>
<text text-anchor="middle" x="308" y="-624.17" font-family="FreeSans" font-size="10.00">_</text>
<text text-anchor="middle" x="308" y="-611.17" font-family="FreeSans" font-size="10.00">currentViewportTexture_</text>
</g>
<!-- Node14&#45;&gt;Node13 -->
<g id="edge34" class="edge"><title>Node14&#45;&gt;Node13</title>
<path fill="none" stroke="#9a32cd" stroke-dasharray="5,2" d="M104.296,-572.121C106.899,-571.792 109.476,-571.473 112,-571.17 155.808,-565.903 205.235,-560.866 243.493,-557.164"/>
<polygon fill="#9a32cd" stroke="#9a32cd" points="103.658,-568.675 94.1914,-573.433 104.559,-575.616 103.658,-568.675"/>
<text text-anchor="middle" x="150" y="-575.17" font-family="FreeSans" font-size="10.00"> parentTexture_</text>
</g>
<!-- Node15 -->
<g id="node32" class="node"><title>Node15</title>
<a xlink:href="class_urho3_d_1_1_zone.html" target="_top" xlink:title="Component that describes global rendering properties.">
<polygon fill="none" stroke="red" points="265.5,-500.67 265.5,-521.67 350.5,-521.67 350.5,-500.67 265.5,-500.67"/>
<text text-anchor="middle" x="308" y="-508.67" font-family="FreeSans" font-size="10.00">Urho3D::Zone</text>
</a>
</g>
<!-- Node15&#45;&gt;Node1 -->
<g id="edge36" class="edge"><title>Node15&#45;&gt;Node1</title>
<path fill="none" stroke="#9a32cd" stroke-dasharray="5,2" d="M360.705,-504.115C421.305,-496.993 516.483,-489.135 548,-505.17 577.307,-520.08 595.499,-557.124 603.014,-575.493"/>
<polygon fill="#9a32cd" stroke="#9a32cd" points="360.063,-500.667 350.554,-505.338 360.901,-507.616 360.063,-500.667"/>
<text text-anchor="middle" x="488" y="-522.17" font-family="FreeSans" font-size="10.00"> cameraZone_</text>
<text text-anchor="middle" x="488" y="-509.17" font-family="FreeSans" font-size="10.00">farClipZone_</text>
</g>
<!-- Node16 -->
<g id="node34" class="node"><title>Node16</title>
<a xlink:href="class_urho3_d_1_1_p_o_d_vector.html" target="_top" xlink:title="Urho3D::PODVector\&lt;\l Urho3D::Zone * \&gt;">
<polygon fill="none" stroke="red" points="248.5,-448.17 248.5,-482.17 367.5,-482.17 367.5,-448.17 248.5,-448.17"/>
<text text-anchor="start" x="256.5" y="-469.17" font-family="FreeSans" font-size="10.00">Urho3D::PODVector&lt;</text>
<text text-anchor="middle" x="308" y="-456.17" font-family="FreeSans" font-size="10.00"> Urho3D::Zone * &gt;</text>
</a>
</g>
<!-- Node16&#45;&gt;Node1 -->
<g id="edge38" class="edge"><title>Node16&#45;&gt;Node1</title>
<path fill="none" stroke="#9a32cd" stroke-dasharray="5,2" d="M377.526,-452.334C428.574,-446.699 497.525,-447.343 548,-479.17 583.529,-501.572 599.393,-553.329 604.758,-575.631"/>
<polygon fill="#9a32cd" stroke="#9a32cd" points="377.074,-448.863 367.566,-453.537 377.914,-455.812 377.074,-448.863"/>
<text text-anchor="middle" x="488" y="-483.17" font-family="FreeSans" font-size="10.00"> zones_</text>
</g>
<!-- Node17 -->
<g id="node36" class="node"><title>Node17</title>
<a xlink:href="class_urho3_d_1_1_hash_map.html" target="_top" xlink:title="Urho3D::HashMap\&lt; unsigned,\l Urho3D::BatchQueue \&gt;">
<polygon fill="none" stroke="red" points="227,-396.17 227,-430.17 389,-430.17 389,-396.17 227,-396.17"/>
<text text-anchor="start" x="235" y="-417.17" font-family="FreeSans" font-size="10.00">Urho3D::HashMap&lt; unsigned,</text>
<text text-anchor="middle" x="308" y="-404.17" font-family="FreeSans" font-size="10.00"> Urho3D::BatchQueue &gt;</text>
</a>
</g>
<!-- Node17&#45;&gt;Node1 -->
<g id="edge40" class="edge"><title>Node17&#45;&gt;Node1</title>
<path fill="none" stroke="#9a32cd" stroke-dasharray="5,2" d="M399.24,-398.912C447.876,-396.323 506.137,-401.809 548,-433.17 595.164,-468.502 604.631,-546.73 606.527,-575.383"/>
<polygon fill="#9a32cd" stroke="#9a32cd" points="398.768,-395.435 389.017,-399.58 399.225,-402.42 398.768,-395.435"/>
<text text-anchor="middle" x="488" y="-437.17" font-family="FreeSans" font-size="10.00"> batchQueues_</text>
</g>
<!-- Node18 -->
<g id="node38" class="node"><title>Node18</title>
<a xlink:href="class_urho3_d_1_1_weak_ptr.html" target="_top" xlink:title="Urho3D::WeakPtr\&lt; Urho3D\l::Renderer \&gt;">
<polygon fill="none" stroke="red" points="235,-344.17 235,-378.17 381,-378.17 381,-344.17 235,-344.17"/>
<text text-anchor="start" x="243" y="-365.17" font-family="FreeSans" font-size="10.00">Urho3D::WeakPtr&lt; Urho3D</text>
<text text-anchor="middle" x="308" y="-352.17" font-family="FreeSans" font-size="10.00">::Renderer &gt;</text>
</a>
</g>
<!-- Node18&#45;&gt;Node1 -->
<g id="edge42" class="edge"><title>Node18&#45;&gt;Node1</title>
<path fill="none" stroke="#9a32cd" stroke-dasharray="5,2" d="M391.074,-346.595C441.816,-342.539 504.995,-346.801 548,-382.17 578.967,-407.638 599.902,-537.085 605.499,-575.444"/>
<polygon fill="#9a32cd" stroke="#9a32cd" points="390.74,-343.111 381.101,-347.51 391.38,-350.081 390.74,-343.111"/>
<text text-anchor="middle" x="488" y="-386.17" font-family="FreeSans" font-size="10.00"> renderer_</text>
</g>
<!-- Node19 -->
<g id="node40" class="node"><title>Node19</title>
<a xlink:href="class_urho3_d_1_1_p_o_d_vector.html" target="_top" xlink:title="Urho3D::PODVector\&lt;\l Urho3D::Light * \&gt;">
<polygon fill="none" stroke="red" points="248.5,-292.17 248.5,-326.17 367.5,-326.17 367.5,-292.17 248.5,-292.17"/>
<text text-anchor="start" x="256.5" y="-313.17" font-family="FreeSans" font-size="10.00">Urho3D::PODVector&lt;</text>
<text text-anchor="middle" x="308" y="-300.17" font-family="FreeSans" font-size="10.00"> Urho3D::Light * &gt;</text>
</a>
</g>
<!-- Node19&#45;&gt;Node1 -->
<g id="edge44" class="edge"><title>Node19&#45;&gt;Node1</title>
<path fill="none" stroke="#9a32cd" stroke-dasharray="5,2" d="M377.723,-294.876C430.674,-288.31 501.993,-289.293 548,-329.17 586.398,-362.451 602.568,-531.278 606.186,-575.535"/>
<polygon fill="#9a32cd" stroke="#9a32cd" points="377.165,-291.42 367.726,-296.232 378.106,-298.356 377.165,-291.42"/>
<text text-anchor="middle" x="488" y="-333.17" font-family="FreeSans" font-size="10.00"> lights_</text>
</g>
<!-- Node20 -->
<g id="node42" class="node"><title>Node20</title>
<a xlink:href="class_urho3_d_1_1_vector.html" target="_top" xlink:title="Urho3D::Vector\&lt; Urho3D\l::PODVector\&lt; Urho3D::Drawable * \&gt; \&gt;">
<polygon fill="none" stroke="red" points="206.5,-240.17 206.5,-274.17 409.5,-274.17 409.5,-240.17 206.5,-240.17"/>
<text text-anchor="start" x="214.5" y="-261.17" font-family="FreeSans" font-size="10.00">Urho3D::Vector&lt; Urho3D</text>
<text text-anchor="middle" x="308" y="-248.17" font-family="FreeSans" font-size="10.00">::PODVector&lt; Urho3D::Drawable * &gt; &gt;</text>
</a>
</g>
<!-- Node20&#45;&gt;Node1 -->
<g id="edge46" class="edge"><title>Node20&#45;&gt;Node1</title>
<path fill="none" stroke="#9a32cd" stroke-dasharray="5,2" d="M400.913,-239.209C450.359,-235.22 508.862,-240.209 548,-275.17 594.108,-316.357 604.743,-525.385 606.642,-575.405"/>
<polygon fill="#9a32cd" stroke="#9a32cd" points="400.461,-235.736 390.831,-240.154 401.114,-242.705 400.461,-235.736"/>
<text text-anchor="middle" x="488" y="-279.17" font-family="FreeSans" font-size="10.00"> tempDrawables_</text>
</g>
<!-- Node21 -->
<g id="node44" class="node"><title>Node21</title>
<a xlink:href="class_urho3_d_1_1_camera.html" target="_top" xlink:title="Camera component.">
<polygon fill="none" stroke="red" points="259,-200.67 259,-221.67 357,-221.67 357,-200.67 259,-200.67"/>
<text text-anchor="middle" x="308" y="-208.67" font-family="FreeSans" font-size="10.00">Urho3D::Camera</text>
</a>
</g>
<!-- Node21&#45;&gt;Node1 -->
<g id="edge48" class="edge"><title>Node21&#45;&gt;Node1</title>
<path fill="none" stroke="#9a32cd" stroke-dasharray="5,2" d="M367.328,-205.428C429.675,-200.784 522.226,-198.285 548,-221.17 575.48,-245.569 601.008,-518.384 606.087,-575.66"/>
<polygon fill="#9a32cd" stroke="#9a32cd" points="366.91,-201.95 357.213,-206.219 367.456,-208.929 366.91,-201.95"/>
<text text-anchor="middle" x="488" y="-225.17" font-family="FreeSans" font-size="10.00"> camera_</text>
</g>
<!-- Node22 -->
<g id="node47" class="node"><title>Node22</title>
<a xlink:href="class_urho3_d_1_1_vector.html" target="_top" xlink:title="Urho3D::Vector\&lt; Urho3D\l::LightQueryResult \&gt;">
<polygon fill="none" stroke="red" points="239,-148.17 239,-182.17 377,-182.17 377,-148.17 239,-148.17"/>
<text text-anchor="start" x="247" y="-169.17" font-family="FreeSans" font-size="10.00">Urho3D::Vector&lt; Urho3D</text>
<text text-anchor="middle" x="308" y="-156.17" font-family="FreeSans" font-size="10.00">::LightQueryResult &gt;</text>
</a>
</g>
<!-- Node22&#45;&gt;Node1 -->
<g id="edge52" class="edge"><title>Node22&#45;&gt;Node1</title>
<path fill="none" stroke="#9a32cd" stroke-dasharray="5,2" d="M387.08,-149.22C439.441,-143.567 505.966,-146.552 548,-186.17 577.372,-213.854 601.59,-514.669 606.207,-575.487"/>
<polygon fill="#9a32cd" stroke="#9a32cd" points="386.655,-145.746 377.143,-150.414 387.489,-152.696 386.655,-145.746"/>
<text text-anchor="middle" x="488" y="-190.17" font-family="FreeSans" font-size="10.00"> lightQueryResults_</text>
</g>
<!-- Node23 -->
<g id="node49" class="node"><title>Node23</title>
<a xlink:href="class_urho3_d_1_1_render_path.html" target="_top" xlink:title="Rendering path definition.">
<polygon fill="none" stroke="red" points="251.5,-108.67 251.5,-129.67 364.5,-129.67 364.5,-108.67 251.5,-108.67"/>
<text text-anchor="middle" x="308" y="-116.67" font-family="FreeSans" font-size="10.00">Urho3D::RenderPath</text>
</a>
</g>
<!-- Node23&#45;&gt;Node1 -->
<g id="edge54" class="edge"><title>Node23&#45;&gt;Node1</title>
<path fill="none" stroke="#9a32cd" stroke-dasharray="5,2" d="M374.863,-113.031C437.033,-108.907 523.616,-107.727 548,-130.17 581.993,-161.457 602.754,-509.054 606.416,-575.299"/>
<polygon fill="#9a32cd" stroke="#9a32cd" points="374.452,-109.551 364.721,-113.744 374.942,-116.534 374.452,-109.551"/>
<text text-anchor="middle" x="488" y="-134.17" font-family="FreeSans" font-size="10.00"> renderPath_</text>
</g>
<!-- Node24 -->
<g id="node52" class="node"><title>Node24</title>
<a xlink:href="class_urho3_d_1_1_vector.html" target="_top" xlink:title="Urho3D::Vector\&lt; Urho3D\l::LightBatchQueue \&gt;">
<polygon fill="none" stroke="red" points="239,-56.1697 239,-90.1697 377,-90.1697 377,-56.1697 239,-56.1697"/>
<text text-anchor="start" x="247" y="-77.1697" font-family="FreeSans" font-size="10.00">Urho3D::Vector&lt; Urho3D</text>
<text text-anchor="middle" x="308" y="-64.1697" font-family="FreeSans" font-size="10.00">::LightBatchQueue &gt;</text>
</a>
</g>
<!-- Node24&#45;&gt;Node1 -->
<g id="edge58" class="edge"><title>Node24&#45;&gt;Node1</title>
<path fill="none" stroke="#9a32cd" stroke-dasharray="5,2" d="M387.156,-56.8901C439.712,-51.036 506.436,-53.9181 548,-94.1697 583.921,-128.956 603.26,-506.374 606.508,-575.373"/>
<polygon fill="#9a32cd" stroke="#9a32cd" points="386.677,-53.4227 377.182,-58.1232 387.536,-60.3698 386.677,-53.4227"/>
<text text-anchor="middle" x="488" y="-98.1697" font-family="FreeSans" font-size="10.00"> lightQueues_</text>
</g>
<!-- Node25 -->
<g id="node54" class="node"><title>Node25</title>
<a xlink:href="class_urho3_d_1_1_vector.html" target="_top" xlink:title="Urho3D::Vector\&lt; Urho3D\l::PerThreadSceneResult \&gt;">
<polygon fill="none" stroke="red" points="237.5,-4.16973 237.5,-38.1697 378.5,-38.1697 378.5,-4.16973 237.5,-4.16973"/>
<text text-anchor="start" x="245.5" y="-25.1697" font-family="FreeSans" font-size="10.00">Urho3D::Vector&lt; Urho3D</text>
<text text-anchor="middle" x="308" y="-12.1697" font-family="FreeSans" font-size="10.00">::PerThreadSceneResult &gt;</text>
</a>
</g>
<!-- Node25&#45;&gt;Node1 -->
<g id="edge60" class="edge"><title>Node25&#45;&gt;Node1</title>
<path fill="none" stroke="#9a32cd" stroke-dasharray="5,2" d="M388.475,-3.05053C440.811,3.6302 506.754,1.59593 548,-38.1697 588.299,-77.0224 604.221,-502.707 606.661,-575.585"/>
<polygon fill="#9a32cd" stroke="#9a32cd" points="387.954,0.410672 378.536,-4.44307 388.925,-6.52162 387.954,0.410672"/>
<text text-anchor="middle" x="488" y="-42.1697" font-family="FreeSans" font-size="10.00"> sceneResults_</text>
</g>
</g>
</svg>
