<?xml version="1.0" encoding="UTF-8" standalone="no"?>
<!DOCTYPE svg PUBLIC "-//W3C//DTD SVG 1.1//EN"
 "http://www.w3.org/Graphics/SVG/1.1/DTD/svg11.dtd">
<!-- Generated by graphviz version 2.26.3 (20100126.1600)
 -->
<!-- Title: Urho3D::MessageBox Pages: 1 -->
<!--zoomable 1089 -->
<svg id="main" version="1.1" xmlns="http://www.w3.org/2000/svg" xmlns:xlink="http://www.w3.org/1999/xlink" xml:space="preserve" onload="init(evt)">
        <defs>
                <circle id="rim" cx="0" cy="0" r="7"/>
                <circle id="rim2" cx="0" cy="0" r="3.5"/>
                <g id="zoomPlus">
                        <use xlink:href="#rim" fill="#404040">
                                <set attributeName="fill" to="#808080" begin="zoomplus.mouseover" end="zoomplus.mouseout"/>
                        </use>
                        <path d="M-4,0h8M0,-4v8" fill="none" stroke="white" stroke-width="1.5" pointer-events="none"/>
                </g>
                <g id="zoomMin">
                        <use xlink:href="#rim" fill="#404040">
                                <set attributeName="fill" to="#808080" begin="zoomminus.mouseover" end="zoomminus.mouseout"/>
                        </use>
                        <path d="M-4,0h8" fill="none" stroke="white" stroke-width="1.5" pointer-events="none"/>
                </g>
                <g id="dirArrow">
                        <path fill="none" stroke="white" stroke-width="1.5" d="M0,-3.0v7 M-2.5,-0.5L0,-3.0L2.5,-0.5"/>
                </g>
               <g id="resetDef">
                       <use xlink:href="#rim2" fill="#404040">
                               <set attributeName="fill" to="#808080" begin="reset.mouseover" end="reset.mouseout"/>
                       </use>
               </g>
        </defs>

<script type="text/javascript">
var viewWidth = 1388;
var viewHeight = 1089;
var sectionId = 'dynsection-1';
</script>
<script xlink:href="svgpan.js"/>
<svg id="graph" class="graph">
<g id="viewport">
<title>Urho3D::MessageBox</title>
<!-- Node1 -->
<g id="node1" class="node"><title>Node1</title>
<polygon fill="#bfbfbf" stroke="black" points="1247,-261.641 1247,-282.641 1367,-282.641 1367,-261.641 1247,-261.641"/>
<text text-anchor="middle" x="1307" y="-269.641" font-family="FreeSans" font-size="10.00">Urho3D::MessageBox</text>
</g>
<!-- Node2 -->
<g id="node2" class="node"><title>Node2</title>
<a xlink:href="class_urho3_d_1_1_object.html" target="_top" xlink:title="Base class for objects with type identification, subsystem access and event sending/receiving capabil...">
<polygon fill="none" stroke="black" points="624,-953.641 624,-974.641 714,-974.641 714,-953.641 624,-953.641"/>
<text text-anchor="middle" x="669" y="-961.641" font-family="FreeSans" font-size="10.00">Urho3D::Object</text>
</a>
</g>
<!-- Node2&#45;&gt;Node1 -->
<g id="edge2" class="edge"><title>Node2&#45;&gt;Node1</title>
<path fill="none" stroke="midnightblue" d="M682.088,-945.057C714.929,-897.631 804.337,-771.314 890,-675.141 1038.66,-508.24 1243.08,-327.746 1294.75,-282.746"/>
<polygon fill="midnightblue" stroke="midnightblue" points="679.09,-943.239 676.292,-953.458 684.852,-947.215 679.09,-943.239"/>
</g>
<!-- Node7 -->
<g id="node13" class="node"><title>Node7</title>
<a xlink:href="class_urho3_d_1_1_event_handler.html" target="_top" xlink:title="Internal helper class for invoking event handler functions.">
<polygon fill="none" stroke="red" points="924,-995.641 924,-1016.64 1048,-1016.64 1048,-995.641 924,-995.641"/>
<text text-anchor="middle" x="986" y="-1003.64" font-family="FreeSans" font-size="10.00">Urho3D::EventHandler</text>
</a>
</g>
<!-- Node2&#45;&gt;Node7 -->
<g id="edge16" class="edge"><title>Node2&#45;&gt;Node7</title>
<path fill="none" stroke="#9a32cd" stroke-dasharray="5,2" d="M724.076,-974.325C732.089,-975.683 740.249,-976.999 748,-978.141 807.477,-986.902 875.638,-994.694 923.731,-999.819"/>
<polygon fill="#9a32cd" stroke="#9a32cd" points="724.495,-970.845 714.045,-972.591 723.303,-977.743 724.495,-970.845"/>
<text text-anchor="middle" x="810" y="-1010.14" font-family="FreeSans" font-size="10.00"> sender_</text>
<text text-anchor="middle" x="810" y="-997.141" font-family="FreeSans" font-size="10.00">receiver_</text>
</g>
<!-- Node3 -->
<g id="node4" class="node"><title>Node3</title>
<a xlink:href="class_urho3_d_1_1_ref_counted.html" target="_top" xlink:title="Base class for intrusively reference&#45;counted objects. These are noncopyable and non&#45;assignable.">
<polygon fill="none" stroke="black" points="300,-641.641 300,-662.641 414,-662.641 414,-641.641 300,-641.641"/>
<text text-anchor="middle" x="357" y="-649.641" font-family="FreeSans" font-size="10.00">Urho3D::RefCounted</text>
</a>
</g>
<!-- Node3&#45;&gt;Node2 -->
<g id="edge4" class="edge"><title>Node3&#45;&gt;Node2</title>
<path fill="none" stroke="midnightblue" d="M375.07,-670.211C432.936,-728.077 612.546,-907.686 658.305,-953.446"/>
<polygon fill="midnightblue" stroke="midnightblue" points="377.286,-667.477 367.74,-662.881 372.336,-672.427 377.286,-667.477"/>
</g>
<!-- Node5 -->
<g id="node8" class="node"><title>Node5</title>
<a xlink:href="class_urho3_d_1_1_context.html" target="_top" xlink:title="Urho3D execution context. Provides access to subsystems, object factories and attributes, and event receivers.">
<polygon fill="none" stroke="red" points="1258.5,-841.641 1258.5,-862.641 1355.5,-862.641 1355.5,-841.641 1258.5,-841.641"/>
<text text-anchor="middle" x="1307" y="-849.641" font-family="FreeSans" font-size="10.00">Urho3D::Context</text>
</a>
</g>
<!-- Node3&#45;&gt;Node5 -->
<g id="edge10" class="edge"><title>Node3&#45;&gt;Node5</title>
<path fill="none" stroke="midnightblue" d="M424.223,-644.941C553.798,-633.093 846.164,-616.255 1082,-675.141 1146.41,-691.223 1164,-699.87 1216,-741.141 1254.06,-771.349 1286.94,-819.941 1300.45,-841.383"/>
<polygon fill="midnightblue" stroke="midnightblue" points="423.689,-641.475 414.058,-645.891 424.341,-648.445 423.689,-641.475"/>
</g>
<!-- Node4 -->
<g id="node6" class="node"><title>Node4</title>
<a xlink:href="struct_urho3_d_1_1_ref_count.html" target="_top" xlink:title="Reference count structure.">
<polygon fill="none" stroke="black" points="20,-576.641 20,-597.641 122,-597.641 122,-576.641 20,-576.641"/>
<text text-anchor="middle" x="71" y="-584.641" font-family="FreeSans" font-size="10.00">Urho3D::RefCount</text>
</a>
</g>
<!-- Node4&#45;&gt;Node3 -->
<g id="edge6" class="edge"><title>Node4&#45;&gt;Node3</title>
<path fill="none" stroke="#9a32cd" stroke-dasharray="5,2" d="M119.567,-600.43C155.014,-609.898 204.302,-622.588 248,-632.141 264.728,-635.798 282.999,-639.329 299.719,-642.38"/>
<polygon fill="#9a32cd" stroke="#9a32cd" points="120.059,-596.938 109.494,-597.726 118.245,-603.699 120.059,-596.938"/>
<text text-anchor="middle" x="195" y="-632.141" font-family="FreeSans" font-size="10.00"> refCount_</text>
</g>
<!-- Node21 -->
<g id="node51" class="node"><title>Node21</title>
<a xlink:href="class_urho3_d_1_1_weak_ptr.html" target="_top" xlink:title="Urho3D::WeakPtr\&lt; Urho3D\l::FontFace \&gt;">
<polygon fill="none" stroke="red" points="284,-537.141 284,-571.141 430,-571.141 430,-537.141 284,-537.141"/>
<text text-anchor="start" x="292" y="-558.141" font-family="FreeSans" font-size="10.00">Urho3D::WeakPtr&lt; Urho3D</text>
<text text-anchor="middle" x="357" y="-545.141" font-family="FreeSans" font-size="10.00">::FontFace &gt;</text>
</a>
</g>
<!-- Node4&#45;&gt;Node21 -->
<g id="edge64" class="edge"><title>Node4&#45;&gt;Node21</title>
<path fill="none" stroke="#9a32cd" stroke-dasharray="5,2" d="M132.2,-580.079C176.581,-574.958 236.801,-568.01 283.742,-562.594"/>
<polygon fill="#9a32cd" stroke="#9a32cd" points="131.664,-576.618 122.131,-581.241 132.466,-583.572 131.664,-576.618"/>
<text text-anchor="middle" x="195" y="-581.141" font-family="FreeSans" font-size="10.00"> refCount_</text>
</g>
<!-- Node5&#45;&gt;Node2 -->
<g id="edge8" class="edge"><title>Node5&#45;&gt;Node2</title>
<path fill="none" stroke="#9a32cd" stroke-dasharray="5,2" d="M1283.74,-868.684C1265.94,-880.644 1240.39,-896.357 1216,-906.141 1040.95,-976.353 810.428,-972.751 714.214,-967.438"/>
<polygon fill="#9a32cd" stroke="#9a32cd" points="1286.02,-871.364 1292.29,-862.824 1282.06,-865.59 1286.02,-871.364"/>
<text text-anchor="middle" x="986" y="-971.141" font-family="FreeSans" font-size="10.00"> context_</text>
</g>
<!-- Node6 -->
<g id="node11" class="node"><title>Node6</title>
<a xlink:href="class_urho3_d_1_1_p_o_d_vector.html" target="_top" xlink:title="Urho3D::PODVector\&lt;\l Urho3D::Object * \&gt;">
<polygon fill="none" stroke="red" points="926.5,-894.141 926.5,-928.141 1045.5,-928.141 1045.5,-894.141 926.5,-894.141"/>
<text text-anchor="start" x="934.5" y="-915.141" font-family="FreeSans" font-size="10.00">Urho3D::PODVector&lt;</text>
<text text-anchor="middle" x="986" y="-902.141" font-family="FreeSans" font-size="10.00"> Urho3D::Object * &gt;</text>
</a>
</g>
<!-- Node6&#45;&gt;Node5 -->
<g id="edge12" class="edge"><title>Node6&#45;&gt;Node5</title>
<path fill="none" stroke="#9a32cd" stroke-dasharray="5,2" d="M1055.66,-898.497C1101.28,-890.197 1162.19,-879.08 1216,-869.141 1229.75,-866.601 1244.66,-863.824 1258.36,-861.265"/>
<polygon fill="#9a32cd" stroke="#9a32cd" points="1054.79,-895.096 1045.58,-900.329 1056.05,-901.983 1054.79,-895.096"/>
<text text-anchor="middle" x="1158" y="-893.141" font-family="FreeSans" font-size="10.00"> eventSenders_</text>
</g>
<!-- Node7&#45;&gt;Node5 -->
<g id="edge14" class="edge"><title>Node7&#45;&gt;Node5</title>
<path fill="none" stroke="#9a32cd" stroke-dasharray="5,2" d="M1058.27,-1002.51C1115.5,-998.518 1189.99,-990.518 1216,-975.141 1261.96,-947.97 1291.85,-887.64 1302.57,-862.971"/>
<polygon fill="#9a32cd" stroke="#9a32cd" points="1057.91,-999.023 1048.16,-1003.18 1058.37,-1006.01 1057.91,-999.023"/>
<text text-anchor="middle" x="1158" y="-1002.14" font-family="FreeSans" font-size="10.00"> eventHandler_</text>
</g>
<!-- Node11 -->
<g id="node22" class="node"><title>Node11</title>
<a xlink:href="class_urho3_d_1_1_linked_list.html" target="_top" xlink:title="Urho3D::LinkedList\l\&lt; Urho3D::EventHandler \&gt;">
<polygon fill="none" stroke="black" points="1234,-1030.14 1234,-1064.14 1380,-1064.14 1380,-1030.14 1234,-1030.14"/>
<text text-anchor="start" x="1242" y="-1051.14" font-family="FreeSans" font-size="10.00">Urho3D::LinkedList</text>
<text text-anchor="middle" x="1307" y="-1038.14" font-family="FreeSans" font-size="10.00">&lt; Urho3D::EventHandler &gt;</text>
</a>
</g>
<!-- Node7&#45;&gt;Node11 -->
<g id="edge26" class="edge"><title>Node7&#45;&gt;Node11</title>
<path fill="none" stroke="#9a32cd" stroke-dasharray="5,2" d="M1058.07,-1014.53C1103.42,-1019.9 1163.17,-1027.15 1216,-1034.14 1221.7,-1034.89 1227.59,-1035.69 1233.51,-1036.51"/>
<polygon fill="#9a32cd" stroke="#9a32cd" points="1058.37,-1011.04 1048.03,-1013.34 1057.55,-1017.99 1058.37,-1011.04"/>
<text text-anchor="middle" x="1158" y="-1038.14" font-family="FreeSans" font-size="10.00"> head_</text>
</g>
<!-- Node8 -->
<g id="node16" class="node"><title>Node8</title>
<a xlink:href="class_urho3_d_1_1_hash_map.html" target="_top" xlink:title="Urho3D::HashMap\&lt; Urho3D\l::StringHash, Urho3D::\lHashSet\&lt; Urho3D::Object * \&gt; \&gt;">
<polygon fill="none" stroke="red" points="899.5,-828.641 899.5,-875.641 1072.5,-875.641 1072.5,-828.641 899.5,-828.641"/>
<text text-anchor="start" x="907.5" y="-862.641" font-family="FreeSans" font-size="10.00">Urho3D::HashMap&lt; Urho3D</text>
<text text-anchor="start" x="907.5" y="-849.641" font-family="FreeSans" font-size="10.00">::StringHash, Urho3D::</text>
<text text-anchor="middle" x="986" y="-836.641" font-family="FreeSans" font-size="10.00">HashSet&lt; Urho3D::Object * &gt; &gt;</text>
</a>
</g>
<!-- Node8&#45;&gt;Node5 -->
<g id="edge18" class="edge"><title>Node8&#45;&gt;Node5</title>
<path fill="none" stroke="#9a32cd" stroke-dasharray="5,2" d="M1083.15,-852.141C1141.09,-852.141 1212.15,-852.141 1258.44,-852.141"/>
<polygon fill="#9a32cd" stroke="#9a32cd" points="1082.87,-848.641 1072.87,-852.141 1082.87,-855.641 1082.87,-848.641"/>
<text text-anchor="middle" x="1158" y="-856.141" font-family="FreeSans" font-size="10.00"> eventReceivers_</text>
</g>
<!-- Node9 -->
<g id="node18" class="node"><title>Node9</title>
<a xlink:href="class_urho3_d_1_1_hash_map.html" target="_top" xlink:title="Urho3D::HashMap\&lt; Urho3D\l::Object *, Urho3D::HashMap\l\&lt; Urho3D::StringHash, Urho3D\l::HashSet\&lt; Urho3D::Object * \&gt; \&gt; \&gt;">
<polygon fill="none" stroke="red" points="890.5,-750.141 890.5,-810.141 1081.5,-810.141 1081.5,-750.141 890.5,-750.141"/>
<text text-anchor="start" x="898.5" y="-797.141" font-family="FreeSans" font-size="10.00">Urho3D::HashMap&lt; Urho3D</text>
<text text-anchor="start" x="898.5" y="-784.141" font-family="FreeSans" font-size="10.00">::Object *, Urho3D::HashMap</text>
<text text-anchor="start" x="898.5" y="-771.141" font-family="FreeSans" font-size="10.00">&lt; Urho3D::StringHash, Urho3D</text>
<text text-anchor="middle" x="986" y="-758.141" font-family="FreeSans" font-size="10.00">::HashSet&lt; Urho3D::Object * &gt; &gt; &gt;</text>
</a>
</g>
<!-- Node9&#45;&gt;Node5 -->
<g id="edge20" class="edge"><title>Node9&#45;&gt;Node5</title>
<path fill="none" stroke="#9a32cd" stroke-dasharray="5,2" d="M1091.98,-803.913C1148.77,-816.649 1215.88,-831.702 1259.83,-841.561"/>
<polygon fill="#9a32cd" stroke="#9a32cd" points="1092.4,-800.419 1081.88,-801.646 1090.87,-807.249 1092.4,-800.419"/>
<text text-anchor="middle" x="1158" y="-834.141" font-family="FreeSans" font-size="10.00"> specificEventReceivers_</text>
</g>
<!-- Node10 -->
<g id="node20" class="node"><title>Node10</title>
<a xlink:href="class_urho3_d_1_1_hash_map.html" target="_top" xlink:title="Urho3D::HashMap\&lt; Urho3D\l::StringHash, Urho3D::\lSharedPtr\&lt; Urho3D::Object \&gt; \&gt;">
<polygon fill="none" stroke="red" points="900,-684.641 900,-731.641 1072,-731.641 1072,-684.641 900,-684.641"/>
<text text-anchor="start" x="908" y="-718.641" font-family="FreeSans" font-size="10.00">Urho3D::HashMap&lt; Urho3D</text>
<text text-anchor="start" x="908" y="-705.641" font-family="FreeSans" font-size="10.00">::StringHash, Urho3D::</text>
<text text-anchor="middle" x="986" y="-692.641" font-family="FreeSans" font-size="10.00">SharedPtr&lt; Urho3D::Object &gt; &gt;</text>
</a>
</g>
<!-- Node10&#45;&gt;Node5 -->
<g id="edge22" class="edge"><title>Node10&#45;&gt;Node5</title>
<path fill="none" stroke="#9a32cd" stroke-dasharray="5,2" d="M1076.29,-734.796C1119.63,-749.07 1171.66,-768.405 1216,-791.141 1245.11,-806.068 1276.18,-828.473 1293.44,-841.569"/>
<polygon fill="#9a32cd" stroke="#9a32cd" points="1077.2,-731.413 1066.61,-731.645 1075.03,-738.069 1077.2,-731.413"/>
<text text-anchor="middle" x="1158" y="-795.141" font-family="FreeSans" font-size="10.00"> subsystems_</text>
</g>
<!-- Node11&#45;&gt;Node2 -->
<g id="edge24" class="edge"><title>Node11&#45;&gt;Node2</title>
<path fill="none" stroke="#9a32cd" stroke-dasharray="5,2" d="M1223.4,-1059.08C1111.3,-1071.66 907.879,-1082.37 748,-1023.14 719.748,-1012.68 693.003,-988.713 679.046,-974.759"/>
<polygon fill="#9a32cd" stroke="#9a32cd" points="1224.1,-1062.52 1233.63,-1057.89 1223.29,-1055.57 1224.1,-1062.52"/>
<text text-anchor="middle" x="986" y="-1072.14" font-family="FreeSans" font-size="10.00"> eventHandlers_</text>
</g>
<!-- Node12 -->
<g id="node25" class="node"><title>Node12</title>
<a xlink:href="class_urho3_d_1_1_button.html" target="_top" xlink:title="Push button UI element.">
<polygon fill="none" stroke="black" points="940,-46.6408 940,-67.6408 1032,-67.6408 1032,-46.6408 940,-46.6408"/>
<text text-anchor="middle" x="986" y="-54.6408" font-family="FreeSans" font-size="10.00">Urho3D::Button</text>
</a>
</g>
<!-- Node12&#45;&gt;Node1 -->
<g id="edge28" class="edge"><title>Node12&#45;&gt;Node1</title>
<path fill="none" stroke="#9a32cd" stroke-dasharray="5,2" d="M1019.39,-71.8871C1065.72,-93.1138 1151.11,-135.057 1216,-183.141 1249.2,-207.744 1282.45,-243.893 1297.97,-261.591"/>
<polygon fill="#9a32cd" stroke="#9a32cd" points="1020.67,-68.6248 1010.12,-67.6772 1017.78,-74.9985 1020.67,-68.6248"/>
<text text-anchor="middle" x="1158" y="-187.141" font-family="FreeSans" font-size="10.00"> okButton_</text>
</g>
<!-- Node13 -->
<g id="node27" class="node"><title>Node13</title>
<a xlink:href="class_urho3_d_1_1_border_image.html" target="_top" xlink:title="Image UI element with optional border.">
<polygon fill="none" stroke="red" points="608,-46.6408 608,-67.6408 730,-67.6408 730,-46.6408 608,-46.6408"/>
<text text-anchor="middle" x="669" y="-54.6408" font-family="FreeSans" font-size="10.00">Urho3D::BorderImage</text>
</a>
</g>
<!-- Node13&#45;&gt;Node12 -->
<g id="edge30" class="edge"><title>Node13&#45;&gt;Node12</title>
<path fill="none" stroke="midnightblue" d="M740.46,-57.1408C801.545,-57.1408 887.631,-57.1408 939.969,-57.1408"/>
<polygon fill="midnightblue" stroke="midnightblue" points="740.121,-53.6409 730.121,-57.1408 740.121,-60.6409 740.121,-53.6409"/>
</g>
<!-- Node14 -->
<g id="node29" class="node"><title>Node14</title>
<a xlink:href="class_urho3_d_1_1_u_i_element.html" target="_top" xlink:title="Base class for UI elements.">
<polygon fill="none" stroke="red" points="302.5,-121.641 302.5,-142.641 411.5,-142.641 411.5,-121.641 302.5,-121.641"/>
<text text-anchor="middle" x="357" y="-129.641" font-family="FreeSans" font-size="10.00">Urho3D::UIElement</text>
</a>
</g>
<!-- Node14&#45;&gt;Node13 -->
<g id="edge32" class="edge"><title>Node14&#45;&gt;Node13</title>
<path fill="none" stroke="midnightblue" d="M410.475,-119.286C471.081,-104.717 568.743,-81.2411 625.082,-67.698"/>
<polygon fill="midnightblue" stroke="midnightblue" points="409.616,-115.893 400.711,-121.633 411.252,-122.699 409.616,-115.893"/>
</g>
<!-- Node14&#45;&gt;Node14 -->
<g id="edge34" class="edge"><title>Node14&#45;&gt;Node14</title>
<path fill="none" stroke="#9a32cd" stroke-dasharray="5,2" d="M326.987,-152.196C328.955,-157.305 338.96,-161.141 357,-161.141 385.16,-161.141 393.74,-151.794 382.74,-142.849"/>
<polygon fill="#9a32cd" stroke="#9a32cd" points="330.285,-153.399 331.26,-142.849 323.919,-150.488 330.285,-153.399"/>
<text text-anchor="middle" x="357" y="-165.141" font-family="FreeSans" font-size="10.00"> parent_</text>
</g>
<!-- Node18 -->
<g id="node43" class="node"><title>Node18</title>
<a xlink:href="class_urho3_d_1_1_shared_ptr.html" target="_top" xlink:title="Urho3D::SharedPtr\&lt;\l Urho3D::UIElement \&gt;">
<polygon fill="none" stroke="black" points="748.5,-155.141 748.5,-189.141 871.5,-189.141 871.5,-155.141 748.5,-155.141"/>
<text text-anchor="start" x="756.5" y="-176.141" font-family="FreeSans" font-size="10.00">Urho3D::SharedPtr&lt;</text>
<text text-anchor="middle" x="810" y="-163.141" font-family="FreeSans" font-size="10.00"> Urho3D::UIElement &gt;</text>
</a>
</g>
<!-- Node14&#45;&gt;Node18 -->
<g id="edge54" class="edge"><title>Node14&#45;&gt;Node18</title>
<path fill="none" stroke="#9a32cd" stroke-dasharray="5,2" d="M421.711,-133.311C468.527,-134.549 533.268,-137.066 590,-142.141 643.561,-146.932 704.075,-155.409 748.061,-162.133"/>
<polygon fill="#9a32cd" stroke="#9a32cd" points="421.79,-129.812 411.705,-133.059 421.613,-136.81 421.79,-129.812"/>
<text text-anchor="middle" x="537" y="-146.141" font-family="FreeSans" font-size="10.00"> ptr_</text>
</g>
<!-- Node19 -->
<g id="node46" class="node"><title>Node19</title>
<a xlink:href="class_urho3_d_1_1_text.html" target="_top" xlink:title="Text UI element.">
<polygon fill="none" stroke="black" points="630,-343.641 630,-364.641 708,-364.641 708,-343.641 630,-343.641"/>
<text text-anchor="middle" x="669" y="-351.641" font-family="FreeSans" font-size="10.00">Urho3D::Text</text>
</a>
</g>
<!-- Node14&#45;&gt;Node19 -->
<g id="edge58" class="edge"><title>Node14&#45;&gt;Node19</title>
<path fill="none" stroke="midnightblue" d="M421.65,-143.774C481.282,-155.574 564.335,-175.062 590,-196.141 639.058,-236.433 660.432,-314.869 666.817,-343.42"/>
<polygon fill="midnightblue" stroke="midnightblue" points="422.036,-140.283 411.551,-141.804 420.696,-147.154 422.036,-140.283"/>
</g>
<!-- Node15 -->
<g id="node32" class="node"><title>Node15</title>
<a xlink:href="class_urho3_d_1_1_string.html" target="_top" xlink:title="String class.">
<polygon fill="none" stroke="black" points="27,-178.641 27,-199.641 115,-199.641 115,-178.641 27,-178.641"/>
<text text-anchor="middle" x="71" y="-186.641" font-family="FreeSans" font-size="10.00">Urho3D::String</text>
</a>
</g>
<!-- Node15&#45;&gt;Node14 -->
<g id="edge36" class="edge"><title>Node15&#45;&gt;Node14</title>
<path fill="none" stroke="#9a32cd" stroke-dasharray="5,2" d="M125.23,-177.385C136.702,-174.948 148.743,-172.428 160,-170.141 207.959,-160.397 262.614,-149.903 302.17,-142.416"/>
<polygon fill="#9a32cd" stroke="#9a32cd" points="124.378,-173.988 115.329,-179.497 125.839,-180.834 124.378,-173.988"/>
<text text-anchor="middle" x="195" y="-187.141" font-family="FreeSans" font-size="10.00"> appliedStyle_</text>
<text text-anchor="middle" x="195" y="-174.141" font-family="FreeSans" font-size="10.00">name_</text>
</g>
<!-- Node15&#45;&gt;Node15 -->
<g id="edge38" class="edge"><title>Node15&#45;&gt;Node15</title>
<path fill="none" stroke="#9a32cd" stroke-dasharray="5,2" d="M48.1481,-209.567C49.911,-214.49 57.5283,-218.141 71,-218.141 92.5547,-218.141 99.1221,-208.794 90.7023,-199.849"/>
<polygon fill="#9a32cd" stroke="#9a32cd" points="51.5443,-210.441 51.2977,-199.849 44.8852,-208.283 51.5443,-210.441"/>
<text text-anchor="middle" x="71" y="-222.141" font-family="FreeSans" font-size="10.00"> EMPTY</text>
</g>
<!-- Node15&#45;&gt;Node19 -->
<g id="edge70" class="edge"><title>Node15&#45;&gt;Node19</title>
<path fill="none" stroke="#9a32cd" stroke-dasharray="5,2" d="M125.611,-193.466C136.976,-194.358 148.878,-195.285 160,-196.141 295.982,-206.599 332.969,-189.088 466,-219.141 523.643,-232.163 541.274,-233.702 590,-267.141 621.625,-288.844 649.406,-325.59 661.933,-343.58"/>
<polygon fill="#9a32cd" stroke="#9a32cd" points="125.606,-189.955 115.362,-192.66 125.057,-196.933 125.606,-189.955"/>
<text text-anchor="middle" x="357" y="-236.141" font-family="FreeSans" font-size="10.00"> stringId_</text>
<text text-anchor="middle" x="357" y="-223.141" font-family="FreeSans" font-size="10.00">text_</text>
</g>
<!-- Node16 -->
<g id="node35" class="node"><title>Node16</title>
<a xlink:href="class_urho3_d_1_1_int_vector2.html" target="_top" xlink:title="Two&#45;dimensional vector with integer values.">
<polygon fill="none" stroke="black" points="17,-11.6408 17,-32.6408 125,-32.6408 125,-11.6408 17,-11.6408"/>
<text text-anchor="middle" x="71" y="-19.6408" font-family="FreeSans" font-size="10.00">Urho3D::IntVector2</text>
</a>
</g>
<!-- Node16&#45;&gt;Node12 -->
<g id="edge50" class="edge"><title>Node16&#45;&gt;Node12</title>
<path fill="none" stroke="#9a32cd" stroke-dasharray="5,2" d="M135.284,-15.7371C233.418,-6.90483 426.441,6.75588 590,-4.14081 717.346,-12.6248 866.206,-36.293 939.867,-48.9352"/>
<polygon fill="#9a32cd" stroke="#9a32cd" points="134.868,-12.2605 125.228,-16.6554 135.505,-19.2315 134.868,-12.2605"/>
<text text-anchor="start" x="490" y="-34.1408" font-family="FreeSans" font-size="10.00"> pressedChildOffset</text>
<text text-anchor="middle" x="537" y="-21.1408" font-family="FreeSans" font-size="10.00">_</text>
<text text-anchor="middle" x="537" y="-8.14081" font-family="FreeSans" font-size="10.00">pressedOffset_</text>
</g>
<!-- Node16&#45;&gt;Node13 -->
<g id="edge48" class="edge"><title>Node16&#45;&gt;Node13</title>
<path fill="none" stroke="#9a32cd" stroke-dasharray="5,2" d="M135.276,-25.9028C251.315,-32.6943 494.268,-46.914 607.926,-53.5662"/>
<polygon fill="#9a32cd" stroke="#9a32cd" points="135.311,-22.3989 125.123,-25.3086 134.902,-29.3869 135.311,-22.3989"/>
<text text-anchor="middle" x="357" y="-49.1408" font-family="FreeSans" font-size="10.00"> hoverOffset_</text>
</g>
<!-- Node16&#45;&gt;Node14 -->
<g id="edge40" class="edge"><title>Node16&#45;&gt;Node14</title>
<path fill="none" stroke="#9a32cd" stroke-dasharray="5,2" d="M134.808,-34.8245C164.311,-41.6391 199.495,-51.1324 230,-63.1408 271.794,-79.5934 317.233,-106.773 340.786,-121.634"/>
<polygon fill="#9a32cd" stroke="#9a32cd" points="135.561,-31.4064 125.035,-32.6164 134.018,-38.2343 135.561,-31.4064"/>
<text text-anchor="middle" x="195" y="-145.141" font-family="FreeSans" font-size="10.00"> maxSize_</text>
<text text-anchor="middle" x="195" y="-132.141" font-family="FreeSans" font-size="10.00">childOffset_</text>
<text text-anchor="middle" x="195" y="-119.141" font-family="FreeSans" font-size="10.00">size_</text>
<text text-anchor="middle" x="195" y="-106.141" font-family="FreeSans" font-size="10.00">position_</text>
<text text-anchor="start" x="160" y="-93.1408" font-family="FreeSans" font-size="10.00">screenPosition</text>
<text text-anchor="middle" x="195" y="-80.1408" font-family="FreeSans" font-size="10.00">_</text>
<text text-anchor="middle" x="195" y="-67.1408" font-family="FreeSans" font-size="10.00">minSize_</text>
</g>
<!-- Node16&#45;&gt;Node16 -->
<g id="edge42" class="edge"><title>Node16&#45;&gt;Node16</title>
<path fill="none" stroke="#9a32cd" stroke-dasharray="5,2" d="M48.1481,-42.5674C49.911,-47.4897 57.5283,-51.1408 71,-51.1408 92.5547,-51.1408 99.1221,-41.7939 90.7023,-32.8487"/>
<polygon fill="#9a32cd" stroke="#9a32cd" points="51.5443,-43.4406 51.2977,-32.8487 44.8852,-41.2826 51.5443,-43.4406"/>
<text text-anchor="middle" x="71" y="-55.1408" font-family="FreeSans" font-size="10.00"> ZERO</text>
</g>
<!-- Node17 -->
<g id="node38" class="node"><title>Node17</title>
<a xlink:href="class_urho3_d_1_1_color.html" target="_top" xlink:title="RGBA color.">
<polygon fill="none" stroke="black" points="29,-321.641 29,-342.641 113,-342.641 113,-321.641 29,-321.641"/>
<text text-anchor="middle" x="71" y="-329.641" font-family="FreeSans" font-size="10.00">Urho3D::Color</text>
</a>
</g>
<!-- Node17&#45;&gt;Node14 -->
<g id="edge44" class="edge"><title>Node17&#45;&gt;Node14</title>
<path fill="none" stroke="#9a32cd" stroke-dasharray="5,2" d="M89.917,-314.506C121.232,-285.845 186.507,-228.321 248,-188.141 275.784,-169.986 310.182,-153.163 332.816,-142.789"/>
<polygon fill="#9a32cd" stroke="#9a32cd" points="87.346,-312.115 82.3623,-321.465 92.0887,-317.264 87.346,-312.115"/>
<text text-anchor="middle" x="195" y="-269.141" font-family="FreeSans" font-size="10.00"> derivedColor_</text>
<text text-anchor="middle" x="195" y="-256.141" font-family="FreeSans" font-size="10.00">color_</text>
</g>
<!-- Node17&#45;&gt;Node17 -->
<g id="edge46" class="edge"><title>Node17&#45;&gt;Node17</title>
<path fill="none" stroke="#9a32cd" stroke-dasharray="5,2" d="M48.1481,-352.567C49.911,-357.49 57.5283,-361.141 71,-361.141 92.5547,-361.141 99.1221,-351.794 90.7023,-342.849"/>
<polygon fill="#9a32cd" stroke="#9a32cd" points="51.5443,-353.441 51.2977,-342.849 44.8852,-351.283 51.5443,-353.441"/>
<text text-anchor="middle" x="71" y="-495.141" font-family="FreeSans" font-size="10.00"> CYAN</text>
<text text-anchor="middle" x="71" y="-482.141" font-family="FreeSans" font-size="10.00">GRAY</text>
<text text-anchor="middle" x="71" y="-469.141" font-family="FreeSans" font-size="10.00">YELLOW</text>
<text text-anchor="middle" x="71" y="-456.141" font-family="FreeSans" font-size="10.00">MAGENTA</text>
<text text-anchor="middle" x="71" y="-443.141" font-family="FreeSans" font-size="10.00">WHITE</text>
<text text-anchor="middle" x="71" y="-430.141" font-family="FreeSans" font-size="10.00">TRANSPARENT</text>
<text text-anchor="middle" x="71" y="-417.141" font-family="FreeSans" font-size="10.00">BLUE</text>
<text text-anchor="middle" x="71" y="-404.141" font-family="FreeSans" font-size="10.00">BLACK</text>
<text text-anchor="middle" x="71" y="-391.141" font-family="FreeSans" font-size="10.00">RED</text>
<text text-anchor="middle" x="71" y="-378.141" font-family="FreeSans" font-size="10.00">GREEN</text>
<text text-anchor="middle" x="71" y="-365.141" font-family="FreeSans" font-size="10.00">...</text>
</g>
<!-- Node17&#45;&gt;Node19 -->
<g id="edge76" class="edge"><title>Node17&#45;&gt;Node19</title>
<path fill="none" stroke="#9a32cd" stroke-dasharray="5,2" d="M123.212,-337.719C158.433,-341.343 205.974,-345.966 248,-349.141 399.678,-360.598 438.084,-369.813 590,-362.141 602.942,-361.487 617.031,-360.235 629.68,-358.912"/>
<polygon fill="#9a32cd" stroke="#9a32cd" points="123.466,-334.226 113.159,-336.677 122.745,-341.189 123.466,-334.226"/>
<text text-anchor="middle" x="357" y="-395.141" font-family="FreeSans" font-size="10.00"> selectionColor_</text>
<text text-anchor="middle" x="357" y="-382.141" font-family="FreeSans" font-size="10.00">effectColor_</text>
<text text-anchor="middle" x="357" y="-369.141" font-family="FreeSans" font-size="10.00">hoverColor_</text>
</g>
<!-- Node18&#45;&gt;Node1 -->
<g id="edge52" class="edge"><title>Node18&#45;&gt;Node1</title>
<path fill="none" stroke="#9a32cd" stroke-dasharray="5,2" d="M881.511,-186.529C982.591,-206.867 1164.89,-243.548 1254.45,-261.567"/>
<polygon fill="#9a32cd" stroke="#9a32cd" points="882.184,-183.095 871.69,-184.553 880.803,-189.957 882.184,-183.095"/>
<text text-anchor="middle" x="986" y="-231.141" font-family="FreeSans" font-size="10.00"> window_</text>
</g>
<!-- Node19&#45;&gt;Node1 -->
<g id="edge56" class="edge"><title>Node19&#45;&gt;Node1</title>
<path fill="none" stroke="#9a32cd" stroke-dasharray="5,2" d="M718.408,-347.791C833.915,-332.945 1121.3,-296.008 1246.78,-279.88"/>
<polygon fill="#9a32cd" stroke="#9a32cd" points="717.9,-344.327 708.428,-349.073 718.793,-351.27 717.9,-344.327"/>
<text text-anchor="middle" x="986" y="-343.141" font-family="FreeSans" font-size="10.00"> messageText_</text>
<text text-anchor="middle" x="986" y="-330.141" font-family="FreeSans" font-size="10.00">titleText_</text>
</g>
<!-- Node20 -->
<g id="node49" class="node"><title>Node20</title>
<a xlink:href="class_urho3_d_1_1_p_o_d_vector.html" target="_top" xlink:title="Urho3D::PODVector\&lt;\l int \&gt;">
<polygon fill="none" stroke="red" points="297.5,-589.141 297.5,-623.141 416.5,-623.141 416.5,-589.141 297.5,-589.141"/>
<text text-anchor="start" x="305.5" y="-610.141" font-family="FreeSans" font-size="10.00">Urho3D::PODVector&lt;</text>
<text text-anchor="middle" x="357" y="-597.141" font-family="FreeSans" font-size="10.00"> int &gt;</text>
</a>
</g>
<!-- Node20&#45;&gt;Node19 -->
<g id="edge60" class="edge"><title>Node20&#45;&gt;Node19</title>
<path fill="none" stroke="#9a32cd" stroke-dasharray="5,2" d="M426.613,-595.567C490.626,-585.288 577.465,-569.72 590,-559.141 652.084,-506.741 665.546,-399.621 668.317,-365.114"/>
<polygon fill="#9a32cd" stroke="#9a32cd" points="425.875,-592.14 416.55,-597.169 426.977,-599.053 425.875,-592.14"/>
<text text-anchor="middle" x="537" y="-590.141" font-family="FreeSans" font-size="10.00"> rowWidths_</text>
</g>
<!-- Node21&#45;&gt;Node19 -->
<g id="edge62" class="edge"><title>Node21&#45;&gt;Node19</title>
<path fill="none" stroke="#9a32cd" stroke-dasharray="5,2" d="M440.071,-550.622C488.06,-544.837 547.202,-530.892 590,-498.141 636.422,-462.615 659.155,-391.646 666.37,-364.779"/>
<polygon fill="#9a32cd" stroke="#9a32cd" points="439.563,-547.157 430.009,-551.737 440.334,-554.114 439.563,-547.157"/>
<text text-anchor="middle" x="537" y="-546.141" font-family="FreeSans" font-size="10.00"> fontFace_</text>
</g>
<!-- Node22 -->
<g id="node54" class="node"><title>Node22</title>
<a xlink:href="class_urho3_d_1_1_p_o_d_vector.html" target="_top" xlink:title="Urho3D::PODVector\&lt;\l Urho3D::CharLocation \&gt;">
<polygon fill="none" stroke="red" points="288.5,-485.141 288.5,-519.141 425.5,-519.141 425.5,-485.141 288.5,-485.141"/>
<text text-anchor="start" x="296.5" y="-506.141" font-family="FreeSans" font-size="10.00">Urho3D::PODVector&lt;</text>
<text text-anchor="middle" x="357" y="-493.141" font-family="FreeSans" font-size="10.00"> Urho3D::CharLocation &gt;</text>
</a>
</g>
<!-- Node22&#45;&gt;Node19 -->
<g id="edge66" class="edge"><title>Node22&#45;&gt;Node19</title>
<path fill="none" stroke="#9a32cd" stroke-dasharray="5,2" d="M435.597,-492.116C483.056,-483.356 543.201,-467.268 590,-438.141 621.783,-418.359 649.286,-382.656 661.803,-364.847"/>
<polygon fill="#9a32cd" stroke="#9a32cd" points="434.907,-488.684 425.672,-493.876 436.129,-495.576 434.907,-488.684"/>
<text text-anchor="middle" x="537" y="-485.141" font-family="FreeSans" font-size="10.00"> charLocations_</text>
</g>
<!-- Node23 -->
<g id="node56" class="node"><title>Node23</title>
<a xlink:href="class_urho3_d_1_1_vector.html" target="_top" xlink:title="Urho3D::Vector\&lt; Urho3D\l::PODVector\&lt; Urho3D::GlyphLocation \&gt; \&gt;">
<polygon fill="none" stroke="red" points="248,-433.141 248,-467.141 466,-467.141 466,-433.141 248,-433.141"/>
<text text-anchor="start" x="256" y="-454.141" font-family="FreeSans" font-size="10.00">Urho3D::Vector&lt; Urho3D</text>
<text text-anchor="middle" x="357" y="-441.141" font-family="FreeSans" font-size="10.00">::PODVector&lt; Urho3D::GlyphLocation &gt; &gt;</text>
</a>
</g>
<!-- Node23&#45;&gt;Node19 -->
<g id="edge68" class="edge"><title>Node23&#45;&gt;Node19</title>
<path fill="none" stroke="#9a32cd" stroke-dasharray="5,2" d="M447.052,-430.85C490.749,-420.507 543.684,-406.514 590,-390.141 610.321,-382.957 632.59,-372.566 648.289,-364.792"/>
<polygon fill="#9a32cd" stroke="#9a32cd" points="446.241,-427.445 437.303,-433.134 447.837,-434.261 446.241,-427.445"/>
<text text-anchor="middle" x="537" y="-425.141" font-family="FreeSans" font-size="10.00"> pageGlyphLocations_</text>
</g>
<!-- Node24 -->
<g id="node59" class="node"><title>Node24</title>
<a xlink:href="class_urho3_d_1_1_shared_ptr.html" target="_top" xlink:title="Urho3D::SharedPtr\&lt;\l Urho3D::Font \&gt;">
<polygon fill="none" stroke="red" points="299,-306.141 299,-340.141 415,-340.141 415,-306.141 299,-306.141"/>
<text text-anchor="start" x="307" y="-327.141" font-family="FreeSans" font-size="10.00">Urho3D::SharedPtr&lt;</text>
<text text-anchor="middle" x="357" y="-314.141" font-family="FreeSans" font-size="10.00"> Urho3D::Font &gt;</text>
</a>
</g>
<!-- Node24&#45;&gt;Node19 -->
<g id="edge72" class="edge"><title>Node24&#45;&gt;Node19</title>
<path fill="none" stroke="#9a32cd" stroke-dasharray="5,2" d="M425.506,-329.947C488.119,-336.169 578.525,-345.151 629.731,-350.239"/>
<polygon fill="#9a32cd" stroke="#9a32cd" points="425.616,-326.441 415.319,-328.935 424.924,-333.407 425.616,-326.441"/>
<text text-anchor="middle" x="537" y="-350.141" font-family="FreeSans" font-size="10.00"> font_</text>
</g>
<!-- Node25 -->
<g id="node61" class="node"><title>Node25</title>
<a xlink:href="class_urho3_d_1_1_p_o_d_vector.html" target="_top" xlink:title="Urho3D::PODVector\&lt;\l unsigned \&gt;">
<polygon fill="none" stroke="red" points="297.5,-254.141 297.5,-288.141 416.5,-288.141 416.5,-254.141 297.5,-254.141"/>
<text text-anchor="start" x="305.5" y="-275.141" font-family="FreeSans" font-size="10.00">Urho3D::PODVector&lt;</text>
<text text-anchor="middle" x="357" y="-262.141" font-family="FreeSans" font-size="10.00"> unsigned &gt;</text>
</a>
</g>
<!-- Node25&#45;&gt;Node19 -->
<g id="edge74" class="edge"><title>Node25&#45;&gt;Node19</title>
<path fill="none" stroke="#9a32cd" stroke-dasharray="5,2" d="M426.752,-267.736C474.318,-267.783 537.887,-272.577 590,-293.141 618.369,-304.335 645.07,-328.969 658.988,-343.272"/>
<polygon fill="#9a32cd" stroke="#9a32cd" points="426.529,-264.238 416.551,-267.798 426.572,-271.237 426.529,-264.238"/>
<text text-anchor="middle" x="537" y="-323.141" font-family="FreeSans" font-size="10.00"> unicodeText_</text>
<text text-anchor="middle" x="537" y="-310.141" font-family="FreeSans" font-size="10.00">printToText_</text>
<text text-anchor="middle" x="537" y="-297.141" font-family="FreeSans" font-size="10.00">printText_</text>
</g>
</g>
</svg>
        <g id="navigator" transform="translate(0 0)" fill="#404254">
                <rect fill="#f2f5e9" fill-opacity="0.5" stroke="#606060" stroke-width=".5" x="0" y="0" width="60" height="60"/>
                <use id="zoomplus" xlink:href="#zoomPlus" x="17" y="9" onmousedown="handleZoom(evt,'in')"/>
                <use id="zoomminus" xlink:href="#zoomMin" x="42" y="9" onmousedown="handleZoom(evt,'out')"/>
                <use id="reset" xlink:href="#resetDef" x="30" y="36" onmousedown="handleReset()"/>
                <g id="arrowUp" xlink:href="#dirArrow" transform="translate(30 24)" onmousedown="handlePan(0,-1)">
                  <use xlink:href="#rim" fill="#404040">
                        <set attributeName="fill" to="#808080" begin="arrowUp.mouseover" end="arrowUp.mouseout"/>
                  </use>
                  <path fill="none" stroke="white" stroke-width="1.5" d="M0,-3.0v7 M-2.5,-0.5L0,-3.0L2.5,-0.5"/>
                </g>
                <g id="arrowRight" xlink:href="#dirArrow" transform="rotate(90) translate(36 -43)" onmousedown="handlePan(1,0)">
                  <use xlink:href="#rim" fill="#404040">
                        <set attributeName="fill" to="#808080" begin="arrowRight.mouseover" end="arrowRight.mouseout"/>
                  </use>
                  <path fill="none" stroke="white" stroke-width="1.5" d="M0,-3.0v7 M-2.5,-0.5L0,-3.0L2.5,-0.5"/>
                </g>
                <g id="arrowDown" xlink:href="#dirArrow" transform="rotate(180) translate(-30 -48)" onmousedown="handlePan(0,1)">
                  <use xlink:href="#rim" fill="#404040">
                        <set attributeName="fill" to="#808080" begin="arrowDown.mouseover" end="arrowDown.mouseout"/>
                  </use>
                  <path fill="none" stroke="white" stroke-width="1.5" d="M0,-3.0v7 M-2.5,-0.5L0,-3.0L2.5,-0.5"/>
                </g>
                <g id="arrowLeft" xlink:href="#dirArrow" transform="rotate(270) translate(-36 17)" onmousedown="handlePan(-1,0)">
                  <use xlink:href="#rim" fill="#404040">
                        <set attributeName="fill" to="#808080" begin="arrowLeft.mouseover" end="arrowLeft.mouseout"/>
                  </use>
                  <path fill="none" stroke="white" stroke-width="1.5" d="M0,-3.0v7 M-2.5,-0.5L0,-3.0L2.5,-0.5"/>
                </g>
        </g>
        <svg viewBox="0 0 15 15" width="100%" height="30px" preserveAspectRatio="xMaxYMin meet">
         <g id="arrow_out" transform="scale(0.3 0.3)">
          <a xlink:href="class_urho3_d_1_1_message_box__coll__graph_org.svg" target="_base">
           <rect id="button" ry="5" rx="5" y="6" x="6" height="38" width="38"
                fill="#f2f5e9" fill-opacity="0.5" stroke="#606060" stroke-width="1.0"/>
           <path id="arrow"
             d="M 11.500037,31.436501 C 11.940474,20.09759 22.043105,11.32322 32.158766,21.979434 L 37.068811,17.246167 C 37.068811,17.246167 37.088388,32 37.088388,32 L 22.160133,31.978069 C 22.160133,31.978069 26.997745,27.140456 26.997745,27.140456 C 18.528582,18.264221 13.291696,25.230495 11.500037,31.436501 z"
             style="fill:#404040;"/>
          </a>
         </g>
        </svg>
</svg>
