<?xml version="1.0" encoding="UTF-8" standalone="no"?>
<!DOCTYPE svg PUBLIC "-//W3C//DTD SVG 1.1//EN"
 "http://www.w3.org/Graphics/SVG/1.1/DTD/svg11.dtd">
<!-- Generated by graphviz version 2.26.3 (20100126.1600)
 -->
<!-- Title: Urho3D::SpriteSheet2D Pages: 1 -->
<svg width="2272pt" height="368pt"
 viewBox="0.00 0.00 2272.00 368.29" xmlns="http://www.w3.org/2000/svg" xmlns:xlink="http://www.w3.org/1999/xlink">
<g id="graph1" class="graph" transform="scale(1 1) rotate(0) translate(4 364.287)">
<title>Urho3D::SpriteSheet2D</title>
<!-- Node1 -->
<g id="node1" class="node"><title>Node1</title>
<polygon fill="#bfbfbf" stroke="black" points="2134,-139.5 2134,-160.5 2264,-160.5 2264,-139.5 2134,-139.5"/>
<text text-anchor="middle" x="2199" y="-147.5" font-family="FreeSans" font-size="10.00">Urho3D::SpriteSheet2D</text>
</g>
<!-- Node2 -->
<g id="node2" class="node"><title>Node2</title>
<a xlink:href="class_urho3_d_1_1_resource.html" target="_top" xlink:title="Base class for resources.">
<polygon fill="none" stroke="black" points="909.5,-196.5 909.5,-217.5 1012.5,-217.5 1012.5,-196.5 909.5,-196.5"/>
<text text-anchor="middle" x="961" y="-204.5" font-family="FreeSans" font-size="10.00">Urho3D::Resource</text>
</a>
</g>
<!-- Node2&#45;&gt;Node1 -->
<g id="edge2" class="edge"><title>Node2&#45;&gt;Node1</title>
<path fill="none" stroke="midnightblue" d="M1006.37,-193.769C1048.02,-182.801 1111.63,-169 1168,-169 1168,-169 1168,-169 1969,-169 2024.69,-169 2087.71,-163.399 2133.69,-158.278"/>
<polygon fill="midnightblue" stroke="midnightblue" points="1005.28,-190.438 996.536,-196.415 1007.1,-197.198 1005.28,-190.438"/>
</g>
<!-- Node17 -->
<g id="node38" class="node"><title>Node17</title>
<a xlink:href="class_urho3_d_1_1_x_m_l_file.html" target="_top" xlink:title="XML document resource.">
<polygon fill="none" stroke="black" points="1121,-200.5 1121,-221.5 1215,-221.5 1215,-200.5 1121,-200.5"/>
<text text-anchor="middle" x="1168" y="-208.5" font-family="FreeSans" font-size="10.00">Urho3D::XMLFile</text>
</a>
</g>
<!-- Node2&#45;&gt;Node17 -->
<g id="edge46" class="edge"><title>Node2&#45;&gt;Node17</title>
<path fill="none" stroke="midnightblue" d="M1023.08,-208.2C1054.44,-208.806 1091.88,-209.529 1120.85,-210.089"/>
<polygon fill="midnightblue" stroke="midnightblue" points="1022.77,-204.693 1012.7,-207.999 1022.63,-211.692 1022.77,-204.693"/>
</g>
<!-- Node20 -->
<g id="node45" class="node"><title>Node20</title>
<a xlink:href="class_urho3_d_1_1_texture.html" target="_top" xlink:title="Base class for texture resources.">
<polygon fill="none" stroke="red" points="1240,-332.5 1240,-353.5 1334,-353.5 1334,-332.5 1240,-332.5"/>
<text text-anchor="middle" x="1287" y="-340.5" font-family="FreeSans" font-size="10.00">Urho3D::Texture</text>
</a>
</g>
<!-- Node2&#45;&gt;Node20 -->
<g id="edge54" class="edge"><title>Node2&#45;&gt;Node20</title>
<path fill="none" stroke="midnightblue" d="M1006.23,-221.03C1079.27,-248.51 1219.99,-307.735 1269.36,-332.368"/>
<polygon fill="midnightblue" stroke="midnightblue" points="1007.41,-217.734 996.82,-217.526 1004.97,-224.294 1007.41,-217.734"/>
</g>
<!-- Node2&#45;&gt;Node20 -->
<g id="edge56" class="edge"><title>Node2&#45;&gt;Node20</title>
<path fill="none" stroke="midnightblue" d="M987.834,-222.116C1046.28,-250.095 1185.12,-308.184 1251.05,-332.427"/>
<polygon fill="midnightblue" stroke="midnightblue" points="989.049,-218.815 978.527,-217.575 985.98,-225.106 989.049,-218.815"/>
</g>
<!-- Node24 -->
<g id="node57" class="node"><title>Node24</title>
<a xlink:href="class_urho3_d_1_1_p_list_file.html" target="_top" xlink:title="Property list (plist).">
<polygon fill="none" stroke="black" points="1693.5,-113.5 1693.5,-134.5 1790.5,-134.5 1790.5,-113.5 1693.5,-113.5"/>
<text text-anchor="middle" x="1742" y="-121.5" font-family="FreeSans" font-size="10.00">Urho3D::PListFile</text>
</a>
</g>
<!-- Node2&#45;&gt;Node24 -->
<g id="edge70" class="edge"><title>Node2&#45;&gt;Node24</title>
<path fill="none" stroke="midnightblue" d="M1021.41,-191.573C1023.72,-190.178 1025.93,-188.658 1028,-187 1040.75,-176.813 1032.1,-163.549 1046,-155 1100.73,-121.334 1544.16,-122.199 1693.28,-123.465"/>
<polygon fill="midnightblue" stroke="midnightblue" points="1019.41,-188.665 1012.12,-196.352 1022.61,-194.89 1019.41,-188.665"/>
</g>
<!-- Node3 -->
<g id="node4" class="node"><title>Node3</title>
<a xlink:href="class_urho3_d_1_1_object.html" target="_top" xlink:title="Base class for objects with type identification, subsystem access and event sending/receiving capabil...">
<polygon fill="none" stroke="black" points="694,-196.5 694,-217.5 784,-217.5 784,-196.5 694,-196.5"/>
<text text-anchor="middle" x="739" y="-204.5" font-family="FreeSans" font-size="10.00">Urho3D::Object</text>
</a>
</g>
<!-- Node3&#45;&gt;Node2 -->
<g id="edge4" class="edge"><title>Node3&#45;&gt;Node2</title>
<path fill="none" stroke="midnightblue" d="M794.3,-207C829.495,-207 874.774,-207 909.258,-207"/>
<polygon fill="midnightblue" stroke="midnightblue" points="794.193,-203.5 784.193,-207 794.193,-210.5 794.193,-203.5"/>
</g>
<!-- Node4 -->
<g id="node6" class="node"><title>Node4</title>
<a xlink:href="class_urho3_d_1_1_ref_counted.html" target="_top" xlink:title="Base class for intrusively reference&#45;counted objects. These are noncopyable and non&#45;assignable.">
<polygon fill="none" stroke="black" points="191,-231.5 191,-252.5 305,-252.5 305,-231.5 191,-231.5"/>
<text text-anchor="middle" x="248" y="-239.5" font-family="FreeSans" font-size="10.00">Urho3D::RefCounted</text>
</a>
</g>
<!-- Node4&#45;&gt;Node3 -->
<g id="edge6" class="edge"><title>Node4&#45;&gt;Node3</title>
<path fill="none" stroke="midnightblue" d="M315.391,-242.79C397.938,-242.907 541.865,-240.349 664,-224 675.38,-222.477 687.579,-220.058 698.761,-217.518"/>
<polygon fill="midnightblue" stroke="midnightblue" points="315.153,-239.29 305.143,-242.761 315.133,-246.29 315.153,-239.29"/>
</g>
<!-- Node6 -->
<g id="node10" class="node"><title>Node6</title>
<a xlink:href="class_urho3_d_1_1_context.html" target="_top" xlink:title="Urho3D execution context. Provides access to subsystems, object factories and attributes, and event receivers.">
<polygon fill="none" stroke="red" points="444.5,-196.5 444.5,-217.5 541.5,-217.5 541.5,-196.5 444.5,-196.5"/>
<text text-anchor="middle" x="493" y="-204.5" font-family="FreeSans" font-size="10.00">Urho3D::Context</text>
</a>
</g>
<!-- Node4&#45;&gt;Node6 -->
<g id="edge12" class="edge"><title>Node4&#45;&gt;Node6</title>
<path fill="none" stroke="midnightblue" d="M315.035,-232.424C355.991,-226.573 407.432,-219.224 444.462,-213.934"/>
<polygon fill="midnightblue" stroke="midnightblue" points="314.537,-228.959 305.132,-233.838 315.527,-235.889 314.537,-228.959"/>
</g>
<!-- Node5 -->
<g id="node8" class="node"><title>Node5</title>
<a xlink:href="struct_urho3_d_1_1_ref_count.html" target="_top" xlink:title="Reference count structure.">
<polygon fill="none" stroke="black" points="0,-231.5 0,-252.5 102,-252.5 102,-231.5 0,-231.5"/>
<text text-anchor="middle" x="51" y="-239.5" font-family="FreeSans" font-size="10.00">Urho3D::RefCount</text>
</a>
</g>
<!-- Node5&#45;&gt;Node4 -->
<g id="edge8" class="edge"><title>Node5&#45;&gt;Node4</title>
<path fill="none" stroke="#9a32cd" stroke-dasharray="5,2" d="M112.357,-242C137.388,-242 166.169,-242 190.761,-242"/>
<polygon fill="#9a32cd" stroke="#9a32cd" points="112.245,-238.5 102.245,-242 112.245,-245.5 112.245,-238.5"/>
<text text-anchor="middle" x="145" y="-246" font-family="FreeSans" font-size="10.00"> refCount_</text>
</g>
<!-- Node6&#45;&gt;Node3 -->
<g id="edge10" class="edge"><title>Node6&#45;&gt;Node3</title>
<path fill="none" stroke="#9a32cd" stroke-dasharray="5,2" d="M551.776,-207C595.352,-207 653.874,-207 693.817,-207"/>
<polygon fill="#9a32cd" stroke="#9a32cd" points="551.602,-203.5 541.602,-207 551.602,-210.5 551.602,-203.5"/>
<text text-anchor="middle" x="624" y="-211" font-family="FreeSans" font-size="10.00"> context_</text>
</g>
<!-- Node7 -->
<g id="node13" class="node"><title>Node7</title>
<a xlink:href="class_urho3_d_1_1_p_o_d_vector.html" target="_top" xlink:title="Urho3D::PODVector\&lt;\l Urho3D::Object * \&gt;">
<polygon fill="none" stroke="red" points="188.5,-176 188.5,-210 307.5,-210 307.5,-176 188.5,-176"/>
<text text-anchor="start" x="196.5" y="-197" font-family="FreeSans" font-size="10.00">Urho3D::PODVector&lt;</text>
<text text-anchor="middle" x="248" y="-184" font-family="FreeSans" font-size="10.00"> Urho3D::Object * &gt;</text>
</a>
</g>
<!-- Node7&#45;&gt;Node6 -->
<g id="edge14" class="edge"><title>Node7&#45;&gt;Node6</title>
<path fill="none" stroke="#9a32cd" stroke-dasharray="5,2" d="M317.96,-191.457C344.333,-191.4 374.578,-191.962 402,-194 415.846,-195.029 430.791,-196.86 444.489,-198.829"/>
<polygon fill="#9a32cd" stroke="#9a32cd" points="317.66,-187.958 307.678,-191.51 317.696,-194.958 317.66,-187.958"/>
<text text-anchor="middle" x="364" y="-198" font-family="FreeSans" font-size="10.00"> eventSenders_</text>
</g>
<!-- Node8 -->
<g id="node15" class="node"><title>Node8</title>
<a xlink:href="class_urho3_d_1_1_linked_list.html" target="_top" xlink:title="Urho3D::LinkedList\l\&lt; Urho3D::EventHandler \&gt;">
<polygon fill="none" stroke="red" points="420,-144 420,-178 566,-178 566,-144 420,-144"/>
<text text-anchor="start" x="428" y="-165" font-family="FreeSans" font-size="10.00">Urho3D::LinkedList</text>
<text text-anchor="middle" x="493" y="-152" font-family="FreeSans" font-size="10.00">&lt; Urho3D::EventHandler &gt;</text>
</a>
</g>
<!-- Node8&#45;&gt;Node3 -->
<g id="edge16" class="edge"><title>Node8&#45;&gt;Node3</title>
<path fill="none" stroke="#9a32cd" stroke-dasharray="5,2" d="M576.501,-174.218C604.386,-178.883 635.588,-184.375 664,-190 673.823,-191.945 684.327,-194.209 694.271,-196.439"/>
<polygon fill="#9a32cd" stroke="#9a32cd" points="576.828,-170.725 566.389,-172.538 575.68,-177.63 576.828,-170.725"/>
<text text-anchor="middle" x="624" y="-194" font-family="FreeSans" font-size="10.00"> eventHandlers_</text>
</g>
<!-- Node9 -->
<g id="node17" class="node"><title>Node9</title>
<a xlink:href="class_urho3_d_1_1_timer.html" target="_top" xlink:title="Low&#45;resolution operating system timer.">
<polygon fill="none" stroke="black" points="696,-156.5 696,-177.5 782,-177.5 782,-156.5 696,-156.5"/>
<text text-anchor="middle" x="739" y="-164.5" font-family="FreeSans" font-size="10.00">Urho3D::Timer</text>
</a>
</g>
<!-- Node9&#45;&gt;Node2 -->
<g id="edge18" class="edge"><title>Node9&#45;&gt;Node2</title>
<path fill="none" stroke="#9a32cd" stroke-dasharray="5,2" d="M792.407,-175.571C817.768,-179.742 848.481,-184.939 876,-190 886.953,-192.014 898.676,-194.284 909.809,-196.494"/>
<polygon fill="#9a32cd" stroke="#9a32cd" points="792.686,-172.07 782.252,-173.908 791.555,-178.978 792.686,-172.07"/>
<text text-anchor="middle" x="845" y="-194" font-family="FreeSans" font-size="10.00"> useTimer_</text>
</g>
<!-- Node10 -->
<g id="node19" class="node"><title>Node10</title>
<a xlink:href="class_urho3_d_1_1_string.html" target="_top" xlink:title="String class.">
<polygon fill="none" stroke="black" points="695,-45.5 695,-66.5 783,-66.5 783,-45.5 695,-45.5"/>
<text text-anchor="middle" x="739" y="-53.5" font-family="FreeSans" font-size="10.00">Urho3D::String</text>
</a>
</g>
<!-- Node10&#45;&gt;Node1 -->
<g id="edge40" class="edge"><title>Node10&#45;&gt;Node1</title>
<path fill="none" stroke="#9a32cd" stroke-dasharray="5,2" d="M773.214,-41.7619C816.248,-25.1709 892.778,-0 961,-0 961,-0 961,-0 1969,-0 2071.02,-0 2163.2,-104.819 2190.7,-139.212"/>
<polygon fill="#9a32cd" stroke="#9a32cd" points="771.814,-38.5515 763.788,-45.4668 774.375,-45.0664 771.814,-38.5515"/>
<text text-anchor="middle" x="1426" y="-4" font-family="FreeSans" font-size="10.00"> loadTextureName_</text>
</g>
<!-- Node10&#45;&gt;Node2 -->
<g id="edge20" class="edge"><title>Node10&#45;&gt;Node2</title>
<path fill="none" stroke="#9a32cd" stroke-dasharray="5,2" d="M763.936,-72.4631C792.687,-92.0992 840.536,-126.835 876,-163 885.335,-172.52 883.061,-179.376 894,-187 899.477,-190.818 905.694,-193.918 912.079,-196.433"/>
<polygon fill="#9a32cd" stroke="#9a32cd" points="765.558,-69.3346 755.312,-66.6356 761.638,-75.1346 765.558,-69.3346"/>
<text text-anchor="middle" x="845" y="-167" font-family="FreeSans" font-size="10.00"> name_</text>
</g>
<!-- Node10&#45;&gt;Node10 -->
<g id="edge22" class="edge"><title>Node10&#45;&gt;Node10</title>
<path fill="none" stroke="#9a32cd" stroke-dasharray="5,2" d="M719.465,-76.4266C720.972,-81.3489 727.484,-85 739,-85 757.426,-85 763.04,-75.6531 755.842,-66.7079"/>
<polygon fill="#9a32cd" stroke="#9a32cd" points="722.861,-77.2793 722.158,-66.7079 716.115,-75.4105 722.861,-77.2793"/>
<text text-anchor="middle" x="739" y="-89" font-family="FreeSans" font-size="10.00"> EMPTY</text>
</g>
<!-- Node11 -->
<g id="node22" class="node"><title>Node11</title>
<a xlink:href="class_urho3_d_1_1_string_hash.html" target="_top" xlink:title="32&#45;bit hash value for a string.">
<polygon fill="none" stroke="black" points="682.5,-236.5 682.5,-257.5 795.5,-257.5 795.5,-236.5 682.5,-236.5"/>
<text text-anchor="middle" x="739" y="-244.5" font-family="FreeSans" font-size="10.00">Urho3D::StringHash</text>
</a>
</g>
<!-- Node11&#45;&gt;Node2 -->
<g id="edge24" class="edge"><title>Node11&#45;&gt;Node2</title>
<path fill="none" stroke="#9a32cd" stroke-dasharray="5,2" d="M805.695,-234.983C838.952,-228.991 878.557,-221.855 909.449,-216.289"/>
<polygon fill="#9a32cd" stroke="#9a32cd" points="804.815,-231.585 795.594,-236.803 806.057,-238.474 804.815,-231.585"/>
<text text-anchor="middle" x="845" y="-236" font-family="FreeSans" font-size="10.00"> nameHash_</text>
</g>
<!-- Node11&#45;&gt;Node11 -->
<g id="edge26" class="edge"><title>Node11&#45;&gt;Node11</title>
<path fill="none" stroke="#9a32cd" stroke-dasharray="5,2" d="M719.465,-267.427C720.972,-272.349 727.484,-276 739,-276 757.426,-276 763.04,-266.653 755.842,-257.708"/>
<polygon fill="#9a32cd" stroke="#9a32cd" points="722.861,-268.279 722.158,-257.708 716.115,-266.41 722.861,-268.279"/>
<text text-anchor="middle" x="739" y="-280" font-family="FreeSans" font-size="10.00"> ZERO</text>
</g>
<!-- Node12 -->
<g id="node25" class="node"><title>Node12</title>
<a xlink:href="class_urho3_d_1_1_hash_map.html" target="_top" xlink:title="Urho3D::HashMap\&lt; Urho3D\l::String, Urho3D::SharedPtr\l\&lt; Urho3D::Sprite2D \&gt; \&gt;">
<polygon fill="none" stroke="black" points="1518,-24.5 1518,-71.5 1670,-71.5 1670,-24.5 1518,-24.5"/>
<text text-anchor="start" x="1526" y="-58.5" font-family="FreeSans" font-size="10.00">Urho3D::HashMap&lt; Urho3D</text>
<text text-anchor="start" x="1526" y="-45.5" font-family="FreeSans" font-size="10.00">::String, Urho3D::SharedPtr</text>
<text text-anchor="middle" x="1594" y="-32.5" font-family="FreeSans" font-size="10.00">&lt; Urho3D::Sprite2D &gt; &gt;</text>
</a>
</g>
<!-- Node12&#45;&gt;Node1 -->
<g id="edge28" class="edge"><title>Node12&#45;&gt;Node1</title>
<path fill="none" stroke="#9a32cd" stroke-dasharray="5,2" d="M1680.29,-53.1871C1768.79,-59.604 1910.08,-72.899 2030,-98 2080.33,-108.535 2137.15,-127.545 2170.42,-139.43"/>
<polygon fill="#9a32cd" stroke="#9a32cd" points="1680.52,-49.6947 1670.29,-52.4755 1680.02,-56.677 1680.52,-49.6947"/>
<text text-anchor="middle" x="1852" y="-79" font-family="FreeSans" font-size="10.00"> spriteMapping_</text>
</g>
<!-- Node13 -->
<g id="node27" class="node"><title>Node13</title>
<a xlink:href="class_urho3_d_1_1_hash_base.html" target="_top" xlink:title="Hash set/map base class.">
<polygon fill="none" stroke="black" points="1114,-48.5 1114,-69.5 1222,-69.5 1222,-48.5 1114,-48.5"/>
<text text-anchor="middle" x="1168" y="-56.5" font-family="FreeSans" font-size="10.00">Urho3D::HashBase</text>
</a>
</g>
<!-- Node13&#45;&gt;Node12 -->
<g id="edge30" class="edge"><title>Node13&#45;&gt;Node12</title>
<path fill="none" stroke="midnightblue" d="M1232.84,-57.3258C1309.36,-55.3499 1436.44,-52.0685 1517.65,-49.9715"/>
<polygon fill="midnightblue" stroke="midnightblue" points="1232.29,-53.8386 1222.39,-57.5957 1232.47,-60.8363 1232.29,-53.8386"/>
</g>
<!-- Node25 -->
<g id="node60" class="node"><title>Node25</title>
<a xlink:href="class_urho3_d_1_1_hash_map.html" target="_top" xlink:title="Urho3D::HashMap\&lt; String,\l PListValue \&gt;">
<polygon fill="none" stroke="black" points="1352.5,-69 1352.5,-103 1499.5,-103 1499.5,-69 1352.5,-69"/>
<text text-anchor="start" x="1360.5" y="-90" font-family="FreeSans" font-size="10.00">Urho3D::HashMap&lt; String,</text>
<text text-anchor="middle" x="1426" y="-77" font-family="FreeSans" font-size="10.00"> PListValue &gt;</text>
</a>
</g>
<!-- Node13&#45;&gt;Node25 -->
<g id="edge74" class="edge"><title>Node13&#45;&gt;Node25</title>
<path fill="none" stroke="midnightblue" d="M1232.11,-65.7097C1268.6,-69.5284 1314.46,-74.3271 1352.41,-78.299"/>
<polygon fill="midnightblue" stroke="midnightblue" points="1232.4,-62.22 1222.09,-64.6601 1231.67,-69.182 1232.4,-62.22"/>
</g>
<!-- Node14 -->
<g id="node29" class="node"><title>Node14</title>
<a xlink:href="struct_urho3_d_1_1_hash_node_base.html" target="_top" xlink:title="Hash set/map node base class.">
<polygon fill="none" stroke="black" points="894,-28.5 894,-49.5 1028,-49.5 1028,-28.5 894,-28.5"/>
<text text-anchor="middle" x="961" y="-36.5" font-family="FreeSans" font-size="10.00">Urho3D::HashNodeBase</text>
</a>
</g>
<!-- Node14&#45;&gt;Node13 -->
<g id="edge32" class="edge"><title>Node14&#45;&gt;Node13</title>
<path fill="none" stroke="#9a32cd" stroke-dasharray="5,2" d="M1038.25,-37.0905C1057.2,-37.462 1077.38,-38.5679 1096,-41 1108.14,-42.5855 1121.18,-45.4731 1132.79,-48.478"/>
<polygon fill="#9a32cd" stroke="#9a32cd" points="1038.21,-33.5898 1028.17,-36.9579 1038.12,-40.5892 1038.21,-33.5898"/>
<text text-anchor="middle" x="1071" y="-71" font-family="FreeSans" font-size="10.00"> ptrs_</text>
<text text-anchor="middle" x="1071" y="-58" font-family="FreeSans" font-size="10.00">tail_</text>
<text text-anchor="middle" x="1071" y="-45" font-family="FreeSans" font-size="10.00">head_</text>
</g>
<!-- Node14&#45;&gt;Node14 -->
<g id="edge34" class="edge"><title>Node14&#45;&gt;Node14</title>
<path fill="none" stroke="#9a32cd" stroke-dasharray="5,2" d="M940.728,-59.4266C942.292,-64.3489 949.049,-68 961,-68 980.121,-68 985.947,-58.6531 978.478,-49.7079"/>
<polygon fill="#9a32cd" stroke="#9a32cd" points="944.123,-60.2856 943.522,-49.7079 937.395,-58.3516 944.123,-60.2856"/>
<text text-anchor="middle" x="961" y="-98" font-family="FreeSans" font-size="10.00"> next_</text>
<text text-anchor="middle" x="961" y="-85" font-family="FreeSans" font-size="10.00">prev_</text>
<text text-anchor="middle" x="961" y="-72" font-family="FreeSans" font-size="10.00">down_</text>
</g>
<!-- Node15 -->
<g id="node32" class="node"><title>Node15</title>
<a xlink:href="struct_urho3_d_1_1_allocator_block.html" target="_top" xlink:title="Allocator memory block.">
<polygon fill="none" stroke="red" points="897.5,-125.5 897.5,-146.5 1024.5,-146.5 1024.5,-125.5 897.5,-125.5"/>
<text text-anchor="middle" x="961" y="-133.5" font-family="FreeSans" font-size="10.00">Urho3D::AllocatorBlock</text>
</a>
</g>
<!-- Node15&#45;&gt;Node13 -->
<g id="edge36" class="edge"><title>Node15&#45;&gt;Node13</title>
<path fill="none" stroke="#9a32cd" stroke-dasharray="5,2" d="M1013.27,-122.067C1018.33,-120.224 1023.31,-118.201 1028,-116 1036.7,-111.913 1037.43,-108.36 1046,-104 1074.17,-89.6669 1108.01,-77.5524 1132.9,-69.5165"/>
<polygon fill="#9a32cd" stroke="#9a32cd" points="1011.87,-118.849 1003.53,-125.389 1014.12,-125.474 1011.87,-118.849"/>
<text text-anchor="middle" x="1071" y="-108" font-family="FreeSans" font-size="10.00"> allocator_</text>
</g>
<!-- Node15&#45;&gt;Node15 -->
<g id="edge38" class="edge"><title>Node15&#45;&gt;Node15</title>
<path fill="none" stroke="#9a32cd" stroke-dasharray="5,2" d="M940.728,-156.427C942.292,-161.349 949.049,-165 961,-165 980.121,-165 985.947,-155.653 978.478,-146.708"/>
<polygon fill="#9a32cd" stroke="#9a32cd" points="944.123,-157.286 943.522,-146.708 937.395,-155.352 944.123,-157.286"/>
<text text-anchor="middle" x="961" y="-169" font-family="FreeSans" font-size="10.00"> next_</text>
</g>
<!-- Node16 -->
<g id="node36" class="node"><title>Node16</title>
<a xlink:href="class_urho3_d_1_1_shared_ptr.html" target="_top" xlink:title="Urho3D::SharedPtr\&lt;\l Urho3D::XMLFile \&gt;">
<polygon fill="none" stroke="black" points="1368,-197 1368,-231 1484,-231 1484,-197 1368,-197"/>
<text text-anchor="start" x="1376" y="-218" font-family="FreeSans" font-size="10.00">Urho3D::SharedPtr&lt;</text>
<text text-anchor="middle" x="1426" y="-205" font-family="FreeSans" font-size="10.00"> Urho3D::XMLFile &gt;</text>
</a>
</g>
<!-- Node16&#45;&gt;Node1 -->
<g id="edge42" class="edge"><title>Node16&#45;&gt;Node1</title>
<path fill="none" stroke="#9a32cd" stroke-dasharray="5,2" d="M1494.26,-213.812C1644.33,-212.932 1998.89,-208.165 2116,-183 2137.98,-178.276 2161.69,-168.317 2178.12,-160.568"/>
<polygon fill="#9a32cd" stroke="#9a32cd" points="1494.23,-210.312 1484.25,-213.867 1494.27,-217.312 1494.23,-210.312"/>
<text text-anchor="middle" x="1852" y="-212" font-family="FreeSans" font-size="10.00"> loadXMLFile_</text>
</g>
<!-- Node19 -->
<g id="node43" class="node"><title>Node19</title>
<a xlink:href="class_urho3_d_1_1_texture2_d.html" target="_top" xlink:title="2D texture resource.">
<polygon fill="none" stroke="black" points="1688.5,-286.5 1688.5,-307.5 1795.5,-307.5 1795.5,-286.5 1688.5,-286.5"/>
<text text-anchor="middle" x="1742" y="-294.5" font-family="FreeSans" font-size="10.00">Urho3D::Texture2D</text>
</a>
</g>
<!-- Node16&#45;&gt;Node19 -->
<g id="edge64" class="edge"><title>Node16&#45;&gt;Node19</title>
<path fill="none" stroke="#9a32cd" stroke-dasharray="5,2" d="M1494.28,-218.309C1544.19,-223.093 1612.86,-233.113 1670,-254 1691.61,-261.897 1713.97,-276.426 1727.92,-286.392"/>
<polygon fill="#9a32cd" stroke="#9a32cd" points="1494.52,-214.817 1484.25,-217.393 1493.89,-221.788 1494.52,-214.817"/>
<text text-anchor="middle" x="1594" y="-258" font-family="FreeSans" font-size="10.00"> loadParameters_</text>
</g>
<!-- Node17&#45;&gt;Node16 -->
<g id="edge44" class="edge"><title>Node17&#45;&gt;Node16</title>
<path fill="none" stroke="#9a32cd" stroke-dasharray="5,2" d="M1225.16,-211.665C1267.47,-212.157 1324.92,-212.825 1367.54,-213.32"/>
<polygon fill="#9a32cd" stroke="#9a32cd" points="1225.06,-208.163 1215.02,-211.547 1224.98,-215.163 1225.06,-208.163"/>
<text text-anchor="middle" x="1287" y="-217" font-family="FreeSans" font-size="10.00"> ptr_</text>
</g>
<!-- Node18 -->
<g id="node41" class="node"><title>Node18</title>
<a xlink:href="class_urho3_d_1_1_shared_ptr.html" target="_top" xlink:title="Urho3D::SharedPtr\&lt;\l Urho3D::Texture2D \&gt;">
<polygon fill="none" stroke="black" points="1908,-246 1908,-280 2030,-280 2030,-246 1908,-246"/>
<text text-anchor="start" x="1916" y="-267" font-family="FreeSans" font-size="10.00">Urho3D::SharedPtr&lt;</text>
<text text-anchor="middle" x="1969" y="-254" font-family="FreeSans" font-size="10.00"> Urho3D::Texture2D &gt;</text>
</a>
</g>
<!-- Node18&#45;&gt;Node1 -->
<g id="edge48" class="edge"><title>Node18&#45;&gt;Node1</title>
<path fill="none" stroke="#9a32cd" stroke-dasharray="5,2" d="M2040.04,-249.251C2064.96,-242.754 2092.57,-233.586 2116,-221 2146.24,-204.757 2175.21,-175.99 2189.59,-160.529"/>
<polygon fill="#9a32cd" stroke="#9a32cd" points="2039.12,-245.873 2030.27,-251.699 2040.82,-252.663 2039.12,-245.873"/>
<text text-anchor="middle" x="2082" y="-250" font-family="FreeSans" font-size="10.00"> texture_</text>
</g>
<!-- Node19&#45;&gt;Node18 -->
<g id="edge50" class="edge"><title>Node19&#45;&gt;Node18</title>
<path fill="none" stroke="#9a32cd" stroke-dasharray="5,2" d="M1805.64,-287.468C1837.63,-282.677 1876.2,-276.9 1907.83,-272.162"/>
<polygon fill="#9a32cd" stroke="#9a32cd" points="1804.88,-284.043 1795.51,-288.986 1805.92,-290.966 1804.88,-284.043"/>
<text text-anchor="middle" x="1852" y="-290" font-family="FreeSans" font-size="10.00"> ptr_</text>
</g>
<!-- Node20&#45;&gt;Node19 -->
<g id="edge52" class="edge"><title>Node20&#45;&gt;Node19</title>
<path fill="none" stroke="midnightblue" d="M1344.48,-341.998C1420.35,-344.274 1557.47,-347.758 1670,-319 1681.21,-316.136 1692.91,-311.756 1703.54,-307.512"/>
<polygon fill="midnightblue" stroke="midnightblue" points="1344.29,-338.491 1334.19,-341.688 1344.08,-345.488 1344.29,-338.491"/>
</g>
<!-- Node20&#45;&gt;Node19 -->
<g id="edge58" class="edge"><title>Node20&#45;&gt;Node19</title>
<path fill="none" stroke="midnightblue" d="M1344.48,-354.293C1420.35,-362.274 1557.47,-365.758 1670,-337 1694,-330.867 1720.26,-317.786 1733.45,-307.502"/>
<polygon fill="midnightblue" stroke="midnightblue" points="1344.51,-350.776 1334.19,-353.14 1343.74,-357.732 1344.51,-350.776"/>
</g>
<!-- Node21 -->
<g id="node50" class="node"><title>Node21</title>
<a xlink:href="class_urho3_d_1_1_shared_ptr.html" target="_top" xlink:title="Urho3D::SharedPtr\&lt;\l Urho3D::Image \&gt;">
<polygon fill="none" stroke="red" points="1368,-301 1368,-335 1484,-335 1484,-301 1368,-301"/>
<text text-anchor="start" x="1376" y="-322" font-family="FreeSans" font-size="10.00">Urho3D::SharedPtr&lt;</text>
<text text-anchor="middle" x="1426" y="-309" font-family="FreeSans" font-size="10.00"> Urho3D::Image &gt;</text>
</a>
</g>
<!-- Node21&#45;&gt;Node19 -->
<g id="edge60" class="edge"><title>Node21&#45;&gt;Node19</title>
<path fill="none" stroke="#9a32cd" stroke-dasharray="5,2" d="M1494.54,-313.445C1552.72,-309.579 1635.05,-304.107 1688.49,-300.556"/>
<polygon fill="#9a32cd" stroke="#9a32cd" points="1494.07,-309.968 1484.33,-314.124 1494.54,-316.953 1494.07,-309.968"/>
<text text-anchor="middle" x="1594" y="-315" font-family="FreeSans" font-size="10.00"> loadImage_</text>
</g>
<!-- Node22 -->
<g id="node52" class="node"><title>Node22</title>
<a xlink:href="class_urho3_d_1_1_shared_ptr.html" target="_top" xlink:title="Urho3D::SharedPtr\&lt;\l Urho3D::RenderSurface \&gt;">
<polygon fill="none" stroke="red" points="1354.5,-249 1354.5,-283 1497.5,-283 1497.5,-249 1354.5,-249"/>
<text text-anchor="start" x="1362.5" y="-270" font-family="FreeSans" font-size="10.00">Urho3D::SharedPtr&lt;</text>
<text text-anchor="middle" x="1426" y="-257" font-family="FreeSans" font-size="10.00"> Urho3D::RenderSurface &gt;</text>
</a>
</g>
<!-- Node22&#45;&gt;Node19 -->
<g id="edge62" class="edge"><title>Node22&#45;&gt;Node19</title>
<path fill="none" stroke="#9a32cd" stroke-dasharray="5,2" d="M1507.92,-270.586C1555.36,-273.689 1616.17,-278.431 1670,-285 1675.91,-285.721 1682.08,-286.583 1688.21,-287.508"/>
<polygon fill="#9a32cd" stroke="#9a32cd" points="1507.9,-267.077 1497.7,-269.929 1507.45,-274.063 1507.9,-267.077"/>
<text text-anchor="middle" x="1594" y="-289" font-family="FreeSans" font-size="10.00"> renderSurface_</text>
</g>
<!-- Node23 -->
<g id="node55" class="node"><title>Node23</title>
<a xlink:href="class_urho3_d_1_1_shared_ptr.html" target="_top" xlink:title="Urho3D::SharedPtr\&lt;\l Urho3D::PListFile \&gt;">
<polygon fill="none" stroke="black" points="1911,-107 1911,-141 2027,-141 2027,-107 1911,-107"/>
<text text-anchor="start" x="1919" y="-128" font-family="FreeSans" font-size="10.00">Urho3D::SharedPtr&lt;</text>
<text text-anchor="middle" x="1969" y="-115" font-family="FreeSans" font-size="10.00"> Urho3D::PListFile &gt;</text>
</a>
</g>
<!-- Node23&#45;&gt;Node1 -->
<g id="edge66" class="edge"><title>Node23&#45;&gt;Node1</title>
<path fill="none" stroke="#9a32cd" stroke-dasharray="5,2" d="M2037.17,-131.706C2067.68,-135.155 2103.5,-139.204 2133.67,-142.615"/>
<polygon fill="#9a32cd" stroke="#9a32cd" points="2037.37,-128.206 2027.04,-130.561 2036.58,-135.162 2037.37,-128.206"/>
<text text-anchor="middle" x="2082" y="-145" font-family="FreeSans" font-size="10.00"> loadPListFile_</text>
</g>
<!-- Node24&#45;&gt;Node23 -->
<g id="edge68" class="edge"><title>Node24&#45;&gt;Node23</title>
<path fill="none" stroke="#9a32cd" stroke-dasharray="5,2" d="M1800.9,-124C1834.72,-124 1877.02,-124 1910.73,-124"/>
<polygon fill="#9a32cd" stroke="#9a32cd" points="1800.7,-120.5 1790.7,-124 1800.7,-127.5 1800.7,-120.5"/>
<text text-anchor="middle" x="1852" y="-128" font-family="FreeSans" font-size="10.00"> ptr_</text>
</g>
<!-- Node25&#45;&gt;Node24 -->
<g id="edge72" class="edge"><title>Node25&#45;&gt;Node24</title>
<path fill="none" stroke="#9a32cd" stroke-dasharray="5,2" d="M1509.8,-88.1001C1557.11,-90.3037 1617.17,-94.8072 1670,-104 1683.04,-106.269 1697.12,-109.905 1709.34,-113.458"/>
<polygon fill="#9a32cd" stroke="#9a32cd" points="1509.74,-84.5943 1499.6,-87.6512 1509.44,-91.5875 1509.74,-84.5943"/>
<text text-anchor="middle" x="1594" y="-108" font-family="FreeSans" font-size="10.00"> root_</text>
</g>
</g>
</svg>
