<?xml version="1.0" encoding="UTF-8" standalone="no"?>
<!DOCTYPE svg PUBLIC "-//W3C//DTD SVG 1.1//EN"
 "http://www.w3.org/Graphics/SVG/1.1/DTD/svg11.dtd">
<!-- Generated by graphviz version 2.26.3 (20100126.1600)
 -->
<!-- Title: Urho3D::Renderer::Update Pages: 1 -->
<!--zoomable 638 -->
<svg id="main" version="1.1" xmlns="http://www.w3.org/2000/svg" xmlns:xlink="http://www.w3.org/1999/xlink" xml:space="preserve" onload="init(evt)">
        <defs>
                <circle id="rim" cx="0" cy="0" r="7"/>
                <circle id="rim2" cx="0" cy="0" r="3.5"/>
                <g id="zoomPlus">
                        <use xlink:href="#rim" fill="#404040">
                                <set attributeName="fill" to="#808080" begin="zoomplus.mouseover" end="zoomplus.mouseout"/>
                        </use>
                        <path d="M-4,0h8M0,-4v8" fill="none" stroke="white" stroke-width="1.5" pointer-events="none"/>
                </g>
                <g id="zoomMin">
                        <use xlink:href="#rim" fill="#404040">
                                <set attributeName="fill" to="#808080" begin="zoomminus.mouseover" end="zoomminus.mouseout"/>
                        </use>
                        <path d="M-4,0h8" fill="none" stroke="white" stroke-width="1.5" pointer-events="none"/>
                </g>
                <g id="dirArrow">
                        <path fill="none" stroke="white" stroke-width="1.5" d="M0,-3.0v7 M-2.5,-0.5L0,-3.0L2.5,-0.5"/>
                </g>
               <g id="resetDef">
                       <use xlink:href="#rim2" fill="#404040">
                               <set attributeName="fill" to="#808080" begin="reset.mouseover" end="reset.mouseout"/>
                       </use>
               </g>
        </defs>

<script type="text/javascript">
var viewWidth = 598;
var viewHeight = 638;
var sectionId = 'dynsection-4';
</script>
<script xlink:href="svgpan.js"/>
<svg id="graph" class="graph">
<g id="viewport">
<title>Urho3D::Renderer::Update</title>
<!-- Node1 -->
<g id="node1" class="node"><title>Node1</title>
<polygon fill="#bfbfbf" stroke="black" points="0.5,-284.5 0.5,-305.5 143.5,-305.5 143.5,-284.5 0.5,-284.5"/>
<text text-anchor="middle" x="72" y="-292.5" font-family="FreeSans" font-size="10.00">Urho3D::Renderer::Update</text>
</g>
<!-- Node2 -->
<g id="node3" class="node"><title>Node2</title>
<a xlink:href="class_urho3_d_1_1_renderer.html#a7091de5f9dcce8312bc85b3342fe1ac2" target="_top" xlink:title="Reload shaders.">
<polygon fill="none" stroke="black" points="185.5,-562.5 185.5,-583.5 356.5,-583.5 356.5,-562.5 185.5,-562.5"/>
<text text-anchor="middle" x="271" y="-570.5" font-family="FreeSans" font-size="10.00">Urho3D::Renderer::LoadShaders</text>
</a>
</g>
<!-- Node1&#45;&gt;Node2 -->
<g id="edge2" class="edge"><title>Node1&#45;&gt;Node2</title>
<path fill="none" stroke="midnightblue" d="M76.234,-305.661C88.871,-336.684 128.649,-428.778 180,-493 199.911,-517.902 228.145,-541.36 247.866,-556.355"/>
<polygon fill="midnightblue" stroke="midnightblue" points="245.9,-559.255 256.007,-562.433 250.088,-553.646 245.9,-559.255"/>
</g>
<!-- Node5 -->
<g id="node9" class="node"><title>Node5</title>
<a xlink:href="class_urho3_d_1_1_renderer.html#a8faee04d4f315f7bb12e54965d79c4f4" target="_top" xlink:title="Queue a viewport for rendering. Null surface means backbuffer.">
<polygon fill="none" stroke="black" points="180.5,-462.5 180.5,-483.5 361.5,-483.5 361.5,-462.5 180.5,-462.5"/>
<text text-anchor="middle" x="271" y="-470.5" font-family="FreeSans" font-size="10.00">Urho3D::Renderer::QueueViewport</text>
</a>
</g>
<!-- Node1&#45;&gt;Node5 -->
<g id="edge8" class="edge"><title>Node1&#45;&gt;Node5</title>
<path fill="none" stroke="midnightblue" d="M76.477,-305.825C88.6548,-333.896 125.183,-409.514 180,-448 186.084,-452.272 192.871,-455.815 199.919,-458.753"/>
<polygon fill="midnightblue" stroke="midnightblue" points="199.059,-462.168 209.652,-462.396 201.514,-455.612 199.059,-462.168"/>
</g>
<!-- Node6 -->
<g id="node11" class="node"><title>Node6</title>
<a xlink:href="class_urho3_d_1_1_object.html#a32020dbf77c196b9777eca479e8abb36" target="_top" xlink:title="Send event to all subscribers.">
<polygon fill="none" stroke="black" points="420,-516.5 420,-537.5 568,-537.5 568,-516.5 420,-516.5"/>
<text text-anchor="middle" x="494" y="-524.5" font-family="FreeSans" font-size="10.00">Urho3D::Object::SendEvent</text>
</a>
</g>
<!-- Node1&#45;&gt;Node6 -->
<g id="edge10" class="edge"><title>Node1&#45;&gt;Node6</title>
<path fill="none" stroke="midnightblue" d="M78.267,-305.703C92.8222,-329.531 131.406,-387.054 180,-415 251.632,-456.196 293.536,-406.73 362,-453 385.899,-469.151 374.098,-490.854 398,-507 401.833,-509.589 405.934,-511.854 410.203,-513.835"/>
<polygon fill="midnightblue" stroke="midnightblue" points="409.196,-517.203 419.777,-517.731 411.834,-510.72 409.196,-517.203"/>
</g>
<!-- Node7 -->
<g id="node13" class="node"><title>Node7</title>
<a xlink:href="class_urho3_d_1_1_weak_ptr.html#ac945a22af2b3a9dedf9c5b5392f42dff" target="_top" xlink:title="Check if the pointer is not null.">
<polygon fill="none" stroke="black" points="201.5,-344.5 201.5,-365.5 340.5,-365.5 340.5,-344.5 201.5,-344.5"/>
<text text-anchor="middle" x="271" y="-352.5" font-family="FreeSans" font-size="10.00">Urho3D::WeakPtr::NotNull</text>
</a>
</g>
<!-- Node1&#45;&gt;Node7 -->
<g id="edge12" class="edge"><title>Node1&#45;&gt;Node7</title>
<path fill="none" stroke="midnightblue" d="M97.4135,-305.55C119.09,-314.271 151.222,-326.552 180,-335 188.777,-337.576 198.116,-339.99 207.341,-342.188"/>
<polygon fill="midnightblue" stroke="midnightblue" points="206.743,-345.642 217.274,-344.485 208.32,-338.822 206.743,-345.642"/>
</g>
<!-- Node8 -->
<g id="node15" class="node"><title>Node8</title>
<a xlink:href="class_urho3_d_1_1_weak_ptr.html#a9f3707fbe1cc49ece4d5e5ea064dbab0" target="_top" xlink:title="Return whether the object has expired. If null pointer, always return true.">
<polygon fill="none" stroke="black" points="201.5,-304.5 201.5,-325.5 340.5,-325.5 340.5,-304.5 201.5,-304.5"/>
<text text-anchor="middle" x="271" y="-312.5" font-family="FreeSans" font-size="10.00">Urho3D::WeakPtr::Expired</text>
</a>
</g>
<!-- Node1&#45;&gt;Node8 -->
<g id="edge14" class="edge"><title>Node1&#45;&gt;Node8</title>
<path fill="none" stroke="midnightblue" d="M143.562,-302.192C159.01,-303.745 175.435,-305.396 191.176,-306.978"/>
<polygon fill="midnightblue" stroke="midnightblue" points="191.104,-310.488 201.404,-308.005 191.805,-303.523 191.104,-310.488"/>
</g>
<!-- Node9 -->
<g id="node17" class="node"><title>Node9</title>
<a xlink:href="class_urho3_d_1_1_view.html#a38bd2f1292778c57fae949c4e271c20d" target="_top" xlink:title="Define with rendertarget and viewport. Return true if successful.">
<polygon fill="none" stroke="red" points="212.5,-264.5 212.5,-285.5 329.5,-285.5 329.5,-264.5 212.5,-264.5"/>
<text text-anchor="middle" x="271" y="-272.5" font-family="FreeSans" font-size="10.00">Urho3D::View::Define</text>
</a>
</g>
<!-- Node1&#45;&gt;Node9 -->
<g id="edge16" class="edge"><title>Node1&#45;&gt;Node9</title>
<path fill="none" stroke="midnightblue" d="M143.562,-287.808C162.736,-285.881 183.417,-283.802 202.425,-281.892"/>
<polygon fill="midnightblue" stroke="midnightblue" points="202.893,-285.363 212.493,-280.88 202.193,-278.398 202.893,-285.363"/>
</g>
<!-- Node20 -->
<g id="node39" class="node"><title>Node20</title>
<a xlink:href="class_urho3_d_1_1_scene.html#ab881efcd27fe757cf1885633c959c36c" target="_top" xlink:title="Return component from the whole scene by ID, or null if not found.">
<polygon fill="none" stroke="black" points="409.5,-40.5 409.5,-61.5 578.5,-61.5 578.5,-40.5 409.5,-40.5"/>
<text text-anchor="middle" x="494" y="-48.5" font-family="FreeSans" font-size="10.00">Urho3D::Scene::GetComponent</text>
</a>
</g>
<!-- Node1&#45;&gt;Node20 -->
<g id="edge42" class="edge"><title>Node1&#45;&gt;Node20</title>
<path fill="none" stroke="midnightblue" d="M97.8834,-284.393C119.574,-275.752 151.481,-263.615 180,-255 259.565,-230.966 302.703,-270.241 362,-212 408.143,-166.679 351.258,-115.703 398,-71 399.311,-69.7461 400.679,-68.5619 402.098,-67.4439"/>
<polygon fill="midnightblue" stroke="midnightblue" points="404.313,-70.1751 410.721,-61.7379 400.45,-64.3373 404.313,-70.1751"/>
</g>
<!-- Node21 -->
<g id="node41" class="node"><title>Node21</title>
<a xlink:href="class_urho3_d_1_1_int_rect.html#a7d8747bfdd710559f3715160beac2872" target="_top" xlink:title="Return size.">
<polygon fill="none" stroke="black" points="435,-0.5 435,-21.5 553,-21.5 553,-0.5 435,-0.5"/>
<text text-anchor="middle" x="494" y="-8.5" font-family="FreeSans" font-size="10.00">Urho3D::IntRect::Size</text>
</a>
</g>
<!-- Node1&#45;&gt;Node21 -->
<g id="edge44" class="edge"><title>Node1&#45;&gt;Node21</title>
<path fill="none" stroke="midnightblue" d="M82.2095,-284.356C100.164,-266.335 139.358,-230.019 180,-212 255.153,-178.681 302.174,-235.383 362,-179 411.265,-132.57 349.344,-78.0666 398,-31 405.511,-23.7344 414.939,-18.8031 424.934,-15.5046"/>
<polygon fill="midnightblue" stroke="midnightblue" points="425.94,-18.8578 434.646,-12.8194 424.074,-12.1109 425.94,-18.8578"/>
</g>
<!-- Node22 -->
<g id="node45" class="node"><title>Node22</title>
<a xlink:href="class_urho3_d_1_1_octree.html#a56ad2ab6941f97453c66625bd8dad9da" target="_top" xlink:title="Update and reinsert drawable objects.">
<polygon fill="none" stroke="red" points="204.5,-384.5 204.5,-405.5 337.5,-405.5 337.5,-384.5 204.5,-384.5"/>
<text text-anchor="middle" x="271" y="-392.5" font-family="FreeSans" font-size="10.00">Urho3D::Octree::Update</text>
</a>
</g>
<!-- Node1&#45;&gt;Node22 -->
<g id="edge46" class="edge"><title>Node1&#45;&gt;Node22</title>
<path fill="none" stroke="midnightblue" d="M82.9477,-305.642C101.383,-322.94 140.495,-357.028 180,-375 185.376,-377.446 191.071,-379.601 196.882,-381.498"/>
<polygon fill="midnightblue" stroke="midnightblue" points="196.155,-384.934 206.739,-384.454 198.166,-378.229 196.155,-384.934"/>
</g>
<!-- Node23 -->
<g id="node48" class="node"><title>Node23</title>
<a xlink:href="class_urho3_d_1_1_debug_renderer.html#a65ddc45de33de57b41a9889fdce2363c" target="_top" xlink:title="Set the camera viewpoint. Call before rendering, or before adding geometry if you want to use culling...">
<polygon fill="none" stroke="red" points="204,-136 204,-170 338,-170 338,-136 204,-136"/>
<text text-anchor="start" x="212" y="-157" font-family="FreeSans" font-size="10.00">Urho3D::DebugRenderer</text>
<text text-anchor="middle" x="271" y="-144" font-family="FreeSans" font-size="10.00">::SetView</text>
</a>
</g>
<!-- Node1&#45;&gt;Node23 -->
<g id="edge50" class="edge"><title>Node1&#45;&gt;Node23</title>
<path fill="none" stroke="midnightblue" d="M79.6761,-284.206C95.8117,-262.266 135.455,-212.159 180,-184 185.782,-180.345 192.045,-177.066 198.487,-174.136"/>
<polygon fill="midnightblue" stroke="midnightblue" points="200.181,-177.219 208.018,-170.089 197.445,-170.776 200.181,-177.219"/>
</g>
<!-- Node24 -->
<g id="node50" class="node"><title>Node24</title>
<a xlink:href="class_urho3_d_1_1_renderer.html#adea49989775cfdab341fd9e1a20b75f4" target="_top" xlink:title="Reset shadow map allocation counts.">
<polygon fill="none" stroke="black" points="185,-84 185,-118 357,-118 357,-84 185,-84"/>
<text text-anchor="start" x="193" y="-105" font-family="FreeSans" font-size="10.00">Urho3D::Renderer::ResetShadow</text>
<text text-anchor="middle" x="271" y="-92" font-family="FreeSans" font-size="10.00">MapAllocations</text>
</a>
</g>
<!-- Node1&#45;&gt;Node24 -->
<g id="edge52" class="edge"><title>Node1&#45;&gt;Node24</title>
<path fill="none" stroke="midnightblue" d="M75.7017,-284.461C86.655,-254.842 121.825,-170.212 180,-127 181.875,-125.607 183.823,-124.288 185.83,-123.04"/>
<polygon fill="midnightblue" stroke="midnightblue" points="187.891,-125.901 194.959,-118.008 184.512,-119.77 187.891,-125.901"/>
</g>
<!-- Node25 -->
<g id="node52" class="node"><title>Node25</title>
<a xlink:href="class_urho3_d_1_1_view.html#a50c3fe5d5c2b3040e13925aa277a8d93" target="_top" xlink:title="Update and cull objects and construct rendering batches.">
<polygon fill="none" stroke="red" points="210,-44.5 210,-65.5 332,-65.5 332,-44.5 210,-44.5"/>
<text text-anchor="middle" x="271" y="-52.5" font-family="FreeSans" font-size="10.00">Urho3D::View::Update</text>
</a>
</g>
<!-- Node1&#45;&gt;Node25 -->
<g id="edge54" class="edge"><title>Node1&#45;&gt;Node25</title>
<path fill="none" stroke="midnightblue" d="M73.8379,-284.474C80.6459,-248.808 107.868,-131.608 180,-75 185.949,-70.3314 192.76,-66.7009 199.92,-63.8851"/>
<polygon fill="midnightblue" stroke="midnightblue" points="201.497,-67.0465 209.851,-60.5294 199.257,-60.4148 201.497,-67.0465"/>
</g>
<!-- Node3 -->
<g id="node5" class="node"><title>Node3</title>
<a xlink:href="class_urho3_d_1_1_renderer.html#ac938d98240b1d9f33201d4aad78c9086" target="_top" xlink:title="Release shaders used in materials.">
<polygon fill="none" stroke="red" points="421.5,-556 421.5,-590 566.5,-590 566.5,-556 421.5,-556"/>
<text text-anchor="start" x="429.5" y="-577" font-family="FreeSans" font-size="10.00">Urho3D::Renderer::Release</text>
<text text-anchor="middle" x="494" y="-564" font-family="FreeSans" font-size="10.00">MaterialShaders</text>
</a>
</g>
<!-- Node2&#45;&gt;Node3 -->
<g id="edge4" class="edge"><title>Node2&#45;&gt;Node3</title>
<path fill="none" stroke="midnightblue" d="M356.58,-573C374.445,-573 393.251,-573 411.02,-573"/>
<polygon fill="midnightblue" stroke="midnightblue" points="411.348,-576.5 421.348,-573 411.348,-569.5 411.348,-576.5"/>
</g>
<!-- Node4 -->
<g id="node7" class="node"><title>Node4</title>
<a xlink:href="class_urho3_d_1_1_vector.html#a5d21ed173348c7bca276c417ed7d38e2" target="_top" xlink:title="Resize the vector.">
<polygon fill="none" stroke="black" points="431,-608.5 431,-629.5 557,-629.5 557,-608.5 431,-608.5"/>
<text text-anchor="middle" x="494" y="-616.5" font-family="FreeSans" font-size="10.00">Urho3D::Vector::Resize</text>
</a>
</g>
<!-- Node2&#45;&gt;Node4 -->
<g id="edge6" class="edge"><title>Node2&#45;&gt;Node4</title>
<path fill="none" stroke="midnightblue" d="M322.161,-583.553C355.165,-590.361 398.262,-599.251 433.039,-606.425"/>
<polygon fill="midnightblue" stroke="midnightblue" points="432.576,-609.903 443.077,-608.496 433.991,-603.048 432.576,-609.903"/>
</g>
<!-- Node10 -->
<g id="node19" class="node"><title>Node10</title>
<a xlink:href="class_urho3_d_1_1_viewport.html#a6fea5c54862fded7dd4c31708cd9c324" target="_top" xlink:title="Return rendering path.">
<polygon fill="none" stroke="black" points="405,-264.5 405,-285.5 583,-285.5 583,-264.5 405,-264.5"/>
<text text-anchor="middle" x="494" y="-272.5" font-family="FreeSans" font-size="10.00">Urho3D::Viewport::GetRenderPath</text>
</a>
</g>
<!-- Node9&#45;&gt;Node10 -->
<g id="edge18" class="edge"><title>Node9&#45;&gt;Node10</title>
<path fill="none" stroke="midnightblue" d="M329.591,-275C349.51,-275 372.362,-275 394.568,-275"/>
<polygon fill="midnightblue" stroke="midnightblue" points="394.713,-278.5 404.713,-275 394.713,-271.5 394.713,-278.5"/>
</g>
<!-- Node11 -->
<g id="node21" class="node"><title>Node11</title>
<a xlink:href="class_urho3_d_1_1_technique.html#a1ccb22ef2367381c00c4564b2d4b9995" target="_top" xlink:title="Return a pass type index by name. Allocate new if not used yet.">
<polygon fill="none" stroke="red" points="437.5,-212 437.5,-246 550.5,-246 550.5,-212 437.5,-212"/>
<text text-anchor="start" x="445.5" y="-233" font-family="FreeSans" font-size="10.00">Urho3D::Technique::</text>
<text text-anchor="middle" x="494" y="-220" font-family="FreeSans" font-size="10.00">GetPassIndex</text>
</a>
</g>
<!-- Node9&#45;&gt;Node11 -->
<g id="edge20" class="edge"><title>Node9&#45;&gt;Node11</title>
<path fill="none" stroke="midnightblue" d="M322.161,-264.447C353.275,-258.028 393.36,-249.76 426.988,-242.823"/>
<polygon fill="midnightblue" stroke="midnightblue" points="428.113,-246.165 437.199,-240.717 426.698,-239.309 428.113,-246.165"/>
</g>
<!-- Node12 -->
<g id="node23" class="node"><title>Node12</title>
<a xlink:href="class_urho3_d_1_1_viewport.html#a695eda72c59939a08b0a764184c43942" target="_top" xlink:title="Return whether to draw debug geometry.">
<polygon fill="none" stroke="black" points="420,-160 420,-194 568,-194 568,-160 420,-160"/>
<text text-anchor="start" x="428" y="-181" font-family="FreeSans" font-size="10.00">Urho3D::Viewport::GetDraw</text>
<text text-anchor="middle" x="494" y="-168" font-family="FreeSans" font-size="10.00">Debug</text>
</a>
</g>
<!-- Node9&#45;&gt;Node12 -->
<g id="edge22" class="edge"><title>Node9&#45;&gt;Node12</title>
<path fill="none" stroke="midnightblue" d="M329.767,-264.882C341.055,-261.314 352.351,-256.497 362,-250 383.825,-235.303 376.148,-217.657 398,-203 402.002,-200.316 406.272,-197.908 410.704,-195.748"/>
<polygon fill="midnightblue" stroke="midnightblue" points="412.256,-198.889 419.996,-191.653 409.434,-192.483 412.256,-198.889"/>
</g>
<!-- Node13 -->
<g id="node25" class="node"><title>Node13</title>
<a xlink:href="class_urho3_d_1_1_string.html#a11572e3c07f60de65ac5d0c1ca5b6ba3" target="_top" xlink:title="Return length.">
<polygon fill="none" stroke="black" points="430.5,-120.5 430.5,-141.5 557.5,-141.5 557.5,-120.5 430.5,-120.5"/>
<text text-anchor="middle" x="494" y="-128.5" font-family="FreeSans" font-size="10.00">Urho3D::String::Length</text>
</a>
</g>
<!-- Node9&#45;&gt;Node13 -->
<g id="edge24" class="edge"><title>Node9&#45;&gt;Node13</title>
<path fill="none" stroke="midnightblue" d="M329.599,-267.675C341.417,-263.927 352.968,-258.332 362,-250 396.414,-218.256 362.608,-181.65 398,-151 404.639,-145.251 412.5,-141.006 420.822,-137.894"/>
<polygon fill="midnightblue" stroke="midnightblue" points="421.913,-141.22 430.372,-134.841 419.781,-134.552 421.913,-141.22"/>
</g>
<!-- Node14 -->
<g id="node27" class="node"><title>Node14</title>
<a xlink:href="class_urho3_d_1_1_string.html#a69ac7aadaa628fc05fc96abde992fcdc" target="_top" xlink:title="Return whether the string is empty.">
<polygon fill="none" stroke="black" points="431.5,-80.5 431.5,-101.5 556.5,-101.5 556.5,-80.5 431.5,-80.5"/>
<text text-anchor="middle" x="494" y="-88.5" font-family="FreeSans" font-size="10.00">Urho3D::String::Empty</text>
</a>
</g>
<!-- Node9&#45;&gt;Node14 -->
<g id="edge26" class="edge"><title>Node9&#45;&gt;Node14</title>
<path fill="none" stroke="midnightblue" d="M329.739,-268.456C341.689,-264.676 353.26,-258.869 362,-250 406.792,-204.545 351.805,-155.028 398,-111 404.697,-104.617 412.877,-100.043 421.608,-96.7968"/>
<polygon fill="midnightblue" stroke="midnightblue" points="422.759,-100.104 431.255,-93.7734 420.666,-93.4244 422.759,-100.104"/>
</g>
<!-- Node15 -->
<g id="node29" class="node"><title>Node15</title>
<a xlink:href="class_urho3_d_1_1_viewport.html#a1f8680824d6d5fbb4aee0894af8eca7a" target="_top" xlink:title="Return scene.">
<polygon fill="none" stroke="black" points="417,-476.5 417,-497.5 571,-497.5 571,-476.5 417,-476.5"/>
<text text-anchor="middle" x="494" y="-484.5" font-family="FreeSans" font-size="10.00">Urho3D::Viewport::GetScene</text>
</a>
</g>
<!-- Node9&#45;&gt;Node15 -->
<g id="edge28" class="edge"><title>Node9&#45;&gt;Node15</title>
<path fill="none" stroke="midnightblue" d="M329.873,-277.801C341.817,-280.952 353.351,-286.264 362,-295 416.948,-350.502 342.749,-411.8 398,-467 401.049,-470.046 404.433,-472.685 408.057,-474.968"/>
<polygon fill="midnightblue" stroke="midnightblue" points="406.429,-478.066 416.901,-479.672 409.716,-471.886 406.429,-478.066"/>
</g>
<!-- Node16 -->
<g id="node31" class="node"><title>Node16</title>
<a xlink:href="class_urho3_d_1_1_viewport.html#aa09a004f072d387b6c57474f3b2229a7" target="_top" xlink:title="Return camera.">
<polygon fill="none" stroke="black" points="413,-436.5 413,-457.5 575,-457.5 575,-436.5 413,-436.5"/>
<text text-anchor="middle" x="494" y="-444.5" font-family="FreeSans" font-size="10.00">Urho3D::Viewport::GetCamera</text>
</a>
</g>
<!-- Node9&#45;&gt;Node16 -->
<g id="edge30" class="edge"><title>Node9&#45;&gt;Node16</title>
<path fill="none" stroke="midnightblue" d="M329.963,-278.316C341.76,-281.459 353.21,-286.638 362,-295 406.058,-336.912 353.713,-385.329 398,-427 399.899,-428.786 401.913,-430.431 404.024,-431.943"/>
<polygon fill="midnightblue" stroke="midnightblue" points="402.231,-434.949 412.595,-437.148 405.864,-428.966 402.231,-434.949"/>
</g>
<!-- Node17 -->
<g id="node33" class="node"><title>Node17</title>
<a xlink:href="class_urho3_d_1_1_component.html#a73cc05aee9060f5618ea1ef72668ba01" target="_top" xlink:title="Return whether is effectively enabled (node is also enabled.)">
<polygon fill="none" stroke="red" points="433,-384 433,-418 555,-418 555,-384 433,-384"/>
<text text-anchor="start" x="441" y="-405" font-family="FreeSans" font-size="10.00">Urho3D::Component::</text>
<text text-anchor="middle" x="494" y="-392" font-family="FreeSans" font-size="10.00">IsEnabledEffective</text>
</a>
</g>
<!-- Node9&#45;&gt;Node17 -->
<g id="edge32" class="edge"><title>Node9&#45;&gt;Node17</title>
<path fill="none" stroke="midnightblue" d="M329.97,-279.636C341.496,-282.73 352.834,-287.555 362,-295 392.265,-319.581 368.336,-349.697 398,-375 405.313,-381.238 413.984,-385.992 423.078,-389.613"/>
<polygon fill="midnightblue" stroke="midnightblue" points="422.073,-392.97 432.667,-392.991 424.398,-386.367 422.073,-392.97"/>
</g>
<!-- Node18 -->
<g id="node35" class="node"><title>Node18</title>
<a xlink:href="class_urho3_d_1_1_scene.html#abb2996951ef1c7e92e5b4745ec198617" target="_top" xlink:title="Return whether an asynchronous loading operation is in progress.">
<polygon fill="none" stroke="black" points="409.5,-344.5 409.5,-365.5 578.5,-365.5 578.5,-344.5 409.5,-344.5"/>
<text text-anchor="middle" x="494" y="-352.5" font-family="FreeSans" font-size="10.00">Urho3D::Scene::IsAsyncLoading</text>
</a>
</g>
<!-- Node9&#45;&gt;Node18 -->
<g id="edge34" class="edge"><title>Node9&#45;&gt;Node18</title>
<path fill="none" stroke="midnightblue" d="M329.812,-282.31C340.976,-285.227 352.214,-289.304 362,-295 382.67,-307.032 377.264,-323.081 398,-335 401.736,-337.148 405.672,-339.066 409.731,-340.779"/>
<polygon fill="midnightblue" stroke="midnightblue" points="408.801,-344.169 419.392,-344.417 411.267,-337.618 408.801,-344.169"/>
</g>
<!-- Node19 -->
<g id="node37" class="node"><title>Node19</title>
<a xlink:href="class_urho3_d_1_1_scene.html#aa4caa63f25045cca835ad6ab8c51fb35" target="_top" xlink:title="Return the load mode of the current asynchronous loading operation.">
<polygon fill="none" stroke="black" points="398.5,-304.5 398.5,-325.5 589.5,-325.5 589.5,-304.5 398.5,-304.5"/>
<text text-anchor="middle" x="494" y="-312.5" font-family="FreeSans" font-size="10.00">Urho3D::Scene::GetAsyncLoadMode</text>
</a>
</g>
<!-- Node9&#45;&gt;Node19 -->
<g id="edge36" class="edge"><title>Node9&#45;&gt;Node19</title>
<path fill="none" stroke="midnightblue" d="M329.591,-285.51C358.923,-290.771 394.615,-297.173 425.239,-302.666"/>
<polygon fill="midnightblue" stroke="midnightblue" points="424.953,-306.171 435.414,-304.491 426.189,-299.281 424.953,-306.171"/>
</g>
<!-- Node9&#45;&gt;Node20 -->
<g id="edge38" class="edge"><title>Node9&#45;&gt;Node20</title>
<path fill="none" stroke="midnightblue" d="M329.634,-268.956C341.734,-265.163 353.395,-259.226 362,-250 417.348,-190.656 340.818,-128.579 398,-71 399.278,-69.7128 400.617,-68.498 402.008,-67.352"/>
<polygon fill="midnightblue" stroke="midnightblue" points="404.243,-70.0626 410.5,-61.5131 400.277,-64.2943 404.243,-70.0626"/>
</g>
<!-- Node9&#45;&gt;Node21 -->
<g id="edge40" class="edge"><title>Node9&#45;&gt;Node21</title>
<path fill="none" stroke="midnightblue" d="M295.919,-264.345C316.898,-254.05 345.974,-236.418 362,-212 407.003,-143.429 340.266,-89.2592 398,-31 405.447,-23.4856 414.935,-18.4408 425.034,-15.1095"/>
<polygon fill="midnightblue" stroke="midnightblue" points="426.139,-18.4357 434.858,-12.4158 424.288,-11.6849 426.139,-18.4357"/>
</g>
<!-- Node22&#45;&gt;Node6 -->
<g id="edge48" class="edge"><title>Node22&#45;&gt;Node6</title>
<path fill="none" stroke="midnightblue" d="M337.784,-405.629C346.605,-409.151 354.999,-413.819 362,-420 393.37,-447.696 365.778,-480.301 398,-507 401.814,-510.16 406.001,-512.86 410.427,-515.164"/>
<polygon fill="midnightblue" stroke="midnightblue" points="409.247,-518.471 419.804,-519.357 412.104,-512.08 409.247,-518.471"/>
</g>
</g>
</svg>
        <g id="navigator" transform="translate(0 0)" fill="#404254">
                <rect fill="#f2f5e9" fill-opacity="0.5" stroke="#606060" stroke-width=".5" x="0" y="0" width="60" height="60"/>
                <use id="zoomplus" xlink:href="#zoomPlus" x="17" y="9" onmousedown="handleZoom(evt,'in')"/>
                <use id="zoomminus" xlink:href="#zoomMin" x="42" y="9" onmousedown="handleZoom(evt,'out')"/>
                <use id="reset" xlink:href="#resetDef" x="30" y="36" onmousedown="handleReset()"/>
                <g id="arrowUp" xlink:href="#dirArrow" transform="translate(30 24)" onmousedown="handlePan(0,-1)">
                  <use xlink:href="#rim" fill="#404040">
                        <set attributeName="fill" to="#808080" begin="arrowUp.mouseover" end="arrowUp.mouseout"/>
                  </use>
                  <path fill="none" stroke="white" stroke-width="1.5" d="M0,-3.0v7 M-2.5,-0.5L0,-3.0L2.5,-0.5"/>
                </g>
                <g id="arrowRight" xlink:href="#dirArrow" transform="rotate(90) translate(36 -43)" onmousedown="handlePan(1,0)">
                  <use xlink:href="#rim" fill="#404040">
                        <set attributeName="fill" to="#808080" begin="arrowRight.mouseover" end="arrowRight.mouseout"/>
                  </use>
                  <path fill="none" stroke="white" stroke-width="1.5" d="M0,-3.0v7 M-2.5,-0.5L0,-3.0L2.5,-0.5"/>
                </g>
                <g id="arrowDown" xlink:href="#dirArrow" transform="rotate(180) translate(-30 -48)" onmousedown="handlePan(0,1)">
                  <use xlink:href="#rim" fill="#404040">
                        <set attributeName="fill" to="#808080" begin="arrowDown.mouseover" end="arrowDown.mouseout"/>
                  </use>
                  <path fill="none" stroke="white" stroke-width="1.5" d="M0,-3.0v7 M-2.5,-0.5L0,-3.0L2.5,-0.5"/>
                </g>
                <g id="arrowLeft" xlink:href="#dirArrow" transform="rotate(270) translate(-36 17)" onmousedown="handlePan(-1,0)">
                  <use xlink:href="#rim" fill="#404040">
                        <set attributeName="fill" to="#808080" begin="arrowLeft.mouseover" end="arrowLeft.mouseout"/>
                  </use>
                  <path fill="none" stroke="white" stroke-width="1.5" d="M0,-3.0v7 M-2.5,-0.5L0,-3.0L2.5,-0.5"/>
                </g>
        </g>
        <svg viewBox="0 0 15 15" width="100%" height="30px" preserveAspectRatio="xMaxYMin meet">
         <g id="arrow_out" transform="scale(0.3 0.3)">
          <a xlink:href="class_urho3_d_1_1_renderer_a993f63f35d27a9ea6df861962018f354_cgraph_org.svg" target="_base">
           <rect id="button" ry="5" rx="5" y="6" x="6" height="38" width="38"
                fill="#f2f5e9" fill-opacity="0.5" stroke="#606060" stroke-width="1.0"/>
           <path id="arrow"
             d="M 11.500037,31.436501 C 11.940474,20.09759 22.043105,11.32322 32.158766,21.979434 L 37.068811,17.246167 C 37.068811,17.246167 37.088388,32 37.088388,32 L 22.160133,31.978069 C 22.160133,31.978069 26.997745,27.140456 26.997745,27.140456 C 18.528582,18.264221 13.291696,25.230495 11.500037,31.436501 z"
             style="fill:#404040;"/>
          </a>
         </g>
        </svg>
</svg>
