<?xml version="1.0" encoding="UTF-8" standalone="no"?>
<!DOCTYPE svg PUBLIC "-//W3C//DTD SVG 1.1//EN"
 "http://www.w3.org/Graphics/SVG/1.1/DTD/svg11.dtd">
<!-- Generated by graphviz version 2.26.3 (20100126.1600)
 -->
<!-- Title: Urho3D::RefCounted Pages: 1 -->
<!--zoomable 910 -->
<svg id="main" version="1.1" xmlns="http://www.w3.org/2000/svg" xmlns:xlink="http://www.w3.org/1999/xlink" xml:space="preserve" onload="init(evt)">
        <defs>
                <circle id="rim" cx="0" cy="0" r="7"/>
                <circle id="rim2" cx="0" cy="0" r="3.5"/>
                <g id="zoomPlus">
                        <use xlink:href="#rim" fill="#404040">
                                <set attributeName="fill" to="#808080" begin="zoomplus.mouseover" end="zoomplus.mouseout"/>
                        </use>
                        <path d="M-4,0h8M0,-4v8" fill="none" stroke="white" stroke-width="1.5" pointer-events="none"/>
                </g>
                <g id="zoomMin">
                        <use xlink:href="#rim" fill="#404040">
                                <set attributeName="fill" to="#808080" begin="zoomminus.mouseover" end="zoomminus.mouseout"/>
                        </use>
                        <path d="M-4,0h8" fill="none" stroke="white" stroke-width="1.5" pointer-events="none"/>
                </g>
                <g id="dirArrow">
                        <path fill="none" stroke="white" stroke-width="1.5" d="M0,-3.0v7 M-2.5,-0.5L0,-3.0L2.5,-0.5"/>
                </g>
               <g id="resetDef">
                       <use xlink:href="#rim2" fill="#404040">
                               <set attributeName="fill" to="#808080" begin="reset.mouseover" end="reset.mouseout"/>
                       </use>
               </g>
        </defs>

<script type="text/javascript">
var viewWidth = 328;
var viewHeight = 910;
var sectionId = 'dynsection-0';
</script>
<script xlink:href="svgpan.js"/>
<svg id="graph" class="graph">
<g id="viewport">
<title>Urho3D::RefCounted</title>
<!-- Node1 -->
<g id="node1" class="node"><title>Node1</title>
<polygon fill="#bfbfbf" stroke="black" points="0,-440.5 0,-461.5 114,-461.5 114,-440.5 0,-440.5"/>
<text text-anchor="middle" x="57" y="-448.5" font-family="FreeSans" font-size="10.00">Urho3D::RefCounted</text>
</g>
<!-- Node2 -->
<g id="node3" class="node"><title>Node2</title>
<a xlink:href="class_urho3_d_1_1_animation_state.html" target="_top" xlink:title="Animation instance.">
<polygon fill="none" stroke="black" points="168,-880.5 168,-901.5 302,-901.5 302,-880.5 168,-880.5"/>
<text text-anchor="middle" x="235" y="-888.5" font-family="FreeSans" font-size="10.00">Urho3D::AnimationState</text>
</a>
</g>
<!-- Node1&#45;&gt;Node2 -->
<g id="edge2" class="edge"><title>Node1&#45;&gt;Node2</title>
<path fill="none" stroke="midnightblue" d="M58.7318,-471.875C65.5112,-548.521 92.7419,-812.982 150,-871 155.111,-876.179 161.294,-880.119 167.967,-883.103"/>
<polygon fill="midnightblue" stroke="midnightblue" points="62.193,-471.272 57.8482,-461.609 55.2188,-471.872 62.193,-471.272"/>
</g>
<!-- Node3 -->
<g id="node5" class="node"><title>Node3</title>
<a xlink:href="class_urho3_d_1_1_attribute_accessor.html" target="_top" xlink:title="Abstract base class for invoking attribute accessors.">
<polygon fill="none" stroke="red" points="162.5,-840.5 162.5,-861.5 307.5,-861.5 307.5,-840.5 162.5,-840.5"/>
<text text-anchor="middle" x="235" y="-848.5" font-family="FreeSans" font-size="10.00">Urho3D::AttributeAccessor</text>
</a>
</g>
<!-- Node1&#45;&gt;Node3 -->
<g id="edge4" class="edge"><title>Node1&#45;&gt;Node3</title>
<path fill="none" stroke="midnightblue" d="M59.2382,-471.73C67.3923,-543.418 97.799,-779.263 150,-831 153.769,-834.735 158.096,-837.823 162.758,-840.37"/>
<polygon fill="midnightblue" stroke="midnightblue" points="62.7052,-471.239 58.1206,-461.687 55.7482,-472.013 62.7052,-471.239"/>
</g>
<!-- Node4 -->
<g id="node7" class="node"><title>Node4</title>
<a xlink:href="class_urho3_d_1_1_background_loader.html" target="_top" xlink:title="Background loader of resources. Owned by the ResourceCache.">
<polygon fill="none" stroke="black" points="160.5,-800.5 160.5,-821.5 309.5,-821.5 309.5,-800.5 160.5,-800.5"/>
<text text-anchor="middle" x="235" y="-808.5" font-family="FreeSans" font-size="10.00">Urho3D::BackgroundLoader</text>
</a>
</g>
<!-- Node1&#45;&gt;Node4 -->
<g id="edge6" class="edge"><title>Node1&#45;&gt;Node4</title>
<path fill="none" stroke="midnightblue" d="M59.8677,-471.675C69.5142,-538.274 102.85,-745.513 150,-791 153.928,-794.789 158.432,-797.908 163.272,-800.471"/>
<polygon fill="midnightblue" stroke="midnightblue" points="63.3062,-470.995 58.4332,-461.587 56.376,-471.98 63.3062,-470.995"/>
</g>
<!-- Node5 -->
<g id="node9" class="node"><title>Node5</title>
<a xlink:href="struct_urho3_d_1_1_collision_geometry_data.html" target="_top" xlink:title="Base class for collision shape geometry data.">
<polygon fill="none" stroke="red" points="150,-760.5 150,-781.5 320,-781.5 320,-760.5 150,-760.5"/>
<text text-anchor="middle" x="235" y="-768.5" font-family="FreeSans" font-size="10.00">Urho3D::CollisionGeometryData</text>
</a>
</g>
<!-- Node1&#45;&gt;Node5 -->
<g id="edge8" class="edge"><title>Node1&#45;&gt;Node5</title>
<path fill="none" stroke="midnightblue" d="M60.6556,-471.612C71.9148,-532.819 107.864,-711.696 150,-751 153.991,-754.723 158.54,-757.794 163.412,-760.323"/>
<polygon fill="midnightblue" stroke="midnightblue" points="64.0708,-470.828 58.8447,-461.612 57.1829,-472.076 64.0708,-470.828"/>
</g>
<!-- Node6 -->
<g id="node11" class="node"><title>Node6</title>
<a xlink:href="class_urho3_d_1_1_context.html" target="_top" xlink:title="Urho3D execution context. Provides access to subsystems, object factories and attributes, and event receivers.">
<polygon fill="none" stroke="black" points="186.5,-720.5 186.5,-741.5 283.5,-741.5 283.5,-720.5 186.5,-720.5"/>
<text text-anchor="middle" x="235" y="-728.5" font-family="FreeSans" font-size="10.00">Urho3D::Context</text>
</a>
</g>
<!-- Node1&#45;&gt;Node6 -->
<g id="edge10" class="edge"><title>Node1&#45;&gt;Node6</title>
<path fill="none" stroke="midnightblue" d="M57.9914,-471.692C61.5184,-521.023 77.5326,-646.254 150,-711 159.948,-719.888 173.101,-725.029 186.08,-727.949"/>
<polygon fill="midnightblue" stroke="midnightblue" points="61.4788,-471.377 57.3737,-461.61 54.4919,-471.805 61.4788,-471.377"/>
</g>
<!-- Node7 -->
<g id="node13" class="node"><title>Node7</title>
<a xlink:href="class_urho3_d_1_1_font_face.html" target="_top" xlink:title="Font face description.">
<polygon fill="none" stroke="red" points="184,-680.5 184,-701.5 286,-701.5 286,-680.5 184,-680.5"/>
<text text-anchor="middle" x="235" y="-688.5" font-family="FreeSans" font-size="10.00">Urho3D::FontFace</text>
</a>
</g>
<!-- Node1&#45;&gt;Node7 -->
<g id="edge12" class="edge"><title>Node1&#45;&gt;Node7</title>
<path fill="none" stroke="midnightblue" d="M59.517,-471.751C65.982,-515.625 87.3232,-618.104 150,-671 159.5,-679.018 171.635,-683.951 183.743,-686.953"/>
<polygon fill="midnightblue" stroke="midnightblue" points="62.9654,-471.134 58.1494,-461.697 56.0293,-472.077 62.9654,-471.134"/>
</g>
<!-- Node8 -->
<g id="node15" class="node"><title>Node8</title>
<a xlink:href="class_urho3_d_1_1_http_request.html" target="_top" xlink:title="An HTTP connection with response data stream.">
<polygon fill="none" stroke="black" points="175.5,-640.5 175.5,-661.5 294.5,-661.5 294.5,-640.5 175.5,-640.5"/>
<text text-anchor="middle" x="235" y="-648.5" font-family="FreeSans" font-size="10.00">Urho3D::HttpRequest</text>
</a>
</g>
<!-- Node1&#45;&gt;Node8 -->
<g id="edge14" class="edge"><title>Node1&#45;&gt;Node8</title>
<path fill="none" stroke="midnightblue" d="M61.6771,-471.849C71.2958,-509.706 96.9918,-589.648 150,-631 157.411,-636.781 166.218,-640.935 175.31,-643.911"/>
<polygon fill="midnightblue" stroke="midnightblue" points="65.0356,-470.846 59.2878,-461.946 58.2308,-472.488 65.0356,-470.846"/>
</g>
<!-- Node9 -->
<g id="node17" class="node"><title>Node9</title>
<a xlink:href="class_urho3_d_1_1_lua_function.html" target="_top" xlink:title="C++ representation of Lua function object.">
<polygon fill="none" stroke="black" points="177,-600.5 177,-621.5 293,-621.5 293,-600.5 177,-600.5"/>
<text text-anchor="middle" x="235" y="-608.5" font-family="FreeSans" font-size="10.00">Urho3D::LuaFunction</text>
</a>
</g>
<!-- Node1&#45;&gt;Node9 -->
<g id="edge16" class="edge"><title>Node1&#45;&gt;Node9</title>
<path fill="none" stroke="midnightblue" d="M64.6214,-471.079C77.3883,-501.89 106.096,-560.461 150,-591 157.965,-596.54 167.26,-600.561 176.722,-603.474"/>
<polygon fill="midnightblue" stroke="midnightblue" points="67.8645,-469.763 60.9039,-461.775 61.3642,-472.36 67.8645,-469.763"/>
</g>
<!-- Node10 -->
<g id="node19" class="node"><title>Node10</title>
<a xlink:href="class_urho3_d_1_1_object.html" target="_top" xlink:title="Base class for objects with type identification, subsystem access and event sending/receiving capabil...">
<polygon fill="none" stroke="red" points="190,-560.5 190,-581.5 280,-581.5 280,-560.5 190,-560.5"/>
<text text-anchor="middle" x="235" y="-568.5" font-family="FreeSans" font-size="10.00">Urho3D::Object</text>
</a>
</g>
<!-- Node1&#45;&gt;Node10 -->
<g id="edge18" class="edge"><title>Node1&#45;&gt;Node10</title>
<path fill="none" stroke="midnightblue" d="M69.4937,-470.214C85.3983,-493.073 115.047,-530.691 150,-551 162.059,-558.007 176.429,-562.561 189.89,-565.52"/>
<polygon fill="midnightblue" stroke="midnightblue" points="72.2281,-468.009 63.7246,-461.689 66.4309,-471.933 72.2281,-468.009"/>
</g>
<!-- Node11 -->
<g id="node21" class="node"><title>Node11</title>
<a xlink:href="class_urho3_d_1_1_object_factory.html" target="_top" xlink:title="Base class for object factories.">
<polygon fill="none" stroke="red" points="172.5,-520.5 172.5,-541.5 297.5,-541.5 297.5,-520.5 172.5,-520.5"/>
<text text-anchor="middle" x="235" y="-528.5" font-family="FreeSans" font-size="10.00">Urho3D::ObjectFactory</text>
</a>
</g>
<!-- Node1&#45;&gt;Node11 -->
<g id="edge20" class="edge"><title>Node1&#45;&gt;Node11</title>
<path fill="none" stroke="midnightblue" d="M78.4709,-467.902C96.5907,-481.391 123.711,-499.822 150,-511 158.789,-514.737 168.4,-517.846 177.896,-520.41"/>
<polygon fill="midnightblue" stroke="midnightblue" points="80.4229,-464.989 70.3419,-461.73 76.19,-470.564 80.4229,-464.989"/>
</g>
<!-- Node12 -->
<g id="node23" class="node"><title>Node12</title>
<a xlink:href="class_urho3_d_1_1_pass.html" target="_top" xlink:title="Material rendering pass, which defines shaders and render state.">
<polygon fill="none" stroke="black" points="194.5,-480.5 194.5,-501.5 275.5,-501.5 275.5,-480.5 194.5,-480.5"/>
<text text-anchor="middle" x="235" y="-488.5" font-family="FreeSans" font-size="10.00">Urho3D::Pass</text>
</a>
</g>
<!-- Node1&#45;&gt;Node12 -->
<g id="edge22" class="edge"><title>Node1&#45;&gt;Node12</title>
<path fill="none" stroke="midnightblue" d="M113.583,-463.715C139.809,-469.609 170.385,-476.48 194.292,-481.852"/>
<polygon fill="midnightblue" stroke="midnightblue" points="114.291,-460.287 103.767,-461.51 112.757,-467.117 114.291,-460.287"/>
</g>
<!-- Node13 -->
<g id="node25" class="node"><title>Node13</title>
<a xlink:href="class_urho3_d_1_1_property_set2_d.html" target="_top" xlink:title="Property set.">
<polygon fill="none" stroke="black" points="170,-440.5 170,-461.5 300,-461.5 300,-440.5 170,-440.5"/>
<text text-anchor="middle" x="235" y="-448.5" font-family="FreeSans" font-size="10.00">Urho3D::PropertySet2D</text>
</a>
</g>
<!-- Node1&#45;&gt;Node13 -->
<g id="edge24" class="edge"><title>Node1&#45;&gt;Node13</title>
<path fill="none" stroke="midnightblue" d="M124.428,-451C139.285,-451 154.997,-451 169.766,-451"/>
<polygon fill="midnightblue" stroke="midnightblue" points="124.3,-447.5 114.3,-451 124.3,-454.5 124.3,-447.5"/>
</g>
<!-- Node14 -->
<g id="node27" class="node"><title>Node14</title>
<a xlink:href="class_urho3_d_1_1_render_path.html" target="_top" xlink:title="Rendering path definition.">
<polygon fill="none" stroke="black" points="178.5,-400.5 178.5,-421.5 291.5,-421.5 291.5,-400.5 178.5,-400.5"/>
<text text-anchor="middle" x="235" y="-408.5" font-family="FreeSans" font-size="10.00">Urho3D::RenderPath</text>
</a>
</g>
<!-- Node1&#45;&gt;Node14 -->
<g id="edge26" class="edge"><title>Node1&#45;&gt;Node14</title>
<path fill="none" stroke="midnightblue" d="M113.81,-438.234C137.817,-432.839 165.434,-426.633 188.236,-421.509"/>
<polygon fill="midnightblue" stroke="midnightblue" points="112.757,-434.883 103.767,-440.49 114.291,-441.713 112.757,-434.883"/>
</g>
<!-- Node15 -->
<g id="node29" class="node"><title>Node15</title>
<a xlink:href="class_urho3_d_1_1_render_surface.html" target="_top" xlink:title="Color or depth&#45;stencil surface that can be rendered into.">
<polygon fill="none" stroke="black" points="170.5,-360.5 170.5,-381.5 299.5,-381.5 299.5,-360.5 170.5,-360.5"/>
<text text-anchor="middle" x="235" y="-368.5" font-family="FreeSans" font-size="10.00">Urho3D::RenderSurface</text>
</a>
</g>
<!-- Node1&#45;&gt;Node15 -->
<g id="edge28" class="edge"><title>Node1&#45;&gt;Node15</title>
<path fill="none" stroke="midnightblue" d="M78.4709,-434.098C96.5907,-420.609 123.711,-402.178 150,-391 158.789,-387.263 168.4,-384.154 177.896,-381.59"/>
<polygon fill="midnightblue" stroke="midnightblue" points="76.19,-431.436 70.3419,-440.27 80.4229,-437.011 76.19,-431.436"/>
</g>
<!-- Node16 -->
<g id="node31" class="node"><title>Node16</title>
<a xlink:href="class_urho3_d_1_1_shader_program.html" target="_top" xlink:title="Linked shader program on the GPU.">
<polygon fill="none" stroke="black" points="167.5,-320.5 167.5,-341.5 302.5,-341.5 302.5,-320.5 167.5,-320.5"/>
<text text-anchor="middle" x="235" y="-328.5" font-family="FreeSans" font-size="10.00">Urho3D::ShaderProgram</text>
</a>
</g>
<!-- Node1&#45;&gt;Node16 -->
<g id="edge30" class="edge"><title>Node1&#45;&gt;Node16</title>
<path fill="none" stroke="midnightblue" d="M69.4937,-431.786C85.3983,-408.927 115.047,-371.309 150,-351 156.554,-347.192 163.79,-344.108 171.192,-341.612"/>
<polygon fill="midnightblue" stroke="midnightblue" points="66.4309,-430.067 63.7246,-440.311 72.2281,-433.991 66.4309,-430.067"/>
</g>
<!-- Node17 -->
<g id="node33" class="node"><title>Node17</title>
<a xlink:href="class_urho3_d_1_1_shader_variation.html" target="_top" xlink:title="Vertex or pixel shader on the GPU.">
<polygon fill="none" stroke="black" points="167,-280.5 167,-301.5 303,-301.5 303,-280.5 167,-280.5"/>
<text text-anchor="middle" x="235" y="-288.5" font-family="FreeSans" font-size="10.00">Urho3D::ShaderVariation</text>
</a>
</g>
<!-- Node1&#45;&gt;Node17 -->
<g id="edge32" class="edge"><title>Node1&#45;&gt;Node17</title>
<path fill="none" stroke="midnightblue" d="M64.6214,-430.921C77.3883,-400.11 106.096,-341.539 150,-311 155.476,-307.191 161.58,-304.1 167.936,-301.594"/>
<polygon fill="midnightblue" stroke="midnightblue" points="61.3642,-429.64 60.9039,-440.225 67.8645,-432.237 61.3642,-429.64"/>
</g>
<!-- Node18 -->
<g id="node35" class="node"><title>Node18</title>
<a xlink:href="class_urho3_d_1_1_sound_stream.html" target="_top" xlink:title="Base class for sound streams.">
<polygon fill="none" stroke="red" points="172,-240.5 172,-261.5 298,-261.5 298,-240.5 172,-240.5"/>
<text text-anchor="middle" x="235" y="-248.5" font-family="FreeSans" font-size="10.00">Urho3D::SoundStream</text>
</a>
</g>
<!-- Node1&#45;&gt;Node18 -->
<g id="edge34" class="edge"><title>Node1&#45;&gt;Node18</title>
<path fill="none" stroke="midnightblue" d="M61.6771,-430.151C71.2958,-392.294 96.9918,-312.352 150,-271 156.455,-265.965 163.968,-262.164 171.807,-259.3"/>
<polygon fill="midnightblue" stroke="midnightblue" points="58.2308,-429.512 59.2878,-440.054 65.0356,-431.154 58.2308,-429.512"/>
</g>
<!-- Node19 -->
<g id="node37" class="node"><title>Node19</title>
<a xlink:href="class_urho3_d_1_1_tile2_d.html" target="_top" xlink:title="Tile define.">
<polygon fill="none" stroke="black" points="190.5,-200.5 190.5,-221.5 279.5,-221.5 279.5,-200.5 190.5,-200.5"/>
<text text-anchor="middle" x="235" y="-208.5" font-family="FreeSans" font-size="10.00">Urho3D::Tile2D</text>
</a>
</g>
<!-- Node1&#45;&gt;Node19 -->
<g id="edge36" class="edge"><title>Node1&#45;&gt;Node19</title>
<path fill="none" stroke="midnightblue" d="M59.517,-430.249C65.982,-386.375 87.3232,-283.896 150,-231 161.238,-221.516 176.163,-216.347 190.368,-213.586"/>
<polygon fill="midnightblue" stroke="midnightblue" points="56.0293,-429.923 58.1494,-440.303 62.9654,-430.866 56.0293,-429.923"/>
</g>
<!-- Node20 -->
<g id="node39" class="node"><title>Node20</title>
<a xlink:href="class_urho3_d_1_1_tile_map_object2_d.html" target="_top" xlink:title="Tile map object.">
<polygon fill="none" stroke="black" points="165,-160.5 165,-181.5 305,-181.5 305,-160.5 165,-160.5"/>
<text text-anchor="middle" x="235" y="-168.5" font-family="FreeSans" font-size="10.00">Urho3D::TileMapObject2D</text>
</a>
</g>
<!-- Node1&#45;&gt;Node20 -->
<g id="edge38" class="edge"><title>Node1&#45;&gt;Node20</title>
<path fill="none" stroke="midnightblue" d="M57.9914,-430.308C61.5184,-380.977 77.5326,-255.746 150,-191 154.409,-187.061 159.447,-183.858 164.821,-181.258"/>
<polygon fill="midnightblue" stroke="midnightblue" points="54.4919,-430.195 57.3737,-440.39 61.4788,-430.623 54.4919,-430.195"/>
</g>
<!-- Node21 -->
<g id="node41" class="node"><title>Node21</title>
<a xlink:href="class_urho3_d_1_1_tmx_layer2_d.html" target="_top" xlink:title="Tmx layer.">
<polygon fill="none" stroke="red" points="175.5,-120.5 175.5,-141.5 294.5,-141.5 294.5,-120.5 175.5,-120.5"/>
<text text-anchor="middle" x="235" y="-128.5" font-family="FreeSans" font-size="10.00">Urho3D::TmxLayer2D</text>
</a>
</g>
<!-- Node1&#45;&gt;Node21 -->
<g id="edge40" class="edge"><title>Node1&#45;&gt;Node21</title>
<path fill="none" stroke="midnightblue" d="M60.6556,-430.388C71.9148,-369.181 107.864,-190.304 150,-151 157.095,-144.382 165.955,-139.823 175.254,-136.707"/>
<polygon fill="midnightblue" stroke="midnightblue" points="57.1829,-429.924 58.8447,-440.388 64.0708,-431.172 57.1829,-429.924"/>
</g>
<!-- Node22 -->
<g id="node43" class="node"><title>Node22</title>
<a xlink:href="class_urho3_d_1_1_value_animation_info.html" target="_top" xlink:title="Base class for a value animation instance, which includes animation runtime information and updates t...">
<polygon fill="none" stroke="red" points="159,-80.5 159,-101.5 311,-101.5 311,-80.5 159,-80.5"/>
<text text-anchor="middle" x="235" y="-88.5" font-family="FreeSans" font-size="10.00">Urho3D::ValueAnimationInfo</text>
</a>
</g>
<!-- Node1&#45;&gt;Node22 -->
<g id="edge42" class="edge"><title>Node1&#45;&gt;Node22</title>
<path fill="none" stroke="midnightblue" d="M59.8677,-430.325C69.5142,-363.726 102.85,-156.487 150,-111 153.928,-107.211 158.432,-104.092 163.272,-101.529"/>
<polygon fill="midnightblue" stroke="midnightblue" points="56.376,-430.02 58.4332,-440.413 63.3062,-431.005 56.376,-430.02"/>
</g>
<!-- Node23 -->
<g id="node45" class="node"><title>Node23</title>
<a xlink:title="Worker thread managed by the work queue.">
<polygon fill="none" stroke="#bfbfbf" points="172.5,-40.5 172.5,-61.5 297.5,-61.5 297.5,-40.5 172.5,-40.5"/>
<text text-anchor="middle" x="235" y="-48.5" font-family="FreeSans" font-size="10.00">Urho3D::WorkerThread</text>
</a>
</g>
<!-- Node1&#45;&gt;Node23 -->
<g id="edge44" class="edge"><title>Node1&#45;&gt;Node23</title>
<path fill="none" stroke="midnightblue" d="M59.2382,-430.27C67.3923,-358.582 97.799,-122.737 150,-71 156.245,-64.8104 164.024,-60.3988 172.32,-57.2774"/>
<polygon fill="midnightblue" stroke="midnightblue" points="55.7482,-429.987 58.1206,-440.313 62.7052,-430.761 55.7482,-429.987"/>
</g>
<!-- Node24 -->
<g id="node47" class="node"><title>Node24</title>
<a xlink:href="struct_urho3_d_1_1_work_item.html" target="_top" xlink:title="Work queue item.">
<polygon fill="none" stroke="black" points="183,-0.5 183,-21.5 287,-21.5 287,-0.5 183,-0.5"/>
<text text-anchor="middle" x="235" y="-8.5" font-family="FreeSans" font-size="10.00">Urho3D::WorkItem</text>
</a>
</g>
<!-- Node1&#45;&gt;Node24 -->
<g id="edge46" class="edge"><title>Node1&#45;&gt;Node24</title>
<path fill="none" stroke="midnightblue" d="M58.7318,-430.125C65.5112,-353.479 92.7419,-89.0177 150,-31 158.732,-22.1521 170.591,-16.9204 182.678,-13.8961"/>
<polygon fill="midnightblue" stroke="midnightblue" points="55.2188,-430.128 57.8482,-440.391 62.193,-430.728 55.2188,-430.128"/>
</g>
</g>
</svg>
        <g id="navigator" transform="translate(0 0)" fill="#404254">
                <rect fill="#f2f5e9" fill-opacity="0.5" stroke="#606060" stroke-width=".5" x="0" y="0" width="60" height="60"/>
                <use id="zoomplus" xlink:href="#zoomPlus" x="17" y="9" onmousedown="handleZoom(evt,'in')"/>
                <use id="zoomminus" xlink:href="#zoomMin" x="42" y="9" onmousedown="handleZoom(evt,'out')"/>
                <use id="reset" xlink:href="#resetDef" x="30" y="36" onmousedown="handleReset()"/>
                <g id="arrowUp" xlink:href="#dirArrow" transform="translate(30 24)" onmousedown="handlePan(0,-1)">
                  <use xlink:href="#rim" fill="#404040">
                        <set attributeName="fill" to="#808080" begin="arrowUp.mouseover" end="arrowUp.mouseout"/>
                  </use>
                  <path fill="none" stroke="white" stroke-width="1.5" d="M0,-3.0v7 M-2.5,-0.5L0,-3.0L2.5,-0.5"/>
                </g>
                <g id="arrowRight" xlink:href="#dirArrow" transform="rotate(90) translate(36 -43)" onmousedown="handlePan(1,0)">
                  <use xlink:href="#rim" fill="#404040">
                        <set attributeName="fill" to="#808080" begin="arrowRight.mouseover" end="arrowRight.mouseout"/>
                  </use>
                  <path fill="none" stroke="white" stroke-width="1.5" d="M0,-3.0v7 M-2.5,-0.5L0,-3.0L2.5,-0.5"/>
                </g>
                <g id="arrowDown" xlink:href="#dirArrow" transform="rotate(180) translate(-30 -48)" onmousedown="handlePan(0,1)">
                  <use xlink:href="#rim" fill="#404040">
                        <set attributeName="fill" to="#808080" begin="arrowDown.mouseover" end="arrowDown.mouseout"/>
                  </use>
                  <path fill="none" stroke="white" stroke-width="1.5" d="M0,-3.0v7 M-2.5,-0.5L0,-3.0L2.5,-0.5"/>
                </g>
                <g id="arrowLeft" xlink:href="#dirArrow" transform="rotate(270) translate(-36 17)" onmousedown="handlePan(-1,0)">
                  <use xlink:href="#rim" fill="#404040">
                        <set attributeName="fill" to="#808080" begin="arrowLeft.mouseover" end="arrowLeft.mouseout"/>
                  </use>
                  <path fill="none" stroke="white" stroke-width="1.5" d="M0,-3.0v7 M-2.5,-0.5L0,-3.0L2.5,-0.5"/>
                </g>
        </g>
        <svg viewBox="0 0 15 15" width="100%" height="30px" preserveAspectRatio="xMaxYMin meet">
         <g id="arrow_out" transform="scale(0.3 0.3)">
          <a xlink:href="class_urho3_d_1_1_ref_counted__inherit__graph_org.svg" target="_base">
           <rect id="button" ry="5" rx="5" y="6" x="6" height="38" width="38"
                fill="#f2f5e9" fill-opacity="0.5" stroke="#606060" stroke-width="1.0"/>
           <path id="arrow"
             d="M 11.500037,31.436501 C 11.940474,20.09759 22.043105,11.32322 32.158766,21.979434 L 37.068811,17.246167 C 37.068811,17.246167 37.088388,32 37.088388,32 L 22.160133,31.978069 C 22.160133,31.978069 26.997745,27.140456 26.997745,27.140456 C 18.528582,18.264221 13.291696,25.230495 11.500037,31.436501 z"
             style="fill:#404040;"/>
          </a>
         </g>
        </svg>
</svg>
