<?xml version="1.0" encoding="UTF-8" standalone="no"?>
<!DOCTYPE svg PUBLIC "-//W3C//DTD SVG 1.1//EN"
 "http://www.w3.org/Graphics/SVG/1.1/DTD/svg11.dtd">
<!-- Generated by graphviz version 2.26.3 (20100126.1600)
 -->
<!-- Title: Urho3D::ShaderVariation::LoadByteCode Pages: 1 -->
<svg width="1236pt" height="626pt"
 viewBox="0.00 0.00 1236.00 625.91" xmlns="http://www.w3.org/2000/svg" xmlns:xlink="http://www.w3.org/1999/xlink">
<g id="graph1" class="graph" transform="scale(1 1) rotate(0) translate(4 621.91)">
<title>Urho3D::ShaderVariation::LoadByteCode</title>
<!-- Node1 -->
<g id="node1" class="node"><title>Node1</title>
<polygon fill="#bfbfbf" stroke="black" points="0,-149 0,-183 136,-183 136,-149 0,-149"/>
<text text-anchor="start" x="8" y="-170" font-family="FreeSans" font-size="10.00">Urho3D::ShaderVariation</text>
<text text-anchor="middle" x="68" y="-157" font-family="FreeSans" font-size="10.00">::LoadByteCode</text>
</g>
<!-- Node2 -->
<g id="node3" class="node"><title>Node2</title>
<a xlink:href="class_urho3_d_1_1_resource_cache.html#a94659e6c04c0bb9791019913b7866252" target="_top" xlink:title="Return whether a file exists by name.">
<polygon fill="none" stroke="black" points="570.5,-270 570.5,-304 703.5,-304 703.5,-270 570.5,-270"/>
<text text-anchor="start" x="578.5" y="-291" font-family="FreeSans" font-size="10.00">Urho3D::ResourceCache</text>
<text text-anchor="middle" x="637" y="-278" font-family="FreeSans" font-size="10.00">::Exists</text>
</a>
</g>
<!-- Node1&#45;&gt;Node2 -->
<g id="edge2" class="edge"><title>Node1&#45;&gt;Node2</title>
<path fill="none" stroke="midnightblue" d="M136.07,-180.475C242.731,-203.157 448.579,-246.932 560.32,-270.694"/>
<polygon fill="midnightblue" stroke="midnightblue" points="559.666,-274.133 570.175,-272.789 561.122,-267.286 559.666,-274.133"/>
</g>
<!-- Node15 -->
<g id="node36" class="node"><title>Node15</title>
<a xlink:href="class_urho3_d_1_1_file_system.html#ab597bbe58fed7bbc825c8c01f5b2d60c" target="_top" xlink:title="Returns the file&#39;s last modified time as seconds since 1.1.1970, or 0 if can not be accessed...">
<polygon fill="none" stroke="black" points="918.5,-503 918.5,-537 1041.5,-537 1041.5,-503 918.5,-503"/>
<text text-anchor="start" x="926.5" y="-524" font-family="FreeSans" font-size="10.00">Urho3D::FileSystem</text>
<text text-anchor="middle" x="980" y="-511" font-family="FreeSans" font-size="10.00">::GetLastModifiedTime</text>
</a>
</g>
<!-- Node1&#45;&gt;Node15 -->
<g id="edge42" class="edge"><title>Node1&#45;&gt;Node15</title>
<path fill="none" stroke="midnightblue" d="M71.7837,-183.044C81.8488,-225.282 112.652,-336.604 172,-409 268.053,-526.171 301.491,-602 453,-602 453,-602 453,-602 637,-602 742.48,-602 861.328,-564.864 927.783,-540.575"/>
<polygon fill="midnightblue" stroke="midnightblue" points="929.036,-543.843 937.2,-537.09 926.607,-537.278 929.036,-543.843"/>
</g>
<!-- Node16 -->
<g id="node41" class="node"><title>Node16</title>
<a xlink:href="class_urho3_d_1_1_resource_cache.html#a368d4a90b48e25ec5f245fda5e49bae3" target="_top" xlink:title="Return full absolute file name of resource if possible.">
<polygon fill="none" stroke="black" points="741.5,-135 741.5,-169 874.5,-169 874.5,-135 741.5,-135"/>
<text text-anchor="start" x="749.5" y="-156" font-family="FreeSans" font-size="10.00">Urho3D::ResourceCache</text>
<text text-anchor="middle" x="808" y="-143" font-family="FreeSans" font-size="10.00">::GetResourceFileName</text>
</a>
</g>
<!-- Node1&#45;&gt;Node16 -->
<g id="edge50" class="edge"><title>Node1&#45;&gt;Node16</title>
<path fill="none" stroke="midnightblue" d="M136.291,-164.708C274.484,-162.094 586.422,-156.192 731.334,-153.45"/>
<polygon fill="midnightblue" stroke="midnightblue" points="731.543,-156.947 741.475,-153.259 731.41,-149.948 731.543,-156.947"/>
</g>
<!-- Node17 -->
<g id="node45" class="node"><title>Node17</title>
<a xlink:href="class_urho3_d_1_1_resource_cache.html#a7a8fddc0e1561115c557850f6751f76b" target="_top" xlink:title="Open and return a file from the resource load paths or from inside a package file. If not found, use a fallback search with absolute path. Return null if fails. Can be called from outside the main thread.">
<polygon fill="none" stroke="black" points="187.5,-366 187.5,-400 320.5,-400 320.5,-366 187.5,-366"/>
<text text-anchor="start" x="195.5" y="-387" font-family="FreeSans" font-size="10.00">Urho3D::ResourceCache</text>
<text text-anchor="middle" x="254" y="-374" font-family="FreeSans" font-size="10.00">::GetFile</text>
</a>
</g>
<!-- Node1&#45;&gt;Node17 -->
<g id="edge56" class="edge"><title>Node1&#45;&gt;Node17</title>
<path fill="none" stroke="midnightblue" d="M82.5951,-183.028C115.247,-221.122 194.318,-313.371 232.569,-357.997"/>
<polygon fill="midnightblue" stroke="midnightblue" points="230.05,-360.436 239.215,-365.751 235.365,-355.881 230.05,-360.436"/>
</g>
<!-- Node23 -->
<g id="node63" class="node"><title>Node23</title>
<a xlink:href="class_urho3_d_1_1_p_o_d_vector.html#a90931bab46c47be9f1989f4ec86bd487" target="_top" xlink:title="Resize the vector.">
<polygon fill="none" stroke="black" points="195.5,-104 195.5,-138 312.5,-138 312.5,-104 195.5,-104"/>
<text text-anchor="start" x="203.5" y="-125" font-family="FreeSans" font-size="10.00">Urho3D::PODVector::</text>
<text text-anchor="middle" x="254" y="-112" font-family="FreeSans" font-size="10.00">Resize</text>
</a>
</g>
<!-- Node1&#45;&gt;Node23 -->
<g id="edge80" class="edge"><title>Node1&#45;&gt;Node23</title>
<path fill="none" stroke="midnightblue" d="M136.203,-149.499C152.259,-145.615 169.379,-141.473 185.45,-137.585"/>
<polygon fill="midnightblue" stroke="midnightblue" points="186.406,-140.955 195.302,-135.201 184.759,-134.151 186.406,-140.955"/>
</g>
<!-- Node24 -->
<g id="node65" class="node"><title>Node24</title>
<a xlink:href="class_urho3_d_1_1_shader_variation.html#a6da1356b18b052d0413ff106934103fc" target="_top" xlink:title="Return full shader name.">
<polygon fill="none" stroke="black" points="186,-52 186,-86 322,-86 322,-52 186,-52"/>
<text text-anchor="start" x="194" y="-73" font-family="FreeSans" font-size="10.00">Urho3D::ShaderVariation</text>
<text text-anchor="middle" x="254" y="-60" font-family="FreeSans" font-size="10.00">::GetFullName</text>
</a>
</g>
<!-- Node1&#45;&gt;Node24 -->
<g id="edge82" class="edge"><title>Node1&#45;&gt;Node24</title>
<path fill="none" stroke="midnightblue" d="M89.1727,-148.796C109.424,-133.027 141.336,-109.927 172,-95 175.777,-93.1615 179.713,-91.4132 183.729,-89.7574"/>
<polygon fill="midnightblue" stroke="midnightblue" points="185.159,-92.9565 193.205,-86.0629 182.616,-86.4346 185.159,-92.9565"/>
</g>
<!-- Node25 -->
<g id="node67" class="node"><title>Node25</title>
<a xlink:href="class_urho3_d_1_1_shader_variation.html#ae0244988b02aaf541a0e6d38f01c4998" target="_top" xlink:title="Calculate constant buffer sizes from parameters.">
<polygon fill="none" stroke="black" points="172,-0 172,-34 336,-34 336,-0 172,-0"/>
<text text-anchor="start" x="180" y="-21" font-family="FreeSans" font-size="10.00">Urho3D::ShaderVariation</text>
<text text-anchor="middle" x="254" y="-8" font-family="FreeSans" font-size="10.00">::CalculateConstantBufferSizes</text>
</a>
</g>
<!-- Node1&#45;&gt;Node25 -->
<g id="edge84" class="edge"><title>Node1&#45;&gt;Node25</title>
<path fill="none" stroke="midnightblue" d="M78.1598,-148.624C94.5715,-122.042 129.419,-71.3854 172,-43 174.388,-41.4079 176.88,-39.9084 179.446,-38.4964"/>
<polygon fill="midnightblue" stroke="midnightblue" points="181.028,-41.6189 188.417,-34.0261 177.906,-35.3537 181.028,-41.6189"/>
</g>
<!-- Node3 -->
<g id="node5" class="node"><title>Node3</title>
<a xlink:href="class_urho3_d_1_1_resource_cache.html#acaf617b205d693cd493febfc01c330a8" target="_top" xlink:title="Remove unsupported constructs from the resource name to prevent ambiguity, and normalize absolute fil...">
<polygon fill="none" stroke="black" points="740,-315 740,-349 876,-349 876,-315 740,-315"/>
<text text-anchor="start" x="748" y="-336" font-family="FreeSans" font-size="10.00">Urho3D::ResourceCache</text>
<text text-anchor="middle" x="808" y="-323" font-family="FreeSans" font-size="10.00">::SanitateResourceName</text>
</a>
</g>
<!-- Node2&#45;&gt;Node3 -->
<g id="edge4" class="edge"><title>Node2&#45;&gt;Node3</title>
<path fill="none" stroke="midnightblue" d="M701.648,-304.013C712.075,-306.757 722.943,-309.617 733.578,-312.415"/>
<polygon fill="midnightblue" stroke="midnightblue" points="732.699,-315.803 743.261,-314.963 734.481,-309.034 732.699,-315.803"/>
</g>
<!-- Node5 -->
<g id="node9" class="node"><title>Node5</title>
<a xlink:href="class_urho3_d_1_1_vector.html#a06762e9e70b9851f54a845555f28cd4b" target="_top" xlink:title="Return size of vector.">
<polygon fill="none" stroke="black" points="922,-217.5 922,-238.5 1038,-238.5 1038,-217.5 922,-217.5"/>
<text text-anchor="middle" x="980" y="-225.5" font-family="FreeSans" font-size="10.00">Urho3D::Vector::Size</text>
</a>
</g>
<!-- Node2&#45;&gt;Node5 -->
<g id="edge30" class="edge"><title>Node2&#45;&gt;Node5</title>
<path fill="none" stroke="midnightblue" d="M703.563,-287.293C752.006,-286.163 818.85,-281.808 876,-268 892.849,-263.929 895.862,-259.325 912,-253 921.3,-249.355 931.374,-245.565 940.846,-242.072"/>
<polygon fill="midnightblue" stroke="midnightblue" points="942.256,-245.283 950.442,-238.557 939.849,-238.71 942.256,-245.283"/>
</g>
<!-- Node7 -->
<g id="node13" class="node"><title>Node7</title>
<a xlink:href="class_urho3_d_1_1_string.html#a69ac7aadaa628fc05fc96abde992fcdc" target="_top" xlink:title="Return whether the string is empty.">
<polygon fill="none" stroke="black" points="1093.5,-531.5 1093.5,-552.5 1218.5,-552.5 1218.5,-531.5 1093.5,-531.5"/>
<text text-anchor="middle" x="1156" y="-539.5" font-family="FreeSans" font-size="10.00">Urho3D::String::Empty</text>
</a>
</g>
<!-- Node2&#45;&gt;Node7 -->
<g id="edge28" class="edge"><title>Node2&#45;&gt;Node7</title>
<path fill="none" stroke="midnightblue" d="M648.046,-304.162C680.943,-353.461 783.982,-495.206 912,-546 973.526,-570.412 1050.83,-563.537 1101.75,-554.471"/>
<polygon fill="midnightblue" stroke="midnightblue" points="1102.69,-557.855 1111.88,-552.576 1101.41,-550.974 1102.69,-557.855"/>
</g>
<!-- Node13 -->
<g id="node29" class="node"><title>Node13</title>
<a xlink:href="class_urho3_d_1_1_file_system.html#a0372e5805f0266e27aae75dbe501733c" target="_top" xlink:title="Check if a file exists.">
<polygon fill="none" stroke="black" points="924.5,-165 924.5,-199 1035.5,-199 1035.5,-165 924.5,-165"/>
<text text-anchor="start" x="932.5" y="-186" font-family="FreeSans" font-size="10.00">Urho3D::FileSystem</text>
<text text-anchor="middle" x="980" y="-173" font-family="FreeSans" font-size="10.00">::FileExists</text>
</a>
</g>
<!-- Node2&#45;&gt;Node13 -->
<g id="edge32" class="edge"><title>Node2&#45;&gt;Node13</title>
<path fill="none" stroke="midnightblue" d="M655.933,-269.866C675.487,-253.211 707.628,-228.635 740,-216 796.18,-194.072 864.669,-186.04 914.082,-183.218"/>
<polygon fill="midnightblue" stroke="midnightblue" points="914.519,-186.7 924.326,-182.691 914.159,-179.709 914.519,-186.7"/>
</g>
<!-- Node4 -->
<g id="node7" class="node"><title>Node4</title>
<a xlink:href="class_urho3_d_1_1_string.html#ab08b5f1f7cee23f3e14eebcb2f7f8d4e" target="_top" xlink:title="Replace all occurrences of a character.">
<polygon fill="none" stroke="black" points="1090.5,-382.5 1090.5,-403.5 1221.5,-403.5 1221.5,-382.5 1090.5,-382.5"/>
<text text-anchor="middle" x="1156" y="-390.5" font-family="FreeSans" font-size="10.00">Urho3D::String::Replace</text>
</a>
</g>
<!-- Node3&#45;&gt;Node4 -->
<g id="edge6" class="edge"><title>Node3&#45;&gt;Node4</title>
<path fill="none" stroke="midnightblue" d="M876.338,-343.979C936.902,-354.595 1024.95,-370.029 1086.01,-380.732"/>
<polygon fill="midnightblue" stroke="midnightblue" points="1085.49,-384.194 1095.95,-382.473 1086.7,-377.299 1085.49,-384.194"/>
</g>
<!-- Node3&#45;&gt;Node5 -->
<g id="edge8" class="edge"><title>Node3&#45;&gt;Node5</title>
<path fill="none" stroke="midnightblue" d="M853.746,-314.99C861.577,-311.028 869.328,-306.368 876,-301 896.777,-284.284 890.608,-268.921 912,-253 917.491,-248.913 923.721,-245.434 930.127,-242.489"/>
<polygon fill="midnightblue" stroke="midnightblue" points="931.692,-245.629 939.573,-238.548 928.996,-239.168 931.692,-245.629"/>
</g>
<!-- Node6 -->
<g id="node11" class="node"><title>Node6</title>
<a xlink:href="class_urho3_d_1_1_file_system.html#a5d93365af462341ea8029827581854a6" target="_top" xlink:title="Return the program&#39;s directory. If it does not contain the Urho3D default CoreData and Data directori...">
<polygon fill="none" stroke="red" points="924.5,-411 924.5,-445 1035.5,-445 1035.5,-411 924.5,-411"/>
<text text-anchor="start" x="932.5" y="-432" font-family="FreeSans" font-size="10.00">Urho3D::FileSystem</text>
<text text-anchor="middle" x="980" y="-419" font-family="FreeSans" font-size="10.00">::GetProgramDir</text>
</a>
</g>
<!-- Node3&#45;&gt;Node6 -->
<g id="edge10" class="edge"><title>Node3&#45;&gt;Node6</title>
<path fill="none" stroke="midnightblue" d="M833.513,-349.258C854.231,-362.95 884.43,-382.182 912,-397 918.066,-400.26 924.54,-403.501 930.991,-406.591"/>
<polygon fill="midnightblue" stroke="midnightblue" points="929.838,-409.916 940.378,-410.993 932.811,-403.578 929.838,-409.916"/>
</g>
<!-- Node9 -->
<g id="node18" class="node"><title>Node9</title>
<a xlink:href="class_urho3_d_1_1_string.html#a6dffd447850e4d687096a79dafe8bdac" target="_top" xlink:title="Return whether starts with a string.">
<polygon fill="none" stroke="red" points="1084.5,-213.5 1084.5,-234.5 1227.5,-234.5 1227.5,-213.5 1084.5,-213.5"/>
<text text-anchor="middle" x="1156" y="-221.5" font-family="FreeSans" font-size="10.00">Urho3D::String::StartsWith</text>
</a>
</g>
<!-- Node3&#45;&gt;Node9 -->
<g id="edge18" class="edge"><title>Node3&#45;&gt;Node9</title>
<path fill="none" stroke="midnightblue" d="M842.556,-314.967C862.52,-305.572 888.301,-294.187 912,-286 946.584,-274.052 1040.3,-251.213 1101.01,-236.839"/>
<polygon fill="midnightblue" stroke="midnightblue" points="1101.9,-240.225 1110.82,-234.52 1100.29,-233.413 1101.9,-240.225"/>
</g>
<!-- Node10 -->
<g id="node20" class="node"><title>Node10</title>
<a xlink:href="class_urho3_d_1_1_string.html#ade8095f1798d6e1d4ed03d43d9919611" target="_top" xlink:title="Return a substring from position to end.">
<polygon fill="none" stroke="red" points="1086,-290.5 1086,-311.5 1226,-311.5 1226,-290.5 1086,-290.5"/>
<text text-anchor="middle" x="1156" y="-298.5" font-family="FreeSans" font-size="10.00">Urho3D::String::Substring</text>
</a>
</g>
<!-- Node3&#45;&gt;Node10 -->
<g id="edge20" class="edge"><title>Node3&#45;&gt;Node10</title>
<path fill="none" stroke="midnightblue" d="M876.035,-333.951C924.236,-334.444 990.319,-333.32 1048,-326 1068.23,-323.433 1090.22,-318.708 1109.04,-314.051"/>
<polygon fill="midnightblue" stroke="midnightblue" points="1110.02,-317.413 1118.85,-311.56 1108.3,-310.628 1110.02,-317.413"/>
</g>
<!-- Node11 -->
<g id="node22" class="node"><title>Node11</title>
<a xlink:href="class_urho3_d_1_1_string.html#a11572e3c07f60de65ac5d0c1ca5b6ba3" target="_top" xlink:title="Return length.">
<polygon fill="none" stroke="black" points="916.5,-463.5 916.5,-484.5 1043.5,-484.5 1043.5,-463.5 916.5,-463.5"/>
<text text-anchor="middle" x="980" y="-471.5" font-family="FreeSans" font-size="10.00">Urho3D::String::Length</text>
</a>
</g>
<!-- Node3&#45;&gt;Node11 -->
<g id="edge22" class="edge"><title>Node3&#45;&gt;Node11</title>
<path fill="none" stroke="midnightblue" d="M818.124,-349.342C834.487,-375.849 869.271,-426.281 912,-454 915.126,-456.028 918.464,-457.856 921.92,-459.503"/>
<polygon fill="midnightblue" stroke="midnightblue" points="920.706,-462.789 931.28,-463.453 923.427,-456.34 920.706,-462.789"/>
</g>
<!-- Node12 -->
<g id="node24" class="node"><title>Node12</title>
<a xlink:href="class_urho3_d_1_1_string.html#ad6a5f266f8164b6b1022f93a4e92eb92" target="_top" xlink:title="Return string with whitespace trimmed from the beginning and the end.">
<polygon fill="none" stroke="black" points="912.5,-295.5 912.5,-316.5 1047.5,-316.5 1047.5,-295.5 912.5,-295.5"/>
<text text-anchor="middle" x="980" y="-303.5" font-family="FreeSans" font-size="10.00">Urho3D::String::Trimmed</text>
</a>
</g>
<!-- Node3&#45;&gt;Node12 -->
<g id="edge24" class="edge"><title>Node3&#45;&gt;Node12</title>
<path fill="none" stroke="midnightblue" d="M876.473,-321.649C884.957,-320.367 893.679,-319.049 902.289,-317.747"/>
<polygon fill="midnightblue" stroke="midnightblue" points="902.959,-321.186 912.324,-316.23 901.913,-314.264 902.959,-321.186"/>
</g>
<!-- Node6&#45;&gt;Node4 -->
<g id="edge16" class="edge"><title>Node6&#45;&gt;Node4</title>
<path fill="none" stroke="midnightblue" d="M1035.69,-416.926C1053.96,-413.293 1074.38,-409.231 1093.14,-405.5"/>
<polygon fill="midnightblue" stroke="midnightblue" points="1093.95,-408.908 1103.07,-403.525 1092.58,-402.043 1093.95,-408.908"/>
</g>
<!-- Node6&#45;&gt;Node7 -->
<g id="edge12" class="edge"><title>Node6&#45;&gt;Node7</title>
<path fill="none" stroke="midnightblue" d="M1030.25,-445.106C1036.37,-447.799 1042.42,-450.772 1048,-454 1082.75,-474.101 1117.83,-505.126 1138.21,-524.462"/>
<polygon fill="midnightblue" stroke="midnightblue" points="1135.89,-527.079 1145.52,-531.491 1140.74,-522.035 1135.89,-527.079"/>
</g>
<!-- Node8 -->
<g id="node15" class="node"><title>Node8</title>
<a xlink:href="class_urho3_d_1_1_string.html#a6b405eba451da6c0f216a8649adf79aa" target="_top" xlink:title="Return the C string.">
<polygon fill="none" stroke="black" points="1091.5,-422.5 1091.5,-443.5 1220.5,-443.5 1220.5,-422.5 1091.5,-422.5"/>
<text text-anchor="middle" x="1156" y="-430.5" font-family="FreeSans" font-size="10.00">Urho3D::String::CString</text>
</a>
</g>
<!-- Node6&#45;&gt;Node8 -->
<g id="edge14" class="edge"><title>Node6&#45;&gt;Node8</title>
<path fill="none" stroke="midnightblue" d="M1035.69,-429.582C1050.09,-429.991 1065.83,-430.438 1081.04,-430.87"/>
<polygon fill="midnightblue" stroke="midnightblue" points="1081.37,-434.381 1091.46,-431.167 1081.57,-427.384 1081.37,-434.381"/>
</g>
<!-- Node12&#45;&gt;Node10 -->
<g id="edge26" class="edge"><title>Node12&#45;&gt;Node10</title>
<path fill="none" stroke="midnightblue" d="M1047.54,-304.081C1056.73,-303.82 1066.22,-303.55 1075.61,-303.284"/>
<polygon fill="midnightblue" stroke="midnightblue" points="1075.82,-306.779 1085.72,-302.997 1075.63,-299.782 1075.82,-306.779"/>
</g>
<!-- Node13&#45;&gt;Node8 -->
<g id="edge40" class="edge"><title>Node13&#45;&gt;Node8</title>
<path fill="none" stroke="midnightblue" d="M1035.71,-197.339C1040.33,-200.29 1044.54,-203.807 1048,-208 1106.86,-279.361 1021.84,-344.491 1084,-413 1085.06,-414.171 1086.19,-415.276 1087.37,-416.318"/>
<polygon fill="midnightblue" stroke="midnightblue" points="1085.65,-419.394 1095.83,-422.328 1089.7,-413.686 1085.65,-419.394"/>
</g>
<!-- Node13&#45;&gt;Node9 -->
<g id="edge36" class="edge"><title>Node13&#45;&gt;Node9</title>
<path fill="none" stroke="midnightblue" d="M1035.69,-195.289C1056.9,-200.351 1081.02,-206.108 1102.07,-211.13"/>
<polygon fill="midnightblue" stroke="midnightblue" points="1101.28,-214.539 1111.81,-213.456 1102.9,-207.73 1101.28,-214.539"/>
</g>
<!-- Node13&#45;&gt;Node10 -->
<g id="edge38" class="edge"><title>Node13&#45;&gt;Node10</title>
<path fill="none" stroke="midnightblue" d="M1031.64,-199.063C1037.34,-201.722 1042.91,-204.699 1048,-208 1066.99,-220.311 1067.1,-228.952 1084,-244 1099.87,-258.136 1118.74,-273.009 1133.18,-284.016"/>
<polygon fill="midnightblue" stroke="midnightblue" points="1131.45,-287.091 1141.53,-290.329 1135.67,-281.507 1131.45,-287.091"/>
</g>
<!-- Node14 -->
<g id="node31" class="node"><title>Node14</title>
<a xlink:href="class_urho3_d_1_1_file_system.html#a1e3cbbed618e7f98ce56c5fa8de9ac43" target="_top" xlink:title="Check if a path is allowed to be accessed. If no paths are registered, all are allowed.">
<polygon fill="none" stroke="red" points="1100.5,-330 1100.5,-364 1211.5,-364 1211.5,-330 1100.5,-330"/>
<text text-anchor="start" x="1108.5" y="-351" font-family="FreeSans" font-size="10.00">Urho3D::FileSystem</text>
<text text-anchor="middle" x="1156" y="-338" font-family="FreeSans" font-size="10.00">::CheckAccess</text>
</a>
</g>
<!-- Node13&#45;&gt;Node14 -->
<g id="edge34" class="edge"><title>Node13&#45;&gt;Node14</title>
<path fill="none" stroke="midnightblue" d="M1035.8,-198.242C1040.28,-201.006 1044.44,-204.233 1048,-208 1084.2,-246.314 1047.45,-283.025 1084,-321 1086.35,-323.442 1088.95,-325.655 1091.72,-327.661"/>
<polygon fill="midnightblue" stroke="midnightblue" points="1090.13,-330.795 1100.48,-333.079 1093.81,-324.842 1090.13,-330.795"/>
</g>
<!-- Node15&#45;&gt;Node7 -->
<g id="edge44" class="edge"><title>Node15&#45;&gt;Node7</title>
<path fill="none" stroke="midnightblue" d="M1041.56,-527.695C1055.04,-529.38 1069.43,-531.179 1083.3,-532.913"/>
<polygon fill="midnightblue" stroke="midnightblue" points="1082.93,-536.393 1093.29,-534.161 1083.8,-529.447 1082.93,-536.393"/>
</g>
<!-- Node15&#45;&gt;Node8 -->
<g id="edge48" class="edge"><title>Node15&#45;&gt;Node8</title>
<path fill="none" stroke="midnightblue" d="M1027.21,-502.999C1034.25,-500.161 1041.37,-497.12 1048,-494 1077.16,-480.286 1109.12,-461.764 1130.66,-448.74"/>
<polygon fill="midnightblue" stroke="midnightblue" points="1132.49,-451.72 1139.21,-443.525 1128.85,-445.744 1132.49,-451.72"/>
</g>
<!-- Node15&#45;&gt;Node14 -->
<g id="edge46" class="edge"><title>Node15&#45;&gt;Node14</title>
<path fill="none" stroke="midnightblue" d="M1037.49,-502.792C1041.34,-500.25 1044.91,-497.337 1048,-494 1086.14,-452.847 1045.48,-413.795 1084,-373 1086.33,-370.536 1088.9,-368.305 1091.66,-366.285"/>
<polygon fill="midnightblue" stroke="midnightblue" points="1093.76,-369.101 1100.39,-360.835 1090.05,-363.163 1093.76,-369.101"/>
</g>
<!-- Node16&#45;&gt;Node5 -->
<g id="edge52" class="edge"><title>Node16&#45;&gt;Node5</title>
<path fill="none" stroke="midnightblue" d="M835.915,-169.094C856.423,-181.135 885.257,-197.007 912,-208 917.468,-210.248 923.28,-212.356 929.112,-214.299"/>
<polygon fill="midnightblue" stroke="midnightblue" points="928.301,-217.713 938.891,-217.406 930.421,-211.042 928.301,-217.713"/>
</g>
<!-- Node16&#45;&gt;Node13 -->
<g id="edge54" class="edge"><title>Node16&#45;&gt;Node13</title>
<path fill="none" stroke="midnightblue" d="M874.992,-163.685C887.868,-165.931 901.343,-168.281 914.182,-170.52"/>
<polygon fill="midnightblue" stroke="midnightblue" points="913.865,-174.018 924.318,-172.288 915.068,-167.122 913.865,-174.018"/>
</g>
<!-- Node17&#45;&gt;Node3 -->
<g id="edge58" class="edge"><title>Node17&#45;&gt;Node3</title>
<path fill="none" stroke="midnightblue" d="M278.879,-365.943C301.871,-351.285 337.582,-331.248 372,-323 437.53,-307.297 622.735,-317.783 729.501,-325.63"/>
<polygon fill="midnightblue" stroke="midnightblue" points="729.35,-329.129 739.582,-326.381 729.869,-322.148 729.35,-329.129"/>
</g>
<!-- Node17&#45;&gt;Node7 -->
<g id="edge72" class="edge"><title>Node17&#45;&gt;Node7</title>
<path fill="none" stroke="midnightblue" d="M260.501,-400.217C274.653,-434.94 311.888,-512.789 372,-545 623.473,-679.752 988.737,-591.829 1112.87,-555.536"/>
<polygon fill="midnightblue" stroke="midnightblue" points="1114.16,-558.802 1122.75,-552.604 1112.17,-552.091 1114.16,-558.802"/>
</g>
<!-- Node17&#45;&gt;Node11 -->
<g id="edge60" class="edge"><title>Node17&#45;&gt;Node11</title>
<path fill="none" stroke="midnightblue" d="M274.561,-400.18C296.923,-417.695 334.511,-443.831 372,-455 557.684,-510.32 789.489,-496.108 905.944,-483.612"/>
<polygon fill="midnightblue" stroke="midnightblue" points="906.612,-487.06 916.169,-482.488 905.846,-480.102 906.612,-487.06"/>
</g>
<!-- Node18 -->
<g id="node49" class="node"><title>Node18</title>
<a xlink:href="class_urho3_d_1_1_resource_cache.html#a5f04a4a638ce2b7d0c65576b69e39850" target="_top" xlink:title="Search resource packages for file.">
<polygon fill="none" stroke="black" points="386.5,-412 386.5,-446 519.5,-446 519.5,-412 386.5,-412"/>
<text text-anchor="start" x="394.5" y="-433" font-family="FreeSans" font-size="10.00">Urho3D::ResourceCache</text>
<text text-anchor="middle" x="453" y="-420" font-family="FreeSans" font-size="10.00">::SearchPackages</text>
</a>
</g>
<!-- Node17&#45;&gt;Node18 -->
<g id="edge62" class="edge"><title>Node17&#45;&gt;Node18</title>
<path fill="none" stroke="midnightblue" d="M320.541,-398.381C338.451,-402.521 357.967,-407.033 376.379,-411.289"/>
<polygon fill="midnightblue" stroke="midnightblue" points="375.651,-414.713 386.183,-413.555 377.228,-407.892 375.651,-414.713"/>
</g>
<!-- Node19 -->
<g id="node52" class="node"><title>Node19</title>
<a xlink:href="class_urho3_d_1_1_resource_cache.html#a60e44d787700bab6fc1ffa513e3216b7" target="_top" xlink:title="Search FileSystem for file.">
<polygon fill="none" stroke="red" points="741.5,-225 741.5,-259 874.5,-259 874.5,-225 741.5,-225"/>
<text text-anchor="start" x="749.5" y="-246" font-family="FreeSans" font-size="10.00">Urho3D::ResourceCache</text>
<text text-anchor="middle" x="808" y="-233" font-family="FreeSans" font-size="10.00">::SearchResourceDirs</text>
</a>
</g>
<!-- Node17&#45;&gt;Node19 -->
<g id="edge66" class="edge"><title>Node17&#45;&gt;Node19</title>
<path fill="none" stroke="midnightblue" d="M277.268,-365.879C300.285,-349.667 337.04,-325.682 372,-311 490.893,-261.068 641.855,-246.965 731.365,-243.164"/>
<polygon fill="midnightblue" stroke="midnightblue" points="731.58,-246.658 741.435,-242.769 731.305,-239.664 731.58,-246.658"/>
</g>
<!-- Node20 -->
<g id="node57" class="node"><title>Node20</title>
<a xlink:href="class_urho3_d_1_1_thread.html#a591d469de804a63cbcca350b84f96670" target="_top" xlink:title="Return whether is executing in the main thread.">
<polygon fill="none" stroke="red" points="372.5,-332.5 372.5,-353.5 533.5,-353.5 533.5,-332.5 372.5,-332.5"/>
<text text-anchor="middle" x="453" y="-340.5" font-family="FreeSans" font-size="10.00">Urho3D::Thread::IsMainThread</text>
</a>
</g>
<!-- Node17&#45;&gt;Node20 -->
<g id="edge74" class="edge"><title>Node17&#45;&gt;Node20</title>
<path fill="none" stroke="midnightblue" d="M320.541,-369.625C343.175,-365.075 368.374,-360.01 390.667,-355.529"/>
<polygon fill="midnightblue" stroke="midnightblue" points="391.571,-358.918 400.685,-353.516 390.191,-352.055 391.571,-358.918"/>
</g>
<!-- Node21 -->
<g id="node59" class="node"><title>Node21</title>
<a xlink:href="class_urho3_d_1_1_object.html#ab8dbe9844094c04463def7df1fa650d5" target="_top" xlink:title="Return a preallocated map for event data. Used for optimization to avoid constant re&#45;allocation of ev...">
<polygon fill="none" stroke="red" points="383,-502 383,-536 523,-536 523,-502 383,-502"/>
<text text-anchor="start" x="391" y="-523" font-family="FreeSans" font-size="10.00">Urho3D::Object::GetEvent</text>
<text text-anchor="middle" x="453" y="-510" font-family="FreeSans" font-size="10.00">DataMap</text>
</a>
</g>
<!-- Node17&#45;&gt;Node21 -->
<g id="edge76" class="edge"><title>Node17&#45;&gt;Node21</title>
<path fill="none" stroke="midnightblue" d="M269.287,-400.007C290.453,-422.699 330.762,-462.924 372,-488 377.791,-491.522 384.051,-494.763 390.434,-497.715"/>
<polygon fill="midnightblue" stroke="midnightblue" points="389.271,-501.026 399.835,-501.83 392.078,-494.613 389.271,-501.026"/>
</g>
<!-- Node22 -->
<g id="node61" class="node"><title>Node22</title>
<a xlink:href="class_urho3_d_1_1_object.html#a32020dbf77c196b9777eca479e8abb36" target="_top" xlink:title="Send event to all subscribers.">
<polygon fill="none" stroke="black" points="379,-372.5 379,-393.5 527,-393.5 527,-372.5 379,-372.5"/>
<text text-anchor="middle" x="453" y="-380.5" font-family="FreeSans" font-size="10.00">Urho3D::Object::SendEvent</text>
</a>
</g>
<!-- Node17&#45;&gt;Node22 -->
<g id="edge78" class="edge"><title>Node17&#45;&gt;Node22</title>
<path fill="none" stroke="midnightblue" d="M320.541,-383C335.927,-383 352.498,-383 368.536,-383"/>
<polygon fill="midnightblue" stroke="midnightblue" points="368.98,-386.5 378.98,-383 368.98,-379.5 368.98,-386.5"/>
</g>
<!-- Node18&#45;&gt;Node2 -->
<g id="edge64" class="edge"><title>Node18&#45;&gt;Node2</title>
<path fill="none" stroke="midnightblue" d="M517.281,-411.971C523.132,-409.363 528.803,-406.387 534,-403 570.69,-379.085 602.329,-338.746 620.529,-312.498"/>
<polygon fill="midnightblue" stroke="midnightblue" points="623.454,-314.421 626.174,-304.181 617.662,-310.49 623.454,-314.421"/>
</g>
<!-- Node19&#45;&gt;Node5 -->
<g id="edge68" class="edge"><title>Node19&#45;&gt;Node5</title>
<path fill="none" stroke="midnightblue" d="M874.992,-236.547C887.078,-235.563 899.69,-234.537 911.809,-233.55"/>
<polygon fill="midnightblue" stroke="midnightblue" points="912.168,-237.033 921.851,-232.733 911.6,-230.056 912.168,-237.033"/>
</g>
<!-- Node19&#45;&gt;Node13 -->
<g id="edge70" class="edge"><title>Node19&#45;&gt;Node13</title>
<path fill="none" stroke="midnightblue" d="M856.828,-224.967C876.982,-217.937 900.508,-209.73 921.568,-202.383"/>
<polygon fill="midnightblue" stroke="midnightblue" points="922.761,-205.674 931.05,-199.076 920.455,-199.065 922.761,-205.674"/>
</g>
</g>
</svg>
