<?xml version="1.0" encoding="UTF-8" standalone="no"?>
<!DOCTYPE svg PUBLIC "-//W3C//DTD SVG 1.1//EN"
 "http://www.w3.org/Graphics/SVG/1.1/DTD/svg11.dtd">
<!-- Generated by graphviz version 2.26.3 (20100126.1600)
 -->
<!-- Title: Urho3D::AnimatedSprite2D Pages: 1 -->
<svg width="1654pt" height="873pt"
 viewBox="0.00 0.00 1654.00 873.00" xmlns="http://www.w3.org/2000/svg" xmlns:xlink="http://www.w3.org/1999/xlink">
<g id="graph1" class="graph" transform="scale(1 1) rotate(0) translate(4 869)">
<title>Urho3D::AnimatedSprite2D</title>
<!-- Node1 -->
<g id="node1" class="node"><title>Node1</title>
<polygon fill="#bfbfbf" stroke="black" points="1498,-402.5 1498,-423.5 1646,-423.5 1646,-402.5 1498,-402.5"/>
<text text-anchor="middle" x="1572" y="-410.5" font-family="FreeSans" font-size="10.00">Urho3D::AnimatedSprite2D</text>
</g>
<!-- Node2 -->
<g id="node2" class="node"><title>Node2</title>
<a xlink:href="class_urho3_d_1_1_static_sprite2_d.html" target="_top" xlink:title="Static sprite component.">
<polygon fill="none" stroke="black" points="1044.5,-442.5 1044.5,-463.5 1173.5,-463.5 1173.5,-442.5 1044.5,-442.5"/>
<text text-anchor="middle" x="1109" y="-450.5" font-family="FreeSans" font-size="10.00">Urho3D::StaticSprite2D</text>
</a>
</g>
<!-- Node2&#45;&gt;Node1 -->
<g id="edge2" class="edge"><title>Node2&#45;&gt;Node1</title>
<path fill="none" stroke="midnightblue" d="M1183.86,-446.532C1270.25,-439.069 1411.44,-426.871 1497.62,-419.426"/>
<polygon fill="midnightblue" stroke="midnightblue" points="1183.53,-443.048 1173.87,-447.396 1184.13,-450.022 1183.53,-443.048"/>
</g>
<!-- Node3 -->
<g id="node4" class="node"><title>Node3</title>
<a xlink:href="class_urho3_d_1_1_drawable2_d.html" target="_top" xlink:title="Base class for 2D visible components.">
<polygon fill="none" stroke="black" points="778.5,-729.5 778.5,-750.5 895.5,-750.5 895.5,-729.5 778.5,-729.5"/>
<text text-anchor="middle" x="837" y="-737.5" font-family="FreeSans" font-size="10.00">Urho3D::Drawable2D</text>
</a>
</g>
<!-- Node3&#45;&gt;Node2 -->
<g id="edge4" class="edge"><title>Node3&#45;&gt;Node2</title>
<path fill="none" stroke="midnightblue" d="M905.919,-734.872C944.336,-728.664 990.613,-715.165 1022,-686 1090.32,-622.513 1105.29,-500.284 1108.3,-463.638"/>
<polygon fill="midnightblue" stroke="midnightblue" points="905.204,-731.44 895.825,-736.368 906.23,-738.364 905.204,-731.44"/>
</g>
<!-- Node4 -->
<g id="node6" class="node"><title>Node4</title>
<a xlink:href="class_urho3_d_1_1_drawable.html" target="_top" xlink:title="Base class for visible components.">
<polygon fill="none" stroke="red" points="517,-789.5 517,-810.5 621,-810.5 621,-789.5 517,-789.5"/>
<text text-anchor="middle" x="569" y="-797.5" font-family="FreeSans" font-size="10.00">Urho3D::Drawable</text>
</a>
</g>
<!-- Node4&#45;&gt;Node3 -->
<g id="edge6" class="edge"><title>Node4&#45;&gt;Node3</title>
<path fill="none" stroke="midnightblue" d="M631.035,-788.681C663.588,-782.486 704.069,-774.378 740,-766 759.866,-761.368 781.834,-755.539 799.834,-750.575"/>
<polygon fill="midnightblue" stroke="midnightblue" points="630.376,-785.244 621.2,-790.541 631.677,-792.122 630.376,-785.244"/>
</g>
<!-- Node5 -->
<g id="node8" class="node"><title>Node5</title>
<a xlink:href="class_urho3_d_1_1_vector.html" target="_top" xlink:title="Urho3D::Vector\&lt; Urho3D\l::SourceBatch2D \&gt;">
<polygon fill="none" stroke="red" points="500,-737 500,-771 638,-771 638,-737 500,-737"/>
<text text-anchor="start" x="508" y="-758" font-family="FreeSans" font-size="10.00">Urho3D::Vector&lt; Urho3D</text>
<text text-anchor="middle" x="569" y="-745" font-family="FreeSans" font-size="10.00">::SourceBatch2D &gt;</text>
</a>
</g>
<!-- Node5&#45;&gt;Node3 -->
<g id="edge8" class="edge"><title>Node5&#45;&gt;Node3</title>
<path fill="none" stroke="#9a32cd" stroke-dasharray="5,2" d="M648.138,-749.866C689.806,-747.689 740.029,-745.066 778.207,-743.071"/>
<polygon fill="#9a32cd" stroke="#9a32cd" points="647.82,-746.378 638.017,-750.395 648.186,-753.368 647.82,-746.378"/>
<text text-anchor="middle" x="700" y="-753" font-family="FreeSans" font-size="10.00"> sourceBatches_</text>
</g>
<!-- Node6 -->
<g id="node10" class="node"><title>Node6</title>
<a xlink:href="class_urho3_d_1_1_weak_ptr.html" target="_top" xlink:title="Urho3D::WeakPtr\&lt; Urho3D\l::Renderer2D \&gt;">
<polygon fill="none" stroke="red" points="496,-685 496,-719 642,-719 642,-685 496,-685"/>
<text text-anchor="start" x="504" y="-706" font-family="FreeSans" font-size="10.00">Urho3D::WeakPtr&lt; Urho3D</text>
<text text-anchor="middle" x="569" y="-693" font-family="FreeSans" font-size="10.00">::Renderer2D &gt;</text>
</a>
</g>
<!-- Node6&#45;&gt;Node3 -->
<g id="edge10" class="edge"><title>Node6&#45;&gt;Node3</title>
<path fill="none" stroke="#9a32cd" stroke-dasharray="5,2" d="M652.179,-713.794C693.043,-719.588 741.31,-726.432 778.269,-731.672"/>
<polygon fill="#9a32cd" stroke="#9a32cd" points="652.625,-710.322 642.232,-712.384 651.642,-717.253 652.625,-710.322"/>
<text text-anchor="middle" x="700" y="-729" font-family="FreeSans" font-size="10.00"> renderer_</text>
</g>
<!-- Node7 -->
<g id="node12" class="node"><title>Node7</title>
<a xlink:href="class_urho3_d_1_1_vector2.html" target="_top" xlink:title="Two&#45;dimensional vector.">
<polygon fill="none" stroke="black" points="255,-517.5 255,-538.5 351,-538.5 351,-517.5 255,-517.5"/>
<text text-anchor="middle" x="303" y="-525.5" font-family="FreeSans" font-size="10.00">Urho3D::Vector2</text>
</a>
</g>
<!-- Node7&#45;&gt;Node2 -->
<g id="edge12" class="edge"><title>Node7&#45;&gt;Node2</title>
<path fill="none" stroke="#9a32cd" stroke-dasharray="5,2" d="M328.983,-543.843C415.638,-594.521 701.383,-744.145 916,-653 1011.49,-612.447 1082.72,-498.943 1103.08,-463.626"/>
<polygon fill="#9a32cd" stroke="#9a32cd" points="330.705,-540.796 320.317,-538.714 327.14,-546.82 330.705,-540.796"/>
<text text-anchor="middle" x="700" y="-685" font-family="FreeSans" font-size="10.00"> hotSpot_</text>
</g>
<!-- Node7&#45;&gt;Node7 -->
<g id="edge14" class="edge"><title>Node7&#45;&gt;Node7</title>
<path fill="none" stroke="#9a32cd" stroke-dasharray="5,2" d="M277.063,-548.055C278.764,-553.164 287.41,-557 303,-557 327.336,-557 334.751,-547.653 325.245,-538.708"/>
<polygon fill="#9a32cd" stroke="#9a32cd" points="280.336,-549.294 280.755,-538.708 273.826,-546.722 280.336,-549.294"/>
<text text-anchor="middle" x="303" y="-626" font-family="FreeSans" font-size="10.00"> ONE</text>
<text text-anchor="middle" x="303" y="-613" font-family="FreeSans" font-size="10.00">DOWN</text>
<text text-anchor="middle" x="303" y="-600" font-family="FreeSans" font-size="10.00">RIGHT</text>
<text text-anchor="middle" x="303" y="-587" font-family="FreeSans" font-size="10.00">LEFT</text>
<text text-anchor="middle" x="303" y="-574" font-family="FreeSans" font-size="10.00">ZERO</text>
<text text-anchor="middle" x="303" y="-561" font-family="FreeSans" font-size="10.00">UP</text>
</g>
<!-- Node9 -->
<g id="node17" class="node"><title>Node9</title>
<a xlink:href="class_urho3_d_1_1_sprite2_d.html" target="_top" xlink:title="Sprite.">
<polygon fill="none" stroke="red" points="518.5,-363.5 518.5,-384.5 619.5,-384.5 619.5,-363.5 518.5,-363.5"/>
<text text-anchor="middle" x="569" y="-371.5" font-family="FreeSans" font-size="10.00">Urho3D::Sprite2D</text>
</a>
</g>
<!-- Node7&#45;&gt;Node9 -->
<g id="edge26" class="edge"><title>Node7&#45;&gt;Node9</title>
<path fill="none" stroke="#9a32cd" stroke-dasharray="5,2" d="M324.964,-511.425C359.836,-485.634 430.628,-435.398 496,-402 509.055,-395.331 524.087,-389.305 537.105,-384.567"/>
<polygon fill="#9a32cd" stroke="#9a32cd" points="322.828,-508.651 316.897,-517.43 327.008,-514.266 322.828,-508.651"/>
<text text-anchor="middle" x="443" y="-457" font-family="FreeSans" font-size="10.00"> hotSpot_</text>
</g>
<!-- Node8 -->
<g id="node15" class="node"><title>Node8</title>
<a xlink:href="class_urho3_d_1_1_shared_ptr.html" target="_top" xlink:title="Urho3D::SharedPtr\&lt;\l Urho3D::Sprite2D \&gt;">
<polygon fill="none" stroke="black" points="779,-357 779,-391 895,-391 895,-357 779,-357"/>
<text text-anchor="start" x="787" y="-378" font-family="FreeSans" font-size="10.00">Urho3D::SharedPtr&lt;</text>
<text text-anchor="middle" x="837" y="-365" font-family="FreeSans" font-size="10.00"> Urho3D::Sprite2D &gt;</text>
</a>
</g>
<!-- Node8&#45;&gt;Node2 -->
<g id="edge16" class="edge"><title>Node8&#45;&gt;Node2</title>
<path fill="none" stroke="#9a32cd" stroke-dasharray="5,2" d="M905.401,-386.485C940.641,-393.679 984.065,-403.736 1022,-416 1044.8,-423.371 1069.89,-434.369 1087.24,-442.46"/>
<polygon fill="#9a32cd" stroke="#9a32cd" points="905.711,-382.977 895.217,-384.438 904.332,-389.84 905.711,-382.977"/>
<text text-anchor="middle" x="978" y="-420" font-family="FreeSans" font-size="10.00"> sprite_</text>
</g>
<!-- Node16 -->
<g id="node35" class="node"><title>Node16</title>
<a xlink:href="class_urho3_d_1_1_animation_set2_d.html" target="_top" xlink:title="Spriter animation set, it includes one or more animations, for more information please refer to http:...">
<polygon fill="none" stroke="black" points="1040,-280.5 1040,-301.5 1178,-301.5 1178,-280.5 1040,-280.5"/>
<text text-anchor="middle" x="1109" y="-288.5" font-family="FreeSans" font-size="10.00">Urho3D::AnimationSet2D</text>
</a>
</g>
<!-- Node8&#45;&gt;Node16 -->
<g id="edge44" class="edge"><title>Node8&#45;&gt;Node16</title>
<path fill="none" stroke="#9a32cd" stroke-dasharray="5,2" d="M905.64,-366.891C941.122,-361.851 984.691,-353.507 1022,-340 1048.73,-330.323 1076.92,-312.935 1093.72,-301.687"/>
<polygon fill="#9a32cd" stroke="#9a32cd" points="904.819,-363.471 895.383,-368.289 905.764,-370.407 904.819,-363.471"/>
<text text-anchor="middle" x="978" y="-365" font-family="FreeSans" font-size="10.00"> sprite_</text>
</g>
<!-- Node9&#45;&gt;Node8 -->
<g id="edge18" class="edge"><title>Node9&#45;&gt;Node8</title>
<path fill="none" stroke="#9a32cd" stroke-dasharray="5,2" d="M629.841,-374C674.413,-374 734.558,-374 778.557,-374"/>
<polygon fill="#9a32cd" stroke="#9a32cd" points="629.724,-370.5 619.724,-374 629.724,-377.5 629.724,-370.5"/>
<text text-anchor="middle" x="700" y="-378" font-family="FreeSans" font-size="10.00"> ptr_</text>
</g>
<!-- Node10 -->
<g id="node19" class="node"><title>Node10</title>
<a xlink:href="class_urho3_d_1_1_resource.html" target="_top" xlink:title="Base class for resources.">
<polygon fill="none" stroke="red" points="251.5,-334.5 251.5,-355.5 354.5,-355.5 354.5,-334.5 251.5,-334.5"/>
<text text-anchor="middle" x="303" y="-342.5" font-family="FreeSans" font-size="10.00">Urho3D::Resource</text>
</a>
</g>
<!-- Node10&#45;&gt;Node9 -->
<g id="edge20" class="edge"><title>Node10&#45;&gt;Node9</title>
<path fill="none" stroke="midnightblue" d="M364.599,-351.716C411.301,-356.807 474.697,-363.719 518.444,-368.488"/>
<polygon fill="midnightblue" stroke="midnightblue" points="364.923,-348.23 354.603,-350.626 364.165,-355.189 364.923,-348.23"/>
</g>
<!-- Node13 -->
<g id="node27" class="node"><title>Node13</title>
<a xlink:href="class_urho3_d_1_1_material.html" target="_top" xlink:title="Describes how to render 3D geometries.">
<polygon fill="none" stroke="red" points="520,-411.5 520,-432.5 618,-432.5 618,-411.5 520,-411.5"/>
<text text-anchor="middle" x="569" y="-419.5" font-family="FreeSans" font-size="10.00">Urho3D::Material</text>
</a>
</g>
<!-- Node10&#45;&gt;Node13 -->
<g id="edge32" class="edge"><title>Node10&#45;&gt;Node13</title>
<path fill="none" stroke="midnightblue" d="M324.938,-361.527C345.31,-375.919 377.071,-396.001 408,-406 444.349,-417.751 487.516,-421.532 519.998,-422.495"/>
<polygon fill="midnightblue" stroke="midnightblue" points="326.838,-358.582 316.682,-355.563 322.739,-364.256 326.838,-358.582"/>
</g>
<!-- Node10&#45;&gt;Node16 -->
<g id="edge42" class="edge"><title>Node10&#45;&gt;Node16</title>
<path fill="none" stroke="midnightblue" d="M364.696,-343.728C489.264,-340.683 779.599,-331.175 1022,-305 1030.67,-304.064 1039.79,-302.851 1048.74,-301.53"/>
<polygon fill="midnightblue" stroke="midnightblue" points="364.502,-340.231 354.588,-343.969 364.669,-347.229 364.502,-340.231"/>
</g>
<!-- Node11 -->
<g id="node21" class="node"><title>Node11</title>
<a xlink:href="class_urho3_d_1_1_string.html" target="_top" xlink:title="String class.">
<polygon fill="none" stroke="black" points="0,-258.5 0,-279.5 88,-279.5 88,-258.5 0,-258.5"/>
<text text-anchor="middle" x="44" y="-266.5" font-family="FreeSans" font-size="10.00">Urho3D::String</text>
</a>
</g>
<!-- Node11&#45;&gt;Node1 -->
<g id="edge56" class="edge"><title>Node11&#45;&gt;Node1</title>
<path fill="none" stroke="#9a32cd" stroke-dasharray="5,2" d="M48.5482,-289.639C71.6548,-391.859 179.773,-839 303,-839 303,-839 303,-839 1312,-839 1513.02,-839 1563.23,-489.131 1570.87,-423.53"/>
<polygon fill="#9a32cd" stroke="#9a32cd" points="51.9632,-288.872 46.3643,-279.878 45.132,-290.4 51.9632,-288.872"/>
<text text-anchor="middle" x="837" y="-856" font-family="FreeSans" font-size="10.00"> animationName_</text>
<text text-anchor="middle" x="837" y="-843" font-family="FreeSans" font-size="10.00">entity_</text>
</g>
<!-- Node11&#45;&gt;Node10 -->
<g id="edge22" class="edge"><title>Node11&#45;&gt;Node10</title>
<path fill="none" stroke="#9a32cd" stroke-dasharray="5,2" d="M67.8044,-285.277C78.9756,-292.26 92.729,-299.956 106,-305 153.466,-323.04 210.614,-333.495 251.105,-339.159"/>
<polygon fill="#9a32cd" stroke="#9a32cd" points="69.3944,-282.137 59.0951,-279.652 65.5967,-288.018 69.3944,-282.137"/>
<text text-anchor="middle" x="152" y="-333" font-family="FreeSans" font-size="10.00"> name_</text>
</g>
<!-- Node11&#45;&gt;Node11 -->
<g id="edge24" class="edge"><title>Node11&#45;&gt;Node11</title>
<path fill="none" stroke="#9a32cd" stroke-dasharray="5,2" d="M24.0968,-289.427C25.6322,-294.349 32.2666,-298 44,-298 62.7734,-298 68.4935,-288.653 61.1601,-279.708"/>
<polygon fill="#9a32cd" stroke="#9a32cd" points="27.4918,-290.283 26.8399,-279.708 20.755,-288.381 27.4918,-290.283"/>
<text text-anchor="middle" x="44" y="-302" font-family="FreeSans" font-size="10.00"> EMPTY</text>
</g>
<!-- Node11&#45;&gt;Node16 -->
<g id="edge54" class="edge"><title>Node11&#45;&gt;Node16</title>
<path fill="none" stroke="#9a32cd" stroke-dasharray="5,2" d="M98.425,-276.322C150.756,-282.722 232.136,-291 303,-291 303,-291 303,-291 837,-291 906.062,-291 984.989,-291 1039.97,-291"/>
<polygon fill="#9a32cd" stroke="#9a32cd" points="98.7133,-272.831 88.3578,-275.07 97.8493,-279.777 98.7133,-272.831"/>
<text text-anchor="middle" x="569" y="-295" font-family="FreeSans" font-size="10.00"> spriteSheetFilePath_</text>
</g>
<!-- Node18 -->
<g id="node41" class="node"><title>Node18</title>
<a xlink:href="struct_urho3_d_1_1_spriter_1_1_spriter_data.html" target="_top" xlink:title="Spriter data.">
<polygon fill="none" stroke="red" points="226.5,-234.5 226.5,-255.5 379.5,-255.5 379.5,-234.5 226.5,-234.5"/>
<text text-anchor="middle" x="303" y="-242.5" font-family="FreeSans" font-size="10.00">Urho3D::Spriter::SpriterData</text>
</a>
</g>
<!-- Node11&#45;&gt;Node18 -->
<g id="edge50" class="edge"><title>Node11&#45;&gt;Node18</title>
<path fill="none" stroke="#9a32cd" stroke-dasharray="5,2" d="M84.638,-255.624C91.692,-253.758 99.0077,-252.103 106,-251 145.376,-244.787 189.712,-242.986 226.338,-242.868"/>
<polygon fill="#9a32cd" stroke="#9a32cd" points="83.2306,-252.385 74.5585,-258.471 85.1333,-259.121 83.2306,-252.385"/>
<text text-anchor="middle" x="152" y="-268" font-family="FreeSans" font-size="10.00"> generatorVersion_</text>
<text text-anchor="middle" x="152" y="-255" font-family="FreeSans" font-size="10.00">generator_</text>
</g>
<!-- Node21 -->
<g id="node50" class="node"><title>Node21</title>
<a xlink:href="struct_urho3_d_1_1_spriter_1_1_entity.html" target="_top" xlink:title="Entity.">
<polygon fill="none" stroke="red" points="240.5,-146.5 240.5,-167.5 365.5,-167.5 365.5,-146.5 240.5,-146.5"/>
<text text-anchor="middle" x="303" y="-154.5" font-family="FreeSans" font-size="10.00">Urho3D::Spriter::Entity</text>
</a>
</g>
<!-- Node11&#45;&gt;Node21 -->
<g id="edge62" class="edge"><title>Node11&#45;&gt;Node21</title>
<path fill="none" stroke="#9a32cd" stroke-dasharray="5,2" d="M66.516,-252.398C78.0313,-244.26 92.4449,-234.6 106,-227 152.842,-200.736 165.131,-194.213 216,-177 226.57,-173.423 238.076,-170.276 249.156,-167.601"/>
<polygon fill="#9a32cd" stroke="#9a32cd" points="64.4221,-249.593 58.3374,-258.266 68.5028,-255.281 64.4221,-249.593"/>
<text text-anchor="middle" x="152" y="-231" font-family="FreeSans" font-size="10.00"> name_</text>
</g>
<!-- Node24 -->
<g id="node58" class="node"><title>Node24</title>
<a xlink:href="struct_urho3_d_1_1_spriter_1_1_animation.html" target="_top" xlink:title="Animation.">
<polygon fill="none" stroke="red" points="230,-106.5 230,-127.5 376,-127.5 376,-106.5 230,-106.5"/>
<text text-anchor="middle" x="303" y="-114.5" font-family="FreeSans" font-size="10.00">Urho3D::Spriter::Animation</text>
</a>
</g>
<!-- Node11&#45;&gt;Node24 -->
<g id="edge72" class="edge"><title>Node11&#45;&gt;Node24</title>
<path fill="none" stroke="#9a32cd" stroke-dasharray="5,2" d="M51.0449,-248.649C60.1284,-225.43 78.1499,-187.972 106,-167 141.516,-140.255 189.794,-127.725 229.668,-121.895"/>
<polygon fill="#9a32cd" stroke="#9a32cd" points="47.6966,-247.612 47.4972,-258.205 54.2589,-250.049 47.6966,-247.612"/>
<text text-anchor="middle" x="152" y="-171" font-family="FreeSans" font-size="10.00"> name_</text>
</g>
<!-- Node12 -->
<g id="node25" class="node"><title>Node12</title>
<a xlink:href="class_urho3_d_1_1_shared_ptr.html" target="_top" xlink:title="Urho3D::SharedPtr\&lt;\l Urho3D::Material \&gt;">
<polygon fill="none" stroke="black" points="779,-409 779,-443 895,-443 895,-409 779,-409"/>
<text text-anchor="start" x="787" y="-430" font-family="FreeSans" font-size="10.00">Urho3D::SharedPtr&lt;</text>
<text text-anchor="middle" x="837" y="-417" font-family="FreeSans" font-size="10.00"> Urho3D::Material &gt;</text>
</a>
</g>
<!-- Node12&#45;&gt;Node2 -->
<g id="edge28" class="edge"><title>Node12&#45;&gt;Node2</title>
<path fill="none" stroke="#9a32cd" stroke-dasharray="5,2" d="M905.468,-431.273C940.377,-434.126 983.487,-437.901 1022,-442 1029.27,-442.773 1036.87,-443.643 1044.42,-444.547"/>
<polygon fill="#9a32cd" stroke="#9a32cd" points="905.632,-427.775 895.382,-430.456 905.066,-434.752 905.632,-427.775"/>
<text text-anchor="middle" x="978" y="-446" font-family="FreeSans" font-size="10.00"> customMaterial_</text>
</g>
<!-- Node13&#45;&gt;Node12 -->
<g id="edge30" class="edge"><title>Node13&#45;&gt;Node12</title>
<path fill="none" stroke="#9a32cd" stroke-dasharray="5,2" d="M628.313,-422.885C673.121,-423.554 734.3,-424.467 778.827,-425.132"/>
<polygon fill="#9a32cd" stroke="#9a32cd" points="628.206,-419.383 618.155,-422.734 628.102,-426.383 628.206,-419.383"/>
<text text-anchor="middle" x="700" y="-428" font-family="FreeSans" font-size="10.00"> ptr_</text>
</g>
<!-- Node14 -->
<g id="node30" class="node"><title>Node14</title>
<a xlink:href="class_urho3_d_1_1_color.html" target="_top" xlink:title="RGBA color.">
<polygon fill="none" stroke="black" points="795,-461.5 795,-482.5 879,-482.5 879,-461.5 795,-461.5"/>
<text text-anchor="middle" x="837" y="-469.5" font-family="FreeSans" font-size="10.00">Urho3D::Color</text>
</a>
</g>
<!-- Node14&#45;&gt;Node2 -->
<g id="edge34" class="edge"><title>Node14&#45;&gt;Node2</title>
<path fill="none" stroke="#9a32cd" stroke-dasharray="5,2" d="M889.443,-468.337C933.643,-465.249 997.068,-460.819 1044.39,-457.513"/>
<polygon fill="#9a32cd" stroke="#9a32cd" points="888.933,-464.864 879.202,-469.052 889.421,-471.847 888.933,-464.864"/>
<text text-anchor="middle" x="978" y="-468" font-family="FreeSans" font-size="10.00"> color_</text>
</g>
<!-- Node14&#45;&gt;Node14 -->
<g id="edge36" class="edge"><title>Node14&#45;&gt;Node14</title>
<path fill="none" stroke="#9a32cd" stroke-dasharray="5,2" d="M811.804,-492.055C813.456,-497.164 821.855,-501 837,-501 860.641,-501 867.844,-491.653 858.609,-482.708"/>
<polygon fill="#9a32cd" stroke="#9a32cd" points="815.076,-493.298 815.391,-482.708 808.54,-490.79 815.076,-493.298"/>
<text text-anchor="middle" x="837" y="-635" font-family="FreeSans" font-size="10.00"> CYAN</text>
<text text-anchor="middle" x="837" y="-622" font-family="FreeSans" font-size="10.00">GRAY</text>
<text text-anchor="middle" x="837" y="-609" font-family="FreeSans" font-size="10.00">YELLOW</text>
<text text-anchor="middle" x="837" y="-596" font-family="FreeSans" font-size="10.00">MAGENTA</text>
<text text-anchor="middle" x="837" y="-583" font-family="FreeSans" font-size="10.00">WHITE</text>
<text text-anchor="middle" x="837" y="-570" font-family="FreeSans" font-size="10.00">TRANSPARENT</text>
<text text-anchor="middle" x="837" y="-557" font-family="FreeSans" font-size="10.00">BLUE</text>
<text text-anchor="middle" x="837" y="-544" font-family="FreeSans" font-size="10.00">BLACK</text>
<text text-anchor="middle" x="837" y="-531" font-family="FreeSans" font-size="10.00">RED</text>
<text text-anchor="middle" x="837" y="-518" font-family="FreeSans" font-size="10.00">GREEN</text>
<text text-anchor="middle" x="837" y="-505" font-family="FreeSans" font-size="10.00">...</text>
</g>
<!-- Node15 -->
<g id="node33" class="node"><title>Node15</title>
<a xlink:href="class_urho3_d_1_1_shared_ptr.html" target="_top" xlink:title="Urho3D::SharedPtr\&lt;\l Urho3D::AnimationSet2D \&gt;">
<polygon fill="none" stroke="black" points="1236,-357 1236,-391 1388,-391 1388,-357 1236,-357"/>
<text text-anchor="start" x="1244" y="-378" font-family="FreeSans" font-size="10.00">Urho3D::SharedPtr&lt;</text>
<text text-anchor="middle" x="1312" y="-365" font-family="FreeSans" font-size="10.00"> Urho3D::AnimationSet2D &gt;</text>
</a>
</g>
<!-- Node15&#45;&gt;Node1 -->
<g id="edge38" class="edge"><title>Node15&#45;&gt;Node1</title>
<path fill="none" stroke="#9a32cd" stroke-dasharray="5,2" d="M1398.53,-386.98C1432.14,-392.021 1470.13,-397.719 1501.97,-402.496"/>
<polygon fill="#9a32cd" stroke="#9a32cd" points="1398.66,-383.46 1388.25,-385.438 1397.62,-390.383 1398.66,-383.46"/>
<text text-anchor="middle" x="1443" y="-402" font-family="FreeSans" font-size="10.00"> animationSet_</text>
</g>
<!-- Node16&#45;&gt;Node15 -->
<g id="edge40" class="edge"><title>Node16&#45;&gt;Node15</title>
<path fill="none" stroke="#9a32cd" stroke-dasharray="5,2" d="M1144.07,-305.339C1179.14,-319.677 1233.07,-341.728 1270.31,-356.953"/>
<polygon fill="#9a32cd" stroke="#9a32cd" points="1145.29,-302.057 1134.71,-301.512 1142.64,-308.536 1145.29,-302.057"/>
<text text-anchor="middle" x="1207" y="-338" font-family="FreeSans" font-size="10.00"> ptr_</text>
</g>
<!-- Node17 -->
<g id="node39" class="node"><title>Node17</title>
<a xlink:href="class_urho3_d_1_1_shared_ptr.html" target="_top" xlink:title="Urho3D::SharedPtr\&lt;\l Urho3D::SpriteSheet2D \&gt;">
<polygon fill="none" stroke="red" points="765,-191 765,-225 909,-225 909,-191 765,-191"/>
<text text-anchor="start" x="773" y="-212" font-family="FreeSans" font-size="10.00">Urho3D::SharedPtr&lt;</text>
<text text-anchor="middle" x="837" y="-199" font-family="FreeSans" font-size="10.00"> Urho3D::SpriteSheet2D &gt;</text>
</a>
</g>
<!-- Node17&#45;&gt;Node16 -->
<g id="edge46" class="edge"><title>Node17&#45;&gt;Node16</title>
<path fill="none" stroke="#9a32cd" stroke-dasharray="5,2" d="M919.392,-206.531C952.242,-208.352 989.818,-213.543 1022,-226 1053.65,-238.251 1083.8,-265.409 1098.92,-280.454"/>
<polygon fill="#9a32cd" stroke="#9a32cd" points="919.511,-203.033 909.361,-206.069 919.189,-210.025 919.511,-203.033"/>
<text text-anchor="middle" x="978" y="-230" font-family="FreeSans" font-size="10.00"> spriteSheet_</text>
</g>
<!-- Node18&#45;&gt;Node16 -->
<g id="edge48" class="edge"><title>Node18&#45;&gt;Node16</title>
<path fill="none" stroke="#9a32cd" stroke-dasharray="5,2" d="M389.875,-245.601C525.281,-247.274 794.722,-253.551 1022,-277 1030.83,-277.911 1040.12,-279.127 1049.21,-280.464"/>
<polygon fill="#9a32cd" stroke="#9a32cd" points="389.608,-242.098 379.568,-245.48 389.526,-249.098 389.608,-242.098"/>
<text text-anchor="middle" x="700" y="-260" font-family="FreeSans" font-size="10.00"> spriterData_</text>
</g>
<!-- Node20 -->
<g id="node48" class="node"><title>Node20</title>
<a xlink:href="class_urho3_d_1_1_spriter_1_1_spriter_instance.html" target="_top" xlink:title="Spriter instance.">
<polygon fill="none" stroke="black" points="504,-92 504,-126 634,-126 634,-92 504,-92"/>
<text text-anchor="start" x="512" y="-113" font-family="FreeSans" font-size="10.00">Urho3D::Spriter::Spriter</text>
<text text-anchor="middle" x="569" y="-100" font-family="FreeSans" font-size="10.00">Instance</text>
</a>
</g>
<!-- Node18&#45;&gt;Node20 -->
<g id="edge66" class="edge"><title>Node18&#45;&gt;Node20</title>
<path fill="none" stroke="#9a32cd" stroke-dasharray="5,2" d="M353.258,-231.742C396.959,-219.755 456.54,-202.171 478,-190 508.172,-172.888 537.033,-144.458 553.879,-126.234"/>
<polygon fill="#9a32cd" stroke="#9a32cd" points="352.09,-228.433 343.36,-234.436 353.928,-235.187 352.09,-228.433"/>
<text text-anchor="middle" x="443" y="-220" font-family="FreeSans" font-size="10.00"> spriterData_</text>
</g>
<!-- Node19 -->
<g id="node44" class="node"><title>Node19</title>
<a xlink:href="class_urho3_d_1_1_hash_map.html" target="_top" xlink:title="Urho3D::HashMap\&lt; int,\l Urho3D::SharedPtr\&lt; Urho3D\l::Sprite2D \&gt; \&gt;">
<polygon fill="none" stroke="red" points="758,-125.5 758,-172.5 916,-172.5 916,-125.5 758,-125.5"/>
<text text-anchor="start" x="766" y="-159.5" font-family="FreeSans" font-size="10.00">Urho3D::HashMap&lt; int,</text>
<text text-anchor="start" x="766" y="-146.5" font-family="FreeSans" font-size="10.00"> Urho3D::SharedPtr&lt; Urho3D</text>
<text text-anchor="middle" x="837" y="-133.5" font-family="FreeSans" font-size="10.00">::Sprite2D &gt; &gt;</text>
</a>
</g>
<!-- Node19&#45;&gt;Node16 -->
<g id="edge52" class="edge"><title>Node19&#45;&gt;Node16</title>
<path fill="none" stroke="#9a32cd" stroke-dasharray="5,2" d="M926.454,-157.676C958.28,-163.683 993.307,-173.838 1022,-191 1060.31,-213.915 1090.52,-259.528 1102.9,-280.277"/>
<polygon fill="#9a32cd" stroke="#9a32cd" points="926.702,-154.166 916.245,-155.868 925.481,-161.058 926.702,-154.166"/>
<text text-anchor="middle" x="978" y="-195" font-family="FreeSans" font-size="10.00"> spriterFileSprites_</text>
</g>
<!-- Node20&#45;&gt;Node1 -->
<g id="edge58" class="edge"><title>Node20&#45;&gt;Node1</title>
<path fill="none" stroke="#9a32cd" stroke-dasharray="5,2" d="M644.343,-103.823C698.028,-100.576 771.915,-97 837,-97 837,-97 837,-97 1312,-97 1473.98,-97 1553.67,-347.655 1569.16,-402.486"/>
<polygon fill="#9a32cd" stroke="#9a32cd" points="643.989,-100.338 634.223,-104.446 644.419,-107.325 643.989,-100.338"/>
<text text-anchor="middle" x="1109" y="-101" font-family="FreeSans" font-size="10.00"> spriterInstance_</text>
</g>
<!-- Node21&#45;&gt;Node20 -->
<g id="edge60" class="edge"><title>Node21&#45;&gt;Node20</title>
<path fill="none" stroke="#9a32cd" stroke-dasharray="5,2" d="M371.229,-144.688C412.004,-137.33 463.524,-128.033 503.757,-120.773"/>
<polygon fill="#9a32cd" stroke="#9a32cd" points="370.594,-141.246 361.375,-146.466 371.837,-148.135 370.594,-141.246"/>
<text text-anchor="middle" x="443" y="-142" font-family="FreeSans" font-size="10.00"> entity_</text>
</g>
<!-- Node22 -->
<g id="node53" class="node"><title>Node22</title>
<a xlink:href="class_urho3_d_1_1_p_o_d_vector.html" target="_top" xlink:title="Urho3D::PODVector\&lt;\l Urho3D::Spriter::SpatialTimeline\lKey * \&gt;">
<polygon fill="none" stroke="red" points="216.5,-40.5 216.5,-87.5 389.5,-87.5 389.5,-40.5 216.5,-40.5"/>
<text text-anchor="start" x="224.5" y="-74.5" font-family="FreeSans" font-size="10.00">Urho3D::PODVector&lt;</text>
<text text-anchor="start" x="224.5" y="-61.5" font-family="FreeSans" font-size="10.00"> Urho3D::Spriter::SpatialTimeline</text>
<text text-anchor="middle" x="303" y="-48.5" font-family="FreeSans" font-size="10.00">Key * &gt;</text>
</a>
</g>
<!-- Node22&#45;&gt;Node20 -->
<g id="edge64" class="edge"><title>Node22&#45;&gt;Node20</title>
<path fill="none" stroke="#9a32cd" stroke-dasharray="5,2" d="M399.878,-79.0393C425.316,-83.1145 452.709,-87.6151 478,-92 486.393,-93.4551 495.211,-95.0364 503.919,-96.6292"/>
<polygon fill="#9a32cd" stroke="#9a32cd" points="400.288,-75.5605 389.861,-77.4402 399.184,-82.4729 400.288,-75.5605"/>
<text text-anchor="middle" x="443" y="-96" font-family="FreeSans" font-size="10.00"> timelineKeys_</text>
</g>
<!-- Node23 -->
<g id="node56" class="node"><title>Node23</title>
<a xlink:href="struct_urho3_d_1_1_spriter_1_1_mainline_key.html" target="_top" xlink:title="Mainline key.">
<polygon fill="none" stroke="red" points="226.5,-0.5 226.5,-21.5 379.5,-21.5 379.5,-0.5 226.5,-0.5"/>
<text text-anchor="middle" x="303" y="-8.5" font-family="FreeSans" font-size="10.00">Urho3D::Spriter::MainlineKey</text>
</a>
</g>
<!-- Node23&#45;&gt;Node20 -->
<g id="edge68" class="edge"><title>Node23&#45;&gt;Node20</title>
<path fill="none" stroke="#9a32cd" stroke-dasharray="5,2" d="M363.8,-23.8894C372.639,-26.0778 381.59,-28.4686 390,-31 429.998,-43.039 439.675,-47.3879 478,-64 497.729,-72.5514 519.321,-83.1722 536.519,-91.948"/>
<polygon fill="#9a32cd" stroke="#9a32cd" points="364.444,-20.4445 353.903,-21.508 362.807,-27.2503 364.444,-20.4445"/>
<text text-anchor="middle" x="443" y="-68" font-family="FreeSans" font-size="10.00"> mainlineKey_</text>
</g>
<!-- Node24&#45;&gt;Node20 -->
<g id="edge70" class="edge"><title>Node24&#45;&gt;Node20</title>
<path fill="none" stroke="#9a32cd" stroke-dasharray="5,2" d="M386.172,-110.992C393.551,-110.599 400.908,-110.258 408,-110 439.565,-108.851 474.633,-108.521 503.962,-108.512"/>
<polygon fill="#9a32cd" stroke="#9a32cd" points="385.908,-107.501 376.12,-111.557 386.301,-114.49 385.908,-107.501"/>
<text text-anchor="middle" x="443" y="-114" font-family="FreeSans" font-size="10.00"> animation_</text>
</g>
<!-- Node25 -->
<g id="node61" class="node"><title>Node25</title>
<a xlink:href="struct_urho3_d_1_1_spriter_1_1_spatial_info.html" target="_top" xlink:title="Spatial info.">
<polygon fill="none" stroke="black" points="229,-186.5 229,-207.5 377,-207.5 377,-186.5 229,-186.5"/>
<text text-anchor="middle" x="303" y="-194.5" font-family="FreeSans" font-size="10.00">Urho3D::Spriter::SpatialInfo</text>
</a>
</g>
<!-- Node25&#45;&gt;Node20 -->
<g id="edge74" class="edge"><title>Node25&#45;&gt;Node20</title>
<path fill="none" stroke="#9a32cd" stroke-dasharray="5,2" d="M359.547,-184.165C369.694,-181.815 380.167,-179.359 390,-177 429.202,-167.595 440.22,-169.07 478,-155 499.234,-147.092 521.984,-135.592 539.426,-126.069"/>
<polygon fill="#9a32cd" stroke="#9a32cd" points="358.501,-180.814 349.544,-186.472 360.074,-187.635 358.501,-180.814"/>
<text text-anchor="middle" x="443" y="-177" font-family="FreeSans" font-size="10.00"> spatialInfo_</text>
</g>
</g>
</svg>
