<?xml version="1.0" encoding="UTF-8" standalone="no"?>
<!DOCTYPE svg PUBLIC "-//W3C//DTD SVG 1.1//EN"
 "http://www.w3.org/Graphics/SVG/1.1/DTD/svg11.dtd">
<!-- Generated by graphviz version 2.26.3 (20100126.1600)
 -->
<!-- Title: Urho3D::Spline::GetPoint Pages: 1 -->
<svg width="614pt" height="406pt"
 viewBox="0.00 0.00 614.00 406.00" xmlns="http://www.w3.org/2000/svg" xmlns:xlink="http://www.w3.org/1999/xlink">
<g id="graph1" class="graph" transform="scale(1 1) rotate(0) translate(4 402)">
<title>Urho3D::Spline::GetPoint</title>
<!-- Node1 -->
<g id="node1" class="node"><title>Node1</title>
<polygon fill="#bfbfbf" stroke="black" points="0,-318.5 0,-339.5 136,-339.5 136,-318.5 0,-318.5"/>
<text text-anchor="middle" x="68" y="-326.5" font-family="FreeSans" font-size="10.00">Urho3D::Spline::GetPoint</text>
</g>
<!-- Node2 -->
<g id="node3" class="node"><title>Node2</title>
<a xlink:href="class_urho3_d_1_1_spline_path.html#a4f238d19b9538149a3eb5ad89c4b8563" target="_top" xlink:title="Draw the Debug Geometry.">
<polygon fill="none" stroke="black" points="172,-364 172,-398 298,-398 298,-364 172,-364"/>
<text text-anchor="start" x="180" y="-385" font-family="FreeSans" font-size="10.00">Urho3D::SplinePath</text>
<text text-anchor="middle" x="235" y="-372" font-family="FreeSans" font-size="10.00">::DrawDebugGeometry</text>
</a>
</g>
<!-- Node1&#45;&gt;Node2 -->
<g id="edge2" class="edge"><title>Node1&#45;&gt;Node2</title>
<path fill="none" stroke="midnightblue" d="M111.415,-342.518C132.429,-349.062 157.883,-356.988 180.217,-363.942"/>
<polygon fill="midnightblue" stroke="midnightblue" points="112.383,-339.154 101.795,-339.523 110.302,-345.838 112.383,-339.154"/>
</g>
<!-- Node3 -->
<g id="node5" class="node"><title>Node3</title>
<a xlink:href="class_urho3_d_1_1_spline_path.html#a30e120d56aaa3b5809ec94807b2f2bfd" target="_top" xlink:title="Get a point on the SplinePath from 0.f to 1.f where 0 is the start and 1 is the end.">
<polygon fill="none" stroke="black" points="180,-312 180,-346 290,-346 290,-312 180,-312"/>
<text text-anchor="start" x="188" y="-333" font-family="FreeSans" font-size="10.00">Urho3D::SplinePath</text>
<text text-anchor="middle" x="235" y="-320" font-family="FreeSans" font-size="10.00">::GetPoint</text>
</a>
</g>
<!-- Node1&#45;&gt;Node3 -->
<g id="edge4" class="edge"><title>Node1&#45;&gt;Node3</title>
<path fill="none" stroke="midnightblue" d="M146.684,-329C157.936,-329 169.305,-329 179.97,-329"/>
<polygon fill="midnightblue" stroke="midnightblue" points="146.407,-325.5 136.407,-329 146.407,-332.5 146.407,-325.5"/>
</g>
<!-- Node5 -->
<g id="node9" class="node"><title>Node5</title>
<a xlink:href="class_urho3_d_1_1_spline_path.html#a36d325ce97cc0e763e2feb1f62c3f606" target="_top" xlink:title="Calculate the length of the SplinePath. Used for movement calculations.">
<polygon fill="none" stroke="black" points="180,-182 180,-216 290,-216 290,-182 180,-182"/>
<text text-anchor="start" x="188" y="-203" font-family="FreeSans" font-size="10.00">Urho3D::SplinePath</text>
<text text-anchor="middle" x="235" y="-190" font-family="FreeSans" font-size="10.00">::CalculateLength</text>
</a>
</g>
<!-- Node1&#45;&gt;Node5 -->
<g id="edge8" class="edge"><title>Node1&#45;&gt;Node5</title>
<path fill="none" stroke="midnightblue" d="M89.9279,-311.93C121.933,-287.016 181.101,-240.957 213.094,-216.053"/>
<polygon fill="midnightblue" stroke="midnightblue" points="87.4074,-309.457 81.6663,-318.362 91.7073,-314.981 87.4074,-309.457"/>
</g>
<!-- Node4 -->
<g id="node7" class="node"><title>Node4</title>
<a xlink:href="class_urho3_d_1_1_spline_path.html#ae41c6741a56b4f3509acc433c64f93b7" target="_top" xlink:title="Move the controlled Node to the next position along the SplinePath based off the Speed value...">
<polygon fill="none" stroke="black" points="342,-364 342,-398 452,-398 452,-364 342,-364"/>
<text text-anchor="start" x="350" y="-385" font-family="FreeSans" font-size="10.00">Urho3D::SplinePath</text>
<text text-anchor="middle" x="397" y="-372" font-family="FreeSans" font-size="10.00">::Move</text>
</a>
</g>
<!-- Node3&#45;&gt;Node4 -->
<g id="edge6" class="edge"><title>Node3&#45;&gt;Node4</title>
<path fill="none" stroke="midnightblue" d="M297.872,-349.181C313.06,-354.056 329.143,-359.219 343.836,-363.935"/>
<polygon fill="midnightblue" stroke="midnightblue" points="298.636,-345.751 288.045,-346.027 296.497,-352.416 298.636,-345.751"/>
</g>
<!-- Node6 -->
<g id="node11" class="node"><title>Node6</title>
<a xlink:href="class_urho3_d_1_1_spline_path.html#a30c432c329069076cd6c46e833c63f76" target="_top" xlink:title="Apply Attributes to the SplinePath.">
<polygon fill="none" stroke="black" points="342,-312 342,-346 452,-346 452,-312 342,-312"/>
<text text-anchor="start" x="350" y="-333" font-family="FreeSans" font-size="10.00">Urho3D::SplinePath</text>
<text text-anchor="middle" x="397" y="-320" font-family="FreeSans" font-size="10.00">::ApplyAttributes</text>
</a>
</g>
<!-- Node5&#45;&gt;Node6 -->
<g id="edge10" class="edge"><title>Node5&#45;&gt;Node6</title>
<path fill="none" stroke="midnightblue" d="M253.882,-224.21C272.229,-247.269 301.949,-281.039 334,-303 338.783,-306.277 344.043,-309.252 349.422,-311.921"/>
<polygon fill="midnightblue" stroke="midnightblue" points="256.569,-221.965 247.653,-216.241 251.053,-226.275 256.569,-221.965"/>
</g>
<!-- Node7 -->
<g id="node13" class="node"><title>Node7</title>
<a xlink:href="class_urho3_d_1_1_spline_path.html#aeda8d385fe734579f66408158582ada0" target="_top" xlink:title="Add a Node to the SplinePath as a Control Point.">
<polygon fill="none" stroke="black" points="342,-260 342,-294 452,-294 452,-260 342,-260"/>
<text text-anchor="start" x="350" y="-281" font-family="FreeSans" font-size="10.00">Urho3D::SplinePath</text>
<text text-anchor="middle" x="397" y="-268" font-family="FreeSans" font-size="10.00">::AddControlPoint</text>
</a>
</g>
<!-- Node5&#45;&gt;Node7 -->
<g id="edge12" class="edge"><title>Node5&#45;&gt;Node7</title>
<path fill="none" stroke="midnightblue" d="M274.843,-221C292.738,-230.602 314.233,-241.754 334,-251 340.431,-254.008 347.308,-257.034 354.068,-259.905"/>
<polygon fill="midnightblue" stroke="midnightblue" points="276.304,-217.812 265.842,-216.139 272.978,-223.971 276.304,-217.812"/>
</g>
<!-- Node8 -->
<g id="node15" class="node"><title>Node8</title>
<a xlink:href="class_urho3_d_1_1_spline_path.html#a0f115ec8c2245008faf5687aca256a4e" target="_top" xlink:title="Remove a Node Control Point from the SplinePath.">
<polygon fill="none" stroke="black" points="337.5,-208 337.5,-242 456.5,-242 456.5,-208 337.5,-208"/>
<text text-anchor="start" x="345.5" y="-229" font-family="FreeSans" font-size="10.00">Urho3D::SplinePath</text>
<text text-anchor="middle" x="397" y="-216" font-family="FreeSans" font-size="10.00">::RemoveControlPoint</text>
</a>
</g>
<!-- Node5&#45;&gt;Node8 -->
<g id="edge14" class="edge"><title>Node5&#45;&gt;Node8</title>
<path fill="none" stroke="midnightblue" d="M300.389,-209.495C312.57,-211.449 325.24,-213.483 337.241,-215.409"/>
<polygon fill="midnightblue" stroke="midnightblue" points="300.726,-206.004 290.298,-207.875 299.617,-212.916 300.726,-206.004"/>
</g>
<!-- Node9 -->
<g id="node17" class="node"><title>Node9</title>
<a xlink:href="class_urho3_d_1_1_spline_path.html#ae029f501c426c03362faf3f51678eefb" target="_top" xlink:title="Clear the Control Points from the SplinePath.">
<polygon fill="none" stroke="black" points="341.5,-156 341.5,-190 452.5,-190 452.5,-156 341.5,-156"/>
<text text-anchor="start" x="349.5" y="-177" font-family="FreeSans" font-size="10.00">Urho3D::SplinePath</text>
<text text-anchor="middle" x="397" y="-164" font-family="FreeSans" font-size="10.00">::ClearControlPoints</text>
</a>
</g>
<!-- Node5&#45;&gt;Node9 -->
<g id="edge16" class="edge"><title>Node5&#45;&gt;Node9</title>
<path fill="none" stroke="midnightblue" d="M300.522,-188.484C314.08,-186.308 328.238,-184.036 341.401,-181.923"/>
<polygon fill="midnightblue" stroke="midnightblue" points="299.617,-185.084 290.298,-190.125 300.726,-191.996 299.617,-185.084"/>
</g>
<!-- Node10 -->
<g id="node19" class="node"><title>Node10</title>
<a xlink:href="class_urho3_d_1_1_spline_path.html#ae9a6a13c7f1d9f24065cd015265a469f" target="_top" xlink:title="Set the Interpolation Mode.">
<polygon fill="none" stroke="black" points="334.5,-104 334.5,-138 459.5,-138 459.5,-104 334.5,-104"/>
<text text-anchor="start" x="342.5" y="-125" font-family="FreeSans" font-size="10.00">Urho3D::SplinePath</text>
<text text-anchor="middle" x="397" y="-112" font-family="FreeSans" font-size="10.00">::SetInterpolationMode</text>
</a>
</g>
<!-- Node5&#45;&gt;Node10 -->
<g id="edge18" class="edge"><title>Node5&#45;&gt;Node10</title>
<path fill="none" stroke="midnightblue" d="M274.843,-177C292.738,-167.398 314.233,-156.246 334,-147 340.431,-143.992 347.308,-140.966 354.068,-138.095"/>
<polygon fill="midnightblue" stroke="midnightblue" points="272.978,-174.029 265.842,-181.861 276.304,-180.188 272.978,-174.029"/>
</g>
<!-- Node12 -->
<g id="node23" class="node"><title>Node12</title>
<a xlink:href="class_urho3_d_1_1_spline_path.html#a208c4b09d5ea0b05b89b87f365806af4" target="_top" xlink:title="Listener to manage Control Point movement.">
<polygon fill="none" stroke="black" points="342,-52 342,-86 452,-86 452,-52 342,-52"/>
<text text-anchor="start" x="350" y="-73" font-family="FreeSans" font-size="10.00">Urho3D::SplinePath</text>
<text text-anchor="middle" x="397" y="-60" font-family="FreeSans" font-size="10.00">::OnMarkedDirty</text>
</a>
</g>
<!-- Node5&#45;&gt;Node12 -->
<g id="edge22" class="edge"><title>Node5&#45;&gt;Node12</title>
<path fill="none" stroke="midnightblue" d="M253.882,-173.79C272.229,-150.731 301.949,-116.961 334,-95 338.783,-91.7229 344.043,-88.7477 349.422,-86.079"/>
<polygon fill="midnightblue" stroke="midnightblue" points="251.053,-171.725 247.653,-181.759 256.569,-176.035 251.053,-171.725"/>
</g>
<!-- Node13 -->
<g id="node25" class="node"><title>Node13</title>
<a xlink:href="class_urho3_d_1_1_spline_path.html#a8ed509044ec8da0efb529f9b1be25ba2" target="_top" xlink:title="Listener to manage Control Point enabling.">
<polygon fill="none" stroke="black" points="339,-0 339,-34 455,-34 455,-0 339,-0"/>
<text text-anchor="start" x="347" y="-21" font-family="FreeSans" font-size="10.00">Urho3D::SplinePath</text>
<text text-anchor="middle" x="397" y="-8" font-family="FreeSans" font-size="10.00">::OnNodeSetEnabled</text>
</a>
</g>
<!-- Node5&#45;&gt;Node13 -->
<g id="edge24" class="edge"><title>Node5&#45;&gt;Node13</title>
<path fill="none" stroke="midnightblue" d="M245.731,-172.456C260.776,-138.258 291.18,-78.9468 334,-43 337.987,-39.6526 342.465,-36.6878 347.147,-34.073"/>
<polygon fill="midnightblue" stroke="midnightblue" points="242.448,-171.233 241.727,-181.803 248.882,-173.989 242.448,-171.233"/>
</g>
<!-- Node11 -->
<g id="node21" class="node"><title>Node11</title>
<a xlink:href="class_urho3_d_1_1_spline_path.html#a0c940eaebcacf000d99883f747d03b1d" target="_top" xlink:title="Register object factory.">
<polygon fill="none" stroke="black" points="496,-104 496,-138 606,-138 606,-104 496,-104"/>
<text text-anchor="start" x="504" y="-125" font-family="FreeSans" font-size="10.00">Urho3D::SplinePath</text>
<text text-anchor="middle" x="551" y="-112" font-family="FreeSans" font-size="10.00">::RegisterObject</text>
</a>
</g>
<!-- Node10&#45;&gt;Node11 -->
<g id="edge20" class="edge"><title>Node10&#45;&gt;Node11</title>
<path fill="none" stroke="midnightblue" d="M469.843,-121C478.587,-121 487.403,-121 495.837,-121"/>
<polygon fill="midnightblue" stroke="midnightblue" points="469.638,-117.5 459.638,-121 469.638,-124.5 469.638,-117.5"/>
</g>
</g>
</svg>
