<?xml version="1.0" encoding="UTF-8" standalone="no"?>
<!DOCTYPE svg PUBLIC "-//W3C//DTD SVG 1.1//EN"
 "http://www.w3.org/Graphics/SVG/1.1/DTD/svg11.dtd">
<!-- Generated by graphviz version 2.26.3 (20100126.1600)
 -->
<!-- Title: Urho3D::Graphics::Clear Pages: 1 -->
<!--zoomable 885 -->
<svg id="main" version="1.1" xmlns="http://www.w3.org/2000/svg" xmlns:xlink="http://www.w3.org/1999/xlink" xml:space="preserve" onload="init(evt)">
        <defs>
                <circle id="rim" cx="0" cy="0" r="7"/>
                <circle id="rim2" cx="0" cy="0" r="3.5"/>
                <g id="zoomPlus">
                        <use xlink:href="#rim" fill="#404040">
                                <set attributeName="fill" to="#808080" begin="zoomplus.mouseover" end="zoomplus.mouseout"/>
                        </use>
                        <path d="M-4,0h8M0,-4v8" fill="none" stroke="white" stroke-width="1.5" pointer-events="none"/>
                </g>
                <g id="zoomMin">
                        <use xlink:href="#rim" fill="#404040">
                                <set attributeName="fill" to="#808080" begin="zoomminus.mouseover" end="zoomminus.mouseout"/>
                        </use>
                        <path d="M-4,0h8" fill="none" stroke="white" stroke-width="1.5" pointer-events="none"/>
                </g>
                <g id="dirArrow">
                        <path fill="none" stroke="white" stroke-width="1.5" d="M0,-3.0v7 M-2.5,-0.5L0,-3.0L2.5,-0.5"/>
                </g>
               <g id="resetDef">
                       <use xlink:href="#rim2" fill="#404040">
                               <set attributeName="fill" to="#808080" begin="reset.mouseover" end="reset.mouseout"/>
                       </use>
               </g>
        </defs>

<script type="text/javascript">
var viewWidth = 718;
var viewHeight = 885;
var sectionId = 'dynsection-2';
</script>
<script xlink:href="svgpan.js"/>
<svg id="graph" class="graph">
<g id="viewport">
<title>Urho3D::Graphics::Clear</title>
<!-- Node1 -->
<g id="node1" class="node"><title>Node1</title>
<polygon fill="#bfbfbf" stroke="black" points="0,-350.5 0,-371.5 132,-371.5 132,-350.5 0,-350.5"/>
<text text-anchor="middle" x="66" y="-358.5" font-family="FreeSans" font-size="10.00">Urho3D::Graphics::Clear</text>
</g>
<!-- Node2 -->
<g id="node3" class="node"><title>Node2</title>
<a xlink:href="class_urho3_d_1_1_graphics.html#a016c9d34850452e2e97a51f520d15443" target="_top" xlink:title="Return rendertarget width and height.">
<polygon fill="none" stroke="black" points="386,-843 386,-877 544,-877 544,-843 386,-843"/>
<text text-anchor="start" x="394" y="-864" font-family="FreeSans" font-size="10.00">Urho3D::Graphics::GetRender</text>
<text text-anchor="middle" x="465" y="-851" font-family="FreeSans" font-size="10.00">TargetDimensions</text>
</a>
</g>
<!-- Node1&#45;&gt;Node2 -->
<g id="edge2" class="edge"><title>Node1&#45;&gt;Node2</title>
<path fill="none" stroke="midnightblue" d="M67.1461,-371.705C72.1059,-413.801 94.8817,-570.603 168,-672 226.907,-753.689 269.27,-746.786 350,-807 366.032,-818.958 368.267,-824.752 386,-834 389.333,-835.738 392.804,-837.392 396.352,-838.96"/>
<polygon fill="midnightblue" stroke="midnightblue" points="395.302,-842.313 405.88,-842.91 397.983,-835.847 395.302,-842.313"/>
</g>
<!-- Node5 -->
<g id="node9" class="node"><title>Node5</title>
<a xlink:href="class_urho3_d_1_1_graphics.html#a3dd369dc58e2db876d8d001ba24762a5" target="_top" xlink:title="Process dirtied state before draw.">
<polygon fill="none" stroke="red" points="174.5,-641.5 174.5,-662.5 343.5,-662.5 343.5,-641.5 174.5,-641.5"/>
<text text-anchor="middle" x="259" y="-649.5" font-family="FreeSans" font-size="10.00">Urho3D::Graphics::PrepareDraw</text>
</a>
</g>
<!-- Node1&#45;&gt;Node5 -->
<g id="edge8" class="edge"><title>Node1&#45;&gt;Node5</title>
<path fill="none" stroke="midnightblue" d="M68.1552,-371.658C75.8433,-407.381 104.898,-524.698 168,-597 183.057,-614.252 204.887,-627.698 223.392,-636.977"/>
<polygon fill="midnightblue" stroke="midnightblue" points="221.908,-640.147 232.438,-641.321 224.939,-633.836 221.908,-640.147"/>
</g>
<!-- Node11 -->
<g id="node23" class="node"><title>Node11</title>
<a xlink:href="class_urho3_d_1_1_color.html#af4fe4462664d0de4722288e0bcc2b1cc" target="_top" xlink:title="Return float data.">
<polygon fill="none" stroke="black" points="202.5,-488.5 202.5,-509.5 315.5,-509.5 315.5,-488.5 202.5,-488.5"/>
<text text-anchor="middle" x="259" y="-496.5" font-family="FreeSans" font-size="10.00">Urho3D::Color::Data</text>
</a>
</g>
<!-- Node1&#45;&gt;Node11 -->
<g id="edge24" class="edge"><title>Node1&#45;&gt;Node11</title>
<path fill="none" stroke="midnightblue" d="M72.0327,-371.844C85.7483,-395.418 121.702,-451.426 168,-479 175.573,-483.51 184.045,-487.007 192.691,-489.717"/>
<polygon fill="midnightblue" stroke="midnightblue" points="191.914,-493.133 202.487,-492.454 193.797,-486.392 191.914,-493.133"/>
</g>
<!-- Node12 -->
<g id="node25" class="node"><title>Node12</title>
<a xlink:href="class_urho3_d_1_1_renderer.html#a887e9961f27af8db3298c0c0ba0e582c" target="_top" xlink:title="Return quad geometry used in postprocessing.">
<polygon fill="none" stroke="black" points="183.5,-436 183.5,-470 334.5,-470 334.5,-436 183.5,-436"/>
<text text-anchor="start" x="191.5" y="-457" font-family="FreeSans" font-size="10.00">Urho3D::Renderer::GetQuad</text>
<text text-anchor="middle" x="259" y="-444" font-family="FreeSans" font-size="10.00">Geometry</text>
</a>
</g>
<!-- Node1&#45;&gt;Node12 -->
<g id="edge26" class="edge"><title>Node1&#45;&gt;Node12</title>
<path fill="none" stroke="midnightblue" d="M79.4342,-371.566C98.2603,-385.921 134.008,-411.563 168,-427 172.151,-428.885 176.472,-430.668 180.877,-432.347"/>
<polygon fill="midnightblue" stroke="midnightblue" points="180.025,-435.76 190.62,-435.858 182.399,-429.175 180.025,-435.76"/>
</g>
<!-- Node13 -->
<g id="node27" class="node"><title>Node13</title>
<a xlink:href="class_urho3_d_1_1_graphics.html#a53afa24ee38576f0bd111117678a2df1" target="_top" xlink:title="Set blending mode.">
<polygon fill="none" stroke="black" points="170.5,-396.5 170.5,-417.5 347.5,-417.5 347.5,-396.5 170.5,-396.5"/>
<text text-anchor="middle" x="259" y="-404.5" font-family="FreeSans" font-size="10.00">Urho3D::Graphics::SetBlendMode</text>
</a>
</g>
<!-- Node1&#45;&gt;Node13 -->
<g id="edge28" class="edge"><title>Node1&#45;&gt;Node13</title>
<path fill="none" stroke="midnightblue" d="M106.133,-371.558C124.892,-376.409 147.552,-382.148 168,-387 178.138,-389.405 188.935,-391.867 199.419,-394.203"/>
<polygon fill="midnightblue" stroke="midnightblue" points="198.822,-397.656 209.342,-396.399 200.334,-390.821 198.822,-397.656"/>
</g>
<!-- Node14 -->
<g id="node29" class="node"><title>Node14</title>
<a xlink:href="class_urho3_d_1_1_graphics.html#a491fe007ce9f8dce215ba00f5c27ff0d" target="_top" xlink:title="Set color write on/off.">
<polygon fill="none" stroke="black" points="184.5,-344 184.5,-378 333.5,-378 333.5,-344 184.5,-344"/>
<text text-anchor="start" x="192.5" y="-365" font-family="FreeSans" font-size="10.00">Urho3D::Graphics::SetColor</text>
<text text-anchor="middle" x="259" y="-352" font-family="FreeSans" font-size="10.00">Write</text>
</a>
</g>
<!-- Node1&#45;&gt;Node14 -->
<g id="edge30" class="edge"><title>Node1&#45;&gt;Node14</title>
<path fill="none" stroke="midnightblue" d="M132.15,-361C145.672,-361 160.08,-361 174.152,-361"/>
<polygon fill="midnightblue" stroke="midnightblue" points="174.322,-364.5 184.322,-361 174.322,-357.5 174.322,-364.5"/>
</g>
<!-- Node15 -->
<g id="node31" class="node"><title>Node15</title>
<a xlink:href="class_urho3_d_1_1_graphics.html#af002db3f0656638b5419e501597bf9db" target="_top" xlink:title="Set hardware culling mode.">
<polygon fill="none" stroke="black" points="175.5,-304.5 175.5,-325.5 342.5,-325.5 342.5,-304.5 175.5,-304.5"/>
<text text-anchor="middle" x="259" y="-312.5" font-family="FreeSans" font-size="10.00">Urho3D::Graphics::SetCullMode</text>
</a>
</g>
<!-- Node1&#45;&gt;Node15 -->
<g id="edge32" class="edge"><title>Node1&#45;&gt;Node15</title>
<path fill="none" stroke="midnightblue" d="M106.133,-350.442C124.892,-345.591 147.552,-339.852 168,-335 178.138,-332.595 188.935,-330.133 199.419,-327.797"/>
<polygon fill="midnightblue" stroke="midnightblue" points="200.334,-331.179 209.342,-325.601 198.822,-324.344 200.334,-331.179"/>
</g>
<!-- Node16 -->
<g id="node33" class="node"><title>Node16</title>
<a xlink:href="class_urho3_d_1_1_graphics.html#a8caad07fa70c69870bd1ebd33014b931" target="_top" xlink:title="Set depth compare.">
<polygon fill="none" stroke="black" points="173,-264.5 173,-285.5 345,-285.5 345,-264.5 173,-264.5"/>
<text text-anchor="middle" x="259" y="-272.5" font-family="FreeSans" font-size="10.00">Urho3D::Graphics::SetDepthTest</text>
</a>
</g>
<!-- Node1&#45;&gt;Node16 -->
<g id="edge34" class="edge"><title>Node1&#45;&gt;Node16</title>
<path fill="none" stroke="midnightblue" d="M78.9874,-350.379C97.5733,-335.719 133.352,-309.458 168,-295 174.118,-292.447 180.61,-290.199 187.198,-288.223"/>
<polygon fill="midnightblue" stroke="midnightblue" points="188.197,-291.578 196.889,-285.52 186.316,-284.836 188.197,-291.578"/>
</g>
<!-- Node17 -->
<g id="node35" class="node"><title>Node17</title>
<a xlink:href="class_urho3_d_1_1_graphics.html#abce9b1421f7b2d1179659ca887171f2a" target="_top" xlink:title="Set depth write on/off.">
<polygon fill="none" stroke="black" points="182.5,-212 182.5,-246 335.5,-246 335.5,-212 182.5,-212"/>
<text text-anchor="start" x="190.5" y="-233" font-family="FreeSans" font-size="10.00">Urho3D::Graphics::SetDepth</text>
<text text-anchor="middle" x="259" y="-220" font-family="FreeSans" font-size="10.00">Write</text>
</a>
</g>
<!-- Node1&#45;&gt;Node17 -->
<g id="edge36" class="edge"><title>Node1&#45;&gt;Node17</title>
<path fill="none" stroke="midnightblue" d="M73.3447,-350.185C88.4795,-328.735 125.322,-280.667 168,-255 170.816,-253.306 173.748,-251.719 176.759,-250.231"/>
<polygon fill="midnightblue" stroke="midnightblue" points="178.325,-253.364 186,-246.06 175.445,-246.984 178.325,-253.364"/>
</g>
<!-- Node18 -->
<g id="node37" class="node"><title>Node18</title>
<a xlink:href="class_urho3_d_1_1_graphics.html#a616f0641be5b78abb3b4b3ef43cba042" target="_top" xlink:title="Set polygon fill mode.">
<polygon fill="none" stroke="black" points="178.5,-172.5 178.5,-193.5 339.5,-193.5 339.5,-172.5 178.5,-172.5"/>
<text text-anchor="middle" x="259" y="-180.5" font-family="FreeSans" font-size="10.00">Urho3D::Graphics::SetFillMode</text>
</a>
</g>
<!-- Node1&#45;&gt;Node18 -->
<g id="edge38" class="edge"><title>Node1&#45;&gt;Node18</title>
<path fill="none" stroke="midnightblue" d="M69.6786,-350.087C80.0583,-321.061 112.486,-241.548 168,-203 170.724,-201.109 173.595,-199.392 176.572,-197.834"/>
<polygon fill="midnightblue" stroke="midnightblue" points="178.144,-200.964 185.782,-193.621 175.232,-194.598 178.144,-200.964"/>
</g>
<!-- Node19 -->
<g id="node39" class="node"><title>Node19</title>
<a xlink:href="class_urho3_d_1_1_graphics.html#a27670beb9e90540f69da3d24da2d07bd" target="_top" xlink:title="Set scissor test.">
<polygon fill="none" stroke="red" points="170.5,-816.5 170.5,-837.5 347.5,-837.5 347.5,-816.5 170.5,-816.5"/>
<text text-anchor="middle" x="259" y="-824.5" font-family="FreeSans" font-size="10.00">Urho3D::Graphics::SetScissorTest</text>
</a>
</g>
<!-- Node1&#45;&gt;Node19 -->
<g id="edge40" class="edge"><title>Node1&#45;&gt;Node19</title>
<path fill="none" stroke="midnightblue" d="M66.8602,-371.638C71.0139,-418.097 92.0219,-606.703 168,-737 185.413,-766.861 215.267,-793.665 236.011,-810.1"/>
<polygon fill="midnightblue" stroke="midnightblue" points="233.958,-812.937 244.011,-816.284 238.24,-807.399 233.958,-812.937"/>
</g>
<!-- Node20 -->
<g id="node42" class="node"><title>Node20</title>
<a xlink:href="class_urho3_d_1_1_graphics.html#a11eb4f153875e95af56a4e1eaaea1d4b" target="_top" xlink:title="Set stencil test.">
<polygon fill="none" stroke="black" points="171.5,-132.5 171.5,-153.5 346.5,-153.5 346.5,-132.5 171.5,-132.5"/>
<text text-anchor="middle" x="259" y="-140.5" font-family="FreeSans" font-size="10.00">Urho3D::Graphics::SetStencilTest</text>
</a>
</g>
<!-- Node1&#45;&gt;Node20 -->
<g id="edge44" class="edge"><title>Node1&#45;&gt;Node20</title>
<path fill="none" stroke="midnightblue" d="M68.1411,-350.368C75.4573,-316.941 102.718,-213.219 168,-163 170.131,-161.36 172.37,-159.849 174.692,-158.457"/>
<polygon fill="midnightblue" stroke="midnightblue" points="176.73,-161.345 184.019,-153.655 173.526,-155.121 176.73,-161.345"/>
</g>
<!-- Node21 -->
<g id="node44" class="node"><title>Node21</title>
<a xlink:href="class_urho3_d_1_1_graphics.html#a1f9ba79f344a68937947b6416685fe3a" target="_top" xlink:title="Set shaders.">
<polygon fill="none" stroke="red" points="177,-566.5 177,-587.5 341,-587.5 341,-566.5 177,-566.5"/>
<text text-anchor="middle" x="259" y="-574.5" font-family="FreeSans" font-size="10.00">Urho3D::Graphics::SetShaders</text>
</a>
</g>
<!-- Node1&#45;&gt;Node21 -->
<g id="edge46" class="edge"><title>Node1&#45;&gt;Node21</title>
<path fill="none" stroke="midnightblue" d="M68.4863,-371.578C76.6481,-403.912 105.742,-502.248 168,-552 173.246,-556.192 179.144,-559.682 185.352,-562.589"/>
<polygon fill="midnightblue" stroke="midnightblue" points="184.051,-565.838 194.628,-566.442 186.736,-559.374 184.051,-565.838"/>
</g>
<!-- Node22 -->
<g id="node47" class="node"><title>Node22</title>
<a xlink:href="class_urho3_d_1_1_graphics.html#a4738d35a14589f7d2ff4946fd48b2381" target="_top" xlink:title="Set shader float constants.">
<polygon fill="none" stroke="red" points="386,-479 386,-513 544,-513 544,-479 386,-479"/>
<text text-anchor="start" x="394" y="-500" font-family="FreeSans" font-size="10.00">Urho3D::Graphics::SetShader</text>
<text text-anchor="middle" x="465" y="-487" font-family="FreeSans" font-size="10.00">Parameter</text>
</a>
</g>
<!-- Node1&#45;&gt;Node22 -->
<g id="edge54" class="edge"><title>Node1&#45;&gt;Node22</title>
<path fill="none" stroke="midnightblue" d="M68.9922,-371.721C78.0113,-401.704 108.075,-486.358 168,-519 239.034,-557.693 269.505,-526.971 350,-519 360.134,-517.997 370.698,-516.507 381.137,-514.76"/>
<polygon fill="midnightblue" stroke="midnightblue" points="381.844,-518.19 391.089,-513.014 380.634,-511.295 381.844,-518.19"/>
</g>
<!-- Node23 -->
<g id="node49" class="node"><title>Node23</title>
<a xlink:href="class_urho3_d_1_1_graphics.html#aad58413102b75b7916510245a9db175e" target="_top" xlink:title="Return a shader variation by name and defines.">
<polygon fill="none" stroke="red" points="179.5,-92.5 179.5,-113.5 338.5,-113.5 338.5,-92.5 179.5,-92.5"/>
<text text-anchor="middle" x="259" y="-100.5" font-family="FreeSans" font-size="10.00">Urho3D::Graphics::GetShader</text>
</a>
</g>
<!-- Node1&#45;&gt;Node23 -->
<g id="edge52" class="edge"><title>Node1&#45;&gt;Node23</title>
<path fill="none" stroke="midnightblue" d="M67.1471,-350.441C71.8088,-312.953 92.8342,-185.179 168,-123 169.823,-121.492 171.734,-120.091 173.719,-118.79"/>
<polygon fill="midnightblue" stroke="midnightblue" points="175.809,-121.632 182.834,-113.701 172.396,-115.52 175.809,-121.632"/>
</g>
<!-- Node24 -->
<g id="node52" class="node"><title>Node24</title>
<a xlink:href="class_urho3_d_1_1_geometry.html#a4a7263e950743d3a59f18469766bfe19" target="_top" xlink:title="Draw.">
<polygon fill="none" stroke="red" points="190.5,-52.5 190.5,-73.5 327.5,-73.5 327.5,-52.5 190.5,-52.5"/>
<text text-anchor="middle" x="259" y="-60.5" font-family="FreeSans" font-size="10.00">Urho3D::Geometry::Draw</text>
</a>
</g>
<!-- Node1&#45;&gt;Node24 -->
<g id="edge56" class="edge"><title>Node1&#45;&gt;Node24</title>
<path fill="none" stroke="midnightblue" d="M66.4294,-350.467C68.7082,-309.231 82.801,-157.385 168,-83 171.935,-79.5641 176.326,-76.6768 180.995,-74.2544"/>
<polygon fill="midnightblue" stroke="midnightblue" points="182.543,-77.3968 190.269,-70.147 179.708,-70.9965 182.543,-77.3968"/>
</g>
<!-- Node25 -->
<g id="node54" class="node"><title>Node25</title>
<a xlink:href="class_urho3_d_1_1_graphics.html#a0dbed204dd942895efd794eabd4bafdd" target="_top" xlink:title="Clear remembered shader parameter sources.">
<polygon fill="none" stroke="black" points="168,-0 168,-34 350,-34 350,-0 168,-0"/>
<text text-anchor="start" x="176" y="-21" font-family="FreeSans" font-size="10.00">Urho3D::Graphics::ClearParameter</text>
<text text-anchor="middle" x="259" y="-8" font-family="FreeSans" font-size="10.00">Sources</text>
</a>
</g>
<!-- Node1&#45;&gt;Node25 -->
<g id="edge58" class="edge"><title>Node1&#45;&gt;Node25</title>
<path fill="none" stroke="midnightblue" d="M67.9988,-350.471C77.6672,-300.577 121.04,-88.4768 168,-43 168.963,-42.0677 169.956,-41.1684 170.978,-40.301"/>
<polygon fill="midnightblue" stroke="midnightblue" points="173.273,-42.9603 179.313,-34.2556 169.163,-37.2939 173.273,-42.9603"/>
</g>
<!-- Node3 -->
<g id="node5" class="node"><title>Node3</title>
<a xlink:href="class_urho3_d_1_1_render_surface.html#a1be67d97ab77b0d6f24776a3f75c5e6a" target="_top" xlink:title="Return width.">
<polygon fill="none" stroke="red" points="580.5,-799 580.5,-833 709.5,-833 709.5,-799 580.5,-799"/>
<text text-anchor="start" x="588.5" y="-820" font-family="FreeSans" font-size="10.00">Urho3D::RenderSurface</text>
<text text-anchor="middle" x="645" y="-807" font-family="FreeSans" font-size="10.00">::GetWidth</text>
</a>
</g>
<!-- Node2&#45;&gt;Node3 -->
<g id="edge4" class="edge"><title>Node2&#45;&gt;Node3</title>
<path fill="none" stroke="midnightblue" d="M534.593,-842.988C546.341,-840.117 558.578,-837.125 570.446,-834.224"/>
<polygon fill="midnightblue" stroke="midnightblue" points="571.427,-837.588 580.31,-831.813 569.765,-830.788 571.427,-837.588"/>
</g>
<!-- Node4 -->
<g id="node7" class="node"><title>Node4</title>
<a xlink:href="class_urho3_d_1_1_render_surface.html#a3c0b5d48265c55fd1692924b9e45ce24" target="_top" xlink:title="Return height.">
<polygon fill="none" stroke="red" points="580.5,-660 580.5,-694 709.5,-694 709.5,-660 580.5,-660"/>
<text text-anchor="start" x="588.5" y="-681" font-family="FreeSans" font-size="10.00">Urho3D::RenderSurface</text>
<text text-anchor="middle" x="645" y="-668" font-family="FreeSans" font-size="10.00">::GetHeight</text>
</a>
</g>
<!-- Node2&#45;&gt;Node4 -->
<g id="edge6" class="edge"><title>Node2&#45;&gt;Node4</title>
<path fill="none" stroke="midnightblue" d="M529.854,-842.853C534.869,-840.292 539.661,-837.358 544,-834 567.552,-815.776 609.336,-742.814 631.04,-703.092"/>
<polygon fill="midnightblue" stroke="midnightblue" points="634.159,-704.683 635.853,-694.224 628.007,-701.343 634.159,-704.683"/>
</g>
<!-- Node5&#45;&gt;Node3 -->
<g id="edge12" class="edge"><title>Node5&#45;&gt;Node3</title>
<path fill="none" stroke="midnightblue" d="M343.783,-656.365C415.128,-661.291 510.69,-671.2 544,-690 584.978,-713.127 615.637,-760.087 631.894,-789.69"/>
<polygon fill="midnightblue" stroke="midnightblue" points="628.871,-791.458 636.661,-798.639 635.049,-788.167 628.871,-791.458"/>
</g>
<!-- Node5&#45;&gt;Node4 -->
<g id="edge14" class="edge"><title>Node5&#45;&gt;Node4</title>
<path fill="none" stroke="midnightblue" d="M343.732,-649.553C400.547,-648.877 476.956,-649.832 544,-657 552.588,-657.918 561.532,-659.202 570.391,-660.681"/>
<polygon fill="midnightblue" stroke="midnightblue" points="569.88,-664.145 580.335,-662.425 571.09,-657.25 569.88,-664.145"/>
</g>
<!-- Node6 -->
<g id="node11" class="node"><title>Node6</title>
<a xlink:href="class_urho3_d_1_1_render_surface.html#a95c7811a5d78b66288690a59e3bdcd20" target="_top" xlink:title="Return Direct3D rendertarget or depth&#45;stencil view.">
<polygon fill="none" stroke="black" points="400.5,-571 400.5,-605 529.5,-605 529.5,-571 400.5,-571"/>
<text text-anchor="start" x="408.5" y="-592" font-family="FreeSans" font-size="10.00">Urho3D::RenderSurface</text>
<text text-anchor="middle" x="465" y="-579" font-family="FreeSans" font-size="10.00">::GetRenderTargetView</text>
</a>
</g>
<!-- Node5&#45;&gt;Node6 -->
<g id="edge10" class="edge"><title>Node5&#45;&gt;Node6</title>
<path fill="none" stroke="midnightblue" d="M293.017,-641.432C322.056,-632.41 364.633,-619.182 400.158,-608.145"/>
<polygon fill="midnightblue" stroke="midnightblue" points="401.462,-611.405 409.973,-605.096 399.385,-604.72 401.462,-611.405"/>
</g>
<!-- Node7 -->
<g id="node15" class="node"><title>Node7</title>
<a xlink:href="class_urho3_d_1_1_shader_variation.html#abc87c2b30ab7b5f5281314d99e1c2b1c" target="_top" xlink:title="Return shader bytecode.">
<polygon fill="none" stroke="black" points="397,-791 397,-825 533,-825 533,-791 397,-791"/>
<text text-anchor="start" x="405" y="-812" font-family="FreeSans" font-size="10.00">Urho3D::ShaderVariation</text>
<text text-anchor="middle" x="465" y="-799" font-family="FreeSans" font-size="10.00">::GetByteCode</text>
</a>
</g>
<!-- Node5&#45;&gt;Node7 -->
<g id="edge16" class="edge"><title>Node5&#45;&gt;Node7</title>
<path fill="none" stroke="midnightblue" d="M283.244,-662.552C303.234,-672.247 331.255,-688.25 350,-709 374.25,-735.844 358.691,-758.275 386,-782 387.349,-783.172 388.752,-784.291 390.201,-785.36"/>
<polygon fill="midnightblue" stroke="midnightblue" points="388.631,-788.511 398.941,-790.951 392.403,-782.614 388.631,-788.511"/>
</g>
<!-- Node8 -->
<g id="node17" class="node"><title>Node8</title>
<a xlink:href="class_urho3_d_1_1_p_o_d_vector.html#a4fe0251ca70afca844721a4a44717c83" target="_top" xlink:title="Return number of elements.">
<polygon fill="none" stroke="black" points="396.5,-751.5 396.5,-772.5 533.5,-772.5 533.5,-751.5 396.5,-751.5"/>
<text text-anchor="middle" x="465" y="-759.5" font-family="FreeSans" font-size="10.00">Urho3D::PODVector::Size</text>
</a>
</g>
<!-- Node5&#45;&gt;Node8 -->
<g id="edge18" class="edge"><title>Node5&#45;&gt;Node8</title>
<path fill="none" stroke="midnightblue" d="M278.137,-662.615C297.025,-673.404 326.417,-691.044 350,-709 367.269,-722.149 366.9,-731.69 386,-742 390.214,-744.274 394.694,-746.297 399.296,-748.094"/>
<polygon fill="midnightblue" stroke="midnightblue" points="398.275,-751.446 408.87,-751.477 400.607,-744.845 398.275,-751.446"/>
</g>
<!-- Node9 -->
<g id="node19" class="node"><title>Node9</title>
<a xlink:href="class_urho3_d_1_1_shader_variation.html#a16e7c3c6bc03e89400d89efe02031a20" target="_top" xlink:title="Return vertex element mask.">
<polygon fill="none" stroke="black" points="397,-699 397,-733 533,-733 533,-699 397,-699"/>
<text text-anchor="start" x="405" y="-720" font-family="FreeSans" font-size="10.00">Urho3D::ShaderVariation</text>
<text text-anchor="middle" x="465" y="-707" font-family="FreeSans" font-size="10.00">::GetElementMask</text>
</a>
</g>
<!-- Node5&#45;&gt;Node9 -->
<g id="edge20" class="edge"><title>Node5&#45;&gt;Node9</title>
<path fill="none" stroke="midnightblue" d="M293.017,-662.568C322.056,-671.59 364.633,-684.818 400.158,-695.855"/>
<polygon fill="midnightblue" stroke="midnightblue" points="399.385,-699.28 409.973,-698.904 401.462,-692.595 399.385,-699.28"/>
</g>
<!-- Node10 -->
<g id="node21" class="node"><title>Node10</title>
<a xlink:href="class_urho3_d_1_1_hash_map.html#a9dc4e5c0ad1feb3eec2d2f1f1714698d" target="_top" xlink:title="Return iterator to the pair with key, or end iterator if not found.">
<polygon fill="none" stroke="black" points="400.5,-531.5 400.5,-552.5 529.5,-552.5 529.5,-531.5 400.5,-531.5"/>
<text text-anchor="middle" x="465" y="-539.5" font-family="FreeSans" font-size="10.00">Urho3D::HashMap::Find</text>
</a>
</g>
<!-- Node5&#45;&gt;Node10 -->
<g id="edge22" class="edge"><title>Node5&#45;&gt;Node10</title>
<path fill="none" stroke="midnightblue" d="M279.374,-641.436C298.4,-631.173 327.206,-614.599 350,-597 367.663,-583.363 366.52,-572.887 386,-562 389.927,-559.805 394.097,-557.847 398.39,-556.101"/>
<polygon fill="midnightblue" stroke="midnightblue" points="399.748,-559.331 407.935,-552.606 397.341,-552.758 399.748,-559.331"/>
</g>
<!-- Node19&#45;&gt;Node2 -->
<g id="edge42" class="edge"><title>Node19&#45;&gt;Node2</title>
<path fill="none" stroke="midnightblue" d="M324.746,-837.532C340.987,-840.134 358.656,-842.964 375.806,-845.712"/>
<polygon fill="midnightblue" stroke="midnightblue" points="375.4,-849.191 385.828,-847.317 376.508,-842.279 375.4,-849.191"/>
</g>
<!-- Node21&#45;&gt;Node10 -->
<g id="edge48" class="edge"><title>Node21&#45;&gt;Node10</title>
<path fill="none" stroke="midnightblue" d="M320.807,-566.499C343.517,-562.64 369.426,-558.238 392.958,-554.24"/>
<polygon fill="midnightblue" stroke="midnightblue" points="393.609,-557.68 402.881,-552.554 392.436,-550.779 393.609,-557.68"/>
</g>
<!-- Node21&#45;&gt;Node22 -->
<g id="edge50" class="edge"><title>Node21&#45;&gt;Node22</title>
<path fill="none" stroke="midnightblue" d="M312.421,-566.404C325.139,-562.787 338.383,-558.069 350,-552 368.46,-542.356 367.786,-532.101 386,-522 389.06,-520.303 392.249,-518.694 395.514,-517.172"/>
<polygon fill="midnightblue" stroke="midnightblue" points="397.096,-520.301 404.878,-513.112 394.311,-513.879 397.096,-520.301"/>
</g>
</g>
</svg>
        <g id="navigator" transform="translate(0 0)" fill="#404254">
                <rect fill="#f2f5e9" fill-opacity="0.5" stroke="#606060" stroke-width=".5" x="0" y="0" width="60" height="60"/>
                <use id="zoomplus" xlink:href="#zoomPlus" x="17" y="9" onmousedown="handleZoom(evt,'in')"/>
                <use id="zoomminus" xlink:href="#zoomMin" x="42" y="9" onmousedown="handleZoom(evt,'out')"/>
                <use id="reset" xlink:href="#resetDef" x="30" y="36" onmousedown="handleReset()"/>
                <g id="arrowUp" xlink:href="#dirArrow" transform="translate(30 24)" onmousedown="handlePan(0,-1)">
                  <use xlink:href="#rim" fill="#404040">
                        <set attributeName="fill" to="#808080" begin="arrowUp.mouseover" end="arrowUp.mouseout"/>
                  </use>
                  <path fill="none" stroke="white" stroke-width="1.5" d="M0,-3.0v7 M-2.5,-0.5L0,-3.0L2.5,-0.5"/>
                </g>
                <g id="arrowRight" xlink:href="#dirArrow" transform="rotate(90) translate(36 -43)" onmousedown="handlePan(1,0)">
                  <use xlink:href="#rim" fill="#404040">
                        <set attributeName="fill" to="#808080" begin="arrowRight.mouseover" end="arrowRight.mouseout"/>
                  </use>
                  <path fill="none" stroke="white" stroke-width="1.5" d="M0,-3.0v7 M-2.5,-0.5L0,-3.0L2.5,-0.5"/>
                </g>
                <g id="arrowDown" xlink:href="#dirArrow" transform="rotate(180) translate(-30 -48)" onmousedown="handlePan(0,1)">
                  <use xlink:href="#rim" fill="#404040">
                        <set attributeName="fill" to="#808080" begin="arrowDown.mouseover" end="arrowDown.mouseout"/>
                  </use>
                  <path fill="none" stroke="white" stroke-width="1.5" d="M0,-3.0v7 M-2.5,-0.5L0,-3.0L2.5,-0.5"/>
                </g>
                <g id="arrowLeft" xlink:href="#dirArrow" transform="rotate(270) translate(-36 17)" onmousedown="handlePan(-1,0)">
                  <use xlink:href="#rim" fill="#404040">
                        <set attributeName="fill" to="#808080" begin="arrowLeft.mouseover" end="arrowLeft.mouseout"/>
                  </use>
                  <path fill="none" stroke="white" stroke-width="1.5" d="M0,-3.0v7 M-2.5,-0.5L0,-3.0L2.5,-0.5"/>
                </g>
        </g>
        <svg viewBox="0 0 15 15" width="100%" height="30px" preserveAspectRatio="xMaxYMin meet">
         <g id="arrow_out" transform="scale(0.3 0.3)">
          <a xlink:href="class_urho3_d_1_1_graphics_a3e7b555e97944dd99eef236499d73d7b_cgraph_org.svg" target="_base">
           <rect id="button" ry="5" rx="5" y="6" x="6" height="38" width="38"
                fill="#f2f5e9" fill-opacity="0.5" stroke="#606060" stroke-width="1.0"/>
           <path id="arrow"
             d="M 11.500037,31.436501 C 11.940474,20.09759 22.043105,11.32322 32.158766,21.979434 L 37.068811,17.246167 C 37.068811,17.246167 37.088388,32 37.088388,32 L 22.160133,31.978069 C 22.160133,31.978069 26.997745,27.140456 26.997745,27.140456 C 18.528582,18.264221 13.291696,25.230495 11.500037,31.436501 z"
             style="fill:#404040;"/>
          </a>
         </g>
        </svg>
</svg>
