<?xml version="1.0" encoding="UTF-8" standalone="no"?>
<!DOCTYPE svg PUBLIC "-//W3C//DTD SVG 1.1//EN"
 "http://www.w3.org/Graphics/SVG/1.1/DTD/svg11.dtd">
<!-- Generated by graphviz version 2.26.3 (20100126.1600)
 -->
<!-- Title: Urho3D::FileSystem::GetProgramDir Pages: 1 -->
<svg width="818pt" height="318pt"
 viewBox="0.00 0.00 818.00 318.00" xmlns="http://www.w3.org/2000/svg" xmlns:xlink="http://www.w3.org/1999/xlink">
<g id="graph1" class="graph" transform="scale(1 1) rotate(0) translate(4 314)">
<title>Urho3D::FileSystem::GetProgramDir</title>
<!-- Node1 -->
<g id="node1" class="node"><title>Node1</title>
<polygon fill="#bfbfbf" stroke="black" points="0.5,-198 0.5,-232 111.5,-232 111.5,-198 0.5,-198"/>
<text text-anchor="start" x="8.5" y="-219" font-family="FreeSans" font-size="10.00">Urho3D::FileSystem</text>
<text text-anchor="middle" x="56" y="-206" font-family="FreeSans" font-size="10.00">::GetProgramDir</text>
</g>
<!-- Node2 -->
<g id="node3" class="node"><title>Node2</title>
<a xlink:href="class_urho3_d_1_1_string.html#a69ac7aadaa628fc05fc96abde992fcdc" target="_top" xlink:title="Return whether the string is empty.">
<polygon fill="none" stroke="black" points="151.5,-288.5 151.5,-309.5 276.5,-309.5 276.5,-288.5 151.5,-288.5"/>
<text text-anchor="middle" x="214" y="-296.5" font-family="FreeSans" font-size="10.00">Urho3D::String::Empty</text>
</a>
</g>
<!-- Node1&#45;&gt;Node2 -->
<g id="edge2" class="edge"><title>Node1&#45;&gt;Node2</title>
<path fill="none" stroke="midnightblue" d="M79.7833,-232.21C97.8956,-244.824 123.762,-261.805 148,-274 155.788,-277.919 164.346,-281.59 172.644,-284.85"/>
<polygon fill="midnightblue" stroke="midnightblue" points="171.612,-288.202 182.204,-288.476 174.095,-281.657 171.612,-288.202"/>
</g>
<!-- Node3 -->
<g id="node5" class="node"><title>Node3</title>
<a xlink:href="class_urho3_d_1_1_string.html#a6b405eba451da6c0f216a8649adf79aa" target="_top" xlink:title="Return the C string.">
<polygon fill="none" stroke="black" points="321.5,-249.5 321.5,-270.5 450.5,-270.5 450.5,-249.5 321.5,-249.5"/>
<text text-anchor="middle" x="386" y="-257.5" font-family="FreeSans" font-size="10.00">Urho3D::String::CString</text>
</a>
</g>
<!-- Node1&#45;&gt;Node3 -->
<g id="edge4" class="edge"><title>Node1&#45;&gt;Node3</title>
<path fill="none" stroke="midnightblue" d="M109.587,-232.048C122.085,-235.491 135.421,-238.743 148,-241 202.165,-250.719 264.157,-255.467 311.292,-257.787"/>
<polygon fill="midnightblue" stroke="midnightblue" points="311.267,-261.289 321.419,-258.259 311.593,-254.297 311.267,-261.289"/>
</g>
<!-- Node4 -->
<g id="node7" class="node"><title>Node4</title>
<a xlink:href="class_urho3_d_1_1_file_system.html#a575af6ad91fa461aca37622cfe928c85" target="_top" xlink:title="Return the absolute current working directory.">
<polygon fill="none" stroke="black" points="158.5,-198 158.5,-232 269.5,-232 269.5,-198 158.5,-198"/>
<text text-anchor="start" x="166.5" y="-219" font-family="FreeSans" font-size="10.00">Urho3D::FileSystem</text>
<text text-anchor="middle" x="214" y="-206" font-family="FreeSans" font-size="10.00">::GetCurrentDir</text>
</a>
</g>
<!-- Node1&#45;&gt;Node4 -->
<g id="edge6" class="edge"><title>Node1&#45;&gt;Node4</title>
<path fill="none" stroke="midnightblue" d="M111.705,-215C123.505,-215 136.066,-215 148.2,-215"/>
<polygon fill="midnightblue" stroke="midnightblue" points="148.266,-218.5 158.266,-215 148.266,-211.5 148.266,-218.5"/>
</g>
<!-- Node5 -->
<g id="node9" class="node"><title>Node5</title>
<a xlink:href="class_urho3_d_1_1_file_system.html#a2cd013d75ee49cea693188f3471d228e" target="_top" xlink:title="Check if a directory exists.">
<polygon fill="none" stroke="black" points="158.5,-146 158.5,-180 269.5,-180 269.5,-146 158.5,-146"/>
<text text-anchor="start" x="166.5" y="-167" font-family="FreeSans" font-size="10.00">Urho3D::FileSystem</text>
<text text-anchor="middle" x="214" y="-154" font-family="FreeSans" font-size="10.00">::DirExists</text>
</a>
</g>
<!-- Node1&#45;&gt;Node5 -->
<g id="edge8" class="edge"><title>Node1&#45;&gt;Node5</title>
<path fill="none" stroke="midnightblue" d="M107.735,-197.973C122.058,-193.26 137.743,-188.097 152.56,-183.221"/>
<polygon fill="midnightblue" stroke="midnightblue" points="153.744,-186.516 162.149,-180.065 151.556,-179.867 153.744,-186.516"/>
</g>
<!-- Node15 -->
<g id="node32" class="node"><title>Node15</title>
<a xlink:href="class_urho3_d_1_1_string.html#ab08b5f1f7cee23f3e14eebcb2f7f8d4e" target="_top" xlink:title="Replace all occurrences of a character.">
<polygon fill="none" stroke="black" points="148.5,-106.5 148.5,-127.5 279.5,-127.5 279.5,-106.5 148.5,-106.5"/>
<text text-anchor="middle" x="214" y="-114.5" font-family="FreeSans" font-size="10.00">Urho3D::String::Replace</text>
</a>
</g>
<!-- Node1&#45;&gt;Node15 -->
<g id="edge34" class="edge"><title>Node1&#45;&gt;Node15</title>
<path fill="none" stroke="midnightblue" d="M72.0531,-197.737C89.2808,-180.151 118.209,-153.226 148,-137 151.951,-134.848 156.164,-132.897 160.478,-131.134"/>
<polygon fill="midnightblue" stroke="midnightblue" points="161.874,-134.348 170.017,-127.57 159.425,-127.791 161.874,-134.348"/>
</g>
<!-- Node5&#45;&gt;Node3 -->
<g id="edge32" class="edge"><title>Node5&#45;&gt;Node3</title>
<path fill="none" stroke="midnightblue" d="M266.053,-180.074C270.992,-182.689 275.738,-185.653 280,-189 301.821,-206.136 293.374,-223.942 316,-240 318.68,-241.902 321.537,-243.624 324.509,-245.183"/>
<polygon fill="midnightblue" stroke="midnightblue" points="323.152,-248.411 333.702,-249.387 326.063,-242.045 323.152,-248.411"/>
</g>
<!-- Node6 -->
<g id="node11" class="node"><title>Node6</title>
<a xlink:href="class_urho3_d_1_1_file_system.html#a1e3cbbed618e7f98ce56c5fa8de9ac43" target="_top" xlink:title="Check if a path is allowed to be accessed. If no paths are registered, all are allowed.">
<polygon fill="none" stroke="black" points="330.5,-197 330.5,-231 441.5,-231 441.5,-197 330.5,-197"/>
<text text-anchor="start" x="338.5" y="-218" font-family="FreeSans" font-size="10.00">Urho3D::FileSystem</text>
<text text-anchor="middle" x="386" y="-205" font-family="FreeSans" font-size="10.00">::CheckAccess</text>
</a>
</g>
<!-- Node5&#45;&gt;Node6 -->
<g id="edge10" class="edge"><title>Node5&#45;&gt;Node6</title>
<path fill="none" stroke="midnightblue" d="M269.843,-179.558C286.079,-184.372 303.957,-189.673 320.718,-194.643"/>
<polygon fill="midnightblue" stroke="midnightblue" points="319.854,-198.038 330.437,-197.525 321.844,-191.326 319.854,-198.038"/>
</g>
<!-- Node9 -->
<g id="node17" class="node"><title>Node9</title>
<a xlink:href="class_urho3_d_1_1_string.html#a51df88f180228044fb35435b2b3e1f90" target="_top" xlink:title="Return index to the last occurrence of a string, or NPOS if not found.">
<polygon fill="none" stroke="black" points="319.5,-157.5 319.5,-178.5 452.5,-178.5 452.5,-157.5 319.5,-157.5"/>
<text text-anchor="middle" x="386" y="-165.5" font-family="FreeSans" font-size="10.00">Urho3D::String::FindLast</text>
</a>
</g>
<!-- Node5&#45;&gt;Node9 -->
<g id="edge16" class="edge"><title>Node5&#45;&gt;Node9</title>
<path fill="none" stroke="midnightblue" d="M269.843,-164.623C282.428,-164.989 296,-165.384 309.273,-165.77"/>
<polygon fill="midnightblue" stroke="midnightblue" points="309.246,-169.27 319.344,-166.062 309.45,-162.273 309.246,-169.27"/>
</g>
<!-- Node10 -->
<g id="node19" class="node"><title>Node10</title>
<a xlink:href="class_urho3_d_1_1_string.html#a11572e3c07f60de65ac5d0c1ca5b6ba3" target="_top" xlink:title="Return length.">
<polygon fill="none" stroke="black" points="322.5,-117.5 322.5,-138.5 449.5,-138.5 449.5,-117.5 322.5,-117.5"/>
<text text-anchor="middle" x="386" y="-125.5" font-family="FreeSans" font-size="10.00">Urho3D::String::Length</text>
</a>
</g>
<!-- Node5&#45;&gt;Node10 -->
<g id="edge18" class="edge"><title>Node5&#45;&gt;Node10</title>
<path fill="none" stroke="midnightblue" d="M269.843,-151.637C287.145,-148.116 306.311,-144.216 324.004,-140.615"/>
<polygon fill="midnightblue" stroke="midnightblue" points="325.125,-143.959 334.226,-138.535 323.729,-137.1 325.125,-143.959"/>
</g>
<!-- Node11 -->
<g id="node21" class="node"><title>Node11</title>
<a xlink:href="class_urho3_d_1_1_string.html#ade8095f1798d6e1d4ed03d43d9919611" target="_top" xlink:title="Return a substring from position to end.">
<polygon fill="none" stroke="black" points="316,-39.5 316,-60.5 456,-60.5 456,-39.5 316,-39.5"/>
<text text-anchor="middle" x="386" y="-47.5" font-family="FreeSans" font-size="10.00">Urho3D::String::Substring</text>
</a>
</g>
<!-- Node5&#45;&gt;Node11 -->
<g id="edge20" class="edge"><title>Node5&#45;&gt;Node11</title>
<path fill="none" stroke="midnightblue" d="M267.03,-145.938C271.665,-143.337 276.077,-140.372 280,-137 304.164,-116.23 291.504,-95.3777 316,-75 320.883,-70.9381 326.476,-67.514 332.325,-64.6325"/>
<polygon fill="midnightblue" stroke="midnightblue" points="333.91,-67.7592 341.662,-60.5376 331.099,-61.3485 333.91,-67.7592"/>
</g>
<!-- Node12 -->
<g id="node23" class="node"><title>Node12</title>
<a xlink:href="class_urho3_d_1_1_string.html#aed2d8d23da6f2403c7aaa20082036f88" target="_top" xlink:title="Resize the string.">
<polygon fill="none" stroke="black" points="498,-78.5 498,-99.5 622,-99.5 622,-78.5 498,-78.5"/>
<text text-anchor="middle" x="560" y="-86.5" font-family="FreeSans" font-size="10.00">Urho3D::String::Resize</text>
</a>
</g>
<!-- Node5&#45;&gt;Node12 -->
<g id="edge30" class="edge"><title>Node5&#45;&gt;Node12</title>
<path fill="none" stroke="midnightblue" d="M262.39,-145.915C268.454,-143.203 274.464,-140.219 280,-137 297.761,-126.672 296.904,-115.581 316,-108 370.772,-86.2556 437.815,-82.4955 487.756,-83.6152"/>
<polygon fill="midnightblue" stroke="midnightblue" points="487.726,-87.1157 497.825,-83.9118 487.932,-80.1188 487.726,-87.1157"/>
</g>
<!-- Node7 -->
<g id="node13" class="node"><title>Node7</title>
<a xlink:href="class_urho3_d_1_1_string.html#a3d2477d745f6e572795b77ac69075c5d" target="_top" xlink:title="Return whether contains a specific occurrence of a string.">
<polygon fill="none" stroke="black" points="492,-223.5 492,-244.5 628,-244.5 628,-223.5 492,-223.5"/>
<text text-anchor="middle" x="560" y="-231.5" font-family="FreeSans" font-size="10.00">Urho3D::String::Contains</text>
</a>
</g>
<!-- Node6&#45;&gt;Node7 -->
<g id="edge12" class="edge"><title>Node6&#45;&gt;Node7</title>
<path fill="none" stroke="midnightblue" d="M441.533,-220.383C454.293,-221.85 468.097,-223.436 481.62,-224.991"/>
<polygon fill="midnightblue" stroke="midnightblue" points="481.551,-228.506 491.885,-226.171 482.35,-221.552 481.551,-228.506"/>
</g>
<!-- Node8 -->
<g id="node15" class="node"><title>Node8</title>
<a xlink:href="class_urho3_d_1_1_string.html#a7cb1eb905c5e4b88d8d281455d8d0caf" target="_top" xlink:title="Return index to the first occurrence of a string, or NPOS if not found.">
<polygon fill="none" stroke="black" points="503.5,-183.5 503.5,-204.5 616.5,-204.5 616.5,-183.5 503.5,-183.5"/>
<text text-anchor="middle" x="560" y="-191.5" font-family="FreeSans" font-size="10.00">Urho3D::String::Find</text>
</a>
</g>
<!-- Node6&#45;&gt;Node8 -->
<g id="edge14" class="edge"><title>Node6&#45;&gt;Node8</title>
<path fill="none" stroke="midnightblue" d="M441.533,-207.617C457.841,-205.742 475.854,-203.672 492.807,-201.723"/>
<polygon fill="midnightblue" stroke="midnightblue" points="493.666,-205.148 503.201,-200.529 492.867,-198.194 493.666,-205.148"/>
</g>
<!-- Node11&#45;&gt;Node12 -->
<g id="edge22" class="edge"><title>Node11&#45;&gt;Node12</title>
<path fill="none" stroke="midnightblue" d="M433.087,-60.554C454.654,-65.388 480.4,-71.1586 503.048,-76.2349"/>
<polygon fill="midnightblue" stroke="midnightblue" points="502.352,-79.6657 512.875,-78.4376 503.883,-72.8351 502.352,-79.6657"/>
</g>
<!-- Node13 -->
<g id="node25" class="node"><title>Node13</title>
<a xlink:href="class_urho3_d_1_1_string.html#a953822d6a39e507861ee02a24bb7996e" target="_top" xlink:title="Copy chars from one buffer to another.">
<polygon fill="none" stroke="black" points="664,-58.5 664,-79.5 810,-79.5 810,-58.5 664,-58.5"/>
<text text-anchor="middle" x="737" y="-66.5" font-family="FreeSans" font-size="10.00">Urho3D::String::CopyChars</text>
</a>
</g>
<!-- Node11&#45;&gt;Node13 -->
<g id="edge26" class="edge"><title>Node11&#45;&gt;Node13</title>
<path fill="none" stroke="midnightblue" d="M456.186,-53.7993C513.111,-56.8807 593.494,-61.2319 653.68,-64.4898"/>
<polygon fill="midnightblue" stroke="midnightblue" points="653.74,-67.9981 663.914,-65.0438 654.118,-61.0083 653.74,-67.9981"/>
</g>
<!-- Node14 -->
<g id="node28" class="node"><title>Node14</title>
<a xlink:href="class_urho3_d_1_1_string.html#a6cbd21dcf8801df80b76acebc4dbbdd3" target="_top" xlink:title="Construct empty.">
<polygon fill="none" stroke="black" points="499,-0.5 499,-21.5 621,-21.5 621,-0.5 499,-0.5"/>
<text text-anchor="middle" x="560" y="-8.5" font-family="FreeSans" font-size="10.00">Urho3D::String::String</text>
</a>
</g>
<!-- Node11&#45;&gt;Node14 -->
<g id="edge28" class="edge"><title>Node11&#45;&gt;Node14</title>
<path fill="none" stroke="midnightblue" d="M433.087,-39.446C454.654,-34.612 480.4,-28.8414 503.048,-23.7651"/>
<polygon fill="midnightblue" stroke="midnightblue" points="503.883,-27.1649 512.875,-21.5624 502.352,-20.3343 503.883,-27.1649"/>
</g>
<!-- Node12&#45;&gt;Node13 -->
<g id="edge24" class="edge"><title>Node12&#45;&gt;Node13</title>
<path fill="none" stroke="midnightblue" d="M622.404,-81.9487C632.586,-80.7982 643.275,-79.5905 653.86,-78.3943"/>
<polygon fill="midnightblue" stroke="midnightblue" points="654.415,-81.854 663.958,-77.2533 653.629,-74.8983 654.415,-81.854"/>
</g>
</g>
</svg>
