<?xml version="1.0" encoding="UTF-8" standalone="no"?>
<!DOCTYPE svg PUBLIC "-//W3C//DTD SVG 1.1//EN"
 "http://www.w3.org/Graphics/SVG/1.1/DTD/svg11.dtd">
<!-- Generated by graphviz version 2.26.3 (20100126.1600)
 -->
<!-- Title: Urho3D::Spriter::SpriterInstance Pages: 1 -->
<svg width="926pt" height="495pt"
 viewBox="0.00 0.00 926.00 495.19" xmlns="http://www.w3.org/2000/svg" xmlns:xlink="http://www.w3.org/1999/xlink">
<g id="graph1" class="graph" transform="scale(1 1) rotate(0) translate(4 491.194)">
<title>Urho3D::Spriter::SpriterInstance</title>
<!-- Node1 -->
<g id="node1" class="node"><title>Node1</title>
<polygon fill="#bfbfbf" stroke="black" points="788,-217.194 788,-251.194 918,-251.194 918,-217.194 788,-217.194"/>
<text text-anchor="start" x="796" y="-238.194" font-family="FreeSans" font-size="10.00">Urho3D::Spriter::Spriter</text>
<text text-anchor="middle" x="853" y="-225.194" font-family="FreeSans" font-size="10.00">Instance</text>
</g>
<!-- Node2 -->
<g id="node2" class="node"><title>Node2</title>
<a xlink:href="struct_urho3_d_1_1_spriter_1_1_entity.html" target="_top" xlink:title="Entity.">
<polygon fill="none" stroke="black" points="546.5,-387.694 546.5,-408.694 671.5,-408.694 671.5,-387.694 546.5,-387.694"/>
<text text-anchor="middle" x="609" y="-395.694" font-family="FreeSans" font-size="10.00">Urho3D::Spriter::Entity</text>
</a>
</g>
<!-- Node2&#45;&gt;Node1 -->
<g id="edge2" class="edge"><title>Node2&#45;&gt;Node1</title>
<path fill="none" stroke="#9a32cd" stroke-dasharray="5,2" d="M681.563,-387.187C710.994,-380.136 744.082,-368.687 770,-350.194 806.486,-324.161 832.87,-276.953 845.197,-251.526"/>
<polygon fill="#9a32cd" stroke="#9a32cd" points="680.717,-383.79 671.738,-389.413 682.264,-390.617 680.717,-383.79"/>
<text text-anchor="middle" x="737" y="-384.194" font-family="FreeSans" font-size="10.00"> entity_</text>
</g>
<!-- Node3 -->
<g id="node4" class="node"><title>Node3</title>
<a xlink:href="class_urho3_d_1_1_p_o_d_vector.html" target="_top" xlink:title="Urho3D::PODVector\&lt;\l Urho3D::Spriter::Animation * \&gt;">
<polygon fill="none" stroke="black" points="152.5,-387.194 152.5,-421.194 321.5,-421.194 321.5,-387.194 152.5,-387.194"/>
<text text-anchor="start" x="160.5" y="-408.194" font-family="FreeSans" font-size="10.00">Urho3D::PODVector&lt;</text>
<text text-anchor="middle" x="237" y="-395.194" font-family="FreeSans" font-size="10.00"> Urho3D::Spriter::Animation * &gt;</text>
</a>
</g>
<!-- Node3&#45;&gt;Node2 -->
<g id="edge4" class="edge"><title>Node3&#45;&gt;Node2</title>
<path fill="none" stroke="#9a32cd" stroke-dasharray="5,2" d="M332.063,-402.661C399.32,-401.576 487.619,-400.152 546.233,-399.207"/>
<polygon fill="#9a32cd" stroke="#9a32cd" points="331.82,-399.164 321.878,-402.825 331.933,-406.163 331.82,-399.164"/>
<text text-anchor="middle" x="427" y="-406.194" font-family="FreeSans" font-size="10.00"> animations_</text>
</g>
<!-- Node4 -->
<g id="node6" class="node"><title>Node4</title>
<a xlink:href="class_urho3_d_1_1_vector_base.html" target="_top" xlink:title="Vector base class.">
<polygon fill="none" stroke="black" points="0,-274.694 0,-295.694 114,-295.694 114,-274.694 0,-274.694"/>
<text text-anchor="middle" x="57" y="-282.694" font-family="FreeSans" font-size="10.00">Urho3D::VectorBase</text>
</a>
</g>
<!-- Node4&#45;&gt;Node3 -->
<g id="edge6" class="edge"><title>Node4&#45;&gt;Node3</title>
<path fill="none" stroke="midnightblue" d="M68.6001,-304.482C81.6123,-324.508 104.533,-355.354 132,-373.194 140.608,-378.785 150.256,-383.396 160.122,-387.193"/>
<polygon fill="midnightblue" stroke="midnightblue" points="71.4729,-302.475 63.1847,-295.876 65.5482,-306.204 71.4729,-302.475"/>
</g>
<!-- Node5 -->
<g id="node8" class="node"><title>Node5</title>
<a xlink:href="class_urho3_d_1_1_p_o_d_vector.html" target="_top" xlink:title="Urho3D::PODVector\&lt;\l Urho3D::Spriter::Character\lMap * \&gt;">
<polygon fill="none" stroke="black" points="163,-439.694 163,-486.694 311,-486.694 311,-439.694 163,-439.694"/>
<text text-anchor="start" x="171" y="-473.694" font-family="FreeSans" font-size="10.00">Urho3D::PODVector&lt;</text>
<text text-anchor="start" x="171" y="-460.694" font-family="FreeSans" font-size="10.00"> Urho3D::Spriter::Character</text>
<text text-anchor="middle" x="237" y="-447.694" font-family="FreeSans" font-size="10.00">Map * &gt;</text>
</a>
</g>
<!-- Node4&#45;&gt;Node5 -->
<g id="edge10" class="edge"><title>Node4&#45;&gt;Node5</title>
<path fill="none" stroke="midnightblue" d="M65.2638,-305.245C78.9499,-336.153 109.129,-395.487 152,-430.194 156.306,-433.681 161.024,-436.83 165.96,-439.671"/>
<polygon fill="midnightblue" stroke="midnightblue" points="68.4245,-303.735 61.2603,-295.93 61.9933,-306.5 68.4245,-303.735"/>
</g>
<!-- Node7 -->
<g id="node14" class="node"><title>Node7</title>
<a xlink:href="class_urho3_d_1_1_p_o_d_vector.html" target="_top" xlink:title="Urho3D::PODVector\&lt;\l Urho3D::Spriter::SpatialTimeline\lKey * \&gt;">
<polygon fill="none" stroke="black" points="340.5,-347.694 340.5,-394.694 513.5,-394.694 513.5,-347.694 340.5,-347.694"/>
<text text-anchor="start" x="348.5" y="-381.694" font-family="FreeSans" font-size="10.00">Urho3D::PODVector&lt;</text>
<text text-anchor="start" x="348.5" y="-368.694" font-family="FreeSans" font-size="10.00"> Urho3D::Spriter::SpatialTimeline</text>
<text text-anchor="middle" x="427" y="-355.694" font-family="FreeSans" font-size="10.00">Key * &gt;</text>
</a>
</g>
<!-- Node4&#45;&gt;Node7 -->
<g id="edge18" class="edge"><title>Node4&#45;&gt;Node7</title>
<path fill="none" stroke="midnightblue" d="M79.2258,-301.634C97.7169,-314.402 125.247,-331.372 152,-340.194 212.914,-360.281 285.082,-367.848 340.201,-370.491"/>
<polygon fill="midnightblue" stroke="midnightblue" points="81.1028,-298.674 70.9174,-295.757 77.0607,-304.389 81.1028,-298.674"/>
</g>
<!-- Node9 -->
<g id="node19" class="node"><title>Node9</title>
<a xlink:href="class_urho3_d_1_1_p_o_d_vector.html" target="_top" xlink:title="Urho3D::PODVector\&lt;\l Urho3D::Spriter::Entity * \&gt;">
<polygon fill="none" stroke="black" points="163.5,-297.194 163.5,-331.194 310.5,-331.194 310.5,-297.194 163.5,-297.194"/>
<text text-anchor="start" x="171.5" y="-318.194" font-family="FreeSans" font-size="10.00">Urho3D::PODVector&lt;</text>
<text text-anchor="middle" x="237" y="-305.194" font-family="FreeSans" font-size="10.00"> Urho3D::Spriter::Entity * &gt;</text>
</a>
</g>
<!-- Node4&#45;&gt;Node9 -->
<g id="edge24" class="edge"><title>Node4&#45;&gt;Node9</title>
<path fill="none" stroke="midnightblue" d="M124.458,-296.063C137.136,-298.105 150.453,-300.251 163.309,-302.322"/>
<polygon fill="midnightblue" stroke="midnightblue" points="124.877,-292.585 114.448,-294.45 123.764,-299.496 124.877,-292.585"/>
</g>
<!-- Node10 -->
<g id="node22" class="node"><title>Node10</title>
<a xlink:href="class_urho3_d_1_1_p_o_d_vector.html" target="_top" xlink:title="Urho3D::PODVector\&lt;\l Urho3D::Spriter::Folder * \&gt;">
<polygon fill="none" stroke="black" points="162.5,-245.194 162.5,-279.194 311.5,-279.194 311.5,-245.194 162.5,-245.194"/>
<text text-anchor="start" x="170.5" y="-266.194" font-family="FreeSans" font-size="10.00">Urho3D::PODVector&lt;</text>
<text text-anchor="middle" x="237" y="-253.194" font-family="FreeSans" font-size="10.00"> Urho3D::Spriter::Folder * &gt;</text>
</a>
</g>
<!-- Node4&#45;&gt;Node10 -->
<g id="edge28" class="edge"><title>Node4&#45;&gt;Node10</title>
<path fill="none" stroke="midnightblue" d="M124.625,-276.553C136.934,-274.98 149.839,-273.332 162.337,-271.734"/>
<polygon fill="midnightblue" stroke="midnightblue" points="123.924,-273.114 114.448,-277.854 124.811,-280.058 123.924,-273.114"/>
</g>
<!-- Node12 -->
<g id="node28" class="node"><title>Node12</title>
<a xlink:href="class_urho3_d_1_1_p_o_d_vector.html" target="_top" xlink:title="Urho3D::PODVector\&lt;\l Urho3D::Spriter::Ref * \&gt;">
<polygon fill="none" stroke="black" points="170,-122.194 170,-156.194 304,-156.194 304,-122.194 170,-122.194"/>
<text text-anchor="start" x="178" y="-143.194" font-family="FreeSans" font-size="10.00">Urho3D::PODVector&lt;</text>
<text text-anchor="middle" x="237" y="-130.194" font-family="FreeSans" font-size="10.00"> Urho3D::Spriter::Ref * &gt;</text>
</a>
</g>
<!-- Node4&#45;&gt;Node12 -->
<g id="edge36" class="edge"><title>Node4&#45;&gt;Node12</title>
<path fill="none" stroke="midnightblue" d="M67.3997,-265.646C82.5314,-239.051 113.105,-191.747 152,-165.194 157.48,-161.453 163.518,-158.235 169.771,-155.47"/>
<polygon fill="midnightblue" stroke="midnightblue" points="64.3179,-263.986 62.5367,-274.43 70.4421,-267.377 64.3179,-263.986"/>
</g>
<!-- Node14 -->
<g id="node33" class="node"><title>Node14</title>
<a xlink:href="class_urho3_d_1_1_p_o_d_vector.html" target="_top" xlink:title="Urho3D::PODVector\&lt;\l Urho3D::Spriter::Timeline * \&gt;">
<polygon fill="none" stroke="black" points="157,-70.1943 157,-104.194 317,-104.194 317,-70.1943 157,-70.1943"/>
<text text-anchor="start" x="165" y="-91.1943" font-family="FreeSans" font-size="10.00">Urho3D::PODVector&lt;</text>
<text text-anchor="middle" x="237" y="-78.1943" font-family="FreeSans" font-size="10.00"> Urho3D::Spriter::Timeline * &gt;</text>
</a>
</g>
<!-- Node4&#45;&gt;Node14 -->
<g id="edge42" class="edge"><title>Node4&#45;&gt;Node14</title>
<path fill="none" stroke="midnightblue" d="M62.7543,-264.596C73.8899,-228.524 101.82,-153.898 152,-113.194 156.195,-109.792 160.831,-106.834 165.71,-104.262"/>
<polygon fill="midnightblue" stroke="midnightblue" points="59.3131,-263.89 59.8315,-274.472 66.0254,-265.876 59.3131,-263.89"/>
</g>
<!-- Node15 -->
<g id="node37" class="node"><title>Node15</title>
<a xlink:href="class_urho3_d_1_1_p_o_d_vector.html" target="_top" xlink:title="Urho3D::PODVector\&lt;\l Urho3D::Spriter::Mainline\lKey * \&gt;">
<polygon fill="none" stroke="black" points="167,-4.69426 167,-51.6943 307,-51.6943 307,-4.69426 167,-4.69426"/>
<text text-anchor="start" x="175" y="-38.6943" font-family="FreeSans" font-size="10.00">Urho3D::PODVector&lt;</text>
<text text-anchor="start" x="175" y="-25.6943" font-family="FreeSans" font-size="10.00"> Urho3D::Spriter::Mainline</text>
<text text-anchor="middle" x="237" y="-12.6943" font-family="FreeSans" font-size="10.00">Key * &gt;</text>
</a>
</g>
<!-- Node4&#45;&gt;Node15 -->
<g id="edge48" class="edge"><title>Node4&#45;&gt;Node15</title>
<path fill="none" stroke="midnightblue" d="M60.1988,-264.734C68.0152,-221.351 92.0208,-119.355 152,-61.1943 156.432,-56.8965 161.487,-53.1423 166.871,-49.8659"/>
<polygon fill="midnightblue" stroke="midnightblue" points="56.7364,-264.218 58.5126,-274.663 63.6376,-265.39 56.7364,-264.218"/>
</g>
<!-- Node5&#45;&gt;Node2 -->
<g id="edge8" class="edge"><title>Node5&#45;&gt;Node2</title>
<path fill="none" stroke="#9a32cd" stroke-dasharray="5,2" d="M321.33,-451.142C376.33,-442.951 449.598,-431.416 514,-419.194 530.263,-416.108 547.997,-412.307 563.691,-408.791"/>
<polygon fill="#9a32cd" stroke="#9a32cd" points="320.657,-447.704 311.279,-452.632 321.684,-454.628 320.657,-447.704"/>
<text text-anchor="middle" x="427" y="-451.194" font-family="FreeSans" font-size="10.00"> characterMaps_</text>
</g>
<!-- Node6 -->
<g id="node11" class="node"><title>Node6</title>
<a xlink:href="class_urho3_d_1_1_string.html" target="_top" xlink:title="String class.">
<polygon fill="none" stroke="black" points="193,-174.694 193,-195.694 281,-195.694 281,-174.694 193,-174.694"/>
<text text-anchor="middle" x="237" y="-182.694" font-family="FreeSans" font-size="10.00">Urho3D::String</text>
</a>
</g>
<!-- Node6&#45;&gt;Node2 -->
<g id="edge12" class="edge"><title>Node6&#45;&gt;Node2</title>
<path fill="none" stroke="#9a32cd" stroke-dasharray="5,2" d="M275.413,-200.215C291.992,-208.506 310.241,-220.378 322,-236.194 341.424,-262.319 315.432,-285.836 340,-307.194 369.354,-332.714 480.754,-306.004 514,-326.194 526.327,-333.681 521.505,-343.302 532,-353.194 547.549,-367.85 568.709,-379.782 584.913,-387.667"/>
<polygon fill="#9a32cd" stroke="#9a32cd" points="276.445,-196.833 265.906,-195.744 273.466,-203.167 276.445,-196.833"/>
<text text-anchor="middle" x="427" y="-330.194" font-family="FreeSans" font-size="10.00"> name_</text>
</g>
<!-- Node6&#45;&gt;Node6 -->
<g id="edge14" class="edge"><title>Node6&#45;&gt;Node6</title>
<path fill="none" stroke="#9a32cd" stroke-dasharray="5,2" d="M217.834,-205.621C219.312,-210.543 225.701,-214.194 237,-214.194 255.078,-214.194 260.586,-204.847 253.525,-195.902"/>
<polygon fill="#9a32cd" stroke="#9a32cd" points="221.23,-206.47 220.475,-195.902 214.475,-204.634 221.23,-206.47"/>
<text text-anchor="middle" x="237" y="-218.194" font-family="FreeSans" font-size="10.00"> EMPTY</text>
</g>
<!-- Node8 -->
<g id="node17" class="node"><title>Node8</title>
<a xlink:href="struct_urho3_d_1_1_spriter_1_1_spriter_data.html" target="_top" xlink:title="Spriter data.">
<polygon fill="none" stroke="black" points="532.5,-244.694 532.5,-265.694 685.5,-265.694 685.5,-244.694 532.5,-244.694"/>
<text text-anchor="middle" x="609" y="-252.694" font-family="FreeSans" font-size="10.00">Urho3D::Spriter::SpriterData</text>
</a>
</g>
<!-- Node6&#45;&gt;Node8 -->
<g id="edge30" class="edge"><title>Node6&#45;&gt;Node8</title>
<path fill="none" stroke="#9a32cd" stroke-dasharray="5,2" d="M291.313,-187.903C347.999,-191.908 438.92,-201.679 514,-225.194 522.535,-227.868 523.645,-231.002 532,-234.194 542.355,-238.151 553.758,-241.685 564.542,-244.675"/>
<polygon fill="#9a32cd" stroke="#9a32cd" points="291.351,-184.397 281.139,-187.22 290.882,-191.382 291.351,-184.397"/>
<text text-anchor="middle" x="427" y="-242.194" font-family="FreeSans" font-size="10.00"> generatorVersion_</text>
<text text-anchor="middle" x="427" y="-229.194" font-family="FreeSans" font-size="10.00">generator_</text>
</g>
<!-- Node13 -->
<g id="node31" class="node"><title>Node13</title>
<a xlink:href="struct_urho3_d_1_1_spriter_1_1_animation.html" target="_top" xlink:title="Animation.">
<polygon fill="none" stroke="black" points="536,-161.694 536,-182.694 682,-182.694 682,-161.694 536,-161.694"/>
<text text-anchor="middle" x="609" y="-169.694" font-family="FreeSans" font-size="10.00">Urho3D::Spriter::Animation</text>
</a>
</g>
<!-- Node6&#45;&gt;Node13 -->
<g id="edge44" class="edge"><title>Node6&#45;&gt;Node13</title>
<path fill="none" stroke="#9a32cd" stroke-dasharray="5,2" d="M291.106,-177.735C306.842,-175.879 324.079,-174.148 340,-173.194 406.198,-169.228 481.723,-169.354 535.86,-170.253"/>
<polygon fill="#9a32cd" stroke="#9a32cd" points="290.515,-174.281 281.012,-178.966 291.362,-181.23 290.515,-174.281"/>
<text text-anchor="middle" x="427" y="-177.194" font-family="FreeSans" font-size="10.00"> name_</text>
</g>
<!-- Node7&#45;&gt;Node1 -->
<g id="edge16" class="edge"><title>Node7&#45;&gt;Node1</title>
<path fill="none" stroke="#9a32cd" stroke-dasharray="5,2" d="M513.787,-344.685C583.274,-323.264 683.137,-292.037 770,-263.194 781.299,-259.442 793.418,-255.285 804.809,-251.317"/>
<polygon fill="#9a32cd" stroke="#9a32cd" points="512.715,-341.353 504.188,-347.641 514.776,-348.043 512.715,-341.353"/>
<text text-anchor="middle" x="609" y="-341.194" font-family="FreeSans" font-size="10.00"> timelineKeys_</text>
</g>
<!-- Node8&#45;&gt;Node1 -->
<g id="edge20" class="edge"><title>Node8&#45;&gt;Node1</title>
<path fill="none" stroke="#9a32cd" stroke-dasharray="5,2" d="M695.687,-247.733C726.024,-245.123 759.548,-242.237 787.827,-239.803"/>
<polygon fill="#9a32cd" stroke="#9a32cd" points="695.197,-244.263 685.534,-248.607 695.797,-251.237 695.197,-244.263"/>
<text text-anchor="middle" x="737" y="-250.194" font-family="FreeSans" font-size="10.00"> spriterData_</text>
</g>
<!-- Node9&#45;&gt;Node8 -->
<g id="edge22" class="edge"><title>Node9&#45;&gt;Node8</title>
<path fill="none" stroke="#9a32cd" stroke-dasharray="5,2" d="M320.804,-297.485C327.292,-296.325 333.747,-295.214 340,-294.194 416.99,-281.643 436.86,-282.785 514,-271.194 525.164,-269.517 537.046,-267.612 548.49,-265.715"/>
<polygon fill="#9a32cd" stroke="#9a32cd" points="319.82,-294.107 310.609,-299.341 321.074,-300.994 319.82,-294.107"/>
<text text-anchor="middle" x="427" y="-298.194" font-family="FreeSans" font-size="10.00"> entities_</text>
</g>
<!-- Node10&#45;&gt;Node8 -->
<g id="edge26" class="edge"><title>Node10&#45;&gt;Node8</title>
<path fill="none" stroke="#9a32cd" stroke-dasharray="5,2" d="M321.872,-258.712C328.006,-258.518 334.098,-258.342 340,-258.194 404.899,-256.573 478.627,-255.827 532.463,-255.485"/>
<polygon fill="#9a32cd" stroke="#9a32cd" points="321.412,-255.225 311.534,-259.056 321.645,-262.222 321.412,-255.225"/>
<text text-anchor="middle" x="427" y="-262.194" font-family="FreeSans" font-size="10.00"> folders_</text>
</g>
<!-- Node11 -->
<g id="node26" class="node"><title>Node11</title>
<a xlink:href="struct_urho3_d_1_1_spriter_1_1_mainline_key.html" target="_top" xlink:title="Mainline key.">
<polygon fill="none" stroke="black" points="532.5,-203.694 532.5,-224.694 685.5,-224.694 685.5,-203.694 532.5,-203.694"/>
<text text-anchor="middle" x="609" y="-211.694" font-family="FreeSans" font-size="10.00">Urho3D::Spriter::MainlineKey</text>
</a>
</g>
<!-- Node11&#45;&gt;Node1 -->
<g id="edge32" class="edge"><title>Node11&#45;&gt;Node1</title>
<path fill="none" stroke="#9a32cd" stroke-dasharray="5,2" d="M695.915,-213.722C719.966,-214.306 746.041,-215.605 770,-218.194 775.836,-218.825 781.875,-219.649 787.91,-220.591"/>
<polygon fill="#9a32cd" stroke="#9a32cd" points="695.814,-210.219 685.744,-213.514 695.67,-217.218 695.814,-210.219"/>
<text text-anchor="middle" x="737" y="-222.194" font-family="FreeSans" font-size="10.00"> mainlineKey_</text>
</g>
<!-- Node12&#45;&gt;Node11 -->
<g id="edge34" class="edge"><title>Node12&#45;&gt;Node11</title>
<path fill="none" stroke="#9a32cd" stroke-dasharray="5,2" d="M300.596,-119.727C361.246,-105.307 452.251,-94.9529 514,-139.194 534.222,-153.683 513.983,-175.041 532,-192.194 536.934,-196.892 542.8,-200.597 549.061,-203.518"/>
<polygon fill="#9a32cd" stroke="#9a32cd" points="299.624,-116.362 290.759,-122.164 301.307,-123.156 299.624,-116.362"/>
<text text-anchor="middle" x="427" y="-156.194" font-family="FreeSans" font-size="10.00"> boneRefs_</text>
<text text-anchor="middle" x="427" y="-143.194" font-family="FreeSans" font-size="10.00">objectRefs_</text>
</g>
<!-- Node13&#45;&gt;Node1 -->
<g id="edge38" class="edge"><title>Node13&#45;&gt;Node1</title>
<path fill="none" stroke="#9a32cd" stroke-dasharray="5,2" d="M692.035,-180.033C717.387,-183.633 745.127,-188.808 770,-196.194 787.471,-201.382 805.995,-209.578 821.1,-217.031"/>
<polygon fill="#9a32cd" stroke="#9a32cd" points="692.457,-176.558 682.077,-178.681 691.516,-183.495 692.457,-176.558"/>
<text text-anchor="middle" x="737" y="-200.194" font-family="FreeSans" font-size="10.00"> animation_</text>
</g>
<!-- Node14&#45;&gt;Node13 -->
<g id="edge40" class="edge"><title>Node14&#45;&gt;Node13</title>
<path fill="none" stroke="#9a32cd" stroke-dasharray="5,2" d="M303.07,-67.8641C364.102,-54.3075 454.118,-45.7519 514,-91.1943 536.517,-108.282 511.687,-132.537 532,-152.194 535.871,-155.94 540.349,-159.009 545.161,-161.52"/>
<polygon fill="#9a32cd" stroke="#9a32cd" points="302.105,-64.4948 293.156,-70.1662 303.689,-71.3134 302.105,-64.4948"/>
<text text-anchor="middle" x="427" y="-95.1943" font-family="FreeSans" font-size="10.00"> timelines_</text>
</g>
<!-- Node15&#45;&gt;Node13 -->
<g id="edge46" class="edge"><title>Node15&#45;&gt;Node13</title>
<path fill="none" stroke="#9a32cd" stroke-dasharray="5,2" d="M317.257,-7.08054C378.662,3.86153 461.466,6.57089 514,-40.1943 551.657,-73.7166 498.079,-114.896 532,-152.194 535.438,-155.975 539.491,-159.08 543.909,-161.627"/>
<polygon fill="#9a32cd" stroke="#9a32cd" points="316.386,-3.68295 307.209,-8.97741 317.685,-10.5614 316.386,-3.68295"/>
<text text-anchor="middle" x="427" y="-44.1943" font-family="FreeSans" font-size="10.00"> mainlineKeys_</text>
</g>
<!-- Node16 -->
<g id="node40" class="node"><title>Node16</title>
<a xlink:href="struct_urho3_d_1_1_spriter_1_1_spatial_info.html" target="_top" xlink:title="Spatial info.">
<polygon fill="none" stroke="black" points="535,-121.694 535,-142.694 683,-142.694 683,-121.694 535,-121.694"/>
<text text-anchor="middle" x="609" y="-129.694" font-family="FreeSans" font-size="10.00">Urho3D::Spriter::SpatialInfo</text>
</a>
</g>
<!-- Node16&#45;&gt;Node1 -->
<g id="edge50" class="edge"><title>Node16&#45;&gt;Node1</title>
<path fill="none" stroke="#9a32cd" stroke-dasharray="5,2" d="M693.266,-140.733C718.784,-145.457 746.309,-152.796 770,-164.194 796.839,-177.107 822.165,-200.745 837.622,-216.95"/>
<polygon fill="#9a32cd" stroke="#9a32cd" points="693.676,-137.251 683.224,-138.986 692.476,-144.148 693.676,-137.251"/>
<text text-anchor="middle" x="737" y="-168.194" font-family="FreeSans" font-size="10.00"> spatialInfo_</text>
</g>
</g>
</svg>
