<?xml version="1.0" encoding="UTF-8" standalone="no"?>
<!DOCTYPE svg PUBLIC "-//W3C//DTD SVG 1.1//EN"
 "http://www.w3.org/Graphics/SVG/1.1/DTD/svg11.dtd">
<!-- Generated by graphviz version 2.26.3 (20100126.1600)
 -->
<!-- Title: Urho3D::Renderer2D Pages: 1 -->
<!--zoomable 831 -->
<svg id="main" version="1.1" xmlns="http://www.w3.org/2000/svg" xmlns:xlink="http://www.w3.org/1999/xlink" xml:space="preserve" onload="init(evt)">
        <defs>
                <circle id="rim" cx="0" cy="0" r="7"/>
                <circle id="rim2" cx="0" cy="0" r="3.5"/>
                <g id="zoomPlus">
                        <use xlink:href="#rim" fill="#404040">
                                <set attributeName="fill" to="#808080" begin="zoomplus.mouseover" end="zoomplus.mouseout"/>
                        </use>
                        <path d="M-4,0h8M0,-4v8" fill="none" stroke="white" stroke-width="1.5" pointer-events="none"/>
                </g>
                <g id="zoomMin">
                        <use xlink:href="#rim" fill="#404040">
                                <set attributeName="fill" to="#808080" begin="zoomminus.mouseover" end="zoomminus.mouseout"/>
                        </use>
                        <path d="M-4,0h8" fill="none" stroke="white" stroke-width="1.5" pointer-events="none"/>
                </g>
                <g id="dirArrow">
                        <path fill="none" stroke="white" stroke-width="1.5" d="M0,-3.0v7 M-2.5,-0.5L0,-3.0L2.5,-0.5"/>
                </g>
               <g id="resetDef">
                       <use xlink:href="#rim2" fill="#404040">
                               <set attributeName="fill" to="#808080" begin="reset.mouseover" end="reset.mouseout"/>
                       </use>
               </g>
        </defs>

<script type="text/javascript">
var viewWidth = 1394;
var viewHeight = 831;
var sectionId = 'dynsection-1';
</script>
<script xlink:href="svgpan.js"/>
<svg id="graph" class="graph">
<g id="viewport">
<title>Urho3D::Renderer2D</title>
<!-- Node1 -->
<g id="node1" class="node"><title>Node1</title>
<polygon fill="#bfbfbf" stroke="black" points="1270,-226.414 1270,-247.414 1386,-247.414 1386,-226.414 1270,-226.414"/>
<text text-anchor="middle" x="1328" y="-234.414" font-family="FreeSans" font-size="10.00">Urho3D::Renderer2D</text>
</g>
<!-- Node2 -->
<g id="node2" class="node"><title>Node2</title>
<a xlink:href="class_urho3_d_1_1_drawable.html" target="_top" xlink:title="Base class for visible components.">
<polygon fill="none" stroke="black" points="745,-584.414 745,-605.414 849,-605.414 849,-584.414 745,-584.414"/>
<text text-anchor="middle" x="797" y="-592.414" font-family="FreeSans" font-size="10.00">Urho3D::Drawable</text>
</a>
</g>
<!-- Node2&#45;&gt;Node1 -->
<g id="edge2" class="edge"><title>Node2&#45;&gt;Node1</title>
<path fill="none" stroke="midnightblue" d="M855.278,-607.215C925.871,-619.133 1046.67,-629.78 1138,-586.914 1279.45,-520.524 1319.23,-298.579 1326.61,-247.472"/>
<polygon fill="midnightblue" stroke="midnightblue" points="855.691,-603.734 845.236,-605.454 854.481,-610.629 855.691,-603.734"/>
</g>
<!-- Node4 -->
<g id="node6" class="node"><title>Node4</title>
<a xlink:href="class_urho3_d_1_1_zone.html" target="_top" xlink:title="Component that describes global rendering properties.">
<polygon fill="none" stroke="red" points="996.5,-556.414 996.5,-577.414 1081.5,-577.414 1081.5,-556.414 996.5,-556.414"/>
<text text-anchor="middle" x="1039" y="-564.414" font-family="FreeSans" font-size="10.00">Urho3D::Zone</text>
</a>
</g>
<!-- Node2&#45;&gt;Node4 -->
<g id="edge8" class="edge"><title>Node2&#45;&gt;Node4</title>
<path fill="none" stroke="midnightblue" d="M858.982,-588.066C879.089,-585.819 901.495,-583.289 922,-580.914 946.691,-578.054 974.299,-574.755 996.494,-572.078"/>
<polygon fill="midnightblue" stroke="midnightblue" points="858.559,-584.591 849.009,-589.178 859.335,-591.548 858.559,-584.591"/>
</g>
<!-- Node10 -->
<g id="node20" class="node"><title>Node10</title>
<a xlink:href="class_urho3_d_1_1_light.html" target="_top" xlink:title="Light component.">
<polygon fill="none" stroke="red" points="997.5,-496.414 997.5,-517.414 1080.5,-517.414 1080.5,-496.414 997.5,-496.414"/>
<text text-anchor="middle" x="1039" y="-504.414" font-family="FreeSans" font-size="10.00">Urho3D::Light</text>
</a>
</g>
<!-- Node2&#45;&gt;Node10 -->
<g id="edge24" class="edge"><title>Node2&#45;&gt;Node10</title>
<path fill="none" stroke="midnightblue" d="M825.355,-579.571C839.185,-572.439 856.208,-564.173 872,-557.914 913.991,-541.271 963.675,-526.725 997.872,-517.472"/>
<polygon fill="midnightblue" stroke="midnightblue" points="823.58,-576.549 816.345,-584.288 826.827,-582.751 823.58,-576.549"/>
</g>
<!-- Node3 -->
<g id="node4" class="node"><title>Node3</title>
<a xlink:href="class_urho3_d_1_1_component.html" target="_top" xlink:title="Base class for components. Components can be created to scene nodes.">
<polygon fill="none" stroke="red" points="461,-355.414 461,-376.414 577,-376.414 577,-355.414 461,-355.414"/>
<text text-anchor="middle" x="519" y="-363.414" font-family="FreeSans" font-size="10.00">Urho3D::Component</text>
</a>
</g>
<!-- Node3&#45;&gt;Node2 -->
<g id="edge4" class="edge"><title>Node3&#45;&gt;Node2</title>
<path fill="none" stroke="midnightblue" d="M552.484,-380.642C595.22,-400.575 669.85,-439.302 722,-487.914 754.192,-517.922 780.664,-563.897 791.598,-584.406"/>
<polygon fill="midnightblue" stroke="midnightblue" points="553.906,-377.444 543.359,-376.446 550.982,-383.803 553.906,-377.444"/>
</g>
<!-- Node20 -->
<g id="node50" class="node"><title>Node20</title>
<a xlink:href="class_urho3_d_1_1_camera.html" target="_top" xlink:title="Camera component.">
<polygon fill="none" stroke="red" points="748,-138.414 748,-159.414 846,-159.414 846,-138.414 748,-138.414"/>
<text text-anchor="middle" x="797" y="-146.414" font-family="FreeSans" font-size="10.00">Urho3D::Camera</text>
</a>
</g>
<!-- Node3&#45;&gt;Node20 -->
<g id="edge64" class="edge"><title>Node3&#45;&gt;Node20</title>
<path fill="none" stroke="midnightblue" d="M552.45,-350.991C597.369,-329.3 676.755,-284.894 722,-223.914 737.326,-203.258 722.007,-187.292 740,-168.914 743.742,-165.092 748.255,-161.999 753.083,-159.497"/>
<polygon fill="midnightblue" stroke="midnightblue" points="550.687,-347.954 543.146,-355.396 553.682,-354.28 550.687,-347.954"/>
</g>
<!-- Node4&#45;&gt;Node2 -->
<g id="edge6" class="edge"><title>Node4&#45;&gt;Node2</title>
<path fill="none" stroke="#9a32cd" stroke-dasharray="5,2" d="M986.081,-562.687C953.031,-561.165 909.737,-561.212 872,-567.914 854.014,-571.108 834.636,-578.187 820.083,-584.295"/>
<polygon fill="#9a32cd" stroke="#9a32cd" points="986.261,-566.201 996.431,-563.229 986.628,-559.21 986.261,-566.201"/>
<text text-anchor="middle" x="897" y="-571.914" font-family="FreeSans" font-size="10.00"> zone_</text>
</g>
<!-- Node5 -->
<g id="node9" class="node"><title>Node5</title>
<a xlink:href="class_urho3_d_1_1_bounding_box.html" target="_top" xlink:title="Three&#45;dimensional axis&#45;aligned bounding box.">
<polygon fill="none" stroke="black" points="198,-517.414 198,-538.414 320,-538.414 320,-517.414 198,-517.414"/>
<text text-anchor="middle" x="259" y="-525.414" font-family="FreeSans" font-size="10.00">Urho3D::BoundingBox</text>
</a>
</g>
<!-- Node5&#45;&gt;Node1 -->
<g id="edge58" class="edge"><title>Node5&#45;&gt;Node1</title>
<path fill="none" stroke="#9a32cd" stroke-dasharray="5,2" d="M299.745,-513.926C367.186,-490.993 496.82,-447.914 519,-447.914 519,-447.914 519,-447.914 1039,-447.914 1137,-447.914 1178.13,-455.315 1252,-390.914 1298.29,-350.552 1319.3,-275.429 1325.73,-247.624"/>
<polygon fill="#9a32cd" stroke="#9a32cd" points="298.209,-510.752 289.873,-517.291 300.467,-517.378 298.209,-510.752"/>
<text text-anchor="middle" x="797" y="-451.914" font-family="FreeSans" font-size="10.00"> frustumBoundingBox_</text>
</g>
<!-- Node5&#45;&gt;Node2 -->
<g id="edge26" class="edge"><title>Node5&#45;&gt;Node2</title>
<path fill="none" stroke="#9a32cd" stroke-dasharray="5,2" d="M268.054,-547.823C290.722,-594.897 354.991,-712.439 450,-756.914 559.534,-808.188 621.412,-816.061 722,-748.914 773.446,-714.571 790.804,-634.371 795.505,-605.504"/>
<polygon fill="#9a32cd" stroke="#9a32cd" points="271.165,-546.213 263.741,-538.655 264.831,-549.194 271.165,-546.213"/>
<text text-anchor="middle" x="519" y="-813.914" font-family="FreeSans" font-size="10.00"> worldBoundingBox_</text>
<text text-anchor="middle" x="519" y="-800.914" font-family="FreeSans" font-size="10.00">boundingBox_</text>
</g>
<!-- Node5&#45;&gt;Node4 -->
<g id="edge10" class="edge"><title>Node5&#45;&gt;Node4</title>
<path fill="none" stroke="#9a32cd" stroke-dasharray="5,2" d="M330.402,-522.825C366.271,-520.517 410.414,-518.053 450,-516.914 511.308,-515.15 526.76,-513.53 588,-516.914 738.631,-525.238 916.272,-549.087 996.224,-560.577"/>
<polygon fill="#9a32cd" stroke="#9a32cd" points="329.785,-519.358 320.034,-523.502 330.241,-526.343 329.785,-519.358"/>
<text text-anchor="middle" x="664" y="-530.914" font-family="FreeSans" font-size="10.00"> lastWorldBoundingBox_</text>
</g>
<!-- Node11 -->
<g id="node24" class="node"><title>Node11</title>
<a xlink:href="class_urho3_d_1_1_octant.html" target="_top" xlink:title="Octree octant">
<polygon fill="none" stroke="red" points="473,-526.414 473,-547.414 565,-547.414 565,-526.414 473,-526.414"/>
<text text-anchor="middle" x="519" y="-534.414" font-family="FreeSans" font-size="10.00">Urho3D::Octant</text>
</a>
</g>
<!-- Node5&#45;&gt;Node11 -->
<g id="edge32" class="edge"><title>Node5&#45;&gt;Node11</title>
<path fill="none" stroke="#9a32cd" stroke-dasharray="5,2" d="M330.369,-530.384C375.775,-531.956 433.252,-533.946 472.758,-535.313"/>
<polygon fill="#9a32cd" stroke="#9a32cd" points="330.402,-526.884 320.287,-530.035 330.16,-533.879 330.402,-526.884"/>
<text text-anchor="middle" x="385" y="-549.914" font-family="FreeSans" font-size="10.00"> cullingBox_</text>
<text text-anchor="middle" x="385" y="-536.914" font-family="FreeSans" font-size="10.00">worldBoundingBox_</text>
</g>
<!-- Node6 -->
<g id="node11" class="node"><title>Node6</title>
<a xlink:href="class_urho3_d_1_1_vector3.html" target="_top" xlink:title="Three&#45;dimensional vector.">
<polygon fill="none" stroke="black" points="4,-386.414 4,-407.414 100,-407.414 100,-386.414 4,-386.414"/>
<text text-anchor="middle" x="52" y="-394.414" font-family="FreeSans" font-size="10.00">Urho3D::Vector3</text>
</a>
</g>
<!-- Node6&#45;&gt;Node5 -->
<g id="edge12" class="edge"><title>Node6&#45;&gt;Node5</title>
<path fill="none" stroke="#9a32cd" stroke-dasharray="5,2" d="M62.2395,-416.316C74.0119,-436.789 95.208,-468.574 122,-486.914 144.433,-502.27 172.74,-511.991 197.792,-518.087"/>
<polygon fill="#9a32cd" stroke="#9a32cd" points="65.2822,-414.586 57.3706,-407.539 59.161,-417.982 65.2822,-414.586"/>
<text text-anchor="middle" x="151" y="-528.914" font-family="FreeSans" font-size="10.00"> max_</text>
<text text-anchor="middle" x="151" y="-515.914" font-family="FreeSans" font-size="10.00">min_</text>
</g>
<!-- Node6&#45;&gt;Node6 -->
<g id="edge14" class="edge"><title>Node6&#45;&gt;Node6</title>
<path fill="none" stroke="#9a32cd" stroke-dasharray="5,2" d="M33.9397,-417.341C35.3329,-422.263 41.353,-425.914 52,-425.914 69.0352,-425.914 74.2256,-416.567 67.5712,-407.622"/>
<polygon fill="#9a32cd" stroke="#9a32cd" points="37.3382,-418.177 36.4288,-407.622 30.5571,-416.441 37.3382,-418.177"/>
<text text-anchor="middle" x="52" y="-520.914" font-family="FreeSans" font-size="10.00"> ONE</text>
<text text-anchor="middle" x="52" y="-507.914" font-family="FreeSans" font-size="10.00">DOWN</text>
<text text-anchor="middle" x="52" y="-494.914" font-family="FreeSans" font-size="10.00">BACK</text>
<text text-anchor="middle" x="52" y="-481.914" font-family="FreeSans" font-size="10.00">RIGHT</text>
<text text-anchor="middle" x="52" y="-468.914" font-family="FreeSans" font-size="10.00">LEFT</text>
<text text-anchor="middle" x="52" y="-455.914" font-family="FreeSans" font-size="10.00">ZERO</text>
<text text-anchor="middle" x="52" y="-442.914" font-family="FreeSans" font-size="10.00">FORWARD</text>
<text text-anchor="middle" x="52" y="-429.914" font-family="FreeSans" font-size="10.00">UP</text>
</g>
<!-- Node6&#45;&gt;Node11 -->
<g id="edge30" class="edge"><title>Node6&#45;&gt;Node11</title>
<path fill="none" stroke="#9a32cd" stroke-dasharray="5,2" d="M96.7348,-410.325C189.286,-438.07 400.116,-501.274 483.811,-526.365"/>
<polygon fill="#9a32cd" stroke="#9a32cd" points="97.6848,-406.956 87.1009,-407.437 95.6746,-413.661 97.6848,-406.956"/>
<text text-anchor="middle" x="259" y="-492.914" font-family="FreeSans" font-size="10.00"> center_</text>
<text text-anchor="middle" x="259" y="-479.914" font-family="FreeSans" font-size="10.00">halfSize_</text>
</g>
<!-- Node12 -->
<g id="node29" class="node"><title>Node12</title>
<a xlink:href="class_urho3_d_1_1_frustum.html" target="_top" xlink:title="Convex constructed of 6 planes.">
<polygon fill="none" stroke="black" points="470,-138.414 470,-159.414 568,-159.414 568,-138.414 470,-138.414"/>
<text text-anchor="middle" x="519" y="-146.414" font-family="FreeSans" font-size="10.00">Urho3D::Frustum</text>
</a>
</g>
<!-- Node6&#45;&gt;Node12 -->
<g id="edge44" class="edge"><title>Node6&#45;&gt;Node12</title>
<path fill="none" stroke="#9a32cd" stroke-dasharray="5,2" d="M58.5013,-376.478C74.1337,-331.156 118.541,-222.617 198,-176.914 283.467,-127.755 403.404,-133.014 469.836,-141.061"/>
<polygon fill="#9a32cd" stroke="#9a32cd" points="55.1377,-375.501 55.2931,-386.095 61.7779,-377.716 55.1377,-375.501"/>
<text text-anchor="middle" x="259" y="-180.914" font-family="FreeSans" font-size="10.00"> vertices_</text>
</g>
<!-- Node13 -->
<g id="node31" class="node"><title>Node13</title>
<a xlink:href="class_urho3_d_1_1_plane.html" target="_top" xlink:title="Surface in three&#45;dimensional space.">
<polygon fill="none" stroke="black" points="216,-199.414 216,-220.414 302,-220.414 302,-199.414 216,-199.414"/>
<text text-anchor="middle" x="259" y="-207.414" font-family="FreeSans" font-size="10.00">Urho3D::Plane</text>
</a>
</g>
<!-- Node6&#45;&gt;Node13 -->
<g id="edge42" class="edge"><title>Node6&#45;&gt;Node13</title>
<path fill="none" stroke="#9a32cd" stroke-dasharray="5,2" d="M71.3711,-379.414C113.601,-341.264 212.91,-251.551 247.15,-220.619"/>
<polygon fill="#9a32cd" stroke="#9a32cd" points="68.7966,-377.023 63.7223,-386.324 73.489,-382.218 68.7966,-377.023"/>
<text text-anchor="middle" x="151" y="-347.914" font-family="FreeSans" font-size="10.00"> normal_</text>
<text text-anchor="middle" x="151" y="-334.914" font-family="FreeSans" font-size="10.00">absNormal_</text>
</g>
<!-- Node7 -->
<g id="node14" class="node"><title>Node7</title>
<a xlink:href="class_urho3_d_1_1_p_o_d_vector.html" target="_top" xlink:title="Urho3D::PODVector\&lt;\l Urho3D::Light * \&gt;">
<polygon fill="none" stroke="red" points="459.5,-713.914 459.5,-747.914 578.5,-747.914 578.5,-713.914 459.5,-713.914"/>
<text text-anchor="start" x="467.5" y="-734.914" font-family="FreeSans" font-size="10.00">Urho3D::PODVector&lt;</text>
<text text-anchor="middle" x="519" y="-721.914" font-family="FreeSans" font-size="10.00"> Urho3D::Light * &gt;</text>
</a>
</g>
<!-- Node7&#45;&gt;Node2 -->
<g id="edge16" class="edge"><title>Node7&#45;&gt;Node2</title>
<path fill="none" stroke="#9a32cd" stroke-dasharray="5,2" d="M588.552,-723.907C629.728,-717.302 681.572,-704.533 722,-679.914 753.601,-660.671 779.236,-623.85 790.625,-605.647"/>
<polygon fill="#9a32cd" stroke="#9a32cd" points="587.959,-720.457 578.597,-725.418 589.009,-727.378 587.959,-720.457"/>
<text text-anchor="middle" x="664" y="-735.914" font-family="FreeSans" font-size="10.00"> vertexLights_</text>
<text text-anchor="middle" x="664" y="-722.914" font-family="FreeSans" font-size="10.00">lights_</text>
</g>
<!-- Node8 -->
<g id="node16" class="node"><title>Node8</title>
<a xlink:href="class_urho3_d_1_1_p_o_d_vector.html" target="_top" xlink:title="Urho3D::PODVector\&lt;\l Urho3D::Camera * \&gt;">
<polygon fill="none" stroke="red" points="459,-661.914 459,-695.914 579,-695.914 579,-661.914 459,-661.914"/>
<text text-anchor="start" x="467" y="-682.914" font-family="FreeSans" font-size="10.00">Urho3D::PODVector&lt;</text>
<text text-anchor="middle" x="519" y="-669.914" font-family="FreeSans" font-size="10.00"> Urho3D::Camera * &gt;</text>
</a>
</g>
<!-- Node8&#45;&gt;Node2 -->
<g id="edge18" class="edge"><title>Node8&#45;&gt;Node2</title>
<path fill="none" stroke="#9a32cd" stroke-dasharray="5,2" d="M589.028,-667.454C628.719,-659.873 678.907,-648.444 722,-632.914 742.461,-625.54 764.511,-613.877 779.369,-605.415"/>
<polygon fill="#9a32cd" stroke="#9a32cd" points="588.358,-664.018 579.173,-669.299 589.647,-670.899 588.358,-664.018"/>
<text text-anchor="middle" x="664" y="-666.914" font-family="FreeSans" font-size="10.00"> viewCameras_</text>
</g>
<!-- Node9 -->
<g id="node18" class="node"><title>Node9</title>
<a xlink:href="class_urho3_d_1_1_vector.html" target="_top" xlink:title="Urho3D::Vector\&lt; Urho3D\l::SourceBatch \&gt;">
<polygon fill="none" stroke="red" points="450,-609.914 450,-643.914 588,-643.914 588,-609.914 450,-609.914"/>
<text text-anchor="start" x="458" y="-630.914" font-family="FreeSans" font-size="10.00">Urho3D::Vector&lt; Urho3D</text>
<text text-anchor="middle" x="519" y="-617.914" font-family="FreeSans" font-size="10.00">::SourceBatch &gt;</text>
</a>
</g>
<!-- Node9&#45;&gt;Node2 -->
<g id="edge20" class="edge"><title>Node9&#45;&gt;Node2</title>
<path fill="none" stroke="#9a32cd" stroke-dasharray="5,2" d="M598.24,-617.793C645.293,-612.377 703.63,-605.662 744.9,-600.911"/>
<polygon fill="#9a32cd" stroke="#9a32cd" points="597.61,-614.342 588.076,-618.963 598.411,-621.296 597.61,-614.342"/>
<text text-anchor="middle" x="664" y="-619.914" font-family="FreeSans" font-size="10.00"> batches_</text>
</g>
<!-- Node10&#45;&gt;Node2 -->
<g id="edge22" class="edge"><title>Node10&#45;&gt;Node2</title>
<path fill="none" stroke="#9a32cd" stroke-dasharray="5,2" d="M987.211,-496.06C952.952,-491.426 907.903,-490.34 872,-506.914 837.007,-523.068 812.316,-564.491 802.158,-584.193"/>
<polygon fill="#9a32cd" stroke="#9a32cd" points="987.067,-499.577 997.475,-497.596 988.103,-492.654 987.067,-499.577"/>
<text text-anchor="middle" x="897" y="-510.914" font-family="FreeSans" font-size="10.00"> firstLight_</text>
</g>
<!-- Node11&#45;&gt;Node2 -->
<g id="edge28" class="edge"><title>Node11&#45;&gt;Node2</title>
<path fill="none" stroke="#9a32cd" stroke-dasharray="5,2" d="M575.243,-548.648C625.378,-559.108 698.102,-574.28 746.432,-584.364"/>
<polygon fill="#9a32cd" stroke="#9a32cd" points="575.722,-545.173 565.218,-546.557 574.292,-552.025 575.722,-545.173"/>
<text text-anchor="middle" x="664" y="-580.914" font-family="FreeSans" font-size="10.00"> octant_</text>
</g>
<!-- Node11&#45;&gt;Node11 -->
<g id="edge34" class="edge"><title>Node11&#45;&gt;Node11</title>
<path fill="none" stroke="#9a32cd" stroke-dasharray="5,2" d="M494.305,-557.341C496.21,-562.263 504.442,-565.914 519,-565.914 542.293,-565.914 549.39,-556.567 540.291,-547.622"/>
<polygon fill="#9a32cd" stroke="#9a32cd" points="497.707,-558.217 497.709,-547.622 491.1,-555.903 497.707,-558.217"/>
<text text-anchor="middle" x="519" y="-582.914" font-family="FreeSans" font-size="10.00"> parent_</text>
<text text-anchor="middle" x="519" y="-569.914" font-family="FreeSans" font-size="10.00">children_</text>
</g>
<!-- Node12&#45;&gt;Node1 -->
<g id="edge36" class="edge"><title>Node12&#45;&gt;Node1</title>
<path fill="none" stroke="#9a32cd" stroke-dasharray="5,2" d="M541.327,-132.102C579.582,-104.421 661.176,-50.1967 740,-28.9139 910.793,17.2011 962.461,-0.936608 1138,-22.9139 1189.88,-29.4087 1212.53,-17.6359 1252,-51.9139 1307.32,-99.9506 1323.08,-194.479 1326.91,-226.227"/>
<polygon fill="#9a32cd" stroke="#9a32cd" points="538.982,-129.482 532.986,-138.217 543.121,-135.127 538.982,-129.482"/>
<text text-anchor="middle" x="897" y="-6.91391" font-family="FreeSans" font-size="10.00"> frustum_</text>
</g>
<!-- Node12&#45;&gt;Node20 -->
<g id="edge68" class="edge"><title>Node12&#45;&gt;Node20</title>
<path fill="none" stroke="#9a32cd" stroke-dasharray="5,2" d="M578.19,-148.914C628.735,-148.914 700.577,-148.914 747.963,-148.914"/>
<polygon fill="#9a32cd" stroke="#9a32cd" points="578.061,-145.414 568.061,-148.914 578.061,-152.414 578.061,-145.414"/>
<text text-anchor="middle" x="664" y="-152.914" font-family="FreeSans" font-size="10.00"> frustum_</text>
</g>
<!-- Node13&#45;&gt;Node12 -->
<g id="edge38" class="edge"><title>Node13&#45;&gt;Node12</title>
<path fill="none" stroke="#9a32cd" stroke-dasharray="5,2" d="M296.429,-195.891C309.463,-191.337 324.262,-186.532 338,-182.914 382.06,-171.311 433.151,-162.09 469.794,-156.195"/>
<polygon fill="#9a32cd" stroke="#9a32cd" points="295.1,-192.649 286.853,-199.3 297.448,-199.243 295.1,-192.649"/>
<text text-anchor="middle" x="385" y="-186.914" font-family="FreeSans" font-size="10.00"> planes_</text>
</g>
<!-- Node13&#45;&gt;Node13 -->
<g id="edge40" class="edge"><title>Node13&#45;&gt;Node13</title>
<path fill="none" stroke="#9a32cd" stroke-dasharray="5,2" d="M239.097,-230.341C240.632,-235.263 247.267,-238.914 259,-238.914 277.773,-238.914 283.493,-229.567 276.16,-220.622"/>
<polygon fill="#9a32cd" stroke="#9a32cd" points="242.492,-231.197 241.84,-220.622 235.755,-229.295 242.492,-231.197"/>
<text text-anchor="middle" x="259" y="-242.914" font-family="FreeSans" font-size="10.00"> UP</text>
</g>
<!-- Node13&#45;&gt;Node20 -->
<g id="edge66" class="edge"><title>Node13&#45;&gt;Node20</title>
<path fill="none" stroke="#9a32cd" stroke-dasharray="5,2" d="M312.101,-207.23C398.485,-202.335 574.619,-190.151 722,-165.914 732.671,-164.159 744.098,-161.813 754.734,-159.425"/>
<polygon fill="#9a32cd" stroke="#9a32cd" points="311.809,-203.74 302.019,-207.791 312.198,-210.73 311.809,-203.74"/>
<text text-anchor="middle" x="519" y="-213.914" font-family="FreeSans" font-size="10.00"> clipPlane_</text>
<text text-anchor="middle" x="519" y="-200.914" font-family="FreeSans" font-size="10.00">reflectionPlane_</text>
</g>
<!-- Node14 -->
<g id="node36" class="node"><title>Node14</title>
<a xlink:href="class_urho3_d_1_1_shared_ptr.html" target="_top" xlink:title="Urho3D::SharedPtr\&lt;\l Urho3D::IndexBuffer \&gt;">
<polygon fill="none" stroke="black" points="975,-385.914 975,-419.914 1103,-419.914 1103,-385.914 975,-385.914"/>
<text text-anchor="start" x="983" y="-406.914" font-family="FreeSans" font-size="10.00">Urho3D::SharedPtr&lt;</text>
<text text-anchor="middle" x="1039" y="-393.914" font-family="FreeSans" font-size="10.00"> Urho3D::IndexBuffer &gt;</text>
</a>
</g>
<!-- Node14&#45;&gt;Node1 -->
<g id="edge46" class="edge"><title>Node14&#45;&gt;Node1</title>
<path fill="none" stroke="#9a32cd" stroke-dasharray="5,2" d="M1113.4,-387.969C1156.91,-376.541 1211.14,-357.427 1252,-326.914 1282.97,-303.787 1309.64,-265.753 1321.47,-247.429"/>
<polygon fill="#9a32cd" stroke="#9a32cd" points="1112.27,-384.645 1103.44,-390.501 1113.99,-391.429 1112.27,-384.645"/>
<text text-anchor="middle" x="1204" y="-377.914" font-family="FreeSans" font-size="10.00"> indexBuffer_</text>
</g>
<!-- Node15 -->
<g id="node38" class="node"><title>Node15</title>
<a xlink:href="class_urho3_d_1_1_index_buffer.html" target="_top" xlink:title="Hardware index buffer.">
<polygon fill="none" stroke="red" points="740.5,-390.414 740.5,-411.414 853.5,-411.414 853.5,-390.414 740.5,-390.414"/>
<text text-anchor="middle" x="797" y="-398.414" font-family="FreeSans" font-size="10.00">Urho3D::IndexBuffer</text>
</a>
</g>
<!-- Node15&#45;&gt;Node14 -->
<g id="edge48" class="edge"><title>Node15&#45;&gt;Node14</title>
<path fill="none" stroke="#9a32cd" stroke-dasharray="5,2" d="M863.777,-401.466C898.466,-401.752 940.652,-402.101 974.937,-402.384"/>
<polygon fill="#9a32cd" stroke="#9a32cd" points="863.767,-397.966 853.738,-401.383 863.709,-404.965 863.767,-397.966"/>
<text text-anchor="middle" x="897" y="-405.914" font-family="FreeSans" font-size="10.00"> ptr_</text>
</g>
<!-- Node16 -->
<g id="node40" class="node"><title>Node16</title>
<a xlink:href="class_urho3_d_1_1_hash_map.html" target="_top" xlink:title="Urho3D::HashMap\&lt; Urho3D\l::Camera *, Urho3D::ViewBatch\lInfo2D \&gt;">
<polygon fill="none" stroke="black" points="955.5,-254.414 955.5,-301.414 1122.5,-301.414 1122.5,-254.414 955.5,-254.414"/>
<text text-anchor="start" x="963.5" y="-288.414" font-family="FreeSans" font-size="10.00">Urho3D::HashMap&lt; Urho3D</text>
<text text-anchor="start" x="963.5" y="-275.414" font-family="FreeSans" font-size="10.00">::Camera *, Urho3D::ViewBatch</text>
<text text-anchor="middle" x="1039" y="-262.414" font-family="FreeSans" font-size="10.00">Info2D &gt;</text>
</a>
</g>
<!-- Node16&#45;&gt;Node1 -->
<g id="edge50" class="edge"><title>Node16&#45;&gt;Node1</title>
<path fill="none" stroke="#9a32cd" stroke-dasharray="5,2" d="M1132.69,-264.622C1177.82,-258.22 1230.52,-250.743 1269.8,-245.171"/>
<polygon fill="#9a32cd" stroke="#9a32cd" points="1132,-261.185 1122.59,-266.055 1132.98,-268.116 1132,-261.185"/>
<text text-anchor="middle" x="1204" y="-264.914" font-family="FreeSans" font-size="10.00"> viewBatchInfos_</text>
</g>
<!-- Node17 -->
<g id="node42" class="node"><title>Node17</title>
<a xlink:href="class_urho3_d_1_1_hash_base.html" target="_top" xlink:title="Hash set/map base class.">
<polygon fill="none" stroke="red" points="743,-267.414 743,-288.414 851,-288.414 851,-267.414 743,-267.414"/>
<text text-anchor="middle" x="797" y="-275.414" font-family="FreeSans" font-size="10.00">Urho3D::HashBase</text>
</a>
</g>
<!-- Node17&#45;&gt;Node16 -->
<g id="edge52" class="edge"><title>Node17&#45;&gt;Node16</title>
<path fill="none" stroke="midnightblue" d="M861.348,-277.914C890.137,-277.914 924.451,-277.914 955.212,-277.914"/>
<polygon fill="midnightblue" stroke="midnightblue" points="861.008,-274.414 851.008,-277.914 861.008,-281.414 861.008,-274.414"/>
</g>
<!-- Node18 -->
<g id="node44" class="node"><title>Node18</title>
<a xlink:href="class_urho3_d_1_1_hash_map.html" target="_top" xlink:title="Urho3D::HashMap\&lt; Urho3D\l::Texture2D *, Urho3D\l::HashMap\&lt; int, Urho3D\l::SharedPtr\&lt; Urho3D::Material \&gt; \&gt; \&gt;">
<polygon fill="none" stroke="black" points="940.5,-175.914 940.5,-235.914 1137.5,-235.914 1137.5,-175.914 940.5,-175.914"/>
<text text-anchor="start" x="948.5" y="-222.914" font-family="FreeSans" font-size="10.00">Urho3D::HashMap&lt; Urho3D</text>
<text text-anchor="start" x="948.5" y="-209.914" font-family="FreeSans" font-size="10.00">::Texture2D *, Urho3D</text>
<text text-anchor="start" x="948.5" y="-196.914" font-family="FreeSans" font-size="10.00">::HashMap&lt; int, Urho3D</text>
<text text-anchor="middle" x="1039" y="-183.914" font-family="FreeSans" font-size="10.00">::SharedPtr&lt; Urho3D::Material &gt; &gt; &gt;</text>
</a>
</g>
<!-- Node17&#45;&gt;Node18 -->
<g id="edge56" class="edge"><title>Node17&#45;&gt;Node18</title>
<path fill="none" stroke="midnightblue" d="M842.216,-264.461C869.872,-256.233 906.37,-245.374 940.414,-235.245"/>
<polygon fill="midnightblue" stroke="midnightblue" points="841.035,-261.161 832.448,-267.367 843.031,-267.87 841.035,-261.161"/>
</g>
<!-- Node25 -->
<g id="node64" class="node"><title>Node25</title>
<a xlink:href="class_urho3_d_1_1_hash_map.html" target="_top" xlink:title="Urho3D::HashMap\&lt; int,\l Urho3D::SharedPtr\&lt; Urho3D\l::Technique \&gt; \&gt;">
<polygon fill="none" stroke="black" points="960,-320.414 960,-367.414 1118,-367.414 1118,-320.414 960,-320.414"/>
<text text-anchor="start" x="968" y="-354.414" font-family="FreeSans" font-size="10.00">Urho3D::HashMap&lt; int,</text>
<text text-anchor="start" x="968" y="-341.414" font-family="FreeSans" font-size="10.00"> Urho3D::SharedPtr&lt; Urho3D</text>
<text text-anchor="middle" x="1039" y="-328.414" font-family="FreeSans" font-size="10.00">::Technique &gt; &gt;</text>
</a>
</g>
<!-- Node17&#45;&gt;Node25 -->
<g id="edge82" class="edge"><title>Node17&#45;&gt;Node25</title>
<path fill="none" stroke="midnightblue" d="M845.396,-291.113C878.146,-300.045 922.156,-312.047 959.939,-322.352"/>
<polygon fill="midnightblue" stroke="midnightblue" points="846.182,-287.699 835.613,-288.445 844.34,-294.453 846.182,-287.699"/>
</g>
<!-- Node18&#45;&gt;Node1 -->
<g id="edge54" class="edge"><title>Node18&#45;&gt;Node1</title>
<path fill="none" stroke="#9a32cd" stroke-dasharray="5,2" d="M1147.77,-214.189C1181.25,-217.119 1218.19,-220.742 1252,-224.914 1257.83,-225.634 1263.91,-226.461 1269.96,-227.337"/>
<polygon fill="#9a32cd" stroke="#9a32cd" points="1147.77,-210.675 1137.5,-213.302 1147.16,-217.649 1147.77,-210.675"/>
<text text-anchor="middle" x="1204" y="-228.914" font-family="FreeSans" font-size="10.00"> cachedMaterials_</text>
</g>
<!-- Node19 -->
<g id="node48" class="node"><title>Node19</title>
<a xlink:href="struct_urho3_d_1_1_frame_info.html" target="_top" xlink:title="Rendering frame update parameters.">
<polygon fill="none" stroke="black" points="985.5,-84.4139 985.5,-105.414 1092.5,-105.414 1092.5,-84.4139 985.5,-84.4139"/>
<text text-anchor="middle" x="1039" y="-92.4139" font-family="FreeSans" font-size="10.00">Urho3D::FrameInfo</text>
</a>
</g>
<!-- Node19&#45;&gt;Node1 -->
<g id="edge60" class="edge"><title>Node19&#45;&gt;Node1</title>
<path fill="none" stroke="#9a32cd" stroke-dasharray="5,2" d="M1102.84,-101.003C1147.55,-107.706 1207.09,-121.718 1252,-150.914 1283.41,-171.332 1309.67,-208.141 1321.41,-226.256"/>
<polygon fill="#9a32cd" stroke="#9a32cd" points="1103.07,-97.5004 1092.67,-99.5659 1102.09,-104.431 1103.07,-97.5004"/>
<text text-anchor="middle" x="1204" y="-154.914" font-family="FreeSans" font-size="10.00"> frame_</text>
</g>
<!-- Node20&#45;&gt;Node19 -->
<g id="edge62" class="edge"><title>Node20&#45;&gt;Node19</title>
<path fill="none" stroke="#9a32cd" stroke-dasharray="5,2" d="M849.771,-135.913C876.718,-129.39 910.054,-121.497 940,-114.914 954.728,-111.676 970.733,-108.357 985.496,-105.376"/>
<polygon fill="#9a32cd" stroke="#9a32cd" points="848.667,-132.579 839.776,-138.341 850.319,-139.382 848.667,-132.579"/>
<text text-anchor="middle" x="897" y="-133.914" font-family="FreeSans" font-size="10.00"> camera_</text>
</g>
<!-- Node21 -->
<g id="node55" class="node"><title>Node21</title>
<a xlink:href="class_urho3_d_1_1_int_vector2.html" target="_top" xlink:title="Two&#45;dimensional vector with integer values.">
<polygon fill="none" stroke="black" points="743,-178.414 743,-199.414 851,-199.414 851,-178.414 743,-178.414"/>
<text text-anchor="middle" x="797" y="-186.414" font-family="FreeSans" font-size="10.00">Urho3D::IntVector2</text>
</a>
</g>
<!-- Node21&#45;&gt;Node19 -->
<g id="edge70" class="edge"><title>Node21&#45;&gt;Node19</title>
<path fill="none" stroke="#9a32cd" stroke-dasharray="5,2" d="M861.051,-177.091C882.156,-170.805 904.642,-161.278 922,-146.914 934.572,-136.511 926.804,-124.513 940,-114.914 953.117,-105.373 969.68,-100.116 985.486,-97.2921"/>
<polygon fill="#9a32cd" stroke="#9a32cd" points="859.852,-173.792 851.153,-179.84 861.725,-180.536 859.852,-173.792"/>
<text text-anchor="middle" x="897" y="-175.914" font-family="FreeSans" font-size="10.00"> viewSize_</text>
</g>
<!-- Node21&#45;&gt;Node21 -->
<g id="edge72" class="edge"><title>Node21&#45;&gt;Node21</title>
<path fill="none" stroke="#9a32cd" stroke-dasharray="5,2" d="M778.571,-209.341C779.993,-214.263 786.136,-217.914 797,-217.914 814.383,-217.914 819.679,-208.567 812.889,-199.622"/>
<polygon fill="#9a32cd" stroke="#9a32cd" points="781.969,-210.182 781.111,-199.622 775.196,-208.412 781.969,-210.182"/>
<text text-anchor="middle" x="797" y="-221.914" font-family="FreeSans" font-size="10.00"> ZERO</text>
</g>
<!-- Node22 -->
<g id="node58" class="node"><title>Node22</title>
<a xlink:href="class_urho3_d_1_1_shared_ptr.html" target="_top" xlink:title="Urho3D::SharedPtr\&lt;\l Urho3D::Material \&gt;">
<polygon fill="none" stroke="black" points="981,-31.9139 981,-65.9139 1097,-65.9139 1097,-31.9139 981,-31.9139"/>
<text text-anchor="start" x="989" y="-52.9139" font-family="FreeSans" font-size="10.00">Urho3D::SharedPtr&lt;</text>
<text text-anchor="middle" x="1039" y="-39.9139" font-family="FreeSans" font-size="10.00"> Urho3D::Material &gt;</text>
</a>
</g>
<!-- Node22&#45;&gt;Node1 -->
<g id="edge74" class="edge"><title>Node22&#45;&gt;Node1</title>
<path fill="none" stroke="#9a32cd" stroke-dasharray="5,2" d="M1107.33,-49.2556C1152.41,-52.7105 1210.58,-63.6819 1252,-94.9139 1297.77,-129.423 1318.97,-199.721 1325.6,-226.361"/>
<polygon fill="#9a32cd" stroke="#9a32cd" points="1107.55,-45.7624 1097.34,-48.5951 1107.09,-52.7471 1107.55,-45.7624"/>
<text text-anchor="middle" x="1204" y="-98.9139" font-family="FreeSans" font-size="10.00"> material_</text>
</g>
<!-- Node23 -->
<g id="node60" class="node"><title>Node23</title>
<a xlink:href="class_urho3_d_1_1_material.html" target="_top" xlink:title="Describes how to render 3D geometries.">
<polygon fill="none" stroke="red" points="748,-38.4139 748,-59.4139 846,-59.4139 846,-38.4139 748,-38.4139"/>
<text text-anchor="middle" x="797" y="-46.4139" font-family="FreeSans" font-size="10.00">Urho3D::Material</text>
</a>
</g>
<!-- Node23&#45;&gt;Node22 -->
<g id="edge76" class="edge"><title>Node23&#45;&gt;Node22</title>
<path fill="none" stroke="#9a32cd" stroke-dasharray="5,2" d="M856.637,-48.9139C894.506,-48.9139 943.279,-48.9139 980.856,-48.9139"/>
<polygon fill="#9a32cd" stroke="#9a32cd" points="856.264,-45.414 846.264,-48.9139 856.264,-52.414 856.264,-45.414"/>
<text text-anchor="middle" x="897" y="-52.9139" font-family="FreeSans" font-size="10.00"> ptr_</text>
</g>
<!-- Node24 -->
<g id="node62" class="node"><title>Node24</title>
<a xlink:href="class_urho3_d_1_1_p_o_d_vector.html" target="_top" xlink:title="Urho3D::PODVector\&lt;\l Urho3D::Drawable2D * \&gt;">
<polygon fill="none" stroke="red" points="969,-123.914 969,-157.914 1109,-157.914 1109,-123.914 969,-123.914"/>
<text text-anchor="start" x="977" y="-144.914" font-family="FreeSans" font-size="10.00">Urho3D::PODVector&lt;</text>
<text text-anchor="middle" x="1039" y="-131.914" font-family="FreeSans" font-size="10.00"> Urho3D::Drawable2D * &gt;</text>
</a>
</g>
<!-- Node24&#45;&gt;Node1 -->
<g id="edge78" class="edge"><title>Node24&#45;&gt;Node1</title>
<path fill="none" stroke="#9a32cd" stroke-dasharray="5,2" d="M1119.11,-158.001C1159.61,-167.726 1209.13,-181.297 1252,-197.914 1272.6,-205.901 1294.97,-217.802 1310.07,-226.356"/>
<polygon fill="#9a32cd" stroke="#9a32cd" points="1119.82,-154.573 1109.28,-155.674 1118.21,-161.384 1119.82,-154.573"/>
<text text-anchor="middle" x="1204" y="-201.914" font-family="FreeSans" font-size="10.00"> drawables_</text>
</g>
<!-- Node25&#45;&gt;Node1 -->
<g id="edge80" class="edge"><title>Node25&#45;&gt;Node1</title>
<path fill="none" stroke="#9a32cd" stroke-dasharray="5,2" d="M1127.89,-320.558C1166.63,-309.315 1212.18,-294.635 1252,-277.914 1272.87,-269.148 1295.56,-256.459 1310.67,-247.524"/>
<polygon fill="#9a32cd" stroke="#9a32cd" points="1126.84,-317.218 1118.2,-323.342 1128.77,-323.946 1126.84,-317.218"/>
<text text-anchor="middle" x="1204" y="-313.914" font-family="FreeSans" font-size="10.00"> cachedTechniques_</text>
</g>
</g>
</svg>
        <g id="navigator" transform="translate(0 0)" fill="#404254">
                <rect fill="#f2f5e9" fill-opacity="0.5" stroke="#606060" stroke-width=".5" x="0" y="0" width="60" height="60"/>
                <use id="zoomplus" xlink:href="#zoomPlus" x="17" y="9" onmousedown="handleZoom(evt,'in')"/>
                <use id="zoomminus" xlink:href="#zoomMin" x="42" y="9" onmousedown="handleZoom(evt,'out')"/>
                <use id="reset" xlink:href="#resetDef" x="30" y="36" onmousedown="handleReset()"/>
                <g id="arrowUp" xlink:href="#dirArrow" transform="translate(30 24)" onmousedown="handlePan(0,-1)">
                  <use xlink:href="#rim" fill="#404040">
                        <set attributeName="fill" to="#808080" begin="arrowUp.mouseover" end="arrowUp.mouseout"/>
                  </use>
                  <path fill="none" stroke="white" stroke-width="1.5" d="M0,-3.0v7 M-2.5,-0.5L0,-3.0L2.5,-0.5"/>
                </g>
                <g id="arrowRight" xlink:href="#dirArrow" transform="rotate(90) translate(36 -43)" onmousedown="handlePan(1,0)">
                  <use xlink:href="#rim" fill="#404040">
                        <set attributeName="fill" to="#808080" begin="arrowRight.mouseover" end="arrowRight.mouseout"/>
                  </use>
                  <path fill="none" stroke="white" stroke-width="1.5" d="M0,-3.0v7 M-2.5,-0.5L0,-3.0L2.5,-0.5"/>
                </g>
                <g id="arrowDown" xlink:href="#dirArrow" transform="rotate(180) translate(-30 -48)" onmousedown="handlePan(0,1)">
                  <use xlink:href="#rim" fill="#404040">
                        <set attributeName="fill" to="#808080" begin="arrowDown.mouseover" end="arrowDown.mouseout"/>
                  </use>
                  <path fill="none" stroke="white" stroke-width="1.5" d="M0,-3.0v7 M-2.5,-0.5L0,-3.0L2.5,-0.5"/>
                </g>
                <g id="arrowLeft" xlink:href="#dirArrow" transform="rotate(270) translate(-36 17)" onmousedown="handlePan(-1,0)">
                  <use xlink:href="#rim" fill="#404040">
                        <set attributeName="fill" to="#808080" begin="arrowLeft.mouseover" end="arrowLeft.mouseout"/>
                  </use>
                  <path fill="none" stroke="white" stroke-width="1.5" d="M0,-3.0v7 M-2.5,-0.5L0,-3.0L2.5,-0.5"/>
                </g>
        </g>
        <svg viewBox="0 0 15 15" width="100%" height="30px" preserveAspectRatio="xMaxYMin meet">
         <g id="arrow_out" transform="scale(0.3 0.3)">
          <a xlink:href="class_urho3_d_1_1_renderer2_d__coll__graph_org.svg" target="_base">
           <rect id="button" ry="5" rx="5" y="6" x="6" height="38" width="38"
                fill="#f2f5e9" fill-opacity="0.5" stroke="#606060" stroke-width="1.0"/>
           <path id="arrow"
             d="M 11.500037,31.436501 C 11.940474,20.09759 22.043105,11.32322 32.158766,21.979434 L 37.068811,17.246167 C 37.068811,17.246167 37.088388,32 37.088388,32 L 22.160133,31.978069 C 22.160133,31.978069 26.997745,27.140456 26.997745,27.140456 C 18.528582,18.264221 13.291696,25.230495 11.500037,31.436501 z"
             style="fill:#404040;"/>
          </a>
         </g>
        </svg>
</svg>
