<?xml version="1.0" encoding="UTF-8" standalone="no"?>
<!DOCTYPE svg PUBLIC "-//W3C//DTD SVG 1.1//EN"
 "http://www.w3.org/Graphics/SVG/1.1/DTD/svg11.dtd">
<!-- Generated by graphviz version 2.26.3 (20100126.1600)
 -->
<!-- Title: Urho3D::ShaderVariation::LoadByteCode Pages: 1 -->
<!--zoomable 688 -->
<svg id="main" version="1.1" xmlns="http://www.w3.org/2000/svg" xmlns:xlink="http://www.w3.org/1999/xlink" xml:space="preserve" onload="init(evt)">
        <defs>
                <circle id="rim" cx="0" cy="0" r="7"/>
                <circle id="rim2" cx="0" cy="0" r="3.5"/>
                <g id="zoomPlus">
                        <use xlink:href="#rim" fill="#404040">
                                <set attributeName="fill" to="#808080" begin="zoomplus.mouseover" end="zoomplus.mouseout"/>
                        </use>
                        <path d="M-4,0h8M0,-4v8" fill="none" stroke="white" stroke-width="1.5" pointer-events="none"/>
                </g>
                <g id="zoomMin">
                        <use xlink:href="#rim" fill="#404040">
                                <set attributeName="fill" to="#808080" begin="zoomminus.mouseover" end="zoomminus.mouseout"/>
                        </use>
                        <path d="M-4,0h8" fill="none" stroke="white" stroke-width="1.5" pointer-events="none"/>
                </g>
                <g id="dirArrow">
                        <path fill="none" stroke="white" stroke-width="1.5" d="M0,-3.0v7 M-2.5,-0.5L0,-3.0L2.5,-0.5"/>
                </g>
               <g id="resetDef">
                       <use xlink:href="#rim2" fill="#404040">
                               <set attributeName="fill" to="#808080" begin="reset.mouseover" end="reset.mouseout"/>
                       </use>
               </g>
        </defs>

<script type="text/javascript">
var viewWidth = 1240;
var viewHeight = 688;
var sectionId = 'dynsection-2';
</script>
<script xlink:href="svgpan.js"/>
<svg id="graph" class="graph">
<g id="viewport">
<title>Urho3D::ShaderVariation::LoadByteCode</title>
<!-- Node1 -->
<g id="node1" class="node"><title>Node1</title>
<polygon fill="#bfbfbf" stroke="black" points="0,-149 0,-183 136,-183 136,-149 0,-149"/>
<text text-anchor="start" x="8" y="-170" font-family="FreeSans" font-size="10.00">Urho3D::ShaderVariation</text>
<text text-anchor="middle" x="68" y="-157" font-family="FreeSans" font-size="10.00">::LoadByteCode</text>
</g>
<!-- Node2 -->
<g id="node3" class="node"><title>Node2</title>
<a xlink:href="class_urho3_d_1_1_resource_cache.html#a94659e6c04c0bb9791019913b7866252" target="_top" xlink:title="Return whether a file exists by name.">
<polygon fill="none" stroke="black" points="570.5,-344 570.5,-378 703.5,-378 703.5,-344 570.5,-344"/>
<text text-anchor="start" x="578.5" y="-365" font-family="FreeSans" font-size="10.00">Urho3D::ResourceCache</text>
<text text-anchor="middle" x="637" y="-352" font-family="FreeSans" font-size="10.00">::Exists</text>
</a>
</g>
<!-- Node1&#45;&gt;Node2 -->
<g id="edge2" class="edge"><title>Node1&#45;&gt;Node2</title>
<path fill="none" stroke="midnightblue" d="M95.8195,-183.101C116.281,-195.078 145.099,-210.718 172,-221 326.861,-280.188 378.14,-254.494 534,-311 555.422,-318.766 578.312,-329.603 597.059,-339.203"/>
<polygon fill="midnightblue" stroke="midnightblue" points="595.692,-342.437 606.18,-343.942 598.92,-336.225 595.692,-342.437"/>
</g>
<!-- Node15 -->
<g id="node34" class="node"><title>Node15</title>
<a xlink:href="class_urho3_d_1_1_file_system.html#ab597bbe58fed7bbc825c8c01f5b2d60c" target="_top" xlink:title="Returns the file&#39;s last modified time as seconds since 1.1.1970, or 0 if can not be accessed...">
<polygon fill="none" stroke="black" points="922.5,-198 922.5,-232 1045.5,-232 1045.5,-198 922.5,-198"/>
<text text-anchor="start" x="930.5" y="-219" font-family="FreeSans" font-size="10.00">Urho3D::FileSystem</text>
<text text-anchor="middle" x="984" y="-206" font-family="FreeSans" font-size="10.00">::GetLastModifiedTime</text>
</a>
</g>
<!-- Node1&#45;&gt;Node15 -->
<g id="edge38" class="edge"><title>Node1&#45;&gt;Node15</title>
<path fill="none" stroke="midnightblue" d="M136.155,-166C213.103,-166 342.045,-166 453,-166 453,-166 453,-166 637,-166 743.557,-166 771.073,-166.433 876,-185 890.635,-187.59 906.151,-191.304 920.718,-195.242"/>
<polygon fill="midnightblue" stroke="midnightblue" points="920.058,-198.691 930.63,-197.993 921.93,-191.946 920.058,-198.691"/>
</g>
<!-- Node16 -->
<g id="node39" class="node"><title>Node16</title>
<a xlink:href="class_urho3_d_1_1_resource_cache.html#a368d4a90b48e25ec5f245fda5e49bae3" target="_top" xlink:title="Return full absolute file name of resource if possible.">
<polygon fill="none" stroke="black" points="741.5,-194 741.5,-228 874.5,-228 874.5,-194 741.5,-194"/>
<text text-anchor="start" x="749.5" y="-215" font-family="FreeSans" font-size="10.00">Urho3D::ResourceCache</text>
<text text-anchor="middle" x="808" y="-202" font-family="FreeSans" font-size="10.00">::GetResourceFileName</text>
</a>
</g>
<!-- Node1&#45;&gt;Node16 -->
<g id="edge46" class="edge"><title>Node1&#45;&gt;Node16</title>
<path fill="none" stroke="midnightblue" d="M136.156,-176.019C148.083,-177.531 160.389,-178.937 172,-180 373.371,-198.428 611.681,-206.348 731.332,-209.369"/>
<polygon fill="midnightblue" stroke="midnightblue" points="731.404,-212.871 741.488,-209.62 731.578,-205.874 731.404,-212.871"/>
</g>
<!-- Node17 -->
<g id="node43" class="node"><title>Node17</title>
<a xlink:href="class_urho3_d_1_1_resource_cache.html#a7a8fddc0e1561115c557850f6751f76b" target="_top" xlink:title="Open and return a file from the resource load paths or from inside a package file. If not found, use a fallback search with absolute path. Return null if fails. Can be called from outside the main thread.">
<polygon fill="none" stroke="black" points="187.5,-405 187.5,-439 320.5,-439 320.5,-405 187.5,-405"/>
<text text-anchor="start" x="195.5" y="-426" font-family="FreeSans" font-size="10.00">Urho3D::ResourceCache</text>
<text text-anchor="middle" x="254" y="-413" font-family="FreeSans" font-size="10.00">::GetFile</text>
</a>
</g>
<!-- Node1&#45;&gt;Node17 -->
<g id="edge52" class="edge"><title>Node1&#45;&gt;Node17</title>
<path fill="none" stroke="midnightblue" d="M80.4928,-183.194C112.524,-227.28 197.707,-344.522 235.498,-396.535"/>
<polygon fill="midnightblue" stroke="midnightblue" points="232.852,-398.848 241.562,-404.88 238.515,-394.733 232.852,-398.848"/>
</g>
<!-- Node23 -->
<g id="node61" class="node"><title>Node23</title>
<a xlink:href="class_urho3_d_1_1_p_o_d_vector.html#a90931bab46c47be9f1989f4ec86bd487" target="_top" xlink:title="Resize the vector.">
<polygon fill="none" stroke="black" points="195.5,-104 195.5,-138 312.5,-138 312.5,-104 195.5,-104"/>
<text text-anchor="start" x="203.5" y="-125" font-family="FreeSans" font-size="10.00">Urho3D::PODVector::</text>
<text text-anchor="middle" x="254" y="-112" font-family="FreeSans" font-size="10.00">Resize</text>
</a>
</g>
<!-- Node1&#45;&gt;Node23 -->
<g id="edge76" class="edge"><title>Node1&#45;&gt;Node23</title>
<path fill="none" stroke="midnightblue" d="M136.203,-149.499C152.259,-145.615 169.379,-141.473 185.45,-137.585"/>
<polygon fill="midnightblue" stroke="midnightblue" points="186.406,-140.955 195.302,-135.201 184.759,-134.151 186.406,-140.955"/>
</g>
<!-- Node24 -->
<g id="node63" class="node"><title>Node24</title>
<a xlink:href="class_urho3_d_1_1_shader_variation.html#a6da1356b18b052d0413ff106934103fc" target="_top" xlink:title="Return full shader name.">
<polygon fill="none" stroke="black" points="186,-52 186,-86 322,-86 322,-52 186,-52"/>
<text text-anchor="start" x="194" y="-73" font-family="FreeSans" font-size="10.00">Urho3D::ShaderVariation</text>
<text text-anchor="middle" x="254" y="-60" font-family="FreeSans" font-size="10.00">::GetFullName</text>
</a>
</g>
<!-- Node1&#45;&gt;Node24 -->
<g id="edge78" class="edge"><title>Node1&#45;&gt;Node24</title>
<path fill="none" stroke="midnightblue" d="M89.1727,-148.796C109.424,-133.027 141.336,-109.927 172,-95 175.777,-93.1615 179.713,-91.4132 183.729,-89.7574"/>
<polygon fill="midnightblue" stroke="midnightblue" points="185.159,-92.9565 193.205,-86.0629 182.616,-86.4346 185.159,-92.9565"/>
</g>
<!-- Node25 -->
<g id="node65" class="node"><title>Node25</title>
<a xlink:href="class_urho3_d_1_1_shader_variation.html#ae0244988b02aaf541a0e6d38f01c4998" target="_top" xlink:title="Calculate constant buffer sizes from parameters.">
<polygon fill="none" stroke="black" points="172,-0 172,-34 336,-34 336,-0 172,-0"/>
<text text-anchor="start" x="180" y="-21" font-family="FreeSans" font-size="10.00">Urho3D::ShaderVariation</text>
<text text-anchor="middle" x="254" y="-8" font-family="FreeSans" font-size="10.00">::CalculateConstantBufferSizes</text>
</a>
</g>
<!-- Node1&#45;&gt;Node25 -->
<g id="edge80" class="edge"><title>Node1&#45;&gt;Node25</title>
<path fill="none" stroke="midnightblue" d="M78.1598,-148.624C94.5715,-122.042 129.419,-71.3854 172,-43 174.388,-41.4079 176.88,-39.9084 179.446,-38.4964"/>
<polygon fill="midnightblue" stroke="midnightblue" points="181.028,-41.6189 188.417,-34.0261 177.906,-35.3537 181.028,-41.6189"/>
</g>
<!-- Node3 -->
<g id="node5" class="node"><title>Node3</title>
<a xlink:href="class_urho3_d_1_1_resource_cache.html#acaf617b205d693cd493febfc01c330a8" target="_top" xlink:title="Remove unsupported constructs from the resource name to prevent ambiguity, and normalize absolute fil...">
<polygon fill="none" stroke="black" points="740,-535 740,-569 876,-569 876,-535 740,-535"/>
<text text-anchor="start" x="748" y="-556" font-family="FreeSans" font-size="10.00">Urho3D::ResourceCache</text>
<text text-anchor="middle" x="808" y="-543" font-family="FreeSans" font-size="10.00">::SanitateResourceName</text>
</a>
</g>
<!-- Node2&#45;&gt;Node3 -->
<g id="edge4" class="edge"><title>Node2&#45;&gt;Node3</title>
<path fill="none" stroke="midnightblue" d="M652.477,-378.287C682.871,-412.236 750.46,-487.731 785.682,-527.072"/>
<polygon fill="midnightblue" stroke="midnightblue" points="783.404,-529.774 792.681,-534.89 788.619,-525.105 783.404,-529.774"/>
</g>
<!-- Node5 -->
<g id="node9" class="node"><title>Node5</title>
<a xlink:href="class_urho3_d_1_1_vector.html#a06762e9e70b9851f54a845555f28cd4b" target="_top" xlink:title="Return size of vector.">
<polygon fill="none" stroke="black" points="926,-323.5 926,-344.5 1042,-344.5 1042,-323.5 926,-323.5"/>
<text text-anchor="middle" x="984" y="-331.5" font-family="FreeSans" font-size="10.00">Urho3D::Vector::Size</text>
</a>
</g>
<!-- Node2&#45;&gt;Node5 -->
<g id="edge30" class="edge"><title>Node2&#45;&gt;Node5</title>
<path fill="none" stroke="midnightblue" d="M703.905,-355.794C764.909,-351.047 854.618,-344.067 915.971,-339.293"/>
<polygon fill="midnightblue" stroke="midnightblue" points="916.246,-342.783 925.944,-338.517 915.703,-335.804 916.246,-342.783"/>
</g>
<!-- Node7 -->
<g id="node13" class="node"><title>Node7</title>
<a xlink:href="class_urho3_d_1_1_string.html#a69ac7aadaa628fc05fc96abde992fcdc" target="_top" xlink:title="Return whether the string is empty.">
<polygon fill="none" stroke="black" points="1099.5,-392.5 1099.5,-413.5 1224.5,-413.5 1224.5,-392.5 1099.5,-392.5"/>
<text text-anchor="middle" x="1162" y="-400.5" font-family="FreeSans" font-size="10.00">Urho3D::String::Empty</text>
</a>
</g>
<!-- Node2&#45;&gt;Node7 -->
<g id="edge28" class="edge"><title>Node2&#45;&gt;Node7</title>
<path fill="none" stroke="midnightblue" d="M703.758,-366.341C802.55,-374.244 986.979,-388.998 1089.16,-397.173"/>
<polygon fill="midnightblue" stroke="midnightblue" points="1089.14,-400.682 1099.39,-397.991 1089.7,-393.705 1089.14,-400.682"/>
</g>
<!-- Node13 -->
<g id="node29" class="node"><title>Node13</title>
<a xlink:href="class_urho3_d_1_1_file_system.html#a0372e5805f0266e27aae75dbe501733c" target="_top" xlink:title="Check if a file exists.">
<polygon fill="none" stroke="black" points="928.5,-250 928.5,-284 1039.5,-284 1039.5,-250 928.5,-250"/>
<text text-anchor="start" x="936.5" y="-271" font-family="FreeSans" font-size="10.00">Urho3D::FileSystem</text>
<text text-anchor="middle" x="984" y="-258" font-family="FreeSans" font-size="10.00">::FileExists</text>
</a>
</g>
<!-- Node2&#45;&gt;Node13 -->
<g id="edge32" class="edge"><title>Node2&#45;&gt;Node13</title>
<path fill="none" stroke="midnightblue" d="M650.898,-343.909C668.934,-323.189 702.56,-289.274 740,-275 797.243,-253.176 867.631,-253.446 918.071,-257.818"/>
<polygon fill="midnightblue" stroke="midnightblue" points="917.917,-261.319 928.201,-258.774 918.574,-254.35 917.917,-261.319"/>
</g>
<!-- Node4 -->
<g id="node7" class="node"><title>Node4</title>
<a xlink:href="class_urho3_d_1_1_string.html#ab08b5f1f7cee23f3e14eebcb2f7f8d4e" target="_top" xlink:title="Replace all occurrences of a character.">
<polygon fill="none" stroke="black" points="1096.5,-498.5 1096.5,-519.5 1227.5,-519.5 1227.5,-498.5 1096.5,-498.5"/>
<text text-anchor="middle" x="1162" y="-506.5" font-family="FreeSans" font-size="10.00">Urho3D::String::Replace</text>
</a>
</g>
<!-- Node3&#45;&gt;Node4 -->
<g id="edge6" class="edge"><title>Node3&#45;&gt;Node4</title>
<path fill="none" stroke="midnightblue" d="M876.195,-549.461C926.185,-546.949 995.58,-542.105 1056,-533 1074.4,-530.227 1094.36,-526.027 1111.95,-521.913"/>
<polygon fill="midnightblue" stroke="midnightblue" points="1113.08,-525.24 1121.99,-519.511 1111.46,-518.432 1113.08,-525.24"/>
</g>
<!-- Node3&#45;&gt;Node5 -->
<g id="edge8" class="edge"><title>Node3&#45;&gt;Node5</title>
<path fill="none" stroke="midnightblue" d="M821.81,-534.894C854.191,-494.787 934.814,-394.923 968.659,-353.002"/>
<polygon fill="midnightblue" stroke="midnightblue" points="971.578,-354.958 975.136,-344.979 966.131,-350.561 971.578,-354.958"/>
</g>
<!-- Node6 -->
<g id="node11" class="node"><title>Node6</title>
<a xlink:href="class_urho3_d_1_1_file_system.html#a5d93365af462341ea8029827581854a6" target="_top" xlink:title="Return the program&#39;s directory. If it does not contain the Urho3D default CoreData and Data directori...">
<polygon fill="none" stroke="red" points="928.5,-450 928.5,-484 1039.5,-484 1039.5,-450 928.5,-450"/>
<text text-anchor="start" x="936.5" y="-471" font-family="FreeSans" font-size="10.00">Urho3D::FileSystem</text>
<text text-anchor="middle" x="984" y="-458" font-family="FreeSans" font-size="10.00">::GetProgramDir</text>
</a>
</g>
<!-- Node3&#45;&gt;Node6 -->
<g id="edge10" class="edge"><title>Node3&#45;&gt;Node6</title>
<path fill="none" stroke="midnightblue" d="M835.139,-534.915C855.743,-522.365 885.033,-505.409 912,-493 915.803,-491.25 919.76,-489.537 923.776,-487.878"/>
<polygon fill="midnightblue" stroke="midnightblue" points="925.217,-491.072 933.208,-484.115 922.623,-484.57 925.217,-491.072"/>
</g>
<!-- Node9 -->
<g id="node18" class="node"><title>Node9</title>
<a xlink:href="class_urho3_d_1_1_string.html#a6dffd447850e4d687096a79dafe8bdac" target="_top" xlink:title="Return whether starts with a string.">
<polygon fill="none" stroke="red" points="912.5,-502.5 912.5,-523.5 1055.5,-523.5 1055.5,-502.5 912.5,-502.5"/>
<text text-anchor="middle" x="984" y="-510.5" font-family="FreeSans" font-size="10.00">Urho3D::String::StartsWith</text>
</a>
</g>
<!-- Node3&#45;&gt;Node9 -->
<g id="edge18" class="edge"><title>Node3&#45;&gt;Node9</title>
<path fill="none" stroke="midnightblue" d="M876.046,-536.922C892.788,-533.212 910.547,-529.276 926.723,-525.692"/>
<polygon fill="midnightblue" stroke="midnightblue" points="927.561,-529.091 936.567,-523.511 926.046,-522.257 927.561,-529.091"/>
</g>
<!-- Node10 -->
<g id="node20" class="node"><title>Node10</title>
<a xlink:href="class_urho3_d_1_1_string.html#ade8095f1798d6e1d4ed03d43d9919611" target="_top" xlink:title="Return a substring from position to end.">
<polygon fill="none" stroke="red" points="1092,-599.5 1092,-620.5 1232,-620.5 1232,-599.5 1092,-599.5"/>
<text text-anchor="middle" x="1162" y="-607.5" font-family="FreeSans" font-size="10.00">Urho3D::String::Substring</text>
</a>
</g>
<!-- Node3&#45;&gt;Node10 -->
<g id="edge20" class="edge"><title>Node3&#45;&gt;Node10</title>
<path fill="none" stroke="midnightblue" d="M830.046,-569.032C850.14,-583.404 881.291,-602.896 912,-611 967.359,-625.609 1032.05,-624.897 1081.75,-620.774"/>
<polygon fill="midnightblue" stroke="midnightblue" points="1082.15,-624.253 1091.8,-619.878 1081.53,-617.28 1082.15,-624.253"/>
</g>
<!-- Node11 -->
<g id="node22" class="node"><title>Node11</title>
<a xlink:href="class_urho3_d_1_1_string.html#a11572e3c07f60de65ac5d0c1ca5b6ba3" target="_top" xlink:title="Return length.">
<polygon fill="none" stroke="black" points="920.5,-658.5 920.5,-679.5 1047.5,-679.5 1047.5,-658.5 920.5,-658.5"/>
<text text-anchor="middle" x="984" y="-666.5" font-family="FreeSans" font-size="10.00">Urho3D::String::Length</text>
</a>
</g>
<!-- Node3&#45;&gt;Node11 -->
<g id="edge22" class="edge"><title>Node3&#45;&gt;Node11</title>
<path fill="none" stroke="midnightblue" d="M823.348,-569.167C842.371,-589.529 876.625,-623.31 912,-644 919.146,-648.179 927.099,-651.809 935.038,-654.908"/>
<polygon fill="midnightblue" stroke="midnightblue" points="934.067,-658.28 944.661,-658.427 936.471,-651.705 934.067,-658.28"/>
</g>
<!-- Node12 -->
<g id="node24" class="node"><title>Node12</title>
<a xlink:href="class_urho3_d_1_1_string.html#ad6a5f266f8164b6b1022f93a4e92eb92" target="_top" xlink:title="Return string with whitespace trimmed from the beginning and the end.">
<polygon fill="none" stroke="black" points="916.5,-580.5 916.5,-601.5 1051.5,-601.5 1051.5,-580.5 916.5,-580.5"/>
<text text-anchor="middle" x="984" y="-588.5" font-family="FreeSans" font-size="10.00">Urho3D::String::Trimmed</text>
</a>
</g>
<!-- Node3&#45;&gt;Node12 -->
<g id="edge24" class="edge"><title>Node3&#45;&gt;Node12</title>
<path fill="none" stroke="midnightblue" d="M876.046,-567.078C892.788,-570.788 910.547,-574.724 926.723,-578.308"/>
<polygon fill="midnightblue" stroke="midnightblue" points="926.046,-581.743 936.567,-580.489 927.561,-574.909 926.046,-581.743"/>
</g>
<!-- Node6&#45;&gt;Node4 -->
<g id="edge16" class="edge"><title>Node6&#45;&gt;Node4</title>
<path fill="none" stroke="midnightblue" d="M1039.83,-480.174C1061.4,-485.262 1085.99,-491.065 1107.43,-496.125"/>
<polygon fill="midnightblue" stroke="midnightblue" points="1106.82,-499.577 1117.36,-498.467 1108.43,-492.764 1106.82,-499.577"/>
</g>
<!-- Node6&#45;&gt;Node7 -->
<g id="edge12" class="edge"><title>Node6&#45;&gt;Node7</title>
<path fill="none" stroke="midnightblue" d="M1031.7,-449.849C1060.32,-439.56 1096.25,-426.64 1123.13,-416.975"/>
<polygon fill="midnightblue" stroke="midnightblue" points="1124.37,-420.25 1132.59,-413.573 1122,-413.663 1124.37,-420.25"/>
</g>
<!-- Node8 -->
<g id="node15" class="node"><title>Node8</title>
<a xlink:href="class_urho3_d_1_1_string.html#a6b405eba451da6c0f216a8649adf79aa" target="_top" xlink:title="Return the C string.">
<polygon fill="none" stroke="black" points="1097.5,-256.5 1097.5,-277.5 1226.5,-277.5 1226.5,-256.5 1097.5,-256.5"/>
<text text-anchor="middle" x="1162" y="-264.5" font-family="FreeSans" font-size="10.00">Urho3D::String::CString</text>
</a>
</g>
<!-- Node6&#45;&gt;Node8 -->
<g id="edge14" class="edge"><title>Node6&#45;&gt;Node8</title>
<path fill="none" stroke="midnightblue" d="M999.176,-449.948C1032.32,-412.712 1110.94,-324.371 1145.37,-285.687"/>
<polygon fill="midnightblue" stroke="midnightblue" points="1148.35,-287.603 1152.38,-277.806 1143.12,-282.949 1148.35,-287.603"/>
</g>
<!-- Node12&#45;&gt;Node10 -->
<g id="edge26" class="edge"><title>Node12&#45;&gt;Node10</title>
<path fill="none" stroke="midnightblue" d="M1051.55,-598.21C1061.43,-599.265 1071.69,-600.36 1081.8,-601.439"/>
<polygon fill="midnightblue" stroke="midnightblue" points="1081.52,-604.929 1091.83,-602.51 1082.26,-597.969 1081.52,-604.929"/>
</g>
<!-- Node13&#45;&gt;Node8 -->
<g id="edge36" class="edge"><title>Node13&#45;&gt;Node8</title>
<path fill="none" stroke="midnightblue" d="M1039.83,-267C1054.8,-267 1071.23,-267 1087.06,-267"/>
<polygon fill="midnightblue" stroke="midnightblue" points="1087.35,-270.5 1097.35,-267 1087.35,-263.5 1087.35,-270.5"/>
</g>
<!-- Node14 -->
<g id="node31" class="node"><title>Node14</title>
<a xlink:href="class_urho3_d_1_1_file_system.html#a1e3cbbed618e7f98ce56c5fa8de9ac43" target="_top" xlink:title="Check if a path is allowed to be accessed. If no paths are registered, all are allowed.">
<polygon fill="none" stroke="red" points="1106.5,-201 1106.5,-235 1217.5,-235 1217.5,-201 1106.5,-201"/>
<text text-anchor="start" x="1114.5" y="-222" font-family="FreeSans" font-size="10.00">Urho3D::FileSystem</text>
<text text-anchor="middle" x="1162" y="-209" font-family="FreeSans" font-size="10.00">::CheckAccess</text>
</a>
</g>
<!-- Node13&#45;&gt;Node14 -->
<g id="edge34" class="edge"><title>Node13&#45;&gt;Node14</title>
<path fill="none" stroke="midnightblue" d="M1039.83,-251.631C1057.81,-246.682 1077.89,-241.154 1096.5,-236.032"/>
<polygon fill="midnightblue" stroke="midnightblue" points="1097.65,-239.344 1106.37,-233.315 1095.8,-232.595 1097.65,-239.344"/>
</g>
<!-- Node15&#45;&gt;Node7 -->
<g id="edge40" class="edge"><title>Node15&#45;&gt;Node7</title>
<path fill="none" stroke="midnightblue" d="M1042.01,-232.062C1046.97,-234.657 1051.73,-237.621 1056,-241 1069.06,-251.324 1125.39,-342.693 1150.2,-383.483"/>
<polygon fill="midnightblue" stroke="midnightblue" points="1147.34,-385.516 1155.52,-392.25 1153.32,-381.885 1147.34,-385.516"/>
</g>
<!-- Node15&#45;&gt;Node8 -->
<g id="edge44" class="edge"><title>Node15&#45;&gt;Node8</title>
<path fill="none" stroke="midnightblue" d="M1042.28,-232.027C1066.31,-239.045 1093.73,-247.057 1116.27,-253.64"/>
<polygon fill="midnightblue" stroke="midnightblue" points="1115.35,-257.017 1125.93,-256.461 1117.31,-250.298 1115.35,-257.017"/>
</g>
<!-- Node15&#45;&gt;Node14 -->
<g id="edge42" class="edge"><title>Node15&#45;&gt;Node14</title>
<path fill="none" stroke="midnightblue" d="M1045.76,-216.041C1062.05,-216.316 1079.7,-216.613 1096.2,-216.891"/>
<polygon fill="midnightblue" stroke="midnightblue" points="1096.25,-220.392 1106.31,-217.061 1096.37,-213.393 1096.25,-220.392"/>
</g>
<!-- Node16&#45;&gt;Node5 -->
<g id="edge48" class="edge"><title>Node16&#45;&gt;Node5</title>
<path fill="none" stroke="midnightblue" d="M828.033,-228.276C848.489,-245.557 881.485,-272.451 912,-293 925.538,-302.116 941.218,-311.206 954.483,-318.501"/>
<polygon fill="midnightblue" stroke="midnightblue" points="953.191,-321.781 963.65,-323.471 956.527,-315.628 953.191,-321.781"/>
</g>
<!-- Node16&#45;&gt;Node13 -->
<g id="edge50" class="edge"><title>Node16&#45;&gt;Node13</title>
<path fill="none" stroke="midnightblue" d="M861.762,-228.106C880.442,-234.05 901.56,-240.769 920.923,-246.93"/>
<polygon fill="midnightblue" stroke="midnightblue" points="919.977,-250.302 930.567,-249.999 922.099,-243.631 919.977,-250.302"/>
</g>
<!-- Node17&#45;&gt;Node3 -->
<g id="edge54" class="edge"><title>Node17&#45;&gt;Node3</title>
<path fill="none" stroke="midnightblue" d="M265.745,-439.05C284.656,-464.87 324.577,-512.995 372,-533 488.96,-582.339 639.577,-575.235 729.7,-564.435"/>
<polygon fill="midnightblue" stroke="midnightblue" points="730.353,-567.88 739.844,-563.172 729.489,-560.934 730.353,-567.88"/>
</g>
<!-- Node17&#45;&gt;Node7 -->
<g id="edge68" class="edge"><title>Node17&#45;&gt;Node7</title>
<path fill="none" stroke="midnightblue" d="M320.766,-422C397.19,-422 526.123,-422 637,-422 637,-422 637,-422 808,-422 905.379,-422 1017.61,-414.742 1089.14,-409.198"/>
<polygon fill="midnightblue" stroke="midnightblue" points="1089.69,-412.666 1099.39,-408.394 1089.14,-405.687 1089.69,-412.666"/>
</g>
<!-- Node17&#45;&gt;Node11 -->
<g id="edge56" class="edge"><title>Node17&#45;&gt;Node11</title>
<path fill="none" stroke="midnightblue" d="M262.668,-439.02C279.294,-469.761 318.79,-534.207 372,-565 545.119,-665.184 788.878,-674.768 909.868,-672.461"/>
<polygon fill="midnightblue" stroke="midnightblue" points="910.211,-675.955 920.13,-672.231 910.054,-668.956 910.211,-675.955"/>
</g>
<!-- Node18 -->
<g id="node47" class="node"><title>Node18</title>
<a xlink:href="class_urho3_d_1_1_resource_cache.html#a5f04a4a638ce2b7d0c65576b69e39850" target="_top" xlink:title="Search resource packages for file.">
<polygon fill="none" stroke="black" points="386.5,-360 386.5,-394 519.5,-394 519.5,-360 386.5,-360"/>
<text text-anchor="start" x="394.5" y="-381" font-family="FreeSans" font-size="10.00">Urho3D::ResourceCache</text>
<text text-anchor="middle" x="453" y="-368" font-family="FreeSans" font-size="10.00">::SearchPackages</text>
</a>
</g>
<!-- Node17&#45;&gt;Node18 -->
<g id="edge58" class="edge"><title>Node17&#45;&gt;Node18</title>
<path fill="none" stroke="midnightblue" d="M320.541,-406.953C338.451,-402.903 357.967,-398.49 376.379,-394.326"/>
<polygon fill="midnightblue" stroke="midnightblue" points="377.201,-397.729 386.183,-392.109 375.657,-390.901 377.201,-397.729"/>
</g>
<!-- Node19 -->
<g id="node50" class="node"><title>Node19</title>
<a xlink:href="class_urho3_d_1_1_resource_cache.html#a60e44d787700bab6fc1ffa513e3216b7" target="_top" xlink:title="Search FileSystem for file.">
<polygon fill="none" stroke="red" points="741.5,-284 741.5,-318 874.5,-318 874.5,-284 741.5,-284"/>
<text text-anchor="start" x="749.5" y="-305" font-family="FreeSans" font-size="10.00">Urho3D::ResourceCache</text>
<text text-anchor="middle" x="808" y="-292" font-family="FreeSans" font-size="10.00">::SearchResourceDirs</text>
</a>
</g>
<!-- Node17&#45;&gt;Node19 -->
<g id="edge62" class="edge"><title>Node17&#45;&gt;Node19</title>
<path fill="none" stroke="midnightblue" d="M265.695,-404.831C284.54,-378.851 324.373,-330.515 372,-311 490.057,-262.626 641.599,-273.601 731.396,-286.754"/>
<polygon fill="midnightblue" stroke="midnightblue" points="731.087,-290.247 741.498,-288.281 732.133,-283.326 731.087,-290.247"/>
</g>
<!-- Node20 -->
<g id="node55" class="node"><title>Node20</title>
<a xlink:href="class_urho3_d_1_1_thread.html#a591d469de804a63cbcca350b84f96670" target="_top" xlink:title="Return whether is executing in the main thread.">
<polygon fill="none" stroke="red" points="372.5,-320.5 372.5,-341.5 533.5,-341.5 533.5,-320.5 372.5,-320.5"/>
<text text-anchor="middle" x="453" y="-328.5" font-family="FreeSans" font-size="10.00">Urho3D::Thread::IsMainThread</text>
</a>
</g>
<!-- Node17&#45;&gt;Node20 -->
<g id="edge70" class="edge"><title>Node17&#45;&gt;Node20</title>
<path fill="none" stroke="midnightblue" d="M277.728,-404.79C300.787,-388.792 337.309,-365.336 372,-351 377.886,-348.568 384.14,-346.381 390.461,-344.427"/>
<polygon fill="midnightblue" stroke="midnightblue" points="391.775,-347.69 400.407,-341.547 389.828,-340.967 391.775,-347.69"/>
</g>
<!-- Node21 -->
<g id="node57" class="node"><title>Node21</title>
<a xlink:href="class_urho3_d_1_1_object.html#ab8dbe9844094c04463def7df1fa650d5" target="_top" xlink:title="Return a preallocated map for event data. Used for optimization to avoid constant re&#45;allocation of ev...">
<polygon fill="none" stroke="red" points="383,-490 383,-524 523,-524 523,-490 383,-490"/>
<text text-anchor="start" x="391" y="-511" font-family="FreeSans" font-size="10.00">Urho3D::Object::GetEvent</text>
<text text-anchor="middle" x="453" y="-498" font-family="FreeSans" font-size="10.00">DataMap</text>
</a>
</g>
<!-- Node17&#45;&gt;Node21 -->
<g id="edge72" class="edge"><title>Node17&#45;&gt;Node21</title>
<path fill="none" stroke="midnightblue" d="M284.948,-439.111C308.406,-451.674 341.671,-468.635 372,-481 376.667,-482.903 381.529,-484.76 386.451,-486.551"/>
<polygon fill="midnightblue" stroke="midnightblue" points="385.361,-489.877 395.956,-489.905 387.691,-483.276 385.361,-489.877"/>
</g>
<!-- Node22 -->
<g id="node59" class="node"><title>Node22</title>
<a xlink:href="class_urho3_d_1_1_object.html#a32020dbf77c196b9777eca479e8abb36" target="_top" xlink:title="Send event to all subscribers.">
<polygon fill="none" stroke="black" points="379,-450.5 379,-471.5 527,-471.5 527,-450.5 379,-450.5"/>
<text text-anchor="middle" x="453" y="-458.5" font-family="FreeSans" font-size="10.00">Urho3D::Object::SendEvent</text>
</a>
</g>
<!-- Node17&#45;&gt;Node22 -->
<g id="edge74" class="edge"><title>Node17&#45;&gt;Node22</title>
<path fill="none" stroke="midnightblue" d="M320.541,-435.041C342.783,-439.4 367.502,-444.244 389.506,-448.556"/>
<polygon fill="midnightblue" stroke="midnightblue" points="388.92,-452.008 399.406,-450.497 390.266,-445.139 388.92,-452.008"/>
</g>
<!-- Node18&#45;&gt;Node2 -->
<g id="edge60" class="edge"><title>Node18&#45;&gt;Node2</title>
<path fill="none" stroke="midnightblue" d="M519.688,-371.201C532.801,-370.061 546.658,-368.856 560.075,-367.689"/>
<polygon fill="midnightblue" stroke="midnightblue" points="560.571,-371.159 570.23,-366.806 559.965,-364.186 560.571,-371.159"/>
</g>
<!-- Node19&#45;&gt;Node5 -->
<g id="edge64" class="edge"><title>Node19&#45;&gt;Node5</title>
<path fill="none" stroke="midnightblue" d="M874.538,-313.476C888.716,-316.134 903.686,-318.941 917.849,-321.597"/>
<polygon fill="midnightblue" stroke="midnightblue" points="917.523,-325.097 927.997,-323.499 918.813,-318.216 917.523,-325.097"/>
</g>
<!-- Node19&#45;&gt;Node13 -->
<g id="edge66" class="edge"><title>Node19&#45;&gt;Node13</title>
<path fill="none" stroke="midnightblue" d="M874.538,-288.146C888.794,-285.392 903.851,-282.483 918.084,-279.734"/>
<polygon fill="midnightblue" stroke="midnightblue" points="919.124,-283.098 928.279,-277.764 917.796,-276.225 919.124,-283.098"/>
</g>
</g>
</svg>
        <g id="navigator" transform="translate(0 0)" fill="#404254">
                <rect fill="#f2f5e9" fill-opacity="0.5" stroke="#606060" stroke-width=".5" x="0" y="0" width="60" height="60"/>
                <use id="zoomplus" xlink:href="#zoomPlus" x="17" y="9" onmousedown="handleZoom(evt,'in')"/>
                <use id="zoomminus" xlink:href="#zoomMin" x="42" y="9" onmousedown="handleZoom(evt,'out')"/>
                <use id="reset" xlink:href="#resetDef" x="30" y="36" onmousedown="handleReset()"/>
                <g id="arrowUp" xlink:href="#dirArrow" transform="translate(30 24)" onmousedown="handlePan(0,-1)">
                  <use xlink:href="#rim" fill="#404040">
                        <set attributeName="fill" to="#808080" begin="arrowUp.mouseover" end="arrowUp.mouseout"/>
                  </use>
                  <path fill="none" stroke="white" stroke-width="1.5" d="M0,-3.0v7 M-2.5,-0.5L0,-3.0L2.5,-0.5"/>
                </g>
                <g id="arrowRight" xlink:href="#dirArrow" transform="rotate(90) translate(36 -43)" onmousedown="handlePan(1,0)">
                  <use xlink:href="#rim" fill="#404040">
                        <set attributeName="fill" to="#808080" begin="arrowRight.mouseover" end="arrowRight.mouseout"/>
                  </use>
                  <path fill="none" stroke="white" stroke-width="1.5" d="M0,-3.0v7 M-2.5,-0.5L0,-3.0L2.5,-0.5"/>
                </g>
                <g id="arrowDown" xlink:href="#dirArrow" transform="rotate(180) translate(-30 -48)" onmousedown="handlePan(0,1)">
                  <use xlink:href="#rim" fill="#404040">
                        <set attributeName="fill" to="#808080" begin="arrowDown.mouseover" end="arrowDown.mouseout"/>
                  </use>
                  <path fill="none" stroke="white" stroke-width="1.5" d="M0,-3.0v7 M-2.5,-0.5L0,-3.0L2.5,-0.5"/>
                </g>
                <g id="arrowLeft" xlink:href="#dirArrow" transform="rotate(270) translate(-36 17)" onmousedown="handlePan(-1,0)">
                  <use xlink:href="#rim" fill="#404040">
                        <set attributeName="fill" to="#808080" begin="arrowLeft.mouseover" end="arrowLeft.mouseout"/>
                  </use>
                  <path fill="none" stroke="white" stroke-width="1.5" d="M0,-3.0v7 M-2.5,-0.5L0,-3.0L2.5,-0.5"/>
                </g>
        </g>
        <svg viewBox="0 0 15 15" width="100%" height="30px" preserveAspectRatio="xMaxYMin meet">
         <g id="arrow_out" transform="scale(0.3 0.3)">
          <a xlink:href="class_urho3_d_1_1_shader_variation_a521f1e28728cc83e54757f91131a8d07_cgraph_org.svg" target="_base">
           <rect id="button" ry="5" rx="5" y="6" x="6" height="38" width="38"
                fill="#f2f5e9" fill-opacity="0.5" stroke="#606060" stroke-width="1.0"/>
           <path id="arrow"
             d="M 11.500037,31.436501 C 11.940474,20.09759 22.043105,11.32322 32.158766,21.979434 L 37.068811,17.246167 C 37.068811,17.246167 37.088388,32 37.088388,32 L 22.160133,31.978069 C 22.160133,31.978069 26.997745,27.140456 26.997745,27.140456 C 18.528582,18.264221 13.291696,25.230495 11.500037,31.436501 z"
             style="fill:#404040;"/>
          </a>
         </g>
        </svg>
</svg>
