<?xml version="1.0" encoding="UTF-8" standalone="no"?>
<!DOCTYPE svg PUBLIC "-//W3C//DTD SVG 1.1//EN"
 "http://www.w3.org/Graphics/SVG/1.1/DTD/svg11.dtd">
<!-- Generated by graphviz version 2.26.3 (20100126.1600)
 -->
<!-- Title: Urho3D::FileSystem::ScanDirInternal Pages: 1 -->
<svg width="652pt" height="424pt"
 viewBox="0.00 0.00 652.00 424.00" xmlns="http://www.w3.org/2000/svg" xmlns:xlink="http://www.w3.org/1999/xlink">
<g id="graph1" class="graph" transform="scale(1 1) rotate(0) translate(4 420)">
<title>Urho3D::FileSystem::ScanDirInternal</title>
<!-- Node1 -->
<g id="node1" class="node"><title>Node1</title>
<polygon fill="#bfbfbf" stroke="black" points="0.5,-192 0.5,-226 111.5,-226 111.5,-192 0.5,-192"/>
<text text-anchor="start" x="8.5" y="-213" font-family="FreeSans" font-size="10.00">Urho3D::FileSystem</text>
<text text-anchor="middle" x="56" y="-200" font-family="FreeSans" font-size="10.00">::ScanDirInternal</text>
</g>
<!-- Node2 -->
<g id="node3" class="node"><title>Node2</title>
<a xlink:href="class_urho3_d_1_1_string.html#a11572e3c07f60de65ac5d0c1ca5b6ba3" target="_top" xlink:title="Return length.">
<polygon fill="none" stroke="black" points="331.5,-237.5 331.5,-258.5 458.5,-258.5 458.5,-237.5 331.5,-237.5"/>
<text text-anchor="middle" x="395" y="-245.5" font-family="FreeSans" font-size="10.00">Urho3D::String::Length</text>
</a>
</g>
<!-- Node1&#45;&gt;Node2 -->
<g id="edge2" class="edge"><title>Node1&#45;&gt;Node2</title>
<path fill="none" stroke="midnightblue" d="M75.1135,-226.285C92.6346,-240.879 120.034,-260.687 148,-269 217.083,-289.536 301.479,-274.219 351.593,-261.167"/>
<polygon fill="midnightblue" stroke="midnightblue" points="352.7,-264.494 361.446,-258.514 350.88,-257.735 352.7,-264.494"/>
</g>
<!-- Node3 -->
<g id="node5" class="node"><title>Node3</title>
<a xlink:href="class_urho3_d_1_1_string.html#ade8095f1798d6e1d4ed03d43d9919611" target="_top" xlink:title="Return a substring from position to end.">
<polygon fill="none" stroke="black" points="150,-316.5 150,-337.5 290,-337.5 290,-316.5 150,-316.5"/>
<text text-anchor="middle" x="220" y="-324.5" font-family="FreeSans" font-size="10.00">Urho3D::String::Substring</text>
</a>
</g>
<!-- Node1&#45;&gt;Node3 -->
<g id="edge4" class="edge"><title>Node1&#45;&gt;Node3</title>
<path fill="none" stroke="midnightblue" d="M68.8268,-226.1C85.1351,-246.751 115.148,-281.289 148,-302 154.69,-306.217 162.18,-309.828 169.733,-312.886"/>
<polygon fill="midnightblue" stroke="midnightblue" points="168.685,-316.231 179.277,-316.467 171.144,-309.677 168.685,-316.231"/>
</g>
<!-- Node4 -->
<g id="node7" class="node"><title>Node4</title>
<a xlink:href="class_urho3_d_1_1_string.html#aed2d8d23da6f2403c7aaa20082036f88" target="_top" xlink:title="Resize the string.">
<polygon fill="none" stroke="black" points="333,-355.5 333,-376.5 457,-376.5 457,-355.5 333,-355.5"/>
<text text-anchor="middle" x="395" y="-363.5" font-family="FreeSans" font-size="10.00">Urho3D::String::Resize</text>
</a>
</g>
<!-- Node1&#45;&gt;Node4 -->
<g id="edge22" class="edge"><title>Node1&#45;&gt;Node4</title>
<path fill="none" stroke="midnightblue" d="M61.7783,-226.275C72.9801,-256.728 100.79,-319.353 148,-347 200.625,-377.818 270.732,-380.326 322.809,-376.43"/>
<polygon fill="midnightblue" stroke="midnightblue" points="323.304,-379.9 332.974,-375.572 322.715,-372.925 323.304,-379.9"/>
</g>
<!-- Node7 -->
<g id="node14" class="node"><title>Node7</title>
<a xlink:href="class_urho3_d_1_1_string.html#a7cb1eb905c5e4b88d8d281455d8d0caf" target="_top" xlink:title="Return index to the first occurrence of a string, or NPOS if not found.">
<polygon fill="none" stroke="black" points="338.5,-98.5 338.5,-119.5 451.5,-119.5 451.5,-98.5 338.5,-98.5"/>
<text text-anchor="middle" x="395" y="-106.5" font-family="FreeSans" font-size="10.00">Urho3D::String::Find</text>
</a>
</g>
<!-- Node1&#45;&gt;Node7 -->
<g id="edge14" class="edge"><title>Node1&#45;&gt;Node7</title>
<path fill="none" stroke="midnightblue" d="M65.4678,-191.907C79.7593,-168.098 109.332,-125.968 148,-109 209.294,-82.1027 287.672,-88.0062 339.512,-96.7105"/>
<polygon fill="midnightblue" stroke="midnightblue" points="339.056,-100.184 349.513,-98.4798 340.276,-93.2912 339.056,-100.184"/>
</g>
<!-- Node8 -->
<g id="node16" class="node"><title>Node8</title>
<a xlink:href="class_urho3_d_1_1_string.html#a3d2477d745f6e572795b77ac69075c5d" target="_top" xlink:title="Return whether contains a specific occurrence of a string.">
<polygon fill="none" stroke="black" points="152,-238.5 152,-259.5 288,-259.5 288,-238.5 152,-238.5"/>
<text text-anchor="middle" x="220" y="-246.5" font-family="FreeSans" font-size="10.00">Urho3D::String::Contains</text>
</a>
</g>
<!-- Node1&#45;&gt;Node8 -->
<g id="edge16" class="edge"><title>Node1&#45;&gt;Node8</title>
<path fill="none" stroke="midnightblue" d="M111.523,-222.542C129.312,-226.881 148.962,-231.674 166.596,-235.975"/>
<polygon fill="midnightblue" stroke="midnightblue" points="166.172,-239.474 176.717,-238.443 167.831,-232.673 166.172,-239.474"/>
</g>
<!-- Node9 -->
<g id="node18" class="node"><title>Node9</title>
<a xlink:href="class_urho3_d_1_1_string.html#ac6f0b2fb0bce5afbeb088c7cb15abbe1" target="_top" xlink:title="Clear the string.">
<polygon fill="none" stroke="black" points="160.5,-394.5 160.5,-415.5 279.5,-415.5 279.5,-394.5 160.5,-394.5"/>
<text text-anchor="middle" x="220" y="-402.5" font-family="FreeSans" font-size="10.00">Urho3D::String::Clear</text>
</a>
</g>
<!-- Node1&#45;&gt;Node9 -->
<g id="edge18" class="edge"><title>Node1&#45;&gt;Node9</title>
<path fill="none" stroke="midnightblue" d="M60.6585,-226.238C70.7747,-260.465 97.9636,-337.365 148,-380 152.759,-384.055 158.214,-387.465 163.946,-390.329"/>
<polygon fill="midnightblue" stroke="midnightblue" points="162.56,-393.544 173.121,-394.396 165.397,-387.144 162.56,-393.544"/>
</g>
<!-- Node10 -->
<g id="node22" class="node"><title>Node10</title>
<a xlink:href="class_urho3_d_1_1_string.html#a6b405eba451da6c0f216a8649adf79aa" target="_top" xlink:title="Return the C string.">
<polygon fill="none" stroke="black" points="155.5,-158.5 155.5,-179.5 284.5,-179.5 284.5,-158.5 155.5,-158.5"/>
<text text-anchor="middle" x="220" y="-166.5" font-family="FreeSans" font-size="10.00">Urho3D::String::CString</text>
</a>
</g>
<!-- Node1&#45;&gt;Node10 -->
<g id="edge24" class="edge"><title>Node1&#45;&gt;Node10</title>
<path fill="none" stroke="midnightblue" d="M111.523,-195.458C129.312,-191.119 148.962,-186.326 166.596,-182.025"/>
<polygon fill="midnightblue" stroke="midnightblue" points="167.831,-185.327 176.717,-179.557 166.172,-178.526 167.831,-185.327"/>
</g>
<!-- Node11 -->
<g id="node24" class="node"><title>Node11</title>
<a xlink:href="class_urho3_d_1_1_string.html#a6dffd447850e4d687096a79dafe8bdac" target="_top" xlink:title="Return whether starts with a string.">
<polygon fill="none" stroke="black" points="148.5,-118.5 148.5,-139.5 291.5,-139.5 291.5,-118.5 148.5,-118.5"/>
<text text-anchor="middle" x="220" y="-126.5" font-family="FreeSans" font-size="10.00">Urho3D::String::StartsWith</text>
</a>
</g>
<!-- Node1&#45;&gt;Node11 -->
<g id="edge26" class="edge"><title>Node1&#45;&gt;Node11</title>
<path fill="none" stroke="midnightblue" d="M77.9404,-191.909C95.9127,-178.613 122.456,-160.543 148,-149 153.098,-146.696 158.522,-144.601 164.017,-142.709"/>
<polygon fill="midnightblue" stroke="midnightblue" points="165.481,-145.915 173.93,-139.524 163.339,-139.251 165.481,-145.915"/>
</g>
<!-- Node12 -->
<g id="node27" class="node"><title>Node12</title>
<a xlink:href="class_urho3_d_1_1_string.html#ab02cf1796911cde042e4e02d9574c881" target="_top" xlink:title="Return whether ends with a string.">
<polygon fill="none" stroke="black" points="151.5,-198.5 151.5,-219.5 288.5,-219.5 288.5,-198.5 151.5,-198.5"/>
<text text-anchor="middle" x="220" y="-206.5" font-family="FreeSans" font-size="10.00">Urho3D::String::EndsWith</text>
</a>
</g>
<!-- Node1&#45;&gt;Node12 -->
<g id="edge30" class="edge"><title>Node1&#45;&gt;Node12</title>
<path fill="none" stroke="midnightblue" d="M111.523,-209C121.141,-209 131.303,-209 141.396,-209"/>
<polygon fill="midnightblue" stroke="midnightblue" points="141.444,-212.5 151.444,-209 141.444,-205.5 141.444,-212.5"/>
</g>
<!-- Node14 -->
<g id="node32" class="node"><title>Node14</title>
<a xlink:href="class_urho3_d_1_1_vector.html#a083b39861b996df82f811a9a4ebff109" target="_top" xlink:title="Add an element at the end.">
<polygon fill="none" stroke="black" points="160.5,-40.5 160.5,-61.5 279.5,-61.5 279.5,-40.5 160.5,-40.5"/>
<text text-anchor="middle" x="220" y="-48.5" font-family="FreeSans" font-size="10.00">Urho3D::Vector::Push</text>
</a>
</g>
<!-- Node1&#45;&gt;Node14 -->
<g id="edge36" class="edge"><title>Node1&#45;&gt;Node14</title>
<path fill="none" stroke="midnightblue" d="M63.5487,-191.694C76.6973,-163.491 106.425,-107.601 148,-76 153.45,-71.8576 159.638,-68.3685 166.042,-65.4378"/>
<polygon fill="midnightblue" stroke="midnightblue" points="167.608,-68.5782 175.52,-61.5324 164.941,-62.1061 167.608,-68.5782"/>
</g>
<!-- Node15 -->
<g id="node34" class="node"><title>Node15</title>
<a xlink:href="class_urho3_d_1_1_string.html#a69ac7aadaa628fc05fc96abde992fcdc" target="_top" xlink:title="Return whether the string is empty.">
<polygon fill="none" stroke="black" points="157.5,-0.5 157.5,-21.5 282.5,-21.5 282.5,-0.5 157.5,-0.5"/>
<text text-anchor="middle" x="220" y="-8.5" font-family="FreeSans" font-size="10.00">Urho3D::String::Empty</text>
</a>
</g>
<!-- Node1&#45;&gt;Node15 -->
<g id="edge38" class="edge"><title>Node1&#45;&gt;Node15</title>
<path fill="none" stroke="midnightblue" d="M59.9326,-191.88C69.0047,-156.328 94.815,-74.2159 148,-31 150.07,-29.3177 152.273,-27.7767 154.572,-26.365"/>
<polygon fill="midnightblue" stroke="midnightblue" points="156.596,-29.2573 163.852,-21.5365 153.365,-23.0476 156.596,-29.2573"/>
</g>
<!-- Node3&#45;&gt;Node4 -->
<g id="edge6" class="edge"><title>Node3&#45;&gt;Node4</title>
<path fill="none" stroke="midnightblue" d="M267.358,-337.554C289.049,-342.388 314.942,-348.159 337.721,-353.235"/>
<polygon fill="midnightblue" stroke="midnightblue" points="337.083,-356.679 347.605,-355.438 338.605,-349.846 337.083,-356.679"/>
</g>
<!-- Node5 -->
<g id="node9" class="node"><title>Node5</title>
<a xlink:href="class_urho3_d_1_1_string.html#a953822d6a39e507861ee02a24bb7996e" target="_top" xlink:title="Copy chars from one buffer to another.">
<polygon fill="none" stroke="black" points="498,-335.5 498,-356.5 644,-356.5 644,-335.5 498,-335.5"/>
<text text-anchor="middle" x="571" y="-343.5" font-family="FreeSans" font-size="10.00">Urho3D::String::CopyChars</text>
</a>
</g>
<!-- Node3&#45;&gt;Node5 -->
<g id="edge10" class="edge"><title>Node3&#45;&gt;Node5</title>
<path fill="none" stroke="midnightblue" d="M290.186,-330.799C347.111,-333.881 427.494,-338.232 487.68,-341.49"/>
<polygon fill="midnightblue" stroke="midnightblue" points="487.74,-344.998 497.914,-342.044 488.118,-338.008 487.74,-344.998"/>
</g>
<!-- Node6 -->
<g id="node12" class="node"><title>Node6</title>
<a xlink:href="class_urho3_d_1_1_string.html#a6cbd21dcf8801df80b76acebc4dbbdd3" target="_top" xlink:title="Construct empty.">
<polygon fill="none" stroke="black" points="334,-277.5 334,-298.5 456,-298.5 456,-277.5 334,-277.5"/>
<text text-anchor="middle" x="395" y="-285.5" font-family="FreeSans" font-size="10.00">Urho3D::String::String</text>
</a>
</g>
<!-- Node3&#45;&gt;Node6 -->
<g id="edge12" class="edge"><title>Node3&#45;&gt;Node6</title>
<path fill="none" stroke="midnightblue" d="M267.358,-316.446C289.049,-311.612 314.942,-305.841 337.721,-300.765"/>
<polygon fill="midnightblue" stroke="midnightblue" points="338.605,-304.154 347.605,-298.562 337.083,-297.321 338.605,-304.154"/>
</g>
<!-- Node4&#45;&gt;Node5 -->
<g id="edge8" class="edge"><title>Node4&#45;&gt;Node5</title>
<path fill="none" stroke="midnightblue" d="M457.051,-358.949C466.923,-357.827 477.274,-356.651 487.541,-355.484"/>
<polygon fill="midnightblue" stroke="midnightblue" points="488.22,-358.929 497.761,-354.323 487.43,-351.974 488.22,-358.929"/>
</g>
<!-- Node9&#45;&gt;Node4 -->
<g id="edge20" class="edge"><title>Node9&#45;&gt;Node4</title>
<path fill="none" stroke="midnightblue" d="M267.358,-394.446C289.049,-389.612 314.942,-383.841 337.721,-378.765"/>
<polygon fill="midnightblue" stroke="midnightblue" points="338.605,-382.154 347.605,-376.562 337.083,-375.321 338.605,-382.154"/>
</g>
<!-- Node11&#45;&gt;Node7 -->
<g id="edge28" class="edge"><title>Node11&#45;&gt;Node7</title>
<path fill="none" stroke="midnightblue" d="M291.684,-120.808C303.852,-119.417 316.442,-117.978 328.47,-116.603"/>
<polygon fill="midnightblue" stroke="midnightblue" points="328.882,-120.079 338.419,-115.466 328.087,-113.125 328.882,-120.079"/>
</g>
<!-- Node12&#45;&gt;Node2 -->
<g id="edge34" class="edge"><title>Node12&#45;&gt;Node2</title>
<path fill="none" stroke="midnightblue" d="M267.358,-219.554C289.049,-224.388 314.942,-230.159 337.721,-235.235"/>
<polygon fill="midnightblue" stroke="midnightblue" points="337.083,-238.679 347.605,-237.438 338.605,-231.846 337.083,-238.679"/>
</g>
<!-- Node13 -->
<g id="node29" class="node"><title>Node13</title>
<a xlink:href="class_urho3_d_1_1_string.html#a51df88f180228044fb35435b2b3e1f90" target="_top" xlink:title="Return index to the last occurrence of a string, or NPOS if not found.">
<polygon fill="none" stroke="black" points="328.5,-197.5 328.5,-218.5 461.5,-218.5 461.5,-197.5 328.5,-197.5"/>
<text text-anchor="middle" x="395" y="-205.5" font-family="FreeSans" font-size="10.00">Urho3D::String::FindLast</text>
</a>
</g>
<!-- Node12&#45;&gt;Node13 -->
<g id="edge32" class="edge"><title>Node12&#45;&gt;Node13</title>
<path fill="none" stroke="midnightblue" d="M288.662,-208.608C298.328,-208.552 308.315,-208.495 318.122,-208.439"/>
<polygon fill="midnightblue" stroke="midnightblue" points="318.275,-211.939 328.255,-208.381 318.235,-204.939 318.275,-211.939"/>
</g>
</g>
</svg>
