<?xml version="1.0" encoding="UTF-8" standalone="no"?>
<!DOCTYPE svg PUBLIC "-//W3C//DTD SVG 1.1//EN"
 "http://www.w3.org/Graphics/SVG/1.1/DTD/svg11.dtd">
<!-- Generated by graphviz version 2.26.3 (20100126.1600)
 -->
<!-- Title: Urho3D::AnimatedModel::OnWorldBoundingBoxUpdate Pages: 1 -->
<svg width="572pt" height="180pt"
 viewBox="0.00 0.00 572.00 180.00" xmlns="http://www.w3.org/2000/svg" xmlns:xlink="http://www.w3.org/1999/xlink">
<g id="graph1" class="graph" transform="scale(1 1) rotate(0) translate(4 176)">
<title>Urho3D::AnimatedModel::OnWorldBoundingBoxUpdate</title>
<!-- Node1 -->
<g id="node1" class="node"><title>Node1</title>
<polygon fill="#bfbfbf" stroke="black" points="0,-72 0,-106 160,-106 160,-72 0,-72"/>
<text text-anchor="start" x="8" y="-93" font-family="FreeSans" font-size="10.00">Urho3D::AnimatedModel</text>
<text text-anchor="middle" x="80" y="-80" font-family="FreeSans" font-size="10.00">::OnWorldBoundingBoxUpdate</text>
</g>
<!-- Node2 -->
<g id="node3" class="node"><title>Node2</title>
<a xlink:href="class_urho3_d_1_1_bounding_box.html#aa75dc3b9cce0c3c6ea4e34e4f8f125c2" target="_top" xlink:title="Return transformed by a 3x3 matrix.">
<polygon fill="none" stroke="black" points="226,-138 226,-172 348,-172 348,-138 226,-138"/>
<text text-anchor="start" x="234" y="-159" font-family="FreeSans" font-size="10.00">Urho3D::BoundingBox</text>
<text text-anchor="middle" x="287" y="-146" font-family="FreeSans" font-size="10.00">::Transformed</text>
</a>
</g>
<!-- Node1&#45;&gt;Node2 -->
<g id="edge2" class="edge"><title>Node1&#45;&gt;Node2</title>
<path fill="none" stroke="midnightblue" d="M127.499,-106.024C148.419,-113.355 173.345,-121.863 196,-129 202.423,-131.023 209.122,-133.065 215.843,-135.068"/>
<polygon fill="midnightblue" stroke="midnightblue" points="215.096,-138.497 225.678,-137.967 217.076,-131.782 215.096,-138.497"/>
</g>
<!-- Node3 -->
<g id="node5" class="node"><title>Node3</title>
<a xlink:href="class_urho3_d_1_1_node.html#acbf5c9951a685acdbe75d1d39eeb7045" target="_top" xlink:title="Return world space transform matrix.">
<polygon fill="none" stroke="black" points="196.5,-98.5 196.5,-119.5 377.5,-119.5 377.5,-98.5 196.5,-98.5"/>
<text text-anchor="middle" x="287" y="-106.5" font-family="FreeSans" font-size="10.00">Urho3D::Node::GetWorldTransform</text>
</a>
</g>
<!-- Node1&#45;&gt;Node3 -->
<g id="edge4" class="edge"><title>Node1&#45;&gt;Node3</title>
<path fill="none" stroke="midnightblue" d="M160.032,-96.7325C168.536,-97.5542 177.263,-98.3974 185.967,-99.2384"/>
<polygon fill="midnightblue" stroke="midnightblue" points="185.869,-102.745 196.16,-100.223 186.543,-95.7776 185.869,-102.745"/>
</g>
<!-- Node4 -->
<g id="node7" class="node"><title>Node4</title>
<a xlink:href="class_urho3_d_1_1_node.html#a96978345db2ceb1a473bb43f0024dbe7" target="_top" xlink:title="Return component by type. If there are several, returns the first.">
<polygon fill="none" stroke="black" points="205,-58.5 205,-79.5 369,-79.5 369,-58.5 205,-58.5"/>
<text text-anchor="middle" x="287" y="-66.5" font-family="FreeSans" font-size="10.00">Urho3D::Node::GetComponent</text>
</a>
</g>
<!-- Node1&#45;&gt;Node4 -->
<g id="edge6" class="edge"><title>Node1&#45;&gt;Node4</title>
<path fill="none" stroke="midnightblue" d="M160.032,-81.2675C171.383,-80.1708 183.131,-79.0356 194.692,-77.9187"/>
<polygon fill="midnightblue" stroke="midnightblue" points="195.17,-81.3888 204.787,-76.9432 194.497,-74.4213 195.17,-81.3888"/>
</g>
<!-- Node6 -->
<g id="node12" class="node"><title>Node6</title>
<a xlink:href="class_urho3_d_1_1_drawable.html#a3930dc9342c0aefcfd4c94eb8079e365" target="_top" xlink:title="Return world&#45;space bounding box.">
<polygon fill="none" stroke="black" points="211,-3 211,-37 363,-37 363,-3 211,-3"/>
<text text-anchor="start" x="219" y="-24" font-family="FreeSans" font-size="10.00">Urho3D::Drawable::GetWorld</text>
<text text-anchor="middle" x="287" y="-11" font-family="FreeSans" font-size="10.00">BoundingBox</text>
</a>
</g>
<!-- Node1&#45;&gt;Node6 -->
<g id="edge12" class="edge"><title>Node1&#45;&gt;Node6</title>
<path fill="none" stroke="midnightblue" d="M128.735,-71.9094C149.437,-64.7236 173.86,-56.3439 196,-49 204.668,-46.1247 213.819,-43.1442 222.843,-40.237"/>
<polygon fill="midnightblue" stroke="midnightblue" points="224.105,-43.508 232.557,-37.1195 221.966,-36.8428 224.105,-43.508"/>
</g>
<!-- Node5 -->
<g id="node9" class="node"><title>Node5</title>
<a xlink:href="class_urho3_d_1_1_component.html#ad08f2476047f1bab081256374710431d" target="_top" xlink:title="Return component in the same scene node by type. If there are several, returns the first...">
<polygon fill="none" stroke="black" points="428,-52 428,-86 550,-86 550,-52 428,-52"/>
<text text-anchor="start" x="436" y="-73" font-family="FreeSans" font-size="10.00">Urho3D::Component::</text>
<text text-anchor="middle" x="489" y="-60" font-family="FreeSans" font-size="10.00">GetComponent</text>
</a>
</g>
<!-- Node4&#45;&gt;Node5 -->
<g id="edge8" class="edge"><title>Node4&#45;&gt;Node5</title>
<path fill="none" stroke="midnightblue" d="M369.161,-62.3555C385.289,-62.173 402.082,-62.2273 417.815,-62.5185"/>
<polygon fill="midnightblue" stroke="midnightblue" points="417.907,-66.0213 427.982,-62.7439 418.062,-59.023 417.907,-66.0213"/>
</g>
<!-- Node5&#45;&gt;Node4 -->
<g id="edge10" class="edge"><title>Node5&#45;&gt;Node4</title>
<path fill="none" stroke="midnightblue" d="M427.982,-75.2561C412.652,-75.6548 395.857,-75.8121 379.371,-75.7281"/>
<polygon fill="midnightblue" stroke="midnightblue" points="379.189,-72.2266 369.161,-75.6445 379.132,-79.2263 379.189,-72.2266"/>
</g>
<!-- Node7 -->
<g id="node14" class="node"><title>Node7</title>
<a xlink:href="class_urho3_d_1_1_drawable.html#af146747caaf6fd85ab71fda4e364bde4" target="_top" xlink:title="Recalculate the world&#45;space bounding box.">
<polygon fill="none" stroke="black" points="414.5,-0 414.5,-34 563.5,-34 563.5,-0 414.5,-0"/>
<text text-anchor="start" x="422.5" y="-21" font-family="FreeSans" font-size="10.00">Urho3D::Drawable::OnWorld</text>
<text text-anchor="middle" x="489" y="-8" font-family="FreeSans" font-size="10.00">BoundingBoxUpdate</text>
</a>
</g>
<!-- Node6&#45;&gt;Node7 -->
<g id="edge14" class="edge"><title>Node6&#45;&gt;Node7</title>
<path fill="none" stroke="midnightblue" d="M363.08,-18.8701C376.448,-18.6716 390.437,-18.4638 404.029,-18.2619"/>
<polygon fill="midnightblue" stroke="midnightblue" points="404.382,-21.7572 414.329,-18.109 404.278,-14.758 404.382,-21.7572"/>
</g>
</g>
</svg>
