<?xml version="1.0" encoding="UTF-8" standalone="no"?>
<!DOCTYPE svg PUBLIC "-//W3C//DTD SVG 1.1//EN"
 "http://www.w3.org/Graphics/SVG/1.1/DTD/svg11.dtd">
<!-- Generated by graphviz version 2.26.3 (20100126.1600)
 -->
<!-- Title: Urho3D::AttributeAnimationInfo Pages: 1 -->
<!--zoomable 740 -->
<svg id="main" version="1.1" xmlns="http://www.w3.org/2000/svg" xmlns:xlink="http://www.w3.org/1999/xlink" xml:space="preserve" onload="init(evt)">
        <defs>
                <circle id="rim" cx="0" cy="0" r="7"/>
                <circle id="rim2" cx="0" cy="0" r="3.5"/>
                <g id="zoomPlus">
                        <use xlink:href="#rim" fill="#404040">
                                <set attributeName="fill" to="#808080" begin="zoomplus.mouseover" end="zoomplus.mouseout"/>
                        </use>
                        <path d="M-4,0h8M0,-4v8" fill="none" stroke="white" stroke-width="1.5" pointer-events="none"/>
                </g>
                <g id="zoomMin">
                        <use xlink:href="#rim" fill="#404040">
                                <set attributeName="fill" to="#808080" begin="zoomminus.mouseover" end="zoomminus.mouseout"/>
                        </use>
                        <path d="M-4,0h8" fill="none" stroke="white" stroke-width="1.5" pointer-events="none"/>
                </g>
                <g id="dirArrow">
                        <path fill="none" stroke="white" stroke-width="1.5" d="M0,-3.0v7 M-2.5,-0.5L0,-3.0L2.5,-0.5"/>
                </g>
               <g id="resetDef">
                       <use xlink:href="#rim2" fill="#404040">
                               <set attributeName="fill" to="#808080" begin="reset.mouseover" end="reset.mouseout"/>
                       </use>
               </g>
        </defs>

<script type="text/javascript">
var viewWidth = 1998;
var viewHeight = 740;
var sectionId = 'dynsection-1';
</script>
<script xlink:href="svgpan.js"/>
<svg id="graph" class="graph">
<g id="viewport">
<title>Urho3D::AttributeAnimationInfo</title>
<!-- Node1 -->
<g id="node1" class="node"><title>Node1</title>
<polygon fill="#bfbfbf" stroke="black" points="1822.5,-470.66 1822.5,-491.66 1989.5,-491.66 1989.5,-470.66 1822.5,-470.66"/>
<text text-anchor="middle" x="1906" y="-478.66" font-family="FreeSans" font-size="10.00">Urho3D::AttributeAnimationInfo</text>
</g>
<!-- Node2 -->
<g id="node2" class="node"><title>Node2</title>
<a xlink:href="class_urho3_d_1_1_value_animation_info.html" target="_top" xlink:title="Base class for a value animation instance, which includes animation runtime information and updates t...">
<polygon fill="none" stroke="black" points="1632,-511.66 1632,-532.66 1784,-532.66 1784,-511.66 1632,-511.66"/>
<text text-anchor="middle" x="1708" y="-519.66" font-family="FreeSans" font-size="10.00">Urho3D::ValueAnimationInfo</text>
</a>
</g>
<!-- Node2&#45;&gt;Node1 -->
<g id="edge2" class="edge"><title>Node2&#45;&gt;Node1</title>
<path fill="none" stroke="midnightblue" d="M1768.69,-509.594C1796.33,-503.868 1828.69,-497.167 1855.06,-491.709"/>
<polygon fill="midnightblue" stroke="midnightblue" points="1767.82,-506.199 1758.73,-511.654 1769.23,-513.054 1767.82,-506.199"/>
</g>
<!-- Node3 -->
<g id="node4" class="node"><title>Node3</title>
<a xlink:href="class_urho3_d_1_1_ref_counted.html" target="_top" xlink:title="Base class for intrusively reference&#45;counted objects. These are noncopyable and non&#45;assignable.">
<polygon fill="none" stroke="black" points="188,-571.66 188,-592.66 302,-592.66 302,-571.66 188,-571.66"/>
<text text-anchor="middle" x="245" y="-579.66" font-family="FreeSans" font-size="10.00">Urho3D::RefCounted</text>
</a>
</g>
<!-- Node3&#45;&gt;Node2 -->
<g id="edge4" class="edge"><title>Node3&#45;&gt;Node2</title>
<path fill="none" stroke="midnightblue" d="M282.652,-568.235C316.326,-557.036 367.277,-543.16 413,-543.16 413,-543.16 413,-543.16 1463,-543.16 1519.78,-543.16 1583.69,-537.492 1632,-532.045"/>
<polygon fill="midnightblue" stroke="midnightblue" points="281.113,-565.062 272.781,-571.606 283.375,-571.686 281.113,-565.062"/>
</g>
<!-- Node6 -->
<g id="node10" class="node"><title>Node6</title>
<a xlink:href="class_urho3_d_1_1_object.html" target="_top" xlink:title="Base class for objects with type identification, subsystem access and event sending/receiving capabil...">
<polygon fill="none" stroke="black" points="668,-610.66 668,-631.66 758,-631.66 758,-610.66 668,-610.66"/>
<text text-anchor="middle" x="713" y="-618.66" font-family="FreeSans" font-size="10.00">Urho3D::Object</text>
</a>
</g>
<!-- Node3&#45;&gt;Node6 -->
<g id="edge12" class="edge"><title>Node3&#45;&gt;Node6</title>
<path fill="none" stroke="midnightblue" d="M261.677,-600.348C279.194,-617.985 308.53,-643.582 340,-654.16 470.695,-698.091 514.797,-669.2 650,-642.16 662.097,-639.74 675.087,-635.675 686.111,-631.762"/>
<polygon fill="midnightblue" stroke="midnightblue" points="263.951,-597.665 254.495,-592.888 258.908,-602.519 263.951,-597.665"/>
</g>
<!-- Node7 -->
<g id="node13" class="node"><title>Node7</title>
<a xlink:href="class_urho3_d_1_1_context.html" target="_top" xlink:title="Urho3D execution context. Provides access to subsystems, object factories and attributes, and event receivers.">
<polygon fill="none" stroke="red" points="364.5,-571.66 364.5,-592.66 461.5,-592.66 461.5,-571.66 364.5,-571.66"/>
<text text-anchor="middle" x="413" y="-579.66" font-family="FreeSans" font-size="10.00">Urho3D::Context</text>
</a>
</g>
<!-- Node3&#45;&gt;Node7 -->
<g id="edge16" class="edge"><title>Node3&#45;&gt;Node7</title>
<path fill="none" stroke="midnightblue" d="M312.425,-582.16C329.777,-582.16 348.111,-582.16 364.305,-582.16"/>
<polygon fill="midnightblue" stroke="midnightblue" points="312.346,-578.66 302.346,-582.16 312.346,-585.66 312.346,-578.66"/>
</g>
<!-- Node25 -->
<g id="node55" class="node"><title>Node25</title>
<a xlink:href="class_urho3_d_1_1_attribute_accessor.html" target="_top" xlink:title="Abstract base class for invoking attribute accessors.">
<polygon fill="none" stroke="black" points="504.5,-254.66 504.5,-275.66 649.5,-275.66 649.5,-254.66 504.5,-254.66"/>
<text text-anchor="middle" x="577" y="-262.66" font-family="FreeSans" font-size="10.00">Urho3D::AttributeAccessor</text>
</a>
</g>
<!-- Node3&#45;&gt;Node25 -->
<g id="edge64" class="edge"><title>Node3&#45;&gt;Node25</title>
<path fill="none" stroke="midnightblue" d="M263.41,-564.582C324.212,-506.527 517.481,-321.989 565.912,-275.746"/>
<polygon fill="midnightblue" stroke="midnightblue" points="260.862,-562.175 256.046,-571.613 265.696,-567.238 260.862,-562.175"/>
</g>
<!-- Node4 -->
<g id="node6" class="node"><title>Node4</title>
<a xlink:href="struct_urho3_d_1_1_ref_count.html" target="_top" xlink:title="Reference count structure.">
<polygon fill="none" stroke="black" points="0,-667.66 0,-688.66 102,-688.66 102,-667.66 0,-667.66"/>
<text text-anchor="middle" x="51" y="-675.66" font-family="FreeSans" font-size="10.00">Urho3D::RefCount</text>
</a>
</g>
<!-- Node4&#45;&gt;Node3 -->
<g id="edge6" class="edge"><title>Node4&#45;&gt;Node3</title>
<path fill="none" stroke="#9a32cd" stroke-dasharray="5,2" d="M81.9455,-662.846C121.614,-643.217 189.357,-609.694 223.697,-592.702"/>
<polygon fill="#9a32cd" stroke="#9a32cd" points="79.913,-659.947 72.5026,-667.519 83.0176,-666.221 79.913,-659.947"/>
<text text-anchor="middle" x="145" y="-645.16" font-family="FreeSans" font-size="10.00"> refCount_</text>
</g>
<!-- Node5 -->
<g id="node8" class="node"><title>Node5</title>
<a xlink:href="class_urho3_d_1_1_weak_ptr.html" target="_top" xlink:title="Urho3D::WeakPtr\&lt; Urho3D\l::Object \&gt;">
<polygon fill="none" stroke="black" points="832,-604.16 832,-638.16 978,-638.16 978,-604.16 832,-604.16"/>
<text text-anchor="start" x="840" y="-625.16" font-family="FreeSans" font-size="10.00">Urho3D::WeakPtr&lt; Urho3D</text>
<text text-anchor="middle" x="905" y="-612.16" font-family="FreeSans" font-size="10.00">::Object &gt;</text>
</a>
</g>
<!-- Node4&#45;&gt;Node5 -->
<g id="edge20" class="edge"><title>Node4&#45;&gt;Node5</title>
<path fill="none" stroke="#9a32cd" stroke-dasharray="5,2" d="M91.3713,-691.818C130.253,-703.744 190.963,-719.16 245,-719.16 245,-719.16 245,-719.16 713,-719.16 783.358,-719.16 853.924,-666.308 886.449,-638.23"/>
<polygon fill="#9a32cd" stroke="#9a32cd" points="92.08,-688.373 81.4908,-688.718 89.9844,-695.052 92.08,-688.373"/>
<text text-anchor="middle" x="413" y="-723.16" font-family="FreeSans" font-size="10.00"> refCount_</text>
</g>
<!-- Node5&#45;&gt;Node2 -->
<g id="edge8" class="edge"><title>Node5&#45;&gt;Node2</title>
<path fill="none" stroke="#9a32cd" stroke-dasharray="5,2" d="M988.373,-620.778C1122.04,-618.579 1391.85,-607.592 1614,-557.16 1638.96,-551.493 1666.25,-540.793 1684.96,-532.71"/>
<polygon fill="#9a32cd" stroke="#9a32cd" points="988.152,-617.281 978.206,-620.933 988.258,-624.28 988.152,-617.281"/>
<text text-anchor="middle" x="1336" y="-607.16" font-family="FreeSans" font-size="10.00"> target_</text>
</g>
<!-- Node6&#45;&gt;Node5 -->
<g id="edge10" class="edge"><title>Node6&#45;&gt;Node5</title>
<path fill="none" stroke="#9a32cd" stroke-dasharray="5,2" d="M768.096,-621.16C787.916,-621.16 810.598,-621.16 831.722,-621.16"/>
<polygon fill="#9a32cd" stroke="#9a32cd" points="768.016,-617.66 758.015,-621.16 768.015,-624.66 768.016,-617.66"/>
<text text-anchor="middle" x="795" y="-625.16" font-family="FreeSans" font-size="10.00"> ptr_</text>
</g>
<!-- Node11 -->
<g id="node23" class="node"><title>Node11</title>
<a xlink:href="class_urho3_d_1_1_resource.html" target="_top" xlink:title="Base class for resources.">
<polygon fill="none" stroke="red" points="853.5,-493.66 853.5,-514.66 956.5,-514.66 956.5,-493.66 853.5,-493.66"/>
<text text-anchor="middle" x="905" y="-501.66" font-family="FreeSans" font-size="10.00">Urho3D::Resource</text>
</a>
</g>
<!-- Node6&#45;&gt;Node11 -->
<g id="edge28" class="edge"><title>Node6&#45;&gt;Node11</title>
<path fill="none" stroke="midnightblue" d="M738.993,-605.32C778.751,-581.092 853.616,-535.472 887.524,-514.809"/>
<polygon fill="midnightblue" stroke="midnightblue" points="737.095,-602.378 730.377,-610.57 740.738,-608.355 737.095,-602.378"/>
</g>
<!-- Node7&#45;&gt;Node6 -->
<g id="edge14" class="edge"><title>Node7&#45;&gt;Node6</title>
<path fill="none" stroke="#9a32cd" stroke-dasharray="5,2" d="M472.099,-585.394C520.25,-588.628 589.865,-594.668 650,-605.16 658.338,-606.614 667.197,-608.59 675.557,-610.656"/>
<polygon fill="#9a32cd" stroke="#9a32cd" points="472.065,-581.884 461.858,-584.727 471.61,-588.869 472.065,-581.884"/>
<text text-anchor="middle" x="577" y="-609.16" font-family="FreeSans" font-size="10.00"> context_</text>
</g>
<!-- Node8 -->
<g id="node16" class="node"><title>Node8</title>
<a xlink:href="class_urho3_d_1_1_linked_list.html" target="_top" xlink:title="Urho3D::LinkedList\l\&lt; Urho3D::EventHandler \&gt;">
<polygon fill="none" stroke="red" points="340,-611.16 340,-645.16 486,-645.16 486,-611.16 340,-611.16"/>
<text text-anchor="start" x="348" y="-632.16" font-family="FreeSans" font-size="10.00">Urho3D::LinkedList</text>
<text text-anchor="middle" x="413" y="-619.16" font-family="FreeSans" font-size="10.00">&lt; Urho3D::EventHandler &gt;</text>
</a>
</g>
<!-- Node8&#45;&gt;Node6 -->
<g id="edge18" class="edge"><title>Node8&#45;&gt;Node6</title>
<path fill="none" stroke="#9a32cd" stroke-dasharray="5,2" d="M496.172,-626.219C551.628,-624.925 622.402,-623.274 667.722,-622.216"/>
<polygon fill="#9a32cd" stroke="#9a32cd" points="495.92,-622.724 486.005,-626.456 496.084,-629.722 495.92,-622.724"/>
<text text-anchor="middle" x="577" y="-629.16" font-family="FreeSans" font-size="10.00"> eventHandlers_</text>
</g>
<!-- Node9 -->
<g id="node19" class="node"><title>Node9</title>
<a xlink:href="class_urho3_d_1_1_shared_ptr.html" target="_top" xlink:title="Urho3D::SharedPtr\&lt;\l Urho3D::ValueAnimation \&gt;">
<polygon fill="none" stroke="black" points="1388.5,-461.16 1388.5,-495.16 1537.5,-495.16 1537.5,-461.16 1388.5,-461.16"/>
<text text-anchor="start" x="1396.5" y="-482.16" font-family="FreeSans" font-size="10.00">Urho3D::SharedPtr&lt;</text>
<text text-anchor="middle" x="1463" y="-469.16" font-family="FreeSans" font-size="10.00"> Urho3D::ValueAnimation &gt;</text>
</a>
</g>
<!-- Node9&#45;&gt;Node2 -->
<g id="edge22" class="edge"><title>Node9&#45;&gt;Node2</title>
<path fill="none" stroke="#9a32cd" stroke-dasharray="5,2" d="M1547.76,-493.382C1581.28,-499.402 1618.98,-506.173 1649.39,-511.634"/>
<polygon fill="#9a32cd" stroke="#9a32cd" points="1547.97,-489.863 1537.51,-491.54 1546.73,-496.753 1547.97,-489.863"/>
<text text-anchor="middle" x="1585" y="-508.16" font-family="FreeSans" font-size="10.00"> animation_</text>
</g>
<!-- Node10 -->
<g id="node21" class="node"><title>Node10</title>
<a xlink:href="class_urho3_d_1_1_value_animation.html" target="_top" xlink:title="Value animation class.">
<polygon fill="none" stroke="black" points="1137,-447.66 1137,-468.66 1271,-468.66 1271,-447.66 1137,-447.66"/>
<text text-anchor="middle" x="1204" y="-455.66" font-family="FreeSans" font-size="10.00">Urho3D::ValueAnimation</text>
</a>
</g>
<!-- Node10&#45;&gt;Node9 -->
<g id="edge24" class="edge"><title>Node10&#45;&gt;Node9</title>
<path fill="none" stroke="#9a32cd" stroke-dasharray="5,2" d="M1281.36,-464.134C1315.27,-466.752 1354.91,-469.813 1388.49,-472.406"/>
<polygon fill="#9a32cd" stroke="#9a32cd" points="1281.28,-460.617 1271.04,-463.336 1280.74,-467.596 1281.28,-460.617"/>
<text text-anchor="middle" x="1336" y="-475.16" font-family="FreeSans" font-size="10.00"> ptr_</text>
</g>
<!-- Node11&#45;&gt;Node10 -->
<g id="edge26" class="edge"><title>Node11&#45;&gt;Node10</title>
<path fill="none" stroke="midnightblue" d="M966.783,-495.709C1006.58,-490.152 1059.39,-482.563 1106,-475.16 1118.62,-473.155 1132.13,-470.889 1144.97,-468.68"/>
<polygon fill="midnightblue" stroke="midnightblue" points="966.122,-492.268 956.7,-497.113 967.087,-499.201 966.122,-492.268"/>
</g>
<!-- Node12 -->
<g id="node26" class="node"><title>Node12</title>
<a xlink:href="class_urho3_d_1_1_string.html" target="_top" xlink:title="String class.">
<polygon fill="none" stroke="black" points="669,-189.66 669,-210.66 757,-210.66 757,-189.66 669,-189.66"/>
<text text-anchor="middle" x="713" y="-197.66" font-family="FreeSans" font-size="10.00">Urho3D::String</text>
</a>
</g>
<!-- Node12&#45;&gt;Node11 -->
<g id="edge30" class="edge"><title>Node12&#45;&gt;Node11</title>
<path fill="none" stroke="#9a32cd" stroke-dasharray="5,2" d="M715.487,-220.902C722.894,-273.282 749.676,-411.853 832,-484.16 838.121,-489.536 845.559,-493.482 853.317,-496.374"/>
<polygon fill="#9a32cd" stroke="#9a32cd" points="718.936,-220.28 714.156,-210.824 711.996,-221.197 718.936,-220.28"/>
<text text-anchor="middle" x="795" y="-465.16" font-family="FreeSans" font-size="10.00"> name_</text>
</g>
<!-- Node12&#45;&gt;Node12 -->
<g id="edge32" class="edge"><title>Node12&#45;&gt;Node12</title>
<path fill="none" stroke="#9a32cd" stroke-dasharray="5,2" d="M697.983,-220.953C699.308,-225.689 704.314,-229.16 713,-229.16 727.254,-229.16 731.597,-219.813 726.029,-210.868"/>
<polygon fill="#9a32cd" stroke="#9a32cd" points="701.471,-221.356 699.971,-210.868 694.603,-220.002 701.471,-221.356"/>
<text text-anchor="middle" x="713" y="-233.16" font-family="FreeSans" font-size="10.00"> EMPTY</text>
</g>
<!-- Node16 -->
<g id="node35" class="node"><title>Node16</title>
<a xlink:href="struct_urho3_d_1_1_attribute_info.html" target="_top" xlink:title="Description of an automatically serializable variable.">
<polygon fill="none" stroke="black" points="1403.5,-98.6597 1403.5,-119.66 1522.5,-119.66 1522.5,-98.6597 1403.5,-98.6597"/>
<text text-anchor="middle" x="1463" y="-106.66" font-family="FreeSans" font-size="10.00">Urho3D::AttributeInfo</text>
</a>
</g>
<!-- Node12&#45;&gt;Node16 -->
<g id="edge66" class="edge"><title>Node12&#45;&gt;Node16</title>
<path fill="none" stroke="#9a32cd" stroke-dasharray="5,2" d="M725.786,-181.246C745.12,-154.543 784.611,-106.953 832,-88.1597 934.654,-47.4496 1266.64,-83.8365 1403.34,-101.174"/>
<polygon fill="#9a32cd" stroke="#9a32cd" points="722.919,-179.239 720.02,-189.429 728.641,-183.271 722.919,-179.239"/>
<text text-anchor="middle" x="1051" y="-77.1597" font-family="FreeSans" font-size="10.00"> name_</text>
</g>
<!-- Node20 -->
<g id="node44" class="node"><title>Node20</title>
<a xlink:href="struct_urho3_d_1_1_resource_ref.html" target="_top" xlink:title="Typed resource reference.">
<polygon fill="none" stroke="red" points="846.5,-189.66 846.5,-210.66 963.5,-210.66 963.5,-189.66 846.5,-189.66"/>
<text text-anchor="middle" x="905" y="-197.66" font-family="FreeSans" font-size="10.00">Urho3D::ResourceRef</text>
</a>
</g>
<!-- Node12&#45;&gt;Node20 -->
<g id="edge52" class="edge"><title>Node12&#45;&gt;Node20</title>
<path fill="none" stroke="#9a32cd" stroke-dasharray="5,2" d="M767.3,-200.16C791.926,-200.16 821.096,-200.16 846.235,-200.16"/>
<polygon fill="#9a32cd" stroke="#9a32cd" points="767.049,-196.66 757.049,-200.16 767.049,-203.66 767.049,-196.66"/>
<text text-anchor="middle" x="795" y="-204.16" font-family="FreeSans" font-size="10.00"> name_</text>
</g>
<!-- Node13 -->
<g id="node29" class="node"><title>Node13</title>
<a xlink:href="class_urho3_d_1_1_vector.html" target="_top" xlink:title="Urho3D::Vector\&lt; Urho3D\l::VAnimEventFrame \&gt;">
<polygon fill="none" stroke="red" points="836,-441.16 836,-475.16 974,-475.16 974,-441.16 836,-441.16"/>
<text text-anchor="start" x="844" y="-462.16" font-family="FreeSans" font-size="10.00">Urho3D::Vector&lt; Urho3D</text>
<text text-anchor="middle" x="905" y="-449.16" font-family="FreeSans" font-size="10.00">::VAnimEventFrame &gt;</text>
</a>
</g>
<!-- Node13&#45;&gt;Node10 -->
<g id="edge34" class="edge"><title>Node13&#45;&gt;Node10</title>
<path fill="none" stroke="#9a32cd" stroke-dasharray="5,2" d="M984.595,-458.16C1032.09,-458.16 1091.72,-458.16 1136.83,-458.16"/>
<polygon fill="#9a32cd" stroke="#9a32cd" points="984.348,-454.66 974.348,-458.16 984.348,-461.66 984.348,-454.66"/>
<text text-anchor="middle" x="1051" y="-462.16" font-family="FreeSans" font-size="10.00"> eventFrames_</text>
</g>
<!-- Node14 -->
<g id="node31" class="node"><title>Node14</title>
<a xlink:href="class_urho3_d_1_1_vector.html" target="_top" xlink:title="Urho3D::Vector\&lt; Variant \&gt;">
<polygon fill="none" stroke="red" points="832,-401.66 832,-422.66 978,-422.66 978,-401.66 832,-401.66"/>
<text text-anchor="middle" x="905" y="-409.66" font-family="FreeSans" font-size="10.00">Urho3D::Vector&lt; Variant &gt;</text>
</a>
</g>
<!-- Node14&#45;&gt;Node10 -->
<g id="edge36" class="edge"><title>Node14&#45;&gt;Node10</title>
<path fill="none" stroke="#9a32cd" stroke-dasharray="5,2" d="M988.147,-423.614C1024.38,-428.746 1067.33,-435.017 1106,-441.16 1118.62,-443.164 1132.13,-445.43 1144.97,-447.639"/>
<polygon fill="#9a32cd" stroke="#9a32cd" points="988.505,-420.13 978.114,-422.198 987.527,-427.062 988.505,-420.13"/>
<text text-anchor="middle" x="1051" y="-445.16" font-family="FreeSans" font-size="10.00"> splineTangents_</text>
</g>
<!-- Node15 -->
<g id="node33" class="node"><title>Node15</title>
<a xlink:href="class_urho3_d_1_1_vector.html" target="_top" xlink:title="Urho3D::Vector\&lt; Urho3D\l::VAnimKeyFrame \&gt;">
<polygon fill="none" stroke="red" points="836,-349.16 836,-383.16 974,-383.16 974,-349.16 836,-349.16"/>
<text text-anchor="start" x="844" y="-370.16" font-family="FreeSans" font-size="10.00">Urho3D::Vector&lt; Urho3D</text>
<text text-anchor="middle" x="905" y="-357.16" font-family="FreeSans" font-size="10.00">::VAnimKeyFrame &gt;</text>
</a>
</g>
<!-- Node15&#45;&gt;Node10 -->
<g id="edge38" class="edge"><title>Node15&#45;&gt;Node10</title>
<path fill="none" stroke="#9a32cd" stroke-dasharray="5,2" d="M984.035,-377.669C1021.62,-384.401 1066.8,-394.343 1106,-408.16 1135.54,-418.573 1167.45,-436.164 1186.57,-447.463"/>
<polygon fill="#9a32cd" stroke="#9a32cd" points="984.604,-374.215 974.15,-375.941 983.398,-381.111 984.604,-374.215"/>
<text text-anchor="middle" x="1051" y="-412.16" font-family="FreeSans" font-size="10.00"> keyFrames_</text>
</g>
<!-- Node16&#45;&gt;Node1 -->
<g id="edge40" class="edge"><title>Node16&#45;&gt;Node1</title>
<path fill="none" stroke="#9a32cd" stroke-dasharray="5,2" d="M1483.85,-126.671C1561.29,-191.694 1831.04,-418.21 1893.17,-470.384"/>
<polygon fill="#9a32cd" stroke="#9a32cd" points="1485.69,-123.642 1475.78,-119.892 1481.19,-129.003 1485.69,-123.642"/>
<text text-anchor="middle" x="1708" y="-382.16" font-family="FreeSans" font-size="10.00"> attributeInfo_</text>
</g>
<!-- Node17 -->
<g id="node37" class="node"><title>Node17</title>
<a xlink:href="class_urho3_d_1_1_variant.html" target="_top" xlink:title="Variable that supports a fixed set of types.">
<polygon fill="none" stroke="black" points="1157.5,-184.66 1157.5,-205.66 1250.5,-205.66 1250.5,-184.66 1157.5,-184.66"/>
<text text-anchor="middle" x="1204" y="-192.66" font-family="FreeSans" font-size="10.00">Urho3D::Variant</text>
</a>
</g>
<!-- Node17&#45;&gt;Node16 -->
<g id="edge42" class="edge"><title>Node17&#45;&gt;Node16</title>
<path fill="none" stroke="#9a32cd" stroke-dasharray="5,2" d="M1245.27,-181.455C1296.88,-164.319 1384.13,-135.347 1430.98,-119.791"/>
<polygon fill="#9a32cd" stroke="#9a32cd" points="1244.15,-178.141 1235.76,-184.614 1246.35,-184.785 1244.15,-178.141"/>
<text text-anchor="middle" x="1336" y="-167.16" font-family="FreeSans" font-size="10.00"> defaultValue_</text>
</g>
<!-- Node17&#45;&gt;Node17 -->
<g id="edge48" class="edge"><title>Node17&#45;&gt;Node17</title>
<path fill="none" stroke="#9a32cd" stroke-dasharray="5,2" d="M1179.67,-215.586C1181.55,-220.509 1189.66,-224.16 1204,-224.16 1226.95,-224.16 1233.94,-214.813 1224.97,-205.868"/>
<polygon fill="#9a32cd" stroke="#9a32cd" points="1183.07,-216.462 1183.03,-205.868 1176.46,-214.179 1183.07,-216.462"/>
<text text-anchor="middle" x="1204" y="-228.16" font-family="FreeSans" font-size="10.00"> EMPTY</text>
</g>
<!-- Node18 -->
<g id="node39" class="node"><title>Node18</title>
<a xlink:href="class_urho3_d_1_1_vector.html" target="_top" xlink:title="Vector template class.">
<polygon fill="none" stroke="red" points="846,-229.66 846,-250.66 964,-250.66 964,-229.66 846,-229.66"/>
<text text-anchor="middle" x="905" y="-237.66" font-family="FreeSans" font-size="10.00">Urho3D::Vector&lt; T &gt;</text>
</a>
</g>
<!-- Node18&#45;&gt;Node17 -->
<g id="edge44" class="edge"><title>Node18&#45;&gt;Node17</title>
<path fill="none" stroke="#9a32cd" stroke-dasharray="5,2" d="M974.309,-229.729C1030.53,-221.267 1108.24,-209.571 1157.31,-202.187"/>
<polygon fill="#9a32cd" stroke="#9a32cd" points="973.44,-226.32 964.073,-231.269 974.482,-233.242 973.44,-226.32"/>
<text text-anchor="middle" x="1051" y="-243.16" font-family="FreeSans" font-size="10.00"> emptyStringVector</text>
<text text-anchor="middle" x="1051" y="-230.16" font-family="FreeSans" font-size="10.00">emptyVariantVector</text>
</g>
<!-- Node19 -->
<g id="node41" class="node"><title>Node19</title>
<a xlink:href="class_urho3_d_1_1_p_o_d_vector.html" target="_top" xlink:title="Urho3D::PODVector\&lt;\l unsigned char \&gt;">
<polygon fill="none" stroke="red" points="845.5,-137.16 845.5,-171.16 964.5,-171.16 964.5,-137.16 845.5,-137.16"/>
<text text-anchor="start" x="853.5" y="-158.16" font-family="FreeSans" font-size="10.00">Urho3D::PODVector&lt;</text>
<text text-anchor="middle" x="905" y="-145.16" font-family="FreeSans" font-size="10.00"> unsigned char &gt;</text>
</a>
</g>
<!-- Node19&#45;&gt;Node17 -->
<g id="edge46" class="edge"><title>Node19&#45;&gt;Node17</title>
<path fill="none" stroke="#9a32cd" stroke-dasharray="5,2" d="M975.032,-161.601C1013.71,-165.943 1062.59,-171.807 1106,-178.16 1122.74,-180.61 1141.03,-183.675 1157.22,-186.526"/>
<polygon fill="#9a32cd" stroke="#9a32cd" points="975.243,-158.103 964.917,-160.474 974.468,-165.06 975.243,-158.103"/>
<text text-anchor="middle" x="1051" y="-182.16" font-family="FreeSans" font-size="10.00"> emptyBuffer</text>
</g>
<!-- Node20&#45;&gt;Node17 -->
<g id="edge50" class="edge"><title>Node20&#45;&gt;Node17</title>
<path fill="none" stroke="#9a32cd" stroke-dasharray="5,2" d="M973.869,-196.847C981.337,-196.573 988.827,-196.335 996,-196.16 1051.41,-194.809 1115.16,-194.719 1157.32,-194.863"/>
<polygon fill="#9a32cd" stroke="#9a32cd" points="973.587,-193.355 963.731,-197.24 973.859,-200.35 973.587,-193.355"/>
<text text-anchor="middle" x="1051" y="-200.16" font-family="FreeSans" font-size="10.00"> emptyResourceRef</text>
</g>
<!-- Node21 -->
<g id="node47" class="node"><title>Node21</title>
<a xlink:href="struct_urho3_d_1_1_resource_ref_list.html" target="_top" xlink:title="List of typed resource references.">
<polygon fill="none" stroke="red" points="838,-97.6597 838,-118.66 972,-118.66 972,-97.6597 838,-97.6597"/>
<text text-anchor="middle" x="905" y="-105.66" font-family="FreeSans" font-size="10.00">Urho3D::ResourceRefList</text>
</a>
</g>
<!-- Node21&#45;&gt;Node17 -->
<g id="edge54" class="edge"><title>Node21&#45;&gt;Node17</title>
<path fill="none" stroke="#9a32cd" stroke-dasharray="5,2" d="M982.183,-118.249C1020.09,-124.43 1066.09,-133.777 1106,-147.16 1135.28,-156.978 1167,-173.753 1186.19,-184.645"/>
<polygon fill="#9a32cd" stroke="#9a32cd" points="982.648,-114.779 972.223,-116.667 981.55,-121.692 982.648,-114.779"/>
<text text-anchor="middle" x="1051" y="-151.16" font-family="FreeSans" font-size="10.00"> emptyResourceRefList</text>
</g>
<!-- Node22 -->
<g id="node49" class="node"><title>Node22</title>
<a xlink:href="class_urho3_d_1_1_hash_map.html" target="_top" xlink:title="Hash map template class.">
<polygon fill="none" stroke="red" points="832,-309.66 832,-330.66 978,-330.66 978,-309.66 832,-309.66"/>
<text text-anchor="middle" x="905" y="-317.66" font-family="FreeSans" font-size="10.00">Urho3D::HashMap&lt; T, U &gt;</text>
</a>
</g>
<!-- Node22&#45;&gt;Node17 -->
<g id="edge56" class="edge"><title>Node22&#45;&gt;Node17</title>
<path fill="none" stroke="#9a32cd" stroke-dasharray="5,2" d="M988.506,-322.046C1026.09,-319.877 1069.99,-312.983 1106,-295.16 1148.48,-274.132 1183.11,-227.117 1197.2,-205.906"/>
<polygon fill="#9a32cd" stroke="#9a32cd" points="987.91,-318.571 978.086,-322.538 988.24,-325.563 987.91,-318.571"/>
<text text-anchor="middle" x="1051" y="-326.16" font-family="FreeSans" font-size="10.00"> emptyVariantMap</text>
</g>
<!-- Node23 -->
<g id="node51" class="node"><title>Node23</title>
<a xlink:href="struct_urho3_d_1_1_variant_value.html" target="_top" xlink:title="Union for the possible variant values. Also stores non&#45;POD objects such as String and math objects (e...">
<polygon fill="none" stroke="black" points="845.5,-269.66 845.5,-290.66 964.5,-290.66 964.5,-269.66 845.5,-269.66"/>
<text text-anchor="middle" x="905" y="-277.66" font-family="FreeSans" font-size="10.00">Urho3D::VariantValue</text>
</a>
</g>
<!-- Node23&#45;&gt;Node17 -->
<g id="edge58" class="edge"><title>Node23&#45;&gt;Node17</title>
<path fill="none" stroke="#9a32cd" stroke-dasharray="5,2" d="M974.647,-279.284C1014.13,-276.969 1063.91,-270.946 1106,-256.16 1139.28,-244.47 1173.12,-220.022 1191.02,-205.883"/>
<polygon fill="#9a32cd" stroke="#9a32cd" points="974.386,-275.793 964.581,-279.808 974.75,-282.784 974.386,-275.793"/>
<text text-anchor="middle" x="1051" y="-282.16" font-family="FreeSans" font-size="10.00"> value_</text>
</g>
<!-- Node24 -->
<g id="node53" class="node"><title>Node24</title>
<a xlink:href="class_urho3_d_1_1_shared_ptr.html" target="_top" xlink:title="Urho3D::SharedPtr\&lt;\l Urho3D::AttributeAccessor \&gt;">
<polygon fill="none" stroke="black" points="1124.5,-7.15972 1124.5,-41.1597 1283.5,-41.1597 1283.5,-7.15972 1124.5,-7.15972"/>
<text text-anchor="start" x="1132.5" y="-28.1597" font-family="FreeSans" font-size="10.00">Urho3D::SharedPtr&lt;</text>
<text text-anchor="middle" x="1204" y="-15.1597" font-family="FreeSans" font-size="10.00"> Urho3D::AttributeAccessor &gt;</text>
</a>
</g>
<!-- Node24&#45;&gt;Node16 -->
<g id="edge60" class="edge"><title>Node24&#45;&gt;Node16</title>
<path fill="none" stroke="#9a32cd" stroke-dasharray="5,2" d="M1293.62,-25.4161C1318.95,-28.0135 1346.11,-32.9972 1370,-42.1597 1403.63,-55.0553 1436.2,-83.2086 1452.39,-98.5978"/>
<polygon fill="#9a32cd" stroke="#9a32cd" points="1293.92,-21.929 1283.65,-24.5037 1293.29,-28.9 1293.92,-21.929"/>
<text text-anchor="middle" x="1336" y="-46.1597" font-family="FreeSans" font-size="10.00"> accessor_</text>
</g>
<!-- Node25&#45;&gt;Node24 -->
<g id="edge62" class="edge"><title>Node25&#45;&gt;Node24</title>
<path fill="none" stroke="#9a32cd" stroke-dasharray="5,2" d="M587.12,-245.677C612.018,-200.109 681.185,-87.0428 776,-42.1597 887.754,10.7414 1034.86,2.52436 1124.28,-9.73931"/>
<polygon fill="#9a32cd" stroke="#9a32cd" points="583.997,-244.096 582.362,-254.564 590.168,-247.401 583.997,-244.096"/>
<text text-anchor="middle" x="795" y="-46.1597" font-family="FreeSans" font-size="10.00"> ptr_</text>
</g>
</g>
</svg>
        <g id="navigator" transform="translate(0 0)" fill="#404254">
                <rect fill="#f2f5e9" fill-opacity="0.5" stroke="#606060" stroke-width=".5" x="0" y="0" width="60" height="60"/>
                <use id="zoomplus" xlink:href="#zoomPlus" x="17" y="9" onmousedown="handleZoom(evt,'in')"/>
                <use id="zoomminus" xlink:href="#zoomMin" x="42" y="9" onmousedown="handleZoom(evt,'out')"/>
                <use id="reset" xlink:href="#resetDef" x="30" y="36" onmousedown="handleReset()"/>
                <g id="arrowUp" xlink:href="#dirArrow" transform="translate(30 24)" onmousedown="handlePan(0,-1)">
                  <use xlink:href="#rim" fill="#404040">
                        <set attributeName="fill" to="#808080" begin="arrowUp.mouseover" end="arrowUp.mouseout"/>
                  </use>
                  <path fill="none" stroke="white" stroke-width="1.5" d="M0,-3.0v7 M-2.5,-0.5L0,-3.0L2.5,-0.5"/>
                </g>
                <g id="arrowRight" xlink:href="#dirArrow" transform="rotate(90) translate(36 -43)" onmousedown="handlePan(1,0)">
                  <use xlink:href="#rim" fill="#404040">
                        <set attributeName="fill" to="#808080" begin="arrowRight.mouseover" end="arrowRight.mouseout"/>
                  </use>
                  <path fill="none" stroke="white" stroke-width="1.5" d="M0,-3.0v7 M-2.5,-0.5L0,-3.0L2.5,-0.5"/>
                </g>
                <g id="arrowDown" xlink:href="#dirArrow" transform="rotate(180) translate(-30 -48)" onmousedown="handlePan(0,1)">
                  <use xlink:href="#rim" fill="#404040">
                        <set attributeName="fill" to="#808080" begin="arrowDown.mouseover" end="arrowDown.mouseout"/>
                  </use>
                  <path fill="none" stroke="white" stroke-width="1.5" d="M0,-3.0v7 M-2.5,-0.5L0,-3.0L2.5,-0.5"/>
                </g>
                <g id="arrowLeft" xlink:href="#dirArrow" transform="rotate(270) translate(-36 17)" onmousedown="handlePan(-1,0)">
                  <use xlink:href="#rim" fill="#404040">
                        <set attributeName="fill" to="#808080" begin="arrowLeft.mouseover" end="arrowLeft.mouseout"/>
                  </use>
                  <path fill="none" stroke="white" stroke-width="1.5" d="M0,-3.0v7 M-2.5,-0.5L0,-3.0L2.5,-0.5"/>
                </g>
        </g>
        <svg viewBox="0 0 15 15" width="100%" height="30px" preserveAspectRatio="xMaxYMin meet">
         <g id="arrow_out" transform="scale(0.3 0.3)">
          <a xlink:href="class_urho3_d_1_1_attribute_animation_info__coll__graph_org.svg" target="_base">
           <rect id="button" ry="5" rx="5" y="6" x="6" height="38" width="38"
                fill="#f2f5e9" fill-opacity="0.5" stroke="#606060" stroke-width="1.0"/>
           <path id="arrow"
             d="M 11.500037,31.436501 C 11.940474,20.09759 22.043105,11.32322 32.158766,21.979434 L 37.068811,17.246167 C 37.068811,17.246167 37.088388,32 37.088388,32 L 22.160133,31.978069 C 22.160133,31.978069 26.997745,27.140456 26.997745,27.140456 C 18.528582,18.264221 13.291696,25.230495 11.500037,31.436501 z"
             style="fill:#404040;"/>
          </a>
         </g>
        </svg>
</svg>
