<?xml version="1.0" encoding="UTF-8" standalone="no"?>
<!DOCTYPE svg PUBLIC "-//W3C//DTD SVG 1.1//EN"
 "http://www.w3.org/Graphics/SVG/1.1/DTD/svg11.dtd">
<!-- Generated by graphviz version 2.26.3 (20100126.1600)
 -->
<!-- Title: Urho3D::JSONValue Pages: 1 -->
<!--zoomable 360 -->
<svg id="main" version="1.1" xmlns="http://www.w3.org/2000/svg" xmlns:xlink="http://www.w3.org/1999/xlink" xml:space="preserve" onload="init(evt)">
        <defs>
                <circle id="rim" cx="0" cy="0" r="7"/>
                <circle id="rim2" cx="0" cy="0" r="3.5"/>
                <g id="zoomPlus">
                        <use xlink:href="#rim" fill="#404040">
                                <set attributeName="fill" to="#808080" begin="zoomplus.mouseover" end="zoomplus.mouseout"/>
                        </use>
                        <path d="M-4,0h8M0,-4v8" fill="none" stroke="white" stroke-width="1.5" pointer-events="none"/>
                </g>
                <g id="zoomMin">
                        <use xlink:href="#rim" fill="#404040">
                                <set attributeName="fill" to="#808080" begin="zoomminus.mouseover" end="zoomminus.mouseout"/>
                        </use>
                        <path d="M-4,0h8" fill="none" stroke="white" stroke-width="1.5" pointer-events="none"/>
                </g>
                <g id="dirArrow">
                        <path fill="none" stroke="white" stroke-width="1.5" d="M0,-3.0v7 M-2.5,-0.5L0,-3.0L2.5,-0.5"/>
                </g>
               <g id="resetDef">
                       <use xlink:href="#rim2" fill="#404040">
                               <set attributeName="fill" to="#808080" begin="reset.mouseover" end="reset.mouseout"/>
                       </use>
               </g>
        </defs>

<script type="text/javascript">
var viewWidth = 566;
var viewHeight = 360;
var sectionId = 'dynsection-0';
</script>
<script xlink:href="svgpan.js"/>
<svg id="graph" class="graph">
<g id="viewport">
<title>Urho3D::JSONValue</title>
<!-- Node1 -->
<g id="node1" class="node"><title>Node1</title>
<polygon fill="#bfbfbf" stroke="black" points="125,-0.5 125,-21.5 235,-21.5 235,-0.5 125,-0.5"/>
<text text-anchor="middle" x="180" y="-8.5" font-family="FreeSans" font-size="10.00">Urho3D::JSONValue</text>
</g>
<!-- Node1&#45;&gt;Node1 -->
<g id="edge6" class="edge"><title>Node1&#45;&gt;Node1</title>
<path fill="none" stroke="#9a32cd" stroke-dasharray="5,2" d="M245.001,-16.9101C249.952,-15.5976 253,-13.6276 253,-11 253,-6.89844 245.574,-4.39905 235.073,-3.50183"/>
<polygon fill="#9a32cd" stroke="#9a32cd" points="244.395,-13.4625 235.073,-18.4982 245.501,-20.3746 244.395,-13.4625"/>
<text text-anchor="middle" x="270" y="-8.5" font-family="FreeSans" font-size="10.00"> EMPTY</text>
</g>
<!-- Node2 -->
<g id="node2" class="node"><title>Node2</title>
<a xlink:href="class_urho3_d_1_1_vector.html" target="_top" xlink:title="Vector template class.">
<polygon fill="none" stroke="black" points="0,-84.5 0,-105.5 118,-105.5 118,-84.5 0,-84.5"/>
<text text-anchor="middle" x="59" y="-92.5" font-family="FreeSans" font-size="10.00">Urho3D::Vector&lt; T &gt;</text>
</a>
</g>
<!-- Node2&#45;&gt;Node1 -->
<g id="edge2" class="edge"><title>Node2&#45;&gt;Node1</title>
<path fill="none" stroke="#9a32cd" stroke-dasharray="5,2" d="M74.9008,-76.7108C85.6579,-65.126 100.656,-50.4189 116,-40 126.798,-32.6678 139.751,-26.3986 151.17,-21.5848"/>
<polygon fill="#9a32cd" stroke="#9a32cd" points="72.2922,-74.3772 68.179,-84.141 77.4832,-79.0733 72.2922,-74.3772"/>
<text text-anchor="middle" x="146" y="-57" font-family="FreeSans" font-size="10.00"> arrayValue_</text>
<text text-anchor="middle" x="146" y="-44" font-family="FreeSans" font-size="10.00">emptyArray</text>
</g>
<!-- Node3 -->
<g id="node4" class="node"><title>Node3</title>
<a xlink:href="class_urho3_d_1_1_vector_base.html" target="_top" xlink:title="Vector base class.">
<polygon fill="none" stroke="black" points="2,-144.5 2,-165.5 116,-165.5 116,-144.5 2,-144.5"/>
<text text-anchor="middle" x="59" y="-152.5" font-family="FreeSans" font-size="10.00">Urho3D::VectorBase</text>
</a>
</g>
<!-- Node3&#45;&gt;Node2 -->
<g id="edge4" class="edge"><title>Node3&#45;&gt;Node2</title>
<path fill="none" stroke="midnightblue" d="M59,-134.231C59,-124.592 59,-113.544 59,-105.634"/>
<polygon fill="midnightblue" stroke="midnightblue" points="55.5001,-134.273 59,-144.273 62.5001,-134.273 55.5001,-134.273"/>
</g>
<!-- Node4 -->
<g id="node7" class="node"><title>Node4</title>
<a xlink:href="class_urho3_d_1_1_string.html" target="_top" xlink:title="String class.">
<polygon fill="none" stroke="black" points="136,-84.5 136,-105.5 224,-105.5 224,-84.5 136,-84.5"/>
<text text-anchor="middle" x="180" y="-92.5" font-family="FreeSans" font-size="10.00">Urho3D::String</text>
</a>
</g>
<!-- Node4&#45;&gt;Node1 -->
<g id="edge8" class="edge"><title>Node4&#45;&gt;Node1</title>
<path fill="none" stroke="#9a32cd" stroke-dasharray="5,2" d="M180,-73.9452C180,-57.2568 180,-34.6387 180,-21.5523"/>
<polygon fill="#9a32cd" stroke="#9a32cd" points="176.5,-74.3613 180,-84.3613 183.5,-74.3614 176.5,-74.3613"/>
<text text-anchor="middle" x="211" y="-50.5" font-family="FreeSans" font-size="10.00"> stringValue_</text>
</g>
<!-- Node4&#45;&gt;Node4 -->
<g id="edge10" class="edge"><title>Node4&#45;&gt;Node4</title>
<path fill="none" stroke="#9a32cd" stroke-dasharray="5,2" d="M234.258,-99.4197C239.019,-98.4874 242,-97.0142 242,-95 242,-91.7773 234.369,-89.9394 224.024,-89.4862"/>
<polygon fill="#9a32cd" stroke="#9a32cd" points="233.596,-95.9705 224.024,-100.514 234.34,-102.931 233.596,-95.9705"/>
<text text-anchor="middle" x="259" y="-92.5" font-family="FreeSans" font-size="10.00"> EMPTY</text>
</g>
<!-- Node5 -->
<g id="node10" class="node"><title>Node5</title>
<a xlink:href="class_urho3_d_1_1_hash_map.html" target="_top" xlink:title="Hash map template class.">
<polygon fill="none" stroke="black" points="294,-84.5 294,-105.5 440,-105.5 440,-84.5 294,-84.5"/>
<text text-anchor="middle" x="367" y="-92.5" font-family="FreeSans" font-size="10.00">Urho3D::HashMap&lt; T, U &gt;</text>
</a>
</g>
<!-- Node5&#45;&gt;Node1 -->
<g id="edge12" class="edge"><title>Node5&#45;&gt;Node1</title>
<path fill="none" stroke="#9a32cd" stroke-dasharray="5,2" d="M334.703,-80.1858C310.358,-69.0516 276.129,-53.466 246,-40 232.174,-33.8206 216.673,-27.0039 204.17,-21.5329"/>
<polygon fill="#9a32cd" stroke="#9a32cd" points="333.293,-83.3897 343.843,-84.3691 336.207,-77.0247 333.293,-83.3897"/>
<text text-anchor="middle" x="334.5" y="-57" font-family="FreeSans" font-size="10.00"> emptyObject</text>
<text text-anchor="middle" x="334.5" y="-44" font-family="FreeSans" font-size="10.00">objectValue_</text>
</g>
<!-- Node6 -->
<g id="node12" class="node"><title>Node6</title>
<a xlink:href="class_urho3_d_1_1_hash_base.html" target="_top" xlink:title="Hash set/map base class.">
<polygon fill="none" stroke="black" points="313,-144.5 313,-165.5 421,-165.5 421,-144.5 313,-144.5"/>
<text text-anchor="middle" x="367" y="-152.5" font-family="FreeSans" font-size="10.00">Urho3D::HashBase</text>
</a>
</g>
<!-- Node6&#45;&gt;Node5 -->
<g id="edge14" class="edge"><title>Node6&#45;&gt;Node5</title>
<path fill="none" stroke="midnightblue" d="M367,-134.231C367,-124.592 367,-113.544 367,-105.634"/>
<polygon fill="midnightblue" stroke="midnightblue" points="363.5,-134.273 367,-144.273 370.5,-134.273 363.5,-134.273"/>
</g>
<!-- Node7 -->
<g id="node14" class="node"><title>Node7</title>
<a xlink:href="struct_urho3_d_1_1_hash_node_base.html" target="_top" xlink:title="Hash set/map node base class.">
<polygon fill="none" stroke="black" points="183,-250.5 183,-271.5 317,-271.5 317,-250.5 183,-250.5"/>
<text text-anchor="middle" x="250" y="-258.5" font-family="FreeSans" font-size="10.00">Urho3D::HashNodeBase</text>
</a>
</g>
<!-- Node7&#45;&gt;Node6 -->
<g id="edge16" class="edge"><title>Node7&#45;&gt;Node6</title>
<path fill="none" stroke="#9a32cd" stroke-dasharray="5,2" d="M269.244,-243.565C293.74,-221.373 335.286,-183.733 355.401,-165.509"/>
<polygon fill="#9a32cd" stroke="#9a32cd" points="266.707,-241.141 261.646,-250.449 271.407,-246.328 266.707,-241.141"/>
<text text-anchor="middle" x="347" y="-214.5" font-family="FreeSans" font-size="10.00"> ptrs_</text>
<text text-anchor="middle" x="347" y="-201.5" font-family="FreeSans" font-size="10.00">tail_</text>
<text text-anchor="middle" x="347" y="-188.5" font-family="FreeSans" font-size="10.00">head_</text>
</g>
<!-- Node7&#45;&gt;Node7 -->
<g id="edge18" class="edge"><title>Node7&#45;&gt;Node7</title>
<path fill="none" stroke="#9a32cd" stroke-dasharray="5,2" d="M327.188,-266.804C332.061,-265.439 335,-263.505 335,-261 335,-257.09 327.84,-254.57 317.337,-253.439"/>
<polygon fill="#9a32cd" stroke="#9a32cd" points="326.567,-263.359 317.337,-268.561 327.796,-270.25 326.567,-263.359"/>
<text text-anchor="middle" x="350.5" y="-271.5" font-family="FreeSans" font-size="10.00"> next_</text>
<text text-anchor="middle" x="350.5" y="-258.5" font-family="FreeSans" font-size="10.00">prev_</text>
<text text-anchor="middle" x="350.5" y="-245.5" font-family="FreeSans" font-size="10.00">down_</text>
</g>
<!-- Node8 -->
<g id="node17" class="node"><title>Node8</title>
<a xlink:href="struct_urho3_d_1_1_allocator_block.html" target="_top" xlink:title="Allocator memory block.">
<polygon fill="none" stroke="black" points="383.5,-250.5 383.5,-271.5 510.5,-271.5 510.5,-250.5 383.5,-250.5"/>
<text text-anchor="middle" x="447" y="-258.5" font-family="FreeSans" font-size="10.00">Urho3D::AllocatorBlock</text>
</a>
</g>
<!-- Node8&#45;&gt;Node6 -->
<g id="edge20" class="edge"><title>Node8&#45;&gt;Node6</title>
<path fill="none" stroke="#9a32cd" stroke-dasharray="5,2" d="M432.957,-242.394C416.109,-220.069 388.446,-183.416 374.931,-165.509"/>
<polygon fill="#9a32cd" stroke="#9a32cd" points="430.219,-244.575 439.037,-250.449 435.806,-240.358 430.219,-244.575"/>
<text text-anchor="middle" x="443" y="-201.5" font-family="FreeSans" font-size="10.00"> allocator_</text>
</g>
<!-- Node8&#45;&gt;Node8 -->
<g id="edge22" class="edge"><title>Node8&#45;&gt;Node8</title>
<path fill="none" stroke="#9a32cd" stroke-dasharray="5,2" d="M520.597,-266.791C525.216,-265.428 528,-263.498 528,-261 528,-257.004 520.873,-254.46 510.504,-253.367"/>
<polygon fill="#9a32cd" stroke="#9a32cd" points="519.713,-263.395 510.504,-268.633 520.97,-270.281 519.713,-263.395"/>
<text text-anchor="middle" x="543" y="-258.5" font-family="FreeSans" font-size="10.00"> next_</text>
</g>
<!-- Node9 -->
<g id="node20" class="node"><title>Node9</title>
<a xlink:href="struct_urho3_d_1_1_allocator_node.html" target="_top" xlink:title="Allocator node.">
<polygon fill="none" stroke="black" points="383.5,-330.5 383.5,-351.5 510.5,-351.5 510.5,-330.5 383.5,-330.5"/>
<text text-anchor="middle" x="447" y="-338.5" font-family="FreeSans" font-size="10.00">Urho3D::AllocatorNode</text>
</a>
</g>
<!-- Node9&#45;&gt;Node8 -->
<g id="edge24" class="edge"><title>Node9&#45;&gt;Node8</title>
<path fill="none" stroke="#9a32cd" stroke-dasharray="5,2" d="M447,-319.958C447,-304.413 447,-283.897 447,-271.618"/>
<polygon fill="#9a32cd" stroke="#9a32cd" points="443.5,-320.211 447,-330.211 450.5,-320.211 443.5,-320.211"/>
<text text-anchor="middle" x="461" y="-302.5" font-family="FreeSans" font-size="10.00"> free_</text>
</g>
<!-- Node9&#45;&gt;Node9 -->
<g id="edge26" class="edge"><title>Node9&#45;&gt;Node9</title>
<path fill="none" stroke="#9a32cd" stroke-dasharray="5,2" d="M520.597,-345.738C525.216,-344.623 528,-343.043 528,-341 528,-337.73 520.873,-335.649 510.504,-334.755"/>
<polygon fill="#9a32cd" stroke="#9a32cd" points="519.877,-342.307 510.504,-347.245 520.911,-349.23 519.877,-342.307"/>
<text text-anchor="middle" x="543" y="-338.5" font-family="FreeSans" font-size="10.00"> next_</text>
</g>
</g>
</svg>
        <g id="navigator" transform="translate(0 0)" fill="#404254">
                <rect fill="#f2f5e9" fill-opacity="0.5" stroke="#606060" stroke-width=".5" x="0" y="0" width="60" height="60"/>
                <use id="zoomplus" xlink:href="#zoomPlus" x="17" y="9" onmousedown="handleZoom(evt,'in')"/>
                <use id="zoomminus" xlink:href="#zoomMin" x="42" y="9" onmousedown="handleZoom(evt,'out')"/>
                <use id="reset" xlink:href="#resetDef" x="30" y="36" onmousedown="handleReset()"/>
                <g id="arrowUp" xlink:href="#dirArrow" transform="translate(30 24)" onmousedown="handlePan(0,-1)">
                  <use xlink:href="#rim" fill="#404040">
                        <set attributeName="fill" to="#808080" begin="arrowUp.mouseover" end="arrowUp.mouseout"/>
                  </use>
                  <path fill="none" stroke="white" stroke-width="1.5" d="M0,-3.0v7 M-2.5,-0.5L0,-3.0L2.5,-0.5"/>
                </g>
                <g id="arrowRight" xlink:href="#dirArrow" transform="rotate(90) translate(36 -43)" onmousedown="handlePan(1,0)">
                  <use xlink:href="#rim" fill="#404040">
                        <set attributeName="fill" to="#808080" begin="arrowRight.mouseover" end="arrowRight.mouseout"/>
                  </use>
                  <path fill="none" stroke="white" stroke-width="1.5" d="M0,-3.0v7 M-2.5,-0.5L0,-3.0L2.5,-0.5"/>
                </g>
                <g id="arrowDown" xlink:href="#dirArrow" transform="rotate(180) translate(-30 -48)" onmousedown="handlePan(0,1)">
                  <use xlink:href="#rim" fill="#404040">
                        <set attributeName="fill" to="#808080" begin="arrowDown.mouseover" end="arrowDown.mouseout"/>
                  </use>
                  <path fill="none" stroke="white" stroke-width="1.5" d="M0,-3.0v7 M-2.5,-0.5L0,-3.0L2.5,-0.5"/>
                </g>
                <g id="arrowLeft" xlink:href="#dirArrow" transform="rotate(270) translate(-36 17)" onmousedown="handlePan(-1,0)">
                  <use xlink:href="#rim" fill="#404040">
                        <set attributeName="fill" to="#808080" begin="arrowLeft.mouseover" end="arrowLeft.mouseout"/>
                  </use>
                  <path fill="none" stroke="white" stroke-width="1.5" d="M0,-3.0v7 M-2.5,-0.5L0,-3.0L2.5,-0.5"/>
                </g>
        </g>
        <svg viewBox="0 0 15 15" width="100%" height="30px" preserveAspectRatio="xMaxYMin meet">
         <g id="arrow_out" transform="scale(0.3 0.3)">
          <a xlink:href="class_urho3_d_1_1_j_s_o_n_value__coll__graph_org.svg" target="_base">
           <rect id="button" ry="5" rx="5" y="6" x="6" height="38" width="38"
                fill="#f2f5e9" fill-opacity="0.5" stroke="#606060" stroke-width="1.0"/>
           <path id="arrow"
             d="M 11.500037,31.436501 C 11.940474,20.09759 22.043105,11.32322 32.158766,21.979434 L 37.068811,17.246167 C 37.068811,17.246167 37.088388,32 37.088388,32 L 22.160133,31.978069 C 22.160133,31.978069 26.997745,27.140456 26.997745,27.140456 C 18.528582,18.264221 13.291696,25.230495 11.500037,31.436501 z"
             style="fill:#404040;"/>
          </a>
         </g>
        </svg>
</svg>
