<?xml version="1.0" encoding="UTF-8" standalone="no"?>
<!DOCTYPE svg PUBLIC "-//W3C//DTD SVG 1.1//EN"
 "http://www.w3.org/Graphics/SVG/1.1/DTD/svg11.dtd">
<!-- Generated by graphviz version 2.26.3 (20100126.1600)
 -->
<!-- Title: Urho3D::AnimationSet2D Pages: 1 -->
<svg width="2132pt" height="721pt"
 viewBox="0.00 0.00 2132.00 721.00" xmlns="http://www.w3.org/2000/svg" xmlns:xlink="http://www.w3.org/1999/xlink">
<g id="graph1" class="graph" transform="scale(1 1) rotate(0) translate(4 717)">
<title>Urho3D::AnimationSet2D</title>
<!-- Node1 -->
<g id="node1" class="node"><title>Node1</title>
<polygon fill="#bfbfbf" stroke="black" points="1986,-239.5 1986,-260.5 2124,-260.5 2124,-239.5 1986,-239.5"/>
<text text-anchor="middle" x="2055" y="-247.5" font-family="FreeSans" font-size="10.00">Urho3D::AnimationSet2D</text>
</g>
<!-- Node2 -->
<g id="node2" class="node"><title>Node2</title>
<a xlink:href="class_urho3_d_1_1_resource.html" target="_top" xlink:title="Base class for resources.">
<polygon fill="none" stroke="black" points="717.5,-431.5 717.5,-452.5 820.5,-452.5 820.5,-431.5 717.5,-431.5"/>
<text text-anchor="middle" x="769" y="-439.5" font-family="FreeSans" font-size="10.00">Urho3D::Resource</text>
</a>
</g>
<!-- Node2&#45;&gt;Node1 -->
<g id="edge2" class="edge"><title>Node2&#45;&gt;Node1</title>
<path fill="none" stroke="midnightblue" d="M780.188,-461.447C817.525,-523.541 944.587,-713 1105,-713 1105,-713 1105,-713 1856,-713 1957.93,-713 2039.16,-329.458 2052.94,-260.54"/>
<polygon fill="midnightblue" stroke="midnightblue" points="783.075,-459.453 774.975,-452.624 777.049,-463.014 783.075,-459.453"/>
</g>
<!-- Node11 -->
<g id="node23" class="node"><title>Node11</title>
<a xlink:href="class_urho3_d_1_1_sprite2_d.html" target="_top" xlink:title="Sprite.">
<polygon fill="none" stroke="black" points="1596.5,-387.5 1596.5,-408.5 1697.5,-408.5 1697.5,-387.5 1596.5,-387.5"/>
<text text-anchor="middle" x="1647" y="-395.5" font-family="FreeSans" font-size="10.00">Urho3D::Sprite2D</text>
</a>
</g>
<!-- Node2&#45;&gt;Node11 -->
<g id="edge28" class="edge"><title>Node2&#45;&gt;Node11</title>
<path fill="none" stroke="midnightblue" d="M830.823,-447.343C946.213,-456.28 1202.06,-471.208 1416,-449 1486.26,-441.706 1566.39,-421.191 1611.4,-408.514"/>
<polygon fill="midnightblue" stroke="midnightblue" points="831.008,-443.847 820.764,-446.552 830.458,-450.825 831.008,-443.847"/>
</g>
<!-- Node15 -->
<g id="node34" class="node"><title>Node15</title>
<a xlink:href="class_urho3_d_1_1_sprite_sheet2_d.html" target="_top" xlink:title="Sprite sheet.">
<polygon fill="none" stroke="red" points="1040,-303.5 1040,-324.5 1170,-324.5 1170,-303.5 1040,-303.5"/>
<text text-anchor="middle" x="1105" y="-311.5" font-family="FreeSans" font-size="10.00">Urho3D::SpriteSheet2D</text>
</a>
</g>
<!-- Node2&#45;&gt;Node15 -->
<g id="edge42" class="edge"><title>Node2&#45;&gt;Node15</title>
<path fill="none" stroke="midnightblue" d="M830.404,-429.582C882.845,-417.69 959.488,-397.22 1022,-368 1048.01,-355.843 1075.4,-336.567 1091.31,-324.634"/>
<polygon fill="midnightblue" stroke="midnightblue" points="829.574,-426.181 820.576,-431.774 831.099,-433.013 829.574,-426.181"/>
</g>
<!-- Node3 -->
<g id="node4" class="node"><title>Node3</title>
<a xlink:href="class_urho3_d_1_1_object.html" target="_top" xlink:title="Base class for objects with type identification, subsystem access and event sending/receiving capabil...">
<polygon fill="none" stroke="black" points="444,-471.5 444,-492.5 534,-492.5 534,-471.5 444,-471.5"/>
<text text-anchor="middle" x="489" y="-479.5" font-family="FreeSans" font-size="10.00">Urho3D::Object</text>
</a>
</g>
<!-- Node3&#45;&gt;Node2 -->
<g id="edge4" class="edge"><title>Node3&#45;&gt;Node2</title>
<path fill="none" stroke="midnightblue" d="M544.365,-475.899C581.178,-471.65 630.564,-465.582 674,-459 688.081,-456.866 703.285,-454.275 717.313,-451.766"/>
<polygon fill="midnightblue" stroke="midnightblue" points="543.867,-472.433 534.33,-477.048 544.663,-479.388 543.867,-472.433"/>
</g>
<!-- Node4 -->
<g id="node6" class="node"><title>Node4</title>
<a xlink:href="class_urho3_d_1_1_ref_counted.html" target="_top" xlink:title="Base class for intrusively reference&#45;counted objects. These are noncopyable and non&#45;assignable.">
<polygon fill="none" stroke="red" points="0,-494.5 0,-515.5 114,-515.5 114,-494.5 0,-494.5"/>
<text text-anchor="middle" x="57" y="-502.5" font-family="FreeSans" font-size="10.00">Urho3D::RefCounted</text>
</a>
</g>
<!-- Node4&#45;&gt;Node3 -->
<g id="edge6" class="edge"><title>Node4&#45;&gt;Node3</title>
<path fill="none" stroke="midnightblue" d="M124.401,-507.286C192.965,-508.796 302.185,-508.953 396,-499 411.669,-497.338 428.664,-494.531 443.788,-491.673"/>
<polygon fill="midnightblue" stroke="midnightblue" points="124.25,-503.781 114.17,-507.044 124.085,-510.779 124.25,-503.781"/>
</g>
<!-- Node5 -->
<g id="node8" class="node"><title>Node5</title>
<a xlink:href="class_urho3_d_1_1_context.html" target="_top" xlink:title="Urho3D execution context. Provides access to subsystems, object factories and attributes, and event receivers.">
<polygon fill="none" stroke="red" points="176.5,-471.5 176.5,-492.5 273.5,-492.5 273.5,-471.5 176.5,-471.5"/>
<text text-anchor="middle" x="225" y="-479.5" font-family="FreeSans" font-size="10.00">Urho3D::Context</text>
</a>
</g>
<!-- Node4&#45;&gt;Node5 -->
<g id="edge10" class="edge"><title>Node4&#45;&gt;Node5</title>
<path fill="none" stroke="midnightblue" d="M124.425,-495.769C141.777,-493.394 160.111,-490.884 176.305,-488.667"/>
<polygon fill="midnightblue" stroke="midnightblue" points="123.779,-492.325 114.346,-497.149 124.729,-499.26 123.779,-492.325"/>
</g>
<!-- Node5&#45;&gt;Node3 -->
<g id="edge8" class="edge"><title>Node5&#45;&gt;Node3</title>
<path fill="none" stroke="#9a32cd" stroke-dasharray="5,2" d="M284.03,-482C332.291,-482 399.528,-482 443.641,-482"/>
<polygon fill="#9a32cd" stroke="#9a32cd" points="283.729,-478.5 273.729,-482 283.729,-485.5 283.729,-478.5"/>
<text text-anchor="middle" x="356" y="-486" font-family="FreeSans" font-size="10.00"> context_</text>
</g>
<!-- Node6 -->
<g id="node11" class="node"><title>Node6</title>
<a xlink:href="class_urho3_d_1_1_linked_list.html" target="_top" xlink:title="Urho3D::LinkedList\l\&lt; Urho3D::EventHandler \&gt;">
<polygon fill="none" stroke="red" points="152,-419 152,-453 298,-453 298,-419 152,-419"/>
<text text-anchor="start" x="160" y="-440" font-family="FreeSans" font-size="10.00">Urho3D::LinkedList</text>
<text text-anchor="middle" x="225" y="-427" font-family="FreeSans" font-size="10.00">&lt; Urho3D::EventHandler &gt;</text>
</a>
</g>
<!-- Node6&#45;&gt;Node3 -->
<g id="edge12" class="edge"><title>Node6&#45;&gt;Node3</title>
<path fill="none" stroke="#9a32cd" stroke-dasharray="5,2" d="M308.37,-449.919C336.246,-454.631 367.476,-459.974 396,-465 411.518,-467.734 428.475,-470.808 443.611,-473.583"/>
<polygon fill="#9a32cd" stroke="#9a32cd" points="308.706,-446.426 298.263,-448.213 307.541,-453.328 308.706,-446.426"/>
<text text-anchor="middle" x="356" y="-469" font-family="FreeSans" font-size="10.00"> eventHandlers_</text>
</g>
<!-- Node7 -->
<g id="node13" class="node"><title>Node7</title>
<a xlink:href="class_urho3_d_1_1_timer.html" target="_top" xlink:title="Low&#45;resolution operating system timer.">
<polygon fill="none" stroke="black" points="446,-431.5 446,-452.5 532,-452.5 532,-431.5 446,-431.5"/>
<text text-anchor="middle" x="489" y="-439.5" font-family="FreeSans" font-size="10.00">Urho3D::Timer</text>
</a>
</g>
<!-- Node7&#45;&gt;Node2 -->
<g id="edge14" class="edge"><title>Node7&#45;&gt;Node2</title>
<path fill="none" stroke="#9a32cd" stroke-dasharray="5,2" d="M542.161,-442C592.443,-442 667.425,-442 717.242,-442"/>
<polygon fill="#9a32cd" stroke="#9a32cd" points="542.136,-438.5 532.136,-442 542.136,-445.5 542.136,-438.5"/>
<text text-anchor="middle" x="628" y="-446" font-family="FreeSans" font-size="10.00"> useTimer_</text>
</g>
<!-- Node8 -->
<g id="node15" class="node"><title>Node8</title>
<a xlink:href="class_urho3_d_1_1_string.html" target="_top" xlink:title="String class.">
<polygon fill="none" stroke="black" points="445,-158.5 445,-179.5 533,-179.5 533,-158.5 445,-158.5"/>
<text text-anchor="middle" x="489" y="-166.5" font-family="FreeSans" font-size="10.00">Urho3D::String</text>
</a>
</g>
<!-- Node8&#45;&gt;Node1 -->
<g id="edge76" class="edge"><title>Node8&#45;&gt;Node1</title>
<path fill="none" stroke="#9a32cd" stroke-dasharray="5,2" d="M543.144,-161.905C599.464,-155.148 690.252,-146 769,-146 769,-146 769,-146 1856,-146 1935.91,-146 2015.45,-212.69 2043.97,-239.262"/>
<polygon fill="#9a32cd" stroke="#9a32cd" points="542.543,-158.453 533.039,-163.137 543.389,-165.401 542.543,-158.453"/>
<text text-anchor="middle" x="1343" y="-150" font-family="FreeSans" font-size="10.00"> spriteSheetFilePath_</text>
</g>
<!-- Node8&#45;&gt;Node2 -->
<g id="edge16" class="edge"><title>Node8&#45;&gt;Node2</title>
<path fill="none" stroke="#9a32cd" stroke-dasharray="5,2" d="M507.347,-186.997C522.801,-202.354 545.314,-225.189 564,-246 615.248,-303.078 634.316,-313.354 674,-379 684.718,-396.73 676.346,-408.429 692,-422 699.201,-428.243 708.114,-432.573 717.293,-435.568"/>
<polygon fill="#9a32cd" stroke="#9a32cd" points="509.538,-184.242 499.967,-179.699 504.616,-189.219 509.538,-184.242"/>
<text text-anchor="middle" x="628" y="-383" font-family="FreeSans" font-size="10.00"> name_</text>
</g>
<!-- Node8&#45;&gt;Node8 -->
<g id="edge18" class="edge"><title>Node8&#45;&gt;Node8</title>
<path fill="none" stroke="#9a32cd" stroke-dasharray="5,2" d="M464.674,-189.427C466.55,-194.349 474.659,-198 489,-198 511.945,-198 518.936,-188.653 509.973,-179.708"/>
<polygon fill="#9a32cd" stroke="#9a32cd" points="468.074,-190.303 468.027,-179.708 461.457,-188.02 468.074,-190.303"/>
<text text-anchor="middle" x="489" y="-202" font-family="FreeSans" font-size="10.00"> EMPTY</text>
</g>
<!-- Node8&#45;&gt;Node15 -->
<g id="edge48" class="edge"><title>Node8&#45;&gt;Node15</title>
<path fill="none" stroke="#9a32cd" stroke-dasharray="5,2" d="M543.549,-167.218C662.375,-164.221 940.476,-162.262 1022,-206 1063.26,-228.136 1090.35,-280.637 1100.5,-303.29"/>
<polygon fill="#9a32cd" stroke="#9a32cd" points="543.139,-163.728 533.236,-167.491 543.325,-170.725 543.139,-163.728"/>
<text text-anchor="middle" x="769" y="-177" font-family="FreeSans" font-size="10.00"> loadTextureName_</text>
</g>
<!-- Node22 -->
<g id="node53" class="node"><title>Node22</title>
<a xlink:href="struct_urho3_d_1_1_spriter_1_1_spriter_data.html" target="_top" xlink:title="Spriter data.">
<polygon fill="none" stroke="black" points="692.5,-66.5 692.5,-87.5 845.5,-87.5 845.5,-66.5 692.5,-66.5"/>
<text text-anchor="middle" x="769" y="-74.5" font-family="FreeSans" font-size="10.00">Urho3D::Spriter::SpriterData</text>
</a>
</g>
<!-- Node8&#45;&gt;Node22 -->
<g id="edge70" class="edge"><title>Node8&#45;&gt;Node22</title>
<path fill="none" stroke="#9a32cd" stroke-dasharray="5,2" d="M508.878,-151.658C526.76,-137.052 554.393,-116.855 582,-106 616.855,-92.2949 657.75,-85.0451 692.394,-81.2191"/>
<polygon fill="#9a32cd" stroke="#9a32cd" points="506.348,-149.211 500.926,-158.313 510.841,-154.579 506.348,-149.211"/>
<text text-anchor="middle" x="628" y="-123" font-family="FreeSans" font-size="10.00"> generatorVersion_</text>
<text text-anchor="middle" x="628" y="-110" font-family="FreeSans" font-size="10.00">generator_</text>
</g>
<!-- Node9 -->
<g id="node18" class="node"><title>Node9</title>
<a xlink:href="class_urho3_d_1_1_string_hash.html" target="_top" xlink:title="32&#45;bit hash value for a string.">
<polygon fill="none" stroke="black" points="432.5,-360.5 432.5,-381.5 545.5,-381.5 545.5,-360.5 432.5,-360.5"/>
<text text-anchor="middle" x="489" y="-368.5" font-family="FreeSans" font-size="10.00">Urho3D::StringHash</text>
</a>
</g>
<!-- Node9&#45;&gt;Node2 -->
<g id="edge20" class="edge"><title>Node9&#45;&gt;Node2</title>
<path fill="none" stroke="#9a32cd" stroke-dasharray="5,2" d="M540.618,-384.089C594.325,-397.707 677.391,-418.771 727.155,-431.389"/>
<polygon fill="#9a32cd" stroke="#9a32cd" points="541.17,-380.618 530.616,-381.553 539.449,-387.403 541.17,-380.618"/>
<text text-anchor="middle" x="628" y="-422" font-family="FreeSans" font-size="10.00"> nameHash_</text>
</g>
<!-- Node9&#45;&gt;Node9 -->
<g id="edge22" class="edge"><title>Node9&#45;&gt;Node9</title>
<path fill="none" stroke="#9a32cd" stroke-dasharray="5,2" d="M464.674,-391.427C466.55,-396.349 474.659,-400 489,-400 511.945,-400 518.936,-390.653 509.973,-381.708"/>
<polygon fill="#9a32cd" stroke="#9a32cd" points="468.074,-392.303 468.027,-381.708 461.457,-390.02 468.074,-392.303"/>
<text text-anchor="middle" x="489" y="-404" font-family="FreeSans" font-size="10.00"> ZERO</text>
</g>
<!-- Node10 -->
<g id="node21" class="node"><title>Node10</title>
<a xlink:href="class_urho3_d_1_1_shared_ptr.html" target="_top" xlink:title="Urho3D::SharedPtr\&lt;\l Urho3D::Sprite2D \&gt;">
<polygon fill="none" stroke="black" points="1798,-318 1798,-352 1914,-352 1914,-318 1798,-318"/>
<text text-anchor="start" x="1806" y="-339" font-family="FreeSans" font-size="10.00">Urho3D::SharedPtr&lt;</text>
<text text-anchor="middle" x="1856" y="-326" font-family="FreeSans" font-size="10.00"> Urho3D::Sprite2D &gt;</text>
</a>
</g>
<!-- Node10&#45;&gt;Node1 -->
<g id="edge24" class="edge"><title>Node10&#45;&gt;Node1</title>
<path fill="none" stroke="#9a32cd" stroke-dasharray="5,2" d="M1905.51,-313.852C1945.16,-296.917 1999.11,-273.871 2030.18,-260.6"/>
<polygon fill="#9a32cd" stroke="#9a32cd" points="1904.09,-310.652 1896.27,-317.799 1906.84,-317.09 1904.09,-310.652"/>
<text text-anchor="middle" x="1950" y="-305" font-family="FreeSans" font-size="10.00"> sprite_</text>
</g>
<!-- Node11&#45;&gt;Node10 -->
<g id="edge26" class="edge"><title>Node11&#45;&gt;Node10</title>
<path fill="none" stroke="#9a32cd" stroke-dasharray="5,2" d="M1691.77,-384.504C1723.18,-375.036 1765.42,-362.303 1799.2,-352.121"/>
<polygon fill="#9a32cd" stroke="#9a32cd" points="1690.55,-381.218 1681.98,-387.455 1692.57,-387.92 1690.55,-381.218"/>
<text text-anchor="middle" x="1748" y="-380" font-family="FreeSans" font-size="10.00"> ptr_</text>
</g>
<!-- Node12 -->
<g id="node26" class="node"><title>Node12</title>
<a xlink:href="class_urho3_d_1_1_int_rect.html" target="_top" xlink:title="Two&#45;dimensional bounding rectangle with integer values.">
<polygon fill="none" stroke="black" points="1297,-632.5 1297,-653.5 1389,-653.5 1389,-632.5 1297,-632.5"/>
<text text-anchor="middle" x="1343" y="-640.5" font-family="FreeSans" font-size="10.00">Urho3D::IntRect</text>
</a>
</g>
<!-- Node12&#45;&gt;Node11 -->
<g id="edge30" class="edge"><title>Node12&#45;&gt;Node11</title>
<path fill="none" stroke="#9a32cd" stroke-dasharray="5,2" d="M1398.02,-629.55C1404.16,-627.571 1410.27,-625.385 1416,-623 1492.65,-591.109 1520.47,-589.852 1578,-530 1613.84,-492.716 1635.79,-433.122 1643.68,-408.833"/>
<polygon fill="#9a32cd" stroke="#9a32cd" points="1396.93,-626.224 1388.39,-632.489 1398.97,-632.919 1396.93,-626.224"/>
<text text-anchor="middle" x="1506" y="-618" font-family="FreeSans" font-size="10.00"> rectangle_</text>
</g>
<!-- Node12&#45;&gt;Node12 -->
<g id="edge32" class="edge"><title>Node12&#45;&gt;Node12</title>
<path fill="none" stroke="#9a32cd" stroke-dasharray="5,2" d="M1320.52,-663.427C1322.25,-668.349 1329.75,-672 1343,-672 1364.21,-672 1370.67,-662.653 1362.38,-653.708"/>
<polygon fill="#9a32cd" stroke="#9a32cd" points="1323.91,-664.299 1323.62,-653.708 1317.24,-662.172 1323.91,-664.299"/>
<text text-anchor="middle" x="1343" y="-676" font-family="FreeSans" font-size="10.00"> ZERO</text>
</g>
<!-- Node13 -->
<g id="node29" class="node"><title>Node13</title>
<a xlink:href="class_urho3_d_1_1_vector2.html" target="_top" xlink:title="Two&#45;dimensional vector.">
<polygon fill="none" stroke="black" points="1295,-496.5 1295,-517.5 1391,-517.5 1391,-496.5 1295,-496.5"/>
<text text-anchor="middle" x="1343" y="-504.5" font-family="FreeSans" font-size="10.00">Urho3D::Vector2</text>
</a>
</g>
<!-- Node13&#45;&gt;Node11 -->
<g id="edge34" class="edge"><title>Node13&#45;&gt;Node11</title>
<path fill="none" stroke="#9a32cd" stroke-dasharray="5,2" d="M1401.41,-512.663C1451.28,-514.831 1523.38,-511.453 1578,-482 1609.4,-465.07 1632.04,-427.353 1641.75,-408.771"/>
<polygon fill="#9a32cd" stroke="#9a32cd" points="1401.29,-509.152 1391.12,-512.124 1400.92,-516.142 1401.29,-509.152"/>
<text text-anchor="middle" x="1506" y="-517" font-family="FreeSans" font-size="10.00"> hotSpot_</text>
</g>
<!-- Node13&#45;&gt;Node13 -->
<g id="edge36" class="edge"><title>Node13&#45;&gt;Node13</title>
<path fill="none" stroke="#9a32cd" stroke-dasharray="5,2" d="M1320.52,-527.427C1322.25,-532.349 1329.75,-536 1343,-536 1364.21,-536 1370.67,-526.653 1362.38,-517.708"/>
<polygon fill="#9a32cd" stroke="#9a32cd" points="1323.91,-528.299 1323.62,-517.708 1317.24,-526.172 1323.91,-528.299"/>
<text text-anchor="middle" x="1343" y="-605" font-family="FreeSans" font-size="10.00"> ONE</text>
<text text-anchor="middle" x="1343" y="-592" font-family="FreeSans" font-size="10.00">DOWN</text>
<text text-anchor="middle" x="1343" y="-579" font-family="FreeSans" font-size="10.00">RIGHT</text>
<text text-anchor="middle" x="1343" y="-566" font-family="FreeSans" font-size="10.00">LEFT</text>
<text text-anchor="middle" x="1343" y="-553" font-family="FreeSans" font-size="10.00">ZERO</text>
<text text-anchor="middle" x="1343" y="-540" font-family="FreeSans" font-size="10.00">UP</text>
</g>
<!-- Node14 -->
<g id="node32" class="node"><title>Node14</title>
<a xlink:href="class_urho3_d_1_1_weak_ptr.html" target="_top" xlink:title="Urho3D::WeakPtr\&lt; Urho3D\l::SpriteSheet2D \&gt;">
<polygon fill="none" stroke="red" points="1270,-297 1270,-331 1416,-331 1416,-297 1270,-297"/>
<text text-anchor="start" x="1278" y="-318" font-family="FreeSans" font-size="10.00">Urho3D::WeakPtr&lt; Urho3D</text>
<text text-anchor="middle" x="1343" y="-305" font-family="FreeSans" font-size="10.00">::SpriteSheet2D &gt;</text>
</a>
</g>
<!-- Node14&#45;&gt;Node11 -->
<g id="edge38" class="edge"><title>Node14&#45;&gt;Node11</title>
<path fill="none" stroke="#9a32cd" stroke-dasharray="5,2" d="M1426.06,-306.966C1472.61,-306.245 1530.66,-310.869 1578,-332 1605.4,-344.229 1628.55,-372.159 1639.76,-387.474"/>
<polygon fill="#9a32cd" stroke="#9a32cd" points="1425.92,-303.468 1416,-307.206 1426.08,-310.466 1425.92,-303.468"/>
<text text-anchor="middle" x="1506" y="-336" font-family="FreeSans" font-size="10.00"> spriteSheet_</text>
</g>
<!-- Node15&#45;&gt;Node14 -->
<g id="edge40" class="edge"><title>Node15&#45;&gt;Node14</title>
<path fill="none" stroke="#9a32cd" stroke-dasharray="5,2" d="M1180.36,-314C1208.89,-314 1241.31,-314 1269.65,-314"/>
<polygon fill="#9a32cd" stroke="#9a32cd" points="1180.03,-310.5 1170.03,-314 1180.03,-317.5 1180.03,-310.5"/>
<text text-anchor="middle" x="1220" y="-318" font-family="FreeSans" font-size="10.00"> ptr_</text>
</g>
<!-- Node21 -->
<g id="node50" class="node"><title>Node21</title>
<a xlink:href="class_urho3_d_1_1_shared_ptr.html" target="_top" xlink:title="Urho3D::SharedPtr\&lt;\l Urho3D::SpriteSheet2D \&gt;">
<polygon fill="none" stroke="black" points="1434,-252 1434,-286 1578,-286 1578,-252 1434,-252"/>
<text text-anchor="start" x="1442" y="-273" font-family="FreeSans" font-size="10.00">Urho3D::SharedPtr&lt;</text>
<text text-anchor="middle" x="1506" y="-260" font-family="FreeSans" font-size="10.00"> Urho3D::SpriteSheet2D &gt;</text>
</a>
</g>
<!-- Node15&#45;&gt;Node21 -->
<g id="edge62" class="edge"><title>Node15&#45;&gt;Node21</title>
<path fill="none" stroke="#9a32cd" stroke-dasharray="5,2" d="M1162.57,-301.491C1171.08,-299.852 1179.75,-298.295 1188,-297 1271.91,-283.831 1369.31,-276.395 1433.99,-272.547"/>
<polygon fill="#9a32cd" stroke="#9a32cd" points="1161.83,-298.068 1152.7,-303.441 1163.19,-304.936 1161.83,-298.068"/>
<text text-anchor="middle" x="1220" y="-301" font-family="FreeSans" font-size="10.00"> ptr_</text>
</g>
<!-- Node16 -->
<g id="node37" class="node"><title>Node16</title>
<a xlink:href="class_urho3_d_1_1_hash_map.html" target="_top" xlink:title="Urho3D::HashMap\&lt; Urho3D\l::String, Urho3D::SharedPtr\l\&lt; Urho3D::Sprite2D \&gt; \&gt;">
<polygon fill="none" stroke="black" points="693,-313.5 693,-360.5 845,-360.5 845,-313.5 693,-313.5"/>
<text text-anchor="start" x="701" y="-347.5" font-family="FreeSans" font-size="10.00">Urho3D::HashMap&lt; Urho3D</text>
<text text-anchor="start" x="701" y="-334.5" font-family="FreeSans" font-size="10.00">::String, Urho3D::SharedPtr</text>
<text text-anchor="middle" x="769" y="-321.5" font-family="FreeSans" font-size="10.00">&lt; Urho3D::Sprite2D &gt; &gt;</text>
</a>
</g>
<!-- Node16&#45;&gt;Node15 -->
<g id="edge44" class="edge"><title>Node16&#45;&gt;Node15</title>
<path fill="none" stroke="#9a32cd" stroke-dasharray="5,2" d="M855.268,-316.156C858.206,-315.723 861.123,-315.335 864,-315 923.223,-308.108 991.188,-308.579 1039.81,-310.351"/>
<polygon fill="#9a32cd" stroke="#9a32cd" points="854.529,-312.73 845.22,-317.79 855.652,-319.64 854.529,-312.73"/>
<text text-anchor="middle" x="943" y="-319" font-family="FreeSans" font-size="10.00"> spriteMapping_</text>
</g>
<!-- Node17 -->
<g id="node39" class="node"><title>Node17</title>
<a xlink:href="class_urho3_d_1_1_hash_base.html" target="_top" xlink:title="Hash set/map base class.">
<polygon fill="none" stroke="red" points="435,-255.5 435,-276.5 543,-276.5 543,-255.5 435,-255.5"/>
<text text-anchor="middle" x="489" y="-263.5" font-family="FreeSans" font-size="10.00">Urho3D::HashBase</text>
</a>
</g>
<!-- Node17&#45;&gt;Node16 -->
<g id="edge46" class="edge"><title>Node17&#45;&gt;Node16</title>
<path fill="none" stroke="midnightblue" d="M531.938,-279.577C547.627,-284.366 565.555,-289.639 582,-294 618.224,-303.607 658.724,-313.074 692.746,-320.669"/>
<polygon fill="midnightblue" stroke="midnightblue" points="532.578,-276.112 521.99,-276.515 530.518,-282.802 532.578,-276.112"/>
</g>
<!-- Node25 -->
<g id="node60" class="node"><title>Node25</title>
<a xlink:href="class_urho3_d_1_1_hash_map.html" target="_top" xlink:title="Urho3D::HashMap\&lt; int,\l Urho3D::SharedPtr\&lt; Urho3D\l::Sprite2D \&gt; \&gt;">
<polygon fill="none" stroke="black" points="864,-207.5 864,-254.5 1022,-254.5 1022,-207.5 864,-207.5"/>
<text text-anchor="start" x="872" y="-241.5" font-family="FreeSans" font-size="10.00">Urho3D::HashMap&lt; int,</text>
<text text-anchor="start" x="872" y="-228.5" font-family="FreeSans" font-size="10.00"> Urho3D::SharedPtr&lt; Urho3D</text>
<text text-anchor="middle" x="943" y="-215.5" font-family="FreeSans" font-size="10.00">::Sprite2D &gt; &gt;</text>
</a>
</g>
<!-- Node17&#45;&gt;Node25 -->
<g id="edge74" class="edge"><title>Node17&#45;&gt;Node25</title>
<path fill="none" stroke="midnightblue" d="M553.457,-261.031C635.111,-254.736 775.777,-243.892 863.862,-237.101"/>
<polygon fill="midnightblue" stroke="midnightblue" points="553.013,-257.555 543.312,-261.813 553.552,-264.534 553.013,-257.555"/>
</g>
<!-- Node18 -->
<g id="node42" class="node"><title>Node18</title>
<a xlink:href="class_urho3_d_1_1_shared_ptr.html" target="_top" xlink:title="Urho3D::SharedPtr\&lt;\l Urho3D::XMLFile \&gt;">
<polygon fill="none" stroke="red" points="711,-261 711,-295 827,-295 827,-261 711,-261"/>
<text text-anchor="start" x="719" y="-282" font-family="FreeSans" font-size="10.00">Urho3D::SharedPtr&lt;</text>
<text text-anchor="middle" x="769" y="-269" font-family="FreeSans" font-size="10.00"> Urho3D::XMLFile &gt;</text>
</a>
</g>
<!-- Node18&#45;&gt;Node15 -->
<g id="edge50" class="edge"><title>Node18&#45;&gt;Node15</title>
<path fill="none" stroke="#9a32cd" stroke-dasharray="5,2" d="M837.373,-278.573C888.493,-279.842 959.962,-283.401 1022,-293 1037.72,-295.432 1054.8,-299.5 1069.35,-303.411"/>
<polygon fill="#9a32cd" stroke="#9a32cd" points="837.183,-275.067 827.107,-278.341 837.026,-282.066 837.183,-275.067"/>
<text text-anchor="middle" x="943" y="-297" font-family="FreeSans" font-size="10.00"> loadXMLFile_</text>
</g>
<!-- Node19 -->
<g id="node44" class="node"><title>Node19</title>
<a xlink:href="class_urho3_d_1_1_shared_ptr.html" target="_top" xlink:title="Urho3D::SharedPtr\&lt;\l Urho3D::Texture2D \&gt;">
<polygon fill="none" stroke="red" points="708,-379 708,-413 830,-413 830,-379 708,-379"/>
<text text-anchor="start" x="716" y="-400" font-family="FreeSans" font-size="10.00">Urho3D::SharedPtr&lt;</text>
<text text-anchor="middle" x="769" y="-387" font-family="FreeSans" font-size="10.00"> Urho3D::Texture2D &gt;</text>
</a>
</g>
<!-- Node19&#45;&gt;Node11 -->
<g id="edge58" class="edge"><title>Node19&#45;&gt;Node11</title>
<path fill="none" stroke="#9a32cd" stroke-dasharray="5,2" d="M840.218,-390.716C959.41,-382.615 1206.83,-368.962 1416,-378 1478.13,-380.685 1549.41,-387.414 1596.16,-392.327"/>
<polygon fill="#9a32cd" stroke="#9a32cd" points="839.863,-387.232 830.127,-391.41 840.343,-394.216 839.863,-387.232"/>
<text text-anchor="middle" x="1220" y="-393" font-family="FreeSans" font-size="10.00"> loadTexture_</text>
<text text-anchor="middle" x="1220" y="-380" font-family="FreeSans" font-size="10.00">texture_</text>
</g>
<!-- Node19&#45;&gt;Node15 -->
<g id="edge52" class="edge"><title>Node19&#45;&gt;Node15</title>
<path fill="none" stroke="#9a32cd" stroke-dasharray="5,2" d="M838.364,-374.456C840.992,-373.052 843.548,-371.568 846,-370 855.799,-363.732 853.674,-356.356 864,-351 926.993,-318.326 951.897,-339.013 1022,-328 1028.93,-326.911 1036.18,-325.739 1043.38,-324.552"/>
<polygon fill="#9a32cd" stroke="#9a32cd" points="836.654,-371.395 829.198,-378.922 839.721,-377.688 836.654,-371.395"/>
<text text-anchor="middle" x="943" y="-355" font-family="FreeSans" font-size="10.00"> texture_</text>
</g>
<!-- Node20 -->
<g id="node46" class="node"><title>Node20</title>
<a xlink:href="class_urho3_d_1_1_int_vector2.html" target="_top" xlink:title="Two&#45;dimensional vector with integer values.">
<polygon fill="none" stroke="black" points="1289,-387.5 1289,-408.5 1397,-408.5 1397,-387.5 1289,-387.5"/>
<text text-anchor="middle" x="1343" y="-395.5" font-family="FreeSans" font-size="10.00">Urho3D::IntVector2</text>
</a>
</g>
<!-- Node20&#45;&gt;Node11 -->
<g id="edge54" class="edge"><title>Node20&#45;&gt;Node11</title>
<path fill="none" stroke="#9a32cd" stroke-dasharray="5,2" d="M1407.56,-398C1463.84,-398 1544.35,-398 1596.15,-398"/>
<polygon fill="#9a32cd" stroke="#9a32cd" points="1407.35,-394.5 1397.35,-398 1407.35,-401.5 1407.35,-394.5"/>
<text text-anchor="middle" x="1506" y="-402" font-family="FreeSans" font-size="10.00"> offset_</text>
</g>
<!-- Node20&#45;&gt;Node20 -->
<g id="edge56" class="edge"><title>Node20&#45;&gt;Node20</title>
<path fill="none" stroke="#9a32cd" stroke-dasharray="5,2" d="M1320.52,-418.427C1322.25,-423.349 1329.75,-427 1343,-427 1364.21,-427 1370.67,-417.653 1362.38,-408.708"/>
<polygon fill="#9a32cd" stroke="#9a32cd" points="1323.91,-419.299 1323.62,-408.708 1317.24,-417.172 1323.91,-419.299"/>
<text text-anchor="middle" x="1343" y="-431" font-family="FreeSans" font-size="10.00"> ZERO</text>
</g>
<!-- Node21&#45;&gt;Node1 -->
<g id="edge60" class="edge"><title>Node21&#45;&gt;Node1</title>
<path fill="none" stroke="#9a32cd" stroke-dasharray="5,2" d="M1588.27,-266.153C1696.47,-262.408 1884.68,-255.894 1985.89,-252.392"/>
<polygon fill="#9a32cd" stroke="#9a32cd" points="1587.93,-262.662 1578.05,-266.506 1588.17,-269.658 1587.93,-262.662"/>
<text text-anchor="middle" x="1748" y="-266" font-family="FreeSans" font-size="10.00"> spriteSheet_</text>
</g>
<!-- Node22&#45;&gt;Node1 -->
<g id="edge64" class="edge"><title>Node22&#45;&gt;Node1</title>
<path fill="none" stroke="#9a32cd" stroke-dasharray="5,2" d="M855.899,-83.01C923.712,-87.1842 1020.3,-92 1105,-92 1105,-92 1105,-92 1856,-92 1908.86,-92 1925.58,-100.466 1968,-132 2008.44,-162.066 2038.37,-216.212 2049.85,-239.203"/>
<polygon fill="#9a32cd" stroke="#9a32cd" points="855.887,-79.5026 845.689,-82.373 855.452,-86.489 855.887,-79.5026"/>
<text text-anchor="middle" x="1506" y="-96" font-family="FreeSans" font-size="10.00"> spriterData_</text>
</g>
<!-- Node23 -->
<g id="node55" class="node"><title>Node23</title>
<a xlink:href="class_urho3_d_1_1_p_o_d_vector.html" target="_top" xlink:title="Urho3D::PODVector\&lt;\l Urho3D::Spriter::Entity * \&gt;">
<polygon fill="none" stroke="red" points="415.5,-52 415.5,-86 562.5,-86 562.5,-52 415.5,-52"/>
<text text-anchor="start" x="423.5" y="-73" font-family="FreeSans" font-size="10.00">Urho3D::PODVector&lt;</text>
<text text-anchor="middle" x="489" y="-60" font-family="FreeSans" font-size="10.00"> Urho3D::Spriter::Entity * &gt;</text>
</a>
</g>
<!-- Node23&#45;&gt;Node22 -->
<g id="edge66" class="edge"><title>Node23&#45;&gt;Node22</title>
<path fill="none" stroke="#9a32cd" stroke-dasharray="5,2" d="M572.955,-68.2456C604.633,-68.2785 640.986,-68.696 674,-70 679.949,-70.235 686.103,-70.5423 692.288,-70.897"/>
<polygon fill="#9a32cd" stroke="#9a32cd" points="572.844,-64.7455 562.845,-68.2478 572.845,-71.7455 572.844,-64.7455"/>
<text text-anchor="middle" x="628" y="-74" font-family="FreeSans" font-size="10.00"> entities_</text>
</g>
<!-- Node24 -->
<g id="node57" class="node"><title>Node24</title>
<a xlink:href="class_urho3_d_1_1_p_o_d_vector.html" target="_top" xlink:title="Urho3D::PODVector\&lt;\l Urho3D::Spriter::Folder * \&gt;">
<polygon fill="none" stroke="red" points="414.5,-0 414.5,-34 563.5,-34 563.5,-0 414.5,-0"/>
<text text-anchor="start" x="422.5" y="-21" font-family="FreeSans" font-size="10.00">Urho3D::PODVector&lt;</text>
<text text-anchor="middle" x="489" y="-8" font-family="FreeSans" font-size="10.00"> Urho3D::Spriter::Folder * &gt;</text>
</a>
</g>
<!-- Node24&#45;&gt;Node22 -->
<g id="edge68" class="edge"><title>Node24&#45;&gt;Node22</title>
<path fill="none" stroke="#9a32cd" stroke-dasharray="5,2" d="M573.603,-31.7124C605.209,-37.5479 641.345,-44.6239 674,-52 692.964,-56.2837 713.877,-61.7098 731.243,-66.4114"/>
<polygon fill="#9a32cd" stroke="#9a32cd" points="573.978,-28.2229 563.511,-29.8625 572.716,-35.1081 573.978,-28.2229"/>
<text text-anchor="middle" x="628" y="-56" font-family="FreeSans" font-size="10.00"> folders_</text>
</g>
<!-- Node25&#45;&gt;Node1 -->
<g id="edge72" class="edge"><title>Node25&#45;&gt;Node1</title>
<path fill="none" stroke="#9a32cd" stroke-dasharray="5,2" d="M1032.38,-231C1086.65,-231 1157.31,-231 1220,-231 1220,-231 1220,-231 1856,-231 1899.21,-231 1947.46,-235.494 1985.62,-240.11"/>
<polygon fill="#9a32cd" stroke="#9a32cd" points="1032.1,-227.5 1022.1,-231 1032.1,-234.5 1032.1,-227.5"/>
<text text-anchor="middle" x="1506" y="-235" font-family="FreeSans" font-size="10.00"> spriterFileSprites_</text>
</g>
</g>
</svg>
