<?xml version="1.0" encoding="UTF-8" standalone="no"?>
<!DOCTYPE svg PUBLIC "-//W3C//DTD SVG 1.1//EN"
 "http://www.w3.org/Graphics/SVG/1.1/DTD/svg11.dtd">
<!-- Generated by graphviz version 2.26.3 (20100126.1600)
 -->
<!-- Title: rapidjson::GenericValue::HasMember Pages: 1 -->
<svg width="594pt" height="172pt"
 viewBox="0.00 0.00 594.00 172.00" xmlns="http://www.w3.org/2000/svg" xmlns:xlink="http://www.w3.org/1999/xlink">
<g id="graph1" class="graph" transform="scale(1 1) rotate(0) translate(4 168)">
<title>rapidjson::GenericValue::HasMember</title>
<!-- Node1 -->
<g id="node1" class="node"><title>Node1</title>
<polygon fill="#bfbfbf" stroke="black" points="0.5,-52 0.5,-86 129.5,-86 129.5,-52 0.5,-52"/>
<text text-anchor="start" x="8.5" y="-73" font-family="FreeSans" font-size="10.00">rapidjson::GenericValue</text>
<text text-anchor="middle" x="65" y="-60" font-family="FreeSans" font-size="10.00">::HasMember</text>
</g>
<!-- Node2 -->
<g id="node3" class="node"><title>Node2</title>
<a xlink:href="class_urho3_d_1_1_j_s_o_n_value.html#ab66a989a8473f6a974a3e281ef1f8a1e" target="_top" xlink:title="Return a child value by name. Return null if not exist.">
<polygon fill="none" stroke="black" points="166,-52 166,-86 282,-86 282,-52 166,-52"/>
<text text-anchor="start" x="174" y="-73" font-family="FreeSans" font-size="10.00">Urho3D::JSONValue::</text>
<text text-anchor="middle" x="224" y="-60" font-family="FreeSans" font-size="10.00">GetChild</text>
</a>
</g>
<!-- Node1&#45;&gt;Node2 -->
<g id="edge2" class="edge"><title>Node1&#45;&gt;Node2</title>
<path fill="none" stroke="midnightblue" d="M139.84,-69C148.552,-69 157.34,-69 165.782,-69"/>
<polygon fill="midnightblue" stroke="midnightblue" points="139.671,-65.5001 129.671,-69 139.671,-72.5001 139.671,-65.5001"/>
</g>
<!-- Node3 -->
<g id="node5" class="node"><title>Node3</title>
<a xlink:href="class_urho3_d_1_1_j_s_o_n_value.html#a35617f7fb889e765396a94c273e1429b" target="_top" xlink:title="Create a child value.">
<polygon fill="none" stroke="black" points="318,-104 318,-138 434,-138 434,-104 318,-104"/>
<text text-anchor="start" x="326" y="-125" font-family="FreeSans" font-size="10.00">Urho3D::JSONValue::</text>
<text text-anchor="middle" x="376" y="-112" font-family="FreeSans" font-size="10.00">CreateChild</text>
</a>
</g>
<!-- Node2&#45;&gt;Node3 -->
<g id="edge4" class="edge"><title>Node2&#45;&gt;Node3</title>
<path fill="none" stroke="midnightblue" d="M283.399,-89.3205C297.528,-94.1545 312.463,-99.2638 326.118,-103.935"/>
<polygon fill="midnightblue" stroke="midnightblue" points="284.365,-85.9521 273.77,-86.0267 282.099,-92.5753 284.365,-85.9521"/>
</g>
<!-- Node6 -->
<g id="node11" class="node"><title>Node6</title>
<a xlink:href="class_urho3_d_1_1_j_s_o_n_value.html#a33ecc2f7f60fa9097f2521ea6e887bdf" target="_top" xlink:title="Return variant.">
<polygon fill="none" stroke="black" points="318,-52 318,-86 434,-86 434,-52 318,-52"/>
<text text-anchor="start" x="326" y="-73" font-family="FreeSans" font-size="10.00">Urho3D::JSONValue::</text>
<text text-anchor="middle" x="376" y="-60" font-family="FreeSans" font-size="10.00">GetVariant</text>
</a>
</g>
<!-- Node2&#45;&gt;Node6 -->
<g id="edge10" class="edge"><title>Node2&#45;&gt;Node6</title>
<path fill="none" stroke="midnightblue" d="M292.542,-69C300.986,-69 309.554,-69 317.824,-69"/>
<polygon fill="midnightblue" stroke="midnightblue" points="292.332,-65.5001 282.332,-69 292.332,-72.5001 292.332,-65.5001"/>
</g>
<!-- Node7 -->
<g id="node13" class="node"><title>Node7</title>
<a xlink:href="class_urho3_d_1_1_localization.html#a1cdb72266155e8403b1120d96c202ce5" target="_top" xlink:title="Load strings from JSONValue.">
<polygon fill="none" stroke="black" points="318,-0 318,-34 434,-34 434,-0 318,-0"/>
<text text-anchor="start" x="326" y="-21" font-family="FreeSans" font-size="10.00">Urho3D::Localization</text>
<text text-anchor="middle" x="376" y="-8" font-family="FreeSans" font-size="10.00">::LoadJSON</text>
</a>
</g>
<!-- Node2&#45;&gt;Node7 -->
<g id="edge12" class="edge"><title>Node2&#45;&gt;Node7</title>
<path fill="none" stroke="midnightblue" d="M283.399,-48.6795C297.528,-43.8455 312.463,-38.7362 326.118,-34.065"/>
<polygon fill="midnightblue" stroke="midnightblue" points="282.099,-45.4247 273.77,-51.9733 284.365,-52.0479 282.099,-45.4247"/>
</g>
<!-- Node4 -->
<g id="node7" class="node"><title>Node4</title>
<a xlink:href="class_urho3_d_1_1_j_s_o_n_value.html#a8fb1a5e60adb25e2d72b5629f33645e4" target="_top" xlink:title="Set variant (include type).">
<polygon fill="none" stroke="black" points="470,-130 470,-164 586,-164 586,-130 470,-130"/>
<text text-anchor="start" x="478" y="-151" font-family="FreeSans" font-size="10.00">Urho3D::JSONValue::</text>
<text text-anchor="middle" x="528" y="-138" font-family="FreeSans" font-size="10.00">SetVariant</text>
</a>
</g>
<!-- Node3&#45;&gt;Node4 -->
<g id="edge6" class="edge"><title>Node3&#45;&gt;Node4</title>
<path fill="none" stroke="midnightblue" d="M444.264,-132.677C452.798,-134.136 461.463,-135.619 469.824,-137.049"/>
<polygon fill="midnightblue" stroke="midnightblue" points="444.779,-129.214 434.332,-130.978 443.599,-136.114 444.779,-129.214"/>
</g>
<!-- Node5 -->
<g id="node9" class="node"><title>Node5</title>
<a xlink:href="class_urho3_d_1_1_j_s_o_n_value.html#a35d49592799512e0ca875e8470b0fc4f" target="_top" xlink:title="Add variant.">
<polygon fill="none" stroke="black" points="470,-78 470,-112 586,-112 586,-78 470,-78"/>
<text text-anchor="start" x="478" y="-99" font-family="FreeSans" font-size="10.00">Urho3D::JSONValue::</text>
<text text-anchor="middle" x="528" y="-86" font-family="FreeSans" font-size="10.00">AddVariant</text>
</a>
</g>
<!-- Node3&#45;&gt;Node5 -->
<g id="edge8" class="edge"><title>Node3&#45;&gt;Node5</title>
<path fill="none" stroke="midnightblue" d="M444.264,-109.323C452.798,-107.864 461.463,-106.381 469.824,-104.951"/>
<polygon fill="midnightblue" stroke="midnightblue" points="443.599,-105.886 434.332,-111.022 444.779,-112.786 443.599,-105.886"/>
</g>
<!-- Node8 -->
<g id="node15" class="node"><title>Node8</title>
<a xlink:href="class_urho3_d_1_1_localization.html#a358bcf9a35c4c6e31425df41bbc10e9f" target="_top" xlink:title="Load strings from JSONFile. The file should be UTF8 without BOM.">
<polygon fill="none" stroke="black" points="470,-0 470,-34 586,-34 586,-0 470,-0"/>
<text text-anchor="start" x="478" y="-21" font-family="FreeSans" font-size="10.00">Urho3D::Localization</text>
<text text-anchor="middle" x="528" y="-8" font-family="FreeSans" font-size="10.00">::LoadJSONFile</text>
</a>
</g>
<!-- Node7&#45;&gt;Node8 -->
<g id="edge14" class="edge"><title>Node7&#45;&gt;Node8</title>
<path fill="none" stroke="midnightblue" d="M444.542,-17C452.986,-17 461.554,-17 469.824,-17"/>
<polygon fill="midnightblue" stroke="midnightblue" points="444.332,-13.5001 434.332,-17 444.332,-20.5001 444.332,-13.5001"/>
</g>
</g>
</svg>
