<?xml version="1.0" encoding="UTF-8" standalone="no"?>
<!DOCTYPE svg PUBLIC "-//W3C//DTD SVG 1.1//EN"
 "http://www.w3.org/Graphics/SVG/1.1/DTD/svg11.dtd">
<!-- Generated by graphviz version 2.26.3 (20100126.1600)
 -->
<!-- Title: Urho3D::PListValue Pages: 1 -->
<svg width="448pt" height="362pt"
 viewBox="0.00 0.00 448.00 362.00" xmlns="http://www.w3.org/2000/svg" xmlns:xlink="http://www.w3.org/1999/xlink">
<g id="graph1" class="graph" transform="scale(1 1) rotate(0) translate(4 358)">
<title>Urho3D::PListValue</title>
<!-- Node1 -->
<g id="node1" class="node"><title>Node1</title>
<polygon fill="#bfbfbf" stroke="black" points="155,-0.5 155,-21.5 263,-21.5 263,-0.5 155,-0.5"/>
<text text-anchor="middle" x="209" y="-8.5" font-family="FreeSans" font-size="10.00">Urho3D::PListValue</text>
</g>
<!-- Node2 -->
<g id="node2" class="node"><title>Node2</title>
<a xlink:href="class_urho3_d_1_1_vector.html" target="_top" xlink:title="Vector template class.">
<polygon fill="none" stroke="black" points="0,-79.5 0,-100.5 118,-100.5 118,-79.5 0,-79.5"/>
<text text-anchor="middle" x="59" y="-87.5" font-family="FreeSans" font-size="10.00">Urho3D::Vector&lt; T &gt;</text>
</a>
</g>
<!-- Node2&#45;&gt;Node1 -->
<g id="edge2" class="edge"><title>Node2&#45;&gt;Node1</title>
<path fill="none" stroke="#9a32cd" stroke-dasharray="5,2" d="M83.0329,-73.7979C98.8554,-63.4765 120.225,-50.1809 140,-40 153.17,-33.2193 168.294,-26.7269 181.019,-21.6106"/>
<polygon fill="#9a32cd" stroke="#9a32cd" points="80.8318,-71.057 74.412,-79.4853 84.6866,-76.9 80.8318,-71.057"/>
<text text-anchor="middle" x="172.5" y="-44.5" font-family="FreeSans" font-size="10.00"> valueVector_</text>
</g>
<!-- Node3 -->
<g id="node4" class="node"><title>Node3</title>
<a xlink:href="class_urho3_d_1_1_vector_base.html" target="_top" xlink:title="Vector base class.">
<polygon fill="none" stroke="black" points="2,-146.5 2,-167.5 116,-167.5 116,-146.5 2,-146.5"/>
<text text-anchor="middle" x="59" y="-154.5" font-family="FreeSans" font-size="10.00">Urho3D::VectorBase</text>
</a>
</g>
<!-- Node3&#45;&gt;Node2 -->
<g id="edge4" class="edge"><title>Node3&#45;&gt;Node2</title>
<path fill="none" stroke="midnightblue" d="M59,-135.904C59,-124.127 59,-109.967 59,-100.517"/>
<polygon fill="midnightblue" stroke="midnightblue" points="55.5001,-136.235 59,-146.235 62.5001,-136.235 55.5001,-136.235"/>
</g>
<!-- Node4 -->
<g id="node6" class="node"><title>Node4</title>
<a xlink:href="class_urho3_d_1_1_hash_map.html" target="_top" xlink:title="Urho3D::HashMap\&lt; String,\l PListValue \&gt;">
<polygon fill="none" stroke="black" points="135.5,-73 135.5,-107 282.5,-107 282.5,-73 135.5,-73"/>
<text text-anchor="start" x="143.5" y="-94" font-family="FreeSans" font-size="10.00">Urho3D::HashMap&lt; String,</text>
<text text-anchor="middle" x="209" y="-81" font-family="FreeSans" font-size="10.00"> PListValue &gt;</text>
</a>
</g>
<!-- Node4&#45;&gt;Node1 -->
<g id="edge6" class="edge"><title>Node4&#45;&gt;Node1</title>
<path fill="none" stroke="#9a32cd" stroke-dasharray="5,2" d="M209,-62.6228C209,-48.4727 209,-32.0243 209,-21.5672"/>
<polygon fill="#9a32cd" stroke="#9a32cd" points="205.5,-62.8581 209,-72.8582 212.5,-62.8582 205.5,-62.8581"/>
<text text-anchor="middle" x="236.5" y="-44.5" font-family="FreeSans" font-size="10.00"> valueMap_</text>
</g>
<!-- Node5 -->
<g id="node8" class="node"><title>Node5</title>
<a xlink:href="class_urho3_d_1_1_hash_base.html" target="_top" xlink:title="Hash set/map base class.">
<polygon fill="none" stroke="black" points="155,-146.5 155,-167.5 263,-167.5 263,-146.5 155,-146.5"/>
<text text-anchor="middle" x="209" y="-154.5" font-family="FreeSans" font-size="10.00">Urho3D::HashBase</text>
</a>
</g>
<!-- Node5&#45;&gt;Node4 -->
<g id="edge8" class="edge"><title>Node5&#45;&gt;Node4</title>
<path fill="none" stroke="midnightblue" d="M209,-136.165C209,-126.797 209,-115.88 209,-107.014"/>
<polygon fill="midnightblue" stroke="midnightblue" points="205.5,-136.235 209,-146.235 212.5,-136.235 205.5,-136.235"/>
</g>
<!-- Node6 -->
<g id="node10" class="node"><title>Node6</title>
<a xlink:href="struct_urho3_d_1_1_hash_node_base.html" target="_top" xlink:title="Hash set/map node base class.">
<polygon fill="none" stroke="black" points="7,-252.5 7,-273.5 141,-273.5 141,-252.5 7,-252.5"/>
<text text-anchor="middle" x="74" y="-260.5" font-family="FreeSans" font-size="10.00">Urho3D::HashNodeBase</text>
</a>
</g>
<!-- Node6&#45;&gt;Node5 -->
<g id="edge10" class="edge"><title>Node6&#45;&gt;Node5</title>
<path fill="none" stroke="#9a32cd" stroke-dasharray="5,2" d="M95.4719,-246.141C123.633,-224.029 172.205,-185.891 195.616,-167.509"/>
<polygon fill="#9a32cd" stroke="#9a32cd" points="93.1416,-243.52 87.4379,-252.449 97.4646,-249.026 93.1416,-243.52"/>
<text text-anchor="middle" x="185" y="-216.5" font-family="FreeSans" font-size="10.00"> ptrs_</text>
<text text-anchor="middle" x="185" y="-203.5" font-family="FreeSans" font-size="10.00">tail_</text>
<text text-anchor="middle" x="185" y="-190.5" font-family="FreeSans" font-size="10.00">head_</text>
</g>
<!-- Node6&#45;&gt;Node6 -->
<g id="edge12" class="edge"><title>Node6&#45;&gt;Node6</title>
<path fill="none" stroke="#9a32cd" stroke-dasharray="5,2" d="M151.188,-268.804C156.061,-267.439 159,-265.505 159,-263 159,-259.09 151.84,-256.57 141.337,-255.439"/>
<polygon fill="#9a32cd" stroke="#9a32cd" points="150.567,-265.359 141.337,-270.561 151.796,-272.25 150.567,-265.359"/>
<text text-anchor="middle" x="174.5" y="-273.5" font-family="FreeSans" font-size="10.00"> next_</text>
<text text-anchor="middle" x="174.5" y="-260.5" font-family="FreeSans" font-size="10.00">prev_</text>
<text text-anchor="middle" x="174.5" y="-247.5" font-family="FreeSans" font-size="10.00">down_</text>
</g>
<!-- Node7 -->
<g id="node13" class="node"><title>Node7</title>
<a xlink:href="struct_urho3_d_1_1_allocator_block.html" target="_top" xlink:title="Allocator memory block.">
<polygon fill="none" stroke="black" points="207.5,-252.5 207.5,-273.5 334.5,-273.5 334.5,-252.5 207.5,-252.5"/>
<text text-anchor="middle" x="271" y="-260.5" font-family="FreeSans" font-size="10.00">Urho3D::AllocatorBlock</text>
</a>
</g>
<!-- Node7&#45;&gt;Node5 -->
<g id="edge14" class="edge"><title>Node7&#45;&gt;Node5</title>
<path fill="none" stroke="#9a32cd" stroke-dasharray="5,2" d="M259.768,-243.797C246.681,-221.422 225.528,-185.257 215.147,-167.509"/>
<polygon fill="#9a32cd" stroke="#9a32cd" points="256.758,-245.584 264.829,-252.449 262.801,-242.05 256.758,-245.584"/>
<text text-anchor="middle" x="275" y="-203.5" font-family="FreeSans" font-size="10.00"> allocator_</text>
</g>
<!-- Node7&#45;&gt;Node7 -->
<g id="edge16" class="edge"><title>Node7&#45;&gt;Node7</title>
<path fill="none" stroke="#9a32cd" stroke-dasharray="5,2" d="M344.597,-268.791C349.216,-267.428 352,-265.498 352,-263 352,-259.004 344.873,-256.46 334.504,-255.367"/>
<polygon fill="#9a32cd" stroke="#9a32cd" points="343.713,-265.395 334.504,-270.633 344.97,-272.281 343.713,-265.395"/>
<text text-anchor="middle" x="367" y="-260.5" font-family="FreeSans" font-size="10.00"> next_</text>
</g>
<!-- Node8 -->
<g id="node16" class="node"><title>Node8</title>
<a xlink:href="struct_urho3_d_1_1_allocator_node.html" target="_top" xlink:title="Allocator node.">
<polygon fill="none" stroke="black" points="207.5,-332.5 207.5,-353.5 334.5,-353.5 334.5,-332.5 207.5,-332.5"/>
<text text-anchor="middle" x="271" y="-340.5" font-family="FreeSans" font-size="10.00">Urho3D::AllocatorNode</text>
</a>
</g>
<!-- Node8&#45;&gt;Node7 -->
<g id="edge18" class="edge"><title>Node8&#45;&gt;Node7</title>
<path fill="none" stroke="#9a32cd" stroke-dasharray="5,2" d="M271,-321.958C271,-306.413 271,-285.897 271,-273.618"/>
<polygon fill="#9a32cd" stroke="#9a32cd" points="267.5,-322.211 271,-332.211 274.5,-322.211 267.5,-322.211"/>
<text text-anchor="middle" x="285" y="-304.5" font-family="FreeSans" font-size="10.00"> free_</text>
</g>
<!-- Node8&#45;&gt;Node8 -->
<g id="edge20" class="edge"><title>Node8&#45;&gt;Node8</title>
<path fill="none" stroke="#9a32cd" stroke-dasharray="5,2" d="M344.597,-347.738C349.216,-346.623 352,-345.043 352,-343 352,-339.73 344.873,-337.649 334.504,-336.755"/>
<polygon fill="#9a32cd" stroke="#9a32cd" points="343.877,-344.307 334.504,-349.245 344.911,-351.23 343.877,-344.307"/>
<text text-anchor="middle" x="367" y="-340.5" font-family="FreeSans" font-size="10.00"> next_</text>
</g>
<!-- Node9 -->
<g id="node19" class="node"><title>Node9</title>
<a xlink:href="class_urho3_d_1_1_string.html" target="_top" xlink:title="String class.">
<polygon fill="none" stroke="black" points="300,-79.5 300,-100.5 388,-100.5 388,-79.5 300,-79.5"/>
<text text-anchor="middle" x="344" y="-87.5" font-family="FreeSans" font-size="10.00">Urho3D::String</text>
</a>
</g>
<!-- Node9&#45;&gt;Node1 -->
<g id="edge22" class="edge"><title>Node9&#45;&gt;Node1</title>
<path fill="none" stroke="#9a32cd" stroke-dasharray="5,2" d="M320.687,-73.5698C305.888,-63.416 286.167,-50.3868 268,-40 256.407,-33.372 243.087,-26.7449 232.04,-21.5024"/>
<polygon fill="#9a32cd" stroke="#9a32cd" points="318.994,-76.6548 329.208,-79.4711 322.98,-70.9001 318.994,-76.6548"/>
<text text-anchor="middle" x="308" y="-44.5" font-family="FreeSans" font-size="10.00"> string_</text>
</g>
<!-- Node9&#45;&gt;Node9 -->
<g id="edge24" class="edge"><title>Node9&#45;&gt;Node9</title>
<path fill="none" stroke="#9a32cd" stroke-dasharray="5,2" d="M398.258,-95.3037C403.019,-94.1849 406,-92.417 406,-90 406,-86.1328 398.369,-83.9273 388.024,-83.3835"/>
<polygon fill="#9a32cd" stroke="#9a32cd" points="397.498,-91.8724 388.024,-96.6165 398.389,-98.8155 397.498,-91.8724"/>
<text text-anchor="middle" x="423" y="-87.5" font-family="FreeSans" font-size="10.00"> EMPTY</text>
</g>
</g>
</svg>
