<?xml version="1.0" encoding="UTF-8" standalone="no"?>
<!DOCTYPE svg PUBLIC "-//W3C//DTD SVG 1.1//EN"
 "http://www.w3.org/Graphics/SVG/1.1/DTD/svg11.dtd">
<!-- Generated by graphviz version 2.26.3 (20100126.1600)
 -->
<!-- Title: Urho3D::Spline::BezierInterpolation Pages: 1 -->
<svg width="570pt" height="109pt"
 viewBox="0.00 0.00 570.00 109.00" xmlns="http://www.w3.org/2000/svg" xmlns:xlink="http://www.w3.org/1999/xlink">
<g id="graph1" class="graph" transform="scale(1 1) rotate(0) translate(4 105)">
<title>Urho3D::Spline::BezierInterpolation</title>
<!-- Node1 -->
<g id="node1" class="node"><title>Node1</title>
<polygon fill="#bfbfbf" stroke="black" points="0.5,-40.5 0.5,-61.5 185.5,-61.5 185.5,-40.5 0.5,-40.5"/>
<text text-anchor="middle" x="93" y="-48.5" font-family="FreeSans" font-size="10.00">Urho3D::Spline::BezierInterpolation</text>
</g>
<!-- Node2 -->
<g id="node3" class="node"><title>Node2</title>
<a xlink:href="class_urho3_d_1_1_vector.html#a06762e9e70b9851f54a845555f28cd4b" target="_top" xlink:title="Return size of vector.">
<polygon fill="none" stroke="black" points="444,-79.5 444,-100.5 560,-100.5 560,-79.5 444,-79.5"/>
<text text-anchor="middle" x="502" y="-87.5" font-family="FreeSans" font-size="10.00">Urho3D::Vector::Size</text>
</a>
</g>
<!-- Node1&#45;&gt;Node2 -->
<g id="edge2" class="edge"><title>Node1&#45;&gt;Node2</title>
<path fill="none" stroke="midnightblue" d="M153.884,-61.5414C175.356,-64.9664 199.701,-68.5195 222,-71 294.027,-79.0123 376.88,-84.1281 433.663,-87.0084"/>
<polygon fill="midnightblue" stroke="midnightblue" points="433.793,-90.5191 443.954,-87.5204 434.141,-83.5277 433.793,-90.5191"/>
</g>
<!-- Node3 -->
<g id="node5" class="node"><title>Node3</title>
<a xlink:href="class_urho3_d_1_1_spline.html#aeecb9658c0ef3f5c6b31adfacefc8e97" target="_top" xlink:title="Perform linear interpolation on the spline.">
<polygon fill="none" stroke="black" points="222,-40.5 222,-61.5 406,-61.5 406,-40.5 222,-40.5"/>
<text text-anchor="middle" x="314" y="-48.5" font-family="FreeSans" font-size="10.00">Urho3D::Spline::LinearInterpolation</text>
</a>
</g>
<!-- Node1&#45;&gt;Node3 -->
<g id="edge4" class="edge"><title>Node1&#45;&gt;Node3</title>
<path fill="none" stroke="midnightblue" d="M185.763,-51C194.338,-51 203.06,-51 211.713,-51"/>
<polygon fill="midnightblue" stroke="midnightblue" points="211.828,-54.5001 221.828,-51 211.828,-47.5001 211.828,-54.5001"/>
</g>
<!-- Node5 -->
<g id="node10" class="node"><title>Node5</title>
<a xlink:href="class_urho3_d_1_1_vector.html#a083b39861b996df82f811a9a4ebff109" target="_top" xlink:title="Add an element at the end.">
<polygon fill="none" stroke="black" points="254.5,-0.5 254.5,-21.5 373.5,-21.5 373.5,-0.5 254.5,-0.5"/>
<text text-anchor="middle" x="314" y="-8.5" font-family="FreeSans" font-size="10.00">Urho3D::Vector::Push</text>
</a>
</g>
<!-- Node1&#45;&gt;Node5 -->
<g id="edge10" class="edge"><title>Node1&#45;&gt;Node5</title>
<path fill="none" stroke="midnightblue" d="M151.065,-40.4905C180.135,-35.229 215.507,-28.8268 245.856,-23.3338"/>
<polygon fill="midnightblue" stroke="midnightblue" points="246.723,-26.7339 255.939,-21.5087 245.476,-19.8458 246.723,-26.7339"/>
</g>
<!-- Node3&#45;&gt;Node2 -->
<g id="edge6" class="edge"><title>Node3&#45;&gt;Node2</title>
<path fill="none" stroke="midnightblue" d="M364.876,-61.554C388.387,-66.4314 416.494,-72.2621 441.123,-77.3713"/>
<polygon fill="midnightblue" stroke="midnightblue" points="440.581,-80.8333 451.084,-79.4376 442.003,-73.9793 440.581,-80.8333"/>
</g>
<!-- Node4 -->
<g id="node8" class="node"><title>Node4</title>
<a xlink:href="class_urho3_d_1_1_vector.html#a0d42dd722113dc655b16878841abe0f6" target="_top" xlink:title="Return last element.">
<polygon fill="none" stroke="black" points="442.5,-39.5 442.5,-60.5 561.5,-60.5 561.5,-39.5 442.5,-39.5"/>
<text text-anchor="middle" x="502" y="-47.5" font-family="FreeSans" font-size="10.00">Urho3D::Vector::Back</text>
</a>
</g>
<!-- Node3&#45;&gt;Node4 -->
<g id="edge8" class="edge"><title>Node3&#45;&gt;Node4</title>
<path fill="none" stroke="midnightblue" d="M406.072,-50.5103C414.869,-50.4635 423.689,-50.4165 432.222,-50.3712"/>
<polygon fill="midnightblue" stroke="midnightblue" points="432.488,-53.8699 442.469,-50.3167 432.45,-46.87 432.488,-53.8699"/>
</g>
</g>
</svg>
