<?xml version="1.0" encoding="UTF-8" standalone="no"?>
<!DOCTYPE svg PUBLIC "-//W3C//DTD SVG 1.1//EN"
 "http://www.w3.org/Graphics/SVG/1.1/DTD/svg11.dtd">
<!-- Generated by graphviz version 2.26.3 (20100126.1600)
 -->
<!-- Title: Urho3D::JSONFile Pages: 1 -->
<!--zoomable 976 -->
<svg id="main" version="1.1" xmlns="http://www.w3.org/2000/svg" xmlns:xlink="http://www.w3.org/1999/xlink" xml:space="preserve" onload="init(evt)">
        <defs>
                <circle id="rim" cx="0" cy="0" r="7"/>
                <circle id="rim2" cx="0" cy="0" r="3.5"/>
                <g id="zoomPlus">
                        <use xlink:href="#rim" fill="#404040">
                                <set attributeName="fill" to="#808080" begin="zoomplus.mouseover" end="zoomplus.mouseout"/>
                        </use>
                        <path d="M-4,0h8M0,-4v8" fill="none" stroke="white" stroke-width="1.5" pointer-events="none"/>
                </g>
                <g id="zoomMin">
                        <use xlink:href="#rim" fill="#404040">
                                <set attributeName="fill" to="#808080" begin="zoomminus.mouseover" end="zoomminus.mouseout"/>
                        </use>
                        <path d="M-4,0h8" fill="none" stroke="white" stroke-width="1.5" pointer-events="none"/>
                </g>
                <g id="dirArrow">
                        <path fill="none" stroke="white" stroke-width="1.5" d="M0,-3.0v7 M-2.5,-0.5L0,-3.0L2.5,-0.5"/>
                </g>
               <g id="resetDef">
                       <use xlink:href="#rim2" fill="#404040">
                               <set attributeName="fill" to="#808080" begin="reset.mouseover" end="reset.mouseout"/>
                       </use>
               </g>
        </defs>

<script type="text/javascript">
var viewWidth = 1274;
var viewHeight = 976;
var sectionId = 'dynsection-1';
</script>
<script xlink:href="svgpan.js"/>
<svg id="graph" class="graph">
<g id="viewport">
<title>Urho3D::JSONFile</title>
<!-- Node1 -->
<g id="node1" class="node"><title>Node1</title>
<polygon fill="#bfbfbf" stroke="black" points="1168,-677.5 1168,-698.5 1266,-698.5 1266,-677.5 1168,-677.5"/>
<text text-anchor="middle" x="1217" y="-685.5" font-family="FreeSans" font-size="10.00">Urho3D::JSONFile</text>
</g>
<!-- Node2 -->
<g id="node2" class="node"><title>Node2</title>
<a xlink:href="class_urho3_d_1_1_resource.html" target="_top" xlink:title="Base class for resources.">
<polygon fill="none" stroke="black" points="651.5,-841.5 651.5,-862.5 754.5,-862.5 754.5,-841.5 651.5,-841.5"/>
<text text-anchor="middle" x="703" y="-849.5" font-family="FreeSans" font-size="10.00">Urho3D::Resource</text>
</a>
</g>
<!-- Node2&#45;&gt;Node1 -->
<g id="edge2" class="edge"><title>Node2&#45;&gt;Node1</title>
<path fill="none" stroke="midnightblue" d="M764.893,-856.154C846.81,-859.053 993.724,-855.081 1104,-801 1153.57,-776.69 1194.36,-721.893 1210.06,-698.696"/>
<polygon fill="midnightblue" stroke="midnightblue" points="764.88,-852.651 754.747,-855.748 764.599,-859.645 764.88,-852.651"/>
</g>
<!-- Node3 -->
<g id="node4" class="node"><title>Node3</title>
<a xlink:href="class_urho3_d_1_1_object.html" target="_top" xlink:title="Base class for objects with type identification, subsystem access and event sending/receiving capabil...">
<polygon fill="none" stroke="black" points="400,-731.5 400,-752.5 490,-752.5 490,-731.5 400,-731.5"/>
<text text-anchor="middle" x="445" y="-739.5" font-family="FreeSans" font-size="10.00">Urho3D::Object</text>
</a>
</g>
<!-- Node3&#45;&gt;Node2 -->
<g id="edge4" class="edge"><title>Node3&#45;&gt;Node2</title>
<path fill="none" stroke="midnightblue" d="M454.185,-761.879C465.904,-784.69 488.497,-821.117 520,-838 560.302,-859.599 612.922,-861.382 651.388,-858.779"/>
<polygon fill="midnightblue" stroke="midnightblue" points="457.253,-760.187 449.703,-752.755 450.97,-763.273 457.253,-760.187"/>
</g>
<!-- Node9 -->
<g id="node17" class="node"><title>Node9</title>
<a xlink:href="class_urho3_d_1_1_event_handler.html" target="_top" xlink:title="Internal helper class for invoking event handler functions.">
<polygon fill="none" stroke="red" points="641,-801.5 641,-822.5 765,-822.5 765,-801.5 641,-801.5"/>
<text text-anchor="middle" x="703" y="-809.5" font-family="FreeSans" font-size="10.00">Urho3D::EventHandler</text>
</a>
</g>
<!-- Node3&#45;&gt;Node9 -->
<g id="edge20" class="edge"><title>Node3&#45;&gt;Node9</title>
<path fill="none" stroke="#9a32cd" stroke-dasharray="5,2" d="M499.31,-754.871C524.527,-761.003 554.866,-768.601 582,-776 611.603,-784.073 645.015,-794.082 669.217,-801.496"/>
<polygon fill="#9a32cd" stroke="#9a32cd" points="500.1,-751.461 489.558,-752.51 498.453,-758.265 500.1,-751.461"/>
<text text-anchor="middle" x="551" y="-793" font-family="FreeSans" font-size="10.00"> sender_</text>
<text text-anchor="middle" x="551" y="-780" font-family="FreeSans" font-size="10.00">receiver_</text>
</g>
<!-- Node4 -->
<g id="node6" class="node"><title>Node4</title>
<a xlink:href="class_urho3_d_1_1_ref_counted.html" target="_top" xlink:title="Base class for intrusively reference&#45;counted objects. These are noncopyable and non&#45;assignable.">
<polygon fill="none" stroke="black" points="198,-603.5 198,-624.5 312,-624.5 312,-603.5 198,-603.5"/>
<text text-anchor="middle" x="255" y="-611.5" font-family="FreeSans" font-size="10.00">Urho3D::RefCounted</text>
</a>
</g>
<!-- Node4&#45;&gt;Node3 -->
<g id="edge6" class="edge"><title>Node4&#45;&gt;Node3</title>
<path fill="none" stroke="midnightblue" d="M277.135,-630.801C303.17,-650.328 347.929,-683.173 388,-709 400.302,-716.929 414.552,-725.179 425.727,-731.447"/>
<polygon fill="midnightblue" stroke="midnightblue" points="279.151,-627.938 269.057,-624.719 274.941,-633.53 279.151,-627.938"/>
</g>
<!-- Node6 -->
<g id="node10" class="node"><title>Node6</title>
<a xlink:href="class_urho3_d_1_1_context.html" target="_top" xlink:title="Urho3D execution context. Provides access to subsystems, object factories and attributes, and event receivers.">
<polygon fill="none" stroke="black" points="982.5,-407.5 982.5,-428.5 1079.5,-428.5 1079.5,-407.5 982.5,-407.5"/>
<text text-anchor="middle" x="1031" y="-415.5" font-family="FreeSans" font-size="10.00">Urho3D::Context</text>
</a>
</g>
<!-- Node4&#45;&gt;Node6 -->
<g id="edge12" class="edge"><title>Node4&#45;&gt;Node6</title>
<path fill="none" stroke="midnightblue" d="M322.485,-616.249C427.128,-618.386 634.362,-617.216 806,-583 867.895,-570.661 888.84,-572.958 940,-536 981.522,-506.004 1013.25,-451.82 1025.5,-428.807"/>
<polygon fill="midnightblue" stroke="midnightblue" points="322.452,-612.748 312.377,-616.026 322.298,-619.746 322.452,-612.748"/>
</g>
<!-- Node5 -->
<g id="node8" class="node"><title>Node5</title>
<a xlink:href="struct_urho3_d_1_1_ref_count.html" target="_top" xlink:title="Reference count structure.">
<polygon fill="none" stroke="black" points="0,-603.5 0,-624.5 102,-624.5 102,-603.5 0,-603.5"/>
<text text-anchor="middle" x="51" y="-611.5" font-family="FreeSans" font-size="10.00">Urho3D::RefCount</text>
</a>
</g>
<!-- Node5&#45;&gt;Node4 -->
<g id="edge8" class="edge"><title>Node5&#45;&gt;Node4</title>
<path fill="none" stroke="#9a32cd" stroke-dasharray="5,2" d="M112.345,-614C139.414,-614 171.051,-614 197.643,-614"/>
<polygon fill="#9a32cd" stroke="#9a32cd" points="112.215,-610.5 102.214,-614 112.214,-617.5 112.215,-610.5"/>
<text text-anchor="middle" x="145" y="-618" font-family="FreeSans" font-size="10.00"> refCount_</text>
</g>
<!-- Node6&#45;&gt;Node3 -->
<g id="edge10" class="edge"><title>Node6&#45;&gt;Node3</title>
<path fill="none" stroke="#9a32cd" stroke-dasharray="5,2" d="M1029.95,-438.712C1026.34,-486.397 1010.38,-604.261 940,-662 905.339,-690.434 605.937,-724.909 490.306,-737.291"/>
<polygon fill="#9a32cd" stroke="#9a32cd" points="1033.45,-438.87 1030.6,-428.664 1026.46,-438.417 1033.45,-438.87"/>
<text text-anchor="middle" x="703" y="-729" font-family="FreeSans" font-size="10.00"> context_</text>
</g>
<!-- Node7 -->
<g id="node13" class="node"><title>Node7</title>
<a xlink:href="class_urho3_d_1_1_p_o_d_vector.html" target="_top" xlink:title="Urho3D::PODVector\&lt;\l Urho3D::Object * \&gt;">
<polygon fill="none" stroke="black" points="643.5,-132 643.5,-166 762.5,-166 762.5,-132 643.5,-132"/>
<text text-anchor="start" x="651.5" y="-153" font-family="FreeSans" font-size="10.00">Urho3D::PODVector&lt;</text>
<text text-anchor="middle" x="703" y="-140" font-family="FreeSans" font-size="10.00"> Urho3D::Object * &gt;</text>
</a>
</g>
<!-- Node7&#45;&gt;Node6 -->
<g id="edge14" class="edge"><title>Node7&#45;&gt;Node6</title>
<path fill="none" stroke="#9a32cd" stroke-dasharray="5,2" d="M772.311,-157.468C784.472,-161.359 796.314,-166.96 806,-175 820.689,-187.193 809.495,-201.588 824,-214 864.727,-248.849 898.92,-212.568 940,-247 954.015,-258.747 949.624,-267.744 958,-284 981.905,-330.392 1012.25,-384.736 1024.96,-407.321"/>
<polygon fill="#9a32cd" stroke="#9a32cd" points="773.1,-154.054 762.525,-154.7 771.195,-160.79 773.1,-154.054"/>
<text text-anchor="middle" x="882" y="-251" font-family="FreeSans" font-size="10.00"> eventSenders_</text>
</g>
<!-- Node8 -->
<g id="node15" class="node"><title>Node8</title>
<a xlink:href="class_urho3_d_1_1_vector_base.html" target="_top" xlink:title="Vector base class.">
<polygon fill="none" stroke="black" points="388,-86.5 388,-107.5 502,-107.5 502,-86.5 388,-86.5"/>
<text text-anchor="middle" x="445" y="-94.5" font-family="FreeSans" font-size="10.00">Urho3D::VectorBase</text>
</a>
</g>
<!-- Node8&#45;&gt;Node7 -->
<g id="edge16" class="edge"><title>Node8&#45;&gt;Node7</title>
<path fill="none" stroke="midnightblue" d="M507.153,-109.527C548.451,-117.851 602.378,-128.72 643.187,-136.945"/>
<polygon fill="midnightblue" stroke="midnightblue" points="507.705,-106.068 497.21,-107.523 506.321,-112.93 507.705,-106.068"/>
</g>
<!-- Node16 -->
<g id="node36" class="node"><title>Node16</title>
<a xlink:href="class_urho3_d_1_1_p_o_d_vector.html" target="_top" xlink:title="Urho3D::PODVector\&lt;\l Urho3D::HashMap * \&gt;">
<polygon fill="none" stroke="black" points="639.5,-80 639.5,-114 766.5,-114 766.5,-80 639.5,-80"/>
<text text-anchor="start" x="647.5" y="-101" font-family="FreeSans" font-size="10.00">Urho3D::PODVector&lt;</text>
<text text-anchor="middle" x="703" y="-88" font-family="FreeSans" font-size="10.00"> Urho3D::HashMap * &gt;</text>
</a>
</g>
<!-- Node8&#45;&gt;Node16 -->
<g id="edge44" class="edge"><title>Node8&#45;&gt;Node16</title>
<path fill="none" stroke="midnightblue" d="M512.497,-97C551.625,-97 600.608,-97 639.106,-97"/>
<polygon fill="midnightblue" stroke="midnightblue" points="512.259,-93.5001 502.259,-97 512.259,-100.5 512.259,-93.5001"/>
</g>
<!-- Node24 -->
<g id="node59" class="node"><title>Node24</title>
<a xlink:href="class_urho3_d_1_1_vector.html" target="_top" xlink:title="Vector template class.">
<polygon fill="none" stroke="black" points="644,-0.5 644,-21.5 762,-21.5 762,-0.5 644,-0.5"/>
<text text-anchor="middle" x="703" y="-8.5" font-family="FreeSans" font-size="10.00">Urho3D::Vector&lt; T &gt;</text>
</a>
</g>
<!-- Node8&#45;&gt;Node24 -->
<g id="edge74" class="edge"><title>Node8&#45;&gt;Node24</title>
<path fill="none" stroke="midnightblue" d="M466.523,-80.3496C480.941,-69.9428 500.742,-57.036 520,-49 559.529,-32.5055 606.947,-22.9179 643.61,-17.4999"/>
<polygon fill="midnightblue" stroke="midnightblue" points="464.25,-77.6775 458.295,-86.4404 468.415,-83.3038 464.25,-77.6775"/>
</g>
<!-- Node9&#45;&gt;Node6 -->
<g id="edge18" class="edge"><title>Node9&#45;&gt;Node6</title>
<path fill="none" stroke="#9a32cd" stroke-dasharray="5,2" d="M746.628,-798.316C807.393,-778.463 913.094,-740.792 940,-711 979.985,-666.726 1019.67,-475.603 1028.96,-428.515"/>
<polygon fill="#9a32cd" stroke="#9a32cd" points="745.353,-795.05 736.919,-801.462 747.511,-801.709 745.353,-795.05"/>
<text text-anchor="middle" x="882" y="-775" font-family="FreeSans" font-size="10.00"> eventHandler_</text>
</g>
<!-- Node20 -->
<g id="node48" class="node"><title>Node20</title>
<a xlink:href="class_urho3_d_1_1_linked_list.html" target="_top" xlink:title="Urho3D::LinkedList\l\&lt; Urho3D::EventHandler \&gt;">
<polygon fill="none" stroke="black" points="958,-758 958,-792 1104,-792 1104,-758 958,-758"/>
<text text-anchor="start" x="966" y="-779" font-family="FreeSans" font-size="10.00">Urho3D::LinkedList</text>
<text text-anchor="middle" x="1031" y="-766" font-family="FreeSans" font-size="10.00">&lt; Urho3D::EventHandler &gt;</text>
</a>
</g>
<!-- Node9&#45;&gt;Node20 -->
<g id="edge60" class="edge"><title>Node9&#45;&gt;Node20</title>
<path fill="none" stroke="#9a32cd" stroke-dasharray="5,2" d="M775.191,-808.378C822.265,-805.484 884.956,-800.624 940,-793 945.743,-792.205 951.67,-791.277 957.616,-790.27"/>
<polygon fill="#9a32cd" stroke="#9a32cd" points="774.862,-804.892 765.09,-808.984 775.281,-811.879 774.862,-804.892"/>
<text text-anchor="middle" x="882" y="-808" font-family="FreeSans" font-size="10.00"> head_</text>
</g>
<!-- Node10 -->
<g id="node20" class="node"><title>Node10</title>
<a xlink:href="class_urho3_d_1_1_string_hash.html" target="_top" xlink:title="32&#45;bit hash value for a string.">
<polygon fill="none" stroke="black" points="388.5,-875.5 388.5,-896.5 501.5,-896.5 501.5,-875.5 388.5,-875.5"/>
<text text-anchor="middle" x="445" y="-883.5" font-family="FreeSans" font-size="10.00">Urho3D::StringHash</text>
</a>
</g>
<!-- Node10&#45;&gt;Node2 -->
<g id="edge68" class="edge"><title>Node10&#45;&gt;Node2</title>
<path fill="none" stroke="#9a32cd" stroke-dasharray="5,2" d="M509.426,-897.897C512.995,-898.328 516.538,-898.702 520,-899 547.454,-901.362 554.916,-904.075 582,-899 618.991,-892.068 659.212,-874.179 682.708,-862.579"/>
<polygon fill="#9a32cd" stroke="#9a32cd" points="509.715,-894.405 499.338,-896.546 508.785,-901.343 509.715,-894.405"/>
<text text-anchor="middle" x="551" y="-905" font-family="FreeSans" font-size="10.00"> nameHash_</text>
</g>
<!-- Node10&#45;&gt;Node9 -->
<g id="edge22" class="edge"><title>Node10&#45;&gt;Node9</title>
<path fill="none" stroke="#9a32cd" stroke-dasharray="5,2" d="M491.752,-872.503C518.522,-864.315 552.543,-853.126 582,-841 590.271,-837.595 591.532,-834.879 600,-832 612.935,-827.602 627.131,-824.065 640.74,-821.261"/>
<polygon fill="#9a32cd" stroke="#9a32cd" points="490.431,-869.246 481.872,-875.49 492.457,-875.946 490.431,-869.246"/>
<text text-anchor="middle" x="551" y="-866" font-family="FreeSans" font-size="10.00"> eventType_</text>
</g>
<!-- Node10&#45;&gt;Node10 -->
<g id="edge24" class="edge"><title>Node10&#45;&gt;Node10</title>
<path fill="none" stroke="#9a32cd" stroke-dasharray="5,2" d="M428.518,-906.793C429.973,-911.529 435.467,-915 445,-915 460.645,-915 465.411,-905.653 459.3,-896.708"/>
<polygon fill="#9a32cd" stroke="#9a32cd" points="432.006,-907.222 430.7,-896.708 425.164,-905.742 432.006,-907.222"/>
<text text-anchor="middle" x="445" y="-919" font-family="FreeSans" font-size="10.00"> ZERO</text>
</g>
<!-- Node11 -->
<g id="node23" class="node"><title>Node11</title>
<a xlink:href="class_urho3_d_1_1_hash_map.html" target="_top" xlink:title="Urho3D::HashMap\&lt; Urho3D\l::StringHash, Urho3D::\lHashSet\&lt; Urho3D::Object * \&gt; \&gt;">
<polygon fill="none" stroke="black" points="616.5,-394.5 616.5,-441.5 789.5,-441.5 789.5,-394.5 616.5,-394.5"/>
<text text-anchor="start" x="624.5" y="-428.5" font-family="FreeSans" font-size="10.00">Urho3D::HashMap&lt; Urho3D</text>
<text text-anchor="start" x="624.5" y="-415.5" font-family="FreeSans" font-size="10.00">::StringHash, Urho3D::</text>
<text text-anchor="middle" x="703" y="-402.5" font-family="FreeSans" font-size="10.00">HashSet&lt; Urho3D::Object * &gt; &gt;</text>
</a>
</g>
<!-- Node11&#45;&gt;Node6 -->
<g id="edge26" class="edge"><title>Node11&#45;&gt;Node6</title>
<path fill="none" stroke="#9a32cd" stroke-dasharray="5,2" d="M799.857,-418C859.8,-418 934.206,-418 982.136,-418"/>
<polygon fill="#9a32cd" stroke="#9a32cd" points="799.607,-414.5 789.607,-418 799.607,-421.5 799.607,-414.5"/>
<text text-anchor="middle" x="882" y="-422" font-family="FreeSans" font-size="10.00"> eventReceivers_</text>
</g>
<!-- Node12 -->
<g id="node25" class="node"><title>Node12</title>
<a xlink:href="class_urho3_d_1_1_hash_base.html" target="_top" xlink:title="Hash set/map base class.">
<polygon fill="none" stroke="red" points="391,-335.5 391,-356.5 499,-356.5 499,-335.5 391,-335.5"/>
<text text-anchor="middle" x="445" y="-343.5" font-family="FreeSans" font-size="10.00">Urho3D::HashBase</text>
</a>
</g>
<!-- Node12&#45;&gt;Node11 -->
<g id="edge28" class="edge"><title>Node12&#45;&gt;Node11</title>
<path fill="none" stroke="midnightblue" d="M492.812,-359.343C528.061,-369.18 576.937,-382.82 618.687,-394.471"/>
<polygon fill="midnightblue" stroke="midnightblue" points="493.365,-355.863 482.792,-356.547 491.483,-362.606 493.365,-355.863"/>
</g>
<!-- Node14 -->
<g id="node30" class="node"><title>Node14</title>
<a xlink:href="class_urho3_d_1_1_hash_map.html" target="_top" xlink:title="Urho3D::HashMap\&lt; Urho3D\l::Object *, Urho3D::HashMap\l\&lt; Urho3D::StringHash, Urho3D\l::HashSet\&lt; Urho3D::Object * \&gt; \&gt; \&gt;">
<polygon fill="none" stroke="black" points="607.5,-316 607.5,-376 798.5,-376 798.5,-316 607.5,-316"/>
<text text-anchor="start" x="615.5" y="-363" font-family="FreeSans" font-size="10.00">Urho3D::HashMap&lt; Urho3D</text>
<text text-anchor="start" x="615.5" y="-350" font-family="FreeSans" font-size="10.00">::Object *, Urho3D::HashMap</text>
<text text-anchor="start" x="615.5" y="-337" font-family="FreeSans" font-size="10.00">&lt; Urho3D::StringHash, Urho3D</text>
<text text-anchor="middle" x="703" y="-324" font-family="FreeSans" font-size="10.00">::HashSet&lt; Urho3D::Object * &gt; &gt; &gt;</text>
</a>
</g>
<!-- Node12&#45;&gt;Node14 -->
<g id="edge36" class="edge"><title>Node12&#45;&gt;Node14</title>
<path fill="none" stroke="midnightblue" d="M509.283,-346C538.878,-346 574.608,-346 607.28,-346"/>
<polygon fill="midnightblue" stroke="midnightblue" points="509.085,-342.5 499.085,-346 509.085,-349.5 509.085,-342.5"/>
</g>
<!-- Node15 -->
<g id="node33" class="node"><title>Node15</title>
<a xlink:href="class_urho3_d_1_1_hash_map.html" target="_top" xlink:title="Urho3D::HashMap\&lt; Urho3D\l::StringHash, Urho3D::\lSharedPtr\&lt; Urho3D::Object \&gt; \&gt;">
<polygon fill="none" stroke="black" points="617,-250.5 617,-297.5 789,-297.5 789,-250.5 617,-250.5"/>
<text text-anchor="start" x="625" y="-284.5" font-family="FreeSans" font-size="10.00">Urho3D::HashMap&lt; Urho3D</text>
<text text-anchor="start" x="625" y="-271.5" font-family="FreeSans" font-size="10.00">::StringHash, Urho3D::</text>
<text text-anchor="middle" x="703" y="-258.5" font-family="FreeSans" font-size="10.00">SharedPtr&lt; Urho3D::Object &gt; &gt;</text>
</a>
</g>
<!-- Node12&#45;&gt;Node15 -->
<g id="edge40" class="edge"><title>Node12&#45;&gt;Node15</title>
<path fill="none" stroke="midnightblue" d="M492.812,-332.657C528.061,-322.82 576.937,-309.18 618.687,-297.529"/>
<polygon fill="midnightblue" stroke="midnightblue" points="491.483,-329.394 482.792,-335.453 493.365,-336.137 491.483,-329.394"/>
</g>
<!-- Node17 -->
<g id="node39" class="node"><title>Node17</title>
<a xlink:href="class_urho3_d_1_1_hash_map.html" target="_top" xlink:title="Urho3D::HashMap\&lt; Urho3D\l::StringHash, Urho3D::\lSharedPtr\&lt; Urho3D::ObjectFactory \&gt; \&gt;">
<polygon fill="none" stroke="black" points="600,-526.5 600,-573.5 806,-573.5 806,-526.5 600,-526.5"/>
<text text-anchor="start" x="608" y="-560.5" font-family="FreeSans" font-size="10.00">Urho3D::HashMap&lt; Urho3D</text>
<text text-anchor="start" x="608" y="-547.5" font-family="FreeSans" font-size="10.00">::StringHash, Urho3D::</text>
<text text-anchor="middle" x="703" y="-534.5" font-family="FreeSans" font-size="10.00">SharedPtr&lt; Urho3D::ObjectFactory &gt; &gt;</text>
</a>
</g>
<!-- Node12&#45;&gt;Node17 -->
<g id="edge48" class="edge"><title>Node12&#45;&gt;Node17</title>
<path fill="none" stroke="midnightblue" d="M456.956,-365.288C480.056,-400.896 534.372,-476.968 600,-517 605.691,-520.471 611.784,-523.614 618.058,-526.454"/>
<polygon fill="midnightblue" stroke="midnightblue" points="459.852,-363.318 451.526,-356.765 453.948,-367.08 459.852,-363.318"/>
</g>
<!-- Node18 -->
<g id="node42" class="node"><title>Node18</title>
<a xlink:href="class_urho3_d_1_1_hash_map.html" target="_top" xlink:title="Urho3D::HashMap\&lt; Urho3D\l::String, Urho3D::Vector\l\&lt; Urho3D::StringHash \&gt; \&gt;">
<polygon fill="none" stroke="black" points="627,-460.5 627,-507.5 779,-507.5 779,-460.5 627,-460.5"/>
<text text-anchor="start" x="635" y="-494.5" font-family="FreeSans" font-size="10.00">Urho3D::HashMap&lt; Urho3D</text>
<text text-anchor="start" x="635" y="-481.5" font-family="FreeSans" font-size="10.00">::String, Urho3D::Vector</text>
<text text-anchor="middle" x="703" y="-468.5" font-family="FreeSans" font-size="10.00">&lt; Urho3D::StringHash &gt; &gt;</text>
</a>
</g>
<!-- Node12&#45;&gt;Node18 -->
<g id="edge52" class="edge"><title>Node12&#45;&gt;Node18</title>
<path fill="none" stroke="midnightblue" d="M465.971,-363.095C494.702,-385.818 548.613,-426.004 600,-451 608.527,-455.148 617.698,-458.943 626.927,-462.364"/>
<polygon fill="midnightblue" stroke="midnightblue" points="467.89,-360.148 457.893,-356.64 463.52,-365.617 467.89,-360.148"/>
</g>
<!-- Node19 -->
<g id="node45" class="node"><title>Node19</title>
<a xlink:href="class_urho3_d_1_1_hash_map.html" target="_top" xlink:title="Urho3D::HashMap\&lt; Urho3D\l::StringHash, Urho3D::\lVector\&lt; Urho3D::AttributeInfo \&gt; \&gt;">
<polygon fill="none" stroke="black" points="611.5,-184.5 611.5,-231.5 794.5,-231.5 794.5,-184.5 611.5,-184.5"/>
<text text-anchor="start" x="619.5" y="-218.5" font-family="FreeSans" font-size="10.00">Urho3D::HashMap&lt; Urho3D</text>
<text text-anchor="start" x="619.5" y="-205.5" font-family="FreeSans" font-size="10.00">::StringHash, Urho3D::</text>
<text text-anchor="middle" x="703" y="-192.5" font-family="FreeSans" font-size="10.00">Vector&lt; Urho3D::AttributeInfo &gt; &gt;</text>
</a>
</g>
<!-- Node12&#45;&gt;Node19 -->
<g id="edge56" class="edge"><title>Node12&#45;&gt;Node19</title>
<path fill="none" stroke="midnightblue" d="M465.971,-328.905C494.702,-306.182 548.613,-265.996 600,-241 607.008,-237.591 614.45,-234.421 622.002,-231.5"/>
<polygon fill="midnightblue" stroke="midnightblue" points="463.52,-326.383 457.893,-335.36 467.89,-331.852 463.52,-326.383"/>
</g>
<!-- Node25 -->
<g id="node64" class="node"><title>Node25</title>
<a xlink:href="class_urho3_d_1_1_hash_map.html" target="_top" xlink:title="Hash map template class.">
<polygon fill="none" stroke="black" points="630,-40.5 630,-61.5 776,-61.5 776,-40.5 630,-40.5"/>
<text text-anchor="middle" x="703" y="-48.5" font-family="FreeSans" font-size="10.00">Urho3D::HashMap&lt; T, U &gt;</text>
</a>
</g>
<!-- Node12&#45;&gt;Node25 -->
<g id="edge82" class="edge"><title>Node12&#45;&gt;Node25</title>
<path fill="none" stroke="midnightblue" d="M450.073,-325.725C464.126,-274.045 508.693,-136.83 600,-71 608.866,-64.6081 619.233,-60.1138 629.912,-56.9786"/>
<polygon fill="midnightblue" stroke="midnightblue" points="446.687,-324.837 447.531,-335.398 453.458,-326.616 446.687,-324.837"/>
</g>
<!-- Node13 -->
<g id="node27" class="node"><title>Node13</title>
<a xlink:href="struct_urho3_d_1_1_hash_node_base.html" target="_top" xlink:title="Hash set/map node base class.">
<polygon fill="none" stroke="black" points="188,-335.5 188,-356.5 322,-356.5 322,-335.5 188,-335.5"/>
<text text-anchor="middle" x="255" y="-343.5" font-family="FreeSans" font-size="10.00">Urho3D::HashNodeBase</text>
</a>
</g>
<!-- Node13&#45;&gt;Node12 -->
<g id="edge30" class="edge"><title>Node13&#45;&gt;Node12</title>
<path fill="none" stroke="#9a32cd" stroke-dasharray="5,2" d="M332.417,-346C352.068,-346 372.759,-346 390.966,-346"/>
<polygon fill="#9a32cd" stroke="#9a32cd" points="332.254,-342.5 322.254,-346 332.254,-349.5 332.254,-342.5"/>
<text text-anchor="middle" x="355" y="-376" font-family="FreeSans" font-size="10.00"> ptrs_</text>
<text text-anchor="middle" x="355" y="-363" font-family="FreeSans" font-size="10.00">tail_</text>
<text text-anchor="middle" x="355" y="-350" font-family="FreeSans" font-size="10.00">head_</text>
</g>
<!-- Node13&#45;&gt;Node13 -->
<g id="edge32" class="edge"><title>Node13&#45;&gt;Node13</title>
<path fill="none" stroke="#9a32cd" stroke-dasharray="5,2" d="M236.571,-366.427C237.993,-371.349 244.136,-375 255,-375 272.383,-375 277.679,-365.653 270.889,-356.708"/>
<polygon fill="#9a32cd" stroke="#9a32cd" points="239.969,-367.268 239.111,-356.708 233.196,-365.498 239.969,-367.268"/>
<text text-anchor="middle" x="255" y="-405" font-family="FreeSans" font-size="10.00"> next_</text>
<text text-anchor="middle" x="255" y="-392" font-family="FreeSans" font-size="10.00">prev_</text>
<text text-anchor="middle" x="255" y="-379" font-family="FreeSans" font-size="10.00">down_</text>
</g>
<!-- Node14&#45;&gt;Node6 -->
<g id="edge34" class="edge"><title>Node14&#45;&gt;Node6</title>
<path fill="none" stroke="#9a32cd" stroke-dasharray="5,2" d="M808.809,-369.226C867.448,-382.098 937.491,-397.474 983.043,-407.473"/>
<polygon fill="#9a32cd" stroke="#9a32cd" points="809.271,-365.744 798.753,-367.019 807.77,-372.582 809.271,-365.744"/>
<text text-anchor="middle" x="882" y="-401" font-family="FreeSans" font-size="10.00"> specificEventReceivers_</text>
</g>
<!-- Node15&#45;&gt;Node6 -->
<g id="edge38" class="edge"><title>Node15&#45;&gt;Node6</title>
<path fill="none" stroke="#9a32cd" stroke-dasharray="5,2" d="M794.341,-301.526C798.325,-303.27 802.229,-305.095 806,-307 814.808,-311.45 815.189,-315.556 824,-320 872.317,-344.369 891.264,-333.479 940,-357 969.633,-371.302 1000.77,-394.131 1017.85,-407.431"/>
<polygon fill="#9a32cd" stroke="#9a32cd" points="795.501,-298.217 784.924,-297.602 792.808,-304.679 795.501,-298.217"/>
<text text-anchor="middle" x="882" y="-361" font-family="FreeSans" font-size="10.00"> subsystems_</text>
</g>
<!-- Node16&#45;&gt;Node6 -->
<g id="edge42" class="edge"><title>Node16&#45;&gt;Node6</title>
<path fill="none" stroke="#9a32cd" stroke-dasharray="5,2" d="M776.352,-105.869C787.231,-109.781 797.591,-115.285 806,-123 824.021,-139.534 805.493,-159.012 824,-175 863.709,-209.304 902.588,-160.204 940,-197 968.151,-224.688 944.408,-246.928 958,-284 975.874,-332.751 1009.17,-385.4 1023.8,-407.402"/>
<polygon fill="#9a32cd" stroke="#9a32cd" points="777.285,-102.493 766.695,-102.826 775.181,-109.17 777.285,-102.493"/>
<text text-anchor="middle" x="882" y="-201" font-family="FreeSans" font-size="10.00"> eventDataMaps_</text>
</g>
<!-- Node17&#45;&gt;Node6 -->
<g id="edge46" class="edge"><title>Node17&#45;&gt;Node6</title>
<path fill="none" stroke="#9a32cd" stroke-dasharray="5,2" d="M807.986,-523.704C849.979,-511.531 898.205,-495.424 940,-476 968.882,-462.577 999.534,-441.405 1016.87,-428.694"/>
<polygon fill="#9a32cd" stroke="#9a32cd" points="806.944,-520.362 798.292,-526.477 808.869,-527.092 806.944,-520.362"/>
<text text-anchor="middle" x="882" y="-523" font-family="FreeSans" font-size="10.00"> factories_</text>
</g>
<!-- Node18&#45;&gt;Node6 -->
<g id="edge50" class="edge"><title>Node18&#45;&gt;Node6</title>
<path fill="none" stroke="#9a32cd" stroke-dasharray="5,2" d="M789.178,-466.659C850.792,-454.261 931.482,-438.025 982.293,-427.801"/>
<polygon fill="#9a32cd" stroke="#9a32cd" points="788.187,-463.288 779.074,-468.692 789.568,-470.151 788.187,-463.288"/>
<text text-anchor="middle" x="882" y="-463" font-family="FreeSans" font-size="10.00"> objectCategories_</text>
</g>
<!-- Node19&#45;&gt;Node6 -->
<g id="edge54" class="edge"><title>Node19&#45;&gt;Node6</title>
<path fill="none" stroke="#9a32cd" stroke-dasharray="5,2" d="M799.219,-236.622C801.544,-238.016 803.809,-239.474 806,-241 816.651,-248.419 813.027,-257.065 824,-264 868.663,-292.227 895.999,-260.753 940,-290 985.869,-320.488 1016.01,-382.558 1026.68,-407.386"/>
<polygon fill="#9a32cd" stroke="#9a32cd" points="800.442,-233.301 789.991,-231.564 797.077,-239.44 800.442,-233.301"/>
<text text-anchor="middle" x="882" y="-307" font-family="FreeSans" font-size="10.00"> attributes_</text>
<text text-anchor="middle" x="882" y="-294" font-family="FreeSans" font-size="10.00">networkAttributes_</text>
</g>
<!-- Node20&#45;&gt;Node3 -->
<g id="edge58" class="edge"><title>Node20&#45;&gt;Node3</title>
<path fill="none" stroke="#9a32cd" stroke-dasharray="5,2" d="M947.621,-760.828C945.054,-760.529 942.509,-760.251 940,-760 774.858,-743.454 577.374,-741.626 490.176,-741.728"/>
<polygon fill="#9a32cd" stroke="#9a32cd" points="947.242,-764.307 957.6,-762.08 948.114,-757.362 947.242,-764.307"/>
<text text-anchor="middle" x="703" y="-754" font-family="FreeSans" font-size="10.00"> eventHandlers_</text>
</g>
<!-- Node21 -->
<g id="node51" class="node"><title>Node21</title>
<a xlink:href="class_urho3_d_1_1_timer.html" target="_top" xlink:title="Low&#45;resolution operating system timer.">
<polygon fill="none" stroke="black" points="402,-946.5 402,-967.5 488,-967.5 488,-946.5 402,-946.5"/>
<text text-anchor="middle" x="445" y="-954.5" font-family="FreeSans" font-size="10.00">Urho3D::Timer</text>
</a>
</g>
<!-- Node21&#45;&gt;Node2 -->
<g id="edge62" class="edge"><title>Node21&#45;&gt;Node2</title>
<path fill="none" stroke="#9a32cd" stroke-dasharray="5,2" d="M498.061,-944.828C523.851,-938.176 555.025,-929.036 582,-918 620.979,-902.053 663.553,-876.838 686.356,-862.636"/>
<polygon fill="#9a32cd" stroke="#9a32cd" points="496.937,-941.502 488.098,-947.343 498.65,-948.289 496.937,-941.502"/>
<text text-anchor="middle" x="551" y="-942" font-family="FreeSans" font-size="10.00"> useTimer_</text>
</g>
<!-- Node22 -->
<g id="node53" class="node"><title>Node22</title>
<a xlink:href="class_urho3_d_1_1_string.html" target="_top" xlink:title="String class.">
<polygon fill="none" stroke="black" points="401,-647.5 401,-668.5 489,-668.5 489,-647.5 401,-647.5"/>
<text text-anchor="middle" x="445" y="-655.5" font-family="FreeSans" font-size="10.00">Urho3D::String</text>
</a>
</g>
<!-- Node22&#45;&gt;Node2 -->
<g id="edge64" class="edge"><title>Node22&#45;&gt;Node2</title>
<path fill="none" stroke="#9a32cd" stroke-dasharray="5,2" d="M465.6,-675.964C477.952,-687.837 492.967,-704.411 502,-722 518.65,-754.419 495.228,-775.269 520,-802 539.59,-823.139 555.719,-809.17 582,-821 590.549,-824.848 591.259,-828.608 600,-832 616.218,-838.293 634.67,-842.675 651.432,-845.695"/>
<polygon fill="#9a32cd" stroke="#9a32cd" points="467.67,-673.11 457.957,-668.877 462.91,-678.243 467.67,-673.11"/>
<text text-anchor="middle" x="551" y="-825" font-family="FreeSans" font-size="10.00"> name_</text>
</g>
<!-- Node22&#45;&gt;Node22 -->
<g id="edge66" class="edge"><title>Node22&#45;&gt;Node22</title>
<path fill="none" stroke="#9a32cd" stroke-dasharray="5,2" d="M428.518,-678.793C429.973,-683.529 435.467,-687 445,-687 460.645,-687 465.411,-677.653 459.3,-668.708"/>
<polygon fill="#9a32cd" stroke="#9a32cd" points="432.006,-679.222 430.7,-668.708 425.164,-677.742 432.006,-679.222"/>
<text text-anchor="middle" x="445" y="-691" font-family="FreeSans" font-size="10.00"> EMPTY</text>
</g>
<!-- Node23 -->
<g id="node57" class="node"><title>Node23</title>
<a xlink:href="class_urho3_d_1_1_j_s_o_n_value.html" target="_top" xlink:title="JSON value class.">
<polygon fill="none" stroke="black" points="976,-222.5 976,-243.5 1086,-243.5 1086,-222.5 976,-222.5"/>
<text text-anchor="middle" x="1031" y="-230.5" font-family="FreeSans" font-size="10.00">Urho3D::JSONValue</text>
</a>
</g>
<!-- Node22&#45;&gt;Node23 -->
<g id="edge78" class="edge"><title>Node22&#45;&gt;Node23</title>
<path fill="none" stroke="#9a32cd" stroke-dasharray="5,2" d="M499.332,-663.485C603.811,-670.648 831.934,-669.205 940,-536 959.484,-511.983 949.658,-427.78 958,-398 975.068,-337.07 1010.65,-269.563 1024.9,-243.794"/>
<polygon fill="#9a32cd" stroke="#9a32cd" points="499.545,-659.991 489.315,-662.745 499.03,-666.972 499.545,-659.991"/>
<text text-anchor="middle" x="703" y="-670" font-family="FreeSans" font-size="10.00"> stringValue_</text>
</g>
<!-- Node23&#45;&gt;Node1 -->
<g id="edge70" class="edge"><title>Node23&#45;&gt;Node1</title>
<path fill="none" stroke="#9a32cd" stroke-dasharray="5,2" d="M1040.2,-253C1054.33,-283.913 1082.07,-345.248 1104,-398 1149.02,-506.269 1198.91,-639.359 1213.07,-677.397"/>
<polygon fill="#9a32cd" stroke="#9a32cd" points="1043.3,-251.371 1035.95,-243.738 1036.94,-254.287 1043.3,-251.371"/>
<text text-anchor="middle" x="1136" y="-514" font-family="FreeSans" font-size="10.00"> root_</text>
</g>
<!-- Node23&#45;&gt;Node23 -->
<g id="edge76" class="edge"><title>Node23&#45;&gt;Node23</title>
<path fill="none" stroke="#9a32cd" stroke-dasharray="5,2" d="M1011.83,-253.427C1013.31,-258.349 1019.7,-262 1031,-262 1049.08,-262 1054.59,-252.653 1047.52,-243.708"/>
<polygon fill="#9a32cd" stroke="#9a32cd" points="1015.23,-254.276 1014.48,-243.708 1008.48,-252.44 1015.23,-254.276"/>
<text text-anchor="middle" x="1031" y="-266" font-family="FreeSans" font-size="10.00"> EMPTY</text>
</g>
<!-- Node24&#45;&gt;Node23 -->
<g id="edge72" class="edge"><title>Node24&#45;&gt;Node23</title>
<path fill="none" stroke="#9a32cd" stroke-dasharray="5,2" d="M772.332,-6.37759C823.351,-6.5118 891.912,-14.4782 940,-50 1000.22,-94.4829 1022.99,-189.957 1029.14,-222.148"/>
<polygon fill="#9a32cd" stroke="#9a32cd" points="772.023,-2.87971 762.049,-6.45492 772.075,-9.87952 772.023,-2.87971"/>
<text text-anchor="middle" x="882" y="-67" font-family="FreeSans" font-size="10.00"> arrayValue_</text>
<text text-anchor="middle" x="882" y="-54" font-family="FreeSans" font-size="10.00">emptyArray</text>
</g>
<!-- Node25&#45;&gt;Node23 -->
<g id="edge80" class="edge"><title>Node25&#45;&gt;Node23</title>
<path fill="none" stroke="#9a32cd" stroke-dasharray="5,2" d="M783.669,-63.9436C791.313,-65.9804 798.866,-68.3192 806,-71 870.506,-95.241 884.575,-108.053 940,-149 971.819,-172.507 1004.91,-205.617 1021.01,-222.382"/>
<polygon fill="#9a32cd" stroke="#9a32cd" points="784.511,-60.5465 773.961,-61.5219 782.817,-67.3384 784.511,-60.5465"/>
<text text-anchor="middle" x="882" y="-166" font-family="FreeSans" font-size="10.00"> emptyObject</text>
<text text-anchor="middle" x="882" y="-153" font-family="FreeSans" font-size="10.00">objectValue_</text>
</g>
</g>
</svg>
        <g id="navigator" transform="translate(0 0)" fill="#404254">
                <rect fill="#f2f5e9" fill-opacity="0.5" stroke="#606060" stroke-width=".5" x="0" y="0" width="60" height="60"/>
                <use id="zoomplus" xlink:href="#zoomPlus" x="17" y="9" onmousedown="handleZoom(evt,'in')"/>
                <use id="zoomminus" xlink:href="#zoomMin" x="42" y="9" onmousedown="handleZoom(evt,'out')"/>
                <use id="reset" xlink:href="#resetDef" x="30" y="36" onmousedown="handleReset()"/>
                <g id="arrowUp" xlink:href="#dirArrow" transform="translate(30 24)" onmousedown="handlePan(0,-1)">
                  <use xlink:href="#rim" fill="#404040">
                        <set attributeName="fill" to="#808080" begin="arrowUp.mouseover" end="arrowUp.mouseout"/>
                  </use>
                  <path fill="none" stroke="white" stroke-width="1.5" d="M0,-3.0v7 M-2.5,-0.5L0,-3.0L2.5,-0.5"/>
                </g>
                <g id="arrowRight" xlink:href="#dirArrow" transform="rotate(90) translate(36 -43)" onmousedown="handlePan(1,0)">
                  <use xlink:href="#rim" fill="#404040">
                        <set attributeName="fill" to="#808080" begin="arrowRight.mouseover" end="arrowRight.mouseout"/>
                  </use>
                  <path fill="none" stroke="white" stroke-width="1.5" d="M0,-3.0v7 M-2.5,-0.5L0,-3.0L2.5,-0.5"/>
                </g>
                <g id="arrowDown" xlink:href="#dirArrow" transform="rotate(180) translate(-30 -48)" onmousedown="handlePan(0,1)">
                  <use xlink:href="#rim" fill="#404040">
                        <set attributeName="fill" to="#808080" begin="arrowDown.mouseover" end="arrowDown.mouseout"/>
                  </use>
                  <path fill="none" stroke="white" stroke-width="1.5" d="M0,-3.0v7 M-2.5,-0.5L0,-3.0L2.5,-0.5"/>
                </g>
                <g id="arrowLeft" xlink:href="#dirArrow" transform="rotate(270) translate(-36 17)" onmousedown="handlePan(-1,0)">
                  <use xlink:href="#rim" fill="#404040">
                        <set attributeName="fill" to="#808080" begin="arrowLeft.mouseover" end="arrowLeft.mouseout"/>
                  </use>
                  <path fill="none" stroke="white" stroke-width="1.5" d="M0,-3.0v7 M-2.5,-0.5L0,-3.0L2.5,-0.5"/>
                </g>
        </g>
        <svg viewBox="0 0 15 15" width="100%" height="30px" preserveAspectRatio="xMaxYMin meet">
         <g id="arrow_out" transform="scale(0.3 0.3)">
          <a xlink:href="class_urho3_d_1_1_j_s_o_n_file__coll__graph_org.svg" target="_base">
           <rect id="button" ry="5" rx="5" y="6" x="6" height="38" width="38"
                fill="#f2f5e9" fill-opacity="0.5" stroke="#606060" stroke-width="1.0"/>
           <path id="arrow"
             d="M 11.500037,31.436501 C 11.940474,20.09759 22.043105,11.32322 32.158766,21.979434 L 37.068811,17.246167 C 37.068811,17.246167 37.088388,32 37.088388,32 L 22.160133,31.978069 C 22.160133,31.978069 26.997745,27.140456 26.997745,27.140456 C 18.528582,18.264221 13.291696,25.230495 11.500037,31.436501 z"
             style="fill:#404040;"/>
          </a>
         </g>
        </svg>
</svg>
