<?xml version="1.0" encoding="UTF-8" standalone="no"?>
<!DOCTYPE svg PUBLIC "-//W3C//DTD SVG 1.1//EN"
 "http://www.w3.org/Graphics/SVG/1.1/DTD/svg11.dtd">
<!-- Generated by graphviz version 2.26.3 (20100126.1600)
 -->
<!-- Title: Urho3D::FileSystem::GetProgramDir Pages: 1 -->
<!--zoomable 281 -->
<svg id="main" version="1.1" xmlns="http://www.w3.org/2000/svg" xmlns:xlink="http://www.w3.org/1999/xlink" xml:space="preserve" onload="init(evt)">
        <defs>
                <circle id="rim" cx="0" cy="0" r="7"/>
                <circle id="rim2" cx="0" cy="0" r="3.5"/>
                <g id="zoomPlus">
                        <use xlink:href="#rim" fill="#404040">
                                <set attributeName="fill" to="#808080" begin="zoomplus.mouseover" end="zoomplus.mouseout"/>
                        </use>
                        <path d="M-4,0h8M0,-4v8" fill="none" stroke="white" stroke-width="1.5" pointer-events="none"/>
                </g>
                <g id="zoomMin">
                        <use xlink:href="#rim" fill="#404040">
                                <set attributeName="fill" to="#808080" begin="zoomminus.mouseover" end="zoomminus.mouseout"/>
                        </use>
                        <path d="M-4,0h8" fill="none" stroke="white" stroke-width="1.5" pointer-events="none"/>
                </g>
                <g id="dirArrow">
                        <path fill="none" stroke="white" stroke-width="1.5" d="M0,-3.0v7 M-2.5,-0.5L0,-3.0L2.5,-0.5"/>
                </g>
               <g id="resetDef">
                       <use xlink:href="#rim2" fill="#404040">
                               <set attributeName="fill" to="#808080" begin="reset.mouseover" end="reset.mouseout"/>
                       </use>
               </g>
        </defs>

<script type="text/javascript">
var viewWidth = 822;
var viewHeight = 281;
var sectionId = 'dynsection-2';
</script>
<script xlink:href="svgpan.js"/>
<svg id="graph" class="graph">
<g id="viewport">
<title>Urho3D::FileSystem::GetProgramDir</title>
<!-- Node1 -->
<g id="node1" class="node"><title>Node1</title>
<polygon fill="#bfbfbf" stroke="black" points="0.5,-161 0.5,-195 111.5,-195 111.5,-161 0.5,-161"/>
<text text-anchor="start" x="8.5" y="-182" font-family="FreeSans" font-size="10.00">Urho3D::FileSystem</text>
<text text-anchor="middle" x="56" y="-169" font-family="FreeSans" font-size="10.00">::GetProgramDir</text>
</g>
<!-- Node2 -->
<g id="node3" class="node"><title>Node2</title>
<a xlink:href="class_urho3_d_1_1_string.html#a69ac7aadaa628fc05fc96abde992fcdc" target="_top" xlink:title="Return whether the string is empty.">
<polygon fill="none" stroke="black" points="151.5,-251.5 151.5,-272.5 276.5,-272.5 276.5,-251.5 151.5,-251.5"/>
<text text-anchor="middle" x="214" y="-259.5" font-family="FreeSans" font-size="10.00">Urho3D::String::Empty</text>
</a>
</g>
<!-- Node1&#45;&gt;Node2 -->
<g id="edge2" class="edge"><title>Node1&#45;&gt;Node2</title>
<path fill="none" stroke="midnightblue" d="M79.7833,-195.21C97.8956,-207.824 123.762,-224.805 148,-237 155.788,-240.919 164.346,-244.59 172.644,-247.85"/>
<polygon fill="midnightblue" stroke="midnightblue" points="171.612,-251.202 182.204,-251.476 174.095,-244.657 171.612,-251.202"/>
</g>
<!-- Node3 -->
<g id="node5" class="node"><title>Node3</title>
<a xlink:href="class_urho3_d_1_1_string.html#a6b405eba451da6c0f216a8649adf79aa" target="_top" xlink:title="Return the C string.">
<polygon fill="none" stroke="black" points="323.5,-212.5 323.5,-233.5 452.5,-233.5 452.5,-212.5 323.5,-212.5"/>
<text text-anchor="middle" x="388" y="-220.5" font-family="FreeSans" font-size="10.00">Urho3D::String::CString</text>
</a>
</g>
<!-- Node1&#45;&gt;Node3 -->
<g id="edge4" class="edge"><title>Node1&#45;&gt;Node3</title>
<path fill="none" stroke="midnightblue" d="M109.586,-195.054C122.084,-198.497 135.42,-201.747 148,-204 202.812,-213.816 265.573,-218.561 313.164,-220.855"/>
<polygon fill="midnightblue" stroke="midnightblue" points="313.237,-224.362 323.387,-221.321 313.556,-217.369 313.237,-224.362"/>
</g>
<!-- Node4 -->
<g id="node7" class="node"><title>Node4</title>
<a xlink:href="class_urho3_d_1_1_file_system.html#a575af6ad91fa461aca37622cfe928c85" target="_top" xlink:title="Return the absolute current working directory.">
<polygon fill="none" stroke="black" points="158.5,-161 158.5,-195 269.5,-195 269.5,-161 158.5,-161"/>
<text text-anchor="start" x="166.5" y="-182" font-family="FreeSans" font-size="10.00">Urho3D::FileSystem</text>
<text text-anchor="middle" x="214" y="-169" font-family="FreeSans" font-size="10.00">::GetCurrentDir</text>
</a>
</g>
<!-- Node1&#45;&gt;Node4 -->
<g id="edge6" class="edge"><title>Node1&#45;&gt;Node4</title>
<path fill="none" stroke="midnightblue" d="M111.705,-178C123.505,-178 136.066,-178 148.2,-178"/>
<polygon fill="midnightblue" stroke="midnightblue" points="148.266,-181.5 158.266,-178 148.266,-174.5 148.266,-181.5"/>
</g>
<!-- Node5 -->
<g id="node9" class="node"><title>Node5</title>
<a xlink:href="class_urho3_d_1_1_file_system.html#a2cd013d75ee49cea693188f3471d228e" target="_top" xlink:title="Check if a directory exists.">
<polygon fill="none" stroke="black" points="158.5,-109 158.5,-143 269.5,-143 269.5,-109 158.5,-109"/>
<text text-anchor="start" x="166.5" y="-130" font-family="FreeSans" font-size="10.00">Urho3D::FileSystem</text>
<text text-anchor="middle" x="214" y="-117" font-family="FreeSans" font-size="10.00">::DirExists</text>
</a>
</g>
<!-- Node1&#45;&gt;Node5 -->
<g id="edge8" class="edge"><title>Node1&#45;&gt;Node5</title>
<path fill="none" stroke="midnightblue" d="M107.735,-160.973C122.058,-156.26 137.743,-151.097 152.56,-146.221"/>
<polygon fill="midnightblue" stroke="midnightblue" points="153.744,-149.516 162.149,-143.065 151.556,-142.867 153.744,-149.516"/>
</g>
<!-- Node16 -->
<g id="node34" class="node"><title>Node16</title>
<a xlink:href="class_urho3_d_1_1_string.html#ab08b5f1f7cee23f3e14eebcb2f7f8d4e" target="_top" xlink:title="Replace all occurrences of a character.">
<polygon fill="none" stroke="black" points="148.5,-69.5 148.5,-90.5 279.5,-90.5 279.5,-69.5 148.5,-69.5"/>
<text text-anchor="middle" x="214" y="-77.5" font-family="FreeSans" font-size="10.00">Urho3D::String::Replace</text>
</a>
</g>
<!-- Node1&#45;&gt;Node16 -->
<g id="edge36" class="edge"><title>Node1&#45;&gt;Node16</title>
<path fill="none" stroke="midnightblue" d="M72.0531,-160.737C89.2808,-143.151 118.209,-116.226 148,-100 151.951,-97.848 156.164,-95.8968 160.478,-94.1339"/>
<polygon fill="midnightblue" stroke="midnightblue" points="161.874,-97.3485 170.017,-90.5704 159.425,-90.7911 161.874,-97.3485"/>
</g>
<!-- Node5&#45;&gt;Node3 -->
<g id="edge34" class="edge"><title>Node5&#45;&gt;Node3</title>
<path fill="none" stroke="midnightblue" d="M266.053,-143.074C270.992,-145.689 275.738,-148.653 280,-152 301.821,-169.136 293.315,-187.025 316,-203 318.705,-204.905 321.585,-206.628 324.579,-208.188"/>
<polygon fill="midnightblue" stroke="midnightblue" points="323.289,-211.446 333.841,-212.394 326.183,-205.072 323.289,-211.446"/>
</g>
<!-- Node6 -->
<g id="node11" class="node"><title>Node6</title>
<a xlink:href="class_urho3_d_1_1_file_system.html#a1e3cbbed618e7f98ce56c5fa8de9ac43" target="_top" xlink:title="Check if a path is allowed to be accessed. If no paths are registered, all are allowed.">
<polygon fill="none" stroke="black" points="332.5,-160 332.5,-194 443.5,-194 443.5,-160 332.5,-160"/>
<text text-anchor="start" x="340.5" y="-181" font-family="FreeSans" font-size="10.00">Urho3D::FileSystem</text>
<text text-anchor="middle" x="388" y="-168" font-family="FreeSans" font-size="10.00">::CheckAccess</text>
</a>
</g>
<!-- Node5&#45;&gt;Node6 -->
<g id="edge10" class="edge"><title>Node5&#45;&gt;Node6</title>
<path fill="none" stroke="midnightblue" d="M269.533,-142.277C286.327,-147.199 304.93,-152.652 322.321,-157.749"/>
<polygon fill="midnightblue" stroke="midnightblue" points="321.817,-161.249 332.398,-160.703 323.786,-154.531 321.817,-161.249"/>
</g>
<!-- Node9 -->
<g id="node17" class="node"><title>Node9</title>
<a xlink:href="class_urho3_d_1_1_string.html#a6dffd447850e4d687096a79dafe8bdac" target="_top" xlink:title="Return whether starts with a string.">
<polygon fill="none" stroke="black" points="316.5,-120.5 316.5,-141.5 459.5,-141.5 459.5,-120.5 316.5,-120.5"/>
<text text-anchor="middle" x="388" y="-128.5" font-family="FreeSans" font-size="10.00">Urho3D::String::StartsWith</text>
</a>
</g>
<!-- Node5&#45;&gt;Node9 -->
<g id="edge16" class="edge"><title>Node5&#45;&gt;Node9</title>
<path fill="none" stroke="midnightblue" d="M269.533,-127.596C281.188,-127.931 293.714,-128.291 306.102,-128.647"/>
<polygon fill="midnightblue" stroke="midnightblue" points="306.356,-132.155 316.453,-128.944 306.557,-125.158 306.356,-132.155"/>
</g>
<!-- Node10 -->
<g id="node20" class="node"><title>Node10</title>
<a xlink:href="class_urho3_d_1_1_string.html#a51df88f180228044fb35435b2b3e1f90" target="_top" xlink:title="Return index to the last occurrence of a string, or NPOS if not found.">
<polygon fill="none" stroke="black" points="321.5,-80.5 321.5,-101.5 454.5,-101.5 454.5,-80.5 321.5,-80.5"/>
<text text-anchor="middle" x="388" y="-88.5" font-family="FreeSans" font-size="10.00">Urho3D::String::FindLast</text>
</a>
</g>
<!-- Node5&#45;&gt;Node10 -->
<g id="edge20" class="edge"><title>Node5&#45;&gt;Node10</title>
<path fill="none" stroke="midnightblue" d="M269.533,-114.83C287.407,-111.234 307.33,-107.227 325.66,-103.54"/>
<polygon fill="midnightblue" stroke="midnightblue" points="326.544,-106.932 335.657,-101.529 325.163,-100.07 326.544,-106.932"/>
</g>
<!-- Node11 -->
<g id="node22" class="node"><title>Node11</title>
<a xlink:href="class_urho3_d_1_1_string.html#ade8095f1798d6e1d4ed03d43d9919611" target="_top" xlink:title="Return a substring from position to end.">
<polygon fill="none" stroke="black" points="318,-40.5 318,-61.5 458,-61.5 458,-40.5 318,-40.5"/>
<text text-anchor="middle" x="388" y="-48.5" font-family="FreeSans" font-size="10.00">Urho3D::String::Substring</text>
</a>
</g>
<!-- Node5&#45;&gt;Node11 -->
<g id="edge22" class="edge"><title>Node5&#45;&gt;Node11</title>
<path fill="none" stroke="midnightblue" d="M262.39,-108.915C268.454,-106.203 274.464,-103.219 280,-100 297.761,-89.6721 297.725,-80.3878 316,-71 320.317,-68.7826 324.909,-66.7863 329.604,-64.9936"/>
<polygon fill="midnightblue" stroke="midnightblue" points="331.046,-68.1975 339.332,-61.5946 328.737,-61.5893 331.046,-68.1975"/>
</g>
<!-- Node15 -->
<g id="node31" class="node"><title>Node15</title>
<a xlink:href="class_urho3_d_1_1_string.html#af929252b4bd8cbd8dca97a116365c359" target="_top" xlink:title="Append a string.">
<polygon fill="none" stroke="black" points="322.5,-0.5 322.5,-21.5 453.5,-21.5 453.5,-0.5 322.5,-0.5"/>
<text text-anchor="middle" x="388" y="-8.5" font-family="FreeSans" font-size="10.00">Urho3D::String::Append</text>
</a>
</g>
<!-- Node5&#45;&gt;Node15 -->
<g id="edge32" class="edge"><title>Node5&#45;&gt;Node15</title>
<path fill="none" stroke="midnightblue" d="M267.52,-108.933C272.002,-106.339 276.246,-103.377 280,-100 305.715,-76.8665 289.113,-52.7612 316,-31 318.074,-29.3217 320.279,-27.784 322.58,-26.3751"/>
<polygon fill="midnightblue" stroke="midnightblue" points="324.604,-29.2684 331.867,-21.5547 321.379,-23.0556 324.604,-29.2684"/>
</g>
<!-- Node7 -->
<g id="node13" class="node"><title>Node7</title>
<a xlink:href="class_urho3_d_1_1_string.html#a3d2477d745f6e572795b77ac69075c5d" target="_top" xlink:title="Return whether contains a specific occurrence of a string.">
<polygon fill="none" stroke="black" points="496,-166.5 496,-187.5 632,-187.5 632,-166.5 496,-166.5"/>
<text text-anchor="middle" x="564" y="-174.5" font-family="FreeSans" font-size="10.00">Urho3D::String::Contains</text>
</a>
</g>
<!-- Node6&#45;&gt;Node7 -->
<g id="edge12" class="edge"><title>Node6&#45;&gt;Node7</title>
<path fill="none" stroke="midnightblue" d="M443.688,-177C456.978,-177 471.41,-177 485.512,-177"/>
<polygon fill="midnightblue" stroke="midnightblue" points="485.702,-180.5 495.702,-177 485.702,-173.5 485.702,-180.5"/>
</g>
<!-- Node8 -->
<g id="node15" class="node"><title>Node8</title>
<a xlink:href="class_urho3_d_1_1_string.html#a7cb1eb905c5e4b88d8d281455d8d0caf" target="_top" xlink:title="Return index to the first occurrence of a string, or NPOS if not found.">
<polygon fill="none" stroke="black" points="507.5,-123.5 507.5,-144.5 620.5,-144.5 620.5,-123.5 507.5,-123.5"/>
<text text-anchor="middle" x="564" y="-131.5" font-family="FreeSans" font-size="10.00">Urho3D::String::Find</text>
</a>
</g>
<!-- Node6&#45;&gt;Node8 -->
<g id="edge14" class="edge"><title>Node6&#45;&gt;Node8</title>
<path fill="none" stroke="midnightblue" d="M443.688,-163.395C465.248,-158.127 489.815,-152.125 511.103,-146.924"/>
<polygon fill="midnightblue" stroke="midnightblue" points="512.062,-150.292 520.946,-144.519 510.401,-143.492 512.062,-150.292"/>
</g>
<!-- Node9&#45;&gt;Node8 -->
<g id="edge18" class="edge"><title>Node9&#45;&gt;Node8</title>
<path fill="none" stroke="midnightblue" d="M459.586,-132.22C472.003,-132.432 484.871,-132.651 497.155,-132.861"/>
<polygon fill="midnightblue" stroke="midnightblue" points="497.255,-136.363 507.313,-133.034 497.375,-129.364 497.255,-136.363"/>
</g>
<!-- Node12 -->
<g id="node24" class="node"><title>Node12</title>
<a xlink:href="class_urho3_d_1_1_string.html#aed2d8d23da6f2403c7aaa20082036f88" target="_top" xlink:title="Resize the string.">
<polygon fill="none" stroke="black" points="502,-79.5 502,-100.5 626,-100.5 626,-79.5 502,-79.5"/>
<text text-anchor="middle" x="564" y="-87.5" font-family="FreeSans" font-size="10.00">Urho3D::String::Resize</text>
</a>
</g>
<!-- Node11&#45;&gt;Node12 -->
<g id="edge24" class="edge"><title>Node11&#45;&gt;Node12</title>
<path fill="none" stroke="midnightblue" d="M435.628,-61.554C457.443,-66.388 483.485,-72.1586 506.393,-77.2349"/>
<polygon fill="midnightblue" stroke="midnightblue" points="505.813,-80.6912 516.334,-79.4376 507.328,-73.857 505.813,-80.6912"/>
</g>
<!-- Node13 -->
<g id="node26" class="node"><title>Node13</title>
<a xlink:href="class_urho3_d_1_1_string.html#a953822d6a39e507861ee02a24bb7996e" target="_top" xlink:title="Copy chars from one buffer to another.">
<polygon fill="none" stroke="black" points="668,-59.5 668,-80.5 814,-80.5 814,-59.5 668,-59.5"/>
<text text-anchor="middle" x="741" y="-67.5" font-family="FreeSans" font-size="10.00">Urho3D::String::CopyChars</text>
</a>
</g>
<!-- Node11&#45;&gt;Node13 -->
<g id="edge28" class="edge"><title>Node11&#45;&gt;Node13</title>
<path fill="none" stroke="midnightblue" d="M458.163,-54.7765C515.565,-57.8661 596.888,-62.2433 657.61,-65.5116"/>
<polygon fill="midnightblue" stroke="midnightblue" points="657.76,-69.0246 667.933,-66.0672 658.136,-62.0347 657.76,-69.0246"/>
</g>
<!-- Node14 -->
<g id="node29" class="node"><title>Node14</title>
<a xlink:href="class_urho3_d_1_1_string.html#a6cbd21dcf8801df80b76acebc4dbbdd3" target="_top" xlink:title="Construct empty.">
<polygon fill="none" stroke="black" points="503,-1.5 503,-22.5 625,-22.5 625,-1.5 503,-1.5"/>
<text text-anchor="middle" x="564" y="-9.5" font-family="FreeSans" font-size="10.00">Urho3D::String::String</text>
</a>
</g>
<!-- Node11&#45;&gt;Node14 -->
<g id="edge30" class="edge"><title>Node11&#45;&gt;Node14</title>
<path fill="none" stroke="midnightblue" d="M435.628,-40.446C457.443,-35.612 483.485,-29.8414 506.393,-24.7651"/>
<polygon fill="midnightblue" stroke="midnightblue" points="507.328,-28.143 516.334,-22.5624 505.813,-21.3088 507.328,-28.143"/>
</g>
<!-- Node12&#45;&gt;Node13 -->
<g id="edge26" class="edge"><title>Node12&#45;&gt;Node13</title>
<path fill="none" stroke="midnightblue" d="M626.404,-82.9487C636.586,-81.7982 647.275,-80.5905 657.86,-79.3943"/>
<polygon fill="midnightblue" stroke="midnightblue" points="658.415,-82.854 667.958,-78.2533 657.629,-75.8983 658.415,-82.854"/>
</g>
</g>
</svg>
        <g id="navigator" transform="translate(0 0)" fill="#404254">
                <rect fill="#f2f5e9" fill-opacity="0.5" stroke="#606060" stroke-width=".5" x="0" y="0" width="60" height="60"/>
                <use id="zoomplus" xlink:href="#zoomPlus" x="17" y="9" onmousedown="handleZoom(evt,'in')"/>
                <use id="zoomminus" xlink:href="#zoomMin" x="42" y="9" onmousedown="handleZoom(evt,'out')"/>
                <use id="reset" xlink:href="#resetDef" x="30" y="36" onmousedown="handleReset()"/>
                <g id="arrowUp" xlink:href="#dirArrow" transform="translate(30 24)" onmousedown="handlePan(0,-1)">
                  <use xlink:href="#rim" fill="#404040">
                        <set attributeName="fill" to="#808080" begin="arrowUp.mouseover" end="arrowUp.mouseout"/>
                  </use>
                  <path fill="none" stroke="white" stroke-width="1.5" d="M0,-3.0v7 M-2.5,-0.5L0,-3.0L2.5,-0.5"/>
                </g>
                <g id="arrowRight" xlink:href="#dirArrow" transform="rotate(90) translate(36 -43)" onmousedown="handlePan(1,0)">
                  <use xlink:href="#rim" fill="#404040">
                        <set attributeName="fill" to="#808080" begin="arrowRight.mouseover" end="arrowRight.mouseout"/>
                  </use>
                  <path fill="none" stroke="white" stroke-width="1.5" d="M0,-3.0v7 M-2.5,-0.5L0,-3.0L2.5,-0.5"/>
                </g>
                <g id="arrowDown" xlink:href="#dirArrow" transform="rotate(180) translate(-30 -48)" onmousedown="handlePan(0,1)">
                  <use xlink:href="#rim" fill="#404040">
                        <set attributeName="fill" to="#808080" begin="arrowDown.mouseover" end="arrowDown.mouseout"/>
                  </use>
                  <path fill="none" stroke="white" stroke-width="1.5" d="M0,-3.0v7 M-2.5,-0.5L0,-3.0L2.5,-0.5"/>
                </g>
                <g id="arrowLeft" xlink:href="#dirArrow" transform="rotate(270) translate(-36 17)" onmousedown="handlePan(-1,0)">
                  <use xlink:href="#rim" fill="#404040">
                        <set attributeName="fill" to="#808080" begin="arrowLeft.mouseover" end="arrowLeft.mouseout"/>
                  </use>
                  <path fill="none" stroke="white" stroke-width="1.5" d="M0,-3.0v7 M-2.5,-0.5L0,-3.0L2.5,-0.5"/>
                </g>
        </g>
        <svg viewBox="0 0 15 15" width="100%" height="30px" preserveAspectRatio="xMaxYMin meet">
         <g id="arrow_out" transform="scale(0.3 0.3)">
          <a xlink:href="class_urho3_d_1_1_file_system_a5d93365af462341ea8029827581854a6_cgraph_org.svg" target="_base">
           <rect id="button" ry="5" rx="5" y="6" x="6" height="38" width="38"
                fill="#f2f5e9" fill-opacity="0.5" stroke="#606060" stroke-width="1.0"/>
           <path id="arrow"
             d="M 11.500037,31.436501 C 11.940474,20.09759 22.043105,11.32322 32.158766,21.979434 L 37.068811,17.246167 C 37.068811,17.246167 37.088388,32 37.088388,32 L 22.160133,31.978069 C 22.160133,31.978069 26.997745,27.140456 26.997745,27.140456 C 18.528582,18.264221 13.291696,25.230495 11.500037,31.436501 z"
             style="fill:#404040;"/>
          </a>
         </g>
        </svg>
</svg>
