<?xml version="1.0" encoding="UTF-8" standalone="no"?>
<!DOCTYPE svg PUBLIC "-//W3C//DTD SVG 1.1//EN"
 "http://www.w3.org/Graphics/SVG/1.1/DTD/svg11.dtd">
<!-- Generated by graphviz version 2.26.3 (20100126.1600)
 -->
<!-- Title: Urho3D::Terrain Pages: 1 -->
<svg width="1384pt" height="655pt"
 viewBox="0.00 0.00 1384.00 654.81" xmlns="http://www.w3.org/2000/svg" xmlns:xlink="http://www.w3.org/1999/xlink">
<g id="graph1" class="graph" transform="scale(1 1) rotate(0) translate(4 650.808)">
<title>Urho3D::Terrain</title>
<!-- Node1 -->
<g id="node1" class="node"><title>Node1</title>
<polygon fill="#bfbfbf" stroke="black" points="1284.5,-327.308 1284.5,-348.308 1375.5,-348.308 1375.5,-327.308 1284.5,-327.308"/>
<text text-anchor="middle" x="1330" y="-335.308" font-family="FreeSans" font-size="10.00">Urho3D::Terrain</text>
</g>
<!-- Node2 -->
<g id="node2" class="node"><title>Node2</title>
<a xlink:href="class_urho3_d_1_1_component.html" target="_top" xlink:title="Base class for components. Components can be created to scene nodes.">
<polygon fill="none" stroke="black" points="1029,-450.308 1029,-471.308 1145,-471.308 1145,-450.308 1029,-450.308"/>
<text text-anchor="middle" x="1087" y="-458.308" font-family="FreeSans" font-size="10.00">Urho3D::Component</text>
</a>
</g>
<!-- Node2&#45;&gt;Node1 -->
<g id="edge2" class="edge"><title>Node2&#45;&gt;Node1</title>
<path fill="none" stroke="midnightblue" d="M1141.73,-447.436C1178.64,-436.901 1227.44,-419.935 1266,-395.808 1287.61,-382.286 1308.74,-361.146 1320.5,-348.469"/>
<polygon fill="midnightblue" stroke="midnightblue" points="1140.35,-444.187 1131.65,-450.237 1142.23,-450.931 1140.35,-444.187"/>
</g>
<!-- Node3 -->
<g id="node4" class="node"><title>Node3</title>
<a xlink:href="class_urho3_d_1_1_animatable.html" target="_top" xlink:title="Base class for animatable object, an animatable object can be set animation on it&#39;s attributes...">
<polygon fill="none" stroke="black" points="383,-534.308 383,-555.308 497,-555.308 497,-534.308 383,-534.308"/>
<text text-anchor="middle" x="440" y="-542.308" font-family="FreeSans" font-size="10.00">Urho3D::Animatable</text>
</a>
</g>
<!-- Node3&#45;&gt;Node2 -->
<g id="edge4" class="edge"><title>Node3&#45;&gt;Node2</title>
<path fill="none" stroke="midnightblue" d="M507.371,-539.804C550.028,-536.408 606.315,-531.507 656,-525.808 810.3,-508.108 848.756,-502.069 1002,-476.808 1012.07,-475.147 1022.79,-473.24 1033.11,-471.334"/>
<polygon fill="midnightblue" stroke="midnightblue" points="507.079,-536.317 497.386,-540.592 507.63,-543.295 507.079,-536.317"/>
</g>
<!-- Node8 -->
<g id="node14" class="node"><title>Node8</title>
<a xlink:href="class_urho3_d_1_1_node.html" target="_top" xlink:title="Scene node that may contain components and child nodes.">
<polygon fill="none" stroke="red" points="688.5,-427.308 688.5,-448.308 773.5,-448.308 773.5,-427.308 688.5,-427.308"/>
<text text-anchor="middle" x="731" y="-435.308" font-family="FreeSans" font-size="10.00">Urho3D::Node</text>
</a>
</g>
<!-- Node3&#45;&gt;Node8 -->
<g id="edge16" class="edge"><title>Node3&#45;&gt;Node8</title>
<path fill="none" stroke="midnightblue" d="M499.959,-532.169C561.366,-519.12 648.848,-500.198 656,-496.808 681.749,-484.604 706.754,-462.165 720.391,-448.754"/>
<polygon fill="midnightblue" stroke="midnightblue" points="499.019,-528.79 489.964,-534.29 500.472,-535.638 499.019,-528.79"/>
</g>
<!-- Node4 -->
<g id="node6" class="node"><title>Node4</title>
<a xlink:href="class_urho3_d_1_1_serializable.html" target="_top" xlink:title="Base class for objects with automatic serialization through attributes.">
<polygon fill="none" stroke="red" points="44,-560.308 44,-581.308 158,-581.308 158,-560.308 44,-560.308"/>
<text text-anchor="middle" x="101" y="-568.308" font-family="FreeSans" font-size="10.00">Urho3D::Serializable</text>
</a>
</g>
<!-- Node4&#45;&gt;Node3 -->
<g id="edge6" class="edge"><title>Node4&#45;&gt;Node3</title>
<path fill="none" stroke="midnightblue" d="M168.319,-565.645C231.09,-560.831 323.69,-553.729 382.926,-549.185"/>
<polygon fill="midnightblue" stroke="midnightblue" points="167.826,-562.172 158.123,-566.427 168.362,-569.152 167.826,-562.172"/>
</g>
<!-- Node5 -->
<g id="node8" class="node"><title>Node5</title>
<a xlink:href="class_urho3_d_1_1_hash_map.html" target="_top" xlink:title="Urho3D::HashMap\&lt; Urho3D\l::String, Urho3D::SharedPtr\l\&lt; Urho3D::AttributeAnimationInfo \&gt; \&gt;">
<polygon fill="none" stroke="red" points="0.5,-494.308 0.5,-541.308 201.5,-541.308 201.5,-494.308 0.5,-494.308"/>
<text text-anchor="start" x="8.5" y="-528.308" font-family="FreeSans" font-size="10.00">Urho3D::HashMap&lt; Urho3D</text>
<text text-anchor="start" x="8.5" y="-515.308" font-family="FreeSans" font-size="10.00">::String, Urho3D::SharedPtr</text>
<text text-anchor="middle" x="101" y="-502.308" font-family="FreeSans" font-size="10.00">&lt; Urho3D::AttributeAnimationInfo &gt; &gt;</text>
</a>
</g>
<!-- Node5&#45;&gt;Node3 -->
<g id="edge8" class="edge"><title>Node5&#45;&gt;Node3</title>
<path fill="none" stroke="#9a32cd" stroke-dasharray="5,2" d="M211.641,-522.657C258.141,-525.196 312.766,-528.835 362,-533.808 368.803,-534.495 375.924,-535.334 382.98,-536.238"/>
<polygon fill="#9a32cd" stroke="#9a32cd" points="211.714,-519.156 201.541,-522.116 211.34,-526.146 211.714,-519.156"/>
<text text-anchor="middle" x="291" y="-537.808" font-family="FreeSans" font-size="10.00"> attributeAnimationInfos_</text>
</g>
<!-- Node6 -->
<g id="node10" class="node"><title>Node6</title>
<a xlink:href="class_urho3_d_1_1_shared_ptr.html" target="_top" xlink:title="Urho3D::SharedPtr\&lt;\l Urho3D::ObjectAnimation \&gt;">
<polygon fill="none" stroke="red" points="24.5,-441.808 24.5,-475.808 177.5,-475.808 177.5,-441.808 24.5,-441.808"/>
<text text-anchor="start" x="32.5" y="-462.808" font-family="FreeSans" font-size="10.00">Urho3D::SharedPtr&lt;</text>
<text text-anchor="middle" x="101" y="-449.808" font-family="FreeSans" font-size="10.00"> Urho3D::ObjectAnimation &gt;</text>
</a>
</g>
<!-- Node6&#45;&gt;Node3 -->
<g id="edge10" class="edge"><title>Node6&#45;&gt;Node3</title>
<path fill="none" stroke="#9a32cd" stroke-dasharray="5,2" d="M187.757,-460.876C240.815,-465.331 308.532,-476.924 362,-505.808 372.234,-511.337 370.189,-518.56 380,-524.808 385.927,-528.583 392.641,-531.72 399.377,-534.303"/>
<polygon fill="#9a32cd" stroke="#9a32cd" points="187.928,-457.379 177.689,-460.101 187.391,-464.359 187.928,-457.379"/>
<text text-anchor="middle" x="291" y="-509.808" font-family="FreeSans" font-size="10.00"> objectAnimation_</text>
</g>
<!-- Node7 -->
<g id="node12" class="node"><title>Node7</title>
<a xlink:href="class_urho3_d_1_1_hash_set.html" target="_top" xlink:title="Urho3D::HashSet\&lt; const\l Urho3D::AttributeInfo * \&gt;">
<polygon fill="none" stroke="red" points="30.5,-599.808 30.5,-633.808 171.5,-633.808 171.5,-599.808 30.5,-599.808"/>
<text text-anchor="start" x="38.5" y="-620.808" font-family="FreeSans" font-size="10.00">Urho3D::HashSet&lt; const</text>
<text text-anchor="middle" x="101" y="-607.808" font-family="FreeSans" font-size="10.00"> Urho3D::AttributeInfo * &gt;</text>
</a>
</g>
<!-- Node7&#45;&gt;Node3 -->
<g id="edge12" class="edge"><title>Node7&#45;&gt;Node3</title>
<path fill="none" stroke="#9a32cd" stroke-dasharray="5,2" d="M181.742,-605.09C233.606,-596.87 302.211,-584.704 362,-569.808 378.144,-565.786 395.824,-560.218 410.264,-555.358"/>
<polygon fill="#9a32cd" stroke="#9a32cd" points="180.937,-601.673 171.6,-606.68 182.022,-608.588 180.937,-601.673"/>
<text text-anchor="middle" x="291" y="-601.808" font-family="FreeSans" font-size="10.00"> animatedNetworkAttributes_</text>
</g>
<!-- Node8&#45;&gt;Node2 -->
<g id="edge14" class="edge"><title>Node8&#45;&gt;Node2</title>
<path fill="none" stroke="#9a32cd" stroke-dasharray="5,2" d="M783.732,-447.876C791.186,-449.028 798.771,-450.056 806,-450.808 882.836,-458.797 972.056,-460.73 1028.99,-461.042"/>
<polygon fill="#9a32cd" stroke="#9a32cd" points="784.127,-444.394 773.695,-446.243 783.003,-451.303 784.127,-444.394"/>
<text text-anchor="middle" x="904" y="-463.808" font-family="FreeSans" font-size="10.00"> node_</text>
</g>
<!-- Node8&#45;&gt;Node8 -->
<g id="edge34" class="edge"><title>Node8&#45;&gt;Node8</title>
<path fill="none" stroke="#9a32cd" stroke-dasharray="5,2" d="M704.322,-457.863C706.072,-462.972 714.964,-466.808 731,-466.808 756.031,-466.808 763.658,-457.461 753.88,-448.516"/>
<polygon fill="#9a32cd" stroke="#9a32cd" points="707.598,-459.098 708.12,-448.516 701.113,-456.463 707.598,-459.098"/>
<text text-anchor="middle" x="731" y="-470.808" font-family="FreeSans" font-size="10.00"> parent_</text>
</g>
<!-- Node11 -->
<g id="node21" class="node"><title>Node11</title>
<a xlink:href="class_urho3_d_1_1_scene.html" target="_top" xlink:title="Root scene node, represents the whole scene.">
<polygon fill="none" stroke="red" points="1042.5,-410.308 1042.5,-431.308 1131.5,-431.308 1131.5,-410.308 1042.5,-410.308"/>
<text text-anchor="middle" x="1087" y="-418.308" font-family="FreeSans" font-size="10.00">Urho3D::Scene</text>
</a>
</g>
<!-- Node8&#45;&gt;Node11 -->
<g id="edge24" class="edge"><title>Node8&#45;&gt;Node11</title>
<path fill="none" stroke="midnightblue" d="M779.964,-425.065C788.584,-423.295 797.512,-421.758 806,-420.808 888.904,-411.53 986.431,-414.647 1042.05,-417.739"/>
<polygon fill="midnightblue" stroke="midnightblue" points="779.057,-421.681 770.033,-427.231 780.549,-428.52 779.057,-421.681"/>
</g>
<!-- Node9 -->
<g id="node17" class="node"><title>Node9</title>
<a xlink:href="class_urho3_d_1_1_p_o_d_vector.html" target="_top" xlink:title="Urho3D::PODVector\&lt;\l Urho3D::Node * \&gt;">
<polygon fill="none" stroke="black" points="380.5,-410.808 380.5,-444.808 499.5,-444.808 499.5,-410.808 380.5,-410.808"/>
<text text-anchor="start" x="388.5" y="-431.808" font-family="FreeSans" font-size="10.00">Urho3D::PODVector&lt;</text>
<text text-anchor="middle" x="440" y="-418.808" font-family="FreeSans" font-size="10.00"> Urho3D::Node * &gt;</text>
</a>
</g>
<!-- Node9&#45;&gt;Node8 -->
<g id="edge18" class="edge"><title>Node9&#45;&gt;Node8</title>
<path fill="none" stroke="#9a32cd" stroke-dasharray="5,2" d="M509.732,-430.204C565.389,-432.117 641.56,-434.735 688.46,-436.346"/>
<polygon fill="#9a32cd" stroke="#9a32cd" points="509.705,-426.701 499.59,-429.856 509.464,-433.697 509.705,-426.701"/>
<text text-anchor="middle" x="587" y="-438.808" font-family="FreeSans" font-size="10.00"> dependencyNodes_</text>
</g>
<!-- Node10 -->
<g id="node19" class="node"><title>Node10</title>
<a xlink:href="class_urho3_d_1_1_vector_base.html" target="_top" xlink:title="Vector base class.">
<polygon fill="none" stroke="black" points="44,-197.308 44,-218.308 158,-218.308 158,-197.308 44,-197.308"/>
<text text-anchor="middle" x="101" y="-205.308" font-family="FreeSans" font-size="10.00">Urho3D::VectorBase</text>
</a>
</g>
<!-- Node10&#45;&gt;Node9 -->
<g id="edge20" class="edge"><title>Node10&#45;&gt;Node9</title>
<path fill="none" stroke="midnightblue" d="M122.251,-224.804C167.662,-260.611 278.321,-345.166 380,-401.808 385.554,-404.902 391.549,-407.886 397.527,-410.661"/>
<polygon fill="midnightblue" stroke="midnightblue" points="124.316,-221.974 114.304,-218.508 119.969,-227.461 124.316,-221.974"/>
</g>
<!-- Node21 -->
<g id="node48" class="node"><title>Node21</title>
<a xlink:href="class_urho3_d_1_1_p_o_d_vector.html" target="_top" xlink:title="Urho3D::PODVector\&lt;\l Urho3D::Pair\&lt; unsigned,\l unsigned \&gt; \&gt;">
<polygon fill="none" stroke="black" points="518.5,-184.308 518.5,-231.308 655.5,-231.308 655.5,-184.308 518.5,-184.308"/>
<text text-anchor="start" x="526.5" y="-218.308" font-family="FreeSans" font-size="10.00">Urho3D::PODVector&lt;</text>
<text text-anchor="start" x="526.5" y="-205.308" font-family="FreeSans" font-size="10.00"> Urho3D::Pair&lt; unsigned,</text>
<text text-anchor="middle" x="587" y="-192.308" font-family="FreeSans" font-size="10.00"> unsigned &gt; &gt;</text>
</a>
</g>
<!-- Node10&#45;&gt;Node21 -->
<g id="edge58" class="edge"><title>Node10&#45;&gt;Node21</title>
<path fill="none" stroke="midnightblue" d="M168.238,-207.808C260.471,-207.808 425.356,-207.808 518.333,-207.808"/>
<polygon fill="midnightblue" stroke="midnightblue" points="168.18,-204.308 158.18,-207.808 168.179,-211.308 168.18,-204.308"/>
</g>
<!-- Node25 -->
<g id="node58" class="node"><title>Node25</title>
<a xlink:href="class_urho3_d_1_1_vector.html" target="_top" xlink:title="Urho3D::Vector\&lt; Urho3D\l::WeakPtr\&lt; Urho3D::TerrainPatch \&gt; \&gt;">
<polygon fill="none" stroke="black" points="806.5,-149.808 806.5,-183.808 1001.5,-183.808 1001.5,-149.808 806.5,-149.808"/>
<text text-anchor="start" x="814.5" y="-170.808" font-family="FreeSans" font-size="10.00">Urho3D::Vector&lt; Urho3D</text>
<text text-anchor="middle" x="904" y="-157.808" font-family="FreeSans" font-size="10.00">::WeakPtr&lt; Urho3D::TerrainPatch &gt; &gt;</text>
</a>
</g>
<!-- Node10&#45;&gt;Node25 -->
<g id="edge70" class="edge"><title>Node10&#45;&gt;Node25</title>
<path fill="none" stroke="midnightblue" d="M168.295,-203.126C250.704,-197.504 394.561,-188.054 518,-181.808 616.124,-176.843 728.352,-172.648 806.408,-169.968"/>
<polygon fill="midnightblue" stroke="midnightblue" points="168.048,-199.634 158.31,-203.808 168.526,-206.618 168.048,-199.634"/>
</g>
<!-- Node11&#45;&gt;Node8 -->
<g id="edge22" class="edge"><title>Node11&#45;&gt;Node8</title>
<path fill="none" stroke="#9a32cd" stroke-dasharray="5,2" d="M1032.29,-423.42C961.114,-426.819 838.234,-432.687 773.588,-435.774"/>
<polygon fill="#9a32cd" stroke="#9a32cd" points="1032.59,-426.911 1042.41,-422.938 1032.25,-419.919 1032.59,-426.911"/>
<text text-anchor="middle" x="904" y="-437.808" font-family="FreeSans" font-size="10.00"> scene_</text>
</g>
<!-- Node12 -->
<g id="node24" class="node"><title>Node12</title>
<a xlink:href="class_urho3_d_1_1_quaternion.html" target="_top" xlink:title="Rotation represented as a four&#45;dimensional normalized vector.">
<polygon fill="none" stroke="black" points="383.5,-463.308 383.5,-484.308 496.5,-484.308 496.5,-463.308 383.5,-463.308"/>
<text text-anchor="middle" x="440" y="-471.308" font-family="FreeSans" font-size="10.00">Urho3D::Quaternion</text>
</a>
</g>
<!-- Node12&#45;&gt;Node8 -->
<g id="edge26" class="edge"><title>Node12&#45;&gt;Node8</title>
<path fill="none" stroke="#9a32cd" stroke-dasharray="5,2" d="M506.564,-468.467C549.359,-464.679 606.09,-458.995 656,-451.808 666.488,-450.298 677.746,-448.364 688.267,-446.419"/>
<polygon fill="#9a32cd" stroke="#9a32cd" points="506.209,-464.985 496.552,-469.342 506.818,-471.958 506.209,-464.985"/>
<text text-anchor="middle" x="587" y="-483.808" font-family="FreeSans" font-size="10.00"> worldRotation_</text>
<text text-anchor="middle" x="587" y="-470.808" font-family="FreeSans" font-size="10.00">rotation_</text>
</g>
<!-- Node12&#45;&gt;Node12 -->
<g id="edge28" class="edge"><title>Node12&#45;&gt;Node12</title>
<path fill="none" stroke="#9a32cd" stroke-dasharray="5,2" d="M412.951,-493.863C414.725,-498.972 423.742,-502.808 440,-502.808 465.379,-502.808 473.112,-493.461 463.198,-484.516"/>
<polygon fill="#9a32cd" stroke="#9a32cd" points="416.229,-495.095 416.802,-484.516 409.757,-492.429 416.229,-495.095"/>
<text text-anchor="middle" x="440" y="-506.808" font-family="FreeSans" font-size="10.00"> IDENTITY</text>
</g>
<!-- Node13 -->
<g id="node27" class="node"><title>Node13</title>
<a xlink:href="class_urho3_d_1_1_vector3.html" target="_top" xlink:title="Three&#45;dimensional vector.">
<polygon fill="none" stroke="black" points="392,-249.308 392,-270.308 488,-270.308 488,-249.308 392,-249.308"/>
<text text-anchor="middle" x="440" y="-257.308" font-family="FreeSans" font-size="10.00">Urho3D::Vector3</text>
</a>
</g>
<!-- Node13&#45;&gt;Node1 -->
<g id="edge40" class="edge"><title>Node13&#45;&gt;Node1</title>
<path fill="none" stroke="#9a32cd" stroke-dasharray="5,2" d="M485.116,-273.131C597.518,-304.832 899.333,-380.805 1154,-362.808 1198.49,-359.664 1248.83,-352.104 1284.24,-346.115"/>
<polygon fill="#9a32cd" stroke="#9a32cd" points="486.039,-269.755 475.463,-270.386 484.124,-276.488 486.039,-269.755"/>
<text text-anchor="middle" x="904" y="-379.808" font-family="FreeSans" font-size="10.00"> spacing_</text>
<text text-anchor="middle" x="904" y="-366.808" font-family="FreeSans" font-size="10.00">lastSpacing_</text>
</g>
<!-- Node13&#45;&gt;Node8 -->
<g id="edge30" class="edge"><title>Node13&#45;&gt;Node8</title>
<path fill="none" stroke="#9a32cd" stroke-dasharray="5,2" d="M448.999,-279.614C461.123,-303.992 485.046,-344.848 518,-366.808 570.478,-401.779 596.801,-378.075 656,-399.808 676.28,-407.253 698.178,-418.791 713.046,-427.2"/>
<polygon fill="#9a32cd" stroke="#9a32cd" points="452.143,-278.076 444.667,-270.568 445.83,-281.099 452.143,-278.076"/>
<text text-anchor="middle" x="587" y="-416.808" font-family="FreeSans" font-size="10.00"> scale_</text>
<text text-anchor="middle" x="587" y="-403.808" font-family="FreeSans" font-size="10.00">position_</text>
</g>
<!-- Node13&#45;&gt;Node13 -->
<g id="edge32" class="edge"><title>Node13&#45;&gt;Node13</title>
<path fill="none" stroke="#9a32cd" stroke-dasharray="5,2" d="M412.951,-279.863C414.725,-284.972 423.742,-288.808 440,-288.808 465.379,-288.808 473.112,-279.461 463.198,-270.516"/>
<polygon fill="#9a32cd" stroke="#9a32cd" points="416.229,-281.095 416.802,-270.516 409.757,-278.429 416.229,-281.095"/>
<text text-anchor="middle" x="440" y="-383.808" font-family="FreeSans" font-size="10.00"> ONE</text>
<text text-anchor="middle" x="440" y="-370.808" font-family="FreeSans" font-size="10.00">DOWN</text>
<text text-anchor="middle" x="440" y="-357.808" font-family="FreeSans" font-size="10.00">BACK</text>
<text text-anchor="middle" x="440" y="-344.808" font-family="FreeSans" font-size="10.00">RIGHT</text>
<text text-anchor="middle" x="440" y="-331.808" font-family="FreeSans" font-size="10.00">LEFT</text>
<text text-anchor="middle" x="440" y="-318.808" font-family="FreeSans" font-size="10.00">ZERO</text>
<text text-anchor="middle" x="440" y="-305.808" font-family="FreeSans" font-size="10.00">FORWARD</text>
<text text-anchor="middle" x="440" y="-292.808" font-family="FreeSans" font-size="10.00">UP</text>
</g>
<!-- Node14 -->
<g id="node31" class="node"><title>Node14</title>
<a xlink:href="class_urho3_d_1_1_vector2.html" target="_top" xlink:title="Two&#45;dimensional vector.">
<polygon fill="none" stroke="black" points="1039,-236.308 1039,-257.308 1135,-257.308 1135,-236.308 1039,-236.308"/>
<text text-anchor="middle" x="1087" y="-244.308" font-family="FreeSans" font-size="10.00">Urho3D::Vector2</text>
</a>
</g>
<!-- Node14&#45;&gt;Node1 -->
<g id="edge36" class="edge"><title>Node14&#45;&gt;Node1</title>
<path fill="none" stroke="#9a32cd" stroke-dasharray="5,2" d="M1124.95,-261.022C1173.96,-279.375 1258.14,-310.896 1301.83,-327.259"/>
<polygon fill="#9a32cd" stroke="#9a32cd" points="1125.94,-257.654 1115.35,-257.425 1123.49,-264.21 1125.94,-257.654"/>
<text text-anchor="middle" x="1219" y="-329.808" font-family="FreeSans" font-size="10.00"> patchWorldSize_</text>
<text text-anchor="middle" x="1219" y="-316.808" font-family="FreeSans" font-size="10.00">patchWorldOrigin_</text>
</g>
<!-- Node14&#45;&gt;Node14 -->
<g id="edge38" class="edge"><title>Node14&#45;&gt;Node14</title>
<path fill="none" stroke="#9a32cd" stroke-dasharray="5,2" d="M1062.67,-267.235C1064.55,-272.157 1072.66,-275.808 1087,-275.808 1109.95,-275.808 1116.94,-266.461 1107.97,-257.516"/>
<polygon fill="#9a32cd" stroke="#9a32cd" points="1066.07,-268.111 1066.03,-257.516 1059.46,-265.828 1066.07,-268.111"/>
<text text-anchor="middle" x="1087" y="-344.808" font-family="FreeSans" font-size="10.00"> ONE</text>
<text text-anchor="middle" x="1087" y="-331.808" font-family="FreeSans" font-size="10.00">DOWN</text>
<text text-anchor="middle" x="1087" y="-318.808" font-family="FreeSans" font-size="10.00">RIGHT</text>
<text text-anchor="middle" x="1087" y="-305.808" font-family="FreeSans" font-size="10.00">LEFT</text>
<text text-anchor="middle" x="1087" y="-292.808" font-family="FreeSans" font-size="10.00">ZERO</text>
<text text-anchor="middle" x="1087" y="-279.808" font-family="FreeSans" font-size="10.00">UP</text>
</g>
<!-- Node15 -->
<g id="node35" class="node"><title>Node15</title>
<a xlink:href="class_urho3_d_1_1_shared_array_ptr.html" target="_top" xlink:title="Urho3D::SharedArrayPtr\l\&lt; float \&gt;">
<polygon fill="none" stroke="black" points="1020.5,-96.8081 1020.5,-130.808 1153.5,-130.808 1153.5,-96.8081 1020.5,-96.8081"/>
<text text-anchor="start" x="1028.5" y="-117.808" font-family="FreeSans" font-size="10.00">Urho3D::SharedArrayPtr</text>
<text text-anchor="middle" x="1087" y="-104.808" font-family="FreeSans" font-size="10.00">&lt; float &gt;</text>
</a>
</g>
<!-- Node15&#45;&gt;Node1 -->
<g id="edge42" class="edge"><title>Node15&#45;&gt;Node1</title>
<path fill="none" stroke="#9a32cd" stroke-dasharray="5,2" d="M1163.98,-110.967C1205.06,-111.062 1250.32,-114.271 1266,-126.808 1298.67,-152.922 1322.19,-288.17 1328.39,-327.233"/>
<polygon fill="#9a32cd" stroke="#9a32cd" points="1163.91,-107.467 1153.92,-111.003 1163.94,-114.467 1163.91,-107.467"/>
<text text-anchor="middle" x="1219" y="-143.808" font-family="FreeSans" font-size="10.00"> heightData_</text>
<text text-anchor="middle" x="1219" y="-130.808" font-family="FreeSans" font-size="10.00">sourceHeightData_</text>
</g>
<!-- Node16 -->
<g id="node37" class="node"><title>Node16</title>
<a xlink:href="struct_urho3_d_1_1_ref_count.html" target="_top" xlink:title="Reference count structure.">
<polygon fill="none" stroke="black" points="680,-103.308 680,-124.308 782,-124.308 782,-103.308 680,-103.308"/>
<text text-anchor="middle" x="731" y="-111.308" font-family="FreeSans" font-size="10.00">Urho3D::RefCount</text>
</a>
</g>
<!-- Node16&#45;&gt;Node15 -->
<g id="edge44" class="edge"><title>Node16&#45;&gt;Node15</title>
<path fill="none" stroke="#9a32cd" stroke-dasharray="5,2" d="M792.276,-113.808C855.812,-113.808 954.837,-113.808 1020.31,-113.808"/>
<polygon fill="#9a32cd" stroke="#9a32cd" points="792.006,-110.308 782.006,-113.808 792.006,-117.308 792.006,-110.308"/>
<text text-anchor="middle" x="904" y="-117.808" font-family="FreeSans" font-size="10.00"> refCount_</text>
</g>
<!-- Node17 -->
<g id="node39" class="node"><title>Node17</title>
<a xlink:href="class_urho3_d_1_1_shared_ptr.html" target="_top" xlink:title="Urho3D::SharedPtr\&lt;\l Urho3D::IndexBuffer \&gt;">
<polygon fill="none" stroke="black" points="1023,-612.808 1023,-646.808 1151,-646.808 1151,-612.808 1023,-612.808"/>
<text text-anchor="start" x="1031" y="-633.808" font-family="FreeSans" font-size="10.00">Urho3D::SharedPtr&lt;</text>
<text text-anchor="middle" x="1087" y="-620.808" font-family="FreeSans" font-size="10.00"> Urho3D::IndexBuffer &gt;</text>
</a>
</g>
<!-- Node17&#45;&gt;Node1 -->
<g id="edge46" class="edge"><title>Node17&#45;&gt;Node1</title>
<path fill="none" stroke="#9a32cd" stroke-dasharray="5,2" d="M1161.21,-627.751C1197.25,-622.929 1238.58,-611.142 1266,-583.808 1300.53,-549.378 1323.14,-391.061 1328.67,-348.415"/>
<polygon fill="#9a32cd" stroke="#9a32cd" points="1160.72,-624.285 1151.2,-628.934 1161.54,-631.236 1160.72,-624.285"/>
<text text-anchor="middle" x="1219" y="-629.808" font-family="FreeSans" font-size="10.00"> indexBuffer_</text>
</g>
<!-- Node18 -->
<g id="node41" class="node"><title>Node18</title>
<a xlink:href="class_urho3_d_1_1_index_buffer.html" target="_top" xlink:title="Hardware index buffer.">
<polygon fill="none" stroke="red" points="674.5,-619.308 674.5,-640.308 787.5,-640.308 787.5,-619.308 674.5,-619.308"/>
<text text-anchor="middle" x="731" y="-627.308" font-family="FreeSans" font-size="10.00">Urho3D::IndexBuffer</text>
</a>
</g>
<!-- Node18&#45;&gt;Node17 -->
<g id="edge48" class="edge"><title>Node18&#45;&gt;Node17</title>
<path fill="none" stroke="#9a32cd" stroke-dasharray="5,2" d="M797.866,-629.808C862.366,-629.808 959.316,-629.808 1022.88,-629.808"/>
<polygon fill="#9a32cd" stroke="#9a32cd" points="797.803,-626.308 787.803,-629.808 797.803,-633.308 797.803,-626.308"/>
<text text-anchor="middle" x="904" y="-633.808" font-family="FreeSans" font-size="10.00"> ptr_</text>
</g>
<!-- Node19 -->
<g id="node43" class="node"><title>Node19</title>
<a xlink:href="class_urho3_d_1_1_shared_ptr.html" target="_top" xlink:title="Urho3D::SharedPtr\&lt;\l Urho3D::Image \&gt;">
<polygon fill="none" stroke="black" points="1029,-36.8081 1029,-70.8081 1145,-70.8081 1145,-36.8081 1029,-36.8081"/>
<text text-anchor="start" x="1037" y="-57.8081" font-family="FreeSans" font-size="10.00">Urho3D::SharedPtr&lt;</text>
<text text-anchor="middle" x="1087" y="-44.8081" font-family="FreeSans" font-size="10.00"> Urho3D::Image &gt;</text>
</a>
</g>
<!-- Node19&#45;&gt;Node1 -->
<g id="edge50" class="edge"><title>Node19&#45;&gt;Node1</title>
<path fill="none" stroke="#9a32cd" stroke-dasharray="5,2" d="M1155.3,-62.0577C1198.9,-68.6801 1250.12,-79.4296 1266,-94.8081 1300.63,-128.34 1323.17,-285.074 1328.68,-327.304"/>
<polygon fill="#9a32cd" stroke="#9a32cd" points="1155.68,-58.575 1145.27,-60.5851 1154.66,-65.5007 1155.68,-58.575"/>
<text text-anchor="middle" x="1219" y="-98.8081" font-family="FreeSans" font-size="10.00"> heightMap_</text>
</g>
<!-- Node20 -->
<g id="node45" class="node"><title>Node20</title>
<a xlink:href="class_urho3_d_1_1_image.html" target="_top" xlink:title="Image resource.">
<polygon fill="none" stroke="red" points="1285.5,-19.3081 1285.5,-40.3081 1374.5,-40.3081 1374.5,-19.3081 1285.5,-19.3081"/>
<text text-anchor="middle" x="1330" y="-27.3081" font-family="FreeSans" font-size="10.00">Urho3D::Image</text>
</a>
</g>
<!-- Node19&#45;&gt;Node20 -->
<g id="edge54" class="edge"><title>Node19&#45;&gt;Node20</title>
<path fill="none" stroke="#9a32cd" stroke-dasharray="5,2" d="M1118.72,-31.2394C1134.04,-21.6926 1153.16,-11.6688 1172,-6.80807 1212.45,3.63107 1224.84,0.362953 1266,-6.80807 1279.96,-9.24 1294.89,-14.4457 1306.82,-19.2904"/>
<polygon fill="#9a32cd" stroke="#9a32cd" points="1116.67,-28.3974 1110.17,-36.7626 1120.47,-34.2778 1116.67,-28.3974"/>
<text text-anchor="middle" x="1219" y="-23.8081" font-family="FreeSans" font-size="10.00"> nextLevel_</text>
<text text-anchor="middle" x="1219" y="-10.8081" font-family="FreeSans" font-size="10.00">nextSibling_</text>
</g>
<!-- Node20&#45;&gt;Node19 -->
<g id="edge52" class="edge"><title>Node20&#45;&gt;Node19</title>
<path fill="none" stroke="#9a32cd" stroke-dasharray="5,2" d="M1275.15,-35.2258C1236.43,-39.0494 1184.65,-44.1641 1145.2,-48.0595"/>
<polygon fill="#9a32cd" stroke="#9a32cd" points="1275.59,-38.6994 1285.19,-34.2334 1274.9,-31.7333 1275.59,-38.6994"/>
<text text-anchor="middle" x="1219" y="-49.8081" font-family="FreeSans" font-size="10.00"> ptr_</text>
</g>
<!-- Node21&#45;&gt;Node1 -->
<g id="edge56" class="edge"><title>Node21&#45;&gt;Node1</title>
<path fill="none" stroke="#9a32cd" stroke-dasharray="5,2" d="M665.732,-201.373C776.294,-194.373 983.164,-188.75 1154,-226.808 1206.86,-238.584 1221.04,-244.623 1266,-274.808 1288.52,-289.929 1310,-313.599 1321.44,-327.212"/>
<polygon fill="#9a32cd" stroke="#9a32cd" points="665.413,-197.886 655.663,-202.031 665.87,-204.871 665.413,-197.886"/>
<text text-anchor="middle" x="904" y="-207.808" font-family="FreeSans" font-size="10.00"> drawRanges_</text>
</g>
<!-- Node22 -->
<g id="node51" class="node"><title>Node22</title>
<a xlink:href="class_urho3_d_1_1_int_vector2.html" target="_top" xlink:title="Two&#45;dimensional vector with integer values.">
<polygon fill="none" stroke="black" points="1033,-542.308 1033,-563.308 1141,-563.308 1141,-542.308 1033,-542.308"/>
<text text-anchor="middle" x="1087" y="-550.308" font-family="FreeSans" font-size="10.00">Urho3D::IntVector2</text>
</a>
</g>
<!-- Node22&#45;&gt;Node1 -->
<g id="edge60" class="edge"><title>Node22&#45;&gt;Node1</title>
<path fill="none" stroke="#9a32cd" stroke-dasharray="5,2" d="M1151.64,-546.85C1189.13,-540.299 1234.92,-526.567 1266,-497.808 1311.46,-455.749 1325.25,-377.096 1328.86,-348.527"/>
<polygon fill="#9a32cd" stroke="#9a32cd" points="1150.62,-543.469 1141.3,-548.514 1151.73,-550.38 1150.62,-543.469"/>
<text text-anchor="middle" x="1219" y="-570.808" font-family="FreeSans" font-size="10.00"> numVertices_</text>
<text text-anchor="middle" x="1219" y="-557.808" font-family="FreeSans" font-size="10.00">numPatches_</text>
<text text-anchor="middle" x="1219" y="-544.808" font-family="FreeSans" font-size="10.00">lastNumVertices_</text>
</g>
<!-- Node22&#45;&gt;Node22 -->
<g id="edge62" class="edge"><title>Node22&#45;&gt;Node22</title>
<path fill="none" stroke="#9a32cd" stroke-dasharray="5,2" d="M1062.67,-573.235C1064.55,-578.157 1072.66,-581.808 1087,-581.808 1109.95,-581.808 1116.94,-572.461 1107.97,-563.516"/>
<polygon fill="#9a32cd" stroke="#9a32cd" points="1066.07,-574.111 1066.03,-563.516 1059.46,-571.828 1066.07,-574.111"/>
<text text-anchor="middle" x="1087" y="-585.808" font-family="FreeSans" font-size="10.00"> ZERO</text>
</g>
<!-- Node23 -->
<g id="node54" class="node"><title>Node23</title>
<a xlink:href="class_urho3_d_1_1_shared_ptr.html" target="_top" xlink:title="Urho3D::SharedPtr\&lt;\l Urho3D::Material \&gt;">
<polygon fill="none" stroke="black" points="1029,-489.808 1029,-523.808 1145,-523.808 1145,-489.808 1029,-489.808"/>
<text text-anchor="start" x="1037" y="-510.808" font-family="FreeSans" font-size="10.00">Urho3D::SharedPtr&lt;</text>
<text text-anchor="middle" x="1087" y="-497.808" font-family="FreeSans" font-size="10.00"> Urho3D::Material &gt;</text>
</a>
</g>
<!-- Node23&#45;&gt;Node1 -->
<g id="edge64" class="edge"><title>Node23&#45;&gt;Node1</title>
<path fill="none" stroke="#9a32cd" stroke-dasharray="5,2" d="M1155.12,-487.891C1190.88,-475.537 1233.82,-456.645 1266,-429.808 1294.24,-406.255 1315.67,-367.334 1324.95,-348.575"/>
<polygon fill="#9a32cd" stroke="#9a32cd" points="1153.61,-484.706 1145.24,-491.203 1155.84,-491.343 1153.61,-484.706"/>
<text text-anchor="middle" x="1219" y="-484.808" font-family="FreeSans" font-size="10.00"> material_</text>
</g>
<!-- Node24 -->
<g id="node56" class="node"><title>Node24</title>
<a xlink:href="class_urho3_d_1_1_material.html" target="_top" xlink:title="Describes how to render 3D geometries.">
<polygon fill="none" stroke="red" points="682,-568.308 682,-589.308 780,-589.308 780,-568.308 682,-568.308"/>
<text text-anchor="middle" x="731" y="-576.308" font-family="FreeSans" font-size="10.00">Urho3D::Material</text>
</a>
</g>
<!-- Node24&#45;&gt;Node23 -->
<g id="edge66" class="edge"><title>Node24&#45;&gt;Node23</title>
<path fill="none" stroke="#9a32cd" stroke-dasharray="5,2" d="M790.053,-585.657C847.459,-589.585 935.48,-588.193 1002,-553.808 1012.92,-548.163 1009.97,-539.912 1020,-532.808 1024.68,-529.491 1029.85,-526.527 1035.17,-523.895"/>
<polygon fill="#9a32cd" stroke="#9a32cd" points="790.292,-582.165 780.055,-584.898 789.762,-589.145 790.292,-582.165"/>
<text text-anchor="middle" x="904" y="-590.808" font-family="FreeSans" font-size="10.00"> ptr_</text>
</g>
<!-- Node25&#45;&gt;Node1 -->
<g id="edge68" class="edge"><title>Node25&#45;&gt;Node1</title>
<path fill="none" stroke="#9a32cd" stroke-dasharray="5,2" d="M1012.03,-162.559C1103.88,-161.13 1226.91,-165.064 1266,-193.808 1311.4,-227.195 1325.18,-300.093 1328.83,-327.295"/>
<polygon fill="#9a32cd" stroke="#9a32cd" points="1011.77,-159.063 1001.84,-162.741 1011.9,-166.062 1011.77,-159.063"/>
<text text-anchor="middle" x="1087" y="-170.808" font-family="FreeSans" font-size="10.00"> patches_</text>
</g>
</g>
</svg>
