<?xml version="1.0" encoding="UTF-8" standalone="no"?>
<!DOCTYPE svg PUBLIC "-//W3C//DTD SVG 1.1//EN"
 "http://www.w3.org/Graphics/SVG/1.1/DTD/svg11.dtd">
<!-- Generated by graphviz version 2.26.3 (20100126.1600)
 -->
<!-- Title: Urho3D::Database Pages: 1 -->
<svg width="1182pt" height="851pt"
 viewBox="0.00 0.00 1182.00 851.00" xmlns="http://www.w3.org/2000/svg" xmlns:xlink="http://www.w3.org/1999/xlink">
<g id="graph1" class="graph" transform="scale(1 1) rotate(0) translate(4 847)">
<title>Urho3D::Database</title>
<!-- Node1 -->
<g id="node1" class="node"><title>Node1</title>
<polygon fill="#bfbfbf" stroke="black" points="1048,-740.5 1048,-761.5 1154,-761.5 1154,-740.5 1048,-740.5"/>
<text text-anchor="middle" x="1101" y="-748.5" font-family="FreeSans" font-size="10.00">Urho3D::Database</text>
</g>
<!-- Node2 -->
<g id="node2" class="node"><title>Node2</title>
<a xlink:href="class_urho3_d_1_1_object.html" target="_top" xlink:title="Base class for objects with type identification, subsystem access and event sending/receiving capabil...">
<polygon fill="none" stroke="black" points="455,-738.5 455,-759.5 545,-759.5 545,-738.5 455,-738.5"/>
<text text-anchor="middle" x="500" y="-746.5" font-family="FreeSans" font-size="10.00">Urho3D::Object</text>
</a>
</g>
<!-- Node2&#45;&gt;Node1 -->
<g id="edge2" class="edge"><title>Node2&#45;&gt;Node1</title>
<path fill="none" stroke="midnightblue" d="M555.195,-754.615C648.854,-763.273 844.837,-777.631 1010,-765 1022.27,-764.062 1035.39,-762.421 1047.75,-760.586"/>
<polygon fill="midnightblue" stroke="midnightblue" points="555.383,-751.117 545.1,-753.667 554.729,-758.086 555.383,-751.117"/>
</g>
<!-- Node8 -->
<g id="node15" class="node"><title>Node8</title>
<a xlink:href="class_urho3_d_1_1_event_handler.html" target="_top" xlink:title="Internal helper class for invoking event handler functions.">
<polygon fill="none" stroke="black" points="706,-680.5 706,-701.5 830,-701.5 830,-680.5 706,-680.5"/>
<text text-anchor="middle" x="768" y="-688.5" font-family="FreeSans" font-size="10.00">Urho3D::EventHandler</text>
</a>
</g>
<!-- Node2&#45;&gt;Node8 -->
<g id="edge22" class="edge"><title>Node2&#45;&gt;Node8</title>
<path fill="none" stroke="#9a32cd" stroke-dasharray="5,2" d="M554.446,-736.264C558.558,-734.195 562.472,-731.792 566,-729 578.493,-719.113 570.346,-706.21 584,-698 623.998,-673.949 678.221,-675.054 717.433,-680.445"/>
<polygon fill="#9a32cd" stroke="#9a32cd" points="552.982,-733.084 545.205,-740.279 555.772,-739.504 552.982,-733.084"/>
<text text-anchor="middle" x="613" y="-715" font-family="FreeSans" font-size="10.00"> sender_</text>
<text text-anchor="middle" x="613" y="-702" font-family="FreeSans" font-size="10.00">receiver_</text>
</g>
<!-- Node3 -->
<g id="node4" class="node"><title>Node3</title>
<a xlink:href="class_urho3_d_1_1_ref_counted.html" target="_top" xlink:title="Base class for intrusively reference&#45;counted objects. These are noncopyable and non&#45;assignable.">
<polygon fill="none" stroke="black" points="224,-419.5 224,-440.5 338,-440.5 338,-419.5 224,-419.5"/>
<text text-anchor="middle" x="281" y="-427.5" font-family="FreeSans" font-size="10.00">Urho3D::RefCounted</text>
</a>
</g>
<!-- Node3&#45;&gt;Node2 -->
<g id="edge4" class="edge"><title>Node3&#45;&gt;Node2</title>
<path fill="none" stroke="midnightblue" d="M285.536,-450.354C298.607,-504.228 341.482,-651.699 434,-729 440.064,-734.067 447.388,-737.85 454.92,-740.675"/>
<polygon fill="midnightblue" stroke="midnightblue" points="288.941,-449.543 283.252,-440.605 282.125,-451.14 288.941,-449.543"/>
</g>
<!-- Node5 -->
<g id="node8" class="node"><title>Node5</title>
<a xlink:href="class_urho3_d_1_1_context.html" target="_top" xlink:title="Urho3D execution context. Provides access to subsystems, object factories and attributes, and event receivers.">
<polygon fill="none" stroke="black" points="1052.5,-355.5 1052.5,-376.5 1149.5,-376.5 1149.5,-355.5 1052.5,-355.5"/>
<text text-anchor="middle" x="1101" y="-363.5" font-family="FreeSans" font-size="10.00">Urho3D::Context</text>
</a>
</g>
<!-- Node3&#45;&gt;Node5 -->
<g id="edge10" class="edge"><title>Node3&#45;&gt;Node5</title>
<path fill="none" stroke="midnightblue" d="M348.474,-432.915C477.967,-437.178 769.806,-440.336 1010,-396 1032.57,-391.833 1057.25,-383.441 1075.21,-376.59"/>
<polygon fill="midnightblue" stroke="midnightblue" points="348.428,-429.412 338.314,-432.567 348.189,-436.408 348.428,-429.412"/>
</g>
<!-- Node4 -->
<g id="node6" class="node"><title>Node4</title>
<a xlink:href="struct_urho3_d_1_1_ref_count.html" target="_top" xlink:title="Reference count structure.">
<polygon fill="none" stroke="black" points="13,-419.5 13,-440.5 115,-440.5 115,-419.5 13,-419.5"/>
<text text-anchor="middle" x="64" y="-427.5" font-family="FreeSans" font-size="10.00">Urho3D::RefCount</text>
</a>
</g>
<!-- Node4&#45;&gt;Node3 -->
<g id="edge6" class="edge"><title>Node4&#45;&gt;Node3</title>
<path fill="none" stroke="#9a32cd" stroke-dasharray="5,2" d="M125.358,-430C156.225,-430 193.412,-430 223.695,-430"/>
<polygon fill="#9a32cd" stroke="#9a32cd" points="125.151,-426.5 115.151,-430 125.151,-433.5 125.151,-426.5"/>
<text text-anchor="middle" x="171" y="-434" font-family="FreeSans" font-size="10.00"> refCount_</text>
</g>
<!-- Node5&#45;&gt;Node2 -->
<g id="edge8" class="edge"><title>Node5&#45;&gt;Node2</title>
<path fill="none" stroke="#9a32cd" stroke-dasharray="5,2" d="M1097.5,-386.731C1086.69,-448.297 1052.04,-628.241 1010,-668 971.466,-704.441 941.386,-672.18 894,-696 884.696,-700.677 885.601,-706.967 876,-711 817.326,-735.65 631.65,-744.763 545.156,-747.731"/>
<polygon fill="#9a32cd" stroke="#9a32cd" points="1100.98,-387.124 1099.23,-376.674 1094.08,-385.932 1100.98,-387.124"/>
<text text-anchor="middle" x="768" y="-745" font-family="FreeSans" font-size="10.00"> context_</text>
</g>
<!-- Node6 -->
<g id="node11" class="node"><title>Node6</title>
<a xlink:href="class_urho3_d_1_1_p_o_d_vector.html" target="_top" xlink:title="Urho3D::PODVector\&lt;\l Urho3D::Object * \&gt;">
<polygon fill="none" stroke="black" points="708.5,-576 708.5,-610 827.5,-610 827.5,-576 708.5,-576"/>
<text text-anchor="start" x="716.5" y="-597" font-family="FreeSans" font-size="10.00">Urho3D::PODVector&lt;</text>
<text text-anchor="middle" x="768" y="-584" font-family="FreeSans" font-size="10.00"> Urho3D::Object * &gt;</text>
</a>
</g>
<!-- Node6&#45;&gt;Node5 -->
<g id="edge12" class="edge"><title>Node6&#45;&gt;Node5</title>
<path fill="none" stroke="#9a32cd" stroke-dasharray="5,2" d="M837.934,-587.365C890.26,-579.948 960.956,-562.772 1010,-523 1060.65,-481.924 1088.89,-404.625 1097.84,-376.539"/>
<polygon fill="#9a32cd" stroke="#9a32cd" points="837.177,-583.935 827.725,-588.722 838.099,-590.874 837.177,-583.935"/>
<text text-anchor="middle" x="952" y="-578" font-family="FreeSans" font-size="10.00"> eventSenders_</text>
</g>
<!-- Node7 -->
<g id="node13" class="node"><title>Node7</title>
<a xlink:href="class_urho3_d_1_1_vector_base.html" target="_top" xlink:title="Vector base class.">
<polygon fill="none" stroke="black" points="443,-556.5 443,-577.5 557,-577.5 557,-556.5 443,-556.5"/>
<text text-anchor="middle" x="500" y="-564.5" font-family="FreeSans" font-size="10.00">Urho3D::VectorBase</text>
</a>
</g>
<!-- Node7&#45;&gt;Node6 -->
<g id="edge14" class="edge"><title>Node7&#45;&gt;Node6</title>
<path fill="none" stroke="midnightblue" d="M567.324,-573.531C610.622,-577.732 666.385,-583.142 708.136,-587.192"/>
<polygon fill="midnightblue" stroke="midnightblue" points="567.455,-570.028 557.164,-572.546 566.779,-576.995 567.455,-570.028"/>
</g>
<!-- Node18 -->
<g id="node43" class="node"><title>Node18</title>
<a xlink:href="class_urho3_d_1_1_p_o_d_vector.html" target="_top" xlink:title="Urho3D::PODVector\&lt;\l Urho3D::HashMap * \&gt;">
<polygon fill="none" stroke="black" points="704.5,-524 704.5,-558 831.5,-558 831.5,-524 704.5,-524"/>
<text text-anchor="start" x="712.5" y="-545" font-family="FreeSans" font-size="10.00">Urho3D::PODVector&lt;</text>
<text text-anchor="middle" x="768" y="-532" font-family="FreeSans" font-size="10.00"> Urho3D::HashMap * &gt;</text>
</a>
</g>
<!-- Node7&#45;&gt;Node18 -->
<g id="edge54" class="edge"><title>Node7&#45;&gt;Node18</title>
<path fill="none" stroke="midnightblue" d="M567.302,-560.471C609.309,-556.395 663.055,-551.181 704.354,-547.175"/>
<polygon fill="midnightblue" stroke="midnightblue" points="566.779,-557.005 557.164,-561.454 567.455,-563.972 566.779,-557.005"/>
</g>
<!-- Node23 -->
<g id="node58" class="node"><title>Node23</title>
<a xlink:href="class_urho3_d_1_1_vector.html" target="_top" xlink:title="Urho3D::Vector\&lt; Urho3D\l::SharedPtr\&lt; Urho3D::DbConnection \&gt; \&gt;">
<polygon fill="none" stroke="black" points="660.5,-628 660.5,-662 875.5,-662 875.5,-628 660.5,-628"/>
<text text-anchor="start" x="668.5" y="-649" font-family="FreeSans" font-size="10.00">Urho3D::Vector&lt; Urho3D</text>
<text text-anchor="middle" x="768" y="-636" font-family="FreeSans" font-size="10.00">::SharedPtr&lt; Urho3D::DbConnection &gt; &gt;</text>
</a>
</g>
<!-- Node7&#45;&gt;Node23 -->
<g id="edge74" class="edge"><title>Node7&#45;&gt;Node23</title>
<path fill="none" stroke="midnightblue" d="M545.586,-580.594C552.439,-582.701 559.414,-584.882 566,-587 571.252,-588.689 654.702,-617.464 660,-619 670.743,-622.115 682.162,-625.153 693.399,-627.989"/>
<polygon fill="midnightblue" stroke="midnightblue" points="546.278,-577.146 535.692,-577.575 544.235,-583.841 546.278,-577.146"/>
</g>
<!-- Node8&#45;&gt;Node5 -->
<g id="edge16" class="edge"><title>Node8&#45;&gt;Node5</title>
<path fill="none" stroke="#9a32cd" stroke-dasharray="5,2" d="M839.998,-683.32C852.385,-680.427 864.849,-676.454 876,-671 885.615,-666.297 885.26,-661.179 894,-655 942.079,-621.008 970.932,-635.054 1010,-591 1069.83,-523.535 1093.22,-411.635 1099.29,-376.734"/>
<polygon fill="#9a32cd" stroke="#9a32cd" points="839.164,-679.919 830.107,-685.417 840.615,-686.767 839.164,-679.919"/>
<text text-anchor="middle" x="952" y="-659" font-family="FreeSans" font-size="10.00"> eventHandler_</text>
</g>
<!-- Node22 -->
<g id="node55" class="node"><title>Node22</title>
<a xlink:href="class_urho3_d_1_1_linked_list.html" target="_top" xlink:title="Urho3D::LinkedList\l\&lt; Urho3D::EventHandler \&gt;">
<polygon fill="none" stroke="black" points="1028,-809 1028,-843 1174,-843 1174,-809 1028,-809"/>
<text text-anchor="start" x="1036" y="-830" font-family="FreeSans" font-size="10.00">Urho3D::LinkedList</text>
<text text-anchor="middle" x="1101" y="-817" font-family="FreeSans" font-size="10.00">&lt; Urho3D::EventHandler &gt;</text>
</a>
</g>
<!-- Node8&#45;&gt;Node22 -->
<g id="edge70" class="edge"><title>Node8&#45;&gt;Node22</title>
<path fill="none" stroke="#9a32cd" stroke-dasharray="5,2" d="M840.215,-697.174C853.285,-701.062 865.938,-707.005 876,-716 893.92,-732.02 876.488,-750.535 894,-767 913.568,-785.398 976.429,-801.737 1027.79,-812.529"/>
<polygon fill="#9a32cd" stroke="#9a32cd" points="840.733,-693.693 830.175,-694.585 838.985,-700.471 840.733,-693.693"/>
<text text-anchor="middle" x="952" y="-811" font-family="FreeSans" font-size="10.00"> head_</text>
</g>
<!-- Node9 -->
<g id="node17" class="node"><title>Node9</title>
<a xlink:href="struct_urho3_d_1_1_linked_list_node.html" target="_top" xlink:title="Singly&#45;linked list node base class.">
<polygon fill="none" stroke="black" points="434,-667.5 434,-688.5 566,-688.5 566,-667.5 434,-667.5"/>
<text text-anchor="middle" x="500" y="-675.5" font-family="FreeSans" font-size="10.00">Urho3D::LinkedListNode</text>
</a>
</g>
<!-- Node9&#45;&gt;Node8 -->
<g id="edge18" class="edge"><title>Node9&#45;&gt;Node8</title>
<path fill="none" stroke="midnightblue" d="M576.409,-676.559C597.658,-676.55 620.736,-676.906 642,-678 662.864,-679.073 685.594,-681.14 705.933,-683.316"/>
<polygon fill="midnightblue" stroke="midnightblue" points="576.13,-673.06 566.141,-676.591 576.152,-680.06 576.13,-673.06"/>
</g>
<!-- Node9&#45;&gt;Node9 -->
<g id="edge20" class="edge"><title>Node9&#45;&gt;Node9</title>
<path fill="none" stroke="#9a32cd" stroke-dasharray="5,2" d="M480.097,-698.427C481.632,-703.349 488.267,-707 500,-707 518.773,-707 524.493,-697.653 517.16,-688.708"/>
<polygon fill="#9a32cd" stroke="#9a32cd" points="483.492,-699.283 482.84,-688.708 476.755,-697.381 483.492,-699.283"/>
<text text-anchor="middle" x="500" y="-711" font-family="FreeSans" font-size="10.00"> next_</text>
</g>
<!-- Node10 -->
<g id="node21" class="node"><title>Node10</title>
<a xlink:href="class_urho3_d_1_1_string_hash.html" target="_top" xlink:title="32&#45;bit hash value for a string.">
<polygon fill="none" stroke="black" points="443.5,-596.5 443.5,-617.5 556.5,-617.5 556.5,-596.5 443.5,-596.5"/>
<text text-anchor="middle" x="500" y="-604.5" font-family="FreeSans" font-size="10.00">Urho3D::StringHash</text>
</a>
</g>
<!-- Node10&#45;&gt;Node8 -->
<g id="edge24" class="edge"><title>Node10&#45;&gt;Node8</title>
<path fill="none" stroke="#9a32cd" stroke-dasharray="5,2" d="M545.669,-620.663C574.09,-629.906 611.004,-643.274 642,-659 650.574,-663.35 651.091,-667.384 660,-671 674.4,-676.845 690.578,-680.995 705.941,-683.937"/>
<polygon fill="#9a32cd" stroke="#9a32cd" points="546.584,-617.282 535.993,-617.569 544.452,-623.949 546.584,-617.282"/>
<text text-anchor="middle" x="613" y="-663" font-family="FreeSans" font-size="10.00"> eventType_</text>
</g>
<!-- Node10&#45;&gt;Node10 -->
<g id="edge26" class="edge"><title>Node10&#45;&gt;Node10</title>
<path fill="none" stroke="#9a32cd" stroke-dasharray="5,2" d="M480.097,-627.427C481.632,-632.349 488.267,-636 500,-636 518.773,-636 524.493,-626.653 517.16,-617.708"/>
<polygon fill="#9a32cd" stroke="#9a32cd" points="483.492,-628.283 482.84,-617.708 476.755,-626.381 483.492,-628.283"/>
<text text-anchor="middle" x="500" y="-640" font-family="FreeSans" font-size="10.00"> ZERO</text>
</g>
<!-- Node11 -->
<g id="node24" class="node"><title>Node11</title>
<a xlink:href="class_urho3_d_1_1_hash_map.html" target="_top" xlink:title="Urho3D::HashMap\&lt; Urho3D\l::StringHash, Urho3D::\lHashSet\&lt; Urho3D::Object * \&gt; \&gt;">
<polygon fill="none" stroke="black" points="681.5,-276.5 681.5,-323.5 854.5,-323.5 854.5,-276.5 681.5,-276.5"/>
<text text-anchor="start" x="689.5" y="-310.5" font-family="FreeSans" font-size="10.00">Urho3D::HashMap&lt; Urho3D</text>
<text text-anchor="start" x="689.5" y="-297.5" font-family="FreeSans" font-size="10.00">::StringHash, Urho3D::</text>
<text text-anchor="middle" x="768" y="-284.5" font-family="FreeSans" font-size="10.00">HashSet&lt; Urho3D::Object * &gt; &gt;</text>
</a>
</g>
<!-- Node11&#45;&gt;Node5 -->
<g id="edge28" class="edge"><title>Node11&#45;&gt;Node5</title>
<path fill="none" stroke="#9a32cd" stroke-dasharray="5,2" d="M864.751,-319.176C926.307,-331.376 1003.39,-346.654 1052.43,-356.373"/>
<polygon fill="#9a32cd" stroke="#9a32cd" points="865.112,-315.679 854.623,-317.168 863.751,-322.546 865.112,-315.679"/>
<text text-anchor="middle" x="952" y="-351" font-family="FreeSans" font-size="10.00"> eventReceivers_</text>
</g>
<!-- Node12 -->
<g id="node26" class="node"><title>Node12</title>
<a xlink:href="class_urho3_d_1_1_hash_base.html" target="_top" xlink:title="Hash set/map base class.">
<polygon fill="none" stroke="black" points="446,-223.5 446,-244.5 554,-244.5 554,-223.5 446,-223.5"/>
<text text-anchor="middle" x="500" y="-231.5" font-family="FreeSans" font-size="10.00">Urho3D::HashBase</text>
</a>
</g>
<!-- Node12&#45;&gt;Node11 -->
<g id="edge30" class="edge"><title>Node12&#45;&gt;Node11</title>
<path fill="none" stroke="midnightblue" d="M552.722,-246.984C589.318,-255.996 638.912,-268.21 681.275,-278.642"/>
<polygon fill="midnightblue" stroke="midnightblue" points="553.309,-243.524 542.762,-244.531 551.635,-250.321 553.309,-243.524"/>
</g>
<!-- Node16 -->
<g id="node37" class="node"><title>Node16</title>
<a xlink:href="class_urho3_d_1_1_hash_map.html" target="_top" xlink:title="Urho3D::HashMap\&lt; Urho3D\l::Object *, Urho3D::HashMap\l\&lt; Urho3D::StringHash, Urho3D\l::HashSet\&lt; Urho3D::Object * \&gt; \&gt; \&gt;">
<polygon fill="none" stroke="black" points="672.5,-0 672.5,-60 863.5,-60 863.5,-0 672.5,-0"/>
<text text-anchor="start" x="680.5" y="-47" font-family="FreeSans" font-size="10.00">Urho3D::HashMap&lt; Urho3D</text>
<text text-anchor="start" x="680.5" y="-34" font-family="FreeSans" font-size="10.00">::Object *, Urho3D::HashMap</text>
<text text-anchor="start" x="680.5" y="-21" font-family="FreeSans" font-size="10.00">&lt; Urho3D::StringHash, Urho3D</text>
<text text-anchor="middle" x="768" y="-8" font-family="FreeSans" font-size="10.00">::HashSet&lt; Urho3D::Object * &gt; &gt; &gt;</text>
</a>
</g>
<!-- Node12&#45;&gt;Node16 -->
<g id="edge46" class="edge"><title>Node12&#45;&gt;Node16</title>
<path fill="none" stroke="midnightblue" d="M513.157,-215.148C537.957,-180.996 595.007,-108.756 660,-69 665.187,-65.8273 670.671,-62.857 676.307,-60.086"/>
<polygon fill="midnightblue" stroke="midnightblue" points="510.268,-213.171 507.298,-223.341 515.962,-217.242 510.268,-213.171"/>
</g>
<!-- Node17 -->
<g id="node40" class="node"><title>Node17</title>
<a xlink:href="class_urho3_d_1_1_hash_map.html" target="_top" xlink:title="Urho3D::HashMap\&lt; Urho3D\l::StringHash, Urho3D::\lSharedPtr\&lt; Urho3D::Object \&gt; \&gt;">
<polygon fill="none" stroke="black" points="682,-210.5 682,-257.5 854,-257.5 854,-210.5 682,-210.5"/>
<text text-anchor="start" x="690" y="-244.5" font-family="FreeSans" font-size="10.00">Urho3D::HashMap&lt; Urho3D</text>
<text text-anchor="start" x="690" y="-231.5" font-family="FreeSans" font-size="10.00">::StringHash, Urho3D::</text>
<text text-anchor="middle" x="768" y="-218.5" font-family="FreeSans" font-size="10.00">SharedPtr&lt; Urho3D::Object &gt; &gt;</text>
</a>
</g>
<!-- Node12&#45;&gt;Node17 -->
<g id="edge50" class="edge"><title>Node12&#45;&gt;Node17</title>
<path fill="none" stroke="midnightblue" d="M564.396,-234C599.636,-234 643.768,-234 681.927,-234"/>
<polygon fill="midnightblue" stroke="midnightblue" points="564.234,-230.5 554.234,-234 564.234,-237.5 564.234,-230.5"/>
</g>
<!-- Node19 -->
<g id="node46" class="node"><title>Node19</title>
<a xlink:href="class_urho3_d_1_1_hash_map.html" target="_top" xlink:title="Urho3D::HashMap\&lt; Urho3D\l::StringHash, Urho3D::\lSharedPtr\&lt; Urho3D::ObjectFactory \&gt; \&gt;">
<polygon fill="none" stroke="black" points="665,-144.5 665,-191.5 871,-191.5 871,-144.5 665,-144.5"/>
<text text-anchor="start" x="673" y="-178.5" font-family="FreeSans" font-size="10.00">Urho3D::HashMap&lt; Urho3D</text>
<text text-anchor="start" x="673" y="-165.5" font-family="FreeSans" font-size="10.00">::StringHash, Urho3D::</text>
<text text-anchor="middle" x="768" y="-152.5" font-family="FreeSans" font-size="10.00">SharedPtr&lt; Urho3D::ObjectFactory &gt; &gt;</text>
</a>
</g>
<!-- Node12&#45;&gt;Node19 -->
<g id="edge58" class="edge"><title>Node12&#45;&gt;Node19</title>
<path fill="none" stroke="midnightblue" d="M552.505,-221.07C586.578,-212.679 631.986,-201.496 672.332,-191.56"/>
<polygon fill="midnightblue" stroke="midnightblue" points="551.635,-217.679 542.762,-223.469 553.309,-224.476 551.635,-217.679"/>
</g>
<!-- Node20 -->
<g id="node49" class="node"><title>Node20</title>
<a xlink:href="class_urho3_d_1_1_hash_map.html" target="_top" xlink:title="Urho3D::HashMap\&lt; Urho3D\l::String, Urho3D::Vector\l\&lt; Urho3D::StringHash \&gt; \&gt;">
<polygon fill="none" stroke="black" points="692,-78.5 692,-125.5 844,-125.5 844,-78.5 692,-78.5"/>
<text text-anchor="start" x="700" y="-112.5" font-family="FreeSans" font-size="10.00">Urho3D::HashMap&lt; Urho3D</text>
<text text-anchor="start" x="700" y="-99.5" font-family="FreeSans" font-size="10.00">::String, Urho3D::Vector</text>
<text text-anchor="middle" x="768" y="-86.5" font-family="FreeSans" font-size="10.00">&lt; Urho3D::StringHash &gt; &gt;</text>
</a>
</g>
<!-- Node12&#45;&gt;Node20 -->
<g id="edge62" class="edge"><title>Node12&#45;&gt;Node20</title>
<path fill="none" stroke="midnightblue" d="M522.408,-217.53C552.44,-196.081 608.003,-158.553 660,-135 670.09,-130.429 680.987,-126.269 691.844,-122.56"/>
<polygon fill="midnightblue" stroke="midnightblue" points="520.354,-214.696 514.288,-223.383 524.447,-220.375 520.354,-214.696"/>
</g>
<!-- Node21 -->
<g id="node52" class="node"><title>Node21</title>
<a xlink:href="class_urho3_d_1_1_hash_map.html" target="_top" xlink:title="Urho3D::HashMap\&lt; Urho3D\l::StringHash, Urho3D::\lVector\&lt; Urho3D::AttributeInfo \&gt; \&gt;">
<polygon fill="none" stroke="black" points="676.5,-342.5 676.5,-389.5 859.5,-389.5 859.5,-342.5 676.5,-342.5"/>
<text text-anchor="start" x="684.5" y="-376.5" font-family="FreeSans" font-size="10.00">Urho3D::HashMap&lt; Urho3D</text>
<text text-anchor="start" x="684.5" y="-363.5" font-family="FreeSans" font-size="10.00">::StringHash, Urho3D::</text>
<text text-anchor="middle" x="768" y="-350.5" font-family="FreeSans" font-size="10.00">Vector&lt; Urho3D::AttributeInfo &gt; &gt;</text>
</a>
</g>
<!-- Node12&#45;&gt;Node21 -->
<g id="edge66" class="edge"><title>Node12&#45;&gt;Node21</title>
<path fill="none" stroke="midnightblue" d="M522.408,-250.47C552.44,-271.919 608.003,-309.447 660,-333 667.501,-336.398 675.447,-339.569 683.492,-342.496"/>
<polygon fill="midnightblue" stroke="midnightblue" points="524.447,-247.625 514.288,-244.617 520.354,-253.304 524.447,-247.625"/>
</g>
<!-- Node24 -->
<g id="node61" class="node"><title>Node24</title>
<a xlink:href="class_urho3_d_1_1_hash_map.html" target="_top" xlink:title="Urho3D::HashMap\&lt; Urho3D\l::String, Urho3D::Vector\l\&lt; Urho3D::SharedPtr\&lt; Urho3D\l::DbConnection \&gt; \&gt; \&gt;">
<polygon fill="none" stroke="black" points="684.5,-446 684.5,-506 851.5,-506 851.5,-446 684.5,-446"/>
<text text-anchor="start" x="692.5" y="-493" font-family="FreeSans" font-size="10.00">Urho3D::HashMap&lt; Urho3D</text>
<text text-anchor="start" x="692.5" y="-480" font-family="FreeSans" font-size="10.00">::String, Urho3D::Vector</text>
<text text-anchor="start" x="692.5" y="-467" font-family="FreeSans" font-size="10.00">&lt; Urho3D::SharedPtr&lt; Urho3D</text>
<text text-anchor="middle" x="768" y="-454" font-family="FreeSans" font-size="10.00">::DbConnection &gt; &gt; &gt;</text>
</a>
</g>
<!-- Node12&#45;&gt;Node24 -->
<g id="edge78" class="edge"><title>Node12&#45;&gt;Node24</title>
<path fill="none" stroke="midnightblue" d="M516.723,-252.022C533.569,-270.104 560.377,-298.684 584,-323 617.286,-357.262 623.538,-368.139 660,-399 679.598,-415.588 702.612,-432.333 722.349,-445.952"/>
<polygon fill="midnightblue" stroke="midnightblue" points="519.105,-249.444 509.732,-244.506 513.98,-254.212 519.105,-249.444"/>
</g>
<!-- Node13 -->
<g id="node28" class="node"><title>Node13</title>
<a xlink:href="struct_urho3_d_1_1_hash_node_base.html" target="_top" xlink:title="Hash set/map node base class.">
<polygon fill="none" stroke="black" points="214,-258.5 214,-279.5 348,-279.5 348,-258.5 214,-258.5"/>
<text text-anchor="middle" x="281" y="-266.5" font-family="FreeSans" font-size="10.00">Urho3D::HashNodeBase</text>
</a>
</g>
<!-- Node13&#45;&gt;Node12 -->
<g id="edge32" class="edge"><title>Node13&#45;&gt;Node12</title>
<path fill="none" stroke="#9a32cd" stroke-dasharray="5,2" d="M356.892,-256.871C386.149,-252.195 418.951,-246.953 445.762,-242.668"/>
<polygon fill="#9a32cd" stroke="#9a32cd" points="356.03,-253.464 346.707,-258.499 357.134,-260.377 356.03,-253.464"/>
<text text-anchor="middle" x="391" y="-285" font-family="FreeSans" font-size="10.00"> ptrs_</text>
<text text-anchor="middle" x="391" y="-272" font-family="FreeSans" font-size="10.00">tail_</text>
<text text-anchor="middle" x="391" y="-259" font-family="FreeSans" font-size="10.00">head_</text>
</g>
<!-- Node13&#45;&gt;Node13 -->
<g id="edge34" class="edge"><title>Node13&#45;&gt;Node13</title>
<path fill="none" stroke="#9a32cd" stroke-dasharray="5,2" d="M260.728,-289.427C262.292,-294.349 269.049,-298 281,-298 300.121,-298 305.947,-288.653 298.478,-279.708"/>
<polygon fill="#9a32cd" stroke="#9a32cd" points="264.123,-290.286 263.522,-279.708 257.395,-288.352 264.123,-290.286"/>
<text text-anchor="middle" x="281" y="-328" font-family="FreeSans" font-size="10.00"> next_</text>
<text text-anchor="middle" x="281" y="-315" font-family="FreeSans" font-size="10.00">prev_</text>
<text text-anchor="middle" x="281" y="-302" font-family="FreeSans" font-size="10.00">down_</text>
</g>
<!-- Node14 -->
<g id="node31" class="node"><title>Node14</title>
<a xlink:href="struct_urho3_d_1_1_allocator_block.html" target="_top" xlink:title="Allocator memory block.">
<polygon fill="none" stroke="black" points="217.5,-187.5 217.5,-208.5 344.5,-208.5 344.5,-187.5 217.5,-187.5"/>
<text text-anchor="middle" x="281" y="-195.5" font-family="FreeSans" font-size="10.00">Urho3D::AllocatorBlock</text>
</a>
</g>
<!-- Node14&#45;&gt;Node12 -->
<g id="edge36" class="edge"><title>Node14&#45;&gt;Node12</title>
<path fill="none" stroke="#9a32cd" stroke-dasharray="5,2" d="M354.595,-210.098C384.452,-215.006 418.314,-220.572 445.844,-225.098"/>
<polygon fill="#9a32cd" stroke="#9a32cd" points="355.073,-206.63 344.638,-208.461 353.938,-213.537 355.073,-206.63"/>
<text text-anchor="middle" x="391" y="-224" font-family="FreeSans" font-size="10.00"> allocator_</text>
</g>
<!-- Node14&#45;&gt;Node14 -->
<g id="edge38" class="edge"><title>Node14&#45;&gt;Node14</title>
<path fill="none" stroke="#9a32cd" stroke-dasharray="5,2" d="M260.728,-218.427C262.292,-223.349 269.049,-227 281,-227 300.121,-227 305.947,-217.653 298.478,-208.708"/>
<polygon fill="#9a32cd" stroke="#9a32cd" points="264.123,-219.286 263.522,-208.708 257.395,-217.352 264.123,-219.286"/>
<text text-anchor="middle" x="281" y="-231" font-family="FreeSans" font-size="10.00"> next_</text>
</g>
<!-- Node15 -->
<g id="node34" class="node"><title>Node15</title>
<a xlink:href="struct_urho3_d_1_1_allocator_node.html" target="_top" xlink:title="Allocator node.">
<polygon fill="none" stroke="black" points="0.5,-187.5 0.5,-208.5 127.5,-208.5 127.5,-187.5 0.5,-187.5"/>
<text text-anchor="middle" x="64" y="-195.5" font-family="FreeSans" font-size="10.00">Urho3D::AllocatorNode</text>
</a>
</g>
<!-- Node15&#45;&gt;Node14 -->
<g id="edge40" class="edge"><title>Node15&#45;&gt;Node14</title>
<path fill="none" stroke="#9a32cd" stroke-dasharray="5,2" d="M137.765,-198C163.616,-198 192.409,-198 217.36,-198"/>
<polygon fill="#9a32cd" stroke="#9a32cd" points="137.641,-194.5 127.641,-198 137.641,-201.5 137.641,-194.5"/>
<text text-anchor="middle" x="171" y="-202" font-family="FreeSans" font-size="10.00"> free_</text>
</g>
<!-- Node15&#45;&gt;Node15 -->
<g id="edge42" class="edge"><title>Node15&#45;&gt;Node15</title>
<path fill="none" stroke="#9a32cd" stroke-dasharray="5,2" d="M44.4653,-218.427C45.9723,-223.349 52.4839,-227 64,-227 82.4258,-227 88.0399,-217.653 80.8423,-208.708"/>
<polygon fill="#9a32cd" stroke="#9a32cd" points="47.8609,-219.279 47.1577,-208.708 41.1149,-217.41 47.8609,-219.279"/>
<text text-anchor="middle" x="64" y="-231" font-family="FreeSans" font-size="10.00"> next_</text>
</g>
<!-- Node16&#45;&gt;Node5 -->
<g id="edge44" class="edge"><title>Node16&#45;&gt;Node5</title>
<path fill="none" stroke="#9a32cd" stroke-dasharray="5,2" d="M873.607,-41.571C920.598,-51.6858 973.447,-70.6117 1010,-106 1084.9,-178.517 1098.23,-316.07 1100.53,-355.308"/>
<polygon fill="#9a32cd" stroke="#9a32cd" points="874.175,-38.1147 863.677,-39.5435 872.775,-44.9732 874.175,-38.1147"/>
<text text-anchor="middle" x="952" y="-110" font-family="FreeSans" font-size="10.00"> specificEventReceivers_</text>
</g>
<!-- Node17&#45;&gt;Node5 -->
<g id="edge48" class="edge"><title>Node17&#45;&gt;Node5</title>
<path fill="none" stroke="#9a32cd" stroke-dasharray="5,2" d="M863.854,-257.456C909.201,-270.116 963.475,-287.569 1010,-309 1038.62,-322.181 1069.11,-342.8 1086.53,-355.292"/>
<polygon fill="#9a32cd" stroke="#9a32cd" points="864.594,-254.03 854.023,-254.748 862.734,-260.778 864.594,-254.03"/>
<text text-anchor="middle" x="952" y="-313" font-family="FreeSans" font-size="10.00"> subsystems_</text>
</g>
<!-- Node18&#45;&gt;Node5 -->
<g id="edge52" class="edge"><title>Node18&#45;&gt;Node5</title>
<path fill="none" stroke="#9a32cd" stroke-dasharray="5,2" d="M841.44,-526.665C853.202,-523.421 865.085,-519.556 876,-515 965.067,-477.825 1056.48,-403.998 1088.8,-376.577"/>
<polygon fill="#9a32cd" stroke="#9a32cd" points="840.396,-523.32 831.613,-529.245 842.174,-530.091 840.396,-523.32"/>
<text text-anchor="middle" x="952" y="-510" font-family="FreeSans" font-size="10.00"> eventDataMaps_</text>
</g>
<!-- Node19&#45;&gt;Node5 -->
<g id="edge56" class="edge"><title>Node19&#45;&gt;Node5</title>
<path fill="none" stroke="#9a32cd" stroke-dasharray="5,2" d="M880.987,-191.644C924.129,-204.387 972.026,-223.355 1010,-251 1050.55,-280.519 1082.58,-332.707 1095.19,-355.194"/>
<polygon fill="#9a32cd" stroke="#9a32cd" points="881.865,-188.254 871.287,-188.858 879.932,-194.982 881.865,-188.254"/>
<text text-anchor="middle" x="952" y="-255" font-family="FreeSans" font-size="10.00"> factories_</text>
</g>
<!-- Node20&#45;&gt;Node5 -->
<g id="edge60" class="edge"><title>Node20&#45;&gt;Node5</title>
<path fill="none" stroke="#9a32cd" stroke-dasharray="5,2" d="M854.173,-112.464C904.602,-122.479 966.672,-142.007 1010,-180 1067.03,-230.01 1091.87,-323.938 1098.84,-355.415"/>
<polygon fill="#9a32cd" stroke="#9a32cd" points="854.728,-109.007 844.252,-110.585 853.426,-115.885 854.728,-109.007"/>
<text text-anchor="middle" x="952" y="-184" font-family="FreeSans" font-size="10.00"> objectCategories_</text>
</g>
<!-- Node21&#45;&gt;Node5 -->
<g id="edge64" class="edge"><title>Node21&#45;&gt;Node5</title>
<path fill="none" stroke="#9a32cd" stroke-dasharray="5,2" d="M870.226,-366C930.685,-366 1004.5,-366 1052.11,-366"/>
<polygon fill="#9a32cd" stroke="#9a32cd" points="869.875,-362.5 859.875,-366 869.875,-369.5 869.875,-362.5"/>
<text text-anchor="middle" x="952" y="-383" font-family="FreeSans" font-size="10.00"> attributes_</text>
<text text-anchor="middle" x="952" y="-370" font-family="FreeSans" font-size="10.00">networkAttributes_</text>
</g>
<!-- Node22&#45;&gt;Node2 -->
<g id="edge68" class="edge"><title>Node22&#45;&gt;Node2</title>
<path fill="none" stroke="#9a32cd" stroke-dasharray="5,2" d="M1017.15,-828.104C979.443,-828.301 934.419,-827.499 894,-824 754.89,-811.957 720.244,-803.564 584,-773 567.277,-769.249 548.951,-764.133 533.695,-759.588"/>
<polygon fill="#9a32cd" stroke="#9a32cd" points="1017.61,-831.601 1027.58,-828.024 1017.55,-824.601 1017.61,-831.601"/>
<text text-anchor="middle" x="768" y="-826" font-family="FreeSans" font-size="10.00"> eventHandlers_</text>
</g>
<!-- Node23&#45;&gt;Node1 -->
<g id="edge72" class="edge"><title>Node23&#45;&gt;Node1</title>
<path fill="none" stroke="#9a32cd" stroke-dasharray="5,2" d="M872.953,-668.311C873.994,-669.177 875.011,-670.073 876,-671 895.692,-689.458 873.147,-711.864 894,-729 916.756,-747.7 994.454,-751.506 1047.9,-751.803"/>
<polygon fill="#9a32cd" stroke="#9a32cd" points="874.682,-665.244 864.519,-662.25 870.597,-670.928 874.682,-665.244"/>
<text text-anchor="middle" x="952" y="-754" font-family="FreeSans" font-size="10.00"> connections_</text>
</g>
<!-- Node24&#45;&gt;Node1 -->
<g id="edge76" class="edge"><title>Node24&#45;&gt;Node1</title>
<path fill="none" stroke="#9a32cd" stroke-dasharray="5,2" d="M860.436,-500.634C866.262,-504.711 871.558,-509.463 876,-515 915.255,-563.935 856.928,-604.391 894,-655 899.852,-662.989 1022.9,-717.089 1076.46,-740.375"/>
<polygon fill="#9a32cd" stroke="#9a32cd" points="861.902,-497.425 851.558,-495.13 858.213,-503.374 861.902,-497.425"/>
<text text-anchor="middle" x="952" y="-713" font-family="FreeSans" font-size="10.00"> connectionsPool_</text>
</g>
</g>
</svg>
