<?xml version="1.0" encoding="UTF-8" standalone="no"?>
<!DOCTYPE svg PUBLIC "-//W3C//DTD SVG 1.1//EN"
 "http://www.w3.org/Graphics/SVG/1.1/DTD/svg11.dtd">
<!-- Generated by graphviz version 2.26.3 (20100126.1600)
 -->
<!-- Title: Urho3D::Texture2D Pages: 1 -->
<!--zoomable 641 -->
<svg id="main" version="1.1" xmlns="http://www.w3.org/2000/svg" xmlns:xlink="http://www.w3.org/1999/xlink" xml:space="preserve" onload="init(evt)">
        <defs>
                <circle id="rim" cx="0" cy="0" r="7"/>
                <circle id="rim2" cx="0" cy="0" r="3.5"/>
                <g id="zoomPlus">
                        <use xlink:href="#rim" fill="#404040">
                                <set attributeName="fill" to="#808080" begin="zoomplus.mouseover" end="zoomplus.mouseout"/>
                        </use>
                        <path d="M-4,0h8M0,-4v8" fill="none" stroke="white" stroke-width="1.5" pointer-events="none"/>
                </g>
                <g id="zoomMin">
                        <use xlink:href="#rim" fill="#404040">
                                <set attributeName="fill" to="#808080" begin="zoomminus.mouseover" end="zoomminus.mouseout"/>
                        </use>
                        <path d="M-4,0h8" fill="none" stroke="white" stroke-width="1.5" pointer-events="none"/>
                </g>
                <g id="dirArrow">
                        <path fill="none" stroke="white" stroke-width="1.5" d="M0,-3.0v7 M-2.5,-0.5L0,-3.0L2.5,-0.5"/>
                </g>
               <g id="resetDef">
                       <use xlink:href="#rim2" fill="#404040">
                               <set attributeName="fill" to="#808080" begin="reset.mouseover" end="reset.mouseout"/>
                       </use>
               </g>
        </defs>

<script type="text/javascript">
var viewWidth = 2386;
var viewHeight = 641;
var sectionId = 'dynsection-1';
</script>
<script xlink:href="svgpan.js"/>
<svg id="graph" class="graph">
<g id="viewport">
<title>Urho3D::Texture2D</title>
<!-- Node1 -->
<g id="node1" class="node"><title>Node1</title>
<polygon fill="#bfbfbf" stroke="black" points="2053.5,-108.5 2053.5,-129.5 2160.5,-129.5 2160.5,-108.5 2053.5,-108.5"/>
<text text-anchor="middle" x="2107" y="-116.5" font-family="FreeSans" font-size="10.00">Urho3D::Texture2D</text>
</g>
<!-- Node2 -->
<g id="node2" class="node"><title>Node2</title>
<a xlink:href="class_urho3_d_1_1_texture.html" target="_top" xlink:title="Base class for texture resources.">
<polygon fill="none" stroke="black" points="1237,-207.5 1237,-228.5 1331,-228.5 1331,-207.5 1237,-207.5"/>
<text text-anchor="middle" x="1284" y="-215.5" font-family="FreeSans" font-size="10.00">Urho3D::Texture</text>
</a>
</g>
<!-- Node2&#45;&gt;Node1 -->
<g id="edge2" class="edge"><title>Node2&#45;&gt;Node1</title>
<path fill="none" stroke="midnightblue" d="M1318.33,-203.527C1340.17,-194.953 1369.28,-184.685 1396,-179 1637.42,-127.635 1933.75,-119.88 2053.26,-118.966"/>
<polygon fill="midnightblue" stroke="midnightblue" points="1316.82,-200.359 1308.84,-207.324 1319.42,-206.858 1316.82,-200.359"/>
</g>
<!-- Node14 -->
<g id="node29" class="node"><title>Node14</title>
<a xlink:href="class_urho3_d_1_1_graphics.html" target="_top" xlink:title="Graphics subsystem. Manages the application window, rendering state and GPU resources.">
<polygon fill="none" stroke="red" points="1796.5,-321.5 1796.5,-342.5 1897.5,-342.5 1897.5,-321.5 1796.5,-321.5"/>
<text text-anchor="middle" x="1847" y="-329.5" font-family="FreeSans" font-size="10.00">Urho3D::Graphics</text>
</a>
</g>
<!-- Node2&#45;&gt;Node14 -->
<g id="edge62" class="edge"><title>Node2&#45;&gt;Node14</title>
<path fill="none" stroke="#9a32cd" stroke-dasharray="5,2" d="M1318.9,-232.3C1340.74,-240.79 1369.65,-251.192 1396,-258 1434.32,-267.899 1686.81,-307.31 1796.39,-324.224"/>
<polygon fill="#9a32cd" stroke="#9a32cd" points="1319.98,-228.965 1309.39,-228.554 1317.41,-235.477 1319.98,-228.965"/>
<text text-anchor="middle" x="1557" y="-300" font-family="FreeSans" font-size="10.00"> textures_</text>
</g>
<!-- Node18 -->
<g id="node41" class="node"><title>Node18</title>
<a xlink:href="class_urho3_d_1_1_render_surface.html" target="_top" xlink:title="Color or depth&#45;stencil surface that can be rendered into.">
<polygon fill="none" stroke="black" points="1492.5,-473.5 1492.5,-494.5 1621.5,-494.5 1621.5,-473.5 1492.5,-473.5"/>
<text text-anchor="middle" x="1557" y="-481.5" font-family="FreeSans" font-size="10.00">Urho3D::RenderSurface</text>
</a>
</g>
<!-- Node2&#45;&gt;Node18 -->
<g id="edge58" class="edge"><title>Node2&#45;&gt;Node18</title>
<path fill="none" stroke="#9a32cd" stroke-dasharray="5,2" d="M1302.32,-235.853C1354.78,-286.968 1504.46,-432.809 1546.12,-473.401"/>
<polygon fill="#9a32cd" stroke="#9a32cd" points="1304.64,-233.229 1295.04,-228.757 1299.76,-238.242 1304.64,-233.229"/>
<text text-anchor="middle" x="1435" y="-401" font-family="FreeSans" font-size="10.00"> parentTexture_</text>
</g>
<!-- Node21 -->
<g id="node54" class="node"><title>Node21</title>
<a xlink:href="class_urho3_d_1_1_shared_ptr.html" target="_top" xlink:title="Urho3D::SharedPtr\&lt;\l Urho3D::Texture \&gt;">
<polygon fill="none" stroke="black" points="1499,-221 1499,-255 1615,-255 1615,-221 1499,-221"/>
<text text-anchor="start" x="1507" y="-242" font-family="FreeSans" font-size="10.00">Urho3D::SharedPtr&lt;</text>
<text text-anchor="middle" x="1557" y="-229" font-family="FreeSans" font-size="10.00"> Urho3D::Texture &gt;</text>
</a>
</g>
<!-- Node2&#45;&gt;Node21 -->
<g id="edge70" class="edge"><title>Node2&#45;&gt;Node21</title>
<path fill="none" stroke="#9a32cd" stroke-dasharray="5,2" d="M1337.31,-230.662C1355.78,-234.464 1376.7,-238.122 1396,-240 1430.5,-243.357 1439.34,-240.418 1474,-240 1482.07,-239.903 1490.58,-239.752 1498.96,-239.577"/>
<polygon fill="#9a32cd" stroke="#9a32cd" points="1337.83,-227.195 1327.32,-228.545 1336.38,-234.043 1337.83,-227.195"/>
<text text-anchor="middle" x="1435" y="-245" font-family="FreeSans" font-size="10.00"> ptr_</text>
</g>
<!-- Node3 -->
<g id="node4" class="node"><title>Node3</title>
<a xlink:href="class_urho3_d_1_1_resource.html" target="_top" xlink:title="Base class for resources.">
<polygon fill="none" stroke="black" points="965.5,-81.5 965.5,-102.5 1068.5,-102.5 1068.5,-81.5 965.5,-81.5"/>
<text text-anchor="middle" x="1017" y="-89.5" font-family="FreeSans" font-size="10.00">Urho3D::Resource</text>
</a>
</g>
<!-- Node3&#45;&gt;Node2 -->
<g id="edge4" class="edge"><title>Node3&#45;&gt;Node2</title>
<path fill="none" stroke="midnightblue" d="M1069.95,-105.511C1076.1,-107.494 1082.24,-109.663 1088,-112 1157.73,-140.27 1234.64,-186.771 1267.57,-207.481"/>
<polygon fill="midnightblue" stroke="midnightblue" points="1070.9,-102.142 1060.32,-102.554 1068.85,-108.834 1070.9,-102.142"/>
</g>
<!-- Node15 -->
<g id="node32" class="node"><title>Node15</title>
<a xlink:href="class_urho3_d_1_1_image.html" target="_top" xlink:title="Image resource.">
<polygon fill="none" stroke="black" points="1239.5,-39.5 1239.5,-60.5 1328.5,-60.5 1328.5,-39.5 1239.5,-39.5"/>
<text text-anchor="middle" x="1284" y="-47.5" font-family="FreeSans" font-size="10.00">Urho3D::Image</text>
</a>
</g>
<!-- Node3&#45;&gt;Node15 -->
<g id="edge38" class="edge"><title>Node3&#45;&gt;Node15</title>
<path fill="none" stroke="midnightblue" d="M1078.68,-82.2981C1127.82,-74.5681 1195.45,-63.9299 1239.44,-57.0098"/>
<polygon fill="midnightblue" stroke="midnightblue" points="1078.13,-78.8407 1068.8,-83.8522 1079.22,-85.7557 1078.13,-78.8407"/>
</g>
<!-- Node25 -->
<g id="node66" class="node"><title>Node25</title>
<a xlink:href="class_urho3_d_1_1_x_m_l_file.html" target="_top" xlink:title="XML document resource.">
<polygon fill="none" stroke="black" points="1237,-103.5 1237,-124.5 1331,-124.5 1331,-103.5 1237,-103.5"/>
<text text-anchor="middle" x="1284" y="-111.5" font-family="FreeSans" font-size="10.00">Urho3D::XMLFile</text>
</a>
</g>
<!-- Node3&#45;&gt;Node25 -->
<g id="edge86" class="edge"><title>Node3&#45;&gt;Node25</title>
<path fill="none" stroke="midnightblue" d="M1078.79,-97.0915C1126.96,-101.06 1192.84,-106.488 1236.82,-110.113"/>
<polygon fill="midnightblue" stroke="midnightblue" points="1079.05,-93.601 1068.8,-96.2679 1078.48,-100.577 1079.05,-93.601"/>
</g>
<!-- Node4 -->
<g id="node6" class="node"><title>Node4</title>
<a xlink:href="class_urho3_d_1_1_object.html" target="_top" xlink:title="Base class for objects with type identification, subsystem access and event sending/receiving capabil...">
<polygon fill="none" stroke="black" points="746,-323.5 746,-344.5 836,-344.5 836,-323.5 746,-323.5"/>
<text text-anchor="middle" x="791" y="-331.5" font-family="FreeSans" font-size="10.00">Urho3D::Object</text>
</a>
</g>
<!-- Node4&#45;&gt;Node3 -->
<g id="edge6" class="edge"><title>Node4&#45;&gt;Node3</title>
<path fill="none" stroke="midnightblue" d="M807.245,-315.627C834.629,-284.031 890.64,-216.647 928,-153 938.074,-135.837 930.984,-125.06 946,-112 951.604,-107.126 958.314,-103.433 965.34,-100.638"/>
<polygon fill="midnightblue" stroke="midnightblue" points="804.564,-313.377 800.624,-323.212 809.837,-317.981 804.564,-313.377"/>
</g>
<!-- Node4&#45;&gt;Node14 -->
<g id="edge34" class="edge"><title>Node4&#45;&gt;Node14</title>
<path fill="none" stroke="midnightblue" d="M846.195,-333.487C914.824,-332.895 1035.56,-332 1139,-332 1139,-332 1139,-332 1557,-332 1640.95,-332 1738.58,-332 1796.45,-332"/>
<polygon fill="midnightblue" stroke="midnightblue" points="846.016,-329.988 836.047,-333.576 846.078,-336.988 846.016,-329.988"/>
</g>
<!-- Node5 -->
<g id="node8" class="node"><title>Node5</title>
<a xlink:href="class_urho3_d_1_1_ref_counted.html" target="_top" xlink:title="Base class for intrusively reference&#45;counted objects. These are noncopyable and non&#45;assignable.">
<polygon fill="none" stroke="black" points="188,-418.5 188,-439.5 302,-439.5 302,-418.5 188,-418.5"/>
<text text-anchor="middle" x="245" y="-426.5" font-family="FreeSans" font-size="10.00">Urho3D::RefCounted</text>
</a>
</g>
<!-- Node5&#45;&gt;Node4 -->
<g id="edge8" class="edge"><title>Node5&#45;&gt;Node4</title>
<path fill="none" stroke="midnightblue" d="M311.977,-418.015C437.275,-397.45 696.326,-354.855 716,-351 725.957,-349.049 736.613,-346.758 746.674,-344.501"/>
<polygon fill="midnightblue" stroke="midnightblue" points="311.4,-414.563 302.099,-419.636 312.534,-421.47 311.4,-414.563"/>
</g>
<!-- Node7 -->
<g id="node12" class="node"><title>Node7</title>
<a xlink:href="class_urho3_d_1_1_context.html" target="_top" xlink:title="Urho3D execution context. Provides access to subsystems, object factories and attributes, and event receivers.">
<polygon fill="none" stroke="red" points="496.5,-323.5 496.5,-344.5 593.5,-344.5 593.5,-323.5 496.5,-323.5"/>
<text text-anchor="middle" x="545" y="-331.5" font-family="FreeSans" font-size="10.00">Urho3D::Context</text>
</a>
</g>
<!-- Node5&#45;&gt;Node7 -->
<g id="edge14" class="edge"><title>Node5&#45;&gt;Node7</title>
<path fill="none" stroke="midnightblue" d="M258.878,-410.56C272.473,-394.009 294.78,-370.591 320,-359 376.425,-333.068 448.907,-329.623 496.133,-330.785"/>
<polygon fill="midnightblue" stroke="midnightblue" points="256.061,-408.479 252.593,-418.491 261.547,-412.827 256.061,-408.479"/>
</g>
<!-- Node5&#45;&gt;Node18 -->
<g id="edge50" class="edge"><title>Node5&#45;&gt;Node18</title>
<path fill="none" stroke="midnightblue" d="M289.686,-442.433C347.895,-458.714 453.088,-484 545,-484 545,-484 545,-484 1284,-484 1355.33,-484 1437.15,-484 1492.46,-484"/>
<polygon fill="midnightblue" stroke="midnightblue" points="290.298,-438.968 279.722,-439.605 288.387,-445.702 290.298,-438.968"/>
</g>
<!-- Node6 -->
<g id="node10" class="node"><title>Node6</title>
<a xlink:href="struct_urho3_d_1_1_ref_count.html" target="_top" xlink:title="Reference count structure.">
<polygon fill="none" stroke="black" points="0,-519.5 0,-540.5 102,-540.5 102,-519.5 0,-519.5"/>
<text text-anchor="middle" x="51" y="-527.5" font-family="FreeSans" font-size="10.00">Urho3D::RefCount</text>
</a>
</g>
<!-- Node6&#45;&gt;Node5 -->
<g id="edge10" class="edge"><title>Node6&#45;&gt;Node5</title>
<path fill="none" stroke="#9a32cd" stroke-dasharray="5,2" d="M80.3411,-514.724C120.102,-494.024 190.081,-457.592 224.587,-439.627"/>
<polygon fill="#9a32cd" stroke="#9a32cd" points="78.6484,-511.66 71.3947,-519.382 81.8809,-517.869 78.6484,-511.66"/>
<text text-anchor="middle" x="145" y="-495" font-family="FreeSans" font-size="10.00"> refCount_</text>
</g>
<!-- Node13 -->
<g id="node27" class="node"><title>Node13</title>
<a xlink:href="class_urho3_d_1_1_weak_ptr.html" target="_top" xlink:title="Urho3D::WeakPtr\&lt; Urho3D\l::Graphics \&gt;">
<polygon fill="none" stroke="black" points="2034,-315 2034,-349 2180,-349 2180,-315 2034,-315"/>
<text text-anchor="start" x="2042" y="-336" font-family="FreeSans" font-size="10.00">Urho3D::WeakPtr&lt; Urho3D</text>
<text text-anchor="middle" x="2107" y="-323" font-family="FreeSans" font-size="10.00">::Graphics &gt;</text>
</a>
</g>
<!-- Node6&#45;&gt;Node13 -->
<g id="edge66" class="edge"><title>Node6&#45;&gt;Node13</title>
<path fill="none" stroke="#9a32cd" stroke-dasharray="5,2" d="M71.9092,-547.135C105.96,-573.247 176.494,-620 245,-620 245,-620 245,-620 1847,-620 1993.85,-620 2079.14,-411.154 2101.22,-349.153"/>
<polygon fill="#9a32cd" stroke="#9a32cd" points="73.7094,-544.099 63.6822,-540.678 69.3874,-549.605 73.7094,-544.099"/>
<text text-anchor="middle" x="1017" y="-624" font-family="FreeSans" font-size="10.00"> refCount_</text>
</g>
<!-- Node16 -->
<g id="node35" class="node"><title>Node16</title>
<a xlink:href="class_urho3_d_1_1_shared_array_ptr.html" target="_top" xlink:title="Urho3D::SharedArrayPtr\l\&lt; unsigned char \&gt;">
<polygon fill="none" stroke="black" points="320.5,-159 320.5,-193 453.5,-193 453.5,-159 320.5,-159"/>
<text text-anchor="start" x="328.5" y="-180" font-family="FreeSans" font-size="10.00">Urho3D::SharedArrayPtr</text>
<text text-anchor="middle" x="387" y="-167" font-family="FreeSans" font-size="10.00">&lt; unsigned char &gt;</text>
</a>
</g>
<!-- Node6&#45;&gt;Node16 -->
<g id="edge42" class="edge"><title>Node6&#45;&gt;Node16</title>
<path fill="none" stroke="#9a32cd" stroke-dasharray="5,2" d="M67.213,-511.531C81.0796,-495.826 101.647,-472.747 120,-453 212.763,-353.193 327.233,-236.556 369.909,-193.29"/>
<polygon fill="#9a32cd" stroke="#9a32cd" points="64.2391,-509.612 60.2553,-519.429 69.4918,-514.239 64.2391,-509.612"/>
<text text-anchor="middle" x="145" y="-457" font-family="FreeSans" font-size="10.00"> refCount_</text>
</g>
<!-- Node19 -->
<g id="node44" class="node"><title>Node19</title>
<a xlink:href="class_urho3_d_1_1_weak_ptr.html" target="_top" xlink:title="Urho3D::WeakPtr\&lt; Urho3D\l::RenderSurface \&gt;">
<polygon fill="none" stroke="black" points="1774,-503 1774,-537 1920,-537 1920,-503 1774,-503"/>
<text text-anchor="start" x="1782" y="-524" font-family="FreeSans" font-size="10.00">Urho3D::WeakPtr&lt; Urho3D</text>
<text text-anchor="middle" x="1847" y="-511" font-family="FreeSans" font-size="10.00">::RenderSurface &gt;</text>
</a>
</g>
<!-- Node6&#45;&gt;Node19 -->
<g id="edge56" class="edge"><title>Node6&#45;&gt;Node19</title>
<path fill="none" stroke="#9a32cd" stroke-dasharray="5,2" d="M88.9365,-543.877C127.632,-556.773 189.678,-574 245,-574 245,-574 245,-574 1557,-574 1645.89,-574 1669.43,-574.167 1756,-554 1773.41,-549.944 1792.01,-543.418 1807.82,-537.162"/>
<polygon fill="#9a32cd" stroke="#9a32cd" points="89.7382,-540.453 79.1437,-540.539 87.4797,-547.078 89.7382,-540.453"/>
<text text-anchor="middle" x="897" y="-578" font-family="FreeSans" font-size="10.00"> refCount_</text>
</g>
<!-- Node7&#45;&gt;Node4 -->
<g id="edge12" class="edge"><title>Node7&#45;&gt;Node4</title>
<path fill="none" stroke="#9a32cd" stroke-dasharray="5,2" d="M603.776,-334C647.352,-334 705.874,-334 745.817,-334"/>
<polygon fill="#9a32cd" stroke="#9a32cd" points="603.602,-330.5 593.602,-334 603.602,-337.5 603.602,-330.5"/>
<text text-anchor="middle" x="676" y="-338" font-family="FreeSans" font-size="10.00"> context_</text>
</g>
<!-- Node8 -->
<g id="node15" class="node"><title>Node8</title>
<a xlink:href="class_urho3_d_1_1_linked_list.html" target="_top" xlink:title="Urho3D::LinkedList\l\&lt; Urho3D::EventHandler \&gt;">
<polygon fill="none" stroke="red" points="472,-401 472,-435 618,-435 618,-401 472,-401"/>
<text text-anchor="start" x="480" y="-422" font-family="FreeSans" font-size="10.00">Urho3D::LinkedList</text>
<text text-anchor="middle" x="545" y="-409" font-family="FreeSans" font-size="10.00">&lt; Urho3D::EventHandler &gt;</text>
</a>
</g>
<!-- Node8&#45;&gt;Node4 -->
<g id="edge16" class="edge"><title>Node8&#45;&gt;Node4</title>
<path fill="none" stroke="#9a32cd" stroke-dasharray="5,2" d="M628.388,-414.996C657.738,-410.907 689.89,-402.76 716,-387 727.113,-380.292 724.035,-372.319 734,-364 743.357,-356.188 755.08,-349.59 765.457,-344.588"/>
<polygon fill="#9a32cd" stroke="#9a32cd" points="627.625,-411.564 618.137,-416.279 628.495,-418.51 627.625,-411.564"/>
<text text-anchor="middle" x="676" y="-417" font-family="FreeSans" font-size="10.00"> eventHandlers_</text>
</g>
<!-- Node9 -->
<g id="node17" class="node"><title>Node9</title>
<a xlink:href="class_urho3_d_1_1_timer.html" target="_top" xlink:title="Low&#45;resolution operating system timer.">
<polygon fill="none" stroke="black" points="748,-152.5 748,-173.5 834,-173.5 834,-152.5 748,-152.5"/>
<text text-anchor="middle" x="791" y="-160.5" font-family="FreeSans" font-size="10.00">Urho3D::Timer</text>
</a>
</g>
<!-- Node9&#45;&gt;Node3 -->
<g id="edge18" class="edge"><title>Node9&#45;&gt;Node3</title>
<path fill="none" stroke="#9a32cd" stroke-dasharray="5,2" d="M831.397,-149.176C862.587,-138.633 906.881,-123.939 946,-112 956.411,-108.822 967.736,-105.55 978.22,-102.596"/>
<polygon fill="#9a32cd" stroke="#9a32cd" points="830.101,-145.92 821.754,-152.445 832.348,-152.55 830.101,-145.92"/>
<text text-anchor="middle" x="897" y="-140" font-family="FreeSans" font-size="10.00"> useTimer_</text>
</g>
<!-- Node10 -->
<g id="node19" class="node"><title>Node10</title>
<a xlink:href="class_urho3_d_1_1_string.html" target="_top" xlink:title="String class.">
<polygon fill="none" stroke="black" points="747,-373.5 747,-394.5 835,-394.5 835,-373.5 747,-373.5"/>
<text text-anchor="middle" x="791" y="-381.5" font-family="FreeSans" font-size="10.00">Urho3D::String</text>
</a>
</g>
<!-- Node10&#45;&gt;Node3 -->
<g id="edge20" class="edge"><title>Node10&#45;&gt;Node3</title>
<path fill="none" stroke="#9a32cd" stroke-dasharray="5,2" d="M827.753,-368.696C834.995,-364.615 842.153,-359.717 848,-354 900.352,-302.819 903.283,-278.915 928,-210 942.951,-168.316 916.175,-144.734 946,-112 951.261,-106.226 958.046,-102.068 965.33,-99.0834"/>
<polygon fill="#9a32cd" stroke="#9a32cd" points="825.892,-365.719 818.626,-373.429 829.115,-371.933 825.892,-365.719"/>
<text text-anchor="middle" x="897" y="-337" font-family="FreeSans" font-size="10.00"> name_</text>
</g>
<!-- Node10&#45;&gt;Node10 -->
<g id="edge22" class="edge"><title>Node10&#45;&gt;Node10</title>
<path fill="none" stroke="#9a32cd" stroke-dasharray="5,2" d="M771.465,-404.427C772.972,-409.349 779.484,-413 791,-413 809.426,-413 815.04,-403.653 807.842,-394.708"/>
<polygon fill="#9a32cd" stroke="#9a32cd" points="774.861,-405.279 774.158,-394.708 768.115,-403.41 774.861,-405.279"/>
<text text-anchor="middle" x="791" y="-417" font-family="FreeSans" font-size="10.00"> EMPTY</text>
</g>
<!-- Node10&#45;&gt;Node14 -->
<g id="edge64" class="edge"><title>Node10&#45;&gt;Node14</title>
<path fill="none" stroke="#9a32cd" stroke-dasharray="5,2" d="M845.492,-384.013C992.685,-383.582 1410.48,-379.273 1756,-346 1769.05,-344.744 1783.07,-342.856 1796.11,-340.87"/>
<polygon fill="#9a32cd" stroke="#9a32cd" points="845.357,-380.513 835.366,-384.038 845.375,-387.513 845.357,-380.513"/>
<text text-anchor="middle" x="1284" y="-447" font-family="FreeSans" font-size="10.00"> lastShaderName_</text>
<text text-anchor="middle" x="1284" y="-434" font-family="FreeSans" font-size="10.00">windowTitle_</text>
<text text-anchor="middle" x="1284" y="-421" font-family="FreeSans" font-size="10.00">apiName_</text>
<text text-anchor="middle" x="1284" y="-408" font-family="FreeSans" font-size="10.00">shaderPath_</text>
<text text-anchor="middle" x="1284" y="-395" font-family="FreeSans" font-size="10.00">orientations_</text>
<text text-anchor="middle" x="1284" y="-382" font-family="FreeSans" font-size="10.00">shaderExtension_</text>
</g>
<!-- Node11 -->
<g id="node22" class="node"><title>Node11</title>
<a xlink:href="class_urho3_d_1_1_string_hash.html" target="_top" xlink:title="32&#45;bit hash value for a string.">
<polygon fill="none" stroke="black" points="734.5,-81.5 734.5,-102.5 847.5,-102.5 847.5,-81.5 734.5,-81.5"/>
<text text-anchor="middle" x="791" y="-89.5" font-family="FreeSans" font-size="10.00">Urho3D::StringHash</text>
</a>
</g>
<!-- Node11&#45;&gt;Node3 -->
<g id="edge24" class="edge"><title>Node11&#45;&gt;Node3</title>
<path fill="none" stroke="#9a32cd" stroke-dasharray="5,2" d="M858.141,-92C892.42,-92 933.48,-92 965.268,-92"/>
<polygon fill="#9a32cd" stroke="#9a32cd" points="857.738,-88.5001 847.738,-92 857.738,-95.5001 857.738,-88.5001"/>
<text text-anchor="middle" x="897" y="-96" font-family="FreeSans" font-size="10.00"> nameHash_</text>
</g>
<!-- Node11&#45;&gt;Node11 -->
<g id="edge26" class="edge"><title>Node11&#45;&gt;Node11</title>
<path fill="none" stroke="#9a32cd" stroke-dasharray="5,2" d="M771.465,-112.427C772.972,-117.349 779.484,-121 791,-121 809.426,-121 815.04,-111.653 807.842,-102.708"/>
<polygon fill="#9a32cd" stroke="#9a32cd" points="774.861,-113.279 774.158,-102.708 768.115,-111.41 774.861,-113.279"/>
<text text-anchor="middle" x="791" y="-125" font-family="FreeSans" font-size="10.00"> ZERO</text>
</g>
<!-- Node12 -->
<g id="node25" class="node"><title>Node12</title>
<a xlink:href="class_urho3_d_1_1_g_p_u_object.html" target="_top" xlink:title="Base class for GPU resources.">
<polygon fill="none" stroke="black" points="2266.5,-237.5 2266.5,-258.5 2377.5,-258.5 2377.5,-237.5 2266.5,-237.5"/>
<text text-anchor="middle" x="2322" y="-245.5" font-family="FreeSans" font-size="10.00">Urho3D::GPUObject</text>
</a>
</g>
<!-- Node12&#45;&gt;Node2 -->
<g id="edge28" class="edge"><title>Node12&#45;&gt;Node2</title>
<path fill="none" stroke="midnightblue" d="M2256,-242.545C2115.54,-231.505 1776.56,-207.897 1492,-212 1436.73,-212.797 1373.23,-214.784 1331.08,-216.255"/>
<polygon fill="midnightblue" stroke="midnightblue" points="2255.93,-246.049 2266.17,-243.349 2256.48,-239.071 2255.93,-246.049"/>
</g>
<!-- Node13&#45;&gt;Node12 -->
<g id="edge30" class="edge"><title>Node13&#45;&gt;Node12</title>
<path fill="none" stroke="#9a32cd" stroke-dasharray="5,2" d="M2160.19,-311.221C2202.95,-294.514 2261.26,-271.731 2294.95,-258.57"/>
<polygon fill="#9a32cd" stroke="#9a32cd" points="2158.81,-308.001 2150.77,-314.9 2161.36,-314.521 2158.81,-308.001"/>
<text text-anchor="middle" x="2223" y="-299" font-family="FreeSans" font-size="10.00"> graphics_</text>
</g>
<!-- Node14&#45;&gt;Node13 -->
<g id="edge32" class="edge"><title>Node14&#45;&gt;Node13</title>
<path fill="none" stroke="#9a32cd" stroke-dasharray="5,2" d="M1908.05,-332C1945.65,-332 1994.08,-332 2033.75,-332"/>
<polygon fill="#9a32cd" stroke="#9a32cd" points="1907.75,-328.5 1897.75,-332 1907.75,-335.5 1907.75,-328.5"/>
<text text-anchor="middle" x="1977" y="-336" font-family="FreeSans" font-size="10.00"> ptr_</text>
</g>
<!-- Node15&#45;&gt;Node14 -->
<g id="edge36" class="edge"><title>Node15&#45;&gt;Node14</title>
<path fill="none" stroke="#9a32cd" stroke-dasharray="5,2" d="M1334.65,-63.2966C1373.59,-74.2818 1428.26,-91.3874 1474,-112 1620.34,-177.952 1782.02,-286.915 1831.67,-321.276"/>
<polygon fill="#9a32cd" stroke="#9a32cd" points="1335.18,-59.8111 1324.61,-60.5001 1333.31,-66.5545 1335.18,-59.8111"/>
<text text-anchor="middle" x="1557" y="-191" font-family="FreeSans" font-size="10.00"> windowIcon_</text>
</g>
<!-- Node17 -->
<g id="node38" class="node"><title>Node17</title>
<a xlink:href="class_urho3_d_1_1_shared_ptr.html" target="_top" xlink:title="Urho3D::SharedPtr\&lt;\l Urho3D::Image \&gt;">
<polygon fill="none" stroke="black" points="1499,-0 1499,-34 1615,-34 1615,-0 1499,-0"/>
<text text-anchor="start" x="1507" y="-21" font-family="FreeSans" font-size="10.00">Urho3D::SharedPtr&lt;</text>
<text text-anchor="middle" x="1557" y="-8" font-family="FreeSans" font-size="10.00"> Urho3D::Image &gt;</text>
</a>
</g>
<!-- Node15&#45;&gt;Node17 -->
<g id="edge46" class="edge"><title>Node15&#45;&gt;Node17</title>
<path fill="none" stroke="#9a32cd" stroke-dasharray="5,2" d="M1315.73,-35.3641C1337.73,-26.0468 1368,-14.8501 1396,-10 1430.16,-4.08336 1439.36,-8.54203 1474,-10 1482.09,-10.3406 1490.61,-10.8671 1498.99,-11.482"/>
<polygon fill="#9a32cd" stroke="#9a32cd" points="1314.32,-32.1601 1306.54,-39.3503 1317.11,-38.5821 1314.32,-32.1601"/>
<text text-anchor="middle" x="1435" y="-14" font-family="FreeSans" font-size="10.00"> ptr_</text>
</g>
<!-- Node16&#45;&gt;Node15 -->
<g id="edge40" class="edge"><title>Node16&#45;&gt;Node15</title>
<path fill="none" stroke="#9a32cd" stroke-dasharray="5,2" d="M417.372,-152.745C468.045,-116.339 574.328,-50 676,-50 676,-50 676,-50 1017,-50 1095.11,-50 1186.07,-50 1239.12,-50"/>
<polygon fill="#9a32cd" stroke="#9a32cd" points="415.164,-150.024 409.148,-158.744 419.29,-155.679 415.164,-150.024"/>
<text text-anchor="middle" x="791" y="-54" font-family="FreeSans" font-size="10.00"> data_</text>
</g>
<!-- Node17&#45;&gt;Node1 -->
<g id="edge76" class="edge"><title>Node17&#45;&gt;Node1</title>
<path fill="none" stroke="#9a32cd" stroke-dasharray="5,2" d="M1625.12,-16.3219C1698.79,-16.9989 1819.21,-22.221 1920,-46 1982.41,-60.7252 2051.71,-91.9948 2085.76,-108.419"/>
<polygon fill="#9a32cd" stroke="#9a32cd" points="1625.07,-12.8216 1615.05,-16.2551 1625.02,-19.8214 1625.07,-12.8216"/>
<text text-anchor="middle" x="1847" y="-50" font-family="FreeSans" font-size="10.00"> loadImage_</text>
</g>
<!-- Node17&#45;&gt;Node15 -->
<g id="edge44" class="edge"><title>Node17&#45;&gt;Node15</title>
<path fill="none" stroke="#9a32cd" stroke-dasharray="5,2" d="M1488.54,-24.3214C1459.92,-27.4679 1426.33,-31.2737 1396,-35 1373.8,-37.727 1349.16,-40.9998 1328.66,-43.7915"/>
<polygon fill="#9a32cd" stroke="#9a32cd" points="1489.28,-27.7611 1498.84,-23.1933 1488.52,-20.8027 1489.28,-27.7611"/>
<text text-anchor="middle" x="1435" y="-52" font-family="FreeSans" font-size="10.00"> nextLevel_</text>
<text text-anchor="middle" x="1435" y="-39" font-family="FreeSans" font-size="10.00">nextSibling_</text>
</g>
<!-- Node18&#45;&gt;Node14 -->
<g id="edge48" class="edge"><title>Node18&#45;&gt;Node14</title>
<path fill="none" stroke="#9a32cd" stroke-dasharray="5,2" d="M1570.24,-465.077C1584.96,-445.569 1610.57,-415.835 1640,-400 1686.29,-375.099 1706.23,-393.907 1756,-377 1782.53,-367.986 1811.21,-352.81 1829.13,-342.603"/>
<polygon fill="#9a32cd" stroke="#9a32cd" points="1567.35,-463.097 1564.27,-473.233 1573,-467.231 1567.35,-463.097"/>
<text text-anchor="middle" x="1698" y="-417" font-family="FreeSans" font-size="10.00"> depthStencil_</text>
<text text-anchor="middle" x="1698" y="-404" font-family="FreeSans" font-size="10.00">renderTargets_</text>
</g>
<!-- Node18&#45;&gt;Node19 -->
<g id="edge54" class="edge"><title>Node18&#45;&gt;Node19</title>
<path fill="none" stroke="#9a32cd" stroke-dasharray="5,2" d="M1632.1,-475.257C1669.67,-472.8 1715.63,-472.713 1756,-481 1776.71,-485.251 1798.53,-494.42 1815.6,-502.8"/>
<polygon fill="#9a32cd" stroke="#9a32cd" points="1631.46,-471.794 1621.74,-476.007 1631.97,-478.775 1631.46,-471.794"/>
<text text-anchor="middle" x="1698" y="-485" font-family="FreeSans" font-size="10.00"> ptr_</text>
</g>
<!-- Node23 -->
<g id="node61" class="node"><title>Node23</title>
<a xlink:href="class_urho3_d_1_1_shared_ptr.html" target="_top" xlink:title="Urho3D::SharedPtr\&lt;\l Urho3D::RenderSurface \&gt;">
<polygon fill="none" stroke="black" points="1775.5,-396 1775.5,-430 1918.5,-430 1918.5,-396 1775.5,-396"/>
<text text-anchor="start" x="1783.5" y="-417" font-family="FreeSans" font-size="10.00">Urho3D::SharedPtr&lt;</text>
<text text-anchor="middle" x="1847" y="-404" font-family="FreeSans" font-size="10.00"> Urho3D::RenderSurface &gt;</text>
</a>
</g>
<!-- Node18&#45;&gt;Node23 -->
<g id="edge80" class="edge"><title>Node18&#45;&gt;Node23</title>
<path fill="none" stroke="#9a32cd" stroke-dasharray="5,2" d="M1595.31,-470.002C1609.26,-465.189 1625.24,-460.008 1640,-456 1684.46,-443.931 1735.07,-433.361 1775.12,-425.721"/>
<polygon fill="#9a32cd" stroke="#9a32cd" points="1593.83,-466.811 1585.55,-473.42 1596.14,-473.418 1593.83,-466.811"/>
<text text-anchor="middle" x="1698" y="-460" font-family="FreeSans" font-size="10.00"> ptr_</text>
</g>
<!-- Node19&#45;&gt;Node18 -->
<g id="edge52" class="edge"><title>Node19&#45;&gt;Node18</title>
<path fill="none" stroke="#9a32cd" stroke-dasharray="5,2" d="M1763.15,-512.265C1725.44,-508.485 1680.42,-503.551 1640,-498 1632.47,-496.966 1624.58,-495.774 1616.78,-494.532"/>
<polygon fill="#9a32cd" stroke="#9a32cd" points="1763.28,-515.796 1773.58,-513.301 1763.97,-508.83 1763.28,-515.796"/>
<text text-anchor="start" x="1650" y="-541" font-family="FreeSans" font-size="10.00"> linkedDepthStencil</text>
<text text-anchor="middle" x="1698" y="-528" font-family="FreeSans" font-size="10.00">_</text>
<text text-anchor="middle" x="1698" y="-515" font-family="FreeSans" font-size="10.00">linkedRenderTarget_</text>
</g>
<!-- Node20 -->
<g id="node49" class="node"><title>Node20</title>
<a xlink:href="class_urho3_d_1_1_vector.html" target="_top" xlink:title="Urho3D::Vector\&lt; Urho3D\l::SharedPtr\&lt; Urho3D::Viewport \&gt; \&gt;">
<polygon fill="none" stroke="red" points="1190,-512 1190,-546 1378,-546 1378,-512 1190,-512"/>
<text text-anchor="start" x="1198" y="-533" font-family="FreeSans" font-size="10.00">Urho3D::Vector&lt; Urho3D</text>
<text text-anchor="middle" x="1284" y="-520" font-family="FreeSans" font-size="10.00">::SharedPtr&lt; Urho3D::Viewport &gt; &gt;</text>
</a>
</g>
<!-- Node20&#45;&gt;Node18 -->
<g id="edge60" class="edge"><title>Node20&#45;&gt;Node18</title>
<path fill="none" stroke="#9a32cd" stroke-dasharray="5,2" d="M1388.38,-512.072C1416.21,-507.532 1446.25,-502.604 1474,-498 1480.78,-496.876 1487.86,-495.693 1494.91,-494.51"/>
<polygon fill="#9a32cd" stroke="#9a32cd" points="1387.55,-508.662 1378.24,-513.726 1388.68,-515.571 1387.55,-508.662"/>
<text text-anchor="middle" x="1435" y="-514" font-family="FreeSans" font-size="10.00"> viewports_</text>
</g>
<!-- Node21&#45;&gt;Node2 -->
<g id="edge68" class="edge"><title>Node21&#45;&gt;Node2</title>
<path fill="none" stroke="#9a32cd" stroke-dasharray="5,2" d="M1488.5,-228.461C1483.6,-227.92 1478.73,-227.424 1474,-227 1425.49,-222.644 1369.8,-220.32 1331.32,-219.132"/>
<polygon fill="#9a32cd" stroke="#9a32cd" points="1488.24,-231.953 1498.57,-229.627 1489.04,-225 1488.24,-231.953"/>
<text text-anchor="middle" x="1435" y="-231" font-family="FreeSans" font-size="10.00"> backupTexture_</text>
</g>
<!-- Node22 -->
<g id="node57" class="node"><title>Node22</title>
<a xlink:href="class_urho3_d_1_1_color.html" target="_top" xlink:title="RGBA color.">
<polygon fill="none" stroke="black" points="975,-121.5 975,-142.5 1059,-142.5 1059,-121.5 975,-121.5"/>
<text text-anchor="middle" x="1017" y="-129.5" font-family="FreeSans" font-size="10.00">Urho3D::Color</text>
</a>
</g>
<!-- Node22&#45;&gt;Node2 -->
<g id="edge72" class="edge"><title>Node22&#45;&gt;Node2</title>
<path fill="none" stroke="#9a32cd" stroke-dasharray="5,2" d="M1059.03,-145.745C1073.87,-150.583 1090.67,-156.048 1106,-161 1156.48,-177.308 1215.09,-196.036 1250.85,-207.44"/>
<polygon fill="#9a32cd" stroke="#9a32cd" points="1059.71,-142.285 1049.12,-142.509 1057.54,-148.939 1059.71,-142.285"/>
<text text-anchor="middle" x="1139" y="-185" font-family="FreeSans" font-size="10.00"> borderColor_</text>
</g>
<!-- Node22&#45;&gt;Node22 -->
<g id="edge74" class="edge"><title>Node22&#45;&gt;Node22</title>
<path fill="none" stroke="#9a32cd" stroke-dasharray="5,2" d="M994.885,-152.427C996.591,-157.349 1003.96,-161 1017,-161 1037.86,-161 1044.21,-151.653 1036.07,-142.708"/>
<polygon fill="#9a32cd" stroke="#9a32cd" points="998.28,-153.297 997.933,-142.708 991.601,-151.202 998.28,-153.297"/>
<text text-anchor="middle" x="1017" y="-295" font-family="FreeSans" font-size="10.00"> CYAN</text>
<text text-anchor="middle" x="1017" y="-282" font-family="FreeSans" font-size="10.00">GRAY</text>
<text text-anchor="middle" x="1017" y="-269" font-family="FreeSans" font-size="10.00">YELLOW</text>
<text text-anchor="middle" x="1017" y="-256" font-family="FreeSans" font-size="10.00">MAGENTA</text>
<text text-anchor="middle" x="1017" y="-243" font-family="FreeSans" font-size="10.00">WHITE</text>
<text text-anchor="middle" x="1017" y="-230" font-family="FreeSans" font-size="10.00">TRANSPARENT</text>
<text text-anchor="middle" x="1017" y="-217" font-family="FreeSans" font-size="10.00">BLUE</text>
<text text-anchor="middle" x="1017" y="-204" font-family="FreeSans" font-size="10.00">BLACK</text>
<text text-anchor="middle" x="1017" y="-191" font-family="FreeSans" font-size="10.00">RED</text>
<text text-anchor="middle" x="1017" y="-178" font-family="FreeSans" font-size="10.00">GREEN</text>
<text text-anchor="middle" x="1017" y="-165" font-family="FreeSans" font-size="10.00">...</text>
</g>
<!-- Node23&#45;&gt;Node1 -->
<g id="edge78" class="edge"><title>Node23&#45;&gt;Node1</title>
<path fill="none" stroke="#9a32cd" stroke-dasharray="5,2" d="M1880.79,-389.637C1894.17,-379.219 1908.96,-366.113 1920,-352 1931.27,-337.595 1927.95,-330.275 1938,-315 1988.89,-237.69 2067.31,-157.886 2096,-129.662"/>
<polygon fill="#9a32cd" stroke="#9a32cd" points="1878.55,-386.94 1872.68,-395.762 1882.77,-392.525 1878.55,-386.94"/>
<text text-anchor="middle" x="1977" y="-319" font-family="FreeSans" font-size="10.00"> renderSurface_</text>
</g>
<!-- Node24 -->
<g id="node64" class="node"><title>Node24</title>
<a xlink:href="class_urho3_d_1_1_shared_ptr.html" target="_top" xlink:title="Urho3D::SharedPtr\&lt;\l Urho3D::XMLFile \&gt;">
<polygon fill="none" stroke="black" points="1640,-32 1640,-66 1756,-66 1756,-32 1640,-32"/>
<text text-anchor="start" x="1648" y="-53" font-family="FreeSans" font-size="10.00">Urho3D::SharedPtr&lt;</text>
<text text-anchor="middle" x="1698" y="-40" font-family="FreeSans" font-size="10.00"> Urho3D::XMLFile &gt;</text>
</a>
</g>
<!-- Node24&#45;&gt;Node1 -->
<g id="edge82" class="edge"><title>Node24&#45;&gt;Node1</title>
<path fill="none" stroke="#9a32cd" stroke-dasharray="5,2" d="M1766.22,-60.6764C1846.9,-74.4844 1979.52,-97.1812 2053.27,-109.804"/>
<polygon fill="#9a32cd" stroke="#9a32cd" points="1766.61,-57.1922 1756.17,-58.955 1765.43,-64.0918 1766.61,-57.1922"/>
<text text-anchor="middle" x="1847" y="-90" font-family="FreeSans" font-size="10.00"> loadParameters_</text>
</g>
<!-- Node25&#45;&gt;Node24 -->
<g id="edge84" class="edge"><title>Node25&#45;&gt;Node24</title>
<path fill="none" stroke="#9a32cd" stroke-dasharray="5,2" d="M1341.21,-117.933C1409.54,-120.901 1526.59,-120.464 1622,-92 1640.74,-86.4089 1659.89,-75.534 1674.28,-66.12"/>
<polygon fill="#9a32cd" stroke="#9a32cd" points="1341.23,-114.43 1331.08,-117.452 1340.9,-121.422 1341.23,-114.43"/>
<text text-anchor="middle" x="1435" y="-123" font-family="FreeSans" font-size="10.00"> ptr_</text>
</g>
</g>
</svg>
        <g id="navigator" transform="translate(0 0)" fill="#404254">
                <rect fill="#f2f5e9" fill-opacity="0.5" stroke="#606060" stroke-width=".5" x="0" y="0" width="60" height="60"/>
                <use id="zoomplus" xlink:href="#zoomPlus" x="17" y="9" onmousedown="handleZoom(evt,'in')"/>
                <use id="zoomminus" xlink:href="#zoomMin" x="42" y="9" onmousedown="handleZoom(evt,'out')"/>
                <use id="reset" xlink:href="#resetDef" x="30" y="36" onmousedown="handleReset()"/>
                <g id="arrowUp" xlink:href="#dirArrow" transform="translate(30 24)" onmousedown="handlePan(0,-1)">
                  <use xlink:href="#rim" fill="#404040">
                        <set attributeName="fill" to="#808080" begin="arrowUp.mouseover" end="arrowUp.mouseout"/>
                  </use>
                  <path fill="none" stroke="white" stroke-width="1.5" d="M0,-3.0v7 M-2.5,-0.5L0,-3.0L2.5,-0.5"/>
                </g>
                <g id="arrowRight" xlink:href="#dirArrow" transform="rotate(90) translate(36 -43)" onmousedown="handlePan(1,0)">
                  <use xlink:href="#rim" fill="#404040">
                        <set attributeName="fill" to="#808080" begin="arrowRight.mouseover" end="arrowRight.mouseout"/>
                  </use>
                  <path fill="none" stroke="white" stroke-width="1.5" d="M0,-3.0v7 M-2.5,-0.5L0,-3.0L2.5,-0.5"/>
                </g>
                <g id="arrowDown" xlink:href="#dirArrow" transform="rotate(180) translate(-30 -48)" onmousedown="handlePan(0,1)">
                  <use xlink:href="#rim" fill="#404040">
                        <set attributeName="fill" to="#808080" begin="arrowDown.mouseover" end="arrowDown.mouseout"/>
                  </use>
                  <path fill="none" stroke="white" stroke-width="1.5" d="M0,-3.0v7 M-2.5,-0.5L0,-3.0L2.5,-0.5"/>
                </g>
                <g id="arrowLeft" xlink:href="#dirArrow" transform="rotate(270) translate(-36 17)" onmousedown="handlePan(-1,0)">
                  <use xlink:href="#rim" fill="#404040">
                        <set attributeName="fill" to="#808080" begin="arrowLeft.mouseover" end="arrowLeft.mouseout"/>
                  </use>
                  <path fill="none" stroke="white" stroke-width="1.5" d="M0,-3.0v7 M-2.5,-0.5L0,-3.0L2.5,-0.5"/>
                </g>
        </g>
        <svg viewBox="0 0 15 15" width="100%" height="30px" preserveAspectRatio="xMaxYMin meet">
         <g id="arrow_out" transform="scale(0.3 0.3)">
          <a xlink:href="class_urho3_d_1_1_texture2_d__coll__graph_org.svg" target="_base">
           <rect id="button" ry="5" rx="5" y="6" x="6" height="38" width="38"
                fill="#f2f5e9" fill-opacity="0.5" stroke="#606060" stroke-width="1.0"/>
           <path id="arrow"
             d="M 11.500037,31.436501 C 11.940474,20.09759 22.043105,11.32322 32.158766,21.979434 L 37.068811,17.246167 C 37.068811,17.246167 37.088388,32 37.088388,32 L 22.160133,31.978069 C 22.160133,31.978069 26.997745,27.140456 26.997745,27.140456 C 18.528582,18.264221 13.291696,25.230495 11.500037,31.436501 z"
             style="fill:#404040;"/>
          </a>
         </g>
        </svg>
</svg>
