<?xml version="1.0" encoding="UTF-8" standalone="no"?>
<!DOCTYPE svg PUBLIC "-//W3C//DTD SVG 1.1//EN"
 "http://www.w3.org/Graphics/SVG/1.1/DTD/svg11.dtd">
<!-- Generated by graphviz version 2.26.3 (20100126.1600)
 -->
<!-- Title: Urho3D::AnimatedModel::UpdateBoneBoundingBox Pages: 1 -->
<svg width="494pt" height="94pt"
 viewBox="0.00 0.00 494.00 94.00" xmlns="http://www.w3.org/2000/svg" xmlns:xlink="http://www.w3.org/1999/xlink">
<g id="graph1" class="graph" transform="scale(1 1) rotate(0) translate(4 90)">
<title>Urho3D::AnimatedModel::UpdateBoneBoundingBox</title>
<!-- Node1 -->
<g id="node1" class="node"><title>Node1</title>
<polygon fill="#bfbfbf" stroke="black" points="0,-29 0,-63 146,-63 146,-29 0,-29"/>
<text text-anchor="start" x="8" y="-50" font-family="FreeSans" font-size="10.00">Urho3D::AnimatedModel</text>
<text text-anchor="middle" x="73" y="-37" font-family="FreeSans" font-size="10.00">::UpdateBoneBoundingBox</text>
</g>
<!-- Node2 -->
<g id="node3" class="node"><title>Node2</title>
<a xlink:href="class_urho3_d_1_1_animated_model.html#a9ea4b851811b37bb2ef96a0f91b360a3" target="_top" xlink:title="Update before octree reinsertion. Is called from a worker thread.">
<polygon fill="none" stroke="black" points="352,-52 352,-86 486,-86 486,-52 352,-52"/>
<text text-anchor="start" x="360" y="-73" font-family="FreeSans" font-size="10.00">Urho3D::AnimatedModel</text>
<text text-anchor="middle" x="419" y="-60" font-family="FreeSans" font-size="10.00">::Update</text>
</a>
</g>
<!-- Node1&#45;&gt;Node2 -->
<g id="edge2" class="edge"><title>Node1&#45;&gt;Node2</title>
<path fill="none" stroke="midnightblue" d="M156.568,-51.5551C216.472,-55.5371 296.108,-60.8309 351.884,-64.5385"/>
<polygon fill="midnightblue" stroke="midnightblue" points="156.588,-48.0488 146.378,-50.8777 156.124,-55.0334 156.588,-48.0488"/>
</g>
<!-- Node3 -->
<g id="node5" class="node"><title>Node3</title>
<a xlink:href="class_urho3_d_1_1_animated_model.html#a4490aea6f65d9c5c617f8f6a4f762401" target="_top" xlink:title="Recalculate animations. Called from Update().">
<polygon fill="none" stroke="black" points="182,-7 182,-41 316,-41 316,-7 182,-7"/>
<text text-anchor="start" x="190" y="-28" font-family="FreeSans" font-size="10.00">Urho3D::AnimatedModel</text>
<text text-anchor="middle" x="249" y="-15" font-family="FreeSans" font-size="10.00">::UpdateAnimation</text>
</a>
</g>
<!-- Node1&#45;&gt;Node3 -->
<g id="edge4" class="edge"><title>Node1&#45;&gt;Node3</title>
<path fill="none" stroke="midnightblue" d="M156.14,-35.6076C164.723,-34.5346 173.369,-33.4538 181.749,-32.4064"/>
<polygon fill="midnightblue" stroke="midnightblue" points="155.599,-32.1477 146.111,-36.8611 156.468,-39.0937 155.599,-32.1477"/>
</g>
<!-- Node3&#45;&gt;Node2 -->
<g id="edge6" class="edge"><title>Node3&#45;&gt;Node2</title>
<path fill="none" stroke="midnightblue" d="M323.217,-43.6458C333.686,-46.4169 344.376,-49.2467 354.639,-51.9634"/>
<polygon fill="midnightblue" stroke="midnightblue" points="323.832,-40.1881 313.27,-41.0126 322.041,-46.955 323.832,-40.1881"/>
</g>
<!-- Node4 -->
<g id="node8" class="node"><title>Node4</title>
<a xlink:href="class_urho3_d_1_1_animated_model.html#ae78d0e2c3f1d73b0f950e83796748058" target="_top" xlink:title="Prepare geometry for rendering. Called from a worker thread if possible (no GPU update.)">
<polygon fill="none" stroke="black" points="352,-0 352,-34 486,-34 486,-0 352,-0"/>
<text text-anchor="start" x="360" y="-21" font-family="FreeSans" font-size="10.00">Urho3D::AnimatedModel</text>
<text text-anchor="middle" x="419" y="-8" font-family="FreeSans" font-size="10.00">::UpdateGeometry</text>
</a>
</g>
<!-- Node3&#45;&gt;Node4 -->
<g id="edge8" class="edge"><title>Node3&#45;&gt;Node4</title>
<path fill="none" stroke="midnightblue" d="M326.425,-20.8119C334.876,-20.4639 343.428,-20.1118 351.743,-19.7694"/>
<polygon fill="midnightblue" stroke="midnightblue" points="326.036,-17.3249 316.189,-21.2334 326.324,-24.3189 326.036,-17.3249"/>
</g>
</g>
</svg>
