<?xml version="1.0" encoding="UTF-8" standalone="no"?>
<!DOCTYPE svg PUBLIC "-//W3C//DTD SVG 1.1//EN"
 "http://www.w3.org/Graphics/SVG/1.1/DTD/svg11.dtd">
<!-- Generated by graphviz version 2.26.3 (20100126.1600)
 -->
<!-- Title: Urho3D::Light Pages: 1 -->
<svg width="1512pt" height="1034pt"
 viewBox="0.00 0.00 1512.00 1034.28" xmlns="http://www.w3.org/2000/svg" xmlns:xlink="http://www.w3.org/1999/xlink">
<g id="graph1" class="graph" transform="scale(1 1) rotate(0) translate(4 1030.28)">
<title>Urho3D::Light</title>
<!-- Node1 -->
<g id="node1" class="node"><title>Node1</title>
<polygon fill="#bfbfbf" stroke="black" points="545.5,-363.782 545.5,-384.782 628.5,-384.782 628.5,-363.782 545.5,-363.782"/>
<text text-anchor="middle" x="587" y="-371.782" font-family="FreeSans" font-size="10.00">Urho3D::Light</text>
</g>
<!-- Node2 -->
<g id="node2" class="node"><title>Node2</title>
<a xlink:href="class_urho3_d_1_1_drawable.html" target="_top" xlink:title="Base class for visible components.">
<polygon fill="none" stroke="black" points="838,-355.782 838,-376.782 942,-376.782 942,-355.782 838,-355.782"/>
<text text-anchor="middle" x="890" y="-363.782" font-family="FreeSans" font-size="10.00">Urho3D::Drawable</text>
</a>
</g>
<!-- Node1&#45;&gt;Node2 -->
<g id="edge54" class="edge"><title>Node1&#45;&gt;Node2</title>
<path fill="none" stroke="#9a32cd" stroke-dasharray="5,2" d="M639.153,-372.905C694.785,-371.436 782.381,-369.123 837.966,-367.655"/>
<polygon fill="#9a32cd" stroke="#9a32cd" points="638.717,-369.415 628.813,-373.178 638.902,-376.412 638.717,-369.415"/>
<text text-anchor="middle" x="743" y="-375.282" font-family="FreeSans" font-size="10.00"> firstLight_</text>
</g>
<!-- Node19 -->
<g id="node51" class="node"><title>Node19</title>
<a xlink:href="struct_urho3_d_1_1_light_batch_queue.html" target="_top" xlink:title="Queue for light related draw calls.">
<polygon fill="none" stroke="black" points="1066,-852.782 1066,-873.782 1208,-873.782 1208,-852.782 1066,-852.782"/>
<text text-anchor="middle" x="1137" y="-860.782" font-family="FreeSans" font-size="10.00">Urho3D::LightBatchQueue</text>
</a>
</g>
<!-- Node1&#45;&gt;Node19 -->
<g id="edge86" class="edge"><title>Node1&#45;&gt;Node19</title>
<path fill="none" stroke="#9a32cd" stroke-dasharray="5,2" d="M593.033,-394.537C609.715,-449.971 656.388,-601.054 674,-616.282 721.341,-657.214 751.329,-628.931 812,-644.282 874.153,-660.007 892.873,-657.184 950,-686.282 1034.05,-729.091 1106.58,-821.574 1129.49,-852.765"/>
<polygon fill="#9a32cd" stroke="#9a32cd" points="596.337,-393.37 590.114,-384.795 589.632,-395.379 596.337,-393.37"/>
<text text-anchor="middle" x="890" y="-690.282" font-family="FreeSans" font-size="10.00"> light_</text>
</g>
<!-- Node2&#45;&gt;Node1 -->
<g id="edge2" class="edge"><title>Node2&#45;&gt;Node1</title>
<path fill="none" stroke="midnightblue" d="M827.545,-358.433C822.293,-357.969 817.059,-357.572 812,-357.282 750.768,-353.761 735.048,-351.373 674,-357.282 659.141,-358.72 643.052,-361.509 628.798,-364.418"/>
<polygon fill="midnightblue" stroke="midnightblue" points="827.337,-361.929 837.625,-359.402 828.006,-354.962 827.337,-361.929"/>
</g>
<!-- Node7 -->
<g id="node15" class="node"><title>Node7</title>
<a xlink:href="class_urho3_d_1_1_zone.html" target="_top" xlink:title="Component that describes global rendering properties.">
<polygon fill="none" stroke="black" points="1094.5,-392.782 1094.5,-413.782 1179.5,-413.782 1179.5,-392.782 1094.5,-392.782"/>
<text text-anchor="middle" x="1137" y="-400.782" font-family="FreeSans" font-size="10.00">Urho3D::Zone</text>
</a>
</g>
<!-- Node2&#45;&gt;Node7 -->
<g id="edge20" class="edge"><title>Node2&#45;&gt;Node7</title>
<path fill="none" stroke="midnightblue" d="M952.106,-365.026C981.411,-365.452 1016.73,-367.44 1048,-373.282 1070.12,-377.414 1094.25,-385.809 1111.8,-392.67"/>
<polygon fill="midnightblue" stroke="midnightblue" points="952.038,-361.525 942.008,-364.937 951.976,-368.525 952.038,-361.525"/>
</g>
<!-- Node3 -->
<g id="node4" class="node"><title>Node3</title>
<a xlink:href="class_urho3_d_1_1_component.html" target="_top" xlink:title="Base class for components. Components can be created to scene nodes.">
<polygon fill="none" stroke="black" points="529,-183.782 529,-204.782 645,-204.782 645,-183.782 529,-183.782"/>
<text text-anchor="middle" x="587" y="-191.782" font-family="FreeSans" font-size="10.00">Urho3D::Component</text>
</a>
</g>
<!-- Node3&#45;&gt;Node2 -->
<g id="edge4" class="edge"><title>Node3&#45;&gt;Node2</title>
<path fill="none" stroke="midnightblue" d="M614.512,-209.899C675.32,-244.417 819.84,-326.455 871.359,-355.7"/>
<polygon fill="midnightblue" stroke="midnightblue" points="615.922,-206.675 605.498,-204.782 612.467,-212.763 615.922,-206.675"/>
</g>
<!-- Node4 -->
<g id="node6" class="node"><title>Node4</title>
<a xlink:href="class_urho3_d_1_1_animatable.html" target="_top" xlink:title="Base class for animatable object, an animatable object can be set animation on it&#39;s attributes...">
<polygon fill="none" stroke="red" points="0,-131.782 0,-152.782 114,-152.782 114,-131.782 0,-131.782"/>
<text text-anchor="middle" x="57" y="-139.782" font-family="FreeSans" font-size="10.00">Urho3D::Animatable</text>
</a>
</g>
<!-- Node4&#45;&gt;Node3 -->
<g id="edge6" class="edge"><title>Node4&#45;&gt;Node3</title>
<path fill="none" stroke="midnightblue" d="M124.064,-139.556C191.123,-137.756 297.077,-137.422 388,-148.282 438.643,-154.33 450.32,-161.742 500,-173.282 514.378,-176.621 530.066,-180.374 544.111,-183.774"/>
<polygon fill="midnightblue" stroke="midnightblue" points="123.946,-136.058 114.051,-139.844 124.147,-143.055 123.946,-136.058"/>
</g>
<!-- Node5 -->
<g id="node8" class="node"><title>Node5</title>
<a xlink:href="class_urho3_d_1_1_node.html" target="_top" xlink:title="Scene node that may contain components and child nodes.">
<polygon fill="none" stroke="red" points="267.5,-157.782 267.5,-178.782 352.5,-178.782 352.5,-157.782 267.5,-157.782"/>
<text text-anchor="middle" x="310" y="-165.782" font-family="FreeSans" font-size="10.00">Urho3D::Node</text>
</a>
</g>
<!-- Node4&#45;&gt;Node5 -->
<g id="edge10" class="edge"><title>Node4&#45;&gt;Node5</title>
<path fill="none" stroke="midnightblue" d="M124.155,-149.183C169.559,-153.849 228.153,-159.87 267.294,-163.893"/>
<polygon fill="midnightblue" stroke="midnightblue" points="124.399,-145.69 114.094,-148.149 123.683,-152.653 124.399,-145.69"/>
</g>
<!-- Node5&#45;&gt;Node3 -->
<g id="edge8" class="edge"><title>Node5&#45;&gt;Node3</title>
<path fill="none" stroke="#9a32cd" stroke-dasharray="5,2" d="M362.745,-173.232C410.195,-177.686 479.787,-184.218 528.835,-188.822"/>
<polygon fill="#9a32cd" stroke="#9a32cd" points="362.958,-169.737 352.674,-172.287 362.303,-176.706 362.958,-169.737"/>
<text text-anchor="middle" x="453" y="-189.282" font-family="FreeSans" font-size="10.00"> node_</text>
</g>
<!-- Node5&#45;&gt;Node5 -->
<g id="edge12" class="edge"><title>Node5&#45;&gt;Node5</title>
<path fill="none" stroke="#9a32cd" stroke-dasharray="5,2" d="M284.804,-188.337C286.456,-193.446 294.855,-197.282 310,-197.282 333.641,-197.282 340.844,-187.935 331.609,-178.989"/>
<polygon fill="#9a32cd" stroke="#9a32cd" points="288.076,-189.58 288.391,-178.989 281.54,-187.071 288.076,-189.58"/>
<text text-anchor="middle" x="310" y="-201.282" font-family="FreeSans" font-size="10.00"> parent_</text>
</g>
<!-- Node6 -->
<g id="node12" class="node"><title>Node6</title>
<a xlink:href="class_urho3_d_1_1_matrix3x4.html" target="_top" xlink:title="3x4 matrix for scene node transform calculations.">
<polygon fill="none" stroke="black" points="4,-275.782 4,-296.782 110,-296.782 110,-275.782 4,-275.782"/>
<text text-anchor="middle" x="57" y="-283.782" font-family="FreeSans" font-size="10.00">Urho3D::Matrix3x4</text>
</a>
</g>
<!-- Node6&#45;&gt;Node1 -->
<g id="edge96" class="edge"><title>Node6&#45;&gt;Node1</title>
<path fill="none" stroke="#9a32cd" stroke-dasharray="5,2" d="M120.536,-283.007C187.521,-280.718 295.896,-280.327 388,-295.282 439.348,-303.619 451.807,-309.695 500,-329.282 524.576,-339.27 551.506,-353.795 568.796,-363.619"/>
<polygon fill="#9a32cd" stroke="#9a32cd" points="120.014,-279.524 110.149,-283.389 120.271,-286.519 120.014,-279.524"/>
<text text-anchor="middle" x="310" y="-299.282" font-family="FreeSans" font-size="10.00"> volumeTransform_</text>
</g>
<!-- Node6&#45;&gt;Node5 -->
<g id="edge14" class="edge"><title>Node6&#45;&gt;Node5</title>
<path fill="none" stroke="#9a32cd" stroke-dasharray="5,2" d="M88.9902,-271.361C140.893,-247.154 242.183,-199.912 287.336,-178.852"/>
<polygon fill="#9a32cd" stroke="#9a32cd" points="87.4816,-268.203 79.8983,-275.602 90.4405,-274.547 87.4816,-268.203"/>
<text text-anchor="middle" x="173" y="-251.282" font-family="FreeSans" font-size="10.00"> worldTransform_</text>
</g>
<!-- Node6&#45;&gt;Node6 -->
<g id="edge16" class="edge"><title>Node6&#45;&gt;Node6</title>
<path fill="none" stroke="#9a32cd" stroke-dasharray="5,2" d="M35.6225,-306.708C37.2716,-311.63 44.3975,-315.282 57,-315.282 77.1641,-315.282 83.3078,-305.935 75.4312,-296.989"/>
<polygon fill="#9a32cd" stroke="#9a32cd" points="39.017,-307.575 38.5688,-296.989 32.318,-305.544 39.017,-307.575"/>
<text text-anchor="middle" x="57" y="-332.282" font-family="FreeSans" font-size="10.00"> IDENTITY</text>
<text text-anchor="middle" x="57" y="-319.282" font-family="FreeSans" font-size="10.00">ZERO</text>
</g>
<!-- Node6&#45;&gt;Node7 -->
<g id="edge40" class="edge"><title>Node6&#45;&gt;Node7</title>
<path fill="none" stroke="#9a32cd" stroke-dasharray="5,2" d="M61.5055,-307.062C75.2205,-364.557 122.4,-525.684 232,-589.282 287.74,-621.626 749.758,-607.987 812,-591.282 946.725,-555.122 1083.31,-448.044 1124.51,-413.882"/>
<polygon fill="#9a32cd" stroke="#9a32cd" points="64.8459,-305.97 59.2001,-297.005 58.0229,-307.534 64.8459,-305.97"/>
<text text-anchor="middle" x="587" y="-612.282" font-family="FreeSans" font-size="10.00"> inverseWorld_</text>
</g>
<!-- Node7&#45;&gt;Node2 -->
<g id="edge18" class="edge"><title>Node7&#45;&gt;Node2</title>
<path fill="none" stroke="#9a32cd" stroke-dasharray="5,2" d="M1084.41,-395.403C1042.43,-389.115 983.922,-380.351 942.081,-374.083"/>
<polygon fill="#9a32cd" stroke="#9a32cd" points="1084.03,-398.885 1094.43,-396.905 1085.06,-391.962 1084.03,-398.885"/>
<text text-anchor="middle" x="1008" y="-392.282" font-family="FreeSans" font-size="10.00"> zone_</text>
</g>
<!-- Node8 -->
<g id="node18" class="node"><title>Node8</title>
<a xlink:href="class_urho3_d_1_1_weak_ptr.html" target="_top" xlink:title="Urho3D::WeakPtr\&lt; Urho3D\l::Zone \&gt;">
<polygon fill="none" stroke="red" points="1358,-386.282 1358,-420.282 1504,-420.282 1504,-386.282 1358,-386.282"/>
<text text-anchor="start" x="1366" y="-407.282" font-family="FreeSans" font-size="10.00">Urho3D::WeakPtr&lt; Urho3D</text>
<text text-anchor="middle" x="1431" y="-394.282" font-family="FreeSans" font-size="10.00">::Zone &gt;</text>
</a>
</g>
<!-- Node7&#45;&gt;Node8 -->
<g id="edge24" class="edge"><title>Node7&#45;&gt;Node8</title>
<path fill="none" stroke="#9a32cd" stroke-dasharray="5,2" d="M1190.1,-409.536C1201.9,-410.679 1214.36,-411.695 1226,-412.282 1276.6,-414.834 1289.39,-414.778 1340,-412.282 1345.71,-412 1351.61,-411.62 1357.54,-411.174"/>
<polygon fill="#9a32cd" stroke="#9a32cd" points="1190.24,-406.032 1179.94,-408.506 1189.53,-412.996 1190.24,-406.032"/>
<text text-anchor="middle" x="1283" y="-417.282" font-family="FreeSans" font-size="10.00"> ptr_</text>
</g>
<!-- Node8&#45;&gt;Node7 -->
<g id="edge22" class="edge"><title>Node8&#45;&gt;Node7</title>
<path fill="none" stroke="#9a32cd" stroke-dasharray="5,2" d="M1378.83,-382.941C1366.3,-378.938 1352.83,-375.342 1340,-373.282 1289.97,-365.248 1276,-365.082 1226,-373.282 1203.47,-376.976 1178.97,-385.602 1161.38,-392.661"/>
<polygon fill="#9a32cd" stroke="#9a32cd" points="1378.06,-386.371 1388.65,-386.217 1380.27,-379.732 1378.06,-386.371"/>
<text text-anchor="start" x="1226.5" y="-403.282" font-family="FreeSans" font-size="10.00"> lastAmbientEndZone</text>
<text text-anchor="middle" x="1283" y="-390.282" font-family="FreeSans" font-size="10.00">_</text>
<text text-anchor="middle" x="1283" y="-377.282" font-family="FreeSans" font-size="10.00">lastAmbientStartZone_</text>
</g>
<!-- Node9 -->
<g id="node21" class="node"><title>Node9</title>
<a xlink:href="class_urho3_d_1_1_shared_ptr.html" target="_top" xlink:title="Urho3D::SharedPtr\&lt;\l Urho3D::Texture \&gt;">
<polygon fill="none" stroke="black" points="252,-715.282 252,-749.282 368,-749.282 368,-715.282 252,-715.282"/>
<text text-anchor="start" x="260" y="-736.282" font-family="FreeSans" font-size="10.00">Urho3D::SharedPtr&lt;</text>
<text text-anchor="middle" x="310" y="-723.282" font-family="FreeSans" font-size="10.00"> Urho3D::Texture &gt;</text>
</a>
</g>
<!-- Node9&#45;&gt;Node1 -->
<g id="edge92" class="edge"><title>Node9&#45;&gt;Node1</title>
<path fill="none" stroke="#9a32cd" stroke-dasharray="5,2" d="M329.601,-706.949C384.985,-635.37 541.067,-433.646 578.741,-384.956"/>
<polygon fill="#9a32cd" stroke="#9a32cd" points="326.712,-704.964 323.36,-715.015 332.248,-709.247 326.712,-704.964"/>
<text text-anchor="middle" x="453" y="-622.282" font-family="FreeSans" font-size="10.00"> shapeTexture_</text>
<text text-anchor="middle" x="453" y="-609.282" font-family="FreeSans" font-size="10.00">rampTexture_</text>
</g>
<!-- Node9&#45;&gt;Node7 -->
<g id="edge26" class="edge"><title>Node9&#45;&gt;Node7</title>
<path fill="none" stroke="#9a32cd" stroke-dasharray="5,2" d="M378.341,-732.474C532.794,-732.484 899.315,-729.973 950,-706.282 1075.16,-647.778 1124.31,-460.477 1134.78,-413.863"/>
<polygon fill="#9a32cd" stroke="#9a32cd" points="378.038,-728.974 368.037,-732.469 378.035,-735.974 378.038,-728.974"/>
<text text-anchor="middle" x="743" y="-732.282" font-family="FreeSans" font-size="10.00"> zoneTexture_</text>
</g>
<!-- Node10 -->
<g id="node23" class="node"><title>Node10</title>
<a xlink:href="class_urho3_d_1_1_texture.html" target="_top" xlink:title="Base class for texture resources.">
<polygon fill="none" stroke="red" points="540,-743.782 540,-764.782 634,-764.782 634,-743.782 540,-743.782"/>
<text text-anchor="middle" x="587" y="-751.782" font-family="FreeSans" font-size="10.00">Urho3D::Texture</text>
</a>
</g>
<!-- Node9&#45;&gt;Node10 -->
<g id="edge30" class="edge"><title>Node9&#45;&gt;Node10</title>
<path fill="none" stroke="#9a32cd" stroke-dasharray="5,2" d="M378.676,-736.403C414.805,-738.717 459.824,-741.83 500,-745.282 512.86,-746.386 526.771,-747.75 539.618,-749.078"/>
<polygon fill="#9a32cd" stroke="#9a32cd" points="378.451,-732.881 368.25,-735.741 378.008,-739.867 378.451,-732.881"/>
<text text-anchor="middle" x="453" y="-749.282" font-family="FreeSans" font-size="10.00"> backupTexture_</text>
</g>
<!-- Node10&#45;&gt;Node9 -->
<g id="edge28" class="edge"><title>Node10&#45;&gt;Node9</title>
<path fill="none" stroke="#9a32cd" stroke-dasharray="5,2" d="M529.608,-762.505C493.865,-766.224 447.036,-768.544 406,-762.282 388.911,-759.674 370.682,-754.596 354.751,-749.349"/>
<polygon fill="#9a32cd" stroke="#9a32cd" points="530.299,-765.95 539.853,-761.37 529.528,-758.993 530.299,-765.95"/>
<text text-anchor="middle" x="453" y="-769.282" font-family="FreeSans" font-size="10.00"> ptr_</text>
</g>
<!-- Node23 -->
<g id="node62" class="node"><title>Node23</title>
<a xlink:href="class_urho3_d_1_1_texture2_d.html" target="_top" xlink:title="2D texture resource.">
<polygon fill="none" stroke="red" points="836.5,-777.782 836.5,-798.782 943.5,-798.782 943.5,-777.782 836.5,-777.782"/>
<text text-anchor="middle" x="890" y="-785.782" font-family="FreeSans" font-size="10.00">Urho3D::Texture2D</text>
</a>
</g>
<!-- Node10&#45;&gt;Node23 -->
<g id="edge82" class="edge"><title>Node10&#45;&gt;Node23</title>
<path fill="none" stroke="midnightblue" d="M643.991,-760.677C699.251,-766.877 782.442,-776.212 836.49,-782.277"/>
<polygon fill="midnightblue" stroke="midnightblue" points="644.339,-757.194 634.011,-759.557 643.559,-764.15 644.339,-757.194"/>
</g>
<!-- Node11 -->
<g id="node26" class="node"><title>Node11</title>
<a xlink:href="class_urho3_d_1_1_color.html" target="_top" xlink:title="RGBA color.">
<polygon fill="none" stroke="black" points="268,-397.782 268,-418.782 352,-418.782 352,-397.782 268,-397.782"/>
<text text-anchor="middle" x="310" y="-405.782" font-family="FreeSans" font-size="10.00">Urho3D::Color</text>
</a>
</g>
<!-- Node11&#45;&gt;Node1 -->
<g id="edge94" class="edge"><title>Node11&#45;&gt;Node1</title>
<path fill="none" stroke="#9a32cd" stroke-dasharray="5,2" d="M362.299,-401.862C415.403,-395.344 496.572,-385.381 545.441,-379.383"/>
<polygon fill="#9a32cd" stroke="#9a32cd" points="361.569,-398.425 352.07,-403.118 362.422,-405.373 361.569,-398.425"/>
<text text-anchor="middle" x="453" y="-400.282" font-family="FreeSans" font-size="10.00"> color_</text>
</g>
<!-- Node11&#45;&gt;Node7 -->
<g id="edge38" class="edge"><title>Node11&#45;&gt;Node7</title>
<path fill="none" stroke="#9a32cd" stroke-dasharray="5,2" d="M362.147,-411.492C376.364,-412.233 391.769,-412.911 406,-413.282 447.764,-414.368 458.224,-413.61 500,-413.282 723.69,-411.526 991.523,-406.303 1094.13,-404.187"/>
<polygon fill="#9a32cd" stroke="#9a32cd" points="362.213,-407.991 352.039,-410.946 361.835,-414.981 362.213,-407.991"/>
<text text-anchor="middle" x="743" y="-454.282" font-family="FreeSans" font-size="10.00"> ambientEndColor_</text>
<text text-anchor="middle" x="743" y="-441.282" font-family="FreeSans" font-size="10.00">fogColor_</text>
<text text-anchor="middle" x="743" y="-428.282" font-family="FreeSans" font-size="10.00">ambientColor_</text>
<text text-anchor="middle" x="743" y="-415.282" font-family="FreeSans" font-size="10.00">ambientStartColor_</text>
</g>
<!-- Node11&#45;&gt;Node10 -->
<g id="edge32" class="edge"><title>Node11&#45;&gt;Node10</title>
<path fill="none" stroke="#9a32cd" stroke-dasharray="5,2" d="M312.504,-429.018C319.237,-476.474 341.789,-594.341 406,-665.282 427.971,-689.556 514.423,-725.856 559.429,-743.661"/>
<polygon fill="#9a32cd" stroke="#9a32cd" points="315.963,-428.475 311.176,-419.023 309.023,-429.397 315.963,-428.475"/>
<text text-anchor="middle" x="453" y="-721.282" font-family="FreeSans" font-size="10.00"> borderColor_</text>
</g>
<!-- Node11&#45;&gt;Node11 -->
<g id="edge34" class="edge"><title>Node11&#45;&gt;Node11</title>
<path fill="none" stroke="#9a32cd" stroke-dasharray="5,2" d="M284.804,-428.337C286.456,-433.446 294.855,-437.282 310,-437.282 333.641,-437.282 340.844,-427.935 331.609,-418.989"/>
<polygon fill="#9a32cd" stroke="#9a32cd" points="288.076,-429.58 288.391,-418.989 281.54,-427.071 288.076,-429.58"/>
<text text-anchor="middle" x="310" y="-571.282" font-family="FreeSans" font-size="10.00"> CYAN</text>
<text text-anchor="middle" x="310" y="-558.282" font-family="FreeSans" font-size="10.00">GRAY</text>
<text text-anchor="middle" x="310" y="-545.282" font-family="FreeSans" font-size="10.00">YELLOW</text>
<text text-anchor="middle" x="310" y="-532.282" font-family="FreeSans" font-size="10.00">MAGENTA</text>
<text text-anchor="middle" x="310" y="-519.282" font-family="FreeSans" font-size="10.00">WHITE</text>
<text text-anchor="middle" x="310" y="-506.282" font-family="FreeSans" font-size="10.00">TRANSPARENT</text>
<text text-anchor="middle" x="310" y="-493.282" font-family="FreeSans" font-size="10.00">BLUE</text>
<text text-anchor="middle" x="310" y="-480.282" font-family="FreeSans" font-size="10.00">BLACK</text>
<text text-anchor="middle" x="310" y="-467.282" font-family="FreeSans" font-size="10.00">RED</text>
<text text-anchor="middle" x="310" y="-454.282" font-family="FreeSans" font-size="10.00">GREEN</text>
<text text-anchor="middle" x="310" y="-441.282" font-family="FreeSans" font-size="10.00">...</text>
</g>
<!-- Node12 -->
<g id="node29" class="node"><title>Node12</title>
<a xlink:href="class_urho3_d_1_1_bounding_box.html" target="_top" xlink:title="Three&#45;dimensional axis&#45;aligned bounding box.">
<polygon fill="none" stroke="red" points="249,-44.7816 249,-65.7816 371,-65.7816 371,-44.7816 249,-44.7816"/>
<text text-anchor="middle" x="310" y="-52.7816" font-family="FreeSans" font-size="10.00">Urho3D::BoundingBox</text>
</a>
</g>
<!-- Node12&#45;&gt;Node2 -->
<g id="edge56" class="edge"><title>Node12&#45;&gt;Node2</title>
<path fill="none" stroke="#9a32cd" stroke-dasharray="5,2" d="M375.36,-43.1935C484.24,-27.2644 701.665,-14.1653 812,-137.282 872.265,-204.528 886.32,-320.344 889.276,-355.716"/>
<polygon fill="#9a32cd" stroke="#9a32cd" points="374.531,-39.7791 365.169,-44.7394 375.581,-46.6999 374.531,-39.7791"/>
<text text-anchor="middle" x="587" y="-66.2816" font-family="FreeSans" font-size="10.00"> worldBoundingBox_</text>
<text text-anchor="middle" x="587" y="-53.2816" font-family="FreeSans" font-size="10.00">boundingBox_</text>
</g>
<!-- Node12&#45;&gt;Node7 -->
<g id="edge36" class="edge"><title>Node12&#45;&gt;Node7</title>
<path fill="none" stroke="#9a32cd" stroke-dasharray="5,2" d="M351.271,-41.7699C440.675,-15.0244 656.683,35.7986 812,-40.2816 983.3,-124.191 1104.99,-341.932 1131.55,-392.625"/>
<polygon fill="#9a32cd" stroke="#9a32cd" points="350.054,-38.482 341.509,-44.7463 352.095,-45.1777 350.054,-38.482"/>
<text text-anchor="middle" x="743" y="-44.2816" font-family="FreeSans" font-size="10.00"> lastWorldBoundingBox_</text>
</g>
<!-- Node17 -->
<g id="node45" class="node"><title>Node17</title>
<a xlink:href="class_urho3_d_1_1_octant.html" target="_top" xlink:title="Octree octant">
<polygon fill="none" stroke="red" points="541,-99.7816 541,-120.782 633,-120.782 633,-99.7816 541,-99.7816"/>
<text text-anchor="middle" x="587" y="-107.782" font-family="FreeSans" font-size="10.00">Urho3D::Octant</text>
</a>
</g>
<!-- Node12&#45;&gt;Node17 -->
<g id="edge60" class="edge"><title>Node12&#45;&gt;Node17</title>
<path fill="none" stroke="#9a32cd" stroke-dasharray="5,2" d="M381.675,-67.0661C417.34,-73.1945 461.048,-81.1029 500,-89.2816 514.902,-92.4106 531.144,-96.2214 545.517,-99.7335"/>
<polygon fill="#9a32cd" stroke="#9a32cd" points="381.807,-63.5381 371.361,-65.3048 380.629,-70.4382 381.807,-63.5381"/>
<text text-anchor="middle" x="453" y="-106.282" font-family="FreeSans" font-size="10.00"> cullingBox_</text>
<text text-anchor="middle" x="453" y="-93.2816" font-family="FreeSans" font-size="10.00">worldBoundingBox_</text>
</g>
<!-- Node13 -->
<g id="node33" class="node"><title>Node13</title>
<a xlink:href="class_urho3_d_1_1_p_o_d_vector.html" target="_top" xlink:title="Urho3D::PODVector\&lt;\l Urho3D::Light * \&gt;">
<polygon fill="none" stroke="black" points="527.5,-887.282 527.5,-921.282 646.5,-921.282 646.5,-887.282 527.5,-887.282"/>
<text text-anchor="start" x="535.5" y="-908.282" font-family="FreeSans" font-size="10.00">Urho3D::PODVector&lt;</text>
<text text-anchor="middle" x="587" y="-895.282" font-family="FreeSans" font-size="10.00"> Urho3D::Light * &gt;</text>
</a>
</g>
<!-- Node13&#45;&gt;Node2 -->
<g id="edge42" class="edge"><title>Node13&#45;&gt;Node2</title>
<path fill="none" stroke="#9a32cd" stroke-dasharray="5,2" d="M654.203,-880.492C654.825,-879.777 655.425,-879.041 656,-878.282 684.018,-841.302 653.626,-711.964 674,-670.282 710.737,-595.125 763.389,-610.363 812,-542.282 852.202,-485.978 878.388,-405.655 886.94,-376.969"/>
<polygon fill="#9a32cd" stroke="#9a32cd" points="651.727,-878.014 646.742,-887.362 656.469,-883.163 651.727,-878.014"/>
<text text-anchor="middle" x="743" y="-687.282" font-family="FreeSans" font-size="10.00"> vertexLights_</text>
<text text-anchor="middle" x="743" y="-674.282" font-family="FreeSans" font-size="10.00">lights_</text>
</g>
<!-- Node13&#45;&gt;Node19 -->
<g id="edge72" class="edge"><title>Node13&#45;&gt;Node19</title>
<path fill="none" stroke="#9a32cd" stroke-dasharray="5,2" d="M656.887,-895.296C705.386,-889.36 771.529,-881.858 830,-877.282 910.718,-870.964 1003.61,-867.217 1065.89,-865.212"/>
<polygon fill="#9a32cd" stroke="#9a32cd" points="656.311,-891.84 646.815,-896.537 657.168,-898.788 656.311,-891.84"/>
<text text-anchor="middle" x="890" y="-881.282" font-family="FreeSans" font-size="10.00"> vertexLights_</text>
</g>
<!-- Node14 -->
<g id="node35" class="node"><title>Node14</title>
<a xlink:href="class_urho3_d_1_1_vector_base.html" target="_top" xlink:title="Vector base class.">
<polygon fill="none" stroke="black" points="253,-893.782 253,-914.782 367,-914.782 367,-893.782 253,-893.782"/>
<text text-anchor="middle" x="310" y="-901.782" font-family="FreeSans" font-size="10.00">Urho3D::VectorBase</text>
</a>
</g>
<!-- Node14&#45;&gt;Node13 -->
<g id="edge44" class="edge"><title>Node14&#45;&gt;Node13</title>
<path fill="none" stroke="midnightblue" d="M377.185,-904.282C422.955,-904.282 483.014,-904.282 527.142,-904.282"/>
<polygon fill="midnightblue" stroke="midnightblue" points="377.059,-900.782 367.059,-904.282 377.059,-907.782 377.059,-900.782"/>
</g>
<!-- Node15 -->
<g id="node37" class="node"><title>Node15</title>
<a xlink:href="class_urho3_d_1_1_p_o_d_vector.html" target="_top" xlink:title="Urho3D::PODVector\&lt;\l Urho3D::Camera * \&gt;">
<polygon fill="none" stroke="black" points="527,-835.282 527,-869.282 647,-869.282 647,-835.282 527,-835.282"/>
<text text-anchor="start" x="535" y="-856.282" font-family="FreeSans" font-size="10.00">Urho3D::PODVector&lt;</text>
<text text-anchor="middle" x="587" y="-843.282" font-family="FreeSans" font-size="10.00"> Urho3D::Camera * &gt;</text>
</a>
</g>
<!-- Node14&#45;&gt;Node15 -->
<g id="edge48" class="edge"><title>Node14&#45;&gt;Node15</title>
<path fill="none" stroke="midnightblue" d="M376.17,-891.86C421.915,-883.272 482.293,-871.938 526.708,-863.6"/>
<polygon fill="midnightblue" stroke="midnightblue" points="375.238,-888.474 366.055,-893.759 376.529,-895.353 375.238,-888.474"/>
</g>
<!-- Node16 -->
<g id="node40" class="node"><title>Node16</title>
<a xlink:href="class_urho3_d_1_1_vector.html" target="_top" xlink:title="Urho3D::Vector\&lt; Urho3D\l::SourceBatch \&gt;">
<polygon fill="none" stroke="black" points="518,-783.282 518,-817.282 656,-817.282 656,-783.282 518,-783.282"/>
<text text-anchor="start" x="526" y="-804.282" font-family="FreeSans" font-size="10.00">Urho3D::Vector&lt; Urho3D</text>
<text text-anchor="middle" x="587" y="-791.282" font-family="FreeSans" font-size="10.00">::SourceBatch &gt;</text>
</a>
</g>
<!-- Node14&#45;&gt;Node16 -->
<g id="edge52" class="edge"><title>Node14&#45;&gt;Node16</title>
<path fill="none" stroke="midnightblue" d="M343.691,-889.712C362.019,-881.92 385.146,-872.306 406,-864.282 449.705,-847.464 499.956,-829.829 536.404,-817.339"/>
<polygon fill="midnightblue" stroke="midnightblue" points="342.136,-886.57 334.315,-893.716 344.886,-893.007 342.136,-886.57"/>
</g>
<!-- Node20 -->
<g id="node53" class="node"><title>Node20</title>
<a xlink:href="class_urho3_d_1_1_vector.html" target="_top" xlink:title="Urho3D::Vector\&lt; Urho3D\l::ShadowBatchQueue \&gt;">
<polygon fill="none" stroke="black" points="674,-984.282 674,-1018.28 812,-1018.28 812,-984.282 674,-984.282"/>
<text text-anchor="start" x="682" y="-1005.28" font-family="FreeSans" font-size="10.00">Urho3D::Vector&lt; Urho3D</text>
<text text-anchor="middle" x="743" y="-992.282" font-family="FreeSans" font-size="10.00">::ShadowBatchQueue &gt;</text>
</a>
</g>
<!-- Node14&#45;&gt;Node20 -->
<g id="edge70" class="edge"><title>Node14&#45;&gt;Node20</title>
<path fill="none" stroke="midnightblue" d="M343.65,-918.958C361.966,-926.781 385.095,-936.39 406,-944.282 455.178,-962.845 466.543,-971.547 518,-982.282 569.615,-993.05 629.102,-997.747 673.941,-999.781"/>
<polygon fill="midnightblue" stroke="midnightblue" points="344.851,-915.665 334.281,-914.934 342.088,-922.097 344.851,-915.665"/>
</g>
<!-- Node22 -->
<g id="node59" class="node"><title>Node22</title>
<a xlink:href="class_urho3_d_1_1_p_o_d_vector.html" target="_top" xlink:title="Urho3D::PODVector\&lt;\l Urho3D::Batch \&gt;">
<polygon fill="none" stroke="black" points="527.5,-939.282 527.5,-973.282 646.5,-973.282 646.5,-939.282 527.5,-939.282"/>
<text text-anchor="start" x="535.5" y="-960.282" font-family="FreeSans" font-size="10.00">Urho3D::PODVector&lt;</text>
<text text-anchor="middle" x="587" y="-947.282" font-family="FreeSans" font-size="10.00"> Urho3D::Batch &gt;</text>
</a>
</g>
<!-- Node14&#45;&gt;Node22 -->
<g id="edge78" class="edge"><title>Node14&#45;&gt;Node22</title>
<path fill="none" stroke="midnightblue" d="M375.916,-916.656C421.858,-925.28 482.652,-936.693 527.194,-945.054"/>
<polygon fill="midnightblue" stroke="midnightblue" points="376.529,-913.21 366.055,-914.805 375.238,-920.09 376.529,-913.21"/>
</g>
<!-- Node15&#45;&gt;Node2 -->
<g id="edge46" class="edge"><title>Node15&#45;&gt;Node2</title>
<path fill="none" stroke="#9a32cd" stroke-dasharray="5,2" d="M654.538,-828.147C655.042,-827.541 655.53,-826.919 656,-826.282 695.247,-773.068 629.754,-578.417 674,-529.282 715.608,-483.075 761.171,-542.096 812,-506.282 858.626,-473.428 880.595,-403.417 887.498,-376.825"/>
<polygon fill="#9a32cd" stroke="#9a32cd" points="651.962,-825.768 647.148,-835.206 656.797,-830.83 651.962,-825.768"/>
<text text-anchor="middle" x="743" y="-533.282" font-family="FreeSans" font-size="10.00"> viewCameras_</text>
</g>
<!-- Node16&#45;&gt;Node2 -->
<g id="edge50" class="edge"><title>Node16&#45;&gt;Node2</title>
<path fill="none" stroke="#9a32cd" stroke-dasharray="5,2" d="M654.535,-776.145C655.04,-775.539 655.529,-774.918 656,-774.282 693.227,-723.988 632.049,-539.708 674,-493.282 715.688,-447.147 758.868,-502.581 812,-470.282 849.799,-447.303 875.441,-398.547 885.384,-376.956"/>
<polygon fill="#9a32cd" stroke="#9a32cd" points="651.96,-773.764 647.135,-783.196 656.789,-778.832 651.96,-773.764"/>
<text text-anchor="middle" x="743" y="-497.282" font-family="FreeSans" font-size="10.00"> batches_</text>
</g>
<!-- Node17&#45;&gt;Node2 -->
<g id="edge58" class="edge"><title>Node17&#45;&gt;Node2</title>
<path fill="none" stroke="#9a32cd" stroke-dasharray="5,2" d="M630.119,-124.177C679.088,-141.732 759.041,-175.983 812,-227.282 852.149,-266.172 877.502,-330.233 886.412,-355.528"/>
<polygon fill="#9a32cd" stroke="#9a32cd" points="631.053,-120.796 620.458,-120.787 628.735,-127.401 631.053,-120.796"/>
<text text-anchor="middle" x="743" y="-231.282" font-family="FreeSans" font-size="10.00"> octant_</text>
</g>
<!-- Node17&#45;&gt;Node17 -->
<g id="edge62" class="edge"><title>Node17&#45;&gt;Node17</title>
<path fill="none" stroke="#9a32cd" stroke-dasharray="5,2" d="M562.305,-130.708C564.21,-135.63 572.442,-139.282 587,-139.282 610.293,-139.282 617.39,-129.935 608.291,-120.989"/>
<polygon fill="#9a32cd" stroke="#9a32cd" points="565.707,-131.584 565.709,-120.989 559.1,-129.271 565.707,-131.584"/>
<text text-anchor="middle" x="587" y="-156.282" font-family="FreeSans" font-size="10.00"> parent_</text>
<text text-anchor="middle" x="587" y="-143.282" font-family="FreeSans" font-size="10.00">children_</text>
</g>
<!-- Node18 -->
<g id="node49" class="node"><title>Node18</title>
<a xlink:href="struct_urho3_d_1_1_cascade_parameters.html" target="_top" xlink:title="Cascaded shadow map parameters.">
<polygon fill="none" stroke="black" points="232,-317.782 232,-338.782 388,-338.782 388,-317.782 232,-317.782"/>
<text text-anchor="middle" x="310" y="-325.782" font-family="FreeSans" font-size="10.00">Urho3D::CascadeParameters</text>
</a>
</g>
<!-- Node18&#45;&gt;Node1 -->
<g id="edge64" class="edge"><title>Node18&#45;&gt;Node1</title>
<path fill="none" stroke="#9a32cd" stroke-dasharray="5,2" d="M398.504,-332.665C430.688,-335.308 467.201,-339.533 500,-346.282 520.36,-350.47 542.664,-357.704 559.591,-363.77"/>
<polygon fill="#9a32cd" stroke="#9a32cd" points="398.459,-329.151 388.217,-331.862 397.914,-336.13 398.459,-329.151"/>
<text text-anchor="middle" x="453" y="-350.282" font-family="FreeSans" font-size="10.00"> shadowCascade_</text>
</g>
<!-- Node19&#45;&gt;Node1 -->
<g id="edge66" class="edge"><title>Node19&#45;&gt;Node1</title>
<path fill="none" stroke="#9a32cd" stroke-dasharray="5,2" d="M1111.84,-847.196C1094.14,-836.014 1069.82,-820.911 1048,-808.282 1005.14,-783.478 994.59,-776.815 950,-755.282 889.934,-726.274 873.891,-721.159 812,-696.282 751.186,-671.837 718.614,-692.297 674,-644.282 654.759,-623.574 664.432,-610.262 656,-583.282 632.178,-507.056 601.263,-415.99 590.714,-385.121"/>
<polygon fill="#9a32cd" stroke="#9a32cd" points="1110.12,-850.251 1120.44,-852.651 1113.87,-844.34 1110.12,-850.251"/>
<text text-anchor="middle" x="890" y="-759.282" font-family="FreeSans" font-size="10.00"> lightQueue_</text>
</g>
<!-- Node20&#45;&gt;Node19 -->
<g id="edge68" class="edge"><title>Node20&#45;&gt;Node19</title>
<path fill="none" stroke="#9a32cd" stroke-dasharray="5,2" d="M822.356,-1011.89C886.958,-1016.72 978.501,-1014.64 1048,-977.282 1092.23,-953.505 1121.67,-897.299 1132.44,-873.847"/>
<polygon fill="#9a32cd" stroke="#9a32cd" points="822.48,-1008.39 812.227,-1011.06 821.908,-1015.37 822.48,-1008.39"/>
<text text-anchor="middle" x="890" y="-1017.28" font-family="FreeSans" font-size="10.00"> shadowSplits_</text>
</g>
<!-- Node21 -->
<g id="node57" class="node"><title>Node21</title>
<a xlink:href="struct_urho3_d_1_1_batch_queue.html" target="_top" xlink:title="Queue that contains both instanced and non&#45;instanced draw calls.">
<polygon fill="none" stroke="red" points="830.5,-943.782 830.5,-964.782 949.5,-964.782 949.5,-943.782 830.5,-943.782"/>
<text text-anchor="middle" x="890" y="-951.782" font-family="FreeSans" font-size="10.00">Urho3D::BatchQueue</text>
</a>
</g>
<!-- Node21&#45;&gt;Node19 -->
<g id="edge74" class="edge"><title>Node21&#45;&gt;Node19</title>
<path fill="none" stroke="#9a32cd" stroke-dasharray="5,2" d="M959.713,-948.629C987.921,-944.644 1020.3,-937.853 1048,-926.282 1078.92,-913.366 1109.63,-888.194 1125.64,-873.888"/>
<polygon fill="#9a32cd" stroke="#9a32cd" points="958.981,-945.195 949.525,-949.974 959.897,-952.135 958.981,-945.195"/>
<text text-anchor="middle" x="1008" y="-964.282" font-family="FreeSans" font-size="10.00"> litBaseBatches_</text>
<text text-anchor="middle" x="1008" y="-951.282" font-family="FreeSans" font-size="10.00">litBatches_</text>
</g>
<!-- Node22&#45;&gt;Node19 -->
<g id="edge84" class="edge"><title>Node22&#45;&gt;Node19</title>
<path fill="none" stroke="#9a32cd" stroke-dasharray="5,2" d="M656.933,-945.757C747.384,-931.949 909.741,-906.5 1048,-881.282 1060.56,-878.99 1074.08,-876.347 1086.7,-873.804"/>
<polygon fill="#9a32cd" stroke="#9a32cd" points="656.16,-942.334 646.801,-947.301 657.214,-949.254 656.16,-942.334"/>
<text text-anchor="middle" x="890" y="-922.282" font-family="FreeSans" font-size="10.00"> volumeBatches_</text>
</g>
<!-- Node22&#45;&gt;Node21 -->
<g id="edge76" class="edge"><title>Node22&#45;&gt;Node21</title>
<path fill="none" stroke="#9a32cd" stroke-dasharray="5,2" d="M656.744,-955.821C709.263,-955.475 780.495,-955.004 830.376,-954.675"/>
<polygon fill="#9a32cd" stroke="#9a32cd" points="656.478,-952.323 646.502,-955.889 656.524,-959.323 656.478,-952.323"/>
<text text-anchor="middle" x="743" y="-959.282" font-family="FreeSans" font-size="10.00"> batches_</text>
</g>
<!-- Node23&#45;&gt;Node19 -->
<g id="edge80" class="edge"><title>Node23&#45;&gt;Node19</title>
<path fill="none" stroke="#9a32cd" stroke-dasharray="5,2" d="M934.43,-801.772C982.539,-816.381 1058.27,-839.377 1102.23,-852.724"/>
<polygon fill="#9a32cd" stroke="#9a32cd" points="935.19,-798.346 924.604,-798.789 933.156,-805.044 935.19,-798.346"/>
<text text-anchor="middle" x="1008" y="-838.282" font-family="FreeSans" font-size="10.00"> shadowMap_</text>
</g>
<!-- Node24 -->
<g id="node67" class="node"><title>Node24</title>
<a xlink:href="struct_urho3_d_1_1_focus_parameters.html" target="_top" xlink:title="Shadow map focusing parameters.">
<polygon fill="none" stroke="black" points="238.5,-228.782 238.5,-249.782 381.5,-249.782 381.5,-228.782 238.5,-228.782"/>
<text text-anchor="middle" x="310" y="-236.782" font-family="FreeSans" font-size="10.00">Urho3D::FocusParameters</text>
</a>
</g>
<!-- Node24&#45;&gt;Node1 -->
<g id="edge88" class="edge"><title>Node24&#45;&gt;Node1</title>
<path fill="none" stroke="#9a32cd" stroke-dasharray="5,2" d="M392.062,-233.811C427.278,-234.911 467.666,-241.025 500,-259.282 543.6,-283.899 572.176,-340.242 582.591,-363.714"/>
<polygon fill="#9a32cd" stroke="#9a32cd" points="391.859,-230.307 381.797,-233.625 391.732,-237.306 391.859,-230.307"/>
<text text-anchor="middle" x="453" y="-263.282" font-family="FreeSans" font-size="10.00"> shadowFocus_</text>
</g>
<!-- Node25 -->
<g id="node69" class="node"><title>Node25</title>
<a xlink:href="struct_urho3_d_1_1_bias_parameters.html" target="_top" xlink:title="Shadow depth bias parameters.">
<polygon fill="none" stroke="black" points="242.5,-357.782 242.5,-378.782 377.5,-378.782 377.5,-357.782 242.5,-357.782"/>
<text text-anchor="middle" x="310" y="-365.782" font-family="FreeSans" font-size="10.00">Urho3D::BiasParameters</text>
</a>
</g>
<!-- Node25&#45;&gt;Node1 -->
<g id="edge90" class="edge"><title>Node25&#45;&gt;Node1</title>
<path fill="none" stroke="#9a32cd" stroke-dasharray="5,2" d="M388.184,-364.681C422.509,-363.711 463.275,-363.387 500,-365.282 514.861,-366.048 531.094,-367.547 545.47,-369.105"/>
<polygon fill="#9a32cd" stroke="#9a32cd" points="387.638,-361.196 377.75,-365.001 387.852,-368.193 387.638,-361.196"/>
<text text-anchor="middle" x="453" y="-369.282" font-family="FreeSans" font-size="10.00"> shadowBias_</text>
</g>
</g>
</svg>
