<?xml version="1.0" encoding="UTF-8" standalone="no"?>
<!DOCTYPE svg PUBLIC "-//W3C//DTD SVG 1.1//EN"
 "http://www.w3.org/Graphics/SVG/1.1/DTD/svg11.dtd">
<!-- Generated by graphviz version 2.26.3 (20100126.1600)
 -->
<!-- Title: Urho3D::AnimationSet2D Pages: 1 -->
<!--zoomable 900 -->
<svg id="main" version="1.1" xmlns="http://www.w3.org/2000/svg" xmlns:xlink="http://www.w3.org/1999/xlink" xml:space="preserve" onload="init(evt)">
        <defs>
                <circle id="rim" cx="0" cy="0" r="7"/>
                <circle id="rim2" cx="0" cy="0" r="3.5"/>
                <g id="zoomPlus">
                        <use xlink:href="#rim" fill="#404040">
                                <set attributeName="fill" to="#808080" begin="zoomplus.mouseover" end="zoomplus.mouseout"/>
                        </use>
                        <path d="M-4,0h8M0,-4v8" fill="none" stroke="white" stroke-width="1.5" pointer-events="none"/>
                </g>
                <g id="zoomMin">
                        <use xlink:href="#rim" fill="#404040">
                                <set attributeName="fill" to="#808080" begin="zoomminus.mouseover" end="zoomminus.mouseout"/>
                        </use>
                        <path d="M-4,0h8" fill="none" stroke="white" stroke-width="1.5" pointer-events="none"/>
                </g>
                <g id="dirArrow">
                        <path fill="none" stroke="white" stroke-width="1.5" d="M0,-3.0v7 M-2.5,-0.5L0,-3.0L2.5,-0.5"/>
                </g>
               <g id="resetDef">
                       <use xlink:href="#rim2" fill="#404040">
                               <set attributeName="fill" to="#808080" begin="reset.mouseover" end="reset.mouseout"/>
                       </use>
               </g>
        </defs>

<script type="text/javascript">
var viewWidth = 1708;
var viewHeight = 900;
var sectionId = 'dynsection-1';
</script>
<script xlink:href="svgpan.js"/>
<svg id="graph" class="graph">
<g id="viewport">
<title>Urho3D::AnimationSet2D</title>
<!-- Node1 -->
<g id="node1" class="node"><title>Node1</title>
<polygon fill="#bfbfbf" stroke="black" points="1562,-265.5 1562,-286.5 1700,-286.5 1700,-265.5 1562,-265.5"/>
<text text-anchor="middle" x="1631" y="-273.5" font-family="FreeSans" font-size="10.00">Urho3D::AnimationSet2D</text>
</g>
<!-- Node2 -->
<g id="node2" class="node"><title>Node2</title>
<a xlink:href="class_urho3_d_1_1_resource.html" target="_top" xlink:title="Base class for resources.">
<polygon fill="none" stroke="black" points="762.5,-44.5 762.5,-65.5 865.5,-65.5 865.5,-44.5 762.5,-44.5"/>
<text text-anchor="middle" x="814" y="-52.5" font-family="FreeSans" font-size="10.00">Urho3D::Resource</text>
</a>
</g>
<!-- Node2&#45;&gt;Node1 -->
<g id="edge2" class="edge"><title>Node2&#45;&gt;Node1</title>
<path fill="none" stroke="midnightblue" d="M875.783,-55.598C931.369,-57.2255 1014.98,-62.3845 1086,-78 1296.41,-124.26 1535.88,-231.54 1608.8,-265.496"/>
<polygon fill="midnightblue" stroke="midnightblue" points="875.828,-52.0981 865.739,-55.3335 875.643,-59.0956 875.828,-52.0981"/>
</g>
<!-- Node19 -->
<g id="node45" class="node"><title>Node19</title>
<a xlink:href="class_urho3_d_1_1_sprite2_d.html" target="_top" xlink:title="Sprite.">
<polygon fill="none" stroke="black" points="1126.5,-265.5 1126.5,-286.5 1227.5,-286.5 1227.5,-265.5 1126.5,-265.5"/>
<text text-anchor="middle" x="1177" y="-273.5" font-family="FreeSans" font-size="10.00">Urho3D::Sprite2D</text>
</a>
</g>
<!-- Node2&#45;&gt;Node19 -->
<g id="edge56" class="edge"><title>Node2&#45;&gt;Node19</title>
<path fill="none" stroke="midnightblue" d="M875.666,-66.1348C934.763,-79.335 1023.91,-106.13 1086,-156 1126.36,-188.417 1158.73,-242.474 1171.32,-265.304"/>
<polygon fill="midnightblue" stroke="midnightblue" points="876.237,-62.6773 865.722,-63.9785 874.753,-69.5183 876.237,-62.6773"/>
</g>
<!-- Node3 -->
<g id="node4" class="node"><title>Node3</title>
<a xlink:href="class_urho3_d_1_1_object.html" target="_top" xlink:title="Base class for objects with type identification, subsystem access and event sending/receiving capabil...">
<polygon fill="none" stroke="black" points="516,-489.5 516,-510.5 606,-510.5 606,-489.5 516,-489.5"/>
<text text-anchor="middle" x="561" y="-497.5" font-family="FreeSans" font-size="10.00">Urho3D::Object</text>
</a>
</g>
<!-- Node3&#45;&gt;Node2 -->
<g id="edge4" class="edge"><title>Node3&#45;&gt;Node2</title>
<path fill="none" stroke="midnightblue" d="M590.056,-484.777C630.317,-463.619 698.352,-427.607 700,-425 720.806,-392.084 692.665,-104.572 718,-75 728.966,-62.2007 745.807,-56.3099 762.34,-53.8983"/>
<polygon fill="midnightblue" stroke="midnightblue" points="588.424,-481.68 581.197,-489.428 591.678,-487.878 588.424,-481.68"/>
</g>
<!-- Node8 -->
<g id="node15" class="node"><title>Node8</title>
<a xlink:href="class_urho3_d_1_1_event_handler.html" target="_top" xlink:title="Internal helper class for invoking event handler functions.">
<polygon fill="none" stroke="red" points="752,-454.5 752,-475.5 876,-475.5 876,-454.5 752,-454.5"/>
<text text-anchor="middle" x="814" y="-462.5" font-family="FreeSans" font-size="10.00">Urho3D::EventHandler</text>
</a>
</g>
<!-- Node3&#45;&gt;Node8 -->
<g id="edge18" class="edge"><title>Node3&#45;&gt;Node8</title>
<path fill="none" stroke="#9a32cd" stroke-dasharray="5,2" d="M593.846,-485.756C606.743,-480.809 621.828,-475.803 636,-473 673.933,-465.499 717.26,-463.415 751.671,-463.248"/>
<polygon fill="#9a32cd" stroke="#9a32cd" points="592.459,-482.541 584.461,-489.49 595.047,-489.045 592.459,-482.541"/>
<text text-anchor="middle" x="668" y="-490" font-family="FreeSans" font-size="10.00"> sender_</text>
<text text-anchor="middle" x="668" y="-477" font-family="FreeSans" font-size="10.00">receiver_</text>
</g>
<!-- Node4 -->
<g id="node6" class="node"><title>Node4</title>
<a xlink:href="class_urho3_d_1_1_ref_counted.html" target="_top" xlink:title="Base class for intrusively reference&#45;counted objects. These are noncopyable and non&#45;assignable.">
<polygon fill="none" stroke="black" points="198,-489.5 198,-510.5 312,-510.5 312,-489.5 198,-489.5"/>
<text text-anchor="middle" x="255" y="-497.5" font-family="FreeSans" font-size="10.00">Urho3D::RefCounted</text>
</a>
</g>
<!-- Node4&#45;&gt;Node3 -->
<g id="edge6" class="edge"><title>Node4&#45;&gt;Node3</title>
<path fill="none" stroke="midnightblue" d="M322.483,-500C381.138,-500 464.495,-500 515.542,-500"/>
<polygon fill="midnightblue" stroke="midnightblue" points="322.197,-496.5 312.197,-500 322.197,-503.5 322.197,-496.5"/>
</g>
<!-- Node6 -->
<g id="node10" class="node"><title>Node6</title>
<a xlink:href="class_urho3_d_1_1_context.html" target="_top" xlink:title="Urho3D execution context. Provides access to subsystems, object factories and attributes, and event receivers.">
<polygon fill="none" stroke="red" points="1128.5,-623.5 1128.5,-644.5 1225.5,-644.5 1225.5,-623.5 1128.5,-623.5"/>
<text text-anchor="middle" x="1177" y="-631.5" font-family="FreeSans" font-size="10.00">Urho3D::Context</text>
</a>
</g>
<!-- Node4&#45;&gt;Node6 -->
<g id="edge12" class="edge"><title>Node4&#45;&gt;Node6</title>
<path fill="none" stroke="midnightblue" d="M289.516,-514.388C365.362,-545.132 552.956,-616.426 718,-641 866.196,-663.065 1044.27,-648.947 1128.42,-639.89"/>
<polygon fill="midnightblue" stroke="midnightblue" points="290.57,-511.038 279.988,-510.5 287.925,-517.519 290.57,-511.038"/>
</g>
<!-- Node5 -->
<g id="node8" class="node"><title>Node5</title>
<a xlink:href="struct_urho3_d_1_1_ref_count.html" target="_top" xlink:title="Reference count structure.">
<polygon fill="none" stroke="black" points="0,-450.5 0,-471.5 102,-471.5 102,-450.5 0,-450.5"/>
<text text-anchor="middle" x="51" y="-458.5" font-family="FreeSans" font-size="10.00">Urho3D::RefCount</text>
</a>
</g>
<!-- Node5&#45;&gt;Node4 -->
<g id="edge8" class="edge"><title>Node5&#45;&gt;Node4</title>
<path fill="none" stroke="#9a32cd" stroke-dasharray="5,2" d="M112.232,-472.706C140.07,-478.028 172.758,-484.277 199.826,-489.452"/>
<polygon fill="#9a32cd" stroke="#9a32cd" points="112.694,-469.231 102.214,-470.791 111.379,-476.107 112.694,-469.231"/>
<text text-anchor="middle" x="145" y="-486" font-family="FreeSans" font-size="10.00"> refCount_</text>
</g>
<!-- Node22 -->
<g id="node54" class="node"><title>Node22</title>
<a xlink:href="class_urho3_d_1_1_weak_ptr.html" target="_top" xlink:title="Urho3D::WeakPtr\&lt; Urho3D\l::SpriteSheet2D \&gt;">
<polygon fill="none" stroke="red" points="340,-368 340,-402 486,-402 486,-368 340,-368"/>
<text text-anchor="start" x="348" y="-389" font-family="FreeSans" font-size="10.00">Urho3D::WeakPtr&lt; Urho3D</text>
<text text-anchor="middle" x="413" y="-376" font-family="FreeSans" font-size="10.00">::SpriteSheet2D &gt;</text>
</a>
</g>
<!-- Node5&#45;&gt;Node22 -->
<g id="edge68" class="edge"><title>Node5&#45;&gt;Node22</title>
<path fill="none" stroke="#9a32cd" stroke-dasharray="5,2" d="M111.492,-448.3C174.362,-435.101 272.78,-414.438 339.948,-400.337"/>
<polygon fill="#9a32cd" stroke="#9a32cd" points="110.402,-444.952 101.335,-450.433 111.84,-451.803 110.402,-444.952"/>
<text text-anchor="middle" x="145" y="-449" font-family="FreeSans" font-size="10.00"> refCount_</text>
</g>
<!-- Node6&#45;&gt;Node3 -->
<g id="edge10" class="edge"><title>Node6&#45;&gt;Node3</title>
<path fill="none" stroke="#9a32cd" stroke-dasharray="5,2" d="M1118.34,-635.433C1029.58,-635.961 856.768,-630.539 718,-587 661.21,-569.182 601.766,-529.523 575.241,-510.532"/>
<polygon fill="#9a32cd" stroke="#9a32cd" points="1118.51,-638.932 1128.48,-635.344 1118.45,-631.932 1118.51,-638.932"/>
<text text-anchor="middle" x="814" y="-628" font-family="FreeSans" font-size="10.00"> context_</text>
</g>
<!-- Node7 -->
<g id="node13" class="node"><title>Node7</title>
<a xlink:href="class_urho3_d_1_1_p_o_d_vector.html" target="_top" xlink:title="Urho3D::PODVector\&lt;\l Urho3D::Object * \&gt;">
<polygon fill="none" stroke="red" points="754.5,-544 754.5,-578 873.5,-578 873.5,-544 754.5,-544"/>
<text text-anchor="start" x="762.5" y="-565" font-family="FreeSans" font-size="10.00">Urho3D::PODVector&lt;</text>
<text text-anchor="middle" x="814" y="-552" font-family="FreeSans" font-size="10.00"> Urho3D::Object * &gt;</text>
</a>
</g>
<!-- Node7&#45;&gt;Node6 -->
<g id="edge14" class="edge"><title>Node7&#45;&gt;Node6</title>
<path fill="none" stroke="#9a32cd" stroke-dasharray="5,2" d="M883.716,-560.43C939.497,-561.684 1019.16,-567.344 1086,-587 1113.98,-595.228 1143.45,-612.202 1161.03,-623.34"/>
<polygon fill="#9a32cd" stroke="#9a32cd" points="883.65,-556.928 873.587,-560.245 883.522,-563.927 883.65,-556.928"/>
<text text-anchor="middle" x="1007" y="-591" font-family="FreeSans" font-size="10.00"> eventSenders_</text>
</g>
<!-- Node8&#45;&gt;Node6 -->
<g id="edge16" class="edge"><title>Node8&#45;&gt;Node6</title>
<path fill="none" stroke="#9a32cd" stroke-dasharray="5,2" d="M886.191,-476.078C943.417,-487.175 1023.82,-508.066 1086,-545 1121.91,-566.33 1154.4,-604.675 1168.94,-623.285"/>
<polygon fill="#9a32cd" stroke="#9a32cd" points="886.618,-472.597 876.143,-474.184 885.321,-479.476 886.618,-472.597"/>
<text text-anchor="middle" x="1007" y="-549" font-family="FreeSans" font-size="10.00"> eventHandler_</text>
</g>
<!-- Node15 -->
<g id="node34" class="node"><title>Node15</title>
<a xlink:href="class_urho3_d_1_1_linked_list.html" target="_top" xlink:title="Urho3D::LinkedList\l\&lt; Urho3D::EventHandler \&gt;">
<polygon fill="none" stroke="black" points="1104,-469 1104,-503 1250,-503 1250,-469 1104,-469"/>
<text text-anchor="start" x="1112" y="-490" font-family="FreeSans" font-size="10.00">Urho3D::LinkedList</text>
<text text-anchor="middle" x="1177" y="-477" font-family="FreeSans" font-size="10.00">&lt; Urho3D::EventHandler &gt;</text>
</a>
</g>
<!-- Node8&#45;&gt;Node15 -->
<g id="edge42" class="edge"><title>Node8&#45;&gt;Node15</title>
<path fill="none" stroke="#9a32cd" stroke-dasharray="5,2" d="M886.045,-454.551C941.16,-448.436 1018.85,-443.877 1086,-455 1102.8,-457.782 1120.65,-463.269 1136.06,-468.863"/>
<polygon fill="#9a32cd" stroke="#9a32cd" points="885.556,-451.084 876.024,-455.708 886.359,-458.038 885.556,-451.084"/>
<text text-anchor="middle" x="1007" y="-459" font-family="FreeSans" font-size="10.00"> head_</text>
</g>
<!-- Node9 -->
<g id="node18" class="node"><title>Node9</title>
<a xlink:href="class_urho3_d_1_1_string_hash.html" target="_top" xlink:title="32&#45;bit hash value for a string.">
<polygon fill="none" stroke="black" points="504.5,-400.5 504.5,-421.5 617.5,-421.5 617.5,-400.5 504.5,-400.5"/>
<text text-anchor="middle" x="561" y="-408.5" font-family="FreeSans" font-size="10.00">Urho3D::StringHash</text>
</a>
</g>
<!-- Node9&#45;&gt;Node2 -->
<g id="edge50" class="edge"><title>Node9&#45;&gt;Node2</title>
<path fill="none" stroke="#9a32cd" stroke-dasharray="5,2" d="M567.754,-390.803C590.183,-324.895 663.839,-117.869 718,-75 730.548,-65.0681 746.825,-59.7334 762.4,-56.959"/>
<polygon fill="#9a32cd" stroke="#9a32cd" points="564.381,-389.852 564.496,-400.446 571.013,-392.092 564.381,-389.852"/>
<text text-anchor="middle" x="668" y="-210" font-family="FreeSans" font-size="10.00"> nameHash_</text>
</g>
<!-- Node9&#45;&gt;Node8 -->
<g id="edge20" class="edge"><title>Node9&#45;&gt;Node8</title>
<path fill="none" stroke="#9a32cd" stroke-dasharray="5,2" d="M620.354,-423.669C664.282,-433.044 723.421,-445.667 764.743,-454.487"/>
<polygon fill="#9a32cd" stroke="#9a32cd" points="620.892,-420.204 610.382,-421.54 619.431,-427.05 620.892,-420.204"/>
<text text-anchor="middle" x="668" y="-443" font-family="FreeSans" font-size="10.00"> eventType_</text>
</g>
<!-- Node9&#45;&gt;Node9 -->
<g id="edge22" class="edge"><title>Node9&#45;&gt;Node9</title>
<path fill="none" stroke="#9a32cd" stroke-dasharray="5,2" d="M541.465,-431.427C542.972,-436.349 549.484,-440 561,-440 579.426,-440 585.04,-430.653 577.842,-421.708"/>
<polygon fill="#9a32cd" stroke="#9a32cd" points="544.861,-432.279 544.158,-421.708 538.115,-430.41 544.861,-432.279"/>
<text text-anchor="middle" x="561" y="-444" font-family="FreeSans" font-size="10.00"> ZERO</text>
</g>
<!-- Node10 -->
<g id="node21" class="node"><title>Node10</title>
<a xlink:href="class_urho3_d_1_1_hash_map.html" target="_top" xlink:title="Urho3D::HashMap\&lt; Urho3D\l::StringHash, Urho3D::\lHashSet\&lt; Urho3D::Object * \&gt; \&gt;">
<polygon fill="none" stroke="black" points="727.5,-761.5 727.5,-808.5 900.5,-808.5 900.5,-761.5 727.5,-761.5"/>
<text text-anchor="start" x="735.5" y="-795.5" font-family="FreeSans" font-size="10.00">Urho3D::HashMap&lt; Urho3D</text>
<text text-anchor="start" x="735.5" y="-782.5" font-family="FreeSans" font-size="10.00">::StringHash, Urho3D::</text>
<text text-anchor="middle" x="814" y="-769.5" font-family="FreeSans" font-size="10.00">HashSet&lt; Urho3D::Object * &gt; &gt;</text>
</a>
</g>
<!-- Node10&#45;&gt;Node6 -->
<g id="edge24" class="edge"><title>Node10&#45;&gt;Node6</title>
<path fill="none" stroke="#9a32cd" stroke-dasharray="5,2" d="M910.515,-772.226C964.472,-762.275 1031.6,-745.082 1086,-716 1121.07,-697.251 1153.46,-662.139 1168.37,-644.574"/>
<polygon fill="#9a32cd" stroke="#9a32cd" points="909.826,-768.794 900.599,-774.001 911.06,-775.684 909.826,-768.794"/>
<text text-anchor="middle" x="1007" y="-772" font-family="FreeSans" font-size="10.00"> eventReceivers_</text>
</g>
<!-- Node11 -->
<g id="node23" class="node"><title>Node11</title>
<a xlink:href="class_urho3_d_1_1_hash_base.html" target="_top" xlink:title="Hash set/map base class.">
<polygon fill="none" stroke="black" points="507,-774.5 507,-795.5 615,-795.5 615,-774.5 507,-774.5"/>
<text text-anchor="middle" x="561" y="-782.5" font-family="FreeSans" font-size="10.00">Urho3D::HashBase</text>
</a>
</g>
<!-- Node11&#45;&gt;Node10 -->
<g id="edge26" class="edge"><title>Node11&#45;&gt;Node10</title>
<path fill="none" stroke="midnightblue" d="M625.512,-785C656.49,-785 694.055,-785 727.472,-785"/>
<polygon fill="midnightblue" stroke="midnightblue" points="625.275,-781.5 615.275,-785 625.275,-788.5 625.275,-781.5"/>
</g>
<!-- Node14 -->
<g id="node31" class="node"><title>Node14</title>
<a xlink:href="class_urho3_d_1_1_hash_map.html" target="_top" xlink:title="Urho3D::HashMap\&lt; Urho3D\l::Object *, Urho3D::HashMap\l\&lt; Urho3D::StringHash, Urho3D\l::HashSet\&lt; Urho3D::Object * \&gt; \&gt; \&gt;">
<polygon fill="none" stroke="black" points="718.5,-683 718.5,-743 909.5,-743 909.5,-683 718.5,-683"/>
<text text-anchor="start" x="726.5" y="-730" font-family="FreeSans" font-size="10.00">Urho3D::HashMap&lt; Urho3D</text>
<text text-anchor="start" x="726.5" y="-717" font-family="FreeSans" font-size="10.00">::Object *, Urho3D::HashMap</text>
<text text-anchor="start" x="726.5" y="-704" font-family="FreeSans" font-size="10.00">&lt; Urho3D::StringHash, Urho3D</text>
<text text-anchor="middle" x="814" y="-691" font-family="FreeSans" font-size="10.00">::HashSet&lt; Urho3D::Object * &gt; &gt; &gt;</text>
</a>
</g>
<!-- Node11&#45;&gt;Node14 -->
<g id="edge38" class="edge"><title>Node11&#45;&gt;Node14</title>
<path fill="none" stroke="midnightblue" d="M607.724,-771.703C638.719,-762.882 680.507,-750.99 718.367,-740.216"/>
<polygon fill="midnightblue" stroke="midnightblue" points="606.719,-768.35 598.059,-774.453 608.635,-775.083 606.719,-768.35"/>
</g>
<!-- Node25 -->
<g id="node62" class="node"><title>Node25</title>
<a xlink:href="class_urho3_d_1_1_hash_map.html" target="_top" xlink:title="Urho3D::HashMap\&lt; int,\l Urho3D::SharedPtr\&lt; Urho3D\l::Sprite2D \&gt; \&gt;">
<polygon fill="none" stroke="black" points="928,-795.5 928,-842.5 1086,-842.5 1086,-795.5 928,-795.5"/>
<text text-anchor="start" x="936" y="-829.5" font-family="FreeSans" font-size="10.00">Urho3D::HashMap&lt; int,</text>
<text text-anchor="start" x="936" y="-816.5" font-family="FreeSans" font-size="10.00"> Urho3D::SharedPtr&lt; Urho3D</text>
<text text-anchor="middle" x="1007" y="-803.5" font-family="FreeSans" font-size="10.00">::Sprite2D &gt; &gt;</text>
</a>
</g>
<!-- Node11&#45;&gt;Node25 -->
<g id="edge78" class="edge"><title>Node11&#45;&gt;Node25</title>
<path fill="none" stroke="midnightblue" d="M610.038,-797.995C640.796,-805.473 681.419,-814.133 718,-818 788.727,-825.477 869.736,-824.98 927.955,-823.048"/>
<polygon fill="midnightblue" stroke="midnightblue" points="610.553,-794.517 600.005,-795.512 608.872,-801.312 610.553,-794.517"/>
</g>
<!-- Node12 -->
<g id="node25" class="node"><title>Node12</title>
<a xlink:href="struct_urho3_d_1_1_hash_node_base.html" target="_top" xlink:title="Hash set/map node base class.">
<polygon fill="none" stroke="black" points="188,-813.5 188,-834.5 322,-834.5 322,-813.5 188,-813.5"/>
<text text-anchor="middle" x="255" y="-821.5" font-family="FreeSans" font-size="10.00">Urho3D::HashNodeBase</text>
</a>
</g>
<!-- Node12&#45;&gt;Node11 -->
<g id="edge28" class="edge"><title>Node12&#45;&gt;Node11</title>
<path fill="none" stroke="#9a32cd" stroke-dasharray="5,2" d="M332.114,-814.172C386.579,-807.23 458.225,-798.099 506.744,-791.915"/>
<polygon fill="#9a32cd" stroke="#9a32cd" points="331.63,-810.705 322.153,-815.441 332.515,-817.649 331.63,-810.705"/>
<text text-anchor="middle" x="413" y="-842" font-family="FreeSans" font-size="10.00"> ptrs_</text>
<text text-anchor="middle" x="413" y="-829" font-family="FreeSans" font-size="10.00">tail_</text>
<text text-anchor="middle" x="413" y="-816" font-family="FreeSans" font-size="10.00">head_</text>
</g>
<!-- Node12&#45;&gt;Node12 -->
<g id="edge30" class="edge"><title>Node12&#45;&gt;Node12</title>
<path fill="none" stroke="#9a32cd" stroke-dasharray="5,2" d="M234.728,-844.427C236.292,-849.349 243.049,-853 255,-853 274.121,-853 279.947,-843.653 272.478,-834.708"/>
<polygon fill="#9a32cd" stroke="#9a32cd" points="238.123,-845.286 237.522,-834.708 231.395,-843.352 238.123,-845.286"/>
<text text-anchor="middle" x="255" y="-883" font-family="FreeSans" font-size="10.00"> next_</text>
<text text-anchor="middle" x="255" y="-870" font-family="FreeSans" font-size="10.00">prev_</text>
<text text-anchor="middle" x="255" y="-857" font-family="FreeSans" font-size="10.00">down_</text>
</g>
<!-- Node13 -->
<g id="node28" class="node"><title>Node13</title>
<a xlink:href="struct_urho3_d_1_1_allocator_block.html" target="_top" xlink:title="Allocator memory block.">
<polygon fill="none" stroke="red" points="191.5,-742.5 191.5,-763.5 318.5,-763.5 318.5,-742.5 191.5,-742.5"/>
<text text-anchor="middle" x="255" y="-750.5" font-family="FreeSans" font-size="10.00">Urho3D::AllocatorBlock</text>
</a>
</g>
<!-- Node13&#45;&gt;Node11 -->
<g id="edge32" class="edge"><title>Node13&#45;&gt;Node11</title>
<path fill="none" stroke="#9a32cd" stroke-dasharray="5,2" d="M328.95,-757.39C374.369,-760.506 433.675,-765.327 486,-772 492.685,-772.853 499.684,-773.881 506.605,-774.982"/>
<polygon fill="#9a32cd" stroke="#9a32cd" points="329.105,-753.893 318.892,-756.712 328.634,-760.877 329.105,-753.893"/>
<text text-anchor="middle" x="413" y="-776" font-family="FreeSans" font-size="10.00"> allocator_</text>
</g>
<!-- Node13&#45;&gt;Node13 -->
<g id="edge34" class="edge"><title>Node13&#45;&gt;Node13</title>
<path fill="none" stroke="#9a32cd" stroke-dasharray="5,2" d="M234.728,-773.427C236.292,-778.349 243.049,-782 255,-782 274.121,-782 279.947,-772.653 272.478,-763.708"/>
<polygon fill="#9a32cd" stroke="#9a32cd" points="238.123,-774.286 237.522,-763.708 231.395,-772.352 238.123,-774.286"/>
<text text-anchor="middle" x="255" y="-786" font-family="FreeSans" font-size="10.00"> next_</text>
</g>
<!-- Node14&#45;&gt;Node6 -->
<g id="edge36" class="edge"><title>Node14&#45;&gt;Node6</title>
<path fill="none" stroke="#9a32cd" stroke-dasharray="5,2" d="M919.76,-701.069C970.559,-694.029 1031.99,-683.587 1086,-669 1109.53,-662.645 1135.38,-652.365 1153.5,-644.587"/>
<polygon fill="#9a32cd" stroke="#9a32cd" points="919.184,-697.615 909.748,-702.432 920.129,-704.551 919.184,-697.615"/>
<text text-anchor="middle" x="1007" y="-703" font-family="FreeSans" font-size="10.00"> specificEventReceivers_</text>
</g>
<!-- Node15&#45;&gt;Node3 -->
<g id="edge40" class="edge"><title>Node15&#45;&gt;Node3</title>
<path fill="none" stroke="#9a32cd" stroke-dasharray="5,2" d="M1093.66,-503.151C1091.08,-503.468 1088.52,-503.753 1086,-504 909.107,-521.327 697.086,-509.937 606.089,-503.524"/>
<polygon fill="#9a32cd" stroke="#9a32cd" points="1094.24,-506.604 1103.68,-501.78 1093.29,-499.668 1094.24,-506.604"/>
<text text-anchor="middle" x="814" y="-517" font-family="FreeSans" font-size="10.00"> eventHandlers_</text>
</g>
<!-- Node16 -->
<g id="node37" class="node"><title>Node16</title>
<a xlink:href="class_urho3_d_1_1_timer.html" target="_top" xlink:title="Low&#45;resolution operating system timer.">
<polygon fill="none" stroke="black" points="518,-71.5 518,-92.5 604,-92.5 604,-71.5 518,-71.5"/>
<text text-anchor="middle" x="561" y="-79.5" font-family="FreeSans" font-size="10.00">Urho3D::Timer</text>
</a>
</g>
<!-- Node16&#45;&gt;Node2 -->
<g id="edge44" class="edge"><title>Node16&#45;&gt;Node2</title>
<path fill="none" stroke="#9a32cd" stroke-dasharray="5,2" d="M614.323,-76.3094C657.886,-71.6604 719.095,-65.1282 762.231,-60.5248"/>
<polygon fill="#9a32cd" stroke="#9a32cd" points="613.777,-72.8477 604.205,-77.3892 614.52,-79.8082 613.777,-72.8477"/>
<text text-anchor="middle" x="668" y="-78" font-family="FreeSans" font-size="10.00"> useTimer_</text>
</g>
<!-- Node17 -->
<g id="node39" class="node"><title>Node17</title>
<a xlink:href="class_urho3_d_1_1_string.html" target="_top" xlink:title="String class.">
<polygon fill="none" stroke="black" points="517,-0.5 517,-21.5 605,-21.5 605,-0.5 517,-0.5"/>
<text text-anchor="middle" x="561" y="-8.5" font-family="FreeSans" font-size="10.00">Urho3D::String</text>
</a>
</g>
<!-- Node17&#45;&gt;Node2 -->
<g id="edge46" class="edge"><title>Node17&#45;&gt;Node2</title>
<path fill="none" stroke="#9a32cd" stroke-dasharray="5,2" d="M615.177,-20.422C658.653,-27.9831 719.293,-38.5293 762.143,-45.9815"/>
<polygon fill="#9a32cd" stroke="#9a32cd" points="615.521,-16.9295 605.069,-18.6642 614.322,-23.8259 615.521,-16.9295"/>
<text text-anchor="middle" x="668" y="-39" font-family="FreeSans" font-size="10.00"> name_</text>
</g>
<!-- Node17&#45;&gt;Node17 -->
<g id="edge48" class="edge"><title>Node17&#45;&gt;Node17</title>
<path fill="none" stroke="#9a32cd" stroke-dasharray="5,2" d="M541.465,-31.4266C542.972,-36.3489 549.484,-40 561,-40 579.426,-40 585.04,-30.6531 577.842,-21.7079"/>
<polygon fill="#9a32cd" stroke="#9a32cd" points="544.861,-32.2793 544.158,-21.7079 538.115,-30.4105 544.861,-32.2793"/>
<text text-anchor="middle" x="561" y="-44" font-family="FreeSans" font-size="10.00"> EMPTY</text>
</g>
<!-- Node18 -->
<g id="node43" class="node"><title>Node18</title>
<a xlink:href="class_urho3_d_1_1_shared_ptr.html" target="_top" xlink:title="Urho3D::SharedPtr\&lt;\l Urho3D::Sprite2D \&gt;">
<polygon fill="none" stroke="black" points="1374,-259 1374,-293 1490,-293 1490,-259 1374,-259"/>
<text text-anchor="start" x="1382" y="-280" font-family="FreeSans" font-size="10.00">Urho3D::SharedPtr&lt;</text>
<text text-anchor="middle" x="1432" y="-267" font-family="FreeSans" font-size="10.00"> Urho3D::Sprite2D &gt;</text>
</a>
</g>
<!-- Node18&#45;&gt;Node1 -->
<g id="edge52" class="edge"><title>Node18&#45;&gt;Node1</title>
<path fill="none" stroke="#9a32cd" stroke-dasharray="5,2" d="M1500.31,-276C1520.22,-276 1541.98,-276 1561.93,-276"/>
<polygon fill="#9a32cd" stroke="#9a32cd" points="1500.09,-272.5 1490.09,-276 1500.09,-279.5 1500.09,-272.5"/>
<text text-anchor="middle" x="1526" y="-280" font-family="FreeSans" font-size="10.00"> sprite_</text>
</g>
<!-- Node19&#45;&gt;Node18 -->
<g id="edge54" class="edge"><title>Node19&#45;&gt;Node18</title>
<path fill="none" stroke="#9a32cd" stroke-dasharray="5,2" d="M1237.87,-276C1279.08,-276 1333.2,-276 1373.83,-276"/>
<polygon fill="#9a32cd" stroke="#9a32cd" points="1237.68,-272.5 1227.68,-276 1237.68,-279.5 1237.68,-272.5"/>
<text text-anchor="middle" x="1312" y="-280" font-family="FreeSans" font-size="10.00"> ptr_</text>
</g>
<!-- Node20 -->
<g id="node48" class="node"><title>Node20</title>
<a xlink:href="class_urho3_d_1_1_int_rect.html" target="_top" xlink:title="Two&#45;dimensional bounding rectangle with integer values.">
<polygon fill="none" stroke="black" points="768,-291.5 768,-312.5 860,-312.5 860,-291.5 768,-291.5"/>
<text text-anchor="middle" x="814" y="-299.5" font-family="FreeSans" font-size="10.00">Urho3D::IntRect</text>
</a>
</g>
<!-- Node20&#45;&gt;Node19 -->
<g id="edge58" class="edge"><title>Node20&#45;&gt;Node19</title>
<path fill="none" stroke="#9a32cd" stroke-dasharray="5,2" d="M870.745,-297.936C940.849,-292.914 1059.06,-284.448 1126.27,-279.634"/>
<polygon fill="#9a32cd" stroke="#9a32cd" points="870.067,-294.475 860.343,-298.681 870.567,-301.457 870.067,-294.475"/>
<text text-anchor="middle" x="1007" y="-297" font-family="FreeSans" font-size="10.00"> rectangle_</text>
</g>
<!-- Node20&#45;&gt;Node20 -->
<g id="edge60" class="edge"><title>Node20&#45;&gt;Node20</title>
<path fill="none" stroke="#9a32cd" stroke-dasharray="5,2" d="M786.951,-322.055C788.725,-327.164 797.742,-331 814,-331 839.379,-331 847.112,-321.653 837.198,-312.708"/>
<polygon fill="#9a32cd" stroke="#9a32cd" points="790.229,-323.287 790.802,-312.708 783.757,-320.621 790.229,-323.287"/>
<text text-anchor="middle" x="814" y="-335" font-family="FreeSans" font-size="10.00"> ZERO</text>
</g>
<!-- Node21 -->
<g id="node51" class="node"><title>Node21</title>
<a xlink:href="class_urho3_d_1_1_vector2.html" target="_top" xlink:title="Two&#45;dimensional vector.">
<polygon fill="none" stroke="black" points="766,-155.5 766,-176.5 862,-176.5 862,-155.5 766,-155.5"/>
<text text-anchor="middle" x="814" y="-163.5" font-family="FreeSans" font-size="10.00">Urho3D::Vector2</text>
</a>
</g>
<!-- Node21&#45;&gt;Node19 -->
<g id="edge62" class="edge"><title>Node21&#45;&gt;Node19</title>
<path fill="none" stroke="#9a32cd" stroke-dasharray="5,2" d="M841.398,-181.454C864.025,-193.664 897.295,-210.364 928,-221 994.932,-244.185 1075.46,-259.873 1126.45,-268.379"/>
<polygon fill="#9a32cd" stroke="#9a32cd" points="842.844,-178.256 832.391,-176.527 839.485,-184.397 842.844,-178.256"/>
<text text-anchor="middle" x="1007" y="-264" font-family="FreeSans" font-size="10.00"> hotSpot_</text>
</g>
<!-- Node21&#45;&gt;Node21 -->
<g id="edge64" class="edge"><title>Node21&#45;&gt;Node21</title>
<path fill="none" stroke="#9a32cd" stroke-dasharray="5,2" d="M786.951,-186.055C788.725,-191.164 797.742,-195 814,-195 839.379,-195 847.112,-185.653 837.198,-176.708"/>
<polygon fill="#9a32cd" stroke="#9a32cd" points="790.229,-187.287 790.802,-176.708 783.757,-184.621 790.229,-187.287"/>
<text text-anchor="middle" x="814" y="-264" font-family="FreeSans" font-size="10.00"> ONE</text>
<text text-anchor="middle" x="814" y="-251" font-family="FreeSans" font-size="10.00">DOWN</text>
<text text-anchor="middle" x="814" y="-238" font-family="FreeSans" font-size="10.00">RIGHT</text>
<text text-anchor="middle" x="814" y="-225" font-family="FreeSans" font-size="10.00">LEFT</text>
<text text-anchor="middle" x="814" y="-212" font-family="FreeSans" font-size="10.00">ZERO</text>
<text text-anchor="middle" x="814" y="-199" font-family="FreeSans" font-size="10.00">UP</text>
</g>
<!-- Node22&#45;&gt;Node19 -->
<g id="edge66" class="edge"><title>Node22&#45;&gt;Node19</title>
<path fill="none" stroke="#9a32cd" stroke-dasharray="5,2" d="M496.534,-384.08C595.68,-381.962 765.751,-375.09 910,-353 989.595,-340.811 1009.04,-333.688 1086,-310 1108.24,-303.153 1132.95,-293.808 1151,-286.648"/>
<polygon fill="#9a32cd" stroke="#9a32cd" points="496.206,-380.586 486.278,-384.288 496.347,-387.585 496.206,-380.586"/>
<text text-anchor="middle" x="668" y="-382" font-family="FreeSans" font-size="10.00"> spriteSheet_</text>
</g>
<!-- Node23 -->
<g id="node57" class="node"><title>Node23</title>
<a xlink:href="class_urho3_d_1_1_int_vector2.html" target="_top" xlink:title="Two&#45;dimensional vector with integer values.">
<polygon fill="none" stroke="black" points="760,-84.5 760,-105.5 868,-105.5 868,-84.5 760,-84.5"/>
<text text-anchor="middle" x="814" y="-92.5" font-family="FreeSans" font-size="10.00">Urho3D::IntVector2</text>
</a>
</g>
<!-- Node23&#45;&gt;Node19 -->
<g id="edge70" class="edge"><title>Node23&#45;&gt;Node19</title>
<path fill="none" stroke="#9a32cd" stroke-dasharray="5,2" d="M843.356,-110.413C862.401,-120.457 887.728,-133.899 910,-146 918.041,-150.369 919.574,-152.428 928,-156 995.569,-184.649 1020.98,-169.97 1086,-204 1118.31,-220.908 1150.42,-249.899 1166.46,-265.435"/>
<polygon fill="#9a32cd" stroke="#9a32cd" points="844.765,-107.199 834.286,-105.636 841.503,-113.393 844.765,-107.199"/>
<text text-anchor="middle" x="1007" y="-208" font-family="FreeSans" font-size="10.00"> offset_</text>
</g>
<!-- Node23&#45;&gt;Node23 -->
<g id="edge72" class="edge"><title>Node23&#45;&gt;Node23</title>
<path fill="none" stroke="#9a32cd" stroke-dasharray="5,2" d="M786.951,-115.055C788.725,-120.164 797.742,-124 814,-124 839.379,-124 847.112,-114.653 837.198,-105.708"/>
<polygon fill="#9a32cd" stroke="#9a32cd" points="790.229,-116.287 790.802,-105.708 783.757,-113.621 790.229,-116.287"/>
<text text-anchor="middle" x="814" y="-128" font-family="FreeSans" font-size="10.00"> ZERO</text>
</g>
<!-- Node24 -->
<g id="node60" class="node"><title>Node24</title>
<a xlink:href="class_urho3_d_1_1_shared_ptr.html" target="_top" xlink:title="Urho3D::SharedPtr\&lt;\l Urho3D::Texture2D \&gt;">
<polygon fill="none" stroke="red" points="753,-400 753,-434 875,-434 875,-400 753,-400"/>
<text text-anchor="start" x="761" y="-421" font-family="FreeSans" font-size="10.00">Urho3D::SharedPtr&lt;</text>
<text text-anchor="middle" x="814" y="-408" font-family="FreeSans" font-size="10.00"> Urho3D::Texture2D &gt;</text>
</a>
</g>
<!-- Node24&#45;&gt;Node19 -->
<g id="edge74" class="edge"><title>Node24&#45;&gt;Node19</title>
<path fill="none" stroke="#9a32cd" stroke-dasharray="5,2" d="M885.58,-413.895C954.293,-409.88 1052.44,-401.123 1086,-383 1128.27,-360.171 1159.37,-309.114 1171.46,-286.793"/>
<polygon fill="#9a32cd" stroke="#9a32cd" points="885.031,-410.42 875.243,-414.477 885.424,-417.409 885.031,-410.42"/>
<text text-anchor="middle" x="1007" y="-427" font-family="FreeSans" font-size="10.00"> loadTexture_</text>
<text text-anchor="middle" x="1007" y="-414" font-family="FreeSans" font-size="10.00">texture_</text>
</g>
<!-- Node25&#45;&gt;Node1 -->
<g id="edge76" class="edge"><title>Node25&#45;&gt;Node1</title>
<path fill="none" stroke="#9a32cd" stroke-dasharray="5,2" d="M1075.56,-790.87C1079.14,-788.976 1082.64,-787.016 1086,-785 1166,-737.021 1180.34,-716.052 1250,-654 1404.8,-516.098 1578.32,-332.365 1621.09,-286.64"/>
<polygon fill="#9a32cd" stroke="#9a32cd" points="1073.88,-787.798 1066.54,-795.438 1077.04,-794.042 1073.88,-787.798"/>
<text text-anchor="middle" x="1312" y="-640" font-family="FreeSans" font-size="10.00"> spriterFileSprites_</text>
</g>
</g>
</svg>
        <g id="navigator" transform="translate(0 0)" fill="#404254">
                <rect fill="#f2f5e9" fill-opacity="0.5" stroke="#606060" stroke-width=".5" x="0" y="0" width="60" height="60"/>
                <use id="zoomplus" xlink:href="#zoomPlus" x="17" y="9" onmousedown="handleZoom(evt,'in')"/>
                <use id="zoomminus" xlink:href="#zoomMin" x="42" y="9" onmousedown="handleZoom(evt,'out')"/>
                <use id="reset" xlink:href="#resetDef" x="30" y="36" onmousedown="handleReset()"/>
                <g id="arrowUp" xlink:href="#dirArrow" transform="translate(30 24)" onmousedown="handlePan(0,-1)">
                  <use xlink:href="#rim" fill="#404040">
                        <set attributeName="fill" to="#808080" begin="arrowUp.mouseover" end="arrowUp.mouseout"/>
                  </use>
                  <path fill="none" stroke="white" stroke-width="1.5" d="M0,-3.0v7 M-2.5,-0.5L0,-3.0L2.5,-0.5"/>
                </g>
                <g id="arrowRight" xlink:href="#dirArrow" transform="rotate(90) translate(36 -43)" onmousedown="handlePan(1,0)">
                  <use xlink:href="#rim" fill="#404040">
                        <set attributeName="fill" to="#808080" begin="arrowRight.mouseover" end="arrowRight.mouseout"/>
                  </use>
                  <path fill="none" stroke="white" stroke-width="1.5" d="M0,-3.0v7 M-2.5,-0.5L0,-3.0L2.5,-0.5"/>
                </g>
                <g id="arrowDown" xlink:href="#dirArrow" transform="rotate(180) translate(-30 -48)" onmousedown="handlePan(0,1)">
                  <use xlink:href="#rim" fill="#404040">
                        <set attributeName="fill" to="#808080" begin="arrowDown.mouseover" end="arrowDown.mouseout"/>
                  </use>
                  <path fill="none" stroke="white" stroke-width="1.5" d="M0,-3.0v7 M-2.5,-0.5L0,-3.0L2.5,-0.5"/>
                </g>
                <g id="arrowLeft" xlink:href="#dirArrow" transform="rotate(270) translate(-36 17)" onmousedown="handlePan(-1,0)">
                  <use xlink:href="#rim" fill="#404040">
                        <set attributeName="fill" to="#808080" begin="arrowLeft.mouseover" end="arrowLeft.mouseout"/>
                  </use>
                  <path fill="none" stroke="white" stroke-width="1.5" d="M0,-3.0v7 M-2.5,-0.5L0,-3.0L2.5,-0.5"/>
                </g>
        </g>
        <svg viewBox="0 0 15 15" width="100%" height="30px" preserveAspectRatio="xMaxYMin meet">
         <g id="arrow_out" transform="scale(0.3 0.3)">
          <a xlink:href="class_urho3_d_1_1_animation_set2_d__coll__graph_org.svg" target="_base">
           <rect id="button" ry="5" rx="5" y="6" x="6" height="38" width="38"
                fill="#f2f5e9" fill-opacity="0.5" stroke="#606060" stroke-width="1.0"/>
           <path id="arrow"
             d="M 11.500037,31.436501 C 11.940474,20.09759 22.043105,11.32322 32.158766,21.979434 L 37.068811,17.246167 C 37.068811,17.246167 37.088388,32 37.088388,32 L 22.160133,31.978069 C 22.160133,31.978069 26.997745,27.140456 26.997745,27.140456 C 18.528582,18.264221 13.291696,25.230495 11.500037,31.436501 z"
             style="fill:#404040;"/>
          </a>
         </g>
        </svg>
</svg>
