<?xml version="1.0" encoding="UTF-8" standalone="no"?>
<!DOCTYPE svg PUBLIC "-//W3C//DTD SVG 1.1//EN"
 "http://www.w3.org/Graphics/SVG/1.1/DTD/svg11.dtd">
<!-- Generated by graphviz version 2.26.3 (20100126.1600)
 -->
<!-- Title: Urho3D::LineEdit Pages: 1 -->
<!--zoomable 1023 -->
<svg id="main" version="1.1" xmlns="http://www.w3.org/2000/svg" xmlns:xlink="http://www.w3.org/1999/xlink" xml:space="preserve" onload="init(evt)">
        <defs>
                <circle id="rim" cx="0" cy="0" r="7"/>
                <circle id="rim2" cx="0" cy="0" r="3.5"/>
                <g id="zoomPlus">
                        <use xlink:href="#rim" fill="#404040">
                                <set attributeName="fill" to="#808080" begin="zoomplus.mouseover" end="zoomplus.mouseout"/>
                        </use>
                        <path d="M-4,0h8M0,-4v8" fill="none" stroke="white" stroke-width="1.5" pointer-events="none"/>
                </g>
                <g id="zoomMin">
                        <use xlink:href="#rim" fill="#404040">
                                <set attributeName="fill" to="#808080" begin="zoomminus.mouseover" end="zoomminus.mouseout"/>
                        </use>
                        <path d="M-4,0h8" fill="none" stroke="white" stroke-width="1.5" pointer-events="none"/>
                </g>
                <g id="dirArrow">
                        <path fill="none" stroke="white" stroke-width="1.5" d="M0,-3.0v7 M-2.5,-0.5L0,-3.0L2.5,-0.5"/>
                </g>
               <g id="resetDef">
                       <use xlink:href="#rim2" fill="#404040">
                               <set attributeName="fill" to="#808080" begin="reset.mouseover" end="reset.mouseout"/>
                       </use>
               </g>
        </defs>

<script type="text/javascript">
var viewWidth = 1558;
var viewHeight = 1023;
var sectionId = 'dynsection-1';
</script>
<script xlink:href="svgpan.js"/>
<svg id="graph" class="graph">
<g id="viewport">
<title>Urho3D::LineEdit</title>
<!-- Node1 -->
<g id="node1" class="node"><title>Node1</title>
<polygon fill="#bfbfbf" stroke="black" points="1452.5,-727.729 1452.5,-748.729 1549.5,-748.729 1549.5,-727.729 1452.5,-727.729"/>
<text text-anchor="middle" x="1501" y="-735.729" font-family="FreeSans" font-size="10.00">Urho3D::LineEdit</text>
</g>
<!-- Node2 -->
<g id="node2" class="node"><title>Node2</title>
<a xlink:href="class_urho3_d_1_1_border_image.html" target="_top" xlink:title="Image UI element with optional border.">
<polygon fill="none" stroke="black" points="966,-682.729 966,-703.729 1088,-703.729 1088,-682.729 966,-682.729"/>
<text text-anchor="middle" x="1027" y="-690.729" font-family="FreeSans" font-size="10.00">Urho3D::BorderImage</text>
</a>
</g>
<!-- Node2&#45;&gt;Node1 -->
<g id="edge2" class="edge"><title>Node2&#45;&gt;Node1</title>
<path fill="none" stroke="midnightblue" d="M1098.23,-693.971C1168.96,-695.444 1280.37,-699.753 1376,-712.229 1403.69,-715.842 1434.41,-722.197 1458.46,-727.719"/>
<polygon fill="midnightblue" stroke="midnightblue" points="1098.16,-690.469 1088.09,-693.774 1098.02,-697.468 1098.16,-690.469"/>
</g>
<!-- Node22 -->
<g id="node57" class="node"><title>Node22</title>
<a xlink:href="class_urho3_d_1_1_shared_ptr.html" target="_top" xlink:title="Urho3D::SharedPtr\&lt;\l Urho3D::BorderImage \&gt;">
<polygon fill="none" stroke="black" points="1240,-721.229 1240,-755.229 1376,-755.229 1376,-721.229 1240,-721.229"/>
<text text-anchor="start" x="1248" y="-742.229" font-family="FreeSans" font-size="10.00">Urho3D::SharedPtr&lt;</text>
<text text-anchor="middle" x="1308" y="-729.229" font-family="FreeSans" font-size="10.00"> Urho3D::BorderImage &gt;</text>
</a>
</g>
<!-- Node2&#45;&gt;Node22 -->
<g id="edge74" class="edge"><title>Node2&#45;&gt;Node22</title>
<path fill="none" stroke="#9a32cd" stroke-dasharray="5,2" d="M1095.6,-705.485C1099.12,-706.082 1102.6,-706.667 1106,-707.229 1150.46,-714.578 1200.52,-722.265 1239.68,-728.146"/>
<polygon fill="#9a32cd" stroke="#9a32cd" points="1096.09,-702.019 1085.65,-703.777 1094.91,-708.918 1096.09,-702.019"/>
<text text-anchor="middle" x="1164" y="-729.229" font-family="FreeSans" font-size="10.00"> ptr_</text>
</g>
<!-- Node3 -->
<g id="node4" class="node"><title>Node3</title>
<a xlink:href="class_urho3_d_1_1_u_i_element.html" target="_top" xlink:title="Base class for UI elements.">
<polygon fill="none" stroke="black" points="528.5,-313.729 528.5,-334.729 637.5,-334.729 637.5,-313.729 528.5,-313.729"/>
<text text-anchor="middle" x="583" y="-321.729" font-family="FreeSans" font-size="10.00">Urho3D::UIElement</text>
</a>
</g>
<!-- Node3&#45;&gt;Node2 -->
<g id="edge4" class="edge"><title>Node3&#45;&gt;Node2</title>
<path fill="none" stroke="midnightblue" d="M619.539,-338.799C690.551,-368.637 848.9,-442.789 948,-547.229 988.27,-589.669 1014.35,-656.606 1023.42,-682.504"/>
<polygon fill="midnightblue" stroke="midnightblue" points="620.691,-335.488 610.114,-334.885 618.006,-341.953 620.691,-335.488"/>
</g>
<!-- Node3&#45;&gt;Node3 -->
<g id="edge20" class="edge"><title>Node3&#45;&gt;Node3</title>
<path fill="none" stroke="#9a32cd" stroke-dasharray="5,2" d="M559.042,-344.656C560.891,-349.578 568.876,-353.229 583,-353.229 605.598,-353.229 612.483,-343.882 603.656,-334.937"/>
<polygon fill="#9a32cd" stroke="#9a32cd" points="562.441,-345.531 562.344,-334.937 555.813,-343.279 562.441,-345.531"/>
<text text-anchor="middle" x="583" y="-357.229" font-family="FreeSans" font-size="10.00"> parent_</text>
</g>
<!-- Node18 -->
<g id="node46" class="node"><title>Node18</title>
<a xlink:href="class_urho3_d_1_1_text.html" target="_top" xlink:title="Text UI element.">
<polygon fill="none" stroke="red" points="789,-267.729 789,-288.729 867,-288.729 867,-267.729 789,-267.729"/>
<text text-anchor="middle" x="828" y="-275.729" font-family="FreeSans" font-size="10.00">Urho3D::Text</text>
</a>
</g>
<!-- Node3&#45;&gt;Node18 -->
<g id="edge60" class="edge"><title>Node3&#45;&gt;Node18</title>
<path fill="none" stroke="midnightblue" d="M647.536,-313.934C679.099,-308.701 717.61,-302.022 752,-295.229 763.938,-292.871 776.875,-290.07 788.634,-287.429"/>
<polygon fill="midnightblue" stroke="midnightblue" points="646.844,-310.501 637.546,-315.581 647.982,-317.408 646.844,-310.501"/>
</g>
<!-- Node4 -->
<g id="node6" class="node"><title>Node4</title>
<a xlink:href="class_urho3_d_1_1_animatable.html" target="_top" xlink:title="Base class for animatable object, an animatable object can be set animation on it&#39;s attributes...">
<polygon fill="none" stroke="red" points="230,-315.729 230,-336.729 344,-336.729 344,-315.729 230,-315.729"/>
<text text-anchor="middle" x="287" y="-323.729" font-family="FreeSans" font-size="10.00">Urho3D::Animatable</text>
</a>
</g>
<!-- Node4&#45;&gt;Node3 -->
<g id="edge6" class="edge"><title>Node4&#45;&gt;Node3</title>
<path fill="none" stroke="midnightblue" d="M354.312,-325.774C406.878,-325.419 479.003,-324.932 528.105,-324.6"/>
<polygon fill="midnightblue" stroke="midnightblue" points="354.048,-322.276 344.072,-325.843 354.095,-329.276 354.048,-322.276"/>
</g>
<!-- Node5 -->
<g id="node8" class="node"><title>Node5</title>
<a xlink:href="class_urho3_d_1_1_int_rect.html" target="_top" xlink:title="Two&#45;dimensional bounding rectangle with integer values.">
<polygon fill="none" stroke="black" points="241,-556.729 241,-577.729 333,-577.729 333,-556.729 241,-556.729"/>
<text text-anchor="middle" x="287" y="-564.729" font-family="FreeSans" font-size="10.00">Urho3D::IntRect</text>
</a>
</g>
<!-- Node5&#45;&gt;Node2 -->
<g id="edge40" class="edge"><title>Node5&#45;&gt;Node2</title>
<path fill="none" stroke="#9a32cd" stroke-dasharray="5,2" d="M343.323,-566.865C384.625,-567.221 441.984,-569.008 492,-575.229 682.19,-598.883 904.434,-658.406 990.441,-682.678"/>
<polygon fill="#9a32cd" stroke="#9a32cd" points="343.203,-563.365 333.182,-566.804 343.161,-570.365 343.203,-563.365"/>
<text text-anchor="middle" x="713" y="-650.229" font-family="FreeSans" font-size="10.00"> imageRect_</text>
<text text-anchor="middle" x="713" y="-637.229" font-family="FreeSans" font-size="10.00">border_</text>
<text text-anchor="middle" x="713" y="-624.229" font-family="FreeSans" font-size="10.00">imageBorder_</text>
</g>
<!-- Node5&#45;&gt;Node3 -->
<g id="edge8" class="edge"><title>Node5&#45;&gt;Node3</title>
<path fill="none" stroke="#9a32cd" stroke-dasharray="5,2" d="M343.262,-563.468C358.056,-560.515 373.387,-555.534 386,-547.229 397.738,-539.5 393.871,-530.972 404,-521.229 437.411,-489.091 465.581,-503.323 492,-465.229 514.007,-433.498 489.404,-412.894 510,-380.229 522.694,-360.097 545.341,-344.429 562.055,-334.849"/>
<polygon fill="#9a32cd" stroke="#9a32cd" points="342.411,-560.063 333.147,-565.204 343.595,-566.962 342.411,-560.063"/>
<text text-anchor="middle" x="448" y="-538.229" font-family="FreeSans" font-size="10.00"> clipBorder_</text>
<text text-anchor="middle" x="448" y="-525.229" font-family="FreeSans" font-size="10.00">layoutBorder_</text>
</g>
<!-- Node5&#45;&gt;Node5 -->
<g id="edge10" class="edge"><title>Node5&#45;&gt;Node5</title>
<path fill="none" stroke="#9a32cd" stroke-dasharray="5,2" d="M259.58,-587.284C261.379,-592.393 270.519,-596.229 287,-596.229 312.727,-596.229 320.565,-586.882 310.516,-577.937"/>
<polygon fill="#9a32cd" stroke="#9a32cd" points="262.86,-588.513 263.484,-577.937 256.401,-585.816 262.86,-588.513"/>
<text text-anchor="middle" x="287" y="-600.229" font-family="FreeSans" font-size="10.00"> ZERO</text>
</g>
<!-- Node6 -->
<g id="node11" class="node"><title>Node6</title>
<a xlink:href="class_urho3_d_1_1_vector.html" target="_top" xlink:title="Urho3D::Vector\&lt; Urho3D\l::SharedPtr\&lt; Urho3D::UIElement \&gt; \&gt;">
<polygon fill="none" stroke="red" points="188.5,-109.229 188.5,-143.229 385.5,-143.229 385.5,-109.229 188.5,-109.229"/>
<text text-anchor="start" x="196.5" y="-130.229" font-family="FreeSans" font-size="10.00">Urho3D::Vector&lt; Urho3D</text>
<text text-anchor="middle" x="287" y="-117.229" font-family="FreeSans" font-size="10.00">::SharedPtr&lt; Urho3D::UIElement &gt; &gt;</text>
</a>
</g>
<!-- Node6&#45;&gt;Node3 -->
<g id="edge12" class="edge"><title>Node6&#45;&gt;Node3</title>
<path fill="none" stroke="#9a32cd" stroke-dasharray="5,2" d="M383.958,-108.703C422.316,-107.454 463.872,-114.121 492,-141.229 518.24,-166.517 486.337,-276.514 510,-304.229 514.949,-310.025 521.402,-314.222 528.425,-317.246"/>
<polygon fill="#9a32cd" stroke="#9a32cd" points="383.574,-105.217 373.763,-109.218 383.927,-112.208 383.574,-105.217"/>
<text text-anchor="middle" x="448" y="-145.229" font-family="FreeSans" font-size="10.00"> children_</text>
</g>
<!-- Node7 -->
<g id="node13" class="node"><title>Node7</title>
<a xlink:href="class_urho3_d_1_1_vector2.html" target="_top" xlink:title="Two&#45;dimensional vector.">
<polygon fill="none" stroke="black" points="239,-627.729 239,-648.729 335,-648.729 335,-627.729 239,-627.729"/>
<text text-anchor="middle" x="287" y="-635.729" font-family="FreeSans" font-size="10.00">Urho3D::Vector2</text>
</a>
</g>
<!-- Node7&#45;&gt;Node3 -->
<g id="edge14" class="edge"><title>Node7&#45;&gt;Node3</title>
<path fill="none" stroke="#9a32cd" stroke-dasharray="5,2" d="M344.999,-631.803C358.906,-628.847 373.376,-624.531 386,-618.229 395.577,-613.448 395.326,-608.5 404,-602.229 440.634,-575.745 467.408,-589.159 492,-551.229 533.574,-487.107 472.65,-446.9 510,-380.229 521.476,-359.744 543.843,-344.32 560.809,-334.899"/>
<polygon fill="#9a32cd" stroke="#9a32cd" points="344.165,-628.399 335.006,-633.724 345.487,-635.273 344.165,-628.399"/>
<text text-anchor="middle" x="448" y="-606.229" font-family="FreeSans" font-size="10.00"> layoutFlexScale_</text>
</g>
<!-- Node7&#45;&gt;Node7 -->
<g id="edge16" class="edge"><title>Node7&#45;&gt;Node7</title>
<path fill="none" stroke="#9a32cd" stroke-dasharray="5,2" d="M259.58,-658.284C261.379,-663.393 270.519,-667.229 287,-667.229 312.727,-667.229 320.565,-657.882 310.516,-648.937"/>
<polygon fill="#9a32cd" stroke="#9a32cd" points="262.86,-659.513 263.484,-648.937 256.401,-656.816 262.86,-659.513"/>
<text text-anchor="middle" x="287" y="-736.229" font-family="FreeSans" font-size="10.00"> ONE</text>
<text text-anchor="middle" x="287" y="-723.229" font-family="FreeSans" font-size="10.00">DOWN</text>
<text text-anchor="middle" x="287" y="-710.229" font-family="FreeSans" font-size="10.00">RIGHT</text>
<text text-anchor="middle" x="287" y="-697.229" font-family="FreeSans" font-size="10.00">LEFT</text>
<text text-anchor="middle" x="287" y="-684.229" font-family="FreeSans" font-size="10.00">ZERO</text>
<text text-anchor="middle" x="287" y="-671.229" font-family="FreeSans" font-size="10.00">UP</text>
</g>
<!-- Node23 -->
<g id="node61" class="node"><title>Node23</title>
<a xlink:href="class_urho3_d_1_1_font.html" target="_top" xlink:title="Font resource.">
<polygon fill="none" stroke="black" points="543,-833.729 543,-854.729 623,-854.729 623,-833.729 543,-833.729"/>
<text text-anchor="middle" x="583" y="-841.729" font-family="FreeSans" font-size="10.00">Urho3D::Font</text>
</a>
</g>
<!-- Node7&#45;&gt;Node23 -->
<g id="edge86" class="edge"><title>Node7&#45;&gt;Node23</title>
<path fill="none" stroke="#9a32cd" stroke-dasharray="5,2" d="M345.129,-628.091C397.719,-620.341 470.167,-613.669 492,-631.229 521.075,-654.614 496.778,-678.338 510,-713.229 527.991,-760.704 560.93,-811.862 575.605,-833.547"/>
<polygon fill="#9a32cd" stroke="#9a32cd" points="344.588,-624.633 335.228,-629.596 345.64,-631.553 344.588,-624.633"/>
<text text-anchor="middle" x="448" y="-635.229" font-family="FreeSans" font-size="10.00"> scaledOffset_</text>
</g>
<!-- Node8 -->
<g id="node16" class="node"><title>Node8</title>
<a xlink:href="class_urho3_d_1_1_hash_map.html" target="_top" xlink:title="Urho3D::HashMap\&lt; StringHash,\l Variant \&gt;">
<polygon fill="none" stroke="red" points="201,-57.229 201,-91.229 373,-91.229 373,-57.229 201,-57.229"/>
<text text-anchor="start" x="209" y="-78.229" font-family="FreeSans" font-size="10.00">Urho3D::HashMap&lt; StringHash,</text>
<text text-anchor="middle" x="287" y="-65.229" font-family="FreeSans" font-size="10.00"> Variant &gt;</text>
</a>
</g>
<!-- Node8&#45;&gt;Node3 -->
<g id="edge18" class="edge"><title>Node8&#45;&gt;Node3</title>
<path fill="none" stroke="#9a32cd" stroke-dasharray="5,2" d="M383.447,-57.4375C422.149,-56.382 464.103,-63.3757 492,-91.229 525.615,-124.792 479.622,-267.71 510,-304.229 514.874,-310.088 521.287,-314.319 528.29,-317.359"/>
<polygon fill="#9a32cd" stroke="#9a32cd" points="382.993,-53.9544 373.162,-57.9041 383.31,-60.9472 382.993,-53.9544"/>
<text text-anchor="middle" x="448" y="-95.229" font-family="FreeSans" font-size="10.00"> vars_</text>
</g>
<!-- Node9 -->
<g id="node19" class="node"><title>Node9</title>
<a xlink:href="class_urho3_d_1_1_string.html" target="_top" xlink:title="String class.">
<polygon fill="none" stroke="black" points="0,-208.729 0,-229.729 88,-229.729 88,-208.729 0,-208.729"/>
<text text-anchor="middle" x="44" y="-216.729" font-family="FreeSans" font-size="10.00">Urho3D::String</text>
</a>
</g>
<!-- Node9&#45;&gt;Node1 -->
<g id="edge76" class="edge"><title>Node9&#45;&gt;Node1</title>
<path fill="none" stroke="#9a32cd" stroke-dasharray="5,2" d="M45.2341,-240.126C50.8038,-331.964 74.6924,-700.102 106,-811.229 128.965,-892.743 120.982,-931.455 188,-983.229 223.455,-1010.62 242.197,-1002.23 287,-1002.23 287,-1002.23 287,-1002.23 1308,-1002.23 1435.74,-1002.23 1488.03,-798.295 1498.81,-748.905"/>
<polygon fill="#9a32cd" stroke="#9a32cd" points="48.7134,-239.672 44.6209,-229.9 41.7259,-240.092 48.7134,-239.672"/>
<text text-anchor="middle" x="828" y="-1006.23" font-family="FreeSans" font-size="10.00"> line_</text>
</g>
<!-- Node9&#45;&gt;Node3 -->
<g id="edge22" class="edge"><title>Node9&#45;&gt;Node3</title>
<path fill="none" stroke="#9a32cd" stroke-dasharray="5,2" d="M98.3746,-212.47C166.916,-205.792 287.663,-200.188 386,-228.229 438.486,-243.195 446.806,-259.631 492,-290.229 500.392,-295.911 500.938,-299.691 510,-304.229 517.52,-307.994 525.842,-311.127 534.096,-313.708"/>
<polygon fill="#9a32cd" stroke="#9a32cd" points="97.8355,-209.007 88.2418,-213.503 98.5451,-215.971 97.8355,-209.007"/>
<text text-anchor="middle" x="287" y="-245.229" font-family="FreeSans" font-size="10.00"> appliedStyle_</text>
<text text-anchor="middle" x="287" y="-232.229" font-family="FreeSans" font-size="10.00">name_</text>
</g>
<!-- Node9&#45;&gt;Node9 -->
<g id="edge24" class="edge"><title>Node9&#45;&gt;Node9</title>
<path fill="none" stroke="#9a32cd" stroke-dasharray="5,2" d="M26.6768,-239.656C28.0132,-244.578 33.7876,-248.229 44,-248.229 60.3398,-248.229 65.3184,-238.882 58.9356,-229.937"/>
<polygon fill="#9a32cd" stroke="#9a32cd" points="30.0775,-240.483 29.0644,-229.937 23.2796,-238.813 30.0775,-240.483"/>
<text text-anchor="middle" x="44" y="-252.229" font-family="FreeSans" font-size="10.00"> EMPTY</text>
</g>
<!-- Node10 -->
<g id="node22" class="node"><title>Node10</title>
<a xlink:href="class_urho3_d_1_1_x_path_query.html" target="_top" xlink:title="XPath query.">
<polygon fill="none" stroke="black" points="229.5,-161.729 229.5,-182.729 344.5,-182.729 344.5,-161.729 229.5,-161.729"/>
<text text-anchor="middle" x="287" y="-169.729" font-family="FreeSans" font-size="10.00">Urho3D::XPathQuery</text>
</a>
</g>
<!-- Node9&#45;&gt;Node10 -->
<g id="edge28" class="edge"><title>Node9&#45;&gt;Node10</title>
<path fill="none" stroke="#9a32cd" stroke-dasharray="5,2" d="M73.3067,-204.314C83.4294,-199.747 94.9958,-195.161 106,-192.229 146.325,-181.485 193.187,-176.503 229.124,-174.198"/>
<polygon fill="#9a32cd" stroke="#9a32cd" points="71.6745,-201.213 64.1093,-208.631 74.6488,-207.55 71.6745,-201.213"/>
<text text-anchor="middle" x="138" y="-196.229" font-family="FreeSans" font-size="10.00"> queryString_</text>
</g>
<!-- Node16 -->
<g id="node38" class="node"><title>Node16</title>
<a xlink:href="class_urho3_d_1_1_resource.html" target="_top" xlink:title="Base class for resources.">
<polygon fill="none" stroke="red" points="235.5,-834.729 235.5,-855.729 338.5,-855.729 338.5,-834.729 235.5,-834.729"/>
<text text-anchor="middle" x="287" y="-842.729" font-family="FreeSans" font-size="10.00">Urho3D::Resource</text>
</a>
</g>
<!-- Node9&#45;&gt;Node16 -->
<g id="edge48" class="edge"><title>Node9&#45;&gt;Node16</title>
<path fill="none" stroke="#9a32cd" stroke-dasharray="5,2" d="M45.9641,-239.903C55.5439,-336.316 100.495,-740.646 188,-825.229 200.545,-837.355 218.293,-843.076 235.306,-845.539"/>
<polygon fill="#9a32cd" stroke="#9a32cd" points="49.4465,-239.551 44.9921,-229.938 42.4796,-240.231 49.4465,-239.551"/>
<text text-anchor="middle" x="138" y="-798.229" font-family="FreeSans" font-size="10.00"> name_</text>
</g>
<!-- Node9&#45;&gt;Node18 -->
<g id="edge68" class="edge"><title>Node9&#45;&gt;Node18</title>
<path fill="none" stroke="#9a32cd" stroke-dasharray="5,2" d="M54.1317,-198.955C74.0025,-161.637 121.974,-82.7384 188,-48.229 308.001,14.4915 362.025,9.72505 492,-28.229 623.603,-66.6584 647.299,-105.72 752,-194.229 779.635,-217.59 806.806,-250.764 819.904,-267.577"/>
<polygon fill="#9a32cd" stroke="#9a32cd" points="50.7786,-197.818 49.2806,-208.307 56.9923,-201.041 50.7786,-197.818"/>
<text text-anchor="middle" x="448" y="-45.229" font-family="FreeSans" font-size="10.00"> stringId_</text>
<text text-anchor="middle" x="448" y="-32.229" font-family="FreeSans" font-size="10.00">text_</text>
</g>
<!-- Node10&#45;&gt;Node3 -->
<g id="edge26" class="edge"><title>Node10&#45;&gt;Node3</title>
<path fill="none" stroke="#9a32cd" stroke-dasharray="5,2" d="M346.549,-160.377C392.269,-154.99 453.844,-156.372 492,-192.229 528.739,-226.755 476.327,-266.706 510,-304.229 515.003,-309.804 521.397,-313.887 528.314,-316.868"/>
<polygon fill="#9a32cd" stroke="#9a32cd" points="345.923,-156.929 336.465,-161.703 346.836,-163.869 345.923,-156.929"/>
<text text-anchor="middle" x="448" y="-196.229" font-family="FreeSans" font-size="10.00"> styleXPathQuery_</text>
</g>
<!-- Node11 -->
<g id="node25" class="node"><title>Node11</title>
<a xlink:href="class_urho3_d_1_1_shared_ptr.html" target="_top" xlink:title="Urho3D::SharedPtr\&lt;\l Urho3D::XMLFile \&gt;">
<polygon fill="none" stroke="red" points="229,-263.229 229,-297.229 345,-297.229 345,-263.229 229,-263.229"/>
<text text-anchor="start" x="237" y="-284.229" font-family="FreeSans" font-size="10.00">Urho3D::SharedPtr&lt;</text>
<text text-anchor="middle" x="287" y="-271.229" font-family="FreeSans" font-size="10.00"> Urho3D::XMLFile &gt;</text>
</a>
</g>
<!-- Node11&#45;&gt;Node3 -->
<g id="edge30" class="edge"><title>Node11&#45;&gt;Node3</title>
<path fill="none" stroke="#9a32cd" stroke-dasharray="5,2" d="M355.589,-288.328C395.477,-293.271 446.668,-300.015 492,-307.229 504.063,-309.149 516.984,-311.427 529.19,-313.681"/>
<polygon fill="#9a32cd" stroke="#9a32cd" points="355.793,-284.827 345.441,-287.079 354.938,-291.774 355.793,-284.827"/>
<text text-anchor="middle" x="448" y="-311.229" font-family="FreeSans" font-size="10.00"> defaultStyle_</text>
</g>
<!-- Node12 -->
<g id="node27" class="node"><title>Node12</title>
<a xlink:href="class_urho3_d_1_1_int_vector2.html" target="_top" xlink:title="Two&#45;dimensional vector with integer values.">
<polygon fill="none" stroke="black" points="233,-763.729 233,-784.729 341,-784.729 341,-763.729 233,-763.729"/>
<text text-anchor="middle" x="287" y="-771.729" font-family="FreeSans" font-size="10.00">Urho3D::IntVector2</text>
</a>
</g>
<!-- Node12&#45;&gt;Node2 -->
<g id="edge54" class="edge"><title>Node12&#45;&gt;Node2</title>
<path fill="none" stroke="#9a32cd" stroke-dasharray="5,2" d="M351.47,-769.578C461.367,-761.367 691.934,-742.907 886,-719.229 913.639,-715.857 920.596,-715.161 948,-710.229 958.632,-708.316 970.015,-706.015 980.736,-703.734"/>
<polygon fill="#9a32cd" stroke="#9a32cd" points="350.929,-766.109 341.217,-770.341 351.449,-773.09 350.929,-766.109"/>
<text text-anchor="middle" x="713" y="-745.229" font-family="FreeSans" font-size="10.00"> hoverOffset_</text>
</g>
<!-- Node12&#45;&gt;Node3 -->
<g id="edge32" class="edge"><title>Node12&#45;&gt;Node3</title>
<path fill="none" stroke="#9a32cd" stroke-dasharray="5,2" d="M351.148,-772.376C364.09,-769.168 376.592,-763.593 386,-754.229 413.986,-726.374 376.809,-695.861 404,-667.229 431.837,-637.916 466.218,-675.365 492,-644.229 529.503,-598.938 482.209,-432.05 510,-380.229 521.097,-359.536 543.52,-344.143 560.603,-334.786"/>
<polygon fill="#9a32cd" stroke="#9a32cd" points="350.314,-768.974 341.209,-774.391 351.705,-775.834 350.314,-768.974"/>
<text text-anchor="middle" x="448" y="-749.229" font-family="FreeSans" font-size="10.00"> maxSize_</text>
<text text-anchor="middle" x="448" y="-736.229" font-family="FreeSans" font-size="10.00">childOffset_</text>
<text text-anchor="middle" x="448" y="-723.229" font-family="FreeSans" font-size="10.00">size_</text>
<text text-anchor="middle" x="448" y="-710.229" font-family="FreeSans" font-size="10.00">position_</text>
<text text-anchor="start" x="413" y="-697.229" font-family="FreeSans" font-size="10.00">screenPosition</text>
<text text-anchor="middle" x="448" y="-684.229" font-family="FreeSans" font-size="10.00">_</text>
<text text-anchor="middle" x="448" y="-671.229" font-family="FreeSans" font-size="10.00">minSize_</text>
</g>
<!-- Node12&#45;&gt;Node12 -->
<g id="edge34" class="edge"><title>Node12&#45;&gt;Node12</title>
<path fill="none" stroke="#9a32cd" stroke-dasharray="5,2" d="M259.58,-794.284C261.379,-799.393 270.519,-803.229 287,-803.229 312.727,-803.229 320.565,-793.882 310.516,-784.937"/>
<polygon fill="#9a32cd" stroke="#9a32cd" points="262.86,-795.513 263.484,-784.937 256.401,-792.816 262.86,-795.513"/>
<text text-anchor="middle" x="287" y="-807.229" font-family="FreeSans" font-size="10.00"> ZERO</text>
</g>
<!-- Node12&#45;&gt;Node23 -->
<g id="edge88" class="edge"><title>Node12&#45;&gt;Node23</title>
<path fill="none" stroke="#9a32cd" stroke-dasharray="5,2" d="M341.398,-787.093C399.631,-800.865 490.654,-822.39 542.762,-834.713"/>
<polygon fill="#9a32cd" stroke="#9a32cd" points="342.172,-783.68 331.635,-784.784 340.561,-790.492 342.172,-783.68"/>
<text text-anchor="middle" x="448" y="-825.229" font-family="FreeSans" font-size="10.00"> absoluteOffset_</text>
</g>
<!-- Node13 -->
<g id="node30" class="node"><title>Node13</title>
<a xlink:href="class_urho3_d_1_1_color.html" target="_top" xlink:title="RGBA color.">
<polygon fill="none" stroke="black" points="245,-355.729 245,-376.729 329,-376.729 329,-355.729 245,-355.729"/>
<text text-anchor="middle" x="287" y="-363.729" font-family="FreeSans" font-size="10.00">Urho3D::Color</text>
</a>
</g>
<!-- Node13&#45;&gt;Node3 -->
<g id="edge36" class="edge"><title>Node13&#45;&gt;Node3</title>
<path fill="none" stroke="#9a32cd" stroke-dasharray="5,2" d="M339.175,-359.35C380.626,-353.825 440.058,-345.771 492,-338.229 503.706,-336.529 516.248,-334.642 528.165,-332.819"/>
<polygon fill="#9a32cd" stroke="#9a32cd" points="338.49,-355.91 329.039,-360.698 339.413,-362.849 338.49,-355.91"/>
<text text-anchor="middle" x="448" y="-366.229" font-family="FreeSans" font-size="10.00"> derivedColor_</text>
<text text-anchor="middle" x="448" y="-353.229" font-family="FreeSans" font-size="10.00">color_</text>
</g>
<!-- Node13&#45;&gt;Node13 -->
<g id="edge38" class="edge"><title>Node13&#45;&gt;Node13</title>
<path fill="none" stroke="#9a32cd" stroke-dasharray="5,2" d="M259.58,-386.284C261.379,-391.393 270.519,-395.229 287,-395.229 312.727,-395.229 320.565,-385.882 310.516,-376.937"/>
<polygon fill="#9a32cd" stroke="#9a32cd" points="262.86,-387.513 263.484,-376.937 256.401,-384.816 262.86,-387.513"/>
<text text-anchor="middle" x="287" y="-529.229" font-family="FreeSans" font-size="10.00"> CYAN</text>
<text text-anchor="middle" x="287" y="-516.229" font-family="FreeSans" font-size="10.00">GRAY</text>
<text text-anchor="middle" x="287" y="-503.229" font-family="FreeSans" font-size="10.00">YELLOW</text>
<text text-anchor="middle" x="287" y="-490.229" font-family="FreeSans" font-size="10.00">MAGENTA</text>
<text text-anchor="middle" x="287" y="-477.229" font-family="FreeSans" font-size="10.00">WHITE</text>
<text text-anchor="middle" x="287" y="-464.229" font-family="FreeSans" font-size="10.00">TRANSPARENT</text>
<text text-anchor="middle" x="287" y="-451.229" font-family="FreeSans" font-size="10.00">BLUE</text>
<text text-anchor="middle" x="287" y="-438.229" font-family="FreeSans" font-size="10.00">BLACK</text>
<text text-anchor="middle" x="287" y="-425.229" font-family="FreeSans" font-size="10.00">RED</text>
<text text-anchor="middle" x="287" y="-412.229" font-family="FreeSans" font-size="10.00">GREEN</text>
<text text-anchor="middle" x="287" y="-399.229" font-family="FreeSans" font-size="10.00">...</text>
</g>
<!-- Node15 -->
<g id="node36" class="node"><title>Node15</title>
<a xlink:href="class_urho3_d_1_1_texture.html" target="_top" xlink:title="Base class for texture resources.">
<polygon fill="none" stroke="red" points="536,-682.729 536,-703.729 630,-703.729 630,-682.729 536,-682.729"/>
<text text-anchor="middle" x="583" y="-690.729" font-family="FreeSans" font-size="10.00">Urho3D::Texture</text>
</a>
</g>
<!-- Node13&#45;&gt;Node15 -->
<g id="edge52" class="edge"><title>Node13&#45;&gt;Node15</title>
<path fill="none" stroke="#9a32cd" stroke-dasharray="5,2" d="M320.021,-380.916C343.347,-391.149 375.418,-404.935 404,-416.229 442.705,-431.523 462.472,-418.903 492,-448.229 561.7,-517.453 578.594,-644.818 582.147,-682.475"/>
<polygon fill="#9a32cd" stroke="#9a32cd" points="321.157,-377.592 310.595,-376.765 318.336,-383.998 321.157,-377.592"/>
<text text-anchor="middle" x="448" y="-452.229" font-family="FreeSans" font-size="10.00"> borderColor_</text>
</g>
<!-- Node13&#45;&gt;Node18 -->
<g id="edge70" class="edge"><title>Node13&#45;&gt;Node18</title>
<path fill="none" stroke="#9a32cd" stroke-dasharray="5,2" d="M339.44,-376.872C412.049,-389.52 546.626,-405.374 656,-375.229 720.778,-357.375 787.188,-310 814.759,-288.774"/>
<polygon fill="#9a32cd" stroke="#9a32cd" points="339.647,-373.354 329.187,-375.035 338.413,-380.244 339.647,-373.354"/>
<text text-anchor="middle" x="583" y="-422.229" font-family="FreeSans" font-size="10.00"> selectionColor_</text>
<text text-anchor="middle" x="583" y="-409.229" font-family="FreeSans" font-size="10.00">effectColor_</text>
<text text-anchor="middle" x="583" y="-396.229" font-family="FreeSans" font-size="10.00">hoverColor_</text>
</g>
<!-- Node14 -->
<g id="node34" class="node"><title>Node14</title>
<a xlink:href="class_urho3_d_1_1_shared_ptr.html" target="_top" xlink:title="Urho3D::SharedPtr\&lt;\l Urho3D::Texture \&gt;">
<polygon fill="none" stroke="black" points="770,-676.229 770,-710.229 886,-710.229 886,-676.229 770,-676.229"/>
<text text-anchor="start" x="778" y="-697.229" font-family="FreeSans" font-size="10.00">Urho3D::SharedPtr&lt;</text>
<text text-anchor="middle" x="828" y="-684.229" font-family="FreeSans" font-size="10.00"> Urho3D::Texture &gt;</text>
</a>
</g>
<!-- Node14&#45;&gt;Node2 -->
<g id="edge42" class="edge"><title>Node14&#45;&gt;Node2</title>
<path fill="none" stroke="#9a32cd" stroke-dasharray="5,2" d="M896.264,-693.229C918.806,-693.229 943.728,-693.229 965.714,-693.229"/>
<polygon fill="#9a32cd" stroke="#9a32cd" points="896.094,-689.729 886.094,-693.229 896.094,-696.729 896.094,-689.729"/>
<text text-anchor="middle" x="926" y="-697.229" font-family="FreeSans" font-size="10.00"> texture_</text>
</g>
<!-- Node14&#45;&gt;Node15 -->
<g id="edge50" class="edge"><title>Node14&#45;&gt;Node15</title>
<path fill="none" stroke="#9a32cd" stroke-dasharray="5,2" d="M759.43,-693.229C718.246,-693.229 666.9,-693.229 630.238,-693.229"/>
<polygon fill="#9a32cd" stroke="#9a32cd" points="759.667,-696.729 769.667,-693.229 759.667,-689.729 759.667,-696.729"/>
<text text-anchor="middle" x="713" y="-697.229" font-family="FreeSans" font-size="10.00"> backupTexture_</text>
</g>
<!-- Node15&#45;&gt;Node14 -->
<g id="edge44" class="edge"><title>Node15&#45;&gt;Node14</title>
<path fill="none" stroke="#9a32cd" stroke-dasharray="5,2" d="M640.474,-680.832C651.548,-678.916 663.095,-677.239 674,-676.229 708.519,-673.032 717.543,-672.422 752,-676.229 757.779,-676.867 763.76,-677.771 769.714,-678.833"/>
<polygon fill="#9a32cd" stroke="#9a32cd" points="639.682,-677.419 630.468,-682.648 640.932,-684.306 639.682,-677.419"/>
<text text-anchor="middle" x="713" y="-680.229" font-family="FreeSans" font-size="10.00"> ptr_</text>
</g>
<!-- Node16&#45;&gt;Node15 -->
<g id="edge46" class="edge"><title>Node16&#45;&gt;Node15</title>
<path fill="none" stroke="midnightblue" d="M348.716,-849.846C391.72,-850.224 448.875,-844.83 492,-819.229 538.87,-791.405 568.432,-729.041 578.818,-703.969"/>
<polygon fill="midnightblue" stroke="midnightblue" points="348.727,-846.346 338.661,-849.651 348.591,-853.344 348.727,-846.346"/>
</g>
<!-- Node16&#45;&gt;Node23 -->
<g id="edge80" class="edge"><title>Node16&#45;&gt;Node23</title>
<path fill="none" stroke="midnightblue" d="M348.763,-845.02C407.138,-844.823 493.002,-844.533 542.936,-844.364"/>
<polygon fill="midnightblue" stroke="midnightblue" points="348.547,-841.521 338.559,-845.055 348.571,-848.521 348.547,-841.521"/>
</g>
<!-- Node17 -->
<g id="node44" class="node"><title>Node17</title>
<a xlink:href="class_urho3_d_1_1_shared_ptr.html" target="_top" xlink:title="Urho3D::SharedPtr\&lt;\l Urho3D::Text \&gt;">
<polygon fill="none" stroke="black" points="1106,-375.229 1106,-409.229 1222,-409.229 1222,-375.229 1106,-375.229"/>
<text text-anchor="start" x="1114" y="-396.229" font-family="FreeSans" font-size="10.00">Urho3D::SharedPtr&lt;</text>
<text text-anchor="middle" x="1164" y="-383.229" font-family="FreeSans" font-size="10.00"> Urho3D::Text &gt;</text>
</a>
</g>
<!-- Node17&#45;&gt;Node1 -->
<g id="edge56" class="edge"><title>Node17&#45;&gt;Node1</title>
<path fill="none" stroke="#9a32cd" stroke-dasharray="5,2" d="M1187.94,-416.807C1255.27,-485.933 1444.39,-680.102 1490.68,-727.63"/>
<polygon fill="#9a32cd" stroke="#9a32cd" points="1190.2,-414.109 1180.71,-409.387 1185.18,-418.993 1190.2,-414.109"/>
<text text-anchor="middle" x="1308" y="-613.229" font-family="FreeSans" font-size="10.00"> text_</text>
</g>
<!-- Node18&#45;&gt;Node17 -->
<g id="edge58" class="edge"><title>Node18&#45;&gt;Node17</title>
<path fill="none" stroke="#9a32cd" stroke-dasharray="5,2" d="M868.756,-292.057C930.297,-312.937 1046.83,-352.473 1113.61,-375.131"/>
<polygon fill="#9a32cd" stroke="#9a32cd" points="869.602,-288.648 859.008,-288.749 867.353,-295.277 869.602,-288.648"/>
<text text-anchor="middle" x="926" y="-322.229" font-family="FreeSans" font-size="10.00"> ptr_</text>
</g>
<!-- Node19 -->
<g id="node49" class="node"><title>Node19</title>
<a xlink:href="class_urho3_d_1_1_p_o_d_vector.html" target="_top" xlink:title="Urho3D::PODVector\&lt;\l int \&gt;">
<polygon fill="none" stroke="red" points="523.5,-261.229 523.5,-295.229 642.5,-295.229 642.5,-261.229 523.5,-261.229"/>
<text text-anchor="start" x="531.5" y="-282.229" font-family="FreeSans" font-size="10.00">Urho3D::PODVector&lt;</text>
<text text-anchor="middle" x="583" y="-269.229" font-family="FreeSans" font-size="10.00"> int &gt;</text>
</a>
</g>
<!-- Node19&#45;&gt;Node18 -->
<g id="edge62" class="edge"><title>Node19&#45;&gt;Node18</title>
<path fill="none" stroke="#9a32cd" stroke-dasharray="5,2" d="M652.712,-278.229C696.836,-278.229 752.259,-278.229 788.836,-278.229"/>
<polygon fill="#9a32cd" stroke="#9a32cd" points="652.62,-274.729 642.62,-278.229 652.62,-281.729 652.62,-274.729"/>
<text text-anchor="middle" x="713" y="-282.229" font-family="FreeSans" font-size="10.00"> rowWidths_</text>
</g>
<!-- Node20 -->
<g id="node51" class="node"><title>Node20</title>
<a xlink:href="class_urho3_d_1_1_weak_ptr.html" target="_top" xlink:title="Urho3D::WeakPtr\&lt; Urho3D\l::FontFace \&gt;">
<polygon fill="none" stroke="red" points="510,-209.229 510,-243.229 656,-243.229 656,-209.229 510,-209.229"/>
<text text-anchor="start" x="518" y="-230.229" font-family="FreeSans" font-size="10.00">Urho3D::WeakPtr&lt; Urho3D</text>
<text text-anchor="middle" x="583" y="-217.229" font-family="FreeSans" font-size="10.00">::FontFace &gt;</text>
</a>
</g>
<!-- Node20&#45;&gt;Node18 -->
<g id="edge64" class="edge"><title>Node20&#45;&gt;Node18</title>
<path fill="none" stroke="#9a32cd" stroke-dasharray="5,2" d="M666.18,-243.182C693.536,-248.831 724.086,-255.217 752,-261.229 764.028,-263.82 777.108,-266.716 788.972,-269.375"/>
<polygon fill="#9a32cd" stroke="#9a32cd" points="666.757,-239.728 656.256,-241.137 665.344,-246.584 666.757,-239.728"/>
<text text-anchor="middle" x="713" y="-265.229" font-family="FreeSans" font-size="10.00"> fontFace_</text>
</g>
<!-- Node21 -->
<g id="node53" class="node"><title>Node21</title>
<a xlink:href="class_urho3_d_1_1_p_o_d_vector.html" target="_top" xlink:title="Urho3D::PODVector\&lt;\l Urho3D::CharLocation \&gt;">
<polygon fill="none" stroke="red" points="514.5,-157.229 514.5,-191.229 651.5,-191.229 651.5,-157.229 514.5,-157.229"/>
<text text-anchor="start" x="522.5" y="-178.229" font-family="FreeSans" font-size="10.00">Urho3D::PODVector&lt;</text>
<text text-anchor="middle" x="583" y="-165.229" font-family="FreeSans" font-size="10.00"> Urho3D::CharLocation &gt;</text>
</a>
</g>
<!-- Node21&#45;&gt;Node18 -->
<g id="edge66" class="edge"><title>Node21&#45;&gt;Node18</title>
<path fill="none" stroke="#9a32cd" stroke-dasharray="5,2" d="M660.611,-194.191C689.93,-202.973 723.158,-214.453 752,-228.229 775.23,-239.324 799.689,-256.561 814.395,-267.62"/>
<polygon fill="#9a32cd" stroke="#9a32cd" points="661.411,-190.778 650.83,-191.316 659.437,-197.494 661.411,-190.778"/>
<text text-anchor="middle" x="713" y="-232.229" font-family="FreeSans" font-size="10.00"> charLocations_</text>
</g>
<!-- Node22&#45;&gt;Node1 -->
<g id="edge72" class="edge"><title>Node22&#45;&gt;Node1</title>
<path fill="none" stroke="#9a32cd" stroke-dasharray="5,2" d="M1386.21,-738.229C1408.58,-738.229 1432.31,-738.229 1452.35,-738.229"/>
<polygon fill="#9a32cd" stroke="#9a32cd" points="1386.04,-734.729 1376.04,-738.229 1386.04,-741.729 1386.04,-734.729"/>
<text text-anchor="middle" x="1414" y="-742.229" font-family="FreeSans" font-size="10.00"> cursor_</text>
</g>
<!-- Node23&#45;&gt;Node1 -->
<g id="edge78" class="edge"><title>Node23&#45;&gt;Node1</title>
<path fill="none" stroke="#9a32cd" stroke-dasharray="5,2" d="M633.349,-837.707C682.81,-831.871 760.467,-824.229 828,-824.229 828,-824.229 828,-824.229 1308,-824.229 1381.37,-824.229 1457.9,-771.739 1487.87,-748.774"/>
<polygon fill="#9a32cd" stroke="#9a32cd" points="632.748,-834.254 623.236,-838.922 633.582,-841.204 632.748,-834.254"/>
<text text-anchor="middle" x="1027" y="-828.229" font-family="FreeSans" font-size="10.00"> lastFont_</text>
</g>
<!-- Node24 -->
<g id="node64" class="node"><title>Node24</title>
<a xlink:href="class_urho3_d_1_1_hash_map.html" target="_top" xlink:title="Urho3D::HashMap\&lt; int,\l Urho3D::SharedPtr\&lt; Urho3D\l::FontFace \&gt; \&gt;">
<polygon fill="none" stroke="red" points="208,-926.729 208,-973.729 366,-973.729 366,-926.729 208,-926.729"/>
<text text-anchor="start" x="216" y="-960.729" font-family="FreeSans" font-size="10.00">Urho3D::HashMap&lt; int,</text>
<text text-anchor="start" x="216" y="-947.729" font-family="FreeSans" font-size="10.00"> Urho3D::SharedPtr&lt; Urho3D</text>
<text text-anchor="middle" x="287" y="-934.729" font-family="FreeSans" font-size="10.00">::FontFace &gt; &gt;</text>
</a>
</g>
<!-- Node24&#45;&gt;Node23 -->
<g id="edge82" class="edge"><title>Node24&#45;&gt;Node23</title>
<path fill="none" stroke="#9a32cd" stroke-dasharray="5,2" d="M376.423,-926.484C412.728,-915.995 454.797,-902.746 492,-888.229 517.339,-878.341 545.354,-864.297 563.516,-854.754"/>
<polygon fill="#9a32cd" stroke="#9a32cd" points="374.996,-923.252 366.345,-929.369 376.922,-929.982 374.996,-923.252"/>
<text text-anchor="middle" x="448" y="-920.229" font-family="FreeSans" font-size="10.00"> faces_</text>
</g>
<!-- Node25 -->
<g id="node66" class="node"><title>Node25</title>
<a xlink:href="class_urho3_d_1_1_shared_array_ptr.html" target="_top" xlink:title="Urho3D::SharedArrayPtr\l\&lt; unsigned char \&gt;">
<polygon fill="none" stroke="red" points="220.5,-874.229 220.5,-908.229 353.5,-908.229 353.5,-874.229 220.5,-874.229"/>
<text text-anchor="start" x="228.5" y="-895.229" font-family="FreeSans" font-size="10.00">Urho3D::SharedArrayPtr</text>
<text text-anchor="middle" x="287" y="-882.229" font-family="FreeSans" font-size="10.00">&lt; unsigned char &gt;</text>
</a>
</g>
<!-- Node25&#45;&gt;Node23 -->
<g id="edge84" class="edge"><title>Node25&#45;&gt;Node23</title>
<path fill="none" stroke="#9a32cd" stroke-dasharray="5,2" d="M363.9,-879.019C421.164,-869.926 497.054,-857.876 542.835,-850.606"/>
<polygon fill="#9a32cd" stroke="#9a32cd" points="363.125,-875.598 353.797,-880.623 364.222,-882.511 363.125,-875.598"/>
<text text-anchor="middle" x="448" y="-875.229" font-family="FreeSans" font-size="10.00"> fontData_</text>
</g>
</g>
</svg>
        <g id="navigator" transform="translate(0 0)" fill="#404254">
                <rect fill="#f2f5e9" fill-opacity="0.5" stroke="#606060" stroke-width=".5" x="0" y="0" width="60" height="60"/>
                <use id="zoomplus" xlink:href="#zoomPlus" x="17" y="9" onmousedown="handleZoom(evt,'in')"/>
                <use id="zoomminus" xlink:href="#zoomMin" x="42" y="9" onmousedown="handleZoom(evt,'out')"/>
                <use id="reset" xlink:href="#resetDef" x="30" y="36" onmousedown="handleReset()"/>
                <g id="arrowUp" xlink:href="#dirArrow" transform="translate(30 24)" onmousedown="handlePan(0,-1)">
                  <use xlink:href="#rim" fill="#404040">
                        <set attributeName="fill" to="#808080" begin="arrowUp.mouseover" end="arrowUp.mouseout"/>
                  </use>
                  <path fill="none" stroke="white" stroke-width="1.5" d="M0,-3.0v7 M-2.5,-0.5L0,-3.0L2.5,-0.5"/>
                </g>
                <g id="arrowRight" xlink:href="#dirArrow" transform="rotate(90) translate(36 -43)" onmousedown="handlePan(1,0)">
                  <use xlink:href="#rim" fill="#404040">
                        <set attributeName="fill" to="#808080" begin="arrowRight.mouseover" end="arrowRight.mouseout"/>
                  </use>
                  <path fill="none" stroke="white" stroke-width="1.5" d="M0,-3.0v7 M-2.5,-0.5L0,-3.0L2.5,-0.5"/>
                </g>
                <g id="arrowDown" xlink:href="#dirArrow" transform="rotate(180) translate(-30 -48)" onmousedown="handlePan(0,1)">
                  <use xlink:href="#rim" fill="#404040">
                        <set attributeName="fill" to="#808080" begin="arrowDown.mouseover" end="arrowDown.mouseout"/>
                  </use>
                  <path fill="none" stroke="white" stroke-width="1.5" d="M0,-3.0v7 M-2.5,-0.5L0,-3.0L2.5,-0.5"/>
                </g>
                <g id="arrowLeft" xlink:href="#dirArrow" transform="rotate(270) translate(-36 17)" onmousedown="handlePan(-1,0)">
                  <use xlink:href="#rim" fill="#404040">
                        <set attributeName="fill" to="#808080" begin="arrowLeft.mouseover" end="arrowLeft.mouseout"/>
                  </use>
                  <path fill="none" stroke="white" stroke-width="1.5" d="M0,-3.0v7 M-2.5,-0.5L0,-3.0L2.5,-0.5"/>
                </g>
        </g>
        <svg viewBox="0 0 15 15" width="100%" height="30px" preserveAspectRatio="xMaxYMin meet">
         <g id="arrow_out" transform="scale(0.3 0.3)">
          <a xlink:href="class_urho3_d_1_1_line_edit__coll__graph_org.svg" target="_base">
           <rect id="button" ry="5" rx="5" y="6" x="6" height="38" width="38"
                fill="#f2f5e9" fill-opacity="0.5" stroke="#606060" stroke-width="1.0"/>
           <path id="arrow"
             d="M 11.500037,31.436501 C 11.940474,20.09759 22.043105,11.32322 32.158766,21.979434 L 37.068811,17.246167 C 37.068811,17.246167 37.088388,32 37.088388,32 L 22.160133,31.978069 C 22.160133,31.978069 26.997745,27.140456 26.997745,27.140456 C 18.528582,18.264221 13.291696,25.230495 11.500037,31.436501 z"
             style="fill:#404040;"/>
          </a>
         </g>
        </svg>
</svg>
