<?xml version="1.0" encoding="UTF-8" standalone="no"?>
<!DOCTYPE svg PUBLIC "-//W3C//DTD SVG 1.1//EN"
 "http://www.w3.org/Graphics/SVG/1.1/DTD/svg11.dtd">
<!-- Generated by graphviz version 2.26.3 (20100126.1600)
 -->
<!-- Title: Urho3D::ScriptFile Pages: 1 -->
<!--zoomable 643 -->
<svg id="main" version="1.1" xmlns="http://www.w3.org/2000/svg" xmlns:xlink="http://www.w3.org/1999/xlink" xml:space="preserve" onload="init(evt)">
        <defs>
                <circle id="rim" cx="0" cy="0" r="7"/>
                <circle id="rim2" cx="0" cy="0" r="3.5"/>
                <g id="zoomPlus">
                        <use xlink:href="#rim" fill="#404040">
                                <set attributeName="fill" to="#808080" begin="zoomplus.mouseover" end="zoomplus.mouseout"/>
                        </use>
                        <path d="M-4,0h8M0,-4v8" fill="none" stroke="white" stroke-width="1.5" pointer-events="none"/>
                </g>
                <g id="zoomMin">
                        <use xlink:href="#rim" fill="#404040">
                                <set attributeName="fill" to="#808080" begin="zoomminus.mouseover" end="zoomminus.mouseout"/>
                        </use>
                        <path d="M-4,0h8" fill="none" stroke="white" stroke-width="1.5" pointer-events="none"/>
                </g>
                <g id="dirArrow">
                        <path fill="none" stroke="white" stroke-width="1.5" d="M0,-3.0v7 M-2.5,-0.5L0,-3.0L2.5,-0.5"/>
                </g>
               <g id="resetDef">
                       <use xlink:href="#rim2" fill="#404040">
                               <set attributeName="fill" to="#808080" begin="reset.mouseover" end="reset.mouseout"/>
                       </use>
               </g>
        </defs>

<script type="text/javascript">
var viewWidth = 1902;
var viewHeight = 643;
var sectionId = 'dynsection-1';
</script>
<script xlink:href="svgpan.js"/>
<svg id="graph" class="graph">
<g id="viewport">
<title>Urho3D::ScriptFile</title>
<!-- Node1 -->
<g id="node1" class="node"><title>Node1</title>
<polygon fill="#bfbfbf" stroke="black" points="1792,-238.22 1792,-259.22 1894,-259.22 1894,-238.22 1792,-238.22"/>
<text text-anchor="middle" x="1843" y="-246.22" font-family="FreeSans" font-size="10.00">Urho3D::ScriptFile</text>
</g>
<!-- Node2 -->
<g id="node2" class="node"><title>Node2</title>
<a xlink:href="class_urho3_d_1_1_resource.html" target="_top" xlink:title="Base class for resources.">
<polygon fill="none" stroke="black" points="1187.5,-471.22 1187.5,-492.22 1290.5,-492.22 1290.5,-471.22 1187.5,-471.22"/>
<text text-anchor="middle" x="1239" y="-479.22" font-family="FreeSans" font-size="10.00">Urho3D::Resource</text>
</a>
</g>
<!-- Node2&#45;&gt;Node1 -->
<g id="edge2" class="edge"><title>Node2&#45;&gt;Node1</title>
<path fill="none" stroke="midnightblue" d="M1300.85,-479.828C1393.44,-475.756 1572.95,-463.047 1720,-423.72 1745.2,-416.98 1755.34,-418.948 1774,-400.72 1816.5,-359.207 1835.18,-286.71 1840.94,-259.472"/>
<polygon fill="midnightblue" stroke="midnightblue" points="1300.65,-476.334 1290.8,-480.251 1300.94,-483.327 1300.65,-476.334"/>
</g>
<!-- Node3 -->
<g id="node4" class="node"><title>Node3</title>
<a xlink:href="class_urho3_d_1_1_object.html" target="_top" xlink:title="Base class for objects with type identification, subsystem access and event sending/receiving capabil...">
<polygon fill="none" stroke="black" points="828,-431.22 828,-452.22 918,-452.22 918,-431.22 828,-431.22"/>
<text text-anchor="middle" x="873" y="-439.22" font-family="FreeSans" font-size="10.00">Urho3D::Object</text>
</a>
</g>
<!-- Node3&#45;&gt;Node2 -->
<g id="edge4" class="edge"><title>Node3&#45;&gt;Node2</title>
<path fill="none" stroke="midnightblue" d="M928.236,-447.757C998.493,-455.435 1118.9,-468.594 1187.38,-476.079"/>
<polygon fill="midnightblue" stroke="midnightblue" points="928.567,-444.272 918.246,-446.665 927.806,-451.231 928.567,-444.272"/>
</g>
<!-- Node13 -->
<g id="node27" class="node"><title>Node13</title>
<a xlink:href="class_urho3_d_1_1_script.html" target="_top" xlink:title="Scripting subsystem. Allows execution of AngelScript.">
<polygon fill="none" stroke="red" points="1195.5,-309.22 1195.5,-330.22 1282.5,-330.22 1282.5,-309.22 1195.5,-309.22"/>
<text text-anchor="middle" x="1239" y="-317.22" font-family="FreeSans" font-size="10.00">Urho3D::Script</text>
</a>
</g>
<!-- Node3&#45;&gt;Node13 -->
<g id="edge32" class="edge"><title>Node3&#45;&gt;Node13</title>
<path fill="none" stroke="midnightblue" d="M928.616,-444.032C985.803,-444.256 1076.13,-438.506 1146,-405.72 1183.83,-387.972 1216.73,-349.196 1231.19,-330.382"/>
<polygon fill="midnightblue" stroke="midnightblue" points="928.371,-440.529 918.336,-443.926 928.299,-447.529 928.371,-440.529"/>
</g>
<!-- Node4 -->
<g id="node6" class="node"><title>Node4</title>
<a xlink:href="class_urho3_d_1_1_ref_counted.html" target="_top" xlink:title="Base class for intrusively reference&#45;counted objects. These are noncopyable and non&#45;assignable.">
<polygon fill="none" stroke="black" points="188,-414.22 188,-435.22 302,-435.22 302,-414.22 188,-414.22"/>
<text text-anchor="middle" x="245" y="-422.22" font-family="FreeSans" font-size="10.00">Urho3D::RefCounted</text>
</a>
</g>
<!-- Node4&#45;&gt;Node3 -->
<g id="edge6" class="edge"><title>Node4&#45;&gt;Node3</title>
<path fill="none" stroke="midnightblue" d="M305.621,-436.825C310.473,-437.553 315.31,-438.2 320,-438.72 524.138,-461.381 576.806,-458.722 782,-449.72 796.894,-449.067 813.119,-447.815 827.69,-446.491"/>
<polygon fill="midnightblue" stroke="midnightblue" points="306.109,-433.359 295.681,-435.232 305.001,-440.27 306.109,-433.359"/>
</g>
<!-- Node6 -->
<g id="node10" class="node"><title>Node6</title>
<a xlink:href="class_urho3_d_1_1_context.html" target="_top" xlink:title="Urho3D execution context. Provides access to subsystems, object factories and attributes, and event receivers.">
<polygon fill="none" stroke="red" points="508.5,-414.22 508.5,-435.22 605.5,-435.22 605.5,-414.22 508.5,-414.22"/>
<text text-anchor="middle" x="557" y="-422.22" font-family="FreeSans" font-size="10.00">Urho3D::Context</text>
</a>
</g>
<!-- Node4&#45;&gt;Node6 -->
<g id="edge12" class="edge"><title>Node4&#45;&gt;Node6</title>
<path fill="none" stroke="midnightblue" d="M312.567,-424.72C371.558,-424.72 455.743,-424.72 508.336,-424.72"/>
<polygon fill="midnightblue" stroke="midnightblue" points="312.226,-421.22 302.226,-424.72 312.226,-428.22 312.226,-421.22"/>
</g>
<!-- Node5 -->
<g id="node8" class="node"><title>Node5</title>
<a xlink:href="struct_urho3_d_1_1_ref_count.html" target="_top" xlink:title="Reference count structure.">
<polygon fill="none" stroke="black" points="0,-303.22 0,-324.22 102,-324.22 102,-303.22 0,-303.22"/>
<text text-anchor="middle" x="51" y="-311.22" font-family="FreeSans" font-size="10.00">Urho3D::RefCount</text>
</a>
</g>
<!-- Node5&#45;&gt;Node4 -->
<g id="edge8" class="edge"><title>Node5&#45;&gt;Node4</title>
<path fill="none" stroke="#9a32cd" stroke-dasharray="5,2" d="M78.3215,-329.353C118.402,-352.285 192.096,-394.45 226.455,-414.109"/>
<polygon fill="#9a32cd" stroke="#9a32cd" points="80.0194,-326.292 69.6015,-324.363 76.543,-332.367 80.0194,-326.292"/>
<text text-anchor="middle" x="145" y="-382.72" font-family="FreeSans" font-size="10.00"> refCount_</text>
</g>
<!-- Node14 -->
<g id="node30" class="node"><title>Node14</title>
<a xlink:href="class_urho3_d_1_1_weak_ptr.html" target="_top" xlink:title="Urho3D::WeakPtr\&lt; Urho3D\l::Scene \&gt;">
<polygon fill="none" stroke="red" points="320,-295.72 320,-329.72 466,-329.72 466,-295.72 320,-295.72"/>
<text text-anchor="start" x="328" y="-316.72" font-family="FreeSans" font-size="10.00">Urho3D::WeakPtr&lt; Urho3D</text>
<text text-anchor="middle" x="393" y="-303.72" font-family="FreeSans" font-size="10.00">::Scene &gt;</text>
</a>
</g>
<!-- Node5&#45;&gt;Node14 -->
<g id="edge36" class="edge"><title>Node5&#45;&gt;Node14</title>
<path fill="none" stroke="#9a32cd" stroke-dasharray="5,2" d="M112.357,-313.541C170.57,-313.371 258.097,-313.115 319.898,-312.934"/>
<polygon fill="#9a32cd" stroke="#9a32cd" points="112.191,-310.041 102.201,-313.57 112.211,-317.041 112.191,-310.041"/>
<text text-anchor="middle" x="145" y="-316.72" font-family="FreeSans" font-size="10.00"> refCount_</text>
</g>
<!-- Node19 -->
<g id="node41" class="node"><title>Node19</title>
<a xlink:href="class_urho3_d_1_1_shared_array_ptr.html" target="_top" xlink:title="Urho3D::SharedArrayPtr\l\&lt; unsigned char \&gt;">
<polygon fill="none" stroke="black" points="648.5,-255.72 648.5,-289.72 781.5,-289.72 781.5,-255.72 648.5,-255.72"/>
<text text-anchor="start" x="656.5" y="-276.72" font-family="FreeSans" font-size="10.00">Urho3D::SharedArrayPtr</text>
<text text-anchor="middle" x="715" y="-263.72" font-family="FreeSans" font-size="10.00">&lt; unsigned char &gt;</text>
</a>
</g>
<!-- Node5&#45;&gt;Node19 -->
<g id="edge48" class="edge"><title>Node5&#45;&gt;Node19</title>
<path fill="none" stroke="#9a32cd" stroke-dasharray="5,2" d="M112.516,-304.804C136.087,-301.607 163.255,-298.187 188,-295.72 352.943,-279.278 548.09,-274.588 648.277,-273.252"/>
<polygon fill="#9a32cd" stroke="#9a32cd" points="111.738,-301.378 102.307,-306.205 112.69,-308.313 111.738,-301.378"/>
<text text-anchor="middle" x="245" y="-299.72" font-family="FreeSans" font-size="10.00"> refCount_</text>
</g>
<!-- Node6&#45;&gt;Node3 -->
<g id="edge10" class="edge"><title>Node6&#45;&gt;Node3</title>
<path fill="none" stroke="#9a32cd" stroke-dasharray="5,2" d="M615.97,-427.839C661.358,-430.246 725.65,-433.669 782,-436.72 796.851,-437.524 813.065,-438.412 827.639,-439.213"/>
<polygon fill="#9a32cd" stroke="#9a32cd" points="615.891,-424.33 605.72,-427.296 615.521,-431.32 615.891,-424.33"/>
<text text-anchor="middle" x="715" y="-440.72" font-family="FreeSans" font-size="10.00"> context_</text>
</g>
<!-- Node7 -->
<g id="node13" class="node"><title>Node7</title>
<a xlink:href="class_urho3_d_1_1_linked_list.html" target="_top" xlink:title="Urho3D::LinkedList\l\&lt; Urho3D::EventHandler \&gt;">
<polygon fill="none" stroke="red" points="484,-491.72 484,-525.72 630,-525.72 630,-491.72 484,-491.72"/>
<text text-anchor="start" x="492" y="-512.72" font-family="FreeSans" font-size="10.00">Urho3D::LinkedList</text>
<text text-anchor="middle" x="557" y="-499.72" font-family="FreeSans" font-size="10.00">&lt; Urho3D::EventHandler &gt;</text>
</a>
</g>
<!-- Node7&#45;&gt;Node3 -->
<g id="edge14" class="edge"><title>Node7&#45;&gt;Node3</title>
<path fill="none" stroke="#9a32cd" stroke-dasharray="5,2" d="M640.252,-508.758C684.152,-505.987 737.894,-498.043 782,-477.72 791.721,-473.241 790.591,-466.824 800,-461.72 808.548,-457.084 818.253,-453.456 827.733,-450.642"/>
<polygon fill="#9a32cd" stroke="#9a32cd" points="639.973,-505.268 630.182,-509.315 640.36,-512.258 639.973,-505.268"/>
<text text-anchor="middle" x="715" y="-511.72" font-family="FreeSans" font-size="10.00"> eventHandlers_</text>
</g>
<!-- Node8 -->
<g id="node15" class="node"><title>Node8</title>
<a xlink:href="class_urho3_d_1_1_timer.html" target="_top" xlink:title="Low&#45;resolution operating system timer.">
<polygon fill="none" stroke="black" points="830,-471.22 830,-492.22 916,-492.22 916,-471.22 830,-471.22"/>
<text text-anchor="middle" x="873" y="-479.22" font-family="FreeSans" font-size="10.00">Urho3D::Timer</text>
</a>
</g>
<!-- Node8&#45;&gt;Node2 -->
<g id="edge16" class="edge"><title>Node8&#45;&gt;Node2</title>
<path fill="none" stroke="#9a32cd" stroke-dasharray="5,2" d="M926.409,-481.72C996.357,-481.72 1118.19,-481.72 1187.29,-481.72"/>
<polygon fill="#9a32cd" stroke="#9a32cd" points="926.061,-478.22 916.061,-481.72 926.061,-485.22 926.061,-478.22"/>
<text text-anchor="middle" x="1055" y="-485.72" font-family="FreeSans" font-size="10.00"> useTimer_</text>
</g>
<!-- Node9 -->
<g id="node17" class="node"><title>Node9</title>
<a xlink:href="class_urho3_d_1_1_string.html" target="_top" xlink:title="String class.">
<polygon fill="none" stroke="black" points="829,-582.22 829,-603.22 917,-603.22 917,-582.22 829,-582.22"/>
<text text-anchor="middle" x="873" y="-590.22" font-family="FreeSans" font-size="10.00">Urho3D::String</text>
</a>
</g>
<!-- Node9&#45;&gt;Node2 -->
<g id="edge18" class="edge"><title>Node9&#45;&gt;Node2</title>
<path fill="none" stroke="#9a32cd" stroke-dasharray="5,2" d="M927.142,-585.104C983.142,-576.199 1072.52,-559.089 1146,-531.72 1174.17,-521.226 1204.42,-503.658 1222.52,-492.385"/>
<polygon fill="#9a32cd" stroke="#9a32cd" points="926.426,-581.673 917.085,-586.672 927.505,-588.59 926.426,-581.673"/>
<text text-anchor="middle" x="1055" y="-581.72" font-family="FreeSans" font-size="10.00"> name_</text>
</g>
<!-- Node9&#45;&gt;Node9 -->
<g id="edge20" class="edge"><title>Node9&#45;&gt;Node9</title>
<path fill="none" stroke="#9a32cd" stroke-dasharray="5,2" d="M843.728,-612.775C845.648,-617.884 855.405,-621.72 873,-621.72 900.465,-621.72 908.833,-612.373 898.105,-603.428"/>
<polygon fill="#9a32cd" stroke="#9a32cd" points="847.02,-613.987 847.895,-603.428 840.626,-611.136 847.02,-613.987"/>
<text text-anchor="middle" x="873" y="-625.72" font-family="FreeSans" font-size="10.00"> EMPTY</text>
</g>
<!-- Node10 -->
<g id="node20" class="node"><title>Node10</title>
<a xlink:href="class_urho3_d_1_1_string_hash.html" target="_top" xlink:title="32&#45;bit hash value for a string.">
<polygon fill="none" stroke="black" points="816.5,-511.22 816.5,-532.22 929.5,-532.22 929.5,-511.22 816.5,-511.22"/>
<text text-anchor="middle" x="873" y="-519.22" font-family="FreeSans" font-size="10.00">Urho3D::StringHash</text>
</a>
</g>
<!-- Node10&#45;&gt;Node2 -->
<g id="edge22" class="edge"><title>Node10&#45;&gt;Node2</title>
<path fill="none" stroke="#9a32cd" stroke-dasharray="5,2" d="M939.652,-517.407C995.03,-513.453 1075.82,-506.826 1146,-497.72 1159.48,-495.97 1174,-493.673 1187.46,-491.368"/>
<polygon fill="#9a32cd" stroke="#9a32cd" points="939.345,-513.92 929.616,-518.114 939.837,-520.903 939.345,-513.92"/>
<text text-anchor="middle" x="1055" y="-518.72" font-family="FreeSans" font-size="10.00"> nameHash_</text>
</g>
<!-- Node10&#45;&gt;Node10 -->
<g id="edge24" class="edge"><title>Node10&#45;&gt;Node10</title>
<path fill="none" stroke="#9a32cd" stroke-dasharray="5,2" d="M843.728,-541.775C845.648,-546.884 855.405,-550.72 873,-550.72 900.465,-550.72 908.833,-541.373 898.105,-532.428"/>
<polygon fill="#9a32cd" stroke="#9a32cd" points="847.02,-542.987 847.895,-532.428 840.626,-540.136 847.02,-542.987"/>
<text text-anchor="middle" x="873" y="-554.72" font-family="FreeSans" font-size="10.00"> ZERO</text>
</g>
<!-- Node11 -->
<g id="node23" class="node"><title>Node11</title>
<a xlink:href="class_urho3_d_1_1_script_event_listener.html" target="_top" xlink:title="Interface class for allowing script objects or functions to subscribe to events.">
<polygon fill="none" stroke="black" points="1568,-393.22 1568,-414.22 1720,-414.22 1720,-393.22 1568,-393.22"/>
<text text-anchor="middle" x="1644" y="-401.22" font-family="FreeSans" font-size="10.00">Urho3D::ScriptEventListener</text>
</a>
</g>
<!-- Node11&#45;&gt;Node1 -->
<g id="edge26" class="edge"><title>Node11&#45;&gt;Node1</title>
<path fill="none" stroke="midnightblue" d="M1729.96,-398.373C1745.67,-394.406 1761.14,-388.222 1774,-378.72 1815.51,-348.045 1834.47,-284.839 1840.63,-259.538"/>
<polygon fill="midnightblue" stroke="midnightblue" points="1729.16,-394.965 1720.17,-400.567 1730.69,-401.796 1729.16,-394.965"/>
</g>
<!-- Node12 -->
<g id="node25" class="node"><title>Node12</title>
<a xlink:href="class_urho3_d_1_1_shared_ptr.html" target="_top" xlink:title="Urho3D::SharedPtr\&lt;\l Urho3D::Script \&gt;">
<polygon fill="none" stroke="black" points="1586,-302.72 1586,-336.72 1702,-336.72 1702,-302.72 1586,-302.72"/>
<text text-anchor="start" x="1594" y="-323.72" font-family="FreeSans" font-size="10.00">Urho3D::SharedPtr&lt;</text>
<text text-anchor="middle" x="1644" y="-310.72" font-family="FreeSans" font-size="10.00"> Urho3D::Script &gt;</text>
</a>
</g>
<!-- Node12&#45;&gt;Node1 -->
<g id="edge28" class="edge"><title>Node12&#45;&gt;Node1</title>
<path fill="none" stroke="#9a32cd" stroke-dasharray="5,2" d="M1711.9,-307.455C1732.25,-302.739 1754.37,-296.555 1774,-288.72 1793.55,-280.919 1814.21,-268.28 1827.77,-259.298"/>
<polygon fill="#9a32cd" stroke="#9a32cd" points="1711.06,-304.055 1702.07,-309.653 1712.59,-310.886 1711.06,-304.055"/>
<text text-anchor="middle" x="1756" y="-303.72" font-family="FreeSans" font-size="10.00"> script_</text>
</g>
<!-- Node13&#45;&gt;Node12 -->
<g id="edge30" class="edge"><title>Node13&#45;&gt;Node12</title>
<path fill="none" stroke="#9a32cd" stroke-dasharray="5,2" d="M1293.05,-319.72C1369.2,-319.72 1507.5,-319.72 1585.83,-319.72"/>
<polygon fill="#9a32cd" stroke="#9a32cd" points="1292.73,-316.22 1282.73,-319.72 1292.73,-323.22 1292.73,-316.22"/>
<text text-anchor="middle" x="1441" y="-323.72" font-family="FreeSans" font-size="10.00"> ptr_</text>
</g>
<!-- Node14&#45;&gt;Node13 -->
<g id="edge34" class="edge"><title>Node14&#45;&gt;Node13</title>
<path fill="none" stroke="#9a32cd" stroke-dasharray="5,2" d="M476.267,-313.409C653.173,-314.873 1061.25,-318.249 1195.39,-319.359"/>
<polygon fill="#9a32cd" stroke="#9a32cd" points="476.258,-309.909 466.229,-313.326 476.2,-316.909 476.258,-309.909"/>
<text text-anchor="middle" x="715" y="-319.72" font-family="FreeSans" font-size="10.00"> defaultScene_</text>
</g>
<!-- Node15 -->
<g id="node33" class="node"><title>Node15</title>
<a xlink:href="class_urho3_d_1_1_vector.html" target="_top" xlink:title="Urho3D::Vector\&lt; asIScript\lContext * \&gt;">
<polygon fill="none" stroke="black" points="801.5,-340.72 801.5,-374.72 944.5,-374.72 944.5,-340.72 801.5,-340.72"/>
<text text-anchor="start" x="809.5" y="-361.72" font-family="FreeSans" font-size="10.00">Urho3D::Vector&lt; asIScript</text>
<text text-anchor="middle" x="873" y="-348.72" font-family="FreeSans" font-size="10.00">Context * &gt;</text>
</a>
</g>
<!-- Node15&#45;&gt;Node13 -->
<g id="edge38" class="edge"><title>Node15&#45;&gt;Node13</title>
<path fill="none" stroke="#9a32cd" stroke-dasharray="5,2" d="M954.666,-348.714C957.818,-348.377 960.938,-348.044 964,-347.72 1045.61,-339.082 1140.89,-329.491 1195.17,-324.074"/>
<polygon fill="#9a32cd" stroke="#9a32cd" points="954.095,-345.255 944.527,-349.806 954.844,-352.215 954.095,-345.255"/>
<text text-anchor="middle" x="1055" y="-351.72" font-family="FreeSans" font-size="10.00"> scriptFileContexts_</text>
</g>
<!-- Node16 -->
<g id="node35" class="node"><title>Node16</title>
<a xlink:href="class_urho3_d_1_1_vector_base.html" target="_top" xlink:title="Vector base class.">
<polygon fill="none" stroke="black" points="500,-365.22 500,-386.22 614,-386.22 614,-365.22 500,-365.22"/>
<text text-anchor="middle" x="557" y="-373.22" font-family="FreeSans" font-size="10.00">Urho3D::VectorBase</text>
</a>
</g>
<!-- Node16&#45;&gt;Node15 -->
<g id="edge40" class="edge"><title>Node16&#45;&gt;Node15</title>
<path fill="none" stroke="midnightblue" d="M624.35,-371.884C676.349,-368.922 748.145,-364.832 801.225,-361.809"/>
<polygon fill="midnightblue" stroke="midnightblue" points="624.01,-368.397 614.225,-372.46 624.408,-375.386 624.01,-368.397"/>
</g>
<!-- Node21 -->
<g id="node47" class="node"><title>Node21</title>
<a xlink:href="class_urho3_d_1_1_vector.html" target="_top" xlink:title="Urho3D::Vector\&lt; Urho3D\l::DelayedCall \&gt;">
<polygon fill="none" stroke="black" points="986,-369.72 986,-403.72 1124,-403.72 1124,-369.72 986,-369.72"/>
<text text-anchor="start" x="994" y="-390.72" font-family="FreeSans" font-size="10.00">Urho3D::Vector&lt; Urho3D</text>
<text text-anchor="middle" x="1055" y="-377.72" font-family="FreeSans" font-size="10.00">::DelayedCall &gt;</text>
</a>
</g>
<!-- Node16&#45;&gt;Node21 -->
<g id="edge56" class="edge"><title>Node16&#45;&gt;Node21</title>
<path fill="none" stroke="midnightblue" d="M624.317,-379.685C632.297,-380.076 640.329,-380.434 648,-380.72 766.639,-385.149 904.844,-386.349 985.842,-386.651"/>
<polygon fill="midnightblue" stroke="midnightblue" points="624.432,-376.187 614.267,-379.174 624.076,-383.178 624.432,-376.187"/>
</g>
<!-- Node17 -->
<g id="node37" class="node"><title>Node17</title>
<a xlink:href="class_urho3_d_1_1_hash_map.html" target="_top" xlink:title="Hash map template class.">
<polygon fill="none" stroke="black" points="800,-225.22 800,-246.22 946,-246.22 946,-225.22 800,-225.22"/>
<text text-anchor="middle" x="873" y="-233.22" font-family="FreeSans" font-size="10.00">Urho3D::HashMap&lt; T, U &gt;</text>
</a>
</g>
<!-- Node17&#45;&gt;Node13 -->
<g id="edge42" class="edge"><title>Node17&#45;&gt;Node13</title>
<path fill="none" stroke="#9a32cd" stroke-dasharray="5,2" d="M956.138,-247.201C1010.65,-255.644 1083.19,-268.62 1146,-285.72 1152.51,-287.493 1186.01,-299.879 1210.95,-309.194"/>
<polygon fill="#9a32cd" stroke="#9a32cd" points="956.589,-243.73 946.175,-245.678 955.531,-250.649 956.589,-243.73"/>
<text text-anchor="middle" x="1055" y="-289.72" font-family="FreeSans" font-size="10.00"> globalVars</text>
</g>
<!-- Node18 -->
<g id="node39" class="node"><title>Node18</title>
<a xlink:href="class_urho3_d_1_1_hash_base.html" target="_top" xlink:title="Hash set/map base class.">
<polygon fill="none" stroke="red" points="503,-129.22 503,-150.22 611,-150.22 611,-129.22 503,-129.22"/>
<text text-anchor="middle" x="557" y="-137.22" font-family="FreeSans" font-size="10.00">Urho3D::HashBase</text>
</a>
</g>
<!-- Node18&#45;&gt;Node17 -->
<g id="edge44" class="edge"><title>Node18&#45;&gt;Node17</title>
<path fill="none" stroke="midnightblue" d="M574.142,-157.955C591.144,-174.76 618.812,-198.838 648,-210.72 696.142,-230.319 754.591,-236.34 799.849,-237.581"/>
<polygon fill="midnightblue" stroke="midnightblue" points="576.199,-155.054 566.693,-150.375 571.206,-159.96 576.199,-155.054"/>
</g>
<!-- Node20 -->
<g id="node44" class="node"><title>Node20</title>
<a xlink:href="class_urho3_d_1_1_hash_map.html" target="_top" xlink:title="Urho3D::HashMap\&lt; asIObject\lType *, Urho3D::HashMap\l\&lt; Urho3D::String, asIScriptFunction * \&gt; \&gt;">
<polygon fill="none" stroke="black" points="1332.5,-96.2201 1332.5,-143.22 1549.5,-143.22 1549.5,-96.2201 1332.5,-96.2201"/>
<text text-anchor="start" x="1340.5" y="-130.22" font-family="FreeSans" font-size="10.00">Urho3D::HashMap&lt; asIObject</text>
<text text-anchor="start" x="1340.5" y="-117.22" font-family="FreeSans" font-size="10.00">Type *, Urho3D::HashMap</text>
<text text-anchor="middle" x="1441" y="-104.22" font-family="FreeSans" font-size="10.00">&lt; Urho3D::String, asIScriptFunction * &gt; &gt;</text>
</a>
</g>
<!-- Node18&#45;&gt;Node20 -->
<g id="edge52" class="edge"><title>Node18&#45;&gt;Node20</title>
<path fill="none" stroke="midnightblue" d="M621.734,-138.256C772.119,-134.853 1146.4,-126.385 1332.46,-122.176"/>
<polygon fill="midnightblue" stroke="midnightblue" points="621.217,-134.766 611.299,-138.492 621.375,-141.764 621.217,-134.766"/>
</g>
<!-- Node22 -->
<g id="node50" class="node"><title>Node22</title>
<a xlink:href="class_urho3_d_1_1_hash_map.html" target="_top" xlink:title="Urho3D::HashMap\&lt; asIObject\lType *, bool \&gt;">
<polygon fill="none" stroke="black" points="975,-15.7201 975,-49.7201 1135,-49.7201 1135,-15.7201 975,-15.7201"/>
<text text-anchor="start" x="983" y="-36.7201" font-family="FreeSans" font-size="10.00">Urho3D::HashMap&lt; asIObject</text>
<text text-anchor="middle" x="1055" y="-23.7201" font-family="FreeSans" font-size="10.00">Type *, bool &gt;</text>
</a>
</g>
<!-- Node18&#45;&gt;Node22 -->
<g id="edge60" class="edge"><title>Node18&#45;&gt;Node22</title>
<path fill="none" stroke="midnightblue" d="M572.576,-121.6C589.221,-103.644 617.381,-77.0878 648,-64.7201 754.958,-21.5172 890.417,-20.3127 974.909,-25.1676"/>
<polygon fill="midnightblue" stroke="midnightblue" points="569.858,-119.388 565.771,-129.163 575.062,-124.07 569.858,-119.388"/>
</g>
<!-- Node23 -->
<g id="node53" class="node"><title>Node23</title>
<a xlink:href="class_urho3_d_1_1_hash_map.html" target="_top" xlink:title="Urho3D::HashMap\&lt; Urho3D\l::String, asIScriptFunction * \&gt;">
<polygon fill="none" stroke="black" points="1362,-195.72 1362,-229.72 1520,-229.72 1520,-195.72 1362,-195.72"/>
<text text-anchor="start" x="1370" y="-216.72" font-family="FreeSans" font-size="10.00">Urho3D::HashMap&lt; Urho3D</text>
<text text-anchor="middle" x="1441" y="-203.72" font-family="FreeSans" font-size="10.00">::String, asIScriptFunction * &gt;</text>
</a>
</g>
<!-- Node18&#45;&gt;Node23 -->
<g id="edge64" class="edge"><title>Node18&#45;&gt;Node23</title>
<path fill="none" stroke="midnightblue" d="M606.973,-152.591C620.236,-155.639 634.598,-158.612 648,-160.72 907.128,-201.48 1218.75,-210.379 1361.97,-212.259"/>
<polygon fill="midnightblue" stroke="midnightblue" points="607.614,-149.146 597.078,-150.259 606.008,-155.96 607.614,-149.146"/>
</g>
<!-- Node24 -->
<g id="node56" class="node"><title>Node24</title>
<a xlink:href="class_urho3_d_1_1_hash_map.html" target="_top" xlink:title="Urho3D::HashMap\&lt; asIScript\lObject *, Urho3D::SharedPtr\l\&lt; Urho3D::ScriptEventInvoker \&gt; \&gt;">
<polygon fill="none" stroke="black" points="964,-137.22 964,-184.22 1146,-184.22 1146,-137.22 964,-137.22"/>
<text text-anchor="start" x="972" y="-171.22" font-family="FreeSans" font-size="10.00">Urho3D::HashMap&lt; asIScript</text>
<text text-anchor="start" x="972" y="-158.22" font-family="FreeSans" font-size="10.00">Object *, Urho3D::SharedPtr</text>
<text text-anchor="middle" x="1055" y="-145.22" font-family="FreeSans" font-size="10.00">&lt; Urho3D::ScriptEventInvoker &gt; &gt;</text>
</a>
</g>
<!-- Node18&#45;&gt;Node24 -->
<g id="edge68" class="edge"><title>Node18&#45;&gt;Node24</title>
<path fill="none" stroke="midnightblue" d="M621.261,-142.43C708.397,-146.104 864.516,-152.688 963.768,-156.873"/>
<polygon fill="midnightblue" stroke="midnightblue" points="621.381,-138.932 611.243,-142.007 621.086,-145.926 621.381,-138.932"/>
</g>
<!-- Node25 -->
<g id="node59" class="node"><title>Node25</title>
<a xlink:href="class_urho3_d_1_1_hash_set.html" target="_top" xlink:title="Urho3D::HashSet\&lt; Urho3D\l::String \&gt;">
<polygon fill="none" stroke="black" points="1164.5,-58.7201 1164.5,-92.7201 1313.5,-92.7201 1313.5,-58.7201 1164.5,-58.7201"/>
<text text-anchor="start" x="1172.5" y="-79.7201" font-family="FreeSans" font-size="10.00">Urho3D::HashSet&lt; Urho3D</text>
<text text-anchor="middle" x="1239" y="-66.7201" font-family="FreeSans" font-size="10.00">::String &gt;</text>
</a>
</g>
<!-- Node18&#45;&gt;Node25 -->
<g id="edge72" class="edge"><title>Node18&#45;&gt;Node25</title>
<path fill="none" stroke="midnightblue" d="M589.867,-125.134C606.873,-118.278 628.174,-110.742 648,-106.72 830.76,-69.6449 1051.44,-69.5588 1164.41,-72.6486"/>
<polygon fill="midnightblue" stroke="midnightblue" points="588.292,-121.998 580.395,-129.06 590.973,-128.465 588.292,-121.998"/>
</g>
<!-- Node19&#45;&gt;Node1 -->
<g id="edge46" class="edge"><title>Node19&#45;&gt;Node1</title>
<path fill="none" stroke="#9a32cd" stroke-dasharray="5,2" d="M792.102,-273.432C861.014,-274.007 964.744,-274.72 1055,-274.72 1055,-274.72 1055,-274.72 1644,-274.72 1694.52,-274.72 1751.65,-266.379 1791.7,-259.146"/>
<polygon fill="#9a32cd" stroke="#9a32cd" points="791.801,-269.929 781.771,-273.345 791.741,-276.929 791.801,-269.929"/>
<text text-anchor="middle" x="1239" y="-278.72" font-family="FreeSans" font-size="10.00"> loadByteCode_</text>
</g>
<!-- Node20&#45;&gt;Node1 -->
<g id="edge50" class="edge"><title>Node20&#45;&gt;Node1</title>
<path fill="none" stroke="#9a32cd" stroke-dasharray="5,2" d="M1560.19,-105.135C1628.2,-102.897 1711.98,-111.02 1774,-152.72 1806.87,-174.823 1829.4,-218.163 1838.49,-238.156"/>
<polygon fill="#9a32cd" stroke="#9a32cd" points="1559.7,-101.652 1549.85,-105.558 1559.98,-108.646 1559.7,-101.652"/>
<text text-anchor="middle" x="1644" y="-129.72" font-family="FreeSans" font-size="10.00"> methods_</text>
</g>
<!-- Node21&#45;&gt;Node1 -->
<g id="edge54" class="edge"><title>Node21&#45;&gt;Node1</title>
<path fill="none" stroke="#9a32cd" stroke-dasharray="5,2" d="M1134.1,-392.607C1260.59,-399.652 1515,-404.049 1720,-345.72 1771.53,-331.058 1816.59,-281.521 1834.62,-259.466"/>
<polygon fill="#9a32cd" stroke="#9a32cd" points="1134.3,-389.113 1124.11,-392.03 1133.89,-396.101 1134.3,-389.113"/>
<text text-anchor="middle" x="1441" y="-399.72" font-family="FreeSans" font-size="10.00"> delayedCalls_</text>
</g>
<!-- Node22&#45;&gt;Node1 -->
<g id="edge58" class="edge"><title>Node22&#45;&gt;Node1</title>
<path fill="none" stroke="#9a32cd" stroke-dasharray="5,2" d="M1145.15,-17.3087C1276.59,1.18427 1526.25,21.1189 1720,-53.7201 1800.65,-84.8721 1832.77,-202.278 1840.84,-238.207"/>
<polygon fill="#9a32cd" stroke="#9a32cd" points="1144.52,-13.8629 1135.12,-18.7494 1145.52,-20.7918 1144.52,-13.8629"/>
<text text-anchor="middle" x="1441" y="-14.7201" font-family="FreeSans" font-size="10.00"> validClasses_</text>
</g>
<!-- Node23&#45;&gt;Node1 -->
<g id="edge62" class="edge"><title>Node23&#45;&gt;Node1</title>
<path fill="none" stroke="#9a32cd" stroke-dasharray="5,2" d="M1530.54,-220.738C1610.91,-227.936 1726.04,-238.246 1791.78,-244.133"/>
<polygon fill="#9a32cd" stroke="#9a32cd" points="1530.69,-217.239 1520.42,-219.833 1530.07,-224.211 1530.69,-217.239"/>
<text text-anchor="middle" x="1644" y="-240.72" font-family="FreeSans" font-size="10.00"> functions_</text>
</g>
<!-- Node24&#45;&gt;Node1 -->
<g id="edge66" class="edge"><title>Node24&#45;&gt;Node1</title>
<path fill="none" stroke="#9a32cd" stroke-dasharray="5,2" d="M1156.42,-156.772C1256.86,-154.414 1414.79,-154.884 1550,-173.72 1646.99,-187.232 1758.17,-220.862 1811.39,-238.126"/>
<polygon fill="#9a32cd" stroke="#9a32cd" points="1156.19,-153.277 1146.28,-157.025 1156.36,-160.275 1156.19,-153.277"/>
<text text-anchor="middle" x="1441" y="-177.72" font-family="FreeSans" font-size="10.00"> eventInvokers_</text>
</g>
<!-- Node25&#45;&gt;Node1 -->
<g id="edge70" class="edge"><title>Node25&#45;&gt;Node1</title>
<path fill="none" stroke="#9a32cd" stroke-dasharray="5,2" d="M1323.93,-62.4522C1422.39,-50.5577 1588.03,-41.4377 1720,-88.7201 1789.6,-113.655 1828.03,-206.18 1839.39,-237.938"/>
<polygon fill="#9a32cd" stroke="#9a32cd" points="1323.23,-59.013 1313.74,-63.7231 1324.09,-65.9593 1323.23,-59.013"/>
<text text-anchor="middle" x="1644" y="-92.7201" font-family="FreeSans" font-size="10.00"> includeFiles_</text>
</g>
</g>
</svg>
        <g id="navigator" transform="translate(0 0)" fill="#404254">
                <rect fill="#f2f5e9" fill-opacity="0.5" stroke="#606060" stroke-width=".5" x="0" y="0" width="60" height="60"/>
                <use id="zoomplus" xlink:href="#zoomPlus" x="17" y="9" onmousedown="handleZoom(evt,'in')"/>
                <use id="zoomminus" xlink:href="#zoomMin" x="42" y="9" onmousedown="handleZoom(evt,'out')"/>
                <use id="reset" xlink:href="#resetDef" x="30" y="36" onmousedown="handleReset()"/>
                <g id="arrowUp" xlink:href="#dirArrow" transform="translate(30 24)" onmousedown="handlePan(0,-1)">
                  <use xlink:href="#rim" fill="#404040">
                        <set attributeName="fill" to="#808080" begin="arrowUp.mouseover" end="arrowUp.mouseout"/>
                  </use>
                  <path fill="none" stroke="white" stroke-width="1.5" d="M0,-3.0v7 M-2.5,-0.5L0,-3.0L2.5,-0.5"/>
                </g>
                <g id="arrowRight" xlink:href="#dirArrow" transform="rotate(90) translate(36 -43)" onmousedown="handlePan(1,0)">
                  <use xlink:href="#rim" fill="#404040">
                        <set attributeName="fill" to="#808080" begin="arrowRight.mouseover" end="arrowRight.mouseout"/>
                  </use>
                  <path fill="none" stroke="white" stroke-width="1.5" d="M0,-3.0v7 M-2.5,-0.5L0,-3.0L2.5,-0.5"/>
                </g>
                <g id="arrowDown" xlink:href="#dirArrow" transform="rotate(180) translate(-30 -48)" onmousedown="handlePan(0,1)">
                  <use xlink:href="#rim" fill="#404040">
                        <set attributeName="fill" to="#808080" begin="arrowDown.mouseover" end="arrowDown.mouseout"/>
                  </use>
                  <path fill="none" stroke="white" stroke-width="1.5" d="M0,-3.0v7 M-2.5,-0.5L0,-3.0L2.5,-0.5"/>
                </g>
                <g id="arrowLeft" xlink:href="#dirArrow" transform="rotate(270) translate(-36 17)" onmousedown="handlePan(-1,0)">
                  <use xlink:href="#rim" fill="#404040">
                        <set attributeName="fill" to="#808080" begin="arrowLeft.mouseover" end="arrowLeft.mouseout"/>
                  </use>
                  <path fill="none" stroke="white" stroke-width="1.5" d="M0,-3.0v7 M-2.5,-0.5L0,-3.0L2.5,-0.5"/>
                </g>
        </g>
        <svg viewBox="0 0 15 15" width="100%" height="30px" preserveAspectRatio="xMaxYMin meet">
         <g id="arrow_out" transform="scale(0.3 0.3)">
          <a xlink:href="class_urho3_d_1_1_script_file__coll__graph_org.svg" target="_base">
           <rect id="button" ry="5" rx="5" y="6" x="6" height="38" width="38"
                fill="#f2f5e9" fill-opacity="0.5" stroke="#606060" stroke-width="1.0"/>
           <path id="arrow"
             d="M 11.500037,31.436501 C 11.940474,20.09759 22.043105,11.32322 32.158766,21.979434 L 37.068811,17.246167 C 37.068811,17.246167 37.088388,32 37.088388,32 L 22.160133,31.978069 C 22.160133,31.978069 26.997745,27.140456 26.997745,27.140456 C 18.528582,18.264221 13.291696,25.230495 11.500037,31.436501 z"
             style="fill:#404040;"/>
          </a>
         </g>
        </svg>
</svg>
