<?xml version="1.0" encoding="UTF-8" standalone="no"?>
<!DOCTYPE svg PUBLIC "-//W3C//DTD SVG 1.1//EN"
 "http://www.w3.org/Graphics/SVG/1.1/DTD/svg11.dtd">
<!-- Generated by graphviz version 2.26.3 (20100126.1600)
 -->
<!-- Title: Urho3D::Graphics::Clear Pages: 1 -->
<!--zoomable 839 -->
<svg id="main" version="1.1" xmlns="http://www.w3.org/2000/svg" xmlns:xlink="http://www.w3.org/1999/xlink" xml:space="preserve" onload="init(evt)">
        <defs>
                <circle id="rim" cx="0" cy="0" r="7"/>
                <circle id="rim2" cx="0" cy="0" r="3.5"/>
                <g id="zoomPlus">
                        <use xlink:href="#rim" fill="#404040">
                                <set attributeName="fill" to="#808080" begin="zoomplus.mouseover" end="zoomplus.mouseout"/>
                        </use>
                        <path d="M-4,0h8M0,-4v8" fill="none" stroke="white" stroke-width="1.5" pointer-events="none"/>
                </g>
                <g id="zoomMin">
                        <use xlink:href="#rim" fill="#404040">
                                <set attributeName="fill" to="#808080" begin="zoomminus.mouseover" end="zoomminus.mouseout"/>
                        </use>
                        <path d="M-4,0h8" fill="none" stroke="white" stroke-width="1.5" pointer-events="none"/>
                </g>
                <g id="dirArrow">
                        <path fill="none" stroke="white" stroke-width="1.5" d="M0,-3.0v7 M-2.5,-0.5L0,-3.0L2.5,-0.5"/>
                </g>
               <g id="resetDef">
                       <use xlink:href="#rim2" fill="#404040">
                               <set attributeName="fill" to="#808080" begin="reset.mouseover" end="reset.mouseout"/>
                       </use>
               </g>
        </defs>

<script type="text/javascript">
var viewWidth = 804;
var viewHeight = 839;
var sectionId = 'dynsection-2';
</script>
<script xlink:href="svgpan.js"/>
<svg id="graph" class="graph">
<g id="viewport">
<title>Urho3D::Graphics::Clear</title>
<!-- Node1 -->
<g id="node1" class="node"><title>Node1</title>
<polygon fill="#bfbfbf" stroke="black" points="0,-626.645 0,-647.645 132,-647.645 132,-626.645 0,-626.645"/>
<text text-anchor="middle" x="66" y="-634.645" font-family="FreeSans" font-size="10.00">Urho3D::Graphics::Clear</text>
</g>
<!-- Node2 -->
<g id="node3" class="node"><title>Node2</title>
<a xlink:href="class_urho3_d_1_1_graphics.html#a3dd369dc58e2db876d8d001ba24762a5" target="_top" xlink:title="Prepare for draw call. Update constant buffers and setup the FBO.">
<polygon fill="none" stroke="black" points="172.5,-399.645 172.5,-420.645 341.5,-420.645 341.5,-399.645 172.5,-399.645"/>
<text text-anchor="middle" x="257" y="-407.645" font-family="FreeSans" font-size="10.00">Urho3D::Graphics::PrepareDraw</text>
</a>
</g>
<!-- Node1&#45;&gt;Node2 -->
<g id="edge2" class="edge"><title>Node1&#45;&gt;Node2</title>
<path fill="none" stroke="midnightblue" d="M74.9561,-626.501C105.096,-590.68 203.098,-474.207 241.43,-428.65"/>
<polygon fill="midnightblue" stroke="midnightblue" points="244.303,-430.671 248.063,-420.766 238.947,-426.165 244.303,-430.671"/>
</g>
<!-- Node4 -->
<g id="node7" class="node"><title>Node4</title>
<a xlink:href="class_urho3_d_1_1_graphics.html#a016c9d34850452e2e97a51f520d15443" target="_top" xlink:title="Return rendertarget width and height.">
<polygon fill="none" stroke="black" points="396,-771.145 396,-805.145 554,-805.145 554,-771.145 396,-771.145"/>
<text text-anchor="start" x="404" y="-792.145" font-family="FreeSans" font-size="10.00">Urho3D::Graphics::GetRender</text>
<text text-anchor="middle" x="475" y="-779.145" font-family="FreeSans" font-size="10.00">TargetDimensions</text>
</a>
</g>
<!-- Node1&#45;&gt;Node4 -->
<g id="edge50" class="edge"><title>Node1&#45;&gt;Node4</title>
<path fill="none" stroke="midnightblue" d="M73.6023,-647.701C88.9209,-668.098 125.672,-712.793 168,-734.145 235.993,-768.444 322,-781.352 385.671,-786.022"/>
<polygon fill="midnightblue" stroke="midnightblue" points="385.477,-789.517 395.692,-786.703 385.952,-782.533 385.477,-789.517"/>
</g>
<!-- Node20 -->
<g id="node43" class="node"><title>Node20</title>
<a xlink:href="class_urho3_d_1_1_graphics.html#a491fe007ce9f8dce215ba00f5c27ff0d" target="_top" xlink:title="Set color write on/off.">
<polygon fill="none" stroke="black" points="182.5,-347.145 182.5,-381.145 331.5,-381.145 331.5,-347.145 182.5,-347.145"/>
<text text-anchor="start" x="190.5" y="-368.145" font-family="FreeSans" font-size="10.00">Urho3D::Graphics::SetColor</text>
<text text-anchor="middle" x="257" y="-355.145" font-family="FreeSans" font-size="10.00">Write</text>
</a>
</g>
<!-- Node1&#45;&gt;Node20 -->
<g id="edge46" class="edge"><title>Node1&#45;&gt;Node20</title>
<path fill="none" stroke="midnightblue" d="M67.1327,-626.64C71.7902,-588.717 92.9204,-457.565 168,-390.145 169.752,-388.572 171.594,-387.094 173.51,-385.705"/>
<polygon fill="midnightblue" stroke="midnightblue" points="175.726,-388.447 182.338,-380.169 172.007,-382.517 175.726,-388.447"/>
</g>
<!-- Node21 -->
<g id="node45" class="node"><title>Node21</title>
<a xlink:href="class_urho3_d_1_1_graphics.html#abce9b1421f7b2d1179659ca887171f2a" target="_top" xlink:title="Set depth write on/off.">
<polygon fill="none" stroke="black" points="180.5,-295.145 180.5,-329.145 333.5,-329.145 333.5,-295.145 180.5,-295.145"/>
<text text-anchor="start" x="188.5" y="-316.145" font-family="FreeSans" font-size="10.00">Urho3D::Graphics::SetDepth</text>
<text text-anchor="middle" x="257" y="-303.145" font-family="FreeSans" font-size="10.00">Write</text>
</a>
</g>
<!-- Node1&#45;&gt;Node21 -->
<g id="edge48" class="edge"><title>Node1&#45;&gt;Node21</title>
<path fill="none" stroke="midnightblue" d="M66.2863,-626.605C68.0318,-583.885 80.4031,-421.925 168,-338.145 169.28,-336.921 170.614,-335.754 171.995,-334.642"/>
<polygon fill="midnightblue" stroke="midnightblue" points="174.139,-337.415 180.375,-328.85 170.158,-331.657 174.139,-337.415"/>
</g>
<!-- Node22 -->
<g id="node48" class="node"><title>Node22</title>
<a xlink:href="class_urho3_d_1_1_graphics.html#a27670beb9e90540f69da3d24da2d07bd" target="_top" xlink:title="Set scissor test.">
<polygon fill="none" stroke="black" points="168.5,-703.645 168.5,-724.645 345.5,-724.645 345.5,-703.645 168.5,-703.645"/>
<text text-anchor="middle" x="257" y="-711.645" font-family="FreeSans" font-size="10.00">Urho3D::Graphics::SetScissorTest</text>
</a>
</g>
<!-- Node1&#45;&gt;Node22 -->
<g id="edge52" class="edge"><title>Node1&#45;&gt;Node22</title>
<path fill="none" stroke="midnightblue" d="M83.9236,-647.659C103.911,-659.054 137.454,-677.204 168,-689.145 179.211,-693.528 191.492,-697.488 203.254,-700.897"/>
<polygon fill="midnightblue" stroke="midnightblue" points="202.403,-704.294 212.977,-703.629 204.296,-697.555 202.403,-704.294"/>
</g>
<!-- Node24 -->
<g id="node53" class="node"><title>Node24</title>
<a xlink:href="class_urho3_d_1_1_int_rect.html#ac268b351be57db860350147b5eb771ef" target="_top" xlink:title="Return width.">
<polygon fill="none" stroke="black" points="413,-691.645 413,-712.645 537,-712.645 537,-691.645 413,-691.645"/>
<text text-anchor="middle" x="475" y="-699.645" font-family="FreeSans" font-size="10.00">Urho3D::IntRect::Width</text>
</a>
</g>
<!-- Node1&#45;&gt;Node24 -->
<g id="edge62" class="edge"><title>Node1&#45;&gt;Node24</title>
<path fill="none" stroke="midnightblue" d="M106.998,-647.763C125.539,-652.314 147.782,-657.426 168,-661.145 247.902,-675.844 340.425,-687.474 402.84,-694.537"/>
<polygon fill="midnightblue" stroke="midnightblue" points="402.648,-698.038 412.976,-695.674 403.429,-691.081 402.648,-698.038"/>
</g>
<!-- Node25 -->
<g id="node55" class="node"><title>Node25</title>
<a xlink:href="class_urho3_d_1_1_int_rect.html#a69df34bbfeb4f2473fd1bb532e038770" target="_top" xlink:title="Return height.">
<polygon fill="none" stroke="black" points="410.5,-651.645 410.5,-672.645 539.5,-672.645 539.5,-651.645 410.5,-651.645"/>
<text text-anchor="middle" x="475" y="-659.645" font-family="FreeSans" font-size="10.00">Urho3D::IntRect::Height</text>
</a>
</g>
<!-- Node1&#45;&gt;Node25 -->
<g id="edge64" class="edge"><title>Node1&#45;&gt;Node25</title>
<path fill="none" stroke="midnightblue" d="M132.167,-641.189C205.517,-645.673 323.565,-652.889 400.213,-657.574"/>
<polygon fill="midnightblue" stroke="midnightblue" points="400.083,-661.072 410.278,-658.189 400.51,-654.085 400.083,-661.072"/>
</g>
<!-- Node3 -->
<g id="node5" class="node"><title>Node3</title>
<a xlink:href="class_urho3_d_1_1_graphics.html#aecd0066098f01560de4784346ace7a2f" target="_top" xlink:title="Bind a framebuffer using either extension or core functionality.">
<polygon fill="none" stroke="black" points="382,-235.645 382,-256.645 568,-256.645 568,-235.645 382,-235.645"/>
<text text-anchor="middle" x="475" y="-243.645" font-family="FreeSans" font-size="10.00">Urho3D::Graphics::BindFramebuffer</text>
</a>
</g>
<!-- Node2&#45;&gt;Node3 -->
<g id="edge4" class="edge"><title>Node2&#45;&gt;Node3</title>
<path fill="none" stroke="midnightblue" d="M332.858,-399.431C337.627,-396.895 342.077,-393.834 346,-390.145 387.807,-350.833 340.012,-305.263 382,-266.145 383.495,-264.752 385.063,-263.447 386.694,-262.224"/>
<polygon fill="midnightblue" stroke="midnightblue" points="388.731,-265.077 395.315,-256.777 384.992,-259.16 388.731,-265.077"/>
</g>
<!-- Node2&#45;&gt;Node4 -->
<g id="edge6" class="edge"><title>Node2&#45;&gt;Node4</title>
<path fill="none" stroke="midnightblue" d="M260.189,-420.951C276.938,-477.416 354.981,-736.919 382,-762.145 383.693,-763.725 385.473,-765.211 387.328,-766.607"/>
<polygon fill="midnightblue" stroke="midnightblue" points="385.594,-769.655 395.885,-772.175 389.412,-763.788 385.594,-769.655"/>
</g>
<!-- Node7 -->
<g id="node13" class="node"><title>Node7</title>
<a xlink:href="class_urho3_d_1_1_render_surface.html#a3a7c4f50c5887e1d74f30b6350a2619c" target="_top" xlink:title="Return parent texture.">
<polygon fill="none" stroke="black" points="410.5,-183.145 410.5,-217.145 539.5,-217.145 539.5,-183.145 410.5,-183.145"/>
<text text-anchor="start" x="418.5" y="-204.145" font-family="FreeSans" font-size="10.00">Urho3D::RenderSurface</text>
<text text-anchor="middle" x="475" y="-191.145" font-family="FreeSans" font-size="10.00">::GetParentTexture</text>
</a>
</g>
<!-- Node2&#45;&gt;Node7 -->
<g id="edge12" class="edge"><title>Node2&#45;&gt;Node7</title>
<path fill="none" stroke="midnightblue" d="M333.553,-399.489C338.099,-396.931 342.314,-393.85 346,-390.145 398.636,-337.247 330.745,-280.382 382,-226.145 387.425,-220.405 394.002,-215.897 401.124,-212.362"/>
<polygon fill="midnightblue" stroke="midnightblue" points="402.582,-215.545 410.392,-208.385 399.822,-209.112 402.582,-215.545"/>
</g>
<!-- Node8 -->
<g id="node15" class="node"><title>Node8</title>
<a xlink:href="class_urho3_d_1_1_texture.html#a2f053f59f1001c8c85c9382d07900211" target="_top" xlink:title="Return texture format.">
<polygon fill="none" stroke="black" points="399,-143.645 399,-164.645 551,-164.645 551,-143.645 399,-143.645"/>
<text text-anchor="middle" x="475" y="-151.645" font-family="FreeSans" font-size="10.00">Urho3D::Texture::GetFormat</text>
</a>
</g>
<!-- Node2&#45;&gt;Node8 -->
<g id="edge14" class="edge"><title>Node2&#45;&gt;Node8</title>
<path fill="none" stroke="midnightblue" d="M334.178,-399.462C338.516,-396.901 342.518,-393.827 346,-390.145 412.869,-319.43 314.806,-244.551 382,-174.145 384.469,-171.558 387.186,-169.265 390.092,-167.236"/>
<polygon fill="midnightblue" stroke="midnightblue" points="391.861,-170.256 398.728,-162.187 388.328,-164.212 391.861,-170.256"/>
</g>
<!-- Node9 -->
<g id="node17" class="node"><title>Node9</title>
<a xlink:href="class_urho3_d_1_1_graphics.html#a36e7c254c8eb1a1f977d150b0d7f6f6c" target="_top" xlink:title="Create a framebuffer using either extension or core functionality.">
<polygon fill="none" stroke="black" points="405,-91.145 405,-125.145 545,-125.145 545,-91.145 405,-91.145"/>
<text text-anchor="start" x="413" y="-112.145" font-family="FreeSans" font-size="10.00">Urho3D::Graphics::Create</text>
<text text-anchor="middle" x="475" y="-99.145" font-family="FreeSans" font-size="10.00">Framebuffer</text>
</a>
</g>
<!-- Node2&#45;&gt;Node9 -->
<g id="edge16" class="edge"><title>Node2&#45;&gt;Node9</title>
<path fill="none" stroke="midnightblue" d="M334.287,-399.563C338.599,-396.978 342.565,-393.871 346,-390.145 423.874,-305.664 306.329,-220.605 382,-134.145 385.961,-129.619 390.638,-125.851 395.753,-122.718"/>
<polygon fill="midnightblue" stroke="midnightblue" points="397.489,-125.76 404.725,-118.021 394.242,-119.558 397.489,-125.76"/>
</g>
<!-- Node10 -->
<g id="node19" class="node"><title>Node10</title>
<a xlink:href="class_urho3_d_1_1_texture.html#a0c6760bb91c25cb9b5387eb9cae27a50" target="_top" xlink:title="Return whether parameters are dirty.">
<polygon fill="none" stroke="black" points="613.5,-25.145 613.5,-59.145 786.5,-59.145 786.5,-25.145 613.5,-25.145"/>
<text text-anchor="start" x="621.5" y="-46.145" font-family="FreeSans" font-size="10.00">Urho3D::Texture::GetParameters</text>
<text text-anchor="middle" x="700" y="-33.145" font-family="FreeSans" font-size="10.00">Dirty</text>
</a>
</g>
<!-- Node2&#45;&gt;Node10 -->
<g id="edge18" class="edge"><title>Node2&#45;&gt;Node10</title>
<path fill="none" stroke="midnightblue" d="M334.844,-399.459C338.963,-396.89 342.739,-393.815 346,-390.145 397.638,-332.025 324.266,-94.2146 382,-42.145 453.068,21.9502 573.698,-0.756851 644.183,-22.1009"/>
<polygon fill="midnightblue" stroke="midnightblue" points="643.198,-25.4596 653.786,-25.0944 645.281,-18.7768 643.198,-25.4596"/>
</g>
<!-- Node11 -->
<g id="node21" class="node"><title>Node11</title>
<a xlink:href="class_urho3_d_1_1_graphics.html#a8b325a50b867fe7866389f94e8a8575a" target="_top" xlink:title="Bind texture unit 0 for update. Called by Texture.">
<polygon fill="none" stroke="red" points="396,-599.145 396,-633.145 554,-633.145 554,-599.145 396,-599.145"/>
<text text-anchor="start" x="404" y="-620.145" font-family="FreeSans" font-size="10.00">Urho3D::Graphics::SetTexture</text>
<text text-anchor="middle" x="475" y="-607.145" font-family="FreeSans" font-size="10.00">ForUpdate</text>
</a>
</g>
<!-- Node2&#45;&gt;Node11 -->
<g id="edge20" class="edge"><title>Node2&#45;&gt;Node11</title>
<path fill="none" stroke="midnightblue" d="M261.746,-420.987C275.637,-451.481 319.231,-538.785 382,-585.145 386.824,-588.708 392.081,-591.877 397.562,-594.693"/>
<polygon fill="midnightblue" stroke="midnightblue" points="396.42,-598.024 406.959,-599.108 399.396,-591.688 396.42,-598.024"/>
</g>
<!-- Node12 -->
<g id="node23" class="node"><title>Node12</title>
<a xlink:href="class_urho3_d_1_1_g_p_u_object.html#acc3aa11294b3d788965f299ca9bfb81c" target="_top" xlink:title="Return the object&#39;s OpenGL handle.">
<polygon fill="none" stroke="black" points="641.5,-554.145 641.5,-588.145 758.5,-588.145 758.5,-554.145 641.5,-554.145"/>
<text text-anchor="start" x="649.5" y="-575.145" font-family="FreeSans" font-size="10.00">Urho3D::GPUObject::</text>
<text text-anchor="middle" x="700" y="-562.145" font-family="FreeSans" font-size="10.00">GetGPUObject</text>
</a>
</g>
<!-- Node2&#45;&gt;Node12 -->
<g id="edge36" class="edge"><title>Node2&#45;&gt;Node12</title>
<path fill="none" stroke="midnightblue" d="M263.499,-420.991C279.715,-446.928 324.798,-512.436 382,-540.145 461.179,-578.5 564.312,-581.228 631.324,-577.752"/>
<polygon fill="midnightblue" stroke="midnightblue" points="631.569,-581.244 641.35,-577.172 631.165,-574.256 631.569,-581.244"/>
</g>
<!-- Node13 -->
<g id="node25" class="node"><title>Node13</title>
<a xlink:href="class_urho3_d_1_1_texture.html#a7eaf51cf81ac775bdc87e00ec1a47979" target="_top" xlink:title="Update changed parameters to OpenGL. Called by Graphics when binding the texture.">
<polygon fill="none" stroke="red" points="604.5,-305.645 604.5,-326.645 795.5,-326.645 795.5,-305.645 604.5,-305.645"/>
<text text-anchor="middle" x="700" y="-313.645" font-family="FreeSans" font-size="10.00">Urho3D::Texture::UpdateParameters</text>
</a>
</g>
<!-- Node2&#45;&gt;Node13 -->
<g id="edge24" class="edge"><title>Node2&#45;&gt;Node13</title>
<path fill="none" stroke="midnightblue" d="M265.247,-420.814C283.406,-443.319 329.435,-495.137 382,-514.145 459.74,-542.256 495.115,-553.152 568,-514.145 639.86,-475.687 679.356,-378.916 693.694,-336.547"/>
<polygon fill="midnightblue" stroke="midnightblue" points="697.029,-337.608 696.801,-327.016 690.374,-335.438 697.029,-337.608"/>
</g>
<!-- Node14 -->
<g id="node27" class="node"><title>Node14</title>
<a xlink:href="class_urho3_d_1_1_graphics.html#ab7a2098ed479f28acbd7b3549c5dc205" target="_top" xlink:title="Set texture.">
<polygon fill="none" stroke="red" points="396,-51.645 396,-72.645 554,-72.645 554,-51.645 396,-51.645"/>
<text text-anchor="middle" x="475" y="-59.645" font-family="FreeSans" font-size="10.00">Urho3D::Graphics::SetTexture</text>
</a>
</g>
<!-- Node2&#45;&gt;Node14 -->
<g id="edge26" class="edge"><title>Node2&#45;&gt;Node14</title>
<path fill="none" stroke="midnightblue" d="M334.788,-399.409C338.92,-396.851 342.715,-393.793 346,-390.145 438.222,-287.725 289.307,-184.138 382,-82.145 383.624,-80.3576 385.367,-78.7091 387.208,-77.1895"/>
<polygon fill="midnightblue" stroke="midnightblue" points="389.548,-79.8316 395.859,-71.3215 385.619,-74.0385 389.548,-79.8316"/>
</g>
<!-- Node15 -->
<g id="node32" class="node"><title>Node15</title>
<a xlink:href="class_urho3_d_1_1_graphics.html#a28b21a66b16b34b87b453bae0205a0c6" target="_top" xlink:title="Bind a framebuffer color attachment using either extension or core functionality.">
<polygon fill="none" stroke="black" points="398.5,-471.145 398.5,-505.145 551.5,-505.145 551.5,-471.145 398.5,-471.145"/>
<text text-anchor="start" x="406.5" y="-492.145" font-family="FreeSans" font-size="10.00">Urho3D::Graphics::BindColor</text>
<text text-anchor="middle" x="475" y="-479.145" font-family="FreeSans" font-size="10.00">Attachment</text>
</a>
</g>
<!-- Node2&#45;&gt;Node15 -->
<g id="edge34" class="edge"><title>Node2&#45;&gt;Node15</title>
<path fill="none" stroke="midnightblue" d="M280.171,-420.782C305.021,-431.954 345.798,-449.607 382,-462.145 387.926,-464.197 394.105,-466.205 400.338,-468.137"/>
<polygon fill="midnightblue" stroke="midnightblue" points="399.562,-471.559 410.148,-471.107 401.591,-464.86 399.562,-471.559"/>
</g>
<!-- Node16 -->
<g id="node35" class="node"><title>Node16</title>
<a xlink:href="class_urho3_d_1_1_render_surface.html#a5c60fb09e5a2dd4545148d5a06d57d4b" target="_top" xlink:title="Return renderbuffer if created.">
<polygon fill="none" stroke="black" points="410.5,-419.145 410.5,-453.145 539.5,-453.145 539.5,-419.145 410.5,-419.145"/>
<text text-anchor="start" x="418.5" y="-440.145" font-family="FreeSans" font-size="10.00">Urho3D::RenderSurface</text>
<text text-anchor="middle" x="475" y="-427.145" font-family="FreeSans" font-size="10.00">::GetRenderBuffer</text>
</a>
</g>
<!-- Node2&#45;&gt;Node16 -->
<g id="edge38" class="edge"><title>Node2&#45;&gt;Node16</title>
<path fill="none" stroke="midnightblue" d="M341.597,-420.235C360.974,-422.546 381.435,-424.986 400.358,-427.243"/>
<polygon fill="midnightblue" stroke="midnightblue" points="400.052,-430.731 410.397,-428.44 400.881,-423.78 400.052,-430.731"/>
</g>
<!-- Node17 -->
<g id="node37" class="node"><title>Node17</title>
<a xlink:href="class_urho3_d_1_1_graphics.html#ae19c4b22ebcbf2242f462b2e330ad166" target="_top" xlink:title="Bind a framebuffer depth attachment using either extension or core functionality.">
<polygon fill="none" stroke="black" points="396,-367.145 396,-401.145 554,-401.145 554,-367.145 396,-367.145"/>
<text text-anchor="start" x="404" y="-388.145" font-family="FreeSans" font-size="10.00">Urho3D::Graphics::BindDepth</text>
<text text-anchor="middle" x="475" y="-375.145" font-family="FreeSans" font-size="10.00">Attachment</text>
</a>
</g>
<!-- Node2&#45;&gt;Node17 -->
<g id="edge40" class="edge"><title>Node2&#45;&gt;Node17</title>
<path fill="none" stroke="midnightblue" d="M341.597,-400.056C356.086,-398.327 371.181,-396.527 385.787,-394.785"/>
<polygon fill="midnightblue" stroke="midnightblue" points="386.291,-398.25 395.806,-393.59 385.462,-391.299 386.291,-398.25"/>
</g>
<!-- Node18 -->
<g id="node39" class="node"><title>Node18</title>
<a xlink:href="class_urho3_d_1_1_graphics.html#a620884eac01f008636eda07edd907aa5" target="_top" xlink:title="Bind a framebuffer stencil attachment using either extension or core functionality.">
<polygon fill="none" stroke="black" points="394.5,-315.145 394.5,-349.145 555.5,-349.145 555.5,-315.145 394.5,-315.145"/>
<text text-anchor="start" x="402.5" y="-336.145" font-family="FreeSans" font-size="10.00">Urho3D::Graphics::BindStencil</text>
<text text-anchor="middle" x="475" y="-323.145" font-family="FreeSans" font-size="10.00">Attachment</text>
</a>
</g>
<!-- Node2&#45;&gt;Node18 -->
<g id="edge42" class="edge"><title>Node2&#45;&gt;Node18</title>
<path fill="none" stroke="midnightblue" d="M322.046,-399.587C330.34,-397.076 338.531,-393.975 346,-390.145 365.049,-380.377 363.21,-368.401 382,-358.145 385.283,-356.353 388.701,-354.676 392.204,-353.107"/>
<polygon fill="midnightblue" stroke="midnightblue" points="393.741,-356.259 401.645,-349.203 391.067,-349.79 393.741,-356.259"/>
</g>
<!-- Node19 -->
<g id="node41" class="node"><title>Node19</title>
<a xlink:href="class_urho3_d_1_1_texture.html#af0adf78530abb05a692b52c0df297c9f" target="_top" xlink:title="Return whether is using sRGB sampling and writing.">
<polygon fill="none" stroke="black" points="403,-275.645 403,-296.645 547,-296.645 547,-275.645 403,-275.645"/>
<text text-anchor="middle" x="475" y="-283.645" font-family="FreeSans" font-size="10.00">Urho3D::Texture::GetSRGB</text>
</a>
</g>
<!-- Node2&#45;&gt;Node19 -->
<g id="edge44" class="edge"><title>Node2&#45;&gt;Node19</title>
<path fill="none" stroke="midnightblue" d="M331.067,-399.501C336.431,-396.971 341.494,-393.891 346,-390.145 377.236,-364.182 350.645,-331.964 382,-306.145 385.538,-303.232 389.401,-300.715 393.479,-298.543"/>
<polygon fill="midnightblue" stroke="midnightblue" points="395.067,-301.666 402.702,-294.32 392.153,-295.301 395.067,-301.666"/>
</g>
<!-- Node5 -->
<g id="node9" class="node"><title>Node5</title>
<a xlink:href="class_urho3_d_1_1_render_surface.html#a1be67d97ab77b0d6f24776a3f75c5e6a" target="_top" xlink:title="Return width.">
<polygon fill="none" stroke="red" points="635.5,-797.145 635.5,-831.145 764.5,-831.145 764.5,-797.145 635.5,-797.145"/>
<text text-anchor="start" x="643.5" y="-818.145" font-family="FreeSans" font-size="10.00">Urho3D::RenderSurface</text>
<text text-anchor="middle" x="700" y="-805.145" font-family="FreeSans" font-size="10.00">::GetWidth</text>
</a>
</g>
<!-- Node4&#45;&gt;Node5 -->
<g id="edge8" class="edge"><title>Node4&#45;&gt;Node5</title>
<path fill="none" stroke="midnightblue" d="M554.01,-797.275C577.174,-799.952 602.421,-802.869 625.306,-805.514"/>
<polygon fill="midnightblue" stroke="midnightblue" points="624.961,-808.997 635.297,-806.668 625.765,-802.043 624.961,-808.997"/>
</g>
<!-- Node6 -->
<g id="node11" class="node"><title>Node6</title>
<a xlink:href="class_urho3_d_1_1_render_surface.html#a3c0b5d48265c55fd1692924b9e45ce24" target="_top" xlink:title="Return height.">
<polygon fill="none" stroke="red" points="635.5,-745.145 635.5,-779.145 764.5,-779.145 764.5,-745.145 635.5,-745.145"/>
<text text-anchor="start" x="643.5" y="-766.145" font-family="FreeSans" font-size="10.00">Urho3D::RenderSurface</text>
<text text-anchor="middle" x="700" y="-753.145" font-family="FreeSans" font-size="10.00">::GetHeight</text>
</a>
</g>
<!-- Node4&#45;&gt;Node6 -->
<g id="edge10" class="edge"><title>Node4&#45;&gt;Node6</title>
<path fill="none" stroke="midnightblue" d="M554.01,-779.015C577.174,-776.338 602.421,-773.421 625.306,-770.776"/>
<polygon fill="midnightblue" stroke="midnightblue" points="625.765,-774.247 635.297,-769.622 624.961,-767.293 625.765,-774.247"/>
</g>
<!-- Node11&#45;&gt;Node12 -->
<g id="edge22" class="edge"><title>Node11&#45;&gt;Node12</title>
<path fill="none" stroke="midnightblue" d="M554.01,-600.343C579.273,-595.29 607.015,-589.742 631.468,-584.851"/>
<polygon fill="midnightblue" stroke="midnightblue" points="632.254,-588.264 641.373,-582.87 630.881,-581.4 632.254,-588.264"/>
</g>
<!-- Node14&#45;&gt;Node10 -->
<g id="edge30" class="edge"><title>Node14&#45;&gt;Node10</title>
<path fill="none" stroke="midnightblue" d="M554.01,-55.1219C569.844,-53.7144 586.652,-52.2204 603.013,-50.766"/>
<polygon fill="midnightblue" stroke="midnightblue" points="603.48,-54.2385 613.13,-49.8667 602.86,-47.266 603.48,-54.2385"/>
</g>
<!-- Node14&#45;&gt;Node12 -->
<g id="edge28" class="edge"><title>Node14&#45;&gt;Node12</title>
<path fill="none" stroke="midnightblue" d="M554.022,-71.4305C559.196,-74.2718 563.948,-77.7944 568,-82.145 606.854,-123.862 589.107,-281.116 604,-336.145 625.256,-414.684 665.782,-502.163 686.729,-544.841"/>
<polygon fill="midnightblue" stroke="midnightblue" points="683.676,-546.563 691.249,-553.973 689.95,-543.458 683.676,-546.563"/>
</g>
<!-- Node14&#45;&gt;Node13 -->
<g id="edge32" class="edge"><title>Node14&#45;&gt;Node13</title>
<path fill="none" stroke="midnightblue" d="M551.001,-72.664C557.048,-75.2081 562.813,-78.327 568,-82.145 643.291,-137.563 681.601,-249.643 694.684,-295.689"/>
<polygon fill="midnightblue" stroke="midnightblue" points="691.334,-296.706 697.351,-305.427 698.085,-294.857 691.334,-296.706"/>
</g>
<!-- Node22&#45;&gt;Node4 -->
<g id="edge54" class="edge"><title>Node22&#45;&gt;Node4</title>
<path fill="none" stroke="midnightblue" d="M282.6,-724.788C307.688,-735.025 347.131,-750.604 382,-762.145 388.256,-764.215 394.783,-766.263 401.35,-768.246"/>
<polygon fill="midnightblue" stroke="midnightblue" points="400.392,-771.612 410.975,-771.1 402.382,-764.901 400.392,-771.612"/>
</g>
<!-- Node23 -->
<g id="node51" class="node"><title>Node23</title>
<a xlink:href="class_urho3_d_1_1_int_rect.html#a7d8747bfdd710559f3715160beac2872" target="_top" xlink:title="Return size.">
<polygon fill="none" stroke="black" points="416,-731.645 416,-752.645 534,-752.645 534,-731.645 416,-731.645"/>
<text text-anchor="middle" x="475" y="-739.645" font-family="FreeSans" font-size="10.00">Urho3D::IntRect::Size</text>
</a>
</g>
<!-- Node22&#45;&gt;Node23 -->
<g id="edge56" class="edge"><title>Node22&#45;&gt;Node23</title>
<path fill="none" stroke="midnightblue" d="M338.795,-724.651C360.907,-727.491 384.614,-730.536 405.951,-733.276"/>
<polygon fill="midnightblue" stroke="midnightblue" points="405.529,-736.751 415.894,-734.553 406.421,-729.808 405.529,-736.751"/>
</g>
<!-- Node22&#45;&gt;Node24 -->
<g id="edge58" class="edge"><title>Node22&#45;&gt;Node24</title>
<path fill="none" stroke="midnightblue" d="M345.669,-709.264C364.578,-708.223 384.334,-707.136 402.549,-706.133"/>
<polygon fill="midnightblue" stroke="midnightblue" points="402.993,-709.614 412.785,-705.57 402.608,-702.625 402.993,-709.614"/>
</g>
<!-- Node22&#45;&gt;Node25 -->
<g id="edge60" class="edge"><title>Node22&#45;&gt;Node25</title>
<path fill="none" stroke="midnightblue" d="M296.592,-703.591C321.128,-697.155 353.326,-688.896 382,-682.145 392.462,-679.682 403.614,-677.179 414.431,-674.815"/>
<polygon fill="midnightblue" stroke="midnightblue" points="415.208,-678.228 424.24,-672.688 413.725,-671.387 415.208,-678.228"/>
</g>
</g>
</svg>
        <g id="navigator" transform="translate(0 0)" fill="#404254">
                <rect fill="#f2f5e9" fill-opacity="0.5" stroke="#606060" stroke-width=".5" x="0" y="0" width="60" height="60"/>
                <use id="zoomplus" xlink:href="#zoomPlus" x="17" y="9" onmousedown="handleZoom(evt,'in')"/>
                <use id="zoomminus" xlink:href="#zoomMin" x="42" y="9" onmousedown="handleZoom(evt,'out')"/>
                <use id="reset" xlink:href="#resetDef" x="30" y="36" onmousedown="handleReset()"/>
                <g id="arrowUp" xlink:href="#dirArrow" transform="translate(30 24)" onmousedown="handlePan(0,-1)">
                  <use xlink:href="#rim" fill="#404040">
                        <set attributeName="fill" to="#808080" begin="arrowUp.mouseover" end="arrowUp.mouseout"/>
                  </use>
                  <path fill="none" stroke="white" stroke-width="1.5" d="M0,-3.0v7 M-2.5,-0.5L0,-3.0L2.5,-0.5"/>
                </g>
                <g id="arrowRight" xlink:href="#dirArrow" transform="rotate(90) translate(36 -43)" onmousedown="handlePan(1,0)">
                  <use xlink:href="#rim" fill="#404040">
                        <set attributeName="fill" to="#808080" begin="arrowRight.mouseover" end="arrowRight.mouseout"/>
                  </use>
                  <path fill="none" stroke="white" stroke-width="1.5" d="M0,-3.0v7 M-2.5,-0.5L0,-3.0L2.5,-0.5"/>
                </g>
                <g id="arrowDown" xlink:href="#dirArrow" transform="rotate(180) translate(-30 -48)" onmousedown="handlePan(0,1)">
                  <use xlink:href="#rim" fill="#404040">
                        <set attributeName="fill" to="#808080" begin="arrowDown.mouseover" end="arrowDown.mouseout"/>
                  </use>
                  <path fill="none" stroke="white" stroke-width="1.5" d="M0,-3.0v7 M-2.5,-0.5L0,-3.0L2.5,-0.5"/>
                </g>
                <g id="arrowLeft" xlink:href="#dirArrow" transform="rotate(270) translate(-36 17)" onmousedown="handlePan(-1,0)">
                  <use xlink:href="#rim" fill="#404040">
                        <set attributeName="fill" to="#808080" begin="arrowLeft.mouseover" end="arrowLeft.mouseout"/>
                  </use>
                  <path fill="none" stroke="white" stroke-width="1.5" d="M0,-3.0v7 M-2.5,-0.5L0,-3.0L2.5,-0.5"/>
                </g>
        </g>
        <svg viewBox="0 0 15 15" width="100%" height="30px" preserveAspectRatio="xMaxYMin meet">
         <g id="arrow_out" transform="scale(0.3 0.3)">
          <a xlink:href="class_urho3_d_1_1_graphics_a3e7b555e97944dd99eef236499d73d7b_cgraph_org.svg" target="_base">
           <rect id="button" ry="5" rx="5" y="6" x="6" height="38" width="38"
                fill="#f2f5e9" fill-opacity="0.5" stroke="#606060" stroke-width="1.0"/>
           <path id="arrow"
             d="M 11.500037,31.436501 C 11.940474,20.09759 22.043105,11.32322 32.158766,21.979434 L 37.068811,17.246167 C 37.068811,17.246167 37.088388,32 37.088388,32 L 22.160133,31.978069 C 22.160133,31.978069 26.997745,27.140456 26.997745,27.140456 C 18.528582,18.264221 13.291696,25.230495 11.500037,31.436501 z"
             style="fill:#404040;"/>
          </a>
         </g>
        </svg>
</svg>
