<?xml version="1.0" encoding="UTF-8" standalone="no"?>
<!DOCTYPE svg PUBLIC "-//W3C//DTD SVG 1.1//EN"
 "http://www.w3.org/Graphics/SVG/1.1/DTD/svg11.dtd">
<!-- Generated by graphviz version 2.26.3 (20100126.1600)
 -->
<!-- Title: Urho3D::DbConnection Pages: 1 -->
<svg width="1204pt" height="829pt"
 viewBox="0.00 0.00 1204.00 829.00" xmlns="http://www.w3.org/2000/svg" xmlns:xlink="http://www.w3.org/1999/xlink">
<g id="graph1" class="graph" transform="scale(1 1) rotate(0) translate(4 825)">
<title>Urho3D::DbConnection</title>
<!-- Node1 -->
<g id="node1" class="node"><title>Node1</title>
<polygon fill="#bfbfbf" stroke="black" points="731.5,-734.5 731.5,-755.5 858.5,-755.5 858.5,-734.5 731.5,-734.5"/>
<text text-anchor="middle" x="795" y="-742.5" font-family="FreeSans" font-size="10.00">Urho3D::DbConnection</text>
</g>
<!-- Node2 -->
<g id="node2" class="node"><title>Node2</title>
<a xlink:href="class_urho3_d_1_1_object.html" target="_top" xlink:title="Base class for objects with type identification, subsystem access and event sending/receiving capabil...">
<polygon fill="none" stroke="black" points="455,-692.5 455,-713.5 545,-713.5 545,-692.5 455,-692.5"/>
<text text-anchor="middle" x="500" y="-700.5" font-family="FreeSans" font-size="10.00">Urho3D::Object</text>
</a>
</g>
<!-- Node2&#45;&gt;Node1 -->
<g id="edge2" class="edge"><title>Node2&#45;&gt;Node1</title>
<path fill="none" stroke="midnightblue" d="M555.208,-705.458C613.178,-711.736 702.943,-724.712 754.623,-734.436"/>
<polygon fill="midnightblue" stroke="midnightblue" points="555.436,-701.963 545.125,-704.402 554.706,-708.925 555.436,-701.963"/>
</g>
<!-- Node2&#45;&gt;Node1 -->
<g id="edge72" class="edge"><title>Node2&#45;&gt;Node1</title>
<path fill="none" stroke="midnightblue" d="M550.029,-715.339C600.054,-724.344 677.16,-735.471 731.478,-741.62"/>
<polygon fill="midnightblue" stroke="midnightblue" points="550.56,-711.878 540.092,-713.511 549.293,-718.763 550.56,-711.878"/>
</g>
<!-- Node8 -->
<g id="node15" class="node"><title>Node8</title>
<a xlink:href="class_urho3_d_1_1_event_handler.html" target="_top" xlink:title="Internal helper class for invoking event handler functions.">
<polygon fill="none" stroke="black" points="733,-581.5 733,-602.5 857,-602.5 857,-581.5 733,-581.5"/>
<text text-anchor="middle" x="795" y="-589.5" font-family="FreeSans" font-size="10.00">Urho3D::EventHandler</text>
</a>
</g>
<!-- Node2&#45;&gt;Node8 -->
<g id="edge22" class="edge"><title>Node2&#45;&gt;Node8</title>
<path fill="none" stroke="#9a32cd" stroke-dasharray="5,2" d="M554.218,-691.51C558.521,-689.176 562.535,-686.371 566,-683 584.133,-665.359 564.837,-645.516 584,-629 595.269,-619.288 674.874,-607.263 732.992,-599.61"/>
<polygon fill="#9a32cd" stroke="#9a32cd" points="552.719,-688.346 545.062,-695.669 555.614,-694.72 552.719,-688.346"/>
<text text-anchor="middle" x="629" y="-646" font-family="FreeSans" font-size="10.00"> sender_</text>
<text text-anchor="middle" x="629" y="-633" font-family="FreeSans" font-size="10.00">receiver_</text>
</g>
<!-- Node3 -->
<g id="node4" class="node"><title>Node3</title>
<a xlink:href="class_urho3_d_1_1_ref_counted.html" target="_top" xlink:title="Base class for intrusively reference&#45;counted objects. These are noncopyable and non&#45;assignable.">
<polygon fill="none" stroke="black" points="224,-523.5 224,-544.5 338,-544.5 338,-523.5 224,-523.5"/>
<text text-anchor="middle" x="281" y="-531.5" font-family="FreeSans" font-size="10.00">Urho3D::RefCounted</text>
</a>
</g>
<!-- Node3&#45;&gt;Node2 -->
<g id="edge4" class="edge"><title>Node3&#45;&gt;Node2</title>
<path fill="none" stroke="midnightblue" d="M295.188,-552.764C319.953,-584.239 374.168,-647.686 434,-683 440.393,-686.773 447.56,-689.892 454.752,-692.452"/>
<polygon fill="midnightblue" stroke="midnightblue" points="297.896,-550.545 289.004,-544.784 292.363,-554.833 297.896,-550.545"/>
</g>
<!-- Node5 -->
<g id="node8" class="node"><title>Node5</title>
<a xlink:href="class_urho3_d_1_1_context.html" target="_top" xlink:title="Urho3D execution context. Provides access to subsystems, object factories and attributes, and event receivers.">
<polygon fill="none" stroke="black" points="1074.5,-355.5 1074.5,-376.5 1171.5,-376.5 1171.5,-355.5 1074.5,-355.5"/>
<text text-anchor="middle" x="1123" y="-363.5" font-family="FreeSans" font-size="10.00">Urho3D::Context</text>
</a>
</g>
<!-- Node3&#45;&gt;Node5 -->
<g id="edge10" class="edge"><title>Node3&#45;&gt;Node5</title>
<path fill="none" stroke="midnightblue" d="M348.615,-534.504C462.534,-534.483 699.713,-530.695 898,-503 958.541,-494.544 979.707,-503.657 1032,-472 1072.67,-447.381 1104.4,-398.325 1117.05,-376.682"/>
<polygon fill="midnightblue" stroke="midnightblue" points="348.314,-531.004 338.311,-534.496 348.308,-538.004 348.314,-531.004"/>
</g>
<!-- Node4 -->
<g id="node6" class="node"><title>Node4</title>
<a xlink:href="struct_urho3_d_1_1_ref_count.html" target="_top" xlink:title="Reference count structure.">
<polygon fill="none" stroke="black" points="13,-523.5 13,-544.5 115,-544.5 115,-523.5 13,-523.5"/>
<text text-anchor="middle" x="64" y="-531.5" font-family="FreeSans" font-size="10.00">Urho3D::RefCount</text>
</a>
</g>
<!-- Node4&#45;&gt;Node3 -->
<g id="edge6" class="edge"><title>Node4&#45;&gt;Node3</title>
<path fill="none" stroke="#9a32cd" stroke-dasharray="5,2" d="M125.358,-534C156.225,-534 193.412,-534 223.695,-534"/>
<polygon fill="#9a32cd" stroke="#9a32cd" points="125.151,-530.5 115.151,-534 125.151,-537.5 125.151,-530.5"/>
<text text-anchor="middle" x="171" y="-538" font-family="FreeSans" font-size="10.00"> refCount_</text>
</g>
<!-- Node5&#45;&gt;Node2 -->
<g id="edge8" class="edge"><title>Node5&#45;&gt;Node2</title>
<path fill="none" stroke="#9a32cd" stroke-dasharray="5,2" d="M1119.2,-386.668C1108.06,-444.869 1073.61,-607.978 1032,-640 1002,-663.084 729.487,-655.774 692,-661 638.773,-668.421 578.366,-682.608 539.76,-692.427"/>
<polygon fill="#9a32cd" stroke="#9a32cd" points="1122.65,-387.261 1121.06,-376.786 1115.77,-385.966 1122.65,-387.261"/>
<text text-anchor="middle" x="795" y="-665" font-family="FreeSans" font-size="10.00"> context_</text>
</g>
<!-- Node6 -->
<g id="node11" class="node"><title>Node6</title>
<a xlink:href="class_urho3_d_1_1_p_o_d_vector.html" target="_top" xlink:title="Urho3D::PODVector\&lt;\l Urho3D::Object * \&gt;">
<polygon fill="none" stroke="black" points="735.5,-460 735.5,-494 854.5,-494 854.5,-460 735.5,-460"/>
<text text-anchor="start" x="743.5" y="-481" font-family="FreeSans" font-size="10.00">Urho3D::PODVector&lt;</text>
<text text-anchor="middle" x="795" y="-468" font-family="FreeSans" font-size="10.00"> Urho3D::Object * &gt;</text>
</a>
</g>
<!-- Node6&#45;&gt;Node5 -->
<g id="edge12" class="edge"><title>Node6&#45;&gt;Node5</title>
<path fill="none" stroke="#9a32cd" stroke-dasharray="5,2" d="M864.974,-465.874C913.089,-456.859 977.825,-442.003 1032,-420 1060.59,-408.387 1090.85,-388.76 1108.27,-376.639"/>
<polygon fill="#9a32cd" stroke="#9a32cd" points="864.173,-462.462 854.969,-467.709 865.436,-469.347 864.173,-462.462"/>
<text text-anchor="middle" x="974" y="-459" font-family="FreeSans" font-size="10.00"> eventSenders_</text>
</g>
<!-- Node7 -->
<g id="node13" class="node"><title>Node7</title>
<a xlink:href="class_urho3_d_1_1_vector_base.html" target="_top" xlink:title="Vector base class.">
<polygon fill="none" stroke="black" points="443,-440.5 443,-461.5 557,-461.5 557,-440.5 443,-440.5"/>
<text text-anchor="middle" x="500" y="-448.5" font-family="FreeSans" font-size="10.00">Urho3D::VectorBase</text>
</a>
</g>
<!-- Node7&#45;&gt;Node6 -->
<g id="edge14" class="edge"><title>Node7&#45;&gt;Node6</title>
<path fill="none" stroke="midnightblue" d="M567.425,-456.943C618.062,-461.405 686.767,-467.461 735.401,-471.747"/>
<polygon fill="midnightblue" stroke="midnightblue" points="567.497,-453.435 557.229,-456.044 566.883,-460.408 567.497,-453.435"/>
</g>
<!-- Node18 -->
<g id="node43" class="node"><title>Node18</title>
<a xlink:href="class_urho3_d_1_1_p_o_d_vector.html" target="_top" xlink:title="Urho3D::PODVector\&lt;\l Urho3D::HashMap * \&gt;">
<polygon fill="none" stroke="black" points="731.5,-408 731.5,-442 858.5,-442 858.5,-408 731.5,-408"/>
<text text-anchor="start" x="739.5" y="-429" font-family="FreeSans" font-size="10.00">Urho3D::PODVector&lt;</text>
<text text-anchor="middle" x="795" y="-416" font-family="FreeSans" font-size="10.00"> Urho3D::HashMap * &gt;</text>
</a>
</g>
<!-- Node7&#45;&gt;Node18 -->
<g id="edge54" class="edge"><title>Node7&#45;&gt;Node18</title>
<path fill="none" stroke="midnightblue" d="M567.46,-445.054C616.679,-440.716 682.953,-434.875 731.277,-430.616"/>
<polygon fill="midnightblue" stroke="midnightblue" points="566.883,-441.592 557.229,-445.956 567.497,-448.565 566.883,-441.592"/>
</g>
<!-- Node8&#45;&gt;Node5 -->
<g id="edge16" class="edge"><title>Node8&#45;&gt;Node5</title>
<path fill="none" stroke="#9a32cd" stroke-dasharray="5,2" d="M867.373,-590.212C918.064,-585.56 984.894,-572.234 1032,-536 1087.46,-493.343 1113.02,-407.028 1120.53,-376.773"/>
<polygon fill="#9a32cd" stroke="#9a32cd" points="866.816,-586.745 857.137,-591.054 867.391,-593.722 866.816,-586.745"/>
<text text-anchor="middle" x="974" y="-587" font-family="FreeSans" font-size="10.00"> eventHandler_</text>
</g>
<!-- Node22 -->
<g id="node55" class="node"><title>Node22</title>
<a xlink:href="class_urho3_d_1_1_linked_list.html" target="_top" xlink:title="Urho3D::LinkedList\l\&lt; Urho3D::EventHandler \&gt;">
<polygon fill="none" stroke="black" points="1050,-643 1050,-677 1196,-677 1196,-643 1050,-643"/>
<text text-anchor="start" x="1058" y="-664" font-family="FreeSans" font-size="10.00">Urho3D::LinkedList</text>
<text text-anchor="middle" x="1123" y="-651" font-family="FreeSans" font-size="10.00">&lt; Urho3D::EventHandler &gt;</text>
</a>
</g>
<!-- Node8&#45;&gt;Node22 -->
<g id="edge70" class="edge"><title>Node8&#45;&gt;Node22</title>
<path fill="none" stroke="#9a32cd" stroke-dasharray="5,2" d="M855.814,-604.608C910.638,-615.974 991.372,-632.711 1049.73,-644.811"/>
<polygon fill="#9a32cd" stroke="#9a32cd" points="856.392,-601.153 845.89,-602.55 854.971,-608.008 856.392,-601.153"/>
<text text-anchor="middle" x="974" y="-643" font-family="FreeSans" font-size="10.00"> head_</text>
</g>
<!-- Node9 -->
<g id="node17" class="node"><title>Node9</title>
<a xlink:href="struct_urho3_d_1_1_linked_list_node.html" target="_top" xlink:title="Singly&#45;linked list node base class.">
<polygon fill="none" stroke="black" points="434,-550.5 434,-571.5 566,-571.5 566,-550.5 434,-550.5"/>
<text text-anchor="middle" x="500" y="-558.5" font-family="FreeSans" font-size="10.00">Urho3D::LinkedListNode</text>
</a>
</g>
<!-- Node9&#45;&gt;Node8 -->
<g id="edge18" class="edge"><title>Node9&#45;&gt;Node8</title>
<path fill="none" stroke="midnightblue" d="M576.345,-564.826C606.781,-566.727 642.101,-569.402 674,-573 693.863,-575.24 715.453,-578.397 734.823,-581.495"/>
<polygon fill="midnightblue" stroke="midnightblue" points="576.416,-561.324 566.222,-564.211 575.991,-568.311 576.416,-561.324"/>
</g>
<!-- Node9&#45;&gt;Node9 -->
<g id="edge20" class="edge"><title>Node9&#45;&gt;Node9</title>
<path fill="none" stroke="#9a32cd" stroke-dasharray="5,2" d="M480.097,-581.427C481.632,-586.349 488.267,-590 500,-590 518.773,-590 524.493,-580.653 517.16,-571.708"/>
<polygon fill="#9a32cd" stroke="#9a32cd" points="483.492,-582.283 482.84,-571.708 476.755,-580.381 483.492,-582.283"/>
<text text-anchor="middle" x="500" y="-594" font-family="FreeSans" font-size="10.00"> next_</text>
</g>
<!-- Node10 -->
<g id="node21" class="node"><title>Node10</title>
<a xlink:href="class_urho3_d_1_1_string_hash.html" target="_top" xlink:title="32&#45;bit hash value for a string.">
<polygon fill="none" stroke="black" points="443.5,-621.5 443.5,-642.5 556.5,-642.5 556.5,-621.5 443.5,-621.5"/>
<text text-anchor="middle" x="500" y="-629.5" font-family="FreeSans" font-size="10.00">Urho3D::StringHash</text>
</a>
</g>
<!-- Node10&#45;&gt;Node8 -->
<g id="edge24" class="edge"><title>Node10&#45;&gt;Node8</title>
<path fill="none" stroke="#9a32cd" stroke-dasharray="5,2" d="M555.404,-617.609C559.088,-615.928 562.658,-614.065 566,-612 575.896,-605.887 573.325,-597.622 584,-593 635.266,-570.805 700.329,-574.698 744.559,-581.474"/>
<polygon fill="#9a32cd" stroke="#9a32cd" points="554.009,-614.398 546.075,-621.42 556.656,-620.878 554.009,-614.398"/>
<text text-anchor="middle" x="629" y="-597" font-family="FreeSans" font-size="10.00"> eventType_</text>
</g>
<!-- Node10&#45;&gt;Node10 -->
<g id="edge26" class="edge"><title>Node10&#45;&gt;Node10</title>
<path fill="none" stroke="#9a32cd" stroke-dasharray="5,2" d="M480.097,-652.427C481.632,-657.349 488.267,-661 500,-661 518.773,-661 524.493,-651.653 517.16,-642.708"/>
<polygon fill="#9a32cd" stroke="#9a32cd" points="483.492,-653.283 482.84,-642.708 476.755,-651.381 483.492,-653.283"/>
<text text-anchor="middle" x="500" y="-665" font-family="FreeSans" font-size="10.00"> ZERO</text>
</g>
<!-- Node11 -->
<g id="node24" class="node"><title>Node11</title>
<a xlink:href="class_urho3_d_1_1_hash_map.html" target="_top" xlink:title="Urho3D::HashMap\&lt; Urho3D\l::StringHash, Urho3D::\lHashSet\&lt; Urho3D::Object * \&gt; \&gt;">
<polygon fill="none" stroke="black" points="708.5,-78.5 708.5,-125.5 881.5,-125.5 881.5,-78.5 708.5,-78.5"/>
<text text-anchor="start" x="716.5" y="-112.5" font-family="FreeSans" font-size="10.00">Urho3D::HashMap&lt; Urho3D</text>
<text text-anchor="start" x="716.5" y="-99.5" font-family="FreeSans" font-size="10.00">::StringHash, Urho3D::</text>
<text text-anchor="middle" x="795" y="-86.5" font-family="FreeSans" font-size="10.00">HashSet&lt; Urho3D::Object * &gt; &gt;</text>
</a>
</g>
<!-- Node11&#45;&gt;Node5 -->
<g id="edge28" class="edge"><title>Node11&#45;&gt;Node5</title>
<path fill="none" stroke="#9a32cd" stroke-dasharray="5,2" d="M891.557,-112.364C938.446,-121.685 992.944,-139.387 1032,-173 1091.53,-224.23 1114.87,-322.968 1121.13,-355.396"/>
<polygon fill="#9a32cd" stroke="#9a32cd" points="892.15,-108.914 881.675,-110.5 890.852,-115.793 892.15,-108.914"/>
<text text-anchor="middle" x="974" y="-177" font-family="FreeSans" font-size="10.00"> eventReceivers_</text>
</g>
<!-- Node12 -->
<g id="node26" class="node"><title>Node12</title>
<a xlink:href="class_urho3_d_1_1_hash_base.html" target="_top" xlink:title="Hash set/map base class.">
<polygon fill="none" stroke="black" points="446,-195.5 446,-216.5 554,-216.5 554,-195.5 446,-195.5"/>
<text text-anchor="middle" x="500" y="-203.5" font-family="FreeSans" font-size="10.00">Urho3D::HashBase</text>
</a>
</g>
<!-- Node12&#45;&gt;Node11 -->
<g id="edge30" class="edge"><title>Node12&#45;&gt;Node11</title>
<path fill="none" stroke="midnightblue" d="M537.276,-191.66C575.834,-176.959 637.874,-153.668 692,-135 701.053,-131.878 710.587,-128.69 720.051,-125.586"/>
<polygon fill="midnightblue" stroke="midnightblue" points="535.617,-188.548 527.525,-195.386 538.115,-195.086 535.617,-188.548"/>
</g>
<!-- Node16 -->
<g id="node37" class="node"><title>Node16</title>
<a xlink:href="class_urho3_d_1_1_hash_map.html" target="_top" xlink:title="Urho3D::HashMap\&lt; Urho3D\l::Object *, Urho3D::HashMap\l\&lt; Urho3D::StringHash, Urho3D\l::HashSet\&lt; Urho3D::Object * \&gt; \&gt; \&gt;">
<polygon fill="none" stroke="black" points="699.5,-0 699.5,-60 890.5,-60 890.5,-0 699.5,-0"/>
<text text-anchor="start" x="707.5" y="-47" font-family="FreeSans" font-size="10.00">Urho3D::HashMap&lt; Urho3D</text>
<text text-anchor="start" x="707.5" y="-34" font-family="FreeSans" font-size="10.00">::Object *, Urho3D::HashMap</text>
<text text-anchor="start" x="707.5" y="-21" font-family="FreeSans" font-size="10.00">&lt; Urho3D::StringHash, Urho3D</text>
<text text-anchor="middle" x="795" y="-8" font-family="FreeSans" font-size="10.00">::HashSet&lt; Urho3D::Object * &gt; &gt; &gt;</text>
</a>
</g>
<!-- Node12&#45;&gt;Node16 -->
<g id="edge46" class="edge"><title>Node12&#45;&gt;Node16</title>
<path fill="none" stroke="midnightblue" d="M519.855,-188.687C553.314,-160.264 623.962,-103.434 692,-69 698.142,-65.8917 704.593,-62.8863 711.145,-60.0164"/>
<polygon fill="midnightblue" stroke="midnightblue" points="517.489,-186.105 512.173,-195.27 522.044,-191.42 517.489,-186.105"/>
</g>
<!-- Node17 -->
<g id="node40" class="node"><title>Node17</title>
<a xlink:href="class_urho3_d_1_1_hash_map.html" target="_top" xlink:title="Urho3D::HashMap\&lt; Urho3D\l::StringHash, Urho3D::\lSharedPtr\&lt; Urho3D::Object \&gt; \&gt;">
<polygon fill="none" stroke="black" points="709,-342.5 709,-389.5 881,-389.5 881,-342.5 709,-342.5"/>
<text text-anchor="start" x="717" y="-376.5" font-family="FreeSans" font-size="10.00">Urho3D::HashMap&lt; Urho3D</text>
<text text-anchor="start" x="717" y="-363.5" font-family="FreeSans" font-size="10.00">::StringHash, Urho3D::</text>
<text text-anchor="middle" x="795" y="-350.5" font-family="FreeSans" font-size="10.00">SharedPtr&lt; Urho3D::Object &gt; &gt;</text>
</a>
</g>
<!-- Node12&#45;&gt;Node17 -->
<g id="edge50" class="edge"><title>Node12&#45;&gt;Node17</title>
<path fill="none" stroke="midnightblue" d="M521.076,-222.778C555.23,-249.292 625.56,-301.133 692,-333 699.026,-336.37 706.481,-339.515 714.041,-342.418"/>
<polygon fill="midnightblue" stroke="midnightblue" points="523.229,-220.018 513.197,-216.61 518.914,-225.53 523.229,-220.018"/>
</g>
<!-- Node19 -->
<g id="node46" class="node"><title>Node19</title>
<a xlink:href="class_urho3_d_1_1_hash_map.html" target="_top" xlink:title="Urho3D::HashMap\&lt; Urho3D\l::StringHash, Urho3D::\lSharedPtr\&lt; Urho3D::ObjectFactory \&gt; \&gt;">
<polygon fill="none" stroke="black" points="692,-210.5 692,-257.5 898,-257.5 898,-210.5 692,-210.5"/>
<text text-anchor="start" x="700" y="-244.5" font-family="FreeSans" font-size="10.00">Urho3D::HashMap&lt; Urho3D</text>
<text text-anchor="start" x="700" y="-231.5" font-family="FreeSans" font-size="10.00">::StringHash, Urho3D::</text>
<text text-anchor="middle" x="795" y="-218.5" font-family="FreeSans" font-size="10.00">SharedPtr&lt; Urho3D::ObjectFactory &gt; &gt;</text>
</a>
</g>
<!-- Node12&#45;&gt;Node19 -->
<g id="edge58" class="edge"><title>Node12&#45;&gt;Node19</title>
<path fill="none" stroke="midnightblue" d="M564.341,-212.107C601.664,-215.649 649.538,-220.193 691.988,-224.223"/>
<polygon fill="midnightblue" stroke="midnightblue" points="564.394,-208.596 554.108,-211.136 563.732,-215.565 564.394,-208.596"/>
</g>
<!-- Node20 -->
<g id="node49" class="node"><title>Node20</title>
<a xlink:href="class_urho3_d_1_1_hash_map.html" target="_top" xlink:title="Urho3D::HashMap\&lt; Urho3D\l::String, Urho3D::Vector\l\&lt; Urho3D::StringHash \&gt; \&gt;">
<polygon fill="none" stroke="black" points="719,-144.5 719,-191.5 871,-191.5 871,-144.5 719,-144.5"/>
<text text-anchor="start" x="727" y="-178.5" font-family="FreeSans" font-size="10.00">Urho3D::HashMap&lt; Urho3D</text>
<text text-anchor="start" x="727" y="-165.5" font-family="FreeSans" font-size="10.00">::String, Urho3D::Vector</text>
<text text-anchor="middle" x="795" y="-152.5" font-family="FreeSans" font-size="10.00">&lt; Urho3D::StringHash &gt; &gt;</text>
</a>
</g>
<!-- Node12&#45;&gt;Node20 -->
<g id="edge62" class="edge"><title>Node12&#45;&gt;Node20</title>
<path fill="none" stroke="midnightblue" d="M564.139,-197.738C609.596,-191.883 670.78,-184.001 718.739,-177.823"/>
<polygon fill="midnightblue" stroke="midnightblue" points="563.578,-194.281 554.108,-199.03 564.473,-201.224 563.578,-194.281"/>
</g>
<!-- Node21 -->
<g id="node52" class="node"><title>Node21</title>
<a xlink:href="class_urho3_d_1_1_hash_map.html" target="_top" xlink:title="Urho3D::HashMap\&lt; Urho3D\l::StringHash, Urho3D::\lVector\&lt; Urho3D::AttributeInfo \&gt; \&gt;">
<polygon fill="none" stroke="black" points="703.5,-276.5 703.5,-323.5 886.5,-323.5 886.5,-276.5 703.5,-276.5"/>
<text text-anchor="start" x="711.5" y="-310.5" font-family="FreeSans" font-size="10.00">Urho3D::HashMap&lt; Urho3D</text>
<text text-anchor="start" x="711.5" y="-297.5" font-family="FreeSans" font-size="10.00">::StringHash, Urho3D::</text>
<text text-anchor="middle" x="795" y="-284.5" font-family="FreeSans" font-size="10.00">Vector&lt; Urho3D::AttributeInfo &gt; &gt;</text>
</a>
</g>
<!-- Node12&#45;&gt;Node21 -->
<g id="edge66" class="edge"><title>Node12&#45;&gt;Node21</title>
<path fill="none" stroke="midnightblue" d="M542.535,-219.704C555.812,-223.973 570.512,-228.691 584,-233 629.398,-247.504 680.321,-263.677 720.766,-276.499"/>
<polygon fill="midnightblue" stroke="midnightblue" points="543.294,-216.272 532.702,-216.541 541.15,-222.935 543.294,-216.272"/>
</g>
<!-- Node13 -->
<g id="node28" class="node"><title>Node13</title>
<a xlink:href="struct_urho3_d_1_1_hash_node_base.html" target="_top" xlink:title="Hash set/map node base class.">
<polygon fill="none" stroke="black" points="214,-214.5 214,-235.5 348,-235.5 348,-214.5 214,-214.5"/>
<text text-anchor="middle" x="281" y="-222.5" font-family="FreeSans" font-size="10.00">Urho3D::HashNodeBase</text>
</a>
</g>
<!-- Node13&#45;&gt;Node12 -->
<g id="edge32" class="edge"><title>Node13&#45;&gt;Node12</title>
<path fill="none" stroke="#9a32cd" stroke-dasharray="5,2" d="M358.269,-218.296C387.177,-215.788 419.375,-212.995 445.768,-210.705"/>
<polygon fill="#9a32cd" stroke="#9a32cd" points="357.856,-214.819 348.196,-219.17 358.461,-221.793 357.856,-214.819"/>
<text text-anchor="middle" x="391" y="-248" font-family="FreeSans" font-size="10.00"> ptrs_</text>
<text text-anchor="middle" x="391" y="-235" font-family="FreeSans" font-size="10.00">tail_</text>
<text text-anchor="middle" x="391" y="-222" font-family="FreeSans" font-size="10.00">head_</text>
</g>
<!-- Node13&#45;&gt;Node13 -->
<g id="edge34" class="edge"><title>Node13&#45;&gt;Node13</title>
<path fill="none" stroke="#9a32cd" stroke-dasharray="5,2" d="M260.728,-245.427C262.292,-250.349 269.049,-254 281,-254 300.121,-254 305.947,-244.653 298.478,-235.708"/>
<polygon fill="#9a32cd" stroke="#9a32cd" points="264.123,-246.286 263.522,-235.708 257.395,-244.352 264.123,-246.286"/>
<text text-anchor="middle" x="281" y="-284" font-family="FreeSans" font-size="10.00"> next_</text>
<text text-anchor="middle" x="281" y="-271" font-family="FreeSans" font-size="10.00">prev_</text>
<text text-anchor="middle" x="281" y="-258" font-family="FreeSans" font-size="10.00">down_</text>
</g>
<!-- Node14 -->
<g id="node31" class="node"><title>Node14</title>
<a xlink:href="struct_urho3_d_1_1_allocator_block.html" target="_top" xlink:title="Allocator memory block.">
<polygon fill="none" stroke="black" points="217.5,-143.5 217.5,-164.5 344.5,-164.5 344.5,-143.5 217.5,-143.5"/>
<text text-anchor="middle" x="281" y="-151.5" font-family="FreeSans" font-size="10.00">Urho3D::AllocatorBlock</text>
</a>
</g>
<!-- Node14&#45;&gt;Node12 -->
<g id="edge36" class="edge"><title>Node14&#45;&gt;Node12</title>
<path fill="none" stroke="#9a32cd" stroke-dasharray="5,2" d="M335.457,-166.931C372.552,-175.738 421.035,-187.25 455.748,-195.493"/>
<polygon fill="#9a32cd" stroke="#9a32cd" points="335.856,-163.428 325.318,-164.523 334.239,-170.239 335.856,-163.428"/>
<text text-anchor="middle" x="391" y="-189" font-family="FreeSans" font-size="10.00"> allocator_</text>
</g>
<!-- Node14&#45;&gt;Node14 -->
<g id="edge38" class="edge"><title>Node14&#45;&gt;Node14</title>
<path fill="none" stroke="#9a32cd" stroke-dasharray="5,2" d="M260.728,-174.427C262.292,-179.349 269.049,-183 281,-183 300.121,-183 305.947,-173.653 298.478,-164.708"/>
<polygon fill="#9a32cd" stroke="#9a32cd" points="264.123,-175.286 263.522,-164.708 257.395,-173.352 264.123,-175.286"/>
<text text-anchor="middle" x="281" y="-187" font-family="FreeSans" font-size="10.00"> next_</text>
</g>
<!-- Node15 -->
<g id="node34" class="node"><title>Node15</title>
<a xlink:href="struct_urho3_d_1_1_allocator_node.html" target="_top" xlink:title="Allocator node.">
<polygon fill="none" stroke="black" points="0.5,-143.5 0.5,-164.5 127.5,-164.5 127.5,-143.5 0.5,-143.5"/>
<text text-anchor="middle" x="64" y="-151.5" font-family="FreeSans" font-size="10.00">Urho3D::AllocatorNode</text>
</a>
</g>
<!-- Node15&#45;&gt;Node14 -->
<g id="edge40" class="edge"><title>Node15&#45;&gt;Node14</title>
<path fill="none" stroke="#9a32cd" stroke-dasharray="5,2" d="M137.765,-154C163.616,-154 192.409,-154 217.36,-154"/>
<polygon fill="#9a32cd" stroke="#9a32cd" points="137.641,-150.5 127.641,-154 137.641,-157.5 137.641,-150.5"/>
<text text-anchor="middle" x="171" y="-158" font-family="FreeSans" font-size="10.00"> free_</text>
</g>
<!-- Node15&#45;&gt;Node15 -->
<g id="edge42" class="edge"><title>Node15&#45;&gt;Node15</title>
<path fill="none" stroke="#9a32cd" stroke-dasharray="5,2" d="M44.4653,-174.427C45.9723,-179.349 52.4839,-183 64,-183 82.4258,-183 88.0399,-173.653 80.8423,-164.708"/>
<polygon fill="#9a32cd" stroke="#9a32cd" points="47.8609,-175.279 47.1577,-164.708 41.1149,-173.41 47.8609,-175.279"/>
<text text-anchor="middle" x="64" y="-187" font-family="FreeSans" font-size="10.00"> next_</text>
</g>
<!-- Node16&#45;&gt;Node5 -->
<g id="edge44" class="edge"><title>Node16&#45;&gt;Node5</title>
<path fill="none" stroke="#9a32cd" stroke-dasharray="5,2" d="M900.688,-40.5688C946.144,-50.0917 996.805,-68.0842 1032,-102 1108.28,-175.504 1120.64,-315.855 1122.62,-355.397"/>
<polygon fill="#9a32cd" stroke="#9a32cd" points="901.264,-37.1149 890.775,-38.6064 899.905,-43.9817 901.264,-37.1149"/>
<text text-anchor="middle" x="974" y="-106" font-family="FreeSans" font-size="10.00"> specificEventReceivers_</text>
</g>
<!-- Node17&#45;&gt;Node5 -->
<g id="edge48" class="edge"><title>Node17&#45;&gt;Node5</title>
<path fill="none" stroke="#9a32cd" stroke-dasharray="5,2" d="M891.462,-366C951.614,-366 1026.45,-366 1074.48,-366"/>
<polygon fill="#9a32cd" stroke="#9a32cd" points="891.178,-362.5 881.178,-366 891.178,-369.5 891.178,-362.5"/>
<text text-anchor="middle" x="974" y="-370" font-family="FreeSans" font-size="10.00"> subsystems_</text>
</g>
<!-- Node18&#45;&gt;Node5 -->
<g id="edge52" class="edge"><title>Node18&#45;&gt;Node5</title>
<path fill="none" stroke="#9a32cd" stroke-dasharray="5,2" d="M868.701,-412.121C915.496,-403.898 977.325,-392.951 1032,-383 1045.76,-380.496 1060.67,-377.731 1074.37,-375.171"/>
<polygon fill="#9a32cd" stroke="#9a32cd" points="867.896,-408.708 858.652,-413.885 869.107,-415.603 867.896,-408.708"/>
<text text-anchor="middle" x="974" y="-407" font-family="FreeSans" font-size="10.00"> eventDataMaps_</text>
</g>
<!-- Node19&#45;&gt;Node5 -->
<g id="edge56" class="edge"><title>Node19&#45;&gt;Node5</title>
<path fill="none" stroke="#9a32cd" stroke-dasharray="5,2" d="M907.953,-255.287C948.3,-265.256 993.319,-279.184 1032,-298 1063.75,-313.443 1095.59,-340.535 1111.87,-355.436"/>
<polygon fill="#9a32cd" stroke="#9a32cd" points="908.616,-251.847 898.074,-252.902 906.973,-258.652 908.616,-251.847"/>
<text text-anchor="middle" x="974" y="-302" font-family="FreeSans" font-size="10.00"> factories_</text>
</g>
<!-- Node20&#45;&gt;Node5 -->
<g id="edge60" class="edge"><title>Node20&#45;&gt;Node5</title>
<path fill="none" stroke="#9a32cd" stroke-dasharray="5,2" d="M881.292,-180.786C929.073,-191.085 987.597,-209.289 1032,-241 1075.69,-272.2 1106.66,-330.944 1118.11,-355.152"/>
<polygon fill="#9a32cd" stroke="#9a32cd" points="881.771,-177.31 871.268,-178.706 880.349,-184.165 881.771,-177.31"/>
<text text-anchor="middle" x="974" y="-245" font-family="FreeSans" font-size="10.00"> objectCategories_</text>
</g>
<!-- Node21&#45;&gt;Node5 -->
<g id="edge64" class="edge"><title>Node21&#45;&gt;Node5</title>
<path fill="none" stroke="#9a32cd" stroke-dasharray="5,2" d="M896.574,-311.62C938.775,-317.431 988.062,-325.499 1032,-336 1053.52,-341.143 1077.24,-349.039 1095.07,-355.44"/>
<polygon fill="#9a32cd" stroke="#9a32cd" points="896.947,-308.139 886.568,-310.266 896.008,-315.075 896.947,-308.139"/>
<text text-anchor="middle" x="974" y="-353" font-family="FreeSans" font-size="10.00"> attributes_</text>
<text text-anchor="middle" x="974" y="-340" font-family="FreeSans" font-size="10.00">networkAttributes_</text>
</g>
<!-- Node22&#45;&gt;Node2 -->
<g id="edge68" class="edge"><title>Node22&#45;&gt;Node2</title>
<path fill="none" stroke="#9a32cd" stroke-dasharray="5,2" d="M1039.78,-667.39C1037.16,-667.6 1034.56,-667.803 1032,-668 851.806,-681.846 637.012,-694.931 545.216,-700.362"/>
<polygon fill="#9a32cd" stroke="#9a32cd" points="1040.32,-670.859 1050,-666.56 1039.75,-663.882 1040.32,-670.859"/>
<text text-anchor="middle" x="795" y="-694" font-family="FreeSans" font-size="10.00"> eventHandlers_</text>
</g>
<!-- Node23 -->
<g id="node59" class="node"><title>Node23</title>
<a xlink:href="class_urho3_d_1_1_string.html" target="_top" xlink:title="String class.">
<polygon fill="none" stroke="black" points="456,-768.5 456,-789.5 544,-789.5 544,-768.5 456,-768.5"/>
<text text-anchor="middle" x="500" y="-776.5" font-family="FreeSans" font-size="10.00">Urho3D::String</text>
</a>
</g>
<!-- Node23&#45;&gt;Node1 -->
<g id="edge74" class="edge"><title>Node23&#45;&gt;Node1</title>
<path fill="none" stroke="#9a32cd" stroke-dasharray="5,2" d="M554.144,-772.76C604.18,-766.993 678.551,-758.421 731.397,-752.331"/>
<polygon fill="#9a32cd" stroke="#9a32cd" points="553.698,-769.288 544.164,-773.91 554.499,-776.242 553.698,-769.288"/>
<text text-anchor="middle" x="629" y="-772" font-family="FreeSans" font-size="10.00"> connectionString_</text>
</g>
<!-- Node23&#45;&gt;Node23 -->
<g id="edge76" class="edge"><title>Node23&#45;&gt;Node23</title>
<path fill="none" stroke="#9a32cd" stroke-dasharray="5,2" d="M480.097,-799.427C481.632,-804.349 488.267,-808 500,-808 518.773,-808 524.493,-798.653 517.16,-789.708"/>
<polygon fill="#9a32cd" stroke="#9a32cd" points="483.492,-800.283 482.84,-789.708 476.755,-798.381 483.492,-800.283"/>
<text text-anchor="middle" x="500" y="-812" font-family="FreeSans" font-size="10.00"> EMPTY</text>
</g>
</g>
</svg>
