<?xml version="1.0" encoding="UTF-8" standalone="no"?>
<!DOCTYPE svg PUBLIC "-//W3C//DTD SVG 1.1//EN"
 "http://www.w3.org/Graphics/SVG/1.1/DTD/svg11.dtd">
<!-- Generated by graphviz version 2.26.3 (20100126.1600)
 -->
<!-- Title: Urho3D::FileSystem::GetProgramDir Pages: 1 -->
<!--zoomable 556 -->
<svg id="main" version="1.1" xmlns="http://www.w3.org/2000/svg" xmlns:xlink="http://www.w3.org/1999/xlink" xml:space="preserve" onload="init(evt)">
        <defs>
                <circle id="rim" cx="0" cy="0" r="7"/>
                <circle id="rim2" cx="0" cy="0" r="3.5"/>
                <g id="zoomPlus">
                        <use xlink:href="#rim" fill="#404040">
                                <set attributeName="fill" to="#808080" begin="zoomplus.mouseover" end="zoomplus.mouseout"/>
                        </use>
                        <path d="M-4,0h8M0,-4v8" fill="none" stroke="white" stroke-width="1.5" pointer-events="none"/>
                </g>
                <g id="zoomMin">
                        <use xlink:href="#rim" fill="#404040">
                                <set attributeName="fill" to="#808080" begin="zoomminus.mouseover" end="zoomminus.mouseout"/>
                        </use>
                        <path d="M-4,0h8" fill="none" stroke="white" stroke-width="1.5" pointer-events="none"/>
                </g>
                <g id="dirArrow">
                        <path fill="none" stroke="white" stroke-width="1.5" d="M0,-3.0v7 M-2.5,-0.5L0,-3.0L2.5,-0.5"/>
                </g>
               <g id="resetDef">
                       <use xlink:href="#rim2" fill="#404040">
                               <set attributeName="fill" to="#808080" begin="reset.mouseover" end="reset.mouseout"/>
                       </use>
               </g>
        </defs>

<script type="text/javascript">
var viewWidth = 922;
var viewHeight = 556;
var sectionId = 'dynsection-3';
</script>
<script xlink:href="svgpan.js"/>
<svg id="graph" class="graph">
<g id="viewport">
<title>Urho3D::FileSystem::GetProgramDir</title>
<!-- Node1 -->
<g id="node1" class="node"><title>Node1</title>
<polygon fill="#bfbfbf" stroke="black" points="0.5,-157.276 0.5,-191.276 111.5,-191.276 111.5,-157.276 0.5,-157.276"/>
<text text-anchor="start" x="8.5" y="-178.276" font-family="FreeSans" font-size="10.00">Urho3D::FileSystem</text>
<text text-anchor="middle" x="56" y="-165.276" font-family="FreeSans" font-size="10.00">::GetProgramDir</text>
</g>
<!-- Node2 -->
<g id="node3" class="node"><title>Node2</title>
<a xlink:href="class_urho3_d_1_1_resource_cache.html#acaf617b205d693cd493febfc01c330a8" target="_top" xlink:title="Remove unsupported constructs from the resource name to prevent ambiguity, and normalize absolute fil...">
<polygon fill="none" stroke="black" points="148,-157.276 148,-191.276 284,-191.276 284,-157.276 148,-157.276"/>
<text text-anchor="start" x="156" y="-178.276" font-family="FreeSans" font-size="10.00">Urho3D::ResourceCache</text>
<text text-anchor="middle" x="216" y="-165.276" font-family="FreeSans" font-size="10.00">::SanitateResourceName</text>
</a>
</g>
<!-- Node1&#45;&gt;Node2 -->
<g id="edge2" class="edge"><title>Node1&#45;&gt;Node2</title>
<path fill="none" stroke="midnightblue" d="M121.57,-174.276C130.253,-174.276 139.17,-174.276 147.894,-174.276"/>
<polygon fill="midnightblue" stroke="midnightblue" points="121.511,-170.776 111.511,-174.276 121.511,-177.776 121.511,-170.776"/>
</g>
<!-- Node3 -->
<g id="node5" class="node"><title>Node3</title>
<a xlink:href="class_urho3_d_1_1_resource_cache.html#a7a8fddc0e1561115c557850f6751f76b" target="_top" xlink:title="Open and return a file from the resource load paths or from inside a package file. If not found, use a fallback search with absolute path. Return null if fails. Can be called from outside the main thread.">
<polygon fill="none" stroke="black" points="326.5,-332.276 326.5,-366.276 459.5,-366.276 459.5,-332.276 326.5,-332.276"/>
<text text-anchor="start" x="334.5" y="-353.276" font-family="FreeSans" font-size="10.00">Urho3D::ResourceCache</text>
<text text-anchor="middle" x="393" y="-340.276" font-family="FreeSans" font-size="10.00">::GetFile</text>
</a>
</g>
<!-- Node2&#45;&gt;Node3 -->
<g id="edge4" class="edge"><title>Node2&#45;&gt;Node3</title>
<path fill="none" stroke="midnightblue" d="M232.496,-199.834C251.35,-227.738 284.252,-272.654 320,-304.276 332.043,-314.93 346.918,-324.603 360.091,-332.228"/>
<polygon fill="midnightblue" stroke="midnightblue" points="235.341,-197.792 226.883,-191.411 229.516,-201.674 235.341,-197.792"/>
</g>
<!-- Node8 -->
<g id="node15" class="node"><title>Node8</title>
<a xlink:href="class_urho3_d_1_1_resource_cache.html#aa1657db0fcf2a1578bcb4bd5a00146ca" target="_top" xlink:title="Return a resource by type and name. Load if not loaded yet. Return null if not found or if fails...">
<polygon fill="none" stroke="red" points="535.5,-280.276 535.5,-314.276 668.5,-314.276 668.5,-280.276 535.5,-280.276"/>
<text text-anchor="start" x="543.5" y="-301.276" font-family="FreeSans" font-size="10.00">Urho3D::ResourceCache</text>
<text text-anchor="middle" x="602" y="-288.276" font-family="FreeSans" font-size="10.00">::GetResource</text>
</a>
</g>
<!-- Node2&#45;&gt;Node8 -->
<g id="edge46" class="edge"><title>Node2&#45;&gt;Node8</title>
<path fill="none" stroke="midnightblue" d="M241.562,-198.286C261.42,-215.536 290.468,-237.856 320,-250.276 389.886,-279.668 476.773,-290.718 535.49,-294.851"/>
<polygon fill="midnightblue" stroke="midnightblue" points="243.702,-195.506 233.9,-191.484 239.055,-200.74 243.702,-195.506"/>
</g>
<!-- Node17 -->
<g id="node34" class="node"><title>Node17</title>
<a xlink:href="class_urho3_d_1_1_resource_cache.html#a722ee073d9964dc6fae99041013d930b" target="_top" xlink:title="Load a resource without storing it in the resource cache. Return null if not found or if fails...">
<polygon fill="none" stroke="red" points="535.5,-228.276 535.5,-262.276 668.5,-262.276 668.5,-228.276 535.5,-228.276"/>
<text text-anchor="start" x="543.5" y="-249.276" font-family="FreeSans" font-size="10.00">Urho3D::ResourceCache</text>
<text text-anchor="middle" x="602" y="-236.276" font-family="FreeSans" font-size="10.00">::GetTempResource</text>
</a>
</g>
<!-- Node2&#45;&gt;Node17 -->
<g id="edge54" class="edge"><title>Node2&#45;&gt;Node17</title>
<path fill="none" stroke="midnightblue" d="M251.431,-196.404C270.913,-207.414 295.953,-219.738 320,-226.276 391.736,-245.78 477.329,-248.853 535.254,-248.113"/>
<polygon fill="midnightblue" stroke="midnightblue" points="253.027,-193.283 242.619,-191.3 249.518,-199.341 253.027,-193.283"/>
</g>
<!-- Node20 -->
<g id="node40" class="node"><title>Node20</title>
<a xlink:href="class_urho3_d_1_1_resource_cache.html#ab4377ead37f45a842d478e8f7b2edb8b" target="_top" xlink:title="Return an already loaded resource of specific type &amp; name, or null if not found. Will not load if doe...">
<polygon fill="none" stroke="black" points="326.5,-131.276 326.5,-165.276 459.5,-165.276 459.5,-131.276 326.5,-131.276"/>
<text text-anchor="start" x="334.5" y="-152.276" font-family="FreeSans" font-size="10.00">Urho3D::ResourceCache</text>
<text text-anchor="middle" x="393" y="-139.276" font-family="FreeSans" font-size="10.00">::GetExistingResource</text>
</a>
</g>
<!-- Node2&#45;&gt;Node20 -->
<g id="edge40" class="edge"><title>Node2&#45;&gt;Node20</title>
<path fill="none" stroke="midnightblue" d="M294.33,-162.77C305.002,-161.203 315.873,-159.606 326.313,-158.072"/>
<polygon fill="midnightblue" stroke="midnightblue" points="293.565,-159.345 284.18,-164.261 294.582,-166.271 293.565,-159.345"/>
</g>
<!-- Node22 -->
<g id="node46" class="node"><title>Node22</title>
<a xlink:href="class_urho3_d_1_1_resource_cache.html#a0950ea474a10169ba383c15ca1d8ff56" target="_top" xlink:title="Background load a resource. An event will be sent when complete. Return true if successfully stored t...">
<polygon fill="none" stroke="red" points="320,-41.2763 320,-75.2763 466,-75.2763 466,-41.2763 320,-41.2763"/>
<text text-anchor="start" x="328" y="-62.2763" font-family="FreeSans" font-size="10.00">Urho3D::ResourceCache</text>
<text text-anchor="middle" x="393" y="-49.2763" font-family="FreeSans" font-size="10.00">::BackgroundLoadResource</text>
</a>
</g>
<!-- Node2&#45;&gt;Node22 -->
<g id="edge48" class="edge"><title>Node2&#45;&gt;Node22</title>
<path fill="none" stroke="midnightblue" d="M241.102,-150.305C261.267,-131.935 290.925,-106.839 320,-89.2763 328.486,-84.1505 337.973,-79.4558 347.226,-75.3552"/>
<polygon fill="midnightblue" stroke="midnightblue" points="238.571,-147.878 233.597,-157.232 243.319,-153.022 238.571,-147.878"/>
</g>
<!-- Node23 -->
<g id="node48" class="node"><title>Node23</title>
<a xlink:href="class_urho3_d_1_1_scene.html#ac16db4ab55b6efb9c21465cbe9783165" target="_top" xlink:title="Preload resources from a binary scene or object prefab file.">
<polygon fill="none" stroke="red" points="512,-46.7763 512,-67.7763 692,-67.7763 692,-46.7763 512,-46.7763"/>
<text text-anchor="middle" x="602" y="-54.7763" font-family="FreeSans" font-size="10.00">Urho3D::Scene::PreloadResources</text>
</a>
</g>
<!-- Node2&#45;&gt;Node23 -->
<g id="edge60" class="edge"><title>Node2&#45;&gt;Node23</title>
<path fill="none" stroke="midnightblue" d="M254.726,-152.346C273.914,-142.151 297.699,-130.493 320,-122.276 398.186,-93.4682 420.682,-95.4515 502,-77.2763 516.6,-74.013 532.457,-70.7249 547.151,-67.784"/>
<polygon fill="midnightblue" stroke="midnightblue" points="252.843,-149.385 245.703,-157.212 256.166,-155.546 252.843,-149.385"/>
</g>
<!-- Node24 -->
<g id="node50" class="node"><title>Node24</title>
<a xlink:href="class_urho3_d_1_1_scene.html#a14fbb19b50ac6d7351a52a999bdb6077" target="_top" xlink:title="Preload resources from an XML scene or object prefab file.">
<polygon fill="none" stroke="red" points="502,-4.77627 502,-25.7763 702,-25.7763 702,-4.77627 502,-4.77627"/>
<text text-anchor="middle" x="602" y="-12.7763" font-family="FreeSans" font-size="10.00">Urho3D::Scene::PreloadResourcesXML</text>
</a>
</g>
<!-- Node2&#45;&gt;Node24 -->
<g id="edge62" class="edge"><title>Node2&#45;&gt;Node24</title>
<path fill="none" stroke="midnightblue" d="M226.851,-147.647C242.111,-114.086 273.367,-57.7175 320,-32.2763 388.782,5.24924 481.533,2.56104 541.555,-4.7649"/>
<polygon fill="midnightblue" stroke="midnightblue" points="223.618,-146.304 222.8,-156.868 230.027,-149.12 223.618,-146.304"/>
</g>
<!-- Node25 -->
<g id="node53" class="node"><title>Node25</title>
<a xlink:href="class_urho3_d_1_1_resource_cache.html#a94659e6c04c0bb9791019913b7866252" target="_top" xlink:title="Return whether a file exists by name.">
<polygon fill="none" stroke="red" points="326.5,-183.276 326.5,-217.276 459.5,-217.276 459.5,-183.276 326.5,-183.276"/>
<text text-anchor="start" x="334.5" y="-204.276" font-family="FreeSans" font-size="10.00">Urho3D::ResourceCache</text>
<text text-anchor="middle" x="393" y="-191.276" font-family="FreeSans" font-size="10.00">::Exists</text>
</a>
</g>
<!-- Node2&#45;&gt;Node25 -->
<g id="edge56" class="edge"><title>Node2&#45;&gt;Node25</title>
<path fill="none" stroke="midnightblue" d="M294.33,-185.782C305.002,-187.35 315.873,-188.947 326.313,-190.481"/>
<polygon fill="midnightblue" stroke="midnightblue" points="294.582,-182.282 284.18,-184.291 293.565,-189.208 294.582,-182.282"/>
</g>
<!-- Node4 -->
<g id="node7" class="node"><title>Node4</title>
<a xlink:href="class_urho3_d_1_1_shader.html#ad16e87dcdc5140bd769ef6aff6b0846d" target="_top" xlink:title="Process source code and include files. Return true if successful.">
<polygon fill="none" stroke="red" points="516.5,-474.776 516.5,-495.776 687.5,-495.776 687.5,-474.776 516.5,-474.776"/>
<text text-anchor="middle" x="602" y="-482.776" font-family="FreeSans" font-size="10.00">Urho3D::Shader::ProcessSource</text>
</a>
</g>
<!-- Node3&#45;&gt;Node4 -->
<g id="edge6" class="edge"><title>Node3&#45;&gt;Node4</title>
<path fill="none" stroke="midnightblue" d="M411.037,-374.526C430.578,-400.002 464.09,-438.584 502,-460.276 512.873,-466.498 525.276,-471.186 537.56,-474.714"/>
<polygon fill="midnightblue" stroke="midnightblue" points="413.763,-372.327 404.959,-366.432 408.165,-376.531 413.763,-372.327"/>
</g>
<!-- Node5 -->
<g id="node9" class="node"><title>Node5</title>
<a xlink:href="class_urho3_d_1_1_static_model.html#abacb48c866a3bf2f6ec386cb59461803" target="_top" xlink:title="Apply default materials from a material list file. If filename is empty (default), the model&#39;s resource name with extension .txt will be used.">
<polygon fill="none" stroke="black" points="768,-476.276 768,-510.276 884,-510.276 884,-476.276 768,-476.276"/>
<text text-anchor="start" x="776" y="-497.276" font-family="FreeSans" font-size="10.00">Urho3D::StaticModel</text>
<text text-anchor="middle" x="826" y="-484.276" font-family="FreeSans" font-size="10.00">::ApplyMaterialList</text>
</a>
</g>
<!-- Node3&#45;&gt;Node5 -->
<g id="edge8" class="edge"><title>Node3&#45;&gt;Node5</title>
<path fill="none" stroke="midnightblue" d="M419.306,-373.144C440.225,-390.809 471.028,-414.019 502,-427.276 585.18,-462.88 613.414,-446.865 702,-465.276 723.5,-469.745 747.019,-474.97 767.74,-479.688"/>
<polygon fill="midnightblue" stroke="midnightblue" points="421.382,-370.313 411.521,-366.439 416.814,-375.617 421.382,-370.313"/>
</g>
<!-- Node6 -->
<g id="node11" class="node"><title>Node6</title>
<a xlink:href="class_urho3_d_1_1_background_loader.html#a2dc53c2ec3012a81ff2e98017f433a87" target="_top" xlink:title="Resource background loading loop.">
<polygon fill="none" stroke="black" points="527.5,-384.276 527.5,-418.276 676.5,-418.276 676.5,-384.276 527.5,-384.276"/>
<text text-anchor="start" x="535.5" y="-405.276" font-family="FreeSans" font-size="10.00">Urho3D::BackgroundLoader</text>
<text text-anchor="middle" x="602" y="-392.276" font-family="FreeSans" font-size="10.00">::ThreadFunction</text>
</a>
</g>
<!-- Node3&#45;&gt;Node6 -->
<g id="edge10" class="edge"><title>Node3&#45;&gt;Node6</title>
<path fill="none" stroke="midnightblue" d="M469.507,-368.312C490.429,-373.517 512.966,-379.124 533.415,-384.212"/>
<polygon fill="midnightblue" stroke="midnightblue" points="470.253,-364.89 459.704,-365.872 468.563,-371.683 470.253,-364.89"/>
</g>
<!-- Node7 -->
<g id="node13" class="node"><title>Node7</title>
<a xlink:href="class_urho3_d_1_1_resource_cache.html#a95d38fca7d46be128efaa865acad0ec3" target="_top" xlink:title="Reload a resource. Return true on success. The resource will not be removed from the cache in case of...">
<polygon fill="none" stroke="red" points="535.5,-332.276 535.5,-366.276 668.5,-366.276 668.5,-332.276 535.5,-332.276"/>
<text text-anchor="start" x="543.5" y="-353.276" font-family="FreeSans" font-size="10.00">Urho3D::ResourceCache</text>
<text text-anchor="middle" x="602" y="-340.276" font-family="FreeSans" font-size="10.00">::ReloadResource</text>
</a>
</g>
<!-- Node3&#45;&gt;Node7 -->
<g id="edge12" class="edge"><title>Node3&#45;&gt;Node7</title>
<path fill="none" stroke="midnightblue" d="M469.76,-349.276C491.225,-349.276 514.375,-349.276 535.213,-349.276"/>
<polygon fill="midnightblue" stroke="midnightblue" points="469.704,-345.776 459.704,-349.276 469.704,-352.776 469.704,-345.776"/>
</g>
<!-- Node3&#45;&gt;Node8 -->
<g id="edge14" class="edge"><title>Node3&#45;&gt;Node8</title>
<path fill="none" stroke="midnightblue" d="M469.468,-330.251C491.016,-324.89 514.28,-319.101 535.213,-313.893"/>
<polygon fill="midnightblue" stroke="midnightblue" points="468.563,-326.869 459.704,-332.68 470.253,-333.662 468.563,-326.869"/>
</g>
<!-- Node3&#45;&gt;Node17 -->
<g id="edge34" class="edge"><title>Node3&#45;&gt;Node17</title>
<path fill="none" stroke="midnightblue" d="M419.952,-325.67C441,-308.352 471.672,-285.47 502,-271.276 512.479,-266.372 524.026,-262.288 535.437,-258.923"/>
<polygon fill="midnightblue" stroke="midnightblue" points="417.525,-323.137 412.102,-332.239 422.018,-328.506 417.525,-323.137"/>
</g>
<!-- Node18 -->
<g id="node36" class="node"><title>Node18</title>
<a xlink:href="class_urho3_d_1_1_script_file.html#a907ea2dc2ef7b59cc6e5990ebc4d1a3a" target="_top" xlink:title="Add a script section, checking for includes recursively. Return true if successful.">
<polygon fill="none" stroke="red" points="549.5,-176.276 549.5,-210.276 654.5,-210.276 654.5,-176.276 549.5,-176.276"/>
<text text-anchor="start" x="557.5" y="-197.276" font-family="FreeSans" font-size="10.00">Urho3D::ScriptFile</text>
<text text-anchor="middle" x="602" y="-184.276" font-family="FreeSans" font-size="10.00">::AddScriptSection</text>
</a>
</g>
<!-- Node3&#45;&gt;Node18 -->
<g id="edge36" class="edge"><title>Node3&#45;&gt;Node18</title>
<path fill="none" stroke="midnightblue" d="M407.774,-323.423C426.076,-293.759 460.034,-245.804 502,-219.276 516.177,-210.314 533.338,-204.431 549.412,-200.572"/>
<polygon fill="midnightblue" stroke="midnightblue" points="404.77,-321.627 402.605,-331.998 410.765,-325.24 404.77,-321.627"/>
</g>
<!-- Node19 -->
<g id="node38" class="node"><title>Node19</title>
<a xlink:href="class_urho3_d_1_1_font_face_bitmap.html#a82613ac08041954ace848d20ae29cd2b" target="_top" xlink:title="Load font face.">
<polygon fill="none" stroke="black" points="533.5,-514.276 533.5,-548.276 670.5,-548.276 670.5,-514.276 533.5,-514.276"/>
<text text-anchor="start" x="541.5" y="-535.276" font-family="FreeSans" font-size="10.00">Urho3D::FontFaceBitmap</text>
<text text-anchor="middle" x="602" y="-522.276" font-family="FreeSans" font-size="10.00">::Load</text>
</a>
</g>
<!-- Node3&#45;&gt;Node19 -->
<g id="edge38" class="edge"><title>Node3&#45;&gt;Node19</title>
<path fill="none" stroke="midnightblue" d="M404.179,-375.484C420.485,-410.503 454.147,-471.998 502,-505.276 511.352,-511.78 522.217,-516.657 533.269,-520.314"/>
<polygon fill="midnightblue" stroke="midnightblue" points="407.358,-374.019 400.043,-366.355 400.982,-376.908 407.358,-374.019"/>
</g>
<!-- Node8&#45;&gt;Node5 -->
<g id="edge30" class="edge"><title>Node8&#45;&gt;Node5</title>
<path fill="none" stroke="midnightblue" d="M678.076,-307.56C686.967,-311.367 695.254,-316.466 702,-323.276 748.428,-370.142 692.349,-419.652 738,-467.276 746.047,-475.672 756.661,-481.393 767.723,-485.283"/>
<polygon fill="midnightblue" stroke="midnightblue" points="679.224,-304.253 668.632,-304.043 676.782,-310.813 679.224,-304.253"/>
</g>
<!-- Node9 -->
<g id="node17" class="node"><title>Node9</title>
<a xlink:href="class_urho3_d_1_1_sound_source.html#a1118ae914cf066d769551dac6df4c0d6" target="_top" xlink:title="Set sound attribute.">
<polygon fill="none" stroke="red" points="764,-124.276 764,-158.276 888,-158.276 888,-124.276 764,-124.276"/>
<text text-anchor="start" x="772" y="-145.276" font-family="FreeSans" font-size="10.00">Urho3D::SoundSource</text>
<text text-anchor="middle" x="826" y="-132.276" font-family="FreeSans" font-size="10.00">::SetSoundAttr</text>
</a>
</g>
<!-- Node8&#45;&gt;Node9 -->
<g id="edge16" class="edge"><title>Node8&#45;&gt;Node9</title>
<path fill="none" stroke="midnightblue" d="M678.177,-286.149C686.911,-282.465 695.131,-277.624 702,-271.276 737.924,-238.08 702.628,-201.059 738,-167.276 745.258,-160.344 754.273,-155.25 763.741,-151.508"/>
<polygon fill="midnightblue" stroke="midnightblue" points="676.704,-282.961 668.536,-289.709 679.129,-289.528 676.704,-282.961"/>
</g>
<!-- Node10 -->
<g id="node19" class="node"><title>Node10</title>
<a xlink:href="class_urho3_d_1_1_engine.html#ae686bb22644561e57a4aaef3f8665c0e" target="_top" xlink:title="Initialize engine using parameters given and show the application window. Return true if successful...">
<polygon fill="none" stroke="black" points="758,-436.776 758,-457.776 894,-457.776 894,-436.776 758,-436.776"/>
<text text-anchor="middle" x="826" y="-444.776" font-family="FreeSans" font-size="10.00">Urho3D::Engine::Initialize</text>
</a>
</g>
<!-- Node8&#45;&gt;Node10 -->
<g id="edge18" class="edge"><title>Node8&#45;&gt;Node10</title>
<path fill="none" stroke="midnightblue" d="M678.177,-308.404C686.911,-312.088 695.131,-316.928 702,-323.276 737.924,-356.472 701.568,-394.639 738,-427.276 743.718,-432.399 750.471,-436.293 757.654,-439.242"/>
<polygon fill="midnightblue" stroke="midnightblue" points="679.129,-305.025 668.536,-304.844 676.704,-311.591 679.129,-305.025"/>
</g>
<!-- Node11 -->
<g id="node21" class="node"><title>Node11</title>
<a xlink:href="class_urho3_d_1_1_animated_model.html#a4bcb1159367b1b112ba751b0b5747f59" target="_top" xlink:title="Set model attribute.">
<polygon fill="none" stroke="red" points="759,-384.276 759,-418.276 893,-418.276 893,-384.276 759,-384.276"/>
<text text-anchor="start" x="767" y="-405.276" font-family="FreeSans" font-size="10.00">Urho3D::AnimatedModel</text>
<text text-anchor="middle" x="826" y="-392.276" font-family="FreeSans" font-size="10.00">::SetModelAttr</text>
</a>
</g>
<!-- Node8&#45;&gt;Node11 -->
<g id="edge20" class="edge"><title>Node8&#45;&gt;Node11</title>
<path fill="none" stroke="midnightblue" d="M678.256,-310.901C686.67,-314.176 694.788,-318.238 702,-323.276 725.043,-339.375 715.225,-358.801 738,-375.276 744.325,-379.852 751.452,-383.628 758.843,-386.744"/>
<polygon fill="midnightblue" stroke="midnightblue" points="679.259,-307.543 668.665,-307.527 676.937,-314.147 679.259,-307.543"/>
</g>
<!-- Node12 -->
<g id="node23" class="node"><title>Node12</title>
<a xlink:href="class_urho3_d_1_1_animated_model.html#a707f22c736d77f2b7aab9d09a0da4da7" target="_top" xlink:title="Set animation states attribute.">
<polygon fill="none" stroke="red" points="757.5,-332.276 757.5,-366.276 894.5,-366.276 894.5,-332.276 757.5,-332.276"/>
<text text-anchor="start" x="765.5" y="-353.276" font-family="FreeSans" font-size="10.00">Urho3D::AnimatedModel</text>
<text text-anchor="middle" x="826" y="-340.276" font-family="FreeSans" font-size="10.00">::SetAnimationStatesAttr</text>
</a>
</g>
<!-- Node8&#45;&gt;Node12 -->
<g id="edge22" class="edge"><title>Node8&#45;&gt;Node12</title>
<path fill="none" stroke="midnightblue" d="M678.613,-315.061C704.152,-320.99 732.428,-327.554 757.326,-333.334"/>
<polygon fill="midnightblue" stroke="midnightblue" points="679.133,-311.589 668.601,-312.737 677.55,-318.408 679.133,-311.589"/>
</g>
<!-- Node13 -->
<g id="node25" class="node"><title>Node13</title>
<a xlink:href="class_urho3_d_1_1_animation_controller.html#a81023d409dc7bd2cc4df6904e118f4d2" target="_top" xlink:title="Set node animation states attribute.">
<polygon fill="none" stroke="red" points="744.5,-280.276 744.5,-314.276 907.5,-314.276 907.5,-280.276 744.5,-280.276"/>
<text text-anchor="start" x="752.5" y="-301.276" font-family="FreeSans" font-size="10.00">Urho3D::AnimationController</text>
<text text-anchor="middle" x="826" y="-288.276" font-family="FreeSans" font-size="10.00">::SetNodeAnimationStatesAttr</text>
</a>
</g>
<!-- Node8&#45;&gt;Node13 -->
<g id="edge24" class="edge"><title>Node8&#45;&gt;Node13</title>
<path fill="none" stroke="midnightblue" d="M678.791,-297.276C699.882,-297.276 722.828,-297.276 744.19,-297.276"/>
<polygon fill="midnightblue" stroke="midnightblue" points="678.601,-293.776 668.601,-297.276 678.601,-300.776 678.601,-293.776"/>
</g>
<!-- Node14 -->
<g id="node27" class="node"><title>Node14</title>
<a xlink:href="class_urho3_d_1_1_billboard_set.html#afd2c335de74fcd42cd3e6679e5968e4a" target="_top" xlink:title="Set material attribute.">
<polygon fill="none" stroke="red" points="767.5,-228.276 767.5,-262.276 884.5,-262.276 884.5,-228.276 767.5,-228.276"/>
<text text-anchor="start" x="775.5" y="-249.276" font-family="FreeSans" font-size="10.00">Urho3D::BillboardSet</text>
<text text-anchor="middle" x="826" y="-236.276" font-family="FreeSans" font-size="10.00">::SetMaterialAttr</text>
</a>
</g>
<!-- Node8&#45;&gt;Node14 -->
<g id="edge26" class="edge"><title>Node8&#45;&gt;Node14</title>
<path fill="none" stroke="midnightblue" d="M678.692,-279.473C707.678,-272.744 740.178,-265.199 767.262,-258.912"/>
<polygon fill="midnightblue" stroke="midnightblue" points="677.55,-276.145 668.601,-281.815 679.133,-282.963 677.55,-276.145"/>
</g>
<!-- Node15 -->
<g id="node29" class="node"><title>Node15</title>
<a xlink:href="class_urho3_d_1_1_custom_geometry.html#a73e85590cb09dbe385bb75560fa71f4d" target="_top" xlink:title="Set materials attribute.">
<polygon fill="none" stroke="red" points="753.5,-176.276 753.5,-210.276 898.5,-210.276 898.5,-176.276 753.5,-176.276"/>
<text text-anchor="start" x="761.5" y="-197.276" font-family="FreeSans" font-size="10.00">Urho3D::CustomGeometry</text>
<text text-anchor="middle" x="826" y="-184.276" font-family="FreeSans" font-size="10.00">::SetMaterialsAttr</text>
</a>
</g>
<!-- Node8&#45;&gt;Node15 -->
<g id="edge28" class="edge"><title>Node8&#45;&gt;Node15</title>
<path fill="none" stroke="midnightblue" d="M678.256,-283.652C686.67,-280.377 694.788,-276.315 702,-271.276 725.043,-255.178 715.225,-235.752 738,-219.276 742.776,-215.821 748.009,-212.822 753.468,-210.219"/>
<polygon fill="midnightblue" stroke="midnightblue" points="676.937,-280.406 668.665,-287.025 679.259,-287.009 676.937,-280.406"/>
</g>
<!-- Node16 -->
<g id="node32" class="node"><title>Node16</title>
<a xlink:href="class_urho3_d_1_1_view.html#a8853d06cedaef03a07c2f4a9af1ca827" target="_top" xlink:title="Get a named texture from the rendertarget list or from the resource cache, to be either used as a ren...">
<polygon fill="none" stroke="red" points="738.5,-84.7763 738.5,-105.776 913.5,-105.776 913.5,-84.7763 738.5,-84.7763"/>
<text text-anchor="middle" x="826" y="-92.7763" font-family="FreeSans" font-size="10.00">Urho3D::View::FindNamedTexture</text>
</a>
</g>
<!-- Node8&#45;&gt;Node16 -->
<g id="edge32" class="edge"><title>Node8&#45;&gt;Node16</title>
<path fill="none" stroke="midnightblue" d="M678.008,-287.187C686.95,-283.354 695.269,-278.195 702,-271.276 751.616,-220.273 687.602,-165.507 738,-115.276 741.773,-111.516 746.096,-108.401 750.756,-105.828"/>
<polygon fill="midnightblue" stroke="midnightblue" points="676.657,-283.955 668.503,-290.72 679.096,-290.516 676.657,-283.955"/>
</g>
<!-- Node20&#45;&gt;Node16 -->
<g id="edge42" class="edge"><title>Node20&#45;&gt;Node16</title>
<path fill="none" stroke="midnightblue" d="M469.784,-150.094C532.864,-150.034 624.176,-146.365 702,-129.276 718.768,-125.594 721.585,-120.303 738,-115.276 749.385,-111.789 761.766,-108.61 773.549,-105.863"/>
<polygon fill="midnightblue" stroke="midnightblue" points="469.526,-146.594 459.519,-150.072 469.511,-153.594 469.526,-146.594"/>
</g>
<!-- Node21 -->
<g id="node43" class="node"><title>Node21</title>
<a xlink:href="class_urho3_d_1_1_resource_cache.html#a2678be870a85f95eba12a03ce21b5556" target="_top" xlink:title="Template version of returning an existing resource by name.">
<polygon fill="none" stroke="black" points="535.5,-86.2763 535.5,-120.276 668.5,-120.276 668.5,-86.2763 535.5,-86.2763"/>
<text text-anchor="start" x="543.5" y="-107.276" font-family="FreeSans" font-size="10.00">Urho3D::ResourceCache</text>
<text text-anchor="middle" x="602" y="-94.2763" font-family="FreeSans" font-size="10.00">::GetExistingResource</text>
</a>
</g>
<!-- Node20&#45;&gt;Node21 -->
<g id="edge44" class="edge"><title>Node20&#45;&gt;Node21</title>
<path fill="none" stroke="midnightblue" d="M469.76,-131.749C491.225,-127.127 514.375,-122.143 535.213,-117.656"/>
<polygon fill="midnightblue" stroke="midnightblue" points="468.743,-128.388 459.704,-133.914 470.216,-135.231 468.743,-128.388"/>
</g>
<!-- Node22&#45;&gt;Node23 -->
<g id="edge50" class="edge"><title>Node22&#45;&gt;Node23</title>
<path fill="none" stroke="midnightblue" d="M476.225,-57.8781C487.874,-57.8223 499.891,-57.7648 511.664,-57.7085"/>
<polygon fill="midnightblue" stroke="midnightblue" points="476.081,-54.3786 466.098,-57.9265 476.115,-61.3785 476.081,-54.3786"/>
</g>
<!-- Node22&#45;&gt;Node24 -->
<g id="edge52" class="edge"><title>Node22&#45;&gt;Node24</title>
<path fill="none" stroke="midnightblue" d="M476.069,-41.1854C501.378,-35.9783 528.44,-30.4107 550.965,-25.7763"/>
<polygon fill="midnightblue" stroke="midnightblue" points="475.188,-37.7935 466.098,-43.237 476.598,-44.6499 475.188,-37.7935"/>
</g>
<!-- Node25&#45;&gt;Node18 -->
<g id="edge58" class="edge"><title>Node25&#45;&gt;Node18</title>
<path fill="none" stroke="midnightblue" d="M469.727,-197.706C496.248,-196.818 525.343,-195.844 549.477,-195.035"/>
<polygon fill="midnightblue" stroke="midnightblue" points="469.581,-194.209 459.704,-198.042 469.815,-201.205 469.581,-194.209"/>
</g>
</g>
</svg>
        <g id="navigator" transform="translate(0 0)" fill="#404254">
                <rect fill="#f2f5e9" fill-opacity="0.5" stroke="#606060" stroke-width=".5" x="0" y="0" width="60" height="60"/>
                <use id="zoomplus" xlink:href="#zoomPlus" x="17" y="9" onmousedown="handleZoom(evt,'in')"/>
                <use id="zoomminus" xlink:href="#zoomMin" x="42" y="9" onmousedown="handleZoom(evt,'out')"/>
                <use id="reset" xlink:href="#resetDef" x="30" y="36" onmousedown="handleReset()"/>
                <g id="arrowUp" xlink:href="#dirArrow" transform="translate(30 24)" onmousedown="handlePan(0,-1)">
                  <use xlink:href="#rim" fill="#404040">
                        <set attributeName="fill" to="#808080" begin="arrowUp.mouseover" end="arrowUp.mouseout"/>
                  </use>
                  <path fill="none" stroke="white" stroke-width="1.5" d="M0,-3.0v7 M-2.5,-0.5L0,-3.0L2.5,-0.5"/>
                </g>
                <g id="arrowRight" xlink:href="#dirArrow" transform="rotate(90) translate(36 -43)" onmousedown="handlePan(1,0)">
                  <use xlink:href="#rim" fill="#404040">
                        <set attributeName="fill" to="#808080" begin="arrowRight.mouseover" end="arrowRight.mouseout"/>
                  </use>
                  <path fill="none" stroke="white" stroke-width="1.5" d="M0,-3.0v7 M-2.5,-0.5L0,-3.0L2.5,-0.5"/>
                </g>
                <g id="arrowDown" xlink:href="#dirArrow" transform="rotate(180) translate(-30 -48)" onmousedown="handlePan(0,1)">
                  <use xlink:href="#rim" fill="#404040">
                        <set attributeName="fill" to="#808080" begin="arrowDown.mouseover" end="arrowDown.mouseout"/>
                  </use>
                  <path fill="none" stroke="white" stroke-width="1.5" d="M0,-3.0v7 M-2.5,-0.5L0,-3.0L2.5,-0.5"/>
                </g>
                <g id="arrowLeft" xlink:href="#dirArrow" transform="rotate(270) translate(-36 17)" onmousedown="handlePan(-1,0)">
                  <use xlink:href="#rim" fill="#404040">
                        <set attributeName="fill" to="#808080" begin="arrowLeft.mouseover" end="arrowLeft.mouseout"/>
                  </use>
                  <path fill="none" stroke="white" stroke-width="1.5" d="M0,-3.0v7 M-2.5,-0.5L0,-3.0L2.5,-0.5"/>
                </g>
        </g>
        <svg viewBox="0 0 15 15" width="100%" height="30px" preserveAspectRatio="xMaxYMin meet">
         <g id="arrow_out" transform="scale(0.3 0.3)">
          <a xlink:href="class_urho3_d_1_1_file_system_a5d93365af462341ea8029827581854a6_icgraph_org.svg" target="_base">
           <rect id="button" ry="5" rx="5" y="6" x="6" height="38" width="38"
                fill="#f2f5e9" fill-opacity="0.5" stroke="#606060" stroke-width="1.0"/>
           <path id="arrow"
             d="M 11.500037,31.436501 C 11.940474,20.09759 22.043105,11.32322 32.158766,21.979434 L 37.068811,17.246167 C 37.068811,17.246167 37.088388,32 37.088388,32 L 22.160133,31.978069 C 22.160133,31.978069 26.997745,27.140456 26.997745,27.140456 C 18.528582,18.264221 13.291696,25.230495 11.500037,31.436501 z"
             style="fill:#404040;"/>
          </a>
         </g>
        </svg>
</svg>
