<?xml version="1.0" encoding="UTF-8" standalone="no"?>
<!DOCTYPE svg PUBLIC "-//W3C//DTD SVG 1.1//EN"
 "http://www.w3.org/Graphics/SVG/1.1/DTD/svg11.dtd">
<!-- Generated by graphviz version 2.26.3 (20100126.1600)
 -->
<!-- Title: Urho3D::GPUObject Pages: 1 -->
<!--zoomable 1362 -->
<svg id="main" version="1.1" xmlns="http://www.w3.org/2000/svg" xmlns:xlink="http://www.w3.org/1999/xlink" xml:space="preserve" onload="init(evt)">
        <defs>
                <circle id="rim" cx="0" cy="0" r="7"/>
                <circle id="rim2" cx="0" cy="0" r="3.5"/>
                <g id="zoomPlus">
                        <use xlink:href="#rim" fill="#404040">
                                <set attributeName="fill" to="#808080" begin="zoomplus.mouseover" end="zoomplus.mouseout"/>
                        </use>
                        <path d="M-4,0h8M0,-4v8" fill="none" stroke="white" stroke-width="1.5" pointer-events="none"/>
                </g>
                <g id="zoomMin">
                        <use xlink:href="#rim" fill="#404040">
                                <set attributeName="fill" to="#808080" begin="zoomminus.mouseover" end="zoomminus.mouseout"/>
                        </use>
                        <path d="M-4,0h8" fill="none" stroke="white" stroke-width="1.5" pointer-events="none"/>
                </g>
                <g id="dirArrow">
                        <path fill="none" stroke="white" stroke-width="1.5" d="M0,-3.0v7 M-2.5,-0.5L0,-3.0L2.5,-0.5"/>
                </g>
               <g id="resetDef">
                       <use xlink:href="#rim2" fill="#404040">
                               <set attributeName="fill" to="#808080" begin="reset.mouseover" end="reset.mouseout"/>
                       </use>
               </g>
        </defs>

<script type="text/javascript">
var viewWidth = 1014;
var viewHeight = 1362;
var sectionId = 'dynsection-1';
</script>
<script xlink:href="svgpan.js"/>
<svg id="graph" class="graph">
<g id="viewport">
<title>Urho3D::GPUObject</title>
<!-- Node1 -->
<g id="node1" class="node"><title>Node1</title>
<polygon fill="#bfbfbf" stroke="black" points="0.5,-676.5 0.5,-697.5 111.5,-697.5 111.5,-676.5 0.5,-676.5"/>
<text text-anchor="middle" x="56" y="-684.5" font-family="FreeSans" font-size="10.00">Urho3D::GPUObject</text>
</g>
<!-- Node10 -->
<g id="node19" class="node"><title>Node10</title>
<a xlink:href="class_urho3_d_1_1_texture.html" target="_top" xlink:title="Base class for texture resources.">
<polygon fill="none" stroke="red" points="154,-742.5 154,-763.5 248,-763.5 248,-742.5 154,-742.5"/>
<text text-anchor="middle" x="201" y="-750.5" font-family="FreeSans" font-size="10.00">Urho3D::Texture</text>
</a>
</g>
<!-- Node1&#45;&gt;Node10 -->
<g id="edge22" class="edge"><title>Node1&#45;&gt;Node10</title>
<path fill="none" stroke="midnightblue" d="M88.7514,-701.908C115.854,-714.244 153.684,-731.463 177.761,-742.422"/>
<polygon fill="midnightblue" stroke="midnightblue" points="89.8483,-698.561 79.2968,-697.604 86.9483,-704.932 89.8483,-698.561"/>
</g>
<!-- Node13 -->
<g id="node26" class="node"><title>Node13</title>
<a xlink:href="class_urho3_d_1_1_constant_buffer.html" target="_top" xlink:title="Hardware constant buffer.">
<polygon fill="none" stroke="red" points="387.5,-501.5 387.5,-522.5 518.5,-522.5 518.5,-501.5 387.5,-501.5"/>
<text text-anchor="middle" x="453" y="-509.5" font-family="FreeSans" font-size="10.00">Urho3D::ConstantBuffer</text>
</a>
</g>
<!-- Node1&#45;&gt;Node13 -->
<g id="edge32" class="edge"><title>Node1&#45;&gt;Node13</title>
<path fill="none" stroke="midnightblue" d="M73.4024,-668.907C91.4437,-650.787 121.017,-622.819 150,-603 199.386,-569.229 213.141,-560.615 270,-542 307.94,-529.579 352.061,-522.152 387.474,-517.796"/>
<polygon fill="midnightblue" stroke="midnightblue" points="70.4794,-666.888 65.9683,-676.474 75.473,-671.793 70.4794,-666.888"/>
</g>
<!-- Node17 -->
<g id="node37" class="node"><title>Node17</title>
<a xlink:href="class_urho3_d_1_1_shader_program.html" target="_top" xlink:title="Linked shader program on the GPU.">
<polygon fill="none" stroke="red" points="385.5,-347.5 385.5,-368.5 520.5,-368.5 520.5,-347.5 385.5,-347.5"/>
<text text-anchor="middle" x="453" y="-355.5" font-family="FreeSans" font-size="10.00">Urho3D::ShaderProgram</text>
</a>
</g>
<!-- Node1&#45;&gt;Node17 -->
<g id="edge44" class="edge"><title>Node1&#45;&gt;Node17</title>
<path fill="none" stroke="midnightblue" d="M59.1307,-666.451C69.2426,-602.974 103.116,-411.998 150,-374 184.786,-345.807 306.988,-348.002 385.167,-352.659"/>
<polygon fill="midnightblue" stroke="midnightblue" points="55.6549,-666.025 57.5686,-676.445 62.5709,-667.106 55.6549,-666.025"/>
</g>
<!-- Node20 -->
<g id="node46" class="node"><title>Node20</title>
<a xlink:href="class_urho3_d_1_1_vertex_buffer.html" target="_top" xlink:title="Hardware vertex buffer.">
<polygon fill="none" stroke="red" points="393.5,-612.5 393.5,-633.5 512.5,-633.5 512.5,-612.5 393.5,-612.5"/>
<text text-anchor="middle" x="453" y="-620.5" font-family="FreeSans" font-size="10.00">Urho3D::VertexBuffer</text>
</a>
</g>
<!-- Node1&#45;&gt;Node20 -->
<g id="edge58" class="edge"><title>Node1&#45;&gt;Node20</title>
<path fill="none" stroke="midnightblue" d="M121.498,-676.441C197.04,-664.263 320.182,-644.411 393.219,-632.637"/>
<polygon fill="midnightblue" stroke="midnightblue" points="120.935,-672.987 111.619,-678.034 122.049,-679.897 120.935,-672.987"/>
</g>
<!-- Node2 -->
<g id="node2" class="node"><title>Node2</title>
<a xlink:href="class_urho3_d_1_1_weak_ptr.html" target="_top" xlink:title="Urho3D::WeakPtr\&lt; Urho3D\l::Graphics \&gt;">
<polygon fill="none" stroke="black" points="860,-1278 860,-1312 1006,-1312 1006,-1278 860,-1278"/>
<text text-anchor="start" x="868" y="-1299" font-family="FreeSans" font-size="10.00">Urho3D::WeakPtr&lt; Urho3D</text>
<text text-anchor="middle" x="933" y="-1286" font-family="FreeSans" font-size="10.00">::Graphics &gt;</text>
</a>
</g>
<!-- Node2&#45;&gt;Node1 -->
<g id="edge2" class="edge"><title>Node2&#45;&gt;Node1</title>
<path fill="none" stroke="#9a32cd" stroke-dasharray="5,2" d="M880.611,-1315.55C844.712,-1327.8 795.685,-1341 751,-1341 201,-1341 201,-1341 201,-1341 167.007,-1341 164.572,-1314.71 150,-1284 97.5998,-1173.57 62.7162,-769.611 56.871,-697.917"/>
<polygon fill="#9a32cd" stroke="#9a32cd" points="882.094,-1318.74 890.374,-1312.13 879.779,-1312.13 882.094,-1318.74"/>
<text text-anchor="middle" x="453" y="-1345" font-family="FreeSans" font-size="10.00"> graphics_</text>
</g>
<!-- Node3 -->
<g id="node4" class="node"><title>Node3</title>
<a xlink:href="class_urho3_d_1_1_graphics.html" target="_top" xlink:title="Graphics subsystem. Manages the application window, rendering state and GPU resources.">
<polygon fill="none" stroke="red" points="700.5,-634.5 700.5,-655.5 801.5,-655.5 801.5,-634.5 700.5,-634.5"/>
<text text-anchor="middle" x="751" y="-642.5" font-family="FreeSans" font-size="10.00">Urho3D::Graphics</text>
</a>
</g>
<!-- Node3&#45;&gt;Node2 -->
<g id="edge4" class="edge"><title>Node3&#45;&gt;Node2</title>
<path fill="none" stroke="#9a32cd" stroke-dasharray="5,2" d="M756.708,-665.386C784.228,-763.673 902.925,-1187.59 928.239,-1278"/>
<polygon fill="#9a32cd" stroke="#9a32cd" points="760.074,-664.426 754.007,-655.74 753.333,-666.313 760.074,-664.426"/>
<text text-anchor="middle" x="831" y="-974" font-family="FreeSans" font-size="10.00"> ptr_</text>
</g>
<!-- Node4 -->
<g id="node6" class="node"><title>Node4</title>
<a xlink:href="class_urho3_d_1_1_object.html" target="_top" xlink:title="Base class for objects with type identification, subsystem access and event sending/receiving capabil...">
<polygon fill="none" stroke="red" points="156,-612.5 156,-633.5 246,-633.5 246,-612.5 156,-612.5"/>
<text text-anchor="middle" x="201" y="-620.5" font-family="FreeSans" font-size="10.00">Urho3D::Object</text>
</a>
</g>
<!-- Node4&#45;&gt;Node3 -->
<g id="edge6" class="edge"><title>Node4&#45;&gt;Node3</title>
<path fill="none" stroke="midnightblue" d="M256.25,-634.901C260.888,-635.689 265.517,-636.405 270,-637 311.499,-642.508 322.179,-641.133 364,-643 505.21,-649.306 540.683,-651.071 682,-648 687.874,-647.872 694.027,-647.684 700.138,-647.462"/>
<polygon fill="midnightblue" stroke="midnightblue" points="256.595,-631.407 246.132,-633.076 255.352,-638.295 256.595,-631.407"/>
</g>
<!-- Node4&#45;&gt;Node13 -->
<g id="edge30" class="edge"><title>Node4&#45;&gt;Node13</title>
<path fill="none" stroke="midnightblue" d="M228.918,-607.397C275.378,-581.435 363.554,-532.17 364,-532 373.763,-528.268 384.408,-525.131 394.831,-522.53"/>
<polygon fill="midnightblue" stroke="midnightblue" points="226.974,-604.474 219.952,-612.408 230.389,-610.585 226.974,-604.474"/>
</g>
<!-- Node4&#45;&gt;Node20 -->
<g id="edge56" class="edge"><title>Node4&#45;&gt;Node20</title>
<path fill="none" stroke="midnightblue" d="M256.28,-623C296.766,-623 351.661,-623 393.175,-623"/>
<polygon fill="midnightblue" stroke="midnightblue" points="256.053,-619.5 246.053,-623 256.053,-626.5 256.053,-619.5"/>
</g>
<!-- Node5 -->
<g id="node8" class="node"><title>Node5</title>
<a xlink:href="class_urho3_d_1_1_int_rect.html" target="_top" xlink:title="Two&#45;dimensional bounding rectangle with integer values.">
<polygon fill="none" stroke="black" points="407,-276.5 407,-297.5 499,-297.5 499,-276.5 407,-276.5"/>
<text text-anchor="middle" x="453" y="-284.5" font-family="FreeSans" font-size="10.00">Urho3D::IntRect</text>
</a>
</g>
<!-- Node5&#45;&gt;Node3 -->
<g id="edge8" class="edge"><title>Node5&#45;&gt;Node3</title>
<path fill="none" stroke="#9a32cd" stroke-dasharray="5,2" d="M509.325,-276.558C560.845,-270.482 635.855,-270.911 682,-313 731.15,-357.83 747.295,-582.254 750.404,-634.238"/>
<polygon fill="#9a32cd" stroke="#9a32cd" points="508.818,-273.094 499.35,-277.849 509.717,-280.036 508.818,-273.094"/>
<text text-anchor="middle" x="621" y="-330" font-family="FreeSans" font-size="10.00"> viewport_</text>
<text text-anchor="middle" x="621" y="-317" font-family="FreeSans" font-size="10.00">scissorRect_</text>
</g>
<!-- Node5&#45;&gt;Node5 -->
<g id="edge10" class="edge"><title>Node5&#45;&gt;Node5</title>
<path fill="none" stroke="#9a32cd" stroke-dasharray="5,2" d="M426.322,-307.055C428.072,-312.164 436.964,-316 453,-316 478.031,-316 485.658,-306.653 475.88,-297.708"/>
<polygon fill="#9a32cd" stroke="#9a32cd" points="429.598,-308.29 430.12,-297.708 423.113,-305.655 429.598,-308.29"/>
<text text-anchor="middle" x="453" y="-320" font-family="FreeSans" font-size="10.00"> ZERO</text>
</g>
<!-- Node6 -->
<g id="node11" class="node"><title>Node6</title>
<a xlink:href="class_urho3_d_1_1_vector.html" target="_top" xlink:title="Urho3D::Vector\&lt; Urho3D\l::ScratchBuffer \&gt;">
<polygon fill="none" stroke="red" points="384,-224 384,-258 522,-258 522,-224 384,-224"/>
<text text-anchor="start" x="392" y="-245" font-family="FreeSans" font-size="10.00">Urho3D::Vector&lt; Urho3D</text>
<text text-anchor="middle" x="453" y="-232" font-family="FreeSans" font-size="10.00">::ScratchBuffer &gt;</text>
</a>
</g>
<!-- Node6&#45;&gt;Node3 -->
<g id="edge12" class="edge"><title>Node6&#45;&gt;Node3</title>
<path fill="none" stroke="#9a32cd" stroke-dasharray="5,2" d="M532.121,-224.143C581.176,-218.576 642.211,-221.229 682,-257 740.13,-309.26 749.461,-577.346 750.795,-634.339"/>
<polygon fill="#9a32cd" stroke="#9a32cd" points="531.646,-220.675 522.164,-225.402 532.524,-227.619 531.646,-220.675"/>
<text text-anchor="middle" x="621" y="-261" font-family="FreeSans" font-size="10.00"> scratchBuffers_</text>
</g>
<!-- Node7 -->
<g id="node13" class="node"><title>Node7</title>
<a xlink:href="class_urho3_d_1_1_p_o_d_vector.html" target="_top" xlink:title="Urho3D::PODVector\&lt;\l Urho3D::ConstantBuffer * \&gt;">
<polygon fill="none" stroke="red" points="376,-172 376,-206 530,-206 530,-172 376,-172"/>
<text text-anchor="start" x="384" y="-193" font-family="FreeSans" font-size="10.00">Urho3D::PODVector&lt;</text>
<text text-anchor="middle" x="453" y="-180" font-family="FreeSans" font-size="10.00"> Urho3D::ConstantBuffer * &gt;</text>
</a>
</g>
<!-- Node7&#45;&gt;Node3 -->
<g id="edge14" class="edge"><title>Node7&#45;&gt;Node3</title>
<path fill="none" stroke="#9a32cd" stroke-dasharray="5,2" d="M540.207,-171.046C587.878,-166.56 644.649,-170.723 682,-205 714.9,-235.192 744.607,-569.156 750.096,-634.095"/>
<polygon fill="#9a32cd" stroke="#9a32cd" points="539.75,-167.575 530.183,-172.127 540.501,-174.534 539.75,-167.575"/>
<text text-anchor="middle" x="621" y="-209" font-family="FreeSans" font-size="10.00"> dirtyConstantBuffers_</text>
</g>
<!-- Node8 -->
<g id="node15" class="node"><title>Node8</title>
<a xlink:href="class_urho3_d_1_1_image.html" target="_top" xlink:title="Image resource.">
<polygon fill="none" stroke="red" points="408.5,-132.5 408.5,-153.5 497.5,-153.5 497.5,-132.5 408.5,-132.5"/>
<text text-anchor="middle" x="453" y="-140.5" font-family="FreeSans" font-size="10.00">Urho3D::Image</text>
</a>
</g>
<!-- Node8&#45;&gt;Node3 -->
<g id="edge16" class="edge"><title>Node8&#45;&gt;Node3</title>
<path fill="none" stroke="#9a32cd" stroke-dasharray="5,2" d="M507.529,-137.709C567.103,-133.217 657.36,-130.612 682,-153 719.105,-186.714 745.726,-565.008 750.3,-634.176"/>
<polygon fill="#9a32cd" stroke="#9a32cd" points="507.209,-134.223 497.517,-138.503 507.762,-141.201 507.209,-134.223"/>
<text text-anchor="middle" x="621" y="-157" font-family="FreeSans" font-size="10.00"> windowIcon_</text>
</g>
<!-- Node9 -->
<g id="node17" class="node"><title>Node9</title>
<a xlink:href="class_urho3_d_1_1_render_surface.html" target="_top" xlink:title="Color or depth&#45;stencil surface that can be rendered into.">
<polygon fill="none" stroke="red" points="388.5,-742.5 388.5,-763.5 517.5,-763.5 517.5,-742.5 388.5,-742.5"/>
<text text-anchor="middle" x="453" y="-750.5" font-family="FreeSans" font-size="10.00">Urho3D::RenderSurface</text>
</a>
</g>
<!-- Node9&#45;&gt;Node3 -->
<g id="edge18" class="edge"><title>Node9&#45;&gt;Node3</title>
<path fill="none" stroke="#9a32cd" stroke-dasharray="5,2" d="M527.607,-752.222C574.267,-749.005 634.34,-739.722 682,-715 709.569,-700.699 732.813,-671.352 743.947,-655.581"/>
<polygon fill="#9a32cd" stroke="#9a32cd" points="527.331,-748.732 517.563,-752.836 527.758,-755.719 527.331,-748.732"/>
<text text-anchor="middle" x="621" y="-765" font-family="FreeSans" font-size="10.00"> depthStencil_</text>
<text text-anchor="middle" x="621" y="-752" font-family="FreeSans" font-size="10.00">renderTargets_</text>
</g>
<!-- Node10&#45;&gt;Node3 -->
<g id="edge64" class="edge"><title>Node10&#45;&gt;Node3</title>
<path fill="none" stroke="#9a32cd" stroke-dasharray="5,2" d="M227.209,-768.647C258.495,-786.34 313.004,-814.103 364,-825 433.107,-839.767 623.808,-866.093 682,-826 711.839,-805.441 740.336,-691.235 748.606,-655.613"/>
<polygon fill="#9a32cd" stroke="#9a32cd" points="228.688,-765.46 218.275,-763.509 225.199,-771.528 228.688,-765.46"/>
<text text-anchor="middle" x="453" y="-850" font-family="FreeSans" font-size="10.00"> textures_</text>
</g>
<!-- Node10&#45;&gt;Node9 -->
<g id="edge20" class="edge"><title>Node10&#45;&gt;Node9</title>
<path fill="none" stroke="#9a32cd" stroke-dasharray="5,2" d="M258.147,-753C296.785,-753 347.89,-753 388.069,-753"/>
<polygon fill="#9a32cd" stroke="#9a32cd" points="258.104,-749.5 248.104,-753 258.104,-756.5 258.104,-749.5"/>
<text text-anchor="middle" x="308" y="-757" font-family="FreeSans" font-size="10.00"> parentTexture_</text>
</g>
<!-- Node11 -->
<g id="node22" class="node"><title>Node11</title>
<a xlink:href="class_urho3_d_1_1_hash_map.html" target="_top" xlink:title="Urho3D::HashMap\&lt; unsigned,\l Urho3D::SharedPtr\&lt; Urho3D\l::ConstantBuffer \&gt; \&gt;">
<polygon fill="none" stroke="red" points="372,-66.5 372,-113.5 534,-113.5 534,-66.5 372,-66.5"/>
<text text-anchor="start" x="380" y="-100.5" font-family="FreeSans" font-size="10.00">Urho3D::HashMap&lt; unsigned,</text>
<text text-anchor="start" x="380" y="-87.5" font-family="FreeSans" font-size="10.00"> Urho3D::SharedPtr&lt; Urho3D</text>
<text text-anchor="middle" x="453" y="-74.5" font-family="FreeSans" font-size="10.00">::ConstantBuffer &gt; &gt;</text>
</a>
</g>
<!-- Node11&#45;&gt;Node3 -->
<g id="edge24" class="edge"><title>Node11&#45;&gt;Node3</title>
<path fill="none" stroke="#9a32cd" stroke-dasharray="5,2" d="M544.309,-76.7774C591.571,-75.3229 646.625,-82.9255 682,-118 720.25,-155.926 746.128,-563.101 750.381,-634.382"/>
<polygon fill="#9a32cd" stroke="#9a32cd" points="543.875,-73.2931 534.042,-77.2365 544.188,-80.2862 543.875,-73.2931"/>
<text text-anchor="middle" x="621" y="-122" font-family="FreeSans" font-size="10.00"> constantBuffers_</text>
</g>
<!-- Node12 -->
<g id="node24" class="node"><title>Node12</title>
<a xlink:href="class_urho3_d_1_1_hash_map.html" target="_top" xlink:title="Urho3D::HashMap\&lt; int,\l Urho3D::SharedPtr\&lt; Urho3D\l::Texture2D \&gt; \&gt;">
<polygon fill="none" stroke="red" points="374,-0.5 374,-47.5 532,-47.5 532,-0.5 374,-0.5"/>
<text text-anchor="start" x="382" y="-34.5" font-family="FreeSans" font-size="10.00">Urho3D::HashMap&lt; int,</text>
<text text-anchor="start" x="382" y="-21.5" font-family="FreeSans" font-size="10.00"> Urho3D::SharedPtr&lt; Urho3D</text>
<text text-anchor="middle" x="453" y="-8.5" font-family="FreeSans" font-size="10.00">::Texture2D &gt; &gt;</text>
</a>
</g>
<!-- Node12&#45;&gt;Node3 -->
<g id="edge26" class="edge"><title>Node12&#45;&gt;Node3</title>
<path fill="none" stroke="#9a32cd" stroke-dasharray="5,2" d="M542.147,-14.154C590.162,-14.06 646.635,-23.2461 682,-60 723.569,-103.202 746.879,-558.121 750.501,-634.229"/>
<polygon fill="#9a32cd" stroke="#9a32cd" points="541.985,-10.6559 532.04,-14.3083 542.092,-17.6551 541.985,-10.6559"/>
<text text-anchor="middle" x="621" y="-64" font-family="FreeSans" font-size="10.00"> depthTextures_</text>
</g>
<!-- Node13&#45;&gt;Node3 -->
<g id="edge28" class="edge"><title>Node13&#45;&gt;Node3</title>
<path fill="none" stroke="#9a32cd" stroke-dasharray="5,2" d="M528.738,-513.657C575.839,-517.753 635.98,-528.789 682,-557 713.448,-576.278 736.224,-615.414 745.877,-634.313"/>
<polygon fill="#9a32cd" stroke="#9a32cd" points="528.834,-510.154 518.592,-512.863 528.288,-517.132 528.834,-510.154"/>
<text text-anchor="middle" x="621" y="-561" font-family="FreeSans" font-size="10.00"> currentConstantBuffers_</text>
</g>
<!-- Node14 -->
<g id="node30" class="node"><title>Node14</title>
<a xlink:href="class_urho3_d_1_1_hash_map.html" target="_top" xlink:title="Urho3D::HashMap\&lt; Urho3D\l::String, TextureUnit \&gt;">
<polygon fill="none" stroke="red" points="377,-1233 377,-1267 529,-1267 529,-1233 377,-1233"/>
<text text-anchor="start" x="385" y="-1254" font-family="FreeSans" font-size="10.00">Urho3D::HashMap&lt; Urho3D</text>
<text text-anchor="middle" x="453" y="-1241" font-family="FreeSans" font-size="10.00">::String, TextureUnit &gt;</text>
</a>
</g>
<!-- Node14&#45;&gt;Node3 -->
<g id="edge34" class="edge"><title>Node14&#45;&gt;Node3</title>
<path fill="none" stroke="#9a32cd" stroke-dasharray="5,2" d="M539.284,-1245.97C588.538,-1238.91 647.223,-1221.52 682,-1180 717.105,-1138.09 745.575,-727.543 750.308,-655.701"/>
<polygon fill="#9a32cd" stroke="#9a32cd" points="538.708,-1242.52 529.249,-1247.29 539.62,-1249.46 538.708,-1242.52"/>
<text text-anchor="middle" x="621" y="-1245" font-family="FreeSans" font-size="10.00"> textureUnits_</text>
</g>
<!-- Node15 -->
<g id="node32" class="node"><title>Node15</title>
<a xlink:href="class_urho3_d_1_1_hash_map.html" target="_top" xlink:title="Urho3D::HashMap\&lt; Pair\l\&lt; ShaderVariation *,\l ShaderVariation * \&gt;,\l SharedPtr\&lt; ShaderProgram \&gt; \&gt;">
<polygon fill="none" stroke="red" points="364.5,-967 364.5,-1027 541.5,-1027 541.5,-967 364.5,-967"/>
<text text-anchor="start" x="372.5" y="-1014" font-family="FreeSans" font-size="10.00">Urho3D::HashMap&lt; Pair</text>
<text text-anchor="start" x="372.5" y="-1001" font-family="FreeSans" font-size="10.00">&lt; ShaderVariation *,</text>
<text text-anchor="start" x="372.5" y="-988" font-family="FreeSans" font-size="10.00"> ShaderVariation * &gt;,</text>
<text text-anchor="middle" x="453" y="-975" font-family="FreeSans" font-size="10.00"> SharedPtr&lt; ShaderProgram &gt; &gt;</text>
</a>
</g>
<!-- Node15&#45;&gt;Node3 -->
<g id="edge36" class="edge"><title>Node15&#45;&gt;Node3</title>
<path fill="none" stroke="#9a32cd" stroke-dasharray="5,2" d="M551.493,-986.175C597.037,-976.252 648.367,-957.272 682,-921 719.445,-880.617 744.011,-701.159 749.723,-655.563"/>
<polygon fill="#9a32cd" stroke="#9a32cd" points="550.66,-982.773 541.57,-988.216 552.07,-989.629 550.66,-982.773"/>
<text text-anchor="middle" x="621" y="-987" font-family="FreeSans" font-size="10.00"> shaderPrograms_</text>
</g>
<!-- Node16 -->
<g id="node34" class="node"><title>Node16</title>
<a xlink:href="class_urho3_d_1_1_vector2.html" target="_top" xlink:title="Two&#45;dimensional vector.">
<polygon fill="none" stroke="black" points="405,-1045.5 405,-1066.5 501,-1066.5 501,-1045.5 405,-1045.5"/>
<text text-anchor="middle" x="453" y="-1053.5" font-family="FreeSans" font-size="10.00">Urho3D::Vector2</text>
</a>
</g>
<!-- Node16&#45;&gt;Node3 -->
<g id="edge38" class="edge"><title>Node16&#45;&gt;Node3</title>
<path fill="none" stroke="#9a32cd" stroke-dasharray="5,2" d="M511.338,-1058.3C563.576,-1056.99 638.457,-1046.22 682,-1000 730.863,-948.129 747.323,-709.122 750.425,-655.638"/>
<polygon fill="#9a32cd" stroke="#9a32cd" points="511.158,-1054.8 501.209,-1058.44 511.257,-1061.8 511.158,-1054.8"/>
<text text-anchor="middle" x="621" y="-1057" font-family="FreeSans" font-size="10.00"> pixelUVOffset</text>
</g>
<!-- Node16&#45;&gt;Node16 -->
<g id="edge40" class="edge"><title>Node16&#45;&gt;Node16</title>
<path fill="none" stroke="#9a32cd" stroke-dasharray="5,2" d="M426.322,-1076.06C428.072,-1081.16 436.964,-1085 453,-1085 478.031,-1085 485.658,-1075.65 475.88,-1066.71"/>
<polygon fill="#9a32cd" stroke="#9a32cd" points="429.598,-1077.29 430.12,-1066.71 423.113,-1074.65 429.598,-1077.29"/>
<text text-anchor="middle" x="453" y="-1154" font-family="FreeSans" font-size="10.00"> ONE</text>
<text text-anchor="middle" x="453" y="-1141" font-family="FreeSans" font-size="10.00">DOWN</text>
<text text-anchor="middle" x="453" y="-1128" font-family="FreeSans" font-size="10.00">RIGHT</text>
<text text-anchor="middle" x="453" y="-1115" font-family="FreeSans" font-size="10.00">LEFT</text>
<text text-anchor="middle" x="453" y="-1102" font-family="FreeSans" font-size="10.00">ZERO</text>
<text text-anchor="middle" x="453" y="-1089" font-family="FreeSans" font-size="10.00">UP</text>
</g>
<!-- Node17&#45;&gt;Node3 -->
<g id="edge42" class="edge"><title>Node17&#45;&gt;Node3</title>
<path fill="none" stroke="#9a32cd" stroke-dasharray="5,2" d="M511.788,-345.943C562.739,-339.109 635.409,-338.557 682,-378 722.652,-412.415 744.762,-588.7 749.853,-634.248"/>
<polygon fill="#9a32cd" stroke="#9a32cd" points="510.971,-342.525 501.582,-347.433 511.983,-349.451 510.971,-342.525"/>
<text text-anchor="middle" x="621" y="-382" font-family="FreeSans" font-size="10.00"> shaderProgram_</text>
</g>
<!-- Node18 -->
<g id="node40" class="node"><title>Node18</title>
<a xlink:href="class_urho3_d_1_1_string.html" target="_top" xlink:title="String class.">
<polygon fill="none" stroke="black" points="157,-383.5 157,-404.5 245,-404.5 245,-383.5 157,-383.5"/>
<text text-anchor="middle" x="201" y="-391.5" font-family="FreeSans" font-size="10.00">Urho3D::String</text>
</a>
</g>
<!-- Node18&#45;&gt;Node3 -->
<g id="edge68" class="edge"><title>Node18&#45;&gt;Node3</title>
<path fill="none" stroke="#9a32cd" stroke-dasharray="5,2" d="M255.34,-393.545C337.892,-393.466 490.72,-395.894 542,-414 614.103,-439.458 631.714,-456.396 682,-514 715.809,-552.729 738.906,-610.9 747.393,-634.497"/>
<polygon fill="#9a32cd" stroke="#9a32cd" points="255.139,-390.045 245.147,-393.568 255.155,-397.045 255.139,-390.045"/>
<text text-anchor="middle" x="453" y="-483" font-family="FreeSans" font-size="10.00"> lastShaderName_</text>
<text text-anchor="middle" x="453" y="-470" font-family="FreeSans" font-size="10.00">windowTitle_</text>
<text text-anchor="middle" x="453" y="-457" font-family="FreeSans" font-size="10.00">apiName_</text>
<text text-anchor="middle" x="453" y="-444" font-family="FreeSans" font-size="10.00">shaderPath_</text>
<text text-anchor="middle" x="453" y="-431" font-family="FreeSans" font-size="10.00">orientations_</text>
<text text-anchor="middle" x="453" y="-418" font-family="FreeSans" font-size="10.00">shaderExtension_</text>
</g>
<!-- Node18&#45;&gt;Node17 -->
<g id="edge46" class="edge"><title>Node18&#45;&gt;Node17</title>
<path fill="none" stroke="#9a32cd" stroke-dasharray="5,2" d="M253,-381.248C258.718,-380.053 264.469,-378.94 270,-378 307.967,-371.547 350.738,-366.737 385.377,-363.454"/>
<polygon fill="#9a32cd" stroke="#9a32cd" points="251.828,-377.921 242.801,-383.467 253.316,-384.761 251.828,-377.921"/>
<text text-anchor="middle" x="308" y="-382" font-family="FreeSans" font-size="10.00"> linkerOutput_</text>
</g>
<!-- Node18&#45;&gt;Node18 -->
<g id="edge48" class="edge"><title>Node18&#45;&gt;Node18</title>
<path fill="none" stroke="#9a32cd" stroke-dasharray="5,2" d="M188.181,-414.793C189.312,-419.529 193.585,-423 201,-423 213.168,-423 216.875,-413.653 212.122,-404.708"/>
<polygon fill="#9a32cd" stroke="#9a32cd" points="191.67,-415.15 189.878,-404.708 184.767,-413.988 191.67,-415.15"/>
<text text-anchor="middle" x="201" y="-427" font-family="FreeSans" font-size="10.00"> EMPTY</text>
</g>
<!-- Node19 -->
<g id="node43" class="node"><title>Node19</title>
<a xlink:href="class_urho3_d_1_1_vector4.html" target="_top" xlink:title="Four&#45;dimensional vector.">
<polygon fill="none" stroke="black" points="405,-883.5 405,-904.5 501,-904.5 501,-883.5 405,-883.5"/>
<text text-anchor="middle" x="453" y="-891.5" font-family="FreeSans" font-size="10.00">Urho3D::Vector4</text>
</a>
</g>
<!-- Node19&#45;&gt;Node3 -->
<g id="edge50" class="edge"><title>Node19&#45;&gt;Node3</title>
<path fill="none" stroke="#9a32cd" stroke-dasharray="5,2" d="M511.56,-903.109C562.362,-907.576 634.941,-905.23 682,-866 715.807,-837.817 742.268,-696.12 749.211,-655.749"/>
<polygon fill="#9a32cd" stroke="#9a32cd" points="511.683,-899.604 501.386,-902.099 510.991,-906.57 511.683,-899.604"/>
<text text-anchor="middle" x="621" y="-908" font-family="FreeSans" font-size="10.00"> clipPlane_</text>
</g>
<!-- Node19&#45;&gt;Node19 -->
<g id="edge52" class="edge"><title>Node19&#45;&gt;Node19</title>
<path fill="none" stroke="#9a32cd" stroke-dasharray="5,2" d="M426.322,-914.055C428.072,-919.164 436.964,-923 453,-923 478.031,-923 485.658,-913.653 475.88,-904.708"/>
<polygon fill="#9a32cd" stroke="#9a32cd" points="429.598,-915.29 430.12,-904.708 423.113,-912.655 429.598,-915.29"/>
<text text-anchor="middle" x="453" y="-940" font-family="FreeSans" font-size="10.00"> ONE</text>
<text text-anchor="middle" x="453" y="-927" font-family="FreeSans" font-size="10.00">ZERO</text>
</g>
<!-- Node20&#45;&gt;Node3 -->
<g id="edge54" class="edge"><title>Node20&#45;&gt;Node3</title>
<path fill="none" stroke="#9a32cd" stroke-dasharray="5,2" d="M522.938,-625.004C568.349,-626.715 628.775,-629.76 682,-635 687.903,-635.581 694.073,-636.306 700.194,-637.099"/>
<polygon fill="#9a32cd" stroke="#9a32cd" points="523.022,-621.505 512.901,-624.638 522.767,-628.5 523.022,-621.505"/>
<text text-anchor="middle" x="621" y="-639" font-family="FreeSans" font-size="10.00"> vertexBuffers_</text>
</g>
<!-- Node21 -->
<g id="node50" class="node"><title>Node21</title>
<a xlink:href="class_urho3_d_1_1_weak_ptr.html" target="_top" xlink:title="Urho3D::WeakPtr\&lt; Urho3D\l::Shader \&gt;">
<polygon fill="none" stroke="red" points="380,-1181 380,-1215 526,-1215 526,-1181 380,-1181"/>
<text text-anchor="start" x="388" y="-1202" font-family="FreeSans" font-size="10.00">Urho3D::WeakPtr&lt; Urho3D</text>
<text text-anchor="middle" x="453" y="-1189" font-family="FreeSans" font-size="10.00">::Shader &gt;</text>
</a>
</g>
<!-- Node21&#45;&gt;Node3 -->
<g id="edge60" class="edge"><title>Node21&#45;&gt;Node3</title>
<path fill="none" stroke="#9a32cd" stroke-dasharray="5,2" d="M527.428,-1177.67C580.352,-1158.97 647.876,-1125.53 682,-1070 726.813,-997.08 746.666,-714.539 750.355,-655.752"/>
<polygon fill="#9a32cd" stroke="#9a32cd" points="526.054,-1174.44 517.727,-1180.99 528.322,-1181.06 526.054,-1174.44"/>
<text text-anchor="middle" x="621" y="-1167" font-family="FreeSans" font-size="10.00"> lastShader_</text>
</g>
<!-- Node22 -->
<g id="node52" class="node"><title>Node22</title>
<a xlink:href="struct_urho3_d_1_1_ref_count.html" target="_top" xlink:title="Reference count structure.">
<polygon fill="none" stroke="black" points="150,-1253.5 150,-1274.5 252,-1274.5 252,-1253.5 150,-1253.5"/>
<text text-anchor="middle" x="201" y="-1261.5" font-family="FreeSans" font-size="10.00">Urho3D::RefCount</text>
</a>
</g>
<!-- Node22&#45;&gt;Node2 -->
<g id="edge76" class="edge"><title>Node22&#45;&gt;Node2</title>
<path fill="none" stroke="#9a32cd" stroke-dasharray="5,2" d="M262.425,-1269.11C292.947,-1271.5 330.397,-1274.2 364,-1276 541.904,-1285.52 751.37,-1291.05 859.755,-1293.49"/>
<polygon fill="#9a32cd" stroke="#9a32cd" points="262.6,-1265.61 252.355,-1268.31 262.048,-1272.59 262.6,-1265.61"/>
<text text-anchor="middle" x="621" y="-1292" font-family="FreeSans" font-size="10.00"> refCount_</text>
</g>
<!-- Node22&#45;&gt;Node21 -->
<g id="edge62" class="edge"><title>Node22&#45;&gt;Node21</title>
<path fill="none" stroke="#9a32cd" stroke-dasharray="5,2" d="M251.082,-1250.88C290.325,-1240.61 345.233,-1226.22 387.886,-1215.05"/>
<polygon fill="#9a32cd" stroke="#9a32cd" points="249.996,-1247.55 241.209,-1253.47 251.769,-1254.32 249.996,-1247.55"/>
<text text-anchor="middle" x="308" y="-1248" font-family="FreeSans" font-size="10.00"> refCount_</text>
</g>
<!-- Node23 -->
<g id="node55" class="node"><title>Node23</title>
<a xlink:href="class_urho3_d_1_1_p_o_d_vector.html" target="_top" xlink:title="Urho3D::PODVector\&lt;\l Urho3D::GPUObject * \&gt;">
<polygon fill="none" stroke="red" points="386,-782 386,-816 520,-816 520,-782 386,-782"/>
<text text-anchor="start" x="394" y="-803" font-family="FreeSans" font-size="10.00">Urho3D::PODVector&lt;</text>
<text text-anchor="middle" x="453" y="-790" font-family="FreeSans" font-size="10.00"> Urho3D::GPUObject * &gt;</text>
</a>
</g>
<!-- Node23&#45;&gt;Node3 -->
<g id="edge66" class="edge"><title>Node23&#45;&gt;Node3</title>
<path fill="none" stroke="#9a32cd" stroke-dasharray="5,2" d="M530.285,-809.187C577.852,-811.441 637.936,-806.66 682,-777 725.547,-747.688 743.418,-681.861 748.952,-655.862"/>
<polygon fill="#9a32cd" stroke="#9a32cd" points="530.215,-805.677 520.027,-808.585 529.805,-812.665 530.215,-805.677"/>
<text text-anchor="middle" x="621" y="-813" font-family="FreeSans" font-size="10.00"> gpuObjects_</text>
</g>
<!-- Node24 -->
<g id="node58" class="node"><title>Node24</title>
<a xlink:href="class_urho3_d_1_1_shared_ptr.html" target="_top" xlink:title="Urho3D::SharedPtr\&lt;\l Urho3D::ShaderPrecache \&gt;">
<polygon fill="none" stroke="red" points="377,-690 377,-724 529,-724 529,-690 377,-690"/>
<text text-anchor="start" x="385" y="-711" font-family="FreeSans" font-size="10.00">Urho3D::SharedPtr&lt;</text>
<text text-anchor="middle" x="453" y="-698" font-family="FreeSans" font-size="10.00"> Urho3D::ShaderPrecache &gt;</text>
</a>
</g>
<!-- Node24&#45;&gt;Node3 -->
<g id="edge70" class="edge"><title>Node24&#45;&gt;Node3</title>
<path fill="none" stroke="#9a32cd" stroke-dasharray="5,2" d="M539.126,-701.241C582.58,-696.858 635.745,-689.221 682,-676 699.425,-671.019 718.114,-662.4 731.641,-655.513"/>
<polygon fill="#9a32cd" stroke="#9a32cd" points="538.772,-697.759 529.156,-702.207 539.447,-704.726 538.772,-697.759"/>
<text text-anchor="middle" x="621" y="-702" font-family="FreeSans" font-size="10.00"> shaderPrecache_</text>
</g>
<!-- Node25 -->
<g id="node60" class="node"><title>Node25</title>
<a xlink:href="class_urho3_d_1_1_int_vector2.html" target="_top" xlink:title="Two&#45;dimensional vector with integer values.">
<polygon fill="none" stroke="black" points="399,-541.5 399,-562.5 507,-562.5 507,-541.5 399,-541.5"/>
<text text-anchor="middle" x="453" y="-549.5" font-family="FreeSans" font-size="10.00">Urho3D::IntVector2</text>
</a>
</g>
<!-- Node25&#45;&gt;Node3 -->
<g id="edge72" class="edge"><title>Node25&#45;&gt;Node3</title>
<path fill="none" stroke="#9a32cd" stroke-dasharray="5,2" d="M517.274,-563.745C563.871,-573.277 627.93,-588.498 682,-609 700.319,-615.946 720.022,-626.573 733.665,-634.482"/>
<polygon fill="#9a32cd" stroke="#9a32cd" points="517.804,-560.282 507.31,-561.739 516.422,-567.144 517.804,-560.282"/>
<text text-anchor="middle" x="621" y="-613" font-family="FreeSans" font-size="10.00"> position_</text>
</g>
<!-- Node25&#45;&gt;Node25 -->
<g id="edge74" class="edge"><title>Node25&#45;&gt;Node25</title>
<path fill="none" stroke="#9a32cd" stroke-dasharray="5,2" d="M426.322,-572.055C428.072,-577.164 436.964,-581 453,-581 478.031,-581 485.658,-571.653 475.88,-562.708"/>
<polygon fill="#9a32cd" stroke="#9a32cd" points="429.598,-573.29 430.12,-562.708 423.113,-570.655 429.598,-573.29"/>
<text text-anchor="middle" x="453" y="-585" font-family="FreeSans" font-size="10.00"> ZERO</text>
</g>
</g>
</svg>
        <g id="navigator" transform="translate(0 0)" fill="#404254">
                <rect fill="#f2f5e9" fill-opacity="0.5" stroke="#606060" stroke-width=".5" x="0" y="0" width="60" height="60"/>
                <use id="zoomplus" xlink:href="#zoomPlus" x="17" y="9" onmousedown="handleZoom(evt,'in')"/>
                <use id="zoomminus" xlink:href="#zoomMin" x="42" y="9" onmousedown="handleZoom(evt,'out')"/>
                <use id="reset" xlink:href="#resetDef" x="30" y="36" onmousedown="handleReset()"/>
                <g id="arrowUp" xlink:href="#dirArrow" transform="translate(30 24)" onmousedown="handlePan(0,-1)">
                  <use xlink:href="#rim" fill="#404040">
                        <set attributeName="fill" to="#808080" begin="arrowUp.mouseover" end="arrowUp.mouseout"/>
                  </use>
                  <path fill="none" stroke="white" stroke-width="1.5" d="M0,-3.0v7 M-2.5,-0.5L0,-3.0L2.5,-0.5"/>
                </g>
                <g id="arrowRight" xlink:href="#dirArrow" transform="rotate(90) translate(36 -43)" onmousedown="handlePan(1,0)">
                  <use xlink:href="#rim" fill="#404040">
                        <set attributeName="fill" to="#808080" begin="arrowRight.mouseover" end="arrowRight.mouseout"/>
                  </use>
                  <path fill="none" stroke="white" stroke-width="1.5" d="M0,-3.0v7 M-2.5,-0.5L0,-3.0L2.5,-0.5"/>
                </g>
                <g id="arrowDown" xlink:href="#dirArrow" transform="rotate(180) translate(-30 -48)" onmousedown="handlePan(0,1)">
                  <use xlink:href="#rim" fill="#404040">
                        <set attributeName="fill" to="#808080" begin="arrowDown.mouseover" end="arrowDown.mouseout"/>
                  </use>
                  <path fill="none" stroke="white" stroke-width="1.5" d="M0,-3.0v7 M-2.5,-0.5L0,-3.0L2.5,-0.5"/>
                </g>
                <g id="arrowLeft" xlink:href="#dirArrow" transform="rotate(270) translate(-36 17)" onmousedown="handlePan(-1,0)">
                  <use xlink:href="#rim" fill="#404040">
                        <set attributeName="fill" to="#808080" begin="arrowLeft.mouseover" end="arrowLeft.mouseout"/>
                  </use>
                  <path fill="none" stroke="white" stroke-width="1.5" d="M0,-3.0v7 M-2.5,-0.5L0,-3.0L2.5,-0.5"/>
                </g>
        </g>
        <svg viewBox="0 0 15 15" width="100%" height="30px" preserveAspectRatio="xMaxYMin meet">
         <g id="arrow_out" transform="scale(0.3 0.3)">
          <a xlink:href="class_urho3_d_1_1_g_p_u_object__coll__graph_org.svg" target="_base">
           <rect id="button" ry="5" rx="5" y="6" x="6" height="38" width="38"
                fill="#f2f5e9" fill-opacity="0.5" stroke="#606060" stroke-width="1.0"/>
           <path id="arrow"
             d="M 11.500037,31.436501 C 11.940474,20.09759 22.043105,11.32322 32.158766,21.979434 L 37.068811,17.246167 C 37.068811,17.246167 37.088388,32 37.088388,32 L 22.160133,31.978069 C 22.160133,31.978069 26.997745,27.140456 26.997745,27.140456 C 18.528582,18.264221 13.291696,25.230495 11.500037,31.436501 z"
             style="fill:#404040;"/>
          </a>
         </g>
        </svg>
</svg>
