<?xml version="1.0" encoding="UTF-8" standalone="no"?>
<!DOCTYPE svg PUBLIC "-//W3C//DTD SVG 1.1//EN"
 "http://www.w3.org/Graphics/SVG/1.1/DTD/svg11.dtd">
<!-- Generated by graphviz version 2.26.3 (20100126.1600)
 -->
<!-- Title: Urho3D::Script Pages: 1 -->
<!--zoomable 938 -->
<svg id="main" version="1.1" xmlns="http://www.w3.org/2000/svg" xmlns:xlink="http://www.w3.org/1999/xlink" xml:space="preserve" onload="init(evt)">
        <defs>
                <circle id="rim" cx="0" cy="0" r="7"/>
                <circle id="rim2" cx="0" cy="0" r="3.5"/>
                <g id="zoomPlus">
                        <use xlink:href="#rim" fill="#404040">
                                <set attributeName="fill" to="#808080" begin="zoomplus.mouseover" end="zoomplus.mouseout"/>
                        </use>
                        <path d="M-4,0h8M0,-4v8" fill="none" stroke="white" stroke-width="1.5" pointer-events="none"/>
                </g>
                <g id="zoomMin">
                        <use xlink:href="#rim" fill="#404040">
                                <set attributeName="fill" to="#808080" begin="zoomminus.mouseover" end="zoomminus.mouseout"/>
                        </use>
                        <path d="M-4,0h8" fill="none" stroke="white" stroke-width="1.5" pointer-events="none"/>
                </g>
                <g id="dirArrow">
                        <path fill="none" stroke="white" stroke-width="1.5" d="M0,-3.0v7 M-2.5,-0.5L0,-3.0L2.5,-0.5"/>
                </g>
               <g id="resetDef">
                       <use xlink:href="#rim2" fill="#404040">
                               <set attributeName="fill" to="#808080" begin="reset.mouseover" end="reset.mouseout"/>
                       </use>
               </g>
        </defs>

<script type="text/javascript">
var viewWidth = 1330;
var viewHeight = 938;
var sectionId = 'dynsection-1';
</script>
<script xlink:href="svgpan.js"/>
<svg id="graph" class="graph">
<g id="viewport">
<title>Urho3D::Script</title>
<!-- Node1 -->
<g id="node1" class="node"><title>Node1</title>
<polygon fill="#bfbfbf" stroke="black" points="1234.5,-592.5 1234.5,-613.5 1321.5,-613.5 1321.5,-592.5 1234.5,-592.5"/>
<text text-anchor="middle" x="1278" y="-600.5" font-family="FreeSans" font-size="10.00">Urho3D::Script</text>
</g>
<!-- Node2 -->
<g id="node2" class="node"><title>Node2</title>
<a xlink:href="class_urho3_d_1_1_object.html" target="_top" xlink:title="Base class for objects with type identification, subsystem access and event sending/receiving capabil...">
<polygon fill="none" stroke="black" points="384,-637.5 384,-658.5 474,-658.5 474,-637.5 384,-637.5"/>
<text text-anchor="middle" x="429" y="-645.5" font-family="FreeSans" font-size="10.00">Urho3D::Object</text>
</a>
</g>
<!-- Node2&#45;&gt;Node1 -->
<g id="edge2" class="edge"><title>Node2&#45;&gt;Node1</title>
<path fill="none" stroke="midnightblue" d="M448.065,-665.471C462.518,-677.94 483.353,-694.329 504,-705 539.589,-723.394 550.401,-725.93 590,-732 654.148,-741.833 1085.33,-739.921 1126,-729 1170.4,-717.077 1180.77,-707.54 1216,-678 1239.3,-658.462 1260.49,-629.32 1271.01,-613.74"/>
<polygon fill="midnightblue" stroke="midnightblue" points="450.157,-662.648 440.343,-658.654 445.524,-667.896 450.157,-662.648"/>
</g>
<!-- Node8 -->
<g id="node15" class="node"><title>Node8</title>
<a xlink:href="class_urho3_d_1_1_event_handler.html" target="_top" xlink:title="Internal helper class for invoking event handler functions.">
<polygon fill="none" stroke="red" points="631,-612.5 631,-633.5 755,-633.5 755,-612.5 631,-612.5"/>
<text text-anchor="middle" x="693" y="-620.5" font-family="FreeSans" font-size="10.00">Urho3D::EventHandler</text>
</a>
</g>
<!-- Node2&#45;&gt;Node8 -->
<g id="edge18" class="edge"><title>Node2&#45;&gt;Node8</title>
<path fill="none" stroke="#9a32cd" stroke-dasharray="5,2" d="M476.513,-635.098C485.579,-633.064 495.036,-631.229 504,-630 545.964,-624.245 593.628,-622.513 630.591,-622.21"/>
<polygon fill="#9a32cd" stroke="#9a32cd" points="475.423,-631.759 466.492,-637.458 477.028,-638.573 475.423,-631.759"/>
<text text-anchor="middle" x="538" y="-647" font-family="FreeSans" font-size="10.00"> sender_</text>
<text text-anchor="middle" x="538" y="-634" font-family="FreeSans" font-size="10.00">receiver_</text>
</g>
<!-- Node22 -->
<g id="node53" class="node"><title>Node22</title>
<a xlink:href="class_urho3_d_1_1_resource_router.html" target="_top" xlink:title="Optional resource request processor. Can deny requests, re&#45;route resource file names, or perform other processing per request.">
<polygon fill="none" stroke="black" points="626,-701.5 626,-722.5 760,-722.5 760,-701.5 626,-701.5"/>
<text text-anchor="middle" x="693" y="-709.5" font-family="FreeSans" font-size="10.00">Urho3D::ResourceRouter</text>
</a>
</g>
<!-- Node2&#45;&gt;Node22 -->
<g id="edge66" class="edge"><title>Node2&#45;&gt;Node22</title>
<path fill="none" stroke="midnightblue" d="M456.177,-663.489C470.078,-670.772 487.506,-678.947 504,-684 543.486,-696.098 589.267,-703.051 625.881,-707.002"/>
<polygon fill="midnightblue" stroke="midnightblue" points="457.635,-660.3 447.171,-658.639 454.316,-666.463 457.635,-660.3"/>
</g>
<!-- Node3 -->
<g id="node4" class="node"><title>Node3</title>
<a xlink:href="class_urho3_d_1_1_ref_counted.html" target="_top" xlink:title="Base class for intrusively reference&#45;counted objects. These are noncopyable and non&#45;assignable.">
<polygon fill="none" stroke="black" points="204,-530.5 204,-551.5 318,-551.5 318,-530.5 204,-530.5"/>
<text text-anchor="middle" x="261" y="-538.5" font-family="FreeSans" font-size="10.00">Urho3D::RefCounted</text>
</a>
</g>
<!-- Node3&#45;&gt;Node2 -->
<g id="edge4" class="edge"><title>Node3&#45;&gt;Node2</title>
<path fill="none" stroke="midnightblue" d="M286.374,-557.161C321.197,-579.34 382.833,-618.596 412.345,-637.392"/>
<polygon fill="midnightblue" stroke="midnightblue" points="288.037,-554.071 277.723,-551.651 284.277,-559.975 288.037,-554.071"/>
</g>
<!-- Node5 -->
<g id="node8" class="node"><title>Node5</title>
<a xlink:href="class_urho3_d_1_1_context.html" target="_top" xlink:title="Urho3D execution context. Provides access to subsystems, object factories and attributes, and event receivers.">
<polygon fill="none" stroke="red" points="1003.5,-389.5 1003.5,-410.5 1100.5,-410.5 1100.5,-389.5 1003.5,-389.5"/>
<text text-anchor="middle" x="1052" y="-397.5" font-family="FreeSans" font-size="10.00">Urho3D::Context</text>
</a>
</g>
<!-- Node3&#45;&gt;Node5 -->
<g id="edge10" class="edge"><title>Node3&#45;&gt;Node5</title>
<path fill="none" stroke="midnightblue" d="M328.51,-542.203C455.824,-542.427 738.495,-533.125 960,-455 990.009,-444.416 1020.98,-423.431 1038.23,-410.663"/>
<polygon fill="midnightblue" stroke="midnightblue" points="328.159,-538.702 318.146,-542.163 328.132,-545.702 328.159,-538.702"/>
</g>
<!-- Node4 -->
<g id="node6" class="node"><title>Node4</title>
<a xlink:href="struct_urho3_d_1_1_ref_count.html" target="_top" xlink:title="Reference count structure.">
<polygon fill="none" stroke="black" points="0,-530.5 0,-551.5 102,-551.5 102,-530.5 0,-530.5"/>
<text text-anchor="middle" x="51" y="-538.5" font-family="FreeSans" font-size="10.00">Urho3D::RefCount</text>
</a>
</g>
<!-- Node4&#45;&gt;Node3 -->
<g id="edge6" class="edge"><title>Node4&#45;&gt;Node3</title>
<path fill="none" stroke="#9a32cd" stroke-dasharray="5,2" d="M112.464,-541C141.297,-541 175.451,-541 203.735,-541"/>
<polygon fill="#9a32cd" stroke="#9a32cd" points="112.103,-537.5 102.103,-541 112.103,-544.5 112.103,-537.5"/>
<text text-anchor="middle" x="145" y="-545" font-family="FreeSans" font-size="10.00"> refCount_</text>
</g>
<!-- Node16 -->
<g id="node37" class="node"><title>Node16</title>
<a xlink:href="class_urho3_d_1_1_weak_ptr.html" target="_top" xlink:title="Urho3D::WeakPtr\&lt; Urho3D\l::Scene \&gt;">
<polygon fill="none" stroke="black" points="979,-779 979,-813 1125,-813 1125,-779 979,-779"/>
<text text-anchor="start" x="987" y="-800" font-family="FreeSans" font-size="10.00">Urho3D::WeakPtr&lt; Urho3D</text>
<text text-anchor="middle" x="1052" y="-787" font-family="FreeSans" font-size="10.00">::Scene &gt;</text>
</a>
</g>
<!-- Node4&#45;&gt;Node16 -->
<g id="edge50" class="edge"><title>Node4&#45;&gt;Node16</title>
<path fill="none" stroke="#9a32cd" stroke-dasharray="5,2" d="M57.1847,-561.4C76.5662,-620.724 142.029,-789 261,-789 261,-789 261,-789 693,-789 791.962,-789 906.24,-791.692 978.783,-793.737"/>
<polygon fill="#9a32cd" stroke="#9a32cd" points="60.4549,-560.133 54.0995,-551.656 53.7814,-562.246 60.4549,-560.133"/>
<text text-anchor="middle" x="429" y="-793" font-family="FreeSans" font-size="10.00"> refCount_</text>
</g>
<!-- Node24 -->
<g id="node59" class="node"><title>Node24</title>
<a xlink:href="class_urho3_d_1_1_weak_ptr.html" target="_top" xlink:title="Urho3D::WeakPtr\&lt; Urho3D\l::ScriptFile \&gt;">
<polygon fill="none" stroke="black" points="188,-101 188,-135 334,-135 334,-101 188,-101"/>
<text text-anchor="start" x="196" y="-122" font-family="FreeSans" font-size="10.00">Urho3D::WeakPtr&lt; Urho3D</text>
<text text-anchor="middle" x="261" y="-109" font-family="FreeSans" font-size="10.00">::ScriptFile &gt;</text>
</a>
</g>
<!-- Node4&#45;&gt;Node24 -->
<g id="edge76" class="edge"><title>Node4&#45;&gt;Node24</title>
<path fill="none" stroke="#9a32cd" stroke-dasharray="5,2" d="M61.066,-520.724C97.0405,-448.261 218.884,-202.833 252.404,-135.316"/>
<polygon fill="#9a32cd" stroke="#9a32cd" points="57.7139,-519.605 56.4021,-530.119 63.9838,-522.718 57.7139,-519.605"/>
<text text-anchor="middle" x="145" y="-397" font-family="FreeSans" font-size="10.00"> refCount_</text>
</g>
<!-- Node5&#45;&gt;Node2 -->
<g id="edge8" class="edge"><title>Node5&#45;&gt;Node2</title>
<path fill="none" stroke="#9a32cd" stroke-dasharray="5,2" d="M1046.79,-420.57C1036.68,-455.754 1010.8,-526.801 960,-559 890.309,-603.172 670.792,-573.251 590,-590 539.09,-600.554 482.548,-623.782 451.865,-637.425"/>
<polygon fill="#9a32cd" stroke="#9a32cd" points="1050.28,-421.07 1049.53,-410.502 1043.53,-419.232 1050.28,-421.07"/>
<text text-anchor="middle" x="693" y="-594" font-family="FreeSans" font-size="10.00"> context_</text>
</g>
<!-- Node6 -->
<g id="node11" class="node"><title>Node6</title>
<a xlink:href="class_urho3_d_1_1_p_o_d_vector.html" target="_top" xlink:title="Urho3D::PODVector\&lt;\l Urho3D::Object * \&gt;">
<polygon fill="none" stroke="black" points="633.5,-435 633.5,-469 752.5,-469 752.5,-435 633.5,-435"/>
<text text-anchor="start" x="641.5" y="-456" font-family="FreeSans" font-size="10.00">Urho3D::PODVector&lt;</text>
<text text-anchor="middle" x="693" y="-443" font-family="FreeSans" font-size="10.00"> Urho3D::Object * &gt;</text>
</a>
</g>
<!-- Node6&#45;&gt;Node5 -->
<g id="edge12" class="edge"><title>Node6&#45;&gt;Node5</title>
<path fill="none" stroke="#9a32cd" stroke-dasharray="5,2" d="M762.657,-443.882C816.619,-437.349 893.19,-427.544 960,-417 974.119,-414.772 989.402,-412.067 1003.38,-409.476"/>
<polygon fill="#9a32cd" stroke="#9a32cd" points="762.024,-440.433 752.514,-445.104 762.861,-447.383 762.024,-440.433"/>
<text text-anchor="middle" x="887" y="-442" font-family="FreeSans" font-size="10.00"> eventSenders_</text>
</g>
<!-- Node7 -->
<g id="node13" class="node"><title>Node7</title>
<a xlink:href="class_urho3_d_1_1_vector_base.html" target="_top" xlink:title="Vector base class.">
<polygon fill="none" stroke="black" points="372,-441.5 372,-462.5 486,-462.5 486,-441.5 372,-441.5"/>
<text text-anchor="middle" x="429" y="-449.5" font-family="FreeSans" font-size="10.00">Urho3D::VectorBase</text>
</a>
</g>
<!-- Node7&#45;&gt;Node6 -->
<g id="edge14" class="edge"><title>Node7&#45;&gt;Node6</title>
<path fill="none" stroke="midnightblue" d="M496.461,-452C538.618,-452 592.426,-452 633.079,-452"/>
<polygon fill="midnightblue" stroke="midnightblue" points="496.284,-448.5 486.284,-452 496.284,-455.5 496.284,-448.5"/>
</g>
<!-- Node13 -->
<g id="node28" class="node"><title>Node13</title>
<a xlink:href="class_urho3_d_1_1_p_o_d_vector.html" target="_top" xlink:title="Urho3D::PODVector\&lt;\l Urho3D::HashMap * \&gt;">
<polygon fill="none" stroke="black" points="629.5,-383 629.5,-417 756.5,-417 756.5,-383 629.5,-383"/>
<text text-anchor="start" x="637.5" y="-404" font-family="FreeSans" font-size="10.00">Urho3D::PODVector&lt;</text>
<text text-anchor="middle" x="693" y="-391" font-family="FreeSans" font-size="10.00"> Urho3D::HashMap * &gt;</text>
</a>
</g>
<!-- Node7&#45;&gt;Node13 -->
<g id="edge34" class="edge"><title>Node7&#45;&gt;Node13</title>
<path fill="none" stroke="midnightblue" d="M492.417,-439.509C533.902,-431.337 587.901,-420.701 629.419,-412.524"/>
<polygon fill="midnightblue" stroke="midnightblue" points="491.559,-436.11 482.424,-441.477 492.912,-442.978 491.559,-436.11"/>
</g>
<!-- Node19 -->
<g id="node44" class="node"><title>Node19</title>
<a xlink:href="class_urho3_d_1_1_vector.html" target="_top" xlink:title="Urho3D::Vector\&lt; asIScript\lContext * \&gt;">
<polygon fill="none" stroke="black" points="815.5,-521 815.5,-555 958.5,-555 958.5,-521 815.5,-521"/>
<text text-anchor="start" x="823.5" y="-542" font-family="FreeSans" font-size="10.00">Urho3D::Vector&lt; asIScript</text>
<text text-anchor="middle" x="887" y="-529" font-family="FreeSans" font-size="10.00">Context * &gt;</text>
</a>
</g>
<!-- Node7&#45;&gt;Node19 -->
<g id="edge54" class="edge"><title>Node7&#45;&gt;Node19</title>
<path fill="none" stroke="midnightblue" d="M495.225,-464.435C580.356,-480.421 727.617,-508.072 815.312,-524.539"/>
<polygon fill="midnightblue" stroke="midnightblue" points="495.634,-460.951 485.16,-462.545 494.342,-467.831 495.634,-460.951"/>
</g>
<!-- Node8&#45;&gt;Node5 -->
<g id="edge16" class="edge"><title>Node8&#45;&gt;Node5</title>
<path fill="none" stroke="#9a32cd" stroke-dasharray="5,2" d="M765.267,-615.909C838.886,-608.138 944.41,-595.274 960,-584 961.976,-582.571 1027.6,-449.539 1046.78,-410.596"/>
<polygon fill="#9a32cd" stroke="#9a32cd" points="764.685,-612.451 755.103,-616.971 765.413,-619.413 764.685,-612.451"/>
<text text-anchor="middle" x="887" y="-614" font-family="FreeSans" font-size="10.00"> eventHandler_</text>
</g>
<!-- Node15 -->
<g id="node34" class="node"><title>Node15</title>
<a xlink:href="class_urho3_d_1_1_linked_list.html" target="_top" xlink:title="Urho3D::LinkedList\l\&lt; Urho3D::EventHandler \&gt;">
<polygon fill="none" stroke="black" points="979,-628 979,-662 1125,-662 1125,-628 979,-628"/>
<text text-anchor="start" x="987" y="-649" font-family="FreeSans" font-size="10.00">Urho3D::LinkedList</text>
<text text-anchor="middle" x="1052" y="-636" font-family="FreeSans" font-size="10.00">&lt; Urho3D::EventHandler &gt;</text>
</a>
</g>
<!-- Node8&#45;&gt;Node15 -->
<g id="edge42" class="edge"><title>Node8&#45;&gt;Node15</title>
<path fill="none" stroke="#9a32cd" stroke-dasharray="5,2" d="M765.236,-627.427C827.347,-631.233 916.517,-636.697 978.883,-640.519"/>
<polygon fill="#9a32cd" stroke="#9a32cd" points="765.319,-623.925 755.123,-626.807 764.89,-630.912 765.319,-623.925"/>
<text text-anchor="middle" x="887" y="-643" font-family="FreeSans" font-size="10.00"> head_</text>
</g>
<!-- Node9 -->
<g id="node18" class="node"><title>Node9</title>
<a xlink:href="class_urho3_d_1_1_hash_map.html" target="_top" xlink:title="Urho3D::HashMap\&lt; Urho3D\l::StringHash, Urho3D::\lHashSet\&lt; Urho3D::Object * \&gt; \&gt;">
<polygon fill="none" stroke="black" points="606.5,-251.5 606.5,-298.5 779.5,-298.5 779.5,-251.5 606.5,-251.5"/>
<text text-anchor="start" x="614.5" y="-285.5" font-family="FreeSans" font-size="10.00">Urho3D::HashMap&lt; Urho3D</text>
<text text-anchor="start" x="614.5" y="-272.5" font-family="FreeSans" font-size="10.00">::StringHash, Urho3D::</text>
<text text-anchor="middle" x="693" y="-259.5" font-family="FreeSans" font-size="10.00">HashSet&lt; Urho3D::Object * &gt; &gt;</text>
</a>
</g>
<!-- Node9&#45;&gt;Node5 -->
<g id="edge20" class="edge"><title>Node9&#45;&gt;Node5</title>
<path fill="none" stroke="#9a32cd" stroke-dasharray="5,2" d="M789.503,-292.142C841.302,-303.173 905.515,-319.834 960,-343 989.568,-355.572 1020.68,-376.781 1038.09,-389.479"/>
<polygon fill="#9a32cd" stroke="#9a32cd" points="790.154,-288.703 779.649,-290.08 788.72,-295.554 790.154,-288.703"/>
<text text-anchor="middle" x="887" y="-347" font-family="FreeSans" font-size="10.00"> eventReceivers_</text>
</g>
<!-- Node10 -->
<g id="node20" class="node"><title>Node10</title>
<a xlink:href="class_urho3_d_1_1_hash_base.html" target="_top" xlink:title="Hash set/map base class.">
<polygon fill="none" stroke="red" points="375,-156.5 375,-177.5 483,-177.5 483,-156.5 375,-156.5"/>
<text text-anchor="middle" x="429" y="-164.5" font-family="FreeSans" font-size="10.00">Urho3D::HashBase</text>
</a>
</g>
<!-- Node10&#45;&gt;Node9 -->
<g id="edge22" class="edge"><title>Node10&#45;&gt;Node9</title>
<path fill="none" stroke="midnightblue" d="M458.701,-182.214C490.641,-198.248 543.158,-223.67 590,-242 598.306,-245.25 607.076,-248.43 615.851,-251.455"/>
<polygon fill="midnightblue" stroke="midnightblue" points="459.982,-178.94 449.478,-177.558 456.827,-185.189 459.982,-178.94"/>
</g>
<!-- Node11 -->
<g id="node22" class="node"><title>Node11</title>
<a xlink:href="class_urho3_d_1_1_hash_map.html" target="_top" xlink:title="Urho3D::HashMap\&lt; Urho3D\l::Object *, Urho3D::HashMap\l\&lt; Urho3D::StringHash, Urho3D\l::HashSet\&lt; Urho3D::Object * \&gt; \&gt; \&gt;">
<polygon fill="none" stroke="black" points="597.5,-173 597.5,-233 788.5,-233 788.5,-173 597.5,-173"/>
<text text-anchor="start" x="605.5" y="-220" font-family="FreeSans" font-size="10.00">Urho3D::HashMap&lt; Urho3D</text>
<text text-anchor="start" x="605.5" y="-207" font-family="FreeSans" font-size="10.00">::Object *, Urho3D::HashMap</text>
<text text-anchor="start" x="605.5" y="-194" font-family="FreeSans" font-size="10.00">&lt; Urho3D::StringHash, Urho3D</text>
<text text-anchor="middle" x="693" y="-181" font-family="FreeSans" font-size="10.00">::HashSet&lt; Urho3D::Object * &gt; &gt; &gt;</text>
</a>
</g>
<!-- Node10&#45;&gt;Node11 -->
<g id="edge26" class="edge"><title>Node10&#45;&gt;Node11</title>
<path fill="none" stroke="midnightblue" d="M492.97,-175.723C524.292,-179.994 562.646,-185.224 597.36,-189.958"/>
<polygon fill="midnightblue" stroke="midnightblue" points="493.443,-172.255 483.061,-174.372 492.497,-179.191 493.443,-172.255"/>
</g>
<!-- Node12 -->
<g id="node25" class="node"><title>Node12</title>
<a xlink:href="class_urho3_d_1_1_hash_map.html" target="_top" xlink:title="Urho3D::HashMap\&lt; Urho3D\l::StringHash, Urho3D::\lSharedPtr\&lt; Urho3D::Object \&gt; \&gt;">
<polygon fill="none" stroke="black" points="607,-107.5 607,-154.5 779,-154.5 779,-107.5 607,-107.5"/>
<text text-anchor="start" x="615" y="-141.5" font-family="FreeSans" font-size="10.00">Urho3D::HashMap&lt; Urho3D</text>
<text text-anchor="start" x="615" y="-128.5" font-family="FreeSans" font-size="10.00">::StringHash, Urho3D::</text>
<text text-anchor="middle" x="693" y="-115.5" font-family="FreeSans" font-size="10.00">SharedPtr&lt; Urho3D::Object &gt; &gt;</text>
</a>
</g>
<!-- Node10&#45;&gt;Node12 -->
<g id="edge30" class="edge"><title>Node10&#45;&gt;Node12</title>
<path fill="none" stroke="midnightblue" d="M493.37,-158.222C527.489,-153.57 569.868,-147.791 606.791,-142.756"/>
<polygon fill="midnightblue" stroke="midnightblue" points="492.497,-154.809 483.061,-159.628 493.443,-161.745 492.497,-154.809"/>
</g>
<!-- Node14 -->
<g id="node31" class="node"><title>Node14</title>
<a xlink:href="class_urho3_d_1_1_hash_map.html" target="_top" xlink:title="Urho3D::HashMap\&lt; Urho3D\l::StringHash, Urho3D::\lSharedPtr\&lt; Urho3D::ObjectFactory \&gt; \&gt;">
<polygon fill="none" stroke="black" points="590,-317.5 590,-364.5 796,-364.5 796,-317.5 590,-317.5"/>
<text text-anchor="start" x="598" y="-351.5" font-family="FreeSans" font-size="10.00">Urho3D::HashMap&lt; Urho3D</text>
<text text-anchor="start" x="598" y="-338.5" font-family="FreeSans" font-size="10.00">::StringHash, Urho3D::</text>
<text text-anchor="middle" x="693" y="-325.5" font-family="FreeSans" font-size="10.00">SharedPtr&lt; Urho3D::ObjectFactory &gt; &gt;</text>
</a>
</g>
<!-- Node10&#45;&gt;Node14 -->
<g id="edge38" class="edge"><title>Node10&#45;&gt;Node14</title>
<path fill="none" stroke="midnightblue" d="M444.8,-185.065C471.74,-214.809 529.544,-274.16 590,-308 596.144,-311.439 602.699,-314.579 609.411,-317.433"/>
<polygon fill="midnightblue" stroke="midnightblue" points="447.317,-182.63 438.043,-177.507 442.098,-187.295 447.317,-182.63"/>
</g>
<!-- Node20 -->
<g id="node47" class="node"><title>Node20</title>
<a xlink:href="class_urho3_d_1_1_hash_map.html" target="_top" xlink:title="Hash map template class.">
<polygon fill="none" stroke="black" points="814,-89.5 814,-110.5 960,-110.5 960,-89.5 814,-89.5"/>
<text text-anchor="middle" x="887" y="-97.5" font-family="FreeSans" font-size="10.00">Urho3D::HashMap&lt; T, U &gt;</text>
</a>
</g>
<!-- Node10&#45;&gt;Node20 -->
<g id="edge58" class="edge"><title>Node10&#45;&gt;Node20</title>
<path fill="none" stroke="midnightblue" d="M455.949,-151.406C487.055,-134.384 540.327,-108.196 590,-98 665.135,-82.5781 753.229,-85.7533 813.855,-91.1207"/>
<polygon fill="midnightblue" stroke="midnightblue" points="454.071,-148.445 447.035,-156.366 457.475,-154.562 454.071,-148.445"/>
</g>
<!-- Node23 -->
<g id="node56" class="node"><title>Node23</title>
<a xlink:href="class_urho3_d_1_1_hash_map.html" target="_top" xlink:title="Urho3D::HashMap\&lt; const\l char *, asIObjectType * \&gt;">
<polygon fill="none" stroke="black" points="816,-37 816,-71 958,-71 958,-37 816,-37"/>
<text text-anchor="start" x="824" y="-58" font-family="FreeSans" font-size="10.00">Urho3D::HashMap&lt; const</text>
<text text-anchor="middle" x="887" y="-45" font-family="FreeSans" font-size="10.00"> char *, asIObjectType * &gt;</text>
</a>
</g>
<!-- Node10&#45;&gt;Node23 -->
<g id="edge70" class="edge"><title>Node10&#45;&gt;Node23</title>
<path fill="none" stroke="midnightblue" d="M444.26,-148.286C458.148,-132.578 480.084,-110.856 504,-99 603.875,-49.4905 735.846,-45.3467 815.916,-48.5006"/>
<polygon fill="midnightblue" stroke="midnightblue" points="441.251,-146.42 437.411,-156.294 446.571,-150.97 441.251,-146.42"/>
</g>
<!-- Node11&#45;&gt;Node5 -->
<g id="edge24" class="edge"><title>Node11&#45;&gt;Node5</title>
<path fill="none" stroke="#9a32cd" stroke-dasharray="5,2" d="M798.526,-216.858C850.982,-227.836 913.027,-247.373 960,-282 971.609,-290.558 969.441,-297.392 978,-309 1000.12,-338.992 1028.43,-372.606 1042.77,-389.338"/>
<polygon fill="#9a32cd" stroke="#9a32cd" points="799.004,-213.384 788.51,-214.84 797.622,-220.246 799.004,-213.384"/>
<text text-anchor="middle" x="887" y="-286" font-family="FreeSans" font-size="10.00"> specificEventReceivers_</text>
</g>
<!-- Node12&#45;&gt;Node5 -->
<g id="edge28" class="edge"><title>Node12&#45;&gt;Node5</title>
<path fill="none" stroke="#9a32cd" stroke-dasharray="5,2" d="M789.535,-132.646C847.148,-138.935 917.201,-156.829 960,-204 991.815,-239.065 958.424,-265.889 978,-309 993.071,-342.188 1023.24,-373.455 1040.03,-389.262"/>
<polygon fill="#9a32cd" stroke="#9a32cd" points="789.597,-129.135 779.301,-131.635 788.909,-136.101 789.597,-129.135"/>
<text text-anchor="middle" x="887" y="-208" font-family="FreeSans" font-size="10.00"> subsystems_</text>
</g>
<!-- Node13&#45;&gt;Node5 -->
<g id="edge32" class="edge"><title>Node13&#45;&gt;Node5</title>
<path fill="none" stroke="#9a32cd" stroke-dasharray="5,2" d="M766.965,-400C837.811,-400 942.668,-400 1003.49,-400"/>
<polygon fill="#9a32cd" stroke="#9a32cd" points="766.768,-396.5 756.768,-400 766.768,-403.5 766.768,-396.5"/>
<text text-anchor="middle" x="887" y="-404" font-family="FreeSans" font-size="10.00"> eventDataMaps_</text>
</g>
<!-- Node14&#45;&gt;Node5 -->
<g id="edge36" class="edge"><title>Node14&#45;&gt;Node5</title>
<path fill="none" stroke="#9a32cd" stroke-dasharray="5,2" d="M806.14,-358.114C853.7,-365.485 909.586,-374.379 960,-383 974.089,-385.409 989.363,-388.171 1003.34,-390.758"/>
<polygon fill="#9a32cd" stroke="#9a32cd" points="806.54,-354.634 796.123,-356.564 805.47,-361.552 806.54,-354.634"/>
<text text-anchor="middle" x="887" y="-387" font-family="FreeSans" font-size="10.00"> factories_</text>
</g>
<!-- Node15&#45;&gt;Node2 -->
<g id="edge40" class="edge"><title>Node15&#45;&gt;Node2</title>
<path fill="none" stroke="#9a32cd" stroke-dasharray="5,2" d="M968.702,-655.405C965.768,-655.63 962.86,-655.83 960,-656 757.692,-668.052 706.381,-666.763 504,-656 494.324,-655.485 483.975,-654.6 474.15,-653.601"/>
<polygon fill="#9a32cd" stroke="#9a32cd" points="969.085,-658.885 978.754,-654.554 968.494,-651.91 969.085,-658.885"/>
<text text-anchor="middle" x="693" y="-668" font-family="FreeSans" font-size="10.00"> eventHandlers_</text>
</g>
<!-- Node16&#45;&gt;Node1 -->
<g id="edge44" class="edge"><title>Node16&#45;&gt;Node1</title>
<path fill="none" stroke="#9a32cd" stroke-dasharray="5,2" d="M1135.54,-796.215C1163.76,-792.408 1193.72,-783.616 1216,-765 1264.07,-724.837 1274.95,-642.994 1277.35,-613.714"/>
<polygon fill="#9a32cd" stroke="#9a32cd" points="1134.78,-792.78 1125.24,-797.401 1135.58,-799.734 1134.78,-792.78"/>
<text text-anchor="middle" x="1180" y="-798" font-family="FreeSans" font-size="10.00"> defaultScene_</text>
</g>
<!-- Node17 -->
<g id="node39" class="node"><title>Node17</title>
<a xlink:href="class_urho3_d_1_1_scene.html" target="_top" xlink:title="Root scene node, represents the whole scene.">
<polygon fill="none" stroke="red" points="648.5,-817.5 648.5,-838.5 737.5,-838.5 737.5,-817.5 648.5,-817.5"/>
<text text-anchor="middle" x="693" y="-825.5" font-family="FreeSans" font-size="10.00">Urho3D::Scene</text>
</a>
</g>
<!-- Node17&#45;&gt;Node16 -->
<g id="edge46" class="edge"><title>Node17&#45;&gt;Node16</title>
<path fill="none" stroke="#9a32cd" stroke-dasharray="5,2" d="M748.073,-823.091C809.925,-817.578 910.576,-808.606 978.956,-802.511"/>
<polygon fill="#9a32cd" stroke="#9a32cd" points="747.391,-819.638 737.742,-824.012 748.013,-826.61 747.391,-819.638"/>
<text text-anchor="middle" x="887" y="-820" font-family="FreeSans" font-size="10.00"> ptr_</text>
</g>
<!-- Node18 -->
<g id="node41" class="node"><title>Node18</title>
<a xlink:href="class_urho3_d_1_1_mutex.html" target="_top" xlink:title="Operating system mutual exclusion primitive.">
<polygon fill="none" stroke="black" points="384.5,-824.5 384.5,-845.5 473.5,-845.5 473.5,-824.5 384.5,-824.5"/>
<text text-anchor="middle" x="429" y="-832.5" font-family="FreeSans" font-size="10.00">Urho3D::Mutex</text>
</a>
</g>
<!-- Node18&#45;&gt;Node1 -->
<g id="edge60" class="edge"><title>Node18&#45;&gt;Node1</title>
<path fill="none" stroke="#9a32cd" stroke-dasharray="5,2" d="M468.49,-848.824C594.704,-890.251 993.073,-999.288 1216,-811 1247.38,-784.498 1270.28,-652.299 1276.38,-613.637"/>
<polygon fill="#9a32cd" stroke="#9a32cd" points="469.437,-845.45 458.843,-845.614 467.227,-852.092 469.437,-845.45"/>
<text text-anchor="middle" x="887" y="-921" font-family="FreeSans" font-size="10.00"> moduleMutex_</text>
</g>
<!-- Node18&#45;&gt;Node17 -->
<g id="edge48" class="edge"><title>Node18&#45;&gt;Node17</title>
<path fill="none" stroke="#9a32cd" stroke-dasharray="5,2" d="M483.847,-833.546C532.624,-832.252 603.059,-830.385 648.438,-829.182"/>
<polygon fill="#9a32cd" stroke="#9a32cd" points="483.688,-830.049 473.784,-833.813 483.873,-837.046 483.688,-830.049"/>
<text text-anchor="middle" x="538" y="-836" font-family="FreeSans" font-size="10.00"> sceneMutex_</text>
</g>
<!-- Node19&#45;&gt;Node1 -->
<g id="edge52" class="edge"><title>Node19&#45;&gt;Node1</title>
<path fill="none" stroke="#9a32cd" stroke-dasharray="5,2" d="M968.864,-551.609C1049.71,-565.049 1170.28,-585.092 1234.33,-595.74"/>
<polygon fill="#9a32cd" stroke="#9a32cd" points="969.154,-548.109 958.715,-549.922 968.006,-555.015 969.154,-548.109"/>
<text text-anchor="middle" x="1052" y="-582" font-family="FreeSans" font-size="10.00"> scriptFileContexts_</text>
</g>
<!-- Node20&#45;&gt;Node1 -->
<g id="edge56" class="edge"><title>Node20&#45;&gt;Node1</title>
<path fill="none" stroke="#9a32cd" stroke-dasharray="5,2" d="M929.252,-114.559C939.945,-119.42 950.951,-125.544 960,-133 1133.36,-275.839 1250.16,-537.056 1273.64,-592.489"/>
<polygon fill="#9a32cd" stroke="#9a32cd" points="930.565,-111.314 919.994,-110.611 927.819,-117.753 930.565,-111.314"/>
<text text-anchor="middle" x="1052" y="-319" font-family="FreeSans" font-size="10.00"> globalVars</text>
</g>
<!-- Node21 -->
<g id="node51" class="node"><title>Node21</title>
<a xlink:href="class_urho3_d_1_1_shared_ptr.html" target="_top" xlink:title="Urho3D::SharedPtr\&lt;\l Urho3D::ResourceRouter \&gt;">
<polygon fill="none" stroke="black" points="978,-686 978,-720 1126,-720 1126,-686 978,-686"/>
<text text-anchor="start" x="986" y="-707" font-family="FreeSans" font-size="10.00">Urho3D::SharedPtr&lt;</text>
<text text-anchor="middle" x="1052" y="-694" font-family="FreeSans" font-size="10.00"> Urho3D::ResourceRouter &gt;</text>
</a>
</g>
<!-- Node21&#45;&gt;Node1 -->
<g id="edge62" class="edge"><title>Node21&#45;&gt;Node1</title>
<path fill="none" stroke="#9a32cd" stroke-dasharray="5,2" d="M1100.91,-681.951C1109.29,-678.317 1117.9,-674.562 1126,-671 1171.65,-650.921 1224.79,-627.026 1254.61,-613.575"/>
<polygon fill="#9a32cd" stroke="#9a32cd" points="1099.38,-678.8 1091.6,-685.986 1102.16,-685.224 1099.38,-678.8"/>
<text text-anchor="middle" x="1180" y="-665" font-family="FreeSans" font-size="10.00"> router_</text>
</g>
<!-- Node22&#45;&gt;Node21 -->
<g id="edge64" class="edge"><title>Node22&#45;&gt;Node21</title>
<path fill="none" stroke="#9a32cd" stroke-dasharray="5,2" d="M770.137,-710.066C831.6,-708.525 917.115,-706.382 977.796,-704.86"/>
<polygon fill="#9a32cd" stroke="#9a32cd" points="770.013,-706.568 760.104,-710.318 770.189,-713.566 770.013,-706.568"/>
<text text-anchor="middle" x="887" y="-712" font-family="FreeSans" font-size="10.00"> ptr_</text>
</g>
<!-- Node23&#45;&gt;Node1 -->
<g id="edge68" class="edge"><title>Node23&#45;&gt;Node1</title>
<path fill="none" stroke="#9a32cd" stroke-dasharray="5,2" d="M968.127,-65.5417C1018.92,-76.5203 1082.72,-97.6597 1126,-138 1197.76,-204.882 1263.78,-529.677 1275.99,-592.476"/>
<polygon fill="#9a32cd" stroke="#9a32cd" points="968.653,-62.0765 958.151,-63.4788 967.235,-68.9315 968.653,-62.0765"/>
<text text-anchor="middle" x="1052" y="-142" font-family="FreeSans" font-size="10.00"> objectTypes_</text>
</g>
<!-- Node24&#45;&gt;Node1 -->
<g id="edge72" class="edge"><title>Node24&#45;&gt;Node1</title>
<path fill="none" stroke="#9a32cd" stroke-dasharray="5,2" d="M279.993,-92.5728C308.291,-57.8876 365.092,-0 429,-0 429,-0 429,-0 1052,-0 1078.6,-0 1212.29,-152.299 1216,-160 1254.66,-240.292 1273.83,-532.655 1277.39,-592.323"/>
<polygon fill="#9a32cd" stroke="#9a32cd" points="276.904,-90.8342 273.426,-100.842 282.386,-95.1877 276.904,-90.8342"/>
<text text-anchor="middle" x="693" y="-4" font-family="FreeSans" font-size="10.00"> defaultScriptFile_</text>
</g>
<!-- Node25 -->
<g id="node61" class="node"><title>Node25</title>
<a xlink:href="class_urho3_d_1_1_script_file.html" target="_top" xlink:title="Script file resource.">
<polygon fill="none" stroke="red" points="0,-107.5 0,-128.5 102,-128.5 102,-107.5 0,-107.5"/>
<text text-anchor="middle" x="51" y="-115.5" font-family="FreeSans" font-size="10.00">Urho3D::ScriptFile</text>
</a>
</g>
<!-- Node25&#45;&gt;Node24 -->
<g id="edge74" class="edge"><title>Node25&#45;&gt;Node24</title>
<path fill="none" stroke="#9a32cd" stroke-dasharray="5,2" d="M112.332,-118C135.949,-118 163.152,-118 187.78,-118"/>
<polygon fill="#9a32cd" stroke="#9a32cd" points="112.103,-114.5 102.103,-118 112.103,-121.5 112.103,-114.5"/>
<text text-anchor="middle" x="145" y="-122" font-family="FreeSans" font-size="10.00"> ptr_</text>
</g>
</g>
</svg>
        <g id="navigator" transform="translate(0 0)" fill="#404254">
                <rect fill="#f2f5e9" fill-opacity="0.5" stroke="#606060" stroke-width=".5" x="0" y="0" width="60" height="60"/>
                <use id="zoomplus" xlink:href="#zoomPlus" x="17" y="9" onmousedown="handleZoom(evt,'in')"/>
                <use id="zoomminus" xlink:href="#zoomMin" x="42" y="9" onmousedown="handleZoom(evt,'out')"/>
                <use id="reset" xlink:href="#resetDef" x="30" y="36" onmousedown="handleReset()"/>
                <g id="arrowUp" xlink:href="#dirArrow" transform="translate(30 24)" onmousedown="handlePan(0,-1)">
                  <use xlink:href="#rim" fill="#404040">
                        <set attributeName="fill" to="#808080" begin="arrowUp.mouseover" end="arrowUp.mouseout"/>
                  </use>
                  <path fill="none" stroke="white" stroke-width="1.5" d="M0,-3.0v7 M-2.5,-0.5L0,-3.0L2.5,-0.5"/>
                </g>
                <g id="arrowRight" xlink:href="#dirArrow" transform="rotate(90) translate(36 -43)" onmousedown="handlePan(1,0)">
                  <use xlink:href="#rim" fill="#404040">
                        <set attributeName="fill" to="#808080" begin="arrowRight.mouseover" end="arrowRight.mouseout"/>
                  </use>
                  <path fill="none" stroke="white" stroke-width="1.5" d="M0,-3.0v7 M-2.5,-0.5L0,-3.0L2.5,-0.5"/>
                </g>
                <g id="arrowDown" xlink:href="#dirArrow" transform="rotate(180) translate(-30 -48)" onmousedown="handlePan(0,1)">
                  <use xlink:href="#rim" fill="#404040">
                        <set attributeName="fill" to="#808080" begin="arrowDown.mouseover" end="arrowDown.mouseout"/>
                  </use>
                  <path fill="none" stroke="white" stroke-width="1.5" d="M0,-3.0v7 M-2.5,-0.5L0,-3.0L2.5,-0.5"/>
                </g>
                <g id="arrowLeft" xlink:href="#dirArrow" transform="rotate(270) translate(-36 17)" onmousedown="handlePan(-1,0)">
                  <use xlink:href="#rim" fill="#404040">
                        <set attributeName="fill" to="#808080" begin="arrowLeft.mouseover" end="arrowLeft.mouseout"/>
                  </use>
                  <path fill="none" stroke="white" stroke-width="1.5" d="M0,-3.0v7 M-2.5,-0.5L0,-3.0L2.5,-0.5"/>
                </g>
        </g>
        <svg viewBox="0 0 15 15" width="100%" height="30px" preserveAspectRatio="xMaxYMin meet">
         <g id="arrow_out" transform="scale(0.3 0.3)">
          <a xlink:href="class_urho3_d_1_1_script__coll__graph_org.svg" target="_base">
           <rect id="button" ry="5" rx="5" y="6" x="6" height="38" width="38"
                fill="#f2f5e9" fill-opacity="0.5" stroke="#606060" stroke-width="1.0"/>
           <path id="arrow"
             d="M 11.500037,31.436501 C 11.940474,20.09759 22.043105,11.32322 32.158766,21.979434 L 37.068811,17.246167 C 37.068811,17.246167 37.088388,32 37.088388,32 L 22.160133,31.978069 C 22.160133,31.978069 26.997745,27.140456 26.997745,27.140456 C 18.528582,18.264221 13.291696,25.230495 11.500037,31.436501 z"
             style="fill:#404040;"/>
          </a>
         </g>
        </svg>
</svg>
