<?xml version="1.0" encoding="UTF-8" standalone="no"?>
<!DOCTYPE svg PUBLIC "-//W3C//DTD SVG 1.1//EN"
 "http://www.w3.org/Graphics/SVG/1.1/DTD/svg11.dtd">
<!-- Generated by graphviz version 2.26.3 (20100126.1600)
 -->
<!-- Title: Urho3D::DbResult Pages: 1 -->
<svg width="304pt" height="176pt"
 viewBox="0.00 0.00 304.00 176.00" xmlns="http://www.w3.org/2000/svg" xmlns:xlink="http://www.w3.org/1999/xlink">
<g id="graph1" class="graph" transform="scale(1 1) rotate(0) translate(4 172)">
<title>Urho3D::DbResult</title>
<!-- Node1 -->
<g id="node1" class="node"><title>Node1</title>
<polygon fill="#bfbfbf" stroke="black" points="71.5,-0.5 71.5,-21.5 172.5,-21.5 172.5,-0.5 71.5,-0.5"/>
<text text-anchor="middle" x="122" y="-8.5" font-family="FreeSans" font-size="10.00">Urho3D::DbResult</text>
</g>
<!-- Node2 -->
<g id="node2" class="node"><title>Node2</title>
<a xlink:href="class_urho3_d_1_1_vector.html" target="_top" xlink:title="Urho3D::Vector\&lt; Urho3D\l::Vector \&gt;">
<polygon fill="none" stroke="black" points="0,-73 0,-107 138,-107 138,-73 0,-73"/>
<text text-anchor="start" x="8" y="-94" font-family="FreeSans" font-size="10.00">Urho3D::Vector&lt; Urho3D</text>
<text text-anchor="middle" x="69" y="-81" font-family="FreeSans" font-size="10.00">::Vector &gt;</text>
</a>
</g>
<!-- Node2&#45;&gt;Node1 -->
<g id="edge2" class="edge"><title>Node2&#45;&gt;Node1</title>
<path fill="none" stroke="#9a32cd" stroke-dasharray="5,2" d="M86.2576,-64.2764C95.9884,-49.772 107.62,-32.4344 114.911,-21.5672"/>
<polygon fill="#9a32cd" stroke="#9a32cd" points="83.165,-62.6039 80.5002,-72.8582 88.978,-66.5038 83.165,-62.6039"/>
<text text-anchor="middle" x="117.5" y="-44.5" font-family="FreeSans" font-size="10.00"> rows_</text>
</g>
<!-- Node3 -->
<g id="node4" class="node"><title>Node3</title>
<a xlink:href="class_urho3_d_1_1_vector_base.html" target="_top" xlink:title="Vector base class.">
<polygon fill="none" stroke="black" points="107,-146.5 107,-167.5 221,-167.5 221,-146.5 107,-146.5"/>
<text text-anchor="middle" x="164" y="-154.5" font-family="FreeSans" font-size="10.00">Urho3D::VectorBase</text>
</a>
</g>
<!-- Node3&#45;&gt;Node2 -->
<g id="edge4" class="edge"><title>Node3&#45;&gt;Node2</title>
<path fill="none" stroke="midnightblue" d="M140.352,-140.322C125.954,-130.168 107.608,-117.229 93.1241,-107.014"/>
<polygon fill="midnightblue" stroke="midnightblue" points="138.547,-143.332 148.737,-146.235 142.582,-137.612 138.547,-143.332"/>
</g>
<!-- Node4 -->
<g id="node6" class="node"><title>Node4</title>
<a xlink:href="class_urho3_d_1_1_vector.html" target="_top" xlink:title="Urho3D::Vector\&lt; String \&gt;">
<polygon fill="none" stroke="black" points="155.5,-79.5 155.5,-100.5 296.5,-100.5 296.5,-79.5 155.5,-79.5"/>
<text text-anchor="middle" x="226" y="-87.5" font-family="FreeSans" font-size="10.00">Urho3D::Vector&lt; String &gt;</text>
</a>
</g>
<!-- Node3&#45;&gt;Node4 -->
<g id="edge8" class="edge"><title>Node3&#45;&gt;Node4</title>
<path fill="none" stroke="midnightblue" d="M180.873,-138.766C192.229,-126.494 206.802,-110.746 216.268,-100.517"/>
<polygon fill="midnightblue" stroke="midnightblue" points="178.184,-136.518 173.961,-146.235 183.322,-141.273 178.184,-136.518"/>
</g>
<!-- Node4&#45;&gt;Node1 -->
<g id="edge6" class="edge"><title>Node4&#45;&gt;Node1</title>
<path fill="none" stroke="#9a32cd" stroke-dasharray="5,2" d="M203.833,-73.1617C183.358,-57.6082 153.556,-34.9705 136.136,-21.7378"/>
<polygon fill="#9a32cd" stroke="#9a32cd" points="201.894,-76.0839 211.974,-79.3457 206.128,-70.5097 201.894,-76.0839"/>
<text text-anchor="middle" x="201.5" y="-44.5" font-family="FreeSans" font-size="10.00"> columns_</text>
</g>
</g>
</svg>
