<?xml version="1.0" encoding="UTF-8" standalone="no"?>
<!DOCTYPE svg PUBLIC "-//W3C//DTD SVG 1.1//EN"
 "http://www.w3.org/Graphics/SVG/1.1/DTD/svg11.dtd">
<!-- Generated by graphviz version 2.26.3 (20100126.1600)
 -->
<!-- Title: Urho3D::GPUObject Pages: 1 -->
<svg width="448pt" height="230pt"
 viewBox="0.00 0.00 448.00 230.00" xmlns="http://www.w3.org/2000/svg" xmlns:xlink="http://www.w3.org/1999/xlink">
<g id="graph1" class="graph" transform="scale(1 1) rotate(0) translate(4 226)">
<title>Urho3D::GPUObject</title>
<!-- Node1 -->
<g id="node1" class="node"><title>Node1</title>
<polygon fill="#bfbfbf" stroke="black" points="0.5,-100.5 0.5,-121.5 111.5,-121.5 111.5,-100.5 0.5,-100.5"/>
<text text-anchor="middle" x="56" y="-108.5" font-family="FreeSans" font-size="10.00">Urho3D::GPUObject</text>
</g>
<!-- Node2 -->
<g id="node3" class="node"><title>Node2</title>
<a xlink:href="class_urho3_d_1_1_constant_buffer.html" target="_top" xlink:title="Hardware constant buffer.">
<polygon fill="none" stroke="black" points="150.5,-200.5 150.5,-221.5 281.5,-221.5 281.5,-200.5 150.5,-200.5"/>
<text text-anchor="middle" x="216" y="-208.5" font-family="FreeSans" font-size="10.00">Urho3D::ConstantBuffer</text>
</a>
</g>
<!-- Node1&#45;&gt;Node2 -->
<g id="edge2" class="edge"><title>Node1&#45;&gt;Node2</title>
<path fill="none" stroke="midnightblue" d="M72.4389,-129.306C89.6301,-147.407 118.214,-174.693 148,-191 154.8,-194.723 162.372,-197.825 169.923,-200.386"/>
<polygon fill="midnightblue" stroke="midnightblue" points="74.7497,-126.651 65.3786,-121.708 69.622,-131.416 74.7497,-126.651"/>
</g>
<!-- Node3 -->
<g id="node5" class="node"><title>Node3</title>
<a xlink:href="class_urho3_d_1_1_index_buffer.html" target="_top" xlink:title="Hardware index buffer.">
<polygon fill="none" stroke="black" points="159.5,-160.5 159.5,-181.5 272.5,-181.5 272.5,-160.5 159.5,-160.5"/>
<text text-anchor="middle" x="216" y="-168.5" font-family="FreeSans" font-size="10.00">Urho3D::IndexBuffer</text>
</a>
</g>
<!-- Node1&#45;&gt;Node3 -->
<g id="edge4" class="edge"><title>Node1&#45;&gt;Node3</title>
<path fill="none" stroke="midnightblue" d="M87.593,-125.893C105.166,-133.883 127.555,-143.581 148,-151 157.254,-154.358 167.365,-157.57 176.893,-160.4"/>
<polygon fill="midnightblue" stroke="midnightblue" points="88.917,-122.65 78.3689,-121.656 85.9949,-129.011 88.917,-122.65"/>
</g>
<!-- Node4 -->
<g id="node7" class="node"><title>Node4</title>
<a xlink:href="class_urho3_d_1_1_shader_program.html" target="_top" xlink:title="Linked shader program on the GPU.">
<polygon fill="none" stroke="black" points="148.5,-120.5 148.5,-141.5 283.5,-141.5 283.5,-120.5 148.5,-120.5"/>
<text text-anchor="middle" x="216" y="-128.5" font-family="FreeSans" font-size="10.00">Urho3D::ShaderProgram</text>
</a>
</g>
<!-- Node1&#45;&gt;Node4 -->
<g id="edge6" class="edge"><title>Node1&#45;&gt;Node4</title>
<path fill="none" stroke="midnightblue" d="M121.44,-119.18C130.349,-120.294 139.508,-121.438 148.454,-122.557"/>
<polygon fill="midnightblue" stroke="midnightblue" points="121.868,-115.706 111.511,-117.939 121,-122.652 121.868,-115.706"/>
</g>
<!-- Node5 -->
<g id="node9" class="node"><title>Node5</title>
<a xlink:href="class_urho3_d_1_1_shader_variation.html" target="_top" xlink:title="Vertex or pixel shader on the GPU.">
<polygon fill="none" stroke="black" points="148,-80.5 148,-101.5 284,-101.5 284,-80.5 148,-80.5"/>
<text text-anchor="middle" x="216" y="-88.5" font-family="FreeSans" font-size="10.00">Urho3D::ShaderVariation</text>
</a>
</g>
<!-- Node1&#45;&gt;Node5 -->
<g id="edge8" class="edge"><title>Node1&#45;&gt;Node5</title>
<path fill="none" stroke="midnightblue" d="M121.57,-102.804C130.253,-101.718 139.17,-100.604 147.894,-99.5133"/>
<polygon fill="midnightblue" stroke="midnightblue" points="121,-99.3477 111.511,-104.061 121.868,-106.294 121,-99.3477"/>
</g>
<!-- Node6 -->
<g id="node11" class="node"><title>Node6</title>
<a xlink:href="class_urho3_d_1_1_texture.html" target="_top" xlink:title="Base class for texture resources.">
<polygon fill="none" stroke="black" points="169,-40.5 169,-61.5 263,-61.5 263,-40.5 169,-40.5"/>
<text text-anchor="middle" x="216" y="-48.5" font-family="FreeSans" font-size="10.00">Urho3D::Texture</text>
</a>
</g>
<!-- Node1&#45;&gt;Node6 -->
<g id="edge10" class="edge"><title>Node1&#45;&gt;Node6</title>
<path fill="none" stroke="midnightblue" d="M87.593,-96.1067C105.166,-88.1174 127.555,-78.4186 148,-71 157.254,-67.642 167.365,-64.4297 176.893,-61.5998"/>
<polygon fill="midnightblue" stroke="midnightblue" points="85.9949,-92.9891 78.3689,-100.344 88.917,-99.35 85.9949,-92.9891"/>
</g>
<!-- Node10 -->
<g id="node19" class="node"><title>Node10</title>
<a xlink:href="class_urho3_d_1_1_vertex_buffer.html" target="_top" xlink:title="Hardware vertex buffer.">
<polygon fill="none" stroke="black" points="156.5,-0.5 156.5,-21.5 275.5,-21.5 275.5,-0.5 156.5,-0.5"/>
<text text-anchor="middle" x="216" y="-8.5" font-family="FreeSans" font-size="10.00">Urho3D::VertexBuffer</text>
</a>
</g>
<!-- Node1&#45;&gt;Node10 -->
<g id="edge18" class="edge"><title>Node1&#45;&gt;Node10</title>
<path fill="none" stroke="midnightblue" d="M72.4389,-92.6941C89.6301,-74.5933 118.214,-47.3066 148,-31 154.8,-27.2771 162.372,-24.1754 169.923,-21.6145"/>
<polygon fill="midnightblue" stroke="midnightblue" points="69.622,-90.5838 65.3786,-100.292 74.7497,-95.3489 69.622,-90.5838"/>
</g>
<!-- Node7 -->
<g id="node13" class="node"><title>Node7</title>
<a xlink:href="class_urho3_d_1_1_texture2_d.html" target="_top" xlink:title="2D texture resource.">
<polygon fill="none" stroke="black" points="326.5,-80.5 326.5,-101.5 433.5,-101.5 433.5,-80.5 326.5,-80.5"/>
<text text-anchor="middle" x="380" y="-88.5" font-family="FreeSans" font-size="10.00">Urho3D::Texture2D</text>
</a>
</g>
<!-- Node6&#45;&gt;Node7 -->
<g id="edge12" class="edge"><title>Node6&#45;&gt;Node7</title>
<path fill="none" stroke="midnightblue" d="M268.935,-63.911C290.914,-69.2718 316.093,-75.413 336.914,-80.4913"/>
<polygon fill="midnightblue" stroke="midnightblue" points="269.634,-60.4788 259.089,-61.5095 267.975,-67.2795 269.634,-60.4788"/>
</g>
<!-- Node8 -->
<g id="node15" class="node"><title>Node8</title>
<a xlink:href="class_urho3_d_1_1_texture3_d.html" target="_top" xlink:title="3D texture resource.">
<polygon fill="none" stroke="black" points="326.5,-40.5 326.5,-61.5 433.5,-61.5 433.5,-40.5 326.5,-40.5"/>
<text text-anchor="middle" x="380" y="-48.5" font-family="FreeSans" font-size="10.00">Urho3D::Texture3D</text>
</a>
</g>
<!-- Node6&#45;&gt;Node8 -->
<g id="edge14" class="edge"><title>Node6&#45;&gt;Node8</title>
<path fill="none" stroke="midnightblue" d="M273.84,-51C290.916,-51 309.527,-51 326.329,-51"/>
<polygon fill="midnightblue" stroke="midnightblue" points="273.436,-47.5001 263.436,-51 273.436,-54.5001 273.436,-47.5001"/>
</g>
<!-- Node9 -->
<g id="node17" class="node"><title>Node9</title>
<a xlink:href="class_urho3_d_1_1_texture_cube.html" target="_top" xlink:title="Cube texture resource.">
<polygon fill="none" stroke="black" points="320.5,-0.5 320.5,-21.5 439.5,-21.5 439.5,-0.5 320.5,-0.5"/>
<text text-anchor="middle" x="380" y="-8.5" font-family="FreeSans" font-size="10.00">Urho3D::TextureCube</text>
</a>
</g>
<!-- Node6&#45;&gt;Node9 -->
<g id="edge16" class="edge"><title>Node6&#45;&gt;Node9</title>
<path fill="none" stroke="midnightblue" d="M268.935,-38.089C290.914,-32.7282 316.093,-26.587 336.914,-21.5087"/>
<polygon fill="midnightblue" stroke="midnightblue" points="267.975,-34.7205 259.089,-40.4905 269.634,-41.5212 267.975,-34.7205"/>
</g>
</g>
</svg>
