<?xml version="1.0" encoding="UTF-8" standalone="no"?>
<!DOCTYPE svg PUBLIC "-//W3C//DTD SVG 1.1//EN"
 "http://www.w3.org/Graphics/SVG/1.1/DTD/svg11.dtd">
<!-- Generated by graphviz version 2.26.3 (20100126.1600)
 -->
<!-- Title: Urho3D::Material::BeginLoad Pages: 1 -->
<svg width="914pt" height="734pt"
 viewBox="0.00 0.00 914.00 734.40" xmlns="http://www.w3.org/2000/svg" xmlns:xlink="http://www.w3.org/1999/xlink">
<g id="graph1" class="graph" transform="scale(1 1) rotate(0) translate(4 730.397)">
<title>Urho3D::Material::BeginLoad</title>
<!-- Node1 -->
<g id="node1" class="node"><title>Node1</title>
<polygon fill="#bfbfbf" stroke="black" points="0,-346.897 0,-367.897 154,-367.897 154,-346.897 0,-346.897"/>
<text text-anchor="middle" x="77" y="-354.897" font-family="FreeSans" font-size="10.00">Urho3D::Material::BeginLoad</text>
</g>
<!-- Node2 -->
<g id="node3" class="node"><title>Node2</title>
<a xlink:href="class_urho3_d_1_1_resource.html#a6f155c38bc8a5d2965587d75e78b9636" target="_top" xlink:title="Return the asynchronous loading state.">
<polygon fill="none" stroke="black" points="190.5,-470.397 190.5,-504.397 345.5,-504.397 345.5,-470.397 190.5,-470.397"/>
<text text-anchor="start" x="198.5" y="-491.397" font-family="FreeSans" font-size="10.00">Urho3D::Resource::GetAsync</text>
<text text-anchor="middle" x="268" y="-478.397" font-family="FreeSans" font-size="10.00">LoadState</text>
</a>
</g>
<!-- Node1&#45;&gt;Node2 -->
<g id="edge2" class="edge"><title>Node1&#45;&gt;Node2</title>
<path fill="none" stroke="midnightblue" d="M85.8337,-368.119C103.526,-388.945 145.446,-435.122 190,-461.397 192.828,-463.065 195.777,-464.643 198.803,-466.134"/>
<polygon fill="midnightblue" stroke="midnightblue" points="197.516,-469.393 208.068,-470.347 200.414,-463.021 197.516,-469.393"/>
</g>
<!-- Node3 -->
<g id="node5" class="node"><title>Node3</title>
<a xlink:href="class_urho3_d_1_1_x_m_l_element.html#a07b4b8753884e62d7ca8ab40d7b4a912" target="_top" xlink:title="Return child element, or null if missing.">
<polygon fill="none" stroke="black" points="208.5,-257.397 208.5,-291.397 327.5,-291.397 327.5,-257.397 208.5,-257.397"/>
<text text-anchor="start" x="216.5" y="-278.397" font-family="FreeSans" font-size="10.00">Urho3D::XMLElement</text>
<text text-anchor="middle" x="268" y="-265.397" font-family="FreeSans" font-size="10.00">::GetChild</text>
</a>
</g>
<!-- Node1&#45;&gt;Node3 -->
<g id="edge4" class="edge"><title>Node1&#45;&gt;Node3</title>
<path fill="none" stroke="midnightblue" d="M98.9312,-346.886C121.586,-336.127 158.041,-319.09 190,-305.397 197.798,-302.056 206.083,-298.631 214.231,-295.334"/>
<polygon fill="midnightblue" stroke="midnightblue" points="215.719,-298.508 223.695,-291.534 213.111,-292.012 215.719,-298.508"/>
</g>
<!-- Node5 -->
<g id="node9" class="node"><title>Node5</title>
<a xlink:href="class_urho3_d_1_1_resource_cache.html#a0950ea474a10169ba383c15ca1d8ff56" target="_top" xlink:title="Background load a resource. An event will be sent when complete. Return true if successfully stored t...">
<polygon fill="none" stroke="black" points="195,-418.397 195,-452.397 341,-452.397 341,-418.397 195,-418.397"/>
<text text-anchor="start" x="203" y="-439.397" font-family="FreeSans" font-size="10.00">Urho3D::ResourceCache</text>
<text text-anchor="middle" x="268" y="-426.397" font-family="FreeSans" font-size="10.00">::BackgroundLoadResource</text>
</a>
</g>
<!-- Node1&#45;&gt;Node5 -->
<g id="edge8" class="edge"><title>Node1&#45;&gt;Node5</title>
<path fill="none" stroke="midnightblue" d="M98.3583,-368.078C120.857,-379.127 157.466,-396.534 190,-409.397 194.692,-411.252 199.575,-413.09 204.507,-414.881"/>
<polygon fill="midnightblue" stroke="midnightblue" points="203.419,-418.209 214.014,-418.259 205.763,-411.613 203.419,-418.209"/>
</g>
<!-- Node16 -->
<g id="node35" class="node"><title>Node16</title>
<a xlink:href="class_urho3_d_1_1_x_m_l_element.html#a0f9070917f31e8b8ef0755a787b4941a" target="_top" xlink:title="Return attribute, or empty if missing.">
<polygon fill="none" stroke="black" points="208.5,-314.397 208.5,-348.397 327.5,-348.397 327.5,-314.397 208.5,-314.397"/>
<text text-anchor="start" x="216.5" y="-335.397" font-family="FreeSans" font-size="10.00">Urho3D::XMLElement</text>
<text text-anchor="middle" x="268" y="-322.397" font-family="FreeSans" font-size="10.00">::GetAttribute</text>
</a>
</g>
<!-- Node1&#45;&gt;Node16 -->
<g id="edge38" class="edge"><title>Node1&#45;&gt;Node16</title>
<path fill="none" stroke="midnightblue" d="M154.136,-346.897C168.716,-344.912 183.889,-342.847 198.227,-340.895"/>
<polygon fill="midnightblue" stroke="midnightblue" points="199.062,-344.314 208.498,-339.497 198.117,-337.378 199.062,-344.314"/>
</g>
<!-- Node18 -->
<g id="node40" class="node"><title>Node18</title>
<a xlink:href="class_urho3_d_1_1_x_m_l_element.html#a1db521bcb4df83cfb5c0ad5a01023de8" target="_top" xlink:title="Return whether has an attribute.">
<polygon fill="none" stroke="black" points="208.5,-366.397 208.5,-400.397 327.5,-400.397 327.5,-366.397 208.5,-366.397"/>
<text text-anchor="start" x="216.5" y="-387.397" font-family="FreeSans" font-size="10.00">Urho3D::XMLElement</text>
<text text-anchor="middle" x="268" y="-374.397" font-family="FreeSans" font-size="10.00">::HasAttribute</text>
</a>
</g>
<!-- Node1&#45;&gt;Node18 -->
<g id="edge44" class="edge"><title>Node1&#45;&gt;Node18</title>
<path fill="none" stroke="midnightblue" d="M154.136,-367.897C168.716,-369.882 183.889,-371.948 198.227,-373.899"/>
<polygon fill="midnightblue" stroke="midnightblue" points="198.117,-377.416 208.498,-375.297 199.062,-370.48 198.117,-377.416"/>
</g>
<!-- Node19 -->
<g id="node43" class="node"><title>Node19</title>
<a xlink:href="class_urho3_d_1_1_material.html#a2a6e0e7eae446f7c7513090852aeac21" target="_top" xlink:title="Reset to defaults.">
<polygon fill="none" stroke="black" points="198,-120.397 198,-154.397 338,-154.397 338,-120.397 198,-120.397"/>
<text text-anchor="start" x="206" y="-141.397" font-family="FreeSans" font-size="10.00">Urho3D::Material::ResetTo</text>
<text text-anchor="middle" x="268" y="-128.397" font-family="FreeSans" font-size="10.00">Defaults</text>
</a>
</g>
<!-- Node1&#45;&gt;Node19 -->
<g id="edge48" class="edge"><title>Node1&#45;&gt;Node19</title>
<path fill="none" stroke="midnightblue" d="M86.2123,-346.786C115.164,-313.438 204.856,-210.129 246.433,-162.239"/>
<polygon fill="midnightblue" stroke="midnightblue" points="249.231,-164.354 253.144,-154.508 243.945,-159.765 249.231,-164.354"/>
</g>
<!-- Node4 -->
<g id="node7" class="node"><title>Node4</title>
<a xlink:href="class_urho3_d_1_1_string.html#a6b405eba451da6c0f216a8649adf79aa" target="_top" xlink:title="Return the C string.">
<polygon fill="none" stroke="black" points="771.5,-360.897 771.5,-381.897 900.5,-381.897 900.5,-360.897 771.5,-360.897"/>
<text text-anchor="middle" x="836" y="-368.897" font-family="FreeSans" font-size="10.00">Urho3D::String::CString</text>
</a>
</g>
<!-- Node3&#45;&gt;Node4 -->
<g id="edge6" class="edge"><title>Node3&#45;&gt;Node4</title>
<path fill="none" stroke="midnightblue" d="M327.599,-271.077C384.991,-269.006 474.033,-268.76 550,-281.397 643.342,-296.925 748.332,-335.781 801.361,-357.006"/>
<polygon fill="midnightblue" stroke="midnightblue" points="800.366,-360.379 810.949,-360.879 802.988,-353.888 800.366,-360.379"/>
</g>
<!-- Node6 -->
<g id="node11" class="node"><title>Node6</title>
<a xlink:href="class_urho3_d_1_1_resource_cache.html#acaf617b205d693cd493febfc01c330a8" target="_top" xlink:title="Remove unsupported constructs from the resource name to prevent ambiguity, and normalize absolute fil...">
<polygon fill="none" stroke="black" points="398,-561.397 398,-595.397 534,-595.397 534,-561.397 398,-561.397"/>
<text text-anchor="start" x="406" y="-582.397" font-family="FreeSans" font-size="10.00">Urho3D::ResourceCache</text>
<text text-anchor="middle" x="466" y="-569.397" font-family="FreeSans" font-size="10.00">::SanitateResourceName</text>
</a>
</g>
<!-- Node5&#45;&gt;Node6 -->
<g id="edge10" class="edge"><title>Node5&#45;&gt;Node6</title>
<path fill="none" stroke="midnightblue" d="M328.98,-452.416C334.922,-455.041 340.702,-458.023 346,-461.397 365.623,-473.894 365.52,-482.977 382,-499.397 400.769,-518.097 422.581,-538.576 439.274,-553.997"/>
<polygon fill="midnightblue" stroke="midnightblue" points="437.295,-556.932 447.022,-561.13 442.036,-551.782 437.295,-556.932"/>
</g>
<!-- Node10 -->
<g id="node19" class="node"><title>Node10</title>
<a xlink:href="class_urho3_d_1_1_string.html#a69ac7aadaa628fc05fc96abde992fcdc" target="_top" xlink:title="Return whether the string is empty.">
<polygon fill="none" stroke="black" points="773.5,-439.897 773.5,-460.897 898.5,-460.897 898.5,-439.897 773.5,-439.897"/>
<text text-anchor="middle" x="836" y="-447.897" font-family="FreeSans" font-size="10.00">Urho3D::String::Empty</text>
</a>
</g>
<!-- Node5&#45;&gt;Node10 -->
<g id="edge34" class="edge"><title>Node5&#45;&gt;Node10</title>
<path fill="none" stroke="midnightblue" d="M341.216,-437.246C432.318,-439.559 592.647,-443.67 730,-447.397 740.708,-447.688 752.025,-448.001 763.121,-448.312"/>
<polygon fill="midnightblue" stroke="midnightblue" points="763.13,-451.814 773.224,-448.596 763.326,-444.816 763.13,-451.814"/>
</g>
<!-- Node15 -->
<g id="node33" class="node"><title>Node15</title>
<a xlink:href="class_urho3_d_1_1_resource_cache.html#ad0a8e0e3e308b6ccae0cfc1ca4fa9e84" target="_top" xlink:title="Find a resource.">
<polygon fill="none" stroke="black" points="399.5,-456.397 399.5,-490.397 532.5,-490.397 532.5,-456.397 399.5,-456.397"/>
<text text-anchor="start" x="407.5" y="-477.397" font-family="FreeSans" font-size="10.00">Urho3D::ResourceCache</text>
<text text-anchor="middle" x="466" y="-464.397" font-family="FreeSans" font-size="10.00">::FindResource</text>
</a>
</g>
<!-- Node5&#45;&gt;Node15 -->
<g id="edge36" class="edge"><title>Node5&#45;&gt;Node15</title>
<path fill="none" stroke="midnightblue" d="M341.165,-449.439C356.799,-452.439 373.356,-455.617 389.125,-458.643"/>
<polygon fill="midnightblue" stroke="midnightblue" points="388.875,-462.159 399.355,-460.607 390.194,-455.285 388.875,-462.159"/>
</g>
<!-- Node7 -->
<g id="node13" class="node"><title>Node7</title>
<a xlink:href="class_urho3_d_1_1_string.html#ab08b5f1f7cee23f3e14eebcb2f7f8d4e" target="_top" xlink:title="Replace all occurrences of a character.">
<polygon fill="none" stroke="black" points="770.5,-504.897 770.5,-525.897 901.5,-525.897 901.5,-504.897 770.5,-504.897"/>
<text text-anchor="middle" x="836" y="-512.897" font-family="FreeSans" font-size="10.00">Urho3D::String::Replace</text>
</a>
</g>
<!-- Node6&#45;&gt;Node7 -->
<g id="edge12" class="edge"><title>Node6&#45;&gt;Node7</title>
<path fill="none" stroke="midnightblue" d="M534.06,-569.79C587.514,-562.681 663.735,-551.775 730,-539.397 747.203,-536.184 765.855,-532.148 782.647,-528.309"/>
<polygon fill="midnightblue" stroke="midnightblue" points="783.879,-531.616 792.833,-525.952 782.301,-524.796 783.879,-531.616"/>
</g>
<!-- Node8 -->
<g id="node15" class="node"><title>Node8</title>
<a xlink:href="class_urho3_d_1_1_vector.html#a06762e9e70b9851f54a845555f28cd4b" target="_top" xlink:title="Return size of vector.">
<polygon fill="none" stroke="black" points="600,-626.897 600,-647.897 716,-647.897 716,-626.897 600,-626.897"/>
<text text-anchor="middle" x="658" y="-634.897" font-family="FreeSans" font-size="10.00">Urho3D::Vector::Size</text>
</a>
</g>
<!-- Node6&#45;&gt;Node8 -->
<g id="edge14" class="edge"><title>Node6&#45;&gt;Node8</title>
<path fill="none" stroke="midnightblue" d="M516.94,-595.491C538.219,-602.492 563.242,-610.542 586,-617.397 593.424,-619.634 601.306,-621.916 609.027,-624.101"/>
<polygon fill="midnightblue" stroke="midnightblue" points="608.101,-627.476 618.675,-626.805 609.991,-620.736 608.101,-627.476"/>
</g>
<!-- Node9 -->
<g id="node17" class="node"><title>Node9</title>
<a xlink:href="class_urho3_d_1_1_file_system.html#a5d93365af462341ea8029827581854a6" target="_top" xlink:title="Return the program&#39;s directory. If it does not contain the Urho3D default CoreData and Data directori...">
<polygon fill="none" stroke="red" points="602.5,-456.397 602.5,-490.397 713.5,-490.397 713.5,-456.397 602.5,-456.397"/>
<text text-anchor="start" x="610.5" y="-477.397" font-family="FreeSans" font-size="10.00">Urho3D::FileSystem</text>
<text text-anchor="middle" x="658" y="-464.397" font-family="FreeSans" font-size="10.00">::GetProgramDir</text>
</a>
</g>
<!-- Node6&#45;&gt;Node9 -->
<g id="edge16" class="edge"><title>Node6&#45;&gt;Node9</title>
<path fill="none" stroke="midnightblue" d="M488.477,-561.264C511.889,-543.992 550.095,-517.382 586,-499.397 589.509,-497.639 593.167,-495.941 596.892,-494.312"/>
<polygon fill="midnightblue" stroke="midnightblue" points="598.363,-497.491 606.245,-490.411 595.668,-491.03 598.363,-497.491"/>
</g>
<!-- Node11 -->
<g id="node23" class="node"><title>Node11</title>
<a xlink:href="class_urho3_d_1_1_string.html#a6dffd447850e4d687096a79dafe8bdac" target="_top" xlink:title="Return whether starts with a string.">
<polygon fill="none" stroke="red" points="586.5,-586.897 586.5,-607.897 729.5,-607.897 729.5,-586.897 586.5,-586.897"/>
<text text-anchor="middle" x="658" y="-594.897" font-family="FreeSans" font-size="10.00">Urho3D::String::StartsWith</text>
</a>
</g>
<!-- Node6&#45;&gt;Node11 -->
<g id="edge24" class="edge"><title>Node6&#45;&gt;Node11</title>
<path fill="none" stroke="midnightblue" d="M534.233,-585.149C547.85,-586.497 562.283,-587.925 576.299,-589.312"/>
<polygon fill="midnightblue" stroke="midnightblue" points="576.118,-592.811 586.415,-590.313 576.808,-585.845 576.118,-592.811"/>
</g>
<!-- Node12 -->
<g id="node25" class="node"><title>Node12</title>
<a xlink:href="class_urho3_d_1_1_string.html#ade8095f1798d6e1d4ed03d43d9919611" target="_top" xlink:title="Return a substring from position to end.">
<polygon fill="none" stroke="red" points="766,-684.897 766,-705.897 906,-705.897 906,-684.897 766,-684.897"/>
<text text-anchor="middle" x="836" y="-692.897" font-family="FreeSans" font-size="10.00">Urho3D::String::Substring</text>
</a>
</g>
<!-- Node6&#45;&gt;Node12 -->
<g id="edge26" class="edge"><title>Node6&#45;&gt;Node12</title>
<path fill="none" stroke="midnightblue" d="M486.144,-595.656C508.834,-614.093 547.578,-642.648 586,-657.397 640.352,-678.262 705.48,-687.707 755.634,-691.964"/>
<polygon fill="midnightblue" stroke="midnightblue" points="755.532,-695.467 765.778,-692.773 756.088,-688.489 755.532,-695.467"/>
</g>
<!-- Node13 -->
<g id="node27" class="node"><title>Node13</title>
<a xlink:href="class_urho3_d_1_1_string.html#a11572e3c07f60de65ac5d0c1ca5b6ba3" target="_top" xlink:title="Return length.">
<polygon fill="none" stroke="black" points="594.5,-508.897 594.5,-529.897 721.5,-529.897 721.5,-508.897 594.5,-508.897"/>
<text text-anchor="middle" x="658" y="-516.897" font-family="FreeSans" font-size="10.00">Urho3D::String::Length</text>
</a>
</g>
<!-- Node6&#45;&gt;Node13 -->
<g id="edge28" class="edge"><title>Node6&#45;&gt;Node13</title>
<path fill="none" stroke="midnightblue" d="M521.534,-561.332C550.929,-552.299 586.518,-541.363 613.981,-532.924"/>
<polygon fill="midnightblue" stroke="midnightblue" points="615.175,-536.219 623.705,-529.936 613.118,-529.527 615.175,-536.219"/>
</g>
<!-- Node14 -->
<g id="node29" class="node"><title>Node14</title>
<a xlink:href="class_urho3_d_1_1_string.html#ad6a5f266f8164b6b1022f93a4e92eb92" target="_top" xlink:title="Return string with whitespace trimmed from the beginning and the end.">
<polygon fill="none" stroke="black" points="590.5,-704.897 590.5,-725.897 725.5,-725.897 725.5,-704.897 590.5,-704.897"/>
<text text-anchor="middle" x="658" y="-712.897" font-family="FreeSans" font-size="10.00">Urho3D::String::Trimmed</text>
</a>
</g>
<!-- Node6&#45;&gt;Node14 -->
<g id="edge30" class="edge"><title>Node6&#45;&gt;Node14</title>
<path fill="none" stroke="midnightblue" d="M480.182,-595.551C501.052,-619.795 542.315,-664.059 586,-690.397 593.009,-694.623 600.834,-698.266 608.672,-701.362"/>
<polygon fill="midnightblue" stroke="midnightblue" points="607.591,-704.693 618.184,-704.868 610.012,-698.125 607.591,-704.693"/>
</g>
<!-- Node9&#45;&gt;Node4 -->
<g id="edge20" class="edge"><title>Node9&#45;&gt;Node4</title>
<path fill="none" stroke="midnightblue" d="M687.793,-456.325C721.482,-437.02 775.885,-405.845 808.568,-387.117"/>
<polygon fill="midnightblue" stroke="midnightblue" points="810.634,-389.966 817.571,-381.958 807.154,-383.893 810.634,-389.966"/>
</g>
<!-- Node9&#45;&gt;Node7 -->
<g id="edge22" class="edge"><title>Node9&#45;&gt;Node7</title>
<path fill="none" stroke="midnightblue" d="M713.832,-486.571C735.396,-491.659 759.992,-497.463 781.434,-502.522"/>
<polygon fill="midnightblue" stroke="midnightblue" points="780.824,-505.974 791.36,-504.864 782.431,-499.161 780.824,-505.974"/>
</g>
<!-- Node9&#45;&gt;Node10 -->
<g id="edge18" class="edge"><title>Node9&#45;&gt;Node10</title>
<path fill="none" stroke="midnightblue" d="M713.832,-466.183C729.452,-464.165 746.663,-461.941 763.113,-459.815"/>
<polygon fill="midnightblue" stroke="midnightblue" points="763.768,-463.26 773.237,-458.507 762.871,-456.317 763.768,-463.26"/>
</g>
<!-- Node14&#45;&gt;Node12 -->
<g id="edge32" class="edge"><title>Node14&#45;&gt;Node12</title>
<path fill="none" stroke="midnightblue" d="M725.548,-707.807C735.432,-706.697 745.692,-705.544 755.798,-704.409"/>
<polygon fill="midnightblue" stroke="midnightblue" points="756.288,-707.876 765.834,-703.281 755.506,-700.919 756.288,-707.876"/>
</g>
<!-- Node16&#45;&gt;Node4 -->
<g id="edge42" class="edge"><title>Node16&#45;&gt;Node4</title>
<path fill="none" stroke="midnightblue" d="M327.712,-335.602C432.085,-342.952 647.419,-358.117 761.42,-366.145"/>
<polygon fill="midnightblue" stroke="midnightblue" points="761.239,-369.641 771.46,-366.852 761.73,-362.658 761.239,-369.641"/>
</g>
<!-- Node17 -->
<g id="node37" class="node"><title>Node17</title>
<a xlink:href="class_urho3_d_1_1_x_m_l_element.html#ac4d343320eace4e61d92e2ad30b80bc1" target="_top" xlink:title="Return attribute as C string, or null if missing.">
<polygon fill="none" stroke="black" points="406.5,-290.397 406.5,-324.397 525.5,-324.397 525.5,-290.397 406.5,-290.397"/>
<text text-anchor="start" x="414.5" y="-311.397" font-family="FreeSans" font-size="10.00">Urho3D::XMLElement</text>
<text text-anchor="middle" x="466" y="-298.397" font-family="FreeSans" font-size="10.00">::GetAttributeCString</text>
</a>
</g>
<!-- Node16&#45;&gt;Node17 -->
<g id="edge40" class="edge"><title>Node16&#45;&gt;Node17</title>
<path fill="none" stroke="midnightblue" d="M327.675,-324.164C349.3,-321.543 373.914,-318.559 396.324,-315.843"/>
<polygon fill="midnightblue" stroke="midnightblue" points="396.941,-319.294 406.447,-314.616 396.099,-312.344 396.941,-319.294"/>
</g>
<!-- Node18&#45;&gt;Node4 -->
<g id="edge46" class="edge"><title>Node18&#45;&gt;Node4</title>
<path fill="none" stroke="midnightblue" d="M327.712,-382.136C432.085,-379.931 647.419,-375.381 761.42,-372.973"/>
<polygon fill="midnightblue" stroke="midnightblue" points="761.536,-376.471 771.46,-372.761 761.388,-369.473 761.536,-376.471"/>
</g>
<!-- Node20 -->
<g id="node45" class="node"><title>Node20</title>
<a xlink:href="class_urho3_d_1_1_thread.html#a591d469de804a63cbcca350b84f96670" target="_top" xlink:title="Return whether is executing in the main thread.">
<polygon fill="none" stroke="red" points="385.5,-172.897 385.5,-193.897 546.5,-193.897 546.5,-172.897 385.5,-172.897"/>
<text text-anchor="middle" x="466" y="-180.897" font-family="FreeSans" font-size="10.00">Urho3D::Thread::IsMainThread</text>
</a>
</g>
<!-- Node19&#45;&gt;Node20 -->
<g id="edge50" class="edge"><title>Node19&#45;&gt;Node20</title>
<path fill="none" stroke="midnightblue" d="M338.086,-153.68C362.022,-159.241 388.43,-165.376 411.005,-170.62"/>
<polygon fill="midnightblue" stroke="midnightblue" points="410.222,-174.032 420.755,-172.886 411.806,-167.213 410.222,-174.032"/>
</g>
<!-- Node21 -->
<g id="node47" class="node"><title>Node21</title>
<a xlink:href="class_urho3_d_1_1_material.html#a59dc96684e9d317ad4913880dd22bd9f" target="_top" xlink:title="Set number of techniques.">
<polygon fill="none" stroke="black" points="394.5,-120.397 394.5,-154.397 537.5,-154.397 537.5,-120.397 394.5,-120.397"/>
<text text-anchor="start" x="402.5" y="-141.397" font-family="FreeSans" font-size="10.00">Urho3D::Material::SetNum</text>
<text text-anchor="middle" x="466" y="-128.397" font-family="FreeSans" font-size="10.00">Techniques</text>
</a>
</g>
<!-- Node19&#45;&gt;Node21 -->
<g id="edge52" class="edge"><title>Node19&#45;&gt;Node21</title>
<path fill="none" stroke="midnightblue" d="M338.086,-137.397C352.91,-137.397 368.681,-137.397 383.904,-137.397"/>
<polygon fill="midnightblue" stroke="midnightblue" points="384.336,-140.897 394.336,-137.397 384.336,-133.897 384.336,-140.897"/>
</g>
<!-- Node22 -->
<g id="node49" class="node"><title>Node22</title>
<a xlink:href="class_urho3_d_1_1_material.html#a5e79bcf19379d52c5057c8a97fdbb288" target="_top" xlink:title="Recalculate the memory used by the material.">
<polygon fill="none" stroke="red" points="588.5,-75.3971 588.5,-109.397 727.5,-109.397 727.5,-75.3971 588.5,-75.3971"/>
<text text-anchor="start" x="596.5" y="-96.3971" font-family="FreeSans" font-size="10.00">Urho3D::Material::Refresh</text>
<text text-anchor="middle" x="658" y="-83.3971" font-family="FreeSans" font-size="10.00">MemoryUse</text>
</a>
</g>
<!-- Node19&#45;&gt;Node22 -->
<g id="edge66" class="edge"><title>Node19&#45;&gt;Node22</title>
<path fill="none" stroke="midnightblue" d="M334.583,-120.385C350.062,-116.94 366.536,-113.679 382,-111.397 447.755,-101.696 523.072,-96.9306 578.398,-94.6001"/>
<polygon fill="midnightblue" stroke="midnightblue" points="578.638,-98.0933 588.489,-94.1926 578.356,-91.099 578.638,-98.0933"/>
</g>
<!-- Node23 -->
<g id="node51" class="node"><title>Node23</title>
<a xlink:href="class_urho3_d_1_1_material.html#a1d1c26ca3f9c016b1db2e2f105a2fa04" target="_top" xlink:title="Set technique.">
<polygon fill="none" stroke="red" points="382.5,-212.897 382.5,-233.897 549.5,-233.897 549.5,-212.897 382.5,-212.897"/>
<text text-anchor="middle" x="466" y="-220.897" font-family="FreeSans" font-size="10.00">Urho3D::Material::SetTechnique</text>
</a>
</g>
<!-- Node19&#45;&gt;Node23 -->
<g id="edge56" class="edge"><title>Node19&#45;&gt;Node23</title>
<path fill="none" stroke="midnightblue" d="M292.728,-154.561C315.125,-169.398 349.497,-190.442 382,-203.397 388.269,-205.896 394.93,-208.134 401.652,-210.126"/>
<polygon fill="midnightblue" stroke="midnightblue" points="400.934,-213.559 411.506,-212.871 402.812,-206.816 400.934,-213.559"/>
</g>
<!-- Node24 -->
<g id="node53" class="node"><title>Node24</title>
<a xlink:href="class_urho3_d_1_1_material.html#a27f2b7dd5a1ab57e0be7f9a30be657ed" target="_top" xlink:title="Set shader parameter.">
<polygon fill="none" stroke="red" points="388.5,-30.3971 388.5,-64.3971 543.5,-64.3971 543.5,-30.3971 388.5,-30.3971"/>
<text text-anchor="start" x="396.5" y="-51.3971" font-family="FreeSans" font-size="10.00">Urho3D::Material::SetShader</text>
<text text-anchor="middle" x="466" y="-38.3971" font-family="FreeSans" font-size="10.00">Parameter</text>
</a>
</g>
<!-- Node19&#45;&gt;Node24 -->
<g id="edge58" class="edge"><title>Node19&#45;&gt;Node24</title>
<path fill="none" stroke="midnightblue" d="M298.462,-120.318C321.14,-107.928 353.048,-91.1724 382,-78.3971 390.06,-74.8407 398.668,-71.3396 407.186,-68.0438"/>
<polygon fill="midnightblue" stroke="midnightblue" points="408.626,-71.2408 416.731,-64.4178 406.14,-64.6971 408.626,-71.2408"/>
</g>
<!-- Node25 -->
<g id="node55" class="node"><title>Node25</title>
<a xlink:href="class_urho3_d_1_1_material.html#a9c262eda9301a091165f9c1c26df060a" target="_top" xlink:title="Recalculate shader parameter hash.">
<polygon fill="none" stroke="red" points="588.5,-4.39712 588.5,-38.3971 727.5,-38.3971 727.5,-4.39712 588.5,-4.39712"/>
<text text-anchor="start" x="596.5" y="-25.3971" font-family="FreeSans" font-size="10.00">Urho3D::Material::Refresh</text>
<text text-anchor="middle" x="658" y="-12.3971" font-family="FreeSans" font-size="10.00">ShaderParameterHash</text>
</a>
</g>
<!-- Node19&#45;&gt;Node25 -->
<g id="edge64" class="edge"><title>Node19&#45;&gt;Node25</title>
<path fill="none" stroke="midnightblue" d="M278.326,-120.24C295.744,-93.1807 333.827,-41.597 382,-21.3971 444.217,4.69134 521.482,2.08323 578.424,-5.54739"/>
<polygon fill="midnightblue" stroke="midnightblue" points="578.061,-9.03079 588.453,-6.97104 579.045,-2.10027 578.061,-9.03079"/>
</g>
<!-- Node21&#45;&gt;Node22 -->
<g id="edge54" class="edge"><title>Node21&#45;&gt;Node22</title>
<path fill="none" stroke="midnightblue" d="M537.767,-120.577C550.923,-117.493 564.729,-114.258 578.105,-111.123"/>
<polygon fill="midnightblue" stroke="midnightblue" points="579.295,-114.439 588.232,-108.749 577.697,-107.623 579.295,-114.439"/>
</g>
<!-- Node24&#45;&gt;Node22 -->
<g id="edge62" class="edge"><title>Node24&#45;&gt;Node22</title>
<path fill="none" stroke="midnightblue" d="M538.587,-64.4097C551.619,-67.464 565.264,-70.6621 578.479,-73.7595"/>
<polygon fill="midnightblue" stroke="midnightblue" points="577.949,-77.23 588.484,-76.1044 579.547,-70.4147 577.949,-77.23"/>
</g>
<!-- Node24&#45;&gt;Node25 -->
<g id="edge60" class="edge"><title>Node24&#45;&gt;Node25</title>
<path fill="none" stroke="midnightblue" d="M543.54,-36.8969C554.971,-35.349 566.764,-33.752 578.239,-32.1981"/>
<polygon fill="midnightblue" stroke="midnightblue" points="578.783,-35.6564 588.223,-30.8461 577.844,-28.7197 578.783,-35.6564"/>
</g>
</g>
</svg>
