<?xml version="1.0" encoding="UTF-8" standalone="no"?>
<!DOCTYPE svg PUBLIC "-//W3C//DTD SVG 1.1//EN"
 "http://www.w3.org/Graphics/SVG/1.1/DTD/svg11.dtd">
<!-- Generated by graphviz version 2.26.3 (20100126.1600)
 -->
<!-- Title: Urho3D::Spline::GetPoint Pages: 1 -->
<!--zoomable 284 -->
<svg id="main" version="1.1" xmlns="http://www.w3.org/2000/svg" xmlns:xlink="http://www.w3.org/1999/xlink" xml:space="preserve" onload="init(evt)">
        <defs>
                <circle id="rim" cx="0" cy="0" r="7"/>
                <circle id="rim2" cx="0" cy="0" r="3.5"/>
                <g id="zoomPlus">
                        <use xlink:href="#rim" fill="#404040">
                                <set attributeName="fill" to="#808080" begin="zoomplus.mouseover" end="zoomplus.mouseout"/>
                        </use>
                        <path d="M-4,0h8M0,-4v8" fill="none" stroke="white" stroke-width="1.5" pointer-events="none"/>
                </g>
                <g id="zoomMin">
                        <use xlink:href="#rim" fill="#404040">
                                <set attributeName="fill" to="#808080" begin="zoomminus.mouseover" end="zoomminus.mouseout"/>
                        </use>
                        <path d="M-4,0h8" fill="none" stroke="white" stroke-width="1.5" pointer-events="none"/>
                </g>
                <g id="dirArrow">
                        <path fill="none" stroke="white" stroke-width="1.5" d="M0,-3.0v7 M-2.5,-0.5L0,-3.0L2.5,-0.5"/>
                </g>
               <g id="resetDef">
                       <use xlink:href="#rim2" fill="#404040">
                               <set attributeName="fill" to="#808080" begin="reset.mouseover" end="reset.mouseout"/>
                       </use>
               </g>
        </defs>

<script type="text/javascript">
var viewWidth = 742;
var viewHeight = 284;
var sectionId = 'dynsection-3';
</script>
<script xlink:href="svgpan.js"/>
<svg id="graph" class="graph">
<g id="viewport">
<title>Urho3D::Spline::GetPoint</title>
<!-- Node1 -->
<g id="node1" class="node"><title>Node1</title>
<polygon fill="#bfbfbf" stroke="black" points="0,-117.5 0,-138.5 136,-138.5 136,-117.5 0,-117.5"/>
<text text-anchor="middle" x="68" y="-125.5" font-family="FreeSans" font-size="10.00">Urho3D::Spline::GetPoint</text>
</g>
<!-- Node2 -->
<g id="node3" class="node"><title>Node2</title>
<a xlink:href="class_urho3_d_1_1_vector.html#a06762e9e70b9851f54a845555f28cd4b" target="_top" xlink:title="Return size of vector.">
<polygon fill="none" stroke="black" points="616,-127.5 616,-148.5 732,-148.5 732,-127.5 616,-127.5"/>
<text text-anchor="middle" x="674" y="-135.5" font-family="FreeSans" font-size="10.00">Urho3D::Vector::Size</text>
</a>
</g>
<!-- Node1&#45;&gt;Node2 -->
<g id="edge2" class="edge"><title>Node1&#45;&gt;Node2</title>
<path fill="none" stroke="midnightblue" d="M79.8159,-138.588C98.1477,-154.398 135.179,-183.923 172,-199 339.796,-267.707 411.378,-310.507 578,-239 616.663,-222.408 647.1,-181.746 662.644,-157.376"/>
<polygon fill="midnightblue" stroke="midnightblue" points="665.769,-158.977 668.032,-148.626 659.808,-155.307 665.769,-158.977"/>
</g>
<!-- Node3 -->
<g id="node5" class="node"><title>Node3</title>
<a xlink:href="class_urho3_d_1_1_spline.html#a8efd8706f6896bf30783ede383993fcb" target="_top" xlink:title="Perform Bezier interpolation on the spline.">
<polygon fill="none" stroke="black" points="172.5,-117.5 172.5,-138.5 357.5,-138.5 357.5,-117.5 172.5,-117.5"/>
<text text-anchor="middle" x="265" y="-125.5" font-family="FreeSans" font-size="10.00">Urho3D::Spline::BezierInterpolation</text>
</a>
</g>
<!-- Node1&#45;&gt;Node3 -->
<g id="edge4" class="edge"><title>Node1&#45;&gt;Node3</title>
<path fill="none" stroke="midnightblue" d="M136.072,-128C144.557,-128 153.375,-128 162.24,-128"/>
<polygon fill="midnightblue" stroke="midnightblue" points="162.252,-131.5 172.252,-128 162.252,-124.5 162.252,-131.5"/>
</g>
<!-- Node4 -->
<g id="node8" class="node"><title>Node4</title>
<a xlink:href="class_urho3_d_1_1_spline.html#aeecb9658c0ef3f5c6b31adfacefc8e97" target="_top" xlink:title="Perform linear interpolation on the spline.">
<polygon fill="none" stroke="black" points="394,-78.5 394,-99.5 578,-99.5 578,-78.5 394,-78.5"/>
<text text-anchor="middle" x="486" y="-86.5" font-family="FreeSans" font-size="10.00">Urho3D::Spline::LinearInterpolation</text>
</a>
</g>
<!-- Node1&#45;&gt;Node4 -->
<g id="edge20" class="edge"><title>Node1&#45;&gt;Node4</title>
<path fill="none" stroke="midnightblue" d="M115.685,-117.486C133.302,-113.957 153.484,-110.331 172,-108 242.448,-99.1326 322.328,-94.3715 383.89,-91.8329"/>
<polygon fill="midnightblue" stroke="midnightblue" points="384.144,-95.3257 393.996,-91.4293 383.865,-88.3312 384.144,-95.3257"/>
</g>
<!-- Node5 -->
<g id="node11" class="node"><title>Node5</title>
<a xlink:href="class_urho3_d_1_1_vector.html#a0d42dd722113dc655b16878841abe0f6" target="_top" xlink:title="Return last element.">
<polygon fill="none" stroke="black" points="614.5,-68.5 614.5,-89.5 733.5,-89.5 733.5,-68.5 614.5,-68.5"/>
<text text-anchor="middle" x="674" y="-76.5" font-family="FreeSans" font-size="10.00">Urho3D::Vector::Back</text>
</a>
</g>
<!-- Node1&#45;&gt;Node5 -->
<g id="edge24" class="edge"><title>Node1&#45;&gt;Node5</title>
<path fill="none" stroke="midnightblue" d="M90.9902,-117.327C111.706,-108.211 143.236,-95.5625 172,-89 348.137,-48.8146 397.58,-59.6285 578,-69 586.572,-69.4452 595.557,-70.1127 604.446,-70.8955"/>
<polygon fill="midnightblue" stroke="midnightblue" points="604.134,-74.3815 614.415,-71.8228 604.782,-67.4116 604.134,-74.3815"/>
</g>
<!-- Node6 -->
<g id="node13" class="node"><title>Node6</title>
<a xlink:href="class_urho3_d_1_1_vector.html#a083b39861b996df82f811a9a4ebff109" target="_top" xlink:title="Add an element at the end.">
<polygon fill="none" stroke="black" points="426.5,-156.5 426.5,-177.5 545.5,-177.5 545.5,-156.5 426.5,-156.5"/>
<text text-anchor="middle" x="486" y="-164.5" font-family="FreeSans" font-size="10.00">Urho3D::Vector::Push</text>
</a>
</g>
<!-- Node1&#45;&gt;Node6 -->
<g id="edge26" class="edge"><title>Node1&#45;&gt;Node6</title>
<path fill="none" stroke="midnightblue" d="M115.685,-138.514C133.302,-142.043 153.484,-145.669 172,-148 255.537,-158.515 352.336,-163.256 416.128,-165.364"/>
<polygon fill="midnightblue" stroke="midnightblue" points="416.361,-168.873 426.467,-165.692 416.583,-161.877 416.361,-168.873"/>
</g>
<!-- Node7 -->
<g id="node15" class="node"><title>Node7</title>
<a xlink:href="class_urho3_d_1_1_spline.html#aac4ea0e063969ee3df31b160b8912de1" target="_top" xlink:title="Perform Spline interpolation on the spline.">
<polygon fill="none" stroke="black" points="410,-196 410,-230 562,-230 562,-196 410,-196"/>
<text text-anchor="start" x="418" y="-217" font-family="FreeSans" font-size="10.00">Urho3D::Spline::CatmullRom</text>
<text text-anchor="middle" x="486" y="-204" font-family="FreeSans" font-size="10.00">Interpolation</text>
</a>
</g>
<!-- Node1&#45;&gt;Node7 -->
<g id="edge16" class="edge"><title>Node1&#45;&gt;Node7</title>
<path fill="none" stroke="midnightblue" d="M90.2062,-138.534C110.919,-147.928 142.908,-161.343 172,-169 247.669,-188.917 336.116,-200.281 399.821,-206.45"/>
<polygon fill="midnightblue" stroke="midnightblue" points="399.542,-209.94 409.827,-207.397 400.201,-202.971 399.542,-209.94"/>
</g>
<!-- Node8 -->
<g id="node19" class="node"><title>Node8</title>
<a xlink:href="class_urho3_d_1_1_vector.html#a54a40caab4128825d6010592c8448317" target="_top" xlink:title="Return first element.">
<polygon fill="none" stroke="black" points="205,-0.5 205,-21.5 325,-21.5 325,-0.5 205,-0.5"/>
<text text-anchor="middle" x="265" y="-8.5" font-family="FreeSans" font-size="10.00">Urho3D::Vector::Front</text>
</a>
</g>
<!-- Node1&#45;&gt;Node8 -->
<g id="edge22" class="edge"><title>Node1&#45;&gt;Node8</title>
<path fill="none" stroke="midnightblue" d="M76.8667,-117.436C93.5156,-98.2869 131.449,-57.8083 172,-36 180.415,-31.4744 189.707,-27.7236 199.066,-24.627"/>
<polygon fill="midnightblue" stroke="midnightblue" points="200.279,-27.9159 208.809,-21.6319 198.222,-21.2249 200.279,-27.9159"/>
</g>
<!-- Node3&#45;&gt;Node2 -->
<g id="edge6" class="edge"><title>Node3&#45;&gt;Node2</title>
<path fill="none" stroke="midnightblue" d="M357.553,-130.263C432.976,-132.107 537.766,-134.669 605.731,-136.331"/>
<polygon fill="midnightblue" stroke="midnightblue" points="605.815,-139.834 615.898,-136.579 605.986,-132.836 605.815,-139.834"/>
</g>
<!-- Node3&#45;&gt;Node4 -->
<g id="edge8" class="edge"><title>Node3&#45;&gt;Node4</title>
<path fill="none" stroke="midnightblue" d="M324.515,-117.497C352.762,-112.513 386.703,-106.523 416.162,-101.324"/>
<polygon fill="midnightblue" stroke="midnightblue" points="417.139,-104.706 426.379,-99.5213 415.923,-97.8125 417.139,-104.706"/>
</g>
<!-- Node3&#45;&gt;Node6 -->
<g id="edge14" class="edge"><title>Node3&#45;&gt;Node6</title>
<path fill="none" stroke="midnightblue" d="M324.515,-138.503C352.762,-143.487 386.703,-149.477 416.162,-154.676"/>
<polygon fill="midnightblue" stroke="midnightblue" points="415.923,-158.187 426.379,-156.479 417.139,-151.294 415.923,-158.187"/>
</g>
<!-- Node4&#45;&gt;Node2 -->
<g id="edge10" class="edge"><title>Node4&#45;&gt;Node2</title>
<path fill="none" stroke="midnightblue" d="M526.331,-99.5117C554.732,-106.914 592.965,-116.879 623.411,-124.815"/>
<polygon fill="midnightblue" stroke="midnightblue" points="622.853,-128.286 633.412,-127.421 624.618,-121.512 622.853,-128.286"/>
</g>
<!-- Node4&#45;&gt;Node5 -->
<g id="edge12" class="edge"><title>Node4&#45;&gt;Node5</title>
<path fill="none" stroke="midnightblue" d="M578.072,-84.1025C586.869,-83.6346 595.689,-83.1655 604.222,-82.7116"/>
<polygon fill="midnightblue" stroke="midnightblue" points="604.669,-86.1929 614.469,-82.1666 604.297,-79.2028 604.669,-86.1929"/>
</g>
<!-- Node7&#45;&gt;Node2 -->
<g id="edge18" class="edge"><title>Node7&#45;&gt;Node2</title>
<path fill="none" stroke="midnightblue" d="M552.354,-195.94C561.068,-193.207 569.81,-190.211 578,-187 601.994,-177.592 627.957,-164.124 646.826,-153.688"/>
<polygon fill="midnightblue" stroke="midnightblue" points="648.727,-156.635 655.739,-148.692 645.304,-150.528 648.727,-156.635"/>
</g>
</g>
</svg>
        <g id="navigator" transform="translate(0 0)" fill="#404254">
                <rect fill="#f2f5e9" fill-opacity="0.5" stroke="#606060" stroke-width=".5" x="0" y="0" width="60" height="60"/>
                <use id="zoomplus" xlink:href="#zoomPlus" x="17" y="9" onmousedown="handleZoom(evt,'in')"/>
                <use id="zoomminus" xlink:href="#zoomMin" x="42" y="9" onmousedown="handleZoom(evt,'out')"/>
                <use id="reset" xlink:href="#resetDef" x="30" y="36" onmousedown="handleReset()"/>
                <g id="arrowUp" xlink:href="#dirArrow" transform="translate(30 24)" onmousedown="handlePan(0,-1)">
                  <use xlink:href="#rim" fill="#404040">
                        <set attributeName="fill" to="#808080" begin="arrowUp.mouseover" end="arrowUp.mouseout"/>
                  </use>
                  <path fill="none" stroke="white" stroke-width="1.5" d="M0,-3.0v7 M-2.5,-0.5L0,-3.0L2.5,-0.5"/>
                </g>
                <g id="arrowRight" xlink:href="#dirArrow" transform="rotate(90) translate(36 -43)" onmousedown="handlePan(1,0)">
                  <use xlink:href="#rim" fill="#404040">
                        <set attributeName="fill" to="#808080" begin="arrowRight.mouseover" end="arrowRight.mouseout"/>
                  </use>
                  <path fill="none" stroke="white" stroke-width="1.5" d="M0,-3.0v7 M-2.5,-0.5L0,-3.0L2.5,-0.5"/>
                </g>
                <g id="arrowDown" xlink:href="#dirArrow" transform="rotate(180) translate(-30 -48)" onmousedown="handlePan(0,1)">
                  <use xlink:href="#rim" fill="#404040">
                        <set attributeName="fill" to="#808080" begin="arrowDown.mouseover" end="arrowDown.mouseout"/>
                  </use>
                  <path fill="none" stroke="white" stroke-width="1.5" d="M0,-3.0v7 M-2.5,-0.5L0,-3.0L2.5,-0.5"/>
                </g>
                <g id="arrowLeft" xlink:href="#dirArrow" transform="rotate(270) translate(-36 17)" onmousedown="handlePan(-1,0)">
                  <use xlink:href="#rim" fill="#404040">
                        <set attributeName="fill" to="#808080" begin="arrowLeft.mouseover" end="arrowLeft.mouseout"/>
                  </use>
                  <path fill="none" stroke="white" stroke-width="1.5" d="M0,-3.0v7 M-2.5,-0.5L0,-3.0L2.5,-0.5"/>
                </g>
        </g>
        <svg viewBox="0 0 15 15" width="100%" height="30px" preserveAspectRatio="xMaxYMin meet">
         <g id="arrow_out" transform="scale(0.3 0.3)">
          <a xlink:href="class_urho3_d_1_1_spline_a797a4db283284031153a6dd1b6a9ded9_cgraph_org.svg" target="_base">
           <rect id="button" ry="5" rx="5" y="6" x="6" height="38" width="38"
                fill="#f2f5e9" fill-opacity="0.5" stroke="#606060" stroke-width="1.0"/>
           <path id="arrow"
             d="M 11.500037,31.436501 C 11.940474,20.09759 22.043105,11.32322 32.158766,21.979434 L 37.068811,17.246167 C 37.068811,17.246167 37.088388,32 37.088388,32 L 22.160133,31.978069 C 22.160133,31.978069 26.997745,27.140456 26.997745,27.140456 C 18.528582,18.264221 13.291696,25.230495 11.500037,31.436501 z"
             style="fill:#404040;"/>
          </a>
         </g>
        </svg>
</svg>
