<?xml version="1.0" encoding="UTF-8" standalone="no"?>
<!DOCTYPE svg PUBLIC "-//W3C//DTD SVG 1.1//EN"
 "http://www.w3.org/Graphics/SVG/1.1/DTD/svg11.dtd">
<!-- Generated by graphviz version 2.26.3 (20100126.1600)
 -->
<!-- Title: Urho3D::Script Pages: 1 -->
<svg width="1328pt" height="909pt"
 viewBox="0.00 0.00 1328.00 909.00" xmlns="http://www.w3.org/2000/svg" xmlns:xlink="http://www.w3.org/1999/xlink">
<g id="graph1" class="graph" transform="scale(1 1) rotate(0) translate(4 905)">
<title>Urho3D::Script</title>
<!-- Node1 -->
<g id="node1" class="node"><title>Node1</title>
<polygon fill="#bfbfbf" stroke="black" points="1232.5,-728.5 1232.5,-749.5 1319.5,-749.5 1319.5,-728.5 1232.5,-728.5"/>
<text text-anchor="middle" x="1276" y="-736.5" font-family="FreeSans" font-size="10.00">Urho3D::Script</text>
</g>
<!-- Node2 -->
<g id="node2" class="node"><title>Node2</title>
<a xlink:href="class_urho3_d_1_1_object.html" target="_top" xlink:title="Base class for objects with type identification, subsystem access and event sending/receiving capabil...">
<polygon fill="none" stroke="black" points="384,-665.5 384,-686.5 474,-686.5 474,-665.5 384,-665.5"/>
<text text-anchor="middle" x="429" y="-673.5" font-family="FreeSans" font-size="10.00">Urho3D::Object</text>
</a>
</g>
<!-- Node2&#45;&gt;Node1 -->
<g id="edge2" class="edge"><title>Node2&#45;&gt;Node1</title>
<path fill="none" stroke="midnightblue" d="M466.34,-689.8C478.228,-693.691 491.532,-697.531 504,-700 541.618,-707.448 551.73,-704.551 590,-707 832.428,-722.516 1123.51,-733.604 1232.23,-737.484"/>
<polygon fill="midnightblue" stroke="midnightblue" points="467.331,-686.44 456.737,-686.549 465.087,-693.071 467.331,-686.44"/>
</g>
<!-- Node8 -->
<g id="node15" class="node"><title>Node8</title>
<a xlink:href="class_urho3_d_1_1_event_handler.html" target="_top" xlink:title="Internal helper class for invoking event handler functions.">
<polygon fill="none" stroke="red" points="631,-640.5 631,-661.5 755,-661.5 755,-640.5 631,-640.5"/>
<text text-anchor="middle" x="693" y="-648.5" font-family="FreeSans" font-size="10.00">Urho3D::EventHandler</text>
</a>
</g>
<!-- Node2&#45;&gt;Node8 -->
<g id="edge18" class="edge"><title>Node2&#45;&gt;Node8</title>
<path fill="none" stroke="#9a32cd" stroke-dasharray="5,2" d="M476.513,-663.098C485.579,-661.064 495.036,-659.229 504,-658 545.964,-652.245 593.628,-650.513 630.591,-650.21"/>
<polygon fill="#9a32cd" stroke="#9a32cd" points="475.423,-659.759 466.492,-665.458 477.028,-666.573 475.423,-659.759"/>
<text text-anchor="middle" x="538" y="-675" font-family="FreeSans" font-size="10.00"> sender_</text>
<text text-anchor="middle" x="538" y="-662" font-family="FreeSans" font-size="10.00">receiver_</text>
</g>
<!-- Node22 -->
<g id="node53" class="node"><title>Node22</title>
<a xlink:href="class_urho3_d_1_1_resource_router.html" target="_top" xlink:title="Optional resource request processor. Can deny requests, re&#45;route resource file names, or perform other processing per request.">
<polygon fill="none" stroke="black" points="626,-767.5 626,-788.5 760,-788.5 760,-767.5 626,-767.5"/>
<text text-anchor="middle" x="693" y="-775.5" font-family="FreeSans" font-size="10.00">Urho3D::ResourceRouter</text>
</a>
</g>
<!-- Node2&#45;&gt;Node22 -->
<g id="edge66" class="edge"><title>Node2&#45;&gt;Node22</title>
<path fill="none" stroke="midnightblue" d="M441.873,-695.265C455.143,-713.416 477.581,-739.745 504,-753 541.423,-771.776 588.011,-778.101 625.568,-779.695"/>
<polygon fill="midnightblue" stroke="midnightblue" points="444.415,-692.795 435.797,-686.631 438.69,-696.824 444.415,-692.795"/>
</g>
<!-- Node3 -->
<g id="node4" class="node"><title>Node3</title>
<a xlink:href="class_urho3_d_1_1_ref_counted.html" target="_top" xlink:title="Base class for intrusively reference&#45;counted objects. These are noncopyable and non&#45;assignable.">
<polygon fill="none" stroke="black" points="204,-480.5 204,-501.5 318,-501.5 318,-480.5 204,-480.5"/>
<text text-anchor="middle" x="261" y="-488.5" font-family="FreeSans" font-size="10.00">Urho3D::RefCounted</text>
</a>
</g>
<!-- Node3&#45;&gt;Node2 -->
<g id="edge4" class="edge"><title>Node3&#45;&gt;Node2</title>
<path fill="none" stroke="midnightblue" d="M277.861,-509.567C312.679,-547.908 391.576,-634.789 419.215,-665.224"/>
<polygon fill="midnightblue" stroke="midnightblue" points="280.072,-506.796 270.759,-501.746 274.89,-511.502 280.072,-506.796"/>
</g>
<!-- Node5 -->
<g id="node8" class="node"><title>Node5</title>
<a xlink:href="class_urho3_d_1_1_context.html" target="_top" xlink:title="Urho3D execution context. Provides access to subsystems, object factories and attributes, and event receivers.">
<polygon fill="none" stroke="red" points="1001.5,-388.5 1001.5,-409.5 1098.5,-409.5 1098.5,-388.5 1001.5,-388.5"/>
<text text-anchor="middle" x="1050" y="-396.5" font-family="FreeSans" font-size="10.00">Urho3D::Context</text>
</a>
</g>
<!-- Node3&#45;&gt;Node5 -->
<g id="edge10" class="edge"><title>Node3&#45;&gt;Node5</title>
<path fill="none" stroke="midnightblue" d="M328.108,-479.29C394.47,-468.02 498.998,-451.097 590,-440 610.171,-437.54 886.927,-413.259 1001.19,-403.265"/>
<polygon fill="midnightblue" stroke="midnightblue" points="327.466,-475.849 318.197,-480.98 328.643,-482.75 327.466,-475.849"/>
</g>
<!-- Node4 -->
<g id="node6" class="node"><title>Node4</title>
<a xlink:href="struct_urho3_d_1_1_ref_count.html" target="_top" xlink:title="Reference count structure.">
<polygon fill="none" stroke="black" points="0,-480.5 0,-501.5 102,-501.5 102,-480.5 0,-480.5"/>
<text text-anchor="middle" x="51" y="-488.5" font-family="FreeSans" font-size="10.00">Urho3D::RefCount</text>
</a>
</g>
<!-- Node4&#45;&gt;Node3 -->
<g id="edge6" class="edge"><title>Node4&#45;&gt;Node3</title>
<path fill="none" stroke="#9a32cd" stroke-dasharray="5,2" d="M112.464,-491C141.297,-491 175.451,-491 203.735,-491"/>
<polygon fill="#9a32cd" stroke="#9a32cd" points="112.103,-487.5 102.103,-491 112.103,-494.5 112.103,-487.5"/>
<text text-anchor="middle" x="145" y="-495" font-family="FreeSans" font-size="10.00"> refCount_</text>
</g>
<!-- Node17 -->
<g id="node40" class="node"><title>Node17</title>
<a xlink:href="class_urho3_d_1_1_weak_ptr.html" target="_top" xlink:title="Urho3D::WeakPtr\&lt; Urho3D\l::Scene \&gt;">
<polygon fill="none" stroke="black" points="977,-819 977,-853 1123,-853 1123,-819 977,-819"/>
<text text-anchor="start" x="985" y="-840" font-family="FreeSans" font-size="10.00">Urho3D::WeakPtr&lt; Urho3D</text>
<text text-anchor="middle" x="1050" y="-827" font-family="FreeSans" font-size="10.00">::Scene &gt;</text>
</a>
</g>
<!-- Node4&#45;&gt;Node17 -->
<g id="edge54" class="edge"><title>Node4&#45;&gt;Node17</title>
<path fill="none" stroke="#9a32cd" stroke-dasharray="5,2" d="M54.0584,-511.967C65.8616,-584.009 115.297,-817 261,-817 261,-817 261,-817 693,-817 791.376,-817 904.785,-824.283 976.902,-829.831"/>
<polygon fill="#9a32cd" stroke="#9a32cd" points="57.4792,-511.187 52.4783,-501.847 50.563,-512.267 57.4792,-511.187"/>
<text text-anchor="middle" x="429" y="-821" font-family="FreeSans" font-size="10.00"> refCount_</text>
</g>
<!-- Node24 -->
<g id="node59" class="node"><title>Node24</title>
<a xlink:href="class_urho3_d_1_1_weak_ptr.html" target="_top" xlink:title="Urho3D::WeakPtr\&lt; Urho3D\l::ScriptFile \&gt;">
<polygon fill="none" stroke="black" points="188,-88 188,-122 334,-122 334,-88 188,-88"/>
<text text-anchor="start" x="196" y="-109" font-family="FreeSans" font-size="10.00">Urho3D::WeakPtr&lt; Urho3D</text>
<text text-anchor="middle" x="261" y="-96" font-family="FreeSans" font-size="10.00">::ScriptFile &gt;</text>
</a>
</g>
<!-- Node4&#45;&gt;Node24 -->
<g id="edge76" class="edge"><title>Node4&#45;&gt;Node24</title>
<path fill="none" stroke="#9a32cd" stroke-dasharray="5,2" d="M61.79,-471.167C98.3225,-404.017 216.996,-185.884 251.506,-122.451"/>
<polygon fill="#9a32cd" stroke="#9a32cd" points="58.5403,-469.816 56.8358,-480.273 64.6892,-473.162 58.5403,-469.816"/>
<text text-anchor="middle" x="145" y="-360" font-family="FreeSans" font-size="10.00"> refCount_</text>
</g>
<!-- Node5&#45;&gt;Node2 -->
<g id="edge8" class="edge"><title>Node5&#45;&gt;Node2</title>
<path fill="none" stroke="#9a32cd" stroke-dasharray="5,2" d="M1046.64,-419.873C1038.97,-459.956 1016.12,-547.248 958,-587 890.261,-633.33 670.267,-600.905 590,-618 539.294,-628.799 482.908,-651.825 452.146,-665.391"/>
<polygon fill="#9a32cd" stroke="#9a32cd" points="1050.11,-420.357 1048.42,-409.898 1043.22,-419.128 1050.11,-420.357"/>
<text text-anchor="middle" x="693" y="-622" font-family="FreeSans" font-size="10.00"> context_</text>
</g>
<!-- Node6 -->
<g id="node11" class="node"><title>Node6</title>
<a xlink:href="class_urho3_d_1_1_p_o_d_vector.html" target="_top" xlink:title="Urho3D::PODVector\&lt;\l Urho3D::Object * \&gt;">
<polygon fill="none" stroke="black" points="633.5,-449 633.5,-483 752.5,-483 752.5,-449 633.5,-449"/>
<text text-anchor="start" x="641.5" y="-470" font-family="FreeSans" font-size="10.00">Urho3D::PODVector&lt;</text>
<text text-anchor="middle" x="693" y="-457" font-family="FreeSans" font-size="10.00"> Urho3D::Object * &gt;</text>
</a>
</g>
<!-- Node6&#45;&gt;Node5 -->
<g id="edge12" class="edge"><title>Node6&#45;&gt;Node5</title>
<path fill="none" stroke="#9a32cd" stroke-dasharray="5,2" d="M762.868,-462.723C816.816,-459.022 892.982,-451.237 958,-435 982.628,-428.85 1009.53,-417.779 1027.84,-409.532"/>
<polygon fill="#9a32cd" stroke="#9a32cd" points="762.472,-459.241 752.723,-463.389 762.931,-466.226 762.472,-459.241"/>
<text text-anchor="middle" x="886" y="-463" font-family="FreeSans" font-size="10.00"> eventSenders_</text>
</g>
<!-- Node7 -->
<g id="node13" class="node"><title>Node7</title>
<a xlink:href="class_urho3_d_1_1_vector_base.html" target="_top" xlink:title="Vector base class.">
<polygon fill="none" stroke="black" points="372,-507.5 372,-528.5 486,-528.5 486,-507.5 372,-507.5"/>
<text text-anchor="middle" x="429" y="-515.5" font-family="FreeSans" font-size="10.00">Urho3D::VectorBase</text>
</a>
</g>
<!-- Node7&#45;&gt;Node6 -->
<g id="edge14" class="edge"><title>Node7&#45;&gt;Node6</title>
<path fill="none" stroke="midnightblue" d="M492.437,-505.505C535.194,-497.083 591.236,-486.044 633.208,-477.777"/>
<polygon fill="midnightblue" stroke="midnightblue" points="491.559,-502.11 482.424,-507.477 492.912,-508.978 491.559,-502.11"/>
</g>
<!-- Node13 -->
<g id="node28" class="node"><title>Node13</title>
<a xlink:href="class_urho3_d_1_1_p_o_d_vector.html" target="_top" xlink:title="Urho3D::PODVector\&lt;\l Urho3D::HashMap * \&gt;">
<polygon fill="none" stroke="black" points="629.5,-501 629.5,-535 756.5,-535 756.5,-501 629.5,-501"/>
<text text-anchor="start" x="637.5" y="-522" font-family="FreeSans" font-size="10.00">Urho3D::PODVector&lt;</text>
<text text-anchor="middle" x="693" y="-509" font-family="FreeSans" font-size="10.00"> Urho3D::HashMap * &gt;</text>
</a>
</g>
<!-- Node7&#45;&gt;Node13 -->
<g id="edge34" class="edge"><title>Node7&#45;&gt;Node13</title>
<path fill="none" stroke="midnightblue" d="M496.429,-518C537.315,-518 589.168,-518 629.351,-518"/>
<polygon fill="midnightblue" stroke="midnightblue" points="496.284,-514.5 486.284,-518 496.284,-521.5 496.284,-514.5"/>
</g>
<!-- Node20 -->
<g id="node47" class="node"><title>Node20</title>
<a xlink:href="class_urho3_d_1_1_vector.html" target="_top" xlink:title="Urho3D::Vector\&lt; asIScript\lContext * \&gt;">
<polygon fill="none" stroke="black" points="814.5,-549 814.5,-583 957.5,-583 957.5,-549 814.5,-549"/>
<text text-anchor="start" x="822.5" y="-570" font-family="FreeSans" font-size="10.00">Urho3D::Vector&lt; asIScript</text>
<text text-anchor="middle" x="886" y="-557" font-family="FreeSans" font-size="10.00">Context * &gt;</text>
</a>
</g>
<!-- Node7&#45;&gt;Node20 -->
<g id="edge58" class="edge"><title>Node7&#45;&gt;Node20</title>
<path fill="none" stroke="midnightblue" d="M493.694,-530.27C497.177,-530.87 500.63,-531.451 504,-532 542.09,-538.209 551.626,-539.901 590,-544 666.474,-552.169 754.388,-558.29 814.41,-561.975"/>
<polygon fill="midnightblue" stroke="midnightblue" points="494.292,-526.821 483.837,-528.537 493.08,-533.715 494.292,-526.821"/>
</g>
<!-- Node8&#45;&gt;Node5 -->
<g id="edge16" class="edge"><title>Node8&#45;&gt;Node5</title>
<path fill="none" stroke="#9a32cd" stroke-dasharray="5,2" d="M765.169,-644.012C838.329,-636.354 942.872,-623.611 958,-612 962.414,-608.613 1027.77,-452.335 1045.56,-409.666"/>
<polygon fill="#9a32cd" stroke="#9a32cd" points="764.653,-640.547 755.067,-645.058 765.374,-647.51 764.653,-640.547"/>
<text text-anchor="middle" x="886" y="-643" font-family="FreeSans" font-size="10.00"> eventHandler_</text>
</g>
<!-- Node16 -->
<g id="node37" class="node"><title>Node16</title>
<a xlink:href="class_urho3_d_1_1_linked_list.html" target="_top" xlink:title="Urho3D::LinkedList\l\&lt; Urho3D::EventHandler \&gt;">
<polygon fill="none" stroke="black" points="977,-665 977,-699 1123,-699 1123,-665 977,-665"/>
<text text-anchor="start" x="985" y="-686" font-family="FreeSans" font-size="10.00">Urho3D::LinkedList</text>
<text text-anchor="middle" x="1050" y="-673" font-family="FreeSans" font-size="10.00">&lt; Urho3D::EventHandler &gt;</text>
</a>
</g>
<!-- Node8&#45;&gt;Node16 -->
<g id="edge46" class="edge"><title>Node8&#45;&gt;Node16</title>
<path fill="none" stroke="#9a32cd" stroke-dasharray="5,2" d="M765.217,-655.596C818.54,-659.197 892.859,-664.651 958,-671 964.084,-671.593 970.389,-672.252 976.715,-672.945"/>
<polygon fill="#9a32cd" stroke="#9a32cd" points="765.389,-652.099 755.177,-654.923 764.92,-659.084 765.389,-652.099"/>
<text text-anchor="middle" x="886" y="-675" font-family="FreeSans" font-size="10.00"> head_</text>
</g>
<!-- Node9 -->
<g id="node18" class="node"><title>Node9</title>
<a xlink:href="class_urho3_d_1_1_hash_map.html" target="_top" xlink:title="Urho3D::HashMap\&lt; Urho3D\l::StringHash, Urho3D::\lHashSet\&lt; Urho3D::Object * \&gt; \&gt;">
<polygon fill="none" stroke="black" points="606.5,-345.5 606.5,-392.5 779.5,-392.5 779.5,-345.5 606.5,-345.5"/>
<text text-anchor="start" x="614.5" y="-379.5" font-family="FreeSans" font-size="10.00">Urho3D::HashMap&lt; Urho3D</text>
<text text-anchor="start" x="614.5" y="-366.5" font-family="FreeSans" font-size="10.00">::StringHash, Urho3D::</text>
<text text-anchor="middle" x="693" y="-353.5" font-family="FreeSans" font-size="10.00">HashSet&lt; Urho3D::Object * &gt; &gt;</text>
</a>
</g>
<!-- Node9&#45;&gt;Node5 -->
<g id="edge20" class="edge"><title>Node9&#45;&gt;Node5</title>
<path fill="none" stroke="#9a32cd" stroke-dasharray="5,2" d="M790.239,-377.171C858.618,-382.917 947.224,-390.363 1001.28,-394.906"/>
<polygon fill="#9a32cd" stroke="#9a32cd" points="790.134,-373.65 779.876,-376.3 789.547,-380.626 790.134,-373.65"/>
<text text-anchor="middle" x="886" y="-395" font-family="FreeSans" font-size="10.00"> eventReceivers_</text>
</g>
<!-- Node10 -->
<g id="node20" class="node"><title>Node10</title>
<a xlink:href="class_urho3_d_1_1_hash_base.html" target="_top" xlink:title="Hash set/map base class.">
<polygon fill="none" stroke="red" points="375,-181.5 375,-202.5 483,-202.5 483,-181.5 375,-181.5"/>
<text text-anchor="middle" x="429" y="-189.5" font-family="FreeSans" font-size="10.00">Urho3D::HashBase</text>
</a>
</g>
<!-- Node10&#45;&gt;Node9 -->
<g id="edge22" class="edge"><title>Node10&#45;&gt;Node9</title>
<path fill="none" stroke="midnightblue" d="M444.748,-210.41C471.614,-240.73 529.312,-301.262 590,-336 596.03,-339.451 602.468,-342.595 609.071,-345.446"/>
<polygon fill="midnightblue" stroke="midnightblue" points="447.229,-207.93 438.012,-202.706 441.96,-212.538 447.229,-207.93"/>
</g>
<!-- Node11 -->
<g id="node22" class="node"><title>Node11</title>
<a xlink:href="class_urho3_d_1_1_hash_map.html" target="_top" xlink:title="Urho3D::HashMap\&lt; Urho3D\l::Object *, Urho3D::HashMap\l\&lt; Urho3D::StringHash, Urho3D\l::HashSet\&lt; Urho3D::Object * \&gt; \&gt; \&gt;">
<polygon fill="none" stroke="black" points="597.5,-267 597.5,-327 788.5,-327 788.5,-267 597.5,-267"/>
<text text-anchor="start" x="605.5" y="-314" font-family="FreeSans" font-size="10.00">Urho3D::HashMap&lt; Urho3D</text>
<text text-anchor="start" x="605.5" y="-301" font-family="FreeSans" font-size="10.00">::Object *, Urho3D::HashMap</text>
<text text-anchor="start" x="605.5" y="-288" font-family="FreeSans" font-size="10.00">&lt; Urho3D::StringHash, Urho3D</text>
<text text-anchor="middle" x="693" y="-275" font-family="FreeSans" font-size="10.00">::HashSet&lt; Urho3D::Object * &gt; &gt; &gt;</text>
</a>
</g>
<!-- Node10&#45;&gt;Node11 -->
<g id="edge26" class="edge"><title>Node10&#45;&gt;Node11</title>
<path fill="none" stroke="midnightblue" d="M463.8,-206.584C496.335,-220.143 546.32,-240.781 590,-258 597.471,-260.945 605.263,-263.974 613.07,-266.979"/>
<polygon fill="midnightblue" stroke="midnightblue" points="464.866,-203.237 454.29,-202.615 462.17,-209.697 464.866,-203.237"/>
</g>
<!-- Node12 -->
<g id="node25" class="node"><title>Node12</title>
<a xlink:href="class_urho3_d_1_1_hash_map.html" target="_top" xlink:title="Urho3D::HashMap\&lt; Urho3D\l::StringHash, Urho3D::\lSharedPtr\&lt; Urho3D::Object \&gt; \&gt;">
<polygon fill="none" stroke="black" points="607,-201.5 607,-248.5 779,-248.5 779,-201.5 607,-201.5"/>
<text text-anchor="start" x="615" y="-235.5" font-family="FreeSans" font-size="10.00">Urho3D::HashMap&lt; Urho3D</text>
<text text-anchor="start" x="615" y="-222.5" font-family="FreeSans" font-size="10.00">::StringHash, Urho3D::</text>
<text text-anchor="middle" x="693" y="-209.5" font-family="FreeSans" font-size="10.00">SharedPtr&lt; Urho3D::Object &gt; &gt;</text>
</a>
</g>
<!-- Node10&#45;&gt;Node12 -->
<g id="edge30" class="edge"><title>Node10&#45;&gt;Node12</title>
<path fill="none" stroke="midnightblue" d="M493.37,-200.046C527.489,-204.311 569.868,-209.608 606.791,-214.224"/>
<polygon fill="midnightblue" stroke="midnightblue" points="493.418,-196.525 483.061,-198.758 492.55,-203.471 493.418,-196.525"/>
</g>
<!-- Node14 -->
<g id="node31" class="node"><title>Node14</title>
<a xlink:href="class_urho3_d_1_1_hash_map.html" target="_top" xlink:title="Urho3D::HashMap\&lt; Urho3D\l::StringHash, Urho3D::\lSharedPtr\&lt; Urho3D::ObjectFactory \&gt; \&gt;">
<polygon fill="none" stroke="black" points="590,-69.5 590,-116.5 796,-116.5 796,-69.5 590,-69.5"/>
<text text-anchor="start" x="598" y="-103.5" font-family="FreeSans" font-size="10.00">Urho3D::HashMap&lt; Urho3D</text>
<text text-anchor="start" x="598" y="-90.5" font-family="FreeSans" font-size="10.00">::StringHash, Urho3D::</text>
<text text-anchor="middle" x="693" y="-77.5" font-family="FreeSans" font-size="10.00">SharedPtr&lt; Urho3D::ObjectFactory &gt; &gt;</text>
</a>
</g>
<!-- Node10&#45;&gt;Node14 -->
<g id="edge38" class="edge"><title>Node10&#45;&gt;Node14</title>
<path fill="none" stroke="midnightblue" d="M462.474,-177.373C494.831,-163.449 545.374,-142.267 590,-126 598.733,-122.817 607.939,-119.631 617.11,-116.562"/>
<polygon fill="midnightblue" stroke="midnightblue" points="460.835,-174.268 453.043,-181.447 463.611,-180.694 460.835,-174.268"/>
</g>
<!-- Node15 -->
<g id="node34" class="node"><title>Node15</title>
<a xlink:href="class_urho3_d_1_1_hash_map.html" target="_top" xlink:title="Urho3D::HashMap\&lt; Urho3D\l::String, Urho3D::Vector\l\&lt; Urho3D::StringHash \&gt; \&gt;">
<polygon fill="none" stroke="black" points="617,-135.5 617,-182.5 769,-182.5 769,-135.5 617,-135.5"/>
<text text-anchor="start" x="625" y="-169.5" font-family="FreeSans" font-size="10.00">Urho3D::HashMap&lt; Urho3D</text>
<text text-anchor="start" x="625" y="-156.5" font-family="FreeSans" font-size="10.00">::String, Urho3D::Vector</text>
<text text-anchor="middle" x="693" y="-143.5" font-family="FreeSans" font-size="10.00">&lt; Urho3D::StringHash &gt; &gt;</text>
</a>
</g>
<!-- Node10&#45;&gt;Node15 -->
<g id="edge42" class="edge"><title>Node10&#45;&gt;Node15</title>
<path fill="none" stroke="midnightblue" d="M493.31,-183.961C530.629,-179.296 577.845,-173.394 616.994,-168.501"/>
<polygon fill="midnightblue" stroke="midnightblue" points="492.55,-180.529 483.061,-185.242 493.418,-187.475 492.55,-180.529"/>
</g>
<!-- Node23 -->
<g id="node56" class="node"><title>Node23</title>
<a xlink:href="class_urho3_d_1_1_hash_map.html" target="_top" xlink:title="Urho3D::HashMap\&lt; const\l char *, asIObjectType * \&gt;">
<polygon fill="none" stroke="black" points="815,-49 815,-83 957,-83 957,-49 815,-49"/>
<text text-anchor="start" x="823" y="-70" font-family="FreeSans" font-size="10.00">Urho3D::HashMap&lt; const</text>
<text text-anchor="middle" x="886" y="-57" font-family="FreeSans" font-size="10.00"> char *, asIObjectType * &gt;</text>
</a>
</g>
<!-- Node10&#45;&gt;Node23 -->
<g id="edge70" class="edge"><title>Node10&#45;&gt;Node23</title>
<path fill="none" stroke="midnightblue" d="M443.754,-173.548C469.552,-142.945 526.224,-82.802 590,-60 663.324,-33.7839 753.529,-40.6984 814.954,-50.7118"/>
<polygon fill="midnightblue" stroke="midnightblue" points="440.987,-171.402 437.316,-181.341 446.384,-175.861 440.987,-171.402"/>
</g>
<!-- Node11&#45;&gt;Node5 -->
<g id="edge24" class="edge"><title>Node11&#45;&gt;Node5</title>
<path fill="none" stroke="#9a32cd" stroke-dasharray="5,2" d="M798.544,-319.99C847.463,-331.485 906.124,-346.466 958,-363 981.205,-370.396 1006.97,-380.663 1025.32,-388.341"/>
<polygon fill="#9a32cd" stroke="#9a32cd" points="799.112,-316.529 788.578,-317.665 797.521,-323.346 799.112,-316.529"/>
<text text-anchor="middle" x="886" y="-367" font-family="FreeSans" font-size="10.00"> specificEventReceivers_</text>
</g>
<!-- Node12&#45;&gt;Node5 -->
<g id="edge28" class="edge"><title>Node12&#45;&gt;Node5</title>
<path fill="none" stroke="#9a32cd" stroke-dasharray="5,2" d="M789.139,-242.89C841.633,-255.494 906.28,-275.804 958,-307 994.75,-329.166 1027.63,-369.107 1042.14,-388.228"/>
<polygon fill="#9a32cd" stroke="#9a32cd" points="789.682,-239.423 779.147,-240.549 788.085,-246.238 789.682,-239.423"/>
<text text-anchor="middle" x="886" y="-311" font-family="FreeSans" font-size="10.00"> subsystems_</text>
</g>
<!-- Node13&#45;&gt;Node5 -->
<g id="edge32" class="edge"><title>Node13&#45;&gt;Node5</title>
<path fill="none" stroke="#9a32cd" stroke-dasharray="5,2" d="M766.769,-516.807C821.689,-513.473 897.331,-503.606 958,-476 993.262,-459.955 1025.85,-426.578 1041.04,-409.524"/>
<polygon fill="#9a32cd" stroke="#9a32cd" points="766.556,-513.313 756.763,-517.356 766.94,-520.303 766.556,-513.313"/>
<text text-anchor="middle" x="886" y="-517" font-family="FreeSans" font-size="10.00"> eventDataMaps_</text>
</g>
<!-- Node14&#45;&gt;Node5 -->
<g id="edge36" class="edge"><title>Node14&#45;&gt;Node5</title>
<path fill="none" stroke="#9a32cd" stroke-dasharray="5,2" d="M806.327,-94.7092C858.759,-101.32 918.114,-117.974 958,-157 980.346,-178.864 965.856,-195.428 976,-225 997.728,-288.344 1031.82,-361.225 1044.77,-388.22"/>
<polygon fill="#9a32cd" stroke="#9a32cd" points="806.618,-91.2196 796.283,-93.5528 805.817,-98.1737 806.618,-91.2196"/>
<text text-anchor="middle" x="886" y="-161" font-family="FreeSans" font-size="10.00"> factories_</text>
</g>
<!-- Node15&#45;&gt;Node5 -->
<g id="edge40" class="edge"><title>Node15&#45;&gt;Node5</title>
<path fill="none" stroke="#9a32cd" stroke-dasharray="5,2" d="M779.08,-166.345C835.055,-174.938 906.871,-193.578 958,-234 1011.52,-276.309 1038.8,-358.792 1047.15,-388.235"/>
<polygon fill="#9a32cd" stroke="#9a32cd" points="779.577,-162.881 769.177,-164.903 778.568,-169.808 779.577,-162.881"/>
<text text-anchor="middle" x="886" y="-238" font-family="FreeSans" font-size="10.00"> objectCategories_</text>
</g>
<!-- Node16&#45;&gt;Node2 -->
<g id="edge44" class="edge"><title>Node16&#45;&gt;Node2</title>
<path fill="none" stroke="#9a32cd" stroke-dasharray="5,2" d="M966.664,-683.892C963.741,-683.933 960.846,-683.969 958,-684 756.234,-686.193 705.493,-694.716 504,-684 494.324,-683.485 483.975,-682.6 474.15,-681.601"/>
<polygon fill="#9a32cd" stroke="#9a32cd" points="966.741,-687.391 976.686,-683.737 966.633,-680.392 966.741,-687.391"/>
<text text-anchor="middle" x="693" y="-694" font-family="FreeSans" font-size="10.00"> eventHandlers_</text>
</g>
<!-- Node17&#45;&gt;Node1 -->
<g id="edge48" class="edge"><title>Node17&#45;&gt;Node1</title>
<path fill="none" stroke="#9a32cd" stroke-dasharray="5,2" d="M1130.46,-816.092C1157.73,-807.895 1187.88,-797.186 1214,-784 1232.76,-774.531 1251.98,-759.609 1263.95,-749.572"/>
<polygon fill="#9a32cd" stroke="#9a32cd" points="1129.17,-812.824 1120.56,-818.998 1131.14,-819.54 1129.17,-812.824"/>
<text text-anchor="middle" x="1178" y="-815" font-family="FreeSans" font-size="10.00"> defaultScene_</text>
</g>
<!-- Node18 -->
<g id="node42" class="node"><title>Node18</title>
<a xlink:href="class_urho3_d_1_1_scene.html" target="_top" xlink:title="Root scene node, represents the whole scene.">
<polygon fill="none" stroke="red" points="648.5,-845.5 648.5,-866.5 737.5,-866.5 737.5,-845.5 648.5,-845.5"/>
<text text-anchor="middle" x="693" y="-853.5" font-family="FreeSans" font-size="10.00">Urho3D::Scene</text>
</a>
</g>
<!-- Node18&#45;&gt;Node17 -->
<g id="edge50" class="edge"><title>Node18&#45;&gt;Node17</title>
<path fill="none" stroke="#9a32cd" stroke-dasharray="5,2" d="M748.11,-852.913C809.491,-849.474 908.991,-843.9 976.853,-840.098"/>
<polygon fill="#9a32cd" stroke="#9a32cd" points="747.641,-849.433 737.853,-853.487 748.033,-856.422 747.641,-849.433"/>
<text text-anchor="middle" x="886" y="-852" font-family="FreeSans" font-size="10.00"> ptr_</text>
</g>
<!-- Node19 -->
<g id="node44" class="node"><title>Node19</title>
<a xlink:href="class_urho3_d_1_1_mutex.html" target="_top" xlink:title="Operating system mutual exclusion primitive.">
<polygon fill="none" stroke="black" points="384.5,-852.5 384.5,-873.5 473.5,-873.5 473.5,-852.5 384.5,-852.5"/>
<text text-anchor="middle" x="429" y="-860.5" font-family="FreeSans" font-size="10.00">Urho3D::Mutex</text>
</a>
</g>
<!-- Node19&#45;&gt;Node1 -->
<g id="edge60" class="edge"><title>Node19&#45;&gt;Node1</title>
<path fill="none" stroke="#9a32cd" stroke-dasharray="5,2" d="M483.564,-874.396C490.418,-875.47 497.354,-876.385 504,-877 534.094,-879.785 541.778,-877.067 572,-877 817.423,-876.452 883.563,-911.222 1124,-862 1165.89,-853.424 1180.27,-854.276 1214,-828 1242.08,-806.129 1262.49,-768.042 1271.25,-749.603"/>
<polygon fill="#9a32cd" stroke="#9a32cd" points="484.067,-870.931 473.625,-872.726 482.907,-877.835 484.067,-870.931"/>
<text text-anchor="middle" x="886" y="-892" font-family="FreeSans" font-size="10.00"> moduleMutex_</text>
</g>
<!-- Node19&#45;&gt;Node18 -->
<g id="edge52" class="edge"><title>Node19&#45;&gt;Node18</title>
<path fill="none" stroke="#9a32cd" stroke-dasharray="5,2" d="M483.847,-861.546C532.624,-860.252 603.059,-858.385 648.438,-857.182"/>
<polygon fill="#9a32cd" stroke="#9a32cd" points="483.688,-858.049 473.784,-861.813 483.873,-865.046 483.688,-858.049"/>
<text text-anchor="middle" x="538" y="-864" font-family="FreeSans" font-size="10.00"> sceneMutex_</text>
</g>
<!-- Node20&#45;&gt;Node1 -->
<g id="edge56" class="edge"><title>Node20&#45;&gt;Node1</title>
<path fill="none" stroke="#9a32cd" stroke-dasharray="5,2" d="M963.784,-585.832C1011.21,-599.217 1072.42,-618.834 1124,-643 1177.98,-668.29 1236.03,-709.281 1262.02,-728.467"/>
<polygon fill="#9a32cd" stroke="#9a32cd" points="964.455,-582.386 953.882,-583.071 962.575,-589.128 964.455,-582.386"/>
<text text-anchor="middle" x="1050" y="-647" font-family="FreeSans" font-size="10.00"> scriptFileContexts_</text>
</g>
<!-- Node21 -->
<g id="node51" class="node"><title>Node21</title>
<a xlink:href="class_urho3_d_1_1_shared_ptr.html" target="_top" xlink:title="Urho3D::SharedPtr\&lt;\l Urho3D::ResourceRouter \&gt;">
<polygon fill="none" stroke="black" points="976,-767 976,-801 1124,-801 1124,-767 976,-767"/>
<text text-anchor="start" x="984" y="-788" font-family="FreeSans" font-size="10.00">Urho3D::SharedPtr&lt;</text>
<text text-anchor="middle" x="1050" y="-775" font-family="FreeSans" font-size="10.00"> Urho3D::ResourceRouter &gt;</text>
</a>
</g>
<!-- Node21&#45;&gt;Node1 -->
<g id="edge62" class="edge"><title>Node21&#45;&gt;Node1</title>
<path fill="none" stroke="#9a32cd" stroke-dasharray="5,2" d="M1134.45,-768.627C1160.04,-763.81 1188.2,-758.349 1214,-753 1219.94,-751.768 1226.19,-750.419 1232.35,-749.06"/>
<polygon fill="#9a32cd" stroke="#9a32cd" points="1133.59,-765.227 1124.4,-770.51 1134.88,-772.108 1133.59,-765.227"/>
<text text-anchor="middle" x="1178" y="-771" font-family="FreeSans" font-size="10.00"> router_</text>
</g>
<!-- Node22&#45;&gt;Node21 -->
<g id="edge64" class="edge"><title>Node22&#45;&gt;Node21</title>
<path fill="none" stroke="#9a32cd" stroke-dasharray="5,2" d="M770.476,-779.302C831.387,-780.326 915.697,-781.743 975.758,-782.752"/>
<polygon fill="#9a32cd" stroke="#9a32cd" points="770.206,-775.797 760.149,-779.129 770.089,-782.796 770.206,-775.797"/>
<text text-anchor="middle" x="886" y="-786" font-family="FreeSans" font-size="10.00"> ptr_</text>
</g>
<!-- Node23&#45;&gt;Node1 -->
<g id="edge68" class="edge"><title>Node23&#45;&gt;Node1</title>
<path fill="none" stroke="#9a32cd" stroke-dasharray="5,2" d="M951.761,-88.3595C953.932,-89.8158 956.021,-91.361 958,-93 1181.85,-278.364 1261.39,-659.874 1274.11,-728.355"/>
<polygon fill="#9a32cd" stroke="#9a32cd" points="953.426,-85.2775 943.042,-83.1737 949.848,-91.2938 953.426,-85.2775"/>
<text text-anchor="middle" x="1050" y="-303" font-family="FreeSans" font-size="10.00"> objectTypes_</text>
</g>
<!-- Node24&#45;&gt;Node1 -->
<g id="edge72" class="edge"><title>Node24&#45;&gt;Node1</title>
<path fill="none" stroke="#9a32cd" stroke-dasharray="5,2" d="M282.657,-80.1996C312.303,-49.1542 368.755,-0 429,-0 429,-0 429,-0 1050,-0 1209.49,-0 1267.67,-637.39 1275.15,-728.268"/>
<polygon fill="#9a32cd" stroke="#9a32cd" points="279.962,-77.957 275.711,-87.6614 285.086,-82.7264 279.962,-77.957"/>
<text text-anchor="middle" x="693" y="-4" font-family="FreeSans" font-size="10.00"> defaultScriptFile_</text>
</g>
<!-- Node25 -->
<g id="node61" class="node"><title>Node25</title>
<a xlink:href="class_urho3_d_1_1_script_file.html" target="_top" xlink:title="Script file resource.">
<polygon fill="none" stroke="red" points="0,-94.5 0,-115.5 102,-115.5 102,-94.5 0,-94.5"/>
<text text-anchor="middle" x="51" y="-102.5" font-family="FreeSans" font-size="10.00">Urho3D::ScriptFile</text>
</a>
</g>
<!-- Node25&#45;&gt;Node24 -->
<g id="edge74" class="edge"><title>Node25&#45;&gt;Node24</title>
<path fill="none" stroke="#9a32cd" stroke-dasharray="5,2" d="M112.332,-105C135.949,-105 163.152,-105 187.78,-105"/>
<polygon fill="#9a32cd" stroke="#9a32cd" points="112.103,-101.5 102.103,-105 112.103,-108.5 112.103,-101.5"/>
<text text-anchor="middle" x="145" y="-109" font-family="FreeSans" font-size="10.00"> ptr_</text>
</g>
</g>
</svg>
