<?xml version="1.0" encoding="UTF-8" standalone="no"?>
<!DOCTYPE svg PUBLIC "-//W3C//DTD SVG 1.1//EN"
 "http://www.w3.org/Graphics/SVG/1.1/DTD/svg11.dtd">
<!-- Generated by graphviz version 2.26.3 (20100126.1600)
 -->
<!-- Title: Urho3D::Graphics Pages: 1 -->
<svg width="708pt" height="1445pt"
 viewBox="0.00 0.00 708.00 1445.20" xmlns="http://www.w3.org/2000/svg" xmlns:xlink="http://www.w3.org/1999/xlink">
<g id="graph1" class="graph" transform="scale(1 1) rotate(0) translate(4 1441.2)">
<title>Urho3D::Graphics</title>
<!-- Node1 -->
<g id="node1" class="node"><title>Node1</title>
<polygon fill="#bfbfbf" stroke="black" points="598.5,-785.947 598.5,-806.947 699.5,-806.947 699.5,-785.947 598.5,-785.947"/>
<text text-anchor="middle" x="649" y="-793.947" font-family="FreeSans" font-size="10.00">Urho3D::Graphics</text>
</g>
<!-- Node2 -->
<g id="node2" class="node"><title>Node2</title>
<a xlink:href="class_urho3_d_1_1_object.html" target="_top" xlink:title="Base class for objects with type identification, subsystem access and event sending/receiving capabil...">
<polygon fill="none" stroke="red" points="28,-1340.95 28,-1361.95 118,-1361.95 118,-1340.95 28,-1340.95"/>
<text text-anchor="middle" x="73" y="-1348.95" font-family="FreeSans" font-size="10.00">Urho3D::Object</text>
</a>
</g>
<!-- Node2&#45;&gt;Node1 -->
<g id="edge2" class="edge"><title>Node2&#45;&gt;Node1</title>
<path fill="none" stroke="midnightblue" d="M104.17,-1366.08C191.703,-1404.77 442.336,-1498.7 580,-1376.45 624.45,-1336.97 645.363,-883.147 648.562,-807.197"/>
<polygon fill="midnightblue" stroke="midnightblue" points="105.584,-1362.88 95.0276,-1361.97 102.717,-1369.26 105.584,-1362.88"/>
</g>
<!-- Node11 -->
<g id="node21" class="node"><title>Node11</title>
<a xlink:href="class_urho3_d_1_1_constant_buffer.html" target="_top" xlink:title="Hardware constant buffer.">
<polygon fill="none" stroke="red" points="285.5,-1340.95 285.5,-1361.95 416.5,-1361.95 416.5,-1340.95 285.5,-1340.95"/>
<text text-anchor="middle" x="351" y="-1348.95" font-family="FreeSans" font-size="10.00">Urho3D::ConstantBuffer</text>
</a>
</g>
<!-- Node2&#45;&gt;Node11 -->
<g id="edge24" class="edge"><title>Node2&#45;&gt;Node11</title>
<path fill="none" stroke="midnightblue" d="M128.499,-1351.45C173.74,-1351.45 237.733,-1351.45 285.485,-1351.45"/>
<polygon fill="midnightblue" stroke="midnightblue" points="128.284,-1347.95 118.284,-1351.45 128.284,-1354.95 128.284,-1347.95"/>
</g>
<!-- Node18 -->
<g id="node39" class="node"><title>Node18</title>
<a xlink:href="class_urho3_d_1_1_vertex_buffer.html" target="_top" xlink:title="Hardware vertex buffer.">
<polygon fill="none" stroke="red" points="291.5,-1300.95 291.5,-1321.95 410.5,-1321.95 410.5,-1300.95 291.5,-1300.95"/>
<text text-anchor="middle" x="351" y="-1308.95" font-family="FreeSans" font-size="10.00">Urho3D::VertexBuffer</text>
</a>
</g>
<!-- Node2&#45;&gt;Node18 -->
<g id="edge46" class="edge"><title>Node2&#45;&gt;Node18</title>
<path fill="none" stroke="midnightblue" d="M128.317,-1343.49C175.467,-1336.7 243.082,-1326.97 291.416,-1320.02"/>
<polygon fill="midnightblue" stroke="midnightblue" points="127.684,-1340.04 118.284,-1344.93 128.681,-1346.97 127.684,-1340.04"/>
</g>
<!-- Node3 -->
<g id="node4" class="node"><title>Node3</title>
<a xlink:href="class_urho3_d_1_1_int_rect.html" target="_top" xlink:title="Two&#45;dimensional bounding rectangle with integer values.">
<polygon fill="none" stroke="black" points="305,-1229.95 305,-1250.95 397,-1250.95 397,-1229.95 305,-1229.95"/>
<text text-anchor="middle" x="351" y="-1237.95" font-family="FreeSans" font-size="10.00">Urho3D::IntRect</text>
</a>
</g>
<!-- Node3&#45;&gt;Node1 -->
<g id="edge4" class="edge"><title>Node3&#45;&gt;Node1</title>
<path fill="none" stroke="#9a32cd" stroke-dasharray="5,2" d="M407.239,-1240.5C466.985,-1239.31 556.075,-1233.55 580,-1210.45 640.146,-1152.36 647.906,-865.696 648.868,-806.97"/>
<polygon fill="#9a32cd" stroke="#9a32cd" points="407.124,-1237 397.182,-1240.66 407.238,-1244 407.124,-1237"/>
<text text-anchor="middle" x="519" y="-1254.45" font-family="FreeSans" font-size="10.00"> viewport_</text>
<text text-anchor="middle" x="519" y="-1241.45" font-family="FreeSans" font-size="10.00">scissorRect_</text>
</g>
<!-- Node3&#45;&gt;Node3 -->
<g id="edge6" class="edge"><title>Node3&#45;&gt;Node3</title>
<path fill="none" stroke="#9a32cd" stroke-dasharray="5,2" d="M323.951,-1260.5C325.725,-1265.61 334.742,-1269.45 351,-1269.45 376.379,-1269.45 384.112,-1260.1 374.198,-1251.15"/>
<polygon fill="#9a32cd" stroke="#9a32cd" points="327.229,-1261.73 327.802,-1251.15 320.757,-1259.07 327.229,-1261.73"/>
<text text-anchor="middle" x="351" y="-1273.45" font-family="FreeSans" font-size="10.00"> ZERO</text>
</g>
<!-- Node4 -->
<g id="node7" class="node"><title>Node4</title>
<a xlink:href="class_urho3_d_1_1_vector.html" target="_top" xlink:title="Urho3D::Vector\&lt; Urho3D\l::ScratchBuffer \&gt;">
<polygon fill="none" stroke="red" points="282,-1177.45 282,-1211.45 420,-1211.45 420,-1177.45 282,-1177.45"/>
<text text-anchor="start" x="290" y="-1198.45" font-family="FreeSans" font-size="10.00">Urho3D::Vector&lt; Urho3D</text>
<text text-anchor="middle" x="351" y="-1185.45" font-family="FreeSans" font-size="10.00">::ScratchBuffer &gt;</text>
</a>
</g>
<!-- Node4&#45;&gt;Node1 -->
<g id="edge8" class="edge"><title>Node4&#45;&gt;Node1</title>
<path fill="none" stroke="#9a32cd" stroke-dasharray="5,2" d="M430.247,-1195.19C487.63,-1193.98 558.704,-1188.3 580,-1168.45 634.778,-1117.39 646.714,-862.203 648.67,-806.992"/>
<polygon fill="#9a32cd" stroke="#9a32cd" points="430.012,-1191.69 420.073,-1195.36 430.13,-1198.69 430.012,-1191.69"/>
<text text-anchor="middle" x="519" y="-1197.45" font-family="FreeSans" font-size="10.00"> scratchBuffers_</text>
</g>
<!-- Node5 -->
<g id="node9" class="node"><title>Node5</title>
<a xlink:href="class_urho3_d_1_1_p_o_d_vector.html" target="_top" xlink:title="Urho3D::PODVector\&lt;\l Urho3D::ConstantBuffer * \&gt;">
<polygon fill="none" stroke="red" points="274,-1125.45 274,-1159.45 428,-1159.45 428,-1125.45 274,-1125.45"/>
<text text-anchor="start" x="282" y="-1146.45" font-family="FreeSans" font-size="10.00">Urho3D::PODVector&lt;</text>
<text text-anchor="middle" x="351" y="-1133.45" font-family="FreeSans" font-size="10.00"> Urho3D::ConstantBuffer * &gt;</text>
</a>
</g>
<!-- Node5&#45;&gt;Node1 -->
<g id="edge10" class="edge"><title>Node5&#45;&gt;Node1</title>
<path fill="none" stroke="#9a32cd" stroke-dasharray="5,2" d="M438.11,-1152.63C485.75,-1153.25 542.522,-1145.13 580,-1110.45 626.086,-1067.8 644.462,-857.56 648.237,-807.269"/>
<polygon fill="#9a32cd" stroke="#9a32cd" points="438.18,-1149.13 428.094,-1152.38 438.001,-1156.13 438.18,-1149.13"/>
<text text-anchor="middle" x="519" y="-1155.45" font-family="FreeSans" font-size="10.00"> dirtyConstantBuffers_</text>
</g>
<!-- Node6 -->
<g id="node11" class="node"><title>Node6</title>
<a xlink:href="class_urho3_d_1_1_image.html" target="_top" xlink:title="Image resource.">
<polygon fill="none" stroke="red" points="306.5,-1085.95 306.5,-1106.95 395.5,-1106.95 395.5,-1085.95 306.5,-1085.95"/>
<text text-anchor="middle" x="351" y="-1093.95" font-family="FreeSans" font-size="10.00">Urho3D::Image</text>
</a>
</g>
<!-- Node6&#45;&gt;Node1 -->
<g id="edge12" class="edge"><title>Node6&#45;&gt;Node1</title>
<path fill="none" stroke="#9a32cd" stroke-dasharray="5,2" d="M406.22,-1096.65C465.631,-1095.7 554.976,-1090.48 580,-1068.45 620.766,-1032.55 642.868,-852.796 647.888,-807.051"/>
<polygon fill="#9a32cd" stroke="#9a32cd" points="405.818,-1093.16 395.863,-1096.78 405.905,-1100.16 405.818,-1093.16"/>
<text text-anchor="middle" x="519" y="-1097.45" font-family="FreeSans" font-size="10.00"> windowIcon_</text>
</g>
<!-- Node7 -->
<g id="node13" class="node"><title>Node7</title>
<a xlink:href="class_urho3_d_1_1_render_surface.html" target="_top" xlink:title="Color or depth&#45;stencil surface that can be rendered into.">
<polygon fill="none" stroke="red" points="286.5,-996.947 286.5,-1017.95 415.5,-1017.95 415.5,-996.947 286.5,-996.947"/>
<text text-anchor="middle" x="351" y="-1004.95" font-family="FreeSans" font-size="10.00">Urho3D::RenderSurface</text>
</a>
</g>
<!-- Node7&#45;&gt;Node1 -->
<g id="edge14" class="edge"><title>Node7&#45;&gt;Node1</title>
<path fill="none" stroke="#9a32cd" stroke-dasharray="5,2" d="M425.908,-1006.2C474.783,-1001.69 537.216,-988.459 580,-952.447 626.899,-912.971 643.067,-835.338 647.539,-807.066"/>
<polygon fill="#9a32cd" stroke="#9a32cd" points="425.378,-1002.73 415.697,-1007.04 425.949,-1009.71 425.378,-1002.73"/>
<text text-anchor="middle" x="519" y="-1018.45" font-family="FreeSans" font-size="10.00"> depthStencil_</text>
<text text-anchor="middle" x="519" y="-1005.45" font-family="FreeSans" font-size="10.00">renderTargets_</text>
</g>
<!-- Node8 -->
<g id="node15" class="node"><title>Node8</title>
<a xlink:href="class_urho3_d_1_1_texture.html" target="_top" xlink:title="Base class for texture resources.">
<polygon fill="none" stroke="red" points="26,-1024.95 26,-1045.95 120,-1045.95 120,-1024.95 26,-1024.95"/>
<text text-anchor="middle" x="73" y="-1032.95" font-family="FreeSans" font-size="10.00">Urho3D::Texture</text>
</a>
</g>
<!-- Node8&#45;&gt;Node1 -->
<g id="edge50" class="edge"><title>Node8&#45;&gt;Node1</title>
<path fill="none" stroke="#9a32cd" stroke-dasharray="5,2" d="M130.333,-1043.32C247.955,-1058.18 511.274,-1084.35 580,-1031.45 617.149,-1002.85 641.493,-849.173 647.531,-807.101"/>
<polygon fill="#9a32cd" stroke="#9a32cd" points="130.455,-1039.81 120.091,-1042.01 129.566,-1046.75 130.455,-1039.81"/>
<text text-anchor="middle" x="351" y="-1066.45" font-family="FreeSans" font-size="10.00"> textures_</text>
</g>
<!-- Node8&#45;&gt;Node7 -->
<g id="edge16" class="edge"><title>Node8&#45;&gt;Node7</title>
<path fill="none" stroke="#9a32cd" stroke-dasharray="5,2" d="M130.139,-1029.69C175.562,-1025.12 239.104,-1018.72 286.378,-1013.96"/>
<polygon fill="#9a32cd" stroke="#9a32cd" points="129.758,-1026.21 120.159,-1030.7 130.459,-1033.18 129.758,-1026.21"/>
<text text-anchor="middle" x="204" y="-1029.45" font-family="FreeSans" font-size="10.00"> parentTexture_</text>
</g>
<!-- Node9 -->
<g id="node17" class="node"><title>Node9</title>
<a xlink:href="class_urho3_d_1_1_hash_map.html" target="_top" xlink:title="Urho3D::HashMap\&lt; unsigned,\l Urho3D::SharedPtr\&lt; Urho3D\l::ConstantBuffer \&gt; \&gt;">
<polygon fill="none" stroke="red" points="270,-930.947 270,-977.947 432,-977.947 432,-930.947 270,-930.947"/>
<text text-anchor="start" x="278" y="-964.947" font-family="FreeSans" font-size="10.00">Urho3D::HashMap&lt; unsigned,</text>
<text text-anchor="start" x="278" y="-951.947" font-family="FreeSans" font-size="10.00"> Urho3D::SharedPtr&lt; Urho3D</text>
<text text-anchor="middle" x="351" y="-938.947" font-family="FreeSans" font-size="10.00">::ConstantBuffer &gt; &gt;</text>
</a>
</g>
<!-- Node9&#45;&gt;Node1 -->
<g id="edge18" class="edge"><title>Node9&#45;&gt;Node1</title>
<path fill="none" stroke="#9a32cd" stroke-dasharray="5,2" d="M442.046,-940.472C486.519,-930.436 539.115,-913.537 580,-885.447 610.617,-864.411 633.795,-825.575 643.711,-806.949"/>
<polygon fill="#9a32cd" stroke="#9a32cd" points="441.132,-937.089 432.104,-942.633 442.619,-943.929 441.132,-937.089"/>
<text text-anchor="middle" x="519" y="-939.447" font-family="FreeSans" font-size="10.00"> constantBuffers_</text>
</g>
<!-- Node10 -->
<g id="node19" class="node"><title>Node10</title>
<a xlink:href="class_urho3_d_1_1_hash_map.html" target="_top" xlink:title="Urho3D::HashMap\&lt; int,\l Urho3D::SharedPtr\&lt; Urho3D\l::Texture2D \&gt; \&gt;">
<polygon fill="none" stroke="red" points="272,-864.947 272,-911.947 430,-911.947 430,-864.947 272,-864.947"/>
<text text-anchor="start" x="280" y="-898.947" font-family="FreeSans" font-size="10.00">Urho3D::HashMap&lt; int,</text>
<text text-anchor="start" x="280" y="-885.947" font-family="FreeSans" font-size="10.00"> Urho3D::SharedPtr&lt; Urho3D</text>
<text text-anchor="middle" x="351" y="-872.947" font-family="FreeSans" font-size="10.00">::Texture2D &gt; &gt;</text>
</a>
</g>
<!-- Node10&#45;&gt;Node1 -->
<g id="edge20" class="edge"><title>Node10&#45;&gt;Node1</title>
<path fill="none" stroke="#9a32cd" stroke-dasharray="5,2" d="M439.963,-874.026C483.119,-865.488 535.189,-852.876 580,-835.447 599.237,-827.965 619.62,-815.861 633.201,-807.12"/>
<polygon fill="#9a32cd" stroke="#9a32cd" points="439.199,-870.609 430.048,-875.947 440.531,-877.481 439.199,-870.609"/>
<text text-anchor="middle" x="519" y="-872.447" font-family="FreeSans" font-size="10.00"> depthTextures_</text>
</g>
<!-- Node11&#45;&gt;Node1 -->
<g id="edge22" class="edge"><title>Node11&#45;&gt;Node1</title>
<path fill="none" stroke="#9a32cd" stroke-dasharray="5,2" d="M426.734,-1362.35C477.058,-1365.04 540.848,-1358.9 580,-1319.45 617.659,-1281.5 644.024,-877.67 648.367,-806.977"/>
<polygon fill="#9a32cd" stroke="#9a32cd" points="426.746,-1358.85 416.538,-1361.68 426.286,-1365.83 426.746,-1358.85"/>
<text text-anchor="middle" x="519" y="-1366.45" font-family="FreeSans" font-size="10.00"> currentConstantBuffers_</text>
</g>
<!-- Node12 -->
<g id="node24" class="node"><title>Node12</title>
<a xlink:href="class_urho3_d_1_1_hash_map.html" target="_top" xlink:title="Urho3D::HashMap\&lt; Urho3D\l::String, TextureUnit \&gt;">
<polygon fill="none" stroke="red" points="275,-812.447 275,-846.447 427,-846.447 427,-812.447 275,-812.447"/>
<text text-anchor="start" x="283" y="-833.447" font-family="FreeSans" font-size="10.00">Urho3D::HashMap&lt; Urho3D</text>
<text text-anchor="middle" x="351" y="-820.447" font-family="FreeSans" font-size="10.00">::String, TextureUnit &gt;</text>
</a>
</g>
<!-- Node12&#45;&gt;Node1 -->
<g id="edge26" class="edge"><title>Node12&#45;&gt;Node1</title>
<path fill="none" stroke="#9a32cd" stroke-dasharray="5,2" d="M437.256,-820.927C480.19,-816.554 532.862,-810.99 580,-805.447 585.879,-804.755 592.035,-803.999 598.148,-803.228"/>
<polygon fill="#9a32cd" stroke="#9a32cd" points="436.722,-817.463 427.126,-821.955 437.428,-824.427 436.722,-817.463"/>
<text text-anchor="middle" x="519" y="-822.447" font-family="FreeSans" font-size="10.00"> textureUnits_</text>
</g>
<!-- Node13 -->
<g id="node26" class="node"><title>Node13</title>
<a xlink:href="class_urho3_d_1_1_hash_map.html" target="_top" xlink:title="Urho3D::HashMap\&lt; Pair\l\&lt; ShaderVariation *,\l ShaderVariation * \&gt;,\l SharedPtr\&lt; ShaderProgram \&gt; \&gt;">
<polygon fill="none" stroke="red" points="262.5,-734.447 262.5,-794.447 439.5,-794.447 439.5,-734.447 262.5,-734.447"/>
<text text-anchor="start" x="270.5" y="-781.447" font-family="FreeSans" font-size="10.00">Urho3D::HashMap&lt; Pair</text>
<text text-anchor="start" x="270.5" y="-768.447" font-family="FreeSans" font-size="10.00">&lt; ShaderVariation *,</text>
<text text-anchor="start" x="270.5" y="-755.447" font-family="FreeSans" font-size="10.00"> ShaderVariation * &gt;,</text>
<text text-anchor="middle" x="351" y="-742.447" font-family="FreeSans" font-size="10.00"> SharedPtr&lt; ShaderProgram &gt; &gt;</text>
</a>
</g>
<!-- Node13&#45;&gt;Node1 -->
<g id="edge28" class="edge"><title>Node13&#45;&gt;Node1</title>
<path fill="none" stroke="#9a32cd" stroke-dasharray="5,2" d="M449.759,-775.052C499.524,-780.396 557.756,-786.649 598.367,-791.01"/>
<polygon fill="#9a32cd" stroke="#9a32cd" points="449.92,-771.549 439.603,-773.961 449.172,-778.509 449.92,-771.549"/>
<text text-anchor="middle" x="519" y="-792.447" font-family="FreeSans" font-size="10.00"> shaderPrograms_</text>
</g>
<!-- Node14 -->
<g id="node28" class="node"><title>Node14</title>
<a xlink:href="class_urho3_d_1_1_vector2.html" target="_top" xlink:title="Two&#45;dimensional vector.">
<polygon fill="none" stroke="black" points="303,-598.947 303,-619.947 399,-619.947 399,-598.947 303,-598.947"/>
<text text-anchor="middle" x="351" y="-606.947" font-family="FreeSans" font-size="10.00">Urho3D::Vector2</text>
</a>
</g>
<!-- Node14&#45;&gt;Node1 -->
<g id="edge30" class="edge"><title>Node14&#45;&gt;Node1</title>
<path fill="none" stroke="#9a32cd" stroke-dasharray="5,2" d="M376.646,-625.54C436.093,-662.844 582.032,-754.423 631.94,-785.741"/>
<polygon fill="#9a32cd" stroke="#9a32cd" points="378.206,-622.387 367.876,-620.036 374.486,-628.316 378.206,-622.387"/>
<text text-anchor="middle" x="519" y="-754.447" font-family="FreeSans" font-size="10.00"> pixelUVOffset</text>
</g>
<!-- Node14&#45;&gt;Node14 -->
<g id="edge32" class="edge"><title>Node14&#45;&gt;Node14</title>
<path fill="none" stroke="#9a32cd" stroke-dasharray="5,2" d="M323.951,-629.502C325.725,-634.611 334.742,-638.447 351,-638.447 376.379,-638.447 384.112,-629.1 374.198,-620.155"/>
<polygon fill="#9a32cd" stroke="#9a32cd" points="327.229,-630.734 327.802,-620.155 320.757,-628.067 327.229,-630.734"/>
<text text-anchor="middle" x="351" y="-707.447" font-family="FreeSans" font-size="10.00"> ONE</text>
<text text-anchor="middle" x="351" y="-694.447" font-family="FreeSans" font-size="10.00">DOWN</text>
<text text-anchor="middle" x="351" y="-681.447" font-family="FreeSans" font-size="10.00">RIGHT</text>
<text text-anchor="middle" x="351" y="-668.447" font-family="FreeSans" font-size="10.00">LEFT</text>
<text text-anchor="middle" x="351" y="-655.447" font-family="FreeSans" font-size="10.00">ZERO</text>
<text text-anchor="middle" x="351" y="-642.447" font-family="FreeSans" font-size="10.00">UP</text>
</g>
<!-- Node15 -->
<g id="node31" class="node"><title>Node15</title>
<a xlink:href="class_urho3_d_1_1_shader_program.html" target="_top" xlink:title="Linked shader program on the GPU.">
<polygon fill="none" stroke="red" points="283.5,-444.947 283.5,-465.947 418.5,-465.947 418.5,-444.947 283.5,-444.947"/>
<text text-anchor="middle" x="351" y="-452.947" font-family="FreeSans" font-size="10.00">Urho3D::ShaderProgram</text>
</a>
</g>
<!-- Node15&#45;&gt;Node1 -->
<g id="edge34" class="edge"><title>Node15&#45;&gt;Node1</title>
<path fill="none" stroke="#9a32cd" stroke-dasharray="5,2" d="M428.871,-452.676C486.298,-452.351 558.089,-456.109 580,-475.447 628.187,-517.974 645.02,-734.648 648.347,-785.674"/>
<polygon fill="#9a32cd" stroke="#9a32cd" points="428.661,-449.178 418.696,-452.777 428.73,-456.178 428.661,-449.178"/>
<text text-anchor="middle" x="519" y="-479.447" font-family="FreeSans" font-size="10.00"> shaderProgram_</text>
</g>
<!-- Node16 -->
<g id="node33" class="node"><title>Node16</title>
<a xlink:href="class_urho3_d_1_1_string.html" target="_top" xlink:title="String class.">
<polygon fill="none" stroke="black" points="29,-466.947 29,-487.947 117,-487.947 117,-466.947 29,-466.947"/>
<text text-anchor="middle" x="73" y="-474.947" font-family="FreeSans" font-size="10.00">Urho3D::String</text>
</a>
</g>
<!-- Node16&#45;&gt;Node1 -->
<g id="edge54" class="edge"><title>Node16&#45;&gt;Node1</title>
<path fill="none" stroke="#9a32cd" stroke-dasharray="5,2" d="M127.73,-482.933C139.682,-484.111 152.265,-485.335 164,-486.447 286.62,-498.064 330.679,-454.706 440,-511.447 560.627,-574.056 628.977,-741.682 645.208,-785.725"/>
<polygon fill="#9a32cd" stroke="#9a32cd" points="127.722,-479.416 117.426,-481.915 127.034,-486.382 127.722,-479.416"/>
<text text-anchor="middle" x="351" y="-580.447" font-family="FreeSans" font-size="10.00"> lastShaderName_</text>
<text text-anchor="middle" x="351" y="-567.447" font-family="FreeSans" font-size="10.00">windowTitle_</text>
<text text-anchor="middle" x="351" y="-554.447" font-family="FreeSans" font-size="10.00">apiName_</text>
<text text-anchor="middle" x="351" y="-541.447" font-family="FreeSans" font-size="10.00">shaderPath_</text>
<text text-anchor="middle" x="351" y="-528.447" font-family="FreeSans" font-size="10.00">orientations_</text>
<text text-anchor="middle" x="351" y="-515.447" font-family="FreeSans" font-size="10.00">shaderExtension_</text>
</g>
<!-- Node16&#45;&gt;Node15 -->
<g id="edge36" class="edge"><title>Node16&#45;&gt;Node15</title>
<path fill="none" stroke="#9a32cd" stroke-dasharray="5,2" d="M127.119,-473.164C171.751,-469.632 235.302,-464.603 283.299,-460.804"/>
<polygon fill="#9a32cd" stroke="#9a32cd" points="126.743,-469.683 117.05,-473.961 127.295,-476.661 126.743,-469.683"/>
<text text-anchor="middle" x="204" y="-473.447" font-family="FreeSans" font-size="10.00"> linkerOutput_</text>
</g>
<!-- Node16&#45;&gt;Node16 -->
<g id="edge38" class="edge"><title>Node16&#45;&gt;Node16</title>
<path fill="none" stroke="#9a32cd" stroke-dasharray="5,2" d="M49.0424,-497.873C50.8906,-502.796 58.8765,-506.447 73,-506.447 95.5977,-506.447 102.483,-497.1 93.6557,-488.155"/>
<polygon fill="#9a32cd" stroke="#9a32cd" points="52.4413,-498.749 52.3443,-488.155 45.8134,-496.497 52.4413,-498.749"/>
<text text-anchor="middle" x="73" y="-510.447" font-family="FreeSans" font-size="10.00"> EMPTY</text>
</g>
<!-- Node24 -->
<g id="node55" class="node"><title>Node24</title>
<a xlink:href="class_urho3_d_1_1_shader_variation.html" target="_top" xlink:title="Vertex or pixel shader on the GPU.">
<polygon fill="none" stroke="red" points="283,-404.947 283,-425.947 419,-425.947 419,-404.947 283,-404.947"/>
<text text-anchor="middle" x="351" y="-412.947" font-family="FreeSans" font-size="10.00">Urho3D::ShaderVariation</text>
</a>
</g>
<!-- Node16&#45;&gt;Node24 -->
<g id="edge68" class="edge"><title>Node16&#45;&gt;Node24</title>
<path fill="none" stroke="#9a32cd" stroke-dasharray="5,2" d="M93.8227,-460.22C111.339,-446.869 137.676,-429.356 164,-421.447 202.108,-409.997 246.564,-408.132 282.567,-409.299"/>
<polygon fill="#9a32cd" stroke="#9a32cd" points="91.214,-457.819 85.5136,-466.749 95.5391,-463.323 91.214,-457.819"/>
<text text-anchor="middle" x="204" y="-451.447" font-family="FreeSans" font-size="10.00"> defines_</text>
<text text-anchor="middle" x="204" y="-438.447" font-family="FreeSans" font-size="10.00">name_</text>
<text text-anchor="middle" x="204" y="-425.447" font-family="FreeSans" font-size="10.00">compilerOutput_</text>
</g>
<!-- Node17 -->
<g id="node36" class="node"><title>Node17</title>
<a xlink:href="class_urho3_d_1_1_vector4.html" target="_top" xlink:title="Four&#45;dimensional vector.">
<polygon fill="none" stroke="black" points="303,-271.947 303,-292.947 399,-292.947 399,-271.947 303,-271.947"/>
<text text-anchor="middle" x="351" y="-279.947" font-family="FreeSans" font-size="10.00">Urho3D::Vector4</text>
</a>
</g>
<!-- Node17&#45;&gt;Node1 -->
<g id="edge40" class="edge"><title>Node17&#45;&gt;Node1</title>
<path fill="none" stroke="#9a32cd" stroke-dasharray="5,2" d="M409.356,-282.075C461.957,-285.094 537.388,-298.37 580,-346.447 640.289,-414.468 647.942,-723.499 648.875,-785.569"/>
<polygon fill="#9a32cd" stroke="#9a32cd" points="409.308,-278.569 399.156,-281.601 408.983,-285.562 409.308,-278.569"/>
<text text-anchor="middle" x="519" y="-350.447" font-family="FreeSans" font-size="10.00"> clipPlane_</text>
</g>
<!-- Node17&#45;&gt;Node17 -->
<g id="edge42" class="edge"><title>Node17&#45;&gt;Node17</title>
<path fill="none" stroke="#9a32cd" stroke-dasharray="5,2" d="M323.951,-302.502C325.725,-307.611 334.742,-311.447 351,-311.447 376.379,-311.447 384.112,-302.1 374.198,-293.155"/>
<polygon fill="#9a32cd" stroke="#9a32cd" points="327.229,-303.734 327.802,-293.155 320.757,-301.067 327.229,-303.734"/>
<text text-anchor="middle" x="351" y="-328.447" font-family="FreeSans" font-size="10.00"> ONE</text>
<text text-anchor="middle" x="351" y="-315.447" font-family="FreeSans" font-size="10.00">ZERO</text>
</g>
<!-- Node18&#45;&gt;Node1 -->
<g id="edge44" class="edge"><title>Node18&#45;&gt;Node1</title>
<path fill="none" stroke="#9a32cd" stroke-dasharray="5,2" d="M420.732,-1306.79C479.871,-1301.33 558.44,-1289.99 580,-1267.45 613.134,-1232.81 642.882,-874.125 648.168,-807.176"/>
<polygon fill="#9a32cd" stroke="#9a32cd" points="420.33,-1303.32 410.678,-1307.68 420.947,-1310.29 420.33,-1303.32"/>
<text text-anchor="middle" x="519" y="-1306.45" font-family="FreeSans" font-size="10.00"> vertexBuffers_</text>
</g>
<!-- Node19 -->
<g id="node42" class="node"><title>Node19</title>
<a xlink:href="class_urho3_d_1_1_weak_ptr.html" target="_top" xlink:title="Urho3D::WeakPtr\&lt; Urho3D\l::Shader \&gt;">
<polygon fill="none" stroke="red" points="0,-346.447 0,-380.447 146,-380.447 146,-346.447 0,-346.447"/>
<text text-anchor="start" x="8" y="-367.447" font-family="FreeSans" font-size="10.00">Urho3D::WeakPtr&lt; Urho3D</text>
<text text-anchor="middle" x="73" y="-354.447" font-family="FreeSans" font-size="10.00">::Shader &gt;</text>
</a>
</g>
<!-- Node19&#45;&gt;Node1 -->
<g id="edge48" class="edge"><title>Node19&#45;&gt;Node1</title>
<path fill="none" stroke="#9a32cd" stroke-dasharray="5,2" d="M156.221,-361.544C158.844,-361.507 161.442,-361.475 164,-361.447 210.31,-360.938 545.814,-356.203 580,-387.447 640.863,-443.07 648.051,-726.456 648.89,-785.614"/>
<polygon fill="#9a32cd" stroke="#9a32cd" points="155.956,-358.047 146.011,-361.701 156.064,-365.046 155.956,-358.047"/>
<text text-anchor="middle" x="351" y="-368.447" font-family="FreeSans" font-size="10.00"> lastShader_</text>
</g>
<!-- Node19&#45;&gt;Node24 -->
<g id="edge66" class="edge"><title>Node19&#45;&gt;Node24</title>
<path fill="none" stroke="#9a32cd" stroke-dasharray="5,2" d="M156.534,-364.941C184.803,-367.228 216.231,-371.763 244,-380.447 252.735,-383.178 253.537,-386.963 262,-390.447 275.802,-396.128 291.322,-400.981 305.49,-404.857"/>
<polygon fill="#9a32cd" stroke="#9a32cd" points="156.502,-361.43 146.275,-364.197 155.995,-368.411 156.502,-361.43"/>
<text text-anchor="middle" x="204" y="-384.447" font-family="FreeSans" font-size="10.00"> owner_</text>
</g>
<!-- Node20 -->
<g id="node45" class="node"><title>Node20</title>
<a xlink:href="class_urho3_d_1_1_p_o_d_vector.html" target="_top" xlink:title="Urho3D::PODVector\&lt;\l Urho3D::GPUObject * \&gt;">
<polygon fill="none" stroke="red" points="284,-219.447 284,-253.447 418,-253.447 418,-219.447 284,-219.447"/>
<text text-anchor="start" x="292" y="-240.447" font-family="FreeSans" font-size="10.00">Urho3D::PODVector&lt;</text>
<text text-anchor="middle" x="351" y="-227.447" font-family="FreeSans" font-size="10.00"> Urho3D::GPUObject * &gt;</text>
</a>
</g>
<!-- Node20&#45;&gt;Node1 -->
<g id="edge52" class="edge"><title>Node20&#45;&gt;Node1</title>
<path fill="none" stroke="#9a32cd" stroke-dasharray="5,2" d="M428.425,-226.966C478.574,-225.434 541.487,-232.959 580,-272.447 617.399,-310.792 643.978,-715.126 648.361,-785.903"/>
<polygon fill="#9a32cd" stroke="#9a32cd" points="428.095,-223.477 418.255,-227.405 428.396,-230.471 428.095,-223.477"/>
<text text-anchor="middle" x="519" y="-276.447" font-family="FreeSans" font-size="10.00"> gpuObjects_</text>
</g>
<!-- Node21 -->
<g id="node48" class="node"><title>Node21</title>
<a xlink:href="class_urho3_d_1_1_shared_ptr.html" target="_top" xlink:title="Urho3D::SharedPtr\&lt;\l Urho3D::ShaderPrecache \&gt;">
<polygon fill="none" stroke="red" points="275,-167.447 275,-201.447 427,-201.447 427,-167.447 275,-167.447"/>
<text text-anchor="start" x="283" y="-188.447" font-family="FreeSans" font-size="10.00">Urho3D::SharedPtr&lt;</text>
<text text-anchor="middle" x="351" y="-175.447" font-family="FreeSans" font-size="10.00"> Urho3D::ShaderPrecache &gt;</text>
</a>
</g>
<!-- Node21&#45;&gt;Node1 -->
<g id="edge56" class="edge"><title>Node21&#45;&gt;Node1</title>
<path fill="none" stroke="#9a32cd" stroke-dasharray="5,2" d="M437.382,-170.819C485.767,-168.377 543.529,-174.978 580,-211.447 622.395,-253.839 645.018,-709.432 648.519,-785.658"/>
<polygon fill="#9a32cd" stroke="#9a32cd" points="436.966,-167.338 427.21,-171.469 437.413,-174.324 436.966,-167.338"/>
<text text-anchor="middle" x="519" y="-215.447" font-family="FreeSans" font-size="10.00"> shaderPrecache_</text>
</g>
<!-- Node22 -->
<g id="node50" class="node"><title>Node22</title>
<a xlink:href="class_urho3_d_1_1_int_vector2.html" target="_top" xlink:title="Two&#45;dimensional vector with integer values.">
<polygon fill="none" stroke="black" points="297,-96.9467 297,-117.947 405,-117.947 405,-96.9467 297,-96.9467"/>
<text text-anchor="middle" x="351" y="-104.947" font-family="FreeSans" font-size="10.00">Urho3D::IntVector2</text>
</a>
</g>
<!-- Node22&#45;&gt;Node1 -->
<g id="edge58" class="edge"><title>Node22&#45;&gt;Node1</title>
<path fill="none" stroke="#9a32cd" stroke-dasharray="5,2" d="M415.182,-101.466C467.424,-100.446 538.997,-108.517 580,-153.447 624.605,-202.324 645.572,-706.478 648.61,-785.931"/>
<polygon fill="#9a32cd" stroke="#9a32cd" points="414.892,-97.9733 405.006,-101.783 415.11,-104.97 414.892,-97.9733"/>
<text text-anchor="middle" x="519" y="-157.447" font-family="FreeSans" font-size="10.00"> position_</text>
</g>
<!-- Node22&#45;&gt;Node22 -->
<g id="edge60" class="edge"><title>Node22&#45;&gt;Node22</title>
<path fill="none" stroke="#9a32cd" stroke-dasharray="5,2" d="M323.951,-127.502C325.725,-132.611 334.742,-136.447 351,-136.447 376.379,-136.447 384.112,-127.1 374.198,-118.155"/>
<polygon fill="#9a32cd" stroke="#9a32cd" points="327.229,-128.734 327.802,-118.155 320.757,-126.067 327.229,-128.734"/>
<text text-anchor="middle" x="351" y="-140.447" font-family="FreeSans" font-size="10.00"> ZERO</text>
</g>
<!-- Node23 -->
<g id="node53" class="node"><title>Node23</title>
<a xlink:href="class_urho3_d_1_1_graphics_impl.html" target="_top" xlink:title="Graphics subsystem implementation. Holds API&#45;specific objects.">
<polygon fill="none" stroke="red" points="290,-56.9467 290,-77.9467 412,-77.9467 412,-56.9467 290,-56.9467"/>
<text text-anchor="middle" x="351" y="-64.9467" font-family="FreeSans" font-size="10.00">Urho3D::GraphicsImpl</text>
</a>
</g>
<!-- Node23&#45;&gt;Node1 -->
<g id="edge62" class="edge"><title>Node23&#45;&gt;Node1</title>
<path fill="none" stroke="#9a32cd" stroke-dasharray="5,2" d="M402.157,-54.9297C454.317,-45.526 533.927,-41.0188 580,-86.4467 632.195,-137.911 646.863,-701.424 648.774,-785.88"/>
<polygon fill="#9a32cd" stroke="#9a32cd" points="401.268,-51.5365 392.109,-56.8624 402.59,-58.4105 401.268,-51.5365"/>
<text text-anchor="middle" x="519" y="-90.4467" font-family="FreeSans" font-size="10.00"> impl_</text>
</g>
<!-- Node24&#45;&gt;Node1 -->
<g id="edge64" class="edge"><title>Node24&#45;&gt;Node1</title>
<path fill="none" stroke="#9a32cd" stroke-dasharray="5,2" d="M393.658,-402.408C444.392,-389.786 528.65,-378.358 580,-422.447 637.109,-471.479 647.224,-729.834 648.754,-785.763"/>
<polygon fill="#9a32cd" stroke="#9a32cd" points="392.771,-399.022 383.978,-404.932 394.537,-405.795 392.771,-399.022"/>
<text text-anchor="middle" x="519" y="-439.447" font-family="FreeSans" font-size="10.00"> pixelShader_</text>
<text text-anchor="middle" x="519" y="-426.447" font-family="FreeSans" font-size="10.00">vertexShader_</text>
</g>
<!-- Node25 -->
<g id="node59" class="node"><title>Node25</title>
<a xlink:href="class_urho3_d_1_1_mutex.html" target="_top" xlink:title="Operating system mutual exclusion primitive.">
<polygon fill="none" stroke="black" points="306.5,-16.9467 306.5,-37.9467 395.5,-37.9467 395.5,-16.9467 306.5,-16.9467"/>
<text text-anchor="middle" x="351" y="-24.9467" font-family="FreeSans" font-size="10.00">Urho3D::Mutex</text>
</a>
</g>
<!-- Node25&#45;&gt;Node1 -->
<g id="edge70" class="edge"><title>Node25&#45;&gt;Node1</title>
<path fill="none" stroke="#9a32cd" stroke-dasharray="5,2" d="M390.952,-14.0967C441.907,0.13553 529.459,14.7576 580,-32.4467 637.789,-86.4211 647.74,-697.816 648.876,-785.899"/>
<polygon fill="#9a32cd" stroke="#9a32cd" points="389.891,-10.7601 381.271,-16.9195 391.851,-17.4803 389.891,-10.7601"/>
<text text-anchor="middle" x="519" y="-36.4467" font-family="FreeSans" font-size="10.00"> gpuObjectMutex_</text>
</g>
</g>
</svg>
