<?xml version="1.0" encoding="UTF-8" standalone="no"?>
<!DOCTYPE svg PUBLIC "-//W3C//DTD SVG 1.1//EN"
 "http://www.w3.org/Graphics/SVG/1.1/DTD/svg11.dtd">
<!-- Generated by graphviz version 2.26.3 (20100126.1600)
 -->
<!-- Title: Urho3D::Spline::BezierInterpolation Pages: 1 -->
<svg width="836pt" height="406pt"
 viewBox="0.00 0.00 836.00 406.00" xmlns="http://www.w3.org/2000/svg" xmlns:xlink="http://www.w3.org/1999/xlink">
<g id="graph1" class="graph" transform="scale(1 1) rotate(0) translate(4 402)">
<title>Urho3D::Spline::BezierInterpolation</title>
<!-- Node1 -->
<g id="node1" class="node"><title>Node1</title>
<polygon fill="#bfbfbf" stroke="black" points="0.5,-318.5 0.5,-339.5 185.5,-339.5 185.5,-318.5 0.5,-318.5"/>
<text text-anchor="middle" x="93" y="-326.5" font-family="FreeSans" font-size="10.00">Urho3D::Spline::BezierInterpolation</text>
</g>
<!-- Node2 -->
<g id="node3" class="node"><title>Node2</title>
<a xlink:href="class_urho3_d_1_1_spline.html#a797a4db283284031153a6dd1b6a9ded9" target="_top" xlink:title="Return the T of the point of the spline at f from 0.f &#45; 1.f.">
<polygon fill="none" stroke="black" points="222,-318.5 222,-339.5 358,-339.5 358,-318.5 222,-318.5"/>
<text text-anchor="middle" x="290" y="-326.5" font-family="FreeSans" font-size="10.00">Urho3D::Spline::GetPoint</text>
</a>
</g>
<!-- Node1&#45;&gt;Node2 -->
<g id="edge2" class="edge"><title>Node1&#45;&gt;Node2</title>
<path fill="none" stroke="midnightblue" d="M196.016,-329C204.772,-329 213.48,-329 221.863,-329"/>
<polygon fill="midnightblue" stroke="midnightblue" points="195.731,-325.5 185.731,-329 195.731,-332.5 195.731,-325.5"/>
</g>
<!-- Node3 -->
<g id="node5" class="node"><title>Node3</title>
<a xlink:href="class_urho3_d_1_1_spline_path.html#a4f238d19b9538149a3eb5ad89c4b8563" target="_top" xlink:title="Draw the Debug Geometry.">
<polygon fill="none" stroke="black" points="394,-364 394,-398 520,-398 520,-364 394,-364"/>
<text text-anchor="start" x="402" y="-385" font-family="FreeSans" font-size="10.00">Urho3D::SplinePath</text>
<text text-anchor="middle" x="457" y="-372" font-family="FreeSans" font-size="10.00">::DrawDebugGeometry</text>
</a>
</g>
<!-- Node2&#45;&gt;Node3 -->
<g id="edge4" class="edge"><title>Node2&#45;&gt;Node3</title>
<path fill="none" stroke="midnightblue" d="M333.415,-342.518C354.429,-349.062 379.883,-356.988 402.217,-363.942"/>
<polygon fill="midnightblue" stroke="midnightblue" points="334.383,-339.154 323.795,-339.523 332.302,-345.838 334.383,-339.154"/>
</g>
<!-- Node4 -->
<g id="node7" class="node"><title>Node4</title>
<a xlink:href="class_urho3_d_1_1_spline_path.html#a30e120d56aaa3b5809ec94807b2f2bfd" target="_top" xlink:title="Get a point on the SplinePath from 0.f to 1.f where 0 is the start and 1 is the end.">
<polygon fill="none" stroke="black" points="402,-312 402,-346 512,-346 512,-312 402,-312"/>
<text text-anchor="start" x="410" y="-333" font-family="FreeSans" font-size="10.00">Urho3D::SplinePath</text>
<text text-anchor="middle" x="457" y="-320" font-family="FreeSans" font-size="10.00">::GetPoint</text>
</a>
</g>
<!-- Node2&#45;&gt;Node4 -->
<g id="edge6" class="edge"><title>Node2&#45;&gt;Node4</title>
<path fill="none" stroke="midnightblue" d="M368.684,-329C379.936,-329 391.305,-329 401.97,-329"/>
<polygon fill="midnightblue" stroke="midnightblue" points="368.407,-325.5 358.407,-329 368.407,-332.5 368.407,-325.5"/>
</g>
<!-- Node6 -->
<g id="node11" class="node"><title>Node6</title>
<a xlink:href="class_urho3_d_1_1_spline_path.html#a36d325ce97cc0e763e2feb1f62c3f606" target="_top" xlink:title="Calculate the length of the SplinePath. Used for movement calculations.">
<polygon fill="none" stroke="black" points="402,-182 402,-216 512,-216 512,-182 402,-182"/>
<text text-anchor="start" x="410" y="-203" font-family="FreeSans" font-size="10.00">Urho3D::SplinePath</text>
<text text-anchor="middle" x="457" y="-190" font-family="FreeSans" font-size="10.00">::CalculateLength</text>
</a>
</g>
<!-- Node2&#45;&gt;Node6 -->
<g id="edge10" class="edge"><title>Node2&#45;&gt;Node6</title>
<path fill="none" stroke="midnightblue" d="M311.928,-311.93C343.933,-287.016 403.101,-240.957 435.094,-216.053"/>
<polygon fill="midnightblue" stroke="midnightblue" points="309.407,-309.457 303.666,-318.362 313.707,-314.981 309.407,-309.457"/>
</g>
<!-- Node5 -->
<g id="node9" class="node"><title>Node5</title>
<a xlink:href="class_urho3_d_1_1_spline_path.html#ae41c6741a56b4f3509acc433c64f93b7" target="_top" xlink:title="Move the controlled Node to the next position along the SplinePath based off the Speed value...">
<polygon fill="none" stroke="black" points="564,-364 564,-398 674,-398 674,-364 564,-364"/>
<text text-anchor="start" x="572" y="-385" font-family="FreeSans" font-size="10.00">Urho3D::SplinePath</text>
<text text-anchor="middle" x="619" y="-372" font-family="FreeSans" font-size="10.00">::Move</text>
</a>
</g>
<!-- Node4&#45;&gt;Node5 -->
<g id="edge8" class="edge"><title>Node4&#45;&gt;Node5</title>
<path fill="none" stroke="midnightblue" d="M519.872,-349.181C535.06,-354.056 551.143,-359.219 565.836,-363.935"/>
<polygon fill="midnightblue" stroke="midnightblue" points="520.636,-345.751 510.045,-346.027 518.497,-352.416 520.636,-345.751"/>
</g>
<!-- Node7 -->
<g id="node13" class="node"><title>Node7</title>
<a xlink:href="class_urho3_d_1_1_spline_path.html#a30c432c329069076cd6c46e833c63f76" target="_top" xlink:title="Apply Attributes to the SplinePath.">
<polygon fill="none" stroke="black" points="564,-312 564,-346 674,-346 674,-312 564,-312"/>
<text text-anchor="start" x="572" y="-333" font-family="FreeSans" font-size="10.00">Urho3D::SplinePath</text>
<text text-anchor="middle" x="619" y="-320" font-family="FreeSans" font-size="10.00">::ApplyAttributes</text>
</a>
</g>
<!-- Node6&#45;&gt;Node7 -->
<g id="edge12" class="edge"><title>Node6&#45;&gt;Node7</title>
<path fill="none" stroke="midnightblue" d="M475.882,-224.21C494.229,-247.269 523.949,-281.039 556,-303 560.783,-306.277 566.043,-309.252 571.422,-311.921"/>
<polygon fill="midnightblue" stroke="midnightblue" points="478.569,-221.965 469.653,-216.241 473.053,-226.275 478.569,-221.965"/>
</g>
<!-- Node8 -->
<g id="node15" class="node"><title>Node8</title>
<a xlink:href="class_urho3_d_1_1_spline_path.html#aeda8d385fe734579f66408158582ada0" target="_top" xlink:title="Add a Node to the SplinePath as a Control Point.">
<polygon fill="none" stroke="black" points="564,-260 564,-294 674,-294 674,-260 564,-260"/>
<text text-anchor="start" x="572" y="-281" font-family="FreeSans" font-size="10.00">Urho3D::SplinePath</text>
<text text-anchor="middle" x="619" y="-268" font-family="FreeSans" font-size="10.00">::AddControlPoint</text>
</a>
</g>
<!-- Node6&#45;&gt;Node8 -->
<g id="edge14" class="edge"><title>Node6&#45;&gt;Node8</title>
<path fill="none" stroke="midnightblue" d="M496.843,-221C514.738,-230.602 536.233,-241.754 556,-251 562.431,-254.008 569.308,-257.034 576.068,-259.905"/>
<polygon fill="midnightblue" stroke="midnightblue" points="498.304,-217.812 487.842,-216.139 494.978,-223.971 498.304,-217.812"/>
</g>
<!-- Node9 -->
<g id="node17" class="node"><title>Node9</title>
<a xlink:href="class_urho3_d_1_1_spline_path.html#a0f115ec8c2245008faf5687aca256a4e" target="_top" xlink:title="Remove a Node Control Point from the SplinePath.">
<polygon fill="none" stroke="black" points="559.5,-208 559.5,-242 678.5,-242 678.5,-208 559.5,-208"/>
<text text-anchor="start" x="567.5" y="-229" font-family="FreeSans" font-size="10.00">Urho3D::SplinePath</text>
<text text-anchor="middle" x="619" y="-216" font-family="FreeSans" font-size="10.00">::RemoveControlPoint</text>
</a>
</g>
<!-- Node6&#45;&gt;Node9 -->
<g id="edge16" class="edge"><title>Node6&#45;&gt;Node9</title>
<path fill="none" stroke="midnightblue" d="M522.389,-209.495C534.57,-211.449 547.24,-213.483 559.241,-215.409"/>
<polygon fill="midnightblue" stroke="midnightblue" points="522.726,-206.004 512.298,-207.875 521.617,-212.916 522.726,-206.004"/>
</g>
<!-- Node10 -->
<g id="node19" class="node"><title>Node10</title>
<a xlink:href="class_urho3_d_1_1_spline_path.html#ae029f501c426c03362faf3f51678eefb" target="_top" xlink:title="Clear the Control Points from the SplinePath.">
<polygon fill="none" stroke="black" points="563.5,-156 563.5,-190 674.5,-190 674.5,-156 563.5,-156"/>
<text text-anchor="start" x="571.5" y="-177" font-family="FreeSans" font-size="10.00">Urho3D::SplinePath</text>
<text text-anchor="middle" x="619" y="-164" font-family="FreeSans" font-size="10.00">::ClearControlPoints</text>
</a>
</g>
<!-- Node6&#45;&gt;Node10 -->
<g id="edge18" class="edge"><title>Node6&#45;&gt;Node10</title>
<path fill="none" stroke="midnightblue" d="M522.522,-188.484C536.08,-186.308 550.238,-184.036 563.401,-181.923"/>
<polygon fill="midnightblue" stroke="midnightblue" points="521.617,-185.084 512.298,-190.125 522.726,-191.996 521.617,-185.084"/>
</g>
<!-- Node11 -->
<g id="node21" class="node"><title>Node11</title>
<a xlink:href="class_urho3_d_1_1_spline_path.html#ae9a6a13c7f1d9f24065cd015265a469f" target="_top" xlink:title="Set the Interpolation Mode.">
<polygon fill="none" stroke="black" points="556.5,-104 556.5,-138 681.5,-138 681.5,-104 556.5,-104"/>
<text text-anchor="start" x="564.5" y="-125" font-family="FreeSans" font-size="10.00">Urho3D::SplinePath</text>
<text text-anchor="middle" x="619" y="-112" font-family="FreeSans" font-size="10.00">::SetInterpolationMode</text>
</a>
</g>
<!-- Node6&#45;&gt;Node11 -->
<g id="edge20" class="edge"><title>Node6&#45;&gt;Node11</title>
<path fill="none" stroke="midnightblue" d="M496.843,-177C514.738,-167.398 536.233,-156.246 556,-147 562.431,-143.992 569.308,-140.966 576.068,-138.095"/>
<polygon fill="midnightblue" stroke="midnightblue" points="494.978,-174.029 487.842,-181.861 498.304,-180.188 494.978,-174.029"/>
</g>
<!-- Node13 -->
<g id="node25" class="node"><title>Node13</title>
<a xlink:href="class_urho3_d_1_1_spline_path.html#a208c4b09d5ea0b05b89b87f365806af4" target="_top" xlink:title="Listener to manage Control Point movement.">
<polygon fill="none" stroke="black" points="564,-52 564,-86 674,-86 674,-52 564,-52"/>
<text text-anchor="start" x="572" y="-73" font-family="FreeSans" font-size="10.00">Urho3D::SplinePath</text>
<text text-anchor="middle" x="619" y="-60" font-family="FreeSans" font-size="10.00">::OnMarkedDirty</text>
</a>
</g>
<!-- Node6&#45;&gt;Node13 -->
<g id="edge24" class="edge"><title>Node6&#45;&gt;Node13</title>
<path fill="none" stroke="midnightblue" d="M475.882,-173.79C494.229,-150.731 523.949,-116.961 556,-95 560.783,-91.7229 566.043,-88.7477 571.422,-86.079"/>
<polygon fill="midnightblue" stroke="midnightblue" points="473.053,-171.725 469.653,-181.759 478.569,-176.035 473.053,-171.725"/>
</g>
<!-- Node14 -->
<g id="node27" class="node"><title>Node14</title>
<a xlink:href="class_urho3_d_1_1_spline_path.html#a8ed509044ec8da0efb529f9b1be25ba2" target="_top" xlink:title="Listener to manage Control Point enabling.">
<polygon fill="none" stroke="black" points="561,-0 561,-34 677,-34 677,-0 561,-0"/>
<text text-anchor="start" x="569" y="-21" font-family="FreeSans" font-size="10.00">Urho3D::SplinePath</text>
<text text-anchor="middle" x="619" y="-8" font-family="FreeSans" font-size="10.00">::OnNodeSetEnabled</text>
</a>
</g>
<!-- Node6&#45;&gt;Node14 -->
<g id="edge26" class="edge"><title>Node6&#45;&gt;Node14</title>
<path fill="none" stroke="midnightblue" d="M467.731,-172.456C482.776,-138.258 513.18,-78.9468 556,-43 559.987,-39.6526 564.465,-36.6878 569.147,-34.073"/>
<polygon fill="midnightblue" stroke="midnightblue" points="464.448,-171.233 463.727,-181.803 470.882,-173.989 464.448,-171.233"/>
</g>
<!-- Node12 -->
<g id="node23" class="node"><title>Node12</title>
<a xlink:href="class_urho3_d_1_1_spline_path.html#a0c940eaebcacf000d99883f747d03b1d" target="_top" xlink:title="Register object factory.">
<polygon fill="none" stroke="black" points="718,-104 718,-138 828,-138 828,-104 718,-104"/>
<text text-anchor="start" x="726" y="-125" font-family="FreeSans" font-size="10.00">Urho3D::SplinePath</text>
<text text-anchor="middle" x="773" y="-112" font-family="FreeSans" font-size="10.00">::RegisterObject</text>
</a>
</g>
<!-- Node11&#45;&gt;Node12 -->
<g id="edge22" class="edge"><title>Node11&#45;&gt;Node12</title>
<path fill="none" stroke="midnightblue" d="M691.843,-121C700.587,-121 709.403,-121 717.837,-121"/>
<polygon fill="midnightblue" stroke="midnightblue" points="691.638,-117.5 681.638,-121 691.638,-124.5 691.638,-117.5"/>
</g>
</g>
</svg>
