<?xml version="1.0" encoding="UTF-8" standalone="no"?>
<!DOCTYPE svg PUBLIC "-//W3C//DTD SVG 1.1//EN"
 "http://www.w3.org/Graphics/SVG/1.1/DTD/svg11.dtd">
<!-- Generated by graphviz version 2.26.3 (20100126.1600)
 -->
<!-- Title: Urho3D::AnimatedSprite2D Pages: 1 -->
<svg width="1714pt" height="801pt"
 viewBox="0.00 0.00 1714.00 801.00" xmlns="http://www.w3.org/2000/svg" xmlns:xlink="http://www.w3.org/1999/xlink">
<g id="graph1" class="graph" transform="scale(1 1) rotate(0) translate(4 797)">
<title>Urho3D::AnimatedSprite2D</title>
<!-- Node1 -->
<g id="node1" class="node"><title>Node1</title>
<polygon fill="#bfbfbf" stroke="black" points="1558,-109.5 1558,-130.5 1706,-130.5 1706,-109.5 1558,-109.5"/>
<text text-anchor="middle" x="1632" y="-117.5" font-family="FreeSans" font-size="10.00">Urho3D::AnimatedSprite2D</text>
</g>
<!-- Node2 -->
<g id="node2" class="node"><title>Node2</title>
<a xlink:href="class_urho3_d_1_1_static_sprite2_d.html" target="_top" xlink:title="Static sprite component.">
<polygon fill="none" stroke="black" points="1104.5,-236.5 1104.5,-257.5 1233.5,-257.5 1233.5,-236.5 1104.5,-236.5"/>
<text text-anchor="middle" x="1169" y="-244.5" font-family="FreeSans" font-size="10.00">Urho3D::StaticSprite2D</text>
</a>
</g>
<!-- Node2&#45;&gt;Node1 -->
<g id="edge2" class="edge"><title>Node2&#45;&gt;Node1</title>
<path fill="none" stroke="midnightblue" d="M1217.2,-233.778C1309.55,-208.448 1509.68,-153.552 1593.67,-130.513"/>
<polygon fill="midnightblue" stroke="midnightblue" points="1216,-230.478 1207.28,-236.499 1217.85,-237.229 1216,-230.478"/>
</g>
<!-- Node3 -->
<g id="node4" class="node"><title>Node3</title>
<a xlink:href="class_urho3_d_1_1_drawable2_d.html" target="_top" xlink:title="Base class for 2D visible components.">
<polygon fill="none" stroke="black" points="838.5,-313.5 838.5,-334.5 955.5,-334.5 955.5,-313.5 838.5,-313.5"/>
<text text-anchor="middle" x="897" y="-321.5" font-family="FreeSans" font-size="10.00">Urho3D::Drawable2D</text>
</a>
</g>
<!-- Node3&#45;&gt;Node2 -->
<g id="edge4" class="edge"><title>Node3&#45;&gt;Node2</title>
<path fill="none" stroke="midnightblue" d="M951.046,-311.005C988.08,-301.849 1038.23,-288.957 1082,-276 1101.08,-270.351 1122.27,-263.304 1138.96,-257.572"/>
<polygon fill="midnightblue" stroke="midnightblue" points="949.839,-307.697 940.964,-313.485 951.511,-314.495 949.839,-307.697"/>
</g>
<!-- Node4 -->
<g id="node6" class="node"><title>Node4</title>
<a xlink:href="class_urho3_d_1_1_drawable.html" target="_top" xlink:title="Base class for visible components.">
<polygon fill="none" stroke="black" points="563,-595.5 563,-616.5 667,-616.5 667,-595.5 563,-595.5"/>
<text text-anchor="middle" x="615" y="-603.5" font-family="FreeSans" font-size="10.00">Urho3D::Drawable</text>
</a>
</g>
<!-- Node4&#45;&gt;Node3 -->
<g id="edge6" class="edge"><title>Node4&#45;&gt;Node3</title>
<path fill="none" stroke="midnightblue" d="M676.472,-595.343C680.77,-592.823 684.7,-589.747 688,-586 725.68,-543.219 669.426,-502.73 706,-459 734.222,-425.255 769.895,-460.076 800,-428 821.689,-404.891 797.475,-383.149 818,-359 827.618,-347.684 841.612,-339.886 855.158,-334.577"/>
<polygon fill="midnightblue" stroke="midnightblue" points="674.722,-592.3 667.214,-599.775 677.745,-598.614 674.722,-592.3"/>
</g>
<!-- Node6 -->
<g id="node10" class="node"><title>Node6</title>
<a xlink:href="class_urho3_d_1_1_zone.html" target="_top" xlink:title="Component that describes global rendering properties.">
<polygon fill="none" stroke="red" points="854.5,-614.5 854.5,-635.5 939.5,-635.5 939.5,-614.5 854.5,-614.5"/>
<text text-anchor="middle" x="897" y="-622.5" font-family="FreeSans" font-size="10.00">Urho3D::Zone</text>
</a>
</g>
<!-- Node4&#45;&gt;Node6 -->
<g id="edge12" class="edge"><title>Node4&#45;&gt;Node6</title>
<path fill="none" stroke="midnightblue" d="M666.451,-618.665C679.288,-621.292 693.079,-623.666 706,-625 756.796,-630.246 815.596,-629.181 854.389,-627.499"/>
<polygon fill="midnightblue" stroke="midnightblue" points="666.906,-615.183 656.395,-616.519 665.444,-622.029 666.906,-615.183"/>
</g>
<!-- Node12 -->
<g id="node24" class="node"><title>Node12</title>
<a xlink:href="class_urho3_d_1_1_light.html" target="_top" xlink:title="Light component.">
<polygon fill="none" stroke="red" points="855.5,-464.5 855.5,-485.5 938.5,-485.5 938.5,-464.5 855.5,-464.5"/>
<text text-anchor="middle" x="897" y="-472.5" font-family="FreeSans" font-size="10.00">Urho3D::Light</text>
</a>
</g>
<!-- Node4&#45;&gt;Node12 -->
<g id="edge28" class="edge"><title>Node4&#45;&gt;Node12</title>
<path fill="none" stroke="midnightblue" d="M677.555,-599.971C714.78,-594.44 762.004,-583.918 800,-564 838.46,-543.839 873.263,-504.579 888.651,-485.676"/>
<polygon fill="midnightblue" stroke="midnightblue" points="676.755,-596.549 667.337,-601.403 677.726,-603.482 676.755,-596.549"/>
</g>
<!-- Node5 -->
<g id="node8" class="node"><title>Node5</title>
<a xlink:href="class_urho3_d_1_1_component.html" target="_top" xlink:title="Base class for components. Components can be created to scene nodes.">
<polygon fill="none" stroke="red" points="263,-445.5 263,-466.5 379,-466.5 379,-445.5 263,-445.5"/>
<text text-anchor="middle" x="321" y="-453.5" font-family="FreeSans" font-size="10.00">Urho3D::Component</text>
</a>
</g>
<!-- Node5&#45;&gt;Node4 -->
<g id="edge8" class="edge"><title>Node5&#45;&gt;Node4</title>
<path fill="none" stroke="midnightblue" d="M389.359,-450.577C433.568,-450.977 489.165,-459.448 524,-494 553.581,-523.341 513.652,-555.467 542,-586 547.633,-592.067 554.914,-596.359 562.692,-599.382"/>
<polygon fill="midnightblue" stroke="midnightblue" points="389.235,-447.077 379.25,-450.622 389.266,-454.077 389.235,-447.077"/>
</g>
<!-- Node6&#45;&gt;Node4 -->
<g id="edge10" class="edge"><title>Node6&#45;&gt;Node4</title>
<path fill="none" stroke="#9a32cd" stroke-dasharray="5,2" d="M843.988,-616.913C829.736,-615.007 814.307,-613.188 800,-612 755.325,-608.291 704.405,-606.843 667.312,-606.293"/>
<polygon fill="#9a32cd" stroke="#9a32cd" points="843.742,-620.412 854.125,-618.307 844.696,-613.477 843.742,-620.412"/>
<text text-anchor="middle" x="753" y="-616" font-family="FreeSans" font-size="10.00"> zone_</text>
</g>
<!-- Node7 -->
<g id="node13" class="node"><title>Node7</title>
<a xlink:href="class_urho3_d_1_1_bounding_box.html" target="_top" xlink:title="Three&#45;dimensional axis&#45;aligned bounding box.">
<polygon fill="none" stroke="red" points="0,-703.5 0,-724.5 122,-724.5 122,-703.5 0,-703.5"/>
<text text-anchor="middle" x="61" y="-711.5" font-family="FreeSans" font-size="10.00">Urho3D::BoundingBox</text>
</a>
</g>
<!-- Node7&#45;&gt;Node4 -->
<g id="edge32" class="edge"><title>Node7&#45;&gt;Node4</title>
<path fill="none" stroke="#9a32cd" stroke-dasharray="5,2" d="M110.95,-700.922C149.357,-691.121 203.825,-677.773 252,-668 372.086,-643.639 403.325,-644.252 524,-623 536.504,-620.798 549.957,-618.336 562.582,-615.984"/>
<polygon fill="#9a32cd" stroke="#9a32cd" points="109.872,-697.585 101.055,-703.459 111.611,-704.366 109.872,-697.585"/>
<text text-anchor="middle" x="321" y="-685" font-family="FreeSans" font-size="10.00"> worldBoundingBox_</text>
<text text-anchor="middle" x="321" y="-672" font-family="FreeSans" font-size="10.00">boundingBox_</text>
</g>
<!-- Node7&#45;&gt;Node6 -->
<g id="edge14" class="edge"><title>Node7&#45;&gt;Node6</title>
<path fill="none" stroke="#9a32cd" stroke-dasharray="5,2" d="M93.21,-728.698C130.498,-744.781 194.206,-769.421 252,-778 502.161,-815.134 798.113,-675.779 876.912,-635.568"/>
<polygon fill="#9a32cd" stroke="#9a32cd" points="94.434,-725.413 83.8697,-724.609 91.6266,-731.825 94.434,-725.413"/>
<text text-anchor="middle" x="466" y="-784" font-family="FreeSans" font-size="10.00"> lastWorldBoundingBox_</text>
</g>
<!-- Node13 -->
<g id="node29" class="node"><title>Node13</title>
<a xlink:href="class_urho3_d_1_1_octant.html" target="_top" xlink:title="Octree octant">
<polygon fill="none" stroke="red" points="275,-703.5 275,-724.5 367,-724.5 367,-703.5 275,-703.5"/>
<text text-anchor="middle" x="321" y="-711.5" font-family="FreeSans" font-size="10.00">Urho3D::Octant</text>
</a>
</g>
<!-- Node7&#45;&gt;Node13 -->
<g id="edge36" class="edge"><title>Node7&#45;&gt;Node13</title>
<path fill="none" stroke="#9a32cd" stroke-dasharray="5,2" d="M132.369,-714C177.775,-714 235.252,-714 274.758,-714"/>
<polygon fill="#9a32cd" stroke="#9a32cd" points="132.287,-710.5 122.287,-714 132.287,-717.5 132.287,-710.5"/>
<text text-anchor="middle" x="187" y="-731" font-family="FreeSans" font-size="10.00"> cullingBox_</text>
<text text-anchor="middle" x="187" y="-718" font-family="FreeSans" font-size="10.00">worldBoundingBox_</text>
</g>
<!-- Node8 -->
<g id="node15" class="node"><title>Node8</title>
<a xlink:href="class_urho3_d_1_1_color.html" target="_top" xlink:title="RGBA color.">
<polygon fill="none" stroke="black" points="573,-394.5 573,-415.5 657,-415.5 657,-394.5 573,-394.5"/>
<text text-anchor="middle" x="615" y="-402.5" font-family="FreeSans" font-size="10.00">Urho3D::Color</text>
</a>
</g>
<!-- Node8&#45;&gt;Node2 -->
<g id="edge66" class="edge"><title>Node8&#45;&gt;Node2</title>
<path fill="none" stroke="#9a32cd" stroke-dasharray="5,2" d="M667.492,-401.818C757.044,-394.587 943.122,-371.622 1082,-301 1108.15,-287.704 1136.73,-269.115 1153.75,-257.579"/>
<polygon fill="#9a32cd" stroke="#9a32cd" points="667.018,-398.344 657.317,-402.605 667.558,-405.323 667.018,-398.344"/>
<text text-anchor="middle" x="897" y="-385" font-family="FreeSans" font-size="10.00"> color_</text>
</g>
<!-- Node8&#45;&gt;Node6 -->
<g id="edge16" class="edge"><title>Node8&#45;&gt;Node6</title>
<path fill="none" stroke="#9a32cd" stroke-dasharray="5,2" d="M632.803,-423.065C650.607,-440.731 679.134,-467.966 706,-489 745.406,-519.852 759.192,-522.028 800,-551 830.57,-572.704 865.237,-599.77 883.723,-614.409"/>
<polygon fill="#9a32cd" stroke="#9a32cd" points="634.966,-420.278 625.421,-415.679 630.014,-425.226 634.966,-420.278"/>
<text text-anchor="middle" x="753" y="-594" font-family="FreeSans" font-size="10.00"> ambientEndColor_</text>
<text text-anchor="middle" x="753" y="-581" font-family="FreeSans" font-size="10.00">fogColor_</text>
<text text-anchor="middle" x="753" y="-568" font-family="FreeSans" font-size="10.00">ambientColor_</text>
<text text-anchor="middle" x="753" y="-555" font-family="FreeSans" font-size="10.00">ambientStartColor_</text>
</g>
<!-- Node8&#45;&gt;Node8 -->
<g id="edge18" class="edge"><title>Node8&#45;&gt;Node8</title>
<path fill="none" stroke="#9a32cd" stroke-dasharray="5,2" d="M589.433,-425.055C591.11,-430.164 599.633,-434 615,-434 638.988,-434 646.297,-424.653 636.927,-415.708"/>
<polygon fill="#9a32cd" stroke="#9a32cd" points="592.706,-426.296 593.073,-415.708 586.183,-423.756 592.706,-426.296"/>
<text text-anchor="middle" x="615" y="-568" font-family="FreeSans" font-size="10.00"> CYAN</text>
<text text-anchor="middle" x="615" y="-555" font-family="FreeSans" font-size="10.00">GRAY</text>
<text text-anchor="middle" x="615" y="-542" font-family="FreeSans" font-size="10.00">YELLOW</text>
<text text-anchor="middle" x="615" y="-529" font-family="FreeSans" font-size="10.00">MAGENTA</text>
<text text-anchor="middle" x="615" y="-516" font-family="FreeSans" font-size="10.00">WHITE</text>
<text text-anchor="middle" x="615" y="-503" font-family="FreeSans" font-size="10.00">TRANSPARENT</text>
<text text-anchor="middle" x="615" y="-490" font-family="FreeSans" font-size="10.00">BLUE</text>
<text text-anchor="middle" x="615" y="-477" font-family="FreeSans" font-size="10.00">BLACK</text>
<text text-anchor="middle" x="615" y="-464" font-family="FreeSans" font-size="10.00">RED</text>
<text text-anchor="middle" x="615" y="-451" font-family="FreeSans" font-size="10.00">GREEN</text>
<text text-anchor="middle" x="615" y="-438" font-family="FreeSans" font-size="10.00">...</text>
</g>
<!-- Node8&#45;&gt;Node12 -->
<g id="edge30" class="edge"><title>Node8&#45;&gt;Node12</title>
<path fill="none" stroke="#9a32cd" stroke-dasharray="5,2" d="M667.457,-412.638C704.773,-418.625 755.901,-427.955 800,-440 824.524,-446.698 851.686,-456.734 871.015,-464.345"/>
<polygon fill="#9a32cd" stroke="#9a32cd" points="667.738,-409.139 657.315,-411.039 666.648,-416.054 667.738,-409.139"/>
<text text-anchor="middle" x="753" y="-444" font-family="FreeSans" font-size="10.00"> color_</text>
</g>
<!-- Node9 -->
<g id="node18" class="node"><title>Node9</title>
<a xlink:href="class_urho3_d_1_1_p_o_d_vector.html" target="_top" xlink:title="Urho3D::PODVector\&lt;\l Urho3D::Light * \&gt;">
<polygon fill="none" stroke="red" points="261.5,-537 261.5,-571 380.5,-571 380.5,-537 261.5,-537"/>
<text text-anchor="start" x="269.5" y="-558" font-family="FreeSans" font-size="10.00">Urho3D::PODVector&lt;</text>
<text text-anchor="middle" x="321" y="-545" font-family="FreeSans" font-size="10.00"> Urho3D::Light * &gt;</text>
</a>
</g>
<!-- Node9&#45;&gt;Node4 -->
<g id="edge20" class="edge"><title>Node9&#45;&gt;Node4</title>
<path fill="none" stroke="#9a32cd" stroke-dasharray="5,2" d="M391.051,-554.75C430.836,-556.856 481.109,-562.378 524,-576 532.722,-578.77 533.526,-582.544 542,-586 550.761,-589.573 560.368,-592.718 569.652,-595.394"/>
<polygon fill="#9a32cd" stroke="#9a32cd" points="391.064,-551.247 380.911,-554.275 390.736,-558.239 391.064,-551.247"/>
<text text-anchor="middle" x="466" y="-593" font-family="FreeSans" font-size="10.00"> vertexLights_</text>
<text text-anchor="middle" x="466" y="-580" font-family="FreeSans" font-size="10.00">lights_</text>
</g>
<!-- Node10 -->
<g id="node20" class="node"><title>Node10</title>
<a xlink:href="class_urho3_d_1_1_p_o_d_vector.html" target="_top" xlink:title="Urho3D::PODVector\&lt;\l Urho3D::Camera * \&gt;">
<polygon fill="none" stroke="red" points="261,-485 261,-519 381,-519 381,-485 261,-485"/>
<text text-anchor="start" x="269" y="-506" font-family="FreeSans" font-size="10.00">Urho3D::PODVector&lt;</text>
<text text-anchor="middle" x="321" y="-493" font-family="FreeSans" font-size="10.00"> Urho3D::Camera * &gt;</text>
</a>
</g>
<!-- Node10&#45;&gt;Node4 -->
<g id="edge22" class="edge"><title>Node10&#45;&gt;Node4</title>
<path fill="none" stroke="#9a32cd" stroke-dasharray="5,2" d="M391.353,-497.868C434.158,-499.051 487.441,-507.594 524,-538 541.517,-552.569 525.17,-570.642 542,-586 547.921,-591.403 555.165,-595.367 562.765,-598.271"/>
<polygon fill="#9a32cd" stroke="#9a32cd" points="391.326,-494.368 381.275,-497.718 391.222,-501.367 391.326,-494.368"/>
<text text-anchor="middle" x="466" y="-542" font-family="FreeSans" font-size="10.00"> viewCameras_</text>
</g>
<!-- Node11 -->
<g id="node22" class="node"><title>Node11</title>
<a xlink:href="class_urho3_d_1_1_vector.html" target="_top" xlink:title="Urho3D::Vector\&lt; Urho3D\l::SourceBatch \&gt;">
<polygon fill="none" stroke="red" points="252,-589 252,-623 390,-623 390,-589 252,-589"/>
<text text-anchor="start" x="260" y="-610" font-family="FreeSans" font-size="10.00">Urho3D::Vector&lt; Urho3D</text>
<text text-anchor="middle" x="321" y="-597" font-family="FreeSans" font-size="10.00">::SourceBatch &gt;</text>
</a>
</g>
<!-- Node11&#45;&gt;Node4 -->
<g id="edge24" class="edge"><title>Node11&#45;&gt;Node4</title>
<path fill="none" stroke="#9a32cd" stroke-dasharray="5,2" d="M400.411,-606C451.952,-606 517.663,-606 562.711,-606"/>
<polygon fill="#9a32cd" stroke="#9a32cd" points="400.302,-602.5 390.302,-606 400.302,-609.5 400.302,-602.5"/>
<text text-anchor="middle" x="466" y="-610" font-family="FreeSans" font-size="10.00"> batches_</text>
</g>
<!-- Node12&#45;&gt;Node4 -->
<g id="edge26" class="edge"><title>Node12&#45;&gt;Node4</title>
<path fill="none" stroke="#9a32cd" stroke-dasharray="5,2" d="M845.179,-468.059C795.835,-462.692 726.185,-458.758 706,-476 668.332,-508.175 721.139,-549.177 688,-586 682.374,-592.251 674.999,-596.627 667.1,-599.674"/>
<polygon fill="#9a32cd" stroke="#9a32cd" points="845.044,-471.566 855.375,-469.219 845.835,-464.611 845.044,-471.566"/>
<text text-anchor="middle" x="753" y="-480" font-family="FreeSans" font-size="10.00"> firstLight_</text>
</g>
<!-- Node13&#45;&gt;Node4 -->
<g id="edge34" class="edge"><title>Node13&#45;&gt;Node4</title>
<path fill="none" stroke="#9a32cd" stroke-dasharray="5,2" d="M377.092,-709.279C419.001,-704.204 476.926,-693.851 524,-673 556.109,-658.778 587.806,-631.688 603.969,-616.678"/>
<polygon fill="#9a32cd" stroke="#9a32cd" points="376.603,-705.812 367.067,-710.43 377.401,-712.766 376.603,-705.812"/>
<text text-anchor="middle" x="466" y="-708" font-family="FreeSans" font-size="10.00"> octant_</text>
</g>
<!-- Node13&#45;&gt;Node13 -->
<g id="edge38" class="edge"><title>Node13&#45;&gt;Node13</title>
<path fill="none" stroke="#9a32cd" stroke-dasharray="5,2" d="M296.305,-734.427C298.21,-739.349 306.442,-743 321,-743 344.293,-743 351.39,-733.653 342.291,-724.708"/>
<polygon fill="#9a32cd" stroke="#9a32cd" points="299.707,-735.303 299.709,-724.708 293.1,-732.989 299.707,-735.303"/>
<text text-anchor="middle" x="321" y="-760" font-family="FreeSans" font-size="10.00"> parent_</text>
<text text-anchor="middle" x="321" y="-747" font-family="FreeSans" font-size="10.00">children_</text>
</g>
<!-- Node14 -->
<g id="node33" class="node"><title>Node14</title>
<a xlink:href="class_urho3_d_1_1_vector.html" target="_top" xlink:title="Urho3D::Vector\&lt; Urho3D\l::SourceBatch2D \&gt;">
<polygon fill="none" stroke="red" points="546,-342 546,-376 684,-376 684,-342 546,-342"/>
<text text-anchor="start" x="554" y="-363" font-family="FreeSans" font-size="10.00">Urho3D::Vector&lt; Urho3D</text>
<text text-anchor="middle" x="615" y="-350" font-family="FreeSans" font-size="10.00">::SourceBatch2D &gt;</text>
</a>
</g>
<!-- Node14&#45;&gt;Node3 -->
<g id="edge40" class="edge"><title>Node14&#45;&gt;Node3</title>
<path fill="none" stroke="#9a32cd" stroke-dasharray="5,2" d="M694.528,-349.129C740.266,-343.453 796.733,-336.444 838.405,-331.272"/>
<polygon fill="#9a32cd" stroke="#9a32cd" points="693.839,-345.688 684.346,-350.393 694.701,-352.635 693.839,-345.688"/>
<text text-anchor="middle" x="753" y="-351" font-family="FreeSans" font-size="10.00"> sourceBatches_</text>
</g>
<!-- Node15 -->
<g id="node35" class="node"><title>Node15</title>
<a xlink:href="class_urho3_d_1_1_weak_ptr.html" target="_top" xlink:title="Urho3D::WeakPtr\&lt; Urho3D\l::Renderer2D \&gt;">
<polygon fill="none" stroke="red" points="542,-290 542,-324 688,-324 688,-290 542,-290"/>
<text text-anchor="start" x="550" y="-311" font-family="FreeSans" font-size="10.00">Urho3D::WeakPtr&lt; Urho3D</text>
<text text-anchor="middle" x="615" y="-298" font-family="FreeSans" font-size="10.00">::Renderer2D &gt;</text>
</a>
</g>
<!-- Node15&#45;&gt;Node3 -->
<g id="edge42" class="edge"><title>Node15&#45;&gt;Node3</title>
<path fill="none" stroke="#9a32cd" stroke-dasharray="5,2" d="M698.514,-311.923C730.287,-313.807 766.819,-315.987 800,-318 812.379,-318.751 825.645,-319.565 838.269,-320.345"/>
<polygon fill="#9a32cd" stroke="#9a32cd" points="698.565,-308.42 688.376,-311.323 698.151,-315.408 698.565,-308.42"/>
<text text-anchor="middle" x="753" y="-322" font-family="FreeSans" font-size="10.00"> renderer_</text>
</g>
<!-- Node16 -->
<g id="node37" class="node"><title>Node16</title>
<a xlink:href="class_urho3_d_1_1_vector2.html" target="_top" xlink:title="Two&#45;dimensional vector.">
<polygon fill="none" stroke="black" points="273,-234.5 273,-255.5 369,-255.5 369,-234.5 273,-234.5"/>
<text text-anchor="middle" x="321" y="-242.5" font-family="FreeSans" font-size="10.00">Urho3D::Vector2</text>
</a>
</g>
<!-- Node16&#45;&gt;Node2 -->
<g id="edge44" class="edge"><title>Node16&#45;&gt;Node2</title>
<path fill="none" stroke="#9a32cd" stroke-dasharray="5,2" d="M379.287,-245.347C495.975,-246.023 766.597,-247.493 994,-248 1033.11,-248.087 1042.89,-248.225 1082,-248 1089.25,-247.958 1096.84,-247.897 1104.39,-247.825"/>
<polygon fill="#9a32cd" stroke="#9a32cd" points="379.168,-241.847 369.147,-245.288 379.127,-248.846 379.168,-241.847"/>
<text text-anchor="middle" x="753" y="-251" font-family="FreeSans" font-size="10.00"> hotSpot_</text>
</g>
<!-- Node16&#45;&gt;Node16 -->
<g id="edge46" class="edge"><title>Node16&#45;&gt;Node16</title>
<path fill="none" stroke="#9a32cd" stroke-dasharray="5,2" d="M296.305,-265.427C298.21,-270.349 306.442,-274 321,-274 344.293,-274 351.39,-264.653 342.291,-255.708"/>
<polygon fill="#9a32cd" stroke="#9a32cd" points="299.707,-266.303 299.709,-255.708 293.1,-263.989 299.707,-266.303"/>
<text text-anchor="middle" x="321" y="-343" font-family="FreeSans" font-size="10.00"> ONE</text>
<text text-anchor="middle" x="321" y="-330" font-family="FreeSans" font-size="10.00">DOWN</text>
<text text-anchor="middle" x="321" y="-317" font-family="FreeSans" font-size="10.00">RIGHT</text>
<text text-anchor="middle" x="321" y="-304" font-family="FreeSans" font-size="10.00">LEFT</text>
<text text-anchor="middle" x="321" y="-291" font-family="FreeSans" font-size="10.00">ZERO</text>
<text text-anchor="middle" x="321" y="-278" font-family="FreeSans" font-size="10.00">UP</text>
</g>
<!-- Node18 -->
<g id="node42" class="node"><title>Node18</title>
<a xlink:href="class_urho3_d_1_1_sprite2_d.html" target="_top" xlink:title="Sprite.">
<polygon fill="none" stroke="red" points="564.5,-154.5 564.5,-175.5 665.5,-175.5 665.5,-154.5 564.5,-154.5"/>
<text text-anchor="middle" x="615" y="-162.5" font-family="FreeSans" font-size="10.00">Urho3D::Sprite2D</text>
</a>
</g>
<!-- Node16&#45;&gt;Node18 -->
<g id="edge58" class="edge"><title>Node16&#45;&gt;Node18</title>
<path fill="none" stroke="#9a32cd" stroke-dasharray="5,2" d="M369.743,-231.737C427.634,-215.984 523.03,-190.026 576.177,-175.564"/>
<polygon fill="#9a32cd" stroke="#9a32cd" points="368.468,-228.456 359.738,-234.459 370.306,-235.211 368.468,-228.456"/>
<text text-anchor="middle" x="466" y="-223" font-family="FreeSans" font-size="10.00"> hotSpot_</text>
</g>
<!-- Node17 -->
<g id="node40" class="node"><title>Node17</title>
<a xlink:href="class_urho3_d_1_1_shared_ptr.html" target="_top" xlink:title="Urho3D::SharedPtr\&lt;\l Urho3D::Sprite2D \&gt;">
<polygon fill="none" stroke="black" points="839,-148 839,-182 955,-182 955,-148 839,-148"/>
<text text-anchor="start" x="847" y="-169" font-family="FreeSans" font-size="10.00">Urho3D::SharedPtr&lt;</text>
<text text-anchor="middle" x="897" y="-156" font-family="FreeSans" font-size="10.00"> Urho3D::Sprite2D &gt;</text>
</a>
</g>
<!-- Node17&#45;&gt;Node2 -->
<g id="edge48" class="edge"><title>Node17&#45;&gt;Node2</title>
<path fill="none" stroke="#9a32cd" stroke-dasharray="5,2" d="M965.491,-177.627C1000.75,-184.952 1044.17,-195.258 1082,-208 1105.37,-215.873 1131.01,-227.793 1148.36,-236.382"/>
<polygon fill="#9a32cd" stroke="#9a32cd" points="965.798,-174.118 955.3,-175.546 964.397,-180.976 965.798,-174.118"/>
<text text-anchor="middle" x="1038" y="-212" font-family="FreeSans" font-size="10.00"> sprite_</text>
</g>
<!-- Node24 -->
<g id="node58" class="node"><title>Node24</title>
<a xlink:href="class_urho3_d_1_1_animation_set2_d.html" target="_top" xlink:title="Spriter animation set, it includes one or more animations, for more information please refer to http:...">
<polygon fill="none" stroke="black" points="1100,-109.5 1100,-130.5 1238,-130.5 1238,-109.5 1100,-109.5"/>
<text text-anchor="middle" x="1169" y="-117.5" font-family="FreeSans" font-size="10.00">Urho3D::AnimationSet2D</text>
</a>
</g>
<!-- Node17&#45;&gt;Node24 -->
<g id="edge74" class="edge"><title>Node17&#45;&gt;Node24</title>
<path fill="none" stroke="#9a32cd" stroke-dasharray="5,2" d="M965.109,-153.732C1008.1,-146.619 1063.27,-137.493 1105.37,-130.527"/>
<polygon fill="#9a32cd" stroke="#9a32cd" points="964.312,-150.316 955.017,-155.402 965.454,-157.222 964.312,-150.316"/>
<text text-anchor="middle" x="1038" y="-151" font-family="FreeSans" font-size="10.00"> sprite_</text>
</g>
<!-- Node18&#45;&gt;Node17 -->
<g id="edge50" class="edge"><title>Node18&#45;&gt;Node17</title>
<path fill="none" stroke="#9a32cd" stroke-dasharray="5,2" d="M675.754,-165C724.079,-165 791.257,-165 838.88,-165"/>
<polygon fill="#9a32cd" stroke="#9a32cd" points="675.742,-161.5 665.742,-165 675.742,-168.5 675.742,-161.5"/>
<text text-anchor="middle" x="753" y="-169" font-family="FreeSans" font-size="10.00"> ptr_</text>
</g>
<!-- Node19 -->
<g id="node44" class="node"><title>Node19</title>
<a xlink:href="class_urho3_d_1_1_resource.html" target="_top" xlink:title="Base class for resources.">
<polygon fill="none" stroke="red" points="269.5,-127.5 269.5,-148.5 372.5,-148.5 372.5,-127.5 269.5,-127.5"/>
<text text-anchor="middle" x="321" y="-135.5" font-family="FreeSans" font-size="10.00">Urho3D::Resource</text>
</a>
</g>
<!-- Node19&#45;&gt;Node18 -->
<g id="edge52" class="edge"><title>Node19&#45;&gt;Node18</title>
<path fill="none" stroke="midnightblue" d="M382.678,-143.664C436.66,-148.622 514.121,-155.736 564.496,-160.362"/>
<polygon fill="midnightblue" stroke="midnightblue" points="382.826,-140.163 372.547,-142.734 382.185,-147.134 382.826,-140.163"/>
</g>
<!-- Node22 -->
<g id="node52" class="node"><title>Node22</title>
<a xlink:href="class_urho3_d_1_1_material.html" target="_top" xlink:title="Describes how to render 3D geometries.">
<polygon fill="none" stroke="red" points="566,-197.5 566,-218.5 664,-218.5 664,-197.5 566,-197.5"/>
<text text-anchor="middle" x="615" y="-205.5" font-family="FreeSans" font-size="10.00">Urho3D::Material</text>
</a>
</g>
<!-- Node19&#45;&gt;Node22 -->
<g id="edge64" class="edge"><title>Node19&#45;&gt;Node22</title>
<path fill="none" stroke="midnightblue" d="M362.228,-151.685C376.624,-156.226 392.946,-161.11 408,-165 461.484,-178.82 523.625,-191.252 565.759,-199.152"/>
<polygon fill="midnightblue" stroke="midnightblue" points="363.199,-148.321 352.608,-148.612 361.069,-154.989 363.199,-148.321"/>
</g>
<!-- Node19&#45;&gt;Node24 -->
<g id="edge72" class="edge"><title>Node19&#45;&gt;Node24</title>
<path fill="none" stroke="midnightblue" d="M383.015,-136.684C537.397,-133.407 938.117,-124.901 1099.83,-121.468"/>
<polygon fill="midnightblue" stroke="midnightblue" points="382.693,-133.19 372.77,-136.901 382.842,-140.188 382.693,-133.19"/>
</g>
<!-- Node20 -->
<g id="node46" class="node"><title>Node20</title>
<a xlink:href="class_urho3_d_1_1_string.html" target="_top" xlink:title="String class.">
<polygon fill="none" stroke="black" points="17,-32.5 17,-53.5 105,-53.5 105,-32.5 17,-32.5"/>
<text text-anchor="middle" x="61" y="-40.5" font-family="FreeSans" font-size="10.00">Urho3D::String</text>
</a>
</g>
<!-- Node20&#45;&gt;Node1 -->
<g id="edge78" class="edge"><title>Node20&#45;&gt;Node1</title>
<path fill="none" stroke="#9a32cd" stroke-dasharray="5,2" d="M109.811,-30.0184C161.768,-17.3592 246.581,-0 321,-0 321,-0 321,-0 1372,-0 1475.9,-0 1583.45,-79.9823 1619.43,-109.351"/>
<polygon fill="#9a32cd" stroke="#9a32cd" points="108.736,-26.6789 99.8712,-32.481 110.419,-33.4735 108.736,-26.6789"/>
<text text-anchor="middle" x="897" y="-17" font-family="FreeSans" font-size="10.00"> animationName_</text>
<text text-anchor="middle" x="897" y="-4" font-family="FreeSans" font-size="10.00">entity_</text>
</g>
<!-- Node20&#45;&gt;Node19 -->
<g id="edge54" class="edge"><title>Node20&#45;&gt;Node19</title>
<path fill="none" stroke="#9a32cd" stroke-dasharray="5,2" d="M99.4469,-57.0479C151.979,-76.2423 245.017,-110.237 292.053,-127.423"/>
<polygon fill="#9a32cd" stroke="#9a32cd" points="100.412,-53.6742 89.818,-53.5296 98.0094,-60.2491 100.412,-53.6742"/>
<text text-anchor="middle" x="187" y="-108" font-family="FreeSans" font-size="10.00"> name_</text>
</g>
<!-- Node20&#45;&gt;Node20 -->
<g id="edge56" class="edge"><title>Node20&#45;&gt;Node20</title>
<path fill="none" stroke="#9a32cd" stroke-dasharray="5,2" d="M37.7796,-63.4266C39.5709,-68.3489 47.311,-72 61,-72 82.9023,-72 89.5757,-62.6531 81.0201,-53.7079"/>
<polygon fill="#9a32cd" stroke="#9a32cd" points="41.1765,-64.3009 40.9799,-53.7079 34.5277,-62.1114 41.1765,-64.3009"/>
<text text-anchor="middle" x="61" y="-76" font-family="FreeSans" font-size="10.00"> EMPTY</text>
</g>
<!-- Node21 -->
<g id="node50" class="node"><title>Node21</title>
<a xlink:href="class_urho3_d_1_1_shared_ptr.html" target="_top" xlink:title="Urho3D::SharedPtr\&lt;\l Urho3D::Material \&gt;">
<polygon fill="none" stroke="black" points="839,-200 839,-234 955,-234 955,-200 839,-200"/>
<text text-anchor="start" x="847" y="-221" font-family="FreeSans" font-size="10.00">Urho3D::SharedPtr&lt;</text>
<text text-anchor="middle" x="897" y="-208" font-family="FreeSans" font-size="10.00"> Urho3D::Material &gt;</text>
</a>
</g>
<!-- Node21&#45;&gt;Node2 -->
<g id="edge60" class="edge"><title>Node21&#45;&gt;Node2</title>
<path fill="none" stroke="#9a32cd" stroke-dasharray="5,2" d="M965.476,-223.003C1000.39,-226.231 1043.5,-230.473 1082,-235 1089.27,-235.855 1096.87,-236.811 1104.42,-237.8"/>
<polygon fill="#9a32cd" stroke="#9a32cd" points="965.667,-219.506 955.389,-222.078 965.027,-226.477 965.667,-219.506"/>
<text text-anchor="middle" x="1038" y="-239" font-family="FreeSans" font-size="10.00"> customMaterial_</text>
</g>
<!-- Node22&#45;&gt;Node21 -->
<g id="edge62" class="edge"><title>Node22&#45;&gt;Node21</title>
<path fill="none" stroke="#9a32cd" stroke-dasharray="5,2" d="M674.147,-209.888C722.604,-211.434 790.792,-213.61 838.949,-215.147"/>
<polygon fill="#9a32cd" stroke="#9a32cd" points="674.227,-206.389 664.121,-209.568 674.004,-213.385 674.227,-206.389"/>
<text text-anchor="middle" x="753" y="-217" font-family="FreeSans" font-size="10.00"> ptr_</text>
</g>
<!-- Node23 -->
<g id="node56" class="node"><title>Node23</title>
<a xlink:href="class_urho3_d_1_1_shared_ptr.html" target="_top" xlink:title="Urho3D::SharedPtr\&lt;\l Urho3D::AnimationSet2D \&gt;">
<polygon fill="none" stroke="black" points="1296,-103 1296,-137 1448,-137 1448,-103 1296,-103"/>
<text text-anchor="start" x="1304" y="-124" font-family="FreeSans" font-size="10.00">Urho3D::SharedPtr&lt;</text>
<text text-anchor="middle" x="1372" y="-111" font-family="FreeSans" font-size="10.00"> Urho3D::AnimationSet2D &gt;</text>
</a>
</g>
<!-- Node23&#45;&gt;Node1 -->
<g id="edge68" class="edge"><title>Node23&#45;&gt;Node1</title>
<path fill="none" stroke="#9a32cd" stroke-dasharray="5,2" d="M1458.56,-120C1490.77,-120 1527,-120 1557.99,-120"/>
<polygon fill="#9a32cd" stroke="#9a32cd" points="1458.25,-116.5 1448.25,-120 1458.25,-123.5 1458.25,-116.5"/>
<text text-anchor="middle" x="1503" y="-124" font-family="FreeSans" font-size="10.00"> animationSet_</text>
</g>
<!-- Node24&#45;&gt;Node23 -->
<g id="edge70" class="edge"><title>Node24&#45;&gt;Node23</title>
<path fill="none" stroke="#9a32cd" stroke-dasharray="5,2" d="M1248.19,-120C1263.87,-120 1280.29,-120 1295.87,-120"/>
<polygon fill="#9a32cd" stroke="#9a32cd" points="1248.01,-116.5 1238.01,-120 1248.01,-123.5 1248.01,-116.5"/>
<text text-anchor="middle" x="1267" y="-124" font-family="FreeSans" font-size="10.00"> ptr_</text>
</g>
<!-- Node25 -->
<g id="node62" class="node"><title>Node25</title>
<a xlink:href="class_urho3_d_1_1_hash_map.html" target="_top" xlink:title="Urho3D::HashMap\&lt; int,\l Urho3D::SharedPtr\&lt; Urho3D\l::Sprite2D \&gt; \&gt;">
<polygon fill="none" stroke="red" points="818,-44.5 818,-91.5 976,-91.5 976,-44.5 818,-44.5"/>
<text text-anchor="start" x="826" y="-78.5" font-family="FreeSans" font-size="10.00">Urho3D::HashMap&lt; int,</text>
<text text-anchor="start" x="826" y="-65.5" font-family="FreeSans" font-size="10.00"> Urho3D::SharedPtr&lt; Urho3D</text>
<text text-anchor="middle" x="897" y="-52.5" font-family="FreeSans" font-size="10.00">::Sprite2D &gt; &gt;</text>
</a>
</g>
<!-- Node25&#45;&gt;Node24 -->
<g id="edge76" class="edge"><title>Node25&#45;&gt;Node24</title>
<path fill="none" stroke="#9a32cd" stroke-dasharray="5,2" d="M986.471,-77.0395C1016.97,-80.9274 1051.15,-86.1788 1082,-93 1101.3,-97.2682 1122.5,-103.806 1139.13,-109.378"/>
<polygon fill="#9a32cd" stroke="#9a32cd" points="986.634,-73.5329 976.279,-75.773 985.771,-80.4795 986.634,-73.5329"/>
<text text-anchor="middle" x="1038" y="-97" font-family="FreeSans" font-size="10.00"> spriterFileSprites_</text>
</g>
</g>
</svg>
