<?xml version="1.0" encoding="UTF-8" standalone="no"?>
<!DOCTYPE svg PUBLIC "-//W3C//DTD SVG 1.1//EN"
 "http://www.w3.org/Graphics/SVG/1.1/DTD/svg11.dtd">
<!-- Generated by graphviz version 2.26.3 (20100126.1600)
 -->
<!-- Title: Urho3D::Animation Pages: 1 -->
<svg width="1132pt" height="1058pt"
 viewBox="0.00 0.00 1132.00 1058.00" xmlns="http://www.w3.org/2000/svg" xmlns:xlink="http://www.w3.org/1999/xlink">
<g id="graph1" class="graph" transform="scale(1 1) rotate(0) translate(4 1054)">
<title>Urho3D::Animation</title>
<!-- Node1 -->
<g id="node1" class="node"><title>Node1</title>
<polygon fill="#bfbfbf" stroke="black" points="997,-898.5 997,-919.5 1105,-919.5 1105,-898.5 997,-898.5"/>
<text text-anchor="middle" x="1051" y="-906.5" font-family="FreeSans" font-size="10.00">Urho3D::Animation</text>
</g>
<!-- Node2 -->
<g id="node2" class="node"><title>Node2</title>
<a xlink:href="class_urho3_d_1_1_resource.html" target="_top" xlink:title="Base class for resources.">
<polygon fill="none" stroke="black" points="671.5,-898.5 671.5,-919.5 774.5,-919.5 774.5,-898.5 671.5,-898.5"/>
<text text-anchor="middle" x="723" y="-906.5" font-family="FreeSans" font-size="10.00">Urho3D::Resource</text>
</a>
</g>
<!-- Node2&#45;&gt;Node1 -->
<g id="edge2" class="edge"><title>Node2&#45;&gt;Node1</title>
<path fill="none" stroke="midnightblue" d="M784.897,-909C846.06,-909 938.688,-909 996.964,-909"/>
<polygon fill="midnightblue" stroke="midnightblue" points="784.611,-905.5 774.611,-909 784.611,-912.5 784.611,-905.5"/>
</g>
<!-- Node3 -->
<g id="node4" class="node"><title>Node3</title>
<a xlink:href="class_urho3_d_1_1_object.html" target="_top" xlink:title="Base class for objects with type identification, subsystem access and event sending/receiving capabil...">
<polygon fill="none" stroke="black" points="420,-724.5 420,-745.5 510,-745.5 510,-724.5 420,-724.5"/>
<text text-anchor="middle" x="465" y="-732.5" font-family="FreeSans" font-size="10.00">Urho3D::Object</text>
</a>
</g>
<!-- Node3&#45;&gt;Node2 -->
<g id="edge4" class="edge"><title>Node3&#45;&gt;Node2</title>
<path fill="none" stroke="midnightblue" d="M476.055,-754.462C488.994,-775.743 512.224,-809.653 540,-831 583.677,-864.567 643.967,-886.585 683.213,-898.415"/>
<polygon fill="midnightblue" stroke="midnightblue" points="478.956,-752.491 470.855,-745.663 472.93,-756.053 478.956,-752.491"/>
</g>
<!-- Node9 -->
<g id="node17" class="node"><title>Node9</title>
<a xlink:href="class_urho3_d_1_1_event_handler.html" target="_top" xlink:title="Internal helper class for invoking event handler functions.">
<polygon fill="none" stroke="red" points="661,-817.5 661,-838.5 785,-838.5 785,-817.5 661,-817.5"/>
<text text-anchor="middle" x="723" y="-825.5" font-family="FreeSans" font-size="10.00">Urho3D::EventHandler</text>
</a>
</g>
<!-- Node3&#45;&gt;Node9 -->
<g id="edge20" class="edge"><title>Node3&#45;&gt;Node9</title>
<path fill="none" stroke="#9a32cd" stroke-dasharray="5,2" d="M504.164,-749.117C556.27,-767.9 647.214,-800.682 693.749,-817.456"/>
<polygon fill="#9a32cd" stroke="#9a32cd" points="505.19,-745.767 494.596,-745.668 502.816,-752.352 505.19,-745.767"/>
<text text-anchor="middle" x="571" y="-802" font-family="FreeSans" font-size="10.00"> sender_</text>
<text text-anchor="middle" x="571" y="-789" font-family="FreeSans" font-size="10.00">receiver_</text>
</g>
<!-- Node4 -->
<g id="node6" class="node"><title>Node4</title>
<a xlink:href="class_urho3_d_1_1_ref_counted.html" target="_top" xlink:title="Base class for intrusively reference&#45;counted objects. These are noncopyable and non&#45;assignable.">
<polygon fill="none" stroke="black" points="198,-607.5 198,-628.5 312,-628.5 312,-607.5 198,-607.5"/>
<text text-anchor="middle" x="255" y="-615.5" font-family="FreeSans" font-size="10.00">Urho3D::RefCounted</text>
</a>
</g>
<!-- Node4&#45;&gt;Node3 -->
<g id="edge6" class="edge"><title>Node4&#45;&gt;Node3</title>
<path fill="none" stroke="midnightblue" d="M282.883,-633.535C326.225,-657.683 408.643,-703.601 445.885,-724.35"/>
<polygon fill="midnightblue" stroke="midnightblue" points="284.446,-630.399 274.006,-628.589 281.039,-636.514 284.446,-630.399"/>
</g>
<!-- Node6 -->
<g id="node10" class="node"><title>Node6</title>
<a xlink:href="class_urho3_d_1_1_context.html" target="_top" xlink:title="Urho3D execution context. Provides access to subsystems, object factories and attributes, and event receivers.">
<polygon fill="none" stroke="black" points="1002.5,-355.5 1002.5,-376.5 1099.5,-376.5 1099.5,-355.5 1002.5,-355.5"/>
<text text-anchor="middle" x="1051" y="-363.5" font-family="FreeSans" font-size="10.00">Urho3D::Context</text>
</a>
</g>
<!-- Node4&#45;&gt;Node6 -->
<g id="edge12" class="edge"><title>Node4&#45;&gt;Node6</title>
<path fill="none" stroke="midnightblue" d="M322.661,-612.743C452.404,-602.338 731.667,-578.281 826,-557 887.565,-543.111 910.62,-549.305 960,-510 1007.2,-472.428 1036.96,-403.295 1047.1,-376.76"/>
<polygon fill="midnightblue" stroke="midnightblue" points="322.145,-609.273 312.456,-613.558 322.703,-616.251 322.145,-609.273"/>
</g>
<!-- Node5 -->
<g id="node8" class="node"><title>Node5</title>
<a xlink:href="struct_urho3_d_1_1_ref_count.html" target="_top" xlink:title="Reference count structure.">
<polygon fill="none" stroke="black" points="0,-607.5 0,-628.5 102,-628.5 102,-607.5 0,-607.5"/>
<text text-anchor="middle" x="51" y="-615.5" font-family="FreeSans" font-size="10.00">Urho3D::RefCount</text>
</a>
</g>
<!-- Node5&#45;&gt;Node4 -->
<g id="edge8" class="edge"><title>Node5&#45;&gt;Node4</title>
<path fill="none" stroke="#9a32cd" stroke-dasharray="5,2" d="M112.345,-618C139.414,-618 171.051,-618 197.643,-618"/>
<polygon fill="#9a32cd" stroke="#9a32cd" points="112.215,-614.5 102.214,-618 112.214,-621.5 112.215,-614.5"/>
<text text-anchor="middle" x="145" y="-622" font-family="FreeSans" font-size="10.00"> refCount_</text>
</g>
<!-- Node6&#45;&gt;Node3 -->
<g id="edge10" class="edge"><title>Node6&#45;&gt;Node3</title>
<path fill="none" stroke="#9a32cd" stroke-dasharray="5,2" d="M1039.34,-385.297C1024.02,-409.067 994.914,-449.102 960,-472 827.751,-558.733 755.055,-494.706 620,-577 552.075,-618.39 492.655,-696.149 472.396,-724.399"/>
<polygon fill="#9a32cd" stroke="#9a32cd" points="1042.35,-387.099 1044.7,-376.769 1036.42,-383.377 1042.35,-387.099"/>
<text text-anchor="middle" x="723" y="-581" font-family="FreeSans" font-size="10.00"> context_</text>
</g>
<!-- Node7 -->
<g id="node13" class="node"><title>Node7</title>
<a xlink:href="class_urho3_d_1_1_p_o_d_vector.html" target="_top" xlink:title="Urho3D::PODVector\&lt;\l Urho3D::Object * \&gt;">
<polygon fill="none" stroke="black" points="663.5,-408 663.5,-442 782.5,-442 782.5,-408 663.5,-408"/>
<text text-anchor="start" x="671.5" y="-429" font-family="FreeSans" font-size="10.00">Urho3D::PODVector&lt;</text>
<text text-anchor="middle" x="723" y="-416" font-family="FreeSans" font-size="10.00"> Urho3D::Object * &gt;</text>
</a>
</g>
<!-- Node7&#45;&gt;Node6 -->
<g id="edge14" class="edge"><title>Node7&#45;&gt;Node6</title>
<path fill="none" stroke="#9a32cd" stroke-dasharray="5,2" d="M793.045,-412.763C840.243,-404.474 903.889,-393.213 960,-383 973.757,-380.496 988.673,-377.731 1002.37,-375.171"/>
<polygon fill="#9a32cd" stroke="#9a32cd" points="792.175,-409.362 782.931,-414.538 793.385,-416.257 792.175,-409.362"/>
<text text-anchor="middle" x="902" y="-407" font-family="FreeSans" font-size="10.00"> eventSenders_</text>
</g>
<!-- Node8 -->
<g id="node15" class="node"><title>Node8</title>
<a xlink:href="class_urho3_d_1_1_vector_base.html" target="_top" xlink:title="Vector base class.">
<polygon fill="none" stroke="black" points="408,-466.5 408,-487.5 522,-487.5 522,-466.5 408,-466.5"/>
<text text-anchor="middle" x="465" y="-474.5" font-family="FreeSans" font-size="10.00">Urho3D::VectorBase</text>
</a>
</g>
<!-- Node8&#45;&gt;Node7 -->
<g id="edge16" class="edge"><title>Node8&#45;&gt;Node7</title>
<path fill="none" stroke="midnightblue" d="M527.153,-464.473C568.451,-456.149 622.378,-445.28 663.187,-437.055"/>
<polygon fill="midnightblue" stroke="midnightblue" points="526.321,-461.07 517.21,-466.477 527.705,-467.932 526.321,-461.07"/>
</g>
<!-- Node17 -->
<g id="node39" class="node"><title>Node17</title>
<a xlink:href="class_urho3_d_1_1_p_o_d_vector.html" target="_top" xlink:title="Urho3D::PODVector\&lt;\l Urho3D::HashMap * \&gt;">
<polygon fill="none" stroke="black" points="659.5,-460 659.5,-494 786.5,-494 786.5,-460 659.5,-460"/>
<text text-anchor="start" x="667.5" y="-481" font-family="FreeSans" font-size="10.00">Urho3D::PODVector&lt;</text>
<text text-anchor="middle" x="723" y="-468" font-family="FreeSans" font-size="10.00"> Urho3D::HashMap * &gt;</text>
</a>
</g>
<!-- Node8&#45;&gt;Node17 -->
<g id="edge48" class="edge"><title>Node8&#45;&gt;Node17</title>
<path fill="none" stroke="midnightblue" d="M532.497,-477C571.625,-477 620.608,-477 659.106,-477"/>
<polygon fill="midnightblue" stroke="midnightblue" points="532.259,-473.5 522.259,-477 532.259,-480.5 532.259,-473.5"/>
</g>
<!-- Node24 -->
<g id="node60" class="node"><title>Node24</title>
<a xlink:href="class_urho3_d_1_1_vector.html" target="_top" xlink:title="Urho3D::Vector\&lt; Urho3D\l::AnimationTriggerPoint \&gt;">
<polygon fill="none" stroke="black" points="654,-665 654,-699 792,-699 792,-665 654,-665"/>
<text text-anchor="start" x="662" y="-686" font-family="FreeSans" font-size="10.00">Urho3D::Vector&lt; Urho3D</text>
<text text-anchor="middle" x="723" y="-673" font-family="FreeSans" font-size="10.00">::AnimationTriggerPoint &gt;</text>
</a>
</g>
<!-- Node8&#45;&gt;Node24 -->
<g id="edge76" class="edge"><title>Node8&#45;&gt;Node24</title>
<path fill="none" stroke="midnightblue" d="M470.449,-497.686C479.711,-529.063 501.382,-588.756 540,-624 571.141,-652.421 616.19,-666.916 653.798,-674.308"/>
<polygon fill="midnightblue" stroke="midnightblue" points="473.76,-496.533 467.683,-487.855 467.022,-498.429 473.76,-496.533"/>
</g>
<!-- Node9&#45;&gt;Node6 -->
<g id="edge18" class="edge"><title>Node9&#45;&gt;Node6</title>
<path fill="none" stroke="#9a32cd" stroke-dasharray="5,2" d="M795.427,-834.376C855.926,-838.041 936.028,-838.486 960,-818 977.647,-802.919 1038.05,-443.95 1049.22,-376.775"/>
<polygon fill="#9a32cd" stroke="#9a32cd" points="795.343,-830.863 785.138,-833.711 794.892,-837.849 795.343,-830.863"/>
<text text-anchor="middle" x="902" y="-841" font-family="FreeSans" font-size="10.00"> eventHandler_</text>
</g>
<!-- Node21 -->
<g id="node51" class="node"><title>Node21</title>
<a xlink:href="class_urho3_d_1_1_linked_list.html" target="_top" xlink:title="Urho3D::LinkedList\l\&lt; Urho3D::EventHandler \&gt;">
<polygon fill="none" stroke="black" points="978,-785 978,-819 1124,-819 1124,-785 978,-785"/>
<text text-anchor="start" x="986" y="-806" font-family="FreeSans" font-size="10.00">Urho3D::LinkedList</text>
<text text-anchor="middle" x="1051" y="-793" font-family="FreeSans" font-size="10.00">&lt; Urho3D::EventHandler &gt;</text>
</a>
</g>
<!-- Node9&#45;&gt;Node21 -->
<g id="edge64" class="edge"><title>Node9&#45;&gt;Node21</title>
<path fill="none" stroke="#9a32cd" stroke-dasharray="5,2" d="M763.896,-841.42C811.68,-855.064 892.771,-871.854 960,-854 985.5,-847.228 1011.31,-831.445 1028.89,-819.031"/>
<polygon fill="#9a32cd" stroke="#9a32cd" points="764.803,-838.039 754.222,-838.57 762.825,-844.754 764.803,-838.039"/>
<text text-anchor="middle" x="902" y="-866" font-family="FreeSans" font-size="10.00"> head_</text>
</g>
<!-- Node10 -->
<g id="node20" class="node"><title>Node10</title>
<a xlink:href="class_urho3_d_1_1_string_hash.html" target="_top" xlink:title="32&#45;bit hash value for a string.">
<polygon fill="none" stroke="black" points="408.5,-907.5 408.5,-928.5 521.5,-928.5 521.5,-907.5 408.5,-907.5"/>
<text text-anchor="middle" x="465" y="-915.5" font-family="FreeSans" font-size="10.00">Urho3D::StringHash</text>
</a>
</g>
<!-- Node10&#45;&gt;Node1 -->
<g id="edge84" class="edge"><title>Node10&#45;&gt;Node1</title>
<path fill="none" stroke="#9a32cd" stroke-dasharray="5,2" d="M485.349,-934.784C499.66,-945.454 519.791,-958.296 540,-964 566.52,-971.485 574.489,-965.57 602,-964 745.288,-955.822 912.812,-931.291 996.949,-917.923"/>
<polygon fill="#9a32cd" stroke="#9a32cd" points="487.292,-931.862 477.243,-928.505 483.005,-937.396 487.292,-931.862"/>
<text text-anchor="middle" x="723" y="-967" font-family="FreeSans" font-size="10.00"> animationNameHash_</text>
</g>
<!-- Node10&#45;&gt;Node2 -->
<g id="edge72" class="edge"><title>Node10&#45;&gt;Node2</title>
<path fill="none" stroke="#9a32cd" stroke-dasharray="5,2" d="M531.718,-915.306C534.516,-915.201 537.286,-915.099 540,-915 584.315,-913.387 634.673,-911.751 671.33,-910.595"/>
<polygon fill="#9a32cd" stroke="#9a32cd" points="531.372,-911.817 521.512,-915.696 531.639,-918.812 531.372,-911.817"/>
<text text-anchor="middle" x="571" y="-919" font-family="FreeSans" font-size="10.00"> nameHash_</text>
</g>
<!-- Node10&#45;&gt;Node9 -->
<g id="edge22" class="edge"><title>Node10&#45;&gt;Node9</title>
<path fill="none" stroke="#9a32cd" stroke-dasharray="5,2" d="M514.68,-902.895C517.248,-901.406 519.709,-899.779 522,-898 533.392,-889.156 528.152,-879.224 540,-871 575.389,-846.435 622.937,-835.77 660.697,-831.202"/>
<polygon fill="#9a32cd" stroke="#9a32cd" points="512.997,-899.824 505.63,-907.438 516.137,-906.08 512.997,-899.824"/>
<text text-anchor="middle" x="571" y="-875" font-family="FreeSans" font-size="10.00"> eventType_</text>
</g>
<!-- Node10&#45;&gt;Node10 -->
<g id="edge24" class="edge"><title>Node10&#45;&gt;Node10</title>
<path fill="none" stroke="#9a32cd" stroke-dasharray="5,2" d="M446.571,-938.427C447.993,-943.349 454.136,-947 465,-947 482.383,-947 487.679,-937.653 480.889,-928.708"/>
<polygon fill="#9a32cd" stroke="#9a32cd" points="449.969,-939.268 449.111,-928.708 443.196,-937.498 449.969,-939.268"/>
<text text-anchor="middle" x="465" y="-951" font-family="FreeSans" font-size="10.00"> ZERO</text>
</g>
<!-- Node11 -->
<g id="node23" class="node"><title>Node11</title>
<a xlink:href="class_urho3_d_1_1_hash_map.html" target="_top" xlink:title="Urho3D::HashMap\&lt; Urho3D\l::StringHash, Urho3D::\lHashSet\&lt; Urho3D::Object * \&gt; \&gt;">
<polygon fill="none" stroke="black" points="636.5,-276.5 636.5,-323.5 809.5,-323.5 809.5,-276.5 636.5,-276.5"/>
<text text-anchor="start" x="644.5" y="-310.5" font-family="FreeSans" font-size="10.00">Urho3D::HashMap&lt; Urho3D</text>
<text text-anchor="start" x="644.5" y="-297.5" font-family="FreeSans" font-size="10.00">::StringHash, Urho3D::</text>
<text text-anchor="middle" x="723" y="-284.5" font-family="FreeSans" font-size="10.00">HashSet&lt; Urho3D::Object * &gt; &gt;</text>
</a>
</g>
<!-- Node11&#45;&gt;Node6 -->
<g id="edge26" class="edge"><title>Node11&#45;&gt;Node6</title>
<path fill="none" stroke="#9a32cd" stroke-dasharray="5,2" d="M819.486,-319.415C879.492,-331.489 954.107,-346.503 1002.14,-356.168"/>
<polygon fill="#9a32cd" stroke="#9a32cd" points="820.101,-315.969 809.607,-317.427 818.72,-322.831 820.101,-315.969"/>
<text text-anchor="middle" x="902" y="-351" font-family="FreeSans" font-size="10.00"> eventReceivers_</text>
</g>
<!-- Node12 -->
<g id="node25" class="node"><title>Node12</title>
<a xlink:href="class_urho3_d_1_1_hash_base.html" target="_top" xlink:title="Hash set/map base class.">
<polygon fill="none" stroke="black" points="411,-217.5 411,-238.5 519,-238.5 519,-217.5 411,-217.5"/>
<text text-anchor="middle" x="465" y="-225.5" font-family="FreeSans" font-size="10.00">Urho3D::HashBase</text>
</a>
</g>
<!-- Node12&#45;&gt;Node11 -->
<g id="edge28" class="edge"><title>Node12&#45;&gt;Node11</title>
<path fill="none" stroke="midnightblue" d="M512.812,-241.343C548.061,-251.18 596.937,-264.82 638.687,-276.471"/>
<polygon fill="midnightblue" stroke="midnightblue" points="513.365,-237.863 502.792,-238.547 511.483,-244.606 513.365,-237.863"/>
</g>
<!-- Node15 -->
<g id="node33" class="node"><title>Node15</title>
<a xlink:href="class_urho3_d_1_1_hash_map.html" target="_top" xlink:title="Urho3D::HashMap\&lt; Urho3D\l::Object *, Urho3D::HashMap\l\&lt; Urho3D::StringHash, Urho3D\l::HashSet\&lt; Urho3D::Object * \&gt; \&gt; \&gt;">
<polygon fill="none" stroke="black" points="627.5,-198 627.5,-258 818.5,-258 818.5,-198 627.5,-198"/>
<text text-anchor="start" x="635.5" y="-245" font-family="FreeSans" font-size="10.00">Urho3D::HashMap&lt; Urho3D</text>
<text text-anchor="start" x="635.5" y="-232" font-family="FreeSans" font-size="10.00">::Object *, Urho3D::HashMap</text>
<text text-anchor="start" x="635.5" y="-219" font-family="FreeSans" font-size="10.00">&lt; Urho3D::StringHash, Urho3D</text>
<text text-anchor="middle" x="723" y="-206" font-family="FreeSans" font-size="10.00">::HashSet&lt; Urho3D::Object * &gt; &gt; &gt;</text>
</a>
</g>
<!-- Node12&#45;&gt;Node15 -->
<g id="edge40" class="edge"><title>Node12&#45;&gt;Node15</title>
<path fill="none" stroke="midnightblue" d="M529.283,-228C558.878,-228 594.608,-228 627.28,-228"/>
<polygon fill="midnightblue" stroke="midnightblue" points="529.085,-224.5 519.085,-228 529.085,-231.5 529.085,-224.5"/>
</g>
<!-- Node16 -->
<g id="node36" class="node"><title>Node16</title>
<a xlink:href="class_urho3_d_1_1_hash_map.html" target="_top" xlink:title="Urho3D::HashMap\&lt; Urho3D\l::StringHash, Urho3D::\lSharedPtr\&lt; Urho3D::Object \&gt; \&gt;">
<polygon fill="none" stroke="black" points="637,-132.5 637,-179.5 809,-179.5 809,-132.5 637,-132.5"/>
<text text-anchor="start" x="645" y="-166.5" font-family="FreeSans" font-size="10.00">Urho3D::HashMap&lt; Urho3D</text>
<text text-anchor="start" x="645" y="-153.5" font-family="FreeSans" font-size="10.00">::StringHash, Urho3D::</text>
<text text-anchor="middle" x="723" y="-140.5" font-family="FreeSans" font-size="10.00">SharedPtr&lt; Urho3D::Object &gt; &gt;</text>
</a>
</g>
<!-- Node12&#45;&gt;Node16 -->
<g id="edge44" class="edge"><title>Node12&#45;&gt;Node16</title>
<path fill="none" stroke="midnightblue" d="M512.812,-214.657C548.061,-204.82 596.937,-191.18 638.687,-179.529"/>
<polygon fill="midnightblue" stroke="midnightblue" points="511.483,-211.394 502.792,-217.453 513.365,-218.137 511.483,-211.394"/>
</g>
<!-- Node18 -->
<g id="node42" class="node"><title>Node18</title>
<a xlink:href="class_urho3_d_1_1_hash_map.html" target="_top" xlink:title="Urho3D::HashMap\&lt; Urho3D\l::StringHash, Urho3D::\lSharedPtr\&lt; Urho3D::ObjectFactory \&gt; \&gt;">
<polygon fill="none" stroke="black" points="620,-0.5 620,-47.5 826,-47.5 826,-0.5 620,-0.5"/>
<text text-anchor="start" x="628" y="-34.5" font-family="FreeSans" font-size="10.00">Urho3D::HashMap&lt; Urho3D</text>
<text text-anchor="start" x="628" y="-21.5" font-family="FreeSans" font-size="10.00">::StringHash, Urho3D::</text>
<text text-anchor="middle" x="723" y="-8.5" font-family="FreeSans" font-size="10.00">SharedPtr&lt; Urho3D::ObjectFactory &gt; &gt;</text>
</a>
</g>
<!-- Node12&#45;&gt;Node18 -->
<g id="edge52" class="edge"><title>Node12&#45;&gt;Node18</title>
<path fill="none" stroke="midnightblue" d="M476.438,-208.901C499.025,-172.969 553.024,-95.4758 620,-57 626.024,-53.5392 632.459,-50.3895 639.059,-47.5332"/>
<polygon fill="midnightblue" stroke="midnightblue" points="473.417,-207.132 471.148,-217.481 479.375,-210.805 473.417,-207.132"/>
</g>
<!-- Node19 -->
<g id="node45" class="node"><title>Node19</title>
<a xlink:href="class_urho3_d_1_1_hash_map.html" target="_top" xlink:title="Urho3D::HashMap\&lt; Urho3D\l::String, Urho3D::Vector\l\&lt; Urho3D::StringHash \&gt; \&gt;">
<polygon fill="none" stroke="black" points="647,-342.5 647,-389.5 799,-389.5 799,-342.5 647,-342.5"/>
<text text-anchor="start" x="655" y="-376.5" font-family="FreeSans" font-size="10.00">Urho3D::HashMap&lt; Urho3D</text>
<text text-anchor="start" x="655" y="-363.5" font-family="FreeSans" font-size="10.00">::String, Urho3D::Vector</text>
<text text-anchor="middle" x="723" y="-350.5" font-family="FreeSans" font-size="10.00">&lt; Urho3D::StringHash &gt; &gt;</text>
</a>
</g>
<!-- Node12&#45;&gt;Node19 -->
<g id="edge56" class="edge"><title>Node12&#45;&gt;Node19</title>
<path fill="none" stroke="midnightblue" d="M485.971,-245.095C514.702,-267.818 568.613,-308.004 620,-333 628.527,-337.148 637.698,-340.943 646.927,-344.364"/>
<polygon fill="midnightblue" stroke="midnightblue" points="487.89,-242.148 477.893,-238.64 483.52,-247.617 487.89,-242.148"/>
</g>
<!-- Node20 -->
<g id="node48" class="node"><title>Node20</title>
<a xlink:href="class_urho3_d_1_1_hash_map.html" target="_top" xlink:title="Urho3D::HashMap\&lt; Urho3D\l::StringHash, Urho3D::\lVector\&lt; Urho3D::AttributeInfo \&gt; \&gt;">
<polygon fill="none" stroke="black" points="631.5,-66.5 631.5,-113.5 814.5,-113.5 814.5,-66.5 631.5,-66.5"/>
<text text-anchor="start" x="639.5" y="-100.5" font-family="FreeSans" font-size="10.00">Urho3D::HashMap&lt; Urho3D</text>
<text text-anchor="start" x="639.5" y="-87.5" font-family="FreeSans" font-size="10.00">::StringHash, Urho3D::</text>
<text text-anchor="middle" x="723" y="-74.5" font-family="FreeSans" font-size="10.00">Vector&lt; Urho3D::AttributeInfo &gt; &gt;</text>
</a>
</g>
<!-- Node12&#45;&gt;Node20 -->
<g id="edge60" class="edge"><title>Node12&#45;&gt;Node20</title>
<path fill="none" stroke="midnightblue" d="M485.971,-210.905C514.702,-188.182 568.613,-147.996 620,-123 627.008,-119.591 634.45,-116.421 642.002,-113.5"/>
<polygon fill="midnightblue" stroke="midnightblue" points="483.52,-208.383 477.893,-217.36 487.89,-213.852 483.52,-208.383"/>
</g>
<!-- Node25 -->
<g id="node63" class="node"><title>Node25</title>
<a xlink:href="class_urho3_d_1_1_hash_map.html" target="_top" xlink:title="Urho3D::HashMap\&lt; Urho3D\l::StringHash, Urho3D::\lAnimationTrack \&gt;">
<polygon fill="none" stroke="black" points="647,-599.5 647,-646.5 799,-646.5 799,-599.5 647,-599.5"/>
<text text-anchor="start" x="655" y="-633.5" font-family="FreeSans" font-size="10.00">Urho3D::HashMap&lt; Urho3D</text>
<text text-anchor="start" x="655" y="-620.5" font-family="FreeSans" font-size="10.00">::StringHash, Urho3D::</text>
<text text-anchor="middle" x="723" y="-607.5" font-family="FreeSans" font-size="10.00">AnimationTrack &gt;</text>
</a>
</g>
<!-- Node12&#45;&gt;Node25 -->
<g id="edge80" class="edge"><title>Node12&#45;&gt;Node25</title>
<path fill="none" stroke="midnightblue" d="M471.077,-248.367C487.812,-301.933 538.786,-449.337 620,-547 637.335,-567.846 661.54,-586.084 682.13,-599.465"/>
<polygon fill="midnightblue" stroke="midnightblue" points="474.385,-247.214 468.107,-238.679 467.692,-249.266 474.385,-247.214"/>
</g>
<!-- Node13 -->
<g id="node27" class="node"><title>Node13</title>
<a xlink:href="struct_urho3_d_1_1_hash_node_base.html" target="_top" xlink:title="Hash set/map node base class.">
<polygon fill="none" stroke="black" points="188,-252.5 188,-273.5 322,-273.5 322,-252.5 188,-252.5"/>
<text text-anchor="middle" x="255" y="-260.5" font-family="FreeSans" font-size="10.00">Urho3D::HashNodeBase</text>
</a>
</g>
<!-- Node13&#45;&gt;Node12 -->
<g id="edge30" class="edge"><title>Node13&#45;&gt;Node12</title>
<path fill="none" stroke="#9a32cd" stroke-dasharray="5,2" d="M327.895,-250.851C355.169,-246.305 385.641,-241.227 410.918,-237.014"/>
<polygon fill="#9a32cd" stroke="#9a32cd" points="327.295,-247.402 318.007,-252.499 328.446,-254.307 327.295,-247.402"/>
<text text-anchor="middle" x="365" y="-279" font-family="FreeSans" font-size="10.00"> ptrs_</text>
<text text-anchor="middle" x="365" y="-266" font-family="FreeSans" font-size="10.00">tail_</text>
<text text-anchor="middle" x="365" y="-253" font-family="FreeSans" font-size="10.00">head_</text>
</g>
<!-- Node13&#45;&gt;Node13 -->
<g id="edge32" class="edge"><title>Node13&#45;&gt;Node13</title>
<path fill="none" stroke="#9a32cd" stroke-dasharray="5,2" d="M234.728,-283.427C236.292,-288.349 243.049,-292 255,-292 274.121,-292 279.947,-282.653 272.478,-273.708"/>
<polygon fill="#9a32cd" stroke="#9a32cd" points="238.123,-284.286 237.522,-273.708 231.395,-282.352 238.123,-284.286"/>
<text text-anchor="middle" x="255" y="-322" font-family="FreeSans" font-size="10.00"> next_</text>
<text text-anchor="middle" x="255" y="-309" font-family="FreeSans" font-size="10.00">prev_</text>
<text text-anchor="middle" x="255" y="-296" font-family="FreeSans" font-size="10.00">down_</text>
</g>
<!-- Node14 -->
<g id="node30" class="node"><title>Node14</title>
<a xlink:href="struct_urho3_d_1_1_allocator_block.html" target="_top" xlink:title="Allocator memory block.">
<polygon fill="none" stroke="red" points="191.5,-181.5 191.5,-202.5 318.5,-202.5 318.5,-181.5 191.5,-181.5"/>
<text text-anchor="middle" x="255" y="-189.5" font-family="FreeSans" font-size="10.00">Urho3D::AllocatorBlock</text>
</a>
</g>
<!-- Node14&#45;&gt;Node12 -->
<g id="edge34" class="edge"><title>Node14&#45;&gt;Node12</title>
<path fill="none" stroke="#9a32cd" stroke-dasharray="5,2" d="M326.307,-204.224C353.927,-208.959 385.026,-214.29 410.765,-218.703"/>
<polygon fill="#9a32cd" stroke="#9a32cd" points="326.753,-200.75 316.305,-202.509 325.57,-207.649 326.753,-200.75"/>
<text text-anchor="middle" x="365" y="-219" font-family="FreeSans" font-size="10.00"> allocator_</text>
</g>
<!-- Node14&#45;&gt;Node14 -->
<g id="edge36" class="edge"><title>Node14&#45;&gt;Node14</title>
<path fill="none" stroke="#9a32cd" stroke-dasharray="5,2" d="M234.728,-212.427C236.292,-217.349 243.049,-221 255,-221 274.121,-221 279.947,-211.653 272.478,-202.708"/>
<polygon fill="#9a32cd" stroke="#9a32cd" points="238.123,-213.286 237.522,-202.708 231.395,-211.352 238.123,-213.286"/>
<text text-anchor="middle" x="255" y="-225" font-family="FreeSans" font-size="10.00"> next_</text>
</g>
<!-- Node15&#45;&gt;Node6 -->
<g id="edge38" class="edge"><title>Node15&#45;&gt;Node6</title>
<path fill="none" stroke="#9a32cd" stroke-dasharray="5,2" d="M828.35,-258.253C870.188,-271.739 918.207,-289.097 960,-309 988.444,-322.546 1018.99,-343.048 1036.47,-355.419"/>
<polygon fill="#9a32cd" stroke="#9a32cd" points="829.282,-254.876 818.691,-255.172 827.155,-261.545 829.282,-254.876"/>
<text text-anchor="middle" x="902" y="-313" font-family="FreeSans" font-size="10.00"> specificEventReceivers_</text>
</g>
<!-- Node16&#45;&gt;Node6 -->
<g id="edge42" class="edge"><title>Node16&#45;&gt;Node6</title>
<path fill="none" stroke="#9a32cd" stroke-dasharray="5,2" d="M818.7,-178.62C864.735,-192.85 918.739,-214.764 960,-247 1000.58,-278.704 1032.82,-332.552 1045.35,-355.325"/>
<polygon fill="#9a32cd" stroke="#9a32cd" points="819.59,-175.232 809.005,-175.699 817.57,-181.935 819.59,-175.232"/>
<text text-anchor="middle" x="902" y="-251" font-family="FreeSans" font-size="10.00"> subsystems_</text>
</g>
<!-- Node17&#45;&gt;Node6 -->
<g id="edge46" class="edge"><title>Node17&#45;&gt;Node6</title>
<path fill="none" stroke="#9a32cd" stroke-dasharray="5,2" d="M796.663,-465.177C844.362,-456.102 907.197,-441.445 960,-420 988.595,-408.387 1018.85,-388.76 1036.27,-376.639"/>
<polygon fill="#9a32cd" stroke="#9a32cd" points="795.913,-461.757 786.723,-467.03 797.195,-468.638 795.913,-461.757"/>
<text text-anchor="middle" x="902" y="-459" font-family="FreeSans" font-size="10.00"> eventDataMaps_</text>
</g>
<!-- Node18&#45;&gt;Node6 -->
<g id="edge50" class="edge"><title>Node18&#45;&gt;Node6</title>
<path fill="none" stroke="#9a32cd" stroke-dasharray="5,2" d="M836.311,-31.816C879.749,-40.1653 926.798,-56.4998 960,-88 1001.08,-126.973 1039.64,-308.995 1048.9,-355.275"/>
<polygon fill="#9a32cd" stroke="#9a32cd" points="836.696,-28.3291 826.235,-30.0068 835.459,-35.2189 836.696,-28.3291"/>
<text text-anchor="middle" x="902" y="-92" font-family="FreeSans" font-size="10.00"> factories_</text>
</g>
<!-- Node19&#45;&gt;Node6 -->
<g id="edge54" class="edge"><title>Node19&#45;&gt;Node6</title>
<path fill="none" stroke="#9a32cd" stroke-dasharray="5,2" d="M809.178,-366C870.792,-366 951.482,-366 1002.29,-366"/>
<polygon fill="#9a32cd" stroke="#9a32cd" points="809.074,-362.5 799.074,-366 809.074,-369.5 809.074,-362.5"/>
<text text-anchor="middle" x="902" y="-370" font-family="FreeSans" font-size="10.00"> objectCategories_</text>
</g>
<!-- Node20&#45;&gt;Node6 -->
<g id="edge58" class="edge"><title>Node20&#45;&gt;Node6</title>
<path fill="none" stroke="#9a32cd" stroke-dasharray="5,2" d="M824.602,-99.4302C870.478,-108.275 922.637,-125.302 960,-158 1023.18,-213.29 1044.22,-320.567 1049.51,-355.046"/>
<polygon fill="#9a32cd" stroke="#9a32cd" points="825.078,-95.9594 814.613,-97.6124 823.825,-102.846 825.078,-95.9594"/>
<text text-anchor="middle" x="902" y="-175" font-family="FreeSans" font-size="10.00"> attributes_</text>
<text text-anchor="middle" x="902" y="-162" font-family="FreeSans" font-size="10.00">networkAttributes_</text>
</g>
<!-- Node21&#45;&gt;Node3 -->
<g id="edge62" class="edge"><title>Node21&#45;&gt;Node3</title>
<path fill="none" stroke="#9a32cd" stroke-dasharray="5,2" d="M1020.54,-779.074C1003.65,-767.741 981.709,-755.192 960,-749 799.817,-703.314 598.562,-718.763 510.158,-728.977"/>
<polygon fill="#9a32cd" stroke="#9a32cd" points="1018.67,-782.038 1028.89,-784.849 1022.66,-776.281 1018.67,-782.038"/>
<text text-anchor="middle" x="723" y="-728" font-family="FreeSans" font-size="10.00"> eventHandlers_</text>
</g>
<!-- Node22 -->
<g id="node54" class="node"><title>Node22</title>
<a xlink:href="class_urho3_d_1_1_timer.html" target="_top" xlink:title="Low&#45;resolution operating system timer.">
<polygon fill="none" stroke="black" points="422,-867.5 422,-888.5 508,-888.5 508,-867.5 422,-867.5"/>
<text text-anchor="middle" x="465" y="-875.5" font-family="FreeSans" font-size="10.00">Urho3D::Timer</text>
</a>
</g>
<!-- Node22&#45;&gt;Node2 -->
<g id="edge66" class="edge"><title>Node22&#45;&gt;Node2</title>
<path fill="none" stroke="#9a32cd" stroke-dasharray="5,2" d="M518.297,-884.404C563.124,-889.79 626.826,-897.444 671.22,-902.778"/>
<polygon fill="#9a32cd" stroke="#9a32cd" points="518.53,-880.907 508.183,-883.189 517.694,-887.857 518.53,-880.907"/>
<text text-anchor="middle" x="571" y="-899" font-family="FreeSans" font-size="10.00"> useTimer_</text>
</g>
<!-- Node23 -->
<g id="node56" class="node"><title>Node23</title>
<a xlink:href="class_urho3_d_1_1_string.html" target="_top" xlink:title="String class.">
<polygon fill="none" stroke="black" points="421,-997.5 421,-1018.5 509,-1018.5 509,-997.5 421,-997.5"/>
<text text-anchor="middle" x="465" y="-1005.5" font-family="FreeSans" font-size="10.00">Urho3D::String</text>
</a>
</g>
<!-- Node23&#45;&gt;Node1 -->
<g id="edge82" class="edge"><title>Node23&#45;&gt;Node1</title>
<path fill="none" stroke="#9a32cd" stroke-dasharray="5,2" d="M519.234,-1006.68C590.164,-1004.3 718.103,-997.739 826,-980 886.629,-970.032 901.625,-965.172 960,-946 983.332,-938.337 1009.21,-927.588 1027.38,-919.649"/>
<polygon fill="#9a32cd" stroke="#9a32cd" points="519.074,-1003.18 509.191,-1007 519.299,-1010.18 519.074,-1003.18"/>
<text text-anchor="middle" x="723" y="-1005" font-family="FreeSans" font-size="10.00"> animationName_</text>
</g>
<!-- Node23&#45;&gt;Node2 -->
<g id="edge68" class="edge"><title>Node23&#45;&gt;Node2</title>
<path fill="none" stroke="#9a32cd" stroke-dasharray="5,2" d="M502.202,-993.725C554.64,-973.603 649.073,-937.367 695.588,-919.519"/>
<polygon fill="#9a32cd" stroke="#9a32cd" points="500.693,-990.555 492.611,-997.405 503.201,-997.09 500.693,-990.555"/>
<text text-anchor="middle" x="571" y="-983" font-family="FreeSans" font-size="10.00"> name_</text>
</g>
<!-- Node23&#45;&gt;Node23 -->
<g id="edge70" class="edge"><title>Node23&#45;&gt;Node23</title>
<path fill="none" stroke="#9a32cd" stroke-dasharray="5,2" d="M446.571,-1028.43C447.993,-1033.35 454.136,-1037 465,-1037 482.383,-1037 487.679,-1027.65 480.889,-1018.71"/>
<polygon fill="#9a32cd" stroke="#9a32cd" points="449.969,-1029.27 449.111,-1018.71 443.196,-1027.5 449.969,-1029.27"/>
<text text-anchor="middle" x="465" y="-1041" font-family="FreeSans" font-size="10.00"> EMPTY</text>
</g>
<!-- Node24&#45;&gt;Node1 -->
<g id="edge74" class="edge"><title>Node24&#45;&gt;Node1</title>
<path fill="none" stroke="#9a32cd" stroke-dasharray="5,2" d="M801.501,-696.059C810.615,-700.316 819.1,-705.839 826,-713 847.99,-735.823 820.934,-760.266 844,-782 882.253,-818.044 915.226,-777.472 960,-805 971.058,-811.799 969.65,-818.062 978,-828 999.798,-853.944 1026.8,-883.209 1041.08,-898.466"/>
<polygon fill="#9a32cd" stroke="#9a32cd" points="802.792,-692.805 792.214,-692.21 800.112,-699.272 802.792,-692.805"/>
<text text-anchor="middle" x="902" y="-809" font-family="FreeSans" font-size="10.00"> triggers_</text>
</g>
<!-- Node25&#45;&gt;Node1 -->
<g id="edge78" class="edge"><title>Node25&#45;&gt;Node1</title>
<path fill="none" stroke="#9a32cd" stroke-dasharray="5,2" d="M808.653,-647.67C814.633,-650.232 820.474,-653.007 826,-656 893.502,-692.568 917.728,-700.915 960,-765 976.034,-789.308 963.888,-802.527 978,-828 993.962,-856.814 1021.95,-883.879 1038.24,-898.261"/>
<polygon fill="#9a32cd" stroke="#9a32cd" points="809.749,-644.337 799.167,-643.818 807.115,-650.823 809.749,-644.337"/>
<text text-anchor="middle" x="902" y="-769" font-family="FreeSans" font-size="10.00"> tracks_</text>
</g>
</g>
</svg>
