<?xml version="1.0" encoding="UTF-8" standalone="no"?>
<!DOCTYPE svg PUBLIC "-//W3C//DTD SVG 1.1//EN"
 "http://www.w3.org/Graphics/SVG/1.1/DTD/svg11.dtd">
<!-- Generated by graphviz version 2.26.3 (20100126.1600)
 -->
<!-- Title: Urho3D::Image Pages: 1 -->
<!--zoomable 864 -->
<svg id="main" version="1.1" xmlns="http://www.w3.org/2000/svg" xmlns:xlink="http://www.w3.org/1999/xlink" xml:space="preserve" onload="init(evt)">
        <defs>
                <circle id="rim" cx="0" cy="0" r="7"/>
                <circle id="rim2" cx="0" cy="0" r="3.5"/>
                <g id="zoomPlus">
                        <use xlink:href="#rim" fill="#404040">
                                <set attributeName="fill" to="#808080" begin="zoomplus.mouseover" end="zoomplus.mouseout"/>
                        </use>
                        <path d="M-4,0h8M0,-4v8" fill="none" stroke="white" stroke-width="1.5" pointer-events="none"/>
                </g>
                <g id="zoomMin">
                        <use xlink:href="#rim" fill="#404040">
                                <set attributeName="fill" to="#808080" begin="zoomminus.mouseover" end="zoomminus.mouseout"/>
                        </use>
                        <path d="M-4,0h8" fill="none" stroke="white" stroke-width="1.5" pointer-events="none"/>
                </g>
                <g id="dirArrow">
                        <path fill="none" stroke="white" stroke-width="1.5" d="M0,-3.0v7 M-2.5,-0.5L0,-3.0L2.5,-0.5"/>
                </g>
               <g id="resetDef">
                       <use xlink:href="#rim2" fill="#404040">
                               <set attributeName="fill" to="#808080" begin="reset.mouseover" end="reset.mouseout"/>
                       </use>
               </g>
        </defs>

<script type="text/javascript">
var viewWidth = 1444;
var viewHeight = 864;
var sectionId = 'dynsection-1';
</script>
<script xlink:href="svgpan.js"/>
<svg id="graph" class="graph">
<g id="viewport">
<title>Urho3D::Image</title>
<!-- Node1 -->
<g id="node1" class="node"><title>Node1</title>
<polygon fill="#bfbfbf" stroke="black" points="1108.5,-15.1827 1108.5,-36.1827 1197.5,-36.1827 1197.5,-15.1827 1108.5,-15.1827"/>
<text text-anchor="middle" x="1153" y="-23.1827" font-family="FreeSans" font-size="10.00">Urho3D::Image</text>
</g>
<!-- Node25 -->
<g id="node63" class="node"><title>Node25</title>
<a xlink:href="class_urho3_d_1_1_shared_ptr.html" target="_top" xlink:title="Urho3D::SharedPtr\&lt;\l Urho3D::Image \&gt;">
<polygon fill="none" stroke="black" points="1320,-8.68268 1320,-42.6827 1436,-42.6827 1436,-8.68268 1320,-8.68268"/>
<text text-anchor="start" x="1328" y="-29.6827" font-family="FreeSans" font-size="10.00">Urho3D::SharedPtr&lt;</text>
<text text-anchor="middle" x="1378" y="-16.6827" font-family="FreeSans" font-size="10.00"> Urho3D::Image &gt;</text>
</a>
</g>
<!-- Node1&#45;&gt;Node25 -->
<g id="edge80" class="edge"><title>Node1&#45;&gt;Node25</title>
<path fill="none" stroke="#9a32cd" stroke-dasharray="5,2" d="M1208.1,-27.7913C1219.94,-28.1627 1232.39,-28.4913 1244,-28.6827 1269.77,-29.1074 1276.23,-29.1912 1302,-28.6827 1307.81,-28.5681 1313.87,-28.4042 1319.91,-28.2115"/>
<polygon fill="#9a32cd" stroke="#9a32cd" points="1208,-24.2861 1197.89,-27.4563 1207.77,-31.2823 1208,-24.2861"/>
<text text-anchor="middle" x="1273" y="-32.6827" font-family="FreeSans" font-size="10.00"> ptr_</text>
</g>
<!-- Node2 -->
<g id="node2" class="node"><title>Node2</title>
<a xlink:href="class_urho3_d_1_1_resource.html" target="_top" xlink:title="Base class for resources.">
<polygon fill="none" stroke="black" points="773.5,-71.1827 773.5,-92.1827 876.5,-92.1827 876.5,-71.1827 773.5,-71.1827"/>
<text text-anchor="middle" x="825" y="-79.1827" font-family="FreeSans" font-size="10.00">Urho3D::Resource</text>
</a>
</g>
<!-- Node2&#45;&gt;Node1 -->
<g id="edge2" class="edge"><title>Node2&#45;&gt;Node1</title>
<path fill="none" stroke="midnightblue" d="M886.653,-71.1566C951.178,-60.14 1050.92,-43.1114 1108.27,-33.3191"/>
<polygon fill="midnightblue" stroke="midnightblue" points="885.879,-67.738 876.611,-72.8711 887.057,-74.6381 885.879,-67.738"/>
</g>
<!-- Node3 -->
<g id="node4" class="node"><title>Node3</title>
<a xlink:href="class_urho3_d_1_1_object.html" target="_top" xlink:title="Base class for objects with type identification, subsystem access and event sending/receiving capabil...">
<polygon fill="none" stroke="black" points="513,-225.183 513,-246.183 603,-246.183 603,-225.183 513,-225.183"/>
<text text-anchor="middle" x="558" y="-233.183" font-family="FreeSans" font-size="10.00">Urho3D::Object</text>
</a>
</g>
<!-- Node3&#45;&gt;Node2 -->
<g id="edge4" class="edge"><title>Node3&#45;&gt;Node2</title>
<path fill="none" stroke="midnightblue" d="M607.139,-221.214C613.07,-218.5 618.844,-215.34 624,-211.683 634.305,-204.374 632.412,-197.909 642,-189.683 693.237,-145.723 764.734,-109.423 801.344,-92.2963"/>
<polygon fill="midnightblue" stroke="midnightblue" points="605.643,-218.045 597.756,-225.12 608.334,-224.508 605.643,-218.045"/>
</g>
<!-- Node9 -->
<g id="node17" class="node"><title>Node9</title>
<a xlink:href="class_urho3_d_1_1_event_handler.html" target="_top" xlink:title="Internal helper class for invoking event handler functions.">
<polygon fill="none" stroke="black" points="763,-235.183 763,-256.183 887,-256.183 887,-235.183 763,-235.183"/>
<text text-anchor="middle" x="825" y="-243.183" font-family="FreeSans" font-size="10.00">Urho3D::EventHandler</text>
</a>
</g>
<!-- Node3&#45;&gt;Node9 -->
<g id="edge24" class="edge"><title>Node3&#45;&gt;Node9</title>
<path fill="none" stroke="#9a32cd" stroke-dasharray="5,2" d="M613.429,-237.759C657.017,-239.391 717.723,-241.665 762.935,-243.358"/>
<polygon fill="#9a32cd" stroke="#9a32cd" points="613.417,-234.256 603.293,-237.379 613.155,-241.251 613.417,-234.256"/>
<text text-anchor="middle" x="673" y="-257.683" font-family="FreeSans" font-size="10.00"> sender_</text>
<text text-anchor="middle" x="673" y="-244.683" font-family="FreeSans" font-size="10.00">receiver_</text>
</g>
<!-- Node4 -->
<g id="node6" class="node"><title>Node4</title>
<a xlink:href="class_urho3_d_1_1_ref_counted.html" target="_top" xlink:title="Base class for intrusively reference&#45;counted objects. These are noncopyable and non&#45;assignable.">
<polygon fill="none" stroke="black" points="198,-225.183 198,-246.183 312,-246.183 312,-225.183 198,-225.183"/>
<text text-anchor="middle" x="255" y="-233.183" font-family="FreeSans" font-size="10.00">Urho3D::RefCounted</text>
</a>
</g>
<!-- Node4&#45;&gt;Node3 -->
<g id="edge6" class="edge"><title>Node4&#45;&gt;Node3</title>
<path fill="none" stroke="midnightblue" d="M322.514,-235.683C380.459,-235.683 462.368,-235.683 512.736,-235.683"/>
<polygon fill="midnightblue" stroke="midnightblue" points="322.348,-232.183 312.348,-235.683 322.348,-239.183 322.348,-232.183"/>
</g>
<!-- Node6 -->
<g id="node10" class="node"><title>Node6</title>
<a xlink:href="class_urho3_d_1_1_context.html" target="_top" xlink:title="Urho3D execution context. Provides access to subsystems, object factories and attributes, and event receivers.">
<polygon fill="none" stroke="black" points="1104.5,-485.183 1104.5,-506.183 1201.5,-506.183 1201.5,-485.183 1104.5,-485.183"/>
<text text-anchor="middle" x="1153" y="-493.183" font-family="FreeSans" font-size="10.00">Urho3D::Context</text>
</a>
</g>
<!-- Node4&#45;&gt;Node6 -->
<g id="edge12" class="edge"><title>Node4&#45;&gt;Node6</title>
<path fill="none" stroke="midnightblue" d="M272.492,-253.817C309.208,-290.575 398.658,-373.442 492,-409.683 673.687,-480.224 734.993,-429.581 928,-456.683 989.049,-465.255 1058.95,-477.803 1104.42,-486.334"/>
<polygon fill="midnightblue" stroke="midnightblue" points="274.601,-250.971 265.088,-246.308 269.617,-255.886 274.601,-250.971"/>
</g>
<!-- Node5 -->
<g id="node8" class="node"><title>Node5</title>
<a xlink:href="struct_urho3_d_1_1_ref_count.html" target="_top" xlink:title="Reference count structure.">
<polygon fill="none" stroke="black" points="0,-169.183 0,-190.183 102,-190.183 102,-169.183 0,-169.183"/>
<text text-anchor="middle" x="51" y="-177.183" font-family="FreeSans" font-size="10.00">Urho3D::RefCount</text>
</a>
</g>
<!-- Node5&#45;&gt;Node4 -->
<g id="edge8" class="edge"><title>Node5&#45;&gt;Node4</title>
<path fill="none" stroke="#9a32cd" stroke-dasharray="5,2" d="M99.1191,-192.892C134.93,-202.722 183.17,-215.965 216.455,-225.102"/>
<polygon fill="#9a32cd" stroke="#9a32cd" points="99.9406,-189.488 89.3708,-190.216 98.0876,-196.238 99.9406,-189.488"/>
<text text-anchor="middle" x="145" y="-214.683" font-family="FreeSans" font-size="10.00"> refCount_</text>
</g>
<!-- Node24 -->
<g id="node60" class="node"><title>Node24</title>
<a xlink:href="class_urho3_d_1_1_shared_array_ptr.html" target="_top" xlink:title="Urho3D::SharedArrayPtr\l\&lt; unsigned char \&gt;">
<polygon fill="none" stroke="black" points="340.5,-37.6827 340.5,-71.6827 473.5,-71.6827 473.5,-37.6827 340.5,-37.6827"/>
<text text-anchor="start" x="348.5" y="-58.6827" font-family="FreeSans" font-size="10.00">Urho3D::SharedArrayPtr</text>
<text text-anchor="middle" x="407" y="-45.6827" font-family="FreeSans" font-size="10.00">&lt; unsigned char &gt;</text>
</a>
</g>
<!-- Node5&#45;&gt;Node24 -->
<g id="edge76" class="edge"><title>Node5&#45;&gt;Node24</title>
<path fill="none" stroke="#9a32cd" stroke-dasharray="5,2" d="M90.6212,-165.771C156.271,-142.72 287.399,-96.6775 358.487,-71.7168"/>
<polygon fill="#9a32cd" stroke="#9a32cd" points="89.3213,-162.518 81.0455,-169.133 91.6404,-169.122 89.3213,-162.518"/>
<text text-anchor="middle" x="145" y="-158.683" font-family="FreeSans" font-size="10.00"> refCount_</text>
</g>
<!-- Node6&#45;&gt;Node3 -->
<g id="edge10" class="edge"><title>Node6&#45;&gt;Node3</title>
<path fill="none" stroke="#9a32cd" stroke-dasharray="5,2" d="M1147.61,-475.158C1137.26,-439.988 1111.15,-368.448 1062,-331.683 986.478,-275.191 733.348,-294.142 642,-270.683 619.659,-264.945 595.479,-254.368 578.824,-246.338"/>
<polygon fill="#9a32cd" stroke="#9a32cd" points="1144.25,-476.145 1150.32,-484.827 1150.99,-474.253 1144.25,-476.145"/>
<text text-anchor="middle" x="825" y="-297.683" font-family="FreeSans" font-size="10.00"> context_</text>
</g>
<!-- Node7 -->
<g id="node13" class="node"><title>Node7</title>
<a xlink:href="class_urho3_d_1_1_p_o_d_vector.html" target="_top" xlink:title="Urho3D::PODVector\&lt;\l Urho3D::Object * \&gt;">
<polygon fill="none" stroke="black" points="765.5,-323.683 765.5,-357.683 884.5,-357.683 884.5,-323.683 765.5,-323.683"/>
<text text-anchor="start" x="773.5" y="-344.683" font-family="FreeSans" font-size="10.00">Urho3D::PODVector&lt;</text>
<text text-anchor="middle" x="825" y="-331.683" font-family="FreeSans" font-size="10.00"> Urho3D::Object * &gt;</text>
</a>
</g>
<!-- Node7&#45;&gt;Node6 -->
<g id="edge14" class="edge"><title>Node7&#45;&gt;Node6</title>
<path fill="none" stroke="#9a32cd" stroke-dasharray="5,2" d="M894.771,-334.583C944.653,-333.484 1011.6,-338.926 1062,-368.683 1109.18,-396.539 1138.56,-459.507 1148.86,-484.833"/>
<polygon fill="#9a32cd" stroke="#9a32cd" points="894.601,-331.086 884.715,-334.897 894.82,-338.083 894.601,-331.086"/>
<text text-anchor="middle" x="1004" y="-372.683" font-family="FreeSans" font-size="10.00"> eventSenders_</text>
</g>
<!-- Node8 -->
<g id="node15" class="node"><title>Node8</title>
<a xlink:href="class_urho3_d_1_1_vector_base.html" target="_top" xlink:title="Vector base class.">
<polygon fill="none" stroke="black" points="501,-379.183 501,-400.183 615,-400.183 615,-379.183 501,-379.183"/>
<text text-anchor="middle" x="558" y="-387.183" font-family="FreeSans" font-size="10.00">Urho3D::VectorBase</text>
</a>
</g>
<!-- Node8&#45;&gt;Node7 -->
<g id="edge16" class="edge"><title>Node8&#45;&gt;Node7</title>
<path fill="none" stroke="midnightblue" d="M625.367,-377.319C668.351,-369.431 723.573,-359.297 765.038,-351.687"/>
<polygon fill="midnightblue" stroke="midnightblue" points="624.482,-373.923 615.278,-379.171 625.746,-380.808 624.482,-373.923"/>
</g>
<!-- Node17 -->
<g id="node39" class="node"><title>Node17</title>
<a xlink:href="class_urho3_d_1_1_p_o_d_vector.html" target="_top" xlink:title="Urho3D::PODVector\&lt;\l Urho3D::HashMap * \&gt;">
<polygon fill="none" stroke="black" points="761.5,-375.683 761.5,-409.683 888.5,-409.683 888.5,-375.683 761.5,-375.683"/>
<text text-anchor="start" x="769.5" y="-396.683" font-family="FreeSans" font-size="10.00">Urho3D::PODVector&lt;</text>
<text text-anchor="middle" x="825" y="-383.683" font-family="FreeSans" font-size="10.00"> Urho3D::HashMap * &gt;</text>
</a>
</g>
<!-- Node8&#45;&gt;Node17 -->
<g id="edge48" class="edge"><title>Node8&#45;&gt;Node17</title>
<path fill="none" stroke="midnightblue" d="M625.344,-390.439C667.042,-390.908 720.263,-391.506 761.27,-391.967"/>
<polygon fill="midnightblue" stroke="midnightblue" points="625.317,-386.939 615.278,-390.326 625.238,-393.938 625.317,-386.939"/>
</g>
<!-- Node9&#45;&gt;Node6 -->
<g id="edge18" class="edge"><title>Node9&#45;&gt;Node6</title>
<path fill="none" stroke="#9a32cd" stroke-dasharray="5,2" d="M897.403,-250.539C962.218,-255.482 1049,-263.809 1062,-273.683 1133.64,-328.111 1149.17,-448.736 1152.28,-485.103"/>
<polygon fill="#9a32cd" stroke="#9a32cd" points="897.438,-247.032 887.204,-249.775 896.915,-254.012 897.438,-247.032"/>
<text text-anchor="middle" x="1004" y="-277.683" font-family="FreeSans" font-size="10.00"> eventHandler_</text>
</g>
<!-- Node21 -->
<g id="node51" class="node"><title>Node21</title>
<a xlink:href="class_urho3_d_1_1_linked_list.html" target="_top" xlink:title="Urho3D::LinkedList\l\&lt; Urho3D::EventHandler \&gt;">
<polygon fill="none" stroke="black" points="1080,-202.683 1080,-236.683 1226,-236.683 1226,-202.683 1080,-202.683"/>
<text text-anchor="start" x="1088" y="-223.683" font-family="FreeSans" font-size="10.00">Urho3D::LinkedList</text>
<text text-anchor="middle" x="1153" y="-210.683" font-family="FreeSans" font-size="10.00">&lt; Urho3D::EventHandler &gt;</text>
</a>
</g>
<!-- Node9&#45;&gt;Node21 -->
<g id="edge64" class="edge"><title>Node9&#45;&gt;Node21</title>
<path fill="none" stroke="#9a32cd" stroke-dasharray="5,2" d="M897.298,-239.952C951.467,-235.658 1025.31,-229.805 1079.71,-225.492"/>
<polygon fill="#9a32cd" stroke="#9a32cd" points="896.772,-236.482 887.08,-240.762 897.325,-243.46 896.772,-236.482"/>
<text text-anchor="middle" x="1004" y="-239.683" font-family="FreeSans" font-size="10.00"> head_</text>
</g>
<!-- Node10 -->
<g id="node19" class="node"><title>Node10</title>
<a xlink:href="struct_urho3_d_1_1_linked_list_node.html" target="_top" xlink:title="Singly&#45;linked list node base class.">
<polygon fill="none" stroke="black" points="492,-307.183 492,-328.183 624,-328.183 624,-307.183 492,-307.183"/>
<text text-anchor="middle" x="558" y="-315.183" font-family="FreeSans" font-size="10.00">Urho3D::LinkedListNode</text>
</a>
</g>
<!-- Node10&#45;&gt;Node9 -->
<g id="edge20" class="edge"><title>Node10&#45;&gt;Node9</title>
<path fill="none" stroke="midnightblue" d="M602.847,-304.293C635.733,-294.606 681.519,-281.391 722,-270.683 740.857,-265.694 761.757,-260.551 779.775,-256.236"/>
<polygon fill="midnightblue" stroke="midnightblue" points="601.674,-300.99 593.075,-307.18 603.657,-307.703 601.674,-300.99"/>
</g>
<!-- Node10&#45;&gt;Node10 -->
<g id="edge22" class="edge"><title>Node10&#45;&gt;Node10</title>
<path fill="none" stroke="#9a32cd" stroke-dasharray="5,2" d="M536.991,-338.109C538.612,-343.032 545.615,-346.683 558,-346.683 577.816,-346.683 583.854,-337.336 576.113,-328.391"/>
<polygon fill="#9a32cd" stroke="#9a32cd" points="540.385,-338.974 539.887,-328.391 533.677,-336.975 540.385,-338.974"/>
<text text-anchor="middle" x="558" y="-350.683" font-family="FreeSans" font-size="10.00"> next_</text>
</g>
<!-- Node11 -->
<g id="node23" class="node"><title>Node11</title>
<a xlink:href="class_urho3_d_1_1_string_hash.html" target="_top" xlink:title="32&#45;bit hash value for a string.">
<polygon fill="none" stroke="black" points="501.5,-150.183 501.5,-171.183 614.5,-171.183 614.5,-150.183 501.5,-150.183"/>
<text text-anchor="middle" x="558" y="-158.183" font-family="FreeSans" font-size="10.00">Urho3D::StringHash</text>
</a>
</g>
<!-- Node11&#45;&gt;Node2 -->
<g id="edge72" class="edge"><title>Node11&#45;&gt;Node2</title>
<path fill="none" stroke="#9a32cd" stroke-dasharray="5,2" d="M605.443,-146.306C611.897,-143.535 618.265,-140.335 624,-136.683 633.543,-130.605 632.031,-124.032 642,-118.683 682.844,-96.7684 735.159,-87.7915 773.384,-84.1363"/>
<polygon fill="#9a32cd" stroke="#9a32cd" points="603.992,-143.117 595.991,-150.063 606.577,-149.622 603.992,-143.117"/>
<text text-anchor="middle" x="673" y="-122.683" font-family="FreeSans" font-size="10.00"> nameHash_</text>
</g>
<!-- Node11&#45;&gt;Node9 -->
<g id="edge26" class="edge"><title>Node11&#45;&gt;Node9</title>
<path fill="none" stroke="#9a32cd" stroke-dasharray="5,2" d="M593.749,-175.085C626.711,-188.046 677.17,-207.089 722,-220.683 739.697,-226.049 759.374,-231.055 776.748,-235.156"/>
<polygon fill="#9a32cd" stroke="#9a32cd" points="594.694,-171.695 584.107,-171.271 592.118,-178.204 594.694,-171.695"/>
<text text-anchor="middle" x="673" y="-218.683" font-family="FreeSans" font-size="10.00"> eventType_</text>
</g>
<!-- Node11&#45;&gt;Node11 -->
<g id="edge28" class="edge"><title>Node11&#45;&gt;Node11</title>
<path fill="none" stroke="#9a32cd" stroke-dasharray="5,2" d="M536.991,-181.109C538.612,-186.032 545.615,-189.683 558,-189.683 577.816,-189.683 583.854,-180.336 576.113,-171.391"/>
<polygon fill="#9a32cd" stroke="#9a32cd" points="540.385,-181.974 539.887,-171.391 533.677,-179.975 540.385,-181.974"/>
<text text-anchor="middle" x="558" y="-193.683" font-family="FreeSans" font-size="10.00"> ZERO</text>
</g>
<!-- Node12 -->
<g id="node26" class="node"><title>Node12</title>
<a xlink:href="class_urho3_d_1_1_hash_map.html" target="_top" xlink:title="Urho3D::HashMap\&lt; Urho3D\l::StringHash, Urho3D::\lHashSet\&lt; Urho3D::Object * \&gt; \&gt;">
<polygon fill="none" stroke="black" points="738.5,-544.183 738.5,-591.183 911.5,-591.183 911.5,-544.183 738.5,-544.183"/>
<text text-anchor="start" x="746.5" y="-578.183" font-family="FreeSans" font-size="10.00">Urho3D::HashMap&lt; Urho3D</text>
<text text-anchor="start" x="746.5" y="-565.183" font-family="FreeSans" font-size="10.00">::StringHash, Urho3D::</text>
<text text-anchor="middle" x="825" y="-552.183" font-family="FreeSans" font-size="10.00">HashSet&lt; Urho3D::Object * &gt; &gt;</text>
</a>
</g>
<!-- Node12&#45;&gt;Node6 -->
<g id="edge30" class="edge"><title>Node12&#45;&gt;Node6</title>
<path fill="none" stroke="#9a32cd" stroke-dasharray="5,2" d="M921.548,-546.489C981.934,-533.234 1057.1,-516.735 1105.07,-506.204"/>
<polygon fill="#9a32cd" stroke="#9a32cd" points="920.624,-543.109 911.607,-548.671 922.125,-549.946 920.624,-543.109"/>
<text text-anchor="middle" x="1004" y="-543.683" font-family="FreeSans" font-size="10.00"> eventReceivers_</text>
</g>
<!-- Node13 -->
<g id="node28" class="node"><title>Node13</title>
<a xlink:href="class_urho3_d_1_1_hash_base.html" target="_top" xlink:title="Hash set/map base class.">
<polygon fill="none" stroke="red" points="504,-655.183 504,-676.183 612,-676.183 612,-655.183 504,-655.183"/>
<text text-anchor="middle" x="558" y="-663.183" font-family="FreeSans" font-size="10.00">Urho3D::HashBase</text>
</a>
</g>
<!-- Node13&#45;&gt;Node12 -->
<g id="edge32" class="edge"><title>Node13&#45;&gt;Node12</title>
<path fill="none" stroke="midnightblue" d="M592.723,-651.133C625.742,-637.485 676.922,-616.817 722,-600.683 730.84,-597.519 740.155,-594.332 749.424,-591.252"/>
<polygon fill="midnightblue" stroke="midnightblue" points="590.981,-648.066 583.085,-655.13 593.663,-654.532 590.981,-648.066"/>
</g>
<!-- Node15 -->
<g id="node33" class="node"><title>Node15</title>
<a xlink:href="class_urho3_d_1_1_hash_map.html" target="_top" xlink:title="Urho3D::HashMap\&lt; Urho3D\l::Object *, Urho3D::HashMap\l\&lt; Urho3D::StringHash, Urho3D\l::HashSet\&lt; Urho3D::Object * \&gt; \&gt; \&gt;">
<polygon fill="none" stroke="black" points="729.5,-465.683 729.5,-525.683 920.5,-525.683 920.5,-465.683 729.5,-465.683"/>
<text text-anchor="start" x="737.5" y="-512.683" font-family="FreeSans" font-size="10.00">Urho3D::HashMap&lt; Urho3D</text>
<text text-anchor="start" x="737.5" y="-499.683" font-family="FreeSans" font-size="10.00">::Object *, Urho3D::HashMap</text>
<text text-anchor="start" x="737.5" y="-486.683" font-family="FreeSans" font-size="10.00">&lt; Urho3D::StringHash, Urho3D</text>
<text text-anchor="middle" x="825" y="-473.683" font-family="FreeSans" font-size="10.00">::HashSet&lt; Urho3D::Object * &gt; &gt; &gt;</text>
</a>
</g>
<!-- Node13&#45;&gt;Node15 -->
<g id="edge40" class="edge"><title>Node13&#45;&gt;Node15</title>
<path fill="none" stroke="midnightblue" d="M575.925,-648.181C604.685,-620.874 663.832,-567.832 722,-534.683 727.482,-531.559 733.263,-528.592 739.173,-525.794"/>
<polygon fill="midnightblue" stroke="midnightblue" points="573.44,-645.715 568.645,-655.163 578.285,-650.767 573.44,-645.715"/>
</g>
<!-- Node16 -->
<g id="node36" class="node"><title>Node16</title>
<a xlink:href="class_urho3_d_1_1_hash_map.html" target="_top" xlink:title="Urho3D::HashMap\&lt; Urho3D\l::StringHash, Urho3D::\lSharedPtr\&lt; Urho3D::Object \&gt; \&gt;">
<polygon fill="none" stroke="black" points="739,-808.183 739,-855.183 911,-855.183 911,-808.183 739,-808.183"/>
<text text-anchor="start" x="747" y="-842.183" font-family="FreeSans" font-size="10.00">Urho3D::HashMap&lt; Urho3D</text>
<text text-anchor="start" x="747" y="-829.183" font-family="FreeSans" font-size="10.00">::StringHash, Urho3D::</text>
<text text-anchor="middle" x="825" y="-816.183" font-family="FreeSans" font-size="10.00">SharedPtr&lt; Urho3D::Object &gt; &gt;</text>
</a>
</g>
<!-- Node13&#45;&gt;Node16 -->
<g id="edge44" class="edge"><title>Node13&#45;&gt;Node16</title>
<path fill="none" stroke="midnightblue" d="M575.246,-683.419C603.494,-711.546 662.462,-766.486 722,-798.683 728.359,-802.121 735.135,-805.272 742.059,-808.144"/>
<polygon fill="midnightblue" stroke="midnightblue" points="577.647,-680.87 568.118,-676.238 572.679,-685.801 577.647,-680.87"/>
</g>
<!-- Node18 -->
<g id="node42" class="node"><title>Node18</title>
<a xlink:href="class_urho3_d_1_1_hash_map.html" target="_top" xlink:title="Urho3D::HashMap\&lt; Urho3D\l::StringHash, Urho3D::\lSharedPtr\&lt; Urho3D::ObjectFactory \&gt; \&gt;">
<polygon fill="none" stroke="black" points="722,-742.183 722,-789.183 928,-789.183 928,-742.183 722,-742.183"/>
<text text-anchor="start" x="730" y="-776.183" font-family="FreeSans" font-size="10.00">Urho3D::HashMap&lt; Urho3D</text>
<text text-anchor="start" x="730" y="-763.183" font-family="FreeSans" font-size="10.00">::StringHash, Urho3D::</text>
<text text-anchor="middle" x="825" y="-750.183" font-family="FreeSans" font-size="10.00">SharedPtr&lt; Urho3D::ObjectFactory &gt; &gt;</text>
</a>
</g>
<!-- Node13&#45;&gt;Node18 -->
<g id="edge52" class="edge"><title>Node13&#45;&gt;Node18</title>
<path fill="none" stroke="midnightblue" d="M591.819,-680.4C624.77,-694.525 676.424,-716.1 722,-732.683 730.735,-735.861 739.942,-739.043 749.114,-742.11"/>
<polygon fill="midnightblue" stroke="midnightblue" points="592.789,-677.008 582.22,-676.269 590.022,-683.437 592.789,-677.008"/>
</g>
<!-- Node19 -->
<g id="node45" class="node"><title>Node19</title>
<a xlink:href="class_urho3_d_1_1_hash_map.html" target="_top" xlink:title="Urho3D::HashMap\&lt; Urho3D\l::String, Urho3D::Vector\l\&lt; Urho3D::StringHash \&gt; \&gt;">
<polygon fill="none" stroke="black" points="749,-676.183 749,-723.183 901,-723.183 901,-676.183 749,-676.183"/>
<text text-anchor="start" x="757" y="-710.183" font-family="FreeSans" font-size="10.00">Urho3D::HashMap&lt; Urho3D</text>
<text text-anchor="start" x="757" y="-697.183" font-family="FreeSans" font-size="10.00">::String, Urho3D::Vector</text>
<text text-anchor="middle" x="825" y="-684.183" font-family="FreeSans" font-size="10.00">&lt; Urho3D::StringHash &gt; &gt;</text>
</a>
</g>
<!-- Node13&#45;&gt;Node19 -->
<g id="edge56" class="edge"><title>Node13&#45;&gt;Node19</title>
<path fill="none" stroke="midnightblue" d="M621.985,-673.831C660.099,-678.684 708.698,-684.873 748.79,-689.978"/>
<polygon fill="midnightblue" stroke="midnightblue" points="622.393,-670.354 612.031,-672.563 621.509,-677.298 622.393,-670.354"/>
</g>
<!-- Node20 -->
<g id="node48" class="node"><title>Node20</title>
<a xlink:href="class_urho3_d_1_1_hash_map.html" target="_top" xlink:title="Urho3D::HashMap\&lt; Urho3D\l::StringHash, Urho3D::\lVector\&lt; Urho3D::AttributeInfo \&gt; \&gt;">
<polygon fill="none" stroke="black" points="733.5,-610.183 733.5,-657.183 916.5,-657.183 916.5,-610.183 733.5,-610.183"/>
<text text-anchor="start" x="741.5" y="-644.183" font-family="FreeSans" font-size="10.00">Urho3D::HashMap&lt; Urho3D</text>
<text text-anchor="start" x="741.5" y="-631.183" font-family="FreeSans" font-size="10.00">::StringHash, Urho3D::</text>
<text text-anchor="middle" x="825" y="-618.183" font-family="FreeSans" font-size="10.00">Vector&lt; Urho3D::AttributeInfo &gt; &gt;</text>
</a>
</g>
<!-- Node13&#45;&gt;Node20 -->
<g id="edge60" class="edge"><title>Node13&#45;&gt;Node20</title>
<path fill="none" stroke="midnightblue" d="M622.109,-657.999C655.454,-654.003 696.8,-649.048 733.449,-644.655"/>
<polygon fill="midnightblue" stroke="midnightblue" points="621.544,-654.542 612.031,-659.207 622.377,-661.492 621.544,-654.542"/>
</g>
<!-- Node14 -->
<g id="node30" class="node"><title>Node14</title>
<a xlink:href="struct_urho3_d_1_1_hash_node_base.html" target="_top" xlink:title="Hash set/map node base class.">
<polygon fill="none" stroke="black" points="188,-655.183 188,-676.183 322,-676.183 322,-655.183 188,-655.183"/>
<text text-anchor="middle" x="255" y="-663.183" font-family="FreeSans" font-size="10.00">Urho3D::HashNodeBase</text>
</a>
</g>
<!-- Node14&#45;&gt;Node13 -->
<g id="edge34" class="edge"><title>Node14&#45;&gt;Node13</title>
<path fill="none" stroke="#9a32cd" stroke-dasharray="5,2" d="M332.383,-665.683C385.922,-665.683 455.848,-665.683 503.573,-665.683"/>
<polygon fill="#9a32cd" stroke="#9a32cd" points="332.246,-662.183 322.246,-665.683 332.245,-669.183 332.246,-662.183"/>
<text text-anchor="middle" x="407" y="-695.683" font-family="FreeSans" font-size="10.00"> ptrs_</text>
<text text-anchor="middle" x="407" y="-682.683" font-family="FreeSans" font-size="10.00">tail_</text>
<text text-anchor="middle" x="407" y="-669.683" font-family="FreeSans" font-size="10.00">head_</text>
</g>
<!-- Node14&#45;&gt;Node14 -->
<g id="edge36" class="edge"><title>Node14&#45;&gt;Node14</title>
<path fill="none" stroke="#9a32cd" stroke-dasharray="5,2" d="M234.728,-686.109C236.292,-691.032 243.049,-694.683 255,-694.683 274.121,-694.683 279.947,-685.336 272.478,-676.391"/>
<polygon fill="#9a32cd" stroke="#9a32cd" points="238.123,-686.968 237.522,-676.391 231.395,-685.034 238.123,-686.968"/>
<text text-anchor="middle" x="255" y="-724.683" font-family="FreeSans" font-size="10.00"> next_</text>
<text text-anchor="middle" x="255" y="-711.683" font-family="FreeSans" font-size="10.00">prev_</text>
<text text-anchor="middle" x="255" y="-698.683" font-family="FreeSans" font-size="10.00">down_</text>
</g>
<!-- Node15&#45;&gt;Node6 -->
<g id="edge38" class="edge"><title>Node15&#45;&gt;Node6</title>
<path fill="none" stroke="#9a32cd" stroke-dasharray="5,2" d="M931.106,-495.683C989.297,-495.683 1058.64,-495.683 1104.14,-495.683"/>
<polygon fill="#9a32cd" stroke="#9a32cd" points="930.753,-492.183 920.753,-495.683 930.753,-499.183 930.753,-492.183"/>
<text text-anchor="middle" x="1004" y="-499.683" font-family="FreeSans" font-size="10.00"> specificEventReceivers_</text>
</g>
<!-- Node16&#45;&gt;Node6 -->
<g id="edge42" class="edge"><title>Node16&#45;&gt;Node6</title>
<path fill="none" stroke="#9a32cd" stroke-dasharray="5,2" d="M921.196,-826.678C968.928,-819.448 1024.29,-803.23 1062,-767.683 1102.31,-729.686 1141.29,-552.268 1150.8,-506.485"/>
<polygon fill="#9a32cd" stroke="#9a32cd" points="920.552,-823.234 911.135,-828.088 921.524,-830.166 920.552,-823.234"/>
<text text-anchor="middle" x="1004" y="-824.683" font-family="FreeSans" font-size="10.00"> subsystems_</text>
</g>
<!-- Node17&#45;&gt;Node6 -->
<g id="edge46" class="edge"><title>Node17&#45;&gt;Node6</title>
<path fill="none" stroke="#9a32cd" stroke-dasharray="5,2" d="M898.704,-385.968C947.088,-384.468 1010.67,-388.157 1062,-410.683 1099.61,-427.19 1131.52,-466.016 1145.47,-484.938"/>
<polygon fill="#9a32cd" stroke="#9a32cd" points="898.476,-382.474 888.62,-386.362 898.749,-389.469 898.476,-382.474"/>
<text text-anchor="middle" x="1004" y="-414.683" font-family="FreeSans" font-size="10.00"> eventDataMaps_</text>
</g>
<!-- Node18&#45;&gt;Node6 -->
<g id="edge50" class="edge"><title>Node18&#45;&gt;Node6</title>
<path fill="none" stroke="#9a32cd" stroke-dasharray="5,2" d="M938.142,-753.649C980.965,-744.212 1027.62,-727.442 1062,-697.683 1123.95,-644.064 1145.81,-539.83 1151.4,-506.327"/>
<polygon fill="#9a32cd" stroke="#9a32cd" points="937.285,-750.253 928.212,-755.724 938.716,-757.105 937.285,-750.253"/>
<text text-anchor="middle" x="1004" y="-754.683" font-family="FreeSans" font-size="10.00"> factories_</text>
</g>
<!-- Node19&#45;&gt;Node6 -->
<g id="edge54" class="edge"><title>Node19&#45;&gt;Node6</title>
<path fill="none" stroke="#9a32cd" stroke-dasharray="5,2" d="M911.172,-689.264C959.181,-680.056 1017.97,-662.82 1062,-630.683 1108.35,-596.856 1138.41,-531.788 1148.87,-506.296"/>
<polygon fill="#9a32cd" stroke="#9a32cd" points="910.305,-685.865 901.1,-691.11 911.567,-692.75 910.305,-685.865"/>
<text text-anchor="middle" x="1004" y="-684.683" font-family="FreeSans" font-size="10.00"> objectCategories_</text>
</g>
<!-- Node20&#45;&gt;Node6 -->
<g id="edge58" class="edge"><title>Node20&#45;&gt;Node6</title>
<path fill="none" stroke="#9a32cd" stroke-dasharray="5,2" d="M926.129,-607.616C969.095,-594.825 1019.07,-577.625 1062,-556.683 1091.57,-542.255 1122.73,-519.47 1139.83,-506.212"/>
<polygon fill="#9a32cd" stroke="#9a32cd" points="925.116,-604.265 916.507,-610.442 927.088,-610.982 925.116,-604.265"/>
<text text-anchor="middle" x="1004" y="-617.683" font-family="FreeSans" font-size="10.00"> attributes_</text>
<text text-anchor="middle" x="1004" y="-604.683" font-family="FreeSans" font-size="10.00">networkAttributes_</text>
</g>
<!-- Node21&#45;&gt;Node3 -->
<g id="edge62" class="edge"><title>Node21&#45;&gt;Node3</title>
<path fill="none" stroke="#9a32cd" stroke-dasharray="5,2" d="M1069.62,-214.095C982.72,-209.264 842.643,-204.264 722,-212.683 681.56,-215.505 635.916,-222.195 603.068,-227.637"/>
<polygon fill="#9a32cd" stroke="#9a32cd" points="1069.51,-217.594 1079.69,-214.667 1069.9,-210.605 1069.51,-217.594"/>
<text text-anchor="middle" x="825" y="-216.683" font-family="FreeSans" font-size="10.00"> eventHandlers_</text>
</g>
<!-- Node22 -->
<g id="node54" class="node"><title>Node22</title>
<a xlink:href="class_urho3_d_1_1_timer.html" target="_top" xlink:title="Low&#45;resolution operating system timer.">
<polygon fill="none" stroke="black" points="515,-106.183 515,-127.183 601,-127.183 601,-106.183 515,-106.183"/>
<text text-anchor="middle" x="558" y="-114.183" font-family="FreeSans" font-size="10.00">Urho3D::Timer</text>
</a>
</g>
<!-- Node22&#45;&gt;Node2 -->
<g id="edge66" class="edge"><title>Node22&#45;&gt;Node2</title>
<path fill="none" stroke="#9a32cd" stroke-dasharray="5,2" d="M610.662,-102.667C615.261,-100.864 619.77,-98.8721 624,-96.6827 633.001,-92.0238 632.423,-85.998 642,-82.6827 684.483,-67.9766 735.912,-69.2221 773.418,-73.2782"/>
<polygon fill="#9a32cd" stroke="#9a32cd" points="609.369,-99.4128 601.155,-106.105 611.749,-105.996 609.369,-99.4128"/>
<text text-anchor="middle" x="673" y="-86.6827" font-family="FreeSans" font-size="10.00"> useTimer_</text>
</g>
<!-- Node23 -->
<g id="node56" class="node"><title>Node23</title>
<a xlink:href="class_urho3_d_1_1_string.html" target="_top" xlink:title="String class.">
<polygon fill="none" stroke="black" points="514,-35.1827 514,-56.1827 602,-56.1827 602,-35.1827 514,-35.1827"/>
<text text-anchor="middle" x="558" y="-43.1827" font-family="FreeSans" font-size="10.00">Urho3D::String</text>
</a>
</g>
<!-- Node23&#45;&gt;Node2 -->
<g id="edge68" class="edge"><title>Node23&#45;&gt;Node2</title>
<path fill="none" stroke="#9a32cd" stroke-dasharray="5,2" d="M612.501,-46.4377C640.041,-47.384 673.914,-49.41 704,-53.6827 732.179,-57.6845 763.469,-65.0038 787.169,-71.1555"/>
<polygon fill="#9a32cd" stroke="#9a32cd" points="612.38,-42.9325 602.278,-46.1255 612.166,-49.9292 612.38,-42.9325"/>
<text text-anchor="middle" x="673" y="-57.6827" font-family="FreeSans" font-size="10.00"> name_</text>
</g>
<!-- Node23&#45;&gt;Node23 -->
<g id="edge70" class="edge"><title>Node23&#45;&gt;Node23</title>
<path fill="none" stroke="#9a32cd" stroke-dasharray="5,2" d="M536.991,-66.1093C538.612,-71.0316 545.615,-74.6827 558,-74.6827 577.816,-74.6827 583.854,-65.3358 576.113,-56.3905"/>
<polygon fill="#9a32cd" stroke="#9a32cd" points="540.385,-66.9736 539.887,-56.3905 533.677,-64.9749 540.385,-66.9736"/>
<text text-anchor="middle" x="558" y="-78.6827" font-family="FreeSans" font-size="10.00"> EMPTY</text>
</g>
<!-- Node24&#45;&gt;Node1 -->
<g id="edge74" class="edge"><title>Node24&#45;&gt;Node1</title>
<path fill="none" stroke="#9a32cd" stroke-dasharray="5,2" d="M457.777,-34.3377C468.881,-30.7453 480.698,-27.5576 492,-25.6827 721.25,12.3484 1001.41,-9.7869 1108.5,-20.6997"/>
<polygon fill="#9a32cd" stroke="#9a32cd" points="456.577,-31.0485 448.232,-37.576 458.827,-37.6774 456.577,-31.0485"/>
<text text-anchor="middle" x="673" y="-12.6827" font-family="FreeSans" font-size="10.00"> data_</text>
</g>
<!-- Node25&#45;&gt;Node1 -->
<g id="edge78" class="edge"><title>Node25&#45;&gt;Node1</title>
<path fill="none" stroke="#9a32cd" stroke-dasharray="5,2" d="M1319.59,-6.14188C1313.7,-4.73491 1307.77,-3.53604 1302,-2.68268 1276.5,1.09135 1269.58,0.499982 1244,-2.68268 1224.6,-5.09699 1203.39,-10.3016 1186.33,-15.1501"/>
<polygon fill="#9a32cd" stroke="#9a32cd" points="1318.87,-9.56951 1329.42,-8.68193 1320.62,-2.79199 1318.87,-9.56951"/>
<text text-anchor="middle" x="1273" y="-19.6827" font-family="FreeSans" font-size="10.00"> nextLevel_</text>
<text text-anchor="middle" x="1273" y="-6.68268" font-family="FreeSans" font-size="10.00">nextSibling_</text>
</g>
</g>
</svg>
        <g id="navigator" transform="translate(0 0)" fill="#404254">
                <rect fill="#f2f5e9" fill-opacity="0.5" stroke="#606060" stroke-width=".5" x="0" y="0" width="60" height="60"/>
                <use id="zoomplus" xlink:href="#zoomPlus" x="17" y="9" onmousedown="handleZoom(evt,'in')"/>
                <use id="zoomminus" xlink:href="#zoomMin" x="42" y="9" onmousedown="handleZoom(evt,'out')"/>
                <use id="reset" xlink:href="#resetDef" x="30" y="36" onmousedown="handleReset()"/>
                <g id="arrowUp" xlink:href="#dirArrow" transform="translate(30 24)" onmousedown="handlePan(0,-1)">
                  <use xlink:href="#rim" fill="#404040">
                        <set attributeName="fill" to="#808080" begin="arrowUp.mouseover" end="arrowUp.mouseout"/>
                  </use>
                  <path fill="none" stroke="white" stroke-width="1.5" d="M0,-3.0v7 M-2.5,-0.5L0,-3.0L2.5,-0.5"/>
                </g>
                <g id="arrowRight" xlink:href="#dirArrow" transform="rotate(90) translate(36 -43)" onmousedown="handlePan(1,0)">
                  <use xlink:href="#rim" fill="#404040">
                        <set attributeName="fill" to="#808080" begin="arrowRight.mouseover" end="arrowRight.mouseout"/>
                  </use>
                  <path fill="none" stroke="white" stroke-width="1.5" d="M0,-3.0v7 M-2.5,-0.5L0,-3.0L2.5,-0.5"/>
                </g>
                <g id="arrowDown" xlink:href="#dirArrow" transform="rotate(180) translate(-30 -48)" onmousedown="handlePan(0,1)">
                  <use xlink:href="#rim" fill="#404040">
                        <set attributeName="fill" to="#808080" begin="arrowDown.mouseover" end="arrowDown.mouseout"/>
                  </use>
                  <path fill="none" stroke="white" stroke-width="1.5" d="M0,-3.0v7 M-2.5,-0.5L0,-3.0L2.5,-0.5"/>
                </g>
                <g id="arrowLeft" xlink:href="#dirArrow" transform="rotate(270) translate(-36 17)" onmousedown="handlePan(-1,0)">
                  <use xlink:href="#rim" fill="#404040">
                        <set attributeName="fill" to="#808080" begin="arrowLeft.mouseover" end="arrowLeft.mouseout"/>
                  </use>
                  <path fill="none" stroke="white" stroke-width="1.5" d="M0,-3.0v7 M-2.5,-0.5L0,-3.0L2.5,-0.5"/>
                </g>
        </g>
        <svg viewBox="0 0 15 15" width="100%" height="30px" preserveAspectRatio="xMaxYMin meet">
         <g id="arrow_out" transform="scale(0.3 0.3)">
          <a xlink:href="class_urho3_d_1_1_image__coll__graph_org.svg" target="_base">
           <rect id="button" ry="5" rx="5" y="6" x="6" height="38" width="38"
                fill="#f2f5e9" fill-opacity="0.5" stroke="#606060" stroke-width="1.0"/>
           <path id="arrow"
             d="M 11.500037,31.436501 C 11.940474,20.09759 22.043105,11.32322 32.158766,21.979434 L 37.068811,17.246167 C 37.068811,17.246167 37.088388,32 37.088388,32 L 22.160133,31.978069 C 22.160133,31.978069 26.997745,27.140456 26.997745,27.140456 C 18.528582,18.264221 13.291696,25.230495 11.500037,31.436501 z"
             style="fill:#404040;"/>
          </a>
         </g>
        </svg>
</svg>
