<?xml version="1.0" encoding="UTF-8" standalone="no"?>
<!DOCTYPE svg PUBLIC "-//W3C//DTD SVG 1.1//EN"
 "http://www.w3.org/Graphics/SVG/1.1/DTD/svg11.dtd">
<!-- Generated by graphviz version 2.26.3 (20100126.1600)
 -->
<!-- Title: Urho3D::LineEdit Pages: 1 -->
<svg width="1558pt" height="1023pt"
 viewBox="0.00 0.00 1558.00 1023.23" xmlns="http://www.w3.org/2000/svg" xmlns:xlink="http://www.w3.org/1999/xlink">
<g id="graph1" class="graph" transform="scale(1 1) rotate(0) translate(4 1019.23)">
<title>Urho3D::LineEdit</title>
<!-- Node1 -->
<g id="node1" class="node"><title>Node1</title>
<polygon fill="#bfbfbf" stroke="black" points="1452.5,-742.729 1452.5,-763.729 1549.5,-763.729 1549.5,-742.729 1452.5,-742.729"/>
<text text-anchor="middle" x="1501" y="-750.729" font-family="FreeSans" font-size="10.00">Urho3D::LineEdit</text>
</g>
<!-- Node2 -->
<g id="node2" class="node"><title>Node2</title>
<a xlink:href="class_urho3_d_1_1_border_image.html" target="_top" xlink:title="Image UI element with optional border.">
<polygon fill="none" stroke="black" points="966,-697.729 966,-718.729 1088,-718.729 1088,-697.729 966,-697.729"/>
<text text-anchor="middle" x="1027" y="-705.729" font-family="FreeSans" font-size="10.00">Urho3D::BorderImage</text>
</a>
</g>
<!-- Node2&#45;&gt;Node1 -->
<g id="edge2" class="edge"><title>Node2&#45;&gt;Node1</title>
<path fill="none" stroke="midnightblue" d="M1098.23,-708.971C1168.96,-710.444 1280.37,-714.753 1376,-727.229 1403.69,-730.842 1434.41,-737.197 1458.46,-742.719"/>
<polygon fill="midnightblue" stroke="midnightblue" points="1098.16,-705.469 1088.09,-708.774 1098.02,-712.468 1098.16,-705.469"/>
</g>
<!-- Node22 -->
<g id="node58" class="node"><title>Node22</title>
<a xlink:href="class_urho3_d_1_1_shared_ptr.html" target="_top" xlink:title="Urho3D::SharedPtr\&lt;\l Urho3D::BorderImage \&gt;">
<polygon fill="none" stroke="black" points="1240,-736.229 1240,-770.229 1376,-770.229 1376,-736.229 1240,-736.229"/>
<text text-anchor="start" x="1248" y="-757.229" font-family="FreeSans" font-size="10.00">Urho3D::SharedPtr&lt;</text>
<text text-anchor="middle" x="1308" y="-744.229" font-family="FreeSans" font-size="10.00"> Urho3D::BorderImage &gt;</text>
</a>
</g>
<!-- Node2&#45;&gt;Node22 -->
<g id="edge76" class="edge"><title>Node2&#45;&gt;Node22</title>
<path fill="none" stroke="#9a32cd" stroke-dasharray="5,2" d="M1095.6,-720.485C1099.12,-721.082 1102.6,-721.667 1106,-722.229 1150.46,-729.578 1200.52,-737.265 1239.68,-743.146"/>
<polygon fill="#9a32cd" stroke="#9a32cd" points="1096.09,-717.019 1085.65,-718.777 1094.91,-723.918 1096.09,-717.019"/>
<text text-anchor="middle" x="1164" y="-744.229" font-family="FreeSans" font-size="10.00"> ptr_</text>
</g>
<!-- Node3 -->
<g id="node4" class="node"><title>Node3</title>
<a xlink:href="class_urho3_d_1_1_u_i_element.html" target="_top" xlink:title="Base class for UI elements.">
<polygon fill="none" stroke="black" points="528.5,-313.729 528.5,-334.729 637.5,-334.729 637.5,-313.729 528.5,-313.729"/>
<text text-anchor="middle" x="583" y="-321.729" font-family="FreeSans" font-size="10.00">Urho3D::UIElement</text>
</a>
</g>
<!-- Node3&#45;&gt;Node2 -->
<g id="edge4" class="edge"><title>Node3&#45;&gt;Node2</title>
<path fill="none" stroke="midnightblue" d="M621.614,-338.573C694.196,-367.248 852.267,-438.058 948,-543.229 992.041,-591.612 1016.36,-668.97 1024.18,-697.342"/>
<polygon fill="midnightblue" stroke="midnightblue" points="622.544,-335.179 611.956,-334.807 620.001,-341.701 622.544,-335.179"/>
</g>
<!-- Node3&#45;&gt;Node3 -->
<g id="edge20" class="edge"><title>Node3&#45;&gt;Node3</title>
<path fill="none" stroke="#9a32cd" stroke-dasharray="5,2" d="M559.042,-344.656C560.891,-349.578 568.876,-353.229 583,-353.229 605.598,-353.229 612.483,-343.882 603.656,-334.937"/>
<polygon fill="#9a32cd" stroke="#9a32cd" points="562.441,-345.531 562.344,-334.937 555.813,-343.279 562.441,-345.531"/>
<text text-anchor="middle" x="583" y="-357.229" font-family="FreeSans" font-size="10.00"> parent_</text>
</g>
<!-- Node18 -->
<g id="node47" class="node"><title>Node18</title>
<a xlink:href="class_urho3_d_1_1_text.html" target="_top" xlink:title="Text UI element.">
<polygon fill="none" stroke="red" points="789,-267.729 789,-288.729 867,-288.729 867,-267.729 789,-267.729"/>
<text text-anchor="middle" x="828" y="-275.729" font-family="FreeSans" font-size="10.00">Urho3D::Text</text>
</a>
</g>
<!-- Node3&#45;&gt;Node18 -->
<g id="edge62" class="edge"><title>Node3&#45;&gt;Node18</title>
<path fill="none" stroke="midnightblue" d="M647.536,-313.934C679.099,-308.701 717.61,-302.022 752,-295.229 763.938,-292.871 776.875,-290.07 788.634,-287.429"/>
<polygon fill="midnightblue" stroke="midnightblue" points="646.844,-310.501 637.546,-315.581 647.982,-317.408 646.844,-310.501"/>
</g>
<!-- Node4 -->
<g id="node6" class="node"><title>Node4</title>
<a xlink:href="class_urho3_d_1_1_animatable.html" target="_top" xlink:title="Base class for animatable object, an animatable object can be set animation on it&#39;s attributes...">
<polygon fill="none" stroke="red" points="230,-315.729 230,-336.729 344,-336.729 344,-315.729 230,-315.729"/>
<text text-anchor="middle" x="287" y="-323.729" font-family="FreeSans" font-size="10.00">Urho3D::Animatable</text>
</a>
</g>
<!-- Node4&#45;&gt;Node3 -->
<g id="edge6" class="edge"><title>Node4&#45;&gt;Node3</title>
<path fill="none" stroke="midnightblue" d="M354.312,-325.774C406.878,-325.419 479.003,-324.932 528.105,-324.6"/>
<polygon fill="midnightblue" stroke="midnightblue" points="354.048,-322.276 344.072,-325.843 354.095,-329.276 354.048,-322.276"/>
</g>
<!-- Node5 -->
<g id="node8" class="node"><title>Node5</title>
<a xlink:href="class_urho3_d_1_1_int_rect.html" target="_top" xlink:title="Two&#45;dimensional bounding rectangle with integer values.">
<polygon fill="none" stroke="black" points="241,-556.729 241,-577.729 333,-577.729 333,-556.729 241,-556.729"/>
<text text-anchor="middle" x="287" y="-564.729" font-family="FreeSans" font-size="10.00">Urho3D::IntRect</text>
</a>
</g>
<!-- Node5&#45;&gt;Node2 -->
<g id="edge40" class="edge"><title>Node5&#45;&gt;Node2</title>
<path fill="none" stroke="#9a32cd" stroke-dasharray="5,2" d="M343.384,-564.842C384.716,-563.938 442.086,-564.444 492,-571.229 687.711,-597.831 914.874,-670.331 996.144,-697.636"/>
<polygon fill="#9a32cd" stroke="#9a32cd" points="343.144,-561.347 333.236,-565.1 343.321,-568.345 343.144,-561.347"/>
<text text-anchor="middle" x="713" y="-653.229" font-family="FreeSans" font-size="10.00"> imageRect_</text>
<text text-anchor="middle" x="713" y="-640.229" font-family="FreeSans" font-size="10.00">border_</text>
<text text-anchor="middle" x="713" y="-627.229" font-family="FreeSans" font-size="10.00">imageBorder_</text>
</g>
<!-- Node5&#45;&gt;Node3 -->
<g id="edge8" class="edge"><title>Node5&#45;&gt;Node3</title>
<path fill="none" stroke="#9a32cd" stroke-dasharray="5,2" d="M343.419,-564.046C358.279,-561.102 373.606,-555.981 386,-547.229 398.701,-538.26 393.24,-528.454 404,-517.229 436.414,-483.413 465.318,-497.729 492,-459.229 512.512,-429.631 490.561,-410.542 510,-380.229 522.848,-360.195 545.469,-344.511 562.135,-334.9"/>
<polygon fill="#9a32cd" stroke="#9a32cd" points="342.53,-560.646 333.247,-565.754 343.689,-567.55 342.53,-560.646"/>
<text text-anchor="middle" x="448" y="-534.229" font-family="FreeSans" font-size="10.00"> clipBorder_</text>
<text text-anchor="middle" x="448" y="-521.229" font-family="FreeSans" font-size="10.00">layoutBorder_</text>
</g>
<!-- Node5&#45;&gt;Node5 -->
<g id="edge10" class="edge"><title>Node5&#45;&gt;Node5</title>
<path fill="none" stroke="#9a32cd" stroke-dasharray="5,2" d="M259.58,-587.284C261.379,-592.393 270.519,-596.229 287,-596.229 312.727,-596.229 320.565,-586.882 310.516,-577.937"/>
<polygon fill="#9a32cd" stroke="#9a32cd" points="262.86,-588.513 263.484,-577.937 256.401,-585.816 262.86,-588.513"/>
<text text-anchor="middle" x="287" y="-600.229" font-family="FreeSans" font-size="10.00"> ZERO</text>
</g>
<!-- Node6 -->
<g id="node11" class="node"><title>Node6</title>
<a xlink:href="class_urho3_d_1_1_vector.html" target="_top" xlink:title="Urho3D::Vector\&lt; Urho3D\l::SharedPtr\&lt; Urho3D::UIElement \&gt; \&gt;">
<polygon fill="none" stroke="red" points="188.5,-109.229 188.5,-143.229 385.5,-143.229 385.5,-109.229 188.5,-109.229"/>
<text text-anchor="start" x="196.5" y="-130.229" font-family="FreeSans" font-size="10.00">Urho3D::Vector&lt; Urho3D</text>
<text text-anchor="middle" x="287" y="-117.229" font-family="FreeSans" font-size="10.00">::SharedPtr&lt; Urho3D::UIElement &gt; &gt;</text>
</a>
</g>
<!-- Node6&#45;&gt;Node3 -->
<g id="edge12" class="edge"><title>Node6&#45;&gt;Node3</title>
<path fill="none" stroke="#9a32cd" stroke-dasharray="5,2" d="M383.958,-108.703C422.316,-107.454 463.872,-114.121 492,-141.229 518.24,-166.517 486.337,-276.514 510,-304.229 514.949,-310.025 521.402,-314.222 528.425,-317.246"/>
<polygon fill="#9a32cd" stroke="#9a32cd" points="383.574,-105.217 373.763,-109.218 383.927,-112.208 383.574,-105.217"/>
<text text-anchor="middle" x="448" y="-145.229" font-family="FreeSans" font-size="10.00"> children_</text>
</g>
<!-- Node7 -->
<g id="node13" class="node"><title>Node7</title>
<a xlink:href="class_urho3_d_1_1_vector2.html" target="_top" xlink:title="Two&#45;dimensional vector.">
<polygon fill="none" stroke="black" points="239,-627.729 239,-648.729 335,-648.729 335,-627.729 239,-627.729"/>
<text text-anchor="middle" x="287" y="-635.729" font-family="FreeSans" font-size="10.00">Urho3D::Vector2</text>
</a>
</g>
<!-- Node7&#45;&gt;Node3 -->
<g id="edge14" class="edge"><title>Node7&#45;&gt;Node3</title>
<path fill="none" stroke="#9a32cd" stroke-dasharray="5,2" d="M345.188,-632.603C359.149,-629.626 373.596,-625.101 386,-618.229 396.175,-612.592 394.905,-606.48 404,-599.229 439.522,-570.909 467.4,-585.421 492,-547.229 532.425,-484.469 473.433,-445.312 510,-380.229 521.502,-359.758 543.864,-344.332 560.823,-334.907"/>
<polygon fill="#9a32cd" stroke="#9a32cd" points="344.317,-629.206 335.144,-634.508 345.621,-636.083 344.317,-629.206"/>
<text text-anchor="middle" x="448" y="-603.229" font-family="FreeSans" font-size="10.00"> layoutFlexScale_</text>
</g>
<!-- Node7&#45;&gt;Node7 -->
<g id="edge16" class="edge"><title>Node7&#45;&gt;Node7</title>
<path fill="none" stroke="#9a32cd" stroke-dasharray="5,2" d="M259.58,-658.284C261.379,-663.393 270.519,-667.229 287,-667.229 312.727,-667.229 320.565,-657.882 310.516,-648.937"/>
<polygon fill="#9a32cd" stroke="#9a32cd" points="262.86,-659.513 263.484,-648.937 256.401,-656.816 262.86,-659.513"/>
<text text-anchor="middle" x="287" y="-736.229" font-family="FreeSans" font-size="10.00"> ONE</text>
<text text-anchor="middle" x="287" y="-723.229" font-family="FreeSans" font-size="10.00">DOWN</text>
<text text-anchor="middle" x="287" y="-710.229" font-family="FreeSans" font-size="10.00">RIGHT</text>
<text text-anchor="middle" x="287" y="-697.229" font-family="FreeSans" font-size="10.00">LEFT</text>
<text text-anchor="middle" x="287" y="-684.229" font-family="FreeSans" font-size="10.00">ZERO</text>
<text text-anchor="middle" x="287" y="-671.229" font-family="FreeSans" font-size="10.00">UP</text>
</g>
<!-- Node23 -->
<g id="node62" class="node"><title>Node23</title>
<a xlink:href="class_urho3_d_1_1_font.html" target="_top" xlink:title="Font resource.">
<polygon fill="none" stroke="black" points="543,-829.729 543,-850.729 623,-850.729 623,-829.729 543,-829.729"/>
<text text-anchor="middle" x="583" y="-837.729" font-family="FreeSans" font-size="10.00">Urho3D::Font</text>
</a>
</g>
<!-- Node7&#45;&gt;Node23 -->
<g id="edge88" class="edge"><title>Node7&#45;&gt;Node23</title>
<path fill="none" stroke="#9a32cd" stroke-dasharray="5,2" d="M345.399,-626.426C398.186,-617.263 470.773,-608.904 492,-627.229 512.744,-645.137 499.044,-724.11 510,-749.229 524.494,-782.46 554.409,-813.71 571.094,-829.502"/>
<polygon fill="#9a32cd" stroke="#9a32cd" points="344.688,-622.997 335.459,-628.201 345.918,-629.889 344.688,-622.997"/>
<text text-anchor="middle" x="448" y="-631.229" font-family="FreeSans" font-size="10.00"> scaledOffset_</text>
</g>
<!-- Node8 -->
<g id="node16" class="node"><title>Node8</title>
<a xlink:href="class_urho3_d_1_1_hash_map.html" target="_top" xlink:title="Urho3D::HashMap\&lt; StringHash,\l Variant \&gt;">
<polygon fill="none" stroke="red" points="201,-57.229 201,-91.229 373,-91.229 373,-57.229 201,-57.229"/>
<text text-anchor="start" x="209" y="-78.229" font-family="FreeSans" font-size="10.00">Urho3D::HashMap&lt; StringHash,</text>
<text text-anchor="middle" x="287" y="-65.229" font-family="FreeSans" font-size="10.00"> Variant &gt;</text>
</a>
</g>
<!-- Node8&#45;&gt;Node3 -->
<g id="edge18" class="edge"><title>Node8&#45;&gt;Node3</title>
<path fill="none" stroke="#9a32cd" stroke-dasharray="5,2" d="M383.447,-57.4375C422.149,-56.382 464.103,-63.3757 492,-91.229 525.615,-124.792 479.622,-267.71 510,-304.229 514.874,-310.088 521.287,-314.319 528.29,-317.359"/>
<polygon fill="#9a32cd" stroke="#9a32cd" points="382.993,-53.9544 373.162,-57.9041 383.31,-60.9472 382.993,-53.9544"/>
<text text-anchor="middle" x="448" y="-95.229" font-family="FreeSans" font-size="10.00"> vars_</text>
</g>
<!-- Node9 -->
<g id="node19" class="node"><title>Node9</title>
<a xlink:href="class_urho3_d_1_1_string.html" target="_top" xlink:title="String class.">
<polygon fill="none" stroke="black" points="0,-208.729 0,-229.729 88,-229.729 88,-208.729 0,-208.729"/>
<text text-anchor="middle" x="44" y="-216.729" font-family="FreeSans" font-size="10.00">Urho3D::String</text>
</a>
</g>
<!-- Node9&#45;&gt;Node1 -->
<g id="edge78" class="edge"><title>Node9&#45;&gt;Node1</title>
<path fill="none" stroke="#9a32cd" stroke-dasharray="5,2" d="M45.2341,-240.126C50.8038,-331.964 74.6924,-700.102 106,-811.229 128.965,-892.743 120.982,-931.455 188,-983.229 223.455,-1010.62 242.197,-1002.23 287,-1002.23 287,-1002.23 287,-1002.23 1308,-1002.23 1430.52,-1002.23 1486.39,-811.588 1498.45,-763.928"/>
<polygon fill="#9a32cd" stroke="#9a32cd" points="48.7134,-239.672 44.6209,-229.9 41.7259,-240.092 48.7134,-239.672"/>
<text text-anchor="middle" x="828" y="-1006.23" font-family="FreeSans" font-size="10.00"> line_</text>
</g>
<!-- Node9&#45;&gt;Node3 -->
<g id="edge22" class="edge"><title>Node9&#45;&gt;Node3</title>
<path fill="none" stroke="#9a32cd" stroke-dasharray="5,2" d="M98.3746,-212.47C166.916,-205.792 287.663,-200.188 386,-228.229 438.486,-243.195 446.806,-259.631 492,-290.229 500.392,-295.911 500.938,-299.691 510,-304.229 517.52,-307.994 525.842,-311.127 534.096,-313.708"/>
<polygon fill="#9a32cd" stroke="#9a32cd" points="97.8355,-209.007 88.2418,-213.503 98.5451,-215.971 97.8355,-209.007"/>
<text text-anchor="middle" x="287" y="-245.229" font-family="FreeSans" font-size="10.00"> appliedStyle_</text>
<text text-anchor="middle" x="287" y="-232.229" font-family="FreeSans" font-size="10.00">name_</text>
</g>
<!-- Node9&#45;&gt;Node9 -->
<g id="edge24" class="edge"><title>Node9&#45;&gt;Node9</title>
<path fill="none" stroke="#9a32cd" stroke-dasharray="5,2" d="M26.6768,-239.656C28.0132,-244.578 33.7876,-248.229 44,-248.229 60.3398,-248.229 65.3184,-238.882 58.9356,-229.937"/>
<polygon fill="#9a32cd" stroke="#9a32cd" points="30.0775,-240.483 29.0644,-229.937 23.2796,-238.813 30.0775,-240.483"/>
<text text-anchor="middle" x="44" y="-252.229" font-family="FreeSans" font-size="10.00"> EMPTY</text>
</g>
<!-- Node10 -->
<g id="node22" class="node"><title>Node10</title>
<a xlink:href="class_urho3_d_1_1_x_path_query.html" target="_top" xlink:title="XPath query.">
<polygon fill="none" stroke="black" points="229.5,-161.729 229.5,-182.729 344.5,-182.729 344.5,-161.729 229.5,-161.729"/>
<text text-anchor="middle" x="287" y="-169.729" font-family="FreeSans" font-size="10.00">Urho3D::XPathQuery</text>
</a>
</g>
<!-- Node9&#45;&gt;Node10 -->
<g id="edge28" class="edge"><title>Node9&#45;&gt;Node10</title>
<path fill="none" stroke="#9a32cd" stroke-dasharray="5,2" d="M73.3067,-204.314C83.4294,-199.747 94.9958,-195.161 106,-192.229 146.325,-181.485 193.187,-176.503 229.124,-174.198"/>
<polygon fill="#9a32cd" stroke="#9a32cd" points="71.6745,-201.213 64.1093,-208.631 74.6488,-207.55 71.6745,-201.213"/>
<text text-anchor="middle" x="138" y="-196.229" font-family="FreeSans" font-size="10.00"> queryString_</text>
</g>
<!-- Node16 -->
<g id="node38" class="node"><title>Node16</title>
<a xlink:href="class_urho3_d_1_1_resource.html" target="_top" xlink:title="Base class for resources.">
<polygon fill="none" stroke="red" points="235.5,-834.729 235.5,-855.729 338.5,-855.729 338.5,-834.729 235.5,-834.729"/>
<text text-anchor="middle" x="287" y="-842.729" font-family="FreeSans" font-size="10.00">Urho3D::Resource</text>
</a>
</g>
<!-- Node9&#45;&gt;Node16 -->
<g id="edge48" class="edge"><title>Node9&#45;&gt;Node16</title>
<path fill="none" stroke="#9a32cd" stroke-dasharray="5,2" d="M45.9641,-239.903C55.5439,-336.316 100.495,-740.646 188,-825.229 200.545,-837.355 218.293,-843.076 235.306,-845.539"/>
<polygon fill="#9a32cd" stroke="#9a32cd" points="49.4465,-239.551 44.9921,-229.938 42.4796,-240.231 49.4465,-239.551"/>
<text text-anchor="middle" x="138" y="-798.229" font-family="FreeSans" font-size="10.00"> name_</text>
</g>
<!-- Node9&#45;&gt;Node18 -->
<g id="edge70" class="edge"><title>Node9&#45;&gt;Node18</title>
<path fill="none" stroke="#9a32cd" stroke-dasharray="5,2" d="M54.1317,-198.955C74.0025,-161.637 121.974,-82.7384 188,-48.229 308.001,14.4915 362.025,9.72505 492,-28.229 623.603,-66.6584 647.299,-105.72 752,-194.229 779.635,-217.59 806.806,-250.764 819.904,-267.577"/>
<polygon fill="#9a32cd" stroke="#9a32cd" points="50.7786,-197.818 49.2806,-208.307 56.9923,-201.041 50.7786,-197.818"/>
<text text-anchor="middle" x="448" y="-45.229" font-family="FreeSans" font-size="10.00"> stringId_</text>
<text text-anchor="middle" x="448" y="-32.229" font-family="FreeSans" font-size="10.00">text_</text>
</g>
<!-- Node10&#45;&gt;Node3 -->
<g id="edge26" class="edge"><title>Node10&#45;&gt;Node3</title>
<path fill="none" stroke="#9a32cd" stroke-dasharray="5,2" d="M346.549,-160.377C392.269,-154.99 453.844,-156.372 492,-192.229 528.739,-226.755 476.327,-266.706 510,-304.229 515.003,-309.804 521.397,-313.887 528.314,-316.868"/>
<polygon fill="#9a32cd" stroke="#9a32cd" points="345.923,-156.929 336.465,-161.703 346.836,-163.869 345.923,-156.929"/>
<text text-anchor="middle" x="448" y="-196.229" font-family="FreeSans" font-size="10.00"> styleXPathQuery_</text>
</g>
<!-- Node11 -->
<g id="node25" class="node"><title>Node11</title>
<a xlink:href="class_urho3_d_1_1_shared_ptr.html" target="_top" xlink:title="Urho3D::SharedPtr\&lt;\l Urho3D::XMLFile \&gt;">
<polygon fill="none" stroke="red" points="229,-263.229 229,-297.229 345,-297.229 345,-263.229 229,-263.229"/>
<text text-anchor="start" x="237" y="-284.229" font-family="FreeSans" font-size="10.00">Urho3D::SharedPtr&lt;</text>
<text text-anchor="middle" x="287" y="-271.229" font-family="FreeSans" font-size="10.00"> Urho3D::XMLFile &gt;</text>
</a>
</g>
<!-- Node11&#45;&gt;Node3 -->
<g id="edge30" class="edge"><title>Node11&#45;&gt;Node3</title>
<path fill="none" stroke="#9a32cd" stroke-dasharray="5,2" d="M355.589,-288.328C395.477,-293.271 446.668,-300.015 492,-307.229 504.063,-309.149 516.984,-311.427 529.19,-313.681"/>
<polygon fill="#9a32cd" stroke="#9a32cd" points="355.793,-284.827 345.441,-287.079 354.938,-291.774 355.793,-284.827"/>
<text text-anchor="middle" x="448" y="-311.229" font-family="FreeSans" font-size="10.00"> defaultStyle_</text>
</g>
<!-- Node12 -->
<g id="node27" class="node"><title>Node12</title>
<a xlink:href="class_urho3_d_1_1_int_vector2.html" target="_top" xlink:title="Two&#45;dimensional vector with integer values.">
<polygon fill="none" stroke="black" points="233,-763.729 233,-784.729 341,-784.729 341,-763.729 233,-763.729"/>
<text text-anchor="middle" x="287" y="-771.729" font-family="FreeSans" font-size="10.00">Urho3D::IntVector2</text>
</a>
</g>
<!-- Node12&#45;&gt;Node2 -->
<g id="edge56" class="edge"><title>Node12&#45;&gt;Node2</title>
<path fill="none" stroke="#9a32cd" stroke-dasharray="5,2" d="M351.476,-771.564C461.383,-766.654 691.963,-754.76 886,-734.229 913.69,-731.299 920.596,-730.161 948,-725.229 958.632,-723.316 970.015,-721.015 980.736,-718.734"/>
<polygon fill="#9a32cd" stroke="#9a32cd" points="351.058,-768.079 341.222,-772.017 351.367,-775.072 351.058,-768.079"/>
<text text-anchor="middle" x="713" y="-756.229" font-family="FreeSans" font-size="10.00"> hoverOffset_</text>
</g>
<!-- Node12&#45;&gt;Node3 -->
<g id="edge32" class="edge"><title>Node12&#45;&gt;Node3</title>
<path fill="none" stroke="#9a32cd" stroke-dasharray="5,2" d="M351.005,-772.488C364.017,-769.285 376.583,-763.684 386,-754.229 415.093,-725.017 375.74,-693.248 404,-663.229 431.709,-633.795 466.202,-671.351 492,-640.229 528.961,-595.64 482.602,-431.254 510,-380.229 521.108,-359.542 543.529,-344.148 560.609,-334.789"/>
<polygon fill="#9a32cd" stroke="#9a32cd" points="350.128,-769.094 341.013,-774.494 351.506,-775.957 350.128,-769.094"/>
<text text-anchor="middle" x="448" y="-745.229" font-family="FreeSans" font-size="10.00"> maxSize_</text>
<text text-anchor="middle" x="448" y="-732.229" font-family="FreeSans" font-size="10.00">childOffset_</text>
<text text-anchor="middle" x="448" y="-719.229" font-family="FreeSans" font-size="10.00">size_</text>
<text text-anchor="middle" x="448" y="-706.229" font-family="FreeSans" font-size="10.00">position_</text>
<text text-anchor="start" x="413" y="-693.229" font-family="FreeSans" font-size="10.00">screenPosition</text>
<text text-anchor="middle" x="448" y="-680.229" font-family="FreeSans" font-size="10.00">_</text>
<text text-anchor="middle" x="448" y="-667.229" font-family="FreeSans" font-size="10.00">minSize_</text>
</g>
<!-- Node12&#45;&gt;Node12 -->
<g id="edge34" class="edge"><title>Node12&#45;&gt;Node12</title>
<path fill="none" stroke="#9a32cd" stroke-dasharray="5,2" d="M259.58,-794.284C261.379,-799.393 270.519,-803.229 287,-803.229 312.727,-803.229 320.565,-793.882 310.516,-784.937"/>
<polygon fill="#9a32cd" stroke="#9a32cd" points="262.86,-795.513 263.484,-784.937 256.401,-792.816 262.86,-795.513"/>
<text text-anchor="middle" x="287" y="-807.229" font-family="FreeSans" font-size="10.00"> ZERO</text>
</g>
<!-- Node12&#45;&gt;Node23 -->
<g id="edge90" class="edge"><title>Node12&#45;&gt;Node23</title>
<path fill="none" stroke="#9a32cd" stroke-dasharray="5,2" d="M344.017,-786.942C402.266,-799.93 491.238,-819.769 542.597,-831.22"/>
<polygon fill="#9a32cd" stroke="#9a32cd" points="344.751,-783.52 334.229,-784.76 343.228,-790.352 344.751,-783.52"/>
<text text-anchor="middle" x="448" y="-822.229" font-family="FreeSans" font-size="10.00"> absoluteOffset_</text>
</g>
<!-- Node13 -->
<g id="node30" class="node"><title>Node13</title>
<a xlink:href="class_urho3_d_1_1_color.html" target="_top" xlink:title="RGBA color.">
<polygon fill="none" stroke="black" points="245,-355.729 245,-376.729 329,-376.729 329,-355.729 245,-355.729"/>
<text text-anchor="middle" x="287" y="-363.729" font-family="FreeSans" font-size="10.00">Urho3D::Color</text>
</a>
</g>
<!-- Node13&#45;&gt;Node3 -->
<g id="edge36" class="edge"><title>Node13&#45;&gt;Node3</title>
<path fill="none" stroke="#9a32cd" stroke-dasharray="5,2" d="M339.175,-359.35C380.626,-353.825 440.058,-345.771 492,-338.229 503.706,-336.529 516.248,-334.642 528.165,-332.819"/>
<polygon fill="#9a32cd" stroke="#9a32cd" points="338.49,-355.91 329.039,-360.698 339.413,-362.849 338.49,-355.91"/>
<text text-anchor="middle" x="448" y="-366.229" font-family="FreeSans" font-size="10.00"> derivedColor_</text>
<text text-anchor="middle" x="448" y="-353.229" font-family="FreeSans" font-size="10.00">color_</text>
</g>
<!-- Node13&#45;&gt;Node13 -->
<g id="edge38" class="edge"><title>Node13&#45;&gt;Node13</title>
<path fill="none" stroke="#9a32cd" stroke-dasharray="5,2" d="M259.58,-386.284C261.379,-391.393 270.519,-395.229 287,-395.229 312.727,-395.229 320.565,-385.882 310.516,-376.937"/>
<polygon fill="#9a32cd" stroke="#9a32cd" points="262.86,-387.513 263.484,-376.937 256.401,-384.816 262.86,-387.513"/>
<text text-anchor="middle" x="287" y="-529.229" font-family="FreeSans" font-size="10.00"> CYAN</text>
<text text-anchor="middle" x="287" y="-516.229" font-family="FreeSans" font-size="10.00">GRAY</text>
<text text-anchor="middle" x="287" y="-503.229" font-family="FreeSans" font-size="10.00">YELLOW</text>
<text text-anchor="middle" x="287" y="-490.229" font-family="FreeSans" font-size="10.00">MAGENTA</text>
<text text-anchor="middle" x="287" y="-477.229" font-family="FreeSans" font-size="10.00">WHITE</text>
<text text-anchor="middle" x="287" y="-464.229" font-family="FreeSans" font-size="10.00">TRANSPARENT</text>
<text text-anchor="middle" x="287" y="-451.229" font-family="FreeSans" font-size="10.00">BLUE</text>
<text text-anchor="middle" x="287" y="-438.229" font-family="FreeSans" font-size="10.00">BLACK</text>
<text text-anchor="middle" x="287" y="-425.229" font-family="FreeSans" font-size="10.00">RED</text>
<text text-anchor="middle" x="287" y="-412.229" font-family="FreeSans" font-size="10.00">GREEN</text>
<text text-anchor="middle" x="287" y="-399.229" font-family="FreeSans" font-size="10.00">...</text>
</g>
<!-- Node15 -->
<g id="node36" class="node"><title>Node15</title>
<a xlink:href="class_urho3_d_1_1_texture.html" target="_top" xlink:title="Base class for texture resources.">
<polygon fill="none" stroke="red" points="536,-718.729 536,-739.729 630,-739.729 630,-718.729 536,-718.729"/>
<text text-anchor="middle" x="583" y="-726.729" font-family="FreeSans" font-size="10.00">Urho3D::Texture</text>
</a>
</g>
<!-- Node13&#45;&gt;Node15 -->
<g id="edge54" class="edge"><title>Node13&#45;&gt;Node15</title>
<path fill="none" stroke="#9a32cd" stroke-dasharray="5,2" d="M318.939,-381.074C342.236,-391.607 374.721,-405.688 404,-416.229 442.372,-430.043 462.879,-413.678 492,-442.229 533.71,-483.123 571.952,-671.367 580.989,-718.504"/>
<polygon fill="#9a32cd" stroke="#9a32cd" points="320.105,-377.759 309.554,-376.798 317.203,-384.129 320.105,-377.759"/>
<text text-anchor="middle" x="448" y="-446.229" font-family="FreeSans" font-size="10.00"> borderColor_</text>
</g>
<!-- Node13&#45;&gt;Node18 -->
<g id="edge72" class="edge"><title>Node13&#45;&gt;Node18</title>
<path fill="none" stroke="#9a32cd" stroke-dasharray="5,2" d="M339.44,-376.872C412.049,-389.52 546.626,-405.374 656,-375.229 720.778,-357.375 787.188,-310 814.759,-288.774"/>
<polygon fill="#9a32cd" stroke="#9a32cd" points="339.647,-373.354 329.187,-375.035 338.413,-380.244 339.647,-373.354"/>
<text text-anchor="middle" x="583" y="-422.229" font-family="FreeSans" font-size="10.00"> selectionColor_</text>
<text text-anchor="middle" x="583" y="-409.229" font-family="FreeSans" font-size="10.00">effectColor_</text>
<text text-anchor="middle" x="583" y="-396.229" font-family="FreeSans" font-size="10.00">hoverColor_</text>
</g>
<!-- Node14 -->
<g id="node34" class="node"><title>Node14</title>
<a xlink:href="class_urho3_d_1_1_shared_ptr.html" target="_top" xlink:title="Urho3D::SharedPtr\&lt;\l Urho3D::Texture \&gt;">
<polygon fill="none" stroke="black" points="770,-691.229 770,-725.229 886,-725.229 886,-691.229 770,-691.229"/>
<text text-anchor="start" x="778" y="-712.229" font-family="FreeSans" font-size="10.00">Urho3D::SharedPtr&lt;</text>
<text text-anchor="middle" x="828" y="-699.229" font-family="FreeSans" font-size="10.00"> Urho3D::Texture &gt;</text>
</a>
</g>
<!-- Node14&#45;&gt;Node2 -->
<g id="edge42" class="edge"><title>Node14&#45;&gt;Node2</title>
<path fill="none" stroke="#9a32cd" stroke-dasharray="5,2" d="M896.264,-708.229C918.806,-708.229 943.728,-708.229 965.714,-708.229"/>
<polygon fill="#9a32cd" stroke="#9a32cd" points="896.094,-704.729 886.094,-708.229 896.094,-711.729 896.094,-704.729"/>
<text text-anchor="middle" x="926" y="-712.229" font-family="FreeSans" font-size="10.00"> texture_</text>
</g>
<!-- Node14&#45;&gt;Node15 -->
<g id="edge52" class="edge"><title>Node14&#45;&gt;Node15</title>
<path fill="none" stroke="#9a32cd" stroke-dasharray="5,2" d="M759.692,-714.084C718.463,-717.618 666.978,-722.031 630.238,-725.18"/>
<polygon fill="#9a32cd" stroke="#9a32cd" points="760.002,-717.57 769.667,-713.229 759.404,-710.596 760.002,-717.57"/>
<text text-anchor="middle" x="713" y="-724.229" font-family="FreeSans" font-size="10.00"> backupTexture_</text>
</g>
<!-- Node15&#45;&gt;Node14 -->
<g id="edge44" class="edge"><title>Node15&#45;&gt;Node14</title>
<path fill="none" stroke="#9a32cd" stroke-dasharray="5,2" d="M613.987,-714.497C631.23,-707.114 653.328,-698.965 674,-695.229 705.42,-689.551 740.906,-691.961 769.888,-696.166"/>
<polygon fill="#9a32cd" stroke="#9a32cd" points="612.174,-711.472 604.443,-718.717 615.004,-717.874 612.174,-711.472"/>
<text text-anchor="middle" x="713" y="-699.229" font-family="FreeSans" font-size="10.00"> ptr_</text>
</g>
<!-- Node16&#45;&gt;Node15 -->
<g id="edge46" class="edge"><title>Node16&#45;&gt;Node15</title>
<path fill="none" stroke="midnightblue" d="M348.938,-838.198C391.158,-834.913 447.294,-827.892 492,-806.229 525.255,-790.114 554.472,-757.478 570.35,-740.004"/>
<polygon fill="midnightblue" stroke="midnightblue" points="348.51,-834.72 338.792,-838.94 349.021,-841.701 348.51,-834.72"/>
</g>
<!-- Node16&#45;&gt;Node15 -->
<g id="edge50" class="edge"><title>Node16&#45;&gt;Node15</title>
<path fill="none" stroke="midnightblue" d="M348.938,-853.371C391.158,-852.913 447.294,-845.892 492,-824.229 532.297,-804.702 566.666,-760.914 578.554,-739.865"/>
<polygon fill="midnightblue" stroke="midnightblue" points="348.798,-849.871 338.792,-853.355 348.787,-856.871 348.798,-849.871"/>
</g>
<!-- Node16&#45;&gt;Node23 -->
<g id="edge82" class="edge"><title>Node16&#45;&gt;Node23</title>
<path fill="none" stroke="midnightblue" d="M348.938,-854.336C389.653,-859.047 444.067,-862.924 492,-858.229 508.829,-856.58 527.162,-853.256 542.934,-849.908"/>
<polygon fill="midnightblue" stroke="midnightblue" points="349.241,-850.847 338.894,-853.125 348.403,-857.797 349.241,-850.847"/>
</g>
<!-- Node17 -->
<g id="node45" class="node"><title>Node17</title>
<a xlink:href="class_urho3_d_1_1_shared_ptr.html" target="_top" xlink:title="Urho3D::SharedPtr\&lt;\l Urho3D::Text \&gt;">
<polygon fill="none" stroke="black" points="1106,-379.229 1106,-413.229 1222,-413.229 1222,-379.229 1106,-379.229"/>
<text text-anchor="start" x="1114" y="-400.229" font-family="FreeSans" font-size="10.00">Urho3D::SharedPtr&lt;</text>
<text text-anchor="middle" x="1164" y="-387.229" font-family="FreeSans" font-size="10.00"> Urho3D::Text &gt;</text>
</a>
</g>
<!-- Node17&#45;&gt;Node1 -->
<g id="edge58" class="edge"><title>Node17&#45;&gt;Node1</title>
<path fill="none" stroke="#9a32cd" stroke-dasharray="5,2" d="M1187.44,-421.057C1254.45,-492.052 1445.02,-693.931 1490.95,-742.584"/>
<polygon fill="#9a32cd" stroke="#9a32cd" points="1189.66,-418.317 1180.25,-413.448 1184.57,-423.122 1189.66,-418.317"/>
<text text-anchor="middle" x="1308" y="-623.229" font-family="FreeSans" font-size="10.00"> text_</text>
</g>
<!-- Node18&#45;&gt;Node17 -->
<g id="edge60" class="edge"><title>Node18&#45;&gt;Node17</title>
<path fill="none" stroke="#9a32cd" stroke-dasharray="5,2" d="M867.893,-292.239C929.733,-313.957 1048.55,-355.685 1115.34,-379.141"/>
<polygon fill="#9a32cd" stroke="#9a32cd" points="868.708,-288.816 858.113,-288.805 866.389,-295.42 868.708,-288.816"/>
<text text-anchor="middle" x="926" y="-323.229" font-family="FreeSans" font-size="10.00"> ptr_</text>
</g>
<!-- Node19 -->
<g id="node50" class="node"><title>Node19</title>
<a xlink:href="class_urho3_d_1_1_p_o_d_vector.html" target="_top" xlink:title="Urho3D::PODVector\&lt;\l int \&gt;">
<polygon fill="none" stroke="red" points="523.5,-261.229 523.5,-295.229 642.5,-295.229 642.5,-261.229 523.5,-261.229"/>
<text text-anchor="start" x="531.5" y="-282.229" font-family="FreeSans" font-size="10.00">Urho3D::PODVector&lt;</text>
<text text-anchor="middle" x="583" y="-269.229" font-family="FreeSans" font-size="10.00"> int &gt;</text>
</a>
</g>
<!-- Node19&#45;&gt;Node18 -->
<g id="edge64" class="edge"><title>Node19&#45;&gt;Node18</title>
<path fill="none" stroke="#9a32cd" stroke-dasharray="5,2" d="M652.712,-278.229C696.836,-278.229 752.259,-278.229 788.836,-278.229"/>
<polygon fill="#9a32cd" stroke="#9a32cd" points="652.62,-274.729 642.62,-278.229 652.62,-281.729 652.62,-274.729"/>
<text text-anchor="middle" x="713" y="-282.229" font-family="FreeSans" font-size="10.00"> rowWidths_</text>
</g>
<!-- Node20 -->
<g id="node52" class="node"><title>Node20</title>
<a xlink:href="class_urho3_d_1_1_weak_ptr.html" target="_top" xlink:title="Urho3D::WeakPtr\&lt; Urho3D\l::FontFace \&gt;">
<polygon fill="none" stroke="red" points="510,-209.229 510,-243.229 656,-243.229 656,-209.229 510,-209.229"/>
<text text-anchor="start" x="518" y="-230.229" font-family="FreeSans" font-size="10.00">Urho3D::WeakPtr&lt; Urho3D</text>
<text text-anchor="middle" x="583" y="-217.229" font-family="FreeSans" font-size="10.00">::FontFace &gt;</text>
</a>
</g>
<!-- Node20&#45;&gt;Node18 -->
<g id="edge66" class="edge"><title>Node20&#45;&gt;Node18</title>
<path fill="none" stroke="#9a32cd" stroke-dasharray="5,2" d="M666.18,-243.182C693.536,-248.831 724.086,-255.217 752,-261.229 764.028,-263.82 777.108,-266.716 788.972,-269.375"/>
<polygon fill="#9a32cd" stroke="#9a32cd" points="666.757,-239.728 656.256,-241.137 665.344,-246.584 666.757,-239.728"/>
<text text-anchor="middle" x="713" y="-265.229" font-family="FreeSans" font-size="10.00"> fontFace_</text>
</g>
<!-- Node21 -->
<g id="node54" class="node"><title>Node21</title>
<a xlink:href="class_urho3_d_1_1_p_o_d_vector.html" target="_top" xlink:title="Urho3D::PODVector\&lt;\l Urho3D::CharLocation \&gt;">
<polygon fill="none" stroke="red" points="514.5,-157.229 514.5,-191.229 651.5,-191.229 651.5,-157.229 514.5,-157.229"/>
<text text-anchor="start" x="522.5" y="-178.229" font-family="FreeSans" font-size="10.00">Urho3D::PODVector&lt;</text>
<text text-anchor="middle" x="583" y="-165.229" font-family="FreeSans" font-size="10.00"> Urho3D::CharLocation &gt;</text>
</a>
</g>
<!-- Node21&#45;&gt;Node18 -->
<g id="edge68" class="edge"><title>Node21&#45;&gt;Node18</title>
<path fill="none" stroke="#9a32cd" stroke-dasharray="5,2" d="M660.611,-194.191C689.93,-202.973 723.158,-214.453 752,-228.229 775.23,-239.324 799.689,-256.561 814.395,-267.62"/>
<polygon fill="#9a32cd" stroke="#9a32cd" points="661.411,-190.778 650.83,-191.316 659.437,-197.494 661.411,-190.778"/>
<text text-anchor="middle" x="713" y="-232.229" font-family="FreeSans" font-size="10.00"> charLocations_</text>
</g>
<!-- Node22&#45;&gt;Node1 -->
<g id="edge74" class="edge"><title>Node22&#45;&gt;Node1</title>
<path fill="none" stroke="#9a32cd" stroke-dasharray="5,2" d="M1386.21,-753.229C1408.58,-753.229 1432.31,-753.229 1452.35,-753.229"/>
<polygon fill="#9a32cd" stroke="#9a32cd" points="1386.04,-749.729 1376.04,-753.229 1386.04,-756.729 1386.04,-749.729"/>
<text text-anchor="middle" x="1414" y="-757.229" font-family="FreeSans" font-size="10.00"> cursor_</text>
</g>
<!-- Node23&#45;&gt;Node1 -->
<g id="edge80" class="edge"><title>Node23&#45;&gt;Node1</title>
<path fill="none" stroke="#9a32cd" stroke-dasharray="5,2" d="M633.376,-834.686C682.857,-829.725 760.529,-823.229 828,-823.229 828,-823.229 828,-823.229 1308,-823.229 1376.79,-823.229 1451.55,-783.443 1484.19,-763.86"/>
<polygon fill="#9a32cd" stroke="#9a32cd" points="632.852,-831.221 623.259,-835.718 633.563,-838.185 632.852,-831.221"/>
<text text-anchor="middle" x="1027" y="-827.229" font-family="FreeSans" font-size="10.00"> lastFont_</text>
</g>
<!-- Node24 -->
<g id="node65" class="node"><title>Node24</title>
<a xlink:href="class_urho3_d_1_1_hash_map.html" target="_top" xlink:title="Urho3D::HashMap\&lt; int,\l Urho3D::SharedPtr\&lt; Urho3D\l::FontFace \&gt; \&gt;">
<polygon fill="none" stroke="red" points="208,-926.729 208,-973.729 366,-973.729 366,-926.729 208,-926.729"/>
<text text-anchor="start" x="216" y="-960.729" font-family="FreeSans" font-size="10.00">Urho3D::HashMap&lt; int,</text>
<text text-anchor="start" x="216" y="-947.729" font-family="FreeSans" font-size="10.00"> Urho3D::SharedPtr&lt; Urho3D</text>
<text text-anchor="middle" x="287" y="-934.729" font-family="FreeSans" font-size="10.00">::FontFace &gt; &gt;</text>
</a>
</g>
<!-- Node24&#45;&gt;Node23 -->
<g id="edge84" class="edge"><title>Node24&#45;&gt;Node23</title>
<path fill="none" stroke="#9a32cd" stroke-dasharray="5,2" d="M376.303,-936.734C413.122,-929.293 455.6,-918.225 492,-902.229 522.628,-888.77 553.906,-864.739 570.633,-850.88"/>
<polygon fill="#9a32cd" stroke="#9a32cd" points="375.219,-933.38 366.078,-938.737 376.565,-940.249 375.219,-933.38"/>
<text text-anchor="middle" x="448" y="-934.229" font-family="FreeSans" font-size="10.00"> faces_</text>
</g>
<!-- Node25 -->
<g id="node67" class="node"><title>Node25</title>
<a xlink:href="class_urho3_d_1_1_shared_array_ptr.html" target="_top" xlink:title="Urho3D::SharedArrayPtr\l\&lt; unsigned char \&gt;">
<polygon fill="none" stroke="red" points="220.5,-874.229 220.5,-908.229 353.5,-908.229 353.5,-874.229 220.5,-874.229"/>
<text text-anchor="start" x="228.5" y="-895.229" font-family="FreeSans" font-size="10.00">Urho3D::SharedArrayPtr</text>
<text text-anchor="middle" x="287" y="-882.229" font-family="FreeSans" font-size="10.00">&lt; unsigned char &gt;</text>
</a>
</g>
<!-- Node25&#45;&gt;Node23 -->
<g id="edge86" class="edge"><title>Node25&#45;&gt;Node23</title>
<path fill="none" stroke="#9a32cd" stroke-dasharray="5,2" d="M363.854,-889.216C402.642,-887.009 450.211,-882.474 492,-873.229 515.464,-868.038 541.109,-858.349 559.177,-850.807"/>
<polygon fill="#9a32cd" stroke="#9a32cd" points="363.477,-885.731 353.676,-889.754 363.847,-892.721 363.477,-885.731"/>
<text text-anchor="middle" x="448" y="-889.229" font-family="FreeSans" font-size="10.00"> fontData_</text>
</g>
</g>
</svg>
