<?xml version="1.0" encoding="UTF-8" standalone="no"?>
<!DOCTYPE svg PUBLIC "-//W3C//DTD SVG 1.1//EN"
 "http://www.w3.org/Graphics/SVG/1.1/DTD/svg11.dtd">
<!-- Generated by graphviz version 2.26.3 (20100126.1600)
 -->
<!-- Title: Urho3D::BackgroundLoader Pages: 1 -->
<!--zoomable 883 -->
<svg id="main" version="1.1" xmlns="http://www.w3.org/2000/svg" xmlns:xlink="http://www.w3.org/1999/xlink" xml:space="preserve" onload="init(evt)">
        <defs>
                <circle id="rim" cx="0" cy="0" r="7"/>
                <circle id="rim2" cx="0" cy="0" r="3.5"/>
                <g id="zoomPlus">
                        <use xlink:href="#rim" fill="#404040">
                                <set attributeName="fill" to="#808080" begin="zoomplus.mouseover" end="zoomplus.mouseout"/>
                        </use>
                        <path d="M-4,0h8M0,-4v8" fill="none" stroke="white" stroke-width="1.5" pointer-events="none"/>
                </g>
                <g id="zoomMin">
                        <use xlink:href="#rim" fill="#404040">
                                <set attributeName="fill" to="#808080" begin="zoomminus.mouseover" end="zoomminus.mouseout"/>
                        </use>
                        <path d="M-4,0h8" fill="none" stroke="white" stroke-width="1.5" pointer-events="none"/>
                </g>
                <g id="dirArrow">
                        <path fill="none" stroke="white" stroke-width="1.5" d="M0,-3.0v7 M-2.5,-0.5L0,-3.0L2.5,-0.5"/>
                </g>
               <g id="resetDef">
                       <use xlink:href="#rim2" fill="#404040">
                               <set attributeName="fill" to="#808080" begin="reset.mouseover" end="reset.mouseout"/>
                       </use>
               </g>
        </defs>

<script type="text/javascript">
var viewWidth = 1674;
var viewHeight = 883;
var sectionId = 'dynsection-1';
</script>
<script xlink:href="svgpan.js"/>
<svg id="graph" class="graph">
<g id="viewport">
<title>Urho3D::BackgroundLoader</title>
<!-- Node1 -->
<g id="node1" class="node"><title>Node1</title>
<polygon fill="#bfbfbf" stroke="black" points="808.5,-237.136 808.5,-258.136 957.5,-258.136 957.5,-237.136 808.5,-237.136"/>
<text text-anchor="middle" x="883" y="-245.136" font-family="FreeSans" font-size="10.00">Urho3D::BackgroundLoader</text>
</g>
<!-- Node21 -->
<g id="node51" class="node"><title>Node21</title>
<a xlink:href="class_urho3_d_1_1_shared_ptr.html" target="_top" xlink:title="Urho3D::SharedPtr\&lt;\l Urho3D::BackgroundLoader \&gt;">
<polygon fill="none" stroke="black" points="1204,-183.636 1204,-217.636 1368,-217.636 1368,-183.636 1204,-183.636"/>
<text text-anchor="start" x="1212" y="-204.636" font-family="FreeSans" font-size="10.00">Urho3D::SharedPtr&lt;</text>
<text text-anchor="middle" x="1286" y="-191.636" font-family="FreeSans" font-size="10.00"> Urho3D::BackgroundLoader &gt;</text>
</a>
</g>
<!-- Node1&#45;&gt;Node21 -->
<g id="edge64" class="edge"><title>Node1&#45;&gt;Node21</title>
<path fill="none" stroke="#9a32cd" stroke-dasharray="5,2" d="M934.082,-234.766C947.637,-231.719 962.312,-228.745 976,-226.636 1052.73,-214.813 1141.04,-208.07 1203.72,-204.429"/>
<polygon fill="#9a32cd" stroke="#9a32cd" points="932.927,-231.441 923.97,-237.099 934.5,-238.262 932.927,-231.441"/>
<text text-anchor="middle" x="1072" y="-230.636" font-family="FreeSans" font-size="10.00"> ptr_</text>
</g>
<!-- Node2 -->
<g id="node2" class="node"><title>Node2</title>
<a xlink:href="class_urho3_d_1_1_ref_counted.html" target="_top" xlink:title="Base class for intrusively reference&#45;counted objects. These are noncopyable and non&#45;assignable.">
<polygon fill="none" stroke="black" points="442,-661.136 442,-682.136 556,-682.136 556,-661.136 442,-661.136"/>
<text text-anchor="middle" x="499" y="-669.136" font-family="FreeSans" font-size="10.00">Urho3D::RefCounted</text>
</a>
</g>
<!-- Node2&#45;&gt;Node1 -->
<g id="edge2" class="edge"><title>Node2&#45;&gt;Node1</title>
<path fill="none" stroke="midnightblue" d="M541.807,-657.742C606.535,-634.39 728.294,-580.865 790,-491.636 813.698,-457.368 794.665,-439.108 808,-399.636 826.836,-343.879 862.017,-282.469 876.508,-258.27"/>
<polygon fill="midnightblue" stroke="midnightblue" points="540.567,-654.468 532.305,-661.1 542.9,-661.067 540.567,-654.468"/>
</g>
<!-- Node6 -->
<g id="node10" class="node"><title>Node6</title>
<a xlink:href="class_urho3_d_1_1_object.html" target="_top" xlink:title="Base class for objects with type identification, subsystem access and event sending/receiving capabil...">
<polygon fill="none" stroke="black" points="838,-745.136 838,-766.136 928,-766.136 928,-745.136 838,-745.136"/>
<text text-anchor="middle" x="883" y="-753.136" font-family="FreeSans" font-size="10.00">Urho3D::Object</text>
</a>
</g>
<!-- Node2&#45;&gt;Node6 -->
<g id="edge12" class="edge"><title>Node2&#45;&gt;Node6</title>
<path fill="none" stroke="midnightblue" d="M557.258,-684.38C634.238,-701.219 768.212,-730.526 837.932,-745.777"/>
<polygon fill="midnightblue" stroke="midnightblue" points="557.762,-680.907 547.245,-682.189 556.266,-687.746 557.762,-680.907"/>
</g>
<!-- Node7 -->
<g id="node13" class="node"><title>Node7</title>
<a xlink:href="class_urho3_d_1_1_context.html" target="_top" xlink:title="Urho3D execution context. Provides access to subsystems, object factories and attributes, and event receivers.">
<polygon fill="none" stroke="red" points="1544.5,-643.136 1544.5,-664.136 1641.5,-664.136 1641.5,-643.136 1544.5,-643.136"/>
<text text-anchor="middle" x="1593" y="-651.136" font-family="FreeSans" font-size="10.00">Urho3D::Context</text>
</a>
</g>
<!-- Node2&#45;&gt;Node7 -->
<g id="edge16" class="edge"><title>Node2&#45;&gt;Node7</title>
<path fill="none" stroke="midnightblue" d="M566.397,-672.082C727.936,-672.877 1149.96,-673.337 1502,-659.636 1515.76,-659.1 1530.68,-658.235 1544.38,-657.327"/>
<polygon fill="midnightblue" stroke="midnightblue" points="566.154,-668.581 556.137,-672.029 566.118,-675.58 566.154,-668.581"/>
</g>
<!-- Node3 -->
<g id="node4" class="node"><title>Node3</title>
<a xlink:href="struct_urho3_d_1_1_ref_count.html" target="_top" xlink:title="Reference count structure.">
<polygon fill="none" stroke="black" points="223,-661.136 223,-682.136 325,-682.136 325,-661.136 223,-661.136"/>
<text text-anchor="middle" x="274" y="-669.136" font-family="FreeSans" font-size="10.00">Urho3D::RefCount</text>
</a>
</g>
<!-- Node3&#45;&gt;Node2 -->
<g id="edge4" class="edge"><title>Node3&#45;&gt;Node2</title>
<path fill="none" stroke="#9a32cd" stroke-dasharray="5,2" d="M335.109,-671.636C368.346,-671.636 409.207,-671.636 441.814,-671.636"/>
<polygon fill="#9a32cd" stroke="#9a32cd" points="335.056,-668.136 325.056,-671.636 335.056,-675.136 335.056,-668.136"/>
<text text-anchor="middle" x="371" y="-675.636" font-family="FreeSans" font-size="10.00"> refCount_</text>
</g>
<!-- Node4 -->
<g id="node6" class="node"><title>Node4</title>
<a xlink:href="class_urho3_d_1_1_thread.html" target="_top" xlink:title="Operating system thread.">
<polygon fill="none" stroke="black" points="453,-179.136 453,-200.136 545,-200.136 545,-179.136 453,-179.136"/>
<text text-anchor="middle" x="499" y="-187.136" font-family="FreeSans" font-size="10.00">Urho3D::Thread</text>
</a>
</g>
<!-- Node4&#45;&gt;Node1 -->
<g id="edge6" class="edge"><title>Node4&#45;&gt;Node1</title>
<path fill="none" stroke="midnightblue" d="M555.378,-196.885C614.076,-204.596 708.635,-217.473 790,-230.636 802.152,-232.602 815.166,-234.875 827.494,-237.106"/>
<polygon fill="midnightblue" stroke="midnightblue" points="555.573,-193.381 545.204,-195.553 554.665,-200.322 555.573,-193.381"/>
</g>
<!-- Node5 -->
<g id="node8" class="node"><title>Node5</title>
<a xlink:href="class_urho3_d_1_1_resource_cache.html" target="_top" xlink:title="Resource cache subsystem. Loads resources on demand and stores them for later access.">
<polygon fill="none" stroke="black" points="1526.5,-265.136 1526.5,-286.136 1659.5,-286.136 1659.5,-265.136 1526.5,-265.136"/>
<text text-anchor="middle" x="1593" y="-273.136" font-family="FreeSans" font-size="10.00">Urho3D::ResourceCache</text>
</a>
</g>
<!-- Node5&#45;&gt;Node1 -->
<g id="edge8" class="edge"><title>Node5&#45;&gt;Node1</title>
<path fill="none" stroke="#9a32cd" stroke-dasharray="5,2" d="M1516.16,-270.206C1477.18,-267.605 1429.09,-264.631 1386,-262.636 1233.93,-255.595 1055.83,-251.189 957.599,-249.094"/>
<polygon fill="#9a32cd" stroke="#9a32cd" points="1516.16,-273.714 1526.38,-270.893 1516.63,-266.73 1516.16,-273.714"/>
<text text-anchor="middle" x="1286" y="-266.636" font-family="FreeSans" font-size="10.00"> owner_</text>
</g>
<!-- Node6&#45;&gt;Node5 -->
<g id="edge10" class="edge"><title>Node6&#45;&gt;Node5</title>
<path fill="none" stroke="midnightblue" d="M938.162,-746.424C1060.14,-725.851 1345.22,-676.566 1386,-658.636 1444.75,-632.805 1464.97,-625.052 1502,-572.636 1570.15,-476.177 1588.3,-327.401 1592.12,-286.41"/>
<polygon fill="midnightblue" stroke="midnightblue" points="937.55,-742.978 928.27,-748.09 938.713,-749.881 937.55,-742.978"/>
</g>
<!-- Node10 -->
<g id="node20" class="node"><title>Node10</title>
<a xlink:href="class_urho3_d_1_1_event_handler.html" target="_top" xlink:title="Internal helper class for invoking event handler functions.">
<polygon fill="none" stroke="red" points="1224,-787.136 1224,-808.136 1348,-808.136 1348,-787.136 1224,-787.136"/>
<text text-anchor="middle" x="1286" y="-795.136" font-family="FreeSans" font-size="10.00">Urho3D::EventHandler</text>
</a>
</g>
<!-- Node6&#45;&gt;Node10 -->
<g id="edge24" class="edge"><title>Node6&#45;&gt;Node10</title>
<path fill="none" stroke="#9a32cd" stroke-dasharray="5,2" d="M938.497,-764.541C950.825,-766.365 963.842,-768.173 976,-769.636 1061.71,-779.948 1161.16,-788.294 1223.83,-793.111"/>
<polygon fill="#9a32cd" stroke="#9a32cd" points="938.747,-761.039 928.337,-763.012 937.705,-767.961 938.747,-761.039"/>
<text text-anchor="middle" x="1072" y="-804.636" font-family="FreeSans" font-size="10.00"> sender_</text>
<text text-anchor="middle" x="1072" y="-791.636" font-family="FreeSans" font-size="10.00">receiver_</text>
</g>
<!-- Node7&#45;&gt;Node6 -->
<g id="edge14" class="edge"><title>Node7&#45;&gt;Node6</title>
<path fill="none" stroke="#9a32cd" stroke-dasharray="5,2" d="M1561.8,-668.327C1544.43,-676.168 1522.28,-685.619 1502,-692.636 1451.57,-710.08 1438.66,-715.011 1386,-723.636 1218.69,-751.037 1016.51,-755.291 928.083,-755.74"/>
<polygon fill="#9a32cd" stroke="#9a32cd" points="1563.27,-671.502 1570.91,-664.163 1560.36,-665.135 1563.27,-671.502"/>
<text text-anchor="middle" x="1286" y="-749.636" font-family="FreeSans" font-size="10.00"> context_</text>
</g>
<!-- Node8 -->
<g id="node16" class="node"><title>Node8</title>
<a xlink:href="class_urho3_d_1_1_p_o_d_vector.html" target="_top" xlink:title="Urho3D::PODVector\&lt;\l Urho3D::Object * \&gt;">
<polygon fill="none" stroke="black" points="1226.5,-520.636 1226.5,-554.636 1345.5,-554.636 1345.5,-520.636 1226.5,-520.636"/>
<text text-anchor="start" x="1234.5" y="-541.636" font-family="FreeSans" font-size="10.00">Urho3D::PODVector&lt;</text>
<text text-anchor="middle" x="1286" y="-528.636" font-family="FreeSans" font-size="10.00"> Urho3D::Object * &gt;</text>
</a>
</g>
<!-- Node8&#45;&gt;Node7 -->
<g id="edge18" class="edge"><title>Node8&#45;&gt;Node7</title>
<path fill="none" stroke="#9a32cd" stroke-dasharray="5,2" d="M1355.92,-530.962C1399.95,-529.703 1456.79,-533.644 1502,-555.636 1542.71,-575.442 1574.2,-621.936 1586.9,-642.968"/>
<polygon fill="#9a32cd" stroke="#9a32cd" points="1355.73,-527.467 1345.88,-531.345 1356,-534.462 1355.73,-527.467"/>
<text text-anchor="middle" x="1453" y="-559.636" font-family="FreeSans" font-size="10.00"> eventSenders_</text>
</g>
<!-- Node9 -->
<g id="node18" class="node"><title>Node9</title>
<a xlink:href="class_urho3_d_1_1_vector_base.html" target="_top" xlink:title="Vector base class.">
<polygon fill="none" stroke="black" points="826,-409.136 826,-430.136 940,-430.136 940,-409.136 826,-409.136"/>
<text text-anchor="middle" x="883" y="-417.136" font-family="FreeSans" font-size="10.00">Urho3D::VectorBase</text>
</a>
</g>
<!-- Node9&#45;&gt;Node8 -->
<g id="edge20" class="edge"><title>Node9&#45;&gt;Node8</title>
<path fill="none" stroke="midnightblue" d="M913.366,-434.608C931.287,-443.041 954.586,-453.317 976,-460.636 1061.27,-489.781 1163.2,-512.951 1226.27,-525.988"/>
<polygon fill="midnightblue" stroke="midnightblue" points="914.542,-431.291 904.009,-430.143 911.527,-437.608 914.542,-431.291"/>
</g>
<!-- Node18 -->
<g id="node42" class="node"><title>Node18</title>
<a xlink:href="class_urho3_d_1_1_vector.html" target="_top" xlink:title="Urho3D::Vector\&lt; Urho3D\l::SharedPtr\&lt; Urho3D::Package\lFile \&gt; \&gt;">
<polygon fill="none" stroke="black" points="1204,-285.136 1204,-332.136 1368,-332.136 1368,-285.136 1204,-285.136"/>
<text text-anchor="start" x="1212" y="-319.136" font-family="FreeSans" font-size="10.00">Urho3D::Vector&lt; Urho3D</text>
<text text-anchor="start" x="1212" y="-306.136" font-family="FreeSans" font-size="10.00">::SharedPtr&lt; Urho3D::Package</text>
<text text-anchor="middle" x="1286" y="-293.136" font-family="FreeSans" font-size="10.00">File &gt; &gt;</text>
</a>
</g>
<!-- Node9&#45;&gt;Node18 -->
<g id="edge52" class="edge"><title>Node9&#45;&gt;Node18</title>
<path fill="none" stroke="midnightblue" d="M913.309,-404.492C931.21,-396.002 954.509,-385.725 976,-378.636 1051.71,-353.658 1140.72,-334.575 1203.89,-322.691"/>
<polygon fill="midnightblue" stroke="midnightblue" points="911.454,-401.501 903.964,-408.994 914.492,-407.807 911.454,-401.501"/>
</g>
<!-- Node19 -->
<g id="node45" class="node"><title>Node19</title>
<a xlink:href="class_urho3_d_1_1_vector.html" target="_top" xlink:title="Urho3D::Vector\&lt; Urho3D\l::SharedPtr\&lt; Urho3D::Resource\lRouter \&gt; \&gt;">
<polygon fill="none" stroke="black" points="1202,-455.136 1202,-502.136 1370,-502.136 1370,-455.136 1202,-455.136"/>
<text text-anchor="start" x="1210" y="-489.136" font-family="FreeSans" font-size="10.00">Urho3D::Vector&lt; Urho3D</text>
<text text-anchor="start" x="1210" y="-476.136" font-family="FreeSans" font-size="10.00">::SharedPtr&lt; Urho3D::Resource</text>
<text text-anchor="middle" x="1286" y="-463.136" font-family="FreeSans" font-size="10.00">Router &gt; &gt;</text>
</a>
</g>
<!-- Node9&#45;&gt;Node19 -->
<g id="edge56" class="edge"><title>Node9&#45;&gt;Node19</title>
<path fill="none" stroke="midnightblue" d="M950.173,-429.791C958.862,-431.092 967.641,-432.4 976,-433.636 1052.39,-444.93 1139.42,-457.541 1201.78,-466.532"/>
<polygon fill="midnightblue" stroke="midnightblue" points="950.454,-426.294 940.045,-428.272 949.415,-433.216 950.454,-426.294"/>
</g>
<!-- Node20 -->
<g id="node48" class="node"><title>Node20</title>
<a xlink:href="class_urho3_d_1_1_vector.html" target="_top" xlink:title="Urho3D::Vector\&lt; Urho3D\l::String \&gt;">
<polygon fill="none" stroke="black" points="1217,-402.636 1217,-436.636 1355,-436.636 1355,-402.636 1217,-402.636"/>
<text text-anchor="start" x="1225" y="-423.636" font-family="FreeSans" font-size="10.00">Urho3D::Vector&lt; Urho3D</text>
<text text-anchor="middle" x="1286" y="-410.636" font-family="FreeSans" font-size="10.00">::String &gt;</text>
</a>
</g>
<!-- Node9&#45;&gt;Node20 -->
<g id="edge60" class="edge"><title>Node9&#45;&gt;Node20</title>
<path fill="none" stroke="midnightblue" d="M950.433,-419.636C1024.29,-419.636 1142.14,-419.636 1216.72,-419.636"/>
<polygon fill="midnightblue" stroke="midnightblue" points="950.312,-416.136 940.312,-419.636 950.312,-423.136 950.312,-416.136"/>
</g>
<!-- Node24 -->
<g id="node59" class="node"><title>Node24</title>
<a xlink:href="class_urho3_d_1_1_vector.html" target="_top" xlink:title="Urho3D::Vector\&lt; Urho3D\l::SharedPtr\&lt; Urho3D::FileWatcher \&gt; \&gt;">
<polygon fill="none" stroke="black" points="1186,-350.636 1186,-384.636 1386,-384.636 1386,-350.636 1186,-350.636"/>
<text text-anchor="start" x="1194" y="-371.636" font-family="FreeSans" font-size="10.00">Urho3D::Vector&lt; Urho3D</text>
<text text-anchor="middle" x="1286" y="-358.636" font-family="FreeSans" font-size="10.00">::SharedPtr&lt; Urho3D::FileWatcher &gt; &gt;</text>
</a>
</g>
<!-- Node9&#45;&gt;Node24 -->
<g id="edge74" class="edge"><title>Node9&#45;&gt;Node24</title>
<path fill="none" stroke="midnightblue" d="M950.333,-410.948C1014.61,-402.654 1112.27,-390.052 1185.71,-380.576"/>
<polygon fill="midnightblue" stroke="midnightblue" points="949.782,-407.49 940.312,-412.241 950.678,-414.432 949.782,-407.49"/>
</g>
<!-- Node10&#45;&gt;Node7 -->
<g id="edge22" class="edge"><title>Node10&#45;&gt;Node7</title>
<path fill="none" stroke="#9a32cd" stroke-dasharray="5,2" d="M1358.22,-792.95C1411.23,-788.463 1477.99,-780.308 1502,-766.636 1545.56,-741.83 1576.38,-687.308 1587.95,-664.258"/>
<polygon fill="#9a32cd" stroke="#9a32cd" points="1357.84,-789.47 1348.16,-793.773 1358.41,-796.447 1357.84,-789.47"/>
<text text-anchor="middle" x="1453" y="-791.636" font-family="FreeSans" font-size="10.00"> eventHandler_</text>
</g>
<!-- Node16 -->
<g id="node36" class="node"><title>Node16</title>
<a xlink:href="class_urho3_d_1_1_linked_list.html" target="_top" xlink:title="Urho3D::LinkedList\l\&lt; Urho3D::EventHandler \&gt;">
<polygon fill="none" stroke="black" points="1520,-821.636 1520,-855.636 1666,-855.636 1666,-821.636 1520,-821.636"/>
<text text-anchor="start" x="1528" y="-842.636" font-family="FreeSans" font-size="10.00">Urho3D::LinkedList</text>
<text text-anchor="middle" x="1593" y="-829.636" font-family="FreeSans" font-size="10.00">&lt; Urho3D::EventHandler &gt;</text>
</a>
</g>
<!-- Node10&#45;&gt;Node16 -->
<g id="edge44" class="edge"><title>Node10&#45;&gt;Node16</title>
<path fill="none" stroke="#9a32cd" stroke-dasharray="5,2" d="M1358.54,-806.8C1400.47,-812.158 1454.23,-819.128 1502,-825.636 1507.85,-826.433 1513.91,-827.271 1520,-828.122"/>
<polygon fill="#9a32cd" stroke="#9a32cd" points="1358.78,-803.302 1348.41,-805.509 1357.89,-810.246 1358.78,-803.302"/>
<text text-anchor="middle" x="1453" y="-829.636" font-family="FreeSans" font-size="10.00"> head_</text>
</g>
<!-- Node11 -->
<g id="node23" class="node"><title>Node11</title>
<a xlink:href="class_urho3_d_1_1_hash_map.html" target="_top" xlink:title="Urho3D::HashMap\&lt; Urho3D\l::StringHash, Urho3D::\lHashSet\&lt; Urho3D::Object * \&gt; \&gt;">
<polygon fill="none" stroke="black" points="609.5,-435.136 609.5,-482.136 782.5,-482.136 782.5,-435.136 609.5,-435.136"/>
<text text-anchor="start" x="617.5" y="-469.136" font-family="FreeSans" font-size="10.00">Urho3D::HashMap&lt; Urho3D</text>
<text text-anchor="start" x="617.5" y="-456.136" font-family="FreeSans" font-size="10.00">::StringHash, Urho3D::</text>
<text text-anchor="middle" x="696" y="-443.136" font-family="FreeSans" font-size="10.00">HashSet&lt; Urho3D::Object * &gt; &gt;</text>
</a>
</g>
<!-- Node11&#45;&gt;Node7 -->
<g id="edge26" class="edge"><title>Node11&#45;&gt;Node7</title>
<path fill="none" stroke="#9a32cd" stroke-dasharray="5,2" d="M792.85,-479.69C983.768,-521.194 1402.51,-612.225 1544.67,-643.13"/>
<polygon fill="#9a32cd" stroke="#9a32cd" points="793.338,-476.215 782.823,-477.51 791.851,-483.055 793.338,-476.215"/>
<text text-anchor="middle" x="1072" y="-562.636" font-family="FreeSans" font-size="10.00"> eventReceivers_</text>
</g>
<!-- Node12 -->
<g id="node25" class="node"><title>Node12</title>
<a xlink:href="class_urho3_d_1_1_hash_base.html" target="_top" xlink:title="Hash set/map base class.">
<polygon fill="none" stroke="black" points="220,-278.136 220,-299.136 328,-299.136 328,-278.136 220,-278.136"/>
<text text-anchor="middle" x="274" y="-286.136" font-family="FreeSans" font-size="10.00">Urho3D::HashBase</text>
</a>
</g>
<!-- Node12&#45;&gt;Node11 -->
<g id="edge28" class="edge"><title>Node12&#45;&gt;Node11</title>
<path fill="none" stroke="midnightblue" d="M309.72,-303.025C382.562,-332.369 548.856,-399.36 637.627,-435.12"/>
<polygon fill="midnightblue" stroke="midnightblue" points="310.663,-299.632 300.08,-299.142 308.047,-306.125 310.663,-299.632"/>
</g>
<!-- Node15 -->
<g id="node33" class="node"><title>Node15</title>
<a xlink:href="class_urho3_d_1_1_hash_map.html" target="_top" xlink:title="Urho3D::HashMap\&lt; Urho3D\l::Object *, Urho3D::HashMap\l\&lt; Urho3D::StringHash, Urho3D\l::HashSet\&lt; Urho3D::Object * \&gt; \&gt; \&gt;">
<polygon fill="none" stroke="black" points="976.5,-596.636 976.5,-656.636 1167.5,-656.636 1167.5,-596.636 976.5,-596.636"/>
<text text-anchor="start" x="984.5" y="-643.636" font-family="FreeSans" font-size="10.00">Urho3D::HashMap&lt; Urho3D</text>
<text text-anchor="start" x="984.5" y="-630.636" font-family="FreeSans" font-size="10.00">::Object *, Urho3D::HashMap</text>
<text text-anchor="start" x="984.5" y="-617.636" font-family="FreeSans" font-size="10.00">&lt; Urho3D::StringHash, Urho3D</text>
<text text-anchor="middle" x="1072" y="-604.636" font-family="FreeSans" font-size="10.00">::HashSet&lt; Urho3D::Object * &gt; &gt; &gt;</text>
</a>
</g>
<!-- Node12&#45;&gt;Node15 -->
<g id="edge40" class="edge"><title>Node12&#45;&gt;Node15</title>
<path fill="none" stroke="midnightblue" d="M294.466,-305.664C321.085,-327.412 369.46,-365.586 414,-393.636 493.733,-443.848 514.499,-456.675 602,-491.636 727.942,-541.955 879.723,-582.043 976.052,-605.075"/>
<polygon fill="midnightblue" stroke="midnightblue" points="296.567,-302.861 286.62,-299.214 292.122,-308.268 296.567,-302.861"/>
</g>
<!-- Node17 -->
<g id="node39" class="node"><title>Node17</title>
<a xlink:href="class_urho3_d_1_1_hash_map.html" target="_top" xlink:title="Urho3D::HashMap\&lt; Urho3D\l::StringHash, Urho3D::\lHashSet\&lt; Urho3D::StringHash \&gt; \&gt;">
<polygon fill="none" stroke="black" points="602,-46.1357 602,-93.1357 790,-93.1357 790,-46.1357 602,-46.1357"/>
<text text-anchor="start" x="610" y="-80.1357" font-family="FreeSans" font-size="10.00">Urho3D::HashMap&lt; Urho3D</text>
<text text-anchor="start" x="610" y="-67.1357" font-family="FreeSans" font-size="10.00">::StringHash, Urho3D::</text>
<text text-anchor="middle" x="696" y="-54.1357" font-family="FreeSans" font-size="10.00">HashSet&lt; Urho3D::StringHash &gt; &gt;</text>
</a>
</g>
<!-- Node12&#45;&gt;Node17 -->
<g id="edge48" class="edge"><title>Node12&#45;&gt;Node17</title>
<path fill="none" stroke="midnightblue" d="M275.135,-267.695C278.529,-227.823 292.063,-141.358 346,-100.636 418.54,-45.8682 525.205,-44.3519 601.698,-52.6522"/>
<polygon fill="midnightblue" stroke="midnightblue" points="271.632,-267.616 274.409,-277.84 278.614,-268.116 271.632,-267.616"/>
</g>
<!-- Node22 -->
<g id="node54" class="node"><title>Node22</title>
<a xlink:href="class_urho3_d_1_1_hash_map.html" target="_top" xlink:title="Urho3D::HashMap\&lt; Urho3D\l::StringHash, Urho3D::\lResourceGroup \&gt;">
<polygon fill="none" stroke="black" points="996,-87.1357 996,-134.136 1148,-134.136 1148,-87.1357 996,-87.1357"/>
<text text-anchor="start" x="1004" y="-121.136" font-family="FreeSans" font-size="10.00">Urho3D::HashMap&lt; Urho3D</text>
<text text-anchor="start" x="1004" y="-108.136" font-family="FreeSans" font-size="10.00">::StringHash, Urho3D::</text>
<text text-anchor="middle" x="1072" y="-95.1357" font-family="FreeSans" font-size="10.00">ResourceGroup &gt;</text>
</a>
</g>
<!-- Node12&#45;&gt;Node22 -->
<g id="edge68" class="edge"><title>Node12&#45;&gt;Node22</title>
<path fill="none" stroke="midnightblue" d="M289.341,-270.166C313.004,-243.085 361.23,-193.262 414,-169.636 516.26,-123.851 845.686,-113.586 995.977,-111.292"/>
<polygon fill="midnightblue" stroke="midnightblue" points="286.659,-267.917 282.808,-277.787 291.974,-272.473 286.659,-267.917"/>
</g>
<!-- Node25 -->
<g id="node62" class="node"><title>Node25</title>
<a xlink:href="class_urho3_d_1_1_hash_map.html" target="_top" xlink:title="Urho3D::HashMap\&lt; Urho3D\l::Pair\&lt; Urho3D::StringHash,\l Urho3D::StringHash \&gt;, Urho3D\l::BackgroundLoadItem \&gt;">
<polygon fill="none" stroke="black" points="414,-258.636 414,-318.636 584,-318.636 584,-258.636 414,-258.636"/>
<text text-anchor="start" x="422" y="-305.636" font-family="FreeSans" font-size="10.00">Urho3D::HashMap&lt; Urho3D</text>
<text text-anchor="start" x="422" y="-292.636" font-family="FreeSans" font-size="10.00">::Pair&lt; Urho3D::StringHash,</text>
<text text-anchor="start" x="422" y="-279.636" font-family="FreeSans" font-size="10.00"> Urho3D::StringHash &gt;, Urho3D</text>
<text text-anchor="middle" x="499" y="-266.636" font-family="FreeSans" font-size="10.00">::BackgroundLoadItem &gt;</text>
</a>
</g>
<!-- Node12&#45;&gt;Node25 -->
<g id="edge78" class="edge"><title>Node12&#45;&gt;Node25</title>
<path fill="none" stroke="midnightblue" d="M338.347,-288.636C361.796,-288.636 388.687,-288.636 413.675,-288.636"/>
<polygon fill="midnightblue" stroke="midnightblue" points="338.179,-285.136 328.179,-288.636 338.179,-292.136 338.179,-285.136"/>
</g>
<!-- Node13 -->
<g id="node27" class="node"><title>Node13</title>
<a xlink:href="struct_urho3_d_1_1_hash_node_base.html" target="_top" xlink:title="Hash set/map node base class.">
<polygon fill="none" stroke="black" points="0,-322.136 0,-343.136 134,-343.136 134,-322.136 0,-322.136"/>
<text text-anchor="middle" x="67" y="-330.136" font-family="FreeSans" font-size="10.00">Urho3D::HashNodeBase</text>
</a>
</g>
<!-- Node13&#45;&gt;Node12 -->
<g id="edge30" class="edge"><title>Node13&#45;&gt;Node12</title>
<path fill="none" stroke="#9a32cd" stroke-dasharray="5,2" d="M126.414,-320.007C157.457,-313.408 195.009,-305.426 224.465,-299.165"/>
<polygon fill="#9a32cd" stroke="#9a32cd" points="125.635,-316.594 116.582,-322.097 127.091,-323.441 125.635,-316.594"/>
<text text-anchor="middle" x="177" y="-342.636" font-family="FreeSans" font-size="10.00"> ptrs_</text>
<text text-anchor="middle" x="177" y="-329.636" font-family="FreeSans" font-size="10.00">tail_</text>
<text text-anchor="middle" x="177" y="-316.636" font-family="FreeSans" font-size="10.00">head_</text>
</g>
<!-- Node13&#45;&gt;Node13 -->
<g id="edge32" class="edge"><title>Node13&#45;&gt;Node13</title>
<path fill="none" stroke="#9a32cd" stroke-dasharray="5,2" d="M46.7282,-353.062C48.292,-357.985 55.0493,-361.636 67,-361.636 86.1211,-361.636 91.9471,-352.289 84.4779,-343.344"/>
<polygon fill="#9a32cd" stroke="#9a32cd" points="50.1229,-353.921 49.5221,-343.344 43.3954,-351.987 50.1229,-353.921"/>
<text text-anchor="middle" x="67" y="-391.636" font-family="FreeSans" font-size="10.00"> next_</text>
<text text-anchor="middle" x="67" y="-378.636" font-family="FreeSans" font-size="10.00">prev_</text>
<text text-anchor="middle" x="67" y="-365.636" font-family="FreeSans" font-size="10.00">down_</text>
</g>
<!-- Node14 -->
<g id="node30" class="node"><title>Node14</title>
<a xlink:href="struct_urho3_d_1_1_allocator_block.html" target="_top" xlink:title="Allocator memory block.">
<polygon fill="none" stroke="red" points="3.5,-251.136 3.5,-272.136 130.5,-272.136 130.5,-251.136 3.5,-251.136"/>
<text text-anchor="middle" x="67" y="-259.136" font-family="FreeSans" font-size="10.00">Urho3D::AllocatorBlock</text>
</a>
</g>
<!-- Node14&#45;&gt;Node12 -->
<g id="edge34" class="edge"><title>Node14&#45;&gt;Node12</title>
<path fill="none" stroke="#9a32cd" stroke-dasharray="5,2" d="M140.721,-271.252C166.762,-274.648 195.551,-278.403 219.689,-281.552"/>
<polygon fill="#9a32cd" stroke="#9a32cd" points="140.882,-267.743 130.514,-269.92 139.977,-274.684 140.882,-267.743"/>
<text text-anchor="middle" x="177" y="-282.636" font-family="FreeSans" font-size="10.00"> allocator_</text>
</g>
<!-- Node14&#45;&gt;Node14 -->
<g id="edge36" class="edge"><title>Node14&#45;&gt;Node14</title>
<path fill="none" stroke="#9a32cd" stroke-dasharray="5,2" d="M46.7282,-282.062C48.292,-286.985 55.0493,-290.636 67,-290.636 86.1211,-290.636 91.9471,-281.289 84.4779,-272.344"/>
<polygon fill="#9a32cd" stroke="#9a32cd" points="50.1229,-282.921 49.5221,-272.344 43.3954,-280.987 50.1229,-282.921"/>
<text text-anchor="middle" x="67" y="-294.636" font-family="FreeSans" font-size="10.00"> next_</text>
</g>
<!-- Node15&#45;&gt;Node7 -->
<g id="edge38" class="edge"><title>Node15&#45;&gt;Node7</title>
<path fill="none" stroke="#9a32cd" stroke-dasharray="5,2" d="M1177.85,-632.121C1289.69,-637.917 1461.12,-646.801 1544.33,-651.113"/>
<polygon fill="#9a32cd" stroke="#9a32cd" points="1177.73,-628.61 1167.56,-631.588 1177.36,-635.601 1177.73,-628.61"/>
<text text-anchor="middle" x="1286" y="-645.636" font-family="FreeSans" font-size="10.00"> specificEventReceivers_</text>
</g>
<!-- Node16&#45;&gt;Node6 -->
<g id="edge42" class="edge"><title>Node16&#45;&gt;Node6</title>
<path fill="none" stroke="#9a32cd" stroke-dasharray="5,2" d="M1509.99,-850.225C1389.05,-863.937 1158.91,-877.95 976,-817.636 943.012,-806.758 910.688,-780.78 894.227,-766.137"/>
<polygon fill="#9a32cd" stroke="#9a32cd" points="1510.39,-853.702 1519.92,-849.071 1509.59,-846.748 1510.39,-853.702"/>
<text text-anchor="middle" x="1286" y="-865.636" font-family="FreeSans" font-size="10.00"> eventHandlers_</text>
</g>
<!-- Node17&#45;&gt;Node5 -->
<g id="edge46" class="edge"><title>Node17&#45;&gt;Node5</title>
<path fill="none" stroke="#9a32cd" stroke-dasharray="5,2" d="M787.86,-43.6563C948.879,-4.00083 1285.51,52.0181 1502,-100.636 1560.77,-142.078 1584.36,-233.289 1590.93,-264.73"/>
<polygon fill="#9a32cd" stroke="#9a32cd" points="786.834,-40.305 777.979,-46.1236 788.53,-47.0965 786.834,-40.305"/>
<text text-anchor="middle" x="1072" y="-13.6357" font-family="FreeSans" font-size="10.00"> dependentResources_</text>
</g>
<!-- Node18&#45;&gt;Node5 -->
<g id="edge50" class="edge"><title>Node18&#45;&gt;Node5</title>
<path fill="none" stroke="#9a32cd" stroke-dasharray="5,2" d="M1378.27,-298.718C1425.81,-293.607 1482.74,-287.488 1526.02,-282.835"/>
<polygon fill="#9a32cd" stroke="#9a32cd" points="1377.84,-295.244 1368.27,-299.792 1378.59,-302.203 1377.84,-295.244"/>
<text text-anchor="middle" x="1453" y="-298.636" font-family="FreeSans" font-size="10.00"> packages_</text>
</g>
<!-- Node19&#45;&gt;Node5 -->
<g id="edge54" class="edge"><title>Node19&#45;&gt;Node5</title>
<path fill="none" stroke="#9a32cd" stroke-dasharray="5,2" d="M1379.92,-464.031C1420.43,-454.244 1466.53,-438.096 1502,-411.636 1548.23,-377.152 1578.36,-311.841 1588.86,-286.276"/>
<polygon fill="#9a32cd" stroke="#9a32cd" points="1378.98,-460.657 1370.03,-466.324 1380.56,-467.476 1378.98,-460.657"/>
<text text-anchor="middle" x="1453" y="-459.636" font-family="FreeSans" font-size="10.00"> resourceRouters_</text>
</g>
<!-- Node20&#45;&gt;Node5 -->
<g id="edge58" class="edge"><title>Node20&#45;&gt;Node5</title>
<path fill="none" stroke="#9a32cd" stroke-dasharray="5,2" d="M1365.41,-405.332C1407.85,-395.467 1459.87,-379.696 1502,-355.636 1535.79,-336.338 1568.27,-303.153 1583.68,-286.23"/>
<polygon fill="#9a32cd" stroke="#9a32cd" points="1364.39,-401.975 1355.4,-407.592 1365.93,-408.803 1364.39,-401.975"/>
<text text-anchor="middle" x="1453" y="-398.636" font-family="FreeSans" font-size="10.00"> resourceDirs_</text>
</g>
<!-- Node21&#45;&gt;Node5 -->
<g id="edge62" class="edge"><title>Node21&#45;&gt;Node5</title>
<path fill="none" stroke="#9a32cd" stroke-dasharray="5,2" d="M1378.31,-204.142C1417.19,-207.556 1462.5,-214.12 1502,-226.636 1530.39,-235.633 1560.23,-253.565 1577.69,-265.062"/>
<polygon fill="#9a32cd" stroke="#9a32cd" points="1378.3,-200.629 1368.04,-203.3 1377.72,-207.606 1378.3,-200.629"/>
<text text-anchor="middle" x="1453" y="-230.636" font-family="FreeSans" font-size="10.00"> backgroundLoader_</text>
</g>
<!-- Node22&#45;&gt;Node5 -->
<g id="edge66" class="edge"><title>Node22&#45;&gt;Node5</title>
<path fill="none" stroke="#9a32cd" stroke-dasharray="5,2" d="M1158.21,-95.1675C1250.24,-83.3241 1396.99,-78.2746 1502,-141.636 1551.12,-171.274 1579.74,-238.768 1589.34,-264.964"/>
<polygon fill="#9a32cd" stroke="#9a32cd" points="1157.54,-91.7258 1148.09,-96.5248 1158.47,-98.6636 1157.54,-91.7258"/>
<text text-anchor="middle" x="1286" y="-101.636" font-family="FreeSans" font-size="10.00"> resourceGroups_</text>
</g>
<!-- Node23 -->
<g id="node57" class="node"><title>Node23</title>
<a xlink:href="class_urho3_d_1_1_mutex.html" target="_top" xlink:title="Operating system mutual exclusion primitive.">
<polygon fill="none" stroke="black" points="454.5,-219.136 454.5,-240.136 543.5,-240.136 543.5,-219.136 454.5,-219.136"/>
<text text-anchor="middle" x="499" y="-227.136" font-family="FreeSans" font-size="10.00">Urho3D::Mutex</text>
</a>
</g>
<!-- Node23&#45;&gt;Node1 -->
<g id="edge80" class="edge"><title>Node23&#45;&gt;Node1</title>
<path fill="none" stroke="#9a32cd" stroke-dasharray="5,2" d="M554.108,-232.219C620.869,-235.348 733.639,-240.634 808.206,-244.13"/>
<polygon fill="#9a32cd" stroke="#9a32cd" points="553.954,-228.708 543.801,-231.736 553.626,-235.7 553.954,-228.708"/>
<text text-anchor="middle" x="696" y="-246.636" font-family="FreeSans" font-size="10.00"> backgroundLoadMutex_</text>
</g>
<!-- Node23&#45;&gt;Node5 -->
<g id="edge70" class="edge"><title>Node23&#45;&gt;Node5</title>
<path fill="none" stroke="#9a32cd" stroke-dasharray="5,2" d="M553.944,-219.374C693.445,-194.807 1072.49,-137.334 1386,-174.636 1438.66,-180.902 1454.39,-179.259 1502,-202.636 1535.09,-218.884 1567.12,-248.926 1582.88,-264.936"/>
<polygon fill="#9a32cd" stroke="#9a32cd" points="553.159,-215.959 543.926,-221.155 554.385,-222.851 553.159,-215.959"/>
<text text-anchor="middle" x="1072" y="-171.636" font-family="FreeSans" font-size="10.00"> resourceMutex_</text>
</g>
<!-- Node24&#45;&gt;Node5 -->
<g id="edge72" class="edge"><title>Node24&#45;&gt;Node5</title>
<path fill="none" stroke="#9a32cd" stroke-dasharray="5,2" d="M1370.63,-348.252C1410.78,-338.408 1459.21,-325.587 1502,-311.636 1524.94,-304.157 1550.43,-293.898 1568.58,-286.245"/>
<polygon fill="#9a32cd" stroke="#9a32cd" points="1369.77,-344.86 1360.88,-350.626 1371.42,-351.662 1369.77,-344.86"/>
<text text-anchor="middle" x="1453" y="-342.636" font-family="FreeSans" font-size="10.00"> fileWatchers_</text>
</g>
<!-- Node25&#45;&gt;Node1 -->
<g id="edge76" class="edge"><title>Node25&#45;&gt;Node1</title>
<path fill="none" stroke="#9a32cd" stroke-dasharray="5,2" d="M594.123,-279.858C651.005,-274.434 724.689,-267.102 790,-259.636 795.985,-258.952 802.182,-258.215 808.405,-257.454"/>
<polygon fill="#9a32cd" stroke="#9a32cd" points="593.689,-276.383 584.065,-280.814 594.351,-283.352 593.689,-276.383"/>
<text text-anchor="middle" x="696" y="-282.636" font-family="FreeSans" font-size="10.00"> backgroundLoadQueue_</text>
</g>
</g>
</svg>
        <g id="navigator" transform="translate(0 0)" fill="#404254">
                <rect fill="#f2f5e9" fill-opacity="0.5" stroke="#606060" stroke-width=".5" x="0" y="0" width="60" height="60"/>
                <use id="zoomplus" xlink:href="#zoomPlus" x="17" y="9" onmousedown="handleZoom(evt,'in')"/>
                <use id="zoomminus" xlink:href="#zoomMin" x="42" y="9" onmousedown="handleZoom(evt,'out')"/>
                <use id="reset" xlink:href="#resetDef" x="30" y="36" onmousedown="handleReset()"/>
                <g id="arrowUp" xlink:href="#dirArrow" transform="translate(30 24)" onmousedown="handlePan(0,-1)">
                  <use xlink:href="#rim" fill="#404040">
                        <set attributeName="fill" to="#808080" begin="arrowUp.mouseover" end="arrowUp.mouseout"/>
                  </use>
                  <path fill="none" stroke="white" stroke-width="1.5" d="M0,-3.0v7 M-2.5,-0.5L0,-3.0L2.5,-0.5"/>
                </g>
                <g id="arrowRight" xlink:href="#dirArrow" transform="rotate(90) translate(36 -43)" onmousedown="handlePan(1,0)">
                  <use xlink:href="#rim" fill="#404040">
                        <set attributeName="fill" to="#808080" begin="arrowRight.mouseover" end="arrowRight.mouseout"/>
                  </use>
                  <path fill="none" stroke="white" stroke-width="1.5" d="M0,-3.0v7 M-2.5,-0.5L0,-3.0L2.5,-0.5"/>
                </g>
                <g id="arrowDown" xlink:href="#dirArrow" transform="rotate(180) translate(-30 -48)" onmousedown="handlePan(0,1)">
                  <use xlink:href="#rim" fill="#404040">
                        <set attributeName="fill" to="#808080" begin="arrowDown.mouseover" end="arrowDown.mouseout"/>
                  </use>
                  <path fill="none" stroke="white" stroke-width="1.5" d="M0,-3.0v7 M-2.5,-0.5L0,-3.0L2.5,-0.5"/>
                </g>
                <g id="arrowLeft" xlink:href="#dirArrow" transform="rotate(270) translate(-36 17)" onmousedown="handlePan(-1,0)">
                  <use xlink:href="#rim" fill="#404040">
                        <set attributeName="fill" to="#808080" begin="arrowLeft.mouseover" end="arrowLeft.mouseout"/>
                  </use>
                  <path fill="none" stroke="white" stroke-width="1.5" d="M0,-3.0v7 M-2.5,-0.5L0,-3.0L2.5,-0.5"/>
                </g>
        </g>
        <svg viewBox="0 0 15 15" width="100%" height="30px" preserveAspectRatio="xMaxYMin meet">
         <g id="arrow_out" transform="scale(0.3 0.3)">
          <a xlink:href="class_urho3_d_1_1_background_loader__coll__graph_org.svg" target="_base">
           <rect id="button" ry="5" rx="5" y="6" x="6" height="38" width="38"
                fill="#f2f5e9" fill-opacity="0.5" stroke="#606060" stroke-width="1.0"/>
           <path id="arrow"
             d="M 11.500037,31.436501 C 11.940474,20.09759 22.043105,11.32322 32.158766,21.979434 L 37.068811,17.246167 C 37.068811,17.246167 37.088388,32 37.088388,32 L 22.160133,31.978069 C 22.160133,31.978069 26.997745,27.140456 26.997745,27.140456 C 18.528582,18.264221 13.291696,25.230495 11.500037,31.436501 z"
             style="fill:#404040;"/>
          </a>
         </g>
        </svg>
</svg>
