<?xml version="1.0" encoding="UTF-8" standalone="no"?>
<!DOCTYPE svg PUBLIC "-//W3C//DTD SVG 1.1//EN"
 "http://www.w3.org/Graphics/SVG/1.1/DTD/svg11.dtd">
<!-- Generated by graphviz version 2.26.3 (20100126.1600)
 -->
<!-- Title: Urho3D::CustomGeometry Pages: 1 -->
<svg width="1598pt" height="703pt"
 viewBox="0.00 0.00 1598.00 703.00" xmlns="http://www.w3.org/2000/svg" xmlns:xlink="http://www.w3.org/1999/xlink">
<g id="graph1" class="graph" transform="scale(1 1) rotate(0) translate(4 699)">
<title>Urho3D::CustomGeometry</title>
<!-- Node1 -->
<g id="node1" class="node"><title>Node1</title>
<polygon fill="#bfbfbf" stroke="black" points="1148.5,-548.5 1148.5,-569.5 1293.5,-569.5 1293.5,-548.5 1148.5,-548.5"/>
<text text-anchor="middle" x="1221" y="-556.5" font-family="FreeSans" font-size="10.00">Urho3D::CustomGeometry</text>
</g>
<!-- Node2 -->
<g id="node2" class="node"><title>Node2</title>
<a xlink:href="class_urho3_d_1_1_drawable.html" target="_top" xlink:title="Base class for visible components.">
<polygon fill="none" stroke="black" points="895,-357.5 895,-378.5 999,-378.5 999,-357.5 895,-357.5"/>
<text text-anchor="middle" x="947" y="-365.5" font-family="FreeSans" font-size="10.00">Urho3D::Drawable</text>
</a>
</g>
<!-- Node2&#45;&gt;Node1 -->
<g id="edge2" class="edge"><title>Node2&#45;&gt;Node1</title>
<path fill="none" stroke="midnightblue" d="M974.439,-383.935C1010.85,-405.406 1076.74,-445.398 1130,-484 1159.51,-505.385 1191.98,-533.291 1209.02,-548.311"/>
<polygon fill="midnightblue" stroke="midnightblue" points="975.81,-380.681 965.414,-378.637 972.266,-386.718 975.81,-380.681"/>
</g>
<!-- Node8 -->
<g id="node18" class="node"><title>Node8</title>
<a xlink:href="class_urho3_d_1_1_zone.html" target="_top" xlink:title="Component that describes global rendering properties.">
<polygon fill="none" stroke="black" points="1178.5,-112.5 1178.5,-133.5 1263.5,-133.5 1263.5,-112.5 1178.5,-112.5"/>
<text text-anchor="middle" x="1221" y="-120.5" font-family="FreeSans" font-size="10.00">Urho3D::Zone</text>
</a>
</g>
<!-- Node2&#45;&gt;Node8 -->
<g id="edge24" class="edge"><title>Node2&#45;&gt;Node8</title>
<path fill="none" stroke="midnightblue" d="M1009.46,-364.086C1048.02,-358.732 1096.37,-346.354 1130,-318 1190.55,-266.95 1213.22,-166.722 1219.23,-133.777"/>
<polygon fill="midnightblue" stroke="midnightblue" points="1008.86,-360.634 999.374,-365.359 1009.73,-367.579 1008.86,-360.634"/>
</g>
<!-- Node17 -->
<g id="node42" class="node"><title>Node17</title>
<a xlink:href="class_urho3_d_1_1_light.html" target="_top" xlink:title="Light component.">
<polygon fill="none" stroke="red" points="1179.5,-317.5 1179.5,-338.5 1262.5,-338.5 1262.5,-317.5 1179.5,-317.5"/>
<text text-anchor="middle" x="1221" y="-325.5" font-family="FreeSans" font-size="10.00">Urho3D::Light</text>
</a>
</g>
<!-- Node2&#45;&gt;Node17 -->
<g id="edge54" class="edge"><title>Node2&#45;&gt;Node17</title>
<path fill="none" stroke="midnightblue" d="M1009.46,-372.064C1045.12,-373.036 1090.45,-371.988 1130,-364 1155.15,-358.921 1182.29,-347.309 1200.32,-338.637"/>
<polygon fill="midnightblue" stroke="midnightblue" points="1009.32,-368.557 999.205,-371.721 1009.08,-375.553 1009.32,-368.557"/>
</g>
<!-- Node3 -->
<g id="node4" class="node"><title>Node3</title>
<a xlink:href="class_urho3_d_1_1_component.html" target="_top" xlink:title="Base class for components. Components can be created to scene nodes.">
<polygon fill="none" stroke="black" points="497,-303.5 497,-324.5 613,-324.5 613,-303.5 497,-303.5"/>
<text text-anchor="middle" x="555" y="-311.5" font-family="FreeSans" font-size="10.00">Urho3D::Component</text>
</a>
</g>
<!-- Node3&#45;&gt;Node2 -->
<g id="edge4" class="edge"><title>Node3&#45;&gt;Node2</title>
<path fill="none" stroke="midnightblue" d="M623.072,-323.002C684.5,-331.176 777.334,-343.651 858,-355 869.907,-356.675 882.702,-358.519 894.775,-360.278"/>
<polygon fill="midnightblue" stroke="midnightblue" points="623.486,-319.527 613.112,-321.678 622.564,-326.466 623.486,-319.527"/>
</g>
<!-- Node4 -->
<g id="node6" class="node"><title>Node4</title>
<a xlink:href="class_urho3_d_1_1_animatable.html" target="_top" xlink:title="Base class for animatable object, an animatable object can be set animation on it&#39;s attributes...">
<polygon fill="none" stroke="red" points="0,-300.5 0,-321.5 114,-321.5 114,-300.5 0,-300.5"/>
<text text-anchor="middle" x="57" y="-308.5" font-family="FreeSans" font-size="10.00">Urho3D::Animatable</text>
</a>
</g>
<!-- Node4&#45;&gt;Node3 -->
<g id="edge6" class="edge"><title>Node4&#45;&gt;Node3</title>
<path fill="none" stroke="midnightblue" d="M124.238,-311.405C222.484,-311.997 403.657,-313.088 496.619,-313.648"/>
<polygon fill="midnightblue" stroke="midnightblue" points="124.148,-307.905 114.127,-311.344 124.106,-314.904 124.148,-307.905"/>
</g>
<!-- Node5 -->
<g id="node8" class="node"><title>Node5</title>
<a xlink:href="class_urho3_d_1_1_node.html" target="_top" xlink:title="Scene node that may contain components and child nodes.">
<polygon fill="none" stroke="red" points="250.5,-323.5 250.5,-344.5 335.5,-344.5 335.5,-323.5 250.5,-323.5"/>
<text text-anchor="middle" x="293" y="-331.5" font-family="FreeSans" font-size="10.00">Urho3D::Node</text>
</a>
</g>
<!-- Node4&#45;&gt;Node5 -->
<g id="edge10" class="edge"><title>Node4&#45;&gt;Node5</title>
<path fill="none" stroke="midnightblue" d="M124.221,-317.551C164.815,-321.507 215.317,-326.429 250.45,-329.853"/>
<polygon fill="midnightblue" stroke="midnightblue" points="124.421,-314.054 114.129,-316.568 123.742,-321.021 124.421,-314.054"/>
</g>
<!-- Node5&#45;&gt;Node3 -->
<g id="edge8" class="edge"><title>Node5&#45;&gt;Node3</title>
<path fill="none" stroke="#9a32cd" stroke-dasharray="5,2" d="M345.817,-329.968C389.519,-326.632 451.525,-321.899 496.678,-318.452"/>
<polygon fill="#9a32cd" stroke="#9a32cd" points="345.382,-326.491 335.678,-330.742 345.915,-333.471 345.382,-326.491"/>
<text text-anchor="middle" x="419" y="-331" font-family="FreeSans" font-size="10.00"> node_</text>
</g>
<!-- Node5&#45;&gt;Node5 -->
<g id="edge12" class="edge"><title>Node5&#45;&gt;Node5</title>
<path fill="none" stroke="#9a32cd" stroke-dasharray="5,2" d="M270.885,-354.427C272.591,-359.349 279.963,-363 293,-363 313.859,-363 320.215,-353.653 312.067,-344.708"/>
<polygon fill="#9a32cd" stroke="#9a32cd" points="274.28,-355.297 273.933,-344.708 267.601,-353.202 274.28,-355.297"/>
<text text-anchor="middle" x="293" y="-367" font-family="FreeSans" font-size="10.00"> parent_</text>
</g>
<!-- Node6 -->
<g id="node12" class="node"><title>Node6</title>
<a xlink:href="class_urho3_d_1_1_string_hash.html" target="_top" xlink:title="32&#45;bit hash value for a string.">
<polygon fill="none" stroke="black" points="0.5,-600.5 0.5,-621.5 113.5,-621.5 113.5,-600.5 0.5,-600.5"/>
<text text-anchor="middle" x="57" y="-608.5" font-family="FreeSans" font-size="10.00">Urho3D::StringHash</text>
</a>
</g>
<!-- Node6&#45;&gt;Node5 -->
<g id="edge14" class="edge"><title>Node6&#45;&gt;Node5</title>
<path fill="none" stroke="#9a32cd" stroke-dasharray="5,2" d="M72.4499,-592.866C117.625,-539.842 248.527,-386.199 284.028,-344.531"/>
<polygon fill="#9a32cd" stroke="#9a32cd" points="69.7844,-590.598 65.9633,-600.48 75.1128,-595.137 69.7844,-590.598"/>
<text text-anchor="middle" x="173" y="-525" font-family="FreeSans" font-size="10.00"> nameHash_</text>
</g>
<!-- Node6&#45;&gt;Node6 -->
<g id="edge16" class="edge"><title>Node6&#45;&gt;Node6</title>
<path fill="none" stroke="#9a32cd" stroke-dasharray="5,2" d="M35.6225,-631.427C37.2716,-636.349 44.3975,-640 57,-640 77.1641,-640 83.3078,-630.653 75.4312,-621.708"/>
<polygon fill="#9a32cd" stroke="#9a32cd" points="39.017,-632.293 38.5688,-621.708 32.318,-630.262 39.017,-632.293"/>
<text text-anchor="middle" x="57" y="-644" font-family="FreeSans" font-size="10.00"> ZERO</text>
</g>
<!-- Node20 -->
<g id="node56" class="node"><title>Node20</title>
<a xlink:href="struct_urho3_d_1_1_resource_ref_list.html" target="_top" xlink:title="List of typed resource references.">
<polygon fill="none" stroke="black" points="880,-665.5 880,-686.5 1014,-686.5 1014,-665.5 880,-665.5"/>
<text text-anchor="middle" x="947" y="-673.5" font-family="FreeSans" font-size="10.00">Urho3D::ResourceRefList</text>
</a>
</g>
<!-- Node6&#45;&gt;Node20 -->
<g id="edge76" class="edge"><title>Node6&#45;&gt;Node20</title>
<path fill="none" stroke="#9a32cd" stroke-dasharray="5,2" d="M114.472,-623.674C196.131,-641.061 350.644,-671.668 484,-685 554.793,-692.077 572.863,-688.889 644,-690 739.1,-691.486 763.178,-697.412 858,-690 867.824,-689.232 878.203,-687.994 888.268,-686.564"/>
<polygon fill="#9a32cd" stroke="#9a32cd" points="114.912,-620.189 104.401,-621.518 113.447,-627.034 114.912,-620.189"/>
<text text-anchor="middle" x="419" y="-686" font-family="FreeSans" font-size="10.00"> type_</text>
</g>
<!-- Node7 -->
<g id="node15" class="node"><title>Node7</title>
<a xlink:href="class_urho3_d_1_1_matrix3x4.html" target="_top" xlink:title="3x4 matrix for scene node transform calculations.">
<polygon fill="none" stroke="black" points="4,-77.5 4,-98.5 110,-98.5 110,-77.5 4,-77.5"/>
<text text-anchor="middle" x="57" y="-85.5" font-family="FreeSans" font-size="10.00">Urho3D::Matrix3x4</text>
</a>
</g>
<!-- Node7&#45;&gt;Node5 -->
<g id="edge18" class="edge"><title>Node7&#45;&gt;Node5</title>
<path fill="none" stroke="#9a32cd" stroke-dasharray="5,2" d="M74.07,-105.793C120.187,-153.865 246.27,-285.29 282.897,-323.469"/>
<polygon fill="#9a32cd" stroke="#9a32cd" points="76.5892,-103.364 67.1406,-98.5703 71.5378,-108.21 76.5892,-103.364"/>
<text text-anchor="middle" x="173" y="-251" font-family="FreeSans" font-size="10.00"> worldTransform_</text>
</g>
<!-- Node7&#45;&gt;Node7 -->
<g id="edge20" class="edge"><title>Node7&#45;&gt;Node7</title>
<path fill="none" stroke="#9a32cd" stroke-dasharray="5,2" d="M35.6225,-108.427C37.2716,-113.349 44.3975,-117 57,-117 77.1641,-117 83.3078,-107.653 75.4312,-98.7079"/>
<polygon fill="#9a32cd" stroke="#9a32cd" points="39.017,-109.293 38.5688,-98.7079 32.318,-107.262 39.017,-109.293"/>
<text text-anchor="middle" x="57" y="-134" font-family="FreeSans" font-size="10.00"> IDENTITY</text>
<text text-anchor="middle" x="57" y="-121" font-family="FreeSans" font-size="10.00">ZERO</text>
</g>
<!-- Node7&#45;&gt;Node8 -->
<g id="edge38" class="edge"><title>Node7&#45;&gt;Node8</title>
<path fill="none" stroke="#9a32cd" stroke-dasharray="5,2" d="M81.7713,-72.024C123.558,-46.6558 211.49,-0 293,-0 293,-0 293,-0 947,-0 1031.93,-0 1054.16,-16.7764 1130,-55 1161.35,-70.8002 1193.1,-97.5035 1209.53,-112.309"/>
<polygon fill="#9a32cd" stroke="#9a32cd" points="79.7678,-69.1477 73.1048,-77.3851 83.4504,-75.1008 79.7678,-69.1477"/>
<text text-anchor="middle" x="555" y="-4" font-family="FreeSans" font-size="10.00"> inverseWorld_</text>
</g>
<!-- Node7&#45;&gt;Node17 -->
<g id="edge60" class="edge"><title>Node7&#45;&gt;Node17</title>
<path fill="none" stroke="#9a32cd" stroke-dasharray="5,2" d="M120.074,-79.0172C290.132,-56.3304 752.398,-5.26515 858,-104 891.566,-135.383 842.943,-278.081 876,-310 918.176,-350.724 1097.14,-339.746 1179.37,-332.283"/>
<polygon fill="#9a32cd" stroke="#9a32cd" points="119.467,-75.5673 110.024,-80.3706 120.401,-82.5047 119.467,-75.5673"/>
<text text-anchor="middle" x="555" y="-51" font-family="FreeSans" font-size="10.00"> volumeTransform_</text>
</g>
<!-- Node8&#45;&gt;Node2 -->
<g id="edge22" class="edge"><title>Node8&#45;&gt;Node2</title>
<path fill="none" stroke="#9a32cd" stroke-dasharray="5,2" d="M1201.03,-140.109C1183.38,-154.447 1156.41,-174.52 1130,-187 1090.81,-205.518 1065.3,-181.055 1036,-213 1006.36,-245.314 1040.34,-272.272 1018,-310 1005.67,-330.817 982.954,-347.361 966.529,-357.367"/>
<polygon fill="#9a32cd" stroke="#9a32cd" points="1203.43,-142.664 1208.9,-133.589 1198.96,-137.273 1203.43,-142.664"/>
<text text-anchor="middle" x="1083" y="-217" font-family="FreeSans" font-size="10.00"> zone_</text>
</g>
<!-- Node9 -->
<g id="node21" class="node"><title>Node9</title>
<a xlink:href="class_urho3_d_1_1_weak_ptr.html" target="_top" xlink:title="Urho3D::WeakPtr\&lt; Urho3D\l::Zone \&gt;">
<polygon fill="none" stroke="red" points="1444,-106 1444,-140 1590,-140 1590,-106 1444,-106"/>
<text text-anchor="start" x="1452" y="-127" font-family="FreeSans" font-size="10.00">Urho3D::WeakPtr&lt; Urho3D</text>
<text text-anchor="middle" x="1517" y="-114" font-family="FreeSans" font-size="10.00">::Zone &gt;</text>
</a>
</g>
<!-- Node8&#45;&gt;Node9 -->
<g id="edge28" class="edge"><title>Node8&#45;&gt;Node9</title>
<path fill="none" stroke="#9a32cd" stroke-dasharray="5,2" d="M1273.81,-129.112C1286.31,-130.313 1299.61,-131.389 1312,-132 1362.61,-134.496 1375.39,-134.496 1426,-132 1431.71,-131.718 1437.61,-131.338 1443.54,-130.892"/>
<polygon fill="#9a32cd" stroke="#9a32cd" points="1273.83,-125.597 1263.53,-128.082 1273.13,-132.562 1273.83,-125.597"/>
<text text-anchor="middle" x="1369" y="-138" font-family="FreeSans" font-size="10.00"> ptr_</text>
</g>
<!-- Node9&#45;&gt;Node8 -->
<g id="edge26" class="edge"><title>Node9&#45;&gt;Node8</title>
<path fill="none" stroke="#9a32cd" stroke-dasharray="5,2" d="M1464.83,-102.66C1452.3,-98.6567 1438.83,-95.0604 1426,-93 1375.97,-84.9666 1362.03,-84.9666 1312,-93 1289.01,-96.6925 1263.95,-105.319 1245.96,-112.378"/>
<polygon fill="#9a32cd" stroke="#9a32cd" points="1464.06,-106.09 1474.65,-105.936 1466.27,-99.4499 1464.06,-106.09"/>
<text text-anchor="start" x="1312.5" y="-123" font-family="FreeSans" font-size="10.00"> lastAmbientEndZone</text>
<text text-anchor="middle" x="1369" y="-110" font-family="FreeSans" font-size="10.00">_</text>
<text text-anchor="middle" x="1369" y="-97" font-family="FreeSans" font-size="10.00">lastAmbientStartZone_</text>
</g>
<!-- Node10 -->
<g id="node24" class="node"><title>Node10</title>
<a xlink:href="class_urho3_d_1_1_shared_ptr.html" target="_top" xlink:title="Urho3D::SharedPtr\&lt;\l Urho3D::Texture \&gt;">
<polygon fill="none" stroke="red" points="889,-267 889,-301 1005,-301 1005,-267 889,-267"/>
<text text-anchor="start" x="897" y="-288" font-family="FreeSans" font-size="10.00">Urho3D::SharedPtr&lt;</text>
<text text-anchor="middle" x="947" y="-275" font-family="FreeSans" font-size="10.00"> Urho3D::Texture &gt;</text>
</a>
</g>
<!-- Node10&#45;&gt;Node8 -->
<g id="edge30" class="edge"><title>Node10&#45;&gt;Node8</title>
<path fill="none" stroke="#9a32cd" stroke-dasharray="5,2" d="M1013.64,-262.406C1015.19,-261.028 1016.64,-259.561 1018,-258 1043.04,-229.181 1009.79,-201.768 1036,-174 1040.99,-168.715 1125.13,-146.938 1178.2,-133.609"/>
<polygon fill="#9a32cd" stroke="#9a32cd" points="1011.25,-259.822 1005.31,-268.594 1015.43,-265.441 1011.25,-259.822"/>
<text text-anchor="middle" x="1083" y="-178" font-family="FreeSans" font-size="10.00"> zoneTexture_</text>
</g>
<!-- Node10&#45;&gt;Node17 -->
<g id="edge56" class="edge"><title>Node10&#45;&gt;Node17</title>
<path fill="none" stroke="#9a32cd" stroke-dasharray="5,2" d="M1015.42,-279.207C1050.13,-278.355 1092.72,-279.743 1130,-288 1156.62,-293.897 1185.05,-307.752 1202.91,-317.495"/>
<polygon fill="#9a32cd" stroke="#9a32cd" points="1015.27,-275.71 1005.39,-279.521 1015.49,-282.707 1015.27,-275.71"/>
<text text-anchor="middle" x="1083" y="-305" font-family="FreeSans" font-size="10.00"> shapeTexture_</text>
<text text-anchor="middle" x="1083" y="-292" font-family="FreeSans" font-size="10.00">rampTexture_</text>
</g>
<!-- Node11 -->
<g id="node26" class="node"><title>Node11</title>
<a xlink:href="class_urho3_d_1_1_bounding_box.html" target="_top" xlink:title="Three&#45;dimensional axis&#45;aligned bounding box.">
<polygon fill="none" stroke="red" points="232,-164.5 232,-185.5 354,-185.5 354,-164.5 232,-164.5"/>
<text text-anchor="middle" x="293" y="-172.5" font-family="FreeSans" font-size="10.00">Urho3D::BoundingBox</text>
</a>
</g>
<!-- Node11&#45;&gt;Node2 -->
<g id="edge62" class="edge"><title>Node11&#45;&gt;Node2</title>
<path fill="none" stroke="#9a32cd" stroke-dasharray="5,2" d="M364.826,-171.123C501.612,-165.433 791.793,-162.053 858,-231 892.92,-267.365 843.683,-304.303 876,-343 881.194,-349.219 888.036,-353.892 895.424,-357.403"/>
<polygon fill="#9a32cd" stroke="#9a32cd" points="364.294,-167.643 354.454,-171.571 364.596,-174.636 364.294,-167.643"/>
<text text-anchor="middle" x="555" y="-189" font-family="FreeSans" font-size="10.00"> worldBoundingBox_</text>
<text text-anchor="middle" x="555" y="-176" font-family="FreeSans" font-size="10.00">boundingBox_</text>
</g>
<!-- Node11&#45;&gt;Node8 -->
<g id="edge32" class="edge"><title>Node11&#45;&gt;Node8</title>
<path fill="none" stroke="#9a32cd" stroke-dasharray="5,2" d="M353.481,-162.42C497.335,-132.544 849.879,-59.6169 876,-57 938.797,-50.7087 955.135,-51.4311 1018,-57 1068.37,-61.4618 1082.04,-60.9801 1130,-77 1157.03,-86.0295 1186.06,-101.896 1203.87,-112.428"/>
<polygon fill="#9a32cd" stroke="#9a32cd" points="352.57,-159.034 343.491,-164.495 353.994,-165.888 352.57,-159.034"/>
<text text-anchor="middle" x="751" y="-106" font-family="FreeSans" font-size="10.00"> lastWorldBoundingBox_</text>
</g>
<!-- Node18 -->
<g id="node49" class="node"><title>Node18</title>
<a xlink:href="class_urho3_d_1_1_octant.html" target="_top" xlink:title="Octree octant">
<polygon fill="none" stroke="red" points="509,-219.5 509,-240.5 601,-240.5 601,-219.5 509,-219.5"/>
<text text-anchor="middle" x="555" y="-227.5" font-family="FreeSans" font-size="10.00">Urho3D::Octant</text>
</a>
</g>
<!-- Node11&#45;&gt;Node18 -->
<g id="edge66" class="edge"><title>Node11&#45;&gt;Node18</title>
<path fill="none" stroke="#9a32cd" stroke-dasharray="5,2" d="M353.036,-187.603C400.428,-197.552 465.568,-211.226 508.914,-220.326"/>
<polygon fill="#9a32cd" stroke="#9a32cd" points="353.712,-184.169 343.206,-185.539 352.274,-191.019 353.712,-184.169"/>
<text text-anchor="middle" x="419" y="-227" font-family="FreeSans" font-size="10.00"> cullingBox_</text>
<text text-anchor="middle" x="419" y="-214" font-family="FreeSans" font-size="10.00">worldBoundingBox_</text>
</g>
<!-- Node12 -->
<g id="node28" class="node"><title>Node12</title>
<a xlink:href="class_urho3_d_1_1_color.html" target="_top" xlink:title="RGBA color.">
<polygon fill="none" stroke="black" points="905,-66.5 905,-87.5 989,-87.5 989,-66.5 905,-66.5"/>
<text text-anchor="middle" x="947" y="-74.5" font-family="FreeSans" font-size="10.00">Urho3D::Color</text>
</a>
</g>
<!-- Node12&#45;&gt;Node8 -->
<g id="edge34" class="edge"><title>Node12&#45;&gt;Node8</title>
<path fill="none" stroke="#9a32cd" stroke-dasharray="5,2" d="M999.212,-78.3607C1036.07,-80.0981 1086.46,-84.0447 1130,-93 1152.16,-97.5573 1176.46,-105.739 1194.37,-112.409"/>
<polygon fill="#9a32cd" stroke="#9a32cd" points="999.332,-74.8627 989.19,-77.9269 999.029,-81.8562 999.332,-74.8627"/>
<text text-anchor="middle" x="1083" y="-136" font-family="FreeSans" font-size="10.00"> ambientEndColor_</text>
<text text-anchor="middle" x="1083" y="-123" font-family="FreeSans" font-size="10.00">fogColor_</text>
<text text-anchor="middle" x="1083" y="-110" font-family="FreeSans" font-size="10.00">ambientColor_</text>
<text text-anchor="middle" x="1083" y="-97" font-family="FreeSans" font-size="10.00">ambientStartColor_</text>
</g>
<!-- Node12&#45;&gt;Node12 -->
<g id="edge36" class="edge"><title>Node12&#45;&gt;Node12</title>
<path fill="none" stroke="#9a32cd" stroke-dasharray="5,2" d="M921.804,-97.0551C923.456,-102.164 931.855,-106 947,-106 970.641,-106 977.844,-96.6531 968.609,-87.7079"/>
<polygon fill="#9a32cd" stroke="#9a32cd" points="925.076,-98.298 925.391,-87.7079 918.54,-95.7899 925.076,-98.298"/>
<text text-anchor="middle" x="947" y="-240" font-family="FreeSans" font-size="10.00"> CYAN</text>
<text text-anchor="middle" x="947" y="-227" font-family="FreeSans" font-size="10.00">GRAY</text>
<text text-anchor="middle" x="947" y="-214" font-family="FreeSans" font-size="10.00">YELLOW</text>
<text text-anchor="middle" x="947" y="-201" font-family="FreeSans" font-size="10.00">MAGENTA</text>
<text text-anchor="middle" x="947" y="-188" font-family="FreeSans" font-size="10.00">WHITE</text>
<text text-anchor="middle" x="947" y="-175" font-family="FreeSans" font-size="10.00">TRANSPARENT</text>
<text text-anchor="middle" x="947" y="-162" font-family="FreeSans" font-size="10.00">BLUE</text>
<text text-anchor="middle" x="947" y="-149" font-family="FreeSans" font-size="10.00">BLACK</text>
<text text-anchor="middle" x="947" y="-136" font-family="FreeSans" font-size="10.00">RED</text>
<text text-anchor="middle" x="947" y="-123" font-family="FreeSans" font-size="10.00">GREEN</text>
<text text-anchor="middle" x="947" y="-110" font-family="FreeSans" font-size="10.00">...</text>
</g>
<!-- Node12&#45;&gt;Node17 -->
<g id="edge58" class="edge"><title>Node12&#45;&gt;Node17</title>
<path fill="none" stroke="#9a32cd" stroke-dasharray="5,2" d="M954.015,-97.2166C966.004,-128.95 993.355,-190.487 1036,-226 1070.26,-254.528 1090.78,-239.802 1130,-261 1160.38,-277.419 1192,-302.93 1208.79,-317.271"/>
<polygon fill="#9a32cd" stroke="#9a32cd" points="957.251,-95.8746 950.538,-87.6781 950.674,-98.2721 957.251,-95.8746"/>
<text text-anchor="middle" x="1083" y="-265" font-family="FreeSans" font-size="10.00"> color_</text>
</g>
<!-- Node13 -->
<g id="node32" class="node"><title>Node13</title>
<a xlink:href="class_urho3_d_1_1_p_o_d_vector.html" target="_top" xlink:title="Urho3D::PODVector\&lt;\l Urho3D::Light * \&gt;">
<polygon fill="none" stroke="black" points="495.5,-343 495.5,-377 614.5,-377 614.5,-343 495.5,-343"/>
<text text-anchor="start" x="503.5" y="-364" font-family="FreeSans" font-size="10.00">Urho3D::PODVector&lt;</text>
<text text-anchor="middle" x="555" y="-351" font-family="FreeSans" font-size="10.00"> Urho3D::Light * &gt;</text>
</a>
</g>
<!-- Node13&#45;&gt;Node2 -->
<g id="edge40" class="edge"><title>Node13&#45;&gt;Node2</title>
<path fill="none" stroke="#9a32cd" stroke-dasharray="5,2" d="M624.871,-359.776C686.296,-359.798 778.103,-360.362 858,-363 869.91,-363.393 882.707,-364.002 894.78,-364.662"/>
<polygon fill="#9a32cd" stroke="#9a32cd" points="624.523,-356.276 614.523,-359.778 624.524,-363.276 624.523,-356.276"/>
<text text-anchor="middle" x="751" y="-380" font-family="FreeSans" font-size="10.00"> vertexLights_</text>
<text text-anchor="middle" x="751" y="-367" font-family="FreeSans" font-size="10.00">lights_</text>
</g>
<!-- Node14 -->
<g id="node34" class="node"><title>Node14</title>
<a xlink:href="class_urho3_d_1_1_vector_base.html" target="_top" xlink:title="Vector base class.">
<polygon fill="none" stroke="black" points="236,-538.5 236,-559.5 350,-559.5 350,-538.5 236,-538.5"/>
<text text-anchor="middle" x="293" y="-546.5" font-family="FreeSans" font-size="10.00">Urho3D::VectorBase</text>
</a>
</g>
<!-- Node14&#45;&gt;Node13 -->
<g id="edge42" class="edge"><title>Node14&#45;&gt;Node13</title>
<path fill="none" stroke="midnightblue" d="M303.365,-529.475C316.649,-505.965 341.629,-466.47 372,-441 407.939,-410.86 456.864,-389.983 495.085,-376.981"/>
<polygon fill="midnightblue" stroke="midnightblue" points="300.162,-528.036 298.407,-538.485 306.295,-531.411 300.162,-528.036"/>
</g>
<!-- Node15 -->
<g id="node36" class="node"><title>Node15</title>
<a xlink:href="class_urho3_d_1_1_p_o_d_vector.html" target="_top" xlink:title="Urho3D::PODVector\&lt;\l Urho3D::Camera * \&gt;">
<polygon fill="none" stroke="black" points="495,-395 495,-429 615,-429 615,-395 495,-395"/>
<text text-anchor="start" x="503" y="-416" font-family="FreeSans" font-size="10.00">Urho3D::PODVector&lt;</text>
<text text-anchor="middle" x="555" y="-403" font-family="FreeSans" font-size="10.00"> Urho3D::Camera * &gt;</text>
</a>
</g>
<!-- Node14&#45;&gt;Node15 -->
<g id="edge46" class="edge"><title>Node14&#45;&gt;Node15</title>
<path fill="none" stroke="midnightblue" d="M313.088,-531.748C328.548,-518.976 350.792,-501.668 372,-489 418.957,-460.953 433.394,-458.752 484,-438 491.287,-435.012 499.059,-431.996 506.687,-429.13"/>
<polygon fill="midnightblue" stroke="midnightblue" points="310.663,-529.213 305.246,-538.319 315.159,-534.579 310.663,-529.213"/>
</g>
<!-- Node16 -->
<g id="node39" class="node"><title>Node16</title>
<a xlink:href="class_urho3_d_1_1_vector.html" target="_top" xlink:title="Urho3D::Vector\&lt; Urho3D\l::SourceBatch \&gt;">
<polygon fill="none" stroke="black" points="486,-447 486,-481 624,-481 624,-447 486,-447"/>
<text text-anchor="start" x="494" y="-468" font-family="FreeSans" font-size="10.00">Urho3D::Vector&lt; Urho3D</text>
<text text-anchor="middle" x="555" y="-455" font-family="FreeSans" font-size="10.00">::SourceBatch &gt;</text>
</a>
</g>
<!-- Node14&#45;&gt;Node16 -->
<g id="edge50" class="edge"><title>Node14&#45;&gt;Node16</title>
<path fill="none" stroke="midnightblue" d="M334.937,-535.394C380.397,-520.646 453.035,-497.08 502.313,-481.093"/>
<polygon fill="midnightblue" stroke="midnightblue" points="333.821,-532.077 325.389,-538.492 335.981,-538.735 333.821,-532.077"/>
</g>
<!-- Node19 -->
<g id="node53" class="node"><title>Node19</title>
<a xlink:href="class_urho3_d_1_1_p_o_d_vector.html" target="_top" xlink:title="Urho3D::PODVector\&lt;\l PrimitiveType \&gt;">
<polygon fill="none" stroke="black" points="691.5,-566 691.5,-600 810.5,-600 810.5,-566 691.5,-566"/>
<text text-anchor="start" x="699.5" y="-587" font-family="FreeSans" font-size="10.00">Urho3D::PODVector&lt;</text>
<text text-anchor="middle" x="751" y="-574" font-family="FreeSans" font-size="10.00"> PrimitiveType &gt;</text>
</a>
</g>
<!-- Node14&#45;&gt;Node19 -->
<g id="edge72" class="edge"><title>Node14&#45;&gt;Node19</title>
<path fill="none" stroke="midnightblue" d="M360.225,-559.644C364.205,-560.139 368.152,-560.597 372,-561 484.583,-572.793 616.692,-578.664 691.453,-581.252"/>
<polygon fill="midnightblue" stroke="midnightblue" points="360.677,-556.173 350.307,-558.343 359.767,-563.114 360.677,-556.173"/>
</g>
<!-- Node21 -->
<g id="node59" class="node"><title>Node21</title>
<a xlink:href="class_urho3_d_1_1_vector.html" target="_top" xlink:title="Urho3D::Vector\&lt; String \&gt;">
<polygon fill="none" stroke="black" points="484.5,-654.5 484.5,-675.5 625.5,-675.5 625.5,-654.5 484.5,-654.5"/>
<text text-anchor="middle" x="555" y="-662.5" font-family="FreeSans" font-size="10.00">Urho3D::Vector&lt; String &gt;</text>
</a>
</g>
<!-- Node14&#45;&gt;Node21 -->
<g id="edge80" class="edge"><title>Node14&#45;&gt;Node21</title>
<path fill="none" stroke="midnightblue" d="M303.981,-568.514C317.159,-589.919 341.361,-623.428 372,-640 406.127,-658.459 448.877,-665.054 484.473,-666.876"/>
<polygon fill="midnightblue" stroke="midnightblue" points="306.829,-566.453 298.719,-559.636 300.807,-570.023 306.829,-566.453"/>
</g>
<!-- Node22 -->
<g id="node62" class="node"><title>Node22</title>
<a xlink:href="class_urho3_d_1_1_vector.html" target="_top" xlink:title="Urho3D::Vector\&lt; Urho3D\l::PODVector\&lt; Urho3D::CustomGeometry\lVertex \&gt; \&gt;">
<polygon fill="none" stroke="black" points="644,-605.5 644,-652.5 858,-652.5 858,-605.5 644,-605.5"/>
<text text-anchor="start" x="652" y="-639.5" font-family="FreeSans" font-size="10.00">Urho3D::Vector&lt; Urho3D</text>
<text text-anchor="start" x="652" y="-626.5" font-family="FreeSans" font-size="10.00">::PODVector&lt; Urho3D::CustomGeometry</text>
<text text-anchor="middle" x="751" y="-613.5" font-family="FreeSans" font-size="10.00">Vertex &gt; &gt;</text>
</a>
</g>
<!-- Node14&#45;&gt;Node22 -->
<g id="edge84" class="edge"><title>Node14&#45;&gt;Node22</title>
<path fill="none" stroke="midnightblue" d="M327.015,-563.334C340.773,-568.642 356.936,-574.269 372,-578 462.222,-600.346 567.112,-613.504 643.644,-620.84"/>
<polygon fill="midnightblue" stroke="midnightblue" points="328.059,-559.983 317.473,-559.557 325.483,-566.492 328.059,-559.983"/>
</g>
<!-- Node25 -->
<g id="node69" class="node"><title>Node25</title>
<a xlink:href="class_urho3_d_1_1_vector.html" target="_top" xlink:title="Urho3D::Vector\&lt; Urho3D\l::SharedPtr\&lt; Urho3D::Geometry \&gt; \&gt;">
<polygon fill="none" stroke="black" points="653.5,-527 653.5,-561 848.5,-561 848.5,-527 653.5,-527"/>
<text text-anchor="start" x="661.5" y="-548" font-family="FreeSans" font-size="10.00">Urho3D::Vector&lt; Urho3D</text>
<text text-anchor="middle" x="751" y="-535" font-family="FreeSans" font-size="10.00">::SharedPtr&lt; Urho3D::Geometry &gt; &gt;</text>
</a>
</g>
<!-- Node14&#45;&gt;Node25 -->
<g id="edge92" class="edge"><title>Node14&#45;&gt;Node25</title>
<path fill="none" stroke="midnightblue" d="M360.184,-548.267C437.52,-547.422 565.204,-546.028 653.475,-545.065"/>
<polygon fill="midnightblue" stroke="midnightblue" points="360.041,-544.768 350.08,-548.377 360.118,-551.767 360.041,-544.768"/>
</g>
<!-- Node15&#45;&gt;Node2 -->
<g id="edge44" class="edge"><title>Node15&#45;&gt;Node2</title>
<path fill="none" stroke="#9a32cd" stroke-dasharray="5,2" d="M625.112,-409.778C686.752,-407.088 778.739,-401.283 858,-389 874.63,-386.423 892.747,-382.38 908.268,-378.526"/>
<polygon fill="#9a32cd" stroke="#9a32cd" points="624.951,-406.282 615.107,-410.199 625.245,-413.276 624.951,-406.282"/>
<text text-anchor="middle" x="751" y="-412" font-family="FreeSans" font-size="10.00"> viewCameras_</text>
</g>
<!-- Node16&#45;&gt;Node2 -->
<g id="edge48" class="edge"><title>Node16&#45;&gt;Node2</title>
<path fill="none" stroke="#9a32cd" stroke-dasharray="5,2" d="M634.297,-463.253C696.769,-460.444 785.17,-451.488 858,-425 887.831,-414.151 917.988,-391.934 934.407,-378.668"/>
<polygon fill="#9a32cd" stroke="#9a32cd" points="633.961,-459.763 624.112,-463.666 634.246,-466.757 633.961,-459.763"/>
<text text-anchor="middle" x="751" y="-466" font-family="FreeSans" font-size="10.00"> batches_</text>
</g>
<!-- Node17&#45;&gt;Node2 -->
<g id="edge52" class="edge"><title>Node17&#45;&gt;Node2</title>
<path fill="none" stroke="#9a32cd" stroke-dasharray="5,2" d="M1202.46,-345.325C1185.2,-360.179 1157.99,-380.486 1130,-389 1077.53,-404.96 1013.23,-390.111 976.502,-378.57"/>
<polygon fill="#9a32cd" stroke="#9a32cd" points="1204.94,-347.804 1210.09,-338.547 1200.29,-342.57 1204.94,-347.804"/>
<text text-anchor="middle" x="1083" y="-399" font-family="FreeSans" font-size="10.00"> firstLight_</text>
</g>
<!-- Node18&#45;&gt;Node2 -->
<g id="edge64" class="edge"><title>Node18&#45;&gt;Node2</title>
<path fill="none" stroke="#9a32cd" stroke-dasharray="5,2" d="M611.283,-231.419C677.035,-235.827 785.975,-251.999 858,-309 871.407,-319.611 863.047,-331.839 876,-343 883.227,-349.227 892.106,-353.936 901.106,-357.486"/>
<polygon fill="#9a32cd" stroke="#9a32cd" points="611.305,-227.914 601.113,-230.808 610.885,-234.902 611.305,-227.914"/>
<text text-anchor="middle" x="751" y="-313" font-family="FreeSans" font-size="10.00"> octant_</text>
</g>
<!-- Node18&#45;&gt;Node18 -->
<g id="edge68" class="edge"><title>Node18&#45;&gt;Node18</title>
<path fill="none" stroke="#9a32cd" stroke-dasharray="5,2" d="M529.804,-250.055C531.456,-255.164 539.855,-259 555,-259 578.641,-259 585.844,-249.653 576.609,-240.708"/>
<polygon fill="#9a32cd" stroke="#9a32cd" points="533.076,-251.298 533.391,-240.708 526.54,-248.79 533.076,-251.298"/>
<text text-anchor="middle" x="555" y="-276" font-family="FreeSans" font-size="10.00"> parent_</text>
<text text-anchor="middle" x="555" y="-263" font-family="FreeSans" font-size="10.00">children_</text>
</g>
<!-- Node19&#45;&gt;Node1 -->
<g id="edge70" class="edge"><title>Node19&#45;&gt;Node1</title>
<path fill="none" stroke="#9a32cd" stroke-dasharray="5,2" d="M821.157,-580.054C897.247,-576.769 1022.28,-571.109 1130,-565 1136.01,-564.659 1142.24,-564.288 1148.49,-563.902"/>
<polygon fill="#9a32cd" stroke="#9a32cd" points="820.593,-576.575 810.752,-580.502 820.893,-583.569 820.593,-576.575"/>
<text text-anchor="middle" x="947" y="-581" font-family="FreeSans" font-size="10.00"> primitiveTypes_</text>
</g>
<!-- Node20&#45;&gt;Node1 -->
<g id="edge74" class="edge"><title>Node20&#45;&gt;Node1</title>
<path fill="none" stroke="#9a32cd" stroke-dasharray="5,2" d="M1024.63,-674.101C1058.45,-670.7 1097.66,-663.142 1130,-647 1167.56,-628.255 1199.73,-588.496 1213.64,-569.513"/>
<polygon fill="#9a32cd" stroke="#9a32cd" points="1023.97,-670.646 1014.32,-675.027 1024.59,-677.618 1023.97,-670.646"/>
<text text-anchor="middle" x="1083" y="-676" font-family="FreeSans" font-size="10.00"> materialsAttr_</text>
</g>
<!-- Node21&#45;&gt;Node20 -->
<g id="edge78" class="edge"><title>Node21&#45;&gt;Node20</title>
<path fill="none" stroke="#9a32cd" stroke-dasharray="5,2" d="M635.936,-667.271C708.076,-669.296 812.413,-672.223 879.977,-674.119"/>
<polygon fill="#9a32cd" stroke="#9a32cd" points="635.629,-663.761 625.534,-666.979 635.432,-670.759 635.629,-663.761"/>
<text text-anchor="middle" x="751" y="-677" font-family="FreeSans" font-size="10.00"> names_</text>
</g>
<!-- Node22&#45;&gt;Node1 -->
<g id="edge82" class="edge"><title>Node22&#45;&gt;Node1</title>
<path fill="none" stroke="#9a32cd" stroke-dasharray="5,2" d="M868.057,-617.575C943.223,-609.402 1042.75,-597.02 1130,-581 1146.95,-577.889 1165.46,-573.582 1181.34,-569.603"/>
<polygon fill="#9a32cd" stroke="#9a32cd" points="867.651,-614.099 858.084,-618.651 868.401,-621.058 867.651,-614.099"/>
<text text-anchor="middle" x="947" y="-620" font-family="FreeSans" font-size="10.00"> vertices_</text>
</g>
<!-- Node23 -->
<g id="node65" class="node"><title>Node23</title>
<a xlink:href="class_urho3_d_1_1_shared_ptr.html" target="_top" xlink:title="Urho3D::SharedPtr\&lt;\l Urho3D::VertexBuffer \&gt;">
<polygon fill="none" stroke="black" points="880.5,-465 880.5,-499 1013.5,-499 1013.5,-465 880.5,-465"/>
<text text-anchor="start" x="888.5" y="-486" font-family="FreeSans" font-size="10.00">Urho3D::SharedPtr&lt;</text>
<text text-anchor="middle" x="947" y="-473" font-family="FreeSans" font-size="10.00"> Urho3D::VertexBuffer &gt;</text>
</a>
</g>
<!-- Node23&#45;&gt;Node1 -->
<g id="edge86" class="edge"><title>Node23&#45;&gt;Node1</title>
<path fill="none" stroke="#9a32cd" stroke-dasharray="5,2" d="M1023.72,-486.551C1057.04,-490.136 1096.11,-496.545 1130,-508 1158.65,-517.685 1188.65,-536.438 1206.04,-548.306"/>
<polygon fill="#9a32cd" stroke="#9a32cd" points="1023.88,-483.049 1013.58,-485.526 1023.18,-490.014 1023.88,-483.049"/>
<text text-anchor="middle" x="1083" y="-512" font-family="FreeSans" font-size="10.00"> vertexBuffer_</text>
</g>
<!-- Node24 -->
<g id="node67" class="node"><title>Node24</title>
<a xlink:href="class_urho3_d_1_1_vertex_buffer.html" target="_top" xlink:title="Hardware vertex buffer.">
<polygon fill="none" stroke="red" points="495.5,-499.5 495.5,-520.5 614.5,-520.5 614.5,-499.5 495.5,-499.5"/>
<text text-anchor="middle" x="555" y="-507.5" font-family="FreeSans" font-size="10.00">Urho3D::VertexBuffer</text>
</a>
</g>
<!-- Node24&#45;&gt;Node23 -->
<g id="edge88" class="edge"><title>Node24&#45;&gt;Node23</title>
<path fill="none" stroke="#9a32cd" stroke-dasharray="5,2" d="M624.904,-505.007C697.194,-499.843 809.253,-491.839 880.329,-486.762"/>
<polygon fill="#9a32cd" stroke="#9a32cd" points="624.262,-501.544 614.536,-505.747 624.76,-508.526 624.262,-501.544"/>
<text text-anchor="middle" x="751" y="-507" font-family="FreeSans" font-size="10.00"> ptr_</text>
</g>
<!-- Node25&#45;&gt;Node1 -->
<g id="edge90" class="edge"><title>Node25&#45;&gt;Node1</title>
<path fill="none" stroke="#9a32cd" stroke-dasharray="5,2" d="M858.892,-545.272C907.519,-546.039 965.657,-547.221 1018,-549 1061.2,-550.468 1109.54,-552.821 1148.21,-554.876"/>
<polygon fill="#9a32cd" stroke="#9a32cd" points="858.718,-541.769 848.666,-545.115 858.611,-548.769 858.718,-541.769"/>
<text text-anchor="middle" x="947" y="-553" font-family="FreeSans" font-size="10.00"> geometries_</text>
</g>
</g>
</svg>
