<?xml version="1.0" encoding="UTF-8" standalone="no"?>
<!DOCTYPE svg PUBLIC "-//W3C//DTD SVG 1.1//EN"
 "http://www.w3.org/Graphics/SVG/1.1/DTD/svg11.dtd">
<!-- Generated by graphviz version 2.26.3 (20100126.1600)
 -->
<!-- Title: Urho3D::ScriptInstance Pages: 1 -->
<!--zoomable 774 -->
<svg id="main" version="1.1" xmlns="http://www.w3.org/2000/svg" xmlns:xlink="http://www.w3.org/1999/xlink" xml:space="preserve" onload="init(evt)">
        <defs>
                <circle id="rim" cx="0" cy="0" r="7"/>
                <circle id="rim2" cx="0" cy="0" r="3.5"/>
                <g id="zoomPlus">
                        <use xlink:href="#rim" fill="#404040">
                                <set attributeName="fill" to="#808080" begin="zoomplus.mouseover" end="zoomplus.mouseout"/>
                        </use>
                        <path d="M-4,0h8M0,-4v8" fill="none" stroke="white" stroke-width="1.5" pointer-events="none"/>
                </g>
                <g id="zoomMin">
                        <use xlink:href="#rim" fill="#404040">
                                <set attributeName="fill" to="#808080" begin="zoomminus.mouseover" end="zoomminus.mouseout"/>
                        </use>
                        <path d="M-4,0h8" fill="none" stroke="white" stroke-width="1.5" pointer-events="none"/>
                </g>
                <g id="dirArrow">
                        <path fill="none" stroke="white" stroke-width="1.5" d="M0,-3.0v7 M-2.5,-0.5L0,-3.0L2.5,-0.5"/>
                </g>
               <g id="resetDef">
                       <use xlink:href="#rim2" fill="#404040">
                               <set attributeName="fill" to="#808080" begin="reset.mouseover" end="reset.mouseout"/>
                       </use>
               </g>
        </defs>

<script type="text/javascript">
var viewWidth = 1494;
var viewHeight = 774;
var sectionId = 'dynsection-1';
</script>
<script xlink:href="svgpan.js"/>
<svg id="graph" class="graph">
<g id="viewport">
<title>Urho3D::ScriptInstance</title>
<!-- Node1 -->
<g id="node1" class="node"><title>Node1</title>
<polygon fill="#bfbfbf" stroke="black" points="1358,-131.5 1358,-152.5 1486,-152.5 1486,-131.5 1358,-131.5"/>
<text text-anchor="middle" x="1422" y="-139.5" font-family="FreeSans" font-size="10.00">Urho3D::ScriptInstance</text>
</g>
<!-- Node2 -->
<g id="node2" class="node"><title>Node2</title>
<a xlink:href="class_urho3_d_1_1_component.html" target="_top" xlink:title="Base class for components. Components can be created to scene nodes.">
<polygon fill="none" stroke="black" points="1141,-487.5 1141,-508.5 1257,-508.5 1257,-487.5 1141,-487.5"/>
<text text-anchor="middle" x="1199" y="-495.5" font-family="FreeSans" font-size="10.00">Urho3D::Component</text>
</a>
</g>
<!-- Node2&#45;&gt;Node1 -->
<g id="edge2" class="edge"><title>Node2&#45;&gt;Node1</title>
<path fill="none" stroke="midnightblue" d="M1235.7,-482.98C1248.39,-476.435 1261.94,-467.766 1272,-457 1363.42,-359.213 1408.78,-195.506 1419.48,-152.57"/>
<polygon fill="midnightblue" stroke="midnightblue" points="1234.14,-479.849 1226.68,-487.37 1237.2,-486.144 1234.14,-479.849"/>
</g>
<!-- Node3 -->
<g id="node4" class="node"><title>Node3</title>
<a xlink:href="class_urho3_d_1_1_animatable.html" target="_top" xlink:title="Base class for animatable object, an animatable object can be set animation on it&#39;s attributes...">
<polygon fill="none" stroke="black" points="581,-686.5 581,-707.5 695,-707.5 695,-686.5 581,-686.5"/>
<text text-anchor="middle" x="638" y="-694.5" font-family="FreeSans" font-size="10.00">Urho3D::Animatable</text>
</a>
</g>
<!-- Node3&#45;&gt;Node2 -->
<g id="edge4" class="edge"><title>Node3&#45;&gt;Node2</title>
<path fill="none" stroke="midnightblue" d="M705.302,-700.022C758.309,-700.459 833.438,-696.729 896,-677 1019.53,-638.044 1146.26,-540.852 1186.17,-508.593"/>
<polygon fill="midnightblue" stroke="midnightblue" points="705.053,-696.518 695.006,-699.883 704.958,-703.518 705.053,-696.518"/>
</g>
<!-- Node9 -->
<g id="node17" class="node"><title>Node9</title>
<a xlink:href="class_urho3_d_1_1_node.html" target="_top" xlink:title="Scene node that may contain components and child nodes.">
<polygon fill="none" stroke="red" points="922.5,-471.5 922.5,-492.5 1007.5,-492.5 1007.5,-471.5 922.5,-471.5"/>
<text text-anchor="middle" x="965" y="-479.5" font-family="FreeSans" font-size="10.00">Urho3D::Node</text>
</a>
</g>
<!-- Node3&#45;&gt;Node9 -->
<g id="edge20" class="edge"><title>Node3&#45;&gt;Node9</title>
<path fill="none" stroke="midnightblue" d="M705.427,-686.361C779.349,-674.45 888.555,-656.029 896,-650 947.215,-608.53 960.795,-522.798 964.056,-492.715"/>
<polygon fill="midnightblue" stroke="midnightblue" points="704.563,-682.954 695.245,-687.996 705.673,-689.866 704.563,-682.954"/>
</g>
<!-- Node4 -->
<g id="node6" class="node"><title>Node4</title>
<a xlink:href="class_urho3_d_1_1_serializable.html" target="_top" xlink:title="Base class for objects with automatic serialization through attributes.">
<polygon fill="none" stroke="red" points="190,-640.5 190,-661.5 304,-661.5 304,-640.5 190,-640.5"/>
<text text-anchor="middle" x="247" y="-648.5" font-family="FreeSans" font-size="10.00">Urho3D::Serializable</text>
</a>
</g>
<!-- Node4&#45;&gt;Node3 -->
<g id="edge6" class="edge"><title>Node4&#45;&gt;Node3</title>
<path fill="none" stroke="midnightblue" d="M314.583,-658.951C389.837,-667.804 510.164,-681.96 580.891,-690.281"/>
<polygon fill="midnightblue" stroke="midnightblue" points="314.614,-655.431 304.273,-657.738 313.796,-662.383 314.614,-655.431"/>
</g>
<!-- Node5 -->
<g id="node8" class="node"><title>Node5</title>
<a xlink:href="class_urho3_d_1_1_hash_map.html" target="_top" xlink:title="Urho3D::HashMap\&lt; Urho3D\l::String, Urho3D::SharedPtr\l\&lt; Urho3D::AttributeAnimationInfo \&gt; \&gt;">
<polygon fill="none" stroke="black" points="146.5,-574.5 146.5,-621.5 347.5,-621.5 347.5,-574.5 146.5,-574.5"/>
<text text-anchor="start" x="154.5" y="-608.5" font-family="FreeSans" font-size="10.00">Urho3D::HashMap&lt; Urho3D</text>
<text text-anchor="start" x="154.5" y="-595.5" font-family="FreeSans" font-size="10.00">::String, Urho3D::SharedPtr</text>
<text text-anchor="middle" x="247" y="-582.5" font-family="FreeSans" font-size="10.00">&lt; Urho3D::AttributeAnimationInfo &gt; &gt;</text>
</a>
</g>
<!-- Node5&#45;&gt;Node3 -->
<g id="edge8" class="edge"><title>Node5&#45;&gt;Node3</title>
<path fill="none" stroke="#9a32cd" stroke-dasharray="5,2" d="M357.828,-598.193C410.252,-603.088 471.409,-616.202 518,-648 530.53,-656.551 523.518,-668.379 536,-677 549.066,-686.025 565.202,-691.209 580.753,-694.125"/>
<polygon fill="#9a32cd" stroke="#9a32cd" points="358.066,-594.701 347.807,-597.346 357.477,-601.676 358.066,-594.701"/>
<text text-anchor="middle" x="442" y="-652" font-family="FreeSans" font-size="10.00"> attributeAnimationInfos_</text>
</g>
<!-- Node6 -->
<g id="node10" class="node"><title>Node6</title>
<a xlink:href="class_urho3_d_1_1_hash_base.html" target="_top" xlink:title="Hash set/map base class.">
<polygon fill="none" stroke="red" points="0,-587.5 0,-608.5 108,-608.5 108,-587.5 0,-587.5"/>
<text text-anchor="middle" x="54" y="-595.5" font-family="FreeSans" font-size="10.00">Urho3D::HashBase</text>
</a>
</g>
<!-- Node6&#45;&gt;Node5 -->
<g id="edge10" class="edge"><title>Node6&#45;&gt;Node5</title>
<path fill="none" stroke="midnightblue" d="M118.124,-598C127.259,-598 136.831,-598 146.457,-598"/>
<polygon fill="midnightblue" stroke="midnightblue" points="118.018,-594.5 108.018,-598 118.018,-601.5 118.018,-594.5"/>
</g>
<!-- Node8 -->
<g id="node14" class="node"><title>Node8</title>
<a xlink:href="class_urho3_d_1_1_hash_set.html" target="_top" xlink:title="Urho3D::HashSet\&lt; const\l Urho3D::AttributeInfo * \&gt;">
<polygon fill="none" stroke="black" points="176.5,-680 176.5,-714 317.5,-714 317.5,-680 176.5,-680"/>
<text text-anchor="start" x="184.5" y="-701" font-family="FreeSans" font-size="10.00">Urho3D::HashSet&lt; const</text>
<text text-anchor="middle" x="247" y="-688" font-family="FreeSans" font-size="10.00"> Urho3D::AttributeInfo * &gt;</text>
</a>
</g>
<!-- Node6&#45;&gt;Node8 -->
<g id="edge16" class="edge"><title>Node6&#45;&gt;Node8</title>
<path fill="none" stroke="midnightblue" d="M71.4988,-615.652C88.9306,-632.266 117.184,-656.675 146,-671 155.485,-675.715 165.909,-679.633 176.348,-682.872"/>
<polygon fill="midnightblue" stroke="midnightblue" points="73.8945,-613.1 64.288,-608.632 69.0113,-618.115 73.8945,-613.1"/>
</g>
<!-- Node20 -->
<g id="node48" class="node"><title>Node20</title>
<a xlink:href="class_urho3_d_1_1_hash_map.html" target="_top" xlink:title="Urho3D::HashMap\&lt; Urho3D\l::AttributeInfo *, unsigned \&gt;">
<polygon fill="none" stroke="black" points="366,-0 366,-34 518,-34 518,-0 366,-0"/>
<text text-anchor="start" x="374" y="-21" font-family="FreeSans" font-size="10.00">Urho3D::HashMap&lt; Urho3D</text>
<text text-anchor="middle" x="442" y="-8" font-family="FreeSans" font-size="10.00">::AttributeInfo *, unsigned &gt;</text>
</a>
</g>
<!-- Node6&#45;&gt;Node20 -->
<g id="edge60" class="edge"><title>Node6&#45;&gt;Node20</title>
<path fill="none" stroke="midnightblue" d="M63.5296,-577.91C79.7127,-544.087 113.938,-473.799 146,-416 237.51,-251.03 225.946,-179.388 366,-53 374.346,-45.4684 384.547,-39.2106 394.732,-34.1418"/>
<polygon fill="midnightblue" stroke="midnightblue" points="60.2533,-576.65 59.1089,-587.183 66.5719,-579.662 60.2533,-576.65"/>
</g>
<!-- Node7 -->
<g id="node12" class="node"><title>Node7</title>
<a xlink:href="class_urho3_d_1_1_shared_ptr.html" target="_top" xlink:title="Urho3D::SharedPtr\&lt;\l Urho3D::ObjectAnimation \&gt;">
<polygon fill="none" stroke="red" points="170.5,-732 170.5,-766 323.5,-766 323.5,-732 170.5,-732"/>
<text text-anchor="start" x="178.5" y="-753" font-family="FreeSans" font-size="10.00">Urho3D::SharedPtr&lt;</text>
<text text-anchor="middle" x="247" y="-740" font-family="FreeSans" font-size="10.00"> Urho3D::ObjectAnimation &gt;</text>
</a>
</g>
<!-- Node7&#45;&gt;Node3 -->
<g id="edge12" class="edge"><title>Node7&#45;&gt;Node3</title>
<path fill="none" stroke="#9a32cd" stroke-dasharray="5,2" d="M333.624,-738.088C386.84,-731.316 456.391,-722.342 518,-714 538.538,-711.219 561.037,-708.061 580.947,-705.229"/>
<polygon fill="#9a32cd" stroke="#9a32cd" points="333.023,-734.636 323.545,-739.369 333.906,-741.58 333.023,-734.636"/>
<text text-anchor="middle" x="442" y="-737" font-family="FreeSans" font-size="10.00"> objectAnimation_</text>
</g>
<!-- Node8&#45;&gt;Node3 -->
<g id="edge14" class="edge"><title>Node8&#45;&gt;Node3</title>
<path fill="none" stroke="#9a32cd" stroke-dasharray="5,2" d="M328.214,-697C403.669,-697 514.128,-697 580.74,-697"/>
<polygon fill="#9a32cd" stroke="#9a32cd" points="327.807,-693.5 317.807,-697 327.807,-700.5 327.807,-693.5"/>
<text text-anchor="middle" x="442" y="-701" font-family="FreeSans" font-size="10.00"> animatedNetworkAttributes_</text>
</g>
<!-- Node9&#45;&gt;Node2 -->
<g id="edge18" class="edge"><title>Node9&#45;&gt;Node2</title>
<path fill="none" stroke="#9a32cd" stroke-dasharray="5,2" d="M1017.63,-485.598C1054.23,-488.101 1103.03,-491.438 1140.79,-494.02"/>
<polygon fill="#9a32cd" stroke="#9a32cd" points="1017.86,-482.106 1007.65,-484.916 1017.39,-489.09 1017.86,-482.106"/>
<text text-anchor="middle" x="1071" y="-496" font-family="FreeSans" font-size="10.00"> node_</text>
</g>
<!-- Node9&#45;&gt;Node9 -->
<g id="edge54" class="edge"><title>Node9&#45;&gt;Node9</title>
<path fill="none" stroke="#9a32cd" stroke-dasharray="5,2" d="M945.465,-502.427C946.972,-507.349 953.484,-511 965,-511 983.426,-511 989.04,-501.653 981.842,-492.708"/>
<polygon fill="#9a32cd" stroke="#9a32cd" points="948.861,-503.279 948.158,-492.708 942.115,-501.41 948.861,-503.279"/>
<text text-anchor="middle" x="965" y="-515" font-family="FreeSans" font-size="10.00"> parent_</text>
</g>
<!-- Node12 -->
<g id="node24" class="node"><title>Node12</title>
<a xlink:href="class_urho3_d_1_1_scene.html" target="_top" xlink:title="Root scene node, represents the whole scene.">
<polygon fill="none" stroke="red" points="1154.5,-426.5 1154.5,-447.5 1243.5,-447.5 1243.5,-426.5 1154.5,-426.5"/>
<text text-anchor="middle" x="1199" y="-434.5" font-family="FreeSans" font-size="10.00">Urho3D::Scene</text>
</a>
</g>
<!-- Node9&#45;&gt;Node12 -->
<g id="edge28" class="edge"><title>Node9&#45;&gt;Node12</title>
<path fill="none" stroke="midnightblue" d="M1017.49,-471.906C1058.63,-463.995 1115.25,-453.106 1154.26,-445.605"/>
<polygon fill="midnightblue" stroke="midnightblue" points="1016.81,-468.473 1007.65,-473.799 1018.13,-475.347 1016.81,-468.473"/>
</g>
<!-- Node10 -->
<g id="node20" class="node"><title>Node10</title>
<a xlink:href="class_urho3_d_1_1_p_o_d_vector.html" target="_top" xlink:title="Urho3D::PODVector\&lt;\l Urho3D::Node * \&gt;">
<polygon fill="none" stroke="black" points="578.5,-634 578.5,-668 697.5,-668 697.5,-634 578.5,-634"/>
<text text-anchor="start" x="586.5" y="-655" font-family="FreeSans" font-size="10.00">Urho3D::PODVector&lt;</text>
<text text-anchor="middle" x="638" y="-642" font-family="FreeSans" font-size="10.00"> Urho3D::Node * &gt;</text>
</a>
</g>
<!-- Node10&#45;&gt;Node9 -->
<g id="edge22" class="edge"><title>Node10&#45;&gt;Node9</title>
<path fill="none" stroke="#9a32cd" stroke-dasharray="5,2" d="M707.998,-642.739C773.741,-633.859 866.312,-618.12 896,-597 933.754,-570.141 954.507,-515.549 961.876,-492.57"/>
<polygon fill="#9a32cd" stroke="#9a32cd" points="707.144,-639.322 697.691,-644.105 708.064,-646.261 707.144,-639.322"/>
<text text-anchor="middle" x="827" y="-638" font-family="FreeSans" font-size="10.00"> dependencyNodes_</text>
</g>
<!-- Node11 -->
<g id="node22" class="node"><title>Node11</title>
<a xlink:href="class_urho3_d_1_1_vector_base.html" target="_top" xlink:title="Vector base class.">
<polygon fill="none" stroke="black" points="190,-425.5 190,-446.5 304,-446.5 304,-425.5 190,-425.5"/>
<text text-anchor="middle" x="247" y="-433.5" font-family="FreeSans" font-size="10.00">Urho3D::VectorBase</text>
</a>
</g>
<!-- Node11&#45;&gt;Node10 -->
<g id="edge24" class="edge"><title>Node11&#45;&gt;Node10</title>
<path fill="none" stroke="midnightblue" d="M277.115,-451.24C339.398,-483.142 479.749,-557.123 518,-595 529.049,-605.941 523.528,-615.714 536,-625 548.313,-634.167 563.527,-640.118 578.414,-643.975"/>
<polygon fill="midnightblue" stroke="midnightblue" points="278.663,-448.101 268.165,-446.67 275.48,-454.335 278.663,-448.101"/>
</g>
<!-- Node15 -->
<g id="node33" class="node"><title>Node15</title>
<a xlink:href="class_urho3_d_1_1_vector.html" target="_top" xlink:title="Urho3D::Vector\&lt; Urho3D\l::WeakPtr\&lt; Urho3D::Component \&gt; \&gt;">
<polygon fill="none" stroke="black" points="541,-511 541,-545 735,-545 735,-511 541,-511"/>
<text text-anchor="start" x="549" y="-532" font-family="FreeSans" font-size="10.00">Urho3D::Vector&lt; Urho3D</text>
<text text-anchor="middle" x="638" y="-519" font-family="FreeSans" font-size="10.00">::WeakPtr&lt; Urho3D::Component &gt; &gt;</text>
</a>
</g>
<!-- Node11&#45;&gt;Node15 -->
<g id="edge40" class="edge"><title>Node11&#45;&gt;Node15</title>
<path fill="none" stroke="midnightblue" d="M301.643,-448.857C370.518,-465.063 489.118,-492.969 565.511,-510.944"/>
<polygon fill="midnightblue" stroke="midnightblue" points="302.389,-445.437 291.853,-446.554 300.785,-452.251 302.389,-445.437"/>
</g>
<!-- Node17 -->
<g id="node38" class="node"><title>Node17</title>
<a xlink:href="class_urho3_d_1_1_vector.html" target="_top" xlink:title="Urho3D::Vector\&lt; Urho3D\l::SharedPtr\&lt; Urho3D::Component \&gt; \&gt;">
<polygon fill="none" stroke="black" points="536.5,-419 536.5,-453 739.5,-453 739.5,-419 536.5,-419"/>
<text text-anchor="start" x="544.5" y="-440" font-family="FreeSans" font-size="10.00">Urho3D::Vector&lt; Urho3D</text>
<text text-anchor="middle" x="638" y="-427" font-family="FreeSans" font-size="10.00">::SharedPtr&lt; Urho3D::Component &gt; &gt;</text>
</a>
</g>
<!-- Node11&#45;&gt;Node17 -->
<g id="edge46" class="edge"><title>Node11&#45;&gt;Node17</title>
<path fill="none" stroke="midnightblue" d="M314.561,-436C375.613,-436 466.341,-436 536.181,-436"/>
<polygon fill="midnightblue" stroke="midnightblue" points="314.274,-432.5 304.273,-436 314.273,-439.5 314.274,-432.5"/>
</g>
<!-- Node21 -->
<g id="node51" class="node"><title>Node21</title>
<a xlink:href="class_urho3_d_1_1_vector.html" target="_top" xlink:title="Urho3D::Vector\&lt; Urho3D\l::DelayedCall \&gt;">
<polygon fill="none" stroke="black" points="569,-94 569,-128 707,-128 707,-94 569,-94"/>
<text text-anchor="start" x="577" y="-115" font-family="FreeSans" font-size="10.00">Urho3D::Vector&lt; Urho3D</text>
<text text-anchor="middle" x="638" y="-102" font-family="FreeSans" font-size="10.00">::DelayedCall &gt;</text>
</a>
</g>
<!-- Node11&#45;&gt;Node21 -->
<g id="edge64" class="edge"><title>Node11&#45;&gt;Node21</title>
<path fill="none" stroke="midnightblue" d="M259.721,-416.73C296.007,-363.357 405.833,-212.568 536,-137 546.036,-131.174 557.369,-126.638 568.738,-123.111"/>
<polygon fill="midnightblue" stroke="midnightblue" points="256.665,-415.002 253.991,-425.253 262.475,-418.907 256.665,-415.002"/>
</g>
<!-- Node22 -->
<g id="node54" class="node"><title>Node22</title>
<a xlink:href="class_urho3_d_1_1_vector.html" target="_top" xlink:title="Urho3D::Vector\&lt; Urho3D\l::AttributeInfo \&gt;">
<polygon fill="none" stroke="black" points="758,-31 758,-65 896,-65 896,-31 758,-31"/>
<text text-anchor="start" x="766" y="-52" font-family="FreeSans" font-size="10.00">Urho3D::Vector&lt; Urho3D</text>
<text text-anchor="middle" x="827" y="-39" font-family="FreeSans" font-size="10.00">::AttributeInfo &gt;</text>
</a>
</g>
<!-- Node11&#45;&gt;Node22 -->
<g id="edge68" class="edge"><title>Node11&#45;&gt;Node22</title>
<path fill="none" stroke="midnightblue" d="M258.715,-416.319C279.579,-380.465 323.298,-301.587 348,-230 360.596,-193.497 340.535,-174.029 366,-145 464.027,-33.2544 655.228,-31.2865 757.893,-39.5453"/>
<polygon fill="midnightblue" stroke="midnightblue" points="255.516,-414.854 253.471,-425.249 261.553,-418.398 255.516,-414.854"/>
</g>
<!-- Node12&#45;&gt;Node9 -->
<g id="edge26" class="edge"><title>Node12&#45;&gt;Node9</title>
<path fill="none" stroke="#9a32cd" stroke-dasharray="5,2" d="M1144,-429.802C1111.38,-427.371 1069.58,-427.505 1034,-438 1011.92,-444.512 990.157,-460.402 977.148,-471.194"/>
<polygon fill="#9a32cd" stroke="#9a32cd" points="1143.99,-433.313 1154.25,-430.671 1144.59,-426.338 1143.99,-433.313"/>
<text text-anchor="middle" x="1071" y="-442" font-family="FreeSans" font-size="10.00"> scene_</text>
</g>
<!-- Node13 -->
<g id="node27" class="node"><title>Node13</title>
<a xlink:href="class_urho3_d_1_1_string.html" target="_top" xlink:title="String class.">
<polygon fill="none" stroke="black" points="594,-186.5 594,-207.5 682,-207.5 682,-186.5 594,-186.5"/>
<text text-anchor="middle" x="638" y="-194.5" font-family="FreeSans" font-size="10.00">Urho3D::String</text>
</a>
</g>
<!-- Node13&#45;&gt;Node1 -->
<g id="edge70" class="edge"><title>Node13&#45;&gt;Node1</title>
<path fill="none" stroke="#9a32cd" stroke-dasharray="5,2" d="M692.184,-200.133C802.023,-205.645 1058.61,-214.251 1272,-189 1302.48,-185.394 1310.58,-185.748 1340,-177 1361.36,-170.647 1384.64,-160.367 1400.92,-152.588"/>
<polygon fill="#9a32cd" stroke="#9a32cd" points="692.186,-196.629 682.019,-199.611 691.826,-203.62 692.186,-196.629"/>
<text text-anchor="middle" x="1071" y="-209" font-family="FreeSans" font-size="10.00"> className_</text>
</g>
<!-- Node13&#45;&gt;Node9 -->
<g id="edge52" class="edge"><title>Node13&#45;&gt;Node9</title>
<path fill="none" stroke="#9a32cd" stroke-dasharray="5,2" d="M685.183,-211.148C704.611,-219.136 725.838,-231.01 740,-248 758.372,-270.041 737.435,-289.99 758,-310 803.43,-354.203 846.642,-306.231 896,-346 937.851,-379.722 956.716,-445.48 962.734,-471.262"/>
<polygon fill="#9a32cd" stroke="#9a32cd" points="686.418,-207.873 675.828,-207.534 683.895,-214.403 686.418,-207.873"/>
<text text-anchor="middle" x="827" y="-350" font-family="FreeSans" font-size="10.00"> name_</text>
</g>
<!-- Node13&#45;&gt;Node12 -->
<g id="edge30" class="edge"><title>Node13&#45;&gt;Node12</title>
<path fill="none" stroke="#9a32cd" stroke-dasharray="5,2" d="M669.014,-211.941C693.142,-223.45 727.529,-239.605 758,-253 818.749,-279.705 834.733,-284.507 896,-310 999.216,-352.947 1122,-404.577 1173.88,-426.419"/>
<polygon fill="#9a32cd" stroke="#9a32cd" points="670.513,-208.778 659.982,-207.62 667.493,-215.092 670.513,-208.778"/>
<text text-anchor="middle" x="965" y="-363" font-family="FreeSans" font-size="10.00"> fileName_</text>
</g>
<!-- Node13&#45;&gt;Node13 -->
<g id="edge32" class="edge"><title>Node13&#45;&gt;Node13</title>
<path fill="none" stroke="#9a32cd" stroke-dasharray="5,2" d="M602.902,-216.299C604.344,-221.781 616.043,-226 638,-226 670.68,-226 680.637,-216.653 667.871,-207.708"/>
<polygon fill="#9a32cd" stroke="#9a32cd" points="605.921,-218.07 608.129,-207.708 599.941,-214.432 605.921,-218.07"/>
<text text-anchor="middle" x="638" y="-230" font-family="FreeSans" font-size="10.00"> EMPTY</text>
</g>
<!-- Node14 -->
<g id="node30" class="node"><title>Node14</title>
<a xlink:href="class_urho3_d_1_1_quaternion.html" target="_top" xlink:title="Rotation represented as a four&#45;dimensional normalized vector.">
<polygon fill="none" stroke="black" points="581.5,-563.5 581.5,-584.5 694.5,-584.5 694.5,-563.5 581.5,-563.5"/>
<text text-anchor="middle" x="638" y="-571.5" font-family="FreeSans" font-size="10.00">Urho3D::Quaternion</text>
</a>
</g>
<!-- Node14&#45;&gt;Node9 -->
<g id="edge34" class="edge"><title>Node14&#45;&gt;Node9</title>
<path fill="none" stroke="#9a32cd" stroke-dasharray="5,2" d="M704.569,-572.559C758.155,-569.338 834.418,-560.023 896,-534 919.213,-524.191 941.674,-504.862 954.374,-492.732"/>
<polygon fill="#9a32cd" stroke="#9a32cd" points="704.295,-569.068 694.501,-573.108 704.677,-576.058 704.295,-569.068"/>
<text text-anchor="middle" x="827" y="-584" font-family="FreeSans" font-size="10.00"> worldRotation_</text>
<text text-anchor="middle" x="827" y="-571" font-family="FreeSans" font-size="10.00">rotation_</text>
</g>
<!-- Node14&#45;&gt;Node14 -->
<g id="edge36" class="edge"><title>Node14&#45;&gt;Node14</title>
<path fill="none" stroke="#9a32cd" stroke-dasharray="5,2" d="M602.902,-593.299C604.344,-598.781 616.043,-603 638,-603 670.68,-603 680.637,-593.653 667.871,-584.708"/>
<polygon fill="#9a32cd" stroke="#9a32cd" points="605.921,-595.07 608.129,-584.708 599.941,-591.432 605.921,-595.07"/>
<text text-anchor="middle" x="638" y="-607" font-family="FreeSans" font-size="10.00"> IDENTITY</text>
</g>
<!-- Node15&#45;&gt;Node9 -->
<g id="edge38" class="edge"><title>Node15&#45;&gt;Node9</title>
<path fill="none" stroke="#9a32cd" stroke-dasharray="5,2" d="M745.315,-519.078C791.835,-514.402 846.807,-507.786 896,-499 905.838,-497.243 916.358,-494.896 926.143,-492.508"/>
<polygon fill="#9a32cd" stroke="#9a32cd" points="744.824,-515.609 735.217,-520.076 745.513,-522.575 744.824,-515.609"/>
<text text-anchor="middle" x="827" y="-521" font-family="FreeSans" font-size="10.00"> listeners_</text>
</g>
<!-- Node16 -->
<g id="node36" class="node"><title>Node16</title>
<a xlink:href="class_urho3_d_1_1_vector_buffer.html" target="_top" xlink:title="Dynamically sized buffer that can be read and written to as a stream.">
<polygon fill="none" stroke="red" points="578.5,-471.5 578.5,-492.5 697.5,-492.5 697.5,-471.5 578.5,-471.5"/>
<text text-anchor="middle" x="638" y="-479.5" font-family="FreeSans" font-size="10.00">Urho3D::VectorBuffer</text>
</a>
</g>
<!-- Node16&#45;&gt;Node9 -->
<g id="edge42" class="edge"><title>Node16&#45;&gt;Node9</title>
<path fill="none" stroke="#9a32cd" stroke-dasharray="5,2" d="M707.782,-482C772.915,-482 868.007,-482 922.466,-482"/>
<polygon fill="#9a32cd" stroke="#9a32cd" points="707.597,-478.5 697.597,-482 707.597,-485.5 707.597,-478.5"/>
<text text-anchor="middle" x="827" y="-486" font-family="FreeSans" font-size="10.00"> attrBuffer_</text>
</g>
<!-- Node17&#45;&gt;Node9 -->
<g id="edge44" class="edge"><title>Node17&#45;&gt;Node9</title>
<path fill="none" stroke="#9a32cd" stroke-dasharray="5,2" d="M749.728,-445.369C795.287,-450.017 848.354,-456.49 896,-465 905.838,-466.757 916.358,-469.104 926.143,-471.492"/>
<polygon fill="#9a32cd" stroke="#9a32cd" points="749.825,-441.861 739.526,-444.346 749.127,-448.826 749.825,-441.861"/>
<text text-anchor="middle" x="827" y="-469" font-family="FreeSans" font-size="10.00"> components_</text>
</g>
<!-- Node18 -->
<g id="node41" class="node"><title>Node18</title>
<a xlink:href="class_urho3_d_1_1_vector3.html" target="_top" xlink:title="Three&#45;dimensional vector.">
<polygon fill="none" stroke="black" points="590,-257.5 590,-278.5 686,-278.5 686,-257.5 590,-257.5"/>
<text text-anchor="middle" x="638" y="-265.5" font-family="FreeSans" font-size="10.00">Urho3D::Vector3</text>
</a>
</g>
<!-- Node18&#45;&gt;Node9 -->
<g id="edge48" class="edge"><title>Node18&#45;&gt;Node9</title>
<path fill="none" stroke="#9a32cd" stroke-dasharray="5,2" d="M656.578,-285.629C679.132,-306.309 719.009,-340.607 758,-363 815.113,-395.8 840.348,-381.777 896,-417 920.475,-432.491 943.91,-457.404 956.167,-471.463"/>
<polygon fill="#9a32cd" stroke="#9a32cd" points="658.796,-282.912 649.086,-278.674 654.033,-288.043 658.796,-282.912"/>
<text text-anchor="middle" x="827" y="-434" font-family="FreeSans" font-size="10.00"> scale_</text>
<text text-anchor="middle" x="827" y="-421" font-family="FreeSans" font-size="10.00">position_</text>
</g>
<!-- Node18&#45;&gt;Node18 -->
<g id="edge50" class="edge"><title>Node18&#45;&gt;Node18</title>
<path fill="none" stroke="#9a32cd" stroke-dasharray="5,2" d="M602.902,-287.299C604.344,-292.781 616.043,-297 638,-297 670.68,-297 680.637,-287.653 667.871,-278.708"/>
<polygon fill="#9a32cd" stroke="#9a32cd" points="605.921,-289.07 608.129,-278.708 599.941,-285.432 605.921,-289.07"/>
<text text-anchor="middle" x="638" y="-392" font-family="FreeSans" font-size="10.00"> ONE</text>
<text text-anchor="middle" x="638" y="-379" font-family="FreeSans" font-size="10.00">DOWN</text>
<text text-anchor="middle" x="638" y="-366" font-family="FreeSans" font-size="10.00">BACK</text>
<text text-anchor="middle" x="638" y="-353" font-family="FreeSans" font-size="10.00">RIGHT</text>
<text text-anchor="middle" x="638" y="-340" font-family="FreeSans" font-size="10.00">LEFT</text>
<text text-anchor="middle" x="638" y="-327" font-family="FreeSans" font-size="10.00">ZERO</text>
<text text-anchor="middle" x="638" y="-314" font-family="FreeSans" font-size="10.00">FORWARD</text>
<text text-anchor="middle" x="638" y="-301" font-family="FreeSans" font-size="10.00">UP</text>
</g>
<!-- Node19 -->
<g id="node46" class="node"><title>Node19</title>
<a xlink:href="class_urho3_d_1_1_script_event_listener.html" target="_top" xlink:title="Interface class for allowing script objects or functions to subscribe to events.">
<polygon fill="none" stroke="black" points="562,-146.5 562,-167.5 714,-167.5 714,-146.5 562,-146.5"/>
<text text-anchor="middle" x="638" y="-154.5" font-family="FreeSans" font-size="10.00">Urho3D::ScriptEventListener</text>
</a>
</g>
<!-- Node19&#45;&gt;Node1 -->
<g id="edge56" class="edge"><title>Node19&#45;&gt;Node1</title>
<path fill="none" stroke="midnightblue" d="M714.833,-168.925C729.154,-170.852 744.011,-172.653 758,-174 985.408,-195.895 1044.53,-189.241 1272,-168 1302.35,-165.166 1309.94,-164.098 1340,-159 1351.04,-157.128 1362.85,-154.844 1373.98,-152.566"/>
<polygon fill="midnightblue" stroke="midnightblue" points="714.904,-165.402 704.52,-167.505 713.949,-172.337 714.904,-165.402"/>
</g>
<!-- Node24 -->
<g id="node60" class="node"><title>Node24</title>
<a xlink:href="class_urho3_d_1_1_script_file.html" target="_top" xlink:title="Script file resource.">
<polygon fill="none" stroke="red" points="914,-151.5 914,-172.5 1016,-172.5 1016,-151.5 914,-151.5"/>
<text text-anchor="middle" x="965" y="-159.5" font-family="FreeSans" font-size="10.00">Urho3D::ScriptFile</text>
</a>
</g>
<!-- Node19&#45;&gt;Node24 -->
<g id="edge76" class="edge"><title>Node19&#45;&gt;Node24</title>
<path fill="none" stroke="midnightblue" d="M724.516,-158.323C784.739,-159.244 863.018,-160.441 913.633,-161.215"/>
<polygon fill="midnightblue" stroke="midnightblue" points="724.307,-154.819 714.254,-158.166 724.2,-161.819 724.307,-154.819"/>
</g>
<!-- Node20&#45;&gt;Node1 -->
<g id="edge58" class="edge"><title>Node20&#45;&gt;Node1</title>
<path fill="none" stroke="#9a32cd" stroke-dasharray="5,2" d="M528.571,-12.4068C606.582,-8.66565 724.432,-4 827,-4 827,-4 827,-4 1199,-4 1264.65,-4 1286.41,-10.0857 1340,-48 1373.59,-71.7642 1402.49,-112.033 1415.16,-131.216"/>
<polygon fill="#9a32cd" stroke="#9a32cd" points="528.128,-8.92404 518.31,-12.9046 528.468,-15.9158 528.128,-8.92404"/>
<text text-anchor="middle" x="965" y="-8" font-family="FreeSans" font-size="10.00"> idAttributes_</text>
</g>
<!-- Node21&#45;&gt;Node1 -->
<g id="edge62" class="edge"><title>Node21&#45;&gt;Node1</title>
<path fill="none" stroke="#9a32cd" stroke-dasharray="5,2" d="M717.472,-106.29C837.879,-100.357 1073.54,-93.4515 1272,-116 1304.83,-119.73 1341.36,-126.016 1370.15,-131.473"/>
<polygon fill="#9a32cd" stroke="#9a32cd" points="717.053,-102.807 707.242,-106.805 717.405,-109.798 717.053,-102.807"/>
<text text-anchor="middle" x="1071" y="-108" font-family="FreeSans" font-size="10.00"> delayedCalls_</text>
</g>
<!-- Node21&#45;&gt;Node24 -->
<g id="edge78" class="edge"><title>Node21&#45;&gt;Node24</title>
<path fill="none" stroke="#9a32cd" stroke-dasharray="5,2" d="M717.235,-117.162C768.55,-121.976 836.632,-129.913 896,-142 908.099,-144.463 921.16,-148.013 932.628,-151.439"/>
<polygon fill="#9a32cd" stroke="#9a32cd" points="717.482,-113.67 707.204,-116.24 716.841,-120.64 717.482,-113.67"/>
<text text-anchor="middle" x="827" y="-146" font-family="FreeSans" font-size="10.00"> delayedCalls_</text>
</g>
<!-- Node22&#45;&gt;Node1 -->
<g id="edge66" class="edge"><title>Node22&#45;&gt;Node1</title>
<path fill="none" stroke="#9a32cd" stroke-dasharray="5,2" d="M906.152,-34.2737C1010.38,-19.8978 1197.13,-7.09997 1340,-69 1372.18,-82.942 1400.46,-114.554 1413.83,-131.233"/>
<polygon fill="#9a32cd" stroke="#9a32cd" points="905.428,-30.8414 896.019,-35.7124 906.412,-37.7719 905.428,-30.8414"/>
<text text-anchor="middle" x="1071" y="-27" font-family="FreeSans" font-size="10.00"> attributeInfos_</text>
</g>
<!-- Node23 -->
<g id="node58" class="node"><title>Node23</title>
<a xlink:href="class_urho3_d_1_1_weak_ptr.html" target="_top" xlink:title="Urho3D::WeakPtr\&lt; Urho3D\l::ScriptFile \&gt;">
<polygon fill="none" stroke="black" points="1126,-125 1126,-159 1272,-159 1272,-125 1126,-125"/>
<text text-anchor="start" x="1134" y="-146" font-family="FreeSans" font-size="10.00">Urho3D::WeakPtr&lt; Urho3D</text>
<text text-anchor="middle" x="1199" y="-133" font-family="FreeSans" font-size="10.00">::ScriptFile &gt;</text>
</a>
</g>
<!-- Node23&#45;&gt;Node1 -->
<g id="edge72" class="edge"><title>Node23&#45;&gt;Node1</title>
<path fill="none" stroke="#9a32cd" stroke-dasharray="5,2" d="M1282.22,-142C1307.22,-142 1334.26,-142 1357.83,-142"/>
<polygon fill="#9a32cd" stroke="#9a32cd" points="1282.02,-138.5 1272.02,-142 1282.02,-145.5 1282.02,-138.5"/>
<text text-anchor="middle" x="1315" y="-146" font-family="FreeSans" font-size="10.00"> scriptFile_</text>
</g>
<!-- Node24&#45;&gt;Node23 -->
<g id="edge74" class="edge"><title>Node24&#45;&gt;Node23</title>
<path fill="none" stroke="#9a32cd" stroke-dasharray="5,2" d="M1026.14,-156.774C1056.67,-154.165 1093.82,-150.99 1125.85,-148.252"/>
<polygon fill="#9a32cd" stroke="#9a32cd" points="1025.73,-153.297 1016.06,-157.636 1026.32,-160.271 1025.73,-153.297"/>
<text text-anchor="middle" x="1071" y="-161" font-family="FreeSans" font-size="10.00"> ptr_</text>
</g>
<!-- Node25 -->
<g id="node64" class="node"><title>Node25</title>
<a xlink:href="struct_urho3_d_1_1_ref_count.html" target="_top" xlink:title="Reference count structure.">
<polygon fill="none" stroke="black" points="914,-111.5 914,-132.5 1016,-132.5 1016,-111.5 914,-111.5"/>
<text text-anchor="middle" x="965" y="-119.5" font-family="FreeSans" font-size="10.00">Urho3D::RefCount</text>
</a>
</g>
<!-- Node25&#45;&gt;Node23 -->
<g id="edge80" class="edge"><title>Node25&#45;&gt;Node23</title>
<path fill="none" stroke="#9a32cd" stroke-dasharray="5,2" d="M1026.48,-127.105C1051.74,-129.217 1081.27,-131.704 1108,-134 1113.85,-134.502 1119.9,-135.027 1125.99,-135.556"/>
<polygon fill="#9a32cd" stroke="#9a32cd" points="1026.55,-123.6 1016.3,-126.255 1025.97,-130.575 1026.55,-123.6"/>
<text text-anchor="middle" x="1071" y="-138" font-family="FreeSans" font-size="10.00"> refCount_</text>
</g>
</g>
</svg>
        <g id="navigator" transform="translate(0 0)" fill="#404254">
                <rect fill="#f2f5e9" fill-opacity="0.5" stroke="#606060" stroke-width=".5" x="0" y="0" width="60" height="60"/>
                <use id="zoomplus" xlink:href="#zoomPlus" x="17" y="9" onmousedown="handleZoom(evt,'in')"/>
                <use id="zoomminus" xlink:href="#zoomMin" x="42" y="9" onmousedown="handleZoom(evt,'out')"/>
                <use id="reset" xlink:href="#resetDef" x="30" y="36" onmousedown="handleReset()"/>
                <g id="arrowUp" xlink:href="#dirArrow" transform="translate(30 24)" onmousedown="handlePan(0,-1)">
                  <use xlink:href="#rim" fill="#404040">
                        <set attributeName="fill" to="#808080" begin="arrowUp.mouseover" end="arrowUp.mouseout"/>
                  </use>
                  <path fill="none" stroke="white" stroke-width="1.5" d="M0,-3.0v7 M-2.5,-0.5L0,-3.0L2.5,-0.5"/>
                </g>
                <g id="arrowRight" xlink:href="#dirArrow" transform="rotate(90) translate(36 -43)" onmousedown="handlePan(1,0)">
                  <use xlink:href="#rim" fill="#404040">
                        <set attributeName="fill" to="#808080" begin="arrowRight.mouseover" end="arrowRight.mouseout"/>
                  </use>
                  <path fill="none" stroke="white" stroke-width="1.5" d="M0,-3.0v7 M-2.5,-0.5L0,-3.0L2.5,-0.5"/>
                </g>
                <g id="arrowDown" xlink:href="#dirArrow" transform="rotate(180) translate(-30 -48)" onmousedown="handlePan(0,1)">
                  <use xlink:href="#rim" fill="#404040">
                        <set attributeName="fill" to="#808080" begin="arrowDown.mouseover" end="arrowDown.mouseout"/>
                  </use>
                  <path fill="none" stroke="white" stroke-width="1.5" d="M0,-3.0v7 M-2.5,-0.5L0,-3.0L2.5,-0.5"/>
                </g>
                <g id="arrowLeft" xlink:href="#dirArrow" transform="rotate(270) translate(-36 17)" onmousedown="handlePan(-1,0)">
                  <use xlink:href="#rim" fill="#404040">
                        <set attributeName="fill" to="#808080" begin="arrowLeft.mouseover" end="arrowLeft.mouseout"/>
                  </use>
                  <path fill="none" stroke="white" stroke-width="1.5" d="M0,-3.0v7 M-2.5,-0.5L0,-3.0L2.5,-0.5"/>
                </g>
        </g>
        <svg viewBox="0 0 15 15" width="100%" height="30px" preserveAspectRatio="xMaxYMin meet">
         <g id="arrow_out" transform="scale(0.3 0.3)">
          <a xlink:href="class_urho3_d_1_1_script_instance__coll__graph_org.svg" target="_base">
           <rect id="button" ry="5" rx="5" y="6" x="6" height="38" width="38"
                fill="#f2f5e9" fill-opacity="0.5" stroke="#606060" stroke-width="1.0"/>
           <path id="arrow"
             d="M 11.500037,31.436501 C 11.940474,20.09759 22.043105,11.32322 32.158766,21.979434 L 37.068811,17.246167 C 37.068811,17.246167 37.088388,32 37.088388,32 L 22.160133,31.978069 C 22.160133,31.978069 26.997745,27.140456 26.997745,27.140456 C 18.528582,18.264221 13.291696,25.230495 11.500037,31.436501 z"
             style="fill:#404040;"/>
          </a>
         </g>
        </svg>
</svg>
