<?xml version="1.0" encoding="UTF-8" standalone="no"?>
<!DOCTYPE svg PUBLIC "-//W3C//DTD SVG 1.1//EN"
 "http://www.w3.org/Graphics/SVG/1.1/DTD/svg11.dtd">
<!-- Generated by graphviz version 2.26.3 (20100126.1600)
 -->
<!-- Title: Urho3D::Texture Pages: 1 -->
<svg width="1696pt" height="1024pt"
 viewBox="0.00 0.00 1696.00 1024.02" xmlns="http://www.w3.org/2000/svg" xmlns:xlink="http://www.w3.org/1999/xlink">
<g id="graph1" class="graph" transform="scale(1 1) rotate(0) translate(4 1020.02)">
<title>Urho3D::Texture</title>
<!-- Node1 -->
<g id="node1" class="node"><title>Node1</title>
<polygon fill="#bfbfbf" stroke="black" points="936,-125.5 936,-146.5 1030,-146.5 1030,-125.5 936,-125.5"/>
<text text-anchor="middle" x="983" y="-133.5" font-family="FreeSans" font-size="10.00">Urho3D::Texture</text>
</g>
<!-- Node22 -->
<g id="node48" class="node"><title>Node22</title>
<a xlink:href="class_urho3_d_1_1_graphics.html" target="_top" xlink:title="Graphics subsystem. Manages the application window, rendering state and GPU resources.">
<polygon fill="none" stroke="red" points="1177.5,-215.5 1177.5,-236.5 1278.5,-236.5 1278.5,-215.5 1177.5,-215.5"/>
<text text-anchor="middle" x="1228" y="-223.5" font-family="FreeSans" font-size="10.00">Urho3D::Graphics</text>
</a>
</g>
<!-- Node1&#45;&gt;Node22 -->
<g id="edge62" class="edge"><title>Node1&#45;&gt;Node22</title>
<path fill="none" stroke="#9a32cd" stroke-dasharray="5,2" d="M1021.24,-150.047C1070.51,-168.146 1155.05,-199.202 1199.22,-215.427"/>
<polygon fill="#9a32cd" stroke="#9a32cd" points="1022.18,-146.663 1011.58,-146.5 1019.76,-153.234 1022.18,-146.663"/>
<text text-anchor="middle" x="1113" y="-200" font-family="FreeSans" font-size="10.00"> textures_</text>
</g>
<!-- Node24 -->
<g id="node57" class="node"><title>Node24</title>
<a xlink:href="class_urho3_d_1_1_shared_ptr.html" target="_top" xlink:title="Urho3D::SharedPtr\&lt;\l Urho3D::Texture \&gt;">
<polygon fill="none" stroke="black" points="1170,-125 1170,-159 1286,-159 1286,-125 1170,-125"/>
<text text-anchor="start" x="1178" y="-146" font-family="FreeSans" font-size="10.00">Urho3D::SharedPtr&lt;</text>
<text text-anchor="middle" x="1228" y="-133" font-family="FreeSans" font-size="10.00"> Urho3D::Texture &gt;</text>
</a>
</g>
<!-- Node1&#45;&gt;Node24 -->
<g id="edge70" class="edge"><title>Node1&#45;&gt;Node24</title>
<path fill="none" stroke="#9a32cd" stroke-dasharray="5,2" d="M1040,-124.621C1072.83,-119.644 1114.83,-115.96 1152,-121 1158.92,-121.938 1166.1,-123.336 1173.16,-124.973"/>
<polygon fill="#9a32cd" stroke="#9a32cd" points="1039.44,-121.166 1030.12,-126.199 1040.54,-128.078 1039.44,-121.166"/>
<text text-anchor="middle" x="1113" y="-125" font-family="FreeSans" font-size="10.00"> ptr_</text>
</g>
<!-- Node2 -->
<g id="node2" class="node"><title>Node2</title>
<a xlink:href="class_urho3_d_1_1_resource.html" target="_top" xlink:title="Base class for resources.">
<polygon fill="none" stroke="black" points="603.5,-232.5 603.5,-253.5 706.5,-253.5 706.5,-232.5 603.5,-232.5"/>
<text text-anchor="middle" x="655" y="-240.5" font-family="FreeSans" font-size="10.00">Urho3D::Resource</text>
</a>
</g>
<!-- Node2&#45;&gt;Node1 -->
<g id="edge2" class="edge"><title>Node2&#45;&gt;Node1</title>
<path fill="none" stroke="midnightblue" d="M716.402,-232.928C730.198,-230.154 744.689,-226.833 758,-223 833.662,-201.213 919.539,-164.506 959.823,-146.542"/>
<polygon fill="midnightblue" stroke="midnightblue" points="715.655,-229.508 706.506,-234.851 716.99,-236.379 715.655,-229.508"/>
</g>
<!-- Node3 -->
<g id="node4" class="node"><title>Node3</title>
<a xlink:href="class_urho3_d_1_1_object.html" target="_top" xlink:title="Base class for objects with type identification, subsystem access and event sending/receiving capabil...">
<polygon fill="none" stroke="black" points="352,-886.5 352,-907.5 442,-907.5 442,-886.5 352,-886.5"/>
<text text-anchor="middle" x="397" y="-894.5" font-family="FreeSans" font-size="10.00">Urho3D::Object</text>
</a>
</g>
<!-- Node3&#45;&gt;Node2 -->
<g id="edge4" class="edge"><title>Node3&#45;&gt;Node2</title>
<path fill="none" stroke="midnightblue" d="M438.706,-882.563C470.905,-868.998 513.337,-845.288 534,-809 561.947,-759.919 522.639,-349.248 552,-301 566.509,-277.158 594.672,-262.279 617.886,-253.568"/>
<polygon fill="midnightblue" stroke="midnightblue" points="437.04,-879.462 429.077,-886.45 439.661,-885.953 437.04,-879.462"/>
</g>
<!-- Node8 -->
<g id="node15" class="node"><title>Node8</title>
<a xlink:href="class_urho3_d_1_1_event_handler.html" target="_top" xlink:title="Internal helper class for invoking event handler functions.">
<polygon fill="none" stroke="red" points="593,-860.5 593,-881.5 717,-881.5 717,-860.5 593,-860.5"/>
<text text-anchor="middle" x="655" y="-868.5" font-family="FreeSans" font-size="10.00">Urho3D::EventHandler</text>
</a>
</g>
<!-- Node3&#45;&gt;Node8 -->
<g id="edge18" class="edge"><title>Node3&#45;&gt;Node8</title>
<path fill="none" stroke="#9a32cd" stroke-dasharray="5,2" d="M442.114,-883.945C451.892,-881.573 462.231,-879.408 472,-878 511.965,-872.239 557.316,-870.471 592.872,-870.152"/>
<polygon fill="#9a32cd" stroke="#9a32cd" points="441.007,-880.615 432.175,-886.468 442.729,-887.4 441.007,-880.615"/>
<text text-anchor="middle" x="503" y="-895" font-family="FreeSans" font-size="10.00"> sender_</text>
<text text-anchor="middle" x="503" y="-882" font-family="FreeSans" font-size="10.00">receiver_</text>
</g>
<!-- Node3&#45;&gt;Node22 -->
<g id="edge56" class="edge"><title>Node3&#45;&gt;Node22</title>
<path fill="none" stroke="midnightblue" d="M416.289,-914.338C430.581,-926.069 451.123,-940.709 472,-948 505.661,-959.757 516.37,-952.666 552,-954 775.847,-962.382 880.974,-1090.8 1056,-951 1175.4,-855.634 1220.91,-318.835 1227.22,-236.577"/>
<polygon fill="midnightblue" stroke="midnightblue" points="418.529,-911.648 408.641,-907.844 413.999,-916.984 418.529,-911.648"/>
</g>
<!-- Node4 -->
<g id="node6" class="node"><title>Node4</title>
<a xlink:href="class_urho3_d_1_1_ref_counted.html" target="_top" xlink:title="Base class for intrusively reference&#45;counted objects. These are noncopyable and non&#45;assignable.">
<polygon fill="none" stroke="black" points="188,-625.5 188,-646.5 302,-646.5 302,-625.5 188,-625.5"/>
<text text-anchor="middle" x="245" y="-633.5" font-family="FreeSans" font-size="10.00">Urho3D::RefCounted</text>
</a>
</g>
<!-- Node4&#45;&gt;Node3 -->
<g id="edge6" class="edge"><title>Node4&#45;&gt;Node3</title>
<path fill="none" stroke="midnightblue" d="M256.293,-655.391C286.358,-707.017 367.638,-846.582 390.777,-886.314"/>
<polygon fill="midnightblue" stroke="midnightblue" points="259.204,-653.435 251.147,-646.555 253.155,-656.958 259.204,-653.435"/>
</g>
<!-- Node6 -->
<g id="node10" class="node"><title>Node6</title>
<a xlink:href="class_urho3_d_1_1_context.html" target="_top" xlink:title="Urho3D execution context. Provides access to subsystems, object factories and attributes, and event receivers.">
<polygon fill="none" stroke="black" points="934.5,-625.5 934.5,-646.5 1031.5,-646.5 1031.5,-625.5 934.5,-625.5"/>
<text text-anchor="middle" x="983" y="-633.5" font-family="FreeSans" font-size="10.00">Urho3D::Context</text>
</a>
</g>
<!-- Node4&#45;&gt;Node6 -->
<g id="edge12" class="edge"><title>Node4&#45;&gt;Node6</title>
<path fill="none" stroke="midnightblue" d="M312.533,-636C459.587,-636 805.841,-636 934.095,-636"/>
<polygon fill="midnightblue" stroke="midnightblue" points="312.296,-632.5 302.296,-636 312.295,-639.5 312.296,-632.5"/>
</g>
<!-- Node5 -->
<g id="node8" class="node"><title>Node5</title>
<a xlink:href="struct_urho3_d_1_1_ref_count.html" target="_top" xlink:title="Reference count structure.">
<polygon fill="none" stroke="black" points="0,-156.5 0,-177.5 102,-177.5 102,-156.5 0,-156.5"/>
<text text-anchor="middle" x="51" y="-164.5" font-family="FreeSans" font-size="10.00">Urho3D::RefCount</text>
</a>
</g>
<!-- Node5&#45;&gt;Node4 -->
<g id="edge8" class="edge"><title>Node5&#45;&gt;Node4</title>
<path fill="none" stroke="#9a32cd" stroke-dasharray="5,2" d="M59.3431,-187.17C92.639,-267.663 215.419,-564.486 240.506,-625.134"/>
<polygon fill="#9a32cd" stroke="#9a32cd" points="62.4731,-185.58 55.4165,-177.677 56.0047,-188.255 62.4731,-185.58"/>
<text text-anchor="middle" x="145" y="-447" font-family="FreeSans" font-size="10.00"> refCount_</text>
</g>
<!-- Node21 -->
<g id="node46" class="node"><title>Node21</title>
<a xlink:href="class_urho3_d_1_1_weak_ptr.html" target="_top" xlink:title="Urho3D::WeakPtr\&lt; Urho3D\l::Graphics \&gt;">
<polygon fill="none" stroke="black" points="1344,-113 1344,-147 1490,-147 1490,-113 1344,-113"/>
<text text-anchor="start" x="1352" y="-134" font-family="FreeSans" font-size="10.00">Urho3D::WeakPtr&lt; Urho3D</text>
<text text-anchor="middle" x="1417" y="-121" font-family="FreeSans" font-size="10.00">::Graphics &gt;</text>
</a>
</g>
<!-- Node5&#45;&gt;Node21 -->
<g id="edge66" class="edge"><title>Node5&#45;&gt;Node21</title>
<path fill="none" stroke="#9a32cd" stroke-dasharray="5,2" d="M61.5421,-147.37C86.8331,-103.235 155.551,-0 245,-0 245,-0 245,-0 1228,-0 1306.65,-0 1376.44,-77.3745 1404.22,-112.737"/>
<polygon fill="#9a32cd" stroke="#9a32cd" points="58.3758,-145.861 56.5588,-156.299 64.4884,-149.273 58.3758,-145.861"/>
<text text-anchor="middle" x="655" y="-4" font-family="FreeSans" font-size="10.00"> refCount_</text>
</g>
<!-- Node6&#45;&gt;Node3 -->
<g id="edge10" class="edge"><title>Node6&#45;&gt;Node3</title>
<path fill="none" stroke="#9a32cd" stroke-dasharray="5,2" d="M979.155,-656.707C968,-714.296 933.752,-874.084 892,-904 854.066,-931.181 518.616,-906.171 472,-904 462.333,-903.55 451.988,-902.775 442.165,-901.901"/>
<polygon fill="#9a32cd" stroke="#9a32cd" points="982.643,-657.099 981.074,-646.621 975.767,-655.791 982.643,-657.099"/>
<text text-anchor="middle" x="655" y="-920" font-family="FreeSans" font-size="10.00"> context_</text>
</g>
<!-- Node7 -->
<g id="node13" class="node"><title>Node7</title>
<a xlink:href="class_urho3_d_1_1_p_o_d_vector.html" target="_top" xlink:title="Urho3D::PODVector\&lt;\l Urho3D::Object * \&gt;">
<polygon fill="none" stroke="red" points="595.5,-376 595.5,-410 714.5,-410 714.5,-376 595.5,-376"/>
<text text-anchor="start" x="603.5" y="-397" font-family="FreeSans" font-size="10.00">Urho3D::PODVector&lt;</text>
<text text-anchor="middle" x="655" y="-384" font-family="FreeSans" font-size="10.00"> Urho3D::Object * &gt;</text>
</a>
</g>
<!-- Node7&#45;&gt;Node6 -->
<g id="edge14" class="edge"><title>Node7&#45;&gt;Node6</title>
<path fill="none" stroke="#9a32cd" stroke-dasharray="5,2" d="M724.714,-393.254C775.974,-396.865 844.669,-409.267 892,-447 952.369,-495.128 975.159,-593.158 981.209,-625.435"/>
<polygon fill="#9a32cd" stroke="#9a32cd" points="724.901,-389.759 714.706,-392.644 724.475,-396.746 724.901,-389.759"/>
<text text-anchor="middle" x="834" y="-451" font-family="FreeSans" font-size="10.00"> eventSenders_</text>
</g>
<!-- Node8&#45;&gt;Node6 -->
<g id="edge16" class="edge"><title>Node8&#45;&gt;Node6</title>
<path fill="none" stroke="#9a32cd" stroke-dasharray="5,2" d="M727.215,-864.311C778.485,-856.162 846.092,-838.088 892,-798 942.298,-754.079 970.753,-675.267 979.803,-646.706"/>
<polygon fill="#9a32cd" stroke="#9a32cd" points="726.562,-860.87 717.19,-865.812 727.599,-867.793 726.562,-860.87"/>
<text text-anchor="middle" x="834" y="-857" font-family="FreeSans" font-size="10.00"> eventHandler_</text>
</g>
<!-- Node17 -->
<g id="node35" class="node"><title>Node17</title>
<a xlink:href="class_urho3_d_1_1_linked_list.html" target="_top" xlink:title="Urho3D::LinkedList\l\&lt; Urho3D::EventHandler \&gt;">
<polygon fill="none" stroke="black" points="910,-908 910,-942 1056,-942 1056,-908 910,-908"/>
<text text-anchor="start" x="918" y="-929" font-family="FreeSans" font-size="10.00">Urho3D::LinkedList</text>
<text text-anchor="middle" x="983" y="-916" font-family="FreeSans" font-size="10.00">&lt; Urho3D::EventHandler &gt;</text>
</a>
</g>
<!-- Node8&#45;&gt;Node17 -->
<g id="edge40" class="edge"><title>Node8&#45;&gt;Node17</title>
<path fill="none" stroke="#9a32cd" stroke-dasharray="5,2" d="M726.96,-882.847C781.16,-891.77 855.194,-903.959 909.713,-912.935"/>
<polygon fill="#9a32cd" stroke="#9a32cd" points="727.516,-879.392 717.08,-881.22 726.378,-886.299 727.516,-879.392"/>
<text text-anchor="middle" x="834" y="-913" font-family="FreeSans" font-size="10.00"> head_</text>
</g>
<!-- Node9 -->
<g id="node18" class="node"><title>Node9</title>
<a xlink:href="class_urho3_d_1_1_string_hash.html" target="_top" xlink:title="32&#45;bit hash value for a string.">
<polygon fill="none" stroke="black" points="340.5,-682.5 340.5,-703.5 453.5,-703.5 453.5,-682.5 340.5,-682.5"/>
<text text-anchor="middle" x="397" y="-690.5" font-family="FreeSans" font-size="10.00">Urho3D::StringHash</text>
</a>
</g>
<!-- Node9&#45;&gt;Node2 -->
<g id="edge48" class="edge"><title>Node9&#45;&gt;Node2</title>
<path fill="none" stroke="#9a32cd" stroke-dasharray="5,2" d="M400.223,-672.019C410.89,-608.837 450.335,-417.561 552,-301 571.56,-278.574 602.006,-262.946 624.731,-253.608"/>
<polygon fill="#9a32cd" stroke="#9a32cd" points="396.705,-671.848 398.558,-682.279 403.615,-672.969 396.705,-671.848"/>
<text text-anchor="middle" x="503" y="-431" font-family="FreeSans" font-size="10.00"> nameHash_</text>
</g>
<!-- Node9&#45;&gt;Node8 -->
<g id="edge20" class="edge"><title>Node9&#45;&gt;Node8</title>
<path fill="none" stroke="#9a32cd" stroke-dasharray="5,2" d="M409.726,-712.129C433.392,-746.045 487.656,-816.399 552,-851 564.434,-857.686 578.779,-862.157 592.739,-865.141"/>
<polygon fill="#9a32cd" stroke="#9a32cd" points="412.417,-709.863 403.88,-703.589 406.641,-713.817 412.417,-709.863"/>
<text text-anchor="middle" x="503" y="-842" font-family="FreeSans" font-size="10.00"> eventType_</text>
</g>
<!-- Node9&#45;&gt;Node9 -->
<g id="edge22" class="edge"><title>Node9&#45;&gt;Node9</title>
<path fill="none" stroke="#9a32cd" stroke-dasharray="5,2" d="M383.082,-713.793C384.31,-718.529 388.95,-722 397,-722 410.211,-722 414.236,-712.653 409.076,-703.708"/>
<polygon fill="#9a32cd" stroke="#9a32cd" points="386.57,-714.174 384.924,-703.708 379.684,-712.916 386.57,-714.174"/>
<text text-anchor="middle" x="397" y="-726" font-family="FreeSans" font-size="10.00"> ZERO</text>
</g>
<!-- Node10 -->
<g id="node21" class="node"><title>Node10</title>
<a xlink:href="class_urho3_d_1_1_hash_map.html" target="_top" xlink:title="Urho3D::HashMap\&lt; Urho3D\l::StringHash, Urho3D::\lHashSet\&lt; Urho3D::Object * \&gt; \&gt;">
<polygon fill="none" stroke="red" points="568.5,-310.5 568.5,-357.5 741.5,-357.5 741.5,-310.5 568.5,-310.5"/>
<text text-anchor="start" x="576.5" y="-344.5" font-family="FreeSans" font-size="10.00">Urho3D::HashMap&lt; Urho3D</text>
<text text-anchor="start" x="576.5" y="-331.5" font-family="FreeSans" font-size="10.00">::StringHash, Urho3D::</text>
<text text-anchor="middle" x="655" y="-318.5" font-family="FreeSans" font-size="10.00">HashSet&lt; Urho3D::Object * &gt; &gt;</text>
</a>
</g>
<!-- Node10&#45;&gt;Node6 -->
<g id="edge24" class="edge"><title>Node10&#45;&gt;Node6</title>
<path fill="none" stroke="#9a32cd" stroke-dasharray="5,2" d="M751.306,-355.783C759.651,-357.581 767.97,-359.343 776,-361 827.392,-371.604 852.085,-348.936 892,-383 969.404,-449.058 980.969,-586.076 982.697,-625.298"/>
<polygon fill="#9a32cd" stroke="#9a32cd" points="752.028,-352.358 741.513,-353.659 750.544,-359.199 752.028,-352.358"/>
<text text-anchor="middle" x="834" y="-387" font-family="FreeSans" font-size="10.00"> eventReceivers_</text>
</g>
<!-- Node11 -->
<g id="node23" class="node"><title>Node11</title>
<a xlink:href="class_urho3_d_1_1_hash_map.html" target="_top" xlink:title="Urho3D::HashMap\&lt; Urho3D\l::Object *, Urho3D::HashMap\l\&lt; Urho3D::StringHash, Urho3D\l::HashSet\&lt; Urho3D::Object * \&gt; \&gt; \&gt;">
<polygon fill="none" stroke="red" points="559.5,-782 559.5,-842 750.5,-842 750.5,-782 559.5,-782"/>
<text text-anchor="start" x="567.5" y="-829" font-family="FreeSans" font-size="10.00">Urho3D::HashMap&lt; Urho3D</text>
<text text-anchor="start" x="567.5" y="-816" font-family="FreeSans" font-size="10.00">::Object *, Urho3D::HashMap</text>
<text text-anchor="start" x="567.5" y="-803" font-family="FreeSans" font-size="10.00">&lt; Urho3D::StringHash, Urho3D</text>
<text text-anchor="middle" x="655" y="-790" font-family="FreeSans" font-size="10.00">::HashSet&lt; Urho3D::Object * &gt; &gt; &gt;</text>
</a>
</g>
<!-- Node11&#45;&gt;Node6 -->
<g id="edge26" class="edge"><title>Node11&#45;&gt;Node6</title>
<path fill="none" stroke="#9a32cd" stroke-dasharray="5,2" d="M760.165,-787.776C803.148,-774.973 852.047,-756.502 892,-731 928.77,-707.529 961.328,-666.199 975.491,-646.724"/>
<polygon fill="#9a32cd" stroke="#9a32cd" points="759.144,-784.428 750.521,-790.584 761.101,-791.149 759.144,-784.428"/>
<text text-anchor="middle" x="834" y="-785" font-family="FreeSans" font-size="10.00"> specificEventReceivers_</text>
</g>
<!-- Node12 -->
<g id="node25" class="node"><title>Node12</title>
<a xlink:href="class_urho3_d_1_1_hash_map.html" target="_top" xlink:title="Urho3D::HashMap\&lt; Urho3D\l::StringHash, Urho3D::\lSharedPtr\&lt; Urho3D::Object \&gt; \&gt;">
<polygon fill="none" stroke="red" points="569,-716.5 569,-763.5 741,-763.5 741,-716.5 569,-716.5"/>
<text text-anchor="start" x="577" y="-750.5" font-family="FreeSans" font-size="10.00">Urho3D::HashMap&lt; Urho3D</text>
<text text-anchor="start" x="577" y="-737.5" font-family="FreeSans" font-size="10.00">::StringHash, Urho3D::</text>
<text text-anchor="middle" x="655" y="-724.5" font-family="FreeSans" font-size="10.00">SharedPtr&lt; Urho3D::Object &gt; &gt;</text>
</a>
</g>
<!-- Node12&#45;&gt;Node6 -->
<g id="edge28" class="edge"><title>Node12&#45;&gt;Node6</title>
<path fill="none" stroke="#9a32cd" stroke-dasharray="5,2" d="M750.839,-721.077C794.55,-711.197 846.572,-697.666 892,-681 918.143,-671.409 946.68,-656.516 964.697,-646.518"/>
<polygon fill="#9a32cd" stroke="#9a32cd" points="750.069,-717.663 741.071,-723.256 751.593,-724.495 750.069,-717.663"/>
<text text-anchor="middle" x="834" y="-718" font-family="FreeSans" font-size="10.00"> subsystems_</text>
</g>
<!-- Node13 -->
<g id="node27" class="node"><title>Node13</title>
<a xlink:href="class_urho3_d_1_1_p_o_d_vector.html" target="_top" xlink:title="Urho3D::PODVector\&lt;\l Urho3D::HashMap * \&gt;">
<polygon fill="none" stroke="red" points="591.5,-664 591.5,-698 718.5,-698 718.5,-664 591.5,-664"/>
<text text-anchor="start" x="599.5" y="-685" font-family="FreeSans" font-size="10.00">Urho3D::PODVector&lt;</text>
<text text-anchor="middle" x="655" y="-672" font-family="FreeSans" font-size="10.00"> Urho3D::HashMap * &gt;</text>
</a>
</g>
<!-- Node13&#45;&gt;Node6 -->
<g id="edge30" class="edge"><title>Node13&#45;&gt;Node6</title>
<path fill="none" stroke="#9a32cd" stroke-dasharray="5,2" d="M728.728,-671.792C775.533,-665.838 837.364,-657.775 892,-650 905.768,-648.041 920.688,-645.796 934.387,-643.687"/>
<polygon fill="#9a32cd" stroke="#9a32cd" points="728.157,-668.336 718.677,-673.067 729.038,-675.28 728.157,-668.336"/>
<text text-anchor="middle" x="834" y="-668" font-family="FreeSans" font-size="10.00"> eventDataMaps_</text>
</g>
<!-- Node14 -->
<g id="node29" class="node"><title>Node14</title>
<a xlink:href="class_urho3_d_1_1_hash_map.html" target="_top" xlink:title="Urho3D::HashMap\&lt; Urho3D\l::StringHash, Urho3D::\lSharedPtr\&lt; Urho3D::ObjectFactory \&gt; \&gt;">
<polygon fill="none" stroke="red" points="552,-560.5 552,-607.5 758,-607.5 758,-560.5 552,-560.5"/>
<text text-anchor="start" x="560" y="-594.5" font-family="FreeSans" font-size="10.00">Urho3D::HashMap&lt; Urho3D</text>
<text text-anchor="start" x="560" y="-581.5" font-family="FreeSans" font-size="10.00">::StringHash, Urho3D::</text>
<text text-anchor="middle" x="655" y="-568.5" font-family="FreeSans" font-size="10.00">SharedPtr&lt; Urho3D::ObjectFactory &gt; &gt;</text>
</a>
</g>
<!-- Node14&#45;&gt;Node6 -->
<g id="edge32" class="edge"><title>Node14&#45;&gt;Node6</title>
<path fill="none" stroke="#9a32cd" stroke-dasharray="5,2" d="M768.438,-591.706C807.797,-595.503 852.061,-601.038 892,-609 912.525,-613.091 935.081,-619.768 952.602,-625.459"/>
<polygon fill="#9a32cd" stroke="#9a32cd" points="768.561,-588.202 758.278,-590.753 767.907,-595.171 768.561,-588.202"/>
<text text-anchor="middle" x="834" y="-613" font-family="FreeSans" font-size="10.00"> factories_</text>
</g>
<!-- Node15 -->
<g id="node31" class="node"><title>Node15</title>
<a xlink:href="class_urho3_d_1_1_hash_map.html" target="_top" xlink:title="Urho3D::HashMap\&lt; Urho3D\l::String, Urho3D::Vector\l\&lt; Urho3D::StringHash \&gt; \&gt;">
<polygon fill="none" stroke="red" points="579,-494.5 579,-541.5 731,-541.5 731,-494.5 579,-494.5"/>
<text text-anchor="start" x="587" y="-528.5" font-family="FreeSans" font-size="10.00">Urho3D::HashMap&lt; Urho3D</text>
<text text-anchor="start" x="587" y="-515.5" font-family="FreeSans" font-size="10.00">::String, Urho3D::Vector</text>
<text text-anchor="middle" x="655" y="-502.5" font-family="FreeSans" font-size="10.00">&lt; Urho3D::StringHash &gt; &gt;</text>
</a>
</g>
<!-- Node15&#45;&gt;Node6 -->
<g id="edge34" class="edge"><title>Node15&#45;&gt;Node6</title>
<path fill="none" stroke="#9a32cd" stroke-dasharray="5,2" d="M741.084,-531.096C787.135,-539.967 844.068,-553.98 892,-575 922.308,-588.291 953.456,-611.695 970.3,-625.325"/>
<polygon fill="#9a32cd" stroke="#9a32cd" points="741.605,-527.632 731.131,-529.225 740.312,-534.512 741.605,-527.632"/>
<text text-anchor="middle" x="834" y="-579" font-family="FreeSans" font-size="10.00"> objectCategories_</text>
</g>
<!-- Node16 -->
<g id="node33" class="node"><title>Node16</title>
<a xlink:href="class_urho3_d_1_1_hash_map.html" target="_top" xlink:title="Urho3D::HashMap\&lt; Urho3D\l::StringHash, Urho3D::\lVector\&lt; Urho3D::AttributeInfo \&gt; \&gt;">
<polygon fill="none" stroke="red" points="563.5,-428.5 563.5,-475.5 746.5,-475.5 746.5,-428.5 563.5,-428.5"/>
<text text-anchor="start" x="571.5" y="-462.5" font-family="FreeSans" font-size="10.00">Urho3D::HashMap&lt; Urho3D</text>
<text text-anchor="start" x="571.5" y="-449.5" font-family="FreeSans" font-size="10.00">::StringHash, Urho3D::</text>
<text text-anchor="middle" x="655" y="-436.5" font-family="FreeSans" font-size="10.00">Vector&lt; Urho3D::AttributeInfo &gt; &gt;</text>
</a>
</g>
<!-- Node16&#45;&gt;Node6 -->
<g id="edge36" class="edge"><title>Node16&#45;&gt;Node6</title>
<path fill="none" stroke="#9a32cd" stroke-dasharray="5,2" d="M756.637,-459.847C801.164,-467.183 852.218,-481.225 892,-508 937.692,-538.752 967.935,-600.669 978.66,-625.422"/>
<polygon fill="#9a32cd" stroke="#9a32cd" points="757.072,-456.373 746.653,-458.295 755.997,-463.29 757.072,-456.373"/>
<text text-anchor="middle" x="834" y="-525" font-family="FreeSans" font-size="10.00"> attributes_</text>
<text text-anchor="middle" x="834" y="-512" font-family="FreeSans" font-size="10.00">networkAttributes_</text>
</g>
<!-- Node17&#45;&gt;Node3 -->
<g id="edge38" class="edge"><title>Node17&#45;&gt;Node3</title>
<path fill="none" stroke="#9a32cd" stroke-dasharray="5,2" d="M899.303,-931.612C896.842,-931.751 894.404,-931.881 892,-932 741.069,-939.489 703.09,-937.832 552,-935 516.426,-934.333 506.585,-940.356 472,-932 451.189,-926.972 429.196,-915.94 414.447,-907.597"/>
<polygon fill="#9a32cd" stroke="#9a32cd" points="899.744,-935.092 909.515,-930.997 899.323,-928.105 899.744,-935.092"/>
<text text-anchor="middle" x="655" y="-941" font-family="FreeSans" font-size="10.00"> eventHandlers_</text>
</g>
<!-- Node18 -->
<g id="node38" class="node"><title>Node18</title>
<a xlink:href="class_urho3_d_1_1_timer.html" target="_top" xlink:title="Low&#45;resolution operating system timer.">
<polygon fill="none" stroke="black" points="354,-171.5 354,-192.5 440,-192.5 440,-171.5 354,-171.5"/>
<text text-anchor="middle" x="397" y="-179.5" font-family="FreeSans" font-size="10.00">Urho3D::Timer</text>
</a>
</g>
<!-- Node18&#45;&gt;Node2 -->
<g id="edge42" class="edge"><title>Node18&#45;&gt;Node2</title>
<path fill="none" stroke="#9a32cd" stroke-dasharray="5,2" d="M450.605,-178.41C477.312,-178.973 509.125,-183.374 534,-198 545.803,-204.939 540.468,-215.62 552,-223 567.19,-232.721 586.035,-237.914 603.437,-240.628"/>
<polygon fill="#9a32cd" stroke="#9a32cd" points="450.279,-174.909 440.267,-178.374 450.255,-181.909 450.279,-174.909"/>
<text text-anchor="middle" x="503" y="-202" font-family="FreeSans" font-size="10.00"> useTimer_</text>
</g>
<!-- Node19 -->
<g id="node40" class="node"><title>Node19</title>
<a xlink:href="class_urho3_d_1_1_string.html" target="_top" xlink:title="String class.">
<polygon fill="none" stroke="black" points="353,-241.5 353,-262.5 441,-262.5 441,-241.5 353,-241.5"/>
<text text-anchor="middle" x="397" y="-249.5" font-family="FreeSans" font-size="10.00">Urho3D::String</text>
</a>
</g>
<!-- Node19&#45;&gt;Node2 -->
<g id="edge44" class="edge"><title>Node19&#45;&gt;Node2</title>
<path fill="none" stroke="#9a32cd" stroke-dasharray="5,2" d="M424.063,-236.832C437.935,-229.913 455.373,-222.496 472,-219 498.966,-213.33 506.609,-215.993 534,-219 542.146,-219.894 543.977,-221.33 552,-223 568.674,-226.471 586.909,-230.074 603.339,-233.251"/>
<polygon fill="#9a32cd" stroke="#9a32cd" points="422.349,-233.777 415.082,-241.487 425.571,-239.992 422.349,-233.777"/>
<text text-anchor="middle" x="503" y="-223" font-family="FreeSans" font-size="10.00"> name_</text>
</g>
<!-- Node19&#45;&gt;Node19 -->
<g id="edge46" class="edge"><title>Node19&#45;&gt;Node19</title>
<path fill="none" stroke="#9a32cd" stroke-dasharray="5,2" d="M383.082,-272.793C384.31,-277.529 388.95,-281 397,-281 410.211,-281 414.236,-271.653 409.076,-262.708"/>
<polygon fill="#9a32cd" stroke="#9a32cd" points="386.57,-273.174 384.924,-262.708 379.684,-271.916 386.57,-273.174"/>
<text text-anchor="middle" x="397" y="-285" font-family="FreeSans" font-size="10.00"> EMPTY</text>
</g>
<!-- Node19&#45;&gt;Node22 -->
<g id="edge64" class="edge"><title>Node19&#45;&gt;Node22</title>
<path fill="none" stroke="#9a32cd" stroke-dasharray="5,2" d="M448.814,-264.529C456.544,-265.968 464.451,-267.204 472,-268 499.404,-270.891 506.445,-268.132 534,-268 766.008,-266.889 824.509,-278.525 1056,-263 1098.9,-260.123 1110.05,-260.429 1152,-251 1168.26,-247.345 1185.98,-241.623 1200.21,-236.576"/>
<polygon fill="#9a32cd" stroke="#9a32cd" points="449.288,-261.055 438.797,-262.54 447.924,-267.921 449.288,-261.055"/>
<text text-anchor="middle" x="834" y="-340" font-family="FreeSans" font-size="10.00"> lastShaderName_</text>
<text text-anchor="middle" x="834" y="-327" font-family="FreeSans" font-size="10.00">windowTitle_</text>
<text text-anchor="middle" x="834" y="-314" font-family="FreeSans" font-size="10.00">apiName_</text>
<text text-anchor="middle" x="834" y="-301" font-family="FreeSans" font-size="10.00">shaderPath_</text>
<text text-anchor="middle" x="834" y="-288" font-family="FreeSans" font-size="10.00">orientations_</text>
<text text-anchor="middle" x="834" y="-275" font-family="FreeSans" font-size="10.00">shaderExtension_</text>
</g>
<!-- Node20 -->
<g id="node44" class="node"><title>Node20</title>
<a xlink:href="class_urho3_d_1_1_g_p_u_object.html" target="_top" xlink:title="Base class for GPU resources.">
<polygon fill="none" stroke="black" points="1576.5,-93.5 1576.5,-114.5 1687.5,-114.5 1687.5,-93.5 1576.5,-93.5"/>
<text text-anchor="middle" x="1632" y="-101.5" font-family="FreeSans" font-size="10.00">Urho3D::GPUObject</text>
</a>
</g>
<!-- Node20&#45;&gt;Node1 -->
<g id="edge50" class="edge"><title>Node20&#45;&gt;Node1</title>
<path fill="none" stroke="midnightblue" d="M1566.11,-100.135C1461.32,-95.1197 1250.49,-89.6484 1074,-114 1055.81,-116.51 1035.94,-121.091 1019.43,-125.425"/>
<polygon fill="midnightblue" stroke="midnightblue" points="1566.06,-103.637 1576.22,-100.634 1566.41,-96.6456 1566.06,-103.637"/>
</g>
<!-- Node21&#45;&gt;Node20 -->
<g id="edge52" class="edge"><title>Node21&#45;&gt;Node20</title>
<path fill="none" stroke="#9a32cd" stroke-dasharray="5,2" d="M1500.15,-119.945C1525.71,-116.854 1553.2,-113.529 1576.44,-110.719"/>
<polygon fill="#9a32cd" stroke="#9a32cd" points="1499.6,-116.486 1490.09,-121.161 1500.44,-123.435 1499.6,-116.486"/>
<text text-anchor="middle" x="1533" y="-122" font-family="FreeSans" font-size="10.00"> graphics_</text>
</g>
<!-- Node22&#45;&gt;Node21 -->
<g id="edge54" class="edge"><title>Node22&#45;&gt;Node21</title>
<path fill="none" stroke="#9a32cd" stroke-dasharray="5,2" d="M1257.96,-210.781C1292.06,-193.463 1347.61,-165.244 1383.22,-147.158"/>
<polygon fill="#9a32cd" stroke="#9a32cd" points="1256.28,-207.71 1248.95,-215.36 1259.45,-213.951 1256.28,-207.71"/>
<text text-anchor="middle" x="1315" y="-190" font-family="FreeSans" font-size="10.00"> ptr_</text>
</g>
<!-- Node23 -->
<g id="node51" class="node"><title>Node23</title>
<a xlink:href="class_urho3_d_1_1_int_rect.html" target="_top" xlink:title="Two&#45;dimensional bounding rectangle with integer values.">
<polygon fill="none" stroke="black" points="937,-201.5 937,-222.5 1029,-222.5 1029,-201.5 937,-201.5"/>
<text text-anchor="middle" x="983" y="-209.5" font-family="FreeSans" font-size="10.00">Urho3D::IntRect</text>
</a>
</g>
<!-- Node23&#45;&gt;Node22 -->
<g id="edge58" class="edge"><title>Node23&#45;&gt;Node22</title>
<path fill="none" stroke="#9a32cd" stroke-dasharray="5,2" d="M1039.08,-215.204C1080.77,-217.587 1137.18,-220.81 1177.48,-223.113"/>
<polygon fill="#9a32cd" stroke="#9a32cd" points="1039.27,-211.71 1029.08,-214.633 1038.87,-218.698 1039.27,-211.71"/>
<text text-anchor="middle" x="1113" y="-238" font-family="FreeSans" font-size="10.00"> viewport_</text>
<text text-anchor="middle" x="1113" y="-225" font-family="FreeSans" font-size="10.00">scissorRect_</text>
</g>
<!-- Node23&#45;&gt;Node23 -->
<g id="edge60" class="edge"><title>Node23&#45;&gt;Node23</title>
<path fill="none" stroke="#9a32cd" stroke-dasharray="5,2" d="M959.042,-232.427C960.891,-237.349 968.876,-241 983,-241 1005.6,-241 1012.48,-231.653 1003.66,-222.708"/>
<polygon fill="#9a32cd" stroke="#9a32cd" points="962.441,-233.302 962.344,-222.708 955.813,-231.05 962.441,-233.302"/>
<text text-anchor="middle" x="983" y="-245" font-family="FreeSans" font-size="10.00"> ZERO</text>
</g>
<!-- Node24&#45;&gt;Node1 -->
<g id="edge68" class="edge"><title>Node24&#45;&gt;Node1</title>
<path fill="none" stroke="#9a32cd" stroke-dasharray="5,2" d="M1159.43,-140.321C1118.25,-139.312 1066.9,-138.055 1030.24,-137.157"/>
<polygon fill="#9a32cd" stroke="#9a32cd" points="1159.58,-143.825 1169.67,-140.571 1159.76,-136.828 1159.58,-143.825"/>
<text text-anchor="middle" x="1113" y="-144" font-family="FreeSans" font-size="10.00"> backupTexture_</text>
</g>
<!-- Node25 -->
<g id="node60" class="node"><title>Node25</title>
<a xlink:href="class_urho3_d_1_1_color.html" target="_top" xlink:title="RGBA color.">
<polygon fill="none" stroke="black" points="613,-31.5 613,-52.5 697,-52.5 697,-31.5 613,-31.5"/>
<text text-anchor="middle" x="655" y="-39.5" font-family="FreeSans" font-size="10.00">Urho3D::Color</text>
</a>
</g>
<!-- Node25&#45;&gt;Node1 -->
<g id="edge72" class="edge"><title>Node25&#45;&gt;Node1</title>
<path fill="none" stroke="#9a32cd" stroke-dasharray="5,2" d="M701.367,-55.2881C767.163,-74.1442 886.28,-108.281 946.314,-125.486"/>
<polygon fill="#9a32cd" stroke="#9a32cd" points="702.248,-51.8998 691.671,-52.5094 700.32,-58.629 702.248,-51.8998"/>
<text text-anchor="middle" x="834" y="-112" font-family="FreeSans" font-size="10.00"> borderColor_</text>
</g>
<!-- Node25&#45;&gt;Node25 -->
<g id="edge74" class="edge"><title>Node25&#45;&gt;Node25</title>
<path fill="none" stroke="#9a32cd" stroke-dasharray="5,2" d="M626.839,-62.0551C628.687,-67.164 638.073,-71 655,-71 681.422,-71 689.472,-61.6531 679.151,-52.7079"/>
<polygon fill="#9a32cd" stroke="#9a32cd" points="630.123,-63.2778 630.849,-52.7079 623.69,-60.5184 630.123,-63.2778"/>
<text text-anchor="middle" x="655" y="-205" font-family="FreeSans" font-size="10.00"> CYAN</text>
<text text-anchor="middle" x="655" y="-192" font-family="FreeSans" font-size="10.00">GRAY</text>
<text text-anchor="middle" x="655" y="-179" font-family="FreeSans" font-size="10.00">YELLOW</text>
<text text-anchor="middle" x="655" y="-166" font-family="FreeSans" font-size="10.00">MAGENTA</text>
<text text-anchor="middle" x="655" y="-153" font-family="FreeSans" font-size="10.00">WHITE</text>
<text text-anchor="middle" x="655" y="-140" font-family="FreeSans" font-size="10.00">TRANSPARENT</text>
<text text-anchor="middle" x="655" y="-127" font-family="FreeSans" font-size="10.00">BLUE</text>
<text text-anchor="middle" x="655" y="-114" font-family="FreeSans" font-size="10.00">BLACK</text>
<text text-anchor="middle" x="655" y="-101" font-family="FreeSans" font-size="10.00">RED</text>
<text text-anchor="middle" x="655" y="-88" font-family="FreeSans" font-size="10.00">GREEN</text>
<text text-anchor="middle" x="655" y="-75" font-family="FreeSans" font-size="10.00">...</text>
</g>
</g>
</svg>
