<?xml version="1.0" encoding="UTF-8" standalone="no"?>
<!DOCTYPE svg PUBLIC "-//W3C//DTD SVG 1.1//EN"
 "http://www.w3.org/Graphics/SVG/1.1/DTD/svg11.dtd">
<!-- Generated by graphviz version 2.26.3 (20100126.1600)
 -->
<!-- Title: Urho3D::Graphics::ResolveToTexture Pages: 1 -->
<svg width="340pt" height="214pt"
 viewBox="0.00 0.00 340.00 214.00" xmlns="http://www.w3.org/2000/svg" xmlns:xlink="http://www.w3.org/1999/xlink">
<g id="graph1" class="graph" transform="scale(1 1) rotate(0) translate(4 210)">
<title>Urho3D::Graphics::ResolveToTexture</title>
<!-- Node1 -->
<g id="node1" class="node"><title>Node1</title>
<polygon fill="#bfbfbf" stroke="black" points="0.5,-86 0.5,-120 143.5,-120 143.5,-86 0.5,-86"/>
<text text-anchor="start" x="8.5" y="-107" font-family="FreeSans" font-size="10.00">Urho3D::Graphics::Resolve</text>
<text text-anchor="middle" x="72" y="-94" font-family="FreeSans" font-size="10.00">ToTexture</text>
</g>
<!-- Node2 -->
<g id="node3" class="node"><title>Node2</title>
<a xlink:href="class_urho3_d_1_1_texture2_d.html#a09f127d549e0e72be504269e91e43326" target="_top" xlink:title="Return render surface.">
<polygon fill="none" stroke="black" points="199.5,-172 199.5,-206 312.5,-206 312.5,-172 199.5,-172"/>
<text text-anchor="start" x="207.5" y="-193" font-family="FreeSans" font-size="10.00">Urho3D::Texture2D::</text>
<text text-anchor="middle" x="256" y="-180" font-family="FreeSans" font-size="10.00">GetRenderSurface</text>
</a>
</g>
<!-- Node1&#45;&gt;Node2 -->
<g id="edge2" class="edge"><title>Node1&#45;&gt;Node2</title>
<path fill="none" stroke="midnightblue" d="M99.7215,-120.199C121.133,-133.036 151.777,-150.452 180,-163 184.125,-164.834 188.423,-166.62 192.783,-168.341"/>
<polygon fill="midnightblue" stroke="midnightblue" points="191.794,-171.71 202.385,-171.997 194.285,-165.168 191.794,-171.71"/>
</g>
<!-- Node3 -->
<g id="node5" class="node"><title>Node3</title>
<a xlink:href="class_urho3_d_1_1_texture.html#acfd4faedc2f8b67d4e704158cc4e8781" target="_top" xlink:title="Return width.">
<polygon fill="none" stroke="black" points="184.5,-132.5 184.5,-153.5 327.5,-153.5 327.5,-132.5 184.5,-132.5"/>
<text text-anchor="middle" x="256" y="-140.5" font-family="FreeSans" font-size="10.00">Urho3D::Texture::GetWidth</text>
</a>
</g>
<!-- Node1&#45;&gt;Node3 -->
<g id="edge4" class="edge"><title>Node1&#45;&gt;Node3</title>
<path fill="none" stroke="midnightblue" d="M143.666,-118.58C161.549,-122.467 180.51,-126.589 197.661,-130.318"/>
<polygon fill="midnightblue" stroke="midnightblue" points="197.013,-133.758 207.528,-132.463 198.5,-126.918 197.013,-133.758"/>
</g>
<!-- Node4 -->
<g id="node7" class="node"><title>Node4</title>
<a xlink:href="class_urho3_d_1_1_texture.html#a1620a19d49cd5a72926a74b9b7205d7b" target="_top" xlink:title="Return height.">
<polygon fill="none" stroke="black" points="181.5,-92.5 181.5,-113.5 330.5,-113.5 330.5,-92.5 181.5,-92.5"/>
<text text-anchor="middle" x="256" y="-100.5" font-family="FreeSans" font-size="10.00">Urho3D::Texture::GetHeight</text>
</a>
</g>
<!-- Node1&#45;&gt;Node4 -->
<g id="edge6" class="edge"><title>Node1&#45;&gt;Node4</title>
<path fill="none" stroke="midnightblue" d="M143.666,-103C152.781,-103 162.176,-103 171.468,-103"/>
<polygon fill="midnightblue" stroke="midnightblue" points="171.494,-106.5 181.494,-103 171.494,-99.5001 171.494,-106.5"/>
</g>
<!-- Node5 -->
<g id="node9" class="node"><title>Node5</title>
<a xlink:href="class_urho3_d_1_1_g_p_u_object.html#a67142837fc5ed67f4b0bf7f97df2cb5d" target="_top" xlink:title="Return Direct3D object.">
<polygon fill="none" stroke="black" points="197.5,-40 197.5,-74 314.5,-74 314.5,-40 197.5,-40"/>
<text text-anchor="start" x="205.5" y="-61" font-family="FreeSans" font-size="10.00">Urho3D::GPUObject::</text>
<text text-anchor="middle" x="256" y="-48" font-family="FreeSans" font-size="10.00">GetGPUObject</text>
</a>
</g>
<!-- Node1&#45;&gt;Node5 -->
<g id="edge8" class="edge"><title>Node1&#45;&gt;Node5</title>
<path fill="none" stroke="midnightblue" d="M140.253,-85.9367C155.606,-82.0984 171.907,-78.0233 187.279,-74.1803"/>
<polygon fill="midnightblue" stroke="midnightblue" points="188.375,-77.5141 197.227,-71.6932 186.677,-70.7231 188.375,-77.5141"/>
</g>
<!-- Node6 -->
<g id="node11" class="node"><title>Node6</title>
<a xlink:href="class_urho3_d_1_1_texture.html#a2f053f59f1001c8c85c9382d07900211" target="_top" xlink:title="Return texture format.">
<polygon fill="none" stroke="black" points="180,-0.5 180,-21.5 332,-21.5 332,-0.5 180,-0.5"/>
<text text-anchor="middle" x="256" y="-8.5" font-family="FreeSans" font-size="10.00">Urho3D::Texture::GetFormat</text>
</a>
</g>
<!-- Node1&#45;&gt;Node6 -->
<g id="edge10" class="edge"><title>Node1&#45;&gt;Node6</title>
<path fill="none" stroke="midnightblue" d="M93.0876,-85.8453C114,-69.608 147.528,-45.6048 180,-31 185.261,-28.6337 190.857,-26.5035 196.535,-24.596"/>
<polygon fill="midnightblue" stroke="midnightblue" points="197.624,-27.9225 206.121,-21.5935 195.532,-21.2424 197.624,-27.9225"/>
</g>
</g>
</svg>
