<?xml version="1.0" encoding="UTF-8" standalone="no"?>
<!DOCTYPE svg PUBLIC "-//W3C//DTD SVG 1.1//EN"
 "http://www.w3.org/Graphics/SVG/1.1/DTD/svg11.dtd">
<!-- Generated by graphviz version 2.26.3 (20100126.1600)
 -->
<!-- Title: Urho3D::DbConnection Pages: 1 -->
<svg width="134pt" height="146pt"
 viewBox="0.00 0.00 134.00 146.00" xmlns="http://www.w3.org/2000/svg" xmlns:xlink="http://www.w3.org/1999/xlink">
<g id="graph1" class="graph" transform="scale(1 1) rotate(0) translate(4 142)">
<title>Urho3D::DbConnection</title>
<!-- Node1 -->
<g id="node1" class="node"><title>Node1</title>
<polygon fill="#bfbfbf" stroke="black" points="-0.5,-0.5 -0.5,-21.5 126.5,-21.5 126.5,-0.5 -0.5,-0.5"/>
<text text-anchor="middle" x="63" y="-8.5" font-family="FreeSans" font-size="10.00">Urho3D::DbConnection</text>
</g>
<!-- Node2 -->
<g id="node2" class="node"><title>Node2</title>
<a xlink:href="class_urho3_d_1_1_object.html" target="_top" xlink:title="Base class for objects with type identification, subsystem access and event sending/receiving capabil...">
<polygon fill="none" stroke="black" points="18,-58.5 18,-79.5 108,-79.5 108,-58.5 18,-58.5"/>
<text text-anchor="middle" x="63" y="-66.5" font-family="FreeSans" font-size="10.00">Urho3D::Object</text>
</a>
</g>
<!-- Node2&#45;&gt;Node1 -->
<g id="edge2" class="edge"><title>Node2&#45;&gt;Node1</title>
<path fill="none" stroke="midnightblue" d="M56.4952,-48.1906C55.9414,-39.1684 56.3257,-28.9941 57.6479,-21.5707"/>
<polygon fill="midnightblue" stroke="midnightblue" points="53.0431,-48.8143 57.6359,-58.3619 59.9995,-48.0341 53.0431,-48.8143"/>
</g>
<!-- Node2&#45;&gt;Node1 -->
<g id="edge6" class="edge"><title>Node2&#45;&gt;Node1</title>
<path fill="none" stroke="midnightblue" d="M69.5048,-48.1906C70.0586,-39.1684 69.6743,-28.9941 68.3521,-21.5707"/>
<polygon fill="midnightblue" stroke="midnightblue" points="66.0005,-48.0341 68.3641,-58.3619 72.9569,-48.8143 66.0005,-48.0341"/>
</g>
<!-- Node3 -->
<g id="node4" class="node"><title>Node3</title>
<a xlink:href="class_urho3_d_1_1_ref_counted.html" target="_top" xlink:title="Base class for intrusively reference&#45;counted objects. These are noncopyable and non&#45;assignable.">
<polygon fill="none" stroke="black" points="6,-116.5 6,-137.5 120,-137.5 120,-116.5 6,-116.5"/>
<text text-anchor="middle" x="63" y="-124.5" font-family="FreeSans" font-size="10.00">Urho3D::RefCounted</text>
</a>
</g>
<!-- Node3&#45;&gt;Node2 -->
<g id="edge4" class="edge"><title>Node3&#45;&gt;Node2</title>
<path fill="none" stroke="midnightblue" d="M63,-106.191C63,-97.1684 63,-86.9941 63,-79.5707"/>
<polygon fill="midnightblue" stroke="midnightblue" points="59.5001,-106.362 63,-116.362 66.5001,-106.362 59.5001,-106.362"/>
</g>
</g>
</svg>
