<?xml version="1.0" encoding="UTF-8" standalone="no"?>
<!DOCTYPE svg PUBLIC "-//W3C//DTD SVG 1.1//EN"
 "http://www.w3.org/Graphics/SVG/1.1/DTD/svg11.dtd">
<!-- Generated by graphviz version 2.26.3 (20100126.1600)
 -->
<!-- Title: Urho3D::Input Pages: 1 -->
<!--zoomable 1152 -->
<svg id="main" version="1.1" xmlns="http://www.w3.org/2000/svg" xmlns:xlink="http://www.w3.org/1999/xlink" xml:space="preserve" onload="init(evt)">
        <defs>
                <circle id="rim" cx="0" cy="0" r="7"/>
                <circle id="rim2" cx="0" cy="0" r="3.5"/>
                <g id="zoomPlus">
                        <use xlink:href="#rim" fill="#404040">
                                <set attributeName="fill" to="#808080" begin="zoomplus.mouseover" end="zoomplus.mouseout"/>
                        </use>
                        <path d="M-4,0h8M0,-4v8" fill="none" stroke="white" stroke-width="1.5" pointer-events="none"/>
                </g>
                <g id="zoomMin">
                        <use xlink:href="#rim" fill="#404040">
                                <set attributeName="fill" to="#808080" begin="zoomminus.mouseover" end="zoomminus.mouseout"/>
                        </use>
                        <path d="M-4,0h8" fill="none" stroke="white" stroke-width="1.5" pointer-events="none"/>
                </g>
                <g id="dirArrow">
                        <path fill="none" stroke="white" stroke-width="1.5" d="M0,-3.0v7 M-2.5,-0.5L0,-3.0L2.5,-0.5"/>
                </g>
               <g id="resetDef">
                       <use xlink:href="#rim2" fill="#404040">
                               <set attributeName="fill" to="#808080" begin="reset.mouseover" end="reset.mouseout"/>
                       </use>
               </g>
        </defs>

<script type="text/javascript">
var viewWidth = 1322;
var viewHeight = 1152;
var sectionId = 'dynsection-1';
</script>
<script xlink:href="svgpan.js"/>
<svg id="graph" class="graph">
<g id="viewport">
<title>Urho3D::Input</title>
<!-- Node1 -->
<g id="node1" class="node"><title>Node1</title>
<polygon fill="#bfbfbf" stroke="black" points="1223.5,-833.097 1223.5,-854.097 1306.5,-854.097 1306.5,-833.097 1223.5,-833.097"/>
<text text-anchor="middle" x="1265" y="-841.097" font-family="FreeSans" font-size="10.00">Urho3D::Input</text>
</g>
<!-- Node2 -->
<g id="node2" class="node"><title>Node2</title>
<a xlink:href="class_urho3_d_1_1_object.html" target="_top" xlink:title="Base class for objects with type identification, subsystem access and event sending/receiving capabil...">
<polygon fill="none" stroke="black" points="349,-200.097 349,-221.097 439,-221.097 439,-200.097 349,-200.097"/>
<text text-anchor="middle" x="394" y="-208.097" font-family="FreeSans" font-size="10.00">Urho3D::Object</text>
</a>
</g>
<!-- Node2&#45;&gt;Node1 -->
<g id="edge2" class="edge"><title>Node2&#45;&gt;Node1</title>
<path fill="none" stroke="midnightblue" d="M401.468,-230.887C430.457,-307.205 542.602,-580.759 716,-739.597 770.238,-789.281 787.581,-803.352 858,-824.597 986.671,-863.418 1148.54,-855.08 1223.45,-848.201"/>
<polygon fill="midnightblue" stroke="midnightblue" points="404.721,-229.593 397.931,-221.46 398.167,-232.052 404.721,-229.593"/>
</g>
<!-- Node7 -->
<g id="node13" class="node"><title>Node7</title>
<a xlink:href="class_urho3_d_1_1_event_handler.html" target="_top" xlink:title="Internal helper class for invoking event handler functions.">
<polygon fill="none" stroke="red" points="574,-112.097 574,-133.097 698,-133.097 698,-112.097 574,-112.097"/>
<text text-anchor="middle" x="636" y="-120.097" font-family="FreeSans" font-size="10.00">Urho3D::EventHandler</text>
</a>
</g>
<!-- Node2&#45;&gt;Node7 -->
<g id="edge16" class="edge"><title>Node2&#45;&gt;Node7</title>
<path fill="none" stroke="#9a32cd" stroke-dasharray="5,2" d="M404.759,-191.288C416.829,-171.773 438.386,-142.687 466,-129.597 499.231,-113.845 540.348,-111.759 573.82,-113.772"/>
<polygon fill="#9a32cd" stroke="#9a32cd" points="401.692,-189.598 399.611,-199.987 407.716,-193.163 401.692,-189.598"/>
<text text-anchor="middle" x="511" y="-146.597" font-family="FreeSans" font-size="10.00"> sender_</text>
<text text-anchor="middle" x="511" y="-133.597" font-family="FreeSans" font-size="10.00">receiver_</text>
</g>
<!-- Node18 -->
<g id="node42" class="node"><title>Node18</title>
<a xlink:href="class_urho3_d_1_1_graphics.html" target="_top" xlink:title="Graphics subsystem. Manages the application window, rendering state and GPU resources.">
<polygon fill="none" stroke="red" points="585.5,-916.097 585.5,-937.097 686.5,-937.097 686.5,-916.097 585.5,-916.097"/>
<text text-anchor="middle" x="636" y="-924.097" font-family="FreeSans" font-size="10.00">Urho3D::Graphics</text>
</a>
</g>
<!-- Node2&#45;&gt;Node18 -->
<g id="edge52" class="edge"><title>Node2&#45;&gt;Node18</title>
<path fill="none" stroke="midnightblue" d="M395.055,-231.334C400.563,-336.337 427.245,-806.409 466,-857.597 482.439,-879.31 552.767,-902.803 597.658,-916.009"/>
<polygon fill="midnightblue" stroke="midnightblue" points="398.538,-230.911 394.526,-221.105 391.547,-231.273 398.538,-230.911"/>
</g>
<!-- Node3 -->
<g id="node4" class="node"><title>Node3</title>
<a xlink:href="class_urho3_d_1_1_ref_counted.html" target="_top" xlink:title="Base class for intrusively reference&#45;counted objects. These are noncopyable and non&#45;assignable.">
<polygon fill="none" stroke="black" points="188,-200.097 188,-221.097 302,-221.097 302,-200.097 188,-200.097"/>
<text text-anchor="middle" x="245" y="-208.097" font-family="FreeSans" font-size="10.00">Urho3D::RefCounted</text>
</a>
</g>
<!-- Node3&#45;&gt;Node2 -->
<g id="edge4" class="edge"><title>Node3&#45;&gt;Node2</title>
<path fill="none" stroke="midnightblue" d="M312.427,-210.597C324.733,-210.597 337.298,-210.597 348.764,-210.597"/>
<polygon fill="midnightblue" stroke="midnightblue" points="312.181,-207.098 302.181,-210.597 312.181,-214.098 312.181,-207.098"/>
</g>
<!-- Node5 -->
<g id="node8" class="node"><title>Node5</title>
<a xlink:href="class_urho3_d_1_1_context.html" target="_top" xlink:title="Urho3D execution context. Provides access to subsystems, object factories and attributes, and event receivers.">
<polygon fill="none" stroke="red" points="1216.5,-277.097 1216.5,-298.097 1313.5,-298.097 1313.5,-277.097 1216.5,-277.097"/>
<text text-anchor="middle" x="1265" y="-285.097" font-family="FreeSans" font-size="10.00">Urho3D::Context</text>
</a>
</g>
<!-- Node3&#45;&gt;Node5 -->
<g id="edge10" class="edge"><title>Node3&#45;&gt;Node5</title>
<path fill="none" stroke="midnightblue" d="M253.568,-190.81C272.516,-150.49 322.07,-62.5974 394,-62.5974 394,-62.5974 394,-62.5974 961,-62.5974 1069.23,-62.5974 1116.11,-47.8262 1198,-118.597 1247.91,-161.73 1260.98,-247.077 1264.1,-276.961"/>
<polygon fill="midnightblue" stroke="midnightblue" points="250.364,-189.401 249.415,-199.954 256.737,-192.296 250.364,-189.401"/>
</g>
<!-- Node4 -->
<g id="node6" class="node"><title>Node4</title>
<a xlink:href="struct_urho3_d_1_1_ref_count.html" target="_top" xlink:title="Reference count structure.">
<polygon fill="none" stroke="black" points="0,-855.097 0,-876.097 102,-876.097 102,-855.097 0,-855.097"/>
<text text-anchor="middle" x="51" y="-863.097" font-family="FreeSans" font-size="10.00">Urho3D::RefCount</text>
</a>
</g>
<!-- Node4&#45;&gt;Node3 -->
<g id="edge6" class="edge"><title>Node4&#45;&gt;Node3</title>
<path fill="none" stroke="#9a32cd" stroke-dasharray="5,2" d="M56.9719,-845.435C86.8483,-744.563 219.539,-296.561 241.82,-221.334"/>
<polygon fill="#9a32cd" stroke="#9a32cd" points="53.6099,-844.461 54.1259,-855.044 60.3217,-846.449 53.6099,-844.461"/>
<text text-anchor="middle" x="145" y="-620.597" font-family="FreeSans" font-size="10.00"> refCount_</text>
</g>
<!-- Node17 -->
<g id="node40" class="node"><title>Node17</title>
<a xlink:href="class_urho3_d_1_1_weak_ptr.html" target="_top" xlink:title="Urho3D::WeakPtr\&lt; Urho3D\l::Graphics \&gt;">
<polygon fill="none" stroke="black" points="888,-909.597 888,-943.597 1034,-943.597 1034,-909.597 888,-909.597"/>
<text text-anchor="start" x="896" y="-930.597" font-family="FreeSans" font-size="10.00">Urho3D::WeakPtr&lt; Urho3D</text>
<text text-anchor="middle" x="961" y="-917.597" font-family="FreeSans" font-size="10.00">::Graphics &gt;</text>
</a>
</g>
<!-- Node4&#45;&gt;Node17 -->
<g id="edge62" class="edge"><title>Node4&#45;&gt;Node17</title>
<path fill="none" stroke="#9a32cd" stroke-dasharray="5,2" d="M57.2246,-885.808C75.7934,-941.59 136.361,-1093.6 245,-1093.6 245,-1093.6 245,-1093.6 511,-1093.6 596.519,-1093.6 834.174,-986.247 925.04,-943.685"/>
<polygon fill="#9a32cd" stroke="#9a32cd" points="60.5553,-884.733 54.1561,-876.289 53.8928,-886.88 60.5553,-884.733"/>
<text text-anchor="middle" x="394" y="-1097.6" font-family="FreeSans" font-size="10.00"> refCount_</text>
</g>
<!-- Node5&#45;&gt;Node2 -->
<g id="edge8" class="edge"><title>Node5&#45;&gt;Node2</title>
<path fill="none" stroke="#9a32cd" stroke-dasharray="5,2" d="M1232.52,-273.108C1193.45,-256.551 1125.44,-230.47 1064,-220.597 831.411,-183.222 547.562,-198.719 439.08,-206.828"/>
<polygon fill="#9a32cd" stroke="#9a32cd" points="1231.23,-276.367 1241.8,-277.097 1234,-269.935 1231.23,-276.367"/>
<text text-anchor="middle" x="778" y="-203.597" font-family="FreeSans" font-size="10.00"> context_</text>
</g>
<!-- Node6 -->
<g id="node11" class="node"><title>Node6</title>
<a xlink:href="class_urho3_d_1_1_p_o_d_vector.html" target="_top" xlink:title="Urho3D::PODVector\&lt;\l Urho3D::Object * \&gt;">
<polygon fill="none" stroke="red" points="901.5,-571.597 901.5,-605.597 1020.5,-605.597 1020.5,-571.597 901.5,-571.597"/>
<text text-anchor="start" x="909.5" y="-592.597" font-family="FreeSans" font-size="10.00">Urho3D::PODVector&lt;</text>
<text text-anchor="middle" x="961" y="-579.597" font-family="FreeSans" font-size="10.00"> Urho3D::Object * &gt;</text>
</a>
</g>
<!-- Node6&#45;&gt;Node5 -->
<g id="edge12" class="edge"><title>Node6&#45;&gt;Node5</title>
<path fill="none" stroke="#9a32cd" stroke-dasharray="5,2" d="M1030.65,-586.472C1083.54,-581.108 1154.38,-565.265 1198,-520.597 1230.35,-487.472 1256.58,-339.205 1263.32,-298.159"/>
<polygon fill="#9a32cd" stroke="#9a32cd" points="1030.3,-582.989 1020.66,-587.383 1030.93,-589.96 1030.3,-582.989"/>
<text text-anchor="middle" x="1140" y="-581.597" font-family="FreeSans" font-size="10.00"> eventSenders_</text>
</g>
<!-- Node7&#45;&gt;Node5 -->
<g id="edge14" class="edge"><title>Node7&#45;&gt;Node5</title>
<path fill="none" stroke="#9a32cd" stroke-dasharray="5,2" d="M707.984,-110.945C794.059,-99.4701 941.821,-87.6077 1064,-117.597 1129.25,-133.615 1147.97,-142.742 1198,-187.597 1227.87,-214.383 1250.62,-257.24 1260.13,-276.995"/>
<polygon fill="#9a32cd" stroke="#9a32cd" points="707.489,-107.48 698.056,-112.304 708.438,-114.416 707.489,-107.48"/>
<text text-anchor="middle" x="961" y="-121.597" font-family="FreeSans" font-size="10.00"> eventHandler_</text>
</g>
<!-- Node15 -->
<g id="node34" class="node"><title>Node15</title>
<a xlink:href="class_urho3_d_1_1_linked_list.html" target="_top" xlink:title="Urho3D::LinkedList\l\&lt; Urho3D::EventHandler \&gt;">
<polygon fill="none" stroke="black" points="888,-139.597 888,-173.597 1034,-173.597 1034,-139.597 888,-139.597"/>
<text text-anchor="start" x="896" y="-160.597" font-family="FreeSans" font-size="10.00">Urho3D::LinkedList</text>
<text text-anchor="middle" x="961" y="-147.597" font-family="FreeSans" font-size="10.00">&lt; Urho3D::EventHandler &gt;</text>
</a>
</g>
<!-- Node7&#45;&gt;Node15 -->
<g id="edge42" class="edge"><title>Node7&#45;&gt;Node15</title>
<path fill="none" stroke="#9a32cd" stroke-dasharray="5,2" d="M708.288,-129.375C747.312,-133.111 796.311,-137.929 840,-142.597 855.455,-144.249 872.01,-146.106 887.759,-147.915"/>
<polygon fill="#9a32cd" stroke="#9a32cd" points="708.363,-125.866 698.076,-128.399 707.698,-132.834 708.363,-125.866"/>
<text text-anchor="middle" x="778" y="-146.597" font-family="FreeSans" font-size="10.00"> head_</text>
</g>
<!-- Node8 -->
<g id="node16" class="node"><title>Node8</title>
<a xlink:href="class_urho3_d_1_1_hash_map.html" target="_top" xlink:title="Urho3D::HashMap\&lt; Urho3D\l::StringHash, Urho3D::\lHashSet\&lt; Urho3D::Object * \&gt; \&gt;">
<polygon fill="none" stroke="black" points="874.5,-362.097 874.5,-409.097 1047.5,-409.097 1047.5,-362.097 874.5,-362.097"/>
<text text-anchor="start" x="882.5" y="-396.097" font-family="FreeSans" font-size="10.00">Urho3D::HashMap&lt; Urho3D</text>
<text text-anchor="start" x="882.5" y="-383.097" font-family="FreeSans" font-size="10.00">::StringHash, Urho3D::</text>
<text text-anchor="middle" x="961" y="-370.097" font-family="FreeSans" font-size="10.00">HashSet&lt; Urho3D::Object * &gt; &gt;</text>
</a>
</g>
<!-- Node8&#45;&gt;Node5 -->
<g id="edge18" class="edge"><title>Node8&#45;&gt;Node5</title>
<path fill="none" stroke="#9a32cd" stroke-dasharray="5,2" d="M1057.34,-365.87C1101.04,-355.538 1152.92,-341.314 1198,-323.597 1215.7,-316.642 1234.68,-306.121 1247.91,-298.246"/>
<polygon fill="#9a32cd" stroke="#9a32cd" points="1056.52,-362.469 1047.57,-368.148 1058.11,-369.286 1056.52,-362.469"/>
<text text-anchor="middle" x="1140" y="-363.597" font-family="FreeSans" font-size="10.00"> eventReceivers_</text>
</g>
<!-- Node9 -->
<g id="node18" class="node"><title>Node9</title>
<a xlink:href="class_urho3_d_1_1_hash_base.html" target="_top" xlink:title="Hash set/map base class.">
<polygon fill="none" stroke="red" points="582,-513.097 582,-534.097 690,-534.097 690,-513.097 582,-513.097"/>
<text text-anchor="middle" x="636" y="-521.097" font-family="FreeSans" font-size="10.00">Urho3D::HashBase</text>
</a>
</g>
<!-- Node9&#45;&gt;Node8 -->
<g id="edge20" class="edge"><title>Node9&#45;&gt;Node8</title>
<path fill="none" stroke="midnightblue" d="M660.327,-507.621C675.895,-497.747 696.72,-485.175 716,-475.597 770.278,-448.633 834.717,-425.277 883.882,-409.12"/>
<polygon fill="midnightblue" stroke="midnightblue" points="658.345,-504.734 651.819,-513.081 662.125,-510.626 658.345,-504.734"/>
</g>
<!-- Node10 -->
<g id="node20" class="node"><title>Node10</title>
<a xlink:href="class_urho3_d_1_1_hash_map.html" target="_top" xlink:title="Urho3D::HashMap\&lt; Urho3D\l::Object *, Urho3D::HashMap\l\&lt; Urho3D::StringHash, Urho3D\l::HashSet\&lt; Urho3D::Object * \&gt; \&gt; \&gt;">
<polygon fill="none" stroke="black" points="865.5,-493.597 865.5,-553.597 1056.5,-553.597 1056.5,-493.597 865.5,-493.597"/>
<text text-anchor="start" x="873.5" y="-540.597" font-family="FreeSans" font-size="10.00">Urho3D::HashMap&lt; Urho3D</text>
<text text-anchor="start" x="873.5" y="-527.597" font-family="FreeSans" font-size="10.00">::Object *, Urho3D::HashMap</text>
<text text-anchor="start" x="873.5" y="-514.597" font-family="FreeSans" font-size="10.00">&lt; Urho3D::StringHash, Urho3D</text>
<text text-anchor="middle" x="961" y="-501.597" font-family="FreeSans" font-size="10.00">::HashSet&lt; Urho3D::Object * &gt; &gt; &gt;</text>
</a>
</g>
<!-- Node9&#45;&gt;Node10 -->
<g id="edge24" class="edge"><title>Node9&#45;&gt;Node10</title>
<path fill="none" stroke="midnightblue" d="M700.114,-523.597C747.267,-523.597 812.144,-523.597 865.405,-523.597"/>
<polygon fill="midnightblue" stroke="midnightblue" points="700.032,-520.098 690.032,-523.597 700.032,-527.098 700.032,-520.098"/>
</g>
<!-- Node11 -->
<g id="node23" class="node"><title>Node11</title>
<a xlink:href="class_urho3_d_1_1_hash_map.html" target="_top" xlink:title="Urho3D::HashMap\&lt; Urho3D\l::StringHash, Urho3D::\lSharedPtr\&lt; Urho3D::Object \&gt; \&gt;">
<polygon fill="none" stroke="black" points="875,-428.097 875,-475.097 1047,-475.097 1047,-428.097 875,-428.097"/>
<text text-anchor="start" x="883" y="-462.097" font-family="FreeSans" font-size="10.00">Urho3D::HashMap&lt; Urho3D</text>
<text text-anchor="start" x="883" y="-449.097" font-family="FreeSans" font-size="10.00">::StringHash, Urho3D::</text>
<text text-anchor="middle" x="961" y="-436.097" font-family="FreeSans" font-size="10.00">SharedPtr&lt; Urho3D::Object &gt; &gt;</text>
</a>
</g>
<!-- Node9&#45;&gt;Node11 -->
<g id="edge28" class="edge"><title>Node9&#45;&gt;Node11</title>
<path fill="none" stroke="midnightblue" d="M693.646,-510.827C743.897,-499.694 817.495,-483.389 874.756,-470.704"/>
<polygon fill="midnightblue" stroke="midnightblue" points="692.612,-507.471 683.606,-513.051 694.126,-514.305 692.612,-507.471"/>
</g>
<!-- Node13 -->
<g id="node28" class="node"><title>Node13</title>
<a xlink:href="class_urho3_d_1_1_hash_map.html" target="_top" xlink:title="Urho3D::HashMap\&lt; Urho3D\l::StringHash, Urho3D::\lSharedPtr\&lt; Urho3D::ObjectFactory \&gt; \&gt;">
<polygon fill="none" stroke="black" points="858,-230.097 858,-277.097 1064,-277.097 1064,-230.097 858,-230.097"/>
<text text-anchor="start" x="866" y="-264.097" font-family="FreeSans" font-size="10.00">Urho3D::HashMap&lt; Urho3D</text>
<text text-anchor="start" x="866" y="-251.097" font-family="FreeSans" font-size="10.00">::StringHash, Urho3D::</text>
<text text-anchor="middle" x="961" y="-238.097" font-family="FreeSans" font-size="10.00">SharedPtr&lt; Urho3D::ObjectFactory &gt; &gt;</text>
</a>
</g>
<!-- Node9&#45;&gt;Node13 -->
<g id="edge34" class="edge"><title>Node9&#45;&gt;Node13</title>
<path fill="none" stroke="midnightblue" d="M640.807,-502.995C649.907,-468.09 672.732,-396.909 716,-353.597 754.395,-315.164 809.593,-290.9 857.88,-275.915"/>
<polygon fill="midnightblue" stroke="midnightblue" points="637.342,-502.422 638.326,-512.971 644.135,-504.112 637.342,-502.422"/>
</g>
<!-- Node14 -->
<g id="node31" class="node"><title>Node14</title>
<a xlink:href="class_urho3_d_1_1_hash_map.html" target="_top" xlink:title="Urho3D::HashMap\&lt; Urho3D\l::String, Urho3D::Vector\l\&lt; Urho3D::StringHash \&gt; \&gt;">
<polygon fill="none" stroke="black" points="885,-296.097 885,-343.097 1037,-343.097 1037,-296.097 885,-296.097"/>
<text text-anchor="start" x="893" y="-330.097" font-family="FreeSans" font-size="10.00">Urho3D::HashMap&lt; Urho3D</text>
<text text-anchor="start" x="893" y="-317.097" font-family="FreeSans" font-size="10.00">::String, Urho3D::Vector</text>
<text text-anchor="middle" x="961" y="-304.097" font-family="FreeSans" font-size="10.00">&lt; Urho3D::StringHash &gt; &gt;</text>
</a>
</g>
<!-- Node9&#45;&gt;Node14 -->
<g id="edge38" class="edge"><title>Node9&#45;&gt;Node14</title>
<path fill="none" stroke="midnightblue" d="M647.497,-504.37C661.449,-482.329 686.766,-446.211 716,-422.597 765.713,-382.442 833.346,-355.588 884.958,-339.396"/>
<polygon fill="midnightblue" stroke="midnightblue" points="644.519,-502.53 642.236,-512.876 650.473,-506.213 644.519,-502.53"/>
</g>
<!-- Node16 -->
<g id="node37" class="node"><title>Node16</title>
<a xlink:href="class_urho3_d_1_1_hash_set.html" target="_top" xlink:title="Urho3D::HashSet\&lt; int \&gt;">
<polygon fill="none" stroke="black" points="893.5,-624.097 893.5,-645.097 1028.5,-645.097 1028.5,-624.097 893.5,-624.097"/>
<text text-anchor="middle" x="961" y="-632.097" font-family="FreeSans" font-size="10.00">Urho3D::HashSet&lt; int &gt;</text>
</a>
</g>
<!-- Node9&#45;&gt;Node16 -->
<g id="edge46" class="edge"><title>Node9&#45;&gt;Node16</title>
<path fill="none" stroke="midnightblue" d="M666.717,-538.462C708.929,-558.358 787.651,-593.573 858,-614.597 870.217,-618.249 883.454,-621.398 896.24,-624.048"/>
<polygon fill="midnightblue" stroke="midnightblue" points="668.073,-535.232 657.538,-534.105 665.072,-541.555 668.073,-535.232"/>
</g>
<!-- Node21 -->
<g id="node52" class="node"><title>Node21</title>
<a xlink:href="class_urho3_d_1_1_hash_map.html" target="_top" xlink:title="Urho3D::HashMap\&lt; int,\l int \&gt;">
<polygon fill="none" stroke="black" points="895.5,-781.597 895.5,-815.597 1026.5,-815.597 1026.5,-781.597 895.5,-781.597"/>
<text text-anchor="start" x="903.5" y="-802.597" font-family="FreeSans" font-size="10.00">Urho3D::HashMap&lt; int,</text>
<text text-anchor="middle" x="961" y="-789.597" font-family="FreeSans" font-size="10.00"> int &gt;</text>
</a>
</g>
<!-- Node9&#45;&gt;Node21 -->
<g id="edge66" class="edge"><title>Node9&#45;&gt;Node21</title>
<path fill="none" stroke="midnightblue" d="M641.889,-544.439C652.218,-577.947 676.352,-644.404 716,-687.597 765.739,-741.784 790.063,-744.407 858,-772.597 869.754,-777.475 882.654,-781.612 895.229,-785.053"/>
<polygon fill="midnightblue" stroke="midnightblue" points="645.116,-543.009 638.913,-534.42 638.405,-545.003 645.116,-543.009"/>
</g>
<!-- Node22 -->
<g id="node55" class="node"><title>Node22</title>
<a xlink:href="class_urho3_d_1_1_hash_map.html" target="_top" xlink:title="Urho3D::HashMap\&lt; SDL\l_JoystickID, Urho3D::\lJoystickState \&gt;">
<polygon fill="none" stroke="black" points="893.5,-716.097 893.5,-763.097 1028.5,-763.097 1028.5,-716.097 893.5,-716.097"/>
<text text-anchor="start" x="901.5" y="-750.097" font-family="FreeSans" font-size="10.00">Urho3D::HashMap&lt; SDL</text>
<text text-anchor="start" x="901.5" y="-737.097" font-family="FreeSans" font-size="10.00">_JoystickID, Urho3D::</text>
<text text-anchor="middle" x="961" y="-724.097" font-family="FreeSans" font-size="10.00">JoystickState &gt;</text>
</a>
</g>
<!-- Node9&#45;&gt;Node22 -->
<g id="edge70" class="edge"><title>Node9&#45;&gt;Node22</title>
<path fill="none" stroke="midnightblue" d="M645.331,-543.437C658.142,-568.855 683.353,-612.928 716,-640.597 767.358,-684.126 840.344,-710.282 893.284,-724.679"/>
<polygon fill="midnightblue" stroke="midnightblue" points="648.438,-541.823 640.896,-534.382 642.152,-544.902 648.438,-541.823"/>
</g>
<!-- Node25 -->
<g id="node62" class="node"><title>Node25</title>
<a xlink:href="class_urho3_d_1_1_hash_map.html" target="_top" xlink:title="Urho3D::HashMap\&lt; int,\l Urho3D::TouchState \&gt;">
<polygon fill="none" stroke="black" points="895.5,-663.597 895.5,-697.597 1026.5,-697.597 1026.5,-663.597 895.5,-663.597"/>
<text text-anchor="start" x="903.5" y="-684.597" font-family="FreeSans" font-size="10.00">Urho3D::HashMap&lt; int,</text>
<text text-anchor="middle" x="961" y="-671.597" font-family="FreeSans" font-size="10.00"> Urho3D::TouchState &gt;</text>
</a>
</g>
<!-- Node9&#45;&gt;Node25 -->
<g id="edge78" class="edge"><title>Node9&#45;&gt;Node25</title>
<path fill="none" stroke="midnightblue" d="M651.41,-541.875C666.443,-558.753 690.688,-583.564 716,-599.597 771.443,-634.718 843.665,-656.168 895.304,-668.093"/>
<polygon fill="midnightblue" stroke="midnightblue" points="654.016,-539.538 644.806,-534.3 648.739,-544.138 654.016,-539.538"/>
</g>
<!-- Node10&#45;&gt;Node5 -->
<g id="edge22" class="edge"><title>Node10&#45;&gt;Node5</title>
<path fill="none" stroke="#9a32cd" stroke-dasharray="5,2" d="M1066.54,-508.264C1111.59,-497.081 1161.97,-477.799 1198,-444.597 1242.89,-403.226 1258.92,-326.776 1263.47,-298.491"/>
<polygon fill="#9a32cd" stroke="#9a32cd" points="1065.64,-504.881 1056.72,-510.597 1067.26,-511.692 1065.64,-504.881"/>
<text text-anchor="middle" x="1140" y="-507.597" font-family="FreeSans" font-size="10.00"> specificEventReceivers_</text>
</g>
<!-- Node11&#45;&gt;Node5 -->
<g id="edge26" class="edge"><title>Node11&#45;&gt;Node5</title>
<path fill="none" stroke="#9a32cd" stroke-dasharray="5,2" d="M1057.02,-435.386C1102.76,-424.28 1156.4,-406.042 1198,-376.597 1227.83,-355.478 1250.14,-317.033 1259.77,-298.355"/>
<polygon fill="#9a32cd" stroke="#9a32cd" points="1056.03,-432.024 1047.09,-437.717 1057.63,-438.839 1056.03,-432.024"/>
<text text-anchor="middle" x="1140" y="-431.597" font-family="FreeSans" font-size="10.00"> subsystems_</text>
</g>
<!-- Node12 -->
<g id="node26" class="node"><title>Node12</title>
<a xlink:href="class_urho3_d_1_1_p_o_d_vector.html" target="_top" xlink:title="Urho3D::PODVector\&lt;\l Urho3D::HashMap * \&gt;">
<polygon fill="none" stroke="red" points="897.5,-0.597417 897.5,-34.5974 1024.5,-34.5974 1024.5,-0.597417 897.5,-0.597417"/>
<text text-anchor="start" x="905.5" y="-21.5974" font-family="FreeSans" font-size="10.00">Urho3D::PODVector&lt;</text>
<text text-anchor="middle" x="961" y="-8.59742" font-family="FreeSans" font-size="10.00"> Urho3D::HashMap * &gt;</text>
</a>
</g>
<!-- Node12&#45;&gt;Node5 -->
<g id="edge30" class="edge"><title>Node12&#45;&gt;Node5</title>
<path fill="none" stroke="#9a32cd" stroke-dasharray="5,2" d="M1034.57,-2.70074C1086.03,3.26937 1153.3,1.55194 1198,-35.5974 1236.56,-67.6412 1258.55,-232.889 1263.78,-276.847"/>
<polygon fill="#9a32cd" stroke="#9a32cd" points="1033.98,0.751724 1024.5,-3.98904 1034.87,-6.19169 1033.98,0.751724"/>
<text text-anchor="middle" x="1140" y="-39.5974" font-family="FreeSans" font-size="10.00"> eventDataMaps_</text>
</g>
<!-- Node13&#45;&gt;Node5 -->
<g id="edge32" class="edge"><title>Node13&#45;&gt;Node5</title>
<path fill="none" stroke="#9a32cd" stroke-dasharray="5,2" d="M1074.15,-264.871C1113.39,-268.957 1157.66,-273.761 1198,-278.597 1203.94,-279.31 1210.18,-280.096 1216.35,-280.897"/>
<polygon fill="#9a32cd" stroke="#9a32cd" points="1074.33,-261.371 1064.02,-263.821 1073.61,-268.334 1074.33,-261.371"/>
<text text-anchor="middle" x="1140" y="-282.597" font-family="FreeSans" font-size="10.00"> factories_</text>
</g>
<!-- Node14&#45;&gt;Node5 -->
<g id="edge36" class="edge"><title>Node14&#45;&gt;Node5</title>
<path fill="none" stroke="#9a32cd" stroke-dasharray="5,2" d="M1047.36,-310.507C1102.07,-304.747 1170.83,-297.51 1216.25,-292.729"/>
<polygon fill="#9a32cd" stroke="#9a32cd" points="1046.9,-307.036 1037.32,-311.564 1047.63,-313.998 1046.9,-307.036"/>
<text text-anchor="middle" x="1140" y="-310.597" font-family="FreeSans" font-size="10.00"> objectCategories_</text>
</g>
<!-- Node15&#45;&gt;Node2 -->
<g id="edge40" class="edge"><title>Node15&#45;&gt;Node2</title>
<path fill="none" stroke="#9a32cd" stroke-dasharray="5,2" d="M877.407,-159.513C778.627,-163.842 609.545,-174.033 466,-196.597 457.32,-197.962 448.089,-199.608 439.233,-201.285"/>
<polygon fill="#9a32cd" stroke="#9a32cd" points="877.785,-163 887.626,-159.075 877.485,-156.006 877.785,-163"/>
<text text-anchor="middle" x="636" y="-186.597" font-family="FreeSans" font-size="10.00"> eventHandlers_</text>
</g>
<!-- Node16&#45;&gt;Node1 -->
<g id="edge44" class="edge"><title>Node16&#45;&gt;Node1</title>
<path fill="none" stroke="#9a32cd" stroke-dasharray="5,2" d="M1038.69,-627.584C1097.99,-623.91 1173.54,-623.384 1198,-641.597 1230.23,-665.594 1256.06,-794.626 1263.1,-832.894"/>
<polygon fill="#9a32cd" stroke="#9a32cd" points="1038.33,-624.1 1028.58,-628.25 1038.79,-631.085 1038.33,-624.1"/>
<text text-anchor="middle" x="1140" y="-684.597" font-family="FreeSans" font-size="10.00"> scancodePress_</text>
<text text-anchor="middle" x="1140" y="-671.597" font-family="FreeSans" font-size="10.00">scancodeDown_</text>
<text text-anchor="middle" x="1140" y="-658.597" font-family="FreeSans" font-size="10.00">keyPress_</text>
<text text-anchor="middle" x="1140" y="-645.597" font-family="FreeSans" font-size="10.00">keyDown_</text>
</g>
<!-- Node17&#45;&gt;Node1 -->
<g id="edge48" class="edge"><title>Node17&#45;&gt;Node1</title>
<path fill="none" stroke="#9a32cd" stroke-dasharray="5,2" d="M1044.16,-926.346C1090.93,-923.63 1149.47,-915.831 1198,-895.597 1220.83,-886.078 1242.55,-866.658 1254.79,-854.432"/>
<polygon fill="#9a32cd" stroke="#9a32cd" points="1043.88,-922.856 1034.07,-926.865 1044.24,-929.847 1043.88,-922.856"/>
<text text-anchor="middle" x="1140" y="-926.597" font-family="FreeSans" font-size="10.00"> graphics_</text>
</g>
<!-- Node18&#45;&gt;Node17 -->
<g id="edge50" class="edge"><title>Node18&#45;&gt;Node17</title>
<path fill="none" stroke="#9a32cd" stroke-dasharray="5,2" d="M696.929,-926.597C751.099,-926.597 830.407,-926.597 887.962,-926.597"/>
<polygon fill="#9a32cd" stroke="#9a32cd" points="696.781,-923.098 686.781,-926.597 696.781,-930.098 696.781,-923.098"/>
<text text-anchor="middle" x="778" y="-930.597" font-family="FreeSans" font-size="10.00"> ptr_</text>
</g>
<!-- Node19 -->
<g id="node45" class="node"><title>Node19</title>
<a xlink:href="class_urho3_d_1_1_string.html" target="_top" xlink:title="String class.">
<polygon fill="none" stroke="black" points="350,-887.097 350,-908.097 438,-908.097 438,-887.097 350,-887.097"/>
<text text-anchor="middle" x="394" y="-895.097" font-family="FreeSans" font-size="10.00">Urho3D::String</text>
</a>
</g>
<!-- Node19&#45;&gt;Node1 -->
<g id="edge80" class="edge"><title>Node19&#45;&gt;Node1</title>
<path fill="none" stroke="#9a32cd" stroke-dasharray="5,2" d="M448.327,-897.814C578.375,-897.699 917.62,-893.641 1198,-857.597 1206.25,-856.537 1215,-855.009 1223.35,-853.35"/>
<polygon fill="#9a32cd" stroke="#9a32cd" points="448.227,-894.314 438.227,-897.815 448.227,-901.314 448.227,-894.314"/>
<text text-anchor="middle" x="778" y="-896.597" font-family="FreeSans" font-size="10.00"> textInput_</text>
</g>
<!-- Node19&#45;&gt;Node18 -->
<g id="edge54" class="edge"><title>Node19&#45;&gt;Node18</title>
<path fill="none" stroke="#9a32cd" stroke-dasharray="5,2" d="M448.176,-904.09C489.124,-908.997 544.945,-915.686 585.075,-920.495"/>
<polygon fill="#9a32cd" stroke="#9a32cd" points="448.451,-900.598 438.105,-902.883 447.618,-907.548 448.451,-900.598"/>
<text text-anchor="middle" x="511" y="-984.597" font-family="FreeSans" font-size="10.00"> lastShaderName_</text>
<text text-anchor="middle" x="511" y="-971.597" font-family="FreeSans" font-size="10.00">windowTitle_</text>
<text text-anchor="middle" x="511" y="-958.597" font-family="FreeSans" font-size="10.00">apiName_</text>
<text text-anchor="middle" x="511" y="-945.597" font-family="FreeSans" font-size="10.00">shaderPath_</text>
<text text-anchor="middle" x="511" y="-932.597" font-family="FreeSans" font-size="10.00">orientations_</text>
<text text-anchor="middle" x="511" y="-919.597" font-family="FreeSans" font-size="10.00">shaderExtension_</text>
</g>
<!-- Node19&#45;&gt;Node19 -->
<g id="edge56" class="edge"><title>Node19&#45;&gt;Node19</title>
<path fill="none" stroke="#9a32cd" stroke-dasharray="5,2" d="M380.814,-918.391C381.978,-923.127 386.373,-926.597 394,-926.597 406.516,-926.597 410.329,-917.251 405.44,-908.305"/>
<polygon fill="#9a32cd" stroke="#9a32cd" points="384.303,-918.756 382.56,-908.305 377.406,-917.562 384.303,-918.756"/>
<text text-anchor="middle" x="394" y="-930.597" font-family="FreeSans" font-size="10.00"> EMPTY</text>
</g>
<!-- Node20 -->
<g id="node48" class="node"><title>Node20</title>
<a xlink:href="class_urho3_d_1_1_int_vector2.html" target="_top" xlink:title="Two&#45;dimensional vector with integer values.">
<polygon fill="none" stroke="black" points="340,-1005.1 340,-1026.1 448,-1026.1 448,-1005.1 340,-1005.1"/>
<text text-anchor="middle" x="394" y="-1013.1" font-family="FreeSans" font-size="10.00">Urho3D::IntVector2</text>
</a>
</g>
<!-- Node20&#45;&gt;Node1 -->
<g id="edge82" class="edge"><title>Node20&#45;&gt;Node1</title>
<path fill="none" stroke="#9a32cd" stroke-dasharray="5,2" d="M438.714,-1028.57C447.676,-1030.66 457.08,-1032.5 466,-1033.6 505.7,-1038.48 516.106,-1036.5 556,-1033.6 843.614,-1012.65 952.671,-1091.17 1198,-939.597 1231.54,-918.873 1252.72,-874.428 1261.02,-854.116"/>
<polygon fill="#9a32cd" stroke="#9a32cd" points="439.38,-1025.13 428.832,-1026.13 437.7,-1031.93 439.38,-1025.13"/>
<text text-anchor="middle" x="778" y="-1077.6" font-family="FreeSans" font-size="10.00"> mouseMove_</text>
<text text-anchor="start" x="716.5" y="-1064.6" font-family="FreeSans" font-size="10.00">lastMousePosition</text>
<text text-anchor="middle" x="778" y="-1051.6" font-family="FreeSans" font-size="10.00">_</text>
<text text-anchor="middle" x="778" y="-1038.6" font-family="FreeSans" font-size="10.00">lastVisibleMousePosition_</text>
</g>
<!-- Node20&#45;&gt;Node18 -->
<g id="edge58" class="edge"><title>Node20&#45;&gt;Node18</title>
<path fill="none" stroke="#9a32cd" stroke-dasharray="5,2" d="M458.464,-1017.34C489.154,-1015.98 525.682,-1011.07 556,-997.597 587.053,-983.794 614.59,-953.444 627.77,-937.258"/>
<polygon fill="#9a32cd" stroke="#9a32cd" points="458.177,-1013.85 448.297,-1017.68 458.406,-1020.85 458.177,-1013.85"/>
<text text-anchor="middle" x="511" y="-1020.6" font-family="FreeSans" font-size="10.00"> position_</text>
</g>
<!-- Node20&#45;&gt;Node20 -->
<g id="edge60" class="edge"><title>Node20&#45;&gt;Node20</title>
<path fill="none" stroke="#9a32cd" stroke-dasharray="5,2" d="M380.814,-1036.39C381.978,-1041.13 386.373,-1044.6 394,-1044.6 406.516,-1044.6 410.329,-1035.25 405.44,-1026.31"/>
<polygon fill="#9a32cd" stroke="#9a32cd" points="384.303,-1036.76 382.56,-1026.31 377.406,-1035.56 384.303,-1036.76"/>
<text text-anchor="middle" x="394" y="-1048.6" font-family="FreeSans" font-size="10.00"> ZERO</text>
</g>
<!-- Node21&#45;&gt;Node1 -->
<g id="edge64" class="edge"><title>Node21&#45;&gt;Node1</title>
<path fill="none" stroke="#9a32cd" stroke-dasharray="5,2" d="M1036.8,-798.462C1083.77,-799.822 1145.03,-804.226 1198,-816.597 1213.75,-820.277 1230.64,-827.104 1243.52,-832.972"/>
<polygon fill="#9a32cd" stroke="#9a32cd" points="1036.78,-794.96 1026.7,-798.209 1036.61,-801.958 1036.78,-794.96"/>
<text text-anchor="middle" x="1140" y="-820.597" font-family="FreeSans" font-size="10.00"> touchIDMap_</text>
</g>
<!-- Node22&#45;&gt;Node1 -->
<g id="edge68" class="edge"><title>Node22&#45;&gt;Node1</title>
<path fill="none" stroke="#9a32cd" stroke-dasharray="5,2" d="M1038.69,-743.374C1086.65,-748.232 1148.3,-759.162 1198,-783.597 1222.38,-795.585 1244.57,-818.995 1256.29,-832.763"/>
<polygon fill="#9a32cd" stroke="#9a32cd" points="1038.96,-739.884 1028.67,-742.427 1038.3,-746.853 1038.96,-739.884"/>
<text text-anchor="middle" x="1140" y="-787.597" font-family="FreeSans" font-size="10.00"> joysticks_</text>
</g>
<!-- Node23 -->
<g id="node58" class="node"><title>Node23</title>
<a xlink:href="class_urho3_d_1_1_list.html" target="_top" xlink:title="Urho3D::List\&lt; int \&gt;">
<polygon fill="none" stroke="black" points="906,-1103.1 906,-1124.1 1016,-1124.1 1016,-1103.1 906,-1103.1"/>
<text text-anchor="middle" x="961" y="-1111.1" font-family="FreeSans" font-size="10.00">Urho3D::List&lt; int &gt;</text>
</a>
</g>
<!-- Node23&#45;&gt;Node1 -->
<g id="edge72" class="edge"><title>Node23&#45;&gt;Node1</title>
<path fill="none" stroke="#9a32cd" stroke-dasharray="5,2" d="M1026.5,-1118.83C1079.15,-1119.36 1151.72,-1111.27 1198,-1069.6 1231.38,-1039.54 1256.77,-894.878 1263.34,-854.237"/>
<polygon fill="#9a32cd" stroke="#9a32cd" points="1026.32,-1115.33 1016.25,-1118.62 1026.17,-1122.33 1026.32,-1115.33"/>
<text text-anchor="middle" x="1140" y="-1118.6" font-family="FreeSans" font-size="10.00"> availableTouchIDs_</text>
</g>
<!-- Node24 -->
<g id="node60" class="node"><title>Node24</title>
<a xlink:href="class_urho3_d_1_1_list_base.html" target="_top" xlink:title="Doubly&#45;linked list base class.">
<polygon fill="none" stroke="red" points="586,-1122.1 586,-1143.1 686,-1143.1 686,-1122.1 586,-1122.1"/>
<text text-anchor="middle" x="636" y="-1130.1" font-family="FreeSans" font-size="10.00">Urho3D::ListBase</text>
</a>
</g>
<!-- Node24&#45;&gt;Node23 -->
<g id="edge74" class="edge"><title>Node24&#45;&gt;Node23</title>
<path fill="none" stroke="midnightblue" d="M696.167,-1129.08C756.243,-1125.57 847.784,-1120.22 905.98,-1116.81"/>
<polygon fill="midnightblue" stroke="midnightblue" points="695.848,-1125.59 686.069,-1129.67 696.256,-1132.58 695.848,-1125.59"/>
</g>
<!-- Node25&#45;&gt;Node1 -->
<g id="edge76" class="edge"><title>Node25&#45;&gt;Node1</title>
<path fill="none" stroke="#9a32cd" stroke-dasharray="5,2" d="M1036.8,-690.61C1096.02,-699.629 1172.43,-714.271 1198,-732.597 1234.23,-758.561 1254.49,-810.763 1261.82,-833.084"/>
<polygon fill="#9a32cd" stroke="#9a32cd" points="1037.12,-687.118 1026.71,-689.101 1036.08,-694.041 1037.12,-687.118"/>
<text text-anchor="middle" x="1140" y="-736.597" font-family="FreeSans" font-size="10.00"> touches_</text>
</g>
</g>
</svg>
        <g id="navigator" transform="translate(0 0)" fill="#404254">
                <rect fill="#f2f5e9" fill-opacity="0.5" stroke="#606060" stroke-width=".5" x="0" y="0" width="60" height="60"/>
                <use id="zoomplus" xlink:href="#zoomPlus" x="17" y="9" onmousedown="handleZoom(evt,'in')"/>
                <use id="zoomminus" xlink:href="#zoomMin" x="42" y="9" onmousedown="handleZoom(evt,'out')"/>
                <use id="reset" xlink:href="#resetDef" x="30" y="36" onmousedown="handleReset()"/>
                <g id="arrowUp" xlink:href="#dirArrow" transform="translate(30 24)" onmousedown="handlePan(0,-1)">
                  <use xlink:href="#rim" fill="#404040">
                        <set attributeName="fill" to="#808080" begin="arrowUp.mouseover" end="arrowUp.mouseout"/>
                  </use>
                  <path fill="none" stroke="white" stroke-width="1.5" d="M0,-3.0v7 M-2.5,-0.5L0,-3.0L2.5,-0.5"/>
                </g>
                <g id="arrowRight" xlink:href="#dirArrow" transform="rotate(90) translate(36 -43)" onmousedown="handlePan(1,0)">
                  <use xlink:href="#rim" fill="#404040">
                        <set attributeName="fill" to="#808080" begin="arrowRight.mouseover" end="arrowRight.mouseout"/>
                  </use>
                  <path fill="none" stroke="white" stroke-width="1.5" d="M0,-3.0v7 M-2.5,-0.5L0,-3.0L2.5,-0.5"/>
                </g>
                <g id="arrowDown" xlink:href="#dirArrow" transform="rotate(180) translate(-30 -48)" onmousedown="handlePan(0,1)">
                  <use xlink:href="#rim" fill="#404040">
                        <set attributeName="fill" to="#808080" begin="arrowDown.mouseover" end="arrowDown.mouseout"/>
                  </use>
                  <path fill="none" stroke="white" stroke-width="1.5" d="M0,-3.0v7 M-2.5,-0.5L0,-3.0L2.5,-0.5"/>
                </g>
                <g id="arrowLeft" xlink:href="#dirArrow" transform="rotate(270) translate(-36 17)" onmousedown="handlePan(-1,0)">
                  <use xlink:href="#rim" fill="#404040">
                        <set attributeName="fill" to="#808080" begin="arrowLeft.mouseover" end="arrowLeft.mouseout"/>
                  </use>
                  <path fill="none" stroke="white" stroke-width="1.5" d="M0,-3.0v7 M-2.5,-0.5L0,-3.0L2.5,-0.5"/>
                </g>
        </g>
        <svg viewBox="0 0 15 15" width="100%" height="30px" preserveAspectRatio="xMaxYMin meet">
         <g id="arrow_out" transform="scale(0.3 0.3)">
          <a xlink:href="class_urho3_d_1_1_input__coll__graph_org.svg" target="_base">
           <rect id="button" ry="5" rx="5" y="6" x="6" height="38" width="38"
                fill="#f2f5e9" fill-opacity="0.5" stroke="#606060" stroke-width="1.0"/>
           <path id="arrow"
             d="M 11.500037,31.436501 C 11.940474,20.09759 22.043105,11.32322 32.158766,21.979434 L 37.068811,17.246167 C 37.068811,17.246167 37.088388,32 37.088388,32 L 22.160133,31.978069 C 22.160133,31.978069 26.997745,27.140456 26.997745,27.140456 C 18.528582,18.264221 13.291696,25.230495 11.500037,31.436501 z"
             style="fill:#404040;"/>
          </a>
         </g>
        </svg>
</svg>
