<?xml version="1.0" encoding="UTF-8" standalone="no"?>
<!DOCTYPE svg PUBLIC "-//W3C//DTD SVG 1.1//EN"
 "http://www.w3.org/Graphics/SVG/1.1/DTD/svg11.dtd">
<!-- Generated by graphviz version 2.26.3 (20100126.1600)
 -->
<!-- Title: Urho3D::AnimationSet2D Pages: 1 -->
<!--zoomable 680 -->
<svg id="main" version="1.1" xmlns="http://www.w3.org/2000/svg" xmlns:xlink="http://www.w3.org/1999/xlink" xml:space="preserve" onload="init(evt)">
        <defs>
                <circle id="rim" cx="0" cy="0" r="7"/>
                <circle id="rim2" cx="0" cy="0" r="3.5"/>
                <g id="zoomPlus">
                        <use xlink:href="#rim" fill="#404040">
                                <set attributeName="fill" to="#808080" begin="zoomplus.mouseover" end="zoomplus.mouseout"/>
                        </use>
                        <path d="M-4,0h8M0,-4v8" fill="none" stroke="white" stroke-width="1.5" pointer-events="none"/>
                </g>
                <g id="zoomMin">
                        <use xlink:href="#rim" fill="#404040">
                                <set attributeName="fill" to="#808080" begin="zoomminus.mouseover" end="zoomminus.mouseout"/>
                        </use>
                        <path d="M-4,0h8" fill="none" stroke="white" stroke-width="1.5" pointer-events="none"/>
                </g>
                <g id="dirArrow">
                        <path fill="none" stroke="white" stroke-width="1.5" d="M0,-3.0v7 M-2.5,-0.5L0,-3.0L2.5,-0.5"/>
                </g>
               <g id="resetDef">
                       <use xlink:href="#rim2" fill="#404040">
                               <set attributeName="fill" to="#808080" begin="reset.mouseover" end="reset.mouseout"/>
                       </use>
               </g>
        </defs>

<script type="text/javascript">
var viewWidth = 1878;
var viewHeight = 680;
var sectionId = 'dynsection-1';
</script>
<script xlink:href="svgpan.js"/>
<svg id="graph" class="graph">
<g id="viewport">
<title>Urho3D::AnimationSet2D</title>
<!-- Node1 -->
<g id="node1" class="node"><title>Node1</title>
<polygon fill="#bfbfbf" stroke="black" points="1732,-239.5 1732,-260.5 1870,-260.5 1870,-239.5 1732,-239.5"/>
<text text-anchor="middle" x="1801" y="-247.5" font-family="FreeSans" font-size="10.00">Urho3D::AnimationSet2D</text>
</g>
<!-- Node2 -->
<g id="node2" class="node"><title>Node2</title>
<a xlink:href="class_urho3_d_1_1_resource.html" target="_top" xlink:title="Base class for resources.">
<polygon fill="none" stroke="black" points="973.5,-282.5 973.5,-303.5 1076.5,-303.5 1076.5,-282.5 973.5,-282.5"/>
<text text-anchor="middle" x="1025" y="-290.5" font-family="FreeSans" font-size="10.00">Urho3D::Resource</text>
</a>
</g>
<!-- Node2&#45;&gt;Node1 -->
<g id="edge2" class="edge"><title>Node2&#45;&gt;Node1</title>
<path fill="none" stroke="midnightblue" d="M1087.02,-289.628C1207.73,-283.053 1482.72,-268.024 1714,-255 1719.74,-254.677 1725.69,-254.339 1731.67,-253.999"/>
<polygon fill="midnightblue" stroke="midnightblue" points="1086.66,-286.142 1076.86,-290.181 1087.04,-293.132 1086.66,-286.142"/>
</g>
<!-- Node12 -->
<g id="node25" class="node"><title>Node12</title>
<a xlink:href="class_urho3_d_1_1_sprite2_d.html" target="_top" xlink:title="Sprite.">
<polygon fill="none" stroke="black" points="1244.5,-377.5 1244.5,-398.5 1345.5,-398.5 1345.5,-377.5 1244.5,-377.5"/>
<text text-anchor="middle" x="1295" y="-385.5" font-family="FreeSans" font-size="10.00">Urho3D::Sprite2D</text>
</a>
</g>
<!-- Node2&#45;&gt;Node12 -->
<g id="edge30" class="edge"><title>Node2&#45;&gt;Node12</title>
<path fill="none" stroke="midnightblue" d="M1086.73,-304.808C1121.27,-312.374 1164.75,-323.505 1202,-338 1230.02,-348.903 1260.3,-366.357 1278.46,-377.493"/>
<polygon fill="midnightblue" stroke="midnightblue" points="1087.28,-301.348 1076.77,-302.672 1085.81,-308.192 1087.28,-301.348"/>
</g>
<!-- Node3 -->
<g id="node4" class="node"><title>Node3</title>
<a xlink:href="class_urho3_d_1_1_object.html" target="_top" xlink:title="Base class for objects with type identification, subsystem access and event sending/receiving capabil...">
<polygon fill="none" stroke="black" points="758,-393.5 758,-414.5 848,-414.5 848,-393.5 758,-393.5"/>
<text text-anchor="middle" x="803" y="-401.5" font-family="FreeSans" font-size="10.00">Urho3D::Object</text>
</a>
</g>
<!-- Node3&#45;&gt;Node2 -->
<g id="edge4" class="edge"><title>Node3&#45;&gt;Node2</title>
<path fill="none" stroke="midnightblue" d="M846.229,-389.881C850.932,-388.036 855.603,-386.064 860,-384 897.534,-366.378 908.925,-363.453 940,-336 949.728,-327.406 947.275,-320.312 958,-313 963.617,-309.17 969.982,-306.059 976.5,-303.536"/>
<polygon fill="midnightblue" stroke="midnightblue" points="844.749,-386.698 836.61,-393.481 847.203,-393.254 844.749,-386.698"/>
</g>
<!-- Node4 -->
<g id="node6" class="node"><title>Node4</title>
<a xlink:href="class_urho3_d_1_1_ref_counted.html" target="_top" xlink:title="Base class for intrusively reference&#45;counted objects. These are noncopyable and non&#45;assignable.">
<polygon fill="none" stroke="black" points="188,-405.5 188,-426.5 302,-426.5 302,-405.5 188,-405.5"/>
<text text-anchor="middle" x="245" y="-413.5" font-family="FreeSans" font-size="10.00">Urho3D::RefCounted</text>
</a>
</g>
<!-- Node4&#45;&gt;Node3 -->
<g id="edge6" class="edge"><title>Node4&#45;&gt;Node3</title>
<path fill="none" stroke="midnightblue" d="M312.609,-408.828C360.418,-404.127 426.057,-398.42 484,-396 548.832,-393.292 565.128,-394.501 630,-396 673.435,-397.004 722.955,-399.423 757.852,-401.34"/>
<polygon fill="midnightblue" stroke="midnightblue" points="311.987,-405.372 302.383,-409.845 312.68,-412.338 311.987,-405.372"/>
</g>
<!-- Node6 -->
<g id="node10" class="node"><title>Node6</title>
<a xlink:href="class_urho3_d_1_1_context.html" target="_top" xlink:title="Urho3D execution context. Provides access to subsystems, object factories and attributes, and event receivers.">
<polygon fill="none" stroke="red" points="508.5,-405.5 508.5,-426.5 605.5,-426.5 605.5,-405.5 508.5,-405.5"/>
<text text-anchor="middle" x="557" y="-413.5" font-family="FreeSans" font-size="10.00">Urho3D::Context</text>
</a>
</g>
<!-- Node4&#45;&gt;Node6 -->
<g id="edge12" class="edge"><title>Node4&#45;&gt;Node6</title>
<path fill="none" stroke="midnightblue" d="M312.567,-416C371.558,-416 455.743,-416 508.336,-416"/>
<polygon fill="midnightblue" stroke="midnightblue" points="312.226,-412.5 302.226,-416 312.226,-419.5 312.226,-412.5"/>
</g>
<!-- Node5 -->
<g id="node8" class="node"><title>Node5</title>
<a xlink:href="struct_urho3_d_1_1_ref_count.html" target="_top" xlink:title="Reference count structure.">
<polygon fill="none" stroke="black" points="0,-425.5 0,-446.5 102,-446.5 102,-425.5 0,-425.5"/>
<text text-anchor="middle" x="51" y="-433.5" font-family="FreeSans" font-size="10.00">Urho3D::RefCount</text>
</a>
</g>
<!-- Node5&#45;&gt;Node4 -->
<g id="edge8" class="edge"><title>Node5&#45;&gt;Node4</title>
<path fill="none" stroke="#9a32cd" stroke-dasharray="5,2" d="M100.596,-423.279C107.088,-421.974 113.678,-420.826 120,-420 142.068,-417.117 166.503,-415.901 187.872,-415.48"/>
<polygon fill="#9a32cd" stroke="#9a32cd" points="99.573,-419.918 90.5282,-425.436 101.04,-426.763 99.573,-419.918"/>
<text text-anchor="middle" x="145" y="-424" font-family="FreeSans" font-size="10.00"> refCount_</text>
</g>
<!-- Node15 -->
<g id="node34" class="node"><title>Node15</title>
<a xlink:href="class_urho3_d_1_1_weak_ptr.html" target="_top" xlink:title="Urho3D::WeakPtr\&lt; Urho3D\l::SpriteSheet2D \&gt;">
<polygon fill="none" stroke="red" points="320,-438 320,-472 466,-472 466,-438 320,-438"/>
<text text-anchor="start" x="328" y="-459" font-family="FreeSans" font-size="10.00">Urho3D::WeakPtr&lt; Urho3D</text>
<text text-anchor="middle" x="393" y="-446" font-family="FreeSans" font-size="10.00">::SpriteSheet2D &gt;</text>
</a>
</g>
<!-- Node5&#45;&gt;Node15 -->
<g id="edge42" class="edge"><title>Node5&#45;&gt;Node15</title>
<path fill="none" stroke="#9a32cd" stroke-dasharray="5,2" d="M112.357,-439.409C170.57,-442.643 258.097,-447.505 319.898,-450.939"/>
<polygon fill="#9a32cd" stroke="#9a32cd" points="112.38,-435.905 102.201,-438.844 111.991,-442.894 112.38,-435.905"/>
<text text-anchor="middle" x="145" y="-446" font-family="FreeSans" font-size="10.00"> refCount_</text>
</g>
<!-- Node6&#45;&gt;Node3 -->
<g id="edge10" class="edge"><title>Node6&#45;&gt;Node3</title>
<path fill="none" stroke="#9a32cd" stroke-dasharray="5,2" d="M615.776,-413.133C659.352,-411.007 717.874,-408.152 757.817,-406.204"/>
<polygon fill="#9a32cd" stroke="#9a32cd" points="615.419,-409.646 605.602,-413.629 615.76,-416.638 615.419,-409.646"/>
<text text-anchor="middle" x="688" y="-415" font-family="FreeSans" font-size="10.00"> context_</text>
</g>
<!-- Node7 -->
<g id="node13" class="node"><title>Node7</title>
<a xlink:href="class_urho3_d_1_1_linked_list.html" target="_top" xlink:title="Urho3D::LinkedList\l\&lt; Urho3D::EventHandler \&gt;">
<polygon fill="none" stroke="red" points="484,-315 484,-349 630,-349 630,-315 484,-315"/>
<text text-anchor="start" x="492" y="-336" font-family="FreeSans" font-size="10.00">Urho3D::LinkedList</text>
<text text-anchor="middle" x="557" y="-323" font-family="FreeSans" font-size="10.00">&lt; Urho3D::EventHandler &gt;</text>
</a>
</g>
<!-- Node7&#45;&gt;Node3 -->
<g id="edge14" class="edge"><title>Node7&#45;&gt;Node3</title>
<path fill="none" stroke="#9a32cd" stroke-dasharray="5,2" d="M640.046,-325.157C669.951,-326.521 702.558,-332.803 728,-350 742.166,-359.575 733.041,-372.846 746,-384 750.451,-387.831 755.683,-390.943 761.14,-393.467"/>
<polygon fill="#9a32cd" stroke="#9a32cd" points="640.116,-321.658 630.022,-324.875 639.919,-328.655 640.116,-321.658"/>
<text text-anchor="middle" x="688" y="-354" font-family="FreeSans" font-size="10.00"> eventHandlers_</text>
</g>
<!-- Node8 -->
<g id="node15" class="node"><title>Node8</title>
<a xlink:href="class_urho3_d_1_1_timer.html" target="_top" xlink:title="Low&#45;resolution operating system timer.">
<polygon fill="none" stroke="black" points="760,-282.5 760,-303.5 846,-303.5 846,-282.5 760,-282.5"/>
<text text-anchor="middle" x="803" y="-290.5" font-family="FreeSans" font-size="10.00">Urho3D::Timer</text>
</a>
</g>
<!-- Node8&#45;&gt;Node2 -->
<g id="edge16" class="edge"><title>Node8&#45;&gt;Node2</title>
<path fill="none" stroke="#9a32cd" stroke-dasharray="5,2" d="M856.252,-293C891.797,-293 938.292,-293 973.475,-293"/>
<polygon fill="#9a32cd" stroke="#9a32cd" points="856.067,-289.5 846.067,-293 856.067,-296.5 856.067,-289.5"/>
<text text-anchor="middle" x="909" y="-297" font-family="FreeSans" font-size="10.00"> useTimer_</text>
</g>
<!-- Node9 -->
<g id="node17" class="node"><title>Node9</title>
<a xlink:href="class_urho3_d_1_1_string.html" target="_top" xlink:title="String class.">
<polygon fill="none" stroke="black" points="759,-211.5 759,-232.5 847,-232.5 847,-211.5 759,-211.5"/>
<text text-anchor="middle" x="803" y="-219.5" font-family="FreeSans" font-size="10.00">Urho3D::String</text>
</a>
</g>
<!-- Node9&#45;&gt;Node2 -->
<g id="edge18" class="edge"><title>Node9&#45;&gt;Node2</title>
<path fill="none" stroke="#9a32cd" stroke-dasharray="5,2" d="M845.78,-235.682C888.427,-249.321 953.021,-269.98 991.9,-282.414"/>
<polygon fill="#9a32cd" stroke="#9a32cd" points="846.827,-232.342 836.236,-232.629 844.694,-239.009 846.827,-232.342"/>
<text text-anchor="middle" x="909" y="-268" font-family="FreeSans" font-size="10.00"> name_</text>
</g>
<!-- Node9&#45;&gt;Node9 -->
<g id="edge20" class="edge"><title>Node9&#45;&gt;Node9</title>
<path fill="none" stroke="#9a32cd" stroke-dasharray="5,2" d="M783.465,-242.427C784.972,-247.349 791.484,-251 803,-251 821.426,-251 827.04,-241.653 819.842,-232.708"/>
<polygon fill="#9a32cd" stroke="#9a32cd" points="786.861,-243.279 786.158,-232.708 780.115,-241.41 786.861,-243.279"/>
<text text-anchor="middle" x="803" y="-255" font-family="FreeSans" font-size="10.00"> EMPTY</text>
</g>
<!-- Node18 -->
<g id="node42" class="node"><title>Node18</title>
<a xlink:href="struct_urho3_d_1_1_spriter_1_1_spriter_data.html" target="_top" xlink:title="Spriter data.">
<polygon fill="none" stroke="black" points="1452.5,-199.5 1452.5,-220.5 1605.5,-220.5 1605.5,-199.5 1452.5,-199.5"/>
<text text-anchor="middle" x="1529" y="-207.5" font-family="FreeSans" font-size="10.00">Urho3D::Spriter::SpriterData</text>
</a>
</g>
<!-- Node9&#45;&gt;Node18 -->
<g id="edge60" class="edge"><title>Node9&#45;&gt;Node18</title>
<path fill="none" stroke="#9a32cd" stroke-dasharray="5,2" d="M857.363,-221.101C985.129,-218.99 1304.83,-213.705 1452.28,-211.268"/>
<polygon fill="#9a32cd" stroke="#9a32cd" points="856.991,-217.607 847.05,-221.272 857.107,-224.606 856.991,-217.607"/>
<text text-anchor="middle" x="1156" y="-234" font-family="FreeSans" font-size="10.00"> generatorVersion_</text>
<text text-anchor="middle" x="1156" y="-221" font-family="FreeSans" font-size="10.00">generator_</text>
</g>
<!-- Node10 -->
<g id="node20" class="node"><title>Node10</title>
<a xlink:href="class_urho3_d_1_1_string_hash.html" target="_top" xlink:title="32&#45;bit hash value for a string.">
<polygon fill="none" stroke="black" points="746.5,-322.5 746.5,-343.5 859.5,-343.5 859.5,-322.5 746.5,-322.5"/>
<text text-anchor="middle" x="803" y="-330.5" font-family="FreeSans" font-size="10.00">Urho3D::StringHash</text>
</a>
</g>
<!-- Node10&#45;&gt;Node2 -->
<g id="edge22" class="edge"><title>Node10&#45;&gt;Node2</title>
<path fill="none" stroke="#9a32cd" stroke-dasharray="5,2" d="M869.745,-321.482C892.091,-317.579 917.131,-313.155 940,-309 950.785,-307.04 962.331,-304.897 973.327,-302.835"/>
<polygon fill="#9a32cd" stroke="#9a32cd" points="868.936,-318.07 859.685,-323.235 870.138,-324.966 868.936,-318.07"/>
<text text-anchor="middle" x="909" y="-323" font-family="FreeSans" font-size="10.00"> nameHash_</text>
</g>
<!-- Node10&#45;&gt;Node10 -->
<g id="edge24" class="edge"><title>Node10&#45;&gt;Node10</title>
<path fill="none" stroke="#9a32cd" stroke-dasharray="5,2" d="M783.465,-353.427C784.972,-358.349 791.484,-362 803,-362 821.426,-362 827.04,-352.653 819.842,-343.708"/>
<polygon fill="#9a32cd" stroke="#9a32cd" points="786.861,-354.279 786.158,-343.708 780.115,-352.41 786.861,-354.279"/>
<text text-anchor="middle" x="803" y="-366" font-family="FreeSans" font-size="10.00"> ZERO</text>
</g>
<!-- Node11 -->
<g id="node23" class="node"><title>Node11</title>
<a xlink:href="class_urho3_d_1_1_shared_ptr.html" target="_top" xlink:title="Urho3D::SharedPtr\&lt;\l Urho3D::Sprite2D \&gt;">
<polygon fill="none" stroke="black" points="1471,-336 1471,-370 1587,-370 1587,-336 1471,-336"/>
<text text-anchor="start" x="1479" y="-357" font-family="FreeSans" font-size="10.00">Urho3D::SharedPtr&lt;</text>
<text text-anchor="middle" x="1529" y="-344" font-family="FreeSans" font-size="10.00"> Urho3D::Sprite2D &gt;</text>
</a>
</g>
<!-- Node11&#45;&gt;Node1 -->
<g id="edge26" class="edge"><title>Node11&#45;&gt;Node1</title>
<path fill="none" stroke="#9a32cd" stroke-dasharray="5,2" d="M1589.03,-332.598C1625.39,-319.988 1672.6,-303.173 1714,-287 1735.56,-278.579 1759.76,-268.21 1777.15,-260.594"/>
<polygon fill="#9a32cd" stroke="#9a32cd" points="1587.86,-329.299 1579.55,-335.874 1590.15,-335.914 1587.86,-329.299"/>
<text text-anchor="middle" x="1670" y="-322" font-family="FreeSans" font-size="10.00"> sprite_</text>
</g>
<!-- Node12&#45;&gt;Node11 -->
<g id="edge28" class="edge"><title>Node12&#45;&gt;Node11</title>
<path fill="none" stroke="#9a32cd" stroke-dasharray="5,2" d="M1356,-378.876C1391.48,-373.57 1435.94,-366.919 1470.91,-361.689"/>
<polygon fill="#9a32cd" stroke="#9a32cd" points="1355.15,-375.465 1345.77,-380.406 1356.18,-382.388 1355.15,-375.465"/>
<text text-anchor="middle" x="1410" y="-377" font-family="FreeSans" font-size="10.00"> ptr_</text>
</g>
<!-- Node13 -->
<g id="node28" class="node"><title>Node13</title>
<a xlink:href="class_urho3_d_1_1_int_rect.html" target="_top" xlink:title="Two&#45;dimensional bounding rectangle with integer values.">
<polygon fill="none" stroke="black" points="979,-619.5 979,-640.5 1071,-640.5 1071,-619.5 979,-619.5"/>
<text text-anchor="middle" x="1025" y="-627.5" font-family="FreeSans" font-size="10.00">Urho3D::IntRect</text>
</a>
</g>
<!-- Node13&#45;&gt;Node12 -->
<g id="edge32" class="edge"><title>Node13&#45;&gt;Node12</title>
<path fill="none" stroke="#9a32cd" stroke-dasharray="5,2" d="M1080.38,-615.712C1084.41,-613.998 1088.32,-612.099 1092,-610 1189.73,-554.187 1266.77,-435.026 1288.7,-398.72"/>
<polygon fill="#9a32cd" stroke="#9a32cd" points="1078.93,-612.52 1070.85,-619.381 1081.44,-619.052 1078.93,-612.52"/>
<text text-anchor="middle" x="1156" y="-601" font-family="FreeSans" font-size="10.00"> rectangle_</text>
</g>
<!-- Node13&#45;&gt;Node13 -->
<g id="edge34" class="edge"><title>Node13&#45;&gt;Node13</title>
<path fill="none" stroke="#9a32cd" stroke-dasharray="5,2" d="M1003.62,-650.427C1005.27,-655.349 1012.4,-659 1025,-659 1045.16,-659 1051.31,-649.653 1043.43,-640.708"/>
<polygon fill="#9a32cd" stroke="#9a32cd" points="1007.02,-651.293 1006.57,-640.708 1000.32,-649.262 1007.02,-651.293"/>
<text text-anchor="middle" x="1025" y="-663" font-family="FreeSans" font-size="10.00"> ZERO</text>
</g>
<!-- Node14 -->
<g id="node31" class="node"><title>Node14</title>
<a xlink:href="class_urho3_d_1_1_vector2.html" target="_top" xlink:title="Two&#45;dimensional vector.">
<polygon fill="none" stroke="black" points="977,-483.5 977,-504.5 1073,-504.5 1073,-483.5 977,-483.5"/>
<text text-anchor="middle" x="1025" y="-491.5" font-family="FreeSans" font-size="10.00">Urho3D::Vector2</text>
</a>
</g>
<!-- Node14&#45;&gt;Node12 -->
<g id="edge36" class="edge"><title>Node14&#45;&gt;Node12</title>
<path fill="none" stroke="#9a32cd" stroke-dasharray="5,2" d="M1083.52,-494.043C1119.18,-492.089 1164.87,-485.956 1202,-469 1238.62,-452.277 1271.61,-416.432 1286.55,-398.569"/>
<polygon fill="#9a32cd" stroke="#9a32cd" points="1083.1,-490.558 1073.27,-494.506 1083.42,-497.551 1083.1,-490.558"/>
<text text-anchor="middle" x="1156" y="-495" font-family="FreeSans" font-size="10.00"> hotSpot_</text>
</g>
<!-- Node14&#45;&gt;Node14 -->
<g id="edge38" class="edge"><title>Node14&#45;&gt;Node14</title>
<path fill="none" stroke="#9a32cd" stroke-dasharray="5,2" d="M1003.62,-514.427C1005.27,-519.349 1012.4,-523 1025,-523 1045.16,-523 1051.31,-513.653 1043.43,-504.708"/>
<polygon fill="#9a32cd" stroke="#9a32cd" points="1007.02,-515.293 1006.57,-504.708 1000.32,-513.262 1007.02,-515.293"/>
<text text-anchor="middle" x="1025" y="-592" font-family="FreeSans" font-size="10.00"> ONE</text>
<text text-anchor="middle" x="1025" y="-579" font-family="FreeSans" font-size="10.00">DOWN</text>
<text text-anchor="middle" x="1025" y="-566" font-family="FreeSans" font-size="10.00">RIGHT</text>
<text text-anchor="middle" x="1025" y="-553" font-family="FreeSans" font-size="10.00">LEFT</text>
<text text-anchor="middle" x="1025" y="-540" font-family="FreeSans" font-size="10.00">ZERO</text>
<text text-anchor="middle" x="1025" y="-527" font-family="FreeSans" font-size="10.00">UP</text>
</g>
<!-- Node15&#45;&gt;Node12 -->
<g id="edge40" class="edge"><title>Node15&#45;&gt;Node12</title>
<path fill="none" stroke="#9a32cd" stroke-dasharray="5,2" d="M476.072,-455C535.179,-455 616.468,-455 688,-455 688,-455 688,-455 1025,-455 1117.49,-455 1222.69,-417.509 1269.83,-398.616"/>
<polygon fill="#9a32cd" stroke="#9a32cd" points="476.042,-451.5 466.042,-455 476.042,-458.5 476.042,-451.5"/>
<text text-anchor="middle" x="803" y="-459" font-family="FreeSans" font-size="10.00"> spriteSheet_</text>
</g>
<!-- Node16 -->
<g id="node37" class="node"><title>Node16</title>
<a xlink:href="class_urho3_d_1_1_int_vector2.html" target="_top" xlink:title="Two&#45;dimensional vector with integer values.">
<polygon fill="none" stroke="black" points="971,-374.5 971,-395.5 1079,-395.5 1079,-374.5 971,-374.5"/>
<text text-anchor="middle" x="1025" y="-382.5" font-family="FreeSans" font-size="10.00">Urho3D::IntVector2</text>
</a>
</g>
<!-- Node16&#45;&gt;Node12 -->
<g id="edge44" class="edge"><title>Node16&#45;&gt;Node12</title>
<path fill="none" stroke="#9a32cd" stroke-dasharray="5,2" d="M1089.49,-385.717C1136.96,-386.244 1200.6,-386.951 1244.42,-387.438"/>
<polygon fill="#9a32cd" stroke="#9a32cd" points="1089.35,-382.215 1079.31,-385.603 1089.27,-389.214 1089.35,-382.215"/>
<text text-anchor="middle" x="1156" y="-390" font-family="FreeSans" font-size="10.00"> offset_</text>
</g>
<!-- Node16&#45;&gt;Node16 -->
<g id="edge46" class="edge"><title>Node16&#45;&gt;Node16</title>
<path fill="none" stroke="#9a32cd" stroke-dasharray="5,2" d="M1003.62,-405.427C1005.27,-410.349 1012.4,-414 1025,-414 1045.16,-414 1051.31,-404.653 1043.43,-395.708"/>
<polygon fill="#9a32cd" stroke="#9a32cd" points="1007.02,-406.293 1006.57,-395.708 1000.32,-404.262 1007.02,-406.293"/>
<text text-anchor="middle" x="1025" y="-418" font-family="FreeSans" font-size="10.00"> ZERO</text>
</g>
<!-- Node17 -->
<g id="node40" class="node"><title>Node17</title>
<a xlink:href="class_urho3_d_1_1_shared_ptr.html" target="_top" xlink:title="Urho3D::SharedPtr\&lt;\l Urho3D::Texture2D \&gt;">
<polygon fill="none" stroke="red" points="964,-322 964,-356 1086,-356 1086,-322 964,-322"/>
<text text-anchor="start" x="972" y="-343" font-family="FreeSans" font-size="10.00">Urho3D::SharedPtr&lt;</text>
<text text-anchor="middle" x="1025" y="-330" font-family="FreeSans" font-size="10.00"> Urho3D::Texture2D &gt;</text>
</a>
</g>
<!-- Node17&#45;&gt;Node12 -->
<g id="edge48" class="edge"><title>Node17&#45;&gt;Node12</title>
<path fill="none" stroke="#9a32cd" stroke-dasharray="5,2" d="M1096.51,-341.38C1128.99,-343.502 1167.73,-347.496 1202,-355 1225.93,-360.24 1252.15,-369.923 1270.63,-377.45"/>
<polygon fill="#9a32cd" stroke="#9a32cd" points="1096.39,-337.866 1086.19,-340.754 1095.96,-344.853 1096.39,-337.866"/>
<text text-anchor="middle" x="1156" y="-372" font-family="FreeSans" font-size="10.00"> loadTexture_</text>
<text text-anchor="middle" x="1156" y="-359" font-family="FreeSans" font-size="10.00">texture_</text>
</g>
<!-- Node18&#45;&gt;Node1 -->
<g id="edge50" class="edge"><title>Node18&#45;&gt;Node1</title>
<path fill="none" stroke="#9a32cd" stroke-dasharray="5,2" d="M1610.65,-222.007C1649.31,-227.692 1694.98,-234.408 1731.89,-239.837"/>
<polygon fill="#9a32cd" stroke="#9a32cd" points="1610.87,-218.502 1600.46,-220.51 1609.85,-225.427 1610.87,-218.502"/>
<text text-anchor="middle" x="1670" y="-242" font-family="FreeSans" font-size="10.00"> spriterData_</text>
</g>
<!-- Node19 -->
<g id="node44" class="node"><title>Node19</title>
<a xlink:href="class_urho3_d_1_1_p_o_d_vector.html" target="_top" xlink:title="Urho3D::PODVector\&lt;\l Urho3D::Spriter::Entity * \&gt;">
<polygon fill="none" stroke="black" points="1221.5,-162 1221.5,-196 1368.5,-196 1368.5,-162 1221.5,-162"/>
<text text-anchor="start" x="1229.5" y="-183" font-family="FreeSans" font-size="10.00">Urho3D::PODVector&lt;</text>
<text text-anchor="middle" x="1295" y="-170" font-family="FreeSans" font-size="10.00"> Urho3D::Spriter::Entity * &gt;</text>
</a>
</g>
<!-- Node19&#45;&gt;Node18 -->
<g id="edge52" class="edge"><title>Node19&#45;&gt;Node18</title>
<path fill="none" stroke="#9a32cd" stroke-dasharray="5,2" d="M1378.82,-189.978C1396.39,-192.289 1414.8,-194.718 1432,-197 1438.65,-197.883 1445.56,-198.803 1452.49,-199.727"/>
<polygon fill="#9a32cd" stroke="#9a32cd" points="1378.96,-186.467 1368.59,-188.634 1378.05,-193.407 1378.96,-186.467"/>
<text text-anchor="middle" x="1410" y="-201" font-family="FreeSans" font-size="10.00"> entities_</text>
</g>
<!-- Node20 -->
<g id="node46" class="node"><title>Node20</title>
<a xlink:href="class_urho3_d_1_1_vector_base.html" target="_top" xlink:title="Vector base class.">
<polygon fill="none" stroke="black" points="968,-168.5 968,-189.5 1082,-189.5 1082,-168.5 968,-168.5"/>
<text text-anchor="middle" x="1025" y="-176.5" font-family="FreeSans" font-size="10.00">Urho3D::VectorBase</text>
</a>
</g>
<!-- Node20&#45;&gt;Node19 -->
<g id="edge54" class="edge"><title>Node20&#45;&gt;Node19</title>
<path fill="none" stroke="midnightblue" d="M1092.26,-179C1131.52,-179 1181.08,-179 1221.38,-179"/>
<polygon fill="midnightblue" stroke="midnightblue" points="1092.26,-175.5 1082.26,-179 1092.26,-182.5 1092.26,-175.5"/>
</g>
<!-- Node21 -->
<g id="node48" class="node"><title>Node21</title>
<a xlink:href="class_urho3_d_1_1_p_o_d_vector.html" target="_top" xlink:title="Urho3D::PODVector\&lt;\l Urho3D::Spriter::Folder * \&gt;">
<polygon fill="none" stroke="black" points="1220.5,-110 1220.5,-144 1369.5,-144 1369.5,-110 1220.5,-110"/>
<text text-anchor="start" x="1228.5" y="-131" font-family="FreeSans" font-size="10.00">Urho3D::PODVector&lt;</text>
<text text-anchor="middle" x="1295" y="-118" font-family="FreeSans" font-size="10.00"> Urho3D::Spriter::Folder * &gt;</text>
</a>
</g>
<!-- Node20&#45;&gt;Node21 -->
<g id="edge58" class="edge"><title>Node20&#45;&gt;Node21</title>
<path fill="none" stroke="midnightblue" d="M1089.65,-166.548C1129.02,-158.967 1179.45,-149.253 1220.49,-141.35"/>
<polygon fill="midnightblue" stroke="midnightblue" points="1088.8,-163.149 1079.64,-168.477 1090.12,-170.023 1088.8,-163.149"/>
</g>
<!-- Node21&#45;&gt;Node18 -->
<g id="edge56" class="edge"><title>Node21&#45;&gt;Node18</title>
<path fill="none" stroke="#9a32cd" stroke-dasharray="5,2" d="M1353.97,-147.397C1359.39,-149.286 1364.8,-151.176 1370,-153 1415.52,-168.966 1468.19,-187.949 1500.03,-199.479"/>
<polygon fill="#9a32cd" stroke="#9a32cd" points="1354.83,-143.992 1344.24,-144.011 1352.53,-150.603 1354.83,-143.992"/>
<text text-anchor="middle" x="1410" y="-179" font-family="FreeSans" font-size="10.00"> folders_</text>
</g>
<!-- Node22 -->
<g id="node52" class="node"><title>Node22</title>
<a xlink:href="class_urho3_d_1_1_hash_map.html" target="_top" xlink:title="Urho3D::HashMap\&lt; int,\l Urho3D::SharedPtr\&lt; Urho3D\l::Sprite2D \&gt; \&gt;">
<polygon fill="none" stroke="black" points="1450,-98.5 1450,-145.5 1608,-145.5 1608,-98.5 1450,-98.5"/>
<text text-anchor="start" x="1458" y="-132.5" font-family="FreeSans" font-size="10.00">Urho3D::HashMap&lt; int,</text>
<text text-anchor="start" x="1458" y="-119.5" font-family="FreeSans" font-size="10.00"> Urho3D::SharedPtr&lt; Urho3D</text>
<text text-anchor="middle" x="1529" y="-106.5" font-family="FreeSans" font-size="10.00">::Sprite2D &gt; &gt;</text>
</a>
</g>
<!-- Node22&#45;&gt;Node1 -->
<g id="edge62" class="edge"><title>Node22&#45;&gt;Node1</title>
<path fill="none" stroke="#9a32cd" stroke-dasharray="5,2" d="M1588.7,-150.06C1624.95,-167.1 1672.14,-189.294 1714,-209 1735.91,-219.312 1760.91,-231.096 1778.47,-239.376"/>
<polygon fill="#9a32cd" stroke="#9a32cd" points="1589.8,-146.708 1579.26,-145.621 1586.82,-153.043 1589.8,-146.708"/>
<text text-anchor="middle" x="1670" y="-213" font-family="FreeSans" font-size="10.00"> spriterFileSprites_</text>
</g>
<!-- Node23 -->
<g id="node54" class="node"><title>Node23</title>
<a xlink:href="class_urho3_d_1_1_hash_base.html" target="_top" xlink:title="Hash set/map base class.">
<polygon fill="none" stroke="black" points="1241,-70.5 1241,-91.5 1349,-91.5 1349,-70.5 1241,-70.5"/>
<text text-anchor="middle" x="1295" y="-78.5" font-family="FreeSans" font-size="10.00">Urho3D::HashBase</text>
</a>
</g>
<!-- Node23&#45;&gt;Node22 -->
<g id="edge64" class="edge"><title>Node23&#45;&gt;Node22</title>
<path fill="none" stroke="midnightblue" d="M1359.32,-92.2705C1387.27,-97.1676 1420.29,-102.953 1449.74,-108.112"/>
<polygon fill="midnightblue" stroke="midnightblue" points="1359.73,-88.7877 1349.27,-90.5093 1358.52,-95.6827 1359.73,-88.7877"/>
</g>
<!-- Node24 -->
<g id="node56" class="node"><title>Node24</title>
<a xlink:href="struct_urho3_d_1_1_hash_node_base.html" target="_top" xlink:title="Hash set/map node base class.">
<polygon fill="none" stroke="black" points="958,-71.5 958,-92.5 1092,-92.5 1092,-71.5 958,-71.5"/>
<text text-anchor="middle" x="1025" y="-79.5" font-family="FreeSans" font-size="10.00">Urho3D::HashNodeBase</text>
</a>
</g>
<!-- Node24&#45;&gt;Node23 -->
<g id="edge66" class="edge"><title>Node24&#45;&gt;Node23</title>
<path fill="none" stroke="#9a32cd" stroke-dasharray="5,2" d="M1102.25,-81.7139C1146.6,-81.5496 1201.19,-81.3474 1240.94,-81.2002"/>
<polygon fill="#9a32cd" stroke="#9a32cd" points="1102.08,-78.2144 1092.09,-81.7515 1102.1,-85.2144 1102.08,-78.2144"/>
<text text-anchor="middle" x="1156" y="-112" font-family="FreeSans" font-size="10.00"> ptrs_</text>
<text text-anchor="middle" x="1156" y="-99" font-family="FreeSans" font-size="10.00">tail_</text>
<text text-anchor="middle" x="1156" y="-86" font-family="FreeSans" font-size="10.00">head_</text>
</g>
<!-- Node24&#45;&gt;Node24 -->
<g id="edge68" class="edge"><title>Node24&#45;&gt;Node24</title>
<path fill="none" stroke="#9a32cd" stroke-dasharray="5,2" d="M1003.62,-102.427C1005.27,-107.349 1012.4,-111 1025,-111 1045.16,-111 1051.31,-101.653 1043.43,-92.7079"/>
<polygon fill="#9a32cd" stroke="#9a32cd" points="1007.02,-103.293 1006.57,-92.7079 1000.32,-101.262 1007.02,-103.293"/>
<text text-anchor="middle" x="1025" y="-141" font-family="FreeSans" font-size="10.00"> next_</text>
<text text-anchor="middle" x="1025" y="-128" font-family="FreeSans" font-size="10.00">prev_</text>
<text text-anchor="middle" x="1025" y="-115" font-family="FreeSans" font-size="10.00">down_</text>
</g>
<!-- Node25 -->
<g id="node59" class="node"><title>Node25</title>
<a xlink:href="struct_urho3_d_1_1_allocator_block.html" target="_top" xlink:title="Allocator memory block.">
<polygon fill="none" stroke="red" points="961.5,-0.5 961.5,-21.5 1088.5,-21.5 1088.5,-0.5 961.5,-0.5"/>
<text text-anchor="middle" x="1025" y="-8.5" font-family="FreeSans" font-size="10.00">Urho3D::AllocatorBlock</text>
</a>
</g>
<!-- Node25&#45;&gt;Node23 -->
<g id="edge70" class="edge"><title>Node25&#45;&gt;Node23</title>
<path fill="none" stroke="#9a32cd" stroke-dasharray="5,2" d="M1075.67,-24.1376C1127.39,-37.5468 1206.66,-58.0968 1254.4,-70.4732"/>
<polygon fill="#9a32cd" stroke="#9a32cd" points="1076.27,-20.6772 1065.71,-21.5555 1074.52,-27.4532 1076.27,-20.6772"/>
<text text-anchor="middle" x="1156" y="-61" font-family="FreeSans" font-size="10.00"> allocator_</text>
</g>
<!-- Node25&#45;&gt;Node25 -->
<g id="edge72" class="edge"><title>Node25&#45;&gt;Node25</title>
<path fill="none" stroke="#9a32cd" stroke-dasharray="5,2" d="M1003.62,-31.4266C1005.27,-36.3489 1012.4,-40 1025,-40 1045.16,-40 1051.31,-30.6531 1043.43,-21.7079"/>
<polygon fill="#9a32cd" stroke="#9a32cd" points="1007.02,-32.2932 1006.57,-21.7079 1000.32,-30.2623 1007.02,-32.2932"/>
<text text-anchor="middle" x="1025" y="-44" font-family="FreeSans" font-size="10.00"> next_</text>
</g>
</g>
</svg>
        <g id="navigator" transform="translate(0 0)" fill="#404254">
                <rect fill="#f2f5e9" fill-opacity="0.5" stroke="#606060" stroke-width=".5" x="0" y="0" width="60" height="60"/>
                <use id="zoomplus" xlink:href="#zoomPlus" x="17" y="9" onmousedown="handleZoom(evt,'in')"/>
                <use id="zoomminus" xlink:href="#zoomMin" x="42" y="9" onmousedown="handleZoom(evt,'out')"/>
                <use id="reset" xlink:href="#resetDef" x="30" y="36" onmousedown="handleReset()"/>
                <g id="arrowUp" xlink:href="#dirArrow" transform="translate(30 24)" onmousedown="handlePan(0,-1)">
                  <use xlink:href="#rim" fill="#404040">
                        <set attributeName="fill" to="#808080" begin="arrowUp.mouseover" end="arrowUp.mouseout"/>
                  </use>
                  <path fill="none" stroke="white" stroke-width="1.5" d="M0,-3.0v7 M-2.5,-0.5L0,-3.0L2.5,-0.5"/>
                </g>
                <g id="arrowRight" xlink:href="#dirArrow" transform="rotate(90) translate(36 -43)" onmousedown="handlePan(1,0)">
                  <use xlink:href="#rim" fill="#404040">
                        <set attributeName="fill" to="#808080" begin="arrowRight.mouseover" end="arrowRight.mouseout"/>
                  </use>
                  <path fill="none" stroke="white" stroke-width="1.5" d="M0,-3.0v7 M-2.5,-0.5L0,-3.0L2.5,-0.5"/>
                </g>
                <g id="arrowDown" xlink:href="#dirArrow" transform="rotate(180) translate(-30 -48)" onmousedown="handlePan(0,1)">
                  <use xlink:href="#rim" fill="#404040">
                        <set attributeName="fill" to="#808080" begin="arrowDown.mouseover" end="arrowDown.mouseout"/>
                  </use>
                  <path fill="none" stroke="white" stroke-width="1.5" d="M0,-3.0v7 M-2.5,-0.5L0,-3.0L2.5,-0.5"/>
                </g>
                <g id="arrowLeft" xlink:href="#dirArrow" transform="rotate(270) translate(-36 17)" onmousedown="handlePan(-1,0)">
                  <use xlink:href="#rim" fill="#404040">
                        <set attributeName="fill" to="#808080" begin="arrowLeft.mouseover" end="arrowLeft.mouseout"/>
                  </use>
                  <path fill="none" stroke="white" stroke-width="1.5" d="M0,-3.0v7 M-2.5,-0.5L0,-3.0L2.5,-0.5"/>
                </g>
        </g>
        <svg viewBox="0 0 15 15" width="100%" height="30px" preserveAspectRatio="xMaxYMin meet">
         <g id="arrow_out" transform="scale(0.3 0.3)">
          <a xlink:href="class_urho3_d_1_1_animation_set2_d__coll__graph_org.svg" target="_base">
           <rect id="button" ry="5" rx="5" y="6" x="6" height="38" width="38"
                fill="#f2f5e9" fill-opacity="0.5" stroke="#606060" stroke-width="1.0"/>
           <path id="arrow"
             d="M 11.500037,31.436501 C 11.940474,20.09759 22.043105,11.32322 32.158766,21.979434 L 37.068811,17.246167 C 37.068811,17.246167 37.088388,32 37.088388,32 L 22.160133,31.978069 C 22.160133,31.978069 26.997745,27.140456 26.997745,27.140456 C 18.528582,18.264221 13.291696,25.230495 11.500037,31.436501 z"
             style="fill:#404040;"/>
          </a>
         </g>
        </svg>
</svg>
