<?xml version="1.0" encoding="UTF-8" standalone="no"?>
<!DOCTYPE svg PUBLIC "-//W3C//DTD SVG 1.1//EN"
 "http://www.w3.org/Graphics/SVG/1.1/DTD/svg11.dtd">
<!-- Generated by graphviz version 2.26.3 (20100126.1600)
 -->
<!-- Title: Urho3D::UIBatch Pages: 1 -->
<!--zoomable 1139 -->
<svg id="main" version="1.1" xmlns="http://www.w3.org/2000/svg" xmlns:xlink="http://www.w3.org/1999/xlink" xml:space="preserve" onload="init(evt)">
        <defs>
                <circle id="rim" cx="0" cy="0" r="7"/>
                <circle id="rim2" cx="0" cy="0" r="3.5"/>
                <g id="zoomPlus">
                        <use xlink:href="#rim" fill="#404040">
                                <set attributeName="fill" to="#808080" begin="zoomplus.mouseover" end="zoomplus.mouseout"/>
                        </use>
                        <path d="M-4,0h8M0,-4v8" fill="none" stroke="white" stroke-width="1.5" pointer-events="none"/>
                </g>
                <g id="zoomMin">
                        <use xlink:href="#rim" fill="#404040">
                                <set attributeName="fill" to="#808080" begin="zoomminus.mouseover" end="zoomminus.mouseout"/>
                        </use>
                        <path d="M-4,0h8" fill="none" stroke="white" stroke-width="1.5" pointer-events="none"/>
                </g>
                <g id="dirArrow">
                        <path fill="none" stroke="white" stroke-width="1.5" d="M0,-3.0v7 M-2.5,-0.5L0,-3.0L2.5,-0.5"/>
                </g>
               <g id="resetDef">
                       <use xlink:href="#rim2" fill="#404040">
                               <set attributeName="fill" to="#808080" begin="reset.mouseover" end="reset.mouseout"/>
                       </use>
               </g>
        </defs>

<script type="text/javascript">
var viewWidth = 1190;
var viewHeight = 1139;
var sectionId = 'dynsection-0';
</script>
<script xlink:href="svgpan.js"/>
<svg id="graph" class="graph">
<g id="viewport">
<title>Urho3D::UIBatch</title>
<!-- Node1 -->
<g id="node1" class="node"><title>Node1</title>
<polygon fill="#bfbfbf" stroke="black" points="1075.5,-884.5 1075.5,-905.5 1172.5,-905.5 1172.5,-884.5 1075.5,-884.5"/>
<text text-anchor="middle" x="1124" y="-892.5" font-family="FreeSans" font-size="10.00">Urho3D::UIBatch</text>
</g>
<!-- Node2 -->
<g id="node2" class="node"><title>Node2</title>
<a xlink:href="class_urho3_d_1_1_int_rect.html" target="_top" xlink:title="Two&#45;dimensional bounding rectangle with integer values.">
<polygon fill="none" stroke="black" points="541,-919.5 541,-940.5 633,-940.5 633,-919.5 541,-919.5"/>
<text text-anchor="middle" x="587" y="-927.5" font-family="FreeSans" font-size="10.00">Urho3D::IntRect</text>
</a>
</g>
<!-- Node2&#45;&gt;Node1 -->
<g id="edge2" class="edge"><title>Node2&#45;&gt;Node1</title>
<path fill="none" stroke="#9a32cd" stroke-dasharray="5,2" d="M643.409,-926.323C749.224,-919.427 975.785,-904.66 1075.36,-898.17"/>
<polygon fill="#9a32cd" stroke="#9a32cd" points="643,-922.843 633.249,-926.986 643.456,-929.828 643,-922.843"/>
<text text-anchor="middle" x="897" y="-917" font-family="FreeSans" font-size="10.00"> scissor_</text>
</g>
<!-- Node2&#45;&gt;Node2 -->
<g id="edge4" class="edge"><title>Node2&#45;&gt;Node2</title>
<path fill="none" stroke="#9a32cd" stroke-dasharray="5,2" d="M554.252,-949.679C556.007,-954.975 566.923,-959 587,-959 617.594,-959 626.915,-949.653 614.965,-940.708"/>
<polygon fill="#9a32cd" stroke="#9a32cd" points="557.419,-951.179 559.035,-940.708 551.242,-947.885 557.419,-951.179"/>
<text text-anchor="middle" x="587" y="-963" font-family="FreeSans" font-size="10.00"> ZERO</text>
</g>
<!-- Node15 -->
<g id="node35" class="node"><title>Node15</title>
<a xlink:href="class_urho3_d_1_1_u_i_element.html" target="_top" xlink:title="Base class for UI elements.">
<polygon fill="none" stroke="black" points="842.5,-597.5 842.5,-618.5 951.5,-618.5 951.5,-597.5 842.5,-597.5"/>
<text text-anchor="middle" x="897" y="-605.5" font-family="FreeSans" font-size="10.00">Urho3D::UIElement</text>
</a>
</g>
<!-- Node2&#45;&gt;Node15 -->
<g id="edge52" class="edge"><title>Node2&#45;&gt;Node15</title>
<path fill="none" stroke="#9a32cd" stroke-dasharray="5,2" d="M643.419,-926.817C658.279,-923.873 673.606,-918.752 686,-910 698.701,-901.031 693.005,-890.995 704,-880 747.98,-836.02 784.401,-855.962 824,-808 873.655,-747.858 891.048,-650.989 895.629,-618.792"/>
<polygon fill="#9a32cd" stroke="#9a32cd" points="642.53,-923.417 633.247,-928.525 643.689,-930.321 642.53,-923.417"/>
<text text-anchor="middle" x="764" y="-897" font-family="FreeSans" font-size="10.00"> clipBorder_</text>
<text text-anchor="middle" x="764" y="-884" font-family="FreeSans" font-size="10.00">layoutBorder_</text>
</g>
<!-- Node3 -->
<g id="node5" class="node"><title>Node3</title>
<a xlink:href="class_urho3_d_1_1_vector2.html" target="_top" xlink:title="Two&#45;dimensional vector.">
<polygon fill="none" stroke="black" points="539,-783.5 539,-804.5 635,-804.5 635,-783.5 539,-783.5"/>
<text text-anchor="middle" x="587" y="-791.5" font-family="FreeSans" font-size="10.00">Urho3D::Vector2</text>
</a>
</g>
<!-- Node3&#45;&gt;Node1 -->
<g id="edge6" class="edge"><title>Node3&#45;&gt;Node1</title>
<path fill="none" stroke="#9a32cd" stroke-dasharray="5,2" d="M610.336,-810.259C633.103,-825.2 669.283,-846.561 704,-857 772.361,-877.555 980.269,-888.844 1075.47,-893.057"/>
<polygon fill="#9a32cd" stroke="#9a32cd" points="612.271,-807.342 602.014,-804.689 608.377,-813.159 612.271,-807.342"/>
<text text-anchor="middle" x="897" y="-890" font-family="FreeSans" font-size="10.00"> invTextureSize_</text>
</g>
<!-- Node3&#45;&gt;Node3 -->
<g id="edge8" class="edge"><title>Node3&#45;&gt;Node3</title>
<path fill="none" stroke="#9a32cd" stroke-dasharray="5,2" d="M554.252,-813.679C556.007,-818.975 566.923,-823 587,-823 617.594,-823 626.915,-813.653 614.965,-804.708"/>
<polygon fill="#9a32cd" stroke="#9a32cd" points="557.419,-815.179 559.035,-804.708 551.242,-811.885 557.419,-815.179"/>
<text text-anchor="middle" x="587" y="-892" font-family="FreeSans" font-size="10.00"> ONE</text>
<text text-anchor="middle" x="587" y="-879" font-family="FreeSans" font-size="10.00">DOWN</text>
<text text-anchor="middle" x="587" y="-866" font-family="FreeSans" font-size="10.00">RIGHT</text>
<text text-anchor="middle" x="587" y="-853" font-family="FreeSans" font-size="10.00">LEFT</text>
<text text-anchor="middle" x="587" y="-840" font-family="FreeSans" font-size="10.00">ZERO</text>
<text text-anchor="middle" x="587" y="-827" font-family="FreeSans" font-size="10.00">UP</text>
</g>
<!-- Node3&#45;&gt;Node15 -->
<g id="edge58" class="edge"><title>Node3&#45;&gt;Node15</title>
<path fill="none" stroke="#9a32cd" stroke-dasharray="5,2" d="M645.359,-795.17C706.158,-795.255 796.346,-791.838 824,-772 876.926,-734.033 892.09,-648.75 895.874,-618.715"/>
<polygon fill="#9a32cd" stroke="#9a32cd" points="645.136,-791.669 635.12,-795.122 645.103,-798.669 645.136,-791.669"/>
<text text-anchor="middle" x="764" y="-798" font-family="FreeSans" font-size="10.00"> layoutFlexScale_</text>
</g>
<!-- Node4 -->
<g id="node8" class="node"><title>Node4</title>
<a xlink:href="class_urho3_d_1_1_vector3.html" target="_top" xlink:title="Three&#45;dimensional vector.">
<polygon fill="none" stroke="black" points="849,-951.5 849,-972.5 945,-972.5 945,-951.5 849,-951.5"/>
<text text-anchor="middle" x="897" y="-959.5" font-family="FreeSans" font-size="10.00">Urho3D::Vector3</text>
</a>
</g>
<!-- Node4&#45;&gt;Node1 -->
<g id="edge10" class="edge"><title>Node4&#45;&gt;Node1</title>
<path fill="none" stroke="#9a32cd" stroke-dasharray="5,2" d="M955.366,-955.218C983.811,-950.901 1018.22,-944.158 1048,-934 1069.19,-926.77 1091.83,-914.501 1106.83,-905.652"/>
<polygon fill="#9a32cd" stroke="#9a32cd" points="954.567,-951.797 945.176,-956.701 955.575,-958.724 954.567,-951.797"/>
<text text-anchor="middle" x="1009" y="-956" font-family="FreeSans" font-size="10.00"> posAdjust</text>
</g>
<!-- Node4&#45;&gt;Node4 -->
<g id="edge12" class="edge"><title>Node4&#45;&gt;Node4</title>
<path fill="none" stroke="#9a32cd" stroke-dasharray="5,2" d="M876.36,-982.427C877.952,-987.349 884.832,-991 897,-991 916.469,-991 922.401,-981.653 914.796,-972.708"/>
<polygon fill="#9a32cd" stroke="#9a32cd" points="879.754,-983.288 879.204,-972.708 873.036,-981.322 879.754,-983.288"/>
<text text-anchor="middle" x="897" y="-1086" font-family="FreeSans" font-size="10.00"> ONE</text>
<text text-anchor="middle" x="897" y="-1073" font-family="FreeSans" font-size="10.00">DOWN</text>
<text text-anchor="middle" x="897" y="-1060" font-family="FreeSans" font-size="10.00">BACK</text>
<text text-anchor="middle" x="897" y="-1047" font-family="FreeSans" font-size="10.00">RIGHT</text>
<text text-anchor="middle" x="897" y="-1034" font-family="FreeSans" font-size="10.00">LEFT</text>
<text text-anchor="middle" x="897" y="-1021" font-family="FreeSans" font-size="10.00">ZERO</text>
<text text-anchor="middle" x="897" y="-1008" font-family="FreeSans" font-size="10.00">FORWARD</text>
<text text-anchor="middle" x="897" y="-995" font-family="FreeSans" font-size="10.00">UP</text>
</g>
<!-- Node5 -->
<g id="node11" class="node"><title>Node5</title>
<a xlink:href="class_urho3_d_1_1_texture.html" target="_top" xlink:title="Base class for texture resources.">
<polygon fill="none" stroke="black" points="850,-193.5 850,-214.5 944,-214.5 944,-193.5 850,-193.5"/>
<text text-anchor="middle" x="897" y="-201.5" font-family="FreeSans" font-size="10.00">Urho3D::Texture</text>
</a>
</g>
<!-- Node5&#45;&gt;Node1 -->
<g id="edge14" class="edge"><title>Node5&#45;&gt;Node1</title>
<path fill="none" stroke="#9a32cd" stroke-dasharray="5,2" d="M903.655,-224.258C938.055,-328.974 1095.1,-807.017 1120.52,-884.404"/>
<polygon fill="#9a32cd" stroke="#9a32cd" points="906.921,-222.986 900.475,-214.577 900.271,-225.17 906.921,-222.986"/>
<text text-anchor="middle" x="1009" y="-656" font-family="FreeSans" font-size="10.00"> texture_</text>
</g>
<!-- Node13 -->
<g id="node29" class="node"><title>Node13</title>
<a xlink:href="class_urho3_d_1_1_shared_ptr.html" target="_top" xlink:title="Urho3D::SharedPtr\&lt;\l Urho3D::Texture \&gt;">
<polygon fill="none" stroke="black" points="1066,-187 1066,-221 1182,-221 1182,-187 1066,-187"/>
<text text-anchor="start" x="1074" y="-208" font-family="FreeSans" font-size="10.00">Urho3D::SharedPtr&lt;</text>
<text text-anchor="middle" x="1124" y="-195" font-family="FreeSans" font-size="10.00"> Urho3D::Texture &gt;</text>
</a>
</g>
<!-- Node5&#45;&gt;Node13 -->
<g id="edge36" class="edge"><title>Node5&#45;&gt;Node13</title>
<path fill="none" stroke="#9a32cd" stroke-dasharray="5,2" d="M954.299,-204C988.372,-204 1031.48,-204 1065.73,-204"/>
<polygon fill="#9a32cd" stroke="#9a32cd" points="954.035,-200.5 944.035,-204 954.035,-207.5 954.035,-200.5"/>
<text text-anchor="middle" x="1009" y="-208" font-family="FreeSans" font-size="10.00"> ptr_</text>
</g>
<!-- Node6 -->
<g id="node13" class="node"><title>Node6</title>
<a xlink:href="class_urho3_d_1_1_resource.html" target="_top" xlink:title="Base class for resources.">
<polygon fill="none" stroke="black" points="535.5,-110.5 535.5,-131.5 638.5,-131.5 638.5,-110.5 535.5,-110.5"/>
<text text-anchor="middle" x="587" y="-118.5" font-family="FreeSans" font-size="10.00">Urho3D::Resource</text>
</a>
</g>
<!-- Node6&#45;&gt;Node5 -->
<g id="edge16" class="edge"><title>Node6&#45;&gt;Node5</title>
<path fill="none" stroke="midnightblue" d="M636.095,-134.145C697.423,-150.565 801.143,-178.335 857.569,-193.443"/>
<polygon fill="midnightblue" stroke="midnightblue" points="636.827,-130.717 626.262,-131.512 635.016,-137.479 636.827,-130.717"/>
</g>
<!-- Node7 -->
<g id="node15" class="node"><title>Node7</title>
<a xlink:href="class_urho3_d_1_1_object.html" target="_top" xlink:title="Base class for objects with type identification, subsystem access and event sending/receiving capabil...">
<polygon fill="none" stroke="red" points="0,-142.5 0,-163.5 90,-163.5 90,-142.5 0,-142.5"/>
<text text-anchor="middle" x="45" y="-150.5" font-family="FreeSans" font-size="10.00">Urho3D::Object</text>
</a>
</g>
<!-- Node7&#45;&gt;Node6 -->
<g id="edge18" class="edge"><title>Node7&#45;&gt;Node6</title>
<path fill="none" stroke="midnightblue" d="M100.307,-149.701C161.049,-146.08 261.472,-140.104 348,-135 412.52,-131.194 486.84,-126.846 535.249,-124.019"/>
<polygon fill="midnightblue" stroke="midnightblue" points="99.9478,-146.216 90.1738,-150.305 100.364,-153.203 99.9478,-146.216"/>
</g>
<!-- Node17 -->
<g id="node39" class="node"><title>Node17</title>
<a xlink:href="class_urho3_d_1_1_serializable.html" target="_top" xlink:title="Base class for objects with automatic serialization through attributes.">
<polygon fill="none" stroke="red" points="172,-213.5 172,-234.5 286,-234.5 286,-213.5 172,-213.5"/>
<text text-anchor="middle" x="229" y="-221.5" font-family="FreeSans" font-size="10.00">Urho3D::Serializable</text>
</a>
</g>
<!-- Node7&#45;&gt;Node17 -->
<g id="edge48" class="edge"><title>Node7&#45;&gt;Node17</title>
<path fill="none" stroke="midnightblue" d="M67.0791,-169.591C83.1761,-180.91 105.943,-195.363 128,-204 141.815,-209.41 157.289,-213.414 171.893,-216.355"/>
<polygon fill="midnightblue" stroke="midnightblue" points="69.0302,-166.683 58.8693,-163.682 64.941,-172.365 69.0302,-166.683"/>
</g>
<!-- Node8 -->
<g id="node17" class="node"><title>Node8</title>
<a xlink:href="class_urho3_d_1_1_timer.html" target="_top" xlink:title="Low&#45;resolution operating system timer.">
<polygon fill="none" stroke="black" points="186,-71.5 186,-92.5 272,-92.5 272,-71.5 186,-71.5"/>
<text text-anchor="middle" x="229" y="-79.5" font-family="FreeSans" font-size="10.00">Urho3D::Timer</text>
</a>
</g>
<!-- Node8&#45;&gt;Node6 -->
<g id="edge20" class="edge"><title>Node8&#45;&gt;Node6</title>
<path fill="none" stroke="#9a32cd" stroke-dasharray="5,2" d="M282.372,-81.956C331.377,-82.5547 405.89,-85.0783 470,-94 496.738,-97.721 526.365,-104.587 549.115,-110.463"/>
<polygon fill="#9a32cd" stroke="#9a32cd" points="282.35,-78.4557 272.315,-81.8559 282.28,-85.4554 282.35,-78.4557"/>
<text text-anchor="middle" x="409" y="-98" font-family="FreeSans" font-size="10.00"> useTimer_</text>
</g>
<!-- Node9 -->
<g id="node19" class="node"><title>Node9</title>
<a xlink:href="class_urho3_d_1_1_string.html" target="_top" xlink:title="String class.">
<polygon fill="none" stroke="black" points="185,-461.5 185,-482.5 273,-482.5 273,-461.5 185,-461.5"/>
<text text-anchor="middle" x="229" y="-469.5" font-family="FreeSans" font-size="10.00">Urho3D::String</text>
</a>
</g>
<!-- Node9&#45;&gt;Node6 -->
<g id="edge22" class="edge"><title>Node9&#45;&gt;Node6</title>
<path fill="none" stroke="#9a32cd" stroke-dasharray="5,2" d="M244.336,-453.546C267.246,-424.855 309.862,-366.915 330,-310 340.904,-279.182 325.533,-187.746 348,-164 360.749,-150.525 468.933,-135.254 535.303,-127.025"/>
<polygon fill="#9a32cd" stroke="#9a32cd" points="241.485,-451.505 237.906,-461.477 246.922,-455.913 241.485,-451.505"/>
<text text-anchor="middle" x="409" y="-168" font-family="FreeSans" font-size="10.00"> name_</text>
</g>
<!-- Node9&#45;&gt;Node9 -->
<g id="edge24" class="edge"><title>Node9&#45;&gt;Node9</title>
<path fill="none" stroke="#9a32cd" stroke-dasharray="5,2" d="M206.885,-492.427C208.591,-497.349 215.963,-501 229,-501 249.859,-501 256.215,-491.653 248.067,-482.708"/>
<polygon fill="#9a32cd" stroke="#9a32cd" points="210.28,-493.297 209.933,-482.708 203.601,-491.202 210.28,-493.297"/>
<text text-anchor="middle" x="229" y="-505" font-family="FreeSans" font-size="10.00"> EMPTY</text>
</g>
<!-- Node9&#45;&gt;Node15 -->
<g id="edge64" class="edge"><title>Node9&#45;&gt;Node15</title>
<path fill="none" stroke="#9a32cd" stroke-dasharray="5,2" d="M283.357,-467.386C369.577,-461.335 542.613,-454.367 686,-481 750.138,-492.913 769.427,-495.259 824,-531 852.2,-549.469 877.386,-580.88 889.457,-597.293"/>
<polygon fill="#9a32cd" stroke="#9a32cd" points="283.001,-463.902 273.281,-468.117 283.508,-470.884 283.001,-463.902"/>
<text text-anchor="middle" x="587" y="-498" font-family="FreeSans" font-size="10.00"> appliedStyle_</text>
<text text-anchor="middle" x="587" y="-485" font-family="FreeSans" font-size="10.00">name_</text>
</g>
<!-- Node22 -->
<g id="node54" class="node"><title>Node22</title>
<a xlink:href="class_urho3_d_1_1_x_path_query.html" target="_top" xlink:title="XPath query.">
<polygon fill="none" stroke="black" points="529.5,-516.5 529.5,-537.5 644.5,-537.5 644.5,-516.5 529.5,-516.5"/>
<text text-anchor="middle" x="587" y="-524.5" font-family="FreeSans" font-size="10.00">Urho3D::XPathQuery</text>
</a>
</g>
<!-- Node9&#45;&gt;Node22 -->
<g id="edge68" class="edge"><title>Node9&#45;&gt;Node22</title>
<path fill="none" stroke="#9a32cd" stroke-dasharray="5,2" d="M283.505,-480.374C349.862,-490.568 461.44,-507.71 529.238,-518.126"/>
<polygon fill="#9a32cd" stroke="#9a32cd" points="283.672,-476.858 273.257,-478.799 282.609,-483.777 283.672,-476.858"/>
<text text-anchor="middle" x="409" y="-512" font-family="FreeSans" font-size="10.00"> queryString_</text>
</g>
<!-- Node10 -->
<g id="node22" class="node"><title>Node10</title>
<a xlink:href="class_urho3_d_1_1_string_hash.html" target="_top" xlink:title="32&#45;bit hash value for a string.">
<polygon fill="none" stroke="black" points="172.5,-0.5 172.5,-21.5 285.5,-21.5 285.5,-0.5 172.5,-0.5"/>
<text text-anchor="middle" x="229" y="-8.5" font-family="FreeSans" font-size="10.00">Urho3D::StringHash</text>
</a>
</g>
<!-- Node10&#45;&gt;Node6 -->
<g id="edge26" class="edge"><title>Node10&#45;&gt;Node6</title>
<path fill="none" stroke="#9a32cd" stroke-dasharray="5,2" d="M295.758,-22.7067C344.715,-32.2041 412.41,-47.2507 470,-67 505.34,-79.1192 544.362,-98.4064 567.223,-110.352"/>
<polygon fill="#9a32cd" stroke="#9a32cd" points="296.396,-19.2653 285.916,-20.8231 295.08,-26.1405 296.396,-19.2653"/>
<text text-anchor="middle" x="409" y="-71" font-family="FreeSans" font-size="10.00"> nameHash_</text>
</g>
<!-- Node10&#45;&gt;Node10 -->
<g id="edge28" class="edge"><title>Node10&#45;&gt;Node10</title>
<path fill="none" stroke="#9a32cd" stroke-dasharray="5,2" d="M206.885,-31.4266C208.591,-36.3489 215.963,-40 229,-40 249.859,-40 256.215,-30.6531 248.067,-21.7079"/>
<polygon fill="#9a32cd" stroke="#9a32cd" points="210.28,-32.297 209.933,-21.7079 203.601,-30.2023 210.28,-32.297"/>
<text text-anchor="middle" x="229" y="-44" font-family="FreeSans" font-size="10.00"> ZERO</text>
</g>
<!-- Node11 -->
<g id="node25" class="node"><title>Node11</title>
<a xlink:href="class_urho3_d_1_1_g_p_u_object.html" target="_top" xlink:title="Base class for GPU resources.">
<polygon fill="none" stroke="black" points="531.5,-173.5 531.5,-194.5 642.5,-194.5 642.5,-173.5 531.5,-173.5"/>
<text text-anchor="middle" x="587" y="-181.5" font-family="FreeSans" font-size="10.00">Urho3D::GPUObject</text>
</a>
</g>
<!-- Node11&#45;&gt;Node5 -->
<g id="edge30" class="edge"><title>Node11&#45;&gt;Node5</title>
<path fill="none" stroke="midnightblue" d="M652.761,-188.243C711.858,-192.055 797.203,-197.562 849.781,-200.954"/>
<polygon fill="midnightblue" stroke="midnightblue" points="652.984,-184.75 642.78,-187.599 652.534,-191.735 652.984,-184.75"/>
</g>
<!-- Node12 -->
<g id="node27" class="node"><title>Node12</title>
<a xlink:href="class_urho3_d_1_1_weak_ptr.html" target="_top" xlink:title="Urho3D::WeakPtr\&lt; Urho3D\l::Graphics \&gt;">
<polygon fill="none" stroke="red" points="156,-161 156,-195 302,-195 302,-161 156,-161"/>
<text text-anchor="start" x="164" y="-182" font-family="FreeSans" font-size="10.00">Urho3D::WeakPtr&lt; Urho3D</text>
<text text-anchor="middle" x="229" y="-169" font-family="FreeSans" font-size="10.00">::Graphics &gt;</text>
</a>
</g>
<!-- Node12&#45;&gt;Node11 -->
<g id="edge32" class="edge"><title>Node12&#45;&gt;Node11</title>
<path fill="none" stroke="#9a32cd" stroke-dasharray="5,2" d="M312.477,-179.399C379.857,-180.528 472.775,-182.086 531.363,-183.068"/>
<polygon fill="#9a32cd" stroke="#9a32cd" points="312.368,-175.897 302.311,-179.229 312.25,-182.896 312.368,-175.897"/>
<text text-anchor="middle" x="409" y="-186" font-family="FreeSans" font-size="10.00"> graphics_</text>
</g>
<!-- Node13&#45;&gt;Node5 -->
<g id="edge34" class="edge"><title>Node13&#45;&gt;Node5</title>
<path fill="none" stroke="#9a32cd" stroke-dasharray="5,2" d="M1055.68,-187.981C1053.1,-187.609 1050.53,-187.279 1048,-187 1013.54,-183.193 1004.44,-183.043 970,-187 958.494,-188.322 946.166,-190.78 934.977,-193.423"/>
<polygon fill="#9a32cd" stroke="#9a32cd" points="1055.28,-191.462 1065.71,-189.604 1056.4,-184.552 1055.28,-191.462"/>
<text text-anchor="middle" x="1009" y="-191" font-family="FreeSans" font-size="10.00"> backupTexture_</text>
</g>
<!-- Node14 -->
<g id="node32" class="node"><title>Node14</title>
<a xlink:href="class_urho3_d_1_1_color.html" target="_top" xlink:title="RGBA color.">
<polygon fill="none" stroke="black" points="545,-253.5 545,-274.5 629,-274.5 629,-253.5 545,-253.5"/>
<text text-anchor="middle" x="587" y="-261.5" font-family="FreeSans" font-size="10.00">Urho3D::Color</text>
</a>
</g>
<!-- Node14&#45;&gt;Node5 -->
<g id="edge38" class="edge"><title>Node14&#45;&gt;Node5</title>
<path fill="none" stroke="#9a32cd" stroke-dasharray="5,2" d="M638.975,-253.94C697.883,-242.539 793.073,-224.115 849.889,-213.118"/>
<polygon fill="#9a32cd" stroke="#9a32cd" points="638.283,-250.509 629.131,-255.846 639.614,-257.382 638.283,-250.509"/>
<text text-anchor="middle" x="764" y="-246" font-family="FreeSans" font-size="10.00"> borderColor_</text>
</g>
<!-- Node14&#45;&gt;Node14 -->
<g id="edge40" class="edge"><title>Node14&#45;&gt;Node14</title>
<path fill="none" stroke="#9a32cd" stroke-dasharray="5,2" d="M554.252,-283.679C556.007,-288.975 566.923,-293 587,-293 617.594,-293 626.915,-283.653 614.965,-274.708"/>
<polygon fill="#9a32cd" stroke="#9a32cd" points="557.419,-285.179 559.035,-274.708 551.242,-281.885 557.419,-285.179"/>
<text text-anchor="middle" x="587" y="-427" font-family="FreeSans" font-size="10.00"> CYAN</text>
<text text-anchor="middle" x="587" y="-414" font-family="FreeSans" font-size="10.00">GRAY</text>
<text text-anchor="middle" x="587" y="-401" font-family="FreeSans" font-size="10.00">YELLOW</text>
<text text-anchor="middle" x="587" y="-388" font-family="FreeSans" font-size="10.00">MAGENTA</text>
<text text-anchor="middle" x="587" y="-375" font-family="FreeSans" font-size="10.00">WHITE</text>
<text text-anchor="middle" x="587" y="-362" font-family="FreeSans" font-size="10.00">TRANSPARENT</text>
<text text-anchor="middle" x="587" y="-349" font-family="FreeSans" font-size="10.00">BLUE</text>
<text text-anchor="middle" x="587" y="-336" font-family="FreeSans" font-size="10.00">BLACK</text>
<text text-anchor="middle" x="587" y="-323" font-family="FreeSans" font-size="10.00">RED</text>
<text text-anchor="middle" x="587" y="-310" font-family="FreeSans" font-size="10.00">GREEN</text>
<text text-anchor="middle" x="587" y="-297" font-family="FreeSans" font-size="10.00">...</text>
</g>
<!-- Node14&#45;&gt;Node15 -->
<g id="edge76" class="edge"><title>Node14&#45;&gt;Node15</title>
<path fill="none" stroke="#9a32cd" stroke-dasharray="5,2" d="M618.849,-279.126C668.86,-304.335 766.065,-359.42 824,-432 866.925,-485.775 888.288,-568.353 894.79,-597.429"/>
<polygon fill="#9a32cd" stroke="#9a32cd" points="620.304,-275.941 609.791,-274.628 617.191,-282.211 620.304,-275.941"/>
<text text-anchor="middle" x="764" y="-449" font-family="FreeSans" font-size="10.00"> derivedColor_</text>
<text text-anchor="middle" x="764" y="-436" font-family="FreeSans" font-size="10.00">color_</text>
</g>
<!-- Node15&#45;&gt;Node1 -->
<g id="edge42" class="edge"><title>Node15&#45;&gt;Node1</title>
<path fill="none" stroke="#9a32cd" stroke-dasharray="5,2" d="M911.811,-626.726C955.305,-681.716 1081.72,-841.544 1115.58,-884.349"/>
<polygon fill="#9a32cd" stroke="#9a32cd" points="914.297,-624.227 905.348,-618.555 908.807,-628.569 914.297,-624.227"/>
<text text-anchor="middle" x="1009" y="-798" font-family="FreeSans" font-size="10.00"> element_</text>
</g>
<!-- Node15&#45;&gt;Node15 -->
<g id="edge62" class="edge"><title>Node15&#45;&gt;Node15</title>
<path fill="none" stroke="#9a32cd" stroke-dasharray="5,2" d="M876.36,-628.427C877.952,-633.349 884.832,-637 897,-637 916.469,-637 922.401,-627.653 914.796,-618.708"/>
<polygon fill="#9a32cd" stroke="#9a32cd" points="879.754,-629.288 879.204,-618.708 873.036,-627.322 879.754,-629.288"/>
<text text-anchor="middle" x="897" y="-641" font-family="FreeSans" font-size="10.00"> parent_</text>
</g>
<!-- Node16 -->
<g id="node37" class="node"><title>Node16</title>
<a xlink:href="class_urho3_d_1_1_animatable.html" target="_top" xlink:title="Base class for animatable object, an animatable object can be set animation on it&#39;s attributes...">
<polygon fill="none" stroke="red" points="530,-213.5 530,-234.5 644,-234.5 644,-213.5 530,-213.5"/>
<text text-anchor="middle" x="587" y="-221.5" font-family="FreeSans" font-size="10.00">Urho3D::Animatable</text>
</a>
</g>
<!-- Node16&#45;&gt;Node15 -->
<g id="edge44" class="edge"><title>Node16&#45;&gt;Node15</title>
<path fill="none" stroke="midnightblue" d="M654.093,-232.848C665.061,-235.613 676.073,-239.241 686,-244 695.39,-248.502 695.417,-253.103 704,-259 754.346,-293.59 786.672,-277.649 824,-326 858.458,-370.634 888.276,-551.49 895.391,-597.375"/>
<polygon fill="midnightblue" stroke="midnightblue" points="654.595,-229.373 644.066,-230.544 653.028,-236.195 654.595,-229.373"/>
</g>
<!-- Node17&#45;&gt;Node16 -->
<g id="edge46" class="edge"><title>Node17&#45;&gt;Node16</title>
<path fill="none" stroke="midnightblue" d="M296.209,-224C363.582,-224 466.188,-224 529.785,-224"/>
<polygon fill="midnightblue" stroke="midnightblue" points="296.122,-220.5 286.122,-224 296.122,-227.5 296.122,-220.5"/>
</g>
<!-- Node18 -->
<g id="node42" class="node"><title>Node18</title>
<a xlink:href="class_urho3_d_1_1_hash_map.html" target="_top" xlink:title="Urho3D::HashMap\&lt; Urho3D\l::String, Urho3D::SharedPtr\l\&lt; Urho3D::AttributeAnimationInfo \&gt; \&gt;">
<polygon fill="none" stroke="red" points="128.5,-253.5 128.5,-300.5 329.5,-300.5 329.5,-253.5 128.5,-253.5"/>
<text text-anchor="start" x="136.5" y="-287.5" font-family="FreeSans" font-size="10.00">Urho3D::HashMap&lt; Urho3D</text>
<text text-anchor="start" x="136.5" y="-274.5" font-family="FreeSans" font-size="10.00">::String, Urho3D::SharedPtr</text>
<text text-anchor="middle" x="229" y="-261.5" font-family="FreeSans" font-size="10.00">&lt; Urho3D::AttributeAnimationInfo &gt; &gt;</text>
</a>
</g>
<!-- Node18&#45;&gt;Node16 -->
<g id="edge50" class="edge"><title>Node18&#45;&gt;Node16</title>
<path fill="none" stroke="#9a32cd" stroke-dasharray="5,2" d="M339.663,-260.617C402.639,-251.294 478.893,-240.005 529.935,-232.448"/>
<polygon fill="#9a32cd" stroke="#9a32cd" points="339.055,-257.169 329.676,-262.096 340.08,-264.093 339.055,-257.169"/>
<text text-anchor="middle" x="409" y="-263" font-family="FreeSans" font-size="10.00"> attributeAnimationInfos_</text>
</g>
<!-- Node19 -->
<g id="node45" class="node"><title>Node19</title>
<a xlink:href="class_urho3_d_1_1_vector.html" target="_top" xlink:title="Urho3D::Vector\&lt; Urho3D\l::SharedPtr\&lt; Urho3D::UIElement \&gt; \&gt;">
<polygon fill="none" stroke="black" points="488.5,-660 488.5,-694 685.5,-694 685.5,-660 488.5,-660"/>
<text text-anchor="start" x="496.5" y="-681" font-family="FreeSans" font-size="10.00">Urho3D::Vector&lt; Urho3D</text>
<text text-anchor="middle" x="587" y="-668" font-family="FreeSans" font-size="10.00">::SharedPtr&lt; Urho3D::UIElement &gt; &gt;</text>
</a>
</g>
<!-- Node19&#45;&gt;Node15 -->
<g id="edge54" class="edge"><title>Node19&#45;&gt;Node15</title>
<path fill="none" stroke="#9a32cd" stroke-dasharray="5,2" d="M664.034,-657.292C671.476,-655.231 678.894,-653.115 686,-651 694.082,-648.594 695.841,-647.132 704,-645 756.54,-631.273 770.667,-632.225 824,-622 829.957,-620.858 836.187,-619.663 842.389,-618.474"/>
<polygon fill="#9a32cd" stroke="#9a32cd" points="662.986,-653.95 654.264,-659.964 664.833,-660.702 662.986,-653.95"/>
<text text-anchor="middle" x="764" y="-649" font-family="FreeSans" font-size="10.00"> children_</text>
</g>
<!-- Node20 -->
<g id="node47" class="node"><title>Node20</title>
<a xlink:href="class_urho3_d_1_1_vector_base.html" target="_top" xlink:title="Vector base class.">
<polygon fill="none" stroke="black" points="172,-933.5 172,-954.5 286,-954.5 286,-933.5 172,-933.5"/>
<text text-anchor="middle" x="229" y="-941.5" font-family="FreeSans" font-size="10.00">Urho3D::VectorBase</text>
</a>
</g>
<!-- Node20&#45;&gt;Node19 -->
<g id="edge56" class="edge"><title>Node20&#45;&gt;Node19</title>
<path fill="none" stroke="midnightblue" d="M243.428,-925.312C279.486,-879.935 378.531,-763.247 488,-703 494.149,-699.616 500.758,-696.657 507.538,-694.072"/>
<polygon fill="midnightblue" stroke="midnightblue" points="240.499,-923.374 237.072,-933.399 246.003,-927.699 240.499,-923.374"/>
</g>
<!-- Node25 -->
<g id="node63" class="node"><title>Node25</title>
<a xlink:href="class_urho3_d_1_1_p_o_d_vector.html" target="_top" xlink:title="Urho3D::PODVector\&lt;\l float \&gt;">
<polygon fill="none" stroke="black" points="704.5,-1081 704.5,-1115 823.5,-1115 823.5,-1081 704.5,-1081"/>
<text text-anchor="start" x="712.5" y="-1102" font-family="FreeSans" font-size="10.00">Urho3D::PODVector&lt;</text>
<text text-anchor="middle" x="764" y="-1089" font-family="FreeSans" font-size="10.00"> float &gt;</text>
</a>
</g>
<!-- Node20&#45;&gt;Node25 -->
<g id="edge80" class="edge"><title>Node20&#45;&gt;Node25</title>
<path fill="none" stroke="midnightblue" d="M275.617,-957.419C372.946,-985.435 597.6,-1050.1 704.886,-1080.98"/>
<polygon fill="midnightblue" stroke="midnightblue" points="276.351,-953.988 265.773,-954.585 274.414,-960.715 276.351,-953.988"/>
</g>
<!-- Node21 -->
<g id="node50" class="node"><title>Node21</title>
<a xlink:href="class_urho3_d_1_1_hash_map.html" target="_top" xlink:title="Urho3D::HashMap\&lt; StringHash,\l Variant \&gt;">
<polygon fill="none" stroke="red" points="501,-608 501,-642 673,-642 673,-608 501,-608"/>
<text text-anchor="start" x="509" y="-629" font-family="FreeSans" font-size="10.00">Urho3D::HashMap&lt; StringHash,</text>
<text text-anchor="middle" x="587" y="-616" font-family="FreeSans" font-size="10.00"> Variant &gt;</text>
</a>
</g>
<!-- Node21&#45;&gt;Node15 -->
<g id="edge60" class="edge"><title>Node21&#45;&gt;Node15</title>
<path fill="none" stroke="#9a32cd" stroke-dasharray="5,2" d="M683.356,-610.81C690.331,-610.094 697.267,-609.476 704,-609 750.627,-605.705 803.747,-605.704 842.438,-606.386"/>
<polygon fill="#9a32cd" stroke="#9a32cd" points="682.689,-607.361 673.126,-611.923 683.446,-614.32 682.689,-607.361"/>
<text text-anchor="middle" x="764" y="-613" font-family="FreeSans" font-size="10.00"> vars_</text>
</g>
<!-- Node22&#45;&gt;Node15 -->
<g id="edge66" class="edge"><title>Node22&#45;&gt;Node15</title>
<path fill="none" stroke="#9a32cd" stroke-dasharray="5,2" d="M654.778,-529.045C703.236,-532.329 769.284,-540.576 824,-561 847.018,-569.592 870.319,-586.297 884.211,-597.3"/>
<polygon fill="#9a32cd" stroke="#9a32cd" points="654.914,-525.547 644.716,-528.417 654.478,-532.533 654.914,-525.547"/>
<text text-anchor="middle" x="764" y="-565" font-family="FreeSans" font-size="10.00"> styleXPathQuery_</text>
</g>
<!-- Node23 -->
<g id="node57" class="node"><title>Node23</title>
<a xlink:href="class_urho3_d_1_1_shared_ptr.html" target="_top" xlink:title="Urho3D::SharedPtr\&lt;\l Urho3D::XMLFile \&gt;">
<polygon fill="none" stroke="red" points="529,-556 529,-590 645,-590 645,-556 529,-556"/>
<text text-anchor="start" x="537" y="-577" font-family="FreeSans" font-size="10.00">Urho3D::SharedPtr&lt;</text>
<text text-anchor="middle" x="587" y="-564" font-family="FreeSans" font-size="10.00"> Urho3D::XMLFile &gt;</text>
</a>
</g>
<!-- Node23&#45;&gt;Node15 -->
<g id="edge70" class="edge"><title>Node23&#45;&gt;Node15</title>
<path fill="none" stroke="#9a32cd" stroke-dasharray="5,2" d="M655.442,-574.829C702.968,-576.85 767.628,-581.095 824,-590 835.604,-591.833 848.071,-594.602 859.361,-597.422"/>
<polygon fill="#9a32cd" stroke="#9a32cd" points="655.399,-571.324 645.267,-574.419 655.118,-578.319 655.399,-571.324"/>
<text text-anchor="middle" x="764" y="-594" font-family="FreeSans" font-size="10.00"> defaultStyle_</text>
</g>
<!-- Node24 -->
<g id="node59" class="node"><title>Node24</title>
<a xlink:href="class_urho3_d_1_1_int_vector2.html" target="_top" xlink:title="Two&#45;dimensional vector with integer values.">
<polygon fill="none" stroke="black" points="533,-712.5 533,-733.5 641,-733.5 641,-712.5 533,-712.5"/>
<text text-anchor="middle" x="587" y="-720.5" font-family="FreeSans" font-size="10.00">Urho3D::IntVector2</text>
</a>
</g>
<!-- Node24&#45;&gt;Node15 -->
<g id="edge72" class="edge"><title>Node24&#45;&gt;Node15</title>
<path fill="none" stroke="#9a32cd" stroke-dasharray="5,2" d="M651.232,-716.689C663.347,-713.689 675.498,-709.327 686,-703 696.822,-696.481 693.146,-687.465 704,-681 750.655,-653.21 773.877,-678.894 824,-658 847.537,-648.188 871.244,-630.078 885.004,-618.556"/>
<polygon fill="#9a32cd" stroke="#9a32cd" points="650.124,-713.348 641.1,-718.901 651.617,-720.187 650.124,-713.348"/>
<text text-anchor="middle" x="764" y="-763" font-family="FreeSans" font-size="10.00"> maxSize_</text>
<text text-anchor="middle" x="764" y="-750" font-family="FreeSans" font-size="10.00">childOffset_</text>
<text text-anchor="middle" x="764" y="-737" font-family="FreeSans" font-size="10.00">size_</text>
<text text-anchor="middle" x="764" y="-724" font-family="FreeSans" font-size="10.00">position_</text>
<text text-anchor="start" x="729" y="-711" font-family="FreeSans" font-size="10.00">screenPosition</text>
<text text-anchor="middle" x="764" y="-698" font-family="FreeSans" font-size="10.00">_</text>
<text text-anchor="middle" x="764" y="-685" font-family="FreeSans" font-size="10.00">minSize_</text>
</g>
<!-- Node24&#45;&gt;Node24 -->
<g id="edge74" class="edge"><title>Node24&#45;&gt;Node24</title>
<path fill="none" stroke="#9a32cd" stroke-dasharray="5,2" d="M554.252,-742.679C556.007,-747.975 566.923,-752 587,-752 617.594,-752 626.915,-742.653 614.965,-733.708"/>
<polygon fill="#9a32cd" stroke="#9a32cd" points="557.419,-744.179 559.035,-733.708 551.242,-740.885 557.419,-744.179"/>
<text text-anchor="middle" x="587" y="-756" font-family="FreeSans" font-size="10.00"> ZERO</text>
</g>
<!-- Node25&#45;&gt;Node1 -->
<g id="edge78" class="edge"><title>Node25&#45;&gt;Node1</title>
<path fill="none" stroke="#9a32cd" stroke-dasharray="5,2" d="M833.737,-1115.01C870.569,-1120.43 915.561,-1121.2 952,-1104 1043.79,-1060.66 1103.13,-941.668 1119.44,-905.539"/>
<polygon fill="#9a32cd" stroke="#9a32cd" points="834.009,-1111.51 823.579,-1113.37 832.893,-1118.42 834.009,-1111.51"/>
<text text-anchor="middle" x="897" y="-1122" font-family="FreeSans" font-size="10.00"> vertexData_</text>
</g>
</g>
</svg>
        <g id="navigator" transform="translate(0 0)" fill="#404254">
                <rect fill="#f2f5e9" fill-opacity="0.5" stroke="#606060" stroke-width=".5" x="0" y="0" width="60" height="60"/>
                <use id="zoomplus" xlink:href="#zoomPlus" x="17" y="9" onmousedown="handleZoom(evt,'in')"/>
                <use id="zoomminus" xlink:href="#zoomMin" x="42" y="9" onmousedown="handleZoom(evt,'out')"/>
                <use id="reset" xlink:href="#resetDef" x="30" y="36" onmousedown="handleReset()"/>
                <g id="arrowUp" xlink:href="#dirArrow" transform="translate(30 24)" onmousedown="handlePan(0,-1)">
                  <use xlink:href="#rim" fill="#404040">
                        <set attributeName="fill" to="#808080" begin="arrowUp.mouseover" end="arrowUp.mouseout"/>
                  </use>
                  <path fill="none" stroke="white" stroke-width="1.5" d="M0,-3.0v7 M-2.5,-0.5L0,-3.0L2.5,-0.5"/>
                </g>
                <g id="arrowRight" xlink:href="#dirArrow" transform="rotate(90) translate(36 -43)" onmousedown="handlePan(1,0)">
                  <use xlink:href="#rim" fill="#404040">
                        <set attributeName="fill" to="#808080" begin="arrowRight.mouseover" end="arrowRight.mouseout"/>
                  </use>
                  <path fill="none" stroke="white" stroke-width="1.5" d="M0,-3.0v7 M-2.5,-0.5L0,-3.0L2.5,-0.5"/>
                </g>
                <g id="arrowDown" xlink:href="#dirArrow" transform="rotate(180) translate(-30 -48)" onmousedown="handlePan(0,1)">
                  <use xlink:href="#rim" fill="#404040">
                        <set attributeName="fill" to="#808080" begin="arrowDown.mouseover" end="arrowDown.mouseout"/>
                  </use>
                  <path fill="none" stroke="white" stroke-width="1.5" d="M0,-3.0v7 M-2.5,-0.5L0,-3.0L2.5,-0.5"/>
                </g>
                <g id="arrowLeft" xlink:href="#dirArrow" transform="rotate(270) translate(-36 17)" onmousedown="handlePan(-1,0)">
                  <use xlink:href="#rim" fill="#404040">
                        <set attributeName="fill" to="#808080" begin="arrowLeft.mouseover" end="arrowLeft.mouseout"/>
                  </use>
                  <path fill="none" stroke="white" stroke-width="1.5" d="M0,-3.0v7 M-2.5,-0.5L0,-3.0L2.5,-0.5"/>
                </g>
        </g>
        <svg viewBox="0 0 15 15" width="100%" height="30px" preserveAspectRatio="xMaxYMin meet">
         <g id="arrow_out" transform="scale(0.3 0.3)">
          <a xlink:href="class_urho3_d_1_1_u_i_batch__coll__graph_org.svg" target="_base">
           <rect id="button" ry="5" rx="5" y="6" x="6" height="38" width="38"
                fill="#f2f5e9" fill-opacity="0.5" stroke="#606060" stroke-width="1.0"/>
           <path id="arrow"
             d="M 11.500037,31.436501 C 11.940474,20.09759 22.043105,11.32322 32.158766,21.979434 L 37.068811,17.246167 C 37.068811,17.246167 37.088388,32 37.088388,32 L 22.160133,31.978069 C 22.160133,31.978069 26.997745,27.140456 26.997745,27.140456 C 18.528582,18.264221 13.291696,25.230495 11.500037,31.436501 z"
             style="fill:#404040;"/>
          </a>
         </g>
        </svg>
</svg>
