<?xml version="1.0" encoding="UTF-8" standalone="no"?>
<!DOCTYPE svg PUBLIC "-//W3C//DTD SVG 1.1//EN"
 "http://www.w3.org/Graphics/SVG/1.1/DTD/svg11.dtd">
<!-- Generated by graphviz version 2.26.3 (20100126.1600)
 -->
<!-- Title: Urho3D::ShaderVariation::LoadByteCode Pages: 1 -->
<!--zoomable 501 -->
<svg id="main" version="1.1" xmlns="http://www.w3.org/2000/svg" xmlns:xlink="http://www.w3.org/1999/xlink" xml:space="preserve" onload="init(evt)">
        <defs>
                <circle id="rim" cx="0" cy="0" r="7"/>
                <circle id="rim2" cx="0" cy="0" r="3.5"/>
                <g id="zoomPlus">
                        <use xlink:href="#rim" fill="#404040">
                                <set attributeName="fill" to="#808080" begin="zoomplus.mouseover" end="zoomplus.mouseout"/>
                        </use>
                        <path d="M-4,0h8M0,-4v8" fill="none" stroke="white" stroke-width="1.5" pointer-events="none"/>
                </g>
                <g id="zoomMin">
                        <use xlink:href="#rim" fill="#404040">
                                <set attributeName="fill" to="#808080" begin="zoomminus.mouseover" end="zoomminus.mouseout"/>
                        </use>
                        <path d="M-4,0h8" fill="none" stroke="white" stroke-width="1.5" pointer-events="none"/>
                </g>
                <g id="dirArrow">
                        <path fill="none" stroke="white" stroke-width="1.5" d="M0,-3.0v7 M-2.5,-0.5L0,-3.0L2.5,-0.5"/>
                </g>
               <g id="resetDef">
                       <use xlink:href="#rim2" fill="#404040">
                               <set attributeName="fill" to="#808080" begin="reset.mouseover" end="reset.mouseout"/>
                       </use>
               </g>
        </defs>

<script type="text/javascript">
var viewWidth = 1240;
var viewHeight = 501;
var sectionId = 'dynsection-2';
</script>
<script xlink:href="svgpan.js"/>
<svg id="graph" class="graph">
<g id="viewport">
<title>Urho3D::ShaderVariation::LoadByteCode</title>
<!-- Node1 -->
<g id="node1" class="node"><title>Node1</title>
<polygon fill="#bfbfbf" stroke="black" points="0,-210 0,-244 136,-244 136,-210 0,-210"/>
<text text-anchor="start" x="8" y="-231" font-family="FreeSans" font-size="10.00">Urho3D::ShaderVariation</text>
<text text-anchor="middle" x="68" y="-218" font-family="FreeSans" font-size="10.00">::LoadByteCode</text>
</g>
<!-- Node2 -->
<g id="node3" class="node"><title>Node2</title>
<a xlink:href="class_urho3_d_1_1_resource_cache.html#a94659e6c04c0bb9791019913b7866252" target="_top" xlink:title="Return whether a file exists by name.">
<polygon fill="none" stroke="black" points="570.5,-300 570.5,-334 703.5,-334 703.5,-300 570.5,-300"/>
<text text-anchor="start" x="578.5" y="-321" font-family="FreeSans" font-size="10.00">Urho3D::ResourceCache</text>
<text text-anchor="middle" x="637" y="-308" font-family="FreeSans" font-size="10.00">::Exists</text>
</a>
</g>
<!-- Node1&#45;&gt;Node2 -->
<g id="edge2" class="edge"><title>Node1&#45;&gt;Node2</title>
<path fill="none" stroke="midnightblue" d="M100.581,-244.004C155.012,-271.349 268.67,-323.955 372,-343 442.807,-356.05 462.55,-351.879 534,-343 545.796,-341.534 558.182,-339.158 570.112,-336.424"/>
<polygon fill="midnightblue" stroke="midnightblue" points="571.093,-339.788 580.003,-334.054 569.463,-332.98 571.093,-339.788"/>
</g>
<!-- Node15 -->
<g id="node35" class="node"><title>Node15</title>
<a xlink:href="class_urho3_d_1_1_file_system.html#ab597bbe58fed7bbc825c8c01f5b2d60c" target="_top" xlink:title="Returns the file&#39;s last modified time as seconds since 1.1.1970, or 0 if can not be accessed...">
<polygon fill="none" stroke="black" points="746.5,-440 746.5,-474 869.5,-474 869.5,-440 746.5,-440"/>
<text text-anchor="start" x="754.5" y="-461" font-family="FreeSans" font-size="10.00">Urho3D::FileSystem</text>
<text text-anchor="middle" x="808" y="-448" font-family="FreeSans" font-size="10.00">::GetLastModifiedTime</text>
</a>
</g>
<!-- Node1&#45;&gt;Node15 -->
<g id="edge40" class="edge"><title>Node1&#45;&gt;Node15</title>
<path fill="none" stroke="midnightblue" d="M76.1623,-244.016C90.9317,-272.811 124.978,-330.763 172,-359 352.495,-467.388 611.901,-469.305 736.228,-462.77"/>
<polygon fill="midnightblue" stroke="midnightblue" points="736.6,-466.255 746.389,-462.201 736.208,-459.266 736.6,-466.255"/>
</g>
<!-- Node16 -->
<g id="node40" class="node"><title>Node16</title>
<a xlink:href="class_urho3_d_1_1_resource_cache.html#a368d4a90b48e25ec5f245fda5e49bae3" target="_top" xlink:title="Return full absolute file name of resource if possible.">
<polygon fill="none" stroke="black" points="570.5,-362 570.5,-396 703.5,-396 703.5,-362 570.5,-362"/>
<text text-anchor="start" x="578.5" y="-383" font-family="FreeSans" font-size="10.00">Urho3D::ResourceCache</text>
<text text-anchor="middle" x="637" y="-370" font-family="FreeSans" font-size="10.00">::GetResourceFileName</text>
</a>
</g>
<!-- Node1&#45;&gt;Node16 -->
<g id="edge48" class="edge"><title>Node1&#45;&gt;Node16</title>
<path fill="none" stroke="midnightblue" d="M81.8469,-244.268C100.116,-265.801 134.388,-302.076 172,-321 296.987,-383.888 463.907,-388.455 560.008,-384.68"/>
<polygon fill="midnightblue" stroke="midnightblue" points="560.386,-388.167 570.225,-384.236 560.083,-381.173 560.386,-388.167"/>
</g>
<!-- Node17 -->
<g id="node44" class="node"><title>Node17</title>
<a xlink:href="class_urho3_d_1_1_resource_cache.html#a7a8fddc0e1561115c557850f6751f76b" target="_top" xlink:title="Open and return a file from the resource load paths or from inside a package file. If not found, use a fallback search with absolute path. Return null if fails. Can be called from outside the main thread.">
<polygon fill="none" stroke="black" points="187.5,-210 187.5,-244 320.5,-244 320.5,-210 187.5,-210"/>
<text text-anchor="start" x="195.5" y="-231" font-family="FreeSans" font-size="10.00">Urho3D::ResourceCache</text>
<text text-anchor="middle" x="254" y="-218" font-family="FreeSans" font-size="10.00">::GetFile</text>
</a>
</g>
<!-- Node1&#45;&gt;Node17 -->
<g id="edge54" class="edge"><title>Node1&#45;&gt;Node17</title>
<path fill="none" stroke="midnightblue" d="M136.203,-227C149.505,-227 163.537,-227 177.098,-227"/>
<polygon fill="midnightblue" stroke="midnightblue" points="177.357,-230.5 187.357,-227 177.357,-223.5 177.357,-230.5"/>
</g>
<!-- Node23 -->
<g id="node62" class="node"><title>Node23</title>
<a xlink:href="class_urho3_d_1_1_p_o_d_vector.html#a90931bab46c47be9f1989f4ec86bd487" target="_top" xlink:title="Resize the vector.">
<polygon fill="none" stroke="black" points="195.5,-158 195.5,-192 312.5,-192 312.5,-158 195.5,-158"/>
<text text-anchor="start" x="203.5" y="-179" font-family="FreeSans" font-size="10.00">Urho3D::PODVector::</text>
<text text-anchor="middle" x="254" y="-166" font-family="FreeSans" font-size="10.00">Resize</text>
</a>
</g>
<!-- Node1&#45;&gt;Node23 -->
<g id="edge78" class="edge"><title>Node1&#45;&gt;Node23</title>
<path fill="none" stroke="midnightblue" d="M128.903,-209.973C147.044,-204.902 167.043,-199.311 185.627,-194.115"/>
<polygon fill="midnightblue" stroke="midnightblue" points="186.803,-197.421 195.491,-191.357 184.918,-190.679 186.803,-197.421"/>
</g>
<!-- Node24 -->
<g id="node64" class="node"><title>Node24</title>
<a xlink:href="class_urho3_d_1_1_shader_variation.html#a6da1356b18b052d0413ff106934103fc" target="_top" xlink:title="Return full shader name.">
<polygon fill="none" stroke="black" points="186,-106 186,-140 322,-140 322,-106 186,-106"/>
<text text-anchor="start" x="194" y="-127" font-family="FreeSans" font-size="10.00">Urho3D::ShaderVariation</text>
<text text-anchor="middle" x="254" y="-114" font-family="FreeSans" font-size="10.00">::GetFullName</text>
</a>
</g>
<!-- Node1&#45;&gt;Node24 -->
<g id="edge80" class="edge"><title>Node1&#45;&gt;Node24</title>
<path fill="none" stroke="midnightblue" d="M86.6188,-209.941C106.478,-192.522 139.49,-165.73 172,-149 175.486,-147.206 179.119,-145.507 182.833,-143.901"/>
<polygon fill="midnightblue" stroke="midnightblue" points="184.241,-147.107 192.191,-140.104 181.609,-140.621 184.241,-147.107"/>
</g>
<!-- Node25 -->
<g id="node66" class="node"><title>Node25</title>
<a xlink:href="class_urho3_d_1_1_shader_variation.html#ae0244988b02aaf541a0e6d38f01c4998" target="_top" xlink:title="Calculate constant buffer sizes from parameters.">
<polygon fill="none" stroke="black" points="172,-54 172,-88 336,-88 336,-54 172,-54"/>
<text text-anchor="start" x="180" y="-75" font-family="FreeSans" font-size="10.00">Urho3D::ShaderVariation</text>
<text text-anchor="middle" x="254" y="-62" font-family="FreeSans" font-size="10.00">::CalculateConstantBufferSizes</text>
</a>
</g>
<!-- Node1&#45;&gt;Node25 -->
<g id="edge82" class="edge"><title>Node1&#45;&gt;Node25</title>
<path fill="none" stroke="midnightblue" d="M77.1335,-209.98C92.8602,-182.264 127.677,-127.424 172,-97 174.155,-95.5209 176.398,-94.1226 178.708,-92.8008"/>
<polygon fill="midnightblue" stroke="midnightblue" points="180.607,-95.7599 187.899,-88.0737 177.406,-89.5349 180.607,-95.7599"/>
</g>
<!-- Node3 -->
<g id="node5" class="node"><title>Node3</title>
<a xlink:href="class_urho3_d_1_1_resource_cache.html#acaf617b205d693cd493febfc01c330a8" target="_top" xlink:title="Remove unsupported constructs from the resource name to prevent ambiguity, and normalize absolute fil...">
<polygon fill="none" stroke="black" points="740,-111 740,-145 876,-145 876,-111 740,-111"/>
<text text-anchor="start" x="748" y="-132" font-family="FreeSans" font-size="10.00">Urho3D::ResourceCache</text>
<text text-anchor="middle" x="808" y="-119" font-family="FreeSans" font-size="10.00">::SanitateResourceName</text>
</a>
</g>
<!-- Node2&#45;&gt;Node3 -->
<g id="edge4" class="edge"><title>Node2&#45;&gt;Node3</title>
<path fill="none" stroke="midnightblue" d="M690.685,-299.833C695.42,-297.253 699.947,-294.322 704,-291 716.241,-280.969 766.885,-197.261 792.709,-153.87"/>
<polygon fill="midnightblue" stroke="midnightblue" points="795.723,-155.649 797.82,-145.264 789.704,-152.075 795.723,-155.649"/>
</g>
<!-- Node5 -->
<g id="node9" class="node"><title>Node5</title>
<a xlink:href="class_urho3_d_1_1_vector.html#a06762e9e70b9851f54a845555f28cd4b" target="_top" xlink:title="Return size of vector.">
<polygon fill="none" stroke="black" points="926,-246.5 926,-267.5 1042,-267.5 1042,-246.5 926,-246.5"/>
<text text-anchor="middle" x="984" y="-254.5" font-family="FreeSans" font-size="10.00">Urho3D::Vector::Size</text>
</a>
</g>
<!-- Node2&#45;&gt;Node5 -->
<g id="edge30" class="edge"><title>Node2&#45;&gt;Node5</title>
<path fill="none" stroke="midnightblue" d="M679.988,-299.973C698.229,-293.385 719.887,-286.389 740,-282 798.456,-269.245 866.247,-262.96 915.516,-259.886"/>
<polygon fill="midnightblue" stroke="midnightblue" points="915.964,-263.365 925.739,-259.277 915.548,-256.378 915.964,-263.365"/>
</g>
<!-- Node7 -->
<g id="node13" class="node"><title>Node7</title>
<a xlink:href="class_urho3_d_1_1_string.html#a69ac7aadaa628fc05fc96abde992fcdc" target="_top" xlink:title="Return whether the string is empty.">
<polygon fill="none" stroke="black" points="1099.5,-246.5 1099.5,-267.5 1224.5,-267.5 1224.5,-246.5 1099.5,-246.5"/>
<text text-anchor="middle" x="1162" y="-254.5" font-family="FreeSans" font-size="10.00">Urho3D::String::Empty</text>
</a>
</g>
<!-- Node2&#45;&gt;Node7 -->
<g id="edge28" class="edge"><title>Node2&#45;&gt;Node7</title>
<path fill="none" stroke="midnightblue" d="M703.622,-312.526C786.467,-306.53 932.1,-294.565 1056,-277 1070.76,-274.907 1086.6,-272.181 1101.41,-269.418"/>
<polygon fill="midnightblue" stroke="midnightblue" points="1102.3,-272.812 1111.47,-267.507 1101,-265.934 1102.3,-272.812"/>
</g>
<!-- Node13 -->
<g id="node29" class="node"><title>Node13</title>
<a xlink:href="class_urho3_d_1_1_file_system.html#a0372e5805f0266e27aae75dbe501733c" target="_top" xlink:title="Check if a file exists.">
<polygon fill="none" stroke="black" points="752.5,-362 752.5,-396 863.5,-396 863.5,-362 752.5,-362"/>
<text text-anchor="start" x="760.5" y="-383" font-family="FreeSans" font-size="10.00">Urho3D::FileSystem</text>
<text text-anchor="middle" x="808" y="-370" font-family="FreeSans" font-size="10.00">::FileExists</text>
</a>
</g>
<!-- Node2&#45;&gt;Node13 -->
<g id="edge32" class="edge"><title>Node2&#45;&gt;Node13</title>
<path fill="none" stroke="midnightblue" d="M684.179,-334.106C705.019,-341.662 729.688,-350.606 751.501,-358.515"/>
<polygon fill="midnightblue" stroke="midnightblue" points="750.381,-361.832 760.975,-361.95 752.767,-355.251 750.381,-361.832"/>
</g>
<!-- Node4 -->
<g id="node7" class="node"><title>Node4</title>
<a xlink:href="class_urho3_d_1_1_string.html#ab08b5f1f7cee23f3e14eebcb2f7f8d4e" target="_top" xlink:title="Replace all occurrences of a character.">
<polygon fill="none" stroke="black" points="1096.5,-127.5 1096.5,-148.5 1227.5,-148.5 1227.5,-127.5 1096.5,-127.5"/>
<text text-anchor="middle" x="1162" y="-135.5" font-family="FreeSans" font-size="10.00">Urho3D::String::Replace</text>
</a>
</g>
<!-- Node3&#45;&gt;Node4 -->
<g id="edge6" class="edge"><title>Node3&#45;&gt;Node4</title>
<path fill="none" stroke="midnightblue" d="M876.255,-129.928C936.396,-131.627 1023.88,-134.098 1086.19,-135.858"/>
<polygon fill="midnightblue" stroke="midnightblue" points="1086.25,-139.362 1096.35,-136.145 1086.45,-132.364 1086.25,-139.362"/>
</g>
<!-- Node3&#45;&gt;Node5 -->
<g id="edge8" class="edge"><title>Node3&#45;&gt;Node5</title>
<path fill="none" stroke="midnightblue" d="M831.371,-145.13C865.191,-169.918 927.393,-215.51 961.002,-240.144"/>
<polygon fill="midnightblue" stroke="midnightblue" points="959.152,-243.127 969.286,-246.216 963.29,-237.481 959.152,-243.127"/>
</g>
<!-- Node6 -->
<g id="node11" class="node"><title>Node6</title>
<a xlink:href="class_urho3_d_1_1_file_system.html#a5d93365af462341ea8029827581854a6" target="_top" xlink:title="Return the program&#39;s directory. If it does not contain the Urho3D default CoreData and Data directori...">
<polygon fill="none" stroke="red" points="928.5,-156 928.5,-190 1039.5,-190 1039.5,-156 928.5,-156"/>
<text text-anchor="start" x="936.5" y="-177" font-family="FreeSans" font-size="10.00">Urho3D::FileSystem</text>
<text text-anchor="middle" x="984" y="-164" font-family="FreeSans" font-size="10.00">::GetProgramDir</text>
</a>
</g>
<!-- Node3&#45;&gt;Node6 -->
<g id="edge10" class="edge"><title>Node3&#45;&gt;Node6</title>
<path fill="none" stroke="midnightblue" d="M874.538,-145.013C888.933,-148.693 904.143,-152.582 918.498,-156.252"/>
<polygon fill="midnightblue" stroke="midnightblue" points="917.723,-159.667 928.279,-158.753 919.457,-152.885 917.723,-159.667"/>
</g>
<!-- Node9 -->
<g id="node18" class="node"><title>Node9</title>
<a xlink:href="class_urho3_d_1_1_string.html#a6dffd447850e4d687096a79dafe8bdac" target="_top" xlink:title="Return whether starts with a string.">
<polygon fill="none" stroke="red" points="912.5,-324.5 912.5,-345.5 1055.5,-345.5 1055.5,-324.5 912.5,-324.5"/>
<text text-anchor="middle" x="984" y="-332.5" font-family="FreeSans" font-size="10.00">Urho3D::String::StartsWith</text>
</a>
</g>
<!-- Node3&#45;&gt;Node9 -->
<g id="edge18" class="edge"><title>Node3&#45;&gt;Node9</title>
<path fill="none" stroke="midnightblue" d="M817.82,-145.24C834.807,-174.25 871.745,-233.878 912,-277 926.558,-292.595 945.408,-307.631 960.169,-318.485"/>
<polygon fill="midnightblue" stroke="midnightblue" points="958.165,-321.355 968.324,-324.364 962.259,-315.677 958.165,-321.355"/>
</g>
<!-- Node10 -->
<g id="node20" class="node"><title>Node10</title>
<a xlink:href="class_urho3_d_1_1_string.html#ade8095f1798d6e1d4ed03d43d9919611" target="_top" xlink:title="Return a substring from position to end.">
<polygon fill="none" stroke="red" points="1092,-69.5 1092,-90.5 1232,-90.5 1232,-69.5 1092,-69.5"/>
<text text-anchor="middle" x="1162" y="-77.5" font-family="FreeSans" font-size="10.00">Urho3D::String::Substring</text>
</a>
</g>
<!-- Node3&#45;&gt;Node10 -->
<g id="edge20" class="edge"><title>Node3&#45;&gt;Node10</title>
<path fill="none" stroke="midnightblue" d="M876.255,-118.745C934.968,-110.784 1019.75,-99.2886 1081.71,-90.887"/>
<polygon fill="midnightblue" stroke="midnightblue" points="1082.4,-94.3257 1091.84,-89.5137 1081.46,-87.3892 1082.4,-94.3257"/>
</g>
<!-- Node11 -->
<g id="node22" class="node"><title>Node11</title>
<a xlink:href="class_urho3_d_1_1_string.html#a11572e3c07f60de65ac5d0c1ca5b6ba3" target="_top" xlink:title="Return length.">
<polygon fill="none" stroke="black" points="920.5,-0.5 920.5,-21.5 1047.5,-21.5 1047.5,-0.5 920.5,-0.5"/>
<text text-anchor="middle" x="984" y="-8.5" font-family="FreeSans" font-size="10.00">Urho3D::String::Length</text>
</a>
</g>
<!-- Node3&#45;&gt;Node11 -->
<g id="edge22" class="edge"><title>Node3&#45;&gt;Node11</title>
<path fill="none" stroke="midnightblue" d="M836.367,-110.948C849.211,-102.507 864.138,-91.6387 876,-80 895.289,-61.0736 889.759,-46.349 912,-31 914.863,-29.0243 917.916,-27.243 921.088,-25.6372"/>
<polygon fill="midnightblue" stroke="midnightblue" points="922.56,-28.8133 930.283,-21.5602 919.722,-22.4141 922.56,-28.8133"/>
</g>
<!-- Node12 -->
<g id="node24" class="node"><title>Node12</title>
<a xlink:href="class_urho3_d_1_1_string.html#ad6a5f266f8164b6b1022f93a4e92eb92" target="_top" xlink:title="Return string with whitespace trimmed from the beginning and the end.">
<polygon fill="none" stroke="black" points="916.5,-40.5 916.5,-61.5 1051.5,-61.5 1051.5,-40.5 916.5,-40.5"/>
<text text-anchor="middle" x="984" y="-48.5" font-family="FreeSans" font-size="10.00">Urho3D::String::Trimmed</text>
</a>
</g>
<!-- Node3&#45;&gt;Node12 -->
<g id="edge24" class="edge"><title>Node3&#45;&gt;Node12</title>
<path fill="none" stroke="midnightblue" d="M839.363,-110.986C859.748,-100.262 887.074,-86.507 912,-76 921.328,-72.0681 931.51,-68.2537 941.204,-64.8377"/>
<polygon fill="midnightblue" stroke="midnightblue" points="942.374,-68.1365 950.684,-61.5648 940.089,-61.5197 942.374,-68.1365"/>
</g>
<!-- Node6&#45;&gt;Node4 -->
<g id="edge16" class="edge"><title>Node6&#45;&gt;Node4</title>
<path fill="none" stroke="midnightblue" d="M1039.83,-162.022C1058.5,-158.351 1079.44,-154.234 1098.64,-150.459"/>
<polygon fill="midnightblue" stroke="midnightblue" points="1099.36,-153.884 1108.5,-148.521 1098.01,-147.016 1099.36,-153.884"/>
</g>
<!-- Node6&#45;&gt;Node7 -->
<g id="edge12" class="edge"><title>Node6&#45;&gt;Node7</title>
<path fill="none" stroke="midnightblue" d="M1024.92,-190.139C1035.12,-194.544 1046,-199.353 1056,-204 1082.21,-216.183 1111.58,-230.956 1132.74,-241.807"/>
<polygon fill="midnightblue" stroke="midnightblue" points="1131.35,-245.029 1141.85,-246.493 1134.56,-238.805 1131.35,-245.029"/>
</g>
<!-- Node8 -->
<g id="node15" class="node"><title>Node8</title>
<a xlink:href="class_urho3_d_1_1_string.html#a6b405eba451da6c0f216a8649adf79aa" target="_top" xlink:title="Return the C string.">
<polygon fill="none" stroke="black" points="1097.5,-363.5 1097.5,-384.5 1226.5,-384.5 1226.5,-363.5 1097.5,-363.5"/>
<text text-anchor="middle" x="1162" y="-371.5" font-family="FreeSans" font-size="10.00">Urho3D::String::CString</text>
</a>
</g>
<!-- Node6&#45;&gt;Node8 -->
<g id="edge14" class="edge"><title>Node6&#45;&gt;Node8</title>
<path fill="none" stroke="midnightblue" d="M1005.43,-190.24C1020.27,-202.603 1040.13,-220.012 1056,-237 1092.7,-276.292 1129.84,-327.524 1148.91,-354.853"/>
<polygon fill="midnightblue" stroke="midnightblue" points="1146.08,-356.923 1154.65,-363.153 1151.84,-352.939 1146.08,-356.923"/>
</g>
<!-- Node12&#45;&gt;Node10 -->
<g id="edge26" class="edge"><title>Node12&#45;&gt;Node10</title>
<path fill="none" stroke="midnightblue" d="M1048.51,-61.5107C1061.07,-63.5571 1074.34,-65.7185 1087.2,-67.8138"/>
<polygon fill="midnightblue" stroke="midnightblue" points="1086.97,-71.3229 1097.41,-69.4765 1088.1,-64.414 1086.97,-71.3229"/>
</g>
<!-- Node13&#45;&gt;Node8 -->
<g id="edge38" class="edge"><title>Node13&#45;&gt;Node8</title>
<path fill="none" stroke="midnightblue" d="M863.702,-378.213C923.985,-377.362 1020.44,-375.999 1087.27,-375.055"/>
<polygon fill="midnightblue" stroke="midnightblue" points="1087.37,-378.554 1097.32,-374.914 1087.28,-371.555 1087.37,-378.554"/>
</g>
<!-- Node13&#45;&gt;Node9 -->
<g id="edge36" class="edge"><title>Node13&#45;&gt;Node9</title>
<path fill="none" stroke="midnightblue" d="M863.688,-365.078C885.509,-359.623 910.409,-353.398 931.874,-348.032"/>
<polygon fill="midnightblue" stroke="midnightblue" points="932.935,-351.374 941.788,-345.553 931.237,-344.583 932.935,-351.374"/>
</g>
<!-- Node14 -->
<g id="node31" class="node"><title>Node14</title>
<a xlink:href="class_urho3_d_1_1_file_system.html#a1e3cbbed618e7f98ce56c5fa8de9ac43" target="_top" xlink:title="Check if a path is allowed to be accessed. If no paths are registered, all are allowed.">
<polygon fill="none" stroke="red" points="928.5,-402 928.5,-436 1039.5,-436 1039.5,-402 928.5,-402"/>
<text text-anchor="start" x="936.5" y="-423" font-family="FreeSans" font-size="10.00">Urho3D::FileSystem</text>
<text text-anchor="middle" x="984" y="-410" font-family="FreeSans" font-size="10.00">::CheckAccess</text>
</a>
</g>
<!-- Node13&#45;&gt;Node14 -->
<g id="edge34" class="edge"><title>Node13&#45;&gt;Node14</title>
<path fill="none" stroke="midnightblue" d="M863.688,-391.656C881.107,-395.615 900.488,-400.02 918.517,-404.117"/>
<polygon fill="midnightblue" stroke="midnightblue" points="917.846,-407.554 928.373,-406.357 919.397,-400.728 917.846,-407.554"/>
</g>
<!-- Node15&#45;&gt;Node7 -->
<g id="edge42" class="edge"><title>Node15&#45;&gt;Node7</title>
<path fill="none" stroke="midnightblue" d="M869.558,-471.291C923.75,-480.153 1002.19,-483.511 1056,-445 1091.37,-419.685 1071.11,-392.151 1092,-354 1107.91,-324.934 1131.18,-294.417 1146.46,-275.551"/>
<polygon fill="midnightblue" stroke="midnightblue" points="1149.22,-277.7 1152.86,-267.749 1143.81,-273.26 1149.22,-277.7"/>
</g>
<!-- Node15&#45;&gt;Node8 -->
<g id="edge46" class="edge"><title>Node15&#45;&gt;Node8</title>
<path fill="none" stroke="midnightblue" d="M857.546,-474.125C909.102,-489.036 991.202,-504.479 1056,-478 1098.09,-460.802 1132.49,-417.949 1149.82,-392.946"/>
<polygon fill="midnightblue" stroke="midnightblue" points="1152.74,-394.874 1155.42,-384.623 1146.93,-390.968 1152.74,-394.874"/>
</g>
<!-- Node15&#45;&gt;Node14 -->
<g id="edge44" class="edge"><title>Node15&#45;&gt;Node14</title>
<path fill="none" stroke="midnightblue" d="M869.556,-443.709C885.4,-440.289 902.504,-436.596 918.537,-433.134"/>
<polygon fill="midnightblue" stroke="midnightblue" points="919.326,-436.545 928.362,-431.013 917.848,-429.702 919.326,-436.545"/>
</g>
<!-- Node16&#45;&gt;Node5 -->
<g id="edge50" class="edge"><title>Node16&#45;&gt;Node5</title>
<path fill="none" stroke="midnightblue" d="M685.614,-361.908C754.841,-337.569 880.496,-293.39 944.394,-270.925"/>
<polygon fill="midnightblue" stroke="midnightblue" points="945.828,-274.131 954.101,-267.512 943.506,-267.527 945.828,-274.131"/>
</g>
<!-- Node16&#45;&gt;Node13 -->
<g id="edge52" class="edge"><title>Node16&#45;&gt;Node13</title>
<path fill="none" stroke="midnightblue" d="M703.603,-379C716.33,-379 729.645,-379 742.343,-379"/>
<polygon fill="midnightblue" stroke="midnightblue" points="742.37,-382.5 752.37,-379 742.37,-375.5 742.37,-382.5"/>
</g>
<!-- Node17&#45;&gt;Node3 -->
<g id="edge56" class="edge"><title>Node17&#45;&gt;Node3</title>
<path fill="none" stroke="midnightblue" d="M320.646,-211.357C326.183,-208.47 331.408,-205.05 336,-201 364.636,-175.746 339.839,-143.578 372,-123 429.196,-86.4039 620.344,-103.555 729.615,-117.095"/>
<polygon fill="midnightblue" stroke="midnightblue" points="729.244,-120.576 739.602,-118.351 730.117,-113.631 729.244,-120.576"/>
</g>
<!-- Node17&#45;&gt;Node7 -->
<g id="edge70" class="edge"><title>Node17&#45;&gt;Node7</title>
<path fill="none" stroke="midnightblue" d="M319.426,-209.941C336.425,-206.239 354.795,-202.873 372,-201 443.577,-193.208 462.043,-198.522 534,-201 766.413,-209.005 825.342,-207.39 1056,-237 1071.31,-238.966 1087.76,-241.74 1103.01,-244.597"/>
<polygon fill="midnightblue" stroke="midnightblue" points="1102.37,-248.037 1112.85,-246.479 1103.68,-241.161 1102.37,-248.037"/>
</g>
<!-- Node17&#45;&gt;Node11 -->
<g id="edge58" class="edge"><title>Node17&#45;&gt;Node11</title>
<path fill="none" stroke="midnightblue" d="M320.684,-212.045C326.281,-209.017 331.507,-205.377 336,-201 371.037,-166.869 334.232,-128.081 372,-97 412.999,-63.2596 756.516,-30.2781 910.194,-17.0557"/>
<polygon fill="midnightblue" stroke="midnightblue" points="910.815,-20.5154 920.481,-16.1758 910.219,-13.5409 910.815,-20.5154"/>
</g>
<!-- Node18 -->
<g id="node48" class="node"><title>Node18</title>
<a xlink:href="class_urho3_d_1_1_resource_cache.html#a5f04a4a638ce2b7d0c65576b69e39850" target="_top" xlink:title="Search resource packages for file.">
<polygon fill="none" stroke="black" points="386.5,-300 386.5,-334 519.5,-334 519.5,-300 386.5,-300"/>
<text text-anchor="start" x="394.5" y="-321" font-family="FreeSans" font-size="10.00">Urho3D::ResourceCache</text>
<text text-anchor="middle" x="453" y="-308" font-family="FreeSans" font-size="10.00">::SearchPackages</text>
</a>
</g>
<!-- Node17&#45;&gt;Node18 -->
<g id="edge60" class="edge"><title>Node17&#45;&gt;Node18</title>
<path fill="none" stroke="midnightblue" d="M286.148,-244.146C309.647,-256.414 342.441,-272.991 372,-286 379.91,-289.481 388.346,-292.96 396.673,-296.262"/>
<polygon fill="midnightblue" stroke="midnightblue" points="395.406,-299.525 405.994,-299.906 397.955,-293.005 395.406,-299.525"/>
</g>
<!-- Node19 -->
<g id="node51" class="node"><title>Node19</title>
<a xlink:href="class_urho3_d_1_1_resource_cache.html#a60e44d787700bab6fc1ffa513e3216b7" target="_top" xlink:title="Search FileSystem for file.">
<polygon fill="none" stroke="red" points="570.5,-248 570.5,-282 703.5,-282 703.5,-248 570.5,-248"/>
<text text-anchor="start" x="578.5" y="-269" font-family="FreeSans" font-size="10.00">Urho3D::ResourceCache</text>
<text text-anchor="middle" x="637" y="-256" font-family="FreeSans" font-size="10.00">::SearchResourceDirs</text>
</a>
</g>
<!-- Node17&#45;&gt;Node19 -->
<g id="edge64" class="edge"><title>Node17&#45;&gt;Node19</title>
<path fill="none" stroke="midnightblue" d="M320.729,-243.793C337.377,-247.403 355.258,-250.793 372,-253 435.055,-261.312 507.197,-264.148 560.272,-264.998"/>
<polygon fill="midnightblue" stroke="midnightblue" points="560.241,-268.497 570.289,-265.138 560.339,-261.498 560.241,-268.497"/>
</g>
<!-- Node20 -->
<g id="node56" class="node"><title>Node20</title>
<a xlink:href="class_urho3_d_1_1_thread.html#a591d469de804a63cbcca350b84f96670" target="_top" xlink:title="Return whether is executing in the main thread.">
<polygon fill="none" stroke="red" points="372.5,-16.5 372.5,-37.5 533.5,-37.5 533.5,-16.5 372.5,-16.5"/>
<text text-anchor="middle" x="453" y="-24.5" font-family="FreeSans" font-size="10.00">Urho3D::Thread::IsMainThread</text>
</a>
</g>
<!-- Node17&#45;&gt;Node20 -->
<g id="edge72" class="edge"><title>Node17&#45;&gt;Node20</title>
<path fill="none" stroke="midnightblue" d="M320.742,-212.709C326.399,-209.55 331.621,-205.697 336,-201 382.459,-151.171 325.35,-101.651 372,-52 375.562,-48.2092 379.684,-44.9886 384.144,-42.253"/>
<polygon fill="midnightblue" stroke="midnightblue" points="385.848,-45.3115 393.079,-37.5677 382.597,-39.1122 385.848,-45.3115"/>
</g>
<!-- Node21 -->
<g id="node58" class="node"><title>Node21</title>
<a xlink:href="class_urho3_d_1_1_object.html#ab8dbe9844094c04463def7df1fa650d5" target="_top" xlink:title="Return a preallocated map for event data. Used for optimization to avoid constant re&#45;allocation of ev...">
<polygon fill="none" stroke="red" points="383,-210 383,-244 523,-244 523,-210 383,-210"/>
<text text-anchor="start" x="391" y="-231" font-family="FreeSans" font-size="10.00">Urho3D::Object::GetEvent</text>
<text text-anchor="middle" x="453" y="-218" font-family="FreeSans" font-size="10.00">DataMap</text>
</a>
</g>
<!-- Node17&#45;&gt;Node21 -->
<g id="edge74" class="edge"><title>Node17&#45;&gt;Node21</title>
<path fill="none" stroke="midnightblue" d="M320.541,-227C337.259,-227 355.376,-227 372.688,-227"/>
<polygon fill="midnightblue" stroke="midnightblue" points="372.772,-230.5 382.772,-227 372.772,-223.5 372.772,-230.5"/>
</g>
<!-- Node22 -->
<g id="node60" class="node"><title>Node22</title>
<a xlink:href="class_urho3_d_1_1_object.html#a32020dbf77c196b9777eca479e8abb36" target="_top" xlink:title="Send event to all subscribers.">
<polygon fill="none" stroke="black" points="379,-132.5 379,-153.5 527,-153.5 527,-132.5 379,-132.5"/>
<text text-anchor="middle" x="453" y="-140.5" font-family="FreeSans" font-size="10.00">Urho3D::Object::SendEvent</text>
</a>
</g>
<!-- Node17&#45;&gt;Node22 -->
<g id="edge76" class="edge"><title>Node17&#45;&gt;Node22</title>
<path fill="none" stroke="midnightblue" d="M317.434,-209.987C323.877,-207.351 330.183,-204.366 336,-201 354.787,-190.131 353.171,-178.797 372,-168 379.606,-163.638 388.059,-159.953 396.553,-156.865"/>
<polygon fill="midnightblue" stroke="midnightblue" points="397.767,-160.149 406.117,-153.628 395.523,-153.519 397.767,-160.149"/>
</g>
<!-- Node18&#45;&gt;Node2 -->
<g id="edge62" class="edge"><title>Node18&#45;&gt;Node2</title>
<path fill="none" stroke="midnightblue" d="M519.688,-317C532.801,-317 546.658,-317 560.075,-317"/>
<polygon fill="midnightblue" stroke="midnightblue" points="560.23,-320.5 570.23,-317 560.23,-313.5 560.23,-320.5"/>
</g>
<!-- Node19&#45;&gt;Node5 -->
<g id="edge66" class="edge"><title>Node19&#45;&gt;Node5</title>
<path fill="none" stroke="midnightblue" d="M703.742,-249.363C715.748,-247.131 728.198,-245.191 740,-244 800.139,-237.932 815.664,-240.382 876,-244 888.919,-244.775 902.661,-246.066 915.859,-247.542"/>
<polygon fill="midnightblue" stroke="midnightblue" points="915.486,-251.023 925.824,-248.702 916.295,-244.069 915.486,-251.023"/>
</g>
<!-- Node19&#45;&gt;Node13 -->
<g id="edge68" class="edge"><title>Node19&#45;&gt;Node13</title>
<path fill="none" stroke="midnightblue" d="M686.559,-282.062C692.58,-284.762 698.53,-287.749 704,-291 734.109,-308.893 764.183,-335.531 784.189,-354.809"/>
<polygon fill="midnightblue" stroke="midnightblue" points="781.745,-357.315 791.342,-361.804 786.639,-352.31 781.745,-357.315"/>
</g>
</g>
</svg>
        <g id="navigator" transform="translate(0 0)" fill="#404254">
                <rect fill="#f2f5e9" fill-opacity="0.5" stroke="#606060" stroke-width=".5" x="0" y="0" width="60" height="60"/>
                <use id="zoomplus" xlink:href="#zoomPlus" x="17" y="9" onmousedown="handleZoom(evt,'in')"/>
                <use id="zoomminus" xlink:href="#zoomMin" x="42" y="9" onmousedown="handleZoom(evt,'out')"/>
                <use id="reset" xlink:href="#resetDef" x="30" y="36" onmousedown="handleReset()"/>
                <g id="arrowUp" xlink:href="#dirArrow" transform="translate(30 24)" onmousedown="handlePan(0,-1)">
                  <use xlink:href="#rim" fill="#404040">
                        <set attributeName="fill" to="#808080" begin="arrowUp.mouseover" end="arrowUp.mouseout"/>
                  </use>
                  <path fill="none" stroke="white" stroke-width="1.5" d="M0,-3.0v7 M-2.5,-0.5L0,-3.0L2.5,-0.5"/>
                </g>
                <g id="arrowRight" xlink:href="#dirArrow" transform="rotate(90) translate(36 -43)" onmousedown="handlePan(1,0)">
                  <use xlink:href="#rim" fill="#404040">
                        <set attributeName="fill" to="#808080" begin="arrowRight.mouseover" end="arrowRight.mouseout"/>
                  </use>
                  <path fill="none" stroke="white" stroke-width="1.5" d="M0,-3.0v7 M-2.5,-0.5L0,-3.0L2.5,-0.5"/>
                </g>
                <g id="arrowDown" xlink:href="#dirArrow" transform="rotate(180) translate(-30 -48)" onmousedown="handlePan(0,1)">
                  <use xlink:href="#rim" fill="#404040">
                        <set attributeName="fill" to="#808080" begin="arrowDown.mouseover" end="arrowDown.mouseout"/>
                  </use>
                  <path fill="none" stroke="white" stroke-width="1.5" d="M0,-3.0v7 M-2.5,-0.5L0,-3.0L2.5,-0.5"/>
                </g>
                <g id="arrowLeft" xlink:href="#dirArrow" transform="rotate(270) translate(-36 17)" onmousedown="handlePan(-1,0)">
                  <use xlink:href="#rim" fill="#404040">
                        <set attributeName="fill" to="#808080" begin="arrowLeft.mouseover" end="arrowLeft.mouseout"/>
                  </use>
                  <path fill="none" stroke="white" stroke-width="1.5" d="M0,-3.0v7 M-2.5,-0.5L0,-3.0L2.5,-0.5"/>
                </g>
        </g>
        <svg viewBox="0 0 15 15" width="100%" height="30px" preserveAspectRatio="xMaxYMin meet">
         <g id="arrow_out" transform="scale(0.3 0.3)">
          <a xlink:href="class_urho3_d_1_1_shader_variation_a521f1e28728cc83e54757f91131a8d07_cgraph_org.svg" target="_base">
           <rect id="button" ry="5" rx="5" y="6" x="6" height="38" width="38"
                fill="#f2f5e9" fill-opacity="0.5" stroke="#606060" stroke-width="1.0"/>
           <path id="arrow"
             d="M 11.500037,31.436501 C 11.940474,20.09759 22.043105,11.32322 32.158766,21.979434 L 37.068811,17.246167 C 37.068811,17.246167 37.088388,32 37.088388,32 L 22.160133,31.978069 C 22.160133,31.978069 26.997745,27.140456 26.997745,27.140456 C 18.528582,18.264221 13.291696,25.230495 11.500037,31.436501 z"
             style="fill:#404040;"/>
          </a>
         </g>
        </svg>
</svg>
