<?xml version="1.0" encoding="UTF-8" standalone="no"?>
<!DOCTYPE svg PUBLIC "-//W3C//DTD SVG 1.1//EN"
 "http://www.w3.org/Graphics/SVG/1.1/DTD/svg11.dtd">
<!-- Generated by graphviz version 2.26.3 (20100126.1600)
 -->
<!-- Title: Urho3D::StaticModelGroup Pages: 1 -->
<svg width="1616pt" height="734pt"
 viewBox="0.00 0.00 1616.00 734.00" xmlns="http://www.w3.org/2000/svg" xmlns:xlink="http://www.w3.org/1999/xlink">
<g id="graph1" class="graph" transform="scale(1 1) rotate(0) translate(4 730)">
<title>Urho3D::StaticModelGroup</title>
<!-- Node1 -->
<g id="node1" class="node"><title>Node1</title>
<polygon fill="#bfbfbf" stroke="black" points="1462.5,-630.5 1462.5,-651.5 1607.5,-651.5 1607.5,-630.5 1462.5,-630.5"/>
<text text-anchor="middle" x="1535" y="-638.5" font-family="FreeSans" font-size="10.00">Urho3D::StaticModelGroup</text>
</g>
<!-- Node2 -->
<g id="node2" class="node"><title>Node2</title>
<a xlink:href="class_urho3_d_1_1_static_model.html" target="_top" xlink:title="Static model component.">
<polygon fill="none" stroke="black" points="1196,-554.5 1196,-575.5 1312,-575.5 1312,-554.5 1196,-554.5"/>
<text text-anchor="middle" x="1254" y="-562.5" font-family="FreeSans" font-size="10.00">Urho3D::StaticModel</text>
</a>
</g>
<!-- Node2&#45;&gt;Node1 -->
<g id="edge2" class="edge"><title>Node2&#45;&gt;Node1</title>
<path fill="none" stroke="midnightblue" d="M1302.9,-578.225C1357.67,-593.038 1445.35,-616.753 1495.81,-630.4"/>
<polygon fill="midnightblue" stroke="midnightblue" points="1303.64,-574.8 1293.07,-575.567 1301.81,-581.557 1303.64,-574.8"/>
</g>
<!-- Node3 -->
<g id="node4" class="node"><title>Node3</title>
<a xlink:href="class_urho3_d_1_1_drawable.html" target="_top" xlink:title="Base class for visible components.">
<polygon fill="none" stroke="black" points="886,-256.5 886,-277.5 990,-277.5 990,-256.5 886,-256.5"/>
<text text-anchor="middle" x="938" y="-264.5" font-family="FreeSans" font-size="10.00">Urho3D::Drawable</text>
</a>
</g>
<!-- Node3&#45;&gt;Node2 -->
<g id="edge4" class="edge"><title>Node3&#45;&gt;Node2</title>
<path fill="none" stroke="midnightblue" d="M940.263,-287.625C945.621,-325.803 962.746,-407.295 1014,-448 1071.9,-493.986 1114.09,-438.805 1178,-476 1188.92,-482.355 1187.86,-488.334 1196,-498 1212.84,-518.01 1232.89,-540.99 1244.46,-554.171"/>
<polygon fill="midnightblue" stroke="midnightblue" points="943.731,-287.146 938.999,-277.666 936.787,-288.027 943.731,-287.146"/>
</g>
<!-- Node8 -->
<g id="node17" class="node"><title>Node8</title>
<a xlink:href="class_urho3_d_1_1_zone.html" target="_top" xlink:title="Component that describes global rendering properties.">
<polygon fill="none" stroke="red" points="1211.5,-187.5 1211.5,-208.5 1296.5,-208.5 1296.5,-187.5 1211.5,-187.5"/>
<text text-anchor="middle" x="1254" y="-195.5" font-family="FreeSans" font-size="10.00">Urho3D::Zone</text>
</a>
</g>
<!-- Node3&#45;&gt;Node8 -->
<g id="edge22" class="edge"><title>Node3&#45;&gt;Node8</title>
<path fill="none" stroke="midnightblue" d="M956.292,-249.092C970.687,-236.242 991.941,-219.862 1014,-212 1079.85,-188.531 1162.28,-189.78 1211.39,-193.448"/>
<polygon fill="midnightblue" stroke="midnightblue" points="953.617,-246.798 948.655,-256.159 958.372,-251.936 953.617,-246.798"/>
</g>
<!-- Node15 -->
<g id="node35" class="node"><title>Node15</title>
<a xlink:href="class_urho3_d_1_1_light.html" target="_top" xlink:title="Light component.">
<polygon fill="none" stroke="red" points="1212.5,-270.5 1212.5,-291.5 1295.5,-291.5 1295.5,-270.5 1212.5,-270.5"/>
<text text-anchor="middle" x="1254" y="-278.5" font-family="FreeSans" font-size="10.00">Urho3D::Light</text>
</a>
</g>
<!-- Node3&#45;&gt;Node15 -->
<g id="edge44" class="edge"><title>Node3&#45;&gt;Node15</title>
<path fill="none" stroke="midnightblue" d="M998.266,-279.134C1003.57,-279.889 1008.87,-280.532 1014,-281 1083.29,-287.329 1164.31,-285.401 1212.27,-283.295"/>
<polygon fill="midnightblue" stroke="midnightblue" points="998.522,-275.632 988.105,-277.563 997.452,-282.55 998.522,-275.632"/>
</g>
<!-- Node4 -->
<g id="node6" class="node"><title>Node4</title>
<a xlink:href="class_urho3_d_1_1_component.html" target="_top" xlink:title="Base class for components. Components can be created to scene nodes.">
<polygon fill="none" stroke="black" points="551,-56.5 551,-77.5 667,-77.5 667,-56.5 551,-56.5"/>
<text text-anchor="middle" x="609" y="-64.5" font-family="FreeSans" font-size="10.00">Urho3D::Component</text>
</a>
</g>
<!-- Node4&#45;&gt;Node3 -->
<g id="edge6" class="edge"><title>Node4&#45;&gt;Node3</title>
<path fill="none" stroke="midnightblue" d="M630.016,-84.0182C646.5,-96.5528 670.512,-113.079 694,-123 764.431,-152.75 798.257,-117.782 862,-160 899.233,-184.661 924.003,-234.281 933.568,-256.186"/>
<polygon fill="midnightblue" stroke="midnightblue" points="631.724,-80.9128 621.683,-77.5325 627.424,-86.4367 631.724,-80.9128"/>
</g>
<!-- Node5 -->
<g id="node8" class="node"><title>Node5</title>
<a xlink:href="class_urho3_d_1_1_animatable.html" target="_top" xlink:title="Base class for animatable object, an animatable object can be set animation on it&#39;s attributes...">
<polygon fill="none" stroke="red" points="0,-36.5 0,-57.5 114,-57.5 114,-36.5 0,-36.5"/>
<text text-anchor="middle" x="57" y="-44.5" font-family="FreeSans" font-size="10.00">Urho3D::Animatable</text>
</a>
</g>
<!-- Node5&#45;&gt;Node4 -->
<g id="edge8" class="edge"><title>Node5&#45;&gt;Node4</title>
<path fill="none" stroke="midnightblue" d="M99.0195,-60.2631C109.67,-63.0533 121.166,-65.5802 132,-67 281.852,-86.6371 460.465,-78.276 550.676,-71.8562"/>
<polygon fill="midnightblue" stroke="midnightblue" points="99.6865,-56.8165 89.116,-57.5348 97.8273,-63.5651 99.6865,-56.8165"/>
</g>
<!-- Node6 -->
<g id="node10" class="node"><title>Node6</title>
<a xlink:href="class_urho3_d_1_1_node.html" target="_top" xlink:title="Scene node that may contain components and child nodes.">
<polygon fill="none" stroke="red" points="247.5,-0.5 247.5,-21.5 332.5,-21.5 332.5,-0.5 247.5,-0.5"/>
<text text-anchor="middle" x="290" y="-8.5" font-family="FreeSans" font-size="10.00">Urho3D::Node</text>
</a>
</g>
<!-- Node5&#45;&gt;Node6 -->
<g id="edge12" class="edge"><title>Node5&#45;&gt;Node6</title>
<path fill="none" stroke="midnightblue" d="M103.976,-34.0216C113.216,-31.775 122.874,-29.6386 132,-28 170.695,-21.0526 215.268,-16.5722 247.185,-13.9649"/>
<polygon fill="midnightblue" stroke="midnightblue" points="103.008,-30.6561 94.1601,-36.4844 104.711,-37.4457 103.008,-30.6561"/>
</g>
<!-- Node6&#45;&gt;Node4 -->
<g id="edge10" class="edge"><title>Node6&#45;&gt;Node4</title>
<path fill="none" stroke="#9a32cd" stroke-dasharray="5,2" d="M342.637,-20.2404C399.987,-30.3081 491.471,-46.368 550.89,-56.7988"/>
<polygon fill="#9a32cd" stroke="#9a32cd" points="343.145,-16.7761 332.691,-18.4943 341.935,-23.6707 343.145,-16.7761"/>
<text text-anchor="middle" x="455" y="-56" font-family="FreeSans" font-size="10.00"> node_</text>
</g>
<!-- Node6&#45;&gt;Node6 -->
<g id="edge14" class="edge"><title>Node6&#45;&gt;Node6</title>
<path fill="none" stroke="#9a32cd" stroke-dasharray="5,2" d="M266.78,-31.4266C268.571,-36.3489 276.311,-40 290,-40 311.902,-40 318.576,-30.6531 310.02,-21.7079"/>
<polygon fill="#9a32cd" stroke="#9a32cd" points="270.176,-32.3009 269.98,-21.7079 263.528,-30.1114 270.176,-32.3009"/>
<text text-anchor="middle" x="290" y="-44" font-family="FreeSans" font-size="10.00"> parent_</text>
</g>
<!-- Node7 -->
<g id="node14" class="node"><title>Node7</title>
<a xlink:href="class_urho3_d_1_1_string_hash.html" target="_top" xlink:title="32&#45;bit hash value for a string.">
<polygon fill="none" stroke="black" points="0.5,-237.5 0.5,-258.5 113.5,-258.5 113.5,-237.5 0.5,-237.5"/>
<text text-anchor="middle" x="57" y="-245.5" font-family="FreeSans" font-size="10.00">Urho3D::StringHash</text>
</a>
</g>
<!-- Node7&#45;&gt;Node6 -->
<g id="edge16" class="edge"><title>Node7&#45;&gt;Node6</title>
<path fill="none" stroke="#9a32cd" stroke-dasharray="5,2" d="M74.8261,-229.868C120.945,-182.957 243.128,-58.6771 279.587,-21.5918"/>
<polygon fill="#9a32cd" stroke="#9a32cd" points="72.1318,-227.616 67.617,-237.201 77.1235,-232.523 72.1318,-227.616"/>
<text text-anchor="middle" x="163" y="-176" font-family="FreeSans" font-size="10.00"> nameHash_</text>
</g>
<!-- Node7&#45;&gt;Node7 -->
<g id="edge18" class="edge"><title>Node7&#45;&gt;Node7</title>
<path fill="none" stroke="#9a32cd" stroke-dasharray="5,2" d="M37.4653,-268.427C38.9723,-273.349 45.4839,-277 57,-277 75.4258,-277 81.0399,-267.653 73.8423,-258.708"/>
<polygon fill="#9a32cd" stroke="#9a32cd" points="40.8609,-269.279 40.1577,-258.708 34.1149,-267.41 40.8609,-269.279"/>
<text text-anchor="middle" x="57" y="-281" font-family="FreeSans" font-size="10.00"> ZERO</text>
</g>
<!-- Node17 -->
<g id="node43" class="node"><title>Node17</title>
<a xlink:href="struct_urho3_d_1_1_resource_ref_list.html" target="_top" xlink:title="List of typed resource references.">
<polygon fill="none" stroke="black" points="542,-478.5 542,-499.5 676,-499.5 676,-478.5 542,-478.5"/>
<text text-anchor="middle" x="609" y="-486.5" font-family="FreeSans" font-size="10.00">Urho3D::ResourceRefList</text>
</a>
</g>
<!-- Node7&#45;&gt;Node17 -->
<g id="edge56" class="edge"><title>Node7&#45;&gt;Node17</title>
<path fill="none" stroke="#9a32cd" stroke-dasharray="5,2" d="M92.8694,-262.35C152.793,-285.911 277.401,-333.152 386,-363 446.345,-379.586 471.101,-357.559 524,-391 535.27,-398.125 533.516,-404.714 542,-415 561.187,-438.264 585.244,-464.09 598.687,-478.247"/>
<polygon fill="#9a32cd" stroke="#9a32cd" points="94.0636,-259.059 83.4769,-258.643 91.4933,-265.57 94.0636,-259.059"/>
<text text-anchor="middle" x="290" y="-361" font-family="FreeSans" font-size="10.00"> type_</text>
</g>
<!-- Node8&#45;&gt;Node3 -->
<g id="edge20" class="edge"><title>Node8&#45;&gt;Node3</title>
<path fill="none" stroke="#9a32cd" stroke-dasharray="5,2" d="M1201.3,-207.407C1152.52,-216.383 1078.07,-230.763 1014,-246 1000.95,-249.104 986.753,-252.909 974.2,-256.423"/>
<polygon fill="#9a32cd" stroke="#9a32cd" points="1202.11,-210.818 1211.31,-205.575 1200.85,-203.933 1202.11,-210.818"/>
<text text-anchor="middle" x="1096" y="-250" font-family="FreeSans" font-size="10.00"> zone_</text>
</g>
<!-- Node9 -->
<g id="node20" class="node"><title>Node9</title>
<a xlink:href="class_urho3_d_1_1_weak_ptr.html" target="_top" xlink:title="Urho3D::WeakPtr\&lt; Urho3D\l::Zone \&gt;">
<polygon fill="none" stroke="red" points="1462,-181 1462,-215 1608,-215 1608,-181 1462,-181"/>
<text text-anchor="start" x="1470" y="-202" font-family="FreeSans" font-size="10.00">Urho3D::WeakPtr&lt; Urho3D</text>
<text text-anchor="middle" x="1535" y="-189" font-family="FreeSans" font-size="10.00">::Zone &gt;</text>
</a>
</g>
<!-- Node8&#45;&gt;Node9 -->
<g id="edge26" class="edge"><title>Node8&#45;&gt;Node9</title>
<path fill="none" stroke="#9a32cd" stroke-dasharray="5,2" d="M1306.66,-205.051C1314.47,-205.86 1322.44,-206.554 1330,-207 1380.58,-209.984 1393.39,-209.496 1444,-207 1449.71,-206.718 1455.61,-206.338 1461.54,-205.892"/>
<polygon fill="#9a32cd" stroke="#9a32cd" points="1306.85,-201.551 1296.53,-203.932 1306.08,-208.508 1306.85,-201.551"/>
<text text-anchor="middle" x="1387" y="-214" font-family="FreeSans" font-size="10.00"> ptr_</text>
</g>
<!-- Node9&#45;&gt;Node8 -->
<g id="edge24" class="edge"><title>Node9&#45;&gt;Node8</title>
<path fill="none" stroke="#9a32cd" stroke-dasharray="5,2" d="M1482.83,-177.66C1470.3,-173.657 1456.83,-170.06 1444,-168 1393.97,-159.967 1379.77,-158.532 1330,-168 1310.49,-171.711 1289.59,-180.335 1274.65,-187.389"/>
<polygon fill="#9a32cd" stroke="#9a32cd" points="1482.06,-181.09 1492.65,-180.936 1484.27,-174.45 1482.06,-181.09"/>
<text text-anchor="start" x="1330.5" y="-198" font-family="FreeSans" font-size="10.00"> lastAmbientEndZone</text>
<text text-anchor="middle" x="1387" y="-185" font-family="FreeSans" font-size="10.00">_</text>
<text text-anchor="middle" x="1387" y="-172" font-family="FreeSans" font-size="10.00">lastAmbientStartZone_</text>
</g>
<!-- Node10 -->
<g id="node23" class="node"><title>Node10</title>
<a xlink:href="class_urho3_d_1_1_bounding_box.html" target="_top" xlink:title="Three&#45;dimensional axis&#45;aligned bounding box.">
<polygon fill="none" stroke="red" points="229,-192.5 229,-213.5 351,-213.5 351,-192.5 229,-192.5"/>
<text text-anchor="middle" x="290" y="-200.5" font-family="FreeSans" font-size="10.00">Urho3D::BoundingBox</text>
</a>
</g>
<!-- Node10&#45;&gt;Node3 -->
<g id="edge46" class="edge"><title>Node10&#45;&gt;Node3</title>
<path fill="none" stroke="#9a32cd" stroke-dasharray="5,2" d="M361.275,-212.154C369.606,-213.152 377.988,-214.122 386,-215 569.476,-235.105 787.788,-254.265 885.814,-262.617"/>
<polygon fill="#9a32cd" stroke="#9a32cd" points="361.514,-208.658 351.166,-210.928 360.672,-215.607 361.514,-208.658"/>
<text text-anchor="middle" x="609" y="-260" font-family="FreeSans" font-size="10.00"> worldBoundingBox_</text>
<text text-anchor="middle" x="609" y="-247" font-family="FreeSans" font-size="10.00">boundingBox_</text>
</g>
<!-- Node10&#45;&gt;Node8 -->
<g id="edge28" class="edge"><title>Node10&#45;&gt;Node8</title>
<path fill="none" stroke="#9a32cd" stroke-dasharray="5,2" d="M317.441,-187.629C336.244,-177.658 362.025,-165.067 386,-157 453.081,-134.428 471.585,-132.148 542,-125 796.047,-99.2124 1101.03,-161.866 1211.47,-187.588"/>
<polygon fill="#9a32cd" stroke="#9a32cd" points="315.691,-184.596 308.552,-192.424 319.014,-190.757 315.691,-184.596"/>
<text text-anchor="middle" x="778" y="-133" font-family="FreeSans" font-size="10.00"> lastWorldBoundingBox_</text>
</g>
<!-- Node16 -->
<g id="node39" class="node"><title>Node16</title>
<a xlink:href="class_urho3_d_1_1_octant.html" target="_top" xlink:title="Octree octant">
<polygon fill="none" stroke="red" points="563,-134.5 563,-155.5 655,-155.5 655,-134.5 563,-134.5"/>
<text text-anchor="middle" x="609" y="-142.5" font-family="FreeSans" font-size="10.00">Urho3D::Octant</text>
</a>
</g>
<!-- Node10&#45;&gt;Node16 -->
<g id="edge50" class="edge"><title>Node10&#45;&gt;Node16</title>
<path fill="none" stroke="#9a32cd" stroke-dasharray="5,2" d="M357.79,-190.675C419.401,-179.473 508.662,-163.243 562.533,-153.448"/>
<polygon fill="#9a32cd" stroke="#9a32cd" points="356.981,-187.264 347.768,-192.497 358.233,-194.151 356.981,-187.264"/>
<text text-anchor="middle" x="455" y="-202" font-family="FreeSans" font-size="10.00"> cullingBox_</text>
<text text-anchor="middle" x="455" y="-189" font-family="FreeSans" font-size="10.00">worldBoundingBox_</text>
</g>
<!-- Node20 -->
<g id="node51" class="node"><title>Node20</title>
<a xlink:href="class_urho3_d_1_1_model.html" target="_top" xlink:title="3D model resource.">
<polygon fill="none" stroke="red" points="565,-524.5 565,-545.5 653,-545.5 653,-524.5 565,-524.5"/>
<text text-anchor="middle" x="609" y="-532.5" font-family="FreeSans" font-size="10.00">Urho3D::Model</text>
</a>
</g>
<!-- Node10&#45;&gt;Node20 -->
<g id="edge70" class="edge"><title>Node10&#45;&gt;Node20</title>
<path fill="none" stroke="#9a32cd" stroke-dasharray="5,2" d="M301.881,-222.538C318.66,-250.847 349.329,-305.329 368,-355 379.606,-385.876 364.06,-402.37 386,-427 429.597,-475.941 473.675,-437.009 524,-479 535.939,-488.962 530.11,-498.98 542,-509 549.823,-515.593 559.509,-520.63 569.062,-524.432"/>
<polygon fill="#9a32cd" stroke="#9a32cd" points="304.709,-220.448 296.568,-213.667 298.704,-224.044 304.709,-220.448"/>
<text text-anchor="middle" x="455" y="-483" font-family="FreeSans" font-size="10.00"> boundingBox_</text>
</g>
<!-- Node11 -->
<g id="node25" class="node"><title>Node11</title>
<a xlink:href="class_urho3_d_1_1_p_o_d_vector.html" target="_top" xlink:title="Urho3D::PODVector\&lt;\l Urho3D::Light * \&gt;">
<polygon fill="none" stroke="black" points="395.5,-323 395.5,-357 514.5,-357 514.5,-323 395.5,-323"/>
<text text-anchor="start" x="403.5" y="-344" font-family="FreeSans" font-size="10.00">Urho3D::PODVector&lt;</text>
<text text-anchor="middle" x="455" y="-331" font-family="FreeSans" font-size="10.00"> Urho3D::Light * &gt;</text>
</a>
</g>
<!-- Node11&#45;&gt;Node3 -->
<g id="edge30" class="edge"><title>Node11&#45;&gt;Node3</title>
<path fill="none" stroke="#9a32cd" stroke-dasharray="5,2" d="M524.641,-335.102C606.165,-328.528 744.935,-314.713 862,-290 877.242,-286.782 893.836,-281.924 907.618,-277.5"/>
<polygon fill="#9a32cd" stroke="#9a32cd" points="524.193,-331.626 514.501,-335.906 524.746,-338.605 524.193,-331.626"/>
<text text-anchor="middle" x="609" y="-350" font-family="FreeSans" font-size="10.00"> vertexLights_</text>
<text text-anchor="middle" x="609" y="-337" font-family="FreeSans" font-size="10.00">lights_</text>
</g>
<!-- Node12 -->
<g id="node27" class="node"><title>Node12</title>
<a xlink:href="class_urho3_d_1_1_vector_base.html" target="_top" xlink:title="Vector base class.">
<polygon fill="none" stroke="black" points="0,-505.5 0,-526.5 114,-526.5 114,-505.5 0,-505.5"/>
<text text-anchor="middle" x="57" y="-513.5" font-family="FreeSans" font-size="10.00">Urho3D::VectorBase</text>
</a>
</g>
<!-- Node12&#45;&gt;Node11 -->
<g id="edge32" class="edge"><title>Node12&#45;&gt;Node11</title>
<path fill="none" stroke="midnightblue" d="M68.5891,-496.621C91.0785,-461.069 144.422,-386.216 212,-355 270.037,-328.191 344.319,-327.825 395.391,-332.013"/>
<polygon fill="midnightblue" stroke="midnightblue" points="65.5966,-494.806 63.3111,-505.151 71.5492,-498.489 65.5966,-494.806"/>
</g>
<!-- Node13 -->
<g id="node29" class="node"><title>Node13</title>
<a xlink:href="class_urho3_d_1_1_p_o_d_vector.html" target="_top" xlink:title="Urho3D::PODVector\&lt;\l Urho3D::Camera * \&gt;">
<polygon fill="none" stroke="black" points="395,-392 395,-426 515,-426 515,-392 395,-392"/>
<text text-anchor="start" x="403" y="-413" font-family="FreeSans" font-size="10.00">Urho3D::PODVector&lt;</text>
<text text-anchor="middle" x="455" y="-400" font-family="FreeSans" font-size="10.00"> Urho3D::Camera * &gt;</text>
</a>
</g>
<!-- Node12&#45;&gt;Node13 -->
<g id="edge36" class="edge"><title>Node12&#45;&gt;Node13</title>
<path fill="none" stroke="midnightblue" d="M76.3932,-498.56C90.7349,-486.644 111.294,-471.522 132,-463 218.882,-427.244 328.186,-415.149 394.763,-411.067"/>
<polygon fill="midnightblue" stroke="midnightblue" points="74.0359,-495.97 68.7133,-505.131 78.5869,-501.289 74.0359,-495.97"/>
</g>
<!-- Node14 -->
<g id="node32" class="node"><title>Node14</title>
<a xlink:href="class_urho3_d_1_1_vector.html" target="_top" xlink:title="Urho3D::Vector\&lt; Urho3D\l::SourceBatch \&gt;">
<polygon fill="none" stroke="black" points="386,-279 386,-313 524,-313 524,-279 386,-279"/>
<text text-anchor="start" x="394" y="-300" font-family="FreeSans" font-size="10.00">Urho3D::Vector&lt; Urho3D</text>
<text text-anchor="middle" x="455" y="-287" font-family="FreeSans" font-size="10.00">::SourceBatch &gt;</text>
</a>
</g>
<!-- Node12&#45;&gt;Node14 -->
<g id="edge40" class="edge"><title>Node12&#45;&gt;Node14</title>
<path fill="none" stroke="midnightblue" d="M61.9007,-495.737C70.7119,-463.273 92.1362,-399.367 132,-361 199.486,-296.047 312.793,-287.593 385.69,-289.935"/>
<polygon fill="midnightblue" stroke="midnightblue" points="58.5018,-494.901 59.3877,-505.458 65.2791,-496.653 58.5018,-494.901"/>
</g>
<!-- Node18 -->
<g id="node46" class="node"><title>Node18</title>
<a xlink:href="class_urho3_d_1_1_vector.html" target="_top" xlink:title="Urho3D::Vector\&lt; String \&gt;">
<polygon fill="none" stroke="black" points="219.5,-505.5 219.5,-526.5 360.5,-526.5 360.5,-505.5 219.5,-505.5"/>
<text text-anchor="middle" x="290" y="-513.5" font-family="FreeSans" font-size="10.00">Urho3D::Vector&lt; String &gt;</text>
</a>
</g>
<!-- Node12&#45;&gt;Node18 -->
<g id="edge60" class="edge"><title>Node12&#45;&gt;Node18</title>
<path fill="none" stroke="midnightblue" d="M124.564,-516C154.25,-516 189.117,-516 219.167,-516"/>
<polygon fill="midnightblue" stroke="midnightblue" points="124.297,-512.5 114.297,-516 124.297,-519.5 124.297,-512.5"/>
</g>
<!-- Node21 -->
<g id="node53" class="node"><title>Node21</title>
<a xlink:href="class_urho3_d_1_1_vector.html" target="_top" xlink:title="Urho3D::Vector\&lt; Urho3D\l::Vector\&lt; Urho3D::SharedPtr\l\&lt; Urho3D::Geometry \&gt; \&gt; \&gt;">
<polygon fill="none" stroke="black" points="212.5,-545.5 212.5,-592.5 367.5,-592.5 367.5,-545.5 212.5,-545.5"/>
<text text-anchor="start" x="220.5" y="-579.5" font-family="FreeSans" font-size="10.00">Urho3D::Vector&lt; Urho3D</text>
<text text-anchor="start" x="220.5" y="-566.5" font-family="FreeSans" font-size="10.00">::Vector&lt; Urho3D::SharedPtr</text>
<text text-anchor="middle" x="290" y="-553.5" font-family="FreeSans" font-size="10.00">&lt; Urho3D::Geometry &gt; &gt; &gt;</text>
</a>
</g>
<!-- Node12&#45;&gt;Node21 -->
<g id="edge68" class="edge"><title>Node12&#45;&gt;Node21</title>
<path fill="none" stroke="midnightblue" d="M113.085,-528.758C142.773,-535.51 179.696,-543.909 212.12,-551.285"/>
<polygon fill="midnightblue" stroke="midnightblue" points="113.839,-525.34 103.312,-526.534 112.286,-532.165 113.839,-525.34"/>
</g>
<!-- Node22 -->
<g id="node58" class="node"><title>Node22</title>
<a xlink:href="class_urho3_d_1_1_p_o_d_vector.html" target="_top" xlink:title="Urho3D::PODVector\&lt;\l Urho3D::StaticModelGeometry\lData \&gt;">
<polygon fill="none" stroke="black" points="694.5,-600.5 694.5,-647.5 861.5,-647.5 861.5,-600.5 694.5,-600.5"/>
<text text-anchor="start" x="702.5" y="-634.5" font-family="FreeSans" font-size="10.00">Urho3D::PODVector&lt;</text>
<text text-anchor="start" x="702.5" y="-621.5" font-family="FreeSans" font-size="10.00"> Urho3D::StaticModelGeometry</text>
<text text-anchor="middle" x="778" y="-608.5" font-family="FreeSans" font-size="10.00">Data &gt;</text>
</a>
</g>
<!-- Node12&#45;&gt;Node22 -->
<g id="edge76" class="edge"><title>Node12&#45;&gt;Node22</title>
<path fill="none" stroke="midnightblue" d="M79.0989,-532.703C107.911,-553.39 160.7,-587.653 212,-602 377.969,-648.416 581.951,-641.592 694.122,-632.669"/>
<polygon fill="midnightblue" stroke="midnightblue" points="81.0953,-529.827 70.9554,-526.756 76.9669,-535.48 81.0953,-529.827"/>
</g>
<!-- Node23 -->
<g id="node61" class="node"><title>Node23</title>
<a xlink:href="class_urho3_d_1_1_vector.html" target="_top" xlink:title="Urho3D::Vector\&lt; Urho3D\l::WeakPtr\&lt; Urho3D::Node \&gt; \&gt;">
<polygon fill="none" stroke="black" points="1014.5,-692 1014.5,-726 1177.5,-726 1177.5,-692 1014.5,-692"/>
<text text-anchor="start" x="1022.5" y="-713" font-family="FreeSans" font-size="10.00">Urho3D::Vector&lt; Urho3D</text>
<text text-anchor="middle" x="1096" y="-700" font-family="FreeSans" font-size="10.00">::WeakPtr&lt; Urho3D::Node &gt; &gt;</text>
</a>
</g>
<!-- Node12&#45;&gt;Node23 -->
<g id="edge80" class="edge"><title>Node12&#45;&gt;Node23</title>
<path fill="none" stroke="midnightblue" d="M66.8722,-535.828C79.3722,-559.321 102.836,-598.485 132,-624 191.391,-675.96 211.088,-705 290,-705 290,-705 290,-705 778,-705 858.334,-705 950.076,-706.292 1014.31,-707.408"/>
<polygon fill="midnightblue" stroke="midnightblue" points="69.9066,-534.077 62.2016,-526.805 63.69,-537.294 69.9066,-534.077"/>
</g>
<!-- Node24 -->
<g id="node64" class="node"><title>Node24</title>
<a xlink:href="class_urho3_d_1_1_vector.html" target="_top" xlink:title="Urho3D::Vector\&lt; Variant \&gt;">
<polygon fill="none" stroke="black" points="705,-655.5 705,-676.5 851,-676.5 851,-655.5 705,-655.5"/>
<text text-anchor="middle" x="778" y="-663.5" font-family="FreeSans" font-size="10.00">Urho3D::Vector&lt; Variant &gt;</text>
</a>
</g>
<!-- Node12&#45;&gt;Node24 -->
<g id="edge84" class="edge"><title>Node12&#45;&gt;Node24</title>
<path fill="none" stroke="midnightblue" d="M71.3809,-535.043C85.3304,-552.479 107.876,-578.071 132,-595 163.768,-617.293 174.529,-619.894 212,-630 383.832,-676.342 595.177,-675.19 704.578,-670.509"/>
<polygon fill="midnightblue" stroke="midnightblue" points="73.822,-532.483 64.9069,-526.758 68.3063,-536.793 73.822,-532.483"/>
</g>
<!-- Node25 -->
<g id="node67" class="node"><title>Node25</title>
<a xlink:href="class_urho3_d_1_1_p_o_d_vector.html" target="_top" xlink:title="Urho3D::PODVector\&lt;\l Urho3D::Matrix3x4 \&gt;">
<polygon fill="none" stroke="black" points="1036,-413 1036,-447 1156,-447 1156,-413 1036,-413"/>
<text text-anchor="start" x="1044" y="-434" font-family="FreeSans" font-size="10.00">Urho3D::PODVector&lt;</text>
<text text-anchor="middle" x="1096" y="-421" font-family="FreeSans" font-size="10.00"> Urho3D::Matrix3x4 &gt;</text>
</a>
</g>
<!-- Node12&#45;&gt;Node25 -->
<g id="edge88" class="edge"><title>Node12&#45;&gt;Node25</title>
<path fill="none" stroke="midnightblue" d="M124.513,-506.593C151.666,-502.991 183.288,-499.025 212,-496 521.165,-463.424 892.825,-441.164 1035.86,-433.223"/>
<polygon fill="midnightblue" stroke="midnightblue" points="123.789,-503.158 114.341,-507.952 124.716,-510.096 123.789,-503.158"/>
</g>
<!-- Node13&#45;&gt;Node3 -->
<g id="edge34" class="edge"><title>Node13&#45;&gt;Node3</title>
<path fill="none" stroke="#9a32cd" stroke-dasharray="5,2" d="M525.271,-401.33C608.462,-390.416 749.857,-366.031 862,-317 885.877,-306.56 910.547,-288.807 925.069,-277.505"/>
<polygon fill="#9a32cd" stroke="#9a32cd" points="524.645,-397.881 515.172,-402.626 525.536,-404.824 524.645,-397.881"/>
<text text-anchor="middle" x="609" y="-402" font-family="FreeSans" font-size="10.00"> viewCameras_</text>
</g>
<!-- Node14&#45;&gt;Node3 -->
<g id="edge38" class="edge"><title>Node14&#45;&gt;Node3</title>
<path fill="none" stroke="#9a32cd" stroke-dasharray="5,2" d="M534.2,-291.245C633.643,-285.274 801.432,-275.2 885.984,-270.123"/>
<polygon fill="#9a32cd" stroke="#9a32cd" points="533.974,-287.752 524.202,-291.845 534.394,-294.739 533.974,-287.752"/>
<text text-anchor="middle" x="609" y="-294" font-family="FreeSans" font-size="10.00"> batches_</text>
</g>
<!-- Node15&#45;&gt;Node3 -->
<g id="edge42" class="edge"><title>Node15&#45;&gt;Node3</title>
<path fill="none" stroke="#9a32cd" stroke-dasharray="5,2" d="M1202.25,-270.973C1194.16,-269.746 1185.88,-268.685 1178,-268 1113.45,-262.384 1038.77,-263.221 990.079,-264.745"/>
<polygon fill="#9a32cd" stroke="#9a32cd" points="1201.92,-274.464 1212.35,-272.6 1203.03,-267.554 1201.92,-274.464"/>
<text text-anchor="middle" x="1096" y="-272" font-family="FreeSans" font-size="10.00"> firstLight_</text>
</g>
<!-- Node16&#45;&gt;Node3 -->
<g id="edge48" class="edge"><title>Node16&#45;&gt;Node3</title>
<path fill="none" stroke="#9a32cd" stroke-dasharray="5,2" d="M664.898,-156.393C728.354,-169.805 827.532,-192.358 862,-209 887.708,-221.413 913.179,-243.328 927.126,-256.373"/>
<polygon fill="#9a32cd" stroke="#9a32cd" points="665.542,-152.951 655.036,-154.321 664.103,-159.802 665.542,-152.951"/>
<text text-anchor="middle" x="778" y="-213" font-family="FreeSans" font-size="10.00"> octant_</text>
</g>
<!-- Node16&#45;&gt;Node16 -->
<g id="edge52" class="edge"><title>Node16&#45;&gt;Node16</title>
<path fill="none" stroke="#9a32cd" stroke-dasharray="5,2" d="M580.469,-165.055C582.34,-170.164 591.851,-174 609,-174 635.77,-174 643.926,-164.653 633.469,-155.708"/>
<polygon fill="#9a32cd" stroke="#9a32cd" points="583.755,-166.274 584.531,-155.708 577.335,-163.484 583.755,-166.274"/>
<text text-anchor="middle" x="609" y="-191" font-family="FreeSans" font-size="10.00"> parent_</text>
<text text-anchor="middle" x="609" y="-178" font-family="FreeSans" font-size="10.00">children_</text>
</g>
<!-- Node17&#45;&gt;Node2 -->
<g id="edge54" class="edge"><title>Node17&#45;&gt;Node2</title>
<path fill="none" stroke="#9a32cd" stroke-dasharray="5,2" d="M686.295,-486.031C764.62,-484.046 889.145,-483.702 996,-496 1078.18,-505.459 1098.81,-511.065 1178,-535 1195.79,-540.377 1215.27,-548.106 1230.06,-554.373"/>
<polygon fill="#9a32cd" stroke="#9a32cd" points="685.932,-482.539 676.03,-486.307 686.12,-489.537 685.932,-482.539"/>
<text text-anchor="middle" x="938" y="-500" font-family="FreeSans" font-size="10.00"> materialsAttr_</text>
</g>
<!-- Node18&#45;&gt;Node17 -->
<g id="edge58" class="edge"><title>Node18&#45;&gt;Node17</title>
<path fill="none" stroke="#9a32cd" stroke-dasharray="5,2" d="M370.826,-509.159C423.736,-504.681 492.057,-498.898 541.948,-494.675"/>
<polygon fill="#9a32cd" stroke="#9a32cd" points="370.466,-505.677 360.796,-510.008 371.056,-512.652 370.466,-505.677"/>
<text text-anchor="middle" x="455" y="-511" font-family="FreeSans" font-size="10.00"> names_</text>
</g>
<!-- Node19 -->
<g id="node49" class="node"><title>Node19</title>
<a xlink:href="class_urho3_d_1_1_shared_ptr.html" target="_top" xlink:title="Urho3D::SharedPtr\&lt;\l Urho3D::Model \&gt;">
<polygon fill="none" stroke="black" points="880,-518 880,-552 996,-552 996,-518 880,-518"/>
<text text-anchor="start" x="888" y="-539" font-family="FreeSans" font-size="10.00">Urho3D::SharedPtr&lt;</text>
<text text-anchor="middle" x="938" y="-526" font-family="FreeSans" font-size="10.00"> Urho3D::Model &gt;</text>
</a>
</g>
<!-- Node19&#45;&gt;Node2 -->
<g id="edge62" class="edge"><title>Node19&#45;&gt;Node2</title>
<path fill="none" stroke="#9a32cd" stroke-dasharray="5,2" d="M1006.31,-538.633C1054.41,-541.556 1120.27,-546.288 1178,-553 1183.84,-553.679 1189.91,-554.479 1195.97,-555.338"/>
<polygon fill="#9a32cd" stroke="#9a32cd" points="1006.51,-535.14 996.323,-538.037 1006.1,-542.127 1006.51,-535.14"/>
<text text-anchor="middle" x="1096" y="-557" font-family="FreeSans" font-size="10.00"> model_</text>
</g>
<!-- Node20&#45;&gt;Node19 -->
<g id="edge64" class="edge"><title>Node20&#45;&gt;Node19</title>
<path fill="none" stroke="#9a32cd" stroke-dasharray="5,2" d="M663.384,-535C723.107,-535 818.636,-535 879.825,-535"/>
<polygon fill="#9a32cd" stroke="#9a32cd" points="663.029,-531.5 653.029,-535 663.029,-538.5 663.029,-531.5"/>
<text text-anchor="middle" x="778" y="-539" font-family="FreeSans" font-size="10.00"> ptr_</text>
</g>
<!-- Node21&#45;&gt;Node2 -->
<g id="edge72" class="edge"><title>Node21&#45;&gt;Node2</title>
<path fill="none" stroke="#9a32cd" stroke-dasharray="5,2" d="M377.728,-568.988C537.094,-568.902 884.785,-568.424 1178,-566 1183.81,-565.952 1189.86,-565.891 1195.91,-565.823"/>
<polygon fill="#9a32cd" stroke="#9a32cd" points="377.504,-565.488 367.506,-568.993 377.507,-572.488 377.504,-565.488"/>
<text text-anchor="middle" x="778" y="-572" font-family="FreeSans" font-size="10.00"> geometries_</text>
</g>
<!-- Node21&#45;&gt;Node20 -->
<g id="edge66" class="edge"><title>Node21&#45;&gt;Node20</title>
<path fill="none" stroke="#9a32cd" stroke-dasharray="5,2" d="M377.803,-554.059C380.565,-553.687 383.303,-553.333 386,-553 447.87,-545.361 519.816,-540.225 564.884,-537.457"/>
<polygon fill="#9a32cd" stroke="#9a32cd" points="377.141,-550.618 367.724,-555.474 378.114,-557.55 377.141,-550.618"/>
<text text-anchor="middle" x="455" y="-557" font-family="FreeSans" font-size="10.00"> geometries_</text>
</g>
<!-- Node22&#45;&gt;Node2 -->
<g id="edge74" class="edge"><title>Node22&#45;&gt;Node2</title>
<path fill="none" stroke="#9a32cd" stroke-dasharray="5,2" d="M871.787,-624.583C953.569,-623.292 1074.91,-617.019 1178,-594 1196.61,-589.845 1216.72,-582.008 1231.58,-575.527"/>
<polygon fill="#9a32cd" stroke="#9a32cd" points="871.716,-621.083 861.764,-624.719 871.811,-628.082 871.716,-621.083"/>
<text text-anchor="middle" x="938" y="-628" font-family="FreeSans" font-size="10.00"> geometryData_</text>
</g>
<!-- Node23&#45;&gt;Node1 -->
<g id="edge78" class="edge"><title>Node23&#45;&gt;Node1</title>
<path fill="none" stroke="#9a32cd" stroke-dasharray="5,2" d="M1188.01,-709.893C1258.96,-708.602 1359,-702.452 1444,-681 1470.1,-674.412 1498.18,-661 1516.14,-651.527"/>
<polygon fill="#9a32cd" stroke="#9a32cd" points="1187.71,-706.397 1177.76,-710.049 1187.81,-713.396 1187.71,-706.397"/>
<text text-anchor="middle" x="1254" y="-713" font-family="FreeSans" font-size="10.00"> instanceNodes_</text>
</g>
<!-- Node24&#45;&gt;Node1 -->
<g id="edge82" class="edge"><title>Node24&#45;&gt;Node1</title>
<path fill="none" stroke="#9a32cd" stroke-dasharray="5,2" d="M861.299,-663.249C1010.53,-658.321 1321.01,-648.067 1462.24,-643.403"/>
<polygon fill="#9a32cd" stroke="#9a32cd" points="861.151,-659.752 851.272,-663.58 861.382,-666.748 861.151,-659.752"/>
<text text-anchor="middle" x="1096" y="-662" font-family="FreeSans" font-size="10.00"> nodeIDsAttr_</text>
</g>
<!-- Node25&#45;&gt;Node1 -->
<g id="edge86" class="edge"><title>Node25&#45;&gt;Node1</title>
<path fill="none" stroke="#9a32cd" stroke-dasharray="5,2" d="M1165.79,-446.796C1169.95,-448.129 1174.05,-449.532 1178,-451 1301.72,-496.958 1329.08,-518.107 1444,-583 1471.24,-598.384 1501.67,-618.379 1519.53,-630.422"/>
<polygon fill="#9a32cd" stroke="#9a32cd" points="1166.6,-443.383 1156.02,-443.811 1164.56,-450.078 1166.6,-443.383"/>
<text text-anchor="middle" x="1254" y="-512" font-family="FreeSans" font-size="10.00"> worldTransforms_</text>
</g>
</g>
</svg>
