<?xml version="1.0" encoding="UTF-8" standalone="no"?>
<!DOCTYPE svg PUBLIC "-//W3C//DTD SVG 1.1//EN"
 "http://www.w3.org/Graphics/SVG/1.1/DTD/svg11.dtd">
<!-- Generated by graphviz version 2.26.3 (20100126.1600)
 -->
<!-- Title: Urho3D::Material::Load Pages: 1 -->
<svg width="726pt" height="1051pt"
 viewBox="0.00 0.00 726.00 1051.00" xmlns="http://www.w3.org/2000/svg" xmlns:xlink="http://www.w3.org/1999/xlink">
<g id="graph1" class="graph" transform="scale(1 1) rotate(0) translate(4 1047)">
<title>Urho3D::Material::Load</title>
<!-- Node1 -->
<g id="node1" class="node"><title>Node1</title>
<polygon fill="#bfbfbf" stroke="black" points="0.5,-485.5 0.5,-506.5 127.5,-506.5 127.5,-485.5 0.5,-485.5"/>
<text text-anchor="middle" x="64" y="-493.5" font-family="FreeSans" font-size="10.00">Urho3D::Material::Load</text>
</g>
<!-- Node2 -->
<g id="node3" class="node"><title>Node2</title>
<a xlink:href="class_urho3_d_1_1_material.html#a2a6e0e7eae446f7c7513090852aeac21" target="_top" xlink:title="Reset to defaults.">
<polygon fill="none" stroke="red" points="184,-875 184,-909 324,-909 324,-875 184,-875"/>
<text text-anchor="start" x="192" y="-896" font-family="FreeSans" font-size="10.00">Urho3D::Material::ResetTo</text>
<text text-anchor="middle" x="254" y="-883" font-family="FreeSans" font-size="10.00">Defaults</text>
</a>
</g>
<!-- Node1&#45;&gt;Node2 -->
<g id="edge2" class="edge"><title>Node1&#45;&gt;Node2</title>
<path fill="none" stroke="midnightblue" d="M65.6245,-506.818C73.988,-561.217 113.749,-804.415 164,-859 167.734,-863.056 172.008,-866.614 176.621,-869.737"/>
<polygon fill="midnightblue" stroke="midnightblue" points="174.867,-872.766 185.245,-874.899 178.462,-866.76 174.867,-872.766"/>
</g>
<!-- Node4 -->
<g id="node7" class="node"><title>Node4</title>
<a xlink:href="class_urho3_d_1_1_material.html#a27f2b7dd5a1ab57e0be7f9a30be657ed" target="_top" xlink:title="Set shader parameter.">
<polygon fill="none" stroke="red" points="383.5,-830 383.5,-864 538.5,-864 538.5,-830 383.5,-830"/>
<text text-anchor="start" x="391.5" y="-851" font-family="FreeSans" font-size="10.00">Urho3D::Material::SetShader</text>
<text text-anchor="middle" x="461" y="-838" font-family="FreeSans" font-size="10.00">Parameter</text>
</a>
</g>
<!-- Node1&#45;&gt;Node4 -->
<g id="edge42" class="edge"><title>Node1&#45;&gt;Node4</title>
<path fill="none" stroke="midnightblue" d="M65.685,-506.509C74.0437,-557.256 112.713,-776.228 164,-818 221.767,-865.05 308.354,-868.391 373.153,-862.283"/>
<polygon fill="midnightblue" stroke="midnightblue" points="373.771,-865.737 383.358,-861.226 373.051,-858.774 373.771,-865.737"/>
</g>
<!-- Node5 -->
<g id="node9" class="node"><title>Node5</title>
<a xlink:href="class_urho3_d_1_1_material.html#a9c262eda9301a091165f9c1c26df060a" target="_top" xlink:title="Recalculate shader parameter hash.">
<polygon fill="none" stroke="red" points="578.5,-913 578.5,-947 717.5,-947 717.5,-913 578.5,-913"/>
<text text-anchor="start" x="586.5" y="-934" font-family="FreeSans" font-size="10.00">Urho3D::Material::Refresh</text>
<text text-anchor="middle" x="648" y="-921" font-family="FreeSans" font-size="10.00">ShaderParameterHash</text>
</a>
</g>
<!-- Node1&#45;&gt;Node5 -->
<g id="edge68" class="edge"><title>Node1&#45;&gt;Node5</title>
<path fill="none" stroke="midnightblue" d="M64.4929,-506.683C67.7386,-571.898 88.3174,-915.689 164,-980 292.058,-1088.82 379.342,-1031.22 542,-989 569.17,-981.948 596.78,-966.247 617.008,-952.815"/>
<polygon fill="midnightblue" stroke="midnightblue" points="619.19,-955.563 625.477,-947.036 615.244,-949.781 619.19,-955.563"/>
</g>
<!-- Node6 -->
<g id="node11" class="node"><title>Node6</title>
<a xlink:href="class_urho3_d_1_1_material.html#a5e79bcf19379d52c5057c8a97fdbb288" target="_top" xlink:title="Recalculate the memory used by the material.">
<polygon fill="none" stroke="red" points="578.5,-830 578.5,-864 717.5,-864 717.5,-830 578.5,-830"/>
<text text-anchor="start" x="586.5" y="-851" font-family="FreeSans" font-size="10.00">Urho3D::Material::Refresh</text>
<text text-anchor="middle" x="648" y="-838" font-family="FreeSans" font-size="10.00">MemoryUse</text>
</a>
</g>
<!-- Node1&#45;&gt;Node6 -->
<g id="edge70" class="edge"><title>Node1&#45;&gt;Node6</title>
<path fill="none" stroke="midnightblue" d="M66.1057,-506.695C75.7513,-554.546 117.255,-748.246 164,-785 230.332,-837.155 458.804,-806.912 542,-821 552.728,-822.817 563.976,-825.126 574.972,-827.617"/>
<polygon fill="midnightblue" stroke="midnightblue" points="574.443,-831.087 584.976,-829.945 576.03,-824.269 574.443,-831.087"/>
</g>
<!-- Node7 -->
<g id="node15" class="node"><title>Node7</title>
<a xlink:href="class_urho3_d_1_1_x_m_l_element.html#a641b94e5613b9df16e85c2ebf2b45a00" target="_top" xlink:title="Return whether does not refer to an element or an XPath node.">
<polygon fill="none" stroke="red" points="194.5,-742 194.5,-776 313.5,-776 313.5,-742 194.5,-742"/>
<text text-anchor="start" x="202.5" y="-763" font-family="FreeSans" font-size="10.00">Urho3D::XMLElement</text>
<text text-anchor="middle" x="254" y="-750" font-family="FreeSans" font-size="10.00">::IsNull</text>
</a>
</g>
<!-- Node1&#45;&gt;Node7 -->
<g id="edge16" class="edge"><title>Node1&#45;&gt;Node7</title>
<path fill="none" stroke="midnightblue" d="M65.4737,-506.504C71.1016,-542.704 94.5377,-663.578 164,-728 170.183,-733.735 177.478,-738.415 185.195,-742.233"/>
<polygon fill="midnightblue" stroke="midnightblue" points="183.847,-745.464 194.407,-746.331 186.692,-739.069 183.847,-745.464"/>
</g>
<!-- Node8 -->
<g id="node17" class="node"><title>Node8</title>
<a xlink:href="class_urho3_d_1_1_x_m_l_element.html#a07b4b8753884e62d7ca8ab40d7b4a912" target="_top" xlink:title="Return child element, or null if missing.">
<polygon fill="none" stroke="black" points="401.5,-434 401.5,-468 520.5,-468 520.5,-434 401.5,-434"/>
<text text-anchor="start" x="409.5" y="-455" font-family="FreeSans" font-size="10.00">Urho3D::XMLElement</text>
<text text-anchor="middle" x="461" y="-442" font-family="FreeSans" font-size="10.00">::GetChild</text>
</a>
</g>
<!-- Node1&#45;&gt;Node8 -->
<g id="edge18" class="edge"><title>Node1&#45;&gt;Node8</title>
<path fill="none" stroke="midnightblue" d="M127.705,-486.74C139.75,-485.086 152.254,-483.435 164,-482 241.712,-472.507 331.089,-463.427 391.327,-457.575"/>
<polygon fill="midnightblue" stroke="midnightblue" points="391.865,-461.04 401.481,-456.593 391.191,-454.072 391.865,-461.04"/>
</g>
<!-- Node9 -->
<g id="node19" class="node"><title>Node9</title>
<a xlink:href="class_urho3_d_1_1_string.html#a6b405eba451da6c0f216a8649adf79aa" target="_top" xlink:title="Return the C string.">
<polygon fill="none" stroke="black" points="583.5,-530.5 583.5,-551.5 712.5,-551.5 712.5,-530.5 583.5,-530.5"/>
<text text-anchor="middle" x="648" y="-538.5" font-family="FreeSans" font-size="10.00">Urho3D::String::CString</text>
</a>
</g>
<!-- Node1&#45;&gt;Node9 -->
<g id="edge54" class="edge"><title>Node1&#45;&gt;Node9</title>
<path fill="none" stroke="midnightblue" d="M127.766,-494.487C219.749,-493.22 394.795,-494.236 542,-515 562.198,-517.849 584.154,-522.9 602.816,-527.796"/>
<polygon fill="midnightblue" stroke="midnightblue" points="601.965,-531.192 612.531,-530.408 603.782,-524.432 601.965,-531.192"/>
</g>
<!-- Node10 -->
<g id="node21" class="node"><title>Node10</title>
<a xlink:href="class_urho3_d_1_1_resource_cache.html#aa1657db0fcf2a1578bcb4bd5a00146ca" target="_top" xlink:title="Return a resource by type and name. Load if not loaded yet. Return null if not found or if fails...">
<polygon fill="none" stroke="red" points="187.5,-937 187.5,-971 320.5,-971 320.5,-937 187.5,-937"/>
<text text-anchor="start" x="195.5" y="-958" font-family="FreeSans" font-size="10.00">Urho3D::ResourceCache</text>
<text text-anchor="middle" x="254" y="-945" font-family="FreeSans" font-size="10.00">::GetResource</text>
</a>
</g>
<!-- Node1&#45;&gt;Node10 -->
<g id="edge22" class="edge"><title>Node1&#45;&gt;Node10</title>
<path fill="none" stroke="midnightblue" d="M65.1793,-506.526C71.952,-565.298 107.585,-852.562 164,-918 168.577,-923.309 174.048,-927.844 180,-931.716"/>
<polygon fill="midnightblue" stroke="midnightblue" points="178.608,-934.953 189.017,-936.927 182.11,-928.893 178.608,-934.953"/>
</g>
<!-- Node11 -->
<g id="node24" class="node"><title>Node11</title>
<a xlink:href="class_urho3_d_1_1_material.html#a0c25c6b8aba110ea626a8338fb36efc6" target="_top" xlink:title="Ensure that material techniques are listed in correct order.">
<polygon fill="none" stroke="black" points="166,-408.5 166,-429.5 342,-429.5 342,-408.5 166,-408.5"/>
<text text-anchor="middle" x="254" y="-416.5" font-family="FreeSans" font-size="10.00">Urho3D::Material::SortTechniques</text>
</a>
</g>
<!-- Node1&#45;&gt;Node11 -->
<g id="edge26" class="edge"><title>Node1&#45;&gt;Node11</title>
<path fill="none" stroke="midnightblue" d="M81.5364,-485.445C101.101,-474.014 133.959,-455.833 164,-444 175.198,-439.589 187.468,-435.634 199.247,-432.242"/>
<polygon fill="midnightblue" stroke="midnightblue" points="200.298,-435.583 208.991,-429.527 198.419,-428.84 200.298,-435.583"/>
</g>
<!-- Node12 -->
<g id="node26" class="node"><title>Node12</title>
<a xlink:href="class_urho3_d_1_1_x_m_l_element.html#a1db521bcb4df83cfb5c0ad5a01023de8" target="_top" xlink:title="Return whether has an attribute.">
<polygon fill="none" stroke="black" points="401.5,-671 401.5,-705 520.5,-705 520.5,-671 401.5,-671"/>
<text text-anchor="start" x="409.5" y="-692" font-family="FreeSans" font-size="10.00">Urho3D::XMLElement</text>
<text text-anchor="middle" x="461" y="-679" font-family="FreeSans" font-size="10.00">::HasAttribute</text>
</a>
</g>
<!-- Node1&#45;&gt;Node12 -->
<g id="edge28" class="edge"><title>Node1&#45;&gt;Node12</title>
<path fill="none" stroke="midnightblue" d="M65.5046,-506.805C71.011,-541.69 93.5701,-651.57 164,-695 235.363,-739.006 335.847,-724.304 399.697,-707.708"/>
<polygon fill="midnightblue" stroke="midnightblue" points="400.873,-711.016 409.62,-705.036 399.053,-704.256 400.873,-711.016"/>
</g>
<!-- Node13 -->
<g id="node29" class="node"><title>Node13</title>
<a xlink:href="class_urho3_d_1_1_x_m_l_element.html#a0f9070917f31e8b8ef0755a787b4941a" target="_top" xlink:title="Return attribute, or empty if missing.">
<polygon fill="none" stroke="red" points="401.5,-592 401.5,-626 520.5,-626 520.5,-592 401.5,-592"/>
<text text-anchor="start" x="409.5" y="-613" font-family="FreeSans" font-size="10.00">Urho3D::XMLElement</text>
<text text-anchor="middle" x="461" y="-600" font-family="FreeSans" font-size="10.00">::GetAttribute</text>
</a>
</g>
<!-- Node1&#45;&gt;Node13 -->
<g id="edge32" class="edge"><title>Node1&#45;&gt;Node13</title>
<path fill="none" stroke="midnightblue" d="M69.7279,-506.699C82.8027,-529.836 117.356,-584.117 164,-605 236.337,-637.386 328.867,-632.327 391.271,-623.111"/>
<polygon fill="midnightblue" stroke="midnightblue" points="392.059,-626.531 401.404,-621.539 390.986,-619.613 392.059,-626.531"/>
</g>
<!-- Node14 -->
<g id="node32" class="node"><title>Node14</title>
<a xlink:href="class_urho3_d_1_1_material.html#a740b3f6f56769cb6e2414aedead579b4" target="_top" xlink:title="Set texture.">
<polygon fill="none" stroke="black" points="176.5,-368.5 176.5,-389.5 331.5,-389.5 331.5,-368.5 176.5,-368.5"/>
<text text-anchor="middle" x="254" y="-376.5" font-family="FreeSans" font-size="10.00">Urho3D::Material::SetTexture</text>
</a>
</g>
<!-- Node1&#45;&gt;Node14 -->
<g id="edge36" class="edge"><title>Node1&#45;&gt;Node14</title>
<path fill="none" stroke="midnightblue" d="M71.7223,-485.292C86.9384,-465.035 122.91,-421.151 164,-399 168.183,-396.745 172.606,-394.744 177.157,-392.969"/>
<polygon fill="midnightblue" stroke="midnightblue" points="178.371,-396.252 186.643,-389.632 176.048,-389.649 178.371,-396.252"/>
</g>
<!-- Node15 -->
<g id="node34" class="node"><title>Node15</title>
<a xlink:href="class_urho3_d_1_1_x_m_l_element.html#aa151f57fcb4eca0607acc2412a5eda5b" target="_top" xlink:title="Return next sibling element.">
<polygon fill="none" stroke="black" points="401.5,-524 401.5,-558 520.5,-558 520.5,-524 401.5,-524"/>
<text text-anchor="start" x="409.5" y="-545" font-family="FreeSans" font-size="10.00">Urho3D::XMLElement</text>
<text text-anchor="middle" x="461" y="-532" font-family="FreeSans" font-size="10.00">::GetNext</text>
</a>
</g>
<!-- Node1&#45;&gt;Node15 -->
<g id="edge38" class="edge"><title>Node1&#45;&gt;Node15</title>
<path fill="none" stroke="midnightblue" d="M127.705,-505.26C139.75,-506.914 152.254,-508.565 164,-510 241.712,-519.493 331.089,-528.573 391.327,-534.425"/>
<polygon fill="midnightblue" stroke="midnightblue" points="391.191,-537.928 401.481,-535.407 391.865,-530.96 391.191,-537.928"/>
</g>
<!-- Node16 -->
<g id="node38" class="node"><title>Node16</title>
<a xlink:href="class_urho3_d_1_1_material.html#a60888caa70b639e24af8c6581280ebca" target="_top" xlink:title="Parse a shader parameter value from a string. Retunrs either a bool, a float, or a 2 to 4&#45;component v...">
<polygon fill="none" stroke="red" points="172,-316 172,-350 336,-350 336,-316 172,-316"/>
<text text-anchor="start" x="180" y="-337" font-family="FreeSans" font-size="10.00">Urho3D::Material::ParseShader</text>
<text text-anchor="middle" x="254" y="-324" font-family="FreeSans" font-size="10.00">ParameterValue</text>
</a>
</g>
<!-- Node1&#45;&gt;Node16 -->
<g id="edge44" class="edge"><title>Node1&#45;&gt;Node16</title>
<path fill="none" stroke="midnightblue" d="M68.7869,-485.223C80.8432,-459.34 115.029,-393.281 164,-359 166.098,-357.531 168.279,-356.144 170.525,-354.835"/>
<polygon fill="midnightblue" stroke="midnightblue" points="172.224,-357.896 179.466,-350.163 168.982,-351.693 172.224,-357.896"/>
</g>
<!-- Node17 -->
<g id="node40" class="node"><title>Node17</title>
<a xlink:href="class_urho3_d_1_1_x_m_l_element.html#a6c0ac4eb1982df0af0dbbe423af85c4f" target="_top" xlink:title="Return a float attribute, or zero if missing.">
<polygon fill="none" stroke="black" points="194.5,-562 194.5,-596 313.5,-596 313.5,-562 194.5,-562"/>
<text text-anchor="start" x="202.5" y="-583" font-family="FreeSans" font-size="10.00">Urho3D::XMLElement</text>
<text text-anchor="middle" x="254" y="-570" font-family="FreeSans" font-size="10.00">::GetFloat</text>
</a>
</g>
<!-- Node1&#45;&gt;Node17 -->
<g id="edge46" class="edge"><title>Node1&#45;&gt;Node17</title>
<path fill="none" stroke="midnightblue" d="M82.3997,-506.619C102.165,-517.774 134.692,-535.414 164,-548 172.475,-551.639 181.533,-555.166 190.516,-558.455"/>
<polygon fill="midnightblue" stroke="midnightblue" points="189.609,-561.847 200.203,-561.925 191.969,-555.257 189.609,-561.847"/>
</g>
<!-- Node18 -->
<g id="node43" class="node"><title>Node18</title>
<a xlink:href="class_urho3_d_1_1_material.html#af87458615722fd8505c8d21460910d68" target="_top" xlink:title="Set shader parameter animation.">
<polygon fill="none" stroke="red" points="176.5,-264 176.5,-298 331.5,-298 331.5,-264 176.5,-264"/>
<text text-anchor="start" x="184.5" y="-285" font-family="FreeSans" font-size="10.00">Urho3D::Material::SetShader</text>
<text text-anchor="middle" x="254" y="-272" font-family="FreeSans" font-size="10.00">ParameterAnimation</text>
</a>
</g>
<!-- Node1&#45;&gt;Node18 -->
<g id="edge50" class="edge"><title>Node1&#45;&gt;Node18</title>
<path fill="none" stroke="midnightblue" d="M66.5499,-485.114C74.7007,-452.767 103.227,-356.416 164,-307 165.562,-305.73 167.183,-304.523 168.853,-303.374"/>
<polygon fill="midnightblue" stroke="midnightblue" points="170.827,-306.271 177.58,-298.107 167.21,-300.277 170.827,-306.271"/>
</g>
<!-- Node19 -->
<g id="node45" class="node"><title>Node19</title>
<a xlink:href="class_urho3_d_1_1_material.html#a0b424910345ba115deeba4d0a7d44d75" target="_top" xlink:title="Set culling mode.">
<polygon fill="none" stroke="black" points="172,-224.5 172,-245.5 336,-245.5 336,-224.5 172,-224.5"/>
<text text-anchor="middle" x="254" y="-232.5" font-family="FreeSans" font-size="10.00">Urho3D::Material::SetCullMode</text>
</a>
</g>
<!-- Node1&#45;&gt;Node19 -->
<g id="edge52" class="edge"><title>Node1&#45;&gt;Node19</title>
<path fill="none" stroke="midnightblue" d="M65.0123,-485.323C69.2033,-447.414 88.6948,-318.181 164,-255 165.985,-253.335 168.079,-251.8 170.26,-250.386"/>
<polygon fill="midnightblue" stroke="midnightblue" points="172.007,-253.419 179.057,-245.51 168.614,-247.296 172.007,-253.419"/>
</g>
<!-- Node20 -->
<g id="node48" class="node"><title>Node20</title>
<a xlink:href="class_urho3_d_1_1_material.html#a7ad95f9f7e87ff744ec116863b414571" target="_top" xlink:title="Set culling mode for shadows.">
<polygon fill="none" stroke="black" points="175,-172 175,-206 333,-206 333,-172 175,-172"/>
<text text-anchor="start" x="183" y="-193" font-family="FreeSans" font-size="10.00">Urho3D::Material::SetShadow</text>
<text text-anchor="middle" x="254" y="-180" font-family="FreeSans" font-size="10.00">CullMode</text>
</a>
</g>
<!-- Node1&#45;&gt;Node20 -->
<g id="edge56" class="edge"><title>Node1&#45;&gt;Node20</title>
<path fill="none" stroke="midnightblue" d="M64.471,-485.242C66.8801,-443.796 81.229,-292.896 164,-215 165.11,-213.955 166.26,-212.952 167.445,-211.988"/>
<polygon fill="midnightblue" stroke="midnightblue" points="169.539,-214.795 175.726,-206.194 165.526,-209.06 169.539,-214.795"/>
</g>
<!-- Node21 -->
<g id="node50" class="node"><title>Node21</title>
<a xlink:href="class_urho3_d_1_1_material.html#ad86e30cfd668bc741831a5c270a9de9f" target="_top" xlink:title="Set polygon fill mode. Interacts with the camera&#39;s fill mode setting so that the &quot;least filled&quot; mode ...">
<polygon fill="none" stroke="black" points="175,-132.5 175,-153.5 333,-153.5 333,-132.5 175,-132.5"/>
<text text-anchor="middle" x="254" y="-140.5" font-family="FreeSans" font-size="10.00">Urho3D::Material::SetFillMode</text>
</a>
</g>
<!-- Node1&#45;&gt;Node21 -->
<g id="edge58" class="edge"><title>Node1&#45;&gt;Node21</title>
<path fill="none" stroke="midnightblue" d="M65.7397,-485.266C74.3545,-433.41 114.039,-209.438 164,-163 165.495,-161.611 167.064,-160.31 168.696,-159.093"/>
<polygon fill="midnightblue" stroke="midnightblue" points="170.721,-161.954 177.334,-153.677 167.002,-156.024 170.721,-161.954"/>
</g>
<!-- Node22 -->
<g id="node52" class="node"><title>Node22</title>
<a xlink:href="class_urho3_d_1_1_material.html#a94e2635fff559ea248d0687505fb07a2" target="_top" xlink:title="Set depth bias.">
<polygon fill="none" stroke="red" points="169,-92.5 169,-113.5 339,-113.5 339,-92.5 169,-92.5"/>
<text text-anchor="middle" x="254" y="-100.5" font-family="FreeSans" font-size="10.00">Urho3D::Material::SetDepthBias</text>
</a>
</g>
<!-- Node1&#45;&gt;Node22 -->
<g id="edge60" class="edge"><title>Node1&#45;&gt;Node22</title>
<path fill="none" stroke="midnightblue" d="M65.3461,-485.487C72.6036,-430.432 108.799,-175.862 164,-123 165.474,-121.589 167.024,-120.268 168.64,-119.033"/>
<polygon fill="midnightblue" stroke="midnightblue" points="170.676,-121.885 177.208,-113.544 166.9,-115.991 170.676,-121.885"/>
</g>
<!-- Node23 -->
<g id="node54" class="node"><title>Node23</title>
<a xlink:href="class_urho3_d_1_1_material.html#a60c107d0bc70408017c10b57fb1ce23e" target="_top" xlink:title="Set 8&#45;bit render order within pass. Default 128. Lower values will render earlier and higher values l...">
<polygon fill="none" stroke="black" points="177.5,-40 177.5,-74 330.5,-74 330.5,-40 177.5,-40"/>
<text text-anchor="start" x="185.5" y="-61" font-family="FreeSans" font-size="10.00">Urho3D::Material::SetRender</text>
<text text-anchor="middle" x="254" y="-48" font-family="FreeSans" font-size="10.00">Order</text>
</a>
</g>
<!-- Node1&#45;&gt;Node23 -->
<g id="edge62" class="edge"><title>Node1&#45;&gt;Node23</title>
<path fill="none" stroke="midnightblue" d="M65.1532,-485.223C71.6603,-426.348 105.589,-144.02 164,-83 165.599,-81.3295 167.298,-79.7643 169.081,-78.298"/>
<polygon fill="midnightblue" stroke="midnightblue" points="171.204,-81.0845 177.387,-72.4813 167.188,-75.3506 171.204,-81.0845"/>
</g>
<!-- Node24 -->
<g id="node56" class="node"><title>Node24</title>
<a xlink:href="class_urho3_d_1_1_x_m_l_element.html#a0f3cc1f4e6b77f356185789e7bcf431a" target="_top" xlink:title="Return an unsigned integer attribute, or zero if missing.">
<polygon fill="none" stroke="black" points="194.5,-652 194.5,-686 313.5,-686 313.5,-652 194.5,-652"/>
<text text-anchor="start" x="202.5" y="-673" font-family="FreeSans" font-size="10.00">Urho3D::XMLElement</text>
<text text-anchor="middle" x="254" y="-660" font-family="FreeSans" font-size="10.00">::GetUInt</text>
</a>
</g>
<!-- Node1&#45;&gt;Node24 -->
<g id="edge64" class="edge"><title>Node1&#45;&gt;Node24</title>
<path fill="none" stroke="midnightblue" d="M68.6152,-506.622C80.5226,-532.816 114.827,-601.045 164,-638 170.317,-642.747 177.413,-646.802 184.778,-650.258"/>
<polygon fill="midnightblue" stroke="midnightblue" points="183.643,-653.58 194.211,-654.323 186.412,-647.152 183.643,-653.58"/>
</g>
<!-- Node25 -->
<g id="node61" class="node"><title>Node25</title>
<a xlink:href="class_urho3_d_1_1_material.html#af0ba9351397f7db0c5ca24ca1452ba7b" target="_top" xlink:title="Re&#45;evaluate occlusion rendering.">
<polygon fill="none" stroke="red" points="164.5,-0.5 164.5,-21.5 343.5,-21.5 343.5,-0.5 164.5,-0.5"/>
<text text-anchor="middle" x="254" y="-8.5" font-family="FreeSans" font-size="10.00">Urho3D::Material::CheckOcclusion</text>
</a>
</g>
<!-- Node1&#45;&gt;Node25 -->
<g id="edge72" class="edge"><title>Node1&#45;&gt;Node25</title>
<path fill="none" stroke="midnightblue" d="M64.7519,-485.498C69.4509,-422.831 96.7915,-98.6699 164,-31 165.279,-29.7117 166.622,-28.4983 168.02,-27.3558"/>
<polygon fill="midnightblue" stroke="midnightblue" points="170.261,-30.0655 176.574,-21.5573 166.333,-24.2713 170.261,-30.0655"/>
</g>
<!-- Node3 -->
<g id="node5" class="node"><title>Node3</title>
<a xlink:href="class_urho3_d_1_1_thread.html#a591d469de804a63cbcca350b84f96670" target="_top" xlink:title="Return whether is executing in the main thread.">
<polygon fill="none" stroke="red" points="380.5,-958.5 380.5,-979.5 541.5,-979.5 541.5,-958.5 380.5,-958.5"/>
<text text-anchor="middle" x="461" y="-966.5" font-family="FreeSans" font-size="10.00">Urho3D::Thread::IsMainThread</text>
</a>
</g>
<!-- Node2&#45;&gt;Node3 -->
<g id="edge4" class="edge"><title>Node2&#45;&gt;Node3</title>
<path fill="none" stroke="midnightblue" d="M297.624,-909.066C312.397,-914.947 328.961,-921.653 344,-928 360.131,-934.808 363.606,-937.852 380,-944 390.871,-948.077 402.734,-952.015 413.946,-955.513"/>
<polygon fill="midnightblue" stroke="midnightblue" points="413.002,-958.885 423.589,-958.466 415.052,-952.192 413.002,-958.885"/>
</g>
<!-- Node2&#45;&gt;Node4 -->
<g id="edge6" class="edge"><title>Node2&#45;&gt;Node4</title>
<path fill="none" stroke="midnightblue" d="M324.081,-876.765C339.816,-873.344 356.705,-869.673 373.064,-866.116"/>
<polygon fill="midnightblue" stroke="midnightblue" points="374.138,-869.465 383.166,-863.92 372.651,-862.625 374.138,-869.465"/>
</g>
<!-- Node2&#45;&gt;Node5 -->
<g id="edge12" class="edge"><title>Node2&#45;&gt;Node5</title>
<path fill="none" stroke="midnightblue" d="M324.281,-900.078C342.425,-902.089 361.933,-904.187 380,-906 443.207,-912.341 514.885,-918.717 568.199,-923.302"/>
<polygon fill="midnightblue" stroke="midnightblue" points="568.008,-926.799 578.271,-924.166 568.606,-919.824 568.008,-926.799"/>
</g>
<!-- Node2&#45;&gt;Node6 -->
<g id="edge14" class="edge"><title>Node2&#45;&gt;Node6</title>
<path fill="none" stroke="midnightblue" d="M324.209,-890.788C382.755,-888.961 468.213,-884.394 542,-873 553.225,-871.267 565.005,-868.92 576.464,-866.341"/>
<polygon fill="midnightblue" stroke="midnightblue" points="577.482,-869.698 586.43,-864.026 575.897,-862.88 577.482,-869.698"/>
</g>
<!-- Node4&#45;&gt;Node5 -->
<g id="edge8" class="edge"><title>Node4&#45;&gt;Node5</title>
<path fill="none" stroke="midnightblue" d="M499.747,-864.198C528.928,-877.15 569.097,-894.979 600.263,-908.812"/>
<polygon fill="midnightblue" stroke="midnightblue" points="599.063,-912.109 609.623,-912.967 601.903,-905.711 599.063,-912.109"/>
</g>
<!-- Node4&#45;&gt;Node6 -->
<g id="edge10" class="edge"><title>Node4&#45;&gt;Node6</title>
<path fill="none" stroke="midnightblue" d="M538.68,-847C548.437,-847 558.43,-847 568.218,-847"/>
<polygon fill="midnightblue" stroke="midnightblue" points="568.326,-850.5 578.326,-847 568.325,-843.5 568.326,-850.5"/>
</g>
<!-- Node8&#45;&gt;Node9 -->
<g id="edge20" class="edge"><title>Node8&#45;&gt;Node9</title>
<path fill="none" stroke="midnightblue" d="M509.015,-468.081C519.98,-472.338 531.494,-477.096 542,-482 570.096,-495.114 600.931,-512.656 622.065,-525.197"/>
<polygon fill="midnightblue" stroke="midnightblue" points="620.391,-528.274 630.769,-530.405 623.985,-522.267 620.391,-528.274"/>
</g>
<!-- Node10&#45;&gt;Node3 -->
<g id="edge24" class="edge"><title>Node10&#45;&gt;Node3</title>
<path fill="none" stroke="midnightblue" d="M320.636,-958.829C336.393,-959.971 353.463,-961.207 370.092,-962.412"/>
<polygon fill="midnightblue" stroke="midnightblue" points="370.147,-965.926 380.373,-963.157 370.652,-958.944 370.147,-965.926"/>
</g>
<!-- Node12&#45;&gt;Node9 -->
<g id="edge30" class="edge"><title>Node12&#45;&gt;Node9</title>
<path fill="none" stroke="midnightblue" d="M489.433,-670.824C505.289,-660.896 525.174,-647.856 542,-635 574.265,-610.347 608.997,-578.4 629.597,-558.818"/>
<polygon fill="midnightblue" stroke="midnightblue" points="632.21,-561.162 637.015,-551.719 627.37,-556.105 632.21,-561.162"/>
</g>
<!-- Node13&#45;&gt;Node9 -->
<g id="edge34" class="edge"><title>Node13&#45;&gt;Node9</title>
<path fill="none" stroke="midnightblue" d="M508.188,-591.841C539.489,-580.458 580.055,-565.707 609.422,-555.028"/>
<polygon fill="midnightblue" stroke="midnightblue" points="610.721,-558.28 618.922,-551.574 608.328,-551.702 610.721,-558.28"/>
</g>
<!-- Node15&#45;&gt;Node9 -->
<g id="edge40" class="edge"><title>Node15&#45;&gt;Node9</title>
<path fill="none" stroke="midnightblue" d="M520.682,-541C537.391,-541 555.765,-541 573.23,-541"/>
<polygon fill="midnightblue" stroke="midnightblue" points="573.389,-544.5 583.388,-541 573.388,-537.5 573.389,-544.5"/>
</g>
<!-- Node17&#45;&gt;Node13 -->
<g id="edge48" class="edge"><title>Node17&#45;&gt;Node13</title>
<path fill="none" stroke="midnightblue" d="M313.595,-587.637C337.844,-591.151 366.04,-595.238 391.24,-598.89"/>
<polygon fill="midnightblue" stroke="midnightblue" points="391.068,-602.401 401.467,-600.372 392.072,-595.474 391.068,-602.401"/>
</g>
<!-- Node24&#45;&gt;Node13 -->
<g id="edge66" class="edge"><title>Node24&#45;&gt;Node13</title>
<path fill="none" stroke="midnightblue" d="M312.764,-651.967C337.565,-644.778 366.61,-636.359 392.386,-628.888"/>
<polygon fill="midnightblue" stroke="midnightblue" points="393.459,-632.221 402.089,-626.076 391.51,-625.498 393.459,-632.221"/>
</g>
</g>
</svg>
