<?xml version="1.0" encoding="UTF-8" standalone="no"?>
<!DOCTYPE svg PUBLIC "-//W3C//DTD SVG 1.1//EN"
 "http://www.w3.org/Graphics/SVG/1.1/DTD/svg11.dtd">
<!-- Generated by graphviz version 2.26.3 (20100126.1600)
 -->
<!-- Title: Urho3D::Input::AddScreenJoystick Pages: 1 -->
<!--zoomable 1012 -->
<svg id="main" version="1.1" xmlns="http://www.w3.org/2000/svg" xmlns:xlink="http://www.w3.org/1999/xlink" xml:space="preserve" onload="init(evt)">
        <defs>
                <circle id="rim" cx="0" cy="0" r="7"/>
                <circle id="rim2" cx="0" cy="0" r="3.5"/>
                <g id="zoomPlus">
                        <use xlink:href="#rim" fill="#404040">
                                <set attributeName="fill" to="#808080" begin="zoomplus.mouseover" end="zoomplus.mouseout"/>
                        </use>
                        <path d="M-4,0h8M0,-4v8" fill="none" stroke="white" stroke-width="1.5" pointer-events="none"/>
                </g>
                <g id="zoomMin">
                        <use xlink:href="#rim" fill="#404040">
                                <set attributeName="fill" to="#808080" begin="zoomminus.mouseover" end="zoomminus.mouseout"/>
                        </use>
                        <path d="M-4,0h8" fill="none" stroke="white" stroke-width="1.5" pointer-events="none"/>
                </g>
                <g id="dirArrow">
                        <path fill="none" stroke="white" stroke-width="1.5" d="M0,-3.0v7 M-2.5,-0.5L0,-3.0L2.5,-0.5"/>
                </g>
               <g id="resetDef">
                       <use xlink:href="#rim2" fill="#404040">
                               <set attributeName="fill" to="#808080" begin="reset.mouseover" end="reset.mouseout"/>
                       </use>
               </g>
        </defs>

<script type="text/javascript">
var viewWidth = 674;
var viewHeight = 1012;
var sectionId = 'dynsection-2';
</script>
<script xlink:href="svgpan.js"/>
<svg id="graph" class="graph">
<g id="viewport">
<title>Urho3D::Input::AddScreenJoystick</title>
<!-- Node1 -->
<g id="node1" class="node"><title>Node1</title>
<polygon fill="#bfbfbf" stroke="black" points="0,-480 0,-514 142,-514 142,-480 0,-480"/>
<text text-anchor="start" x="8" y="-501" font-family="FreeSans" font-size="10.00">Urho3D::Input::AddScreen</text>
<text text-anchor="middle" x="71" y="-488" font-family="FreeSans" font-size="10.00">Joystick</text>
</g>
<!-- Node2 -->
<g id="node3" class="node"><title>Node2</title>
<a xlink:href="class_urho3_d_1_1_resource_cache.html#aa1657db0fcf2a1578bcb4bd5a00146ca" target="_top" xlink:title="Return a resource by type and name. Load if not loaded yet. Return null if not found or if fails...">
<polygon fill="none" stroke="red" points="179.5,-878 179.5,-912 312.5,-912 312.5,-878 179.5,-878"/>
<text text-anchor="start" x="187.5" y="-899" font-family="FreeSans" font-size="10.00">Urho3D::ResourceCache</text>
<text text-anchor="middle" x="246" y="-886" font-family="FreeSans" font-size="10.00">::GetResource</text>
</a>
</g>
<!-- Node1&#45;&gt;Node2 -->
<g id="edge2" class="edge"><title>Node1&#45;&gt;Node2</title>
<path fill="none" stroke="midnightblue" d="M74.0791,-514.339C85.9477,-579.535 130.444,-809.048 178,-864 180.6,-867.005 183.551,-869.734 186.732,-872.211"/>
<polygon fill="midnightblue" stroke="midnightblue" points="184.806,-875.134 195.044,-877.861 188.742,-869.345 184.806,-875.134"/>
</g>
<!-- Node4 -->
<g id="node7" class="node"><title>Node4</title>
<a xlink:href="class_urho3_d_1_1_vector.html#a06762e9e70b9851f54a845555f28cd4b" target="_top" xlink:title="Return size of vector.">
<polygon fill="none" stroke="black" points="536,-956.5 536,-977.5 652,-977.5 652,-956.5 536,-956.5"/>
<text text-anchor="middle" x="594" y="-964.5" font-family="FreeSans" font-size="10.00">Urho3D::Vector::Size</text>
</a>
</g>
<!-- Node1&#45;&gt;Node4 -->
<g id="edge58" class="edge"><title>Node1&#45;&gt;Node4</title>
<path fill="none" stroke="midnightblue" d="M72.416,-514.062C79.0108,-589.007 109.342,-887.802 178,-945 284.926,-1034.08 466.15,-1001.67 549.562,-980.084"/>
<polygon fill="midnightblue" stroke="midnightblue" points="550.471,-983.463 559.238,-977.513 548.674,-976.698 550.471,-983.463"/>
</g>
<!-- Node5 -->
<g id="node9" class="node"><title>Node5</title>
<a xlink:href="class_urho3_d_1_1_string.html#a6dffd447850e4d687096a79dafe8bdac" target="_top" xlink:title="Return whether starts with a string.">
<polygon fill="none" stroke="red" points="522.5,-895.5 522.5,-916.5 665.5,-916.5 665.5,-895.5 522.5,-895.5"/>
<text text-anchor="middle" x="594" y="-903.5" font-family="FreeSans" font-size="10.00">Urho3D::String::StartsWith</text>
</a>
</g>
<!-- Node1&#45;&gt;Node5 -->
<g id="edge30" class="edge"><title>Node1&#45;&gt;Node5</title>
<path fill="none" stroke="midnightblue" d="M72.5944,-514.215C79.7335,-587.124 111.371,-869.096 178,-921 230.761,-962.1 424.682,-935.929 528.068,-918.276"/>
<polygon fill="midnightblue" stroke="midnightblue" points="528.829,-921.697 538.087,-916.544 527.637,-914.799 528.829,-921.697"/>
</g>
<!-- Node6 -->
<g id="node11" class="node"><title>Node6</title>
<a xlink:href="class_urho3_d_1_1_string.html#ade8095f1798d6e1d4ed03d43d9919611" target="_top" xlink:title="Return a substring from position to end.">
<polygon fill="none" stroke="red" points="524,-843.5 524,-864.5 664,-864.5 664,-843.5 524,-843.5"/>
<text text-anchor="middle" x="594" y="-851.5" font-family="FreeSans" font-size="10.00">Urho3D::String::Substring</text>
</a>
</g>
<!-- Node1&#45;&gt;Node6 -->
<g id="edge56" class="edge"><title>Node1&#45;&gt;Node6</title>
<path fill="none" stroke="midnightblue" d="M74.1045,-514.068C85.5685,-575.101 127.481,-781.025 178,-821 228.223,-860.741 407.486,-861.33 513.602,-857.89"/>
<polygon fill="midnightblue" stroke="midnightblue" points="513.762,-861.387 523.636,-857.546 513.522,-854.391 513.762,-861.387"/>
</g>
<!-- Node7 -->
<g id="node13" class="node"><title>Node7</title>
<a xlink:href="class_urho3_d_1_1_string.html#a11572e3c07f60de65ac5d0c1ca5b6ba3" target="_top" xlink:title="Return length.">
<polygon fill="none" stroke="black" points="530.5,-802.5 530.5,-823.5 657.5,-823.5 657.5,-802.5 530.5,-802.5"/>
<text text-anchor="middle" x="594" y="-810.5" font-family="FreeSans" font-size="10.00">Urho3D::String::Length</text>
</a>
</g>
<!-- Node1&#45;&gt;Node7 -->
<g id="edge38" class="edge"><title>Node1&#45;&gt;Node7</title>
<path fill="none" stroke="midnightblue" d="M74.6302,-514.255C87.1903,-572.183 130.633,-758.028 178,-793 230.424,-831.706 415.256,-825.822 520.052,-818.95"/>
<polygon fill="midnightblue" stroke="midnightblue" points="520.505,-822.428 530.247,-818.262 520.034,-815.443 520.505,-822.428"/>
</g>
<!-- Node8 -->
<g id="node15" class="node"><title>Node8</title>
<a xlink:href="class_urho3_d_1_1_u_i.html#aeb17cee1b62a29b57c557bbaab230243" target="_top" xlink:title="Load a UI layout from an XML file. Optionally specify another XML file for element style...">
<polygon fill="none" stroke="black" points="180.5,-762.5 180.5,-783.5 311.5,-783.5 311.5,-762.5 180.5,-762.5"/>
<text text-anchor="middle" x="246" y="-770.5" font-family="FreeSans" font-size="10.00">Urho3D::UI::LoadLayout</text>
</a>
</g>
<!-- Node1&#45;&gt;Node8 -->
<g id="edge14" class="edge"><title>Node1&#45;&gt;Node8</title>
<path fill="none" stroke="midnightblue" d="M73.0965,-514.234C79.6086,-560.152 103.728,-686.469 178,-753 179.75,-754.568 181.617,-756.013 183.575,-757.345"/>
<polygon fill="midnightblue" stroke="midnightblue" points="182.223,-760.602 192.649,-762.491 185.677,-754.513 182.223,-760.602"/>
</g>
<!-- Node9 -->
<g id="node17" class="node"><title>Node9</title>
<a xlink:href="class_urho3_d_1_1_u_i.html#a0a91caff1edbcab1038879d9c79a4e44" target="_top" xlink:title="Return root UI element.">
<polygon fill="none" stroke="black" points="189.5,-722.5 189.5,-743.5 302.5,-743.5 302.5,-722.5 189.5,-722.5"/>
<text text-anchor="middle" x="246" y="-730.5" font-family="FreeSans" font-size="10.00">Urho3D::UI::GetRoot</text>
</a>
</g>
<!-- Node1&#45;&gt;Node9 -->
<g id="edge16" class="edge"><title>Node1&#45;&gt;Node9</title>
<path fill="none" stroke="midnightblue" d="M74.5628,-514.218C83.9233,-555.071 113.1,-658.507 178,-713 179.979,-714.662 182.091,-716.185 184.301,-717.582"/>
<polygon fill="midnightblue" stroke="midnightblue" points="182.766,-720.731 193.234,-722.368 186.072,-714.561 182.766,-720.731"/>
</g>
<!-- Node10 -->
<g id="node19" class="node"><title>Node10</title>
<a xlink:href="class_urho3_d_1_1_u_i_element.html#aa1d4bf467b99749011b103227deb3004" target="_top" xlink:title="Return size.">
<polygon fill="none" stroke="black" points="188.5,-670 188.5,-704 303.5,-704 303.5,-670 188.5,-670"/>
<text text-anchor="start" x="196.5" y="-691" font-family="FreeSans" font-size="10.00">Urho3D::UIElement::</text>
<text text-anchor="middle" x="246" y="-678" font-family="FreeSans" font-size="10.00">GetSize</text>
</a>
</g>
<!-- Node1&#45;&gt;Node10 -->
<g id="edge18" class="edge"><title>Node1&#45;&gt;Node10</title>
<path fill="none" stroke="midnightblue" d="M77.8648,-514.166C91.8712,-547.132 126.806,-619.69 178,-661 179.549,-662.25 181.165,-663.445 182.834,-664.586"/>
<polygon fill="midnightblue" stroke="midnightblue" points="181.183,-667.678 191.551,-669.858 184.805,-661.688 181.183,-667.678"/>
</g>
<!-- Node11 -->
<g id="node21" class="node"><title>Node11</title>
<a xlink:href="class_urho3_d_1_1_u_i_element.html#a76a4d4fc652ea858d46846ac2739ee98" target="_top" xlink:title="Add a child element.">
<polygon fill="none" stroke="red" points="188.5,-618 188.5,-652 303.5,-652 303.5,-618 188.5,-618"/>
<text text-anchor="start" x="196.5" y="-639" font-family="FreeSans" font-size="10.00">Urho3D::UIElement::</text>
<text text-anchor="middle" x="246" y="-626" font-family="FreeSans" font-size="10.00">AddChild</text>
</a>
</g>
<!-- Node1&#45;&gt;Node11 -->
<g id="edge20" class="edge"><title>Node1&#45;&gt;Node11</title>
<path fill="none" stroke="midnightblue" d="M83.3377,-514.069C101.573,-538.211 137.914,-582.35 178,-609 180.164,-610.439 182.42,-611.814 184.737,-613.127"/>
<polygon fill="midnightblue" stroke="midnightblue" points="183.436,-616.395 193.926,-617.883 186.654,-610.178 183.436,-616.395"/>
</g>
<!-- Node12 -->
<g id="node23" class="node"><title>Node12</title>
<a xlink:href="class_urho3_d_1_1_u_i_element.html#a17892be3e5745eb71075f35038c0dea8" target="_top" xlink:title="Return immediate child elements.">
<polygon fill="none" stroke="black" points="188.5,-566 188.5,-600 303.5,-600 303.5,-566 188.5,-566"/>
<text text-anchor="start" x="196.5" y="-587" font-family="FreeSans" font-size="10.00">Urho3D::UIElement::</text>
<text text-anchor="middle" x="246" y="-574" font-family="FreeSans" font-size="10.00">GetChildren</text>
</a>
</g>
<!-- Node1&#45;&gt;Node12 -->
<g id="edge22" class="edge"><title>Node1&#45;&gt;Node12</title>
<path fill="none" stroke="midnightblue" d="M99.0183,-514.198C120.266,-526.872 150.421,-544.079 178,-557 181.734,-558.749 185.621,-560.475 189.561,-562.155"/>
<polygon fill="midnightblue" stroke="midnightblue" points="188.225,-565.39 198.803,-565.98 190.902,-558.922 188.225,-565.39"/>
</g>
<!-- Node13 -->
<g id="node25" class="node"><title>Node13</title>
<a xlink:href="class_urho3_d_1_1_vector.html#aa20f23bae4cf1d7cda06f6c3b47c7504" target="_top" xlink:title="Return iterator to the beginning.">
<polygon fill="none" stroke="black" points="184.5,-526.5 184.5,-547.5 307.5,-547.5 307.5,-526.5 184.5,-526.5"/>
<text text-anchor="middle" x="246" y="-534.5" font-family="FreeSans" font-size="10.00">Urho3D::Vector::Begin</text>
</a>
</g>
<!-- Node1&#45;&gt;Node13 -->
<g id="edge24" class="edge"><title>Node1&#45;&gt;Node13</title>
<path fill="none" stroke="midnightblue" d="M142.179,-513.27C158.17,-516.925 174.915,-520.752 190.174,-524.24"/>
<polygon fill="midnightblue" stroke="midnightblue" points="189.435,-527.661 199.964,-526.477 190.995,-520.837 189.435,-527.661"/>
</g>
<!-- Node14 -->
<g id="node27" class="node"><title>Node14</title>
<a xlink:href="class_urho3_d_1_1_vector.html#af79ffb0683568b08fe130ee028bfd1ef" target="_top" xlink:title="Return iterator to the end.">
<polygon fill="none" stroke="black" points="189,-486.5 189,-507.5 303,-507.5 303,-486.5 189,-486.5"/>
<text text-anchor="middle" x="246" y="-494.5" font-family="FreeSans" font-size="10.00">Urho3D::Vector::End</text>
</a>
</g>
<!-- Node1&#45;&gt;Node14 -->
<g id="edge26" class="edge"><title>Node1&#45;&gt;Node14</title>
<path fill="none" stroke="midnightblue" d="M142.179,-497C154.182,-497 166.61,-497 178.515,-497"/>
<polygon fill="midnightblue" stroke="midnightblue" points="178.82,-500.5 188.82,-497 178.82,-493.5 178.82,-500.5"/>
</g>
<!-- Node15 -->
<g id="node29" class="node"><title>Node15</title>
<a xlink:href="class_urho3_d_1_1_u_i_element.html#a784af86dd836d5257b7c807f8cb9b072" target="_top" xlink:title="Return name.">
<polygon fill="none" stroke="black" points="188.5,-434 188.5,-468 303.5,-468 303.5,-434 188.5,-434"/>
<text text-anchor="start" x="196.5" y="-455" font-family="FreeSans" font-size="10.00">Urho3D::UIElement::</text>
<text text-anchor="middle" x="246" y="-442" font-family="FreeSans" font-size="10.00">GetName</text>
</a>
</g>
<!-- Node1&#45;&gt;Node15 -->
<g id="edge28" class="edge"><title>Node1&#45;&gt;Node15</title>
<path fill="none" stroke="midnightblue" d="M136.164,-479.871C149.926,-476.254 164.479,-472.428 178.332,-468.787"/>
<polygon fill="midnightblue" stroke="midnightblue" points="179.492,-472.101 188.274,-466.174 177.713,-465.331 179.492,-472.101"/>
</g>
<!-- Node16 -->
<g id="node32" class="node"><title>Node16</title>
<a xlink:href="class_urho3_d_1_1_u_i_element.html#a2de24717fe9c66ab2d15a3b37c037bd0" target="_top" xlink:title="Return child element by index.">
<polygon fill="none" stroke="black" points="188.5,-382 188.5,-416 303.5,-416 303.5,-382 188.5,-382"/>
<text text-anchor="start" x="196.5" y="-403" font-family="FreeSans" font-size="10.00">Urho3D::UIElement::</text>
<text text-anchor="middle" x="246" y="-390" font-family="FreeSans" font-size="10.00">GetChild</text>
</a>
</g>
<!-- Node1&#45;&gt;Node16 -->
<g id="edge32" class="edge"><title>Node1&#45;&gt;Node16</title>
<path fill="none" stroke="midnightblue" d="M93.0337,-479.99C114.047,-464.307 146.998,-441.091 178,-425 181.124,-423.379 184.372,-421.803 187.681,-420.281"/>
<polygon fill="midnightblue" stroke="midnightblue" points="189.363,-423.366 197.116,-416.145 186.552,-416.955 189.363,-423.366"/>
</g>
<!-- Node17 -->
<g id="node34" class="node"><title>Node17</title>
<a xlink:href="class_urho3_d_1_1_u_i_element.html#a8a0131dfc7f06ce10cdb77418ec830a9" target="_top" xlink:title="Set whether is visible. Visibility propagates to child elements.">
<polygon fill="none" stroke="red" points="188.5,-330 188.5,-364 303.5,-364 303.5,-330 188.5,-330"/>
<text text-anchor="start" x="196.5" y="-351" font-family="FreeSans" font-size="10.00">Urho3D::UIElement::</text>
<text text-anchor="middle" x="246" y="-338" font-family="FreeSans" font-size="10.00">SetVisible</text>
</a>
</g>
<!-- Node1&#45;&gt;Node17 -->
<g id="edge34" class="edge"><title>Node1&#45;&gt;Node17</title>
<path fill="none" stroke="midnightblue" d="M81.7502,-479.794C99.0332,-453.414 135.41,-402.896 178,-373 180.082,-371.539 182.257,-370.146 184.497,-368.821"/>
<polygon fill="midnightblue" stroke="midnightblue" points="186.249,-371.853 193.404,-364.04 182.938,-365.686 186.249,-371.853"/>
</g>
<!-- Node18 -->
<g id="node36" class="node"><title>Node18</title>
<a xlink:href="class_urho3_d_1_1_text.html#a0c97b8f60cad489151940e742be739ba" target="_top" xlink:title="Return text.">
<polygon fill="none" stroke="black" points="186,-290.5 186,-311.5 306,-311.5 306,-290.5 186,-290.5"/>
<text text-anchor="middle" x="246" y="-298.5" font-family="FreeSans" font-size="10.00">Urho3D::Text::GetText</text>
</a>
</g>
<!-- Node1&#45;&gt;Node18 -->
<g id="edge36" class="edge"><title>Node1&#45;&gt;Node18</title>
<path fill="none" stroke="midnightblue" d="M76.6248,-479.836C89.0607,-444.6 122.288,-363.82 178,-321 180.332,-319.207 182.822,-317.575 185.42,-316.089"/>
<polygon fill="midnightblue" stroke="midnightblue" points="187.164,-319.131 194.593,-311.578 184.075,-312.85 187.164,-319.131"/>
</g>
<!-- Node19 -->
<g id="node39" class="node"><title>Node19</title>
<a xlink:href="class_urho3_d_1_1_hash_map.html#a9dc4e5c0ad1feb3eec2d2f1f1714698d" target="_top" xlink:title="Return iterator to the pair with key, or end iterator if not found.">
<polygon fill="none" stroke="black" points="181.5,-250.5 181.5,-271.5 310.5,-271.5 310.5,-250.5 181.5,-250.5"/>
<text text-anchor="middle" x="246" y="-258.5" font-family="FreeSans" font-size="10.00">Urho3D::HashMap::Find</text>
</a>
</g>
<!-- Node1&#45;&gt;Node19 -->
<g id="edge40" class="edge"><title>Node1&#45;&gt;Node19</title>
<path fill="none" stroke="midnightblue" d="M74.5628,-479.782C83.9233,-438.929 113.1,-335.493 178,-281 179.979,-279.338 182.091,-277.815 184.301,-276.418"/>
<polygon fill="midnightblue" stroke="midnightblue" points="186.072,-279.439 193.234,-271.632 182.766,-273.269 186.072,-279.439"/>
</g>
<!-- Node20 -->
<g id="node41" class="node"><title>Node20</title>
<a xlink:href="class_urho3_d_1_1_hash_map.html#a47eb201d8441d4e4be8626e615cb562d" target="_top" xlink:title="Return iterator to the end.">
<polygon fill="none" stroke="black" points="182,-210.5 182,-231.5 310,-231.5 310,-210.5 182,-210.5"/>
<text text-anchor="middle" x="246" y="-218.5" font-family="FreeSans" font-size="10.00">Urho3D::HashMap::End</text>
</a>
</g>
<!-- Node1&#45;&gt;Node20 -->
<g id="edge42" class="edge"><title>Node1&#45;&gt;Node20</title>
<path fill="none" stroke="midnightblue" d="M73.0965,-479.766C79.6086,-433.848 103.728,-307.531 178,-241 179.75,-239.432 181.617,-237.987 183.575,-236.655"/>
<polygon fill="midnightblue" stroke="midnightblue" points="185.677,-239.487 192.649,-231.509 182.223,-233.398 185.677,-239.487"/>
</g>
<!-- Node21 -->
<g id="node43" class="node"><title>Node21</title>
<a xlink:href="class_urho3_d_1_1_string.html#a6b405eba451da6c0f216a8649adf79aa" target="_top" xlink:title="Return the C string.">
<polygon fill="none" stroke="black" points="353.5,-150.5 353.5,-171.5 482.5,-171.5 482.5,-150.5 353.5,-150.5"/>
<text text-anchor="middle" x="418" y="-158.5" font-family="FreeSans" font-size="10.00">Urho3D::String::CString</text>
</a>
</g>
<!-- Node1&#45;&gt;Node21 -->
<g id="edge44" class="edge"><title>Node1&#45;&gt;Node21</title>
<path fill="none" stroke="midnightblue" d="M73.812,-479.591C84.4153,-416.344 124.13,-200.381 178,-161 236.182,-118.467 325.305,-133.41 376.997,-147.577"/>
<polygon fill="midnightblue" stroke="midnightblue" points="376.24,-151.001 386.816,-150.383 378.163,-144.27 376.24,-151.001"/>
</g>
<!-- Node22 -->
<g id="node45" class="node"><title>Node22</title>
<a xlink:href="class_urho3_d_1_1_u_i_element.html#a7a085bb6b90aad996999804bd7e8a3e7" target="_top" xlink:title="Set a user variable.">
<polygon fill="none" stroke="black" points="188.5,-80 188.5,-114 303.5,-114 303.5,-80 188.5,-80"/>
<text text-anchor="start" x="196.5" y="-101" font-family="FreeSans" font-size="10.00">Urho3D::UIElement::</text>
<text text-anchor="middle" x="246" y="-88" font-family="FreeSans" font-size="10.00">SetVar</text>
</a>
</g>
<!-- Node1&#45;&gt;Node22 -->
<g id="edge46" class="edge"><title>Node1&#45;&gt;Node22</title>
<path fill="none" stroke="midnightblue" d="M74.0666,-479.567C85.8903,-414.019 130.245,-183.263 178,-128 180.598,-124.994 183.548,-122.263 186.727,-119.785"/>
<polygon fill="midnightblue" stroke="midnightblue" points="188.737,-122.651 195.037,-114.133 184.8,-116.863 188.737,-122.651"/>
</g>
<!-- Node23 -->
<g id="node47" class="node"><title>Node23</title>
<a xlink:href="class_urho3_d_1_1_string.html#a3d2477d745f6e572795b77ac69075c5d" target="_top" xlink:title="Return whether contains a specific occurrence of a string.">
<polygon fill="none" stroke="black" points="178,-40.5 178,-61.5 314,-61.5 314,-40.5 178,-40.5"/>
<text text-anchor="middle" x="246" y="-48.5" font-family="FreeSans" font-size="10.00">Urho3D::String::Contains</text>
</a>
</g>
<!-- Node1&#45;&gt;Node23 -->
<g id="edge48" class="edge"><title>Node1&#45;&gt;Node23</title>
<path fill="none" stroke="midnightblue" d="M73.0575,-479.683C81.9571,-407.571 119.356,-132.036 178,-71 179.26,-69.6884 180.602,-68.4616 182.011,-67.3141"/>
<polygon fill="midnightblue" stroke="midnightblue" points="184.3,-69.997 190.725,-61.5724 180.449,-64.1517 184.3,-69.997"/>
</g>
<!-- Node24 -->
<g id="node49" class="node"><title>Node24</title>
<a xlink:href="class_urho3_d_1_1_string.html#a69ff43bd8ef88af73c3fa6eb8a55d6f6" target="_top" xlink:title="Return substrings split by a separator char.">
<polygon fill="none" stroke="black" points="188.5,-170.5 188.5,-191.5 303.5,-191.5 303.5,-170.5 188.5,-170.5"/>
<text text-anchor="middle" x="246" y="-178.5" font-family="FreeSans" font-size="10.00">Urho3D::String::Split</text>
</a>
</g>
<!-- Node1&#45;&gt;Node24 -->
<g id="edge50" class="edge"><title>Node1&#45;&gt;Node24</title>
<path fill="none" stroke="midnightblue" d="M72,-479.742C75.8775,-429.151 94.2301,-279.824 178,-201 179.512,-199.577 181.121,-198.255 182.806,-197.026"/>
<polygon fill="midnightblue" stroke="midnightblue" points="185.016,-199.781 191.784,-191.63 181.41,-193.782 185.016,-199.781"/>
</g>
<!-- Node25 -->
<g id="node52" class="node"><title>Node25</title>
<a xlink:href="class_urho3_d_1_1_vector.html#a5d21ed173348c7bca276c417ed7d38e2" target="_top" xlink:title="Resize the vector.">
<polygon fill="none" stroke="black" points="183,-0.5 183,-21.5 309,-21.5 309,-0.5 183,-0.5"/>
<text text-anchor="middle" x="246" y="-8.5" font-family="FreeSans" font-size="10.00">Urho3D::Vector::Resize</text>
</a>
</g>
<!-- Node1&#45;&gt;Node25 -->
<g id="edge54" class="edge"><title>Node1&#45;&gt;Node25</title>
<path fill="none" stroke="midnightblue" d="M72.6358,-479.896C80.2229,-404.022 114.345,-98.6169 178,-31 179.218,-29.7064 180.514,-28.4951 181.877,-27.361"/>
<polygon fill="midnightblue" stroke="midnightblue" points="183.981,-30.164 190.317,-21.6726 180.069,-24.3593 183.981,-30.164"/>
</g>
<!-- Node3 -->
<g id="node5" class="node"><title>Node3</title>
<a xlink:href="class_urho3_d_1_1_resource_cache.html#acaf617b205d693cd493febfc01c330a8" target="_top" xlink:title="Remove unsupported constructs from the resource name to prevent ambiguity, and normalize absolute fil...">
<polygon fill="none" stroke="red" points="350,-878 350,-912 486,-912 486,-878 350,-878"/>
<text text-anchor="start" x="358" y="-899" font-family="FreeSans" font-size="10.00">Urho3D::ResourceCache</text>
<text text-anchor="middle" x="418" y="-886" font-family="FreeSans" font-size="10.00">::SanitateResourceName</text>
</a>
</g>
<!-- Node2&#45;&gt;Node3 -->
<g id="edge4" class="edge"><title>Node2&#45;&gt;Node3</title>
<path fill="none" stroke="midnightblue" d="M312.992,-895C321.764,-895 330.815,-895 339.752,-895"/>
<polygon fill="midnightblue" stroke="midnightblue" points="339.774,-898.5 349.774,-895 339.774,-891.5 339.774,-898.5"/>
</g>
<!-- Node3&#45;&gt;Node4 -->
<g id="edge6" class="edge"><title>Node3&#45;&gt;Node4</title>
<path fill="none" stroke="midnightblue" d="M459.71,-912.063C489.808,-924.376 530.005,-940.82 558.555,-952.5"/>
<polygon fill="midnightblue" stroke="midnightblue" points="557.552,-955.871 568.133,-956.418 560.202,-949.392 557.552,-955.871"/>
</g>
<!-- Node3&#45;&gt;Node5 -->
<g id="edge8" class="edge"><title>Node3&#45;&gt;Node5</title>
<path fill="none" stroke="midnightblue" d="M486.046,-899.253C494.598,-899.787 503.415,-900.338 512.151,-900.884"/>
<polygon fill="midnightblue" stroke="midnightblue" points="512.149,-904.391 522.348,-901.522 512.585,-897.405 512.149,-904.391"/>
</g>
<!-- Node3&#45;&gt;Node6 -->
<g id="edge10" class="edge"><title>Node3&#45;&gt;Node6</title>
<path fill="none" stroke="midnightblue" d="M486.046,-879.148C503.429,-875.099 521.909,-870.794 538.573,-866.912"/>
<polygon fill="midnightblue" stroke="midnightblue" points="539.744,-870.233 548.689,-864.555 538.156,-863.416 539.744,-870.233"/>
</g>
<!-- Node3&#45;&gt;Node7 -->
<g id="edge12" class="edge"><title>Node3&#45;&gt;Node7</title>
<path fill="none" stroke="midnightblue" d="M443.14,-877.868C463.647,-864.489 493.745,-846.184 522,-834 528.266,-831.298 534.984,-828.822 541.706,-826.593"/>
<polygon fill="midnightblue" stroke="midnightblue" points="543.019,-829.849 551.506,-823.507 540.916,-823.173 543.019,-829.849"/>
</g>
<!-- Node24&#45;&gt;Node21 -->
<g id="edge52" class="edge"><title>Node24&#45;&gt;Node21</title>
<path fill="none" stroke="midnightblue" d="M303.752,-174.285C316.428,-172.811 330.026,-171.23 343.262,-169.691"/>
<polygon fill="midnightblue" stroke="midnightblue" points="343.762,-173.156 353.291,-168.524 342.954,-166.203 343.762,-173.156"/>
</g>
</g>
</svg>
        <g id="navigator" transform="translate(0 0)" fill="#404254">
                <rect fill="#f2f5e9" fill-opacity="0.5" stroke="#606060" stroke-width=".5" x="0" y="0" width="60" height="60"/>
                <use id="zoomplus" xlink:href="#zoomPlus" x="17" y="9" onmousedown="handleZoom(evt,'in')"/>
                <use id="zoomminus" xlink:href="#zoomMin" x="42" y="9" onmousedown="handleZoom(evt,'out')"/>
                <use id="reset" xlink:href="#resetDef" x="30" y="36" onmousedown="handleReset()"/>
                <g id="arrowUp" xlink:href="#dirArrow" transform="translate(30 24)" onmousedown="handlePan(0,-1)">
                  <use xlink:href="#rim" fill="#404040">
                        <set attributeName="fill" to="#808080" begin="arrowUp.mouseover" end="arrowUp.mouseout"/>
                  </use>
                  <path fill="none" stroke="white" stroke-width="1.5" d="M0,-3.0v7 M-2.5,-0.5L0,-3.0L2.5,-0.5"/>
                </g>
                <g id="arrowRight" xlink:href="#dirArrow" transform="rotate(90) translate(36 -43)" onmousedown="handlePan(1,0)">
                  <use xlink:href="#rim" fill="#404040">
                        <set attributeName="fill" to="#808080" begin="arrowRight.mouseover" end="arrowRight.mouseout"/>
                  </use>
                  <path fill="none" stroke="white" stroke-width="1.5" d="M0,-3.0v7 M-2.5,-0.5L0,-3.0L2.5,-0.5"/>
                </g>
                <g id="arrowDown" xlink:href="#dirArrow" transform="rotate(180) translate(-30 -48)" onmousedown="handlePan(0,1)">
                  <use xlink:href="#rim" fill="#404040">
                        <set attributeName="fill" to="#808080" begin="arrowDown.mouseover" end="arrowDown.mouseout"/>
                  </use>
                  <path fill="none" stroke="white" stroke-width="1.5" d="M0,-3.0v7 M-2.5,-0.5L0,-3.0L2.5,-0.5"/>
                </g>
                <g id="arrowLeft" xlink:href="#dirArrow" transform="rotate(270) translate(-36 17)" onmousedown="handlePan(-1,0)">
                  <use xlink:href="#rim" fill="#404040">
                        <set attributeName="fill" to="#808080" begin="arrowLeft.mouseover" end="arrowLeft.mouseout"/>
                  </use>
                  <path fill="none" stroke="white" stroke-width="1.5" d="M0,-3.0v7 M-2.5,-0.5L0,-3.0L2.5,-0.5"/>
                </g>
        </g>
        <svg viewBox="0 0 15 15" width="100%" height="30px" preserveAspectRatio="xMaxYMin meet">
         <g id="arrow_out" transform="scale(0.3 0.3)">
          <a xlink:href="class_urho3_d_1_1_input_a108458dfa956947d861e96c58d269e85_cgraph_org.svg" target="_base">
           <rect id="button" ry="5" rx="5" y="6" x="6" height="38" width="38"
                fill="#f2f5e9" fill-opacity="0.5" stroke="#606060" stroke-width="1.0"/>
           <path id="arrow"
             d="M 11.500037,31.436501 C 11.940474,20.09759 22.043105,11.32322 32.158766,21.979434 L 37.068811,17.246167 C 37.068811,17.246167 37.088388,32 37.088388,32 L 22.160133,31.978069 C 22.160133,31.978069 26.997745,27.140456 26.997745,27.140456 C 18.528582,18.264221 13.291696,25.230495 11.500037,31.436501 z"
             style="fill:#404040;"/>
          </a>
         </g>
        </svg>
</svg>
