<?xml version="1.0" encoding="UTF-8" standalone="no"?>
<!DOCTYPE svg PUBLIC "-//W3C//DTD SVG 1.1//EN"
 "http://www.w3.org/Graphics/SVG/1.1/DTD/svg11.dtd">
<!-- Generated by graphviz version 2.26.3 (20100126.1600)
 -->
<!-- Title: Graphical Class Hierarchy Pages: 1 -->
<svg width="548pt" height="70pt"
 viewBox="0.00 0.00 548.00 70.00" xmlns="http://www.w3.org/2000/svg" xmlns:xlink="http://www.w3.org/1999/xlink">
<g id="graph1" class="graph" transform="scale(1 1) rotate(0) translate(4 66)">
<title>Graphical Class Hierarchy</title>
<!-- Node1 -->
<g id="node1" class="node"><title>Node1</title>
<a xlink:href="struct_urho3_d_1_1_spriter_1_1_timeline_key.html" target="_top" xlink:title="Timeline key.">
<polygon fill="none" stroke="black" points="0,-20.5 0,-41.5 154,-41.5 154,-20.5 0,-20.5"/>
<text text-anchor="middle" x="77" y="-28.5" font-family="FreeSans" font-size="10.00">Urho3D::Spriter::TimelineKey</text>
</a>
</g>
<!-- Node2 -->
<g id="node3" class="node"><title>Node2</title>
<a xlink:href="struct_urho3_d_1_1_spriter_1_1_spatial_timeline_key.html" target="_top" xlink:title="Spatial timeline key.">
<polygon fill="none" stroke="black" points="190.5,-14 190.5,-48 321.5,-48 321.5,-14 190.5,-14"/>
<text text-anchor="start" x="198.5" y="-35" font-family="FreeSans" font-size="10.00">Urho3D::Spriter::Spatial</text>
<text text-anchor="middle" x="256" y="-22" font-family="FreeSans" font-size="10.00">TimelineKey</text>
</a>
</g>
<!-- Node1&#45;&gt;Node2 -->
<g id="edge2" class="edge"><title>Node1&#45;&gt;Node2</title>
<path fill="none" stroke="midnightblue" d="M164.402,-31C173.11,-31 181.845,-31 190.277,-31"/>
<polygon fill="midnightblue" stroke="midnightblue" points="164.211,-27.5001 154.211,-31 164.211,-34.5001 164.211,-27.5001"/>
</g>
<!-- Node3 -->
<g id="node5" class="node"><title>Node3</title>
<a xlink:href="struct_urho3_d_1_1_spriter_1_1_bone_timeline_key.html" target="_top" xlink:title="Bone timeline key.">
<polygon fill="none" stroke="black" points="359.5,-40.5 359.5,-61.5 538.5,-61.5 538.5,-40.5 359.5,-40.5"/>
<text text-anchor="middle" x="449" y="-48.5" font-family="FreeSans" font-size="10.00">Urho3D::Spriter::BoneTimelineKey</text>
</a>
</g>
<!-- Node2&#45;&gt;Node3 -->
<g id="edge4" class="edge"><title>Node2&#45;&gt;Node3</title>
<path fill="none" stroke="midnightblue" d="M331.706,-38.8452C340.76,-39.7834 350.071,-40.7483 359.298,-41.7045"/>
<polygon fill="midnightblue" stroke="midnightblue" points="331.918,-35.3485 321.61,-37.799 331.196,-42.3112 331.918,-35.3485"/>
</g>
<!-- Node4 -->
<g id="node7" class="node"><title>Node4</title>
<a xlink:href="struct_urho3_d_1_1_spriter_1_1_sprite_timeline_key.html" target="_top" xlink:title="Sprite timeline key.">
<polygon fill="none" stroke="black" points="358,-0.5 358,-21.5 540,-21.5 540,-0.5 358,-0.5"/>
<text text-anchor="middle" x="449" y="-8.5" font-family="FreeSans" font-size="10.00">Urho3D::Spriter::SpriteTimelineKey</text>
</a>
</g>
<!-- Node2&#45;&gt;Node4 -->
<g id="edge6" class="edge"><title>Node2&#45;&gt;Node4</title>
<path fill="none" stroke="midnightblue" d="M331.619,-23.1638C340.252,-22.2693 349.118,-21.3504 357.925,-20.4378"/>
<polygon fill="midnightblue" stroke="midnightblue" points="331.196,-19.6888 321.61,-24.201 331.918,-26.6515 331.196,-19.6888"/>
</g>
</g>
</svg>
