<?xml version="1.0" encoding="UTF-8" standalone="no"?>
<!DOCTYPE svg PUBLIC "-//W3C//DTD SVG 1.1//EN"
 "http://www.w3.org/Graphics/SVG/1.1/DTD/svg11.dtd">
<!-- Generated by graphviz version 2.26.3 (20100126.1600)
 -->
<!-- Title: Urho3D::Spriter::SpatialTimelineKey Pages: 1 -->
<svg width="387pt" height="346pt"
 viewBox="0.00 0.00 387.00 346.00" xmlns="http://www.w3.org/2000/svg" xmlns:xlink="http://www.w3.org/1999/xlink">
<g id="graph1" class="graph" transform="scale(1 1) rotate(0) translate(4 342)">
<title>Urho3D::Spriter::SpatialTimelineKey</title>
<!-- Node1 -->
<g id="node1" class="node"><title>Node1</title>
<polygon fill="#bfbfbf" stroke="black" points="196.5,-1 196.5,-35 327.5,-35 327.5,-1 196.5,-1"/>
<text text-anchor="start" x="204.5" y="-22" font-family="FreeSans" font-size="10.00">Urho3D::Spriter::Spatial</text>
<text text-anchor="middle" x="262" y="-9" font-family="FreeSans" font-size="10.00">TimelineKey</text>
</g>
<!-- Node2 -->
<g id="node2" class="node"><title>Node2</title>
<a xlink:href="struct_urho3_d_1_1_spriter_1_1_timeline_key.html" target="_top" xlink:title="Timeline key.">
<polygon fill="none" stroke="black" points="59,-86.5 59,-107.5 213,-107.5 213,-86.5 59,-86.5"/>
<text text-anchor="middle" x="136" y="-94.5" font-family="FreeSans" font-size="10.00">Urho3D::Spriter::TimelineKey</text>
</a>
</g>
<!-- Node2&#45;&gt;Node1 -->
<g id="edge2" class="edge"><title>Node2&#45;&gt;Node1</title>
<path fill="none" stroke="midnightblue" d="M161.502,-81.0109C182.752,-67.6874 212.95,-48.7534 234.689,-35.1236"/>
<polygon fill="midnightblue" stroke="midnightblue" points="159.606,-78.0682 152.993,-86.3457 163.325,-83.9989 159.606,-78.0682"/>
</g>
<!-- Node3 -->
<g id="node4" class="node"><title>Node3</title>
<a xlink:href="struct_urho3_d_1_1_spriter_1_1_timeline.html" target="_top" xlink:title="Timeline.">
<polygon fill="none" stroke="black" points="67.5,-158.5 67.5,-179.5 204.5,-179.5 204.5,-158.5 67.5,-158.5"/>
<text text-anchor="middle" x="136" y="-166.5" font-family="FreeSans" font-size="10.00">Urho3D::Spriter::Timeline</text>
</a>
</g>
<!-- Node3&#45;&gt;Node2 -->
<g id="edge4" class="edge"><title>Node3&#45;&gt;Node2</title>
<path fill="none" stroke="#9a32cd" stroke-dasharray="5,2" d="M136,-148.235C136,-134.969 136,-118.319 136,-107.667"/>
<polygon fill="#9a32cd" stroke="#9a32cd" points="132.5,-148.376 136,-158.376 139.5,-148.376 132.5,-148.376"/>
<text text-anchor="middle" x="159.5" y="-130.5" font-family="FreeSans" font-size="10.00"> timeline_</text>
</g>
<!-- Node4 -->
<g id="node6" class="node"><title>Node4</title>
<a xlink:href="class_urho3_d_1_1_p_o_d_vector.html" target="_top" xlink:title="Urho3D::PODVector\&lt;\l Urho3D::Spriter::SpatialTimeline\lKey * \&gt;">
<polygon fill="none" stroke="black" points="-0.5,-230.5 -0.5,-277.5 172.5,-277.5 172.5,-230.5 -0.5,-230.5"/>
<text text-anchor="start" x="7.5" y="-264.5" font-family="FreeSans" font-size="10.00">Urho3D::PODVector&lt;</text>
<text text-anchor="start" x="7.5" y="-251.5" font-family="FreeSans" font-size="10.00"> Urho3D::Spriter::SpatialTimeline</text>
<text text-anchor="middle" x="86" y="-238.5" font-family="FreeSans" font-size="10.00">Key * &gt;</text>
</a>
</g>
<!-- Node4&#45;&gt;Node3 -->
<g id="edge6" class="edge"><title>Node4&#45;&gt;Node3</title>
<path fill="none" stroke="#9a32cd" stroke-dasharray="5,2" d="M105.142,-221.459C113.785,-206.766 123.418,-190.39 129.585,-179.906"/>
<polygon fill="#9a32cd" stroke="#9a32cd" points="101.981,-219.929 99.9278,-230.323 108.015,-223.478 101.981,-219.929"/>
<text text-anchor="middle" x="134.5" y="-202.5" font-family="FreeSans" font-size="10.00"> keys_</text>
</g>
<!-- Node5 -->
<g id="node8" class="node"><title>Node5</title>
<a xlink:href="class_urho3_d_1_1_vector_base.html" target="_top" xlink:title="Vector base class.">
<polygon fill="none" stroke="black" points="29,-316.5 29,-337.5 143,-337.5 143,-316.5 29,-316.5"/>
<text text-anchor="middle" x="86" y="-324.5" font-family="FreeSans" font-size="10.00">Urho3D::VectorBase</text>
</a>
</g>
<!-- Node5&#45;&gt;Node4 -->
<g id="edge8" class="edge"><title>Node5&#45;&gt;Node4</title>
<path fill="none" stroke="midnightblue" d="M86,-306.053C86,-297.23 86,-286.915 86,-277.805"/>
<polygon fill="midnightblue" stroke="midnightblue" points="82.5001,-306.229 86,-316.229 89.5001,-306.229 82.5001,-306.229"/>
</g>
<!-- Node6 -->
<g id="node10" class="node"><title>Node6</title>
<a xlink:href="class_urho3_d_1_1_string.html" target="_top" xlink:title="String class.">
<polygon fill="none" stroke="black" points="190,-243.5 190,-264.5 278,-264.5 278,-243.5 190,-243.5"/>
<text text-anchor="middle" x="234" y="-251.5" font-family="FreeSans" font-size="10.00">Urho3D::String</text>
</a>
</g>
<!-- Node6&#45;&gt;Node3 -->
<g id="edge10" class="edge"><title>Node6&#45;&gt;Node3</title>
<path fill="none" stroke="#9a32cd" stroke-dasharray="5,2" d="M213.798,-236.478C194.092,-219.386 164.753,-193.939 148.311,-179.678"/>
<polygon fill="#9a32cd" stroke="#9a32cd" points="211.741,-239.326 221.588,-243.235 216.327,-234.038 211.741,-239.326"/>
<text text-anchor="middle" x="203.5" y="-202.5" font-family="FreeSans" font-size="10.00"> name_</text>
</g>
<!-- Node6&#45;&gt;Node6 -->
<g id="edge12" class="edge"><title>Node6&#45;&gt;Node6</title>
<path fill="none" stroke="#9a32cd" stroke-dasharray="5,2" d="M288.258,-260.188C293.019,-258.882 296,-256.82 296,-254 296,-249.488 288.369,-246.915 278.024,-246.281"/>
<polygon fill="#9a32cd" stroke="#9a32cd" points="287.396,-256.778 278.024,-261.719 288.432,-263.7 287.396,-256.778"/>
<text text-anchor="middle" x="313" y="-251.5" font-family="FreeSans" font-size="10.00"> EMPTY</text>
</g>
<!-- Node7 -->
<g id="node13" class="node"><title>Node7</title>
<a xlink:href="struct_urho3_d_1_1_spriter_1_1_spatial_info.html" target="_top" xlink:title="Spatial info.">
<polygon fill="none" stroke="black" points="231,-86.5 231,-107.5 379,-107.5 379,-86.5 231,-86.5"/>
<text text-anchor="middle" x="305" y="-94.5" font-family="FreeSans" font-size="10.00">Urho3D::Spriter::SpatialInfo</text>
</a>
</g>
<!-- Node7&#45;&gt;Node1 -->
<g id="edge14" class="edge"><title>Node7&#45;&gt;Node1</title>
<path fill="none" stroke="#9a32cd" stroke-dasharray="5,2" d="M294.286,-77.3157C287.228,-64.3486 278.077,-47.5364 271.32,-35.1236"/>
<polygon fill="#9a32cd" stroke="#9a32cd" points="291.346,-79.2358 299.201,-86.3457 297.494,-75.8892 291.346,-79.2358"/>
<text text-anchor="middle" x="301" y="-58.5" font-family="FreeSans" font-size="10.00"> info_</text>
</g>
</g>
</svg>
