<?xml version="1.0" encoding="UTF-8" standalone="no"?>
<!DOCTYPE svg PUBLIC "-//W3C//DTD SVG 1.1//EN"
 "http://www.w3.org/Graphics/SVG/1.1/DTD/svg11.dtd">
<!-- Generated by graphviz version 2.26.3 (20100126.1600)
 -->
<!-- Title: Urho3D::RayQueryResult Pages: 1 -->
<svg width="1510pt" height="1121pt"
 viewBox="0.00 0.00 1510.00 1121.00" xmlns="http://www.w3.org/2000/svg" xmlns:xlink="http://www.w3.org/1999/xlink">
<g id="graph1" class="graph" transform="scale(1 1) rotate(0) translate(4 1117)">
<title>Urho3D::RayQueryResult</title>
<!-- Node1 -->
<g id="node1" class="node"><title>Node1</title>
<polygon fill="#bfbfbf" stroke="black" points="1368,-154.5 1368,-175.5 1502,-175.5 1502,-154.5 1368,-154.5"/>
<text text-anchor="middle" x="1435" y="-162.5" font-family="FreeSans" font-size="10.00">Urho3D::RayQueryResult</text>
</g>
<!-- Node2 -->
<g id="node2" class="node"><title>Node2</title>
<a xlink:href="class_urho3_d_1_1_drawable.html" target="_top" xlink:title="Base class for visible components.">
<polygon fill="none" stroke="black" points="1170,-385.5 1170,-406.5 1274,-406.5 1274,-385.5 1170,-385.5"/>
<text text-anchor="middle" x="1222" y="-393.5" font-family="FreeSans" font-size="10.00">Urho3D::Drawable</text>
</a>
</g>
<!-- Node2&#45;&gt;Node1 -->
<g id="edge2" class="edge"><title>Node2&#45;&gt;Node1</title>
<path fill="none" stroke="#9a32cd" stroke-dasharray="5,2" d="M1238.54,-378.061C1280.78,-332.248 1391.68,-211.986 1425.24,-175.588"/>
<polygon fill="#9a32cd" stroke="#9a32cd" points="1235.91,-375.75 1231.71,-385.474 1241.06,-380.495 1235.91,-375.75"/>
<text text-anchor="middle" x="1321" y="-318" font-family="FreeSans" font-size="10.00"> drawable_</text>
</g>
<!-- Node18 -->
<g id="node48" class="node"><title>Node18</title>
<a xlink:href="class_urho3_d_1_1_zone.html" target="_top" xlink:title="Component that describes global rendering properties.">
<polygon fill="none" stroke="red" points="1392.5,-449.5 1392.5,-470.5 1477.5,-470.5 1477.5,-449.5 1392.5,-449.5"/>
<text text-anchor="middle" x="1435" y="-457.5" font-family="FreeSans" font-size="10.00">Urho3D::Zone</text>
</a>
</g>
<!-- Node2&#45;&gt;Node18 -->
<g id="edge64" class="edge"><title>Node2&#45;&gt;Node18</title>
<path fill="none" stroke="midnightblue" d="M1240.28,-413.185C1253.56,-424.569 1272.55,-438.702 1292,-446 1324.23,-458.092 1363.27,-461.216 1392.41,-461.526"/>
<polygon fill="midnightblue" stroke="midnightblue" points="1242.6,-410.562 1232.8,-406.538 1237.95,-415.796 1242.6,-410.562"/>
</g>
<!-- Node23 -->
<g id="node60" class="node"><title>Node23</title>
<a xlink:href="class_urho3_d_1_1_light.html" target="_top" xlink:title="Light component.">
<polygon fill="none" stroke="red" points="1393.5,-368.5 1393.5,-389.5 1476.5,-389.5 1476.5,-368.5 1393.5,-368.5"/>
<text text-anchor="middle" x="1435" y="-376.5" font-family="FreeSans" font-size="10.00">Urho3D::Light</text>
</a>
</g>
<!-- Node2&#45;&gt;Node23 -->
<g id="edge78" class="edge"><title>Node2&#45;&gt;Node23</title>
<path fill="none" stroke="midnightblue" d="M1274.95,-383.508C1280.68,-382.499 1286.44,-381.628 1292,-381 1325.92,-377.166 1364.66,-376.874 1393.25,-377.424"/>
<polygon fill="midnightblue" stroke="midnightblue" points="1273.89,-380.145 1264.72,-385.45 1275.2,-387.022 1273.89,-380.145"/>
</g>
<!-- Node3 -->
<g id="node4" class="node"><title>Node3</title>
<a xlink:href="class_urho3_d_1_1_component.html" target="_top" xlink:title="Base class for components. Components can be created to scene nodes.">
<polygon fill="none" stroke="black" points="891,-552.5 891,-573.5 1007,-573.5 1007,-552.5 891,-552.5"/>
<text text-anchor="middle" x="949" y="-560.5" font-family="FreeSans" font-size="10.00">Urho3D::Component</text>
</a>
</g>
<!-- Node3&#45;&gt;Node2 -->
<g id="edge4" class="edge"><title>Node3&#45;&gt;Node2</title>
<path fill="none" stroke="midnightblue" d="M969.773,-546.086C986.676,-533.106 1011.64,-515.658 1036,-505 1084.59,-483.741 1106.72,-504.607 1152,-477 1181.68,-458.908 1205.35,-424.027 1215.95,-406.538"/>
<polygon fill="midnightblue" stroke="midnightblue" points="967.423,-543.481 961.714,-552.407 971.743,-548.989 967.423,-543.481"/>
</g>
<!-- Node4 -->
<g id="node6" class="node"><title>Node4</title>
<a xlink:href="class_urho3_d_1_1_animatable.html" target="_top" xlink:title="Base class for animatable object, an animatable object can be set animation on it&#39;s attributes...">
<polygon fill="none" stroke="red" points="335,-407.5 335,-428.5 449,-428.5 449,-407.5 335,-407.5"/>
<text text-anchor="middle" x="392" y="-415.5" font-family="FreeSans" font-size="10.00">Urho3D::Animatable</text>
</a>
</g>
<!-- Node4&#45;&gt;Node3 -->
<g id="edge6" class="edge"><title>Node4&#45;&gt;Node3</title>
<path fill="none" stroke="midnightblue" d="M459.287,-423.774C502.752,-428.431 560.27,-436.338 610,-449 682.641,-467.496 696.994,-483.98 768,-508 817.31,-524.68 874.944,-541.789 911.692,-552.402"/>
<polygon fill="midnightblue" stroke="midnightblue" points="459.425,-420.27 449.116,-422.716 458.7,-427.232 459.425,-420.27"/>
</g>
<!-- Node5 -->
<g id="node8" class="node"><title>Node5</title>
<a xlink:href="class_urho3_d_1_1_node.html" target="_top" xlink:title="Scene node that may contain components and child nodes.">
<polygon fill="none" stroke="red" points="646.5,-699.5 646.5,-720.5 731.5,-720.5 731.5,-699.5 646.5,-699.5"/>
<text text-anchor="middle" x="689" y="-707.5" font-family="FreeSans" font-size="10.00">Urho3D::Node</text>
</a>
</g>
<!-- Node4&#45;&gt;Node5 -->
<g id="edge10" class="edge"><title>Node4&#45;&gt;Node5</title>
<path fill="none" stroke="midnightblue" d="M447.328,-430.811C509.901,-445.508 603.953,-468.316 610,-474 644.631,-506.551 678.083,-657.447 686.807,-699.243"/>
<polygon fill="midnightblue" stroke="midnightblue" points="448.108,-427.399 437.574,-428.526 446.512,-434.215 448.108,-427.399"/>
</g>
<!-- Node5&#45;&gt;Node1 -->
<g id="edge96" class="edge"><title>Node5&#45;&gt;Node1</title>
<path fill="none" stroke="#9a32cd" stroke-dasharray="5,2" d="M691.688,-689.416C700.986,-620.109 733.134,-396.06 768,-333 801.46,-272.483 817.361,-254.295 880,-225 965.046,-185.226 1239.26,-171.289 1367.6,-166.862"/>
<polygon fill="#9a32cd" stroke="#9a32cd" points="688.196,-689.125 690.351,-699.498 695.135,-690.045 688.196,-689.125"/>
<text text-anchor="middle" x="1094" y="-194" font-family="FreeSans" font-size="10.00"> node_</text>
</g>
<!-- Node5&#45;&gt;Node3 -->
<g id="edge8" class="edge"><title>Node5&#45;&gt;Node3</title>
<path fill="none" stroke="#9a32cd" stroke-dasharray="5,2" d="M716.559,-694.419C769.634,-664.411 884.791,-599.303 930.122,-573.674"/>
<polygon fill="#9a32cd" stroke="#9a32cd" points="714.681,-691.46 707.699,-699.428 718.126,-697.553 714.681,-691.46"/>
<text text-anchor="middle" x="815" y="-666" font-family="FreeSans" font-size="10.00"> node_</text>
</g>
<!-- Node5&#45;&gt;Node5 -->
<g id="edge42" class="edge"><title>Node5&#45;&gt;Node5</title>
<path fill="none" stroke="#9a32cd" stroke-dasharray="5,2" d="M665.78,-730.427C667.571,-735.349 675.311,-739 689,-739 710.902,-739 717.576,-729.653 709.02,-720.708"/>
<polygon fill="#9a32cd" stroke="#9a32cd" points="669.176,-731.301 668.98,-720.708 662.528,-729.111 669.176,-731.301"/>
<text text-anchor="middle" x="689" y="-743" font-family="FreeSans" font-size="10.00"> parent_</text>
</g>
<!-- Node7 -->
<g id="node13" class="node"><title>Node7</title>
<a xlink:href="class_urho3_d_1_1_scene.html" target="_top" xlink:title="Root scene node, represents the whole scene.">
<polygon fill="none" stroke="red" points="904.5,-988.5 904.5,-1009.5 993.5,-1009.5 993.5,-988.5 904.5,-988.5"/>
<text text-anchor="middle" x="949" y="-996.5" font-family="FreeSans" font-size="10.00">Urho3D::Scene</text>
</a>
</g>
<!-- Node5&#45;&gt;Node7 -->
<g id="edge16" class="edge"><title>Node5&#45;&gt;Node7</title>
<path fill="none" stroke="midnightblue" d="M691.835,-730.756C698.333,-770.95 717.8,-860.18 768,-914 805.058,-953.731 864.451,-976.651 905.021,-988.466"/>
<polygon fill="midnightblue" stroke="midnightblue" points="695.284,-730.155 690.332,-720.789 688.363,-731.2 695.284,-730.155"/>
</g>
<!-- Node6 -->
<g id="node11" class="node"><title>Node6</title>
<a xlink:href="class_urho3_d_1_1_p_o_d_vector.html" target="_top" xlink:title="Urho3D::PODVector\&lt;\l Urho3D::Node * \&gt;">
<polygon fill="none" stroke="red" points="332.5,-813 332.5,-847 451.5,-847 451.5,-813 332.5,-813"/>
<text text-anchor="start" x="340.5" y="-834" font-family="FreeSans" font-size="10.00">Urho3D::PODVector&lt;</text>
<text text-anchor="middle" x="392" y="-821" font-family="FreeSans" font-size="10.00"> Urho3D::Node * &gt;</text>
</a>
</g>
<!-- Node6&#45;&gt;Node5 -->
<g id="edge12" class="edge"><title>Node6&#45;&gt;Node5</title>
<path fill="none" stroke="#9a32cd" stroke-dasharray="5,2" d="M461.985,-830.718C506.685,-828.457 564.566,-820.308 610,-796 643.965,-777.829 671.03,-739.258 682.727,-720.578"/>
<polygon fill="#9a32cd" stroke="#9a32cd" points="461.636,-827.23 451.791,-831.144 461.929,-834.224 461.636,-827.23"/>
<text text-anchor="middle" x="561" y="-829" font-family="FreeSans" font-size="10.00"> dependencyNodes_</text>
</g>
<!-- Node7&#45;&gt;Node5 -->
<g id="edge14" class="edge"><title>Node7&#45;&gt;Node5</title>
<path fill="none" stroke="#9a32cd" stroke-dasharray="5,2" d="M932.537,-980.701C883.161,-925.817 737.34,-763.732 698.562,-720.628"/>
<polygon fill="#9a32cd" stroke="#9a32cd" points="930.061,-983.182 939.351,-988.275 935.265,-978.5 930.061,-983.182"/>
<text text-anchor="middle" x="815" y="-901" font-family="FreeSans" font-size="10.00"> scene_</text>
</g>
<!-- Node8 -->
<g id="node16" class="node"><title>Node8</title>
<a xlink:href="class_urho3_d_1_1_hash_map.html" target="_top" xlink:title="Urho3D::HashMap\&lt; StringHash,\l Variant \&gt;">
<polygon fill="none" stroke="red" points="0,-765 0,-799 172,-799 172,-765 0,-765"/>
<text text-anchor="start" x="8" y="-786" font-family="FreeSans" font-size="10.00">Urho3D::HashMap&lt; StringHash,</text>
<text text-anchor="middle" x="86" y="-773" font-family="FreeSans" font-size="10.00"> Variant &gt;</text>
</a>
</g>
<!-- Node8&#45;&gt;Node5 -->
<g id="edge38" class="edge"><title>Node8&#45;&gt;Node5</title>
<path fill="none" stroke="#9a32cd" stroke-dasharray="5,2" d="M182.158,-783.031C288.305,-782.161 463.546,-774.756 610,-740 629.413,-735.393 650.496,-727.214 665.995,-720.559"/>
<polygon fill="#9a32cd" stroke="#9a32cd" points="182.082,-779.532 172.104,-783.096 182.127,-786.531 182.082,-779.532"/>
<text text-anchor="middle" x="392" y="-784" font-family="FreeSans" font-size="10.00"> vars_</text>
</g>
<!-- Node8&#45;&gt;Node7 -->
<g id="edge18" class="edge"><title>Node8&#45;&gt;Node7</title>
<path fill="none" stroke="#9a32cd" stroke-dasharray="5,2" d="M97.6912,-808.48C123.32,-862.76 190.236,-985.524 290,-1033 398.877,-1084.81 774.266,-1028.43 904.266,-1006.75"/>
<polygon fill="#9a32cd" stroke="#9a32cd" points="100.762,-806.782 93.3876,-799.175 94.4089,-809.721 100.762,-806.782"/>
<text text-anchor="middle" x="561" y="-1056" font-family="FreeSans" font-size="10.00"> smoothingData_</text>
</g>
<!-- Node17 -->
<g id="node41" class="node"><title>Node17</title>
<a xlink:href="class_urho3_d_1_1_connection.html" target="_top" xlink:title="Connection to a remote network host.">
<polygon fill="none" stroke="red" points="335.5,-675.5 335.5,-696.5 448.5,-696.5 448.5,-675.5 335.5,-675.5"/>
<text text-anchor="middle" x="392" y="-683.5" font-family="FreeSans" font-size="10.00">Urho3D::Connection</text>
</a>
</g>
<!-- Node8&#45;&gt;Node17 -->
<g id="edge58" class="edge"><title>Node8&#45;&gt;Node17</title>
<path fill="none" stroke="#9a32cd" stroke-dasharray="5,2" d="M115.229,-758.066C133.297,-742.16 156.008,-720.026 172,-697 183.121,-680.988 173.629,-667.585 190,-657 220.604,-637.212 236.53,-648.627 272,-657 280.705,-659.055 281.534,-663.113 290,-666 304.432,-670.921 320.45,-674.773 335.434,-677.725"/>
<polygon fill="#9a32cd" stroke="#9a32cd" points="112.577,-755.732 107.296,-764.917 117.152,-761.03 112.577,-755.732"/>
<text text-anchor="middle" x="231" y="-661" font-family="FreeSans" font-size="10.00"> identity_</text>
</g>
<!-- Node9 -->
<g id="node18" class="node"><title>Node9</title>
<a xlink:href="class_urho3_d_1_1_string.html" target="_top" xlink:title="String class.">
<polygon fill="none" stroke="black" points="42,-995.5 42,-1016.5 130,-1016.5 130,-995.5 42,-995.5"/>
<text text-anchor="middle" x="86" y="-1003.5" font-family="FreeSans" font-size="10.00">Urho3D::String</text>
</a>
</g>
<!-- Node9&#45;&gt;Node5 -->
<g id="edge40" class="edge"><title>Node9&#45;&gt;Node5</title>
<path fill="none" stroke="#9a32cd" stroke-dasharray="5,2" d="M139.934,-1018.58C245.702,-1039.75 481.227,-1069 610,-946 644.369,-913.172 678.01,-762.475 686.792,-720.741"/>
<polygon fill="#9a32cd" stroke="#9a32cd" points="140.611,-1015.15 130.112,-1016.56 139.203,-1022 140.611,-1015.15"/>
<text text-anchor="middle" x="392" y="-1041" font-family="FreeSans" font-size="10.00"> name_</text>
</g>
<!-- Node9&#45;&gt;Node7 -->
<g id="edge20" class="edge"><title>Node9&#45;&gt;Node7</title>
<path fill="none" stroke="#9a32cd" stroke-dasharray="5,2" d="M119.278,-1020.43C139.421,-1028.67 165.81,-1038.6 190,-1045 233.512,-1056.52 245.148,-1057.23 290,-1061 543.329,-1082.29 620.172,-1139.41 862,-1061 893.581,-1050.76 923.533,-1024.53 938.694,-1009.67"/>
<polygon fill="#9a32cd" stroke="#9a32cd" points="120.506,-1017.15 109.929,-1016.54 117.82,-1023.61 120.506,-1017.15"/>
<text text-anchor="middle" x="561" y="-1104" font-family="FreeSans" font-size="10.00"> fileName_</text>
</g>
<!-- Node9&#45;&gt;Node9 -->
<g id="edge22" class="edge"><title>Node9&#45;&gt;Node9</title>
<path fill="none" stroke="#9a32cd" stroke-dasharray="5,2" d="M59.3216,-1026.06C61.0715,-1031.16 69.9644,-1035 86,-1035 111.031,-1035 118.658,-1025.65 108.88,-1016.71"/>
<polygon fill="#9a32cd" stroke="#9a32cd" points="62.5977,-1027.29 63.1199,-1016.71 56.1127,-1024.65 62.5977,-1027.29"/>
<text text-anchor="middle" x="86" y="-1039" font-family="FreeSans" font-size="10.00"> EMPTY</text>
</g>
<!-- Node9&#45;&gt;Node17 -->
<g id="edge60" class="edge"><title>Node9&#45;&gt;Node17</title>
<path fill="none" stroke="#9a32cd" stroke-dasharray="5,2" d="M93.8327,-985.895C115.858,-932.132 183.746,-784.172 290,-711 303.364,-701.797 319.765,-695.971 335.475,-692.286"/>
<polygon fill="#9a32cd" stroke="#9a32cd" points="90.5179,-984.758 90.0413,-995.342 97.0142,-987.365 90.5179,-984.758"/>
<text text-anchor="middle" x="231" y="-823" font-family="FreeSans" font-size="10.00"> sceneFileName_</text>
<text text-anchor="middle" x="231" y="-810" font-family="FreeSans" font-size="10.00">address_</text>
</g>
<!-- Node10 -->
<g id="node21" class="node"><title>Node10</title>
<a xlink:href="class_urho3_d_1_1_quaternion.html" target="_top" xlink:title="Rotation represented as a four&#45;dimensional normalized vector.">
<polygon fill="none" stroke="black" points="29.5,-533.5 29.5,-554.5 142.5,-554.5 142.5,-533.5 29.5,-533.5"/>
<text text-anchor="middle" x="86" y="-541.5" font-family="FreeSans" font-size="10.00">Urho3D::Quaternion</text>
</a>
</g>
<!-- Node10&#45;&gt;Node5 -->
<g id="edge24" class="edge"><title>Node10&#45;&gt;Node5</title>
<path fill="none" stroke="#9a32cd" stroke-dasharray="5,2" d="M152.451,-531.918C234.262,-519.483 376.768,-505.805 494,-536 551.021,-550.686 565.969,-560.906 610,-600 644.285,-630.44 672.176,-678.33 683.521,-699.425"/>
<polygon fill="#9a32cd" stroke="#9a32cd" points="151.878,-528.465 142.537,-533.465 152.957,-535.382 151.878,-528.465"/>
<text text-anchor="middle" x="392" y="-553" font-family="FreeSans" font-size="10.00"> worldRotation_</text>
<text text-anchor="middle" x="392" y="-540" font-family="FreeSans" font-size="10.00">rotation_</text>
</g>
<!-- Node10&#45;&gt;Node10 -->
<g id="edge26" class="edge"><title>Node10&#45;&gt;Node10</title>
<path fill="none" stroke="#9a32cd" stroke-dasharray="5,2" d="M59.3216,-564.055C61.0715,-569.164 69.9644,-573 86,-573 111.031,-573 118.658,-563.653 108.88,-554.708"/>
<polygon fill="#9a32cd" stroke="#9a32cd" points="62.5977,-565.29 63.1199,-554.708 56.1127,-562.655 62.5977,-565.29"/>
<text text-anchor="middle" x="86" y="-577" font-family="FreeSans" font-size="10.00"> IDENTITY</text>
</g>
<!-- Node10&#45;&gt;Node17 -->
<g id="edge52" class="edge"><title>Node10&#45;&gt;Node17</title>
<path fill="none" stroke="#9a32cd" stroke-dasharray="5,2" d="M152.878,-544.813C192.598,-548.872 241.088,-560.654 272,-592 295.767,-616.1 265.534,-642.61 290,-666 302.131,-677.597 318.909,-683.408 335.357,-686.105"/>
<polygon fill="#9a32cd" stroke="#9a32cd" points="152.99,-541.309 142.722,-543.92 152.377,-548.282 152.99,-541.309"/>
<text text-anchor="middle" x="231" y="-596" font-family="FreeSans" font-size="10.00"> rotation_</text>
</g>
<!-- Node11 -->
<g id="node24" class="node"><title>Node11</title>
<a xlink:href="class_urho3_d_1_1_vector.html" target="_top" xlink:title="Urho3D::Vector\&lt; Urho3D\l::WeakPtr\&lt; Urho3D::Component \&gt; \&gt;">
<polygon fill="none" stroke="red" points="295,-623 295,-657 489,-657 489,-623 295,-623"/>
<text text-anchor="start" x="303" y="-644" font-family="FreeSans" font-size="10.00">Urho3D::Vector&lt; Urho3D</text>
<text text-anchor="middle" x="392" y="-631" font-family="FreeSans" font-size="10.00">::WeakPtr&lt; Urho3D::Component &gt; &gt;</text>
</a>
</g>
<!-- Node11&#45;&gt;Node5 -->
<g id="edge28" class="edge"><title>Node11&#45;&gt;Node5</title>
<path fill="none" stroke="#9a32cd" stroke-dasharray="5,2" d="M498.99,-654.006C534.664,-659.901 574.382,-667.807 610,-678 629.633,-683.618 651.055,-692.478 666.633,-699.452"/>
<polygon fill="#9a32cd" stroke="#9a32cd" points="499.472,-650.539 489.042,-652.396 498.354,-657.449 499.472,-650.539"/>
<text text-anchor="middle" x="561" y="-682" font-family="FreeSans" font-size="10.00"> listeners_</text>
</g>
<!-- Node12 -->
<g id="node26" class="node"><title>Node12</title>
<a xlink:href="class_urho3_d_1_1_vector_buffer.html" target="_top" xlink:title="Dynamically sized buffer that can be read and written to as a stream.">
<polygon fill="none" stroke="red" points="26.5,-666.5 26.5,-687.5 145.5,-687.5 145.5,-666.5 26.5,-666.5"/>
<text text-anchor="middle" x="86" y="-674.5" font-family="FreeSans" font-size="10.00">Urho3D::VectorBuffer</text>
</a>
</g>
<!-- Node12&#45;&gt;Node5 -->
<g id="edge30" class="edge"><title>Node12&#45;&gt;Node5</title>
<path fill="none" stroke="#9a32cd" stroke-dasharray="5,2" d="M114.669,-692.067C135.058,-701.901 163.433,-713.838 190,-719 356.283,-751.309 559.609,-729.022 646.425,-716.684"/>
<polygon fill="#9a32cd" stroke="#9a32cd" points="116.137,-688.888 105.622,-687.588 113.031,-695.162 116.137,-688.888"/>
<text text-anchor="middle" x="392" y="-739" font-family="FreeSans" font-size="10.00"> attrBuffer_</text>
</g>
<!-- Node12&#45;&gt;Node17 -->
<g id="edge54" class="edge"><title>Node12&#45;&gt;Node17</title>
<path fill="none" stroke="#9a32cd" stroke-dasharray="5,2" d="M108.678,-660.49C128.877,-646.875 159.824,-628.608 190,-621 225.339,-612.091 241.822,-600.568 272,-621 289.837,-633.076 273.414,-652.256 290,-666 302.644,-676.478 319.188,-682.033 335.261,-684.843"/>
<polygon fill="#9a32cd" stroke="#9a32cd" points="106.425,-657.794 100.195,-666.364 110.409,-663.549 106.425,-657.794"/>
<text text-anchor="middle" x="231" y="-625" font-family="FreeSans" font-size="10.00"> msg_</text>
</g>
<!-- Node13 -->
<g id="node28" class="node"><title>Node13</title>
<a xlink:href="class_urho3_d_1_1_vector.html" target="_top" xlink:title="Urho3D::Vector\&lt; Urho3D\l::SharedPtr\&lt; Urho3D::Component \&gt; \&gt;">
<polygon fill="none" stroke="red" points="290.5,-571 290.5,-605 493.5,-605 493.5,-571 290.5,-571"/>
<text text-anchor="start" x="298.5" y="-592" font-family="FreeSans" font-size="10.00">Urho3D::Vector&lt; Urho3D</text>
<text text-anchor="middle" x="392" y="-579" font-family="FreeSans" font-size="10.00">::SharedPtr&lt; Urho3D::Component &gt; &gt;</text>
</a>
</g>
<!-- Node13&#45;&gt;Node5 -->
<g id="edge32" class="edge"><title>Node13&#45;&gt;Node5</title>
<path fill="none" stroke="#9a32cd" stroke-dasharray="5,2" d="M503.56,-602.913C538.937,-610.529 577.321,-621.947 610,-639 639.59,-654.441 666.83,-683.54 680.25,-699.265"/>
<polygon fill="#9a32cd" stroke="#9a32cd" points="504.171,-599.465 493.669,-600.863 502.751,-606.319 504.171,-599.465"/>
<text text-anchor="middle" x="561" y="-643" font-family="FreeSans" font-size="10.00"> components_</text>
</g>
<!-- Node14 -->
<g id="node30" class="node"><title>Node14</title>
<a xlink:href="class_urho3_d_1_1_vector3.html" target="_top" xlink:title="Three&#45;dimensional vector.">
<polygon fill="none" stroke="black" points="38,-326.5 38,-347.5 134,-347.5 134,-326.5 38,-326.5"/>
<text text-anchor="middle" x="86" y="-334.5" font-family="FreeSans" font-size="10.00">Urho3D::Vector3</text>
</a>
</g>
<!-- Node14&#45;&gt;Node1 -->
<g id="edge94" class="edge"><title>Node14&#45;&gt;Node1</title>
<path fill="none" stroke="#9a32cd" stroke-dasharray="5,2" d="M101.053,-318.733C142.227,-270.962 262.325,-146 392,-146 392,-146 392,-146 1222,-146 1271.01,-146 1326.1,-151.052 1367.98,-155.945"/>
<polygon fill="#9a32cd" stroke="#9a32cd" points="98.3,-316.567 94.5046,-326.459 103.64,-321.093 98.3,-316.567"/>
<text text-anchor="middle" x="815" y="-163" font-family="FreeSans" font-size="10.00"> normal_</text>
<text text-anchor="middle" x="815" y="-150" font-family="FreeSans" font-size="10.00">position_</text>
</g>
<!-- Node14&#45;&gt;Node5 -->
<g id="edge34" class="edge"><title>Node14&#45;&gt;Node5</title>
<path fill="none" stroke="#9a32cd" stroke-dasharray="5,2" d="M112.906,-352.768C151.137,-374.598 223.894,-414.04 290,-438 429.963,-488.73 503.611,-432.863 610,-537 659.079,-585.04 680.557,-669.222 686.886,-699.101"/>
<polygon fill="#9a32cd" stroke="#9a32cd" points="114.368,-349.571 103.955,-347.618 110.877,-355.639 114.368,-349.571"/>
<text text-anchor="middle" x="392" y="-488" font-family="FreeSans" font-size="10.00"> scale_</text>
<text text-anchor="middle" x="392" y="-475" font-family="FreeSans" font-size="10.00">position_</text>
</g>
<!-- Node14&#45;&gt;Node14 -->
<g id="edge36" class="edge"><title>Node14&#45;&gt;Node14</title>
<path fill="none" stroke="#9a32cd" stroke-dasharray="5,2" d="M59.3216,-357.055C61.0715,-362.164 69.9644,-366 86,-366 111.031,-366 118.658,-356.653 108.88,-347.708"/>
<polygon fill="#9a32cd" stroke="#9a32cd" points="62.5977,-358.29 63.1199,-347.708 56.1127,-355.655 62.5977,-358.29"/>
<text text-anchor="middle" x="86" y="-461" font-family="FreeSans" font-size="10.00"> ONE</text>
<text text-anchor="middle" x="86" y="-448" font-family="FreeSans" font-size="10.00">DOWN</text>
<text text-anchor="middle" x="86" y="-435" font-family="FreeSans" font-size="10.00">BACK</text>
<text text-anchor="middle" x="86" y="-422" font-family="FreeSans" font-size="10.00">RIGHT</text>
<text text-anchor="middle" x="86" y="-409" font-family="FreeSans" font-size="10.00">LEFT</text>
<text text-anchor="middle" x="86" y="-396" font-family="FreeSans" font-size="10.00">ZERO</text>
<text text-anchor="middle" x="86" y="-383" font-family="FreeSans" font-size="10.00">FORWARD</text>
<text text-anchor="middle" x="86" y="-370" font-family="FreeSans" font-size="10.00">UP</text>
</g>
<!-- Node14&#45;&gt;Node17 -->
<g id="edge56" class="edge"><title>Node14&#45;&gt;Node17</title>
<path fill="none" stroke="#9a32cd" stroke-dasharray="5,2" d="M97.4946,-356.426C115.021,-385.013 150.576,-439.113 190,-477 221.82,-507.58 248.817,-495.447 272,-533 303.334,-583.757 249.086,-622.593 290,-666 301.697,-678.409 318.657,-684.382 335.401,-686.98"/>
<polygon fill="#9a32cd" stroke="#9a32cd" points="100.431,-354.518 92.2623,-347.77 94.44,-358.139 100.431,-354.518"/>
<text text-anchor="middle" x="231" y="-537" font-family="FreeSans" font-size="10.00"> position_</text>
</g>
<!-- Node19 -->
<g id="node51" class="node"><title>Node19</title>
<a xlink:href="class_urho3_d_1_1_bounding_box.html" target="_top" xlink:title="Three&#45;dimensional axis&#45;aligned bounding box.">
<polygon fill="none" stroke="black" points="628,-326.5 628,-347.5 750,-347.5 750,-326.5 628,-326.5"/>
<text text-anchor="middle" x="689" y="-334.5" font-family="FreeSans" font-size="10.00">Urho3D::BoundingBox</text>
</a>
</g>
<!-- Node14&#45;&gt;Node19 -->
<g id="edge68" class="edge"><title>Node14&#45;&gt;Node19</title>
<path fill="none" stroke="#9a32cd" stroke-dasharray="5,2" d="M144.363,-337C258.631,-337 510.872,-337 627.565,-337"/>
<polygon fill="#9a32cd" stroke="#9a32cd" points="144.073,-333.5 134.073,-337 144.073,-340.5 144.073,-333.5"/>
<text text-anchor="middle" x="392" y="-354" font-family="FreeSans" font-size="10.00"> max_</text>
<text text-anchor="middle" x="392" y="-341" font-family="FreeSans" font-size="10.00">min_</text>
</g>
<!-- Node24 -->
<g id="node64" class="node"><title>Node24</title>
<a xlink:href="class_urho3_d_1_1_octant.html" target="_top" xlink:title="Octree octant">
<polygon fill="none" stroke="red" points="903,-326.5 903,-347.5 995,-347.5 995,-326.5 903,-326.5"/>
<text text-anchor="middle" x="949" y="-334.5" font-family="FreeSans" font-size="10.00">Urho3D::Octant</text>
</a>
</g>
<!-- Node14&#45;&gt;Node24 -->
<g id="edge84" class="edge"><title>Node14&#45;&gt;Node24</title>
<path fill="none" stroke="#9a32cd" stroke-dasharray="5,2" d="M144.159,-330.138C240.812,-319.528 440.646,-300.959 610,-307 672.341,-309.224 687.848,-311.658 750,-317 802.412,-321.505 862.484,-327.682 902.793,-331.975"/>
<polygon fill="#9a32cd" stroke="#9a32cd" points="143.563,-326.682 134.011,-331.264 144.336,-333.64 143.563,-326.682"/>
<text text-anchor="middle" x="561" y="-324" font-family="FreeSans" font-size="10.00"> center_</text>
<text text-anchor="middle" x="561" y="-311" font-family="FreeSans" font-size="10.00">halfSize_</text>
</g>
<!-- Node15 -->
<g id="node36" class="node"><title>Node15</title>
<a xlink:href="class_urho3_d_1_1_string_hash.html" target="_top" xlink:title="32&#45;bit hash value for a string.">
<polygon fill="none" stroke="black" points="335.5,-917.5 335.5,-938.5 448.5,-938.5 448.5,-917.5 335.5,-917.5"/>
<text text-anchor="middle" x="392" y="-925.5" font-family="FreeSans" font-size="10.00">Urho3D::StringHash</text>
</a>
</g>
<!-- Node15&#45;&gt;Node5 -->
<g id="edge44" class="edge"><title>Node15&#45;&gt;Node5</title>
<path fill="none" stroke="#9a32cd" stroke-dasharray="5,2" d="M458.943,-933.631C505.816,-934.033 567.43,-927.038 610,-894 667.949,-849.027 684.04,-753.191 687.907,-720.889"/>
<polygon fill="#9a32cd" stroke="#9a32cd" points="458.944,-930.13 448.876,-933.43 458.805,-937.129 458.944,-930.13"/>
<text text-anchor="middle" x="561" y="-933" font-family="FreeSans" font-size="10.00"> nameHash_</text>
</g>
<!-- Node15&#45;&gt;Node15 -->
<g id="edge46" class="edge"><title>Node15&#45;&gt;Node15</title>
<path fill="none" stroke="#9a32cd" stroke-dasharray="5,2" d="M362.357,-948.055C364.302,-953.164 374.183,-957 392,-957 419.812,-957 428.287,-947.653 417.422,-938.708"/>
<polygon fill="#9a32cd" stroke="#9a32cd" points="365.652,-949.262 366.578,-938.708 359.273,-946.382 365.652,-949.262"/>
<text text-anchor="middle" x="392" y="-961" font-family="FreeSans" font-size="10.00"> ZERO</text>
</g>
<!-- Node16 -->
<g id="node39" class="node"><title>Node16</title>
<a xlink:href="class_urho3_d_1_1_vector.html" target="_top" xlink:title="Urho3D::Vector\&lt; Urho3D\l::SharedPtr\&lt; Urho3D::Node \&gt; \&gt;">
<polygon fill="none" stroke="red" points="305.5,-865 305.5,-899 478.5,-899 478.5,-865 305.5,-865"/>
<text text-anchor="start" x="313.5" y="-886" font-family="FreeSans" font-size="10.00">Urho3D::Vector&lt; Urho3D</text>
<text text-anchor="middle" x="392" y="-873" font-family="FreeSans" font-size="10.00">::SharedPtr&lt; Urho3D::Node &gt; &gt;</text>
</a>
</g>
<!-- Node16&#45;&gt;Node5 -->
<g id="edge48" class="edge"><title>Node16&#45;&gt;Node5</title>
<path fill="none" stroke="#9a32cd" stroke-dasharray="5,2" d="M488.717,-881.48C529.189,-877.115 574.878,-866.364 610,-842 654.547,-811.098 678.12,-746.203 685.972,-720.657"/>
<polygon fill="#9a32cd" stroke="#9a32cd" points="488.169,-878.016 478.549,-882.456 488.838,-884.984 488.169,-878.016"/>
<text text-anchor="middle" x="561" y="-881" font-family="FreeSans" font-size="10.00"> children_</text>
</g>
<!-- Node17&#45;&gt;Node5 -->
<g id="edge50" class="edge"><title>Node17&#45;&gt;Node5</title>
<path fill="none" stroke="#9a32cd" stroke-dasharray="5,2" d="M458.624,-691.384C515.97,-696.018 597.013,-702.567 646.118,-706.535"/>
<polygon fill="#9a32cd" stroke="#9a32cd" points="458.812,-687.888 448.563,-690.571 458.248,-694.865 458.812,-687.888"/>
<text text-anchor="middle" x="561" y="-707" font-family="FreeSans" font-size="10.00"> owner_</text>
</g>
<!-- Node18&#45;&gt;Node2 -->
<g id="edge62" class="edge"><title>Node18&#45;&gt;Node2</title>
<path fill="none" stroke="#9a32cd" stroke-dasharray="5,2" d="M1392.76,-446.343C1379.14,-442.002 1363.95,-437.231 1350,-433 1319.56,-423.768 1284.9,-413.78 1259.32,-406.51"/>
<polygon fill="#9a32cd" stroke="#9a32cd" points="1391.78,-449.703 1402.37,-449.414 1393.91,-443.035 1391.78,-449.703"/>
<text text-anchor="middle" x="1321" y="-437" font-family="FreeSans" font-size="10.00"> zone_</text>
</g>
<!-- Node19&#45;&gt;Node2 -->
<g id="edge80" class="edge"><title>Node19&#45;&gt;Node2</title>
<path fill="none" stroke="#9a32cd" stroke-dasharray="5,2" d="M712.309,-320.351C746.913,-296.767 814.818,-254.746 880,-239 939.618,-224.598 957.678,-227.909 1018,-239 1080.67,-250.523 1102.27,-250.159 1152,-290 1185.56,-316.887 1208.61,-364.316 1217.69,-385.393"/>
<polygon fill="#9a32cd" stroke="#9a32cd" points="710.088,-317.632 703.856,-326.2 714.071,-323.388 710.088,-317.632"/>
<text text-anchor="middle" x="949" y="-256" font-family="FreeSans" font-size="10.00"> worldBoundingBox_</text>
<text text-anchor="middle" x="949" y="-243" font-family="FreeSans" font-size="10.00">boundingBox_</text>
</g>
<!-- Node19&#45;&gt;Node18 -->
<g id="edge66" class="edge"><title>Node19&#45;&gt;Node18</title>
<path fill="none" stroke="#9a32cd" stroke-dasharray="5,2" d="M702.852,-356.171C731.122,-393.444 799.627,-474.682 880,-505 1070.4,-576.82 1322.93,-500.104 1406.68,-470.566"/>
<polygon fill="#9a32cd" stroke="#9a32cd" points="705.326,-353.633 696.549,-347.7 699.71,-357.812 705.326,-353.633"/>
<text text-anchor="middle" x="1094" y="-538" font-family="FreeSans" font-size="10.00"> lastWorldBoundingBox_</text>
</g>
<!-- Node19&#45;&gt;Node24 -->
<g id="edge86" class="edge"><title>Node19&#45;&gt;Node24</title>
<path fill="none" stroke="#9a32cd" stroke-dasharray="5,2" d="M760.369,-337C805.775,-337 863.252,-337 902.758,-337"/>
<polygon fill="#9a32cd" stroke="#9a32cd" points="760.287,-333.5 750.287,-337 760.287,-340.5 760.287,-333.5"/>
<text text-anchor="middle" x="815" y="-354" font-family="FreeSans" font-size="10.00"> cullingBox_</text>
<text text-anchor="middle" x="815" y="-341" font-family="FreeSans" font-size="10.00">worldBoundingBox_</text>
</g>
<!-- Node20 -->
<g id="node54" class="node"><title>Node20</title>
<a xlink:href="class_urho3_d_1_1_p_o_d_vector.html" target="_top" xlink:title="Urho3D::PODVector\&lt;\l Urho3D::Light * \&gt;">
<polygon fill="none" stroke="red" points="889.5,-274 889.5,-308 1008.5,-308 1008.5,-274 889.5,-274"/>
<text text-anchor="start" x="897.5" y="-295" font-family="FreeSans" font-size="10.00">Urho3D::PODVector&lt;</text>
<text text-anchor="middle" x="949" y="-282" font-family="FreeSans" font-size="10.00"> Urho3D::Light * &gt;</text>
</a>
</g>
<!-- Node20&#45;&gt;Node2 -->
<g id="edge70" class="edge"><title>Node20&#45;&gt;Node2</title>
<path fill="none" stroke="#9a32cd" stroke-dasharray="5,2" d="M1019.01,-292.619C1059.76,-296.045 1111.02,-304.765 1152,-326 1179.77,-340.391 1203.44,-369.7 1214.8,-385.442"/>
<polygon fill="#9a32cd" stroke="#9a32cd" points="1019.12,-289.118 1008.89,-291.858 1018.59,-296.098 1019.12,-289.118"/>
<text text-anchor="middle" x="1094" y="-343" font-family="FreeSans" font-size="10.00"> vertexLights_</text>
<text text-anchor="middle" x="1094" y="-330" font-family="FreeSans" font-size="10.00">lights_</text>
</g>
<!-- Node21 -->
<g id="node56" class="node"><title>Node21</title>
<a xlink:href="class_urho3_d_1_1_p_o_d_vector.html" target="_top" xlink:title="Urho3D::PODVector\&lt;\l Urho3D::Camera * \&gt;">
<polygon fill="none" stroke="red" points="889,-462 889,-496 1009,-496 1009,-462 889,-462"/>
<text text-anchor="start" x="897" y="-483" font-family="FreeSans" font-size="10.00">Urho3D::PODVector&lt;</text>
<text text-anchor="middle" x="949" y="-470" font-family="FreeSans" font-size="10.00"> Urho3D::Camera * &gt;</text>
</a>
</g>
<!-- Node21&#45;&gt;Node2 -->
<g id="edge72" class="edge"><title>Node21&#45;&gt;Node2</title>
<path fill="none" stroke="#9a32cd" stroke-dasharray="5,2" d="M1018.91,-465.198C1067.55,-455.211 1127.83,-441.949 1152,-433 1170.95,-425.985 1191.22,-414.826 1205.04,-406.596"/>
<polygon fill="#9a32cd" stroke="#9a32cd" points="1018.14,-461.784 1009.04,-467.214 1019.54,-468.642 1018.14,-461.784"/>
<text text-anchor="middle" x="1094" y="-464" font-family="FreeSans" font-size="10.00"> viewCameras_</text>
</g>
<!-- Node22 -->
<g id="node58" class="node"><title>Node22</title>
<a xlink:href="class_urho3_d_1_1_vector.html" target="_top" xlink:title="Urho3D::Vector\&lt; Urho3D\l::SourceBatch \&gt;">
<polygon fill="none" stroke="red" points="880,-410 880,-444 1018,-444 1018,-410 880,-410"/>
<text text-anchor="start" x="888" y="-431" font-family="FreeSans" font-size="10.00">Urho3D::Vector&lt; Urho3D</text>
<text text-anchor="middle" x="949" y="-418" font-family="FreeSans" font-size="10.00">::SourceBatch &gt;</text>
</a>
</g>
<!-- Node22&#45;&gt;Node2 -->
<g id="edge74" class="edge"><title>Node22&#45;&gt;Node2</title>
<path fill="none" stroke="#9a32cd" stroke-dasharray="5,2" d="M1028.37,-417.987C1073.85,-412.823 1129.64,-406.487 1169.64,-401.946"/>
<polygon fill="#9a32cd" stroke="#9a32cd" points="1027.78,-414.531 1018.24,-419.137 1028.57,-421.487 1027.78,-414.531"/>
<text text-anchor="middle" x="1094" y="-420" font-family="FreeSans" font-size="10.00"> batches_</text>
</g>
<!-- Node23&#45;&gt;Node2 -->
<g id="edge76" class="edge"><title>Node23&#45;&gt;Node2</title>
<path fill="none" stroke="#9a32cd" stroke-dasharray="5,2" d="M1383.03,-383.148C1349.93,-385.789 1307.22,-389.198 1274.11,-391.841"/>
<polygon fill="#9a32cd" stroke="#9a32cd" points="1383.72,-386.604 1393.41,-382.32 1383.16,-379.626 1383.72,-386.604"/>
<text text-anchor="middle" x="1321" y="-394" font-family="FreeSans" font-size="10.00"> firstLight_</text>
</g>
<!-- Node24&#45;&gt;Node2 -->
<g id="edge82" class="edge"><title>Node24&#45;&gt;Node2</title>
<path fill="none" stroke="#9a32cd" stroke-dasharray="5,2" d="M1004.89,-349.08C1054.35,-359.768 1125.8,-375.209 1173.04,-385.419"/>
<polygon fill="#9a32cd" stroke="#9a32cd" points="1005.52,-345.633 995.002,-346.942 1004.04,-352.475 1005.52,-345.633"/>
<text text-anchor="middle" x="1094" y="-384" font-family="FreeSans" font-size="10.00"> octant_</text>
</g>
<!-- Node24&#45;&gt;Node24 -->
<g id="edge88" class="edge"><title>Node24&#45;&gt;Node24</title>
<path fill="none" stroke="#9a32cd" stroke-dasharray="5,2" d="M924.305,-357.427C926.21,-362.349 934.442,-366 949,-366 972.293,-366 979.39,-356.653 970.291,-347.708"/>
<polygon fill="#9a32cd" stroke="#9a32cd" points="927.707,-358.303 927.709,-347.708 921.1,-355.989 927.707,-358.303"/>
<text text-anchor="middle" x="949" y="-383" font-family="FreeSans" font-size="10.00"> parent_</text>
<text text-anchor="middle" x="949" y="-370" font-family="FreeSans" font-size="10.00">children_</text>
</g>
<!-- Node25 -->
<g id="node69" class="node"><title>Node25</title>
<a xlink:href="class_urho3_d_1_1_vector2.html" target="_top" xlink:title="Two&#45;dimensional vector.">
<polygon fill="none" stroke="black" points="1174,-0.5 1174,-21.5 1270,-21.5 1270,-0.5 1174,-0.5"/>
<text text-anchor="middle" x="1222" y="-8.5" font-family="FreeSans" font-size="10.00">Urho3D::Vector2</text>
</a>
</g>
<!-- Node25&#45;&gt;Node1 -->
<g id="edge90" class="edge"><title>Node25&#45;&gt;Node1</title>
<path fill="none" stroke="#9a32cd" stroke-dasharray="5,2" d="M1244.96,-27.6007C1288.9,-59.3673 1383.74,-127.942 1420.26,-154.341"/>
<polygon fill="#9a32cd" stroke="#9a32cd" points="1246.79,-24.6078 1236.64,-21.585 1242.69,-30.2805 1246.79,-24.6078"/>
<text text-anchor="middle" x="1321" y="-105" font-family="FreeSans" font-size="10.00"> textureUV_</text>
</g>
<!-- Node25&#45;&gt;Node25 -->
<g id="edge92" class="edge"><title>Node25&#45;&gt;Node25</title>
<path fill="none" stroke="#9a32cd" stroke-dasharray="5,2" d="M1203.94,-31.4266C1205.33,-36.3489 1211.35,-40 1222,-40 1239.04,-40 1244.23,-30.6531 1237.57,-21.7079"/>
<polygon fill="#9a32cd" stroke="#9a32cd" points="1207.34,-32.2636 1206.43,-21.7079 1200.56,-30.5268 1207.34,-32.2636"/>
<text text-anchor="middle" x="1222" y="-109" font-family="FreeSans" font-size="10.00"> ONE</text>
<text text-anchor="middle" x="1222" y="-96" font-family="FreeSans" font-size="10.00">DOWN</text>
<text text-anchor="middle" x="1222" y="-83" font-family="FreeSans" font-size="10.00">RIGHT</text>
<text text-anchor="middle" x="1222" y="-70" font-family="FreeSans" font-size="10.00">LEFT</text>
<text text-anchor="middle" x="1222" y="-57" font-family="FreeSans" font-size="10.00">ZERO</text>
<text text-anchor="middle" x="1222" y="-44" font-family="FreeSans" font-size="10.00">UP</text>
</g>
</g>
</svg>
