<?xml version="1.0" encoding="UTF-8" standalone="no"?>
<!DOCTYPE svg PUBLIC "-//W3C//DTD SVG 1.1//EN"
 "http://www.w3.org/Graphics/SVG/1.1/DTD/svg11.dtd">
<!-- Generated by graphviz version 2.26.3 (20100126.1600)
 -->
<!-- Title: Urho3D::Spriter::SpriterData Pages: 1 -->
<svg width="592pt" height="165pt"
 viewBox="0.00 0.00 592.00 165.00" xmlns="http://www.w3.org/2000/svg" xmlns:xlink="http://www.w3.org/1999/xlink">
<g id="graph1" class="graph" transform="scale(1 1) rotate(0) translate(4 161)">
<title>Urho3D::Spriter::SpriterData</title>
<!-- Node1 -->
<g id="node1" class="node"><title>Node1</title>
<polygon fill="#bfbfbf" stroke="black" points="430.5,-77.5 430.5,-98.5 583.5,-98.5 583.5,-77.5 430.5,-77.5"/>
<text text-anchor="middle" x="507" y="-85.5" font-family="FreeSans" font-size="10.00">Urho3D::Spriter::SpriterData</text>
</g>
<!-- Node2 -->
<g id="node2" class="node"><title>Node2</title>
<a xlink:href="class_urho3_d_1_1_p_o_d_vector.html" target="_top" xlink:title="Urho3D::PODVector\&lt;\l Urho3D::Spriter::Entity * \&gt;">
<polygon fill="none" stroke="black" points="153.5,-123 153.5,-157 300.5,-157 300.5,-123 153.5,-123"/>
<text text-anchor="start" x="161.5" y="-144" font-family="FreeSans" font-size="10.00">Urho3D::PODVector&lt;</text>
<text text-anchor="middle" x="227" y="-131" font-family="FreeSans" font-size="10.00"> Urho3D::Spriter::Entity * &gt;</text>
</a>
</g>
<!-- Node2&#45;&gt;Node1 -->
<g id="edge2" class="edge"><title>Node2&#45;&gt;Node1</title>
<path fill="none" stroke="#9a32cd" stroke-dasharray="5,2" d="M310.625,-124.47C355.712,-116.096 410.162,-105.984 450.28,-98.5337"/>
<polygon fill="#9a32cd" stroke="#9a32cd" points="309.759,-121.07 300.567,-126.338 311.038,-127.953 309.759,-121.07"/>
<text text-anchor="middle" x="366" y="-125" font-family="FreeSans" font-size="10.00"> entities_</text>
</g>
<!-- Node3 -->
<g id="node4" class="node"><title>Node3</title>
<a xlink:href="class_urho3_d_1_1_vector_base.html" target="_top" xlink:title="Vector base class.">
<polygon fill="none" stroke="black" points="0,-106.5 0,-127.5 114,-127.5 114,-106.5 0,-106.5"/>
<text text-anchor="middle" x="57" y="-114.5" font-family="FreeSans" font-size="10.00">Urho3D::VectorBase</text>
</a>
</g>
<!-- Node3&#45;&gt;Node2 -->
<g id="edge4" class="edge"><title>Node3&#45;&gt;Node2</title>
<path fill="none" stroke="midnightblue" d="M124.016,-126.067C133.685,-127.375 143.678,-128.727 153.466,-130.051"/>
<polygon fill="midnightblue" stroke="midnightblue" points="124.459,-122.595 114.08,-124.723 123.521,-129.532 124.459,-122.595"/>
</g>
<!-- Node4 -->
<g id="node6" class="node"><title>Node4</title>
<a xlink:href="class_urho3_d_1_1_p_o_d_vector.html" target="_top" xlink:title="Urho3D::PODVector\&lt;\l Urho3D::Spriter::Folder * \&gt;">
<polygon fill="none" stroke="black" points="152.5,-71 152.5,-105 301.5,-105 301.5,-71 152.5,-71"/>
<text text-anchor="start" x="160.5" y="-92" font-family="FreeSans" font-size="10.00">Urho3D::PODVector&lt;</text>
<text text-anchor="middle" x="227" y="-79" font-family="FreeSans" font-size="10.00"> Urho3D::Spriter::Folder * &gt;</text>
</a>
</g>
<!-- Node3&#45;&gt;Node4 -->
<g id="edge8" class="edge"><title>Node3&#45;&gt;Node4</title>
<path fill="none" stroke="midnightblue" d="M124.004,-105.57C133.279,-103.988 142.853,-102.355 152.257,-100.75"/>
<polygon fill="midnightblue" stroke="midnightblue" points="123.349,-102.131 114.08,-107.263 124.527,-109.031 123.349,-102.131"/>
</g>
<!-- Node4&#45;&gt;Node1 -->
<g id="edge6" class="edge"><title>Node4&#45;&gt;Node1</title>
<path fill="none" stroke="#9a32cd" stroke-dasharray="5,2" d="M312.089,-88C349.668,-88 393.519,-88 430.102,-88"/>
<polygon fill="#9a32cd" stroke="#9a32cd" points="311.667,-84.5001 301.667,-88 311.667,-91.5001 311.667,-84.5001"/>
<text text-anchor="middle" x="366" y="-92" font-family="FreeSans" font-size="10.00"> folders_</text>
</g>
<!-- Node5 -->
<g id="node9" class="node"><title>Node5</title>
<a xlink:href="class_urho3_d_1_1_string.html" target="_top" xlink:title="String class.">
<polygon fill="none" stroke="black" points="183,-0.5 183,-21.5 271,-21.5 271,-0.5 183,-0.5"/>
<text text-anchor="middle" x="227" y="-8.5" font-family="FreeSans" font-size="10.00">Urho3D::String</text>
</a>
</g>
<!-- Node5&#45;&gt;Node1 -->
<g id="edge10" class="edge"><title>Node5&#45;&gt;Node1</title>
<path fill="none" stroke="#9a32cd" stroke-dasharray="5,2" d="M281.366,-23.9463C318.343,-32.9634 368.3,-45.56 412,-58 433.126,-64.0141 456.672,-71.4443 475.037,-77.4055"/>
<polygon fill="#9a32cd" stroke="#9a32cd" points="281.841,-20.4599 271.297,-21.5011 280.189,-27.2622 281.841,-20.4599"/>
<text text-anchor="middle" x="366" y="-75" font-family="FreeSans" font-size="10.00"> generatorVersion_</text>
<text text-anchor="middle" x="366" y="-62" font-family="FreeSans" font-size="10.00">generator_</text>
</g>
<!-- Node5&#45;&gt;Node5 -->
<g id="edge12" class="edge"><title>Node5&#45;&gt;Node5</title>
<path fill="none" stroke="#9a32cd" stroke-dasharray="5,2" d="M209.677,-31.4266C211.013,-36.3489 216.788,-40 227,-40 243.34,-40 248.318,-30.6531 241.936,-21.7079"/>
<polygon fill="#9a32cd" stroke="#9a32cd" points="213.078,-32.2541 212.064,-21.7079 206.28,-30.5841 213.078,-32.2541"/>
<text text-anchor="middle" x="227" y="-44" font-family="FreeSans" font-size="10.00"> EMPTY</text>
</g>
</g>
</svg>
