<?xml version="1.0" encoding="UTF-8" standalone="no"?>
<!DOCTYPE svg PUBLIC "-//W3C//DTD SVG 1.1//EN"
 "http://www.w3.org/Graphics/SVG/1.1/DTD/svg11.dtd">
<!-- Generated by graphviz version 2.26.3 (20100126.1600)
 -->
<!-- Title: Urho3D::Spriter::TimelineKey Pages: 1 -->
<svg width="338pt" height="260pt"
 viewBox="0.00 0.00 338.00 260.00" xmlns="http://www.w3.org/2000/svg" xmlns:xlink="http://www.w3.org/1999/xlink">
<g id="graph1" class="graph" transform="scale(1 1) rotate(0) translate(4 256)">
<title>Urho3D::Spriter::TimelineKey</title>
<!-- Node1 -->
<g id="node1" class="node"><title>Node1</title>
<polygon fill="#bfbfbf" stroke="black" points="82,-0.5 82,-21.5 236,-21.5 236,-0.5 82,-0.5"/>
<text text-anchor="middle" x="159" y="-8.5" font-family="FreeSans" font-size="10.00">Urho3D::Spriter::TimelineKey</text>
</g>
<!-- Node2 -->
<g id="node2" class="node"><title>Node2</title>
<a xlink:href="struct_urho3_d_1_1_spriter_1_1_timeline.html" target="_top" xlink:title="Timeline.">
<polygon fill="none" stroke="black" points="90.5,-72.5 90.5,-93.5 227.5,-93.5 227.5,-72.5 90.5,-72.5"/>
<text text-anchor="middle" x="159" y="-80.5" font-family="FreeSans" font-size="10.00">Urho3D::Spriter::Timeline</text>
</a>
</g>
<!-- Node2&#45;&gt;Node1 -->
<g id="edge2" class="edge"><title>Node2&#45;&gt;Node1</title>
<path fill="none" stroke="#9a32cd" stroke-dasharray="5,2" d="M159,-62.2348C159,-48.969 159,-32.3188 159,-21.6674"/>
<polygon fill="#9a32cd" stroke="#9a32cd" points="155.5,-62.3761 159,-72.3762 162.5,-62.3762 155.5,-62.3761"/>
<text text-anchor="middle" x="182.5" y="-44.5" font-family="FreeSans" font-size="10.00"> timeline_</text>
</g>
<!-- Node3 -->
<g id="node4" class="node"><title>Node3</title>
<a xlink:href="class_urho3_d_1_1_p_o_d_vector.html" target="_top" xlink:title="Urho3D::PODVector\&lt;\l Urho3D::Spriter::SpatialTimeline\lKey * \&gt;">
<polygon fill="none" stroke="black" points="-0.5,-144.5 -0.5,-191.5 172.5,-191.5 172.5,-144.5 -0.5,-144.5"/>
<text text-anchor="start" x="7.5" y="-178.5" font-family="FreeSans" font-size="10.00">Urho3D::PODVector&lt;</text>
<text text-anchor="start" x="7.5" y="-165.5" font-family="FreeSans" font-size="10.00"> Urho3D::Spriter::SpatialTimeline</text>
<text text-anchor="middle" x="86" y="-152.5" font-family="FreeSans" font-size="10.00">Key * &gt;</text>
</a>
</g>
<!-- Node3&#45;&gt;Node2 -->
<g id="edge4" class="edge"><title>Node3&#45;&gt;Node2</title>
<path fill="none" stroke="#9a32cd" stroke-dasharray="5,2" d="M112.879,-136.703C125.765,-121.698 140.375,-104.687 149.634,-93.9057"/>
<polygon fill="#9a32cd" stroke="#9a32cd" points="110.195,-134.456 106.335,-144.323 115.505,-139.017 110.195,-134.456"/>
<text text-anchor="middle" x="149.5" y="-116.5" font-family="FreeSans" font-size="10.00"> keys_</text>
</g>
<!-- Node4 -->
<g id="node6" class="node"><title>Node4</title>
<a xlink:href="class_urho3_d_1_1_vector_base.html" target="_top" xlink:title="Vector base class.">
<polygon fill="none" stroke="black" points="29,-230.5 29,-251.5 143,-251.5 143,-230.5 29,-230.5"/>
<text text-anchor="middle" x="86" y="-238.5" font-family="FreeSans" font-size="10.00">Urho3D::VectorBase</text>
</a>
</g>
<!-- Node4&#45;&gt;Node3 -->
<g id="edge6" class="edge"><title>Node4&#45;&gt;Node3</title>
<path fill="none" stroke="midnightblue" d="M86,-220.053C86,-211.23 86,-200.915 86,-191.805"/>
<polygon fill="midnightblue" stroke="midnightblue" points="82.5001,-220.229 86,-230.229 89.5001,-220.229 82.5001,-220.229"/>
</g>
<!-- Node5 -->
<g id="node8" class="node"><title>Node5</title>
<a xlink:href="class_urho3_d_1_1_string.html" target="_top" xlink:title="String class.">
<polygon fill="none" stroke="black" points="190,-157.5 190,-178.5 278,-178.5 278,-157.5 190,-157.5"/>
<text text-anchor="middle" x="234" y="-165.5" font-family="FreeSans" font-size="10.00">Urho3D::String</text>
</a>
</g>
<!-- Node5&#45;&gt;Node2 -->
<g id="edge8" class="edge"><title>Node5&#45;&gt;Node2</title>
<path fill="none" stroke="#9a32cd" stroke-dasharray="5,2" d="M217.724,-149.554C202.659,-132.48 180.78,-107.684 168.422,-93.6779"/>
<polygon fill="#9a32cd" stroke="#9a32cd" points="215.261,-152.052 224.501,-157.235 220.509,-147.421 215.261,-152.052"/>
<text text-anchor="middle" x="214.5" y="-116.5" font-family="FreeSans" font-size="10.00"> name_</text>
</g>
<!-- Node5&#45;&gt;Node5 -->
<g id="edge10" class="edge"><title>Node5&#45;&gt;Node5</title>
<path fill="none" stroke="#9a32cd" stroke-dasharray="5,2" d="M288.258,-174.188C293.019,-172.882 296,-170.82 296,-168 296,-163.488 288.369,-160.915 278.024,-160.281"/>
<polygon fill="#9a32cd" stroke="#9a32cd" points="287.396,-170.778 278.024,-175.719 288.432,-177.7 287.396,-170.778"/>
<text text-anchor="middle" x="313" y="-165.5" font-family="FreeSans" font-size="10.00"> EMPTY</text>
</g>
</g>
</svg>
