<?xml version="1.0" encoding="UTF-8" standalone="no"?>
<!DOCTYPE svg PUBLIC "-//W3C//DTD SVG 1.1//EN"
 "http://www.w3.org/Graphics/SVG/1.1/DTD/svg11.dtd">
<!-- Generated by graphviz version 2.26.3 (20100126.1600)
 -->
<!-- Title: Urho3D::Spriter::SpatialTimelineKey Pages: 1 -->
<svg width="386pt" height="160pt"
 viewBox="0.00 0.00 386.00 160.00" xmlns="http://www.w3.org/2000/svg" xmlns:xlink="http://www.w3.org/1999/xlink">
<g id="graph1" class="graph" transform="scale(1 1) rotate(0) translate(4 156)">
<title>Urho3D::Spriter::SpatialTimelineKey</title>
<!-- Node1 -->
<g id="node1" class="node"><title>Node1</title>
<polygon fill="#bfbfbf" stroke="black" points="122.5,-59 122.5,-93 253.5,-93 253.5,-59 122.5,-59"/>
<text text-anchor="start" x="130.5" y="-80" font-family="FreeSans" font-size="10.00">Urho3D::Spriter::Spatial</text>
<text text-anchor="middle" x="188" y="-67" font-family="FreeSans" font-size="10.00">TimelineKey</text>
</g>
<!-- Node3 -->
<g id="node5" class="node"><title>Node3</title>
<a xlink:href="struct_urho3_d_1_1_spriter_1_1_bone_timeline_key.html" target="_top" xlink:title="Bone timeline key.">
<polygon fill="none" stroke="black" points="-0.5,-0.5 -0.5,-21.5 178.5,-21.5 178.5,-0.5 -0.5,-0.5"/>
<text text-anchor="middle" x="89" y="-8.5" font-family="FreeSans" font-size="10.00">Urho3D::Spriter::BoneTimelineKey</text>
</a>
</g>
<!-- Node1&#45;&gt;Node3 -->
<g id="edge4" class="edge"><title>Node1&#45;&gt;Node3</title>
<path fill="none" stroke="midnightblue" d="M153.213,-53.1601C136.89,-42.4429 118.219,-30.1841 105.234,-21.6584"/>
<polygon fill="midnightblue" stroke="midnightblue" points="151.709,-56.3593 161.989,-58.922 155.551,-50.5078 151.709,-56.3593"/>
</g>
<!-- Node4 -->
<g id="node7" class="node"><title>Node4</title>
<a xlink:href="struct_urho3_d_1_1_spriter_1_1_sprite_timeline_key.html" target="_top" xlink:title="Sprite timeline key.">
<polygon fill="none" stroke="black" points="196,-0.5 196,-21.5 378,-21.5 378,-0.5 196,-0.5"/>
<text text-anchor="middle" x="287" y="-8.5" font-family="FreeSans" font-size="10.00">Urho3D::Spriter::SpriteTimelineKey</text>
</a>
</g>
<!-- Node1&#45;&gt;Node4 -->
<g id="edge6" class="edge"><title>Node1&#45;&gt;Node4</title>
<path fill="none" stroke="midnightblue" d="M222.787,-53.1601C239.11,-42.4429 257.781,-30.1841 270.766,-21.6584"/>
<polygon fill="midnightblue" stroke="midnightblue" points="220.449,-50.5078 214.011,-58.922 224.291,-56.3593 220.449,-50.5078"/>
</g>
<!-- Node2 -->
<g id="node2" class="node"><title>Node2</title>
<a xlink:href="struct_urho3_d_1_1_spriter_1_1_timeline_key.html" target="_top" xlink:title="Timeline key.">
<polygon fill="none" stroke="black" points="111,-130.5 111,-151.5 265,-151.5 265,-130.5 111,-130.5"/>
<text text-anchor="middle" x="188" y="-138.5" font-family="FreeSans" font-size="10.00">Urho3D::Spriter::TimelineKey</text>
</a>
</g>
<!-- Node2&#45;&gt;Node1 -->
<g id="edge2" class="edge"><title>Node2&#45;&gt;Node1</title>
<path fill="none" stroke="midnightblue" d="M188,-120.131C188,-111.405 188,-101.391 188,-93.1099"/>
<polygon fill="midnightblue" stroke="midnightblue" points="184.5,-120.267 188,-130.267 191.5,-120.267 184.5,-120.267"/>
</g>
</g>
</svg>
