<?xml version="1.0" encoding="UTF-8" standalone="no"?>
<!DOCTYPE svg PUBLIC "-//W3C//DTD SVG 1.1//EN"
 "http://www.w3.org/Graphics/SVG/1.1/DTD/svg11.dtd">
<!-- Generated by graphviz version 2.26.3 (20100126.1600)
 -->
<!-- Title: Urho3D::Spriter::SpriteTimelineKey Pages: 1 -->
<svg width="190pt" height="160pt"
 viewBox="0.00 0.00 190.00 160.00" xmlns="http://www.w3.org/2000/svg" xmlns:xlink="http://www.w3.org/1999/xlink">
<g id="graph1" class="graph" transform="scale(1 1) rotate(0) translate(4 156)">
<title>Urho3D::Spriter::SpriteTimelineKey</title>
<!-- Node1 -->
<g id="node1" class="node"><title>Node1</title>
<polygon fill="#bfbfbf" stroke="black" points="0,-0.5 0,-21.5 182,-21.5 182,-0.5 0,-0.5"/>
<text text-anchor="middle" x="91" y="-8.5" font-family="FreeSans" font-size="10.00">Urho3D::Spriter::SpriteTimelineKey</text>
</g>
<!-- Node2 -->
<g id="node2" class="node"><title>Node2</title>
<a xlink:href="struct_urho3_d_1_1_spriter_1_1_spatial_timeline_key.html" target="_top" xlink:title="Spatial timeline key.">
<polygon fill="none" stroke="black" points="25.5,-59 25.5,-93 156.5,-93 156.5,-59 25.5,-59"/>
<text text-anchor="start" x="33.5" y="-80" font-family="FreeSans" font-size="10.00">Urho3D::Spriter::Spatial</text>
<text text-anchor="middle" x="91" y="-67" font-family="FreeSans" font-size="10.00">TimelineKey</text>
</a>
</g>
<!-- Node2&#45;&gt;Node1 -->
<g id="edge2" class="edge"><title>Node2&#45;&gt;Node1</title>
<path fill="none" stroke="midnightblue" d="M91,-48.6879C91,-39.2415 91,-29.1949 91,-21.8521"/>
<polygon fill="midnightblue" stroke="midnightblue" points="87.5001,-48.922 91,-58.922 94.5001,-48.922 87.5001,-48.922"/>
</g>
<!-- Node3 -->
<g id="node4" class="node"><title>Node3</title>
<a xlink:href="struct_urho3_d_1_1_spriter_1_1_timeline_key.html" target="_top" xlink:title="Timeline key.">
<polygon fill="none" stroke="black" points="14,-130.5 14,-151.5 168,-151.5 168,-130.5 14,-130.5"/>
<text text-anchor="middle" x="91" y="-138.5" font-family="FreeSans" font-size="10.00">Urho3D::Spriter::TimelineKey</text>
</a>
</g>
<!-- Node3&#45;&gt;Node2 -->
<g id="edge4" class="edge"><title>Node3&#45;&gt;Node2</title>
<path fill="none" stroke="midnightblue" d="M91,-120.131C91,-111.405 91,-101.391 91,-93.1099"/>
<polygon fill="midnightblue" stroke="midnightblue" points="87.5001,-120.267 91,-130.267 94.5001,-120.267 87.5001,-120.267"/>
</g>
</g>
</svg>
