<?xml version="1.0" encoding="UTF-8" standalone="no"?>
<!DOCTYPE svg PUBLIC "-//W3C//DTD SVG 1.1//EN"
 "http://www.w3.org/Graphics/SVG/1.1/DTD/svg11.dtd">
<!-- Generated by graphviz version 2.26.3 (20100126.1600)
 -->
<!-- Title: Urho3D::DelayedWorldTransform Pages: 1 -->
<!--zoomable 576 -->
<svg id="main" version="1.1" xmlns="http://www.w3.org/2000/svg" xmlns:xlink="http://www.w3.org/1999/xlink" xml:space="preserve" onload="init(evt)">
        <defs>
                <circle id="rim" cx="0" cy="0" r="7"/>
                <circle id="rim2" cx="0" cy="0" r="3.5"/>
                <g id="zoomPlus">
                        <use xlink:href="#rim" fill="#404040">
                                <set attributeName="fill" to="#808080" begin="zoomplus.mouseover" end="zoomplus.mouseout"/>
                        </use>
                        <path d="M-4,0h8M0,-4v8" fill="none" stroke="white" stroke-width="1.5" pointer-events="none"/>
                </g>
                <g id="zoomMin">
                        <use xlink:href="#rim" fill="#404040">
                                <set attributeName="fill" to="#808080" begin="zoomminus.mouseover" end="zoomminus.mouseout"/>
                        </use>
                        <path d="M-4,0h8" fill="none" stroke="white" stroke-width="1.5" pointer-events="none"/>
                </g>
                <g id="dirArrow">
                        <path fill="none" stroke="white" stroke-width="1.5" d="M0,-3.0v7 M-2.5,-0.5L0,-3.0L2.5,-0.5"/>
                </g>
               <g id="resetDef">
                       <use xlink:href="#rim2" fill="#404040">
                               <set attributeName="fill" to="#808080" begin="reset.mouseover" end="reset.mouseout"/>
                       </use>
               </g>
        </defs>

<script type="text/javascript">
var viewWidth = 2164;
var viewHeight = 576;
var sectionId = 'dynsection-0';
</script>
<script xlink:href="svgpan.js"/>
<svg id="graph" class="graph">
<g id="viewport">
<title>Urho3D::DelayedWorldTransform</title>
<!-- Node1 -->
<g id="node1" class="node"><title>Node1</title>
<polygon fill="#bfbfbf" stroke="black" points="1984.5,-419.805 1984.5,-440.805 2155.5,-440.805 2155.5,-419.805 1984.5,-419.805"/>
<text text-anchor="middle" x="2070" y="-427.805" font-family="FreeSans" font-size="10.00">Urho3D::DelayedWorldTransform</text>
</g>
<!-- Node2 -->
<g id="node2" class="node"><title>Node2</title>
<a xlink:href="class_urho3_d_1_1_quaternion.html" target="_top" xlink:title="Rotation represented as a four&#45;dimensional normalized vector.">
<polygon fill="none" stroke="black" points="535.5,-503.805 535.5,-524.805 648.5,-524.805 648.5,-503.805 535.5,-503.805"/>
<text text-anchor="middle" x="592" y="-511.805" font-family="FreeSans" font-size="10.00">Urho3D::Quaternion</text>
</a>
</g>
<!-- Node2&#45;&gt;Node1 -->
<g id="edge2" class="edge"><title>Node2&#45;&gt;Node1</title>
<path fill="none" stroke="#9a32cd" stroke-dasharray="5,2" d="M658.845,-502.468C722.054,-492.312 819.667,-479.305 905,-479.305 905,-479.305 905,-479.305 1807,-479.305 1890.37,-479.305 1986.13,-455.214 2035.91,-440.817"/>
<polygon fill="#9a32cd" stroke="#9a32cd" points="657.924,-499.071 648.617,-504.134 659.05,-505.98 657.924,-499.071"/>
<text text-anchor="middle" x="1289" y="-483.305" font-family="FreeSans" font-size="10.00"> worldRotation_</text>
</g>
<!-- Node2&#45;&gt;Node2 -->
<g id="edge4" class="edge"><title>Node2&#45;&gt;Node2</title>
<path fill="none" stroke="#9a32cd" stroke-dasharray="5,2" d="M570.991,-534.731C572.612,-539.654 579.615,-543.305 592,-543.305 611.816,-543.305 617.854,-533.958 610.113,-525.013"/>
<polygon fill="#9a32cd" stroke="#9a32cd" points="574.385,-535.596 573.887,-525.013 567.677,-533.597 574.385,-535.596"/>
<text text-anchor="middle" x="592" y="-547.305" font-family="FreeSans" font-size="10.00"> IDENTITY</text>
</g>
<!-- Node4 -->
<g id="node8" class="node"><title>Node4</title>
<a xlink:href="class_urho3_d_1_1_rigid_body.html" target="_top" xlink:title="Physics rigid body component.">
<polygon fill="none" stroke="black" points="1754,-237.805 1754,-258.805 1860,-258.805 1860,-237.805 1754,-237.805"/>
<text text-anchor="middle" x="1807" y="-245.805" font-family="FreeSans" font-size="10.00">Urho3D::RigidBody</text>
</a>
</g>
<!-- Node2&#45;&gt;Node4 -->
<g id="edge54" class="edge"><title>Node2&#45;&gt;Node4</title>
<path fill="none" stroke="#9a32cd" stroke-dasharray="5,2" d="M635.336,-527.66C678.047,-539.626 745.384,-555.305 805,-555.305 805,-555.305 805,-555.305 1539,-555.305 1699.96,-555.305 1786.49,-312.855 1803.76,-258.872"/>
<polygon fill="#9a32cd" stroke="#9a32cd" points="636.132,-524.247 625.555,-524.863 634.208,-530.977 636.132,-524.247"/>
<text text-anchor="middle" x="1152" y="-559.305" font-family="FreeSans" font-size="10.00"> lastRotation_</text>
</g>
<!-- Node11 -->
<g id="node22" class="node"><title>Node11</title>
<a xlink:href="class_urho3_d_1_1_node.html" target="_top" xlink:title="Scene node that may contain components and child nodes.">
<polygon fill="none" stroke="red" points="762.5,-260.805 762.5,-281.805 847.5,-281.805 847.5,-260.805 762.5,-260.805"/>
<text text-anchor="middle" x="805" y="-268.805" font-family="FreeSans" font-size="10.00">Urho3D::Node</text>
</a>
</g>
<!-- Node2&#45;&gt;Node11 -->
<g id="edge36" class="edge"><title>Node2&#45;&gt;Node11</title>
<path fill="none" stroke="#9a32cd" stroke-dasharray="5,2" d="M637.482,-499.148C642.784,-496.116 647.792,-492.53 652,-488.305 666.332,-473.916 659.716,-463.817 670,-446.305 709.444,-379.136 771.22,-308.453 795.109,-282.065"/>
<polygon fill="#9a32cd" stroke="#9a32cd" points="635.725,-496.113 628.371,-503.74 638.876,-502.364 635.725,-496.113"/>
<text text-anchor="middle" x="707" y="-463.305" font-family="FreeSans" font-size="10.00"> worldRotation_</text>
<text text-anchor="middle" x="707" y="-450.305" font-family="FreeSans" font-size="10.00">rotation_</text>
</g>
<!-- Node25 -->
<g id="node63" class="node"><title>Node25</title>
<a xlink:href="class_urho3_d_1_1_smoothed_transform.html" target="_top" xlink:title="Transform smoothing component for network updates.">
<polygon fill="none" stroke="black" points="1210.5,-324.805 1210.5,-345.805 1367.5,-345.805 1367.5,-324.805 1210.5,-324.805"/>
<text text-anchor="middle" x="1289" y="-332.805" font-family="FreeSans" font-size="10.00">Urho3D::SmoothedTransform</text>
</a>
</g>
<!-- Node2&#45;&gt;Node25 -->
<g id="edge82" class="edge"><title>Node2&#45;&gt;Node25</title>
<path fill="none" stroke="#9a32cd" stroke-dasharray="5,2" d="M658.684,-517.916C774.63,-521.246 1017.66,-514.965 1192,-419.305 1228.52,-399.266 1263.45,-363.681 1279.62,-345.955"/>
<polygon fill="#9a32cd" stroke="#9a32cd" points="658.645,-514.413 648.538,-517.591 658.421,-521.41 658.645,-514.413"/>
<text text-anchor="middle" x="905" y="-513.305" font-family="FreeSans" font-size="10.00"> targetRotation_</text>
</g>
<!-- Node3 -->
<g id="node5" class="node"><title>Node3</title>
<a xlink:href="class_urho3_d_1_1_vector3.html" target="_top" xlink:title="Three&#45;dimensional vector.">
<polygon fill="none" stroke="black" points="544,-335.805 544,-356.805 640,-356.805 640,-335.805 544,-335.805"/>
<text text-anchor="middle" x="592" y="-343.805" font-family="FreeSans" font-size="10.00">Urho3D::Vector3</text>
</a>
</g>
<!-- Node3&#45;&gt;Node1 -->
<g id="edge6" class="edge"><title>Node3&#45;&gt;Node1</title>
<path fill="none" stroke="#9a32cd" stroke-dasharray="5,2" d="M627.208,-360.514C640.427,-365.309 655.712,-370.222 670,-373.305 940.059,-431.582 1012.72,-430.305 1289,-430.305 1289,-430.305 1289,-430.305 1807,-430.305 1866.24,-430.305 1932.99,-430.305 1984.42,-430.305"/>
<polygon fill="#9a32cd" stroke="#9a32cd" points="628.145,-357.128 617.553,-356.903 625.693,-363.684 628.145,-357.128"/>
<text text-anchor="middle" x="1289" y="-434.305" font-family="FreeSans" font-size="10.00"> worldPosition_</text>
</g>
<!-- Node3&#45;&gt;Node3 -->
<g id="edge8" class="edge"><title>Node3&#45;&gt;Node3</title>
<path fill="none" stroke="#9a32cd" stroke-dasharray="5,2" d="M570.991,-366.731C572.612,-371.654 579.615,-375.305 592,-375.305 611.816,-375.305 617.854,-365.958 610.113,-357.013"/>
<polygon fill="#9a32cd" stroke="#9a32cd" points="574.385,-367.596 573.887,-357.013 567.677,-365.597 574.385,-367.596"/>
<text text-anchor="middle" x="592" y="-470.305" font-family="FreeSans" font-size="10.00"> ONE</text>
<text text-anchor="middle" x="592" y="-457.305" font-family="FreeSans" font-size="10.00">DOWN</text>
<text text-anchor="middle" x="592" y="-444.305" font-family="FreeSans" font-size="10.00">BACK</text>
<text text-anchor="middle" x="592" y="-431.305" font-family="FreeSans" font-size="10.00">RIGHT</text>
<text text-anchor="middle" x="592" y="-418.305" font-family="FreeSans" font-size="10.00">LEFT</text>
<text text-anchor="middle" x="592" y="-405.305" font-family="FreeSans" font-size="10.00">ZERO</text>
<text text-anchor="middle" x="592" y="-392.305" font-family="FreeSans" font-size="10.00">FORWARD</text>
<text text-anchor="middle" x="592" y="-379.305" font-family="FreeSans" font-size="10.00">UP</text>
</g>
<!-- Node3&#45;&gt;Node4 -->
<g id="edge72" class="edge"><title>Node3&#45;&gt;Node4</title>
<path fill="none" stroke="#9a32cd" stroke-dasharray="5,2" d="M650.412,-356.28C657.003,-357.111 663.635,-357.818 670,-358.305 791.423,-367.59 822.223,-358.736 944,-358.305 1297.57,-357.054 1401,-396.407 1736,-283.305 1754.75,-276.974 1774.87,-266.692 1788.89,-258.906"/>
<polygon fill="#9a32cd" stroke="#9a32cd" points="650.513,-352.762 640.133,-354.886 649.572,-359.698 650.513,-352.762"/>
<text text-anchor="middle" x="1152" y="-392.305" font-family="FreeSans" font-size="10.00"> centerOfMass_</text>
<text text-anchor="middle" x="1152" y="-379.305" font-family="FreeSans" font-size="10.00">gravityOverride_</text>
<text text-anchor="middle" x="1152" y="-366.305" font-family="FreeSans" font-size="10.00">lastPosition_</text>
</g>
<!-- Node3&#45;&gt;Node11 -->
<g id="edge48" class="edge"><title>Node3&#45;&gt;Node11</title>
<path fill="none" stroke="#9a32cd" stroke-dasharray="5,2" d="M616.738,-330.398C631.673,-321.38 651.363,-310.497 670,-303.305 700,-291.728 735.424,-283.523 762.456,-278.322"/>
<polygon fill="#9a32cd" stroke="#9a32cd" points="614.779,-327.494 608.105,-335.722 618.454,-333.452 614.779,-327.494"/>
<text text-anchor="middle" x="707" y="-320.305" font-family="FreeSans" font-size="10.00"> scale_</text>
<text text-anchor="middle" x="707" y="-307.305" font-family="FreeSans" font-size="10.00">position_</text>
</g>
<!-- Node3&#45;&gt;Node25 -->
<g id="edge84" class="edge"><title>Node3&#45;&gt;Node25</title>
<path fill="none" stroke="#9a32cd" stroke-dasharray="5,2" d="M650.316,-345.384C775.301,-343.412 1069.07,-338.776 1210.38,-336.546"/>
<polygon fill="#9a32cd" stroke="#9a32cd" points="650.126,-341.887 640.183,-345.544 650.237,-348.886 650.126,-341.887"/>
<text text-anchor="middle" x="905" y="-345.305" font-family="FreeSans" font-size="10.00"> targetPosition_</text>
</g>
<!-- Node4&#45;&gt;Node1 -->
<g id="edge10" class="edge"><title>Node4&#45;&gt;Node1</title>
<path fill="none" stroke="#9a32cd" stroke-dasharray="5,2" d="M1830.71,-264.71C1883.73,-301.401 2010.69,-389.259 2054.68,-419.704"/>
<polygon fill="#9a32cd" stroke="#9a32cd" points="1832.49,-261.689 1822.28,-258.877 1828.51,-267.445 1832.49,-261.689"/>
<text text-anchor="middle" x="1922" y="-372.305" font-family="FreeSans" font-size="10.00"> parentRigidBody_</text>
<text text-anchor="middle" x="1922" y="-359.305" font-family="FreeSans" font-size="10.00">rigidBody_</text>
</g>
<!-- Node5 -->
<g id="node10" class="node"><title>Node5</title>
<a xlink:href="class_urho3_d_1_1_component.html" target="_top" xlink:title="Base class for components. Components can be created to scene nodes.">
<polygon fill="none" stroke="black" points="970,-235.805 970,-256.805 1086,-256.805 1086,-235.805 970,-235.805"/>
<text text-anchor="middle" x="1028" y="-243.805" font-family="FreeSans" font-size="10.00">Urho3D::Component</text>
</a>
</g>
<!-- Node5&#45;&gt;Node4 -->
<g id="edge12" class="edge"><title>Node5&#45;&gt;Node4</title>
<path fill="none" stroke="midnightblue" d="M1096.2,-253.298C1205.17,-263.633 1425.29,-281.072 1612,-274.305 1667.22,-272.303 1681.4,-273.766 1736,-265.305 1746.52,-263.674 1757.78,-261.284 1768.16,-258.807"/>
<polygon fill="midnightblue" stroke="midnightblue" points="1096.29,-249.791 1086,-252.321 1095.62,-256.759 1096.29,-249.791"/>
</g>
<!-- Node21 -->
<g id="node50" class="node"><title>Node21</title>
<a xlink:href="class_urho3_d_1_1_physics_world.html" target="_top" xlink:title="Physics simulation world component. Should be added only to the root scene node.">
<polygon fill="none" stroke="red" points="1229,-206.805 1229,-227.805 1349,-227.805 1349,-206.805 1229,-206.805"/>
<text text-anchor="middle" x="1289" y="-214.805" font-family="FreeSans" font-size="10.00">Urho3D::PhysicsWorld</text>
</a>
</g>
<!-- Node5&#45;&gt;Node21 -->
<g id="edge62" class="edge"><title>Node5&#45;&gt;Node21</title>
<path fill="none" stroke="midnightblue" d="M1096.44,-238.701C1137.47,-234.142 1189.17,-228.397 1228.66,-224.009"/>
<polygon fill="midnightblue" stroke="midnightblue" points="1095.8,-235.25 1086.25,-239.833 1096.57,-242.207 1095.8,-235.25"/>
</g>
<!-- Node5&#45;&gt;Node25 -->
<g id="edge80" class="edge"><title>Node5&#45;&gt;Node25</title>
<path fill="none" stroke="midnightblue" d="M1071.76,-261.061C1079.68,-264.93 1087.48,-269.645 1094,-275.305 1105.46,-285.246 1099.43,-295.81 1112,-304.305 1128.15,-315.223 1170.73,-322.87 1210.08,-327.837"/>
<polygon fill="midnightblue" stroke="midnightblue" points="1073.04,-257.799 1062.48,-256.902 1070.18,-264.186 1073.04,-257.799"/>
</g>
<!-- Node6 -->
<g id="node12" class="node"><title>Node6</title>
<a xlink:href="class_urho3_d_1_1_animatable.html" target="_top" xlink:title="Base class for animatable object, an animatable object can be set animation on it&#39;s attributes...">
<polygon fill="none" stroke="black" points="535,-276.805 535,-297.805 649,-297.805 649,-276.805 535,-276.805"/>
<text text-anchor="middle" x="592" y="-284.805" font-family="FreeSans" font-size="10.00">Urho3D::Animatable</text>
</a>
</g>
<!-- Node6&#45;&gt;Node5 -->
<g id="edge14" class="edge"><title>Node6&#45;&gt;Node5</title>
<path fill="none" stroke="midnightblue" d="M642.602,-274.36C676.218,-266.314 721.463,-256.537 762,-251.305 807.895,-245.381 819.738,-247.416 866,-246.305 900.443,-245.477 939.017,-245.442 969.883,-245.63"/>
<polygon fill="midnightblue" stroke="midnightblue" points="641.455,-271.037 632.561,-276.795 643.104,-277.84 641.455,-271.037"/>
</g>
<!-- Node6&#45;&gt;Node11 -->
<g id="edge26" class="edge"><title>Node6&#45;&gt;Node11</title>
<path fill="none" stroke="midnightblue" d="M659.328,-282.247C693.036,-279.715 732.828,-276.726 762.298,-274.512"/>
<polygon fill="midnightblue" stroke="midnightblue" points="658.79,-278.778 649.08,-283.017 659.314,-285.758 658.79,-278.778"/>
</g>
<!-- Node7 -->
<g id="node14" class="node"><title>Node7</title>
<a xlink:href="class_urho3_d_1_1_serializable.html" target="_top" xlink:title="Base class for objects with automatic serialization through attributes.">
<polygon fill="none" stroke="red" points="196,-408.805 196,-429.805 310,-429.805 310,-408.805 196,-408.805"/>
<text text-anchor="middle" x="253" y="-416.805" font-family="FreeSans" font-size="10.00">Urho3D::Serializable</text>
</a>
</g>
<!-- Node7&#45;&gt;Node6 -->
<g id="edge16" class="edge"><title>Node7&#45;&gt;Node6</title>
<path fill="none" stroke="midnightblue" d="M320.086,-421.137C377.356,-419.276 458.955,-408.084 514,-364.305 528.626,-352.672 519.7,-340.374 532,-326.305 542.467,-314.332 557.467,-304.582 569.85,-297.826"/>
<polygon fill="midnightblue" stroke="midnightblue" points="319.959,-417.639 310.045,-421.377 320.126,-424.637 319.959,-417.639"/>
</g>
<!-- Node8 -->
<g id="node16" class="node"><title>Node8</title>
<a xlink:href="class_urho3_d_1_1_hash_map.html" target="_top" xlink:title="Urho3D::HashMap\&lt; Urho3D\l::String, Urho3D::SharedPtr\l\&lt; Urho3D::AttributeAnimationInfo \&gt; \&gt;">
<polygon fill="none" stroke="red" points="152.5,-342.805 152.5,-389.805 353.5,-389.805 353.5,-342.805 152.5,-342.805"/>
<text text-anchor="start" x="160.5" y="-376.805" font-family="FreeSans" font-size="10.00">Urho3D::HashMap&lt; Urho3D</text>
<text text-anchor="start" x="160.5" y="-363.805" font-family="FreeSans" font-size="10.00">::String, Urho3D::SharedPtr</text>
<text text-anchor="middle" x="253" y="-350.805" font-family="FreeSans" font-size="10.00">&lt; Urho3D::AttributeAnimationInfo &gt; &gt;</text>
</a>
</g>
<!-- Node8&#45;&gt;Node6 -->
<g id="edge18" class="edge"><title>Node8&#45;&gt;Node6</title>
<path fill="none" stroke="#9a32cd" stroke-dasharray="5,2" d="M363.542,-349.331C410.365,-341.061 465.259,-329.932 514,-316.305 531.949,-311.287 551.614,-303.962 566.709,-297.93"/>
<polygon fill="#9a32cd" stroke="#9a32cd" points="362.927,-345.886 353.678,-351.052 364.131,-352.781 362.927,-345.886"/>
<text text-anchor="middle" x="443" y="-351.305" font-family="FreeSans" font-size="10.00"> attributeAnimationInfos_</text>
</g>
<!-- Node9 -->
<g id="node18" class="node"><title>Node9</title>
<a xlink:href="class_urho3_d_1_1_shared_ptr.html" target="_top" xlink:title="Urho3D::SharedPtr\&lt;\l Urho3D::ObjectAnimation \&gt;">
<polygon fill="none" stroke="red" points="176.5,-290.305 176.5,-324.305 329.5,-324.305 329.5,-290.305 176.5,-290.305"/>
<text text-anchor="start" x="184.5" y="-311.305" font-family="FreeSans" font-size="10.00">Urho3D::SharedPtr&lt;</text>
<text text-anchor="middle" x="253" y="-298.305" font-family="FreeSans" font-size="10.00"> Urho3D::ObjectAnimation &gt;</text>
</a>
</g>
<!-- Node9&#45;&gt;Node6 -->
<g id="edge20" class="edge"><title>Node9&#45;&gt;Node6</title>
<path fill="none" stroke="#9a32cd" stroke-dasharray="5,2" d="M339.551,-302.199C400.842,-298.583 481.339,-293.833 534.777,-290.681"/>
<polygon fill="#9a32cd" stroke="#9a32cd" points="339.277,-298.709 329.501,-302.791 339.69,-305.696 339.277,-298.709"/>
<text text-anchor="middle" x="443" y="-303.305" font-family="FreeSans" font-size="10.00"> objectAnimation_</text>
</g>
<!-- Node10 -->
<g id="node20" class="node"><title>Node10</title>
<a xlink:href="class_urho3_d_1_1_hash_set.html" target="_top" xlink:title="Urho3D::HashSet\&lt; const\l Urho3D::AttributeInfo * \&gt;">
<polygon fill="none" stroke="red" points="182.5,-238.305 182.5,-272.305 323.5,-272.305 323.5,-238.305 182.5,-238.305"/>
<text text-anchor="start" x="190.5" y="-259.305" font-family="FreeSans" font-size="10.00">Urho3D::HashSet&lt; const</text>
<text text-anchor="middle" x="253" y="-246.305" font-family="FreeSans" font-size="10.00"> Urho3D::AttributeInfo * &gt;</text>
</a>
</g>
<!-- Node10&#45;&gt;Node6 -->
<g id="edge22" class="edge"><title>Node10&#45;&gt;Node6</title>
<path fill="none" stroke="#9a32cd" stroke-dasharray="5,2" d="M333.615,-259.244C385.29,-262.245 453.734,-267.105 514,-274.305 520.679,-275.103 527.66,-276.072 534.581,-277.117"/>
<polygon fill="#9a32cd" stroke="#9a32cd" points="333.694,-255.743 323.512,-258.668 333.296,-262.732 333.694,-255.743"/>
<text text-anchor="middle" x="443" y="-278.305" font-family="FreeSans" font-size="10.00"> animatedNetworkAttributes_</text>
</g>
<!-- Node11&#45;&gt;Node5 -->
<g id="edge24" class="edge"><title>Node11&#45;&gt;Node5</title>
<path fill="none" stroke="#9a32cd" stroke-dasharray="5,2" d="M857.408,-259.659C860.308,-259.163 863.186,-258.707 866,-258.305 900.2,-253.417 938.764,-250.459 969.684,-248.704"/>
<polygon fill="#9a32cd" stroke="#9a32cd" points="856.734,-256.224 847.529,-261.47 857.996,-263.109 856.734,-256.224"/>
<text text-anchor="middle" x="905" y="-262.305" font-family="FreeSans" font-size="10.00"> node_</text>
</g>
<!-- Node11&#45;&gt;Node11 -->
<g id="edge50" class="edge"><title>Node11&#45;&gt;Node11</title>
<path fill="none" stroke="#9a32cd" stroke-dasharray="5,2" d="M786.94,-291.731C788.333,-296.654 794.353,-300.305 805,-300.305 822.035,-300.305 827.226,-290.958 820.571,-282.013"/>
<polygon fill="#9a32cd" stroke="#9a32cd" points="790.338,-292.568 789.429,-282.013 783.557,-290.832 790.338,-292.568"/>
<text text-anchor="middle" x="805" y="-304.305" font-family="FreeSans" font-size="10.00"> parent_</text>
</g>
<!-- Node14 -->
<g id="node29" class="node"><title>Node14</title>
<a xlink:href="class_urho3_d_1_1_scene.html" target="_top" xlink:title="Root scene node, represents the whole scene.">
<polygon fill="none" stroke="red" points="983.5,-284.805 983.5,-305.805 1072.5,-305.805 1072.5,-284.805 983.5,-284.805"/>
<text text-anchor="middle" x="1028" y="-292.805" font-family="FreeSans" font-size="10.00">Urho3D::Scene</text>
</a>
</g>
<!-- Node11&#45;&gt;Node14 -->
<g id="edge34" class="edge"><title>Node11&#45;&gt;Node14</title>
<path fill="none" stroke="midnightblue" d="M834.298,-286.005C844.123,-290.198 855.304,-294.198 866,-296.305 905.047,-303.996 950.423,-302.879 983.201,-300.342"/>
<polygon fill="midnightblue" stroke="midnightblue" points="835.549,-282.73 824.994,-281.811 832.672,-289.112 835.549,-282.73"/>
</g>
<!-- Node12 -->
<g id="node25" class="node"><title>Node12</title>
<a xlink:href="class_urho3_d_1_1_p_o_d_vector.html" target="_top" xlink:title="Urho3D::PODVector\&lt;\l Urho3D::Node * \&gt;">
<polygon fill="none" stroke="black" points="383.5,-193.305 383.5,-227.305 502.5,-227.305 502.5,-193.305 383.5,-193.305"/>
<text text-anchor="start" x="391.5" y="-214.305" font-family="FreeSans" font-size="10.00">Urho3D::PODVector&lt;</text>
<text text-anchor="middle" x="443" y="-201.305" font-family="FreeSans" font-size="10.00"> Urho3D::Node * &gt;</text>
</a>
</g>
<!-- Node12&#45;&gt;Node11 -->
<g id="edge28" class="edge"><title>Node12&#45;&gt;Node11</title>
<path fill="none" stroke="#9a32cd" stroke-dasharray="5,2" d="M512.928,-222.088C586.832,-234.542 701.013,-253.782 762.429,-264.131"/>
<polygon fill="#9a32cd" stroke="#9a32cd" points="513.22,-218.588 502.777,-220.378 512.056,-225.491 513.22,-218.588"/>
<text text-anchor="middle" x="592" y="-248.305" font-family="FreeSans" font-size="10.00"> dependencyNodes_</text>
</g>
<!-- Node13 -->
<g id="node27" class="node"><title>Node13</title>
<a xlink:href="class_urho3_d_1_1_vector_base.html" target="_top" xlink:title="Vector base class.">
<polygon fill="none" stroke="black" points="0,-74.8048 0,-95.8048 114,-95.8048 114,-74.8048 0,-74.8048"/>
<text text-anchor="middle" x="57" y="-82.8048" font-family="FreeSans" font-size="10.00">Urho3D::VectorBase</text>
</a>
</g>
<!-- Node13&#45;&gt;Node12 -->
<g id="edge30" class="edge"><title>Node13&#45;&gt;Node12</title>
<path fill="none" stroke="midnightblue" d="M67.886,-104.832C83.0656,-129.901 113.154,-172.414 152,-191.305 225.531,-227.064 322.1,-225.267 383.375,-219.067"/>
<polygon fill="midnightblue" stroke="midnightblue" points="70.7129,-102.733 62.6436,-95.8672 64.6702,-106.266 70.7129,-102.733"/>
</g>
<!-- Node18 -->
<g id="node39" class="node"><title>Node18</title>
<a xlink:href="class_urho3_d_1_1_p_o_d_vector.html" target="_top" xlink:title="Urho3D::PODVector\&lt;\l unsigned char \&gt;">
<polygon fill="none" stroke="black" points="193.5,-68.3048 193.5,-102.305 312.5,-102.305 312.5,-68.3048 193.5,-68.3048"/>
<text text-anchor="start" x="201.5" y="-89.3048" font-family="FreeSans" font-size="10.00">Urho3D::PODVector&lt;</text>
<text text-anchor="middle" x="253" y="-76.3048" font-family="FreeSans" font-size="10.00"> unsigned char &gt;</text>
</a>
</g>
<!-- Node13&#45;&gt;Node18 -->
<g id="edge46" class="edge"><title>Node13&#45;&gt;Node18</title>
<path fill="none" stroke="midnightblue" d="M124.329,-85.3048C146.741,-85.3048 171.533,-85.3048 193.324,-85.3048"/>
<polygon fill="midnightblue" stroke="midnightblue" points="124.218,-81.8049 114.218,-85.3048 124.218,-88.8049 124.218,-81.8049"/>
</g>
<!-- Node22 -->
<g id="node54" class="node"><title>Node22</title>
<a xlink:href="class_urho3_d_1_1_p_o_d_vector.html" target="_top" xlink:title="Urho3D::PODVector\&lt;\l Urho3D::Constraint * \&gt;">
<polygon fill="none" stroke="black" points="962.5,-25.3048 962.5,-59.3048 1093.5,-59.3048 1093.5,-25.3048 962.5,-25.3048"/>
<text text-anchor="start" x="970.5" y="-46.3048" font-family="FreeSans" font-size="10.00">Urho3D::PODVector&lt;</text>
<text text-anchor="middle" x="1028" y="-33.3048" font-family="FreeSans" font-size="10.00"> Urho3D::Constraint * &gt;</text>
</a>
</g>
<!-- Node13&#45;&gt;Node22 -->
<g id="edge68" class="edge"><title>Node13&#45;&gt;Node22</title>
<path fill="none" stroke="midnightblue" d="M94.6438,-71.3387C133.678,-58.1262 196.754,-40.3048 253,-40.3048 253,-40.3048 253,-40.3048 805,-40.3048 857.848,-40.3048 917.739,-40.8734 962.137,-41.4043"/>
<polygon fill="midnightblue" stroke="midnightblue" points="93.0821,-68.1754 84.7773,-74.7543 95.3721,-74.7903 93.0821,-68.1754"/>
</g>
<!-- Node14&#45;&gt;Node11 -->
<g id="edge32" class="edge"><title>Node14&#45;&gt;Node11</title>
<path fill="none" stroke="#9a32cd" stroke-dasharray="5,2" d="M973.189,-287.025C963.477,-285.687 953.45,-284.387 944,-283.305 911.754,-279.612 875.181,-276.498 847.646,-274.368"/>
<polygon fill="#9a32cd" stroke="#9a32cd" points="972.768,-290.5 983.158,-288.427 973.743,-283.569 972.768,-290.5"/>
<text text-anchor="middle" x="905" y="-287.305" font-family="FreeSans" font-size="10.00"> scene_</text>
</g>
<!-- Node15 -->
<g id="node33" class="node"><title>Node15</title>
<a xlink:href="class_urho3_d_1_1_vector_buffer.html" target="_top" xlink:title="Dynamically sized buffer that can be read and written to as a stream.">
<polygon fill="none" stroke="black" points="532.5,-129.805 532.5,-150.805 651.5,-150.805 651.5,-129.805 532.5,-129.805"/>
<text text-anchor="middle" x="592" y="-137.805" font-family="FreeSans" font-size="10.00">Urho3D::VectorBuffer</text>
</a>
</g>
<!-- Node15&#45;&gt;Node4 -->
<g id="edge56" class="edge"><title>Node15&#45;&gt;Node4</title>
<path fill="none" stroke="#9a32cd" stroke-dasharray="5,2" d="M651.151,-127.881C693.732,-120.01 752.656,-111.305 805,-111.305 805,-111.305 805,-111.305 1539,-111.305 1564.96,-111.305 1717.03,-153.17 1736,-165.305 1765.87,-184.414 1789.99,-219.894 1800.82,-237.631"/>
<polygon fill="#9a32cd" stroke="#9a32cd" points="650.413,-124.458 641.237,-129.753 651.712,-131.337 650.413,-124.458"/>
<text text-anchor="middle" x="1152" y="-115.305" font-family="FreeSans" font-size="10.00"> attrBuffer_</text>
</g>
<!-- Node15&#45;&gt;Node11 -->
<g id="edge38" class="edge"><title>Node15&#45;&gt;Node11</title>
<path fill="none" stroke="#9a32cd" stroke-dasharray="5,2" d="M641.584,-153.471C684.257,-164.937 739.652,-180.2 744,-183.305 772.591,-203.724 792.214,-241.958 800.527,-260.573"/>
<polygon fill="#9a32cd" stroke="#9a32cd" points="642.439,-150.077 631.873,-150.868 640.626,-156.838 642.439,-150.077"/>
<text text-anchor="middle" x="707" y="-187.305" font-family="FreeSans" font-size="10.00"> attrBuffer_</text>
</g>
<!-- Node15&#45;&gt;Node21 -->
<g id="edge64" class="edge"><title>Node15&#45;&gt;Node21</title>
<path fill="none" stroke="#9a32cd" stroke-dasharray="5,2" d="M661.683,-148.003C798.482,-163.116 1100.04,-196.429 1228.8,-210.654"/>
<polygon fill="#9a32cd" stroke="#9a32cd" points="662.051,-144.522 651.727,-146.903 661.282,-151.48 662.051,-144.522"/>
<text text-anchor="middle" x="905" y="-182.305" font-family="FreeSans" font-size="10.00"> contacts_</text>
</g>
<!-- Node16 -->
<g id="node35" class="node"><title>Node16</title>
<a xlink:href="class_urho3_d_1_1_deserializer.html" target="_top" xlink:title="Abstract stream for reading.">
<polygon fill="none" stroke="black" points="195,-160.805 195,-181.805 311,-181.805 311,-160.805 195,-160.805"/>
<text text-anchor="middle" x="253" y="-168.805" font-family="FreeSans" font-size="10.00">Urho3D::Deserializer</text>
</a>
</g>
<!-- Node16&#45;&gt;Node15 -->
<g id="edge40" class="edge"><title>Node16&#45;&gt;Node15</title>
<path fill="none" stroke="midnightblue" d="M321.333,-166.123C374.017,-161.988 448.673,-155.825 514,-149.305 519.968,-148.709 526.189,-148.052 532.399,-147.373"/>
<polygon fill="midnightblue" stroke="midnightblue" points="320.795,-162.655 311.098,-166.923 321.341,-169.633 320.795,-162.655"/>
</g>
<!-- Node17 -->
<g id="node37" class="node"><title>Node17</title>
<a xlink:href="class_urho3_d_1_1_serializer.html" target="_top" xlink:title="Abstract stream for writing.">
<polygon fill="none" stroke="black" points="201,-120.805 201,-141.805 305,-141.805 305,-120.805 201,-120.805"/>
<text text-anchor="middle" x="253" y="-128.805" font-family="FreeSans" font-size="10.00">Urho3D::Serializer</text>
</a>
</g>
<!-- Node17&#45;&gt;Node15 -->
<g id="edge42" class="edge"><title>Node17&#45;&gt;Node15</title>
<path fill="none" stroke="midnightblue" d="M315.246,-132.957C377.109,-134.6 471.325,-137.101 532.286,-138.719"/>
<polygon fill="midnightblue" stroke="midnightblue" points="315.315,-129.458 305.226,-132.691 315.129,-136.456 315.315,-129.458"/>
</g>
<!-- Node18&#45;&gt;Node15 -->
<g id="edge44" class="edge"><title>Node18&#45;&gt;Node15</title>
<path fill="none" stroke="#9a32cd" stroke-dasharray="5,2" d="M322.817,-90.7163C375.676,-95.5719 449.881,-104.015 514,-117.305 529.483,-120.514 546.348,-125.317 560.423,-129.706"/>
<polygon fill="#9a32cd" stroke="#9a32cd" points="322.812,-87.2019 312.539,-89.7926 322.185,-94.1738 322.812,-87.2019"/>
<text text-anchor="middle" x="443" y="-121.305" font-family="FreeSans" font-size="10.00"> buffer_</text>
</g>
<!-- Node19 -->
<g id="node44" class="node"><title>Node19</title>
<polygon fill="none" stroke="#bfbfbf" points="1496.5,-191.805 1496.5,-212.805 1581.5,-212.805 1581.5,-191.805 1496.5,-191.805"/>
<text text-anchor="middle" x="1539" y="-199.805" font-family="FreeSans" font-size="10.00">btMotionState</text>
</g>
<!-- Node19&#45;&gt;Node4 -->
<g id="edge52" class="edge"><title>Node19&#45;&gt;Node4</title>
<path fill="none" stroke="midnightblue" d="M1591.72,-211.353C1638.58,-219.397 1706.76,-231.1 1753.78,-239.17"/>
<polygon fill="midnightblue" stroke="midnightblue" points="1592.21,-207.887 1581.76,-209.644 1591.03,-214.786 1592.21,-207.887"/>
</g>
<!-- Node20 -->
<g id="node48" class="node"><title>Node20</title>
<a xlink:href="class_urho3_d_1_1_weak_ptr.html" target="_top" xlink:title="Urho3D::WeakPtr\&lt; Urho3D\l::PhysicsWorld \&gt;">
<polygon fill="none" stroke="black" points="1466,-139.305 1466,-173.305 1612,-173.305 1612,-139.305 1466,-139.305"/>
<text text-anchor="start" x="1474" y="-160.305" font-family="FreeSans" font-size="10.00">Urho3D::WeakPtr&lt; Urho3D</text>
<text text-anchor="middle" x="1539" y="-147.305" font-family="FreeSans" font-size="10.00">::PhysicsWorld &gt;</text>
</a>
</g>
<!-- Node20&#45;&gt;Node4 -->
<g id="edge58" class="edge"><title>Node20&#45;&gt;Node4</title>
<path fill="none" stroke="#9a32cd" stroke-dasharray="5,2" d="M1622.06,-168.408C1658.02,-175.38 1700.04,-185.902 1736,-201.305 1758.01,-210.733 1780.6,-227.05 1794.22,-237.761"/>
<polygon fill="#9a32cd" stroke="#9a32cd" points="1622.56,-164.941 1612.08,-166.535 1621.26,-171.821 1622.56,-164.941"/>
<text text-anchor="middle" x="1683" y="-205.305" font-family="FreeSans" font-size="10.00"> physicsWorld_</text>
</g>
<!-- Node21&#45;&gt;Node20 -->
<g id="edge60" class="edge"><title>Node21&#45;&gt;Node20</title>
<path fill="none" stroke="#9a32cd" stroke-dasharray="5,2" d="M1359.4,-222.425C1388.25,-221.718 1421.11,-217.135 1448,-203.305 1458.93,-197.683 1455.87,-189.268 1466,-182.305 1470.88,-178.952 1476.24,-175.983 1481.76,-173.366"/>
<polygon fill="#9a32cd" stroke="#9a32cd" points="1359.34,-218.925 1349.37,-222.522 1359.41,-225.925 1359.34,-218.925"/>
<text text-anchor="middle" x="1417" y="-223.305" font-family="FreeSans" font-size="10.00"> ptr_</text>
</g>
<!-- Node22&#45;&gt;Node4 -->
<g id="edge74" class="edge"><title>Node22&#45;&gt;Node4</title>
<path fill="none" stroke="#9a32cd" stroke-dasharray="5,2" d="M1103.81,-25.3505C1242.82,1.18464 1542.02,36.6606 1736,-97.3048 1785.34,-131.381 1801.31,-209.077 1805.62,-237.572"/>
<polygon fill="#9a32cd" stroke="#9a32cd" points="1102.82,-21.9764 1093.68,-27.323 1104.16,-28.8473 1102.82,-21.9764"/>
<text text-anchor="middle" x="1417" y="-8.3048" font-family="FreeSans" font-size="10.00"> constraints_</text>
</g>
<!-- Node22&#45;&gt;Node21 -->
<g id="edge66" class="edge"><title>Node22&#45;&gt;Node21</title>
<path fill="none" stroke="#9a32cd" stroke-dasharray="5,2" d="M1103.78,-54.0142C1143.59,-60.8717 1185.5,-69.4941 1192,-76.3048 1227.12,-113.091 1177.47,-150.215 1210,-189.305 1216.42,-197.022 1225.12,-202.614 1234.4,-206.664"/>
<polygon fill="#9a32cd" stroke="#9a32cd" points="1104.16,-50.5302 1093.72,-52.311 1102.99,-57.4319 1104.16,-50.5302"/>
<text text-anchor="middle" x="1152" y="-80.3048" font-family="FreeSans" font-size="10.00"> constraints_</text>
</g>
<!-- Node23 -->
<g id="node57" class="node"><title>Node23</title>
<a xlink:href="struct_urho3_d_1_1_ref_count.html" target="_top" xlink:title="Reference count structure.">
<polygon fill="none" stroke="black" points="1238,-158.805 1238,-179.805 1340,-179.805 1340,-158.805 1238,-158.805"/>
<text text-anchor="middle" x="1289" y="-166.805" font-family="FreeSans" font-size="10.00">Urho3D::RefCount</text>
</a>
</g>
<!-- Node23&#45;&gt;Node20 -->
<g id="edge70" class="edge"><title>Node23&#45;&gt;Node20</title>
<path fill="none" stroke="#9a32cd" stroke-dasharray="5,2" d="M1350.38,-158.359C1362.16,-156.67 1374.44,-155.194 1386,-154.305 1413.47,-152.193 1420.45,-154.002 1448,-154.305 1453.85,-154.369 1459.9,-154.456 1465.99,-154.559"/>
<polygon fill="#9a32cd" stroke="#9a32cd" points="1349.55,-154.944 1340.18,-159.888 1350.59,-161.867 1349.55,-154.944"/>
<text text-anchor="middle" x="1417" y="-158.305" font-family="FreeSans" font-size="10.00"> refCount_</text>
</g>
<!-- Node24 -->
<g id="node61" class="node"><title>Node24</title>
<a xlink:href="class_urho3_d_1_1_weak_ptr.html" target="_top" xlink:title="Urho3D::WeakPtr\&lt; Urho3D\l::SmoothedTransform \&gt;">
<polygon fill="none" stroke="black" points="1466,-231.305 1466,-265.305 1612,-265.305 1612,-231.305 1466,-231.305"/>
<text text-anchor="start" x="1474" y="-252.305" font-family="FreeSans" font-size="10.00">Urho3D::WeakPtr&lt; Urho3D</text>
<text text-anchor="middle" x="1539" y="-239.305" font-family="FreeSans" font-size="10.00">::SmoothedTransform &gt;</text>
</a>
</g>
<!-- Node23&#45;&gt;Node24 -->
<g id="edge86" class="edge"><title>Node23&#45;&gt;Node24</title>
<path fill="none" stroke="#9a32cd" stroke-dasharray="5,2" d="M1350.67,-169.906C1388.46,-171.403 1432.47,-175.524 1448,-186.305 1462.69,-196.506 1452.61,-210.447 1466,-222.305 1469.83,-225.694 1474.13,-228.649 1478.68,-231.226"/>
<polygon fill="#9a32cd" stroke="#9a32cd" points="1350.32,-166.392 1340.21,-169.55 1350.08,-173.388 1350.32,-166.392"/>
<text text-anchor="middle" x="1417" y="-190.305" font-family="FreeSans" font-size="10.00"> refCount_</text>
</g>
<!-- Node24&#45;&gt;Node4 -->
<g id="edge76" class="edge"><title>Node24&#45;&gt;Node4</title>
<path fill="none" stroke="#9a32cd" stroke-dasharray="5,2" d="M1622.38,-248.305C1665.29,-248.305 1716.31,-248.305 1753.83,-248.305"/>
<polygon fill="#9a32cd" stroke="#9a32cd" points="1622.23,-244.805 1612.23,-248.305 1622.23,-251.805 1622.23,-244.805"/>
<text text-anchor="middle" x="1683" y="-252.305" font-family="FreeSans" font-size="10.00"> smoothedTransform_</text>
</g>
<!-- Node25&#45;&gt;Node24 -->
<g id="edge78" class="edge"><title>Node25&#45;&gt;Node24</title>
<path fill="none" stroke="#9a32cd" stroke-dasharray="5,2" d="M1329.12,-321.345C1372.9,-306.108 1443.02,-281.707 1490.02,-265.351"/>
<polygon fill="#9a32cd" stroke="#9a32cd" points="1327.95,-318.045 1319.65,-324.637 1330.25,-324.656 1327.95,-318.045"/>
<text text-anchor="middle" x="1417" y="-303.305" font-family="FreeSans" font-size="10.00"> ptr_</text>
</g>
</g>
</svg>
        <g id="navigator" transform="translate(0 0)" fill="#404254">
                <rect fill="#f2f5e9" fill-opacity="0.5" stroke="#606060" stroke-width=".5" x="0" y="0" width="60" height="60"/>
                <use id="zoomplus" xlink:href="#zoomPlus" x="17" y="9" onmousedown="handleZoom(evt,'in')"/>
                <use id="zoomminus" xlink:href="#zoomMin" x="42" y="9" onmousedown="handleZoom(evt,'out')"/>
                <use id="reset" xlink:href="#resetDef" x="30" y="36" onmousedown="handleReset()"/>
                <g id="arrowUp" xlink:href="#dirArrow" transform="translate(30 24)" onmousedown="handlePan(0,-1)">
                  <use xlink:href="#rim" fill="#404040">
                        <set attributeName="fill" to="#808080" begin="arrowUp.mouseover" end="arrowUp.mouseout"/>
                  </use>
                  <path fill="none" stroke="white" stroke-width="1.5" d="M0,-3.0v7 M-2.5,-0.5L0,-3.0L2.5,-0.5"/>
                </g>
                <g id="arrowRight" xlink:href="#dirArrow" transform="rotate(90) translate(36 -43)" onmousedown="handlePan(1,0)">
                  <use xlink:href="#rim" fill="#404040">
                        <set attributeName="fill" to="#808080" begin="arrowRight.mouseover" end="arrowRight.mouseout"/>
                  </use>
                  <path fill="none" stroke="white" stroke-width="1.5" d="M0,-3.0v7 M-2.5,-0.5L0,-3.0L2.5,-0.5"/>
                </g>
                <g id="arrowDown" xlink:href="#dirArrow" transform="rotate(180) translate(-30 -48)" onmousedown="handlePan(0,1)">
                  <use xlink:href="#rim" fill="#404040">
                        <set attributeName="fill" to="#808080" begin="arrowDown.mouseover" end="arrowDown.mouseout"/>
                  </use>
                  <path fill="none" stroke="white" stroke-width="1.5" d="M0,-3.0v7 M-2.5,-0.5L0,-3.0L2.5,-0.5"/>
                </g>
                <g id="arrowLeft" xlink:href="#dirArrow" transform="rotate(270) translate(-36 17)" onmousedown="handlePan(-1,0)">
                  <use xlink:href="#rim" fill="#404040">
                        <set attributeName="fill" to="#808080" begin="arrowLeft.mouseover" end="arrowLeft.mouseout"/>
                  </use>
                  <path fill="none" stroke="white" stroke-width="1.5" d="M0,-3.0v7 M-2.5,-0.5L0,-3.0L2.5,-0.5"/>
                </g>
        </g>
        <svg viewBox="0 0 15 15" width="100%" height="30px" preserveAspectRatio="xMaxYMin meet">
         <g id="arrow_out" transform="scale(0.3 0.3)">
          <a xlink:href="struct_urho3_d_1_1_delayed_world_transform__coll__graph_org.svg" target="_base">
           <rect id="button" ry="5" rx="5" y="6" x="6" height="38" width="38"
                fill="#f2f5e9" fill-opacity="0.5" stroke="#606060" stroke-width="1.0"/>
           <path id="arrow"
             d="M 11.500037,31.436501 C 11.940474,20.09759 22.043105,11.32322 32.158766,21.979434 L 37.068811,17.246167 C 37.068811,17.246167 37.088388,32 37.088388,32 L 22.160133,31.978069 C 22.160133,31.978069 26.997745,27.140456 26.997745,27.140456 C 18.528582,18.264221 13.291696,25.230495 11.500037,31.436501 z"
             style="fill:#404040;"/>
          </a>
         </g>
        </svg>
</svg>
