<?xml version="1.0" encoding="UTF-8" standalone="no"?>
<!DOCTYPE svg PUBLIC "-//W3C//DTD SVG 1.1//EN"
 "http://www.w3.org/Graphics/SVG/1.1/DTD/svg11.dtd">
<!-- Generated by graphviz version 2.26.3 (20100126.1600)
 -->
<!-- Title: Urho3D::Spriter::File Pages: 1 -->
<svg width="300pt" height="248pt"
 viewBox="0.00 0.00 300.00 248.00" xmlns="http://www.w3.org/2000/svg" xmlns:xlink="http://www.w3.org/1999/xlink">
<g id="graph1" class="graph" transform="scale(1 1) rotate(0) translate(4 244)">
<title>Urho3D::Spriter::File</title>
<!-- Node1 -->
<g id="node1" class="node"><title>Node1</title>
<polygon fill="#bfbfbf" stroke="black" points="113.5,-0.5 113.5,-21.5 226.5,-21.5 226.5,-0.5 113.5,-0.5"/>
<text text-anchor="middle" x="170" y="-8.5" font-family="FreeSans" font-size="10.00">Urho3D::Spriter::File</text>
</g>
<!-- Node2 -->
<g id="node2" class="node"><title>Node2</title>
<a xlink:href="struct_urho3_d_1_1_spriter_1_1_folder.html" target="_top" xlink:title="Folder.">
<polygon fill="none" stroke="black" points="33.5,-72.5 33.5,-93.5 160.5,-93.5 160.5,-72.5 33.5,-72.5"/>
<text text-anchor="middle" x="97" y="-80.5" font-family="FreeSans" font-size="10.00">Urho3D::Spriter::Folder</text>
</a>
</g>
<!-- Node2&#45;&gt;Node1 -->
<g id="edge2" class="edge"><title>Node2&#45;&gt;Node1</title>
<path fill="none" stroke="#9a32cd" stroke-dasharray="5,2" d="M114.896,-65.3488C128.764,-51.6714 147.521,-33.1709 159.184,-21.6674"/>
<polygon fill="#9a32cd" stroke="#9a32cd" points="112.433,-62.8621 107.771,-72.3762 117.349,-67.8459 112.433,-62.8621"/>
<text text-anchor="middle" x="159" y="-44.5" font-family="FreeSans" font-size="10.00"> folder_</text>
</g>
<!-- Node3 -->
<g id="node4" class="node"><title>Node3</title>
<a xlink:href="class_urho3_d_1_1_p_o_d_vector.html" target="_top" xlink:title="Urho3D::PODVector\&lt;\l Urho3D::Spriter::File * \&gt;">
<polygon fill="none" stroke="black" points="-0.5,-145 -0.5,-179 134.5,-179 134.5,-145 -0.5,-145"/>
<text text-anchor="start" x="7.5" y="-166" font-family="FreeSans" font-size="10.00">Urho3D::PODVector&lt;</text>
<text text-anchor="middle" x="67" y="-153" font-family="FreeSans" font-size="10.00"> Urho3D::Spriter::File * &gt;</text>
</a>
</g>
<!-- Node3&#45;&gt;Node2 -->
<g id="edge4" class="edge"><title>Node3&#45;&gt;Node2</title>
<path fill="none" stroke="#9a32cd" stroke-dasharray="5,2" d="M73.3905,-134.791C75.4821,-127.287 78.0414,-119.227 81,-112 83.5708,-105.721 87.171,-99.0687 90.3055,-93.7217"/>
<polygon fill="#9a32cd" stroke="#9a32cd" points="69.9835,-133.985 70.8349,-144.546 76.755,-135.759 69.9835,-133.985"/>
<text text-anchor="middle" x="95" y="-116.5" font-family="FreeSans" font-size="10.00"> files_</text>
</g>
<!-- Node4 -->
<g id="node6" class="node"><title>Node4</title>
<a xlink:href="class_urho3_d_1_1_vector_base.html" target="_top" xlink:title="Vector base class.">
<polygon fill="none" stroke="black" points="10,-218.5 10,-239.5 124,-239.5 124,-218.5 10,-218.5"/>
<text text-anchor="middle" x="67" y="-226.5" font-family="FreeSans" font-size="10.00">Urho3D::VectorBase</text>
</a>
</g>
<!-- Node4&#45;&gt;Node3 -->
<g id="edge6" class="edge"><title>Node4&#45;&gt;Node3</title>
<path fill="none" stroke="midnightblue" d="M67,-208.165C67,-198.797 67,-187.88 67,-179.014"/>
<polygon fill="midnightblue" stroke="midnightblue" points="63.5001,-208.235 67,-218.235 70.5001,-208.235 63.5001,-208.235"/>
</g>
<!-- Node5 -->
<g id="node8" class="node"><title>Node5</title>
<a xlink:href="class_urho3_d_1_1_string.html" target="_top" xlink:title="String class.">
<polygon fill="none" stroke="black" points="152,-151.5 152,-172.5 240,-172.5 240,-151.5 152,-151.5"/>
<text text-anchor="middle" x="196" y="-159.5" font-family="FreeSans" font-size="10.00">Urho3D::String</text>
</a>
</g>
<!-- Node5&#45;&gt;Node1 -->
<g id="edge12" class="edge"><title>Node5&#45;&gt;Node1</title>
<path fill="none" stroke="#9a32cd" stroke-dasharray="5,2" d="M194.962,-141.149C193.392,-116.637 189.624,-74.8732 181,-40 179.449,-33.7273 176.935,-26.9632 174.702,-21.5466"/>
<polygon fill="#9a32cd" stroke="#9a32cd" points="191.483,-141.619 195.553,-151.401 198.471,-141.216 191.483,-141.619"/>
<text text-anchor="middle" x="208.5" y="-80.5" font-family="FreeSans" font-size="10.00"> name_</text>
</g>
<!-- Node5&#45;&gt;Node2 -->
<g id="edge8" class="edge"><title>Node5&#45;&gt;Node2</title>
<path fill="none" stroke="#9a32cd" stroke-dasharray="5,2" d="M171.569,-145.612C163.009,-139.646 153.431,-132.715 145,-126 131.873,-115.544 117.649,-102.579 108.121,-93.6339"/>
<polygon fill="#9a32cd" stroke="#9a32cd" points="169.808,-148.648 180.032,-151.429 173.774,-142.88 169.808,-148.648"/>
<text text-anchor="middle" x="163.5" y="-116.5" font-family="FreeSans" font-size="10.00"> name_</text>
</g>
<!-- Node5&#45;&gt;Node5 -->
<g id="edge10" class="edge"><title>Node5&#45;&gt;Node5</title>
<path fill="none" stroke="#9a32cd" stroke-dasharray="5,2" d="M250.258,-167.304C255.019,-166.185 258,-164.417 258,-162 258,-158.133 250.369,-155.927 240.024,-155.383"/>
<polygon fill="#9a32cd" stroke="#9a32cd" points="249.498,-163.872 240.024,-168.617 250.389,-170.816 249.498,-163.872"/>
<text text-anchor="middle" x="275" y="-159.5" font-family="FreeSans" font-size="10.00"> EMPTY</text>
</g>
</g>
</svg>
