<?xml version="1.0" encoding="UTF-8" standalone="no"?>
<!DOCTYPE svg PUBLIC "-//W3C//DTD SVG 1.1//EN"
 "http://www.w3.org/Graphics/SVG/1.1/DTD/svg11.dtd">
<!-- Generated by graphviz version 2.26.3 (20100126.1600)
 -->
<!-- Title: Urho3D::AttributeInfo Pages: 1 -->
<svg width="1394pt" height="481pt"
 viewBox="0.00 0.00 1394.00 481.00" xmlns="http://www.w3.org/2000/svg" xmlns:xlink="http://www.w3.org/1999/xlink">
<g id="graph1" class="graph" transform="scale(1 1) rotate(0) translate(4 477)">
<title>Urho3D::AttributeInfo</title>
<!-- Node1 -->
<g id="node1" class="node"><title>Node1</title>
<polygon fill="#bfbfbf" stroke="black" points="1266.5,-51.5 1266.5,-72.5 1385.5,-72.5 1385.5,-51.5 1266.5,-51.5"/>
<text text-anchor="middle" x="1326" y="-59.5" font-family="FreeSans" font-size="10.00">Urho3D::AttributeInfo</text>
</g>
<!-- Node2 -->
<g id="node2" class="node"><title>Node2</title>
<a xlink:href="class_urho3_d_1_1_variant.html" target="_top" xlink:title="Variable that supports a fixed set of types.">
<polygon fill="none" stroke="black" points="1035.5,-212.5 1035.5,-233.5 1128.5,-233.5 1128.5,-212.5 1035.5,-212.5"/>
<text text-anchor="middle" x="1082" y="-220.5" font-family="FreeSans" font-size="10.00">Urho3D::Variant</text>
</a>
</g>
<!-- Node2&#45;&gt;Node1 -->
<g id="edge2" class="edge"><title>Node2&#45;&gt;Node1</title>
<path fill="none" stroke="#9a32cd" stroke-dasharray="5,2" d="M1106.57,-206.791C1156.41,-173.899 1268.24,-100.109 1309.93,-72.6026"/>
<polygon fill="#9a32cd" stroke="#9a32cd" points="1104.43,-204.007 1098.01,-212.436 1108.28,-209.85 1104.43,-204.007"/>
<text text-anchor="middle" x="1214" y="-160" font-family="FreeSans" font-size="10.00"> defaultValue_</text>
</g>
<!-- Node2&#45;&gt;Node2 -->
<g id="edge12" class="edge"><title>Node2&#45;&gt;Node2</title>
<path fill="none" stroke="#9a32cd" stroke-dasharray="5,2" d="M1057.67,-243.427C1059.55,-248.349 1067.66,-252 1082,-252 1104.95,-252 1111.94,-242.653 1102.97,-233.708"/>
<polygon fill="#9a32cd" stroke="#9a32cd" points="1061.07,-244.303 1061.03,-233.708 1054.46,-242.02 1061.07,-244.303"/>
<text text-anchor="middle" x="1082" y="-256" font-family="FreeSans" font-size="10.00"> EMPTY</text>
</g>
<!-- Node3 -->
<g id="node4" class="node"><title>Node3</title>
<a xlink:href="class_urho3_d_1_1_vector.html" target="_top" xlink:title="Vector template class.">
<polygon fill="none" stroke="black" points="573,-266.5 573,-287.5 691,-287.5 691,-266.5 573,-266.5"/>
<text text-anchor="middle" x="632" y="-274.5" font-family="FreeSans" font-size="10.00">Urho3D::Vector&lt; T &gt;</text>
</a>
</g>
<!-- Node3&#45;&gt;Node2 -->
<g id="edge4" class="edge"><title>Node3&#45;&gt;Node2</title>
<path fill="none" stroke="#9a32cd" stroke-dasharray="5,2" d="M701.24,-272.016C772.393,-266.448 886.265,-256.302 984,-242 1000.81,-239.541 1019.11,-236.18 1035.29,-232.968"/>
<polygon fill="#9a32cd" stroke="#9a32cd" points="700.759,-268.542 691.059,-272.804 701.3,-275.521 700.759,-268.542"/>
<text text-anchor="middle" x="783" y="-288" font-family="FreeSans" font-size="10.00"> emptyStringVector</text>
<text text-anchor="middle" x="783" y="-275" font-family="FreeSans" font-size="10.00">emptyVariantVector</text>
</g>
<!-- Node4 -->
<g id="node6" class="node"><title>Node4</title>
<a xlink:href="class_urho3_d_1_1_vector_base.html" target="_top" xlink:title="Vector base class.">
<polygon fill="none" stroke="black" points="202,-231.5 202,-252.5 316,-252.5 316,-231.5 202,-231.5"/>
<text text-anchor="middle" x="259" y="-239.5" font-family="FreeSans" font-size="10.00">Urho3D::VectorBase</text>
</a>
</g>
<!-- Node4&#45;&gt;Node3 -->
<g id="edge6" class="edge"><title>Node4&#45;&gt;Node3</title>
<path fill="none" stroke="midnightblue" d="M326.178,-252.754C332.197,-253.572 338.204,-254.336 344,-255 422.965,-264.041 514.55,-270.32 572.857,-273.792"/>
<polygon fill="midnightblue" stroke="midnightblue" points="326.463,-249.26 316.073,-251.334 325.489,-256.192 326.463,-249.26"/>
</g>
<!-- Node5 -->
<g id="node8" class="node"><title>Node5</title>
<a xlink:href="class_urho3_d_1_1_p_o_d_vector.html" target="_top" xlink:title="Urho3D::PODVector\&lt;\l unsigned char \&gt;">
<polygon fill="none" stroke="black" points="572.5,-223 572.5,-257 691.5,-257 691.5,-223 572.5,-223"/>
<text text-anchor="start" x="580.5" y="-244" font-family="FreeSans" font-size="10.00">Urho3D::PODVector&lt;</text>
<text text-anchor="middle" x="632" y="-231" font-family="FreeSans" font-size="10.00"> unsigned char &gt;</text>
</a>
</g>
<!-- Node4&#45;&gt;Node5 -->
<g id="edge10" class="edge"><title>Node4&#45;&gt;Node5</title>
<path fill="none" stroke="midnightblue" d="M326.116,-241.64C396.27,-241.264 505.304,-240.679 572.481,-240.319"/>
<polygon fill="midnightblue" stroke="midnightblue" points="326.038,-238.14 316.057,-241.694 326.075,-245.14 326.038,-238.14"/>
</g>
<!-- Node10 -->
<g id="node23" class="node"><title>Node10</title>
<a xlink:href="class_urho3_d_1_1_vector.html" target="_top" xlink:title="Urho3D::Vector\&lt; String \&gt;">
<polygon fill="none" stroke="black" points="412.5,-192.5 412.5,-213.5 553.5,-213.5 553.5,-192.5 412.5,-192.5"/>
<text text-anchor="middle" x="483" y="-200.5" font-family="FreeSans" font-size="10.00">Urho3D::Vector&lt; String &gt;</text>
</a>
</g>
<!-- Node4&#45;&gt;Node10 -->
<g id="edge30" class="edge"><title>Node4&#45;&gt;Node10</title>
<path fill="none" stroke="midnightblue" d="M326.255,-230.29C356.836,-224.966 392.745,-218.714 422.471,-213.539"/>
<polygon fill="midnightblue" stroke="midnightblue" points="325.356,-226.894 316.104,-232.058 326.556,-233.791 325.356,-226.894"/>
</g>
<!-- Node5&#45;&gt;Node2 -->
<g id="edge8" class="edge"><title>Node5&#45;&gt;Node2</title>
<path fill="none" stroke="#9a32cd" stroke-dasharray="5,2" d="M701.767,-237.314C704.548,-237.208 707.3,-237.103 710,-237 827.055,-232.546 964.833,-227.381 1035.31,-224.745"/>
<polygon fill="#9a32cd" stroke="#9a32cd" points="701.48,-233.822 691.621,-237.702 701.747,-240.817 701.48,-233.822"/>
<text text-anchor="middle" x="783" y="-241" font-family="FreeSans" font-size="10.00"> emptyBuffer</text>
</g>
<!-- Node6 -->
<g id="node12" class="node"><title>Node6</title>
<a xlink:href="struct_urho3_d_1_1_resource_ref.html" target="_top" xlink:title="Typed resource reference.">
<polygon fill="none" stroke="black" points="724.5,-120.5 724.5,-141.5 841.5,-141.5 841.5,-120.5 724.5,-120.5"/>
<text text-anchor="middle" x="783" y="-128.5" font-family="FreeSans" font-size="10.00">Urho3D::ResourceRef</text>
</a>
</g>
<!-- Node6&#45;&gt;Node2 -->
<g id="edge14" class="edge"><title>Node6&#45;&gt;Node2</title>
<path fill="none" stroke="#9a32cd" stroke-dasharray="5,2" d="M851.758,-135.798C891.369,-140.147 941.559,-148.396 984,-164 1016.43,-175.924 1050.05,-198.896 1068.26,-212.388"/>
<polygon fill="#9a32cd" stroke="#9a32cd" points="851.975,-132.302 841.667,-134.749 851.251,-139.265 851.975,-132.302"/>
<text text-anchor="middle" x="929" y="-168" font-family="FreeSans" font-size="10.00"> emptyResourceRef</text>
</g>
<!-- Node7 -->
<g id="node14" class="node"><title>Node7</title>
<a xlink:href="class_urho3_d_1_1_string.html" target="_top" xlink:title="String class.">
<polygon fill="none" stroke="black" points="439,-50.5 439,-71.5 527,-71.5 527,-50.5 439,-50.5"/>
<text text-anchor="middle" x="483" y="-58.5" font-family="FreeSans" font-size="10.00">Urho3D::String</text>
</a>
</g>
<!-- Node7&#45;&gt;Node1 -->
<g id="edge58" class="edge"><title>Node7&#45;&gt;Node1</title>
<path fill="none" stroke="#9a32cd" stroke-dasharray="5,2" d="M537.51,-61.0647C688.191,-61.2434 1109.54,-61.7432 1266.27,-61.9292"/>
<polygon fill="#9a32cd" stroke="#9a32cd" points="537.141,-57.5643 527.136,-61.0524 537.132,-64.5643 537.141,-57.5643"/>
<text text-anchor="middle" x="929" y="-66" font-family="FreeSans" font-size="10.00"> name_</text>
</g>
<!-- Node7&#45;&gt;Node6 -->
<g id="edge16" class="edge"><title>Node7&#45;&gt;Node6</title>
<path fill="none" stroke="#9a32cd" stroke-dasharray="5,2" d="M537.224,-73.6524C594.516,-87.0203 683.848,-107.865 737.569,-120.399"/>
<polygon fill="#9a32cd" stroke="#9a32cd" points="537.8,-70.1927 527.266,-71.3287 536.209,-77.0096 537.8,-70.1927"/>
<text text-anchor="middle" x="632" y="-112" font-family="FreeSans" font-size="10.00"> name_</text>
</g>
<!-- Node7&#45;&gt;Node7 -->
<g id="edge18" class="edge"><title>Node7&#45;&gt;Node7</title>
<path fill="none" stroke="#9a32cd" stroke-dasharray="5,2" d="M461.991,-81.4266C463.612,-86.3489 470.615,-90 483,-90 502.816,-90 508.854,-80.6531 501.113,-71.7079"/>
<polygon fill="#9a32cd" stroke="#9a32cd" points="465.385,-82.2909 464.887,-71.7079 458.677,-80.2922 465.385,-82.2909"/>
<text text-anchor="middle" x="483" y="-94" font-family="FreeSans" font-size="10.00"> EMPTY</text>
</g>
<!-- Node8 -->
<g id="node17" class="node"><title>Node8</title>
<a xlink:href="class_urho3_d_1_1_string_hash.html" target="_top" xlink:title="32&#45;bit hash value for a string.">
<polygon fill="none" stroke="black" points="426.5,-121.5 426.5,-142.5 539.5,-142.5 539.5,-121.5 426.5,-121.5"/>
<text text-anchor="middle" x="483" y="-129.5" font-family="FreeSans" font-size="10.00">Urho3D::StringHash</text>
</a>
</g>
<!-- Node8&#45;&gt;Node6 -->
<g id="edge20" class="edge"><title>Node8&#45;&gt;Node6</title>
<path fill="none" stroke="#9a32cd" stroke-dasharray="5,2" d="M549.973,-131.777C602.311,-131.602 674.336,-131.362 724.404,-131.195"/>
<polygon fill="#9a32cd" stroke="#9a32cd" points="549.769,-128.277 539.78,-131.811 549.792,-135.277 549.769,-128.277"/>
<text text-anchor="middle" x="632" y="-135" font-family="FreeSans" font-size="10.00"> type_</text>
</g>
<!-- Node8&#45;&gt;Node8 -->
<g id="edge22" class="edge"><title>Node8&#45;&gt;Node8</title>
<path fill="none" stroke="#9a32cd" stroke-dasharray="5,2" d="M461.991,-152.427C463.612,-157.349 470.615,-161 483,-161 502.816,-161 508.854,-151.653 501.113,-142.708"/>
<polygon fill="#9a32cd" stroke="#9a32cd" points="465.385,-153.291 464.887,-142.708 458.677,-151.292 465.385,-153.291"/>
<text text-anchor="middle" x="483" y="-165" font-family="FreeSans" font-size="10.00"> ZERO</text>
</g>
<!-- Node9 -->
<g id="node20" class="node"><title>Node9</title>
<a xlink:href="struct_urho3_d_1_1_resource_ref_list.html" target="_top" xlink:title="List of typed resource references.">
<polygon fill="none" stroke="black" points="716,-165.5 716,-186.5 850,-186.5 850,-165.5 716,-165.5"/>
<text text-anchor="middle" x="783" y="-173.5" font-family="FreeSans" font-size="10.00">Urho3D::ResourceRefList</text>
</a>
</g>
<!-- Node8&#45;&gt;Node9 -->
<g id="edge26" class="edge"><title>Node8&#45;&gt;Node9</title>
<path fill="none" stroke="#9a32cd" stroke-dasharray="5,2" d="M549.745,-141.789C599.232,-149.047 666.414,-158.901 715.97,-166.169"/>
<polygon fill="#9a32cd" stroke="#9a32cd" points="550.182,-138.316 539.78,-140.328 549.167,-145.242 550.182,-138.316"/>
<text text-anchor="middle" x="632" y="-165" font-family="FreeSans" font-size="10.00"> type_</text>
</g>
<!-- Node9&#45;&gt;Node2 -->
<g id="edge24" class="edge"><title>Node9&#45;&gt;Node2</title>
<path fill="none" stroke="#9a32cd" stroke-dasharray="5,2" d="M860.747,-180.646C898.212,-183.67 943.663,-188.493 984,-196 1006.03,-200.101 1030.33,-206.778 1049.21,-212.466"/>
<polygon fill="#9a32cd" stroke="#9a32cd" points="860.645,-177.128 850.403,-179.84 860.101,-184.106 860.645,-177.128"/>
<text text-anchor="middle" x="929" y="-200" font-family="FreeSans" font-size="10.00"> emptyResourceRefList</text>
</g>
<!-- Node10&#45;&gt;Node9 -->
<g id="edge28" class="edge"><title>Node10&#45;&gt;Node9</title>
<path fill="none" stroke="#9a32cd" stroke-dasharray="5,2" d="M563.683,-195.739C611.283,-191.455 670.822,-186.096 715.849,-182.044"/>
<polygon fill="#9a32cd" stroke="#9a32cd" points="563.362,-192.253 553.716,-196.636 563.989,-199.225 563.362,-192.253"/>
<text text-anchor="middle" x="632" y="-198" font-family="FreeSans" font-size="10.00"> names_</text>
</g>
<!-- Node11 -->
<g id="node26" class="node"><title>Node11</title>
<a xlink:href="class_urho3_d_1_1_hash_map.html" target="_top" xlink:title="Hash map template class.">
<polygon fill="none" stroke="black" points="710,-356.5 710,-377.5 856,-377.5 856,-356.5 710,-356.5"/>
<text text-anchor="middle" x="783" y="-364.5" font-family="FreeSans" font-size="10.00">Urho3D::HashMap&lt; T, U &gt;</text>
</a>
</g>
<!-- Node11&#45;&gt;Node2 -->
<g id="edge32" class="edge"><title>Node11&#45;&gt;Node2</title>
<path fill="none" stroke="#9a32cd" stroke-dasharray="5,2" d="M866.12,-364.814C904.021,-360.822 948.296,-351.758 984,-332 1027.86,-307.726 1062.25,-256.264 1075.77,-233.832"/>
<polygon fill="#9a32cd" stroke="#9a32cd" points="865.745,-361.334 856.122,-365.767 866.409,-368.302 865.745,-361.334"/>
<text text-anchor="middle" x="929" y="-367" font-family="FreeSans" font-size="10.00"> emptyVariantMap</text>
</g>
<!-- Node12 -->
<g id="node28" class="node"><title>Node12</title>
<a xlink:href="class_urho3_d_1_1_hash_base.html" target="_top" xlink:title="Hash set/map base class.">
<polygon fill="none" stroke="black" points="429,-356.5 429,-377.5 537,-377.5 537,-356.5 429,-356.5"/>
<text text-anchor="middle" x="483" y="-364.5" font-family="FreeSans" font-size="10.00">Urho3D::HashBase</text>
</a>
</g>
<!-- Node12&#45;&gt;Node11 -->
<g id="edge34" class="edge"><title>Node12&#45;&gt;Node11</title>
<path fill="none" stroke="midnightblue" d="M547.537,-367C595.243,-367 660.258,-367 709.885,-367"/>
<polygon fill="midnightblue" stroke="midnightblue" points="547.328,-363.5 537.328,-367 547.328,-370.5 547.328,-363.5"/>
</g>
<!-- Node13 -->
<g id="node30" class="node"><title>Node13</title>
<a xlink:href="struct_urho3_d_1_1_hash_node_base.html" target="_top" xlink:title="Hash set/map node base class.">
<polygon fill="none" stroke="black" points="192,-394.5 192,-415.5 326,-415.5 326,-394.5 192,-394.5"/>
<text text-anchor="middle" x="259" y="-402.5" font-family="FreeSans" font-size="10.00">Urho3D::HashNodeBase</text>
</a>
</g>
<!-- Node13&#45;&gt;Node12 -->
<g id="edge36" class="edge"><title>Node13&#45;&gt;Node12</title>
<path fill="none" stroke="#9a32cd" stroke-dasharray="5,2" d="M331.202,-392.751C362.895,-387.375 399.476,-381.169 428.785,-376.197"/>
<polygon fill="#9a32cd" stroke="#9a32cd" points="330.373,-389.342 321.099,-394.465 331.544,-396.243 330.373,-389.342"/>
<text text-anchor="middle" x="369" y="-420" font-family="FreeSans" font-size="10.00"> ptrs_</text>
<text text-anchor="middle" x="369" y="-407" font-family="FreeSans" font-size="10.00">tail_</text>
<text text-anchor="middle" x="369" y="-394" font-family="FreeSans" font-size="10.00">head_</text>
</g>
<!-- Node13&#45;&gt;Node13 -->
<g id="edge38" class="edge"><title>Node13&#45;&gt;Node13</title>
<path fill="none" stroke="#9a32cd" stroke-dasharray="5,2" d="M240.94,-425.427C242.333,-430.349 248.353,-434 259,-434 276.035,-434 281.226,-424.653 274.571,-415.708"/>
<polygon fill="#9a32cd" stroke="#9a32cd" points="244.338,-426.264 243.429,-415.708 237.557,-424.527 244.338,-426.264"/>
<text text-anchor="middle" x="259" y="-464" font-family="FreeSans" font-size="10.00"> next_</text>
<text text-anchor="middle" x="259" y="-451" font-family="FreeSans" font-size="10.00">prev_</text>
<text text-anchor="middle" x="259" y="-438" font-family="FreeSans" font-size="10.00">down_</text>
</g>
<!-- Node14 -->
<g id="node33" class="node"><title>Node14</title>
<a xlink:href="struct_urho3_d_1_1_allocator_block.html" target="_top" xlink:title="Allocator memory block.">
<polygon fill="none" stroke="black" points="195.5,-323.5 195.5,-344.5 322.5,-344.5 322.5,-323.5 195.5,-323.5"/>
<text text-anchor="middle" x="259" y="-331.5" font-family="FreeSans" font-size="10.00">Urho3D::AllocatorBlock</text>
</a>
</g>
<!-- Node14&#45;&gt;Node12 -->
<g id="edge40" class="edge"><title>Node14&#45;&gt;Node12</title>
<path fill="none" stroke="#9a32cd" stroke-dasharray="5,2" d="M332.515,-344.126C352.473,-346.935 374.074,-350.031 394,-353 405.294,-354.683 417.383,-356.544 428.897,-358.346"/>
<polygon fill="#9a32cd" stroke="#9a32cd" points="332.945,-340.652 322.556,-342.729 331.973,-347.585 332.945,-340.652"/>
<text text-anchor="middle" x="369" y="-357" font-family="FreeSans" font-size="10.00"> allocator_</text>
</g>
<!-- Node14&#45;&gt;Node14 -->
<g id="edge42" class="edge"><title>Node14&#45;&gt;Node14</title>
<path fill="none" stroke="#9a32cd" stroke-dasharray="5,2" d="M240.94,-354.427C242.333,-359.349 248.353,-363 259,-363 276.035,-363 281.226,-353.653 274.571,-344.708"/>
<polygon fill="#9a32cd" stroke="#9a32cd" points="244.338,-355.264 243.429,-344.708 237.557,-353.527 244.338,-355.264"/>
<text text-anchor="middle" x="259" y="-367" font-family="FreeSans" font-size="10.00"> next_</text>
</g>
<!-- Node15 -->
<g id="node36" class="node"><title>Node15</title>
<a xlink:href="struct_urho3_d_1_1_allocator_node.html" target="_top" xlink:title="Allocator node.">
<polygon fill="none" stroke="black" points="0.5,-323.5 0.5,-344.5 127.5,-344.5 127.5,-323.5 0.5,-323.5"/>
<text text-anchor="middle" x="64" y="-331.5" font-family="FreeSans" font-size="10.00">Urho3D::AllocatorNode</text>
</a>
</g>
<!-- Node15&#45;&gt;Node14 -->
<g id="edge44" class="edge"><title>Node15&#45;&gt;Node14</title>
<path fill="none" stroke="#9a32cd" stroke-dasharray="5,2" d="M137.645,-334C156.576,-334 176.785,-334 195.172,-334"/>
<polygon fill="#9a32cd" stroke="#9a32cd" points="137.581,-330.5 127.58,-334 137.58,-337.5 137.581,-330.5"/>
<text text-anchor="middle" x="160" y="-338" font-family="FreeSans" font-size="10.00"> free_</text>
</g>
<!-- Node15&#45;&gt;Node15 -->
<g id="edge46" class="edge"><title>Node15&#45;&gt;Node15</title>
<path fill="none" stroke="#9a32cd" stroke-dasharray="5,2" d="M46.3082,-354.427C47.6731,-359.349 53.5703,-363 64,-363 80.6875,-363 85.772,-353.653 79.2534,-344.708"/>
<polygon fill="#9a32cd" stroke="#9a32cd" points="49.7078,-355.259 48.7466,-344.708 42.9182,-353.556 49.7078,-355.259"/>
<text text-anchor="middle" x="64" y="-367" font-family="FreeSans" font-size="10.00"> next_</text>
</g>
<!-- Node16 -->
<g id="node39" class="node"><title>Node16</title>
<a xlink:href="struct_urho3_d_1_1_variant_value.html" target="_top" xlink:title="Union for the possible variant values. Also stores non&#45;POD objects such as String and math objects (e...">
<polygon fill="none" stroke="black" points="723.5,-316.5 723.5,-337.5 842.5,-337.5 842.5,-316.5 723.5,-316.5"/>
<text text-anchor="middle" x="783" y="-324.5" font-family="FreeSans" font-size="10.00">Urho3D::VariantValue</text>
</a>
</g>
<!-- Node16&#45;&gt;Node2 -->
<g id="edge48" class="edge"><title>Node16&#45;&gt;Node2</title>
<path fill="none" stroke="#9a32cd" stroke-dasharray="5,2" d="M852.809,-319.233C892.347,-313.256 942.119,-303.033 984,-286 1016.98,-272.589 1050.93,-247.841 1068.93,-233.683"/>
<polygon fill="#9a32cd" stroke="#9a32cd" points="852.121,-315.796 842.728,-320.699 853.128,-322.724 852.121,-315.796"/>
<text text-anchor="middle" x="929" y="-319" font-family="FreeSans" font-size="10.00"> value_</text>
</g>
<!-- Node17 -->
<g id="node41" class="node"><title>Node17</title>
<a xlink:href="class_urho3_d_1_1_shared_ptr.html" target="_top" xlink:title="Urho3D::SharedPtr\&lt;\l Urho3D::AttributeAccessor \&gt;">
<polygon fill="none" stroke="black" points="1002.5,-0 1002.5,-34 1161.5,-34 1161.5,-0 1002.5,-0"/>
<text text-anchor="start" x="1010.5" y="-21" font-family="FreeSans" font-size="10.00">Urho3D::SharedPtr&lt;</text>
<text text-anchor="middle" x="1082" y="-8" font-family="FreeSans" font-size="10.00"> Urho3D::AttributeAccessor &gt;</text>
</a>
</g>
<!-- Node17&#45;&gt;Node1 -->
<g id="edge50" class="edge"><title>Node17&#45;&gt;Node1</title>
<path fill="none" stroke="#9a32cd" stroke-dasharray="5,2" d="M1171.71,-23C1196.6,-25.6719 1223.51,-29.508 1248,-35 1265.76,-38.9827 1285.09,-45.6588 1300.07,-51.3757"/>
<polygon fill="#9a32cd" stroke="#9a32cd" points="1171.85,-19.4963 1161.55,-21.9606 1171.14,-26.46 1171.85,-19.4963"/>
<text text-anchor="middle" x="1214" y="-39" font-family="FreeSans" font-size="10.00"> accessor_</text>
</g>
<!-- Node18 -->
<g id="node43" class="node"><title>Node18</title>
<a xlink:href="class_urho3_d_1_1_attribute_accessor.html" target="_top" xlink:title="Abstract base class for invoking attribute accessors.">
<polygon fill="none" stroke="black" points="710.5,-6.5 710.5,-27.5 855.5,-27.5 855.5,-6.5 710.5,-6.5"/>
<text text-anchor="middle" x="783" y="-14.5" font-family="FreeSans" font-size="10.00">Urho3D::AttributeAccessor</text>
</a>
</g>
<!-- Node18&#45;&gt;Node17 -->
<g id="edge52" class="edge"><title>Node18&#45;&gt;Node17</title>
<path fill="none" stroke="#9a32cd" stroke-dasharray="5,2" d="M865.828,-17C908.454,-17 960.174,-17 1002.34,-17"/>
<polygon fill="#9a32cd" stroke="#9a32cd" points="865.761,-13.5001 855.761,-17 865.761,-20.5001 865.761,-13.5001"/>
<text text-anchor="middle" x="929" y="-21" font-family="FreeSans" font-size="10.00"> ptr_</text>
</g>
<!-- Node19 -->
<g id="node45" class="node"><title>Node19</title>
<a xlink:href="class_urho3_d_1_1_ref_counted.html" target="_top" xlink:title="Base class for intrusively reference&#45;counted objects. These are noncopyable and non&#45;assignable.">
<polygon fill="none" stroke="black" points="426,-6.5 426,-27.5 540,-27.5 540,-6.5 426,-6.5"/>
<text text-anchor="middle" x="483" y="-14.5" font-family="FreeSans" font-size="10.00">Urho3D::RefCounted</text>
</a>
</g>
<!-- Node19&#45;&gt;Node18 -->
<g id="edge54" class="edge"><title>Node19&#45;&gt;Node18</title>
<path fill="none" stroke="midnightblue" d="M550.338,-17C597.935,-17 661.679,-17 710.409,-17"/>
<polygon fill="midnightblue" stroke="midnightblue" points="550.134,-13.5001 540.134,-17 550.134,-20.5001 550.134,-13.5001"/>
</g>
<!-- Node20 -->
<g id="node47" class="node"><title>Node20</title>
<a xlink:href="struct_urho3_d_1_1_ref_count.html" target="_top" xlink:title="Reference count structure.">
<polygon fill="none" stroke="black" points="208,-6.5 208,-27.5 310,-27.5 310,-6.5 208,-6.5"/>
<text text-anchor="middle" x="259" y="-14.5" font-family="FreeSans" font-size="10.00">Urho3D::RefCount</text>
</a>
</g>
<!-- Node20&#45;&gt;Node19 -->
<g id="edge56" class="edge"><title>Node20&#45;&gt;Node19</title>
<path fill="none" stroke="#9a32cd" stroke-dasharray="5,2" d="M320.507,-17C353.385,-17 393.606,-17 425.806,-17"/>
<polygon fill="#9a32cd" stroke="#9a32cd" points="320.109,-13.5001 310.109,-17 320.109,-20.5001 320.109,-13.5001"/>
<text text-anchor="middle" x="369" y="-21" font-family="FreeSans" font-size="10.00"> refCount_</text>
</g>
</g>
</svg>
