<?xml version="1.0" encoding="UTF-8" standalone="no"?>
<!DOCTYPE svg PUBLIC "-//W3C//DTD SVG 1.1//EN"
 "http://www.w3.org/Graphics/SVG/1.1/DTD/svg11.dtd">
<!-- Generated by graphviz version 2.26.3 (20100126.1600)
 -->
<!-- Title: Urho3D::Spriter::Timeline Pages: 1 -->
<svg width="338pt" height="188pt"
 viewBox="0.00 0.00 338.00 188.00" xmlns="http://www.w3.org/2000/svg" xmlns:xlink="http://www.w3.org/1999/xlink">
<g id="graph1" class="graph" transform="scale(1 1) rotate(0) translate(4 184)">
<title>Urho3D::Spriter::Timeline</title>
<!-- Node1 -->
<g id="node1" class="node"><title>Node1</title>
<polygon fill="#bfbfbf" stroke="black" points="90.5,-0.5 90.5,-21.5 227.5,-21.5 227.5,-0.5 90.5,-0.5"/>
<text text-anchor="middle" x="159" y="-8.5" font-family="FreeSans" font-size="10.00">Urho3D::Spriter::Timeline</text>
</g>
<!-- Node2 -->
<g id="node2" class="node"><title>Node2</title>
<a xlink:href="class_urho3_d_1_1_p_o_d_vector.html" target="_top" xlink:title="Urho3D::PODVector\&lt;\l Urho3D::Spriter::SpatialTimeline\lKey * \&gt;">
<polygon fill="none" stroke="black" points="-0.5,-72.5 -0.5,-119.5 172.5,-119.5 172.5,-72.5 -0.5,-72.5"/>
<text text-anchor="start" x="7.5" y="-106.5" font-family="FreeSans" font-size="10.00">Urho3D::PODVector&lt;</text>
<text text-anchor="start" x="7.5" y="-93.5" font-family="FreeSans" font-size="10.00"> Urho3D::Spriter::SpatialTimeline</text>
<text text-anchor="middle" x="86" y="-80.5" font-family="FreeSans" font-size="10.00">Key * &gt;</text>
</a>
</g>
<!-- Node2&#45;&gt;Node1 -->
<g id="edge2" class="edge"><title>Node2&#45;&gt;Node1</title>
<path fill="none" stroke="#9a32cd" stroke-dasharray="5,2" d="M112.879,-64.7027C125.765,-49.6978 140.375,-32.6867 149.634,-21.9057"/>
<polygon fill="#9a32cd" stroke="#9a32cd" points="110.195,-62.4561 106.335,-72.3228 115.505,-67.0168 110.195,-62.4561"/>
<text text-anchor="middle" x="149.5" y="-44.5" font-family="FreeSans" font-size="10.00"> keys_</text>
</g>
<!-- Node3 -->
<g id="node4" class="node"><title>Node3</title>
<a xlink:href="class_urho3_d_1_1_vector_base.html" target="_top" xlink:title="Vector base class.">
<polygon fill="none" stroke="black" points="29,-158.5 29,-179.5 143,-179.5 143,-158.5 29,-158.5"/>
<text text-anchor="middle" x="86" y="-166.5" font-family="FreeSans" font-size="10.00">Urho3D::VectorBase</text>
</a>
</g>
<!-- Node3&#45;&gt;Node2 -->
<g id="edge4" class="edge"><title>Node3&#45;&gt;Node2</title>
<path fill="none" stroke="midnightblue" d="M86,-148.053C86,-139.23 86,-128.915 86,-119.805"/>
<polygon fill="midnightblue" stroke="midnightblue" points="82.5001,-148.229 86,-158.229 89.5001,-148.229 82.5001,-148.229"/>
</g>
<!-- Node4 -->
<g id="node6" class="node"><title>Node4</title>
<a xlink:href="class_urho3_d_1_1_string.html" target="_top" xlink:title="String class.">
<polygon fill="none" stroke="black" points="190,-85.5 190,-106.5 278,-106.5 278,-85.5 190,-85.5"/>
<text text-anchor="middle" x="234" y="-93.5" font-family="FreeSans" font-size="10.00">Urho3D::String</text>
</a>
</g>
<!-- Node4&#45;&gt;Node1 -->
<g id="edge6" class="edge"><title>Node4&#45;&gt;Node1</title>
<path fill="none" stroke="#9a32cd" stroke-dasharray="5,2" d="M217.724,-77.5544C202.659,-60.4804 180.78,-35.684 168.422,-21.6779"/>
<polygon fill="#9a32cd" stroke="#9a32cd" points="215.261,-80.052 224.501,-85.2347 220.509,-75.4206 215.261,-80.052"/>
<text text-anchor="middle" x="214.5" y="-44.5" font-family="FreeSans" font-size="10.00"> name_</text>
</g>
<!-- Node4&#45;&gt;Node4 -->
<g id="edge8" class="edge"><title>Node4&#45;&gt;Node4</title>
<path fill="none" stroke="#9a32cd" stroke-dasharray="5,2" d="M288.258,-102.188C293.019,-100.882 296,-98.8198 296,-96 296,-91.4883 288.369,-88.9152 278.024,-88.2807"/>
<polygon fill="#9a32cd" stroke="#9a32cd" points="287.396,-98.7775 278.024,-103.719 288.432,-105.7 287.396,-98.7775"/>
<text text-anchor="middle" x="313" y="-93.5" font-family="FreeSans" font-size="10.00"> EMPTY</text>
</g>
</g>
</svg>
