<?xml version="1.0" encoding="UTF-8" standalone="no"?>
<!DOCTYPE svg PUBLIC "-//W3C//DTD SVG 1.1//EN"
 "http://www.w3.org/Graphics/SVG/1.1/DTD/svg11.dtd">
<!-- Generated by graphviz version 2.26.3 (20100126.1600)
 -->
<!-- Title: Urho3D::SourceBatch Pages: 1 -->
<!--zoomable 660 -->
<svg id="main" version="1.1" xmlns="http://www.w3.org/2000/svg" xmlns:xlink="http://www.w3.org/1999/xlink" xml:space="preserve" onload="init(evt)">
        <defs>
                <circle id="rim" cx="0" cy="0" r="7"/>
                <circle id="rim2" cx="0" cy="0" r="3.5"/>
                <g id="zoomPlus">
                        <use xlink:href="#rim" fill="#404040">
                                <set attributeName="fill" to="#808080" begin="zoomplus.mouseover" end="zoomplus.mouseout"/>
                        </use>
                        <path d="M-4,0h8M0,-4v8" fill="none" stroke="white" stroke-width="1.5" pointer-events="none"/>
                </g>
                <g id="zoomMin">
                        <use xlink:href="#rim" fill="#404040">
                                <set attributeName="fill" to="#808080" begin="zoomminus.mouseover" end="zoomminus.mouseout"/>
                        </use>
                        <path d="M-4,0h8" fill="none" stroke="white" stroke-width="1.5" pointer-events="none"/>
                </g>
                <g id="dirArrow">
                        <path fill="none" stroke="white" stroke-width="1.5" d="M0,-3.0v7 M-2.5,-0.5L0,-3.0L2.5,-0.5"/>
                </g>
               <g id="resetDef">
                       <use xlink:href="#rim2" fill="#404040">
                               <set attributeName="fill" to="#808080" begin="reset.mouseover" end="reset.mouseout"/>
                       </use>
               </g>
        </defs>

<script type="text/javascript">
var viewWidth = 2140;
var viewHeight = 660;
var sectionId = 'dynsection-0';
</script>
<script xlink:href="svgpan.js"/>
<svg id="graph" class="graph">
<g id="viewport">
<title>Urho3D::SourceBatch</title>
<!-- Node1 -->
<g id="node1" class="node"><title>Node1</title>
<polygon fill="#bfbfbf" stroke="black" points="2010.5,-338.5 2010.5,-359.5 2131.5,-359.5 2131.5,-338.5 2010.5,-338.5"/>
<text text-anchor="middle" x="2071" y="-346.5" font-family="FreeSans" font-size="10.00">Urho3D::SourceBatch</text>
</g>
<!-- Node2 -->
<g id="node2" class="node"><title>Node2</title>
<a xlink:href="class_urho3_d_1_1_geometry.html" target="_top" xlink:title="Defines one or more vertex buffers, an index buffer and a draw range.">
<polygon fill="none" stroke="black" points="1780.5,-489.5 1780.5,-510.5 1887.5,-510.5 1887.5,-489.5 1780.5,-489.5"/>
<text text-anchor="middle" x="1834" y="-497.5" font-family="FreeSans" font-size="10.00">Urho3D::Geometry</text>
</a>
</g>
<!-- Node2&#45;&gt;Node1 -->
<g id="edge2" class="edge"><title>Node2&#45;&gt;Node1</title>
<path fill="none" stroke="#9a32cd" stroke-dasharray="5,2" d="M1859.34,-483.854C1908.04,-452.826 2013.49,-385.64 2054.35,-359.606"/>
<polygon fill="#9a32cd" stroke="#9a32cd" points="1857.22,-481.057 1850.67,-489.382 1860.98,-486.96 1857.22,-481.057"/>
<text text-anchor="middle" x="1951" y="-456" font-family="FreeSans" font-size="10.00"> geometry_</text>
</g>
<!-- Node3 -->
<g id="node4" class="node"><title>Node3</title>
<a xlink:href="class_urho3_d_1_1_object.html" target="_top" xlink:title="Base class for objects with type identification, subsystem access and event sending/receiving capabil...">
<polygon fill="none" stroke="black" points="886,-533.5 886,-554.5 976,-554.5 976,-533.5 886,-533.5"/>
<text text-anchor="middle" x="931" y="-541.5" font-family="FreeSans" font-size="10.00">Urho3D::Object</text>
</a>
</g>
<!-- Node3&#45;&gt;Node2 -->
<g id="edge4" class="edge"><title>Node3&#45;&gt;Node2</title>
<path fill="none" stroke="midnightblue" d="M986.306,-541.305C1148.33,-533.41 1620.52,-510.402 1780.38,-502.613"/>
<polygon fill="midnightblue" stroke="midnightblue" points="985.907,-537.82 976.089,-541.803 986.247,-544.812 985.907,-537.82"/>
</g>
<!-- Node12 -->
<g id="node24" class="node"><title>Node12</title>
<a xlink:href="class_urho3_d_1_1_index_buffer.html" target="_top" xlink:title="Hardware index buffer.">
<polygon fill="none" stroke="red" points="1217.5,-560.5 1217.5,-581.5 1330.5,-581.5 1330.5,-560.5 1217.5,-560.5"/>
<text text-anchor="middle" x="1274" y="-568.5" font-family="FreeSans" font-size="10.00">Urho3D::IndexBuffer</text>
</a>
</g>
<!-- Node3&#45;&gt;Node12 -->
<g id="edge28" class="edge"><title>Node3&#45;&gt;Node12</title>
<path fill="none" stroke="midnightblue" d="M986.407,-548.361C1049.86,-553.357 1153.29,-561.498 1217.29,-566.536"/>
<polygon fill="midnightblue" stroke="midnightblue" points="986.438,-544.853 976.194,-547.558 985.888,-551.832 986.438,-544.853"/>
</g>
<!-- Node17 -->
<g id="node38" class="node"><title>Node17</title>
<a xlink:href="class_urho3_d_1_1_resource.html" target="_top" xlink:title="Base class for resources.">
<polygon fill="none" stroke="red" points="1222.5,-476.5 1222.5,-497.5 1325.5,-497.5 1325.5,-476.5 1222.5,-476.5"/>
<text text-anchor="middle" x="1274" y="-484.5" font-family="FreeSans" font-size="10.00">Urho3D::Resource</text>
</a>
</g>
<!-- Node3&#45;&gt;Node17 -->
<g id="edge46" class="edge"><title>Node3&#45;&gt;Node17</title>
<path fill="none" stroke="midnightblue" d="M963.166,-529.597C978.809,-523.191 998.066,-516.167 1016,-512 1086.35,-495.651 1169.9,-489.976 1222.45,-488.016"/>
<polygon fill="midnightblue" stroke="midnightblue" points="961.8,-526.375 953.937,-533.476 964.512,-532.828 961.8,-526.375"/>
</g>
<!-- Node4 -->
<g id="node6" class="node"><title>Node4</title>
<a xlink:href="class_urho3_d_1_1_ref_counted.html" target="_top" xlink:title="Base class for intrusively reference&#45;counted objects. These are noncopyable and non&#45;assignable.">
<polygon fill="none" stroke="black" points="203,-584.5 203,-605.5 317,-605.5 317,-584.5 203,-584.5"/>
<text text-anchor="middle" x="260" y="-592.5" font-family="FreeSans" font-size="10.00">Urho3D::RefCounted</text>
</a>
</g>
<!-- Node4&#45;&gt;Node3 -->
<g id="edge6" class="edge"><title>Node4&#45;&gt;Node3</title>
<path fill="none" stroke="midnightblue" d="M327.301,-605.444C438.122,-620.129 664.789,-639.519 846,-586 870.942,-578.634 897.474,-564.361 914.133,-554.514"/>
<polygon fill="midnightblue" stroke="midnightblue" points="327.645,-601.958 317.266,-604.084 326.706,-608.895 327.645,-601.958"/>
</g>
<!-- Node6 -->
<g id="node10" class="node"><title>Node6</title>
<a xlink:href="class_urho3_d_1_1_context.html" target="_top" xlink:title="Urho3D execution context. Provides access to subsystems, object factories and attributes, and event receivers.">
<polygon fill="none" stroke="red" points="586.5,-571.5 586.5,-592.5 683.5,-592.5 683.5,-571.5 586.5,-571.5"/>
<text text-anchor="middle" x="635" y="-579.5" font-family="FreeSans" font-size="10.00">Urho3D::Context</text>
</a>
</g>
<!-- Node4&#45;&gt;Node6 -->
<g id="edge12" class="edge"><title>Node4&#45;&gt;Node6</title>
<path fill="none" stroke="midnightblue" d="M327.584,-592.657C402.147,-590.072 520.3,-585.976 586.302,-583.688"/>
<polygon fill="midnightblue" stroke="midnightblue" points="327.235,-589.167 317.363,-593.011 327.478,-596.163 327.235,-589.167"/>
</g>
<!-- Node5 -->
<g id="node8" class="node"><title>Node5</title>
<a xlink:href="struct_urho3_d_1_1_ref_count.html" target="_top" xlink:title="Reference count structure.">
<polygon fill="none" stroke="black" points="6,-584.5 6,-605.5 108,-605.5 108,-584.5 6,-584.5"/>
<text text-anchor="middle" x="57" y="-592.5" font-family="FreeSans" font-size="10.00">Urho3D::RefCount</text>
</a>
</g>
<!-- Node5&#45;&gt;Node4 -->
<g id="edge8" class="edge"><title>Node5&#45;&gt;Node4</title>
<path fill="none" stroke="#9a32cd" stroke-dasharray="5,2" d="M118.263,-595C145.075,-595 176.357,-595 202.702,-595"/>
<polygon fill="#9a32cd" stroke="#9a32cd" points="118.226,-591.5 108.225,-595 118.225,-598.5 118.226,-591.5"/>
<text text-anchor="middle" x="157" y="-599" font-family="FreeSans" font-size="10.00"> refCount_</text>
</g>
<!-- Node10 -->
<g id="node19" class="node"><title>Node10</title>
<a xlink:href="class_urho3_d_1_1_shared_array_ptr.html" target="_top" xlink:title="Urho3D::SharedArrayPtr\l\&lt; unsigned char \&gt;">
<polygon fill="none" stroke="black" points="864.5,-599 864.5,-633 997.5,-633 997.5,-599 864.5,-599"/>
<text text-anchor="start" x="872.5" y="-620" font-family="FreeSans" font-size="10.00">Urho3D::SharedArrayPtr</text>
<text text-anchor="middle" x="931" y="-607" font-family="FreeSans" font-size="10.00">&lt; unsigned char &gt;</text>
</a>
</g>
<!-- Node5&#45;&gt;Node10 -->
<g id="edge22" class="edge"><title>Node5&#45;&gt;Node10</title>
<path fill="none" stroke="#9a32cd" stroke-dasharray="5,2" d="M108.309,-607.668C116.207,-609.316 124.296,-610.834 132,-612 385.255,-650.329 452.005,-639.6 708,-631 760.548,-629.235 819.944,-625.136 864.216,-621.668"/>
<polygon fill="#9a32cd" stroke="#9a32cd" points="108.965,-604.228 98.4496,-605.526 107.479,-611.069 108.965,-604.228"/>
<text text-anchor="middle" x="441" y="-643" font-family="FreeSans" font-size="10.00"> refCount_</text>
</g>
<!-- Node18 -->
<g id="node41" class="node"><title>Node18</title>
<a xlink:href="class_urho3_d_1_1_weak_ptr.html" target="_top" xlink:title="Urho3D::WeakPtr\&lt; Urho3D\l::Scene \&gt;">
<polygon fill="none" stroke="red" points="368,-529 368,-563 514,-563 514,-529 368,-529"/>
<text text-anchor="start" x="376" y="-550" font-family="FreeSans" font-size="10.00">Urho3D::WeakPtr&lt; Urho3D</text>
<text text-anchor="middle" x="441" y="-537" font-family="FreeSans" font-size="10.00">::Scene &gt;</text>
</a>
</g>
<!-- Node5&#45;&gt;Node18 -->
<g id="edge50" class="edge"><title>Node5&#45;&gt;Node18</title>
<path fill="none" stroke="#9a32cd" stroke-dasharray="5,2" d="M109.165,-582.334C116.795,-580.727 124.58,-579.221 132,-578 212.225,-564.802 305.117,-556.052 367.938,-551.087"/>
<polygon fill="#9a32cd" stroke="#9a32cd" points="108.293,-578.942 99.2664,-584.49 109.782,-585.782 108.293,-578.942"/>
<text text-anchor="middle" x="157" y="-582" font-family="FreeSans" font-size="10.00"> refCount_</text>
</g>
<!-- Node6&#45;&gt;Node3 -->
<g id="edge10" class="edge"><title>Node6&#45;&gt;Node3</title>
<path fill="none" stroke="#9a32cd" stroke-dasharray="5,2" d="M693.739,-574.506C736.072,-569.1 794.565,-561.619 846,-555 858.84,-553.348 872.769,-551.548 885.565,-549.892"/>
<polygon fill="#9a32cd" stroke="#9a32cd" points="693.086,-571.061 683.61,-575.8 693.973,-578.005 693.086,-571.061"/>
<text text-anchor="middle" x="786" y="-573" font-family="FreeSans" font-size="10.00"> context_</text>
</g>
<!-- Node7 -->
<g id="node13" class="node"><title>Node7</title>
<a xlink:href="class_urho3_d_1_1_p_o_d_vector.html" target="_top" xlink:title="Urho3D::PODVector\&lt;\l Urho3D::Object * \&gt;">
<polygon fill="none" stroke="black" points="200.5,-479 200.5,-513 319.5,-513 319.5,-479 200.5,-479"/>
<text text-anchor="start" x="208.5" y="-500" font-family="FreeSans" font-size="10.00">Urho3D::PODVector&lt;</text>
<text text-anchor="middle" x="260" y="-487" font-family="FreeSans" font-size="10.00"> Urho3D::Object * &gt;</text>
</a>
</g>
<!-- Node7&#45;&gt;Node6 -->
<g id="edge14" class="edge"><title>Node7&#45;&gt;Node6</title>
<path fill="none" stroke="#9a32cd" stroke-dasharray="5,2" d="M329.842,-489.884C402.936,-484.994 511.512,-482.476 544,-507 564.528,-522.496 543.374,-544.263 562,-562 568.756,-568.434 577.38,-572.838 586.316,-575.842"/>
<polygon fill="#9a32cd" stroke="#9a32cd" points="329.507,-486.398 319.775,-490.587 329.995,-493.381 329.507,-486.398"/>
<text text-anchor="middle" x="441" y="-511" font-family="FreeSans" font-size="10.00"> eventSenders_</text>
</g>
<!-- Node8 -->
<g id="node15" class="node"><title>Node8</title>
<a xlink:href="class_urho3_d_1_1_vector_base.html" target="_top" xlink:title="Vector base class.">
<polygon fill="none" stroke="black" points="0,-415.5 0,-436.5 114,-436.5 114,-415.5 0,-415.5"/>
<text text-anchor="middle" x="57" y="-423.5" font-family="FreeSans" font-size="10.00">Urho3D::VectorBase</text>
</a>
</g>
<!-- Node8&#45;&gt;Node7 -->
<g id="edge16" class="edge"><title>Node8&#45;&gt;Node7</title>
<path fill="none" stroke="midnightblue" d="M88.2094,-440.844C101.536,-446.891 117.365,-453.692 132,-459 153.963,-466.966 178.52,-474.406 200.205,-480.494"/>
<polygon fill="midnightblue" stroke="midnightblue" points="89.5477,-437.608 79.0002,-436.607 86.6215,-443.967 89.5477,-437.608"/>
</g>
<!-- Node13 -->
<g id="node28" class="node"><title>Node13</title>
<a xlink:href="class_urho3_d_1_1_vector.html" target="_top" xlink:title="Urho3D::Vector\&lt; Urho3D\l::SharedPtr\&lt; Urho3D::VertexBuffer \&gt; \&gt;">
<polygon fill="none" stroke="black" points="338,-428 338,-462 544,-462 544,-428 338,-428"/>
<text text-anchor="start" x="346" y="-449" font-family="FreeSans" font-size="10.00">Urho3D::Vector&lt; Urho3D</text>
<text text-anchor="middle" x="441" y="-436" font-family="FreeSans" font-size="10.00">::SharedPtr&lt; Urho3D::VertexBuffer &gt; &gt;</text>
</a>
</g>
<!-- Node8&#45;&gt;Node13 -->
<g id="edge34" class="edge"><title>Node8&#45;&gt;Node13</title>
<path fill="none" stroke="midnightblue" d="M124.386,-429.334C183.35,-432.252 269.92,-436.535 337.64,-439.886"/>
<polygon fill="midnightblue" stroke="midnightblue" points="124.235,-425.823 114.074,-428.824 123.889,-432.814 124.235,-425.823"/>
</g>
<!-- Node14 -->
<g id="node31" class="node"><title>Node14</title>
<a xlink:href="class_urho3_d_1_1_p_o_d_vector.html" target="_top" xlink:title="Urho3D::PODVector\&lt;\l unsigned \&gt;">
<polygon fill="none" stroke="black" points="726.5,-390 726.5,-424 845.5,-424 845.5,-390 726.5,-390"/>
<text text-anchor="start" x="734.5" y="-411" font-family="FreeSans" font-size="10.00">Urho3D::PODVector&lt;</text>
<text text-anchor="middle" x="786" y="-398" font-family="FreeSans" font-size="10.00"> unsigned &gt;</text>
</a>
</g>
<!-- Node8&#45;&gt;Node14 -->
<g id="edge38" class="edge"><title>Node8&#45;&gt;Node14</title>
<path fill="none" stroke="midnightblue" d="M124.475,-424.241C265.982,-420.553 591.789,-412.062 726.27,-408.557"/>
<polygon fill="midnightblue" stroke="midnightblue" points="124.109,-420.75 114.203,-424.509 124.291,-427.747 124.109,-420.75"/>
</g>
<!-- Node21 -->
<g id="node48" class="node"><title>Node21</title>
<a xlink:href="class_urho3_d_1_1_vector.html" target="_top" xlink:title="Urho3D::Vector\&lt; Urho3D\l::TechniqueEntry \&gt;">
<polygon fill="none" stroke="black" points="1016,-255 1016,-289 1154,-289 1154,-255 1016,-255"/>
<text text-anchor="start" x="1024" y="-276" font-family="FreeSans" font-size="10.00">Urho3D::Vector&lt; Urho3D</text>
<text text-anchor="middle" x="1085" y="-263" font-family="FreeSans" font-size="10.00">::TechniqueEntry &gt;</text>
</a>
</g>
<!-- Node8&#45;&gt;Node21 -->
<g id="edge58" class="edge"><title>Node8&#45;&gt;Node21</title>
<path fill="none" stroke="midnightblue" d="M76.0345,-408.181C110.112,-378.222 185.014,-321 260,-321 260,-321 260,-321 786,-321 867.27,-321 959.35,-303.153 1019.59,-289"/>
<polygon fill="midnightblue" stroke="midnightblue" points="73.3704,-405.869 68.2752,-415.159 78.0511,-411.074 73.3704,-405.869"/>
</g>
<!-- Node9 -->
<g id="node17" class="node"><title>Node9</title>
<a xlink:href="class_urho3_d_1_1_linked_list.html" target="_top" xlink:title="Urho3D::LinkedList\l\&lt; Urho3D::EventHandler \&gt;">
<polygon fill="none" stroke="red" points="562,-519 562,-553 708,-553 708,-519 562,-519"/>
<text text-anchor="start" x="570" y="-540" font-family="FreeSans" font-size="10.00">Urho3D::LinkedList</text>
<text text-anchor="middle" x="635" y="-527" font-family="FreeSans" font-size="10.00">&lt; Urho3D::EventHandler &gt;</text>
</a>
</g>
<!-- Node9&#45;&gt;Node3 -->
<g id="edge18" class="edge"><title>Node9&#45;&gt;Node3</title>
<path fill="none" stroke="#9a32cd" stroke-dasharray="5,2" d="M718.475,-538.256C772.764,-539.723 841.455,-541.58 885.805,-542.779"/>
<polygon fill="#9a32cd" stroke="#9a32cd" points="718.259,-534.749 708.169,-537.978 718.07,-541.747 718.259,-534.749"/>
<text text-anchor="middle" x="786" y="-545" font-family="FreeSans" font-size="10.00"> eventHandlers_</text>
</g>
<!-- Node10&#45;&gt;Node2 -->
<g id="edge20" class="edge"><title>Node10&#45;&gt;Node2</title>
<path fill="none" stroke="#9a32cd" stroke-dasharray="5,2" d="M1007.79,-620.265C1143.51,-626.421 1434.26,-633.407 1676,-597 1713.43,-591.363 1725.2,-592.898 1758,-574 1787.2,-557.174 1813.49,-526.59 1826.11,-510.515"/>
<polygon fill="#9a32cd" stroke="#9a32cd" points="1007.66,-616.755 997.505,-619.786 1007.33,-623.747 1007.66,-616.755"/>
<text text-anchor="middle" x="1462" y="-638" font-family="FreeSans" font-size="10.00"> rawVertexData_</text>
<text text-anchor="middle" x="1462" y="-625" font-family="FreeSans" font-size="10.00">rawIndexData_</text>
</g>
<!-- Node10&#45;&gt;Node12 -->
<g id="edge30" class="edge"><title>Node10&#45;&gt;Node12</title>
<path fill="none" stroke="#9a32cd" stroke-dasharray="5,2" d="M987.396,-596.031C996.849,-593.279 1006.63,-590.788 1016,-589 1084.47,-575.93 1164.78,-572.093 1217.39,-571.096"/>
<polygon fill="#9a32cd" stroke="#9a32cd" points="986.247,-592.722 977.694,-598.975 988.28,-599.421 986.247,-592.722"/>
<text text-anchor="middle" x="1085" y="-593" font-family="FreeSans" font-size="10.00"> shadowData_</text>
</g>
<!-- Node11 -->
<g id="node22" class="node"><title>Node11</title>
<a xlink:href="class_urho3_d_1_1_shared_ptr.html" target="_top" xlink:title="Urho3D::SharedPtr\&lt;\l Urho3D::IndexBuffer \&gt;">
<polygon fill="none" stroke="black" points="1548,-554 1548,-588 1676,-588 1676,-554 1548,-554"/>
<text text-anchor="start" x="1556" y="-575" font-family="FreeSans" font-size="10.00">Urho3D::SharedPtr&lt;</text>
<text text-anchor="middle" x="1612" y="-562" font-family="FreeSans" font-size="10.00"> Urho3D::IndexBuffer &gt;</text>
</a>
</g>
<!-- Node11&#45;&gt;Node2 -->
<g id="edge24" class="edge"><title>Node11&#45;&gt;Node2</title>
<path fill="none" stroke="#9a32cd" stroke-dasharray="5,2" d="M1686.16,-559.36C1709.53,-554.608 1735.18,-548.247 1758,-540 1779.31,-532.296 1802.11,-519.639 1817.12,-510.626"/>
<polygon fill="#9a32cd" stroke="#9a32cd" points="1685.44,-555.935 1676.3,-561.298 1686.79,-562.803 1685.44,-555.935"/>
<text text-anchor="middle" x="1726" y="-561" font-family="FreeSans" font-size="10.00"> indexBuffer_</text>
</g>
<!-- Node12&#45;&gt;Node11 -->
<g id="edge26" class="edge"><title>Node12&#45;&gt;Node11</title>
<path fill="none" stroke="#9a32cd" stroke-dasharray="5,2" d="M1340.71,-571C1400.76,-571 1488.45,-571 1547.74,-571"/>
<polygon fill="#9a32cd" stroke="#9a32cd" points="1340.57,-567.5 1330.57,-571 1340.57,-574.5 1340.57,-567.5"/>
<text text-anchor="middle" x="1462" y="-575" font-family="FreeSans" font-size="10.00"> ptr_</text>
</g>
<!-- Node13&#45;&gt;Node2 -->
<g id="edge32" class="edge"><title>Node13&#45;&gt;Node2</title>
<path fill="none" stroke="#9a32cd" stroke-dasharray="5,2" d="M554.179,-445.897C730.08,-447.69 1079.68,-452.847 1376,-467 1522.52,-473.998 1695.02,-487.984 1780.46,-495.298"/>
<polygon fill="#9a32cd" stroke="#9a32cd" points="554.168,-442.397 544.133,-445.796 554.098,-449.397 554.168,-442.397"/>
<text text-anchor="middle" x="1085" y="-462" font-family="FreeSans" font-size="10.00"> vertexBuffers_</text>
</g>
<!-- Node14&#45;&gt;Node2 -->
<g id="edge36" class="edge"><title>Node14&#45;&gt;Node2</title>
<path fill="none" stroke="#9a32cd" stroke-dasharray="5,2" d="M855.779,-407C916.376,-407 1006.49,-407 1085,-407 1085,-407 1085,-407 1612,-407 1677.99,-407 1698.55,-405.358 1758,-434 1786.18,-447.577 1812.11,-474.435 1825.16,-489.364"/>
<polygon fill="#9a32cd" stroke="#9a32cd" points="855.566,-403.5 845.566,-407 855.566,-410.5 855.566,-403.5"/>
<text text-anchor="middle" x="1274" y="-411" font-family="FreeSans" font-size="10.00"> elementMasks_</text>
</g>
<!-- Node15 -->
<g id="node34" class="node"><title>Node15</title>
<a xlink:href="class_urho3_d_1_1_shared_ptr.html" target="_top" xlink:title="Urho3D::SharedPtr\&lt;\l Urho3D::Material \&gt;">
<polygon fill="none" stroke="black" points="1776,-332 1776,-366 1892,-366 1892,-332 1776,-332"/>
<text text-anchor="start" x="1784" y="-353" font-family="FreeSans" font-size="10.00">Urho3D::SharedPtr&lt;</text>
<text text-anchor="middle" x="1834" y="-340" font-family="FreeSans" font-size="10.00"> Urho3D::Material &gt;</text>
</a>
</g>
<!-- Node15&#45;&gt;Node1 -->
<g id="edge40" class="edge"><title>Node15&#45;&gt;Node1</title>
<path fill="none" stroke="#9a32cd" stroke-dasharray="5,2" d="M1902.63,-349C1936.72,-349 1977.55,-349 2010.47,-349"/>
<polygon fill="#9a32cd" stroke="#9a32cd" points="1902.28,-345.5 1892.28,-349 1902.28,-352.5 1902.28,-345.5"/>
<text text-anchor="middle" x="1951" y="-353" font-family="FreeSans" font-size="10.00"> material_</text>
</g>
<!-- Node16 -->
<g id="node36" class="node"><title>Node16</title>
<a xlink:href="class_urho3_d_1_1_material.html" target="_top" xlink:title="Describes how to render 3D geometries.">
<polygon fill="none" stroke="black" points="1563,-258.5 1563,-279.5 1661,-279.5 1661,-258.5 1563,-258.5"/>
<text text-anchor="middle" x="1612" y="-266.5" font-family="FreeSans" font-size="10.00">Urho3D::Material</text>
</a>
</g>
<!-- Node16&#45;&gt;Node15 -->
<g id="edge42" class="edge"><title>Node16&#45;&gt;Node15</title>
<path fill="none" stroke="#9a32cd" stroke-dasharray="5,2" d="M1651.11,-283.095C1688.88,-296.706 1746.14,-317.339 1786.51,-331.886"/>
<polygon fill="#9a32cd" stroke="#9a32cd" points="1652.07,-279.721 1641.48,-279.623 1649.7,-286.306 1652.07,-279.721"/>
<text text-anchor="middle" x="1726" y="-325" font-family="FreeSans" font-size="10.00"> ptr_</text>
</g>
<!-- Node17&#45;&gt;Node16 -->
<g id="edge44" class="edge"><title>Node17&#45;&gt;Node16</title>
<path fill="none" stroke="midnightblue" d="M1323.44,-473.474C1378.05,-456.794 1466.62,-424.433 1530,-375 1565.59,-347.241 1594.33,-300.68 1606.16,-279.756"/>
<polygon fill="midnightblue" stroke="midnightblue" points="1322.23,-470.184 1313.65,-476.407 1324.23,-476.889 1322.23,-470.184"/>
</g>
<!-- Node18&#45;&gt;Node16 -->
<g id="edge48" class="edge"><title>Node18&#45;&gt;Node16</title>
<path fill="none" stroke="#9a32cd" stroke-dasharray="5,2" d="M523.706,-531.837C530.705,-529.593 537.561,-526.998 544,-524 553.188,-519.722 552.794,-514.24 562,-510 687.684,-452.118 1036,-410.514 1172,-385 1330.64,-355.24 1380.1,-383.837 1530,-324 1557.22,-313.133 1584.67,-292.244 1599.89,-279.57"/>
<polygon fill="#9a32cd" stroke="#9a32cd" points="522.691,-528.487 514.1,-534.686 524.682,-535.198 522.691,-528.487"/>
<text text-anchor="middle" x="931" y="-439" font-family="FreeSans" font-size="10.00"> scene_</text>
</g>
<!-- Node19 -->
<g id="node44" class="node"><title>Node19</title>
<a xlink:href="class_urho3_d_1_1_hash_map.html" target="_top" xlink:title="Urho3D::HashMap\&lt; Urho3D\l::StringHash, Urho3D::\lMaterialShaderParameter \&gt;">
<polygon fill="none" stroke="red" points="1198,-130.5 1198,-177.5 1350,-177.5 1350,-130.5 1198,-130.5"/>
<text text-anchor="start" x="1206" y="-164.5" font-family="FreeSans" font-size="10.00">Urho3D::HashMap&lt; Urho3D</text>
<text text-anchor="start" x="1206" y="-151.5" font-family="FreeSans" font-size="10.00">::StringHash, Urho3D::</text>
<text text-anchor="middle" x="1274" y="-138.5" font-family="FreeSans" font-size="10.00">MaterialShaderParameter &gt;</text>
</a>
</g>
<!-- Node19&#45;&gt;Node16 -->
<g id="edge52" class="edge"><title>Node19&#45;&gt;Node16</title>
<path fill="none" stroke="#9a32cd" stroke-dasharray="5,2" d="M1360.35,-151.418C1411.97,-153.128 1477.5,-161.197 1530,-187 1563.97,-203.695 1592.27,-240.092 1604.91,-258.25"/>
<polygon fill="#9a32cd" stroke="#9a32cd" points="1360.31,-147.915 1350.22,-151.157 1360.13,-154.913 1360.31,-147.915"/>
<text text-anchor="middle" x="1462" y="-191" font-family="FreeSans" font-size="10.00"> shaderParameters_</text>
</g>
<!-- Node20 -->
<g id="node46" class="node"><title>Node20</title>
<a xlink:href="class_urho3_d_1_1_hash_map.html" target="_top" xlink:title="Urho3D::HashMap\&lt; Urho3D\l::StringHash, Urho3D::\lSharedPtr\&lt; Urho3D::ShaderParameter\lAnimationInfo \&gt; \&gt;">
<polygon fill="none" stroke="red" points="1172.5,-52 1172.5,-112 1375.5,-112 1375.5,-52 1172.5,-52"/>
<text text-anchor="start" x="1180.5" y="-99" font-family="FreeSans" font-size="10.00">Urho3D::HashMap&lt; Urho3D</text>
<text text-anchor="start" x="1180.5" y="-86" font-family="FreeSans" font-size="10.00">::StringHash, Urho3D::</text>
<text text-anchor="start" x="1180.5" y="-73" font-family="FreeSans" font-size="10.00">SharedPtr&lt; Urho3D::ShaderParameter</text>
<text text-anchor="middle" x="1274" y="-60" font-family="FreeSans" font-size="10.00">AnimationInfo &gt; &gt;</text>
</a>
</g>
<!-- Node20&#45;&gt;Node16 -->
<g id="edge54" class="edge"><title>Node20&#45;&gt;Node16</title>
<path fill="none" stroke="#9a32cd" stroke-dasharray="5,2" d="M1385.67,-79.4352C1433.76,-83.3296 1488.37,-94.9404 1530,-124 1578.85,-158.098 1602.18,-231.21 1609.43,-258.469"/>
<polygon fill="#9a32cd" stroke="#9a32cd" points="1385.74,-75.9314 1375.52,-78.7179 1385.25,-82.914 1385.74,-75.9314"/>
<text text-anchor="start" x="1394" y="-141" font-family="FreeSans" font-size="10.00"> shaderParameterAnimation</text>
<text text-anchor="middle" x="1462" y="-128" font-family="FreeSans" font-size="10.00">Infos_</text>
</g>
<!-- Node21&#45;&gt;Node16 -->
<g id="edge56" class="edge"><title>Node21&#45;&gt;Node16</title>
<path fill="none" stroke="#9a32cd" stroke-dasharray="5,2" d="M1115.95,-249.408C1131.85,-239.183 1152.05,-228.231 1172,-223 1322.07,-183.645 1509.26,-235.037 1581.56,-258.47"/>
<polygon fill="#9a32cd" stroke="#9a32cd" points="1113.97,-246.521 1107.58,-254.973 1117.85,-252.349 1113.97,-246.521"/>
<text text-anchor="middle" x="1274" y="-227" font-family="FreeSans" font-size="10.00"> techniques_</text>
</g>
<!-- Node22 -->
<g id="node51" class="node"><title>Node22</title>
<a xlink:href="struct_urho3_d_1_1_bias_parameters.html" target="_top" xlink:title="Shadow depth bias parameters.">
<polygon fill="none" stroke="black" points="1206.5,-311.5 1206.5,-332.5 1341.5,-332.5 1341.5,-311.5 1206.5,-311.5"/>
<text text-anchor="middle" x="1274" y="-319.5" font-family="FreeSans" font-size="10.00">Urho3D::BiasParameters</text>
</a>
</g>
<!-- Node22&#45;&gt;Node16 -->
<g id="edge60" class="edge"><title>Node22&#45;&gt;Node16</title>
<path fill="none" stroke="#9a32cd" stroke-dasharray="5,2" d="M1351.5,-312.428C1402.38,-305.818 1470.3,-296.374 1530,-286 1540.89,-284.108 1552.54,-281.841 1563.54,-279.589"/>
<polygon fill="#9a32cd" stroke="#9a32cd" points="1351.03,-308.96 1341.56,-313.712 1351.93,-315.902 1351.03,-308.96"/>
<text text-anchor="middle" x="1462" y="-311" font-family="FreeSans" font-size="10.00"> depthBias_</text>
</g>
<!-- Node23 -->
<g id="node53" class="node"><title>Node23</title>
<a xlink:href="class_urho3_d_1_1_hash_map.html" target="_top" xlink:title="Urho3D::HashMap\&lt; Texture\lUnit, Urho3D::SharedPtr\l\&lt; Urho3D::Texture \&gt; \&gt;">
<polygon fill="none" stroke="red" points="1199,-245.5 1199,-292.5 1349,-292.5 1349,-245.5 1199,-245.5"/>
<text text-anchor="start" x="1207" y="-279.5" font-family="FreeSans" font-size="10.00">Urho3D::HashMap&lt; Texture</text>
<text text-anchor="start" x="1207" y="-266.5" font-family="FreeSans" font-size="10.00">Unit, Urho3D::SharedPtr</text>
<text text-anchor="middle" x="1274" y="-253.5" font-family="FreeSans" font-size="10.00">&lt; Urho3D::Texture &gt; &gt;</text>
</a>
</g>
<!-- Node23&#45;&gt;Node16 -->
<g id="edge62" class="edge"><title>Node23&#45;&gt;Node16</title>
<path fill="none" stroke="#9a32cd" stroke-dasharray="5,2" d="M1359.14,-269C1423.47,-269 1509.5,-269 1562.8,-269"/>
<polygon fill="#9a32cd" stroke="#9a32cd" points="1359.01,-265.5 1349.01,-269 1359.01,-272.5 1359.01,-265.5"/>
<text text-anchor="middle" x="1462" y="-273" font-family="FreeSans" font-size="10.00"> textures_</text>
</g>
<!-- Node24 -->
<g id="node55" class="node"><title>Node24</title>
<a xlink:href="class_urho3_d_1_1_shared_ptr.html" target="_top" xlink:title="Urho3D::SharedPtr\&lt;\l Urho3D::XMLFile \&gt;">
<polygon fill="none" stroke="red" points="1216,-0 1216,-34 1332,-34 1332,-0 1216,-0"/>
<text text-anchor="start" x="1224" y="-21" font-family="FreeSans" font-size="10.00">Urho3D::SharedPtr&lt;</text>
<text text-anchor="middle" x="1274" y="-8" font-family="FreeSans" font-size="10.00"> Urho3D::XMLFile &gt;</text>
</a>
</g>
<!-- Node24&#45;&gt;Node16 -->
<g id="edge64" class="edge"><title>Node24&#45;&gt;Node16</title>
<path fill="none" stroke="#9a32cd" stroke-dasharray="5,2" d="M1342.44,-12.4191C1398.76,-12.3202 1477.58,-21.0912 1530,-64 1593.48,-115.957 1608.13,-224.301 1611.23,-258.452"/>
<polygon fill="#9a32cd" stroke="#9a32cd" points="1342.16,-8.92199 1332.2,-12.5346 1342.23,-15.9215 1342.16,-8.92199"/>
<text text-anchor="middle" x="1462" y="-68" font-family="FreeSans" font-size="10.00"> loadXMLFile_</text>
</g>
<!-- Node25 -->
<g id="node57" class="node"><title>Node25</title>
<a xlink:href="class_urho3_d_1_1_matrix3x4.html" target="_top" xlink:title="3x4 matrix for scene node transform calculations.">
<polygon fill="none" stroke="black" points="1781,-248.5 1781,-269.5 1887,-269.5 1887,-248.5 1781,-248.5"/>
<text text-anchor="middle" x="1834" y="-256.5" font-family="FreeSans" font-size="10.00">Urho3D::Matrix3x4</text>
</a>
</g>
<!-- Node25&#45;&gt;Node1 -->
<g id="edge66" class="edge"><title>Node25&#45;&gt;Node1</title>
<path fill="none" stroke="#9a32cd" stroke-dasharray="5,2" d="M1871.29,-273.161C1918.99,-291.275 2000.52,-322.236 2043.16,-338.427"/>
<polygon fill="#9a32cd" stroke="#9a32cd" points="1872.24,-269.778 1861.65,-269.5 1869.76,-276.322 1872.24,-269.778"/>
<text text-anchor="middle" x="1951" y="-322" font-family="FreeSans" font-size="10.00"> worldTransform_</text>
</g>
<!-- Node25&#45;&gt;Node25 -->
<g id="edge68" class="edge"><title>Node25&#45;&gt;Node25</title>
<path fill="none" stroke="#9a32cd" stroke-dasharray="5,2" d="M1814.1,-279.427C1815.63,-284.349 1822.27,-288 1834,-288 1852.77,-288 1858.49,-278.653 1851.16,-269.708"/>
<polygon fill="#9a32cd" stroke="#9a32cd" points="1817.49,-280.283 1816.84,-269.708 1810.76,-278.381 1817.49,-280.283"/>
<text text-anchor="middle" x="1834" y="-305" font-family="FreeSans" font-size="10.00"> IDENTITY</text>
<text text-anchor="middle" x="1834" y="-292" font-family="FreeSans" font-size="10.00">ZERO</text>
</g>
</g>
</svg>
        <g id="navigator" transform="translate(0 0)" fill="#404254">
                <rect fill="#f2f5e9" fill-opacity="0.5" stroke="#606060" stroke-width=".5" x="0" y="0" width="60" height="60"/>
                <use id="zoomplus" xlink:href="#zoomPlus" x="17" y="9" onmousedown="handleZoom(evt,'in')"/>
                <use id="zoomminus" xlink:href="#zoomMin" x="42" y="9" onmousedown="handleZoom(evt,'out')"/>
                <use id="reset" xlink:href="#resetDef" x="30" y="36" onmousedown="handleReset()"/>
                <g id="arrowUp" xlink:href="#dirArrow" transform="translate(30 24)" onmousedown="handlePan(0,-1)">
                  <use xlink:href="#rim" fill="#404040">
                        <set attributeName="fill" to="#808080" begin="arrowUp.mouseover" end="arrowUp.mouseout"/>
                  </use>
                  <path fill="none" stroke="white" stroke-width="1.5" d="M0,-3.0v7 M-2.5,-0.5L0,-3.0L2.5,-0.5"/>
                </g>
                <g id="arrowRight" xlink:href="#dirArrow" transform="rotate(90) translate(36 -43)" onmousedown="handlePan(1,0)">
                  <use xlink:href="#rim" fill="#404040">
                        <set attributeName="fill" to="#808080" begin="arrowRight.mouseover" end="arrowRight.mouseout"/>
                  </use>
                  <path fill="none" stroke="white" stroke-width="1.5" d="M0,-3.0v7 M-2.5,-0.5L0,-3.0L2.5,-0.5"/>
                </g>
                <g id="arrowDown" xlink:href="#dirArrow" transform="rotate(180) translate(-30 -48)" onmousedown="handlePan(0,1)">
                  <use xlink:href="#rim" fill="#404040">
                        <set attributeName="fill" to="#808080" begin="arrowDown.mouseover" end="arrowDown.mouseout"/>
                  </use>
                  <path fill="none" stroke="white" stroke-width="1.5" d="M0,-3.0v7 M-2.5,-0.5L0,-3.0L2.5,-0.5"/>
                </g>
                <g id="arrowLeft" xlink:href="#dirArrow" transform="rotate(270) translate(-36 17)" onmousedown="handlePan(-1,0)">
                  <use xlink:href="#rim" fill="#404040">
                        <set attributeName="fill" to="#808080" begin="arrowLeft.mouseover" end="arrowLeft.mouseout"/>
                  </use>
                  <path fill="none" stroke="white" stroke-width="1.5" d="M0,-3.0v7 M-2.5,-0.5L0,-3.0L2.5,-0.5"/>
                </g>
        </g>
        <svg viewBox="0 0 15 15" width="100%" height="30px" preserveAspectRatio="xMaxYMin meet">
         <g id="arrow_out" transform="scale(0.3 0.3)">
          <a xlink:href="struct_urho3_d_1_1_source_batch__coll__graph_org.svg" target="_base">
           <rect id="button" ry="5" rx="5" y="6" x="6" height="38" width="38"
                fill="#f2f5e9" fill-opacity="0.5" stroke="#606060" stroke-width="1.0"/>
           <path id="arrow"
             d="M 11.500037,31.436501 C 11.940474,20.09759 22.043105,11.32322 32.158766,21.979434 L 37.068811,17.246167 C 37.068811,17.246167 37.088388,32 37.088388,32 L 22.160133,31.978069 C 22.160133,31.978069 26.997745,27.140456 26.997745,27.140456 C 18.528582,18.264221 13.291696,25.230495 11.500037,31.436501 z"
             style="fill:#404040;"/>
          </a>
         </g>
        </svg>
</svg>
