<?xml version="1.0" encoding="UTF-8" standalone="no"?>
<!DOCTYPE svg PUBLIC "-//W3C//DTD SVG 1.1//EN"
 "http://www.w3.org/Graphics/SVG/1.1/DTD/svg11.dtd">
<!-- Generated by graphviz version 2.26.3 (20100126.1600)
 -->
<!-- Title: Urho3D::ShaderParameter Pages: 1 -->
<!--zoomable 886 -->
<svg id="main" version="1.1" xmlns="http://www.w3.org/2000/svg" xmlns:xlink="http://www.w3.org/1999/xlink" xml:space="preserve" onload="init(evt)">
        <defs>
                <circle id="rim" cx="0" cy="0" r="7"/>
                <circle id="rim2" cx="0" cy="0" r="3.5"/>
                <g id="zoomPlus">
                        <use xlink:href="#rim" fill="#404040">
                                <set attributeName="fill" to="#808080" begin="zoomplus.mouseover" end="zoomplus.mouseout"/>
                        </use>
                        <path d="M-4,0h8M0,-4v8" fill="none" stroke="white" stroke-width="1.5" pointer-events="none"/>
                </g>
                <g id="zoomMin">
                        <use xlink:href="#rim" fill="#404040">
                                <set attributeName="fill" to="#808080" begin="zoomminus.mouseover" end="zoomminus.mouseout"/>
                        </use>
                        <path d="M-4,0h8" fill="none" stroke="white" stroke-width="1.5" pointer-events="none"/>
                </g>
                <g id="dirArrow">
                        <path fill="none" stroke="white" stroke-width="1.5" d="M0,-3.0v7 M-2.5,-0.5L0,-3.0L2.5,-0.5"/>
                </g>
               <g id="resetDef">
                       <use xlink:href="#rim2" fill="#404040">
                               <set attributeName="fill" to="#808080" begin="reset.mouseover" end="reset.mouseout"/>
                       </use>
               </g>
        </defs>

<script type="text/javascript">
var viewWidth = 1618;
var viewHeight = 886;
var sectionId = 'dynsection-0';
</script>
<script xlink:href="svgpan.js"/>
<svg id="graph" class="graph">
<g id="viewport">
<title>Urho3D::ShaderParameter</title>
<!-- Node1 -->
<g id="node1" class="node"><title>Node1</title>
<polygon fill="#bfbfbf" stroke="black" points="1063,-842.5 1063,-863.5 1207,-863.5 1207,-842.5 1063,-842.5"/>
<text text-anchor="middle" x="1135" y="-850.5" font-family="FreeSans" font-size="10.00">Urho3D::ShaderParameter</text>
</g>
<!-- Node2 -->
<g id="node2" class="node"><title>Node2</title>
<a xlink:href="class_urho3_d_1_1_constant_buffer.html" target="_top" xlink:title="Hardware constant buffer.">
<polygon fill="none" stroke="black" points="735.5,-840.5 735.5,-861.5 866.5,-861.5 866.5,-840.5 735.5,-840.5"/>
<text text-anchor="middle" x="801" y="-848.5" font-family="FreeSans" font-size="10.00">Urho3D::ConstantBuffer</text>
</a>
</g>
<!-- Node2&#45;&gt;Node1 -->
<g id="edge2" class="edge"><title>Node2&#45;&gt;Node1</title>
<path fill="none" stroke="#9a32cd" stroke-dasharray="5,2" d="M876.771,-851.454C932.575,-851.788 1007.99,-852.239 1062.9,-852.568"/>
<polygon fill="#9a32cd" stroke="#9a32cd" points="876.61,-847.953 866.589,-851.393 876.568,-854.953 876.61,-847.953"/>
<text text-anchor="middle" x="983" y="-856" font-family="FreeSans" font-size="10.00"> bufferPtr_</text>
</g>
<!-- Node23 -->
<g id="node55" class="node"><title>Node23</title>
<a xlink:href="class_urho3_d_1_1_graphics.html" target="_top" xlink:title="Graphics subsystem. Manages the application window, rendering state and GPU resources.">
<polygon fill="none" stroke="red" points="1084.5,-763.5 1084.5,-784.5 1185.5,-784.5 1185.5,-763.5 1084.5,-763.5"/>
<text text-anchor="middle" x="1135" y="-771.5" font-family="FreeSans" font-size="10.00">Urho3D::Graphics</text>
</a>
</g>
<!-- Node2&#45;&gt;Node23 -->
<g id="edge74" class="edge"><title>Node2&#45;&gt;Node23</title>
<path fill="none" stroke="#9a32cd" stroke-dasharray="5,2" d="M870.107,-838.566C918.954,-829.344 985.823,-815.84 1044,-801 1063.16,-796.112 1084.35,-789.874 1101.46,-784.625"/>
<polygon fill="#9a32cd" stroke="#9a32cd" points="869.46,-835.127 860.277,-840.411 870.751,-842.007 869.46,-835.127"/>
<text text-anchor="middle" x="983" y="-831" font-family="FreeSans" font-size="10.00"> currentConstantBuffers_</text>
</g>
<!-- Node3 -->
<g id="node4" class="node"><title>Node3</title>
<a xlink:href="class_urho3_d_1_1_object.html" target="_top" xlink:title="Base class for objects with type identification, subsystem access and event sending/receiving capabil...">
<polygon fill="none" stroke="black" points="493,-710.5 493,-731.5 583,-731.5 583,-710.5 493,-710.5"/>
<text text-anchor="middle" x="538" y="-718.5" font-family="FreeSans" font-size="10.00">Urho3D::Object</text>
</a>
</g>
<!-- Node3&#45;&gt;Node2 -->
<g id="edge4" class="edge"><title>Node3&#45;&gt;Node2</title>
<path fill="none" stroke="midnightblue" d="M560.265,-738.006C596.952,-765.731 668.932,-818.812 698,-831 709.675,-835.896 722.603,-839.607 735.242,-842.416"/>
<polygon fill="midnightblue" stroke="midnightblue" points="562.246,-735.115 552.163,-731.861 558.016,-740.693 562.246,-735.115"/>
</g>
<!-- Node9 -->
<g id="node17" class="node"><title>Node9</title>
<a xlink:href="class_urho3_d_1_1_event_handler.html" target="_top" xlink:title="Internal helper class for invoking event handler functions.">
<polygon fill="none" stroke="black" points="739,-587.5 739,-608.5 863,-608.5 863,-587.5 739,-587.5"/>
<text text-anchor="middle" x="801" y="-595.5" font-family="FreeSans" font-size="10.00">Urho3D::EventHandler</text>
</a>
</g>
<!-- Node3&#45;&gt;Node9 -->
<g id="edge24" class="edge"><title>Node3&#45;&gt;Node9</title>
<path fill="none" stroke="#9a32cd" stroke-dasharray="5,2" d="M592.42,-709.712C596.681,-707.336 600.63,-704.466 604,-701 625.196,-679.202 599.84,-655.818 622,-635 638.768,-619.247 693.967,-609.469 738.683,-603.951"/>
<polygon fill="#9a32cd" stroke="#9a32cd" points="590.923,-706.548 583.321,-713.927 593.865,-712.899 590.923,-706.548"/>
<text text-anchor="middle" x="651" y="-652" font-family="FreeSans" font-size="10.00"> sender_</text>
<text text-anchor="middle" x="651" y="-639" font-family="FreeSans" font-size="10.00">receiver_</text>
</g>
<!-- Node3&#45;&gt;Node23 -->
<g id="edge68" class="edge"><title>Node3&#45;&gt;Node23</title>
<path fill="none" stroke="midnightblue" d="M593.388,-725.917C708.711,-736.155 973.098,-759.627 1084.27,-769.497"/>
<polygon fill="midnightblue" stroke="midnightblue" points="593.632,-722.425 583.362,-725.027 593.013,-729.398 593.632,-722.425"/>
</g>
<!-- Node4 -->
<g id="node6" class="node"><title>Node4</title>
<a xlink:href="class_urho3_d_1_1_ref_counted.html" target="_top" xlink:title="Base class for intrusively reference&#45;counted objects. These are noncopyable and non&#45;assignable.">
<polygon fill="none" stroke="black" points="188,-538.5 188,-559.5 302,-559.5 302,-538.5 188,-538.5"/>
<text text-anchor="middle" x="245" y="-546.5" font-family="FreeSans" font-size="10.00">Urho3D::RefCounted</text>
</a>
</g>
<!-- Node4&#45;&gt;Node3 -->
<g id="edge6" class="edge"><title>Node4&#45;&gt;Node3</title>
<path fill="none" stroke="midnightblue" d="M265.886,-566.126C304.433,-596.989 390.299,-662.324 472,-701 479.683,-704.637 488.181,-707.795 496.452,-710.46"/>
<polygon fill="midnightblue" stroke="midnightblue" points="267.955,-563.297 257.975,-559.741 263.559,-568.745 267.955,-563.297"/>
</g>
<!-- Node6 -->
<g id="node10" class="node"><title>Node6</title>
<a xlink:href="class_urho3_d_1_1_context.html" target="_top" xlink:title="Urho3D execution context. Provides access to subsystems, object factories and attributes, and event receivers.">
<polygon fill="none" stroke="black" points="1086.5,-343.5 1086.5,-364.5 1183.5,-364.5 1183.5,-343.5 1086.5,-343.5"/>
<text text-anchor="middle" x="1135" y="-351.5" font-family="FreeSans" font-size="10.00">Urho3D::Context</text>
</a>
</g>
<!-- Node4&#45;&gt;Node6 -->
<g id="edge12" class="edge"><title>Node4&#45;&gt;Node6</title>
<path fill="none" stroke="midnightblue" d="M312.136,-549.842C456.443,-551.214 792.15,-551.951 904,-531 968.942,-518.836 991.244,-520.777 1044,-481 1087.53,-448.177 1118.8,-388.605 1130.23,-364.522"/>
<polygon fill="midnightblue" stroke="midnightblue" points="312.117,-546.341 302.082,-549.742 312.047,-553.341 312.117,-546.341"/>
</g>
<!-- Node5 -->
<g id="node8" class="node"><title>Node5</title>
<a xlink:href="struct_urho3_d_1_1_ref_count.html" target="_top" xlink:title="Reference count structure.">
<polygon fill="none" stroke="black" points="0,-538.5 0,-559.5 102,-559.5 102,-538.5 0,-538.5"/>
<text text-anchor="middle" x="51" y="-546.5" font-family="FreeSans" font-size="10.00">Urho3D::RefCount</text>
</a>
</g>
<!-- Node5&#45;&gt;Node4 -->
<g id="edge8" class="edge"><title>Node5&#45;&gt;Node4</title>
<path fill="none" stroke="#9a32cd" stroke-dasharray="5,2" d="M112.327,-549C136.436,-549 163.96,-549 187.666,-549"/>
<polygon fill="#9a32cd" stroke="#9a32cd" points="112.225,-545.5 102.225,-549 112.225,-552.5 112.225,-545.5"/>
<text text-anchor="middle" x="145" y="-553" font-family="FreeSans" font-size="10.00"> refCount_</text>
</g>
<!-- Node22 -->
<g id="node53" class="node"><title>Node22</title>
<a xlink:href="class_urho3_d_1_1_weak_ptr.html" target="_top" xlink:title="Urho3D::WeakPtr\&lt; Urho3D\l::Graphics \&gt;">
<polygon fill="none" stroke="black" points="1266,-757 1266,-791 1412,-791 1412,-757 1266,-757"/>
<text text-anchor="start" x="1274" y="-778" font-family="FreeSans" font-size="10.00">Urho3D::WeakPtr&lt; Urho3D</text>
<text text-anchor="middle" x="1339" y="-765" font-family="FreeSans" font-size="10.00">::Graphics &gt;</text>
</a>
</g>
<!-- Node5&#45;&gt;Node22 -->
<g id="edge76" class="edge"><title>Node5&#45;&gt;Node22</title>
<path fill="none" stroke="#9a32cd" stroke-dasharray="5,2" d="M53.698,-527.879C67.146,-427.102 130.872,-0 245,-0 245,-0 245,-0 1135,-0 1297.07,-0 1333.16,-642.546 1338.29,-756.749"/>
<polygon fill="#9a32cd" stroke="#9a32cd" points="50.1964,-527.663 52.3672,-538.034 57.1371,-528.573 50.1964,-527.663"/>
<text text-anchor="middle" x="651" y="-4" font-family="FreeSans" font-size="10.00"> refCount_</text>
</g>
<!-- Node25 -->
<g id="node63" class="node"><title>Node25</title>
<a xlink:href="class_urho3_d_1_1_shared_array_ptr.html" target="_top" xlink:title="Urho3D::SharedArrayPtr\l\&lt; unsigned char \&gt;">
<polygon fill="none" stroke="black" points="320.5,-738 320.5,-772 453.5,-772 453.5,-738 320.5,-738"/>
<text text-anchor="start" x="328.5" y="-759" font-family="FreeSans" font-size="10.00">Urho3D::SharedArrayPtr</text>
<text text-anchor="middle" x="387" y="-746" font-family="FreeSans" font-size="10.00">&lt; unsigned char &gt;</text>
</a>
</g>
<!-- Node5&#45;&gt;Node25 -->
<g id="edge80" class="edge"><title>Node5&#45;&gt;Node25</title>
<path fill="none" stroke="#9a32cd" stroke-dasharray="5,2" d="M77.4311,-565.205C139.788,-603.436 295.602,-698.965 359.253,-737.988"/>
<polygon fill="#9a32cd" stroke="#9a32cd" points="78.9464,-562.028 68.5917,-559.785 75.2876,-567.996 78.9464,-562.028"/>
<text text-anchor="middle" x="145" y="-625" font-family="FreeSans" font-size="10.00"> refCount_</text>
</g>
<!-- Node6&#45;&gt;Node3 -->
<g id="edge10" class="edge"><title>Node6&#45;&gt;Node3</title>
<path fill="none" stroke="#9a32cd" stroke-dasharray="5,2" d="M1130.76,-374.57C1118.71,-431.096 1082.58,-586.793 1044,-620 1014.38,-645.49 736.245,-674.982 698,-683 657.622,-691.465 611.85,-702.481 579.638,-710.471"/>
<polygon fill="#9a32cd" stroke="#9a32cd" points="1134.22,-375.159 1132.85,-364.653 1127.37,-373.72 1134.22,-375.159"/>
<text text-anchor="middle" x="801" y="-687" font-family="FreeSans" font-size="10.00"> context_</text>
</g>
<!-- Node7 -->
<g id="node13" class="node"><title>Node7</title>
<a xlink:href="class_urho3_d_1_1_p_o_d_vector.html" target="_top" xlink:title="Urho3D::PODVector\&lt;\l Urho3D::Object * \&gt;">
<polygon fill="none" stroke="black" points="741.5,-80 741.5,-114 860.5,-114 860.5,-80 741.5,-80"/>
<text text-anchor="start" x="749.5" y="-101" font-family="FreeSans" font-size="10.00">Urho3D::PODVector&lt;</text>
<text text-anchor="middle" x="801" y="-88" font-family="FreeSans" font-size="10.00"> Urho3D::Object * &gt;</text>
</a>
</g>
<!-- Node7&#45;&gt;Node6 -->
<g id="edge14" class="edge"><title>Node7&#45;&gt;Node6</title>
<path fill="none" stroke="#9a32cd" stroke-dasharray="5,2" d="M870.519,-100.92C923.544,-107.275 995.489,-123.575 1044,-165 1102.44,-214.899 1126.36,-310.937 1132.97,-343.159"/>
<polygon fill="#9a32cd" stroke="#9a32cd" points="870.839,-97.4342 860.514,-99.8112 870.067,-104.392 870.839,-97.4342"/>
<text text-anchor="middle" x="983" y="-169" font-family="FreeSans" font-size="10.00"> eventSenders_</text>
</g>
<!-- Node8 -->
<g id="node15" class="node"><title>Node8</title>
<a xlink:href="class_urho3_d_1_1_vector_base.html" target="_top" xlink:title="Vector base class.">
<polygon fill="none" stroke="black" points="481,-53.5 481,-74.5 595,-74.5 595,-53.5 481,-53.5"/>
<text text-anchor="middle" x="538" y="-61.5" font-family="FreeSans" font-size="10.00">Urho3D::VectorBase</text>
</a>
</g>
<!-- Node8&#45;&gt;Node7 -->
<g id="edge16" class="edge"><title>Node8&#45;&gt;Node7</title>
<path fill="none" stroke="midnightblue" d="M605.205,-72.4326C647.203,-77.7023 700.807,-84.4283 741.306,-89.5099"/>
<polygon fill="midnightblue" stroke="midnightblue" points="605.425,-68.9328 595.067,-71.1605 604.554,-75.8784 605.425,-68.9328"/>
</g>
<!-- Node16 -->
<g id="node36" class="node"><title>Node16</title>
<a xlink:href="class_urho3_d_1_1_p_o_d_vector.html" target="_top" xlink:title="Urho3D::PODVector\&lt;\l Urho3D::HashMap * \&gt;">
<polygon fill="none" stroke="black" points="737.5,-28 737.5,-62 864.5,-62 864.5,-28 737.5,-28"/>
<text text-anchor="start" x="745.5" y="-49" font-family="FreeSans" font-size="10.00">Urho3D::PODVector&lt;</text>
<text text-anchor="middle" x="801" y="-36" font-family="FreeSans" font-size="10.00"> Urho3D::HashMap * &gt;</text>
</a>
</g>
<!-- Node8&#45;&gt;Node16 -->
<g id="edge44" class="edge"><title>Node8&#45;&gt;Node16</title>
<path fill="none" stroke="midnightblue" d="M605.136,-59.1499C645.714,-56.2184 697.146,-52.5028 737.123,-49.6147"/>
<polygon fill="midnightblue" stroke="midnightblue" points="604.789,-55.6657 595.067,-59.8773 605.293,-62.6475 604.789,-55.6657"/>
</g>
<!-- Node9&#45;&gt;Node6 -->
<g id="edge18" class="edge"><title>Node9&#45;&gt;Node6</title>
<path fill="none" stroke="#9a32cd" stroke-dasharray="5,2" d="M873.456,-605.553C925.871,-607.129 995.692,-600.758 1044,-564 1111.67,-512.51 1129.79,-400.359 1133.92,-364.945"/>
<polygon fill="#9a32cd" stroke="#9a32cd" points="873.349,-602.046 863.216,-605.138 873.066,-609.04 873.349,-602.046"/>
<text text-anchor="middle" x="983" y="-607" font-family="FreeSans" font-size="10.00"> eventHandler_</text>
</g>
<!-- Node20 -->
<g id="node48" class="node"><title>Node20</title>
<a xlink:href="class_urho3_d_1_1_linked_list.html" target="_top" xlink:title="Urho3D::LinkedList\l\&lt; Urho3D::EventHandler \&gt;">
<polygon fill="none" stroke="black" points="1062,-669 1062,-703 1208,-703 1208,-669 1062,-669"/>
<text text-anchor="start" x="1070" y="-690" font-family="FreeSans" font-size="10.00">Urho3D::LinkedList</text>
<text text-anchor="middle" x="1135" y="-677" font-family="FreeSans" font-size="10.00">&lt; Urho3D::EventHandler &gt;</text>
</a>
</g>
<!-- Node9&#45;&gt;Node20 -->
<g id="edge60" class="edge"><title>Node9&#45;&gt;Node20</title>
<path fill="none" stroke="#9a32cd" stroke-dasharray="5,2" d="M850.69,-611.092C909.092,-626.479 1006.17,-652.056 1070.37,-668.972"/>
<polygon fill="#9a32cd" stroke="#9a32cd" points="851.518,-607.691 840.956,-608.527 849.735,-614.46 851.518,-607.691"/>
<text text-anchor="middle" x="983" y="-663" font-family="FreeSans" font-size="10.00"> head_</text>
</g>
<!-- Node10 -->
<g id="node19" class="node"><title>Node10</title>
<a xlink:href="struct_urho3_d_1_1_linked_list_node.html" target="_top" xlink:title="Singly&#45;linked list node base class.">
<polygon fill="none" stroke="black" points="472,-568.5 472,-589.5 604,-589.5 604,-568.5 472,-568.5"/>
<text text-anchor="middle" x="538" y="-576.5" font-family="FreeSans" font-size="10.00">Urho3D::LinkedListNode</text>
</a>
</g>
<!-- Node10&#45;&gt;Node9 -->
<g id="edge20" class="edge"><title>Node10&#45;&gt;Node9</title>
<path fill="none" stroke="midnightblue" d="M614.457,-576.818C635.706,-576.805 658.773,-577.344 680,-579 701.624,-580.687 725.225,-584.046 745.796,-587.477"/>
<polygon fill="midnightblue" stroke="midnightblue" points="614.171,-573.319 604.188,-576.866 614.204,-580.319 614.171,-573.319"/>
</g>
<!-- Node10&#45;&gt;Node10 -->
<g id="edge22" class="edge"><title>Node10&#45;&gt;Node10</title>
<path fill="none" stroke="#9a32cd" stroke-dasharray="5,2" d="M517.36,-599.427C518.952,-604.349 525.832,-608 538,-608 557.469,-608 563.401,-598.653 555.796,-589.708"/>
<polygon fill="#9a32cd" stroke="#9a32cd" points="520.754,-600.288 520.204,-589.708 514.036,-598.322 520.754,-600.288"/>
<text text-anchor="middle" x="538" y="-612" font-family="FreeSans" font-size="10.00"> next_</text>
</g>
<!-- Node11 -->
<g id="node23" class="node"><title>Node11</title>
<a xlink:href="class_urho3_d_1_1_string_hash.html" target="_top" xlink:title="32&#45;bit hash value for a string.">
<polygon fill="none" stroke="black" points="481.5,-639.5 481.5,-660.5 594.5,-660.5 594.5,-639.5 481.5,-639.5"/>
<text text-anchor="middle" x="538" y="-647.5" font-family="FreeSans" font-size="10.00">Urho3D::StringHash</text>
</a>
</g>
<!-- Node11&#45;&gt;Node9 -->
<g id="edge26" class="edge"><title>Node11&#45;&gt;Node9</title>
<path fill="none" stroke="#9a32cd" stroke-dasharray="5,2" d="M597.097,-634.723C599.515,-633.287 601.83,-631.717 604,-630 616.493,-620.113 608.215,-606.987 622,-599 664.35,-574.461 722.344,-579.738 760.702,-587.432"/>
<polygon fill="#9a32cd" stroke="#9a32cd" points="595.306,-631.707 587.974,-639.355 598.475,-637.948 595.306,-631.707"/>
<text text-anchor="middle" x="651" y="-603" font-family="FreeSans" font-size="10.00"> eventType_</text>
</g>
<!-- Node11&#45;&gt;Node11 -->
<g id="edge28" class="edge"><title>Node11&#45;&gt;Node11</title>
<path fill="none" stroke="#9a32cd" stroke-dasharray="5,2" d="M517.36,-670.427C518.952,-675.349 525.832,-679 538,-679 557.469,-679 563.401,-669.653 555.796,-660.708"/>
<polygon fill="#9a32cd" stroke="#9a32cd" points="520.754,-671.288 520.204,-660.708 514.036,-669.322 520.754,-671.288"/>
<text text-anchor="middle" x="538" y="-683" font-family="FreeSans" font-size="10.00"> ZERO</text>
</g>
<!-- Node12 -->
<g id="node26" class="node"><title>Node12</title>
<a xlink:href="class_urho3_d_1_1_hash_map.html" target="_top" xlink:title="Urho3D::HashMap\&lt; Urho3D\l::StringHash, Urho3D::\lHashSet\&lt; Urho3D::Object * \&gt; \&gt;">
<polygon fill="none" stroke="black" points="714.5,-132.5 714.5,-179.5 887.5,-179.5 887.5,-132.5 714.5,-132.5"/>
<text text-anchor="start" x="722.5" y="-166.5" font-family="FreeSans" font-size="10.00">Urho3D::HashMap&lt; Urho3D</text>
<text text-anchor="start" x="722.5" y="-153.5" font-family="FreeSans" font-size="10.00">::StringHash, Urho3D::</text>
<text text-anchor="middle" x="801" y="-140.5" font-family="FreeSans" font-size="10.00">HashSet&lt; Urho3D::Object * &gt; &gt;</text>
</a>
</g>
<!-- Node12&#45;&gt;Node6 -->
<g id="edge30" class="edge"><title>Node12&#45;&gt;Node6</title>
<path fill="none" stroke="#9a32cd" stroke-dasharray="5,2" d="M897.696,-174.192C944.929,-186.422 1000.75,-206.122 1044,-237 1085.47,-266.606 1117.23,-320.405 1129.49,-343.263"/>
<polygon fill="#9a32cd" stroke="#9a32cd" points="898.307,-170.737 887.756,-171.694 896.601,-177.526 898.307,-170.737"/>
<text text-anchor="middle" x="983" y="-241" font-family="FreeSans" font-size="10.00"> eventReceivers_</text>
</g>
<!-- Node13 -->
<g id="node28" class="node"><title>Node13</title>
<a xlink:href="class_urho3_d_1_1_hash_base.html" target="_top" xlink:title="Hash set/map base class.">
<polygon fill="none" stroke="red" points="484,-315.5 484,-336.5 592,-336.5 592,-315.5 484,-315.5"/>
<text text-anchor="middle" x="538" y="-323.5" font-family="FreeSans" font-size="10.00">Urho3D::HashBase</text>
</a>
</g>
<!-- Node13&#45;&gt;Node12 -->
<g id="edge32" class="edge"><title>Node13&#45;&gt;Node12</title>
<path fill="none" stroke="midnightblue" d="M554.219,-308.1C581.332,-279.177 638.749,-222.072 698,-189 704.149,-185.568 710.706,-182.434 717.42,-179.583"/>
<polygon fill="midnightblue" stroke="midnightblue" points="551.624,-305.751 547.399,-315.467 556.761,-310.507 551.624,-305.751"/>
</g>
<!-- Node14 -->
<g id="node30" class="node"><title>Node14</title>
<a xlink:href="class_urho3_d_1_1_hash_map.html" target="_top" xlink:title="Urho3D::HashMap\&lt; Urho3D\l::Object *, Urho3D::HashMap\l\&lt; Urho3D::StringHash, Urho3D\l::HashSet\&lt; Urho3D::Object * \&gt; \&gt; \&gt;">
<polygon fill="none" stroke="black" points="705.5,-462 705.5,-522 896.5,-522 896.5,-462 705.5,-462"/>
<text text-anchor="start" x="713.5" y="-509" font-family="FreeSans" font-size="10.00">Urho3D::HashMap&lt; Urho3D</text>
<text text-anchor="start" x="713.5" y="-496" font-family="FreeSans" font-size="10.00">::Object *, Urho3D::HashMap</text>
<text text-anchor="start" x="713.5" y="-483" font-family="FreeSans" font-size="10.00">&lt; Urho3D::StringHash, Urho3D</text>
<text text-anchor="middle" x="801" y="-470" font-family="FreeSans" font-size="10.00">::HashSet&lt; Urho3D::Object * &gt; &gt; &gt;</text>
</a>
</g>
<!-- Node13&#45;&gt;Node14 -->
<g id="edge36" class="edge"><title>Node13&#45;&gt;Node14</title>
<path fill="none" stroke="midnightblue" d="M556.294,-343.697C584.662,-370.367 641.862,-421.123 698,-453 703.57,-456.163 709.446,-459.166 715.453,-461.997"/>
<polygon fill="midnightblue" stroke="midnightblue" points="558.426,-340.895 548.765,-336.545 553.604,-345.97 558.426,-340.895"/>
</g>
<!-- Node15 -->
<g id="node33" class="node"><title>Node15</title>
<a xlink:href="class_urho3_d_1_1_hash_map.html" target="_top" xlink:title="Urho3D::HashMap\&lt; Urho3D\l::StringHash, Urho3D::\lSharedPtr\&lt; Urho3D::Object \&gt; \&gt;">
<polygon fill="none" stroke="black" points="715,-396.5 715,-443.5 887,-443.5 887,-396.5 715,-396.5"/>
<text text-anchor="start" x="723" y="-430.5" font-family="FreeSans" font-size="10.00">Urho3D::HashMap&lt; Urho3D</text>
<text text-anchor="start" x="723" y="-417.5" font-family="FreeSans" font-size="10.00">::StringHash, Urho3D::</text>
<text text-anchor="middle" x="801" y="-404.5" font-family="FreeSans" font-size="10.00">SharedPtr&lt; Urho3D::Object &gt; &gt;</text>
</a>
</g>
<!-- Node13&#45;&gt;Node15 -->
<g id="edge40" class="edge"><title>Node13&#45;&gt;Node15</title>
<path fill="none" stroke="midnightblue" d="M573.916,-340.332C606.21,-353.065 655.033,-371.939 698,-387 706.949,-390.137 716.375,-393.32 725.742,-396.41"/>
<polygon fill="midnightblue" stroke="midnightblue" points="575.036,-337.011 564.45,-336.589 572.462,-343.521 575.036,-337.011"/>
</g>
<!-- Node17 -->
<g id="node39" class="node"><title>Node17</title>
<a xlink:href="class_urho3_d_1_1_hash_map.html" target="_top" xlink:title="Urho3D::HashMap\&lt; Urho3D\l::StringHash, Urho3D::\lSharedPtr\&lt; Urho3D::ObjectFactory \&gt; \&gt;">
<polygon fill="none" stroke="black" points="698,-264.5 698,-311.5 904,-311.5 904,-264.5 698,-264.5"/>
<text text-anchor="start" x="706" y="-298.5" font-family="FreeSans" font-size="10.00">Urho3D::HashMap&lt; Urho3D</text>
<text text-anchor="start" x="706" y="-285.5" font-family="FreeSans" font-size="10.00">::StringHash, Urho3D::</text>
<text text-anchor="middle" x="801" y="-272.5" font-family="FreeSans" font-size="10.00">SharedPtr&lt; Urho3D::ObjectFactory &gt; &gt;</text>
</a>
</g>
<!-- Node13&#45;&gt;Node17 -->
<g id="edge48" class="edge"><title>Node13&#45;&gt;Node17</title>
<path fill="none" stroke="midnightblue" d="M602.107,-316.737C630.924,-312.574 665.658,-307.555 697.98,-302.885"/>
<polygon fill="midnightblue" stroke="midnightblue" points="601.572,-313.278 592.175,-318.172 602.573,-320.206 601.572,-313.278"/>
</g>
<!-- Node18 -->
<g id="node42" class="node"><title>Node18</title>
<a xlink:href="class_urho3_d_1_1_hash_map.html" target="_top" xlink:title="Urho3D::HashMap\&lt; Urho3D\l::String, Urho3D::Vector\l\&lt; Urho3D::StringHash \&gt; \&gt;">
<polygon fill="none" stroke="black" points="725,-198.5 725,-245.5 877,-245.5 877,-198.5 725,-198.5"/>
<text text-anchor="start" x="733" y="-232.5" font-family="FreeSans" font-size="10.00">Urho3D::HashMap&lt; Urho3D</text>
<text text-anchor="start" x="733" y="-219.5" font-family="FreeSans" font-size="10.00">::String, Urho3D::Vector</text>
<text text-anchor="middle" x="801" y="-206.5" font-family="FreeSans" font-size="10.00">&lt; Urho3D::StringHash &gt; &gt;</text>
</a>
</g>
<!-- Node13&#45;&gt;Node18 -->
<g id="edge52" class="edge"><title>Node13&#45;&gt;Node18</title>
<path fill="none" stroke="midnightblue" d="M568.941,-311.078C600.87,-295.964 652.315,-272.397 698,-255 706.599,-251.726 715.679,-248.496 724.742,-245.413"/>
<polygon fill="midnightblue" stroke="midnightblue" points="567.213,-308.024 559.687,-315.481 570.221,-314.345 567.213,-308.024"/>
</g>
<!-- Node19 -->
<g id="node45" class="node"><title>Node19</title>
<a xlink:href="class_urho3_d_1_1_hash_map.html" target="_top" xlink:title="Urho3D::HashMap\&lt; Urho3D\l::StringHash, Urho3D::\lVector\&lt; Urho3D::AttributeInfo \&gt; \&gt;">
<polygon fill="none" stroke="black" points="709.5,-330.5 709.5,-377.5 892.5,-377.5 892.5,-330.5 709.5,-330.5"/>
<text text-anchor="start" x="717.5" y="-364.5" font-family="FreeSans" font-size="10.00">Urho3D::HashMap&lt; Urho3D</text>
<text text-anchor="start" x="717.5" y="-351.5" font-family="FreeSans" font-size="10.00">::StringHash, Urho3D::</text>
<text text-anchor="middle" x="801" y="-338.5" font-family="FreeSans" font-size="10.00">Vector&lt; Urho3D::AttributeInfo &gt; &gt;</text>
</a>
</g>
<!-- Node13&#45;&gt;Node19 -->
<g id="edge56" class="edge"><title>Node13&#45;&gt;Node19</title>
<path fill="none" stroke="midnightblue" d="M602.352,-332.851C634.536,-336.278 674.055,-340.485 709.346,-344.242"/>
<polygon fill="midnightblue" stroke="midnightblue" points="602.489,-329.346 592.175,-331.768 601.748,-336.307 602.489,-329.346"/>
</g>
<!-- Node14&#45;&gt;Node6 -->
<g id="edge34" class="edge"><title>Node14&#45;&gt;Node6</title>
<path fill="none" stroke="#9a32cd" stroke-dasharray="5,2" d="M906.395,-470.471C950.293,-459.28 1000.96,-443.384 1044,-422 1075.44,-406.38 1107.15,-379.606 1123.56,-364.741"/>
<polygon fill="#9a32cd" stroke="#9a32cd" points="905.41,-467.109 896.557,-472.93 907.107,-473.9 905.41,-467.109"/>
<text text-anchor="middle" x="983" y="-468" font-family="FreeSans" font-size="10.00"> specificEventReceivers_</text>
</g>
<!-- Node15&#45;&gt;Node6 -->
<g id="edge38" class="edge"><title>Node15&#45;&gt;Node6</title>
<path fill="none" stroke="#9a32cd" stroke-dasharray="5,2" d="M897.186,-409.606C942.13,-403.768 996.161,-395.341 1044,-384 1065.53,-378.897 1089.25,-370.999 1107.07,-364.587"/>
<polygon fill="#9a32cd" stroke="#9a32cd" points="896.627,-406.149 887.151,-410.886 897.513,-413.092 896.627,-406.149"/>
<text text-anchor="middle" x="983" y="-409" font-family="FreeSans" font-size="10.00"> subsystems_</text>
</g>
<!-- Node16&#45;&gt;Node6 -->
<g id="edge42" class="edge"><title>Node16&#45;&gt;Node6</title>
<path fill="none" stroke="#9a32cd" stroke-dasharray="5,2" d="M874.613,-41.9587C927.655,-43.6969 997.753,-54.6075 1044,-95 1083.84,-129.8 1123.02,-299.016 1132.72,-343.349"/>
<polygon fill="#9a32cd" stroke="#9a32cd" points="874.658,-38.4589 864.581,-41.7315 874.499,-45.4571 874.658,-38.4589"/>
<text text-anchor="middle" x="983" y="-99" font-family="FreeSans" font-size="10.00"> eventDataMaps_</text>
</g>
<!-- Node17&#45;&gt;Node6 -->
<g id="edge46" class="edge"><title>Node17&#45;&gt;Node6</title>
<path fill="none" stroke="#9a32cd" stroke-dasharray="5,2" d="M914.436,-310.416C972.911,-321.971 1041.19,-335.462 1086.11,-344.338"/>
<polygon fill="#9a32cd" stroke="#9a32cd" points="914.881,-306.936 904.392,-308.431 913.524,-313.803 914.881,-306.936"/>
<text text-anchor="middle" x="983" y="-338" font-family="FreeSans" font-size="10.00"> factories_</text>
</g>
<!-- Node18&#45;&gt;Node6 -->
<g id="edge50" class="edge"><title>Node18&#45;&gt;Node6</title>
<path fill="none" stroke="#9a32cd" stroke-dasharray="5,2" d="M887.055,-242.087C934.502,-254.663 993.794,-272.882 1044,-296 1073.1,-309.399 1103.93,-330.777 1121.19,-343.495"/>
<polygon fill="#9a32cd" stroke="#9a32cd" points="887.678,-238.632 877.118,-239.49 885.907,-245.405 887.678,-238.632"/>
<text text-anchor="middle" x="983" y="-300" font-family="FreeSans" font-size="10.00"> objectCategories_</text>
</g>
<!-- Node19&#45;&gt;Node6 -->
<g id="edge54" class="edge"><title>Node19&#45;&gt;Node6</title>
<path fill="none" stroke="#9a32cd" stroke-dasharray="5,2" d="M902.749,-354C963.677,-354 1038.35,-354 1086.3,-354"/>
<polygon fill="#9a32cd" stroke="#9a32cd" points="902.709,-350.5 892.709,-354 902.709,-357.5 902.709,-350.5"/>
<text text-anchor="middle" x="983" y="-371" font-family="FreeSans" font-size="10.00"> attributes_</text>
<text text-anchor="middle" x="983" y="-358" font-family="FreeSans" font-size="10.00">networkAttributes_</text>
</g>
<!-- Node20&#45;&gt;Node3 -->
<g id="edge58" class="edge"><title>Node20&#45;&gt;Node3</title>
<path fill="none" stroke="#9a32cd" stroke-dasharray="5,2" d="M1051.42,-690.9C923.434,-698.403 683.242,-712.485 583.362,-718.341"/>
<polygon fill="#9a32cd" stroke="#9a32cd" points="1051.79,-694.385 1061.57,-690.305 1051.38,-687.397 1051.79,-694.385"/>
<text text-anchor="middle" x="801" y="-715" font-family="FreeSans" font-size="10.00"> eventHandlers_</text>
</g>
<!-- Node21 -->
<g id="node51" class="node"><title>Node21</title>
<a xlink:href="class_urho3_d_1_1_g_p_u_object.html" target="_top" xlink:title="Base class for GPU resources.">
<polygon fill="none" stroke="black" points="1498.5,-844.5 1498.5,-865.5 1609.5,-865.5 1609.5,-844.5 1498.5,-844.5"/>
<text text-anchor="middle" x="1554" y="-852.5" font-family="FreeSans" font-size="10.00">Urho3D::GPUObject</text>
</a>
</g>
<!-- Node21&#45;&gt;Node2 -->
<g id="edge62" class="edge"><title>Node21&#45;&gt;Node2</title>
<path fill="none" stroke="midnightblue" d="M1488.44,-861.195C1373.48,-871 1128.14,-887.212 922,-869 902.431,-867.271 881.206,-864.442 862.077,-861.532"/>
<polygon fill="midnightblue" stroke="midnightblue" points="1488.83,-864.674 1498.49,-860.326 1488.23,-857.701 1488.83,-864.674"/>
</g>
<!-- Node22&#45;&gt;Node21 -->
<g id="edge64" class="edge"><title>Node22&#45;&gt;Node21</title>
<path fill="none" stroke="#9a32cd" stroke-dasharray="5,2" d="M1393.93,-794.693C1436.17,-810.607 1492.78,-831.935 1526.12,-844.498"/>
<polygon fill="#9a32cd" stroke="#9a32cd" points="1394.93,-791.329 1384.33,-791.079 1392.46,-797.88 1394.93,-791.329"/>
<text text-anchor="middle" x="1455" y="-830" font-family="FreeSans" font-size="10.00"> graphics_</text>
</g>
<!-- Node23&#45;&gt;Node22 -->
<g id="edge66" class="edge"><title>Node23&#45;&gt;Node22</title>
<path fill="none" stroke="#9a32cd" stroke-dasharray="5,2" d="M1195.88,-774C1217.86,-774 1242.91,-774 1265.83,-774"/>
<polygon fill="#9a32cd" stroke="#9a32cd" points="1195.69,-770.5 1185.69,-774 1195.69,-777.5 1195.69,-770.5"/>
<text text-anchor="middle" x="1237" y="-778" font-family="FreeSans" font-size="10.00"> ptr_</text>
</g>
<!-- Node24 -->
<g id="node58" class="node"><title>Node24</title>
<a xlink:href="class_urho3_d_1_1_int_rect.html" target="_top" xlink:title="Two&#45;dimensional bounding rectangle with integer values.">
<polygon fill="none" stroke="black" points="755,-769.5 755,-790.5 847,-790.5 847,-769.5 755,-769.5"/>
<text text-anchor="middle" x="801" y="-777.5" font-family="FreeSans" font-size="10.00">Urho3D::IntRect</text>
</a>
</g>
<!-- Node24&#45;&gt;Node23 -->
<g id="edge70" class="edge"><title>Node24&#45;&gt;Node23</title>
<path fill="none" stroke="#9a32cd" stroke-dasharray="5,2" d="M857.304,-777.245C877.681,-776.361 900.872,-775.486 922,-775 977.455,-773.724 1041.05,-773.6 1084.21,-773.716"/>
<polygon fill="#9a32cd" stroke="#9a32cd" points="857.076,-773.752 847.241,-777.692 857.386,-780.745 857.076,-773.752"/>
<text text-anchor="middle" x="983" y="-792" font-family="FreeSans" font-size="10.00"> viewport_</text>
<text text-anchor="middle" x="983" y="-779" font-family="FreeSans" font-size="10.00">scissorRect_</text>
</g>
<!-- Node24&#45;&gt;Node24 -->
<g id="edge72" class="edge"><title>Node24&#45;&gt;Node24</title>
<path fill="none" stroke="#9a32cd" stroke-dasharray="5,2" d="M773.21,-800.055C775.033,-805.164 784.296,-809 801,-809 827.074,-809 835.019,-799.653 824.833,-790.708"/>
<polygon fill="#9a32cd" stroke="#9a32cd" points="776.492,-801.281 777.167,-790.708 770.045,-798.553 776.492,-801.281"/>
<text text-anchor="middle" x="801" y="-813" font-family="FreeSans" font-size="10.00"> ZERO</text>
</g>
<!-- Node25&#45;&gt;Node2 -->
<g id="edge78" class="edge"><title>Node25&#45;&gt;Node2</title>
<path fill="none" stroke="#9a32cd" stroke-dasharray="5,2" d="M458.272,-774.671C504.725,-787.201 566.755,-803.39 622,-816 655.566,-823.662 664.212,-824.385 698,-831 713.821,-834.097 731.013,-837.443 746.737,-840.496"/>
<polygon fill="#9a32cd" stroke="#9a32cd" points="459.171,-771.288 448.604,-772.055 457.343,-778.045 459.171,-771.288"/>
<text text-anchor="middle" x="538" y="-815" font-family="FreeSans" font-size="10.00"> shadowData_</text>
</g>
</g>
</svg>
        <g id="navigator" transform="translate(0 0)" fill="#404254">
                <rect fill="#f2f5e9" fill-opacity="0.5" stroke="#606060" stroke-width=".5" x="0" y="0" width="60" height="60"/>
                <use id="zoomplus" xlink:href="#zoomPlus" x="17" y="9" onmousedown="handleZoom(evt,'in')"/>
                <use id="zoomminus" xlink:href="#zoomMin" x="42" y="9" onmousedown="handleZoom(evt,'out')"/>
                <use id="reset" xlink:href="#resetDef" x="30" y="36" onmousedown="handleReset()"/>
                <g id="arrowUp" xlink:href="#dirArrow" transform="translate(30 24)" onmousedown="handlePan(0,-1)">
                  <use xlink:href="#rim" fill="#404040">
                        <set attributeName="fill" to="#808080" begin="arrowUp.mouseover" end="arrowUp.mouseout"/>
                  </use>
                  <path fill="none" stroke="white" stroke-width="1.5" d="M0,-3.0v7 M-2.5,-0.5L0,-3.0L2.5,-0.5"/>
                </g>
                <g id="arrowRight" xlink:href="#dirArrow" transform="rotate(90) translate(36 -43)" onmousedown="handlePan(1,0)">
                  <use xlink:href="#rim" fill="#404040">
                        <set attributeName="fill" to="#808080" begin="arrowRight.mouseover" end="arrowRight.mouseout"/>
                  </use>
                  <path fill="none" stroke="white" stroke-width="1.5" d="M0,-3.0v7 M-2.5,-0.5L0,-3.0L2.5,-0.5"/>
                </g>
                <g id="arrowDown" xlink:href="#dirArrow" transform="rotate(180) translate(-30 -48)" onmousedown="handlePan(0,1)">
                  <use xlink:href="#rim" fill="#404040">
                        <set attributeName="fill" to="#808080" begin="arrowDown.mouseover" end="arrowDown.mouseout"/>
                  </use>
                  <path fill="none" stroke="white" stroke-width="1.5" d="M0,-3.0v7 M-2.5,-0.5L0,-3.0L2.5,-0.5"/>
                </g>
                <g id="arrowLeft" xlink:href="#dirArrow" transform="rotate(270) translate(-36 17)" onmousedown="handlePan(-1,0)">
                  <use xlink:href="#rim" fill="#404040">
                        <set attributeName="fill" to="#808080" begin="arrowLeft.mouseover" end="arrowLeft.mouseout"/>
                  </use>
                  <path fill="none" stroke="white" stroke-width="1.5" d="M0,-3.0v7 M-2.5,-0.5L0,-3.0L2.5,-0.5"/>
                </g>
        </g>
        <svg viewBox="0 0 15 15" width="100%" height="30px" preserveAspectRatio="xMaxYMin meet">
         <g id="arrow_out" transform="scale(0.3 0.3)">
          <a xlink:href="struct_urho3_d_1_1_shader_parameter__coll__graph_org.svg" target="_base">
           <rect id="button" ry="5" rx="5" y="6" x="6" height="38" width="38"
                fill="#f2f5e9" fill-opacity="0.5" stroke="#606060" stroke-width="1.0"/>
           <path id="arrow"
             d="M 11.500037,31.436501 C 11.940474,20.09759 22.043105,11.32322 32.158766,21.979434 L 37.068811,17.246167 C 37.068811,17.246167 37.088388,32 37.088388,32 L 22.160133,31.978069 C 22.160133,31.978069 26.997745,27.140456 26.997745,27.140456 C 18.528582,18.264221 13.291696,25.230495 11.500037,31.436501 z"
             style="fill:#404040;"/>
          </a>
         </g>
        </svg>
</svg>
