<?xml version="1.0" encoding="UTF-8" standalone="no"?>
<!DOCTYPE svg PUBLIC "-//W3C//DTD SVG 1.1//EN"
 "http://www.w3.org/Graphics/SVG/1.1/DTD/svg11.dtd">
<!-- Generated by graphviz version 2.26.3 (20100126.1600)
 -->
<!-- Title: Urho3D::Spriter::Entity Pages: 1 -->
<svg width="572pt" height="179pt"
 viewBox="0.00 0.00 572.00 179.00" xmlns="http://www.w3.org/2000/svg" xmlns:xlink="http://www.w3.org/1999/xlink">
<g id="graph1" class="graph" transform="scale(1 1) rotate(0) translate(4 175)">
<title>Urho3D::Spriter::Entity</title>
<!-- Node1 -->
<g id="node1" class="node"><title>Node1</title>
<polygon fill="#bfbfbf" stroke="black" points="438.5,-84.5 438.5,-105.5 563.5,-105.5 563.5,-84.5 438.5,-84.5"/>
<text text-anchor="middle" x="501" y="-92.5" font-family="FreeSans" font-size="10.00">Urho3D::Spriter::Entity</text>
</g>
<!-- Node2 -->
<g id="node2" class="node"><title>Node2</title>
<a xlink:href="class_urho3_d_1_1_p_o_d_vector.html" target="_top" xlink:title="Urho3D::PODVector\&lt;\l Urho3D::Spriter::Animation * \&gt;">
<polygon fill="none" stroke="black" points="152.5,-137 152.5,-171 321.5,-171 321.5,-137 152.5,-137"/>
<text text-anchor="start" x="160.5" y="-158" font-family="FreeSans" font-size="10.00">Urho3D::PODVector&lt;</text>
<text text-anchor="middle" x="237" y="-145" font-family="FreeSans" font-size="10.00"> Urho3D::Spriter::Animation * &gt;</text>
</a>
</g>
<!-- Node2&#45;&gt;Node1 -->
<g id="edge2" class="edge"><title>Node2&#45;&gt;Node1</title>
<path fill="none" stroke="#9a32cd" stroke-dasharray="5,2" d="M323.356,-134.701C366.762,-125 417.677,-113.621 453.845,-105.538"/>
<polygon fill="#9a32cd" stroke="#9a32cd" points="322.356,-131.338 313.36,-136.935 323.882,-138.169 322.356,-131.338"/>
<text text-anchor="middle" x="380" y="-133" font-family="FreeSans" font-size="10.00"> animations_</text>
</g>
<!-- Node3 -->
<g id="node4" class="node"><title>Node3</title>
<a xlink:href="class_urho3_d_1_1_vector_base.html" target="_top" xlink:title="Vector base class.">
<polygon fill="none" stroke="black" points="0,-117.5 0,-138.5 114,-138.5 114,-117.5 0,-117.5"/>
<text text-anchor="middle" x="57" y="-125.5" font-family="FreeSans" font-size="10.00">Urho3D::VectorBase</text>
</a>
</g>
<!-- Node3&#45;&gt;Node2 -->
<g id="edge4" class="edge"><title>Node3&#45;&gt;Node2</title>
<path fill="none" stroke="midnightblue" d="M124.503,-137.75C133.55,-139.057 142.92,-140.411 152.216,-141.753"/>
<polygon fill="midnightblue" stroke="midnightblue" points="124.846,-134.264 114.448,-136.298 123.845,-141.192 124.846,-134.264"/>
</g>
<!-- Node4 -->
<g id="node6" class="node"><title>Node4</title>
<a xlink:href="class_urho3_d_1_1_p_o_d_vector.html" target="_top" xlink:title="Urho3D::PODVector\&lt;\l Urho3D::Spriter::Character\lMap * \&gt;">
<polygon fill="none" stroke="black" points="163,-71.5 163,-118.5 311,-118.5 311,-71.5 163,-71.5"/>
<text text-anchor="start" x="171" y="-105.5" font-family="FreeSans" font-size="10.00">Urho3D::PODVector&lt;</text>
<text text-anchor="start" x="171" y="-92.5" font-family="FreeSans" font-size="10.00"> Urho3D::Spriter::Character</text>
<text text-anchor="middle" x="237" y="-79.5" font-family="FreeSans" font-size="10.00">Map * &gt;</text>
</a>
</g>
<!-- Node3&#45;&gt;Node4 -->
<g id="edge8" class="edge"><title>Node3&#45;&gt;Node4</title>
<path fill="none" stroke="midnightblue" d="M124.391,-115.645C136.983,-113.336 150.206,-110.912 162.986,-108.569"/>
<polygon fill="midnightblue" stroke="midnightblue" points="123.653,-112.222 114.448,-117.468 124.915,-119.107 123.653,-112.222"/>
</g>
<!-- Node4&#45;&gt;Node1 -->
<g id="edge6" class="edge"><title>Node4&#45;&gt;Node1</title>
<path fill="none" stroke="#9a32cd" stroke-dasharray="5,2" d="M321.28,-95C359.313,-95 403.453,-95 438.471,-95"/>
<polygon fill="#9a32cd" stroke="#9a32cd" points="321.241,-91.5001 311.241,-95 321.241,-98.5001 321.241,-91.5001"/>
<text text-anchor="middle" x="380" y="-99" font-family="FreeSans" font-size="10.00"> characterMaps_</text>
</g>
<!-- Node5 -->
<g id="node9" class="node"><title>Node5</title>
<a xlink:href="class_urho3_d_1_1_string.html" target="_top" xlink:title="String class.">
<polygon fill="none" stroke="black" points="193,-0.5 193,-21.5 281,-21.5 281,-0.5 193,-0.5"/>
<text text-anchor="middle" x="237" y="-8.5" font-family="FreeSans" font-size="10.00">Urho3D::String</text>
</a>
</g>
<!-- Node5&#45;&gt;Node1 -->
<g id="edge10" class="edge"><title>Node5&#45;&gt;Node1</title>
<path fill="none" stroke="#9a32cd" stroke-dasharray="5,2" d="M279.855,-24.6357C332.334,-41.3336 420.102,-69.2597 467.76,-84.4235"/>
<polygon fill="#9a32cd" stroke="#9a32cd" points="280.759,-21.2505 270.168,-21.5536 278.636,-27.921 280.759,-21.2505"/>
<text text-anchor="middle" x="380" y="-72" font-family="FreeSans" font-size="10.00"> name_</text>
</g>
<!-- Node5&#45;&gt;Node5 -->
<g id="edge12" class="edge"><title>Node5&#45;&gt;Node5</title>
<path fill="none" stroke="#9a32cd" stroke-dasharray="5,2" d="M217.834,-31.4266C219.312,-36.3489 225.701,-40 237,-40 255.078,-40 260.586,-30.6531 253.525,-21.7079"/>
<polygon fill="#9a32cd" stroke="#9a32cd" points="221.23,-32.2758 220.475,-21.7079 214.475,-30.4398 221.23,-32.2758"/>
<text text-anchor="middle" x="237" y="-44" font-family="FreeSans" font-size="10.00"> EMPTY</text>
</g>
</g>
</svg>
