<?xml version="1.0" encoding="UTF-8" standalone="no"?>
<!DOCTYPE svg PUBLIC "-//W3C//DTD SVG 1.1//EN"
 "http://www.w3.org/Graphics/SVG/1.1/DTD/svg11.dtd">
<!-- Generated by graphviz version 2.26.3 (20100126.1600)
 -->
<!-- Title: Urho3D::MaterialShaderParameter Pages: 1 -->
<svg width="1356pt" height="380pt"
 viewBox="0.00 0.00 1356.00 380.00" xmlns="http://www.w3.org/2000/svg" xmlns:xlink="http://www.w3.org/1999/xlink">
<g id="graph1" class="graph" transform="scale(1 1) rotate(0) translate(4 376)">
<title>Urho3D::MaterialShaderParameter</title>
<!-- Node1 -->
<g id="node1" class="node"><title>Node1</title>
<polygon fill="#bfbfbf" stroke="black" points="1166,-43.5 1166,-64.5 1348,-64.5 1348,-43.5 1166,-43.5"/>
<text text-anchor="middle" x="1257" y="-51.5" font-family="FreeSans" font-size="10.00">Urho3D::MaterialShaderParameter</text>
</g>
<!-- Node2 -->
<g id="node2" class="node"><title>Node2</title>
<a xlink:href="class_urho3_d_1_1_variant.html" target="_top" xlink:title="Variable that supports a fixed set of types.">
<polygon fill="none" stroke="black" points="1002.5,-141.5 1002.5,-162.5 1095.5,-162.5 1095.5,-141.5 1002.5,-141.5"/>
<text text-anchor="middle" x="1049" y="-149.5" font-family="FreeSans" font-size="10.00">Urho3D::Variant</text>
</a>
</g>
<!-- Node2&#45;&gt;Node1 -->
<g id="edge2" class="edge"><title>Node2&#45;&gt;Node1</title>
<path fill="none" stroke="#9a32cd" stroke-dasharray="5,2" d="M1080.72,-137.053C1123.24,-117.023 1197.62,-81.9768 1234.69,-64.5128"/>
<polygon fill="#9a32cd" stroke="#9a32cd" points="1079.21,-133.897 1071.66,-141.326 1082.19,-140.23 1079.21,-133.897"/>
<text text-anchor="middle" x="1131" y="-125" font-family="FreeSans" font-size="10.00"> value_</text>
</g>
<!-- Node2&#45;&gt;Node2 -->
<g id="edge12" class="edge"><title>Node2&#45;&gt;Node2</title>
<path fill="none" stroke="#9a32cd" stroke-dasharray="5,2" d="M1033.98,-172.793C1035.31,-177.529 1040.31,-181 1049,-181 1063.25,-181 1067.6,-171.653 1062.03,-162.708"/>
<polygon fill="#9a32cd" stroke="#9a32cd" points="1037.47,-173.196 1035.97,-162.708 1030.6,-171.842 1037.47,-173.196"/>
<text text-anchor="middle" x="1049" y="-185" font-family="FreeSans" font-size="10.00"> EMPTY</text>
</g>
<!-- Node3 -->
<g id="node4" class="node"><title>Node3</title>
<a xlink:href="class_urho3_d_1_1_vector.html" target="_top" xlink:title="Vector template class.">
<polygon fill="none" stroke="black" points="573,-67.5 573,-88.5 691,-88.5 691,-67.5 573,-67.5"/>
<text text-anchor="middle" x="632" y="-75.5" font-family="FreeSans" font-size="10.00">Urho3D::Vector&lt; T &gt;</text>
</a>
</g>
<!-- Node3&#45;&gt;Node2 -->
<g id="edge4" class="edge"><title>Node3&#45;&gt;Node2</title>
<path fill="none" stroke="#9a32cd" stroke-dasharray="5,2" d="M699.29,-66.0871C744.062,-60.1893 803.984,-56.2012 856,-66 925.755,-79.1405 1000.33,-121.55 1032.58,-141.475"/>
<polygon fill="#9a32cd" stroke="#9a32cd" points="698.54,-62.6574 689.114,-67.4945 699.499,-69.5914 698.54,-62.6574"/>
<text text-anchor="middle" x="783" y="-83" font-family="FreeSans" font-size="10.00"> emptyStringVector</text>
<text text-anchor="middle" x="783" y="-70" font-family="FreeSans" font-size="10.00">emptyVariantVector</text>
</g>
<!-- Node4 -->
<g id="node6" class="node"><title>Node4</title>
<a xlink:href="class_urho3_d_1_1_vector_base.html" target="_top" xlink:title="Vector base class.">
<polygon fill="none" stroke="black" points="202,-180.5 202,-201.5 316,-201.5 316,-180.5 202,-180.5"/>
<text text-anchor="middle" x="259" y="-188.5" font-family="FreeSans" font-size="10.00">Urho3D::VectorBase</text>
</a>
</g>
<!-- Node4&#45;&gt;Node3 -->
<g id="edge6" class="edge"><title>Node4&#45;&gt;Node3</title>
<path fill="none" stroke="midnightblue" d="M280.315,-174.149C308.596,-152.815 360.922,-116.82 412,-100 464.501,-82.7114 527.548,-77.9115 572.665,-77.0208"/>
<polygon fill="midnightblue" stroke="midnightblue" points="278.147,-171.401 272.338,-180.261 282.405,-176.957 278.147,-171.401"/>
</g>
<!-- Node5 -->
<g id="node8" class="node"><title>Node5</title>
<a xlink:href="class_urho3_d_1_1_p_o_d_vector.html" target="_top" xlink:title="Urho3D::PODVector\&lt;\l unsigned char \&gt;">
<polygon fill="none" stroke="black" points="572.5,-218 572.5,-252 691.5,-252 691.5,-218 572.5,-218"/>
<text text-anchor="start" x="580.5" y="-239" font-family="FreeSans" font-size="10.00">Urho3D::PODVector&lt;</text>
<text text-anchor="middle" x="632" y="-226" font-family="FreeSans" font-size="10.00"> unsigned char &gt;</text>
</a>
</g>
<!-- Node4&#45;&gt;Node5 -->
<g id="edge10" class="edge"><title>Node4&#45;&gt;Node5</title>
<path fill="none" stroke="midnightblue" d="M326.186,-202.445C332.203,-203.355 338.208,-204.222 344,-205 422.721,-215.573 513.975,-224.523 572.306,-229.825"/>
<polygon fill="midnightblue" stroke="midnightblue" points="326.501,-198.952 316.083,-200.88 325.429,-205.87 326.501,-198.952"/>
</g>
<!-- Node10 -->
<g id="node23" class="node"><title>Node10</title>
<a xlink:href="class_urho3_d_1_1_vector.html" target="_top" xlink:title="Urho3D::Vector\&lt; String \&gt;">
<polygon fill="none" stroke="black" points="412.5,-180.5 412.5,-201.5 553.5,-201.5 553.5,-180.5 412.5,-180.5"/>
<text text-anchor="middle" x="483" y="-188.5" font-family="FreeSans" font-size="10.00">Urho3D::Vector&lt; String &gt;</text>
</a>
</g>
<!-- Node4&#45;&gt;Node10 -->
<g id="edge30" class="edge"><title>Node4&#45;&gt;Node10</title>
<path fill="none" stroke="midnightblue" d="M326.299,-191C353.48,-191 384.864,-191 412.372,-191"/>
<polygon fill="midnightblue" stroke="midnightblue" points="326.104,-187.5 316.104,-191 326.104,-194.5 326.104,-187.5"/>
</g>
<!-- Node5&#45;&gt;Node2 -->
<g id="edge8" class="edge"><title>Node5&#45;&gt;Node2</title>
<path fill="none" stroke="#9a32cd" stroke-dasharray="5,2" d="M701.604,-239.62C774.56,-241.948 891.253,-238.463 984,-202 1006.26,-193.249 1027.3,-174.45 1039.13,-162.56"/>
<polygon fill="#9a32cd" stroke="#9a32cd" points="701.727,-236.122 691.606,-239.255 701.472,-243.117 701.727,-236.122"/>
<text text-anchor="middle" x="783" y="-245" font-family="FreeSans" font-size="10.00"> emptyBuffer</text>
</g>
<!-- Node6 -->
<g id="node12" class="node"><title>Node6</title>
<a xlink:href="struct_urho3_d_1_1_resource_ref.html" target="_top" xlink:title="Typed resource reference.">
<polygon fill="none" stroke="black" points="724.5,-101.5 724.5,-122.5 841.5,-122.5 841.5,-101.5 724.5,-101.5"/>
<text text-anchor="middle" x="783" y="-109.5" font-family="FreeSans" font-size="10.00">Urho3D::ResourceRef</text>
</a>
</g>
<!-- Node6&#45;&gt;Node2 -->
<g id="edge14" class="edge"><title>Node6&#45;&gt;Node2</title>
<path fill="none" stroke="#9a32cd" stroke-dasharray="5,2" d="M851.997,-117.457C890.954,-121.146 940.422,-126.851 984,-135 993.287,-136.737 1003.2,-139.076 1012.42,-141.463"/>
<polygon fill="#9a32cd" stroke="#9a32cd" points="852.097,-113.951 841.817,-116.516 851.452,-120.921 852.097,-113.951"/>
<text text-anchor="middle" x="929" y="-139" font-family="FreeSans" font-size="10.00"> emptyResourceRef</text>
</g>
<!-- Node7 -->
<g id="node14" class="node"><title>Node7</title>
<a xlink:href="class_urho3_d_1_1_string.html" target="_top" xlink:title="String class.">
<polygon fill="none" stroke="black" points="439,-0.5 439,-21.5 527,-21.5 527,-0.5 439,-0.5"/>
<text text-anchor="middle" x="483" y="-8.5" font-family="FreeSans" font-size="10.00">Urho3D::String</text>
</a>
</g>
<!-- Node7&#45;&gt;Node1 -->
<g id="edge50" class="edge"><title>Node7&#45;&gt;Node1</title>
<path fill="none" stroke="#9a32cd" stroke-dasharray="5,2" d="M537.304,-14.0169C668.367,-21.2982 1003.16,-39.8977 1165.71,-48.9281"/>
<polygon fill="#9a32cd" stroke="#9a32cd" points="537.291,-10.5108 527.112,-13.4507 536.902,-17.5001 537.291,-10.5108"/>
<text text-anchor="middle" x="929" y="-43" font-family="FreeSans" font-size="10.00"> name_</text>
</g>
<!-- Node7&#45;&gt;Node6 -->
<g id="edge16" class="edge"><title>Node7&#45;&gt;Node6</title>
<path fill="none" stroke="#9a32cd" stroke-dasharray="5,2" d="M537.098,-19.4796C598.509,-29.1519 690.459,-43.7952 692,-45 707.999,-57.5091 695.112,-73.1876 710,-87 716.678,-93.1955 724.959,-97.8636 733.52,-101.378"/>
<polygon fill="#9a32cd" stroke="#9a32cd" points="537.569,-16.0107 527.146,-17.9136 536.481,-22.9257 537.569,-16.0107"/>
<text text-anchor="middle" x="632" y="-49" font-family="FreeSans" font-size="10.00"> name_</text>
</g>
<!-- Node7&#45;&gt;Node7 -->
<g id="edge18" class="edge"><title>Node7&#45;&gt;Node7</title>
<path fill="none" stroke="#9a32cd" stroke-dasharray="5,2" d="M461.991,-31.4266C463.612,-36.3489 470.615,-40 483,-40 502.816,-40 508.854,-30.6531 501.113,-21.7079"/>
<polygon fill="#9a32cd" stroke="#9a32cd" points="465.385,-32.2909 464.887,-21.7079 458.677,-30.2922 465.385,-32.2909"/>
<text text-anchor="middle" x="483" y="-44" font-family="FreeSans" font-size="10.00"> EMPTY</text>
</g>
<!-- Node8 -->
<g id="node17" class="node"><title>Node8</title>
<a xlink:href="class_urho3_d_1_1_string_hash.html" target="_top" xlink:title="32&#45;bit hash value for a string.">
<polygon fill="none" stroke="black" points="426.5,-109.5 426.5,-130.5 539.5,-130.5 539.5,-109.5 426.5,-109.5"/>
<text text-anchor="middle" x="483" y="-117.5" font-family="FreeSans" font-size="10.00">Urho3D::StringHash</text>
</a>
</g>
<!-- Node8&#45;&gt;Node6 -->
<g id="edge20" class="edge"><title>Node8&#45;&gt;Node6</title>
<path fill="none" stroke="#9a32cd" stroke-dasharray="5,2" d="M550.02,-115.933C557.434,-115.573 564.876,-115.251 572,-115 623.441,-113.19 681.973,-112.463 724.319,-112.176"/>
<polygon fill="#9a32cd" stroke="#9a32cd" points="549.768,-112.441 539.958,-116.444 550.123,-119.432 549.768,-112.441"/>
<text text-anchor="middle" x="632" y="-119" font-family="FreeSans" font-size="10.00"> type_</text>
</g>
<!-- Node8&#45;&gt;Node8 -->
<g id="edge22" class="edge"><title>Node8&#45;&gt;Node8</title>
<path fill="none" stroke="#9a32cd" stroke-dasharray="5,2" d="M461.991,-140.427C463.612,-145.349 470.615,-149 483,-149 502.816,-149 508.854,-139.653 501.113,-130.708"/>
<polygon fill="#9a32cd" stroke="#9a32cd" points="465.385,-141.291 464.887,-130.708 458.677,-139.292 465.385,-141.291"/>
<text text-anchor="middle" x="483" y="-153" font-family="FreeSans" font-size="10.00"> ZERO</text>
</g>
<!-- Node9 -->
<g id="node20" class="node"><title>Node9</title>
<a xlink:href="struct_urho3_d_1_1_resource_ref_list.html" target="_top" xlink:title="List of typed resource references.">
<polygon fill="none" stroke="black" points="716,-141.5 716,-162.5 850,-162.5 850,-141.5 716,-141.5"/>
<text text-anchor="middle" x="783" y="-149.5" font-family="FreeSans" font-size="10.00">Urho3D::ResourceRefList</text>
</a>
</g>
<!-- Node8&#45;&gt;Node9 -->
<g id="edge26" class="edge"><title>Node8&#45;&gt;Node9</title>
<path fill="none" stroke="#9a32cd" stroke-dasharray="5,2" d="M549.745,-127.119C599.232,-132.398 666.414,-139.564 715.97,-144.85"/>
<polygon fill="#9a32cd" stroke="#9a32cd" points="550.095,-123.637 539.78,-126.057 549.353,-130.598 550.095,-123.637"/>
<text text-anchor="middle" x="632" y="-146" font-family="FreeSans" font-size="10.00"> type_</text>
</g>
<!-- Node9&#45;&gt;Node2 -->
<g id="edge24" class="edge"><title>Node9&#45;&gt;Node2</title>
<path fill="none" stroke="#9a32cd" stroke-dasharray="5,2" d="M860.365,-152C906.381,-152 963.236,-152 1002.43,-152"/>
<polygon fill="#9a32cd" stroke="#9a32cd" points="860.123,-148.5 850.123,-152 860.123,-155.5 860.123,-148.5"/>
<text text-anchor="middle" x="929" y="-156" font-family="FreeSans" font-size="10.00"> emptyResourceRefList</text>
</g>
<!-- Node10&#45;&gt;Node9 -->
<g id="edge28" class="edge"><title>Node10&#45;&gt;Node9</title>
<path fill="none" stroke="#9a32cd" stroke-dasharray="5,2" d="M563.683,-180.511C611.283,-174.323 670.822,-166.583 715.849,-160.73"/>
<polygon fill="#9a32cd" stroke="#9a32cd" points="563.181,-177.047 553.716,-181.807 564.084,-183.988 563.181,-177.047"/>
<text text-anchor="middle" x="632" y="-183" font-family="FreeSans" font-size="10.00"> names_</text>
</g>
<!-- Node11 -->
<g id="node26" class="node"><title>Node11</title>
<a xlink:href="class_urho3_d_1_1_hash_map.html" target="_top" xlink:title="Hash map template class.">
<polygon fill="none" stroke="black" points="710,-270.5 710,-291.5 856,-291.5 856,-270.5 710,-270.5"/>
<text text-anchor="middle" x="783" y="-278.5" font-family="FreeSans" font-size="10.00">Urho3D::HashMap&lt; T, U &gt;</text>
</a>
</g>
<!-- Node11&#45;&gt;Node2 -->
<g id="edge32" class="edge"><title>Node11&#45;&gt;Node2</title>
<path fill="none" stroke="#9a32cd" stroke-dasharray="5,2" d="M866.571,-284.791C904.97,-282.839 949.526,-275.033 984,-253 1018.26,-231.103 1038.04,-183.963 1045.52,-162.741"/>
<polygon fill="#9a32cd" stroke="#9a32cd" points="866.295,-281.299 856.437,-285.18 866.563,-288.293 866.295,-281.299"/>
<text text-anchor="middle" x="929" y="-288" font-family="FreeSans" font-size="10.00"> emptyVariantMap</text>
</g>
<!-- Node12 -->
<g id="node28" class="node"><title>Node12</title>
<a xlink:href="class_urho3_d_1_1_hash_base.html" target="_top" xlink:title="Hash set/map base class.">
<polygon fill="none" stroke="black" points="429,-270.5 429,-291.5 537,-291.5 537,-270.5 429,-270.5"/>
<text text-anchor="middle" x="483" y="-278.5" font-family="FreeSans" font-size="10.00">Urho3D::HashBase</text>
</a>
</g>
<!-- Node12&#45;&gt;Node11 -->
<g id="edge34" class="edge"><title>Node12&#45;&gt;Node11</title>
<path fill="none" stroke="midnightblue" d="M547.537,-281C595.243,-281 660.258,-281 709.885,-281"/>
<polygon fill="midnightblue" stroke="midnightblue" points="547.328,-277.5 537.328,-281 547.328,-284.5 547.328,-277.5"/>
</g>
<!-- Node13 -->
<g id="node30" class="node"><title>Node13</title>
<a xlink:href="struct_urho3_d_1_1_hash_node_base.html" target="_top" xlink:title="Hash set/map node base class.">
<polygon fill="none" stroke="black" points="192,-222.5 192,-243.5 326,-243.5 326,-222.5 192,-222.5"/>
<text text-anchor="middle" x="259" y="-230.5" font-family="FreeSans" font-size="10.00">Urho3D::HashNodeBase</text>
</a>
</g>
<!-- Node13&#45;&gt;Node12 -->
<g id="edge36" class="edge"><title>Node13&#45;&gt;Node12</title>
<path fill="none" stroke="#9a32cd" stroke-dasharray="5,2" d="M318.074,-245.659C354.192,-253.398 399.845,-263.181 433.957,-270.491"/>
<polygon fill="#9a32cd" stroke="#9a32cd" points="318.669,-242.207 308.158,-243.534 317.202,-249.051 318.669,-242.207"/>
<text text-anchor="middle" x="369" y="-292" font-family="FreeSans" font-size="10.00"> ptrs_</text>
<text text-anchor="middle" x="369" y="-279" font-family="FreeSans" font-size="10.00">tail_</text>
<text text-anchor="middle" x="369" y="-266" font-family="FreeSans" font-size="10.00">head_</text>
</g>
<!-- Node13&#45;&gt;Node13 -->
<g id="edge38" class="edge"><title>Node13&#45;&gt;Node13</title>
<path fill="none" stroke="#9a32cd" stroke-dasharray="5,2" d="M240.94,-253.427C242.333,-258.349 248.353,-262 259,-262 276.035,-262 281.226,-252.653 274.571,-243.708"/>
<polygon fill="#9a32cd" stroke="#9a32cd" points="244.338,-254.264 243.429,-243.708 237.557,-252.527 244.338,-254.264"/>
<text text-anchor="middle" x="259" y="-292" font-family="FreeSans" font-size="10.00"> next_</text>
<text text-anchor="middle" x="259" y="-279" font-family="FreeSans" font-size="10.00">prev_</text>
<text text-anchor="middle" x="259" y="-266" font-family="FreeSans" font-size="10.00">down_</text>
</g>
<!-- Node14 -->
<g id="node33" class="node"><title>Node14</title>
<a xlink:href="struct_urho3_d_1_1_allocator_block.html" target="_top" xlink:title="Allocator memory block.">
<polygon fill="none" stroke="black" points="195.5,-319.5 195.5,-340.5 322.5,-340.5 322.5,-319.5 195.5,-319.5"/>
<text text-anchor="middle" x="259" y="-327.5" font-family="FreeSans" font-size="10.00">Urho3D::AllocatorBlock</text>
</a>
</g>
<!-- Node14&#45;&gt;Node12 -->
<g id="edge40" class="edge"><title>Node14&#45;&gt;Node12</title>
<path fill="none" stroke="#9a32cd" stroke-dasharray="5,2" d="M331.802,-317.625C352.011,-313.889 373.916,-309.56 394,-305 411.323,-301.067 430.356,-296.033 446.359,-291.591"/>
<polygon fill="#9a32cd" stroke="#9a32cd" points="330.93,-314.226 321.721,-319.466 332.187,-321.112 330.93,-314.226"/>
<text text-anchor="middle" x="369" y="-318" font-family="FreeSans" font-size="10.00"> allocator_</text>
</g>
<!-- Node14&#45;&gt;Node14 -->
<g id="edge42" class="edge"><title>Node14&#45;&gt;Node14</title>
<path fill="none" stroke="#9a32cd" stroke-dasharray="5,2" d="M240.94,-350.427C242.333,-355.349 248.353,-359 259,-359 276.035,-359 281.226,-349.653 274.571,-340.708"/>
<polygon fill="#9a32cd" stroke="#9a32cd" points="244.338,-351.264 243.429,-340.708 237.557,-349.527 244.338,-351.264"/>
<text text-anchor="middle" x="259" y="-363" font-family="FreeSans" font-size="10.00"> next_</text>
</g>
<!-- Node15 -->
<g id="node36" class="node"><title>Node15</title>
<a xlink:href="struct_urho3_d_1_1_allocator_node.html" target="_top" xlink:title="Allocator node.">
<polygon fill="none" stroke="black" points="0.5,-319.5 0.5,-340.5 127.5,-340.5 127.5,-319.5 0.5,-319.5"/>
<text text-anchor="middle" x="64" y="-327.5" font-family="FreeSans" font-size="10.00">Urho3D::AllocatorNode</text>
</a>
</g>
<!-- Node15&#45;&gt;Node14 -->
<g id="edge44" class="edge"><title>Node15&#45;&gt;Node14</title>
<path fill="none" stroke="#9a32cd" stroke-dasharray="5,2" d="M137.645,-330C156.576,-330 176.785,-330 195.172,-330"/>
<polygon fill="#9a32cd" stroke="#9a32cd" points="137.581,-326.5 127.58,-330 137.58,-333.5 137.581,-326.5"/>
<text text-anchor="middle" x="160" y="-334" font-family="FreeSans" font-size="10.00"> free_</text>
</g>
<!-- Node15&#45;&gt;Node15 -->
<g id="edge46" class="edge"><title>Node15&#45;&gt;Node15</title>
<path fill="none" stroke="#9a32cd" stroke-dasharray="5,2" d="M46.3082,-350.427C47.6731,-355.349 53.5703,-359 64,-359 80.6875,-359 85.772,-349.653 79.2534,-340.708"/>
<polygon fill="#9a32cd" stroke="#9a32cd" points="49.7078,-351.259 48.7466,-340.708 42.9182,-349.556 49.7078,-351.259"/>
<text text-anchor="middle" x="64" y="-363" font-family="FreeSans" font-size="10.00"> next_</text>
</g>
<!-- Node16 -->
<g id="node39" class="node"><title>Node16</title>
<a xlink:href="struct_urho3_d_1_1_variant_value.html" target="_top" xlink:title="Union for the possible variant values. Also stores non&#45;POD objects such as String and math objects (e...">
<polygon fill="none" stroke="black" points="723.5,-181.5 723.5,-202.5 842.5,-202.5 842.5,-181.5 723.5,-181.5"/>
<text text-anchor="middle" x="783" y="-189.5" font-family="FreeSans" font-size="10.00">Urho3D::VariantValue</text>
</a>
</g>
<!-- Node16&#45;&gt;Node2 -->
<g id="edge48" class="edge"><title>Node16&#45;&gt;Node2</title>
<path fill="none" stroke="#9a32cd" stroke-dasharray="5,2" d="M852.849,-186.462C891.673,-182.771 940.739,-177.09 984,-169 993.287,-167.263 1003.2,-164.924 1012.42,-162.537"/>
<polygon fill="#9a32cd" stroke="#9a32cd" points="852.331,-182.995 842.697,-187.405 852.978,-189.965 852.331,-182.995"/>
<text text-anchor="middle" x="929" y="-189" font-family="FreeSans" font-size="10.00"> value_</text>
</g>
</g>
</svg>
