<?xml version="1.0" encoding="UTF-8" standalone="no"?>
<!DOCTYPE svg PUBLIC "-//W3C//DTD SVG 1.1//EN"
 "http://www.w3.org/Graphics/SVG/1.1/DTD/svg11.dtd">
<!-- Generated by graphviz version 2.26.3 (20100126.1600)
 -->
<!-- Title: Urho3D::Spriter::MainlineKey Pages: 1 -->
<svg width="160pt" height="188pt"
 viewBox="0.00 0.00 160.00 188.00" xmlns="http://www.w3.org/2000/svg" xmlns:xlink="http://www.w3.org/1999/xlink">
<g id="graph1" class="graph" transform="scale(1 1) rotate(0) translate(4 184)">
<title>Urho3D::Spriter::MainlineKey</title>
<!-- Node1 -->
<g id="node1" class="node"><title>Node1</title>
<polygon fill="#bfbfbf" stroke="black" points="-0.5,-0.5 -0.5,-21.5 152.5,-21.5 152.5,-0.5 -0.5,-0.5"/>
<text text-anchor="middle" x="76" y="-8.5" font-family="FreeSans" font-size="10.00">Urho3D::Spriter::MainlineKey</text>
</g>
<!-- Node2 -->
<g id="node2" class="node"><title>Node2</title>
<a xlink:href="class_urho3_d_1_1_p_o_d_vector.html" target="_top" xlink:title="Urho3D::PODVector\&lt;\l Urho3D::Spriter::Ref * \&gt;">
<polygon fill="none" stroke="black" points="9,-85 9,-119 143,-119 143,-85 9,-85"/>
<text text-anchor="start" x="17" y="-106" font-family="FreeSans" font-size="10.00">Urho3D::PODVector&lt;</text>
<text text-anchor="middle" x="76" y="-93" font-family="FreeSans" font-size="10.00"> Urho3D::Spriter::Ref * &gt;</text>
</a>
</g>
<!-- Node2&#45;&gt;Node1 -->
<g id="edge2" class="edge"><title>Node2&#45;&gt;Node1</title>
<path fill="none" stroke="#9a32cd" stroke-dasharray="5,2" d="M76,-74.7116C76,-56.8174 76,-34.4224 76,-21.5097"/>
<polygon fill="#9a32cd" stroke="#9a32cd" points="72.5001,-74.8836 76,-84.8836 79.5001,-74.8836 72.5001,-74.8836"/>
<text text-anchor="middle" x="103.5" y="-57" font-family="FreeSans" font-size="10.00"> boneRefs_</text>
<text text-anchor="middle" x="103.5" y="-44" font-family="FreeSans" font-size="10.00">objectRefs_</text>
</g>
<!-- Node3 -->
<g id="node4" class="node"><title>Node3</title>
<a xlink:href="class_urho3_d_1_1_vector_base.html" target="_top" xlink:title="Vector base class.">
<polygon fill="none" stroke="black" points="19,-158.5 19,-179.5 133,-179.5 133,-158.5 19,-158.5"/>
<text text-anchor="middle" x="76" y="-166.5" font-family="FreeSans" font-size="10.00">Urho3D::VectorBase</text>
</a>
</g>
<!-- Node3&#45;&gt;Node2 -->
<g id="edge4" class="edge"><title>Node3&#45;&gt;Node2</title>
<path fill="none" stroke="midnightblue" d="M76,-148.165C76,-138.797 76,-127.88 76,-119.014"/>
<polygon fill="midnightblue" stroke="midnightblue" points="72.5001,-148.235 76,-158.235 79.5001,-148.235 72.5001,-148.235"/>
</g>
</g>
</svg>
