<?xml version="1.0" encoding="UTF-8" standalone="no"?>
<!DOCTYPE svg PUBLIC "-//W3C//DTD SVG 1.1//EN"
 "http://www.w3.org/Graphics/SVG/1.1/DTD/svg11.dtd">
<!-- Generated by graphviz version 2.26.3 (20100126.1600)
 -->
<!-- Title: Urho3D::ResourceRefList Pages: 1 -->
<svg width="327pt" height="162pt"
 viewBox="0.00 0.00 327.00 162.00" xmlns="http://www.w3.org/2000/svg" xmlns:xlink="http://www.w3.org/1999/xlink">
<g id="graph1" class="graph" transform="scale(1 1) rotate(0) translate(4 158)">
<title>Urho3D::ResourceRefList</title>
<!-- Node1 -->
<g id="node1" class="node"><title>Node1</title>
<polygon fill="#bfbfbf" stroke="black" points="103,-0.5 103,-21.5 237,-21.5 237,-0.5 103,-0.5"/>
<text text-anchor="middle" x="170" y="-8.5" font-family="FreeSans" font-size="10.00">Urho3D::ResourceRefList</text>
</g>
<!-- Node2 -->
<g id="node2" class="node"><title>Node2</title>
<a xlink:href="class_urho3_d_1_1_string_hash.html" target="_top" xlink:title="32&#45;bit hash value for a string.">
<polygon fill="none" stroke="black" points="-0.5,-72.5 -0.5,-93.5 112.5,-93.5 112.5,-72.5 -0.5,-72.5"/>
<text text-anchor="middle" x="56" y="-80.5" font-family="FreeSans" font-size="10.00">Urho3D::StringHash</text>
</a>
</g>
<!-- Node2&#45;&gt;Node1 -->
<g id="edge2" class="edge"><title>Node2&#45;&gt;Node1</title>
<path fill="none" stroke="#9a32cd" stroke-dasharray="5,2" d="M81.2818,-67.0325C103.143,-53.2252 134.137,-33.6502 153.11,-21.6674"/>
<polygon fill="#9a32cd" stroke="#9a32cd" points="79.407,-64.077 72.8211,-72.3762 83.145,-69.9954 79.407,-64.077"/>
<text text-anchor="middle" x="138" y="-44.5" font-family="FreeSans" font-size="10.00"> type_</text>
</g>
<!-- Node2&#45;&gt;Node2 -->
<g id="edge4" class="edge"><title>Node2&#45;&gt;Node2</title>
<path fill="none" stroke="#9a32cd" stroke-dasharray="5,2" d="M123.021,-86.9956C127.37,-86.0636 130,-84.7317 130,-83 130,-80.1582 122.917,-78.3932 112.777,-77.7049"/>
<polygon fill="#9a32cd" stroke="#9a32cd" points="122.257,-83.5643 112.777,-88.2951 123.138,-90.5087 122.257,-83.5643"/>
<text text-anchor="middle" x="145.5" y="-80.5" font-family="FreeSans" font-size="10.00"> ZERO</text>
</g>
<!-- Node3 -->
<g id="node5" class="node"><title>Node3</title>
<a xlink:href="class_urho3_d_1_1_vector.html" target="_top" xlink:title="Urho3D::Vector\&lt; String \&gt;">
<polygon fill="none" stroke="black" points="178.5,-72.5 178.5,-93.5 319.5,-93.5 319.5,-72.5 178.5,-72.5"/>
<text text-anchor="middle" x="249" y="-80.5" font-family="FreeSans" font-size="10.00">Urho3D::Vector&lt; String &gt;</text>
</a>
</g>
<!-- Node3&#45;&gt;Node1 -->
<g id="edge6" class="edge"><title>Node3&#45;&gt;Node1</title>
<path fill="none" stroke="#9a32cd" stroke-dasharray="5,2" d="M229.633,-65.3488C214.626,-51.6714 194.326,-33.1709 181.705,-21.6674"/>
<polygon fill="#9a32cd" stroke="#9a32cd" points="227.595,-68.2269 237.343,-72.3762 232.31,-63.0533 227.595,-68.2269"/>
<text text-anchor="middle" x="237" y="-44.5" font-family="FreeSans" font-size="10.00"> names_</text>
</g>
<!-- Node4 -->
<g id="node7" class="node"><title>Node4</title>
<a xlink:href="class_urho3_d_1_1_vector_base.html" target="_top" xlink:title="Vector base class.">
<polygon fill="none" stroke="black" points="192,-132.5 192,-153.5 306,-153.5 306,-132.5 192,-132.5"/>
<text text-anchor="middle" x="249" y="-140.5" font-family="FreeSans" font-size="10.00">Urho3D::VectorBase</text>
</a>
</g>
<!-- Node4&#45;&gt;Node3 -->
<g id="edge8" class="edge"><title>Node4&#45;&gt;Node3</title>
<path fill="none" stroke="midnightblue" d="M249,-122.231C249,-112.592 249,-101.544 249,-93.6339"/>
<polygon fill="midnightblue" stroke="midnightblue" points="245.5,-122.273 249,-132.273 252.5,-122.273 245.5,-122.273"/>
</g>
</g>
</svg>
