<?xml version="1.0" encoding="UTF-8" standalone="no"?>
<!DOCTYPE svg PUBLIC "-//W3C//DTD SVG 1.1//EN"
 "http://www.w3.org/Graphics/SVG/1.1/DTD/svg11.dtd">
<!-- Generated by graphviz version 2.26.3 (20100126.1600)
 -->
<!-- Title: Urho3D::Spriter::CharacterMap Pages: 1 -->
<svg width="356pt" height="176pt"
 viewBox="0.00 0.00 356.00 176.00" xmlns="http://www.w3.org/2000/svg" xmlns:xlink="http://www.w3.org/1999/xlink">
<g id="graph1" class="graph" transform="scale(1 1) rotate(0) translate(4 172)">
<title>Urho3D::Spriter::CharacterMap</title>
<!-- Node1 -->
<g id="node1" class="node"><title>Node1</title>
<polygon fill="#bfbfbf" stroke="black" points="90.5,-0.5 90.5,-21.5 255.5,-21.5 255.5,-0.5 90.5,-0.5"/>
<text text-anchor="middle" x="173" y="-8.5" font-family="FreeSans" font-size="10.00">Urho3D::Spriter::CharacterMap</text>
</g>
<!-- Node2 -->
<g id="node2" class="node"><title>Node2</title>
<a xlink:href="class_urho3_d_1_1_p_o_d_vector.html" target="_top" xlink:title="Urho3D::PODVector\&lt;\l Urho3D::Spriter::MapInstruction * \&gt;">
<polygon fill="none" stroke="black" points="-0.5,-73 -0.5,-107 190.5,-107 190.5,-73 -0.5,-73"/>
<text text-anchor="start" x="7.5" y="-94" font-family="FreeSans" font-size="10.00">Urho3D::PODVector&lt;</text>
<text text-anchor="middle" x="95" y="-81" font-family="FreeSans" font-size="10.00"> Urho3D::Spriter::MapInstruction * &gt;</text>
</a>
</g>
<!-- Node2&#45;&gt;Node1 -->
<g id="edge2" class="edge"><title>Node2&#45;&gt;Node1</title>
<path fill="none" stroke="#9a32cd" stroke-dasharray="5,2" d="M119.189,-65.5009C133.745,-50.7586 151.533,-32.742 162.567,-21.5672"/>
<polygon fill="#9a32cd" stroke="#9a32cd" points="116.46,-63.2831 111.925,-72.8582 121.441,-68.2013 116.46,-63.2831"/>
<text text-anchor="middle" x="162" y="-44.5" font-family="FreeSans" font-size="10.00"> maps_</text>
</g>
<!-- Node3 -->
<g id="node4" class="node"><title>Node3</title>
<a xlink:href="class_urho3_d_1_1_vector_base.html" target="_top" xlink:title="Vector base class.">
<polygon fill="none" stroke="black" points="38,-146.5 38,-167.5 152,-167.5 152,-146.5 38,-146.5"/>
<text text-anchor="middle" x="95" y="-154.5" font-family="FreeSans" font-size="10.00">Urho3D::VectorBase</text>
</a>
</g>
<!-- Node3&#45;&gt;Node2 -->
<g id="edge4" class="edge"><title>Node3&#45;&gt;Node2</title>
<path fill="none" stroke="midnightblue" d="M95,-136.165C95,-126.797 95,-115.88 95,-107.014"/>
<polygon fill="midnightblue" stroke="midnightblue" points="91.5001,-136.235 95,-146.235 98.5001,-136.235 91.5001,-136.235"/>
</g>
<!-- Node4 -->
<g id="node6" class="node"><title>Node4</title>
<a xlink:href="class_urho3_d_1_1_string.html" target="_top" xlink:title="String class.">
<polygon fill="none" stroke="black" points="208,-79.5 208,-100.5 296,-100.5 296,-79.5 208,-79.5"/>
<text text-anchor="middle" x="252" y="-87.5" font-family="FreeSans" font-size="10.00">Urho3D::String</text>
</a>
</g>
<!-- Node4&#45;&gt;Node1 -->
<g id="edge6" class="edge"><title>Node4&#45;&gt;Node1</title>
<path fill="none" stroke="#9a32cd" stroke-dasharray="5,2" d="M233.897,-71.8969C218.402,-56.4022 196.616,-34.616 183.738,-21.7378"/>
<polygon fill="#9a32cd" stroke="#9a32cd" points="231.8,-74.7495 241.346,-79.3457 236.749,-69.7997 231.8,-74.7495"/>
<text text-anchor="middle" x="232.5" y="-44.5" font-family="FreeSans" font-size="10.00"> name_</text>
</g>
<!-- Node4&#45;&gt;Node4 -->
<g id="edge8" class="edge"><title>Node4&#45;&gt;Node4</title>
<path fill="none" stroke="#9a32cd" stroke-dasharray="5,2" d="M306.258,-95.3037C311.019,-94.1849 314,-92.417 314,-90 314,-86.1328 306.369,-83.9273 296.024,-83.3835"/>
<polygon fill="#9a32cd" stroke="#9a32cd" points="305.498,-91.8724 296.024,-96.6165 306.389,-98.8155 305.498,-91.8724"/>
<text text-anchor="middle" x="331" y="-87.5" font-family="FreeSans" font-size="10.00"> EMPTY</text>
</g>
</g>
</svg>
