<?xml version="1.0" encoding="UTF-8" standalone="no"?>
<!DOCTYPE svg PUBLIC "-//W3C//DTD SVG 1.1//EN"
 "http://www.w3.org/Graphics/SVG/1.1/DTD/svg11.dtd">
<!-- Generated by graphviz version 2.26.3 (20100126.1600)
 -->
<!-- Title: Urho3D::FrameBufferObject Pages: 1 -->
<!--zoomable 1030 -->
<svg id="main" version="1.1" xmlns="http://www.w3.org/2000/svg" xmlns:xlink="http://www.w3.org/1999/xlink" xml:space="preserve" onload="init(evt)">
        <defs>
                <circle id="rim" cx="0" cy="0" r="7"/>
                <circle id="rim2" cx="0" cy="0" r="3.5"/>
                <g id="zoomPlus">
                        <use xlink:href="#rim" fill="#404040">
                                <set attributeName="fill" to="#808080" begin="zoomplus.mouseover" end="zoomplus.mouseout"/>
                        </use>
                        <path d="M-4,0h8M0,-4v8" fill="none" stroke="white" stroke-width="1.5" pointer-events="none"/>
                </g>
                <g id="zoomMin">
                        <use xlink:href="#rim" fill="#404040">
                                <set attributeName="fill" to="#808080" begin="zoomminus.mouseover" end="zoomminus.mouseout"/>
                        </use>
                        <path d="M-4,0h8" fill="none" stroke="white" stroke-width="1.5" pointer-events="none"/>
                </g>
                <g id="dirArrow">
                        <path fill="none" stroke="white" stroke-width="1.5" d="M0,-3.0v7 M-2.5,-0.5L0,-3.0L2.5,-0.5"/>
                </g>
               <g id="resetDef">
                       <use xlink:href="#rim2" fill="#404040">
                               <set attributeName="fill" to="#808080" begin="reset.mouseover" end="reset.mouseout"/>
                       </use>
               </g>
        </defs>

<script type="text/javascript">
var viewWidth = 1958;
var viewHeight = 1030;
var sectionId = 'dynsection-0';
</script>
<script xlink:href="svgpan.js"/>
<svg id="graph" class="graph">
<g id="viewport">
<title>Urho3D::FrameBufferObject</title>
<!-- Node1 -->
<g id="node1" class="node"><title>Node1</title>
<polygon fill="#bfbfbf" stroke="black" points="827.5,-461.5 827.5,-482.5 976.5,-482.5 976.5,-461.5 827.5,-461.5"/>
<text text-anchor="middle" x="902" y="-469.5" font-family="FreeSans" font-size="10.00">Urho3D::FrameBufferObject</text>
</g>
<!-- Node2 -->
<g id="node2" class="node"><title>Node2</title>
<a xlink:href="class_urho3_d_1_1_render_surface.html" target="_top" xlink:title="Color or depth&#45;stencil surface that can be rendered into.">
<polygon fill="none" stroke="black" points="544.5,-424.5 544.5,-445.5 673.5,-445.5 673.5,-424.5 544.5,-424.5"/>
<text text-anchor="middle" x="609" y="-432.5" font-family="FreeSans" font-size="10.00">Urho3D::RenderSurface</text>
</a>
</g>
<!-- Node2&#45;&gt;Node1 -->
<g id="edge2" class="edge"><title>Node2&#45;&gt;Node1</title>
<path fill="none" stroke="#9a32cd" stroke-dasharray="5,2" d="M678.667,-447.053C683.175,-447.739 687.649,-448.395 692,-449 736.682,-455.21 786.906,-460.762 827.032,-464.855"/>
<polygon fill="#9a32cd" stroke="#9a32cd" points="679.2,-443.594 668.779,-445.509 678.119,-450.51 679.2,-443.594"/>
<text text-anchor="middle" x="740" y="-477" font-family="FreeSans" font-size="10.00"> colorAttachments_</text>
<text text-anchor="middle" x="740" y="-464" font-family="FreeSans" font-size="10.00">depthAttachment_</text>
</g>
<!-- Node5 -->
<g id="node8" class="node"><title>Node5</title>
<a xlink:href="class_urho3_d_1_1_weak_ptr.html" target="_top" xlink:title="Urho3D::WeakPtr\&lt; Urho3D\l::RenderSurface \&gt;">
<polygon fill="none" stroke="black" points="829,-409 829,-443 975,-443 975,-409 829,-409"/>
<text text-anchor="start" x="837" y="-430" font-family="FreeSans" font-size="10.00">Urho3D::WeakPtr&lt; Urho3D</text>
<text text-anchor="middle" x="902" y="-417" font-family="FreeSans" font-size="10.00">::RenderSurface &gt;</text>
</a>
</g>
<!-- Node2&#45;&gt;Node5 -->
<g id="edge10" class="edge"><title>Node2&#45;&gt;Node5</title>
<path fill="none" stroke="#9a32cd" stroke-dasharray="5,2" d="M683.855,-432.701C728.433,-431.331 784.753,-429.601 829,-428.242"/>
<polygon fill="#9a32cd" stroke="#9a32cd" points="683.551,-429.208 673.663,-433.014 683.766,-436.205 683.551,-429.208"/>
<text text-anchor="middle" x="740" y="-436" font-family="FreeSans" font-size="10.00"> ptr_</text>
</g>
<!-- Node22 -->
<g id="node51" class="node"><title>Node22</title>
<a xlink:href="class_urho3_d_1_1_graphics.html" target="_top" xlink:title="Graphics subsystem. Manages the application window, rendering state and GPU resources.">
<polygon fill="none" stroke="red" points="851.5,-666.5 851.5,-687.5 952.5,-687.5 952.5,-666.5 851.5,-666.5"/>
<text text-anchor="middle" x="902" y="-674.5" font-family="FreeSans" font-size="10.00">Urho3D::Graphics</text>
</a>
</g>
<!-- Node2&#45;&gt;Node22 -->
<g id="edge64" class="edge"><title>Node2&#45;&gt;Node22</title>
<path fill="none" stroke="#9a32cd" stroke-dasharray="5,2" d="M631.885,-451.744C669.313,-480.198 743.86,-541.505 788,-609 800.47,-628.068 788.702,-642.171 806,-657 818.537,-667.748 835.356,-673.223 851.412,-675.877"/>
<polygon fill="#9a32cd" stroke="#9a32cd" points="633.732,-448.754 623.634,-445.548 629.529,-454.351 633.732,-448.754"/>
<text text-anchor="middle" x="740" y="-626" font-family="FreeSans" font-size="10.00"> depthStencil_</text>
<text text-anchor="middle" x="740" y="-613" font-family="FreeSans" font-size="10.00">renderTargets_</text>
</g>
<!-- Node3 -->
<g id="node4" class="node"><title>Node3</title>
<a xlink:href="class_urho3_d_1_1_ref_counted.html" target="_top" xlink:title="Base class for intrusively reference&#45;counted objects. These are noncopyable and non&#45;assignable.">
<polygon fill="none" stroke="black" points="237,-501.5 237,-522.5 351,-522.5 351,-501.5 237,-501.5"/>
<text text-anchor="middle" x="294" y="-509.5" font-family="FreeSans" font-size="10.00">Urho3D::RefCounted</text>
</a>
</g>
<!-- Node3&#45;&gt;Node2 -->
<g id="edge4" class="edge"><title>Node3&#45;&gt;Node2</title>
<path fill="none" stroke="midnightblue" d="M347.044,-499.034C408.595,-483.988 508.905,-459.468 565.878,-445.541"/>
<polygon fill="midnightblue" stroke="midnightblue" points="346.022,-495.68 337.139,-501.455 347.684,-502.48 346.022,-495.68"/>
</g>
<!-- Node8 -->
<g id="node16" class="node"><title>Node8</title>
<a xlink:href="class_urho3_d_1_1_object.html" target="_top" xlink:title="Base class for objects with type identification, subsystem access and event sending/receiving capabil...">
<polygon fill="none" stroke="black" points="564,-637.5 564,-658.5 654,-658.5 654,-637.5 564,-637.5"/>
<text text-anchor="middle" x="609" y="-645.5" font-family="FreeSans" font-size="10.00">Urho3D::Object</text>
</a>
</g>
<!-- Node3&#45;&gt;Node8 -->
<g id="edge20" class="edge"><title>Node3&#45;&gt;Node8</title>
<path fill="none" stroke="midnightblue" d="M327.672,-526.538C391.413,-554.058 528.326,-613.169 584.343,-637.354"/>
<polygon fill="midnightblue" stroke="midnightblue" points="329.024,-523.309 318.455,-522.559 326.249,-529.736 329.024,-523.309"/>
</g>
<!-- Node9 -->
<g id="node19" class="node"><title>Node9</title>
<a xlink:href="class_urho3_d_1_1_context.html" target="_top" xlink:title="Urho3D execution context. Provides access to subsystems, object factories and attributes, and event receivers.">
<polygon fill="none" stroke="red" points="1174.5,-500.5 1174.5,-521.5 1271.5,-521.5 1271.5,-500.5 1174.5,-500.5"/>
<text text-anchor="middle" x="1223" y="-508.5" font-family="FreeSans" font-size="10.00">Urho3D::Context</text>
</a>
</g>
<!-- Node3&#45;&gt;Node9 -->
<g id="edge24" class="edge"><title>Node3&#45;&gt;Node9</title>
<path fill="none" stroke="midnightblue" d="M361.079,-511.928C539.017,-511.736 1019.96,-511.219 1174.49,-511.052"/>
<polygon fill="midnightblue" stroke="midnightblue" points="361.059,-508.428 351.063,-511.939 361.067,-515.428 361.059,-508.428"/>
</g>
<!-- Node4 -->
<g id="node6" class="node"><title>Node4</title>
<a xlink:href="struct_urho3_d_1_1_ref_count.html" target="_top" xlink:title="Reference count structure.">
<polygon fill="none" stroke="black" points="6,-501.5 6,-522.5 108,-522.5 108,-501.5 6,-501.5"/>
<text text-anchor="middle" x="57" y="-509.5" font-family="FreeSans" font-size="10.00">Urho3D::RefCount</text>
</a>
</g>
<!-- Node4&#45;&gt;Node3 -->
<g id="edge6" class="edge"><title>Node4&#45;&gt;Node3</title>
<path fill="none" stroke="#9a32cd" stroke-dasharray="5,2" d="M118.174,-512C154.731,-512 200.878,-512 236.722,-512"/>
<polygon fill="#9a32cd" stroke="#9a32cd" points="118.134,-508.5 108.134,-512 118.134,-515.5 118.134,-508.5"/>
<text text-anchor="middle" x="157" y="-516" font-family="FreeSans" font-size="10.00"> refCount_</text>
</g>
<!-- Node4&#45;&gt;Node5 -->
<g id="edge12" class="edge"><title>Node4&#45;&gt;Node5</title>
<path fill="none" stroke="#9a32cd" stroke-dasharray="5,2" d="M69.8915,-493.058C92.1992,-462.122 141.292,-401.726 200,-377 320.491,-326.252 679.156,-284.567 788,-357 805.248,-368.478 790.416,-386.348 806,-400 812.624,-405.803 820.419,-410.326 828.655,-413.848"/>
<polygon fill="#9a32cd" stroke="#9a32cd" points="66.9857,-491.106 64.0849,-501.296 72.7071,-495.139 66.9857,-491.106"/>
<text text-anchor="middle" x="466" y="-333" font-family="FreeSans" font-size="10.00"> refCount_</text>
</g>
<!-- Node21 -->
<g id="node49" class="node"><title>Node21</title>
<a xlink:href="class_urho3_d_1_1_weak_ptr.html" target="_top" xlink:title="Urho3D::WeakPtr\&lt; Urho3D\l::Graphics \&gt;">
<polygon fill="none" stroke="black" points="1150,-683 1150,-717 1296,-717 1296,-683 1150,-683"/>
<text text-anchor="start" x="1158" y="-704" font-family="FreeSans" font-size="10.00">Urho3D::WeakPtr&lt; Urho3D</text>
<text text-anchor="middle" x="1223" y="-691" font-family="FreeSans" font-size="10.00">::Graphics &gt;</text>
</a>
</g>
<!-- Node4&#45;&gt;Node21 -->
<g id="edge70" class="edge"><title>Node4&#45;&gt;Node21</title>
<path fill="none" stroke="#9a32cd" stroke-dasharray="5,2" d="M61.9747,-532.589C85.2327,-626.42 186.646,-1009 294,-1009 294,-1009 294,-1009 902,-1009 950.737,-1009 961.993,-988.846 998,-956 1020.22,-935.729 1126.88,-751.235 1150,-732 1157.02,-726.159 1165.27,-721.203 1173.66,-717.064"/>
<polygon fill="#9a32cd" stroke="#9a32cd" points="65.3658,-531.721 59.5841,-522.843 58.5673,-533.389 65.3658,-531.721"/>
<text text-anchor="middle" x="609" y="-1013" font-family="FreeSans" font-size="10.00"> refCount_</text>
</g>
<!-- Node5&#45;&gt;Node2 -->
<g id="edge8" class="edge"><title>Node5&#45;&gt;Node2</title>
<path fill="none" stroke="#9a32cd" stroke-dasharray="5,2" d="M819.473,-407.941C814.747,-405.608 810.212,-402.974 806,-400 794.52,-391.893 800.449,-380.523 788,-374 750.207,-354.198 732.542,-360.704 692,-374 661.754,-383.919 633.441,-409.536 618.997,-424.225"/>
<polygon fill="#9a32cd" stroke="#9a32cd" points="818.201,-411.206 828.761,-412.066 821.043,-404.809 818.201,-411.206"/>
<text text-anchor="start" x="692" y="-404" font-family="FreeSans" font-size="10.00"> linkedDepthStencil</text>
<text text-anchor="middle" x="740" y="-391" font-family="FreeSans" font-size="10.00">_</text>
<text text-anchor="middle" x="740" y="-378" font-family="FreeSans" font-size="10.00">linkedRenderTarget_</text>
</g>
<!-- Node6 -->
<g id="node12" class="node"><title>Node6</title>
<a xlink:href="class_urho3_d_1_1_texture.html" target="_top" xlink:title="Base class for texture resources.">
<polygon fill="none" stroke="black" points="1626,-620.5 1626,-641.5 1720,-641.5 1720,-620.5 1626,-620.5"/>
<text text-anchor="middle" x="1673" y="-628.5" font-family="FreeSans" font-size="10.00">Urho3D::Texture</text>
</a>
</g>
<!-- Node6&#45;&gt;Node2 -->
<g id="edge14" class="edge"><title>Node6&#45;&gt;Node2</title>
<path fill="none" stroke="#9a32cd" stroke-dasharray="5,2" d="M1672.01,-609.973C1666.79,-524.933 1635.18,-211 1453,-211 1074,-211 1074,-211 1074,-211 952.225,-211 916.372,-216.549 806,-268 747.74,-295.158 740.805,-315.169 692,-357 665.125,-380.035 635.254,-408.992 619.716,-424.327"/>
<polygon fill="#9a32cd" stroke="#9a32cd" points="1668.53,-610.404 1672.58,-620.196 1675.52,-610.018 1668.53,-610.404"/>
<text text-anchor="middle" x="1223" y="-215" font-family="FreeSans" font-size="10.00"> parentTexture_</text>
</g>
<!-- Node6&#45;&gt;Node22 -->
<g id="edge66" class="edge"><title>Node6&#45;&gt;Node22</title>
<path fill="none" stroke="#9a32cd" stroke-dasharray="5,2" d="M1615.65,-621.729C1499.32,-605.172 1228.61,-578.145 1016,-645 1006.83,-647.884 1006.87,-653.285 998,-657 983.868,-662.92 967.807,-667.15 952.921,-670.145"/>
<polygon fill="#9a32cd" stroke="#9a32cd" points="1615.36,-625.223 1625.76,-623.197 1616.36,-618.296 1615.36,-625.223"/>
<text text-anchor="middle" x="1339" y="-606" font-family="FreeSans" font-size="10.00"> textures_</text>
</g>
<!-- Node23 -->
<g id="node58" class="node"><title>Node23</title>
<a xlink:href="class_urho3_d_1_1_shared_ptr.html" target="_top" xlink:title="Urho3D::SharedPtr\&lt;\l Urho3D::Texture \&gt;">
<polygon fill="none" stroke="black" points="1834,-614 1834,-648 1950,-648 1950,-614 1834,-614"/>
<text text-anchor="start" x="1842" y="-635" font-family="FreeSans" font-size="10.00">Urho3D::SharedPtr&lt;</text>
<text text-anchor="middle" x="1892" y="-622" font-family="FreeSans" font-size="10.00"> Urho3D::Texture &gt;</text>
</a>
</g>
<!-- Node6&#45;&gt;Node23 -->
<g id="edge74" class="edge"><title>Node6&#45;&gt;Node23</title>
<path fill="none" stroke="#9a32cd" stroke-dasharray="5,2" d="M1730.32,-631C1762.24,-631 1801.88,-631 1833.92,-631"/>
<polygon fill="#9a32cd" stroke="#9a32cd" points="1730.25,-627.5 1720.25,-631 1730.25,-634.5 1730.25,-627.5"/>
<text text-anchor="middle" x="1777" y="-635" font-family="FreeSans" font-size="10.00"> ptr_</text>
</g>
<!-- Node7 -->
<g id="node14" class="node"><title>Node7</title>
<a xlink:href="class_urho3_d_1_1_resource.html" target="_top" xlink:title="Base class for resources.">
<polygon fill="none" stroke="black" points="850.5,-925.5 850.5,-946.5 953.5,-946.5 953.5,-925.5 850.5,-925.5"/>
<text text-anchor="middle" x="902" y="-933.5" font-family="FreeSans" font-size="10.00">Urho3D::Resource</text>
</a>
</g>
<!-- Node7&#45;&gt;Node6 -->
<g id="edge16" class="edge"><title>Node7&#45;&gt;Node6</title>
<path fill="none" stroke="midnightblue" d="M939.574,-921.756C1036.48,-884.992 1302.75,-783.786 1524,-698 1561.4,-683.499 1571.51,-681.653 1608,-665 1623.87,-657.756 1641.37,-648.528 1654.21,-641.514"/>
<polygon fill="midnightblue" stroke="midnightblue" points="938.04,-918.594 929.932,-925.414 940.523,-925.139 938.04,-918.594"/>
</g>
<!-- Node8&#45;&gt;Node7 -->
<g id="edge18" class="edge"><title>Node8&#45;&gt;Node7</title>
<path fill="none" stroke="midnightblue" d="M613.419,-668.732C622.105,-704.394 644.812,-777.332 692,-817 726.021,-845.599 748.552,-824.526 788,-845 830.706,-867.165 872.817,-906.555 891.691,-925.393"/>
<polygon fill="midnightblue" stroke="midnightblue" points="616.73,-667.513 611.078,-658.552 609.908,-669.082 616.73,-667.513"/>
</g>
<!-- Node12 -->
<g id="node26" class="node"><title>Node12</title>
<a xlink:href="class_urho3_d_1_1_event_handler.html" target="_top" xlink:title="Internal helper class for invoking event handler functions.">
<polygon fill="none" stroke="red" points="840,-706.5 840,-727.5 964,-727.5 964,-706.5 840,-706.5"/>
<text text-anchor="middle" x="902" y="-714.5" font-family="FreeSans" font-size="10.00">Urho3D::EventHandler</text>
</a>
</g>
<!-- Node8&#45;&gt;Node12 -->
<g id="edge32" class="edge"><title>Node8&#45;&gt;Node12</title>
<path fill="none" stroke="#9a32cd" stroke-dasharray="5,2" d="M664.468,-647.746C709.343,-648.536 768.213,-652.133 788,-665 801.68,-673.895 792.833,-687.361 806,-697 815.891,-704.24 827.812,-708.99 839.839,-712.077"/>
<polygon fill="#9a32cd" stroke="#9a32cd" points="664.307,-644.244 654.261,-647.61 664.214,-651.243 664.307,-644.244"/>
<text text-anchor="middle" x="740" y="-682" font-family="FreeSans" font-size="10.00"> sender_</text>
<text text-anchor="middle" x="740" y="-669" font-family="FreeSans" font-size="10.00">receiver_</text>
</g>
<!-- Node8&#45;&gt;Node22 -->
<g id="edge62" class="edge"><title>Node8&#45;&gt;Node22</title>
<path fill="none" stroke="midnightblue" d="M664.462,-645.717C673.658,-645.419 683.097,-645.161 692,-645 734.66,-644.229 747.164,-632.636 788,-645 797.202,-647.786 797.132,-653.285 806,-657 820.132,-662.92 836.193,-667.15 851.079,-670.145"/>
<polygon fill="midnightblue" stroke="midnightblue" points="664.097,-642.228 654.223,-646.069 664.337,-649.224 664.097,-642.228"/>
</g>
<!-- Node9&#45;&gt;Node8 -->
<g id="edge22" class="edge"><title>Node9&#45;&gt;Node8</title>
<path fill="none" stroke="#9a32cd" stroke-dasharray="5,2" d="M1164.28,-520.461C1153.56,-522.068 1142.45,-523.65 1132,-525 936.997,-550.178 871.045,-489.742 692,-571 658.709,-586.109 629.979,-619.91 616.756,-637.266"/>
<polygon fill="#9a32cd" stroke="#9a32cd" points="1165.06,-523.883 1174.42,-518.92 1164.01,-516.963 1165.06,-523.883"/>
<text text-anchor="middle" x="902" y="-537" font-family="FreeSans" font-size="10.00"> context_</text>
</g>
<!-- Node10 -->
<g id="node22" class="node"><title>Node10</title>
<a xlink:href="class_urho3_d_1_1_p_o_d_vector.html" target="_top" xlink:title="Urho3D::PODVector\&lt;\l Urho3D::Object * \&gt;">
<polygon fill="none" stroke="black" points="406.5,-258 406.5,-292 525.5,-292 525.5,-258 406.5,-258"/>
<text text-anchor="start" x="414.5" y="-279" font-family="FreeSans" font-size="10.00">Urho3D::PODVector&lt;</text>
<text text-anchor="middle" x="466" y="-266" font-family="FreeSans" font-size="10.00"> Urho3D::Object * &gt;</text>
</a>
</g>
<!-- Node10&#45;&gt;Node9 -->
<g id="edge26" class="edge"><title>Node10&#45;&gt;Node9</title>
<path fill="none" stroke="#9a32cd" stroke-dasharray="5,2" d="M535.794,-264.465C638.37,-251.136 835.293,-233.766 998,-268 1061.68,-281.398 1084.97,-282.022 1132,-327 1186.08,-378.728 1212.67,-469.406 1220.48,-500.323"/>
<polygon fill="#9a32cd" stroke="#9a32cd" points="535.319,-260.998 525.866,-265.782 536.239,-267.937 535.319,-260.998"/>
<text text-anchor="middle" x="740" y="-254" font-family="FreeSans" font-size="10.00"> eventSenders_</text>
</g>
<!-- Node11 -->
<g id="node24" class="node"><title>Node11</title>
<a xlink:href="class_urho3_d_1_1_vector_base.html" target="_top" xlink:title="Vector base class.">
<polygon fill="none" stroke="black" points="0,-317.5 0,-338.5 114,-338.5 114,-317.5 0,-317.5"/>
<text text-anchor="middle" x="57" y="-325.5" font-family="FreeSans" font-size="10.00">Urho3D::VectorBase</text>
</a>
</g>
<!-- Node11&#45;&gt;Node10 -->
<g id="edge28" class="edge"><title>Node11&#45;&gt;Node10</title>
<path fill="none" stroke="midnightblue" d="M124.568,-319.244C203.103,-309.067 331.486,-292.431 406.433,-282.719"/>
<polygon fill="midnightblue" stroke="midnightblue" points="123.768,-315.819 114.3,-320.575 124.667,-322.761 123.768,-315.819"/>
</g>
<!-- Node25 -->
<g id="node64" class="node"><title>Node25</title>
<a xlink:href="class_urho3_d_1_1_vector.html" target="_top" xlink:title="Urho3D::Vector\&lt; Urho3D\l::SharedPtr\&lt; Urho3D::Viewport \&gt; \&gt;">
<polygon fill="none" stroke="black" points="200,-386 200,-420 388,-420 388,-386 200,-386"/>
<text text-anchor="start" x="208" y="-407" font-family="FreeSans" font-size="10.00">Urho3D::Vector&lt; Urho3D</text>
<text text-anchor="middle" x="294" y="-394" font-family="FreeSans" font-size="10.00">::SharedPtr&lt; Urho3D::Viewport &gt; &gt;</text>
</a>
</g>
<!-- Node11&#45;&gt;Node25 -->
<g id="edge82" class="edge"><title>Node11&#45;&gt;Node25</title>
<path fill="none" stroke="midnightblue" d="M99.7653,-341.533C139.082,-353.975 197.544,-372.476 240.054,-385.928"/>
<polygon fill="midnightblue" stroke="midnightblue" points="100.793,-338.188 90.2034,-338.507 98.6814,-344.861 100.793,-338.188"/>
</g>
<!-- Node12&#45;&gt;Node9 -->
<g id="edge30" class="edge"><title>Node12&#45;&gt;Node9</title>
<path fill="none" stroke="#9a32cd" stroke-dasharray="5,2" d="M973.932,-708.798C982.494,-705.904 990.753,-702.069 998,-697 1010.43,-688.305 1004.47,-677.859 1016,-668 1058.53,-631.626 1086.95,-652.205 1132,-619 1170.49,-590.634 1203.14,-542.818 1216.52,-521.642"/>
<polygon fill="#9a32cd" stroke="#9a32cd" points="972.773,-705.491 964.174,-711.68 974.756,-712.204 972.773,-705.491"/>
<text text-anchor="middle" x="1074" y="-672" font-family="FreeSans" font-size="10.00"> eventHandler_</text>
</g>
<!-- Node17 -->
<g id="node38" class="node"><title>Node17</title>
<a xlink:href="class_urho3_d_1_1_linked_list.html" target="_top" xlink:title="Urho3D::LinkedList\l\&lt; Urho3D::EventHandler \&gt;">
<polygon fill="none" stroke="black" points="1150,-741 1150,-775 1296,-775 1296,-741 1150,-741"/>
<text text-anchor="start" x="1158" y="-762" font-family="FreeSans" font-size="10.00">Urho3D::LinkedList</text>
<text text-anchor="middle" x="1223" y="-749" font-family="FreeSans" font-size="10.00">&lt; Urho3D::EventHandler &gt;</text>
</a>
</g>
<!-- Node12&#45;&gt;Node17 -->
<g id="edge46" class="edge"><title>Node12&#45;&gt;Node17</title>
<path fill="none" stroke="#9a32cd" stroke-dasharray="5,2" d="M974.333,-720.685C1019.79,-723.644 1079.55,-728.71 1132,-737 1139.05,-738.114 1146.36,-739.465 1153.64,-740.939"/>
<polygon fill="#9a32cd" stroke="#9a32cd" points="974.475,-717.187 964.274,-720.049 974.034,-724.173 974.475,-717.187"/>
<text text-anchor="middle" x="1074" y="-741" font-family="FreeSans" font-size="10.00"> head_</text>
</g>
<!-- Node13 -->
<g id="node29" class="node"><title>Node13</title>
<a xlink:href="class_urho3_d_1_1_string_hash.html" target="_top" xlink:title="32&#45;bit hash value for a string.">
<polygon fill="none" stroke="black" points="552.5,-809.5 552.5,-830.5 665.5,-830.5 665.5,-809.5 552.5,-809.5"/>
<text text-anchor="middle" x="609" y="-817.5" font-family="FreeSans" font-size="10.00">Urho3D::StringHash</text>
</a>
</g>
<!-- Node13&#45;&gt;Node7 -->
<g id="edge54" class="edge"><title>Node13&#45;&gt;Node7</title>
<path fill="none" stroke="#9a32cd" stroke-dasharray="5,2" d="M639.427,-835.081C655.004,-842.601 674.357,-851.637 692,-859 754.535,-885.097 829.39,-911.393 870.714,-925.492"/>
<polygon fill="#9a32cd" stroke="#9a32cd" points="640.788,-831.851 630.265,-830.623 637.726,-838.146 640.788,-831.851"/>
<text text-anchor="middle" x="740" y="-898" font-family="FreeSans" font-size="10.00"> nameHash_</text>
</g>
<!-- Node13&#45;&gt;Node12 -->
<g id="edge34" class="edge"><title>Node13&#45;&gt;Node12</title>
<path fill="none" stroke="#9a32cd" stroke-dasharray="5,2" d="M649.858,-833.221C689.536,-843.297 749.296,-850.79 788,-820 815.842,-797.851 781.197,-767.507 806,-742 815.125,-732.616 827.293,-726.601 839.893,-722.78"/>
<polygon fill="#9a32cd" stroke="#9a32cd" points="650.546,-829.782 639.979,-830.555 648.722,-836.54 650.546,-829.782"/>
<text text-anchor="middle" x="740" y="-846" font-family="FreeSans" font-size="10.00"> eventType_</text>
</g>
<!-- Node13&#45;&gt;Node13 -->
<g id="edge36" class="edge"><title>Node13&#45;&gt;Node13</title>
<path fill="none" stroke="#9a32cd" stroke-dasharray="5,2" d="M585.042,-840.427C586.891,-845.349 594.876,-849 609,-849 631.598,-849 638.483,-839.653 629.656,-830.708"/>
<polygon fill="#9a32cd" stroke="#9a32cd" points="588.441,-841.302 588.344,-830.708 581.813,-839.05 588.441,-841.302"/>
<text text-anchor="middle" x="609" y="-853" font-family="FreeSans" font-size="10.00"> ZERO</text>
</g>
<!-- Node14 -->
<g id="node32" class="node"><title>Node14</title>
<a xlink:href="class_urho3_d_1_1_hash_map.html" target="_top" xlink:title="Urho3D::HashMap\&lt; Urho3D\l::StringHash, Urho3D::\lHashSet\&lt; Urho3D::Object * \&gt; \&gt;">
<polygon fill="none" stroke="red" points="815.5,-277.5 815.5,-324.5 988.5,-324.5 988.5,-277.5 815.5,-277.5"/>
<text text-anchor="start" x="823.5" y="-311.5" font-family="FreeSans" font-size="10.00">Urho3D::HashMap&lt; Urho3D</text>
<text text-anchor="start" x="823.5" y="-298.5" font-family="FreeSans" font-size="10.00">::StringHash, Urho3D::</text>
<text text-anchor="middle" x="902" y="-285.5" font-family="FreeSans" font-size="10.00">HashSet&lt; Urho3D::Object * &gt; &gt;</text>
</a>
</g>
<!-- Node14&#45;&gt;Node9 -->
<g id="edge38" class="edge"><title>Node14&#45;&gt;Node9</title>
<path fill="none" stroke="#9a32cd" stroke-dasharray="5,2" d="M998.499,-324.562C1042.32,-338.558 1092.96,-359.641 1132,-390 1173.29,-422.108 1205.38,-477.414 1217.62,-500.451"/>
<polygon fill="#9a32cd" stroke="#9a32cd" points="999.27,-321.137 988.682,-321.507 997.191,-327.821 999.27,-321.137"/>
<text text-anchor="middle" x="1074" y="-394" font-family="FreeSans" font-size="10.00"> eventReceivers_</text>
</g>
<!-- Node15 -->
<g id="node34" class="node"><title>Node15</title>
<a xlink:href="class_urho3_d_1_1_hash_map.html" target="_top" xlink:title="Urho3D::HashMap\&lt; Urho3D\l::Object *, Urho3D::HashMap\l\&lt; Urho3D::StringHash, Urho3D\l::HashSet\&lt; Urho3D::Object * \&gt; \&gt; \&gt;">
<polygon fill="none" stroke="red" points="806.5,-588 806.5,-648 997.5,-648 997.5,-588 806.5,-588"/>
<text text-anchor="start" x="814.5" y="-635" font-family="FreeSans" font-size="10.00">Urho3D::HashMap&lt; Urho3D</text>
<text text-anchor="start" x="814.5" y="-622" font-family="FreeSans" font-size="10.00">::Object *, Urho3D::HashMap</text>
<text text-anchor="start" x="814.5" y="-609" font-family="FreeSans" font-size="10.00">&lt; Urho3D::StringHash, Urho3D</text>
<text text-anchor="middle" x="902" y="-596" font-family="FreeSans" font-size="10.00">::HashSet&lt; Urho3D::Object * &gt; &gt; &gt;</text>
</a>
</g>
<!-- Node15&#45;&gt;Node9 -->
<g id="edge40" class="edge"><title>Node15&#45;&gt;Node9</title>
<path fill="none" stroke="#9a32cd" stroke-dasharray="5,2" d="M1007.61,-605.092C1047.58,-597.985 1092.86,-587.193 1132,-571 1162.43,-558.413 1193.53,-535.218 1210.34,-521.65"/>
<polygon fill="#9a32cd" stroke="#9a32cd" points="1006.83,-601.675 997.567,-606.821 1008.02,-608.573 1006.83,-601.675"/>
<text text-anchor="middle" x="1074" y="-606" font-family="FreeSans" font-size="10.00"> specificEventReceivers_</text>
</g>
<!-- Node16 -->
<g id="node36" class="node"><title>Node16</title>
<a xlink:href="class_urho3_d_1_1_hash_map.html" target="_top" xlink:title="Urho3D::HashMap\&lt; Urho3D\l::StringHash, Urho3D::\lSharedPtr\&lt; Urho3D::Object \&gt; \&gt;">
<polygon fill="none" stroke="red" points="816,-343.5 816,-390.5 988,-390.5 988,-343.5 816,-343.5"/>
<text text-anchor="start" x="824" y="-377.5" font-family="FreeSans" font-size="10.00">Urho3D::HashMap&lt; Urho3D</text>
<text text-anchor="start" x="824" y="-364.5" font-family="FreeSans" font-size="10.00">::StringHash, Urho3D::</text>
<text text-anchor="middle" x="902" y="-351.5" font-family="FreeSans" font-size="10.00">SharedPtr&lt; Urho3D::Object &gt; &gt;</text>
</a>
</g>
<!-- Node16&#45;&gt;Node9 -->
<g id="edge42" class="edge"><title>Node16&#45;&gt;Node9</title>
<path fill="none" stroke="#9a32cd" stroke-dasharray="5,2" d="M983.327,-394.141C988.317,-396.058 993.241,-398.018 998,-400 1076.21,-432.577 1165.46,-479.726 1203.82,-500.5"/>
<polygon fill="#9a32cd" stroke="#9a32cd" points="984.267,-390.755 973.675,-390.512 981.804,-397.307 984.267,-390.755"/>
<text text-anchor="middle" x="1074" y="-464" font-family="FreeSans" font-size="10.00"> subsystems_</text>
</g>
<!-- Node17&#45;&gt;Node8 -->
<g id="edge44" class="edge"><title>Node17&#45;&gt;Node8</title>
<path fill="none" stroke="#9a32cd" stroke-dasharray="5,2" d="M1139.83,-771.008C1052.57,-780.827 913.423,-785.438 806,-737 795.686,-732.349 797.735,-724.764 788,-719 749.757,-696.356 733.259,-707.522 692,-691 668.799,-681.709 643.476,-668.036 626.98,-658.614"/>
<polygon fill="#9a32cd" stroke="#9a32cd" points="1140.42,-774.462 1149.95,-769.82 1139.61,-767.51 1140.42,-774.462"/>
<text text-anchor="middle" x="902" y="-780" font-family="FreeSans" font-size="10.00"> eventHandlers_</text>
</g>
<!-- Node18 -->
<g id="node41" class="node"><title>Node18</title>
<a xlink:href="class_urho3_d_1_1_timer.html" target="_top" xlink:title="Low&#45;resolution operating system timer.">
<polygon fill="none" stroke="black" points="566,-951.5 566,-972.5 652,-972.5 652,-951.5 566,-951.5"/>
<text text-anchor="middle" x="609" y="-959.5" font-family="FreeSans" font-size="10.00">Urho3D::Timer</text>
</a>
</g>
<!-- Node18&#45;&gt;Node7 -->
<g id="edge48" class="edge"><title>Node18&#45;&gt;Node7</title>
<path fill="none" stroke="#9a32cd" stroke-dasharray="5,2" d="M662.269,-959.201C697.899,-957.14 745.809,-954.002 788,-950 808.447,-948.061 830.895,-945.416 850.423,-942.947"/>
<polygon fill="#9a32cd" stroke="#9a32cd" points="661.879,-955.718 652.094,-959.78 662.277,-962.707 661.879,-955.718"/>
<text text-anchor="middle" x="740" y="-961" font-family="FreeSans" font-size="10.00"> useTimer_</text>
</g>
<!-- Node19 -->
<g id="node43" class="node"><title>Node19</title>
<a xlink:href="class_urho3_d_1_1_string.html" target="_top" xlink:title="String class.">
<polygon fill="none" stroke="black" points="565,-880.5 565,-901.5 653,-901.5 653,-880.5 565,-880.5"/>
<text text-anchor="middle" x="609" y="-888.5" font-family="FreeSans" font-size="10.00">Urho3D::String</text>
</a>
</g>
<!-- Node19&#45;&gt;Node7 -->
<g id="edge50" class="edge"><title>Node19&#45;&gt;Node7</title>
<path fill="none" stroke="#9a32cd" stroke-dasharray="5,2" d="M652.117,-904.409C664.858,-907.973 678.901,-911.517 692,-914 745.484,-924.139 807.581,-929.918 850.302,-932.984"/>
<polygon fill="#9a32cd" stroke="#9a32cd" points="652.799,-900.964 642.222,-901.566 650.867,-907.691 652.799,-900.964"/>
<text text-anchor="middle" x="740" y="-931" font-family="FreeSans" font-size="10.00"> name_</text>
</g>
<!-- Node19&#45;&gt;Node19 -->
<g id="edge52" class="edge"><title>Node19&#45;&gt;Node19</title>
<path fill="none" stroke="#9a32cd" stroke-dasharray="5,2" d="M585.042,-911.427C586.891,-916.349 594.876,-920 609,-920 631.598,-920 638.483,-910.653 629.656,-901.708"/>
<polygon fill="#9a32cd" stroke="#9a32cd" points="588.441,-912.302 588.344,-901.708 581.813,-910.05 588.441,-912.302"/>
<text text-anchor="middle" x="609" y="-924" font-family="FreeSans" font-size="10.00"> EMPTY</text>
</g>
<!-- Node19&#45;&gt;Node22 -->
<g id="edge68" class="edge"><title>Node19&#45;&gt;Node22</title>
<path fill="none" stroke="#9a32cd" stroke-dasharray="5,2" d="M662.553,-880.394C666.859,-877.884 670.781,-874.796 674,-871 712.583,-825.508 654.491,-784.381 692,-738 711.994,-713.277 795.726,-694.792 851.229,-684.966"/>
<polygon fill="#9a32cd" stroke="#9a32cd" points="660.824,-877.34 653.279,-884.778 663.816,-883.669 660.824,-877.34"/>
<text text-anchor="middle" x="740" y="-807" font-family="FreeSans" font-size="10.00"> lastShaderName_</text>
<text text-anchor="middle" x="740" y="-794" font-family="FreeSans" font-size="10.00">windowTitle_</text>
<text text-anchor="middle" x="740" y="-781" font-family="FreeSans" font-size="10.00">apiName_</text>
<text text-anchor="middle" x="740" y="-768" font-family="FreeSans" font-size="10.00">shaderPath_</text>
<text text-anchor="middle" x="740" y="-755" font-family="FreeSans" font-size="10.00">orientations_</text>
<text text-anchor="middle" x="740" y="-742" font-family="FreeSans" font-size="10.00">shaderExtension_</text>
</g>
<!-- Node20 -->
<g id="node47" class="node"><title>Node20</title>
<a xlink:href="class_urho3_d_1_1_g_p_u_object.html" target="_top" xlink:title="Base class for GPU resources.">
<polygon fill="none" stroke="black" points="1397.5,-667.5 1397.5,-688.5 1508.5,-688.5 1508.5,-667.5 1397.5,-667.5"/>
<text text-anchor="middle" x="1453" y="-675.5" font-family="FreeSans" font-size="10.00">Urho3D::GPUObject</text>
</a>
</g>
<!-- Node20&#45;&gt;Node6 -->
<g id="edge56" class="edge"><title>Node20&#45;&gt;Node6</title>
<path fill="none" stroke="midnightblue" d="M1512.49,-665.369C1541.33,-659.236 1576.47,-651.751 1608,-645 1613.76,-643.767 1619.8,-642.47 1625.79,-641.183"/>
<polygon fill="midnightblue" stroke="midnightblue" points="1511.62,-661.975 1502.57,-667.478 1513.08,-668.822 1511.62,-661.975"/>
</g>
<!-- Node21&#45;&gt;Node20 -->
<g id="edge58" class="edge"><title>Node21&#45;&gt;Node20</title>
<path fill="none" stroke="#9a32cd" stroke-dasharray="5,2" d="M1306.22,-692.04C1336.48,-689.145 1369.94,-685.945 1397.25,-683.332"/>
<polygon fill="#9a32cd" stroke="#9a32cd" points="1305.71,-688.572 1296.09,-693.009 1306.38,-695.541 1305.71,-688.572"/>
<text text-anchor="middle" x="1339" y="-694" font-family="FreeSans" font-size="10.00"> graphics_</text>
</g>
<!-- Node22&#45;&gt;Node21 -->
<g id="edge60" class="edge"><title>Node22&#45;&gt;Node21</title>
<path fill="none" stroke="#9a32cd" stroke-dasharray="5,2" d="M962.806,-681.357C1015.97,-685.166 1093.29,-690.706 1149.82,-694.757"/>
<polygon fill="#9a32cd" stroke="#9a32cd" points="962.734,-677.843 952.509,-680.619 962.234,-684.825 962.734,-677.843"/>
<text text-anchor="middle" x="1074" y="-697" font-family="FreeSans" font-size="10.00"> ptr_</text>
</g>
<!-- Node23&#45;&gt;Node6 -->
<g id="edge72" class="edge"><title>Node23&#45;&gt;Node6</title>
<path fill="none" stroke="#9a32cd" stroke-dasharray="5,2" d="M1823.68,-614.981C1821.1,-614.609 1818.53,-614.279 1816,-614 1781.54,-610.193 1772.38,-609.578 1738,-614 1727.7,-615.324 1716.71,-617.782 1706.75,-620.426"/>
<polygon fill="#9a32cd" stroke="#9a32cd" points="1823.28,-618.462 1833.71,-616.604 1824.4,-611.552 1823.28,-618.462"/>
<text text-anchor="middle" x="1777" y="-618" font-family="FreeSans" font-size="10.00"> backupTexture_</text>
</g>
<!-- Node24 -->
<g id="node61" class="node"><title>Node24</title>
<a xlink:href="class_urho3_d_1_1_color.html" target="_top" xlink:title="RGBA color.">
<polygon fill="none" stroke="black" points="1411,-0.5 1411,-21.5 1495,-21.5 1495,-0.5 1411,-0.5"/>
<text text-anchor="middle" x="1453" y="-8.5" font-family="FreeSans" font-size="10.00">Urho3D::Color</text>
</a>
</g>
<!-- Node24&#45;&gt;Node6 -->
<g id="edge76" class="edge"><title>Node24&#45;&gt;Node6</title>
<path fill="none" stroke="#9a32cd" stroke-dasharray="5,2" d="M1475.21,-28.233C1509.97,-56.5766 1576.5,-116.651 1608,-184 1646.12,-265.512 1668.13,-560.122 1672.28,-620.243"/>
<polygon fill="#9a32cd" stroke="#9a32cd" points="1477.09,-25.2527 1467.1,-21.7256 1472.71,-30.713 1477.09,-25.2527"/>
<text text-anchor="middle" x="1575" y="-188" font-family="FreeSans" font-size="10.00"> borderColor_</text>
</g>
<!-- Node24&#45;&gt;Node24 -->
<g id="edge78" class="edge"><title>Node24&#45;&gt;Node24</title>
<path fill="none" stroke="#9a32cd" stroke-dasharray="5,2" d="M1431.99,-31.4266C1433.61,-36.3489 1440.61,-40 1453,-40 1472.82,-40 1478.85,-30.6531 1471.11,-21.7079"/>
<polygon fill="#9a32cd" stroke="#9a32cd" points="1435.39,-32.2909 1434.89,-21.7079 1428.68,-30.2922 1435.39,-32.2909"/>
<text text-anchor="middle" x="1453" y="-174" font-family="FreeSans" font-size="10.00"> CYAN</text>
<text text-anchor="middle" x="1453" y="-161" font-family="FreeSans" font-size="10.00">GRAY</text>
<text text-anchor="middle" x="1453" y="-148" font-family="FreeSans" font-size="10.00">YELLOW</text>
<text text-anchor="middle" x="1453" y="-135" font-family="FreeSans" font-size="10.00">MAGENTA</text>
<text text-anchor="middle" x="1453" y="-122" font-family="FreeSans" font-size="10.00">WHITE</text>
<text text-anchor="middle" x="1453" y="-109" font-family="FreeSans" font-size="10.00">TRANSPARENT</text>
<text text-anchor="middle" x="1453" y="-96" font-family="FreeSans" font-size="10.00">BLUE</text>
<text text-anchor="middle" x="1453" y="-83" font-family="FreeSans" font-size="10.00">BLACK</text>
<text text-anchor="middle" x="1453" y="-70" font-family="FreeSans" font-size="10.00">RED</text>
<text text-anchor="middle" x="1453" y="-57" font-family="FreeSans" font-size="10.00">GREEN</text>
<text text-anchor="middle" x="1453" y="-44" font-family="FreeSans" font-size="10.00">...</text>
</g>
<!-- Node25&#45;&gt;Node2 -->
<g id="edge80" class="edge"><title>Node25&#45;&gt;Node2</title>
<path fill="none" stroke="#9a32cd" stroke-dasharray="5,2" d="M398.254,-413.591C446.487,-418.491 502.272,-424.158 544.327,-428.43"/>
<polygon fill="#9a32cd" stroke="#9a32cd" points="398.386,-410.086 388.084,-412.558 397.679,-417.051 398.386,-410.086"/>
<text text-anchor="middle" x="466" y="-430" font-family="FreeSans" font-size="10.00"> viewports_</text>
</g>
</g>
</svg>
        <g id="navigator" transform="translate(0 0)" fill="#404254">
                <rect fill="#f2f5e9" fill-opacity="0.5" stroke="#606060" stroke-width=".5" x="0" y="0" width="60" height="60"/>
                <use id="zoomplus" xlink:href="#zoomPlus" x="17" y="9" onmousedown="handleZoom(evt,'in')"/>
                <use id="zoomminus" xlink:href="#zoomMin" x="42" y="9" onmousedown="handleZoom(evt,'out')"/>
                <use id="reset" xlink:href="#resetDef" x="30" y="36" onmousedown="handleReset()"/>
                <g id="arrowUp" xlink:href="#dirArrow" transform="translate(30 24)" onmousedown="handlePan(0,-1)">
                  <use xlink:href="#rim" fill="#404040">
                        <set attributeName="fill" to="#808080" begin="arrowUp.mouseover" end="arrowUp.mouseout"/>
                  </use>
                  <path fill="none" stroke="white" stroke-width="1.5" d="M0,-3.0v7 M-2.5,-0.5L0,-3.0L2.5,-0.5"/>
                </g>
                <g id="arrowRight" xlink:href="#dirArrow" transform="rotate(90) translate(36 -43)" onmousedown="handlePan(1,0)">
                  <use xlink:href="#rim" fill="#404040">
                        <set attributeName="fill" to="#808080" begin="arrowRight.mouseover" end="arrowRight.mouseout"/>
                  </use>
                  <path fill="none" stroke="white" stroke-width="1.5" d="M0,-3.0v7 M-2.5,-0.5L0,-3.0L2.5,-0.5"/>
                </g>
                <g id="arrowDown" xlink:href="#dirArrow" transform="rotate(180) translate(-30 -48)" onmousedown="handlePan(0,1)">
                  <use xlink:href="#rim" fill="#404040">
                        <set attributeName="fill" to="#808080" begin="arrowDown.mouseover" end="arrowDown.mouseout"/>
                  </use>
                  <path fill="none" stroke="white" stroke-width="1.5" d="M0,-3.0v7 M-2.5,-0.5L0,-3.0L2.5,-0.5"/>
                </g>
                <g id="arrowLeft" xlink:href="#dirArrow" transform="rotate(270) translate(-36 17)" onmousedown="handlePan(-1,0)">
                  <use xlink:href="#rim" fill="#404040">
                        <set attributeName="fill" to="#808080" begin="arrowLeft.mouseover" end="arrowLeft.mouseout"/>
                  </use>
                  <path fill="none" stroke="white" stroke-width="1.5" d="M0,-3.0v7 M-2.5,-0.5L0,-3.0L2.5,-0.5"/>
                </g>
        </g>
        <svg viewBox="0 0 15 15" width="100%" height="30px" preserveAspectRatio="xMaxYMin meet">
         <g id="arrow_out" transform="scale(0.3 0.3)">
          <a xlink:href="struct_urho3_d_1_1_frame_buffer_object__coll__graph_org.svg" target="_base">
           <rect id="button" ry="5" rx="5" y="6" x="6" height="38" width="38"
                fill="#f2f5e9" fill-opacity="0.5" stroke="#606060" stroke-width="1.0"/>
           <path id="arrow"
             d="M 11.500037,31.436501 C 11.940474,20.09759 22.043105,11.32322 32.158766,21.979434 L 37.068811,17.246167 C 37.068811,17.246167 37.088388,32 37.088388,32 L 22.160133,31.978069 C 22.160133,31.978069 26.997745,27.140456 26.997745,27.140456 C 18.528582,18.264221 13.291696,25.230495 11.500037,31.436501 z"
             style="fill:#404040;"/>
          </a>
         </g>
        </svg>
</svg>
