<?xml version="1.0" encoding="UTF-8" standalone="no"?>
<!DOCTYPE svg PUBLIC "-//W3C//DTD SVG 1.1//EN"
 "http://www.w3.org/Graphics/SVG/1.1/DTD/svg11.dtd">
<!-- Generated by graphviz version 2.26.3 (20100126.1600)
 -->
<!-- Title: Urho3D::Spriter::Animation Pages: 1 -->
<svg width="574pt" height="179pt"
 viewBox="0.00 0.00 574.00 179.00" xmlns="http://www.w3.org/2000/svg" xmlns:xlink="http://www.w3.org/1999/xlink">
<g id="graph1" class="graph" transform="scale(1 1) rotate(0) translate(4 175)">
<title>Urho3D::Spriter::Animation</title>
<!-- Node1 -->
<g id="node1" class="node"><title>Node1</title>
<polygon fill="#bfbfbf" stroke="black" points="420,-84.5 420,-105.5 566,-105.5 566,-84.5 420,-84.5"/>
<text text-anchor="middle" x="493" y="-92.5" font-family="FreeSans" font-size="10.00">Urho3D::Spriter::Animation</text>
</g>
<!-- Node2 -->
<g id="node2" class="node"><title>Node2</title>
<a xlink:href="class_urho3_d_1_1_p_o_d_vector.html" target="_top" xlink:title="Urho3D::PODVector\&lt;\l Urho3D::Spriter::Timeline * \&gt;">
<polygon fill="none" stroke="black" points="152,-137 152,-171 312,-171 312,-137 152,-137"/>
<text text-anchor="start" x="160" y="-158" font-family="FreeSans" font-size="10.00">Urho3D::PODVector&lt;</text>
<text text-anchor="middle" x="232" y="-145" font-family="FreeSans" font-size="10.00"> Urho3D::Spriter::Timeline * &gt;</text>
</a>
</g>
<!-- Node2&#45;&gt;Node1 -->
<g id="edge2" class="edge"><title>Node2&#45;&gt;Node1</title>
<path fill="none" stroke="#9a32cd" stroke-dasharray="5,2" d="M317.375,-134.701C360.287,-125 410.624,-113.621 446.381,-105.538"/>
<polygon fill="#9a32cd" stroke="#9a32cd" points="316.474,-131.316 307.492,-136.935 318.018,-138.144 316.474,-131.316"/>
<text text-anchor="middle" x="366" y="-135" font-family="FreeSans" font-size="10.00"> timelines_</text>
</g>
<!-- Node3 -->
<g id="node4" class="node"><title>Node3</title>
<a xlink:href="class_urho3_d_1_1_vector_base.html" target="_top" xlink:title="Vector base class.">
<polygon fill="none" stroke="black" points="0,-117.5 0,-138.5 114,-138.5 114,-117.5 0,-117.5"/>
<text text-anchor="middle" x="57" y="-125.5" font-family="FreeSans" font-size="10.00">Urho3D::VectorBase</text>
</a>
</g>
<!-- Node3&#45;&gt;Node2 -->
<g id="edge4" class="edge"><title>Node3&#45;&gt;Node2</title>
<path fill="none" stroke="midnightblue" d="M124.285,-137.997C133.259,-139.33 142.534,-140.708 151.703,-142.07"/>
<polygon fill="midnightblue" stroke="midnightblue" points="124.707,-134.521 114.302,-136.513 123.679,-141.445 124.707,-134.521"/>
</g>
<!-- Node5 -->
<g id="node9" class="node"><title>Node5</title>
<a xlink:href="class_urho3_d_1_1_p_o_d_vector.html" target="_top" xlink:title="Urho3D::PODVector\&lt;\l Urho3D::Spriter::Mainline\lKey * \&gt;">
<polygon fill="none" stroke="black" points="162,-71.5 162,-118.5 302,-118.5 302,-71.5 162,-71.5"/>
<text text-anchor="start" x="170" y="-105.5" font-family="FreeSans" font-size="10.00">Urho3D::PODVector&lt;</text>
<text text-anchor="start" x="170" y="-92.5" font-family="FreeSans" font-size="10.00"> Urho3D::Spriter::Mainline</text>
<text text-anchor="middle" x="232" y="-79.5" font-family="FreeSans" font-size="10.00">Key * &gt;</text>
</a>
</g>
<!-- Node3&#45;&gt;Node5 -->
<g id="edge12" class="edge"><title>Node3&#45;&gt;Node5</title>
<path fill="none" stroke="midnightblue" d="M122.912,-115.571C135.657,-113.167 149.055,-110.641 161.928,-108.214"/>
<polygon fill="midnightblue" stroke="midnightblue" points="122.03,-112.175 112.852,-117.468 123.328,-119.054 122.03,-112.175"/>
</g>
<!-- Node4 -->
<g id="node6" class="node"><title>Node4</title>
<a xlink:href="class_urho3_d_1_1_string.html" target="_top" xlink:title="String class.">
<polygon fill="none" stroke="black" points="188,-0.5 188,-21.5 276,-21.5 276,-0.5 188,-0.5"/>
<text text-anchor="middle" x="232" y="-8.5" font-family="FreeSans" font-size="10.00">Urho3D::String</text>
</a>
</g>
<!-- Node4&#45;&gt;Node1 -->
<g id="edge6" class="edge"><title>Node4&#45;&gt;Node1</title>
<path fill="none" stroke="#9a32cd" stroke-dasharray="5,2" d="M274.368,-24.6357C326.251,-41.3336 413.021,-69.2597 460.137,-84.4235"/>
<polygon fill="#9a32cd" stroke="#9a32cd" points="275.383,-21.2856 264.792,-21.5536 273.238,-27.949 275.383,-21.2856"/>
<text text-anchor="middle" x="366" y="-70" font-family="FreeSans" font-size="10.00"> name_</text>
</g>
<!-- Node4&#45;&gt;Node4 -->
<g id="edge8" class="edge"><title>Node4&#45;&gt;Node4</title>
<path fill="none" stroke="#9a32cd" stroke-dasharray="5,2" d="M213.94,-31.4266C215.333,-36.3489 221.353,-40 232,-40 249.035,-40 254.226,-30.6531 247.571,-21.7079"/>
<polygon fill="#9a32cd" stroke="#9a32cd" points="217.338,-32.2636 216.429,-21.7079 210.557,-30.5268 217.338,-32.2636"/>
<text text-anchor="middle" x="232" y="-44" font-family="FreeSans" font-size="10.00"> EMPTY</text>
</g>
<!-- Node5&#45;&gt;Node1 -->
<g id="edge10" class="edge"><title>Node5&#45;&gt;Node1</title>
<path fill="none" stroke="#9a32cd" stroke-dasharray="5,2" d="M312.719,-95C346.93,-95 386.51,-95 419.854,-95"/>
<polygon fill="#9a32cd" stroke="#9a32cd" points="312.287,-91.5001 302.287,-95 312.287,-98.5001 312.287,-91.5001"/>
<text text-anchor="middle" x="366" y="-99" font-family="FreeSans" font-size="10.00"> mainlineKeys_</text>
</g>
</g>
</svg>
