<?xml version="1.0" encoding="UTF-8" standalone="no"?>
<!DOCTYPE svg PUBLIC "-//W3C//DTD SVG 1.1//EN"
 "http://www.w3.org/Graphics/SVG/1.1/DTD/svg11.dtd">
<!-- Generated by graphviz version 2.26.3 (20100126.1600)
 -->
<!-- Title: Urho3D::Spriter::BoneTimelineKey Pages: 1 -->
<svg width="387pt" height="406pt"
 viewBox="0.00 0.00 387.00 406.00" xmlns="http://www.w3.org/2000/svg" xmlns:xlink="http://www.w3.org/1999/xlink">
<g id="graph1" class="graph" transform="scale(1 1) rotate(0) translate(4 402)">
<title>Urho3D::Spriter::BoneTimelineKey</title>
<!-- Node1 -->
<g id="node1" class="node"><title>Node1</title>
<polygon fill="#bfbfbf" stroke="black" points="172.5,-0.5 172.5,-21.5 351.5,-21.5 351.5,-0.5 172.5,-0.5"/>
<text text-anchor="middle" x="262" y="-8.5" font-family="FreeSans" font-size="10.00">Urho3D::Spriter::BoneTimelineKey</text>
</g>
<!-- Node2 -->
<g id="node2" class="node"><title>Node2</title>
<a xlink:href="struct_urho3_d_1_1_spriter_1_1_spatial_timeline_key.html" target="_top" xlink:title="Spatial timeline key.">
<polygon fill="none" stroke="black" points="196.5,-61 196.5,-95 327.5,-95 327.5,-61 196.5,-61"/>
<text text-anchor="start" x="204.5" y="-82" font-family="FreeSans" font-size="10.00">Urho3D::Spriter::Spatial</text>
<text text-anchor="middle" x="262" y="-69" font-family="FreeSans" font-size="10.00">TimelineKey</text>
</a>
</g>
<!-- Node2&#45;&gt;Node1 -->
<g id="edge2" class="edge"><title>Node2&#45;&gt;Node1</title>
<path fill="none" stroke="midnightblue" d="M262,-50.5344C262,-40.3057 262,-29.3007 262,-21.5056"/>
<polygon fill="midnightblue" stroke="midnightblue" points="258.5,-50.7458 262,-60.7458 265.5,-50.7459 258.5,-50.7458"/>
</g>
<!-- Node3 -->
<g id="node4" class="node"><title>Node3</title>
<a xlink:href="struct_urho3_d_1_1_spriter_1_1_timeline_key.html" target="_top" xlink:title="Timeline key.">
<polygon fill="none" stroke="black" points="59,-146.5 59,-167.5 213,-167.5 213,-146.5 59,-146.5"/>
<text text-anchor="middle" x="136" y="-154.5" font-family="FreeSans" font-size="10.00">Urho3D::Spriter::TimelineKey</text>
</a>
</g>
<!-- Node3&#45;&gt;Node2 -->
<g id="edge4" class="edge"><title>Node3&#45;&gt;Node2</title>
<path fill="none" stroke="midnightblue" d="M161.502,-141.011C182.752,-127.687 212.95,-108.753 234.689,-95.1236"/>
<polygon fill="midnightblue" stroke="midnightblue" points="159.606,-138.068 152.993,-146.346 163.325,-143.999 159.606,-138.068"/>
</g>
<!-- Node4 -->
<g id="node6" class="node"><title>Node4</title>
<a xlink:href="struct_urho3_d_1_1_spriter_1_1_timeline.html" target="_top" xlink:title="Timeline.">
<polygon fill="none" stroke="black" points="67.5,-218.5 67.5,-239.5 204.5,-239.5 204.5,-218.5 67.5,-218.5"/>
<text text-anchor="middle" x="136" y="-226.5" font-family="FreeSans" font-size="10.00">Urho3D::Spriter::Timeline</text>
</a>
</g>
<!-- Node4&#45;&gt;Node3 -->
<g id="edge6" class="edge"><title>Node4&#45;&gt;Node3</title>
<path fill="none" stroke="#9a32cd" stroke-dasharray="5,2" d="M136,-208.235C136,-194.969 136,-178.319 136,-167.667"/>
<polygon fill="#9a32cd" stroke="#9a32cd" points="132.5,-208.376 136,-218.376 139.5,-208.376 132.5,-208.376"/>
<text text-anchor="middle" x="159.5" y="-190.5" font-family="FreeSans" font-size="10.00"> timeline_</text>
</g>
<!-- Node5 -->
<g id="node8" class="node"><title>Node5</title>
<a xlink:href="class_urho3_d_1_1_p_o_d_vector.html" target="_top" xlink:title="Urho3D::PODVector\&lt;\l Urho3D::Spriter::SpatialTimeline\lKey * \&gt;">
<polygon fill="none" stroke="black" points="-0.5,-290.5 -0.5,-337.5 172.5,-337.5 172.5,-290.5 -0.5,-290.5"/>
<text text-anchor="start" x="7.5" y="-324.5" font-family="FreeSans" font-size="10.00">Urho3D::PODVector&lt;</text>
<text text-anchor="start" x="7.5" y="-311.5" font-family="FreeSans" font-size="10.00"> Urho3D::Spriter::SpatialTimeline</text>
<text text-anchor="middle" x="86" y="-298.5" font-family="FreeSans" font-size="10.00">Key * &gt;</text>
</a>
</g>
<!-- Node5&#45;&gt;Node4 -->
<g id="edge8" class="edge"><title>Node5&#45;&gt;Node4</title>
<path fill="none" stroke="#9a32cd" stroke-dasharray="5,2" d="M105.142,-281.459C113.785,-266.766 123.418,-250.39 129.585,-239.906"/>
<polygon fill="#9a32cd" stroke="#9a32cd" points="101.981,-279.929 99.9278,-290.323 108.015,-283.478 101.981,-279.929"/>
<text text-anchor="middle" x="134.5" y="-262.5" font-family="FreeSans" font-size="10.00"> keys_</text>
</g>
<!-- Node6 -->
<g id="node10" class="node"><title>Node6</title>
<a xlink:href="class_urho3_d_1_1_vector_base.html" target="_top" xlink:title="Vector base class.">
<polygon fill="none" stroke="black" points="29,-376.5 29,-397.5 143,-397.5 143,-376.5 29,-376.5"/>
<text text-anchor="middle" x="86" y="-384.5" font-family="FreeSans" font-size="10.00">Urho3D::VectorBase</text>
</a>
</g>
<!-- Node6&#45;&gt;Node5 -->
<g id="edge10" class="edge"><title>Node6&#45;&gt;Node5</title>
<path fill="none" stroke="midnightblue" d="M86,-366.053C86,-357.23 86,-346.915 86,-337.805"/>
<polygon fill="midnightblue" stroke="midnightblue" points="82.5001,-366.229 86,-376.229 89.5001,-366.229 82.5001,-366.229"/>
</g>
<!-- Node7 -->
<g id="node12" class="node"><title>Node7</title>
<a xlink:href="class_urho3_d_1_1_string.html" target="_top" xlink:title="String class.">
<polygon fill="none" stroke="black" points="190,-303.5 190,-324.5 278,-324.5 278,-303.5 190,-303.5"/>
<text text-anchor="middle" x="234" y="-311.5" font-family="FreeSans" font-size="10.00">Urho3D::String</text>
</a>
</g>
<!-- Node7&#45;&gt;Node4 -->
<g id="edge12" class="edge"><title>Node7&#45;&gt;Node4</title>
<path fill="none" stroke="#9a32cd" stroke-dasharray="5,2" d="M213.798,-296.478C194.092,-279.386 164.753,-253.939 148.311,-239.678"/>
<polygon fill="#9a32cd" stroke="#9a32cd" points="211.741,-299.326 221.588,-303.235 216.327,-294.038 211.741,-299.326"/>
<text text-anchor="middle" x="203.5" y="-262.5" font-family="FreeSans" font-size="10.00"> name_</text>
</g>
<!-- Node7&#45;&gt;Node7 -->
<g id="edge14" class="edge"><title>Node7&#45;&gt;Node7</title>
<path fill="none" stroke="#9a32cd" stroke-dasharray="5,2" d="M288.258,-320.188C293.019,-318.882 296,-316.82 296,-314 296,-309.488 288.369,-306.915 278.024,-306.281"/>
<polygon fill="#9a32cd" stroke="#9a32cd" points="287.396,-316.778 278.024,-321.719 288.432,-323.7 287.396,-316.778"/>
<text text-anchor="middle" x="313" y="-311.5" font-family="FreeSans" font-size="10.00"> EMPTY</text>
</g>
<!-- Node8 -->
<g id="node15" class="node"><title>Node8</title>
<a xlink:href="struct_urho3_d_1_1_spriter_1_1_spatial_info.html" target="_top" xlink:title="Spatial info.">
<polygon fill="none" stroke="black" points="231,-146.5 231,-167.5 379,-167.5 379,-146.5 231,-146.5"/>
<text text-anchor="middle" x="305" y="-154.5" font-family="FreeSans" font-size="10.00">Urho3D::Spriter::SpatialInfo</text>
</a>
</g>
<!-- Node8&#45;&gt;Node2 -->
<g id="edge16" class="edge"><title>Node8&#45;&gt;Node2</title>
<path fill="none" stroke="#9a32cd" stroke-dasharray="5,2" d="M294.286,-137.316C287.228,-124.349 278.077,-107.536 271.32,-95.1236"/>
<polygon fill="#9a32cd" stroke="#9a32cd" points="291.346,-139.236 299.201,-146.346 297.494,-135.889 291.346,-139.236"/>
<text text-anchor="middle" x="301" y="-118.5" font-family="FreeSans" font-size="10.00"> info_</text>
</g>
</g>
</svg>
