<?xml version="1.0" encoding="UTF-8" standalone="no"?>
<!DOCTYPE svg PUBLIC "-//W3C//DTD SVG 1.1//EN"
 "http://www.w3.org/Graphics/SVG/1.1/DTD/svg11.dtd">
<!-- Generated by graphviz version 2.26.3 (20100126.1600)
 -->
<!-- Title: Urho3D::Spriter::Folder Pages: 1 -->
<svg width="300pt" height="176pt"
 viewBox="0.00 0.00 300.00 176.00" xmlns="http://www.w3.org/2000/svg" xmlns:xlink="http://www.w3.org/1999/xlink">
<g id="graph1" class="graph" transform="scale(1 1) rotate(0) translate(4 172)">
<title>Urho3D::Spriter::Folder</title>
<!-- Node1 -->
<g id="node1" class="node"><title>Node1</title>
<polygon fill="#bfbfbf" stroke="black" points="67.5,-0.5 67.5,-21.5 194.5,-21.5 194.5,-0.5 67.5,-0.5"/>
<text text-anchor="middle" x="131" y="-8.5" font-family="FreeSans" font-size="10.00">Urho3D::Spriter::Folder</text>
</g>
<!-- Node2 -->
<g id="node2" class="node"><title>Node2</title>
<a xlink:href="class_urho3_d_1_1_p_o_d_vector.html" target="_top" xlink:title="Urho3D::PODVector\&lt;\l Urho3D::Spriter::File * \&gt;">
<polygon fill="none" stroke="black" points="-0.5,-73 -0.5,-107 134.5,-107 134.5,-73 -0.5,-73"/>
<text text-anchor="start" x="7.5" y="-94" font-family="FreeSans" font-size="10.00">Urho3D::PODVector&lt;</text>
<text text-anchor="middle" x="67" y="-81" font-family="FreeSans" font-size="10.00"> Urho3D::Spriter::File * &gt;</text>
</a>
</g>
<!-- Node2&#45;&gt;Node1 -->
<g id="edge2" class="edge"><title>Node2&#45;&gt;Node1</title>
<path fill="none" stroke="#9a32cd" stroke-dasharray="5,2" d="M87.5074,-64.6862C99.3243,-50.0997 113.552,-32.5369 122.439,-21.5672"/>
<polygon fill="#9a32cd" stroke="#9a32cd" points="84.4623,-62.8848 80.887,-72.8582 89.9015,-67.2912 84.4623,-62.8848"/>
<text text-anchor="middle" x="121" y="-44.5" font-family="FreeSans" font-size="10.00"> files_</text>
</g>
<!-- Node3 -->
<g id="node4" class="node"><title>Node3</title>
<a xlink:href="class_urho3_d_1_1_vector_base.html" target="_top" xlink:title="Vector base class.">
<polygon fill="none" stroke="black" points="10,-146.5 10,-167.5 124,-167.5 124,-146.5 10,-146.5"/>
<text text-anchor="middle" x="67" y="-154.5" font-family="FreeSans" font-size="10.00">Urho3D::VectorBase</text>
</a>
</g>
<!-- Node3&#45;&gt;Node2 -->
<g id="edge4" class="edge"><title>Node3&#45;&gt;Node2</title>
<path fill="none" stroke="midnightblue" d="M67,-136.165C67,-126.797 67,-115.88 67,-107.014"/>
<polygon fill="midnightblue" stroke="midnightblue" points="63.5001,-136.235 67,-146.235 70.5001,-136.235 63.5001,-136.235"/>
</g>
<!-- Node4 -->
<g id="node6" class="node"><title>Node4</title>
<a xlink:href="class_urho3_d_1_1_string.html" target="_top" xlink:title="String class.">
<polygon fill="none" stroke="black" points="152,-79.5 152,-100.5 240,-100.5 240,-79.5 152,-79.5"/>
<text text-anchor="middle" x="196" y="-87.5" font-family="FreeSans" font-size="10.00">Urho3D::String</text>
</a>
</g>
<!-- Node4&#45;&gt;Node1 -->
<g id="edge6" class="edge"><title>Node4&#45;&gt;Node1</title>
<path fill="none" stroke="#9a32cd" stroke-dasharray="5,2" d="M180.753,-71.4689C168.028,-56.0032 150.334,-34.4979 139.835,-21.7378"/>
<polygon fill="#9a32cd" stroke="#9a32cd" points="178.177,-73.8474 187.234,-79.3457 183.583,-69.3998 178.177,-73.8474"/>
<text text-anchor="middle" x="183.5" y="-44.5" font-family="FreeSans" font-size="10.00"> name_</text>
</g>
<!-- Node4&#45;&gt;Node4 -->
<g id="edge8" class="edge"><title>Node4&#45;&gt;Node4</title>
<path fill="none" stroke="#9a32cd" stroke-dasharray="5,2" d="M250.258,-95.3037C255.019,-94.1849 258,-92.417 258,-90 258,-86.1328 250.369,-83.9273 240.024,-83.3835"/>
<polygon fill="#9a32cd" stroke="#9a32cd" points="249.498,-91.8724 240.024,-96.6165 250.389,-98.8155 249.498,-91.8724"/>
<text text-anchor="middle" x="275" y="-87.5" font-family="FreeSans" font-size="10.00"> EMPTY</text>
</g>
</g>
</svg>
