<?xml version="1.0" encoding="UTF-8" standalone="no"?>
<!DOCTYPE svg PUBLIC "-//W3C//DTD SVG 1.1//EN"
 "http://www.w3.org/Graphics/SVG/1.1/DTD/svg11.dtd">
<!-- Generated by graphviz version 2.26.3 (20100126.1600)
 -->
<!-- Title: Urho3D::ViewBatchInfo2D Pages: 1 -->
<svg width="2080pt" height="731pt"
 viewBox="0.00 0.00 2080.00 731.00" xmlns="http://www.w3.org/2000/svg" xmlns:xlink="http://www.w3.org/1999/xlink">
<g id="graph1" class="graph" transform="scale(1 1) rotate(0) translate(4 727)">
<title>Urho3D::ViewBatchInfo2D</title>
<!-- Node1 -->
<g id="node1" class="node"><title>Node1</title>
<polygon fill="#bfbfbf" stroke="black" points="1731,-632.5 1731,-653.5 1871,-653.5 1871,-632.5 1731,-632.5"/>
<text text-anchor="middle" x="1801" y="-640.5" font-family="FreeSans" font-size="10.00">Urho3D::ViewBatchInfo2D</text>
</g>
<!-- Node2 -->
<g id="node2" class="node"><title>Node2</title>
<a xlink:href="class_urho3_d_1_1_vector.html" target="_top" xlink:title="Urho3D::Vector\&lt; Urho3D\l::SharedPtr\&lt; Urho3D::Material \&gt; \&gt;">
<polygon fill="none" stroke="black" points="424.5,-689 424.5,-723 609.5,-723 609.5,-689 424.5,-689"/>
<text text-anchor="start" x="432.5" y="-710" font-family="FreeSans" font-size="10.00">Urho3D::Vector&lt; Urho3D</text>
<text text-anchor="middle" x="517" y="-697" font-family="FreeSans" font-size="10.00">::SharedPtr&lt; Urho3D::Material &gt; &gt;</text>
</a>
</g>
<!-- Node2&#45;&gt;Node1 -->
<g id="edge2" class="edge"><title>Node2&#45;&gt;Node1</title>
<path fill="none" stroke="#9a32cd" stroke-dasharray="5,2" d="M619.869,-706.502C679.486,-706.751 755.981,-707 824,-707 824,-707 824,-707 1551,-707 1636.12,-707 1732.6,-671.746 1776.69,-653.568"/>
<polygon fill="#9a32cd" stroke="#9a32cd" points="619.711,-703.002 609.697,-706.459 619.682,-710.002 619.711,-703.002"/>
<text text-anchor="middle" x="1128" y="-711" font-family="FreeSans" font-size="10.00"> materials_</text>
</g>
<!-- Node3 -->
<g id="node4" class="node"><title>Node3</title>
<a xlink:href="class_urho3_d_1_1_vector_base.html" target="_top" xlink:title="Vector base class.">
<polygon fill="none" stroke="black" points="0,-617.5 0,-638.5 114,-638.5 114,-617.5 0,-617.5"/>
<text text-anchor="middle" x="57" y="-625.5" font-family="FreeSans" font-size="10.00">Urho3D::VectorBase</text>
</a>
</g>
<!-- Node3&#45;&gt;Node2 -->
<g id="edge4" class="edge"><title>Node3&#45;&gt;Node2</title>
<path fill="none" stroke="midnightblue" d="M75.7065,-645.3C89.9801,-657.355 110.749,-672.558 132,-680 227.632,-713.488 344.653,-716.481 424.406,-713.324"/>
<polygon fill="midnightblue" stroke="midnightblue" points="77.9307,-642.595 68.0985,-638.648 73.3234,-647.865 77.9307,-642.595"/>
</g>
<!-- Node4 -->
<g id="node6" class="node"><title>Node4</title>
<a xlink:href="class_urho3_d_1_1_p_o_d_vector.html" target="_top" xlink:title="Urho3D::PODVector\&lt;\l const Urho3D::SourceBatch2\lD * \&gt;">
<polygon fill="none" stroke="black" points="744.5,-643.5 744.5,-690.5 903.5,-690.5 903.5,-643.5 744.5,-643.5"/>
<text text-anchor="start" x="752.5" y="-677.5" font-family="FreeSans" font-size="10.00">Urho3D::PODVector&lt;</text>
<text text-anchor="start" x="752.5" y="-664.5" font-family="FreeSans" font-size="10.00"> const Urho3D::SourceBatch2</text>
<text text-anchor="middle" x="824" y="-651.5" font-family="FreeSans" font-size="10.00">D * &gt;</text>
</a>
</g>
<!-- Node3&#45;&gt;Node4 -->
<g id="edge8" class="edge"><title>Node3&#45;&gt;Node4</title>
<path fill="none" stroke="midnightblue" d="M117.62,-640.107C122.473,-640.834 127.31,-641.48 132,-642 352.751,-666.454 615.288,-668.633 744.326,-667.951"/>
<polygon fill="midnightblue" stroke="midnightblue" points="118.108,-636.641 107.681,-638.515 117.001,-643.553 118.108,-636.641"/>
</g>
<!-- Node11 -->
<g id="node22" class="node"><title>Node11</title>
<a xlink:href="class_urho3_d_1_1_p_o_d_vector.html" target="_top" xlink:title="Urho3D::PODVector\&lt;\l Urho3D::Object * \&gt;">
<polygon fill="none" stroke="black" points="243.5,-434 243.5,-468 362.5,-468 362.5,-434 243.5,-434"/>
<text text-anchor="start" x="251.5" y="-455" font-family="FreeSans" font-size="10.00">Urho3D::PODVector&lt;</text>
<text text-anchor="middle" x="303" y="-442" font-family="FreeSans" font-size="10.00"> Urho3D::Object * &gt;</text>
</a>
</g>
<!-- Node3&#45;&gt;Node11 -->
<g id="edge26" class="edge"><title>Node3&#45;&gt;Node11</title>
<path fill="none" stroke="midnightblue" d="M69.6926,-608.698C92.0334,-576.31 141.59,-511.218 200,-477 213.128,-469.309 228.492,-463.875 243.287,-460.042"/>
<polygon fill="midnightblue" stroke="midnightblue" points="66.5961,-607.029 63.8899,-617.272 72.3933,-610.952 66.5961,-607.029"/>
</g>
<!-- Node16 -->
<g id="node34" class="node"><title>Node16</title>
<a xlink:href="class_urho3_d_1_1_p_o_d_vector.html" target="_top" xlink:title="Urho3D::PODVector\&lt;\l Urho3D::HashMap * \&gt;">
<polygon fill="none" stroke="black" points="239.5,-382 239.5,-416 366.5,-416 366.5,-382 239.5,-382"/>
<text text-anchor="start" x="247.5" y="-403" font-family="FreeSans" font-size="10.00">Urho3D::PODVector&lt;</text>
<text text-anchor="middle" x="303" y="-390" font-family="FreeSans" font-size="10.00"> Urho3D::HashMap * &gt;</text>
</a>
</g>
<!-- Node3&#45;&gt;Node16 -->
<g id="edge40" class="edge"><title>Node3&#45;&gt;Node16</title>
<path fill="none" stroke="midnightblue" d="M64.0425,-607.771C80.2254,-564.816 124.579,-465.154 200,-425 212.128,-418.543 225.92,-413.642 239.381,-409.939"/>
<polygon fill="midnightblue" stroke="midnightblue" points="60.6694,-606.805 60.5334,-617.399 67.2462,-609.202 60.6694,-606.805"/>
</g>
<!-- Node25 -->
<g id="node58" class="node"><title>Node25</title>
<a xlink:href="class_urho3_d_1_1_vector.html" target="_top" xlink:title="Urho3D::Vector\&lt; Urho3D\l::SharedPtr\&lt; Urho3D::Geometry \&gt; \&gt;">
<polygon fill="none" stroke="black" points="1030.5,-607 1030.5,-641 1225.5,-641 1225.5,-607 1030.5,-607"/>
<text text-anchor="start" x="1038.5" y="-628" font-family="FreeSans" font-size="10.00">Urho3D::Vector&lt; Urho3D</text>
<text text-anchor="middle" x="1128" y="-615" font-family="FreeSans" font-size="10.00">::SharedPtr&lt; Urho3D::Geometry &gt; &gt;</text>
</a>
</g>
<!-- Node3&#45;&gt;Node25 -->
<g id="edge70" class="edge"><title>Node3&#45;&gt;Node25</title>
<path fill="none" stroke="midnightblue" d="M124.409,-628C173.844,-628 242.594,-628 303,-628 303,-628 303,-628 824,-628 893.013,-628 970.831,-626.957 1030.46,-625.936"/>
<polygon fill="midnightblue" stroke="midnightblue" points="124.163,-624.5 114.163,-628 124.163,-631.5 124.163,-624.5"/>
</g>
<!-- Node4&#45;&gt;Node1 -->
<g id="edge6" class="edge"><title>Node4&#45;&gt;Node1</title>
<path fill="none" stroke="#9a32cd" stroke-dasharray="5,2" d="M913.972,-666.549C974.479,-666.284 1056.03,-666 1128,-666 1128,-666 1128,-666 1551,-666 1611.91,-666 1680.82,-659.146 1730.84,-652.921"/>
<polygon fill="#9a32cd" stroke="#9a32cd" points="913.673,-663.05 903.689,-666.595 913.704,-670.05 913.673,-663.05"/>
<text text-anchor="middle" x="1306" y="-670" font-family="FreeSans" font-size="10.00"> sourceBatches_</text>
</g>
<!-- Node5 -->
<g id="node9" class="node"><title>Node5</title>
<a xlink:href="class_urho3_d_1_1_shared_ptr.html" target="_top" xlink:title="Urho3D::SharedPtr\&lt;\l Urho3D::VertexBuffer \&gt;">
<polygon fill="none" stroke="black" points="1484.5,-141 1484.5,-175 1617.5,-175 1617.5,-141 1484.5,-141"/>
<text text-anchor="start" x="1492.5" y="-162" font-family="FreeSans" font-size="10.00">Urho3D::SharedPtr&lt;</text>
<text text-anchor="middle" x="1551" y="-149" font-family="FreeSans" font-size="10.00"> Urho3D::VertexBuffer &gt;</text>
</a>
</g>
<!-- Node5&#45;&gt;Node1 -->
<g id="edge10" class="edge"><title>Node5&#45;&gt;Node1</title>
<path fill="none" stroke="#9a32cd" stroke-dasharray="5,2" d="M1620.62,-180.957C1621.79,-181.93 1622.92,-182.944 1624,-184 1763.16,-319.601 1794.77,-576.682 1800.08,-632.242"/>
<polygon fill="#9a32cd" stroke="#9a32cd" points="1622.57,-178.051 1612.39,-175.113 1618.52,-183.758 1622.57,-178.051"/>
<text text-anchor="middle" x="1676" y="-307" font-family="FreeSans" font-size="10.00"> vertexBuffer_</text>
</g>
<!-- Node6 -->
<g id="node11" class="node"><title>Node6</title>
<a xlink:href="class_urho3_d_1_1_vertex_buffer.html" target="_top" xlink:title="Hardware vertex buffer.">
<polygon fill="none" stroke="black" points="1246.5,-101.5 1246.5,-122.5 1365.5,-122.5 1365.5,-101.5 1246.5,-101.5"/>
<text text-anchor="middle" x="1306" y="-109.5" font-family="FreeSans" font-size="10.00">Urho3D::VertexBuffer</text>
</a>
</g>
<!-- Node6&#45;&gt;Node5 -->
<g id="edge12" class="edge"><title>Node6&#45;&gt;Node5</title>
<path fill="none" stroke="#9a32cd" stroke-dasharray="5,2" d="M1372.25,-124.438C1406.96,-130.956 1449.38,-138.92 1484.18,-145.453"/>
<polygon fill="#9a32cd" stroke="#9a32cd" points="1372.68,-120.959 1362.21,-122.553 1371.39,-127.839 1372.68,-120.959"/>
<text text-anchor="middle" x="1423" y="-145" font-family="FreeSans" font-size="10.00"> ptr_</text>
</g>
<!-- Node23 -->
<g id="node50" class="node"><title>Node23</title>
<a xlink:href="class_urho3_d_1_1_graphics.html" target="_top" xlink:title="Graphics subsystem. Manages the application window, rendering state and GPU resources.">
<polygon fill="none" stroke="red" points="1500.5,-48.5 1500.5,-69.5 1601.5,-69.5 1601.5,-48.5 1500.5,-48.5"/>
<text text-anchor="middle" x="1551" y="-56.5" font-family="FreeSans" font-size="10.00">Urho3D::Graphics</text>
</a>
</g>
<!-- Node6&#45;&gt;Node23 -->
<g id="edge60" class="edge"><title>Node6&#45;&gt;Node23</title>
<path fill="none" stroke="#9a32cd" stroke-dasharray="5,2" d="M1343.21,-97.9822C1356.56,-93.3438 1371.82,-88.4834 1386,-85 1423.88,-75.6948 1467.5,-68.9904 1500.38,-64.7225"/>
<polygon fill="#9a32cd" stroke="#9a32cd" points="1341.68,-94.8134 1333.43,-101.459 1344.02,-101.409 1341.68,-94.8134"/>
<text text-anchor="middle" x="1423" y="-89" font-family="FreeSans" font-size="10.00"> vertexBuffers_</text>
</g>
<!-- Node7 -->
<g id="node13" class="node"><title>Node7</title>
<a xlink:href="class_urho3_d_1_1_object.html" target="_top" xlink:title="Base class for objects with type identification, subsystem access and event sending/receiving capabil...">
<polygon fill="none" stroke="black" points="922,-119.5 922,-140.5 1012,-140.5 1012,-119.5 922,-119.5"/>
<text text-anchor="middle" x="967" y="-127.5" font-family="FreeSans" font-size="10.00">Urho3D::Object</text>
</a>
</g>
<!-- Node7&#45;&gt;Node6 -->
<g id="edge14" class="edge"><title>Node7&#45;&gt;Node6</title>
<path fill="none" stroke="midnightblue" d="M1022.25,-126.452C1024.87,-126.296 1027.46,-126.145 1030,-126 1104.6,-121.74 1190.59,-117.481 1246.5,-114.799"/>
<polygon fill="midnightblue" stroke="midnightblue" points="1021.85,-122.97 1012.08,-127.068 1022.27,-129.957 1021.85,-122.97"/>
</g>
<!-- Node12 -->
<g id="node25" class="node"><title>Node12</title>
<a xlink:href="class_urho3_d_1_1_event_handler.html" target="_top" xlink:title="Internal helper class for invoking event handler functions.">
<polygon fill="none" stroke="red" points="1244,-153.5 1244,-174.5 1368,-174.5 1368,-153.5 1244,-153.5"/>
<text text-anchor="middle" x="1306" y="-161.5" font-family="FreeSans" font-size="10.00">Urho3D::EventHandler</text>
</a>
</g>
<!-- Node7&#45;&gt;Node12 -->
<g id="edge30" class="edge"><title>Node7&#45;&gt;Node12</title>
<path fill="none" stroke="#9a32cd" stroke-dasharray="5,2" d="M1022.27,-130.864C1074.88,-132.288 1156.17,-136.052 1226,-146 1238.83,-147.827 1252.64,-150.63 1265.12,-153.483"/>
<polygon fill="#9a32cd" stroke="#9a32cd" points="1022.22,-127.362 1012.14,-130.609 1022.05,-134.36 1022.22,-127.362"/>
<text text-anchor="middle" x="1128" y="-163" font-family="FreeSans" font-size="10.00"> sender_</text>
<text text-anchor="middle" x="1128" y="-150" font-family="FreeSans" font-size="10.00">receiver_</text>
</g>
<!-- Node7&#45;&gt;Node23 -->
<g id="edge58" class="edge"><title>Node7&#45;&gt;Node23</title>
<path fill="none" stroke="midnightblue" d="M1012.51,-116.941C1018.37,-115.49 1024.31,-114.131 1030,-113 1186.48,-81.9253 1227.09,-81.0966 1386,-67 1424.28,-63.6043 1467.69,-61.5716 1500.38,-60.4054"/>
<polygon fill="midnightblue" stroke="midnightblue" points="1011.59,-113.562 1002.78,-119.446 1013.34,-120.341 1011.59,-113.562"/>
</g>
<!-- Node8 -->
<g id="node15" class="node"><title>Node8</title>
<a xlink:href="class_urho3_d_1_1_ref_counted.html" target="_top" xlink:title="Base class for intrusively reference&#45;counted objects. These are noncopyable and non&#45;assignable.">
<polygon fill="none" stroke="black" points="246,-210.5 246,-231.5 360,-231.5 360,-210.5 246,-210.5"/>
<text text-anchor="middle" x="303" y="-218.5" font-family="FreeSans" font-size="10.00">Urho3D::RefCounted</text>
</a>
</g>
<!-- Node8&#45;&gt;Node7 -->
<g id="edge16" class="edge"><title>Node8&#45;&gt;Node7</title>
<path fill="none" stroke="midnightblue" d="M370.144,-218.995C383.333,-215.753 396.123,-210.203 406,-201 428.559,-179.981 399.601,-152.852 424,-134 500.837,-74.6303 805.619,-108.219 921.743,-123.604"/>
<polygon fill="midnightblue" stroke="midnightblue" points="369.127,-215.63 360.022,-221.046 370.518,-222.49 369.127,-215.63"/>
</g>
<!-- Node10 -->
<g id="node19" class="node"><title>Node10</title>
<a xlink:href="class_urho3_d_1_1_context.html" target="_top" xlink:title="Urho3D execution context. Provides access to subsystems, object factories and attributes, and event receivers.">
<polygon fill="none" stroke="black" points="628.5,-263.5 628.5,-284.5 725.5,-284.5 725.5,-263.5 628.5,-263.5"/>
<text text-anchor="middle" x="677" y="-271.5" font-family="FreeSans" font-size="10.00">Urho3D::Context</text>
</a>
</g>
<!-- Node8&#45;&gt;Node10 -->
<g id="edge22" class="edge"><title>Node8&#45;&gt;Node10</title>
<path fill="none" stroke="midnightblue" d="M370.404,-230.552C444.768,-241.09 562.606,-257.789 628.432,-267.117"/>
<polygon fill="midnightblue" stroke="midnightblue" points="370.602,-227.045 360.21,-229.107 369.62,-233.976 370.602,-227.045"/>
</g>
<!-- Node9 -->
<g id="node17" class="node"><title>Node9</title>
<a xlink:href="struct_urho3_d_1_1_ref_count.html" target="_top" xlink:title="Reference count structure.">
<polygon fill="none" stroke="black" points="6,-27.5 6,-48.5 108,-48.5 108,-27.5 6,-27.5"/>
<text text-anchor="middle" x="57" y="-35.5" font-family="FreeSans" font-size="10.00">Urho3D::RefCount</text>
</a>
</g>
<!-- Node9&#45;&gt;Node8 -->
<g id="edge18" class="edge"><title>Node9&#45;&gt;Node8</title>
<path fill="none" stroke="#9a32cd" stroke-dasharray="5,2" d="M67.903,-57.2429C88.7139,-92.0538 137.633,-165.189 200,-201 213.822,-208.937 230.229,-213.784 245.838,-216.728"/>
<polygon fill="#9a32cd" stroke="#9a32cd" points="70.8612,-55.368 62.7908,-48.5035 64.819,-58.9024 70.8612,-55.368"/>
<text text-anchor="middle" x="157" y="-193" font-family="FreeSans" font-size="10.00"> refCount_</text>
</g>
<!-- Node22 -->
<g id="node48" class="node"><title>Node22</title>
<a xlink:href="class_urho3_d_1_1_weak_ptr.html" target="_top" xlink:title="Urho3D::WeakPtr\&lt; Urho3D\l::Graphics \&gt;">
<polygon fill="none" stroke="black" points="1728,-42 1728,-76 1874,-76 1874,-42 1728,-42"/>
<text text-anchor="start" x="1736" y="-63" font-family="FreeSans" font-size="10.00">Urho3D::WeakPtr&lt; Urho3D</text>
<text text-anchor="middle" x="1801" y="-50" font-family="FreeSans" font-size="10.00">::Graphics &gt;</text>
</a>
</g>
<!-- Node9&#45;&gt;Node22 -->
<g id="edge62" class="edge"><title>Node9&#45;&gt;Node22</title>
<path fill="none" stroke="#9a32cd" stroke-dasharray="5,2" d="M109.199,-25.185C158.751,-14.1536 235.483,-0 303,-0 303,-0 303,-0 1551,-0 1624.58,-0 1707.17,-24.5098 1756.58,-41.9348"/>
<polygon fill="#9a32cd" stroke="#9a32cd" points="108.336,-21.7917 99.3567,-27.4149 109.883,-28.6187 108.336,-21.7917"/>
<text text-anchor="middle" x="967" y="-4" font-family="FreeSans" font-size="10.00"> refCount_</text>
</g>
<!-- Node24 -->
<g id="node55" class="node"><title>Node24</title>
<a xlink:href="class_urho3_d_1_1_shared_array_ptr.html" target="_top" xlink:title="Urho3D::SharedArrayPtr\l\&lt; unsigned char \&gt;">
<polygon fill="none" stroke="black" points="450.5,-30 450.5,-64 583.5,-64 583.5,-30 450.5,-30"/>
<text text-anchor="start" x="458.5" y="-51" font-family="FreeSans" font-size="10.00">Urho3D::SharedArrayPtr</text>
<text text-anchor="middle" x="517" y="-38" font-family="FreeSans" font-size="10.00">&lt; unsigned char &gt;</text>
</a>
</g>
<!-- Node9&#45;&gt;Node24 -->
<g id="edge66" class="edge"><title>Node9&#45;&gt;Node24</title>
<path fill="none" stroke="#9a32cd" stroke-dasharray="5,2" d="M118.603,-39.2053C204.953,-40.8947 361.361,-43.9549 450.349,-45.696"/>
<polygon fill="#9a32cd" stroke="#9a32cd" points="118.495,-35.7026 108.429,-39.0062 118.358,-42.7013 118.495,-35.7026"/>
<text text-anchor="middle" x="157" y="-45" font-family="FreeSans" font-size="10.00"> refCount_</text>
</g>
<!-- Node10&#45;&gt;Node7 -->
<g id="edge20" class="edge"><title>Node10&#45;&gt;Node7</title>
<path fill="none" stroke="#9a32cd" stroke-dasharray="5,2" d="M682.776,-253.421C691.397,-226.846 710.335,-181.36 744,-159 758.492,-149.374 860.917,-139.093 921.796,-133.736"/>
<polygon fill="#9a32cd" stroke="#9a32cd" points="679.357,-252.633 679.789,-263.219 686.053,-254.674 679.357,-252.633"/>
<text text-anchor="middle" x="824" y="-163" font-family="FreeSans" font-size="10.00"> context_</text>
</g>
<!-- Node11&#45;&gt;Node10 -->
<g id="edge24" class="edge"><title>Node11&#45;&gt;Node10</title>
<path fill="none" stroke="#9a32cd" stroke-dasharray="5,2" d="M372.763,-461.201C439.836,-467.136 540.942,-465.482 610,-416 655.424,-383.453 671.063,-311.974 675.491,-284.786"/>
<polygon fill="#9a32cd" stroke="#9a32cd" points="373.001,-457.708 362.711,-460.233 372.33,-464.676 373.001,-457.708"/>
<text text-anchor="middle" x="517" y="-468" font-family="FreeSans" font-size="10.00"> eventSenders_</text>
</g>
<!-- Node12&#45;&gt;Node10 -->
<g id="edge28" class="edge"><title>Node12&#45;&gt;Node10</title>
<path fill="none" stroke="#9a32cd" stroke-dasharray="5,2" d="M1235.66,-176.3C1106.84,-198.829 836.114,-246.174 725.572,-265.506"/>
<polygon fill="#9a32cd" stroke="#9a32cd" points="1236.56,-179.696 1245.81,-174.526 1235.36,-172.801 1236.56,-179.696"/>
<text text-anchor="middle" x="967" y="-234" font-family="FreeSans" font-size="10.00"> eventHandler_</text>
</g>
<!-- Node20 -->
<g id="node43" class="node"><title>Node20</title>
<a xlink:href="class_urho3_d_1_1_linked_list.html" target="_top" xlink:title="Urho3D::LinkedList\l\&lt; Urho3D::EventHandler \&gt;">
<polygon fill="none" stroke="black" points="1478,-193 1478,-227 1624,-227 1624,-193 1478,-193"/>
<text text-anchor="start" x="1486" y="-214" font-family="FreeSans" font-size="10.00">Urho3D::LinkedList</text>
<text text-anchor="middle" x="1551" y="-201" font-family="FreeSans" font-size="10.00">&lt; Urho3D::EventHandler &gt;</text>
</a>
</g>
<!-- Node12&#45;&gt;Node20 -->
<g id="edge50" class="edge"><title>Node12&#45;&gt;Node20</title>
<path fill="none" stroke="#9a32cd" stroke-dasharray="5,2" d="M1378.29,-171.134C1404.21,-174.284 1433.54,-178.535 1460,-184 1471.91,-186.46 1484.53,-189.67 1496.47,-192.991"/>
<polygon fill="#9a32cd" stroke="#9a32cd" points="1378.51,-167.635 1368.17,-169.937 1377.69,-174.587 1378.51,-167.635"/>
<text text-anchor="middle" x="1423" y="-188" font-family="FreeSans" font-size="10.00"> head_</text>
</g>
<!-- Node13 -->
<g id="node28" class="node"><title>Node13</title>
<a xlink:href="class_urho3_d_1_1_hash_map.html" target="_top" xlink:title="Urho3D::HashMap\&lt; Urho3D\l::StringHash, Urho3D::\lHashSet\&lt; Urho3D::Object * \&gt; \&gt;">
<polygon fill="none" stroke="red" points="216.5,-144.5 216.5,-191.5 389.5,-191.5 389.5,-144.5 216.5,-144.5"/>
<text text-anchor="start" x="224.5" y="-178.5" font-family="FreeSans" font-size="10.00">Urho3D::HashMap&lt; Urho3D</text>
<text text-anchor="start" x="224.5" y="-165.5" font-family="FreeSans" font-size="10.00">::StringHash, Urho3D::</text>
<text text-anchor="middle" x="303" y="-152.5" font-family="FreeSans" font-size="10.00">HashSet&lt; Urho3D::Object * &gt; &gt;</text>
</a>
</g>
<!-- Node13&#45;&gt;Node10 -->
<g id="edge32" class="edge"><title>Node13&#45;&gt;Node10</title>
<path fill="none" stroke="#9a32cd" stroke-dasharray="5,2" d="M399.744,-173.61C461.952,-180.01 543.317,-193.704 610,-223 632.217,-232.761 653.793,-251.307 666.218,-263.141"/>
<polygon fill="#9a32cd" stroke="#9a32cd" points="399.832,-170.102 389.538,-172.608 399.148,-177.068 399.832,-170.102"/>
<text text-anchor="middle" x="517" y="-227" font-family="FreeSans" font-size="10.00"> eventReceivers_</text>
</g>
<!-- Node14 -->
<g id="node30" class="node"><title>Node14</title>
<a xlink:href="class_urho3_d_1_1_hash_map.html" target="_top" xlink:title="Urho3D::HashMap\&lt; Urho3D\l::Object *, Urho3D::HashMap\l\&lt; Urho3D::StringHash, Urho3D\l::HashSet\&lt; Urho3D::Object * \&gt; \&gt; \&gt;">
<polygon fill="none" stroke="red" points="207.5,-66 207.5,-126 398.5,-126 398.5,-66 207.5,-66"/>
<text text-anchor="start" x="215.5" y="-113" font-family="FreeSans" font-size="10.00">Urho3D::HashMap&lt; Urho3D</text>
<text text-anchor="start" x="215.5" y="-100" font-family="FreeSans" font-size="10.00">::Object *, Urho3D::HashMap</text>
<text text-anchor="start" x="215.5" y="-87" font-family="FreeSans" font-size="10.00">&lt; Urho3D::StringHash, Urho3D</text>
<text text-anchor="middle" x="303" y="-74" font-family="FreeSans" font-size="10.00">::HashSet&lt; Urho3D::Object * &gt; &gt; &gt;</text>
</a>
</g>
<!-- Node14&#45;&gt;Node10 -->
<g id="edge34" class="edge"><title>Node14&#45;&gt;Node10</title>
<path fill="none" stroke="#9a32cd" stroke-dasharray="5,2" d="M408.601,-97.5175C472.122,-103.191 551.691,-119.185 610,-161 646.698,-187.317 666.708,-240.522 673.892,-263.28"/>
<polygon fill="#9a32cd" stroke="#9a32cd" points="408.803,-94.0224 398.55,-96.6931 408.231,-100.999 408.803,-94.0224"/>
<text text-anchor="middle" x="517" y="-165" font-family="FreeSans" font-size="10.00"> specificEventReceivers_</text>
</g>
<!-- Node15 -->
<g id="node32" class="node"><title>Node15</title>
<a xlink:href="class_urho3_d_1_1_hash_map.html" target="_top" xlink:title="Urho3D::HashMap\&lt; Urho3D\l::StringHash, Urho3D::\lSharedPtr\&lt; Urho3D::Object \&gt; \&gt;">
<polygon fill="none" stroke="red" points="217,-552.5 217,-599.5 389,-599.5 389,-552.5 217,-552.5"/>
<text text-anchor="start" x="225" y="-586.5" font-family="FreeSans" font-size="10.00">Urho3D::HashMap&lt; Urho3D</text>
<text text-anchor="start" x="225" y="-573.5" font-family="FreeSans" font-size="10.00">::StringHash, Urho3D::</text>
<text text-anchor="middle" x="303" y="-560.5" font-family="FreeSans" font-size="10.00">SharedPtr&lt; Urho3D::Object &gt; &gt;</text>
</a>
</g>
<!-- Node15&#45;&gt;Node10 -->
<g id="edge36" class="edge"><title>Node15&#45;&gt;Node10</title>
<path fill="none" stroke="#9a32cd" stroke-dasharray="5,2" d="M399.291,-593.252C466.144,-599.466 553.09,-595.248 610,-546 651.005,-510.516 671.411,-330.457 675.991,-284.625"/>
<polygon fill="#9a32cd" stroke="#9a32cd" points="399.465,-589.752 389.161,-592.217 398.753,-596.715 399.465,-589.752"/>
<text text-anchor="middle" x="517" y="-599" font-family="FreeSans" font-size="10.00"> subsystems_</text>
</g>
<!-- Node16&#45;&gt;Node10 -->
<g id="edge38" class="edge"><title>Node16&#45;&gt;Node10</title>
<path fill="none" stroke="#9a32cd" stroke-dasharray="5,2" d="M376.941,-401.333C442.136,-400.281 537.733,-390.942 610,-351 638.847,-335.056 661.144,-301.633 671.182,-284.547"/>
<polygon fill="#9a32cd" stroke="#9a32cd" points="376.711,-397.835 366.746,-401.434 376.781,-404.835 376.711,-397.835"/>
<text text-anchor="middle" x="517" y="-404" font-family="FreeSans" font-size="10.00"> eventDataMaps_</text>
</g>
<!-- Node17 -->
<g id="node37" class="node"><title>Node17</title>
<a xlink:href="class_urho3_d_1_1_hash_map.html" target="_top" xlink:title="Urho3D::HashMap\&lt; Urho3D\l::StringHash, Urho3D::\lSharedPtr\&lt; Urho3D::ObjectFactory \&gt; \&gt;">
<polygon fill="none" stroke="red" points="200,-486.5 200,-533.5 406,-533.5 406,-486.5 200,-486.5"/>
<text text-anchor="start" x="208" y="-520.5" font-family="FreeSans" font-size="10.00">Urho3D::HashMap&lt; Urho3D</text>
<text text-anchor="start" x="208" y="-507.5" font-family="FreeSans" font-size="10.00">::StringHash, Urho3D::</text>
<text text-anchor="middle" x="303" y="-494.5" font-family="FreeSans" font-size="10.00">SharedPtr&lt; Urho3D::ObjectFactory &gt; &gt;</text>
</a>
</g>
<!-- Node17&#45;&gt;Node10 -->
<g id="edge42" class="edge"><title>Node17&#45;&gt;Node10</title>
<path fill="none" stroke="#9a32cd" stroke-dasharray="5,2" d="M416.193,-527.644C479.62,-531.14 556.483,-523.922 610,-481 642.119,-455.24 668.121,-323.245 675.133,-284.626"/>
<polygon fill="#9a32cd" stroke="#9a32cd" points="416.339,-524.146 406.134,-526.994 415.888,-531.131 416.339,-524.146"/>
<text text-anchor="middle" x="517" y="-533" font-family="FreeSans" font-size="10.00"> factories_</text>
</g>
<!-- Node18 -->
<g id="node39" class="node"><title>Node18</title>
<a xlink:href="class_urho3_d_1_1_hash_map.html" target="_top" xlink:title="Urho3D::HashMap\&lt; Urho3D\l::String, Urho3D::Vector\l\&lt; Urho3D::StringHash \&gt; \&gt;">
<polygon fill="none" stroke="red" points="227,-316.5 227,-363.5 379,-363.5 379,-316.5 227,-316.5"/>
<text text-anchor="start" x="235" y="-350.5" font-family="FreeSans" font-size="10.00">Urho3D::HashMap&lt; Urho3D</text>
<text text-anchor="start" x="235" y="-337.5" font-family="FreeSans" font-size="10.00">::String, Urho3D::Vector</text>
<text text-anchor="middle" x="303" y="-324.5" font-family="FreeSans" font-size="10.00">&lt; Urho3D::StringHash &gt; &gt;</text>
</a>
</g>
<!-- Node18&#45;&gt;Node10 -->
<g id="edge44" class="edge"><title>Node18&#45;&gt;Node10</title>
<path fill="none" stroke="#9a32cd" stroke-dasharray="5,2" d="M389.473,-336.873C451.732,-332.937 537.224,-324.052 610,-304 626.71,-299.396 644.575,-291.217 657.652,-284.561"/>
<polygon fill="#9a32cd" stroke="#9a32cd" points="389.069,-333.391 379.297,-337.485 389.489,-340.378 389.069,-333.391"/>
<text text-anchor="middle" x="517" y="-338" font-family="FreeSans" font-size="10.00"> objectCategories_</text>
</g>
<!-- Node19 -->
<g id="node41" class="node"><title>Node19</title>
<a xlink:href="class_urho3_d_1_1_hash_map.html" target="_top" xlink:title="Urho3D::HashMap\&lt; Urho3D\l::StringHash, Urho3D::\lVector\&lt; Urho3D::AttributeInfo \&gt; \&gt;">
<polygon fill="none" stroke="red" points="211.5,-250.5 211.5,-297.5 394.5,-297.5 394.5,-250.5 211.5,-250.5"/>
<text text-anchor="start" x="219.5" y="-284.5" font-family="FreeSans" font-size="10.00">Urho3D::HashMap&lt; Urho3D</text>
<text text-anchor="start" x="219.5" y="-271.5" font-family="FreeSans" font-size="10.00">::StringHash, Urho3D::</text>
<text text-anchor="middle" x="303" y="-258.5" font-family="FreeSans" font-size="10.00">Vector&lt; Urho3D::AttributeInfo &gt; &gt;</text>
</a>
</g>
<!-- Node19&#45;&gt;Node10 -->
<g id="edge46" class="edge"><title>Node19&#45;&gt;Node10</title>
<path fill="none" stroke="#9a32cd" stroke-dasharray="5,2" d="M405.065,-274C477.678,-274 571.986,-274 628.317,-274"/>
<polygon fill="#9a32cd" stroke="#9a32cd" points="404.97,-270.5 394.97,-274 404.97,-277.5 404.97,-270.5"/>
<text text-anchor="middle" x="517" y="-291" font-family="FreeSans" font-size="10.00"> attributes_</text>
<text text-anchor="middle" x="517" y="-278" font-family="FreeSans" font-size="10.00">networkAttributes_</text>
</g>
<!-- Node20&#45;&gt;Node7 -->
<g id="edge48" class="edge"><title>Node20&#45;&gt;Node7</title>
<path fill="none" stroke="#9a32cd" stroke-dasharray="5,2" d="M1467.35,-218.555C1361.94,-226.223 1176.79,-229.238 1030,-176 1027.22,-174.99 998.798,-153.865 981.094,-140.598"/>
<polygon fill="#9a32cd" stroke="#9a32cd" points="1467.91,-222.022 1477.62,-217.775 1467.38,-215.043 1467.91,-222.022"/>
<text text-anchor="middle" x="1306" y="-227" font-family="FreeSans" font-size="10.00"> eventHandlers_</text>
</g>
<!-- Node21 -->
<g id="node46" class="node"><title>Node21</title>
<a xlink:href="class_urho3_d_1_1_g_p_u_object.html" target="_top" xlink:title="Base class for GPU resources.">
<polygon fill="none" stroke="black" points="1960.5,-79.5 1960.5,-100.5 2071.5,-100.5 2071.5,-79.5 1960.5,-79.5"/>
<text text-anchor="middle" x="2016" y="-87.5" font-family="FreeSans" font-size="10.00">Urho3D::GPUObject</text>
</a>
</g>
<!-- Node21&#45;&gt;Node6 -->
<g id="edge52" class="edge"><title>Node21&#45;&gt;Node6</title>
<path fill="none" stroke="midnightblue" d="M1950.19,-96.4672C1947.42,-96.6625 1944.69,-96.8415 1942,-97 1730.31,-109.493 1478.4,-111.684 1365.68,-111.999"/>
<polygon fill="midnightblue" stroke="midnightblue" points="1950.57,-99.9486 1960.27,-95.6972 1950.03,-92.9689 1950.57,-99.9486"/>
</g>
<!-- Node22&#45;&gt;Node21 -->
<g id="edge54" class="edge"><title>Node22&#45;&gt;Node21</title>
<path fill="none" stroke="#9a32cd" stroke-dasharray="5,2" d="M1884.15,-70.989C1909.71,-74.674 1937.2,-78.6383 1960.44,-81.9884"/>
<polygon fill="#9a32cd" stroke="#9a32cd" points="1884.49,-67.5015 1874.09,-69.5384 1883.49,-74.4298 1884.49,-67.5015"/>
<text text-anchor="middle" x="1917" y="-84" font-family="FreeSans" font-size="10.00"> graphics_</text>
</g>
<!-- Node23&#45;&gt;Node22 -->
<g id="edge56" class="edge"><title>Node23&#45;&gt;Node22</title>
<path fill="none" stroke="#9a32cd" stroke-dasharray="5,2" d="M1611.66,-59C1646.63,-59 1690.83,-59 1727.73,-59"/>
<polygon fill="#9a32cd" stroke="#9a32cd" points="1611.59,-55.5001 1601.59,-59 1611.59,-62.5001 1611.59,-55.5001"/>
<text text-anchor="middle" x="1676" y="-63" font-family="FreeSans" font-size="10.00"> ptr_</text>
</g>
<!-- Node24&#45;&gt;Node6 -->
<g id="edge64" class="edge"><title>Node24&#45;&gt;Node6</title>
<path fill="none" stroke="#9a32cd" stroke-dasharray="5,2" d="M593.63,-53.313C750.477,-66.2345 1105.2,-95.4576 1246.39,-107.089"/>
<polygon fill="#9a32cd" stroke="#9a32cd" points="593.843,-49.8188 583.59,-52.4858 593.269,-56.7952 593.843,-49.8188"/>
<text text-anchor="middle" x="824" y="-83" font-family="FreeSans" font-size="10.00"> shadowData_</text>
</g>
<!-- Node25&#45;&gt;Node1 -->
<g id="edge68" class="edge"><title>Node25&#45;&gt;Node1</title>
<path fill="none" stroke="#9a32cd" stroke-dasharray="5,2" d="M1235.75,-627.042C1374.83,-630.968 1612.9,-637.689 1730.71,-641.016"/>
<polygon fill="#9a32cd" stroke="#9a32cd" points="1235.6,-623.536 1225.5,-626.753 1235.4,-630.534 1235.6,-623.536"/>
<text text-anchor="middle" x="1423" y="-637" font-family="FreeSans" font-size="10.00"> geometries_</text>
</g>
</g>
</svg>
