<?xml version="1.0" encoding="UTF-8" standalone="no"?>
<!DOCTYPE svg PUBLIC "-//W3C//DTD SVG 1.1//EN"
 "http://www.w3.org/Graphics/SVG/1.1/DTD/svg11.dtd">
<!-- Generated by graphviz version 2.26.3 (20100126.1600)
 -->
<!-- Title: Urho3D::VAnimKeyFrame Pages: 1 -->
<svg width="1312pt" height="343pt"
 viewBox="0.00 0.00 1312.00 343.00" xmlns="http://www.w3.org/2000/svg" xmlns:xlink="http://www.w3.org/1999/xlink">
<g id="graph1" class="graph" transform="scale(1 1) rotate(0) translate(4 339)">
<title>Urho3D::VAnimKeyFrame</title>
<!-- Node1 -->
<g id="node1" class="node"><title>Node1</title>
<polygon fill="#bfbfbf" stroke="black" points="1166.5,-173.5 1166.5,-194.5 1303.5,-194.5 1303.5,-173.5 1166.5,-173.5"/>
<text text-anchor="middle" x="1235" y="-181.5" font-family="FreeSans" font-size="10.00">Urho3D::VAnimKeyFrame</text>
</g>
<!-- Node2 -->
<g id="node2" class="node"><title>Node2</title>
<a xlink:href="class_urho3_d_1_1_variant.html" target="_top" xlink:title="Variable that supports a fixed set of types.">
<polygon fill="none" stroke="black" points="1002.5,-173.5 1002.5,-194.5 1095.5,-194.5 1095.5,-173.5 1002.5,-173.5"/>
<text text-anchor="middle" x="1049" y="-181.5" font-family="FreeSans" font-size="10.00">Urho3D::Variant</text>
</a>
</g>
<!-- Node2&#45;&gt;Node1 -->
<g id="edge2" class="edge"><title>Node2&#45;&gt;Node1</title>
<path fill="none" stroke="#9a32cd" stroke-dasharray="5,2" d="M1105.95,-184C1125,-184 1146.44,-184 1166.29,-184"/>
<polygon fill="#9a32cd" stroke="#9a32cd" points="1105.94,-180.5 1095.94,-184 1105.94,-187.5 1105.94,-180.5"/>
<text text-anchor="middle" x="1131" y="-188" font-family="FreeSans" font-size="10.00"> value_</text>
</g>
<!-- Node2&#45;&gt;Node2 -->
<g id="edge12" class="edge"><title>Node2&#45;&gt;Node2</title>
<path fill="none" stroke="#9a32cd" stroke-dasharray="5,2" d="M1033.98,-204.793C1035.31,-209.529 1040.31,-213 1049,-213 1063.25,-213 1067.6,-203.653 1062.03,-194.708"/>
<polygon fill="#9a32cd" stroke="#9a32cd" points="1037.47,-205.196 1035.97,-194.708 1030.6,-203.842 1037.47,-205.196"/>
<text text-anchor="middle" x="1049" y="-217" font-family="FreeSans" font-size="10.00"> EMPTY</text>
</g>
<!-- Node3 -->
<g id="node4" class="node"><title>Node3</title>
<a xlink:href="class_urho3_d_1_1_vector.html" target="_top" xlink:title="Vector template class.">
<polygon fill="none" stroke="black" points="573,-300.5 573,-321.5 691,-321.5 691,-300.5 573,-300.5"/>
<text text-anchor="middle" x="632" y="-308.5" font-family="FreeSans" font-size="10.00">Urho3D::Vector&lt; T &gt;</text>
</a>
</g>
<!-- Node3&#45;&gt;Node2 -->
<g id="edge4" class="edge"><title>Node3&#45;&gt;Node2</title>
<path fill="none" stroke="#9a32cd" stroke-dasharray="5,2" d="M701.272,-309.999C775.696,-306.131 895.227,-291.65 984,-241 1006.16,-228.355 1027.55,-207.369 1039.43,-194.695"/>
<polygon fill="#9a32cd" stroke="#9a32cd" points="700.903,-306.512 691.078,-310.477 701.231,-313.505 700.903,-306.512"/>
<text text-anchor="middle" x="783" y="-326" font-family="FreeSans" font-size="10.00"> emptyStringVector</text>
<text text-anchor="middle" x="783" y="-313" font-family="FreeSans" font-size="10.00">emptyVariantVector</text>
</g>
<!-- Node4 -->
<g id="node6" class="node"><title>Node4</title>
<a xlink:href="class_urho3_d_1_1_vector_base.html" target="_top" xlink:title="Vector base class.">
<polygon fill="none" stroke="black" points="202,-265.5 202,-286.5 316,-286.5 316,-265.5 202,-265.5"/>
<text text-anchor="middle" x="259" y="-273.5" font-family="FreeSans" font-size="10.00">Urho3D::VectorBase</text>
</a>
</g>
<!-- Node4&#45;&gt;Node3 -->
<g id="edge6" class="edge"><title>Node4&#45;&gt;Node3</title>
<path fill="none" stroke="midnightblue" d="M326.178,-286.754C332.197,-287.572 338.204,-288.336 344,-289 422.965,-298.041 514.55,-304.32 572.857,-307.792"/>
<polygon fill="midnightblue" stroke="midnightblue" points="326.463,-283.26 316.073,-285.334 325.489,-290.192 326.463,-283.26"/>
</g>
<!-- Node5 -->
<g id="node8" class="node"><title>Node5</title>
<a xlink:href="class_urho3_d_1_1_p_o_d_vector.html" target="_top" xlink:title="Urho3D::PODVector\&lt;\l unsigned char \&gt;">
<polygon fill="none" stroke="black" points="572.5,-257 572.5,-291 691.5,-291 691.5,-257 572.5,-257"/>
<text text-anchor="start" x="580.5" y="-278" font-family="FreeSans" font-size="10.00">Urho3D::PODVector&lt;</text>
<text text-anchor="middle" x="632" y="-265" font-family="FreeSans" font-size="10.00"> unsigned char &gt;</text>
</a>
</g>
<!-- Node4&#45;&gt;Node5 -->
<g id="edge10" class="edge"><title>Node4&#45;&gt;Node5</title>
<path fill="none" stroke="midnightblue" d="M326.116,-275.64C396.27,-275.264 505.304,-274.679 572.481,-274.319"/>
<polygon fill="midnightblue" stroke="midnightblue" points="326.038,-272.14 316.057,-275.694 326.075,-279.14 326.038,-272.14"/>
</g>
<!-- Node10 -->
<g id="node23" class="node"><title>Node10</title>
<a xlink:href="class_urho3_d_1_1_vector.html" target="_top" xlink:title="Urho3D::Vector\&lt; String \&gt;">
<polygon fill="none" stroke="black" points="412.5,-226.5 412.5,-247.5 553.5,-247.5 553.5,-226.5 412.5,-226.5"/>
<text text-anchor="middle" x="483" y="-234.5" font-family="FreeSans" font-size="10.00">Urho3D::Vector&lt; String &gt;</text>
</a>
</g>
<!-- Node4&#45;&gt;Node10 -->
<g id="edge30" class="edge"><title>Node4&#45;&gt;Node10</title>
<path fill="none" stroke="midnightblue" d="M326.255,-264.29C356.836,-258.966 392.745,-252.714 422.471,-247.539"/>
<polygon fill="midnightblue" stroke="midnightblue" points="325.356,-260.894 316.104,-266.058 326.556,-267.791 325.356,-260.894"/>
</g>
<!-- Node5&#45;&gt;Node2 -->
<g id="edge8" class="edge"><title>Node5&#45;&gt;Node2</title>
<path fill="none" stroke="#9a32cd" stroke-dasharray="5,2" d="M701.956,-267.566C773.91,-259.682 888.622,-243.569 984,-214 999.908,-209.068 1016.97,-201.08 1029.62,-194.586"/>
<polygon fill="#9a32cd" stroke="#9a32cd" points="701.227,-264.124 691.658,-268.67 701.974,-271.084 701.227,-264.124"/>
<text text-anchor="middle" x="783" y="-270" font-family="FreeSans" font-size="10.00"> emptyBuffer</text>
</g>
<!-- Node6 -->
<g id="node12" class="node"><title>Node6</title>
<a xlink:href="struct_urho3_d_1_1_resource_ref.html" target="_top" xlink:title="Typed resource reference.">
<polygon fill="none" stroke="black" points="724.5,-154.5 724.5,-175.5 841.5,-175.5 841.5,-154.5 724.5,-154.5"/>
<text text-anchor="middle" x="783" y="-162.5" font-family="FreeSans" font-size="10.00">Urho3D::ResourceRef</text>
</a>
</g>
<!-- Node6&#45;&gt;Node2 -->
<g id="edge14" class="edge"><title>Node6&#45;&gt;Node2</title>
<path fill="none" stroke="#9a32cd" stroke-dasharray="5,2" d="M851.911,-162.191C890.84,-161.563 940.31,-162.371 984,-168 993.336,-169.203 1003.27,-171.246 1012.49,-173.478"/>
<polygon fill="#9a32cd" stroke="#9a32cd" points="851.668,-158.695 841.739,-162.391 851.806,-165.694 851.668,-158.695"/>
<text text-anchor="middle" x="929" y="-172" font-family="FreeSans" font-size="10.00"> emptyResourceRef</text>
</g>
<!-- Node7 -->
<g id="node14" class="node"><title>Node7</title>
<a xlink:href="class_urho3_d_1_1_string.html" target="_top" xlink:title="String class.">
<polygon fill="none" stroke="black" points="439,-84.5 439,-105.5 527,-105.5 527,-84.5 439,-84.5"/>
<text text-anchor="middle" x="483" y="-92.5" font-family="FreeSans" font-size="10.00">Urho3D::String</text>
</a>
</g>
<!-- Node7&#45;&gt;Node6 -->
<g id="edge16" class="edge"><title>Node7&#45;&gt;Node6</title>
<path fill="none" stroke="#9a32cd" stroke-dasharray="5,2" d="M537.224,-107.652C594.516,-121.02 683.848,-141.865 737.569,-154.399"/>
<polygon fill="#9a32cd" stroke="#9a32cd" points="537.8,-104.193 527.266,-105.329 536.209,-111.01 537.8,-104.193"/>
<text text-anchor="middle" x="632" y="-146" font-family="FreeSans" font-size="10.00"> name_</text>
</g>
<!-- Node7&#45;&gt;Node7 -->
<g id="edge18" class="edge"><title>Node7&#45;&gt;Node7</title>
<path fill="none" stroke="#9a32cd" stroke-dasharray="5,2" d="M461.991,-115.427C463.612,-120.349 470.615,-124 483,-124 502.816,-124 508.854,-114.653 501.113,-105.708"/>
<polygon fill="#9a32cd" stroke="#9a32cd" points="465.385,-116.291 464.887,-105.708 458.677,-114.292 465.385,-116.291"/>
<text text-anchor="middle" x="483" y="-128" font-family="FreeSans" font-size="10.00"> EMPTY</text>
</g>
<!-- Node8 -->
<g id="node17" class="node"><title>Node8</title>
<a xlink:href="class_urho3_d_1_1_string_hash.html" target="_top" xlink:title="32&#45;bit hash value for a string.">
<polygon fill="none" stroke="black" points="426.5,-155.5 426.5,-176.5 539.5,-176.5 539.5,-155.5 426.5,-155.5"/>
<text text-anchor="middle" x="483" y="-163.5" font-family="FreeSans" font-size="10.00">Urho3D::StringHash</text>
</a>
</g>
<!-- Node8&#45;&gt;Node6 -->
<g id="edge20" class="edge"><title>Node8&#45;&gt;Node6</title>
<path fill="none" stroke="#9a32cd" stroke-dasharray="5,2" d="M549.973,-165.777C602.311,-165.602 674.336,-165.362 724.404,-165.195"/>
<polygon fill="#9a32cd" stroke="#9a32cd" points="549.769,-162.277 539.78,-165.811 549.792,-169.277 549.769,-162.277"/>
<text text-anchor="middle" x="632" y="-169" font-family="FreeSans" font-size="10.00"> type_</text>
</g>
<!-- Node8&#45;&gt;Node8 -->
<g id="edge22" class="edge"><title>Node8&#45;&gt;Node8</title>
<path fill="none" stroke="#9a32cd" stroke-dasharray="5,2" d="M461.991,-186.427C463.612,-191.349 470.615,-195 483,-195 502.816,-195 508.854,-185.653 501.113,-176.708"/>
<polygon fill="#9a32cd" stroke="#9a32cd" points="465.385,-187.291 464.887,-176.708 458.677,-185.292 465.385,-187.291"/>
<text text-anchor="middle" x="483" y="-199" font-family="FreeSans" font-size="10.00"> ZERO</text>
</g>
<!-- Node9 -->
<g id="node20" class="node"><title>Node9</title>
<a xlink:href="struct_urho3_d_1_1_resource_ref_list.html" target="_top" xlink:title="List of typed resource references.">
<polygon fill="none" stroke="black" points="716,-194.5 716,-215.5 850,-215.5 850,-194.5 716,-194.5"/>
<text text-anchor="middle" x="783" y="-202.5" font-family="FreeSans" font-size="10.00">Urho3D::ResourceRefList</text>
</a>
</g>
<!-- Node8&#45;&gt;Node9 -->
<g id="edge26" class="edge"><title>Node8&#45;&gt;Node9</title>
<path fill="none" stroke="#9a32cd" stroke-dasharray="5,2" d="M550.011,-175.953C557.427,-177.005 564.871,-178.04 572,-179 620.101,-185.476 674.46,-192.159 715.956,-197.128"/>
<polygon fill="#9a32cd" stroke="#9a32cd" points="550.343,-172.465 539.948,-174.512 549.351,-179.394 550.343,-172.465"/>
<text text-anchor="middle" x="632" y="-197" font-family="FreeSans" font-size="10.00"> type_</text>
</g>
<!-- Node9&#45;&gt;Node2 -->
<g id="edge24" class="edge"><title>Node9&#45;&gt;Node2</title>
<path fill="none" stroke="#9a32cd" stroke-dasharray="5,2" d="M860.365,-198.892C906.381,-195.259 963.236,-190.771 1002.43,-187.677"/>
<polygon fill="#9a32cd" stroke="#9a32cd" points="859.817,-195.425 850.123,-199.701 860.368,-202.403 859.817,-195.425"/>
<text text-anchor="middle" x="929" y="-201" font-family="FreeSans" font-size="10.00"> emptyResourceRefList</text>
</g>
<!-- Node10&#45;&gt;Node9 -->
<g id="edge28" class="edge"><title>Node10&#45;&gt;Node9</title>
<path fill="none" stroke="#9a32cd" stroke-dasharray="5,2" d="M563.816,-228.58C602.592,-224.518 649.709,-219.55 692,-215 699.743,-214.167 707.856,-213.287 715.914,-212.407"/>
<polygon fill="#9a32cd" stroke="#9a32cd" points="563.211,-225.124 553.63,-229.646 563.94,-232.086 563.211,-225.124"/>
<text text-anchor="middle" x="632" y="-231" font-family="FreeSans" font-size="10.00"> names_</text>
</g>
<!-- Node11 -->
<g id="node26" class="node"><title>Node11</title>
<a xlink:href="class_urho3_d_1_1_hash_map.html" target="_top" xlink:title="Hash map template class.">
<polygon fill="none" stroke="black" points="710,-114.5 710,-135.5 856,-135.5 856,-114.5 710,-114.5"/>
<text text-anchor="middle" x="783" y="-122.5" font-family="FreeSans" font-size="10.00">Urho3D::HashMap&lt; T, U &gt;</text>
</a>
</g>
<!-- Node11&#45;&gt;Node2 -->
<g id="edge32" class="edge"><title>Node11&#45;&gt;Node2</title>
<path fill="none" stroke="#9a32cd" stroke-dasharray="5,2" d="M866.432,-125.12C903.251,-127.24 946.572,-132.605 984,-145 1003.24,-151.371 1022.85,-164.19 1035.43,-173.394"/>
<polygon fill="#9a32cd" stroke="#9a32cd" points="866.393,-121.614 856.229,-124.605 866.04,-128.605 866.393,-121.614"/>
<text text-anchor="middle" x="929" y="-149" font-family="FreeSans" font-size="10.00"> emptyVariantMap</text>
</g>
<!-- Node12 -->
<g id="node28" class="node"><title>Node12</title>
<a xlink:href="class_urho3_d_1_1_hash_base.html" target="_top" xlink:title="Hash set/map base class.">
<polygon fill="none" stroke="black" points="429,-44.5 429,-65.5 537,-65.5 537,-44.5 429,-44.5"/>
<text text-anchor="middle" x="483" y="-52.5" font-family="FreeSans" font-size="10.00">Urho3D::HashBase</text>
</a>
</g>
<!-- Node12&#45;&gt;Node11 -->
<g id="edge34" class="edge"><title>Node12&#45;&gt;Node11</title>
<path fill="none" stroke="midnightblue" d="M538.23,-67.887C595.67,-81.2896 684.512,-102.019 737.885,-114.473"/>
<polygon fill="midnightblue" stroke="midnightblue" points="538.772,-64.4194 528.238,-65.5555 537.181,-71.2363 538.772,-64.4194"/>
</g>
<!-- Node13 -->
<g id="node30" class="node"><title>Node13</title>
<a xlink:href="struct_urho3_d_1_1_hash_node_base.html" target="_top" xlink:title="Hash set/map node base class.">
<polygon fill="none" stroke="black" points="192,-71.5 192,-92.5 326,-92.5 326,-71.5 192,-71.5"/>
<text text-anchor="middle" x="259" y="-79.5" font-family="FreeSans" font-size="10.00">Urho3D::HashNodeBase</text>
</a>
</g>
<!-- Node13&#45;&gt;Node12 -->
<g id="edge36" class="edge"><title>Node13&#45;&gt;Node12</title>
<path fill="none" stroke="#9a32cd" stroke-dasharray="5,2" d="M336.395,-72.6711C366.911,-68.9929 401.227,-64.8565 428.983,-61.5109"/>
<polygon fill="#9a32cd" stroke="#9a32cd" points="335.717,-69.2275 326.207,-73.8991 336.554,-76.1772 335.717,-69.2275"/>
<text text-anchor="middle" x="369" y="-102" font-family="FreeSans" font-size="10.00"> ptrs_</text>
<text text-anchor="middle" x="369" y="-89" font-family="FreeSans" font-size="10.00">tail_</text>
<text text-anchor="middle" x="369" y="-76" font-family="FreeSans" font-size="10.00">head_</text>
</g>
<!-- Node13&#45;&gt;Node13 -->
<g id="edge38" class="edge"><title>Node13&#45;&gt;Node13</title>
<path fill="none" stroke="#9a32cd" stroke-dasharray="5,2" d="M240.94,-102.427C242.333,-107.349 248.353,-111 259,-111 276.035,-111 281.226,-101.653 274.571,-92.7079"/>
<polygon fill="#9a32cd" stroke="#9a32cd" points="244.338,-103.264 243.429,-92.7079 237.557,-101.527 244.338,-103.264"/>
<text text-anchor="middle" x="259" y="-141" font-family="FreeSans" font-size="10.00"> next_</text>
<text text-anchor="middle" x="259" y="-128" font-family="FreeSans" font-size="10.00">prev_</text>
<text text-anchor="middle" x="259" y="-115" font-family="FreeSans" font-size="10.00">down_</text>
</g>
<!-- Node14 -->
<g id="node33" class="node"><title>Node14</title>
<a xlink:href="struct_urho3_d_1_1_allocator_block.html" target="_top" xlink:title="Allocator memory block.">
<polygon fill="none" stroke="black" points="195.5,-0.5 195.5,-21.5 322.5,-21.5 322.5,-0.5 195.5,-0.5"/>
<text text-anchor="middle" x="259" y="-8.5" font-family="FreeSans" font-size="10.00">Urho3D::AllocatorBlock</text>
</a>
</g>
<!-- Node14&#45;&gt;Node12 -->
<g id="edge40" class="edge"><title>Node14&#45;&gt;Node12</title>
<path fill="none" stroke="#9a32cd" stroke-dasharray="5,2" d="M322.857,-23.5434C356.534,-30.1585 397.384,-38.1825 429.396,-44.4707"/>
<polygon fill="#9a32cd" stroke="#9a32cd" points="323.141,-20.0323 312.654,-21.5391 321.791,-26.901 323.141,-20.0323"/>
<text text-anchor="middle" x="369" y="-41" font-family="FreeSans" font-size="10.00"> allocator_</text>
</g>
<!-- Node14&#45;&gt;Node14 -->
<g id="edge42" class="edge"><title>Node14&#45;&gt;Node14</title>
<path fill="none" stroke="#9a32cd" stroke-dasharray="5,2" d="M240.94,-31.4266C242.333,-36.3489 248.353,-40 259,-40 276.035,-40 281.226,-30.6531 274.571,-21.7079"/>
<polygon fill="#9a32cd" stroke="#9a32cd" points="244.338,-32.2636 243.429,-21.7079 237.557,-30.5268 244.338,-32.2636"/>
<text text-anchor="middle" x="259" y="-44" font-family="FreeSans" font-size="10.00"> next_</text>
</g>
<!-- Node15 -->
<g id="node36" class="node"><title>Node15</title>
<a xlink:href="struct_urho3_d_1_1_allocator_node.html" target="_top" xlink:title="Allocator node.">
<polygon fill="none" stroke="black" points="0.5,-0.5 0.5,-21.5 127.5,-21.5 127.5,-0.5 0.5,-0.5"/>
<text text-anchor="middle" x="64" y="-8.5" font-family="FreeSans" font-size="10.00">Urho3D::AllocatorNode</text>
</a>
</g>
<!-- Node15&#45;&gt;Node14 -->
<g id="edge44" class="edge"><title>Node15&#45;&gt;Node14</title>
<path fill="none" stroke="#9a32cd" stroke-dasharray="5,2" d="M137.645,-11C156.576,-11 176.785,-11 195.172,-11"/>
<polygon fill="#9a32cd" stroke="#9a32cd" points="137.581,-7.5001 127.58,-11 137.58,-14.5001 137.581,-7.5001"/>
<text text-anchor="middle" x="160" y="-15" font-family="FreeSans" font-size="10.00"> free_</text>
</g>
<!-- Node15&#45;&gt;Node15 -->
<g id="edge46" class="edge"><title>Node15&#45;&gt;Node15</title>
<path fill="none" stroke="#9a32cd" stroke-dasharray="5,2" d="M46.3082,-31.4266C47.6731,-36.3489 53.5703,-40 64,-40 80.6875,-40 85.772,-30.6531 79.2534,-21.7079"/>
<polygon fill="#9a32cd" stroke="#9a32cd" points="49.7078,-32.259 48.7466,-21.7079 42.9182,-30.5555 49.7078,-32.259"/>
<text text-anchor="middle" x="64" y="-44" font-family="FreeSans" font-size="10.00"> next_</text>
</g>
<!-- Node16 -->
<g id="node39" class="node"><title>Node16</title>
<a xlink:href="struct_urho3_d_1_1_variant_value.html" target="_top" xlink:title="Union for the possible variant values. Also stores non&#45;POD objects such as String and math objects (e...">
<polygon fill="none" stroke="black" points="723.5,-74.5 723.5,-95.5 842.5,-95.5 842.5,-74.5 723.5,-74.5"/>
<text text-anchor="middle" x="783" y="-82.5" font-family="FreeSans" font-size="10.00">Urho3D::VariantValue</text>
</a>
</g>
<!-- Node16&#45;&gt;Node2 -->
<g id="edge48" class="edge"><title>Node16&#45;&gt;Node2</title>
<path fill="none" stroke="#9a32cd" stroke-dasharray="5,2" d="M852.725,-80.6623C893.217,-81.0529 943.973,-86.7222 984,-108 1012.51,-123.158 1033.91,-156.409 1043.47,-173.46"/>
<polygon fill="#9a32cd" stroke="#9a32cd" points="852.661,-77.1622 842.664,-80.6704 852.667,-84.1622 852.661,-77.1622"/>
<text text-anchor="middle" x="929" y="-112" font-family="FreeSans" font-size="10.00"> value_</text>
</g>
</g>
</svg>
