<?xml version="1.0" encoding="UTF-8" standalone="no"?>
<!DOCTYPE svg PUBLIC "-//W3C//DTD SVG 1.1//EN"
 "http://www.w3.org/Graphics/SVG/1.1/DTD/svg11.dtd">
<!-- Generated by graphviz version 2.26.3 (20100126.1600)
 -->
<!-- Title: Urho3D::PhysicsRaycastResult Pages: 1 -->
<!--zoomable 623 -->
<svg id="main" version="1.1" xmlns="http://www.w3.org/2000/svg" xmlns:xlink="http://www.w3.org/1999/xlink" xml:space="preserve" onload="init(evt)">
        <defs>
                <circle id="rim" cx="0" cy="0" r="7"/>
                <circle id="rim2" cx="0" cy="0" r="3.5"/>
                <g id="zoomPlus">
                        <use xlink:href="#rim" fill="#404040">
                                <set attributeName="fill" to="#808080" begin="zoomplus.mouseover" end="zoomplus.mouseout"/>
                        </use>
                        <path d="M-4,0h8M0,-4v8" fill="none" stroke="white" stroke-width="1.5" pointer-events="none"/>
                </g>
                <g id="zoomMin">
                        <use xlink:href="#rim" fill="#404040">
                                <set attributeName="fill" to="#808080" begin="zoomminus.mouseover" end="zoomminus.mouseout"/>
                        </use>
                        <path d="M-4,0h8" fill="none" stroke="white" stroke-width="1.5" pointer-events="none"/>
                </g>
                <g id="dirArrow">
                        <path fill="none" stroke="white" stroke-width="1.5" d="M0,-3.0v7 M-2.5,-0.5L0,-3.0L2.5,-0.5"/>
                </g>
               <g id="resetDef">
                       <use xlink:href="#rim2" fill="#404040">
                               <set attributeName="fill" to="#808080" begin="reset.mouseover" end="reset.mouseout"/>
                       </use>
               </g>
        </defs>

<script type="text/javascript">
var viewWidth = 2098;
var viewHeight = 623;
var sectionId = 'dynsection-0';
</script>
<script xlink:href="svgpan.js"/>
<svg id="graph" class="graph">
<g id="viewport">
<title>Urho3D::PhysicsRaycastResult</title>
<!-- Node1 -->
<g id="node1" class="node"><title>Node1</title>
<polygon fill="#bfbfbf" stroke="black" points="1928.5,-469.5 1928.5,-490.5 2089.5,-490.5 2089.5,-469.5 1928.5,-469.5"/>
<text text-anchor="middle" x="2009" y="-477.5" font-family="FreeSans" font-size="10.00">Urho3D::PhysicsRaycastResult</text>
</g>
<!-- Node2 -->
<g id="node2" class="node"><title>Node2</title>
<a xlink:href="class_urho3_d_1_1_vector3.html" target="_top" xlink:title="Three&#45;dimensional vector.">
<polygon fill="none" stroke="black" points="544,-471.5 544,-492.5 640,-492.5 640,-471.5 544,-471.5"/>
<text text-anchor="middle" x="592" y="-479.5" font-family="FreeSans" font-size="10.00">Urho3D::Vector3</text>
</a>
</g>
<!-- Node2&#45;&gt;Node1 -->
<g id="edge2" class="edge"><title>Node2&#45;&gt;Node1</title>
<path fill="none" stroke="#9a32cd" stroke-dasharray="5,2" d="M620.111,-497.369C659.999,-517.702 735.873,-551 805,-551 805,-551 805,-551 1807,-551 1878.93,-551 1957.53,-510.436 1991.62,-490.629"/>
<polygon fill="#9a32cd" stroke="#9a32cd" points="621.489,-494.141 611.003,-492.63 618.258,-500.351 621.489,-494.141"/>
<text text-anchor="middle" x="1289" y="-568" font-family="FreeSans" font-size="10.00"> normal_</text>
<text text-anchor="middle" x="1289" y="-555" font-family="FreeSans" font-size="10.00">position_</text>
</g>
<!-- Node2&#45;&gt;Node2 -->
<g id="edge4" class="edge"><title>Node2&#45;&gt;Node2</title>
<path fill="none" stroke="#9a32cd" stroke-dasharray="5,2" d="M570.991,-502.427C572.612,-507.349 579.615,-511 592,-511 611.816,-511 617.854,-501.653 610.113,-492.708"/>
<polygon fill="#9a32cd" stroke="#9a32cd" points="574.385,-503.291 573.887,-492.708 567.677,-501.292 574.385,-503.291"/>
<text text-anchor="middle" x="592" y="-606" font-family="FreeSans" font-size="10.00"> ONE</text>
<text text-anchor="middle" x="592" y="-593" font-family="FreeSans" font-size="10.00">DOWN</text>
<text text-anchor="middle" x="592" y="-580" font-family="FreeSans" font-size="10.00">BACK</text>
<text text-anchor="middle" x="592" y="-567" font-family="FreeSans" font-size="10.00">RIGHT</text>
<text text-anchor="middle" x="592" y="-554" font-family="FreeSans" font-size="10.00">LEFT</text>
<text text-anchor="middle" x="592" y="-541" font-family="FreeSans" font-size="10.00">ZERO</text>
<text text-anchor="middle" x="592" y="-528" font-family="FreeSans" font-size="10.00">FORWARD</text>
<text text-anchor="middle" x="592" y="-515" font-family="FreeSans" font-size="10.00">UP</text>
</g>
<!-- Node3 -->
<g id="node5" class="node"><title>Node3</title>
<a xlink:href="class_urho3_d_1_1_rigid_body.html" target="_top" xlink:title="Physics rigid body component.">
<polygon fill="none" stroke="black" points="1754,-284.5 1754,-305.5 1860,-305.5 1860,-284.5 1754,-284.5"/>
<text text-anchor="middle" x="1807" y="-292.5" font-family="FreeSans" font-size="10.00">Urho3D::RigidBody</text>
</a>
</g>
<!-- Node2&#45;&gt;Node3 -->
<g id="edge70" class="edge"><title>Node2&#45;&gt;Node3</title>
<path fill="none" stroke="#9a32cd" stroke-dasharray="5,2" d="M650.373,-488.331C693.132,-492.427 752.602,-497 805,-497 805,-497 805,-497 1539,-497 1627.93,-497 1666.43,-517.383 1736,-462 1787.52,-420.992 1802.24,-335.634 1805.91,-305.673"/>
<polygon fill="#9a32cd" stroke="#9a32cd" points="650.444,-484.822 640.151,-487.331 649.762,-491.788 650.444,-484.822"/>
<text text-anchor="middle" x="1152" y="-527" font-family="FreeSans" font-size="10.00"> centerOfMass_</text>
<text text-anchor="middle" x="1152" y="-514" font-family="FreeSans" font-size="10.00">gravityOverride_</text>
<text text-anchor="middle" x="1152" y="-501" font-family="FreeSans" font-size="10.00">lastPosition_</text>
</g>
<!-- Node10 -->
<g id="node19" class="node"><title>Node10</title>
<a xlink:href="class_urho3_d_1_1_node.html" target="_top" xlink:title="Scene node that may contain components and child nodes.">
<polygon fill="none" stroke="red" points="762.5,-267.5 762.5,-288.5 847.5,-288.5 847.5,-267.5 762.5,-267.5"/>
<text text-anchor="middle" x="805" y="-275.5" font-family="FreeSans" font-size="10.00">Urho3D::Node</text>
</a>
</g>
<!-- Node2&#45;&gt;Node10 -->
<g id="edge46" class="edge"><title>Node2&#45;&gt;Node10</title>
<path fill="none" stroke="#9a32cd" stroke-dasharray="5,2" d="M624.552,-466.706C634.051,-461.308 644.014,-454.648 652,-447 662.685,-436.768 660.842,-430.619 670,-419 711.328,-366.566 768.994,-311.334 793.379,-288.661"/>
<polygon fill="#9a32cd" stroke="#9a32cd" points="622.815,-463.666 615.666,-471.486 626.131,-469.83 622.815,-463.666"/>
<text text-anchor="middle" x="707" y="-436" font-family="FreeSans" font-size="10.00"> scale_</text>
<text text-anchor="middle" x="707" y="-423" font-family="FreeSans" font-size="10.00">position_</text>
</g>
<!-- Node25 -->
<g id="node62" class="node"><title>Node25</title>
<a xlink:href="class_urho3_d_1_1_smoothed_transform.html" target="_top" xlink:title="Transform smoothing component for network updates.">
<polygon fill="none" stroke="black" points="1210.5,-328.5 1210.5,-349.5 1367.5,-349.5 1367.5,-328.5 1210.5,-328.5"/>
<text text-anchor="middle" x="1289" y="-336.5" font-family="FreeSans" font-size="10.00">Urho3D::SmoothedTransform</text>
</a>
</g>
<!-- Node2&#45;&gt;Node25 -->
<g id="edge82" class="edge"><title>Node2&#45;&gt;Node25</title>
<path fill="none" stroke="#9a32cd" stroke-dasharray="5,2" d="M650.012,-471.748C757.379,-452.518 994.172,-408.907 1192,-364 1211.16,-359.65 1232.31,-354.269 1249.95,-349.615"/>
<polygon fill="#9a32cd" stroke="#9a32cd" points="649.259,-468.327 640.031,-473.533 650.491,-475.218 649.259,-468.327"/>
<text text-anchor="middle" x="905" y="-435" font-family="FreeSans" font-size="10.00"> targetPosition_</text>
</g>
<!-- Node3&#45;&gt;Node1 -->
<g id="edge6" class="edge"><title>Node3&#45;&gt;Node1</title>
<path fill="none" stroke="#9a32cd" stroke-dasharray="5,2" d="M1826.23,-312.611C1867.54,-350.444 1963.72,-438.534 1997.23,-469.224"/>
<polygon fill="#9a32cd" stroke="#9a32cd" points="1828.47,-309.919 1818.73,-305.746 1823.74,-315.081 1828.47,-309.919"/>
<text text-anchor="middle" x="1894" y="-391" font-family="FreeSans" font-size="10.00"> body_</text>
</g>
<!-- Node4 -->
<g id="node7" class="node"><title>Node4</title>
<a xlink:href="class_urho3_d_1_1_component.html" target="_top" xlink:title="Base class for components. Components can be created to scene nodes.">
<polygon fill="none" stroke="black" points="970,-245.5 970,-266.5 1086,-266.5 1086,-245.5 970,-245.5"/>
<text text-anchor="middle" x="1028" y="-253.5" font-family="FreeSans" font-size="10.00">Urho3D::Component</text>
</a>
</g>
<!-- Node4&#45;&gt;Node3 -->
<g id="edge8" class="edge"><title>Node4&#45;&gt;Node3</title>
<path fill="none" stroke="midnightblue" d="M1096.44,-259.426C1249.46,-267.087 1616.62,-285.469 1753.96,-292.345"/>
<polygon fill="midnightblue" stroke="midnightblue" points="1096.4,-255.92 1086.23,-258.915 1096.05,-262.911 1096.4,-255.92"/>
</g>
<!-- Node21 -->
<g id="node49" class="node"><title>Node21</title>
<a xlink:href="class_urho3_d_1_1_physics_world.html" target="_top" xlink:title="Physics simulation world component. Should be added only to the root scene node.">
<polygon fill="none" stroke="red" points="1229,-120.5 1229,-141.5 1349,-141.5 1349,-120.5 1229,-120.5"/>
<text text-anchor="middle" x="1289" y="-128.5" font-family="FreeSans" font-size="10.00">Urho3D::PhysicsWorld</text>
</a>
</g>
<!-- Node4&#45;&gt;Node21 -->
<g id="edge60" class="edge"><title>Node4&#45;&gt;Node21</title>
<path fill="none" stroke="midnightblue" d="M1065.49,-241.78C1099.12,-228.658 1149.57,-208.07 1192,-187 1220.91,-172.643 1253.11,-153.359 1272.18,-141.574"/>
<polygon fill="midnightblue" stroke="midnightblue" points="1064.1,-238.563 1056.04,-245.441 1066.63,-245.09 1064.1,-238.563"/>
</g>
<!-- Node4&#45;&gt;Node25 -->
<g id="edge78" class="edge"><title>Node4&#45;&gt;Node25</title>
<path fill="none" stroke="midnightblue" d="M1076.91,-270.747C1082.97,-273.639 1088.83,-277.035 1094,-281 1104.86,-289.334 1100.44,-298.663 1112,-306 1128.49,-316.469 1171.08,-324.582 1210.35,-330.144"/>
<polygon fill="midnightblue" stroke="midnightblue" points="1077.89,-267.356 1067.32,-266.606 1075.11,-273.783 1077.89,-267.356"/>
</g>
<!-- Node5 -->
<g id="node9" class="node"><title>Node5</title>
<a xlink:href="class_urho3_d_1_1_animatable.html" target="_top" xlink:title="Base class for animatable object, an animatable object can be set animation on it&#39;s attributes...">
<polygon fill="none" stroke="black" points="535,-215.5 535,-236.5 649,-236.5 649,-215.5 535,-215.5"/>
<text text-anchor="middle" x="592" y="-223.5" font-family="FreeSans" font-size="10.00">Urho3D::Animatable</text>
</a>
</g>
<!-- Node5&#45;&gt;Node4 -->
<g id="edge10" class="edge"><title>Node5&#45;&gt;Node4</title>
<path fill="none" stroke="midnightblue" d="M659.173,-229.547C730.04,-233.442 844.949,-240.19 944,-248 952.324,-248.656 961.106,-249.417 969.729,-250.203"/>
<polygon fill="midnightblue" stroke="midnightblue" points="659.22,-226.045 649.044,-228.993 658.838,-233.034 659.22,-226.045"/>
</g>
<!-- Node5&#45;&gt;Node10 -->
<g id="edge22" class="edge"><title>Node5&#45;&gt;Node10</title>
<path fill="none" stroke="midnightblue" d="M647.518,-238.812C676.34,-245.549 712.107,-254.042 744,-262 750.905,-263.723 758.236,-265.602 765.332,-267.448"/>
<polygon fill="midnightblue" stroke="midnightblue" points="648.164,-235.369 637.63,-236.506 646.574,-242.186 648.164,-235.369"/>
</g>
<!-- Node6 -->
<g id="node11" class="node"><title>Node6</title>
<a xlink:href="class_urho3_d_1_1_serializable.html" target="_top" xlink:title="Base class for objects with automatic serialization through attributes.">
<polygon fill="none" stroke="red" points="196,-278.5 196,-299.5 310,-299.5 310,-278.5 196,-278.5"/>
<text text-anchor="middle" x="253" y="-286.5" font-family="FreeSans" font-size="10.00">Urho3D::Serializable</text>
</a>
</g>
<!-- Node6&#45;&gt;Node5 -->
<g id="edge12" class="edge"><title>Node6&#45;&gt;Node5</title>
<path fill="none" stroke="midnightblue" d="M320.188,-281.775C373.208,-275.399 448.839,-264.805 514,-250 529.888,-246.39 547.242,-241.18 561.539,-236.536"/>
<polygon fill="midnightblue" stroke="midnightblue" points="319.746,-278.303 310.227,-282.956 320.57,-285.255 319.746,-278.303"/>
</g>
<!-- Node7 -->
<g id="node13" class="node"><title>Node7</title>
<a xlink:href="class_urho3_d_1_1_hash_map.html" target="_top" xlink:title="Urho3D::HashMap\&lt; Urho3D\l::String, Urho3D::SharedPtr\l\&lt; Urho3D::AttributeAnimationInfo \&gt; \&gt;">
<polygon fill="none" stroke="red" points="152.5,-212.5 152.5,-259.5 353.5,-259.5 353.5,-212.5 152.5,-212.5"/>
<text text-anchor="start" x="160.5" y="-246.5" font-family="FreeSans" font-size="10.00">Urho3D::HashMap&lt; Urho3D</text>
<text text-anchor="start" x="160.5" y="-233.5" font-family="FreeSans" font-size="10.00">::String, Urho3D::SharedPtr</text>
<text text-anchor="middle" x="253" y="-220.5" font-family="FreeSans" font-size="10.00">&lt; Urho3D::AttributeAnimationInfo &gt; &gt;</text>
</a>
</g>
<!-- Node7&#45;&gt;Node5 -->
<g id="edge14" class="edge"><title>Node7&#45;&gt;Node5</title>
<path fill="none" stroke="#9a32cd" stroke-dasharray="5,2" d="M363.965,-232.727C421.077,-231.042 488.296,-229.059 534.89,-227.685"/>
<polygon fill="#9a32cd" stroke="#9a32cd" points="363.686,-229.233 353.793,-233.027 363.892,-236.23 363.686,-229.233"/>
<text text-anchor="middle" x="443" y="-237" font-family="FreeSans" font-size="10.00"> attributeAnimationInfos_</text>
</g>
<!-- Node8 -->
<g id="node15" class="node"><title>Node8</title>
<a xlink:href="class_urho3_d_1_1_shared_ptr.html" target="_top" xlink:title="Urho3D::SharedPtr\&lt;\l Urho3D::ObjectAnimation \&gt;">
<polygon fill="none" stroke="red" points="176.5,-160 176.5,-194 329.5,-194 329.5,-160 176.5,-160"/>
<text text-anchor="start" x="184.5" y="-181" font-family="FreeSans" font-size="10.00">Urho3D::SharedPtr&lt;</text>
<text text-anchor="middle" x="253" y="-168" font-family="FreeSans" font-size="10.00"> Urho3D::ObjectAnimation &gt;</text>
</a>
</g>
<!-- Node8&#45;&gt;Node5 -->
<g id="edge16" class="edge"><title>Node8&#45;&gt;Node5</title>
<path fill="none" stroke="#9a32cd" stroke-dasharray="5,2" d="M339.619,-187.638C390.49,-194.13 455.989,-202.909 514,-212 520.796,-213.065 527.913,-214.248 534.966,-215.462"/>
<polygon fill="#9a32cd" stroke="#9a32cd" points="340.008,-184.16 329.647,-186.371 339.126,-191.104 340.008,-184.16"/>
<text text-anchor="middle" x="443" y="-216" font-family="FreeSans" font-size="10.00"> objectAnimation_</text>
</g>
<!-- Node9 -->
<g id="node17" class="node"><title>Node9</title>
<a xlink:href="class_urho3_d_1_1_hash_set.html" target="_top" xlink:title="Urho3D::HashSet\&lt; const\l Urho3D::AttributeInfo * \&gt;">
<polygon fill="none" stroke="red" points="182.5,-318 182.5,-352 323.5,-352 323.5,-318 182.5,-318"/>
<text text-anchor="start" x="190.5" y="-339" font-family="FreeSans" font-size="10.00">Urho3D::HashSet&lt; const</text>
<text text-anchor="middle" x="253" y="-326" font-family="FreeSans" font-size="10.00"> Urho3D::AttributeInfo * &gt;</text>
</a>
</g>
<!-- Node9&#45;&gt;Node5 -->
<g id="edge18" class="edge"><title>Node9&#45;&gt;Node5</title>
<path fill="none" stroke="#9a32cd" stroke-dasharray="5,2" d="M333.616,-332.246C388.505,-326.931 460.603,-312.904 514,-277 525.663,-269.158 521.072,-259.838 532,-251 539.371,-245.039 548.364,-240.299 557.122,-236.619"/>
<polygon fill="#9a32cd" stroke="#9a32cd" points="333.226,-328.767 323.576,-333.14 333.847,-335.739 333.226,-328.767"/>
<text text-anchor="middle" x="443" y="-331" font-family="FreeSans" font-size="10.00"> animatedNetworkAttributes_</text>
</g>
<!-- Node10&#45;&gt;Node4 -->
<g id="edge20" class="edge"><title>Node10&#45;&gt;Node4</title>
<path fill="none" stroke="#9a32cd" stroke-dasharray="5,2" d="M839.398,-263.982C847.949,-261.107 857.191,-258.502 866,-257 900.102,-251.186 938.832,-250.728 969.87,-251.821"/>
<polygon fill="#9a32cd" stroke="#9a32cd" points="837.984,-260.771 829.745,-267.431 840.34,-267.362 837.984,-260.771"/>
<text text-anchor="middle" x="905" y="-261" font-family="FreeSans" font-size="10.00"> node_</text>
</g>
<!-- Node10&#45;&gt;Node10 -->
<g id="edge48" class="edge"><title>Node10&#45;&gt;Node10</title>
<path fill="none" stroke="#9a32cd" stroke-dasharray="5,2" d="M786.94,-298.427C788.333,-303.349 794.353,-307 805,-307 822.035,-307 827.226,-297.653 820.571,-288.708"/>
<polygon fill="#9a32cd" stroke="#9a32cd" points="790.338,-299.264 789.429,-288.708 783.557,-297.527 790.338,-299.264"/>
<text text-anchor="middle" x="805" y="-311" font-family="FreeSans" font-size="10.00"> parent_</text>
</g>
<!-- Node13 -->
<g id="node26" class="node"><title>Node13</title>
<a xlink:href="class_urho3_d_1_1_scene.html" target="_top" xlink:title="Root scene node, represents the whole scene.">
<polygon fill="none" stroke="red" points="983.5,-290.5 983.5,-311.5 1072.5,-311.5 1072.5,-290.5 983.5,-290.5"/>
<text text-anchor="middle" x="1028" y="-298.5" font-family="FreeSans" font-size="10.00">Urho3D::Scene</text>
</a>
</g>
<!-- Node10&#45;&gt;Node13 -->
<g id="edge30" class="edge"><title>Node10&#45;&gt;Node13</title>
<path fill="none" stroke="midnightblue" d="M858.124,-283.479C896.239,-287.41 947.028,-292.649 983.117,-296.371"/>
<polygon fill="midnightblue" stroke="midnightblue" points="858.039,-279.952 847.733,-282.407 857.321,-286.915 858.039,-279.952"/>
</g>
<!-- Node11 -->
<g id="node22" class="node"><title>Node11</title>
<a xlink:href="class_urho3_d_1_1_p_o_d_vector.html" target="_top" xlink:title="Urho3D::PODVector\&lt;\l Urho3D::Node * \&gt;">
<polygon fill="none" stroke="black" points="383.5,-358 383.5,-392 502.5,-392 502.5,-358 383.5,-358"/>
<text text-anchor="start" x="391.5" y="-379" font-family="FreeSans" font-size="10.00">Urho3D::PODVector&lt;</text>
<text text-anchor="middle" x="443" y="-366" font-family="FreeSans" font-size="10.00"> Urho3D::Node * &gt;</text>
</a>
</g>
<!-- Node11&#45;&gt;Node10 -->
<g id="edge24" class="edge"><title>Node11&#45;&gt;Node10</title>
<path fill="none" stroke="#9a32cd" stroke-dasharray="5,2" d="M492.009,-353.987C547.644,-330.495 635.185,-294.719 670,-287 700.386,-280.263 735.482,-278.089 762.273,-277.559"/>
<polygon fill="#9a32cd" stroke="#9a32cd" points="490.534,-350.811 482.69,-357.933 493.263,-357.257 490.534,-350.811"/>
<text text-anchor="middle" x="592" y="-341" font-family="FreeSans" font-size="10.00"> dependencyNodes_</text>
</g>
<!-- Node12 -->
<g id="node24" class="node"><title>Node12</title>
<a xlink:href="class_urho3_d_1_1_vector_base.html" target="_top" xlink:title="Vector base class.">
<polygon fill="none" stroke="black" points="0,-34.5 0,-55.5 114,-55.5 114,-34.5 0,-34.5"/>
<text text-anchor="middle" x="57" y="-42.5" font-family="FreeSans" font-size="10.00">Urho3D::VectorBase</text>
</a>
</g>
<!-- Node12&#45;&gt;Node11 -->
<g id="edge26" class="edge"><title>Node12&#45;&gt;Node11</title>
<path fill="none" stroke="midnightblue" d="M60.1103,-65.8178C70.172,-130.115 103.992,-323.477 152,-361 217.655,-412.315 319.326,-403.38 383.465,-390.491"/>
<polygon fill="midnightblue" stroke="midnightblue" points="63.5332,-65.0473 58.557,-55.6938 56.6141,-66.1089 63.5332,-65.0473"/>
</g>
<!-- Node18 -->
<g id="node38" class="node"><title>Node18</title>
<a xlink:href="class_urho3_d_1_1_p_o_d_vector.html" target="_top" xlink:title="Urho3D::PODVector\&lt;\l unsigned char \&gt;">
<polygon fill="none" stroke="black" points="193.5,-28 193.5,-62 312.5,-62 312.5,-28 193.5,-28"/>
<text text-anchor="start" x="201.5" y="-49" font-family="FreeSans" font-size="10.00">Urho3D::PODVector&lt;</text>
<text text-anchor="middle" x="253" y="-36" font-family="FreeSans" font-size="10.00"> unsigned char &gt;</text>
</a>
</g>
<!-- Node12&#45;&gt;Node18 -->
<g id="edge44" class="edge"><title>Node12&#45;&gt;Node18</title>
<path fill="none" stroke="midnightblue" d="M124.329,-45C146.741,-45 171.533,-45 193.324,-45"/>
<polygon fill="midnightblue" stroke="midnightblue" points="124.218,-41.5001 114.218,-45 124.218,-48.5001 124.218,-41.5001"/>
</g>
<!-- Node22 -->
<g id="node53" class="node"><title>Node22</title>
<a xlink:href="class_urho3_d_1_1_p_o_d_vector.html" target="_top" xlink:title="Urho3D::PODVector\&lt;\l Urho3D::Constraint * \&gt;">
<polygon fill="none" stroke="black" points="962.5,-53 962.5,-87 1093.5,-87 1093.5,-53 962.5,-53"/>
<text text-anchor="start" x="970.5" y="-74" font-family="FreeSans" font-size="10.00">Urho3D::PODVector&lt;</text>
<text text-anchor="middle" x="1028" y="-61" font-family="FreeSans" font-size="10.00"> Urho3D::Constraint * &gt;</text>
</a>
</g>
<!-- Node12&#45;&gt;Node22 -->
<g id="edge66" class="edge"><title>Node12&#45;&gt;Node22</title>
<path fill="none" stroke="midnightblue" d="M94.6438,-31.0339C133.678,-17.8214 196.754,-0 253,-0 253,-0 253,-0 805,-0 875.403,-0 952.806,-32.1527 995.383,-52.8761"/>
<polygon fill="midnightblue" stroke="midnightblue" points="93.0821,-27.8706 84.7773,-34.4495 95.3721,-34.4855 93.0821,-27.8706"/>
</g>
<!-- Node13&#45;&gt;Node10 -->
<g id="edge28" class="edge"><title>Node13&#45;&gt;Node10</title>
<path fill="none" stroke="#9a32cd" stroke-dasharray="5,2" d="M973.051,-302.153C941.545,-302.02 901.354,-300.503 866,-295 856.549,-293.529 846.477,-291.094 837.297,-288.521"/>
<polygon fill="#9a32cd" stroke="#9a32cd" points="973.384,-305.653 983.383,-302.149 973.381,-298.653 973.384,-305.653"/>
<text text-anchor="middle" x="905" y="-305" font-family="FreeSans" font-size="10.00"> scene_</text>
</g>
<!-- Node14 -->
<g id="node29" class="node"><title>Node14</title>
<a xlink:href="class_urho3_d_1_1_quaternion.html" target="_top" xlink:title="Rotation represented as a four&#45;dimensional normalized vector.">
<polygon fill="none" stroke="black" points="535.5,-385.5 535.5,-406.5 648.5,-406.5 648.5,-385.5 535.5,-385.5"/>
<text text-anchor="middle" x="592" y="-393.5" font-family="FreeSans" font-size="10.00">Urho3D::Quaternion</text>
</a>
</g>
<!-- Node14&#45;&gt;Node3 -->
<g id="edge52" class="edge"><title>Node14&#45;&gt;Node3</title>
<path fill="none" stroke="#9a32cd" stroke-dasharray="5,2" d="M658.814,-407.899C700.668,-414.342 755.812,-421 805,-421 805,-421 805,-421 1152,-421 1395.76,-421 1681.51,-335.809 1775.38,-305.526"/>
<polygon fill="#9a32cd" stroke="#9a32cd" points="659.166,-404.411 648.743,-406.313 658.077,-411.326 659.166,-404.411"/>
<text text-anchor="middle" x="1152" y="-425" font-family="FreeSans" font-size="10.00"> lastRotation_</text>
</g>
<!-- Node14&#45;&gt;Node10 -->
<g id="edge32" class="edge"><title>Node14&#45;&gt;Node10</title>
<path fill="none" stroke="#9a32cd" stroke-dasharray="5,2" d="M603.539,-376.682C616.888,-356.094 640.816,-324.154 670,-307 685.448,-297.92 728.894,-289.555 762.368,-284.167"/>
<polygon fill="#9a32cd" stroke="#9a32cd" points="600.515,-374.916 598.169,-385.248 606.446,-378.634 600.515,-374.916"/>
<text text-anchor="middle" x="707" y="-324" font-family="FreeSans" font-size="10.00"> worldRotation_</text>
<text text-anchor="middle" x="707" y="-311" font-family="FreeSans" font-size="10.00">rotation_</text>
</g>
<!-- Node14&#45;&gt;Node14 -->
<g id="edge34" class="edge"><title>Node14&#45;&gt;Node14</title>
<path fill="none" stroke="#9a32cd" stroke-dasharray="5,2" d="M570.991,-416.427C572.612,-421.349 579.615,-425 592,-425 611.816,-425 617.854,-415.653 610.113,-406.708"/>
<polygon fill="#9a32cd" stroke="#9a32cd" points="574.385,-417.291 573.887,-406.708 567.677,-415.292 574.385,-417.291"/>
<text text-anchor="middle" x="592" y="-429" font-family="FreeSans" font-size="10.00"> IDENTITY</text>
</g>
<!-- Node14&#45;&gt;Node25 -->
<g id="edge80" class="edge"><title>Node14&#45;&gt;Node25</title>
<path fill="none" stroke="#9a32cd" stroke-dasharray="5,2" d="M658.91,-390.528C788.309,-379.946 1072.24,-356.726 1210.39,-345.428"/>
<polygon fill="#9a32cd" stroke="#9a32cd" points="658.424,-387.056 648.743,-391.36 658.995,-394.033 658.424,-387.056"/>
<text text-anchor="middle" x="905" y="-377" font-family="FreeSans" font-size="10.00"> targetRotation_</text>
</g>
<!-- Node15 -->
<g id="node32" class="node"><title>Node15</title>
<a xlink:href="class_urho3_d_1_1_vector_buffer.html" target="_top" xlink:title="Dynamically sized buffer that can be read and written to as a stream.">
<polygon fill="none" stroke="black" points="532.5,-120.5 532.5,-141.5 651.5,-141.5 651.5,-120.5 532.5,-120.5"/>
<text text-anchor="middle" x="592" y="-128.5" font-family="FreeSans" font-size="10.00">Urho3D::VectorBuffer</text>
</a>
</g>
<!-- Node15&#45;&gt;Node3 -->
<g id="edge54" class="edge"><title>Node15&#45;&gt;Node3</title>
<path fill="none" stroke="#9a32cd" stroke-dasharray="5,2" d="M655.57,-143.078C660.442,-143.799 665.294,-144.453 670,-145 1013.96,-184.997 1104.85,-140.516 1448,-187 1577.84,-204.589 1614.82,-200.169 1736,-250 1757.46,-258.825 1779.65,-274.047 1793.39,-284.315"/>
<polygon fill="#9a32cd" stroke="#9a32cd" points="655.999,-139.603 645.578,-141.516 654.917,-146.519 655.999,-139.603"/>
<text text-anchor="middle" x="1152" y="-169" font-family="FreeSans" font-size="10.00"> attrBuffer_</text>
</g>
<!-- Node15&#45;&gt;Node10 -->
<g id="edge36" class="edge"><title>Node15&#45;&gt;Node10</title>
<path fill="none" stroke="#9a32cd" stroke-dasharray="5,2" d="M619.133,-146.976C650.042,-165.481 701.738,-197.36 744,-228 761.516,-240.699 780.647,-256.769 792.727,-267.211"/>
<polygon fill="#9a32cd" stroke="#9a32cd" points="620.623,-143.791 610.241,-141.679 617.041,-149.804 620.623,-143.791"/>
<text text-anchor="middle" x="707" y="-232" font-family="FreeSans" font-size="10.00"> attrBuffer_</text>
</g>
<!-- Node15&#45;&gt;Node21 -->
<g id="edge62" class="edge"><title>Node15&#45;&gt;Node21</title>
<path fill="none" stroke="#9a32cd" stroke-dasharray="5,2" d="M662.094,-131C799.086,-131 1100.17,-131 1228.8,-131"/>
<polygon fill="#9a32cd" stroke="#9a32cd" points="661.727,-127.5 651.727,-131 661.727,-134.5 661.727,-127.5"/>
<text text-anchor="middle" x="905" y="-135" font-family="FreeSans" font-size="10.00"> contacts_</text>
</g>
<!-- Node16 -->
<g id="node34" class="node"><title>Node16</title>
<a xlink:href="class_urho3_d_1_1_deserializer.html" target="_top" xlink:title="Abstract stream for reading.">
<polygon fill="none" stroke="black" points="195,-80.5 195,-101.5 311,-101.5 311,-80.5 195,-80.5"/>
<text text-anchor="middle" x="253" y="-88.5" font-family="FreeSans" font-size="10.00">Urho3D::Deserializer</text>
</a>
</g>
<!-- Node16&#45;&gt;Node15 -->
<g id="edge38" class="edge"><title>Node16&#45;&gt;Node15</title>
<path fill="none" stroke="midnightblue" d="M321.339,-99.0636C383.233,-106.367 473.505,-117.018 532.494,-123.979"/>
<polygon fill="midnightblue" stroke="midnightblue" points="321.617,-95.5723 311.276,-97.8762 320.797,-102.524 321.617,-95.5723"/>
</g>
<!-- Node17 -->
<g id="node36" class="node"><title>Node17</title>
<a xlink:href="class_urho3_d_1_1_serializer.html" target="_top" xlink:title="Abstract stream for writing.">
<polygon fill="none" stroke="black" points="201,-120.5 201,-141.5 305,-141.5 305,-120.5 201,-120.5"/>
<text text-anchor="middle" x="253" y="-128.5" font-family="FreeSans" font-size="10.00">Urho3D::Serializer</text>
</a>
</g>
<!-- Node17&#45;&gt;Node15 -->
<g id="edge40" class="edge"><title>Node17&#45;&gt;Node15</title>
<path fill="none" stroke="midnightblue" d="M315.246,-131C377.109,-131 471.325,-131 532.286,-131"/>
<polygon fill="midnightblue" stroke="midnightblue" points="315.226,-127.5 305.226,-131 315.226,-134.5 315.226,-127.5"/>
</g>
<!-- Node18&#45;&gt;Node15 -->
<g id="edge42" class="edge"><title>Node18&#45;&gt;Node15</title>
<path fill="none" stroke="#9a32cd" stroke-dasharray="5,2" d="M322.728,-50.5144C376.194,-56.2214 451.218,-67.4623 514,-89 536.695,-96.7855 560.694,-110.679 575.981,-120.345"/>
<polygon fill="#9a32cd" stroke="#9a32cd" points="322.974,-47.0214 312.668,-49.4787 322.257,-53.9846 322.974,-47.0214"/>
<text text-anchor="middle" x="443" y="-93" font-family="FreeSans" font-size="10.00"> buffer_</text>
</g>
<!-- Node19 -->
<g id="node43" class="node"><title>Node19</title>
<polygon fill="none" stroke="#bfbfbf" points="1496.5,-447.5 1496.5,-468.5 1581.5,-468.5 1581.5,-447.5 1496.5,-447.5"/>
<text text-anchor="middle" x="1539" y="-455.5" font-family="FreeSans" font-size="10.00">btMotionState</text>
</g>
<!-- Node19&#45;&gt;Node3 -->
<g id="edge50" class="edge"><title>Node19&#45;&gt;Node3</title>
<path fill="none" stroke="midnightblue" d="M1592.05,-464.022C1634.67,-466.065 1694.13,-462.323 1736,-433 1781.02,-401.471 1799.38,-332.56 1804.97,-305.866"/>
<polygon fill="midnightblue" stroke="midnightblue" points="1592.06,-460.517 1581.87,-463.41 1591.64,-467.504 1592.06,-460.517"/>
</g>
<!-- Node20 -->
<g id="node47" class="node"><title>Node20</title>
<a xlink:href="class_urho3_d_1_1_weak_ptr.html" target="_top" xlink:title="Urho3D::WeakPtr\&lt; Urho3D\l::PhysicsWorld \&gt;">
<polygon fill="none" stroke="black" points="1466,-112 1466,-146 1612,-146 1612,-112 1466,-112"/>
<text text-anchor="start" x="1474" y="-133" font-family="FreeSans" font-size="10.00">Urho3D::WeakPtr&lt; Urho3D</text>
<text text-anchor="middle" x="1539" y="-120" font-family="FreeSans" font-size="10.00">::PhysicsWorld &gt;</text>
</a>
</g>
<!-- Node20&#45;&gt;Node3 -->
<g id="edge56" class="edge"><title>Node20&#45;&gt;Node3</title>
<path fill="none" stroke="#9a32cd" stroke-dasharray="5,2" d="M1622.77,-118.856C1660.39,-118.523 1703.52,-124.428 1736,-147 1784.21,-180.501 1800.81,-255.92 1805.45,-284.102"/>
<polygon fill="#9a32cd" stroke="#9a32cd" points="1622.23,-115.368 1612.32,-119.107 1622.4,-122.366 1622.23,-115.368"/>
<text text-anchor="middle" x="1683" y="-151" font-family="FreeSans" font-size="10.00"> physicsWorld_</text>
</g>
<!-- Node21&#45;&gt;Node20 -->
<g id="edge58" class="edge"><title>Node21&#45;&gt;Node20</title>
<path fill="none" stroke="#9a32cd" stroke-dasharray="5,2" d="M1359.31,-130.438C1392.59,-130.171 1432.32,-129.853 1465.95,-129.584"/>
<polygon fill="#9a32cd" stroke="#9a32cd" points="1359.17,-126.938 1349.2,-130.518 1359.23,-133.938 1359.17,-126.938"/>
<text text-anchor="middle" x="1417" y="-135" font-family="FreeSans" font-size="10.00"> ptr_</text>
</g>
<!-- Node22&#45;&gt;Node3 -->
<g id="edge72" class="edge"><title>Node22&#45;&gt;Node3</title>
<path fill="none" stroke="#9a32cd" stroke-dasharray="5,2" d="M1101.58,-50.7186C1240.95,-18.8897 1546.41,27.8719 1736,-115 1792.61,-157.658 1804.13,-252.278 1806.44,-284.224"/>
<polygon fill="#9a32cd" stroke="#9a32cd" points="1100.79,-47.3099 1091.84,-52.9816 1102.37,-54.1284 1100.79,-47.3099"/>
<text text-anchor="middle" x="1417" y="-24" font-family="FreeSans" font-size="10.00"> constraints_</text>
</g>
<!-- Node22&#45;&gt;Node21 -->
<g id="edge64" class="edge"><title>Node22&#45;&gt;Node21</title>
<path fill="none" stroke="#9a32cd" stroke-dasharray="5,2" d="M1103.73,-84.5971C1131.58,-90.254 1163.31,-97.0411 1192,-104 1212.39,-108.944 1234.97,-115.186 1253.22,-120.422"/>
<polygon fill="#9a32cd" stroke="#9a32cd" points="1104.16,-81.1123 1093.66,-82.5658 1102.77,-87.9741 1104.16,-81.1123"/>
<text text-anchor="middle" x="1152" y="-108" font-family="FreeSans" font-size="10.00"> constraints_</text>
</g>
<!-- Node23 -->
<g id="node56" class="node"><title>Node23</title>
<a xlink:href="struct_urho3_d_1_1_ref_count.html" target="_top" xlink:title="Reference count structure.">
<polygon fill="none" stroke="black" points="1238,-219.5 1238,-240.5 1340,-240.5 1340,-219.5 1238,-219.5"/>
<text text-anchor="middle" x="1289" y="-227.5" font-family="FreeSans" font-size="10.00">Urho3D::RefCount</text>
</a>
</g>
<!-- Node23&#45;&gt;Node20 -->
<g id="edge68" class="edge"><title>Node23&#45;&gt;Node20</title>
<path fill="none" stroke="#9a32cd" stroke-dasharray="5,2" d="M1324.7,-215.575C1370.03,-197.265 1448.12,-165.715 1496.48,-146.18"/>
<polygon fill="#9a32cd" stroke="#9a32cd" points="1323.24,-212.391 1315.28,-219.382 1325.86,-218.881 1323.24,-212.391"/>
<text text-anchor="middle" x="1417" y="-193" font-family="FreeSans" font-size="10.00"> refCount_</text>
</g>
<!-- Node24 -->
<g id="node60" class="node"><title>Node24</title>
<a xlink:href="class_urho3_d_1_1_weak_ptr.html" target="_top" xlink:title="Urho3D::WeakPtr\&lt; Urho3D\l::SmoothedTransform \&gt;">
<polygon fill="none" stroke="black" points="1466,-233 1466,-267 1612,-267 1612,-233 1466,-233"/>
<text text-anchor="start" x="1474" y="-254" font-family="FreeSans" font-size="10.00">Urho3D::WeakPtr&lt; Urho3D</text>
<text text-anchor="middle" x="1539" y="-241" font-family="FreeSans" font-size="10.00">::SmoothedTransform &gt;</text>
</a>
</g>
<!-- Node23&#45;&gt;Node24 -->
<g id="edge84" class="edge"><title>Node23&#45;&gt;Node24</title>
<path fill="none" stroke="#9a32cd" stroke-dasharray="5,2" d="M1350.23,-234.898C1385.07,-237.685 1428.92,-241.194 1465.6,-244.128"/>
<polygon fill="#9a32cd" stroke="#9a32cd" points="1350.44,-231.404 1340.19,-234.096 1349.88,-238.382 1350.44,-231.404"/>
<text text-anchor="middle" x="1417" y="-247" font-family="FreeSans" font-size="10.00"> refCount_</text>
</g>
<!-- Node24&#45;&gt;Node3 -->
<g id="edge74" class="edge"><title>Node24&#45;&gt;Node3</title>
<path fill="none" stroke="#9a32cd" stroke-dasharray="5,2" d="M1622.54,-252.602C1657.89,-254.995 1699.3,-259.514 1736,-268 1752.57,-271.833 1770.47,-278.659 1784.15,-284.488"/>
<polygon fill="#9a32cd" stroke="#9a32cd" points="1622.46,-249.09 1612.26,-251.954 1622.02,-256.076 1622.46,-249.09"/>
<text text-anchor="middle" x="1683" y="-272" font-family="FreeSans" font-size="10.00"> smoothedTransform_</text>
</g>
<!-- Node25&#45;&gt;Node24 -->
<g id="edge76" class="edge"><title>Node25&#45;&gt;Node24</title>
<path fill="none" stroke="#9a32cd" stroke-dasharray="5,2" d="M1328.15,-325.062C1372.16,-309.394 1443.64,-283.948 1490.98,-267.093"/>
<polygon fill="#9a32cd" stroke="#9a32cd" points="1326.91,-321.79 1318.66,-328.441 1329.25,-328.384 1326.91,-321.79"/>
<text text-anchor="middle" x="1417" y="-306" font-family="FreeSans" font-size="10.00"> ptr_</text>
</g>
</g>
</svg>
        <g id="navigator" transform="translate(0 0)" fill="#404254">
                <rect fill="#f2f5e9" fill-opacity="0.5" stroke="#606060" stroke-width=".5" x="0" y="0" width="60" height="60"/>
                <use id="zoomplus" xlink:href="#zoomPlus" x="17" y="9" onmousedown="handleZoom(evt,'in')"/>
                <use id="zoomminus" xlink:href="#zoomMin" x="42" y="9" onmousedown="handleZoom(evt,'out')"/>
                <use id="reset" xlink:href="#resetDef" x="30" y="36" onmousedown="handleReset()"/>
                <g id="arrowUp" xlink:href="#dirArrow" transform="translate(30 24)" onmousedown="handlePan(0,-1)">
                  <use xlink:href="#rim" fill="#404040">
                        <set attributeName="fill" to="#808080" begin="arrowUp.mouseover" end="arrowUp.mouseout"/>
                  </use>
                  <path fill="none" stroke="white" stroke-width="1.5" d="M0,-3.0v7 M-2.5,-0.5L0,-3.0L2.5,-0.5"/>
                </g>
                <g id="arrowRight" xlink:href="#dirArrow" transform="rotate(90) translate(36 -43)" onmousedown="handlePan(1,0)">
                  <use xlink:href="#rim" fill="#404040">
                        <set attributeName="fill" to="#808080" begin="arrowRight.mouseover" end="arrowRight.mouseout"/>
                  </use>
                  <path fill="none" stroke="white" stroke-width="1.5" d="M0,-3.0v7 M-2.5,-0.5L0,-3.0L2.5,-0.5"/>
                </g>
                <g id="arrowDown" xlink:href="#dirArrow" transform="rotate(180) translate(-30 -48)" onmousedown="handlePan(0,1)">
                  <use xlink:href="#rim" fill="#404040">
                        <set attributeName="fill" to="#808080" begin="arrowDown.mouseover" end="arrowDown.mouseout"/>
                  </use>
                  <path fill="none" stroke="white" stroke-width="1.5" d="M0,-3.0v7 M-2.5,-0.5L0,-3.0L2.5,-0.5"/>
                </g>
                <g id="arrowLeft" xlink:href="#dirArrow" transform="rotate(270) translate(-36 17)" onmousedown="handlePan(-1,0)">
                  <use xlink:href="#rim" fill="#404040">
                        <set attributeName="fill" to="#808080" begin="arrowLeft.mouseover" end="arrowLeft.mouseout"/>
                  </use>
                  <path fill="none" stroke="white" stroke-width="1.5" d="M0,-3.0v7 M-2.5,-0.5L0,-3.0L2.5,-0.5"/>
                </g>
        </g>
        <svg viewBox="0 0 15 15" width="100%" height="30px" preserveAspectRatio="xMaxYMin meet">
         <g id="arrow_out" transform="scale(0.3 0.3)">
          <a xlink:href="struct_urho3_d_1_1_physics_raycast_result__coll__graph_org.svg" target="_base">
           <rect id="button" ry="5" rx="5" y="6" x="6" height="38" width="38"
                fill="#f2f5e9" fill-opacity="0.5" stroke="#606060" stroke-width="1.0"/>
           <path id="arrow"
             d="M 11.500037,31.436501 C 11.940474,20.09759 22.043105,11.32322 32.158766,21.979434 L 37.068811,17.246167 C 37.068811,17.246167 37.088388,32 37.088388,32 L 22.160133,31.978069 C 22.160133,31.978069 26.997745,27.140456 26.997745,27.140456 C 18.528582,18.264221 13.291696,25.230495 11.500037,31.436501 z"
             style="fill:#404040;"/>
          </a>
         </g>
        </svg>
</svg>
